<?xml version="1.0" encoding="UTF-8" standalone="no"?>
<svg
   version="1.0"
   width="38.000000pt"
   height="38.000000pt"
   viewBox="0 0 172.000000 172.000000"
   preserveAspectRatio="xMidYMid meet"
   id="svg35"
   sodipodi:docname="logo (2).svg"
   inkscape:version="1.1.1 (3bf5ae0d25, 2021-09-20)"
   xmlns:inkscape="http://www.inkscape.org/namespaces/inkscape"
   xmlns:sodipodi="http://sodipodi.sourceforge.net/DTD/sodipodi-0.dtd"
   xmlns="http://www.w3.org/2000/svg"
   xmlns:svg="http://www.w3.org/2000/svg">
  <defs
     id="defs39" />
  <sodipodi:namedview
     id="namedview37"
     pagecolor="#ffffff"
     bordercolor="#666666"
     borderopacity="1.0"
     inkscape:pageshadow="2"
     inkscape:pageopacity="0.0"
     inkscape:pagecheckerboard="0"
     inkscape:document-units="pt"
     showgrid="false"
     showguides="false"
     inkscape:zoom="11.042763"
     inkscape:cx="82.135241"
     inkscape:cy="40.252607"
     inkscape:window-width="2560"
     inkscape:window-height="1369"
     inkscape:window-x="-8"
     inkscape:window-y="-8"
     inkscape:window-maximized="1"
     inkscape:current-layer="svg35" />
  <metadata
     id="metadata25">
Created by Docfx
</metadata>
  <g
     id="g15"
     transform="matrix(4.472572,0,0,4.4498264,0.94427899,1.6439545)"
     style="fill:#ffffff">
    <path
       class="st0"
       d="m 16.9,13.8 c 0.1,0 0.2,0 0.3,0 L 26.8,4.5 C 24.5,3.3 21.8,2.5 19,2.5 9.9,2.6 2.6,9.9 2.6,19 c 0,2.6 0.6,5.1 1.7,7.3 l 7,-6.8 c 0.1,-1.6 0.6,-2.8 1.5,-3.8 1.1,-1.3 2.4,-1.9 4.1,-1.9 z"
       id="path5"
       style="fill:#ffffff" />
    <path
       class="st0"
       d="m 27.9,5.2 -3.2,3 V 34.3 C 31,32 35.4,26 35.4,19 35.4,13.2 32.4,8.1 27.9,5.2 Z"
       id="path7"
       style="fill:#ffffff" />
    <path
       class="st0"
       d="m 20.2,15.5 v 0 -2.9 l -1.5,1.5 c 0.6,0.3 1.2,0.8 1.5,1.4 z"
       id="path9"
       style="fill:#ffffff" />
    <path
       class="st0"
       d="m 20.3,24.6 v 0 c -0.9,1.3 -2.2,2 -3.9,2 -1.5,0 -2.8,-0.5 -3.7,-1.6 -0.8,-0.9 -1.3,-2.2 -1.4,-3.7 l -6.4,6.2 c 2.9,4.8 8.1,8 14.1,8 1.6,0 3.1,-0.2 4.5,-0.6 v -8.5 h -3.2 z"
       id="path11"
       style="fill:#ffffff" />
    <path
       class="st0"
       d="m 17.8,16.7 c -0.8,0 -1.5,0.3 -2,1 -0.5,0.7 -0.7,1.6 -0.7,2.7 0,1.1 0.2,1.9 0.7,2.5 0.5,0.6 1.1,0.9 1.9,0.9 0.8,0 1.4,-0.3 1.9,-0.9 0.5,-0.6 0.7,-1.4 0.7,-2.4 v -0.9 c 0,-0.8 -0.2,-1.4 -0.7,-2 -0.4,-0.7 -1,-0.9 -1.8,-0.9 z"
       id="path13"
       style="fill:#ffffff" />
  </g>
</svg>
