<?xml version="1.0" encoding="UTF-8" standalone="no"?>
<svg
   version="1.0"
   width="38.000000pt"
   height="38.000000pt"
   viewBox="0 0 172.000000 172.000000"
   preserveAspectRatio="xMidYMid meet"
   id="svg35"
   sodipodi:docname="logo1.svg"
   inkscape:version="1.1.1 (3bf5ae0d25, 2021-09-20)"
   xmlns:inkscape="http://www.inkscape.org/namespaces/inkscape"
   xmlns:sodipodi="http://sodipodi.sourceforge.net/DTD/sodipodi-0.dtd"
   xmlns="http://www.w3.org/2000/svg"
   xmlns:svg="http://www.w3.org/2000/svg">
  <defs
     id="defs39" />
  <sodipodi:namedview
     id="namedview37"
     pagecolor="#ffffff"
     bordercolor="#666666"
     borderopacity="1.0"
     inkscape:pageshadow="2"
     inkscape:pageopacity="0.0"
     inkscape:pagecheckerboard="0"
     inkscape:document-units="pt"
     showgrid="false"
     showguides="false"
     inkscape:zoom="11.042763"
     inkscape:cx="94.858506"
     inkscape:cy="40.252607"
     inkscape:window-width="2560"
     inkscape:window-height="1369"
     inkscape:window-x="-8"
     inkscape:window-y="-8"
     inkscape:window-maximized="1"
     inkscape:current-layer="svg35" />
  <metadata
     id="metadata25">
Created by Docfx
</metadata>
  <path
     class="cls-1"
     d="m 74.886275,59.953773 h 1.66932 L 125.37191,13.671158 A 83.917142,82.064503 0 0 0 1.7971511,85.896745 82.879458,81.049727 0 0 0 10.459566,122.11984 L 46.552961,88.191022 a 34.288726,33.531733 0 0 1 7.444263,-19.148385 25.851894,25.281162 0 0 1 20.889051,-9.088864 z"
     id="path28"
     style="fill:#ffffff;stroke-width:4.4616" />
  <path
     class="cls-1"
     d="M 131.14685,17.024331 114.99506,32.245973 V 162.71088 A 83.82691,81.976262 0 0 0 131.14685,17.112573 Z"
     id="path30"
     style="fill:#ffffff;stroke-width:4.4616" />
  <path
     class="cls-1"
     d="m 91.85017,68.380826 v 0 -14.250985 l -7.850313,7.368156 a 15.610393,15.265762 0 0 1 7.850313,6.882829 z"
     id="path32"
     style="fill:#ffffff;stroke-width:4.4616" />
  <path
     class="cls-1"
     d="M 92.075754,113.86927 H 91.85017 A 21.88162,21.398539 0 0 1 72.359737,123.75231 23.95699,23.428092 0 0 1 53.365588,115.67822 31.581721,30.884491 0 0 1 46.327377,97.015161 L 13.617739,127.89966 a 83.872026,82.020382 0 0 0 72.186788,40.01746 84.864594,82.991038 0 0 0 22.874183,-3.08845 V 122.25221 H 92.075754 Z"
     id="path34"
     style="fill:#ffffff;stroke-width:4.4616" />
  <path
     class="cls-1"
     d="m 79.623534,74.337121 a 11.77547,11.515503 0 0 0 -10.106151,4.897398 23.190006,22.67804 0 0 0 -3.609339,13.456813 19.941601,19.50135 0 0 0 3.519105,12.353798 12.497338,12.221434 0 0 0 19.309967,-0.26472 19.219733,18.795419 0 0 0 3.699572,-12.089078 v -4.41207 a 14.662942,14.339228 0 0 0 -3.564222,-9.883036 11.77547,11.515503 0 0 0 -9.248932,-4.059105 z"
     id="path36"
     style="fill:#ffffff;stroke-width:4.4616" />
</svg>
