<?xml version="1.0" encoding="UTF-8"?><svg id="Layer_2" xmlns="http://www.w3.org/2000/svg" xmlns:xlink="http://www.w3.org/1999/xlink" viewBox="0 0 790 450"><defs><style>.cls-1{fill:none;}.cls-2{fill:url(#linear-gradient);}.cls-3{clip-path:url(#clippath);}.cls-4{mask:url(#mask);}.cls-5{fill:#f7f7f7;}.cls-6{fill:#f7ebff;}.cls-7{fill:#f2fbfe;}.cls-8{fill:#00517d;}.cls-9{fill:#0078d4;}.cls-10{fill:#ebf9fe;}.cls-11{fill:#fff;}.cls-12{fill:#fcf7ff;}.cls-13{fill:#80d6f7;}.cls-14{fill:#d1f0fc;}.cls-15{fill:#141414;}.cls-16{fill:#5e438f;}.cls-17{clip-path:url(#clippath-1);}.cls-18{fill:url(#linear-gradient-3);}.cls-19{fill:url(#linear-gradient-4);}.cls-20{fill:url(#linear-gradient-2);}.cls-21{fill:url(#linear-gradient-5);}</style><clipPath id="clippath"><rect class="cls-1" x="234.94" y="44.5" width="33.12" height="33.12"/></clipPath><clipPath id="clippath-1"><rect class="cls-1" x="234.94" y="44.5" width="33.12" height="33.12"/></clipPath><mask id="mask" x="234.94" y="44.5" width="33.12" height="33.12" maskUnits="userSpaceOnUse"><g id="mask0"><path class="cls-11" d="m241.01,72.51l-5.52-4.14c-.17-.13-.31-.29-.41-.49s-.15-.4-.14-.62v-12.42c0-.21.05-.43.14-.62.1-.19.24-.36.41-.49l5.52-4.14c-.15.14-.26.31-.33.5-.07.19-.08.4-.05.6v20.7c-.03.2-.01.41.05.6s.18.37.33.5Z"/><path class="cls-11" d="m267.45,50.25c-.23-.15-.49-.23-.77-.23-.18,0-.35.03-.51.1-.16.07-.31.16-.44.29l-.1.1-11.01,10.56-6.09,5.84-5.64,5.4-.1.1c-.13.12-.27.22-.44.29-.16.07-.34.1-.51.1-.3,0-.59-.1-.83-.28l-5.52-4.14c.28.21.63.31.98.27.35-.04.67-.21.9-.48l6.13-7.11,5.03-5.84,8.81-10.23c.13-.15.29-.27.47-.36.18-.08.38-.13.57-.13.27,0,.54.08.77.23l8.3,5.52Z"/><path class="cls-11" d="m267.45,71.87l-8.28,5.52c-.28.18-.62.26-.95.21-.33-.05-.64-.21-.86-.46l-8.83-10.24-5.03-5.85-6.13-7.11c-.23-.26-.55-.43-.9-.47-.35-.04-.7.06-.98.27l5.52-4.14c.24-.18.53-.28.83-.28.18,0,.35.03.51.1.16.07.31.16.44.29l.1.1,5.64,5.4,6.09,5.84,11.01,10.56.1.1c.13.12.27.22.44.29.16.07.34.1.51.1.27,0,.54-.08.77-.23Z"/><path class="cls-11" d="m268.06,51.4v19.32c0,.23-.06.45-.16.65-.11.2-.26.37-.45.5l-8.28,5.52c.19-.13.34-.3.45-.5.11-.2.16-.43.16-.65v-30.36c0-.23-.06-.45-.17-.66-.11-.2-.27-.37-.46-.5l8.3,5.52c.19.13.34.3.45.5.11.2.16.42.16.65Z"/></g></mask><linearGradient id="linear-gradient" x1="263.68" y1="-272.32" x2="239.09" y2="-297.07" gradientTransform="translate(0 -226) scale(1 -1)" gradientUnits="userSpaceOnUse"><stop offset="0" stop-color="#7252aa"/><stop offset="1" stop-color="#7252aa"/></linearGradient><linearGradient id="linear-gradient-2" x1="239.41" y1="-275.31" x2="262.53" y2="-301.19" gradientTransform="translate(0 -226) scale(1 -1)" gradientUnits="userSpaceOnUse"><stop offset="0" stop-color="#ae7fe2"/><stop offset="1" stop-color="#9a70d4"/></linearGradient><linearGradient id="linear-gradient-3" x1="263.6" y1="-270.06" x2="263.6" y2="-303.37" gradientTransform="translate(0 -226) scale(1 -1)" gradientUnits="userSpaceOnUse"><stop offset="0" stop-color="#d59dff"/><stop offset="1" stop-color="#c18ef1"/></linearGradient><linearGradient id="linear-gradient-4" x1="606.91" y1="49.48" x2="614.85" y2="57.38" gradientUnits="userSpaceOnUse"><stop offset="0" stop-color="#00aeef"/><stop offset=".86" stop-color="#2892df"/></linearGradient><linearGradient id="linear-gradient-5" x1="623.81" y1="61.97" x2="635.73" y2="61.97" gradientUnits="userSpaceOnUse"><stop offset="0" stop-color="#013f61"/><stop offset="1" stop-color="#00517d"/></linearGradient></defs><rect class="cls-5" width="790" height="450"/><rect class="cls-14" x="486.5" y="28.5" width="264" height="393" rx="13.31" ry="13.31"/><rect class="cls-13" x="588.5" y="195.5" width="149" height="139" rx="8" ry="8"/><rect class="cls-6" x="39.5" y="28.5" width="424" height="393" rx="13.31" ry="13.31"/><path class="cls-5" d="m277.81,184.96v32.6c0,.44-.34.81-.81.81h-31.76c-.44,0-.81-.37-.81-.81v-44.51c0-.44.37-.81.81-.81h19.88l12.69,12.72Z"/><path class="cls-8" d="m277,219.12h-31.76c-.84,0-1.56-.71-1.56-1.56v-44.52c0-.84.71-1.56,1.56-1.56h19.88c.2,0,.39.08.53.22l12.69,12.72c.14.14.22.33.22.53v32.6c0,.86-.7,1.56-1.56,1.56Zm-31.76-46.13l-.06,44.57,31.82.06.06-32.35-12.25-12.28h-19.57Z"/><path class="cls-8" d="m277.81,185.71h-12.72c-.41,0-.75-.34-.75-.75v-12.72c0-.3.18-.58.46-.69.28-.11.6-.05.82.16l12.72,12.72c.21.21.28.54.16.82s-.39.46-.69.46Zm-11.97-1.5h10.16l-10.16-10.16v10.16Z"/><path class="cls-8" d="m124.9,218.38c-.41,0-.75-.34-.75-.75v-8.95c0-.41.34-.75.75-.75s.75.34.75.75v8.95c0,.41-.34.75-.75.75Z"/><path class="cls-8" d="m136.01,219.12h-22.23c-.41,0-.75-.34-.75-.75s.34-.75.75-.75h22.23c.41,0,.75.34.75.75s-.34.75-.75.75Z"/><path class="cls-5" d="m151.76,206.42c-.01.99-.82,1.77-1.81,1.76h-50.12c-.98,0-1.78-.78-1.79-1.76v-29.84c.01-.97.82-1.76,1.79-1.75h50.14c.98-.02,1.79.76,1.81,1.75h0s-.02,29.84-.02,29.84Z"/><path class="cls-8" d="m149.98,208.93h-50.17c-1.38,0-2.51-1.12-2.52-2.5v-29.84c.02-1.39,1.15-2.5,2.53-2.5h50.15c.67,0,1.3.24,1.79.71s.76,1.1.77,1.77l-.02,29.85h0c-.01.69-.28,1.32-.77,1.79-.48.46-1.1.72-1.76.72Zm-.03-1.5c.3.02.55-.1.75-.29.2-.19.31-.45.31-.72l.02-29.83c0-.27-.12-.52-.31-.72-.2-.19-.45-.29-.73-.29h-50.16c-.56,0-1.02.45-1.03,1.01v29.82c0,.55.47,1.01,1.03,1.01h50.13Zm1.81-1.01h0,0Z"/><path class="cls-8" d="m250.31,207.17h2.35l1.16,1.8,1.2-1.8h2.05l-2.26,3.35,2.39,3.72h-2.28l-1.33-2.05-1.38,2.05h-2.05l2.42-3.6-2.26-3.47Z"/><path class="cls-8" d="m263.97,209.97l-2.06,2.99-2.06-2.98v4.26h-1.82v-7.07h2.1l1.91,2.89,1.91-2.89h1.85v7.07h-1.82v-4.27Z"/><path class="cls-8" d="m272.15,214.24h-5.03v-7.07h1.82v5.36h3.21v1.71Z"/><path class="cls-7" d="m577.81,184.96v32.6c0,.44-.34.81-.81.81h-31.76c-.44,0-.81-.37-.81-.81v-44.51c0-.44.37-.81.81-.81h19.88l12.69,12.72Z"/><path class="cls-8" d="m577,219.12h-31.76c-.84,0-1.56-.71-1.56-1.56v-44.52c0-.84.71-1.56,1.56-1.56h19.88c.2,0,.39.08.53.22l12.69,12.72c.14.14.22.33.22.53v32.6c0,.86-.7,1.56-1.56,1.56Zm-31.76-46.13l-.06,44.57,31.82.06.06-32.35-12.25-12.28h-19.57Z"/><path class="cls-8" d="m577.81,185.71h-12.72c-.41,0-.75-.34-.75-.75v-12.72c0-.3.18-.58.46-.69.28-.11.6-.05.82.16l12.72,12.72c.21.21.28.54.16.82s-.39.46-.69.46Zm-11.97-1.5h10.16l-10.16-10.16v10.16Z"/><path class="cls-8" d="m550.31,207.17h2.35l1.16,1.8,1.2-1.8h2.05l-2.26,3.35,2.39,3.72h-2.28l-1.33-2.05-1.38,2.05h-2.05l2.42-3.6-2.26-3.47Z"/><path class="cls-8" d="m563.97,209.97l-2.06,2.99-2.06-2.98v4.26h-1.82v-7.07h2.1l1.91,2.89,1.91-2.89h1.85v7.07h-1.82v-4.27Z"/><path class="cls-8" d="m572.15,214.24h-5.03v-7.07h1.82v5.36h3.21v1.71Z"/><path class="cls-7" d="m649.81,243.96v32.6c0,.44-.34.81-.81.81h-31.76c-.44,0-.81-.37-.81-.81v-44.51c0-.44.37-.81.81-.81h19.88l12.69,12.72Z"/><path class="cls-8" d="m649,278.12h-31.76c-.84,0-1.56-.71-1.56-1.56v-44.52c0-.84.71-1.56,1.56-1.56h19.88c.2,0,.39.08.53.22l12.69,12.72c.14.14.22.33.22.53v32.6c0,.86-.7,1.56-1.56,1.56Zm-31.76-46.13l-.06,44.57,31.82.06.06-32.35-12.25-12.28h-19.57Z"/><path class="cls-8" d="m649.81,244.71h-12.72c-.41,0-.75-.34-.75-.75v-12.72c0-.3.18-.58.46-.69.28-.11.6-.05.82.16l12.72,12.72c.21.21.28.54.16.82s-.39.46-.69.46Zm-11.97-1.5h10.16l-10.16-10.16v10.16Z"/><path class="cls-8" d="m622.31,266.17h2.35l1.16,1.8,1.2-1.8h2.05l-2.26,3.35,2.39,3.72h-2.28l-1.33-2.05-1.38,2.05h-2.05l2.42-3.6-2.26-3.47Z"/><path class="cls-8" d="m635.97,268.97l-2.06,2.99-2.06-2.98v4.26h-1.82v-7.07h2.1l1.91,2.89,1.91-2.89h1.85v7.07h-1.82v-4.27Z"/><path class="cls-8" d="m644.15,273.24h-5.03v-7.07h1.82v5.36h3.21v1.71Z"/><path class="cls-8" d="m127.5,180.25h-25c-.41,0-.75-.34-.75-.75s.34-.75.75-.75h25c.41,0,.75.34.75.75s-.34.75-.75.75Z"/><path class="cls-8" d="m127.5,184.45h-25c-.41,0-.75-.34-.75-.75s.34-.75.75-.75h25c.41,0,.75.34.75.75s-.34.75-.75.75Z"/><path class="cls-8" d="m127.5,188.65h-25c-.41,0-.75-.34-.75-.75s.34-.75.75-.75h25c.41,0,.75.34.75.75s-.34.75-.75.75Z"/><path class="cls-8" d="m127.5,192.85h-25c-.41,0-.75-.34-.75-.75s.34-.75.75-.75h25c.41,0,.75.34.75.75s-.34.75-.75.75Z"/><path class="cls-8" d="m127.5,197.05h-25c-.41,0-.75-.34-.75-.75s.34-.75.75-.75h25c.41,0,.75.34.75.75s-.34.75-.75.75Z"/><path class="cls-8" d="m121.5,201.25h-19c-.41,0-.75-.34-.75-.75s.34-.75.75-.75h19c.41,0,.75.34.75.75s-.34.75-.75.75Z"/><path class="cls-8" d="m136,178.75h9c.83,0,1.5.67,1.5,1.5v11.25h-12v-11.25c0-.83.67-1.5,1.5-1.5Z"/><rect class="cls-8" x="134.5" y="192.75" width="12" height="2.75"/><rect class="cls-8" x="67.91" y="143.5" width="114" height="18" rx="3" ry="3"/><path class="cls-11" d="m77.5,157.07h-1.98v-7.69h5v1.86h-3.02v1.22h2.54v1.86h-2.54v2.75Z"/><path class="cls-11" d="m81.54,153.78v-4.4h1.98v4.36c0,.46.12.84.37,1.12s.57.42.97.42.71-.14.94-.41c.24-.28.35-.65.35-1.11v-4.37h1.98v4.4c0,1.04-.3,1.88-.9,2.51-.62.64-1.42.96-2.41.96s-1.78-.32-2.38-.96c-.6-.63-.9-1.47-.9-2.51Z"/><path class="cls-11" d="m96.44,157.07h-2.12l-2.82-4.38v4.38h-1.98v-7.69h2.12l2.82,4.45v-4.45h1.98v7.69Z"/><path class="cls-11" d="m104.45,150.34l-1.32,1.51c-.43-.45-.97-.67-1.61-.67-.53,0-.97.2-1.33.59-.37.39-.55.88-.55,1.45s.19,1.05.56,1.45c.38.4.85.6,1.42.6.29,0,.57-.06.85-.18.28-.12.5-.28.67-.49l1.32,1.46c-.66.79-1.64,1.19-2.96,1.19-1.13,0-2.07-.39-2.83-1.18-.76-.78-1.14-1.74-1.14-2.86s.39-2.06,1.18-2.84c.78-.78,1.72-1.18,2.81-1.18,1.28,0,2.26.38,2.95,1.14Z"/><path class="cls-11" d="m110.94,149.38v1.86h-2.11v5.83h-1.98v-5.83h-2.1v-1.86h6.19Z"/><path class="cls-11" d="m113.76,157.07h-1.98v-7.69h1.98v7.69Z"/><path class="cls-11" d="m116.03,150.37c.78-.78,1.73-1.18,2.84-1.18s2.06.39,2.86,1.18c.78.8,1.18,1.75,1.18,2.86s-.39,2.06-1.18,2.84c-.8.78-1.75,1.18-2.86,1.18s-2.07-.4-2.84-1.19c-.79-.78-1.19-1.73-1.19-2.84s.4-2.06,1.19-2.84Zm.94,2.84c0,.57.19,1.05.56,1.45.38.4.82.6,1.34.6s.98-.2,1.36-.6c.37-.39.55-.87.55-1.44s-.18-1.06-.55-1.45c-.38-.4-.83-.6-1.36-.6s-.98.2-1.34.59c-.38.4-.56.88-.56,1.45Z"/><path class="cls-11" d="m130.91,157.07h-2.12l-2.82-4.38v4.38h-1.98v-7.69h2.12l2.82,4.45v-4.45h1.98v7.69Z"/><path class="cls-11" d="m140.46,157.07h-5.11v-7.69h5.11v1.86h-3.13v1.01h2.65v1.86h-2.65v1.1h3.13v1.86Z"/><path class="cls-11" d="m144.34,157.07h-2.8v-7.69h2.8c1.26,0,2.3.36,3.12,1.09.82.73,1.24,1.65,1.24,2.77s-.41,2.02-1.24,2.74c-.82.73-1.86,1.09-3.12,1.09Zm-.04-5.83h-.72v3.97h.73c.68,0,1.23-.18,1.64-.55.41-.36.62-.85.62-1.45s-.21-1.07-.62-1.43-.96-.55-1.64-.55Z"/><path class="cls-11" d="m151.76,157.07h-1.98v-7.69h1.98v7.69Z"/><path class="cls-11" d="m158.79,149.38v1.86h-2.11v5.83h-1.98v-5.83h-2.1v-1.86h6.19Z"/><path class="cls-11" d="m160.46,150.37c.78-.78,1.73-1.18,2.84-1.18s2.06.39,2.86,1.18c.78.8,1.18,1.75,1.18,2.86s-.39,2.06-1.18,2.84c-.8.78-1.75,1.18-2.86,1.18s-2.07-.4-2.84-1.19c-.79-.78-1.19-1.73-1.19-2.84s.4-2.06,1.19-2.84Zm.94,2.84c0,.57.19,1.05.56,1.45.38.4.82.6,1.34.6s.98-.2,1.36-.6c.37-.39.55-.87.55-1.44s-.18-1.06-.55-1.45c-.38-.4-.83-.6-1.36-.6s-.98.2-1.34.59c-.38.4-.56.88-.56,1.45Z"/><path class="cls-11" d="m170.39,157.07h-1.98v-7.69h2.8c.98,0,1.77.23,2.36.7.59.47.89,1.09.89,1.85,0,.5-.12.93-.37,1.31s-.6.68-1.06.89l1.62,2.94h-2.29l-1.32-2.57h-.65v2.57Zm.97-5.95h-.97v1.64h.97c.3,0,.54-.08.72-.23.18-.15.28-.36.28-.61,0-.24-.09-.43-.28-.58-.18-.15-.42-.22-.72-.22Z"/><path class="cls-8" d="m124.9,397.38c-.41,0-.75-.34-.75-.75v-8.95c0-.41.34-.75.75-.75s.75.34.75.75v8.95c0,.41-.34.75-.75.75Z"/><path class="cls-8" d="m136.01,398.12h-22.23c-.41,0-.75-.34-.75-.75s.34-.75.75-.75h22.23c.41,0,.75.34.75.75s-.34.75-.75.75Z"/><path class="cls-5" d="m151.76,385.42c-.01.99-.82,1.77-1.81,1.76h-50.12c-.98,0-1.78-.78-1.79-1.76v-29.84c.01-.97.82-1.76,1.79-1.75h50.14c.98-.02,1.79.76,1.81,1.75h0s-.02,29.84-.02,29.84Z"/><path class="cls-8" d="m149.98,387.93h-50.17c-1.38,0-2.51-1.12-2.52-2.5v-29.84c.02-1.4,1.15-2.47,2.55-2.5h50.13c.67-.01,1.3.24,1.79.71.49.47.76,1.1.77,1.77l-.02,29.85h0c-.01.69-.28,1.32-.77,1.79-.48.46-1.1.72-1.76.72Zm-.03-1.5c.3.03.55-.1.75-.29.2-.19.31-.45.31-.72l.02-29.83c0-.27-.12-.52-.31-.72s-.45-.3-.73-.29h-50.16c-.56,0-1.02.45-1.03,1.01v29.82c0,.55.47,1.01,1.03,1.01h50.13Zm1.81-1.01h0,0Z"/><path class="cls-8" d="m127.5,359.25h-25c-.41,0-.75-.34-.75-.75s.34-.75.75-.75h25c.41,0,.75.34.75.75s-.34.75-.75.75Z"/><path class="cls-8" d="m127.5,363.45h-25c-.41,0-.75-.34-.75-.75s.34-.75.75-.75h25c.41,0,.75.34.75.75s-.34.75-.75.75Z"/><path class="cls-8" d="m127.5,367.65h-25c-.41,0-.75-.34-.75-.75s.34-.75.75-.75h25c.41,0,.75.34.75.75s-.34.75-.75.75Z"/><path class="cls-8" d="m127.5,371.85h-25c-.41,0-.75-.34-.75-.75s.34-.75.75-.75h25c.41,0,.75.34.75.75s-.34.75-.75.75Z"/><path class="cls-8" d="m127.5,376.05h-25c-.41,0-.75-.34-.75-.75s.34-.75.75-.75h25c.41,0,.75.34.75.75s-.34.75-.75.75Z"/><path class="cls-8" d="m121.5,380.25h-19c-.41,0-.75-.34-.75-.75s.34-.75.75-.75h19c.41,0,.75.34.75.75s-.34.75-.75.75Z"/><path class="cls-8" d="m136,357.75h9c.83,0,1.5.67,1.5,1.5v11.25h-12v-11.25c0-.83.67-1.5,1.5-1.5Z"/><rect class="cls-8" x="134.5" y="371.75" width="12" height="2.75"/><rect class="cls-8" x="72.41" y="322.5" width="105" height="18" rx="3" ry="3"/><path class="cls-11" d="m82.69,336.07h-2.8v-7.69h2.8c1.26,0,2.3.36,3.12,1.09.82.73,1.24,1.65,1.24,2.77s-.41,2.02-1.24,2.74c-.82.73-1.86,1.09-3.12,1.09Zm-.04-5.83h-.72v3.97h.73c.68,0,1.23-.18,1.64-.55.41-.36.62-.85.62-1.45s-.21-1.07-.62-1.43-.96-.55-1.64-.55Z"/><path class="cls-11" d="m90.11,336.07h-1.98v-7.69h1.98v7.69Z"/><path class="cls-11" d="m97.26,329.6l-1.34,1.34c-.42-.59-.98-.89-1.68-.89-.49,0-.73.16-.73.47,0,.16.11.3.33.42s.57.26,1.05.41.83.28,1.06.38c.39.18.71.44.95.79s.37.76.37,1.23c0,.73-.29,1.32-.86,1.79-.58.47-1.32.71-2.21.71-1.47,0-2.51-.48-3.12-1.44l1.4-1.32c.43.6,1.02.9,1.75.9.61,0,.91-.18.91-.55,0-.14-.07-.26-.21-.36-.14-.1-.32-.19-.54-.27-.22-.08-.46-.15-.73-.23s-.53-.18-.8-.31c-.27-.12-.51-.27-.73-.44-.22-.17-.4-.39-.54-.68-.14-.28-.21-.61-.21-.98,0-.69.28-1.26.83-1.7.56-.45,1.26-.67,2.11-.67.64,0,1.22.12,1.73.37.51.25.92.59,1.21,1.03Z"/><path class="cls-11" d="m100.26,336.07h-1.98v-7.69h2.8c.98,0,1.77.24,2.36.73.59.5.89,1.14.89,1.93s-.3,1.46-.89,1.96c-.61.5-1.4.74-2.38.74h-.8v2.33Zm.97-5.95h-.97v1.88h.97c.3,0,.54-.09.72-.26s.28-.41.28-.7-.09-.5-.28-.67-.42-.25-.72-.25Z"/><path class="cls-11" d="m110.76,336.07h-5.47v-7.69h1.98v5.83h3.49v1.86Z"/><path class="cls-11" d="m119.33,336.07h-2.18l-.53-1.45h-3.01l-.53,1.45h-2.08l3-7.69h2.33l3,7.69Zm-5.09-3.2h1.74l-.86-2.39-.88,2.39Z"/><path class="cls-11" d="m124.34,336.07h-1.98v-2.52l-2.8-5.17h2.2l1.63,3.1,1.66-3.1h2.09l-2.8,5.17v2.52Z"/><path class="cls-11" d="m136.09,336.07h-5.11v-7.69h5.11v1.86h-3.13v1.01h2.65v1.86h-2.65v1.1h3.13v1.86Z"/><path class="cls-11" d="m139.97,336.07h-2.8v-7.69h2.8c1.26,0,2.3.36,3.12,1.09.82.73,1.24,1.65,1.24,2.77s-.41,2.02-1.24,2.74c-.82.73-1.86,1.09-3.12,1.09Zm-.04-5.83h-.72v3.97h.73c.68,0,1.23-.18,1.64-.55.41-.36.62-.85.62-1.45s-.21-1.07-.62-1.43-.96-.55-1.64-.55Z"/><path class="cls-11" d="m147.38,336.07h-1.98v-7.69h1.98v7.69Z"/><path class="cls-11" d="m154.41,328.38v1.86h-2.11v5.83h-1.98v-5.83h-2.1v-1.86h6.19Z"/><path class="cls-11" d="m156.08,329.37c.78-.78,1.73-1.18,2.84-1.18s2.06.39,2.86,1.18c.78.8,1.18,1.75,1.18,2.86s-.39,2.06-1.18,2.84c-.8.78-1.75,1.18-2.86,1.18s-2.07-.4-2.84-1.19c-.79-.78-1.19-1.73-1.19-2.84s.4-2.06,1.19-2.84Zm.94,2.84c0,.57.19,1.05.56,1.45.38.4.82.6,1.34.6s.98-.2,1.36-.6c.37-.39.55-.87.55-1.44s-.18-1.06-.55-1.45c-.38-.4-.83-.6-1.36-.6s-.98.2-1.34.59c-.38.4-.56.88-.56,1.45Z"/><path class="cls-11" d="m166.02,336.07h-1.98v-7.69h2.8c.98,0,1.77.23,2.36.7.59.47.89,1.09.89,1.85,0,.5-.12.93-.37,1.31s-.6.68-1.06.89l1.62,2.94h-2.29l-1.32-2.57h-.65v2.57Zm.97-5.95h-.97v1.64h.97c.3,0,.54-.08.72-.23.18-.15.28-.36.28-.61,0-.24-.09-.43-.28-.58-.18-.15-.42-.22-.72-.22Z"/><path class="cls-8" d="m260.9,397.38c-.41,0-.75-.34-.75-.75v-8.95c0-.41.34-.75.75-.75s.75.34.75.75v8.95c0,.41-.34.75-.75.75Z"/><path class="cls-8" d="m272.01,398.12h-22.23c-.41,0-.75-.34-.75-.75s.34-.75.75-.75h22.23c.41,0,.75.34.75.75s-.34.75-.75.75Z"/><path class="cls-5" d="m287.76,385.42c-.01.99-.82,1.77-1.81,1.76h-50.12c-.98,0-1.78-.78-1.79-1.76v-29.84c.01-.97.82-1.76,1.79-1.75h50.14c.98-.02,1.79.76,1.81,1.75h0s-.02,29.84-.02,29.84Z"/><path class="cls-8" d="m285.98,387.93h-50.17c-1.38,0-2.51-1.12-2.52-2.5v-29.84c.02-1.39,1.15-2.5,2.53-2.5h50.15c.66-.01,1.3.24,1.79.71.49.47.76,1.1.77,1.77l-.02,29.85h0c-.01.69-.28,1.32-.77,1.79-.48.46-1.1.72-1.76.72Zm-.03-1.5c.3.03.55-.1.75-.29.2-.19.31-.45.31-.72l.02-29.83c0-.27-.12-.52-.31-.72s-.45-.3-.73-.29h-50.16c-.56,0-1.02.45-1.03,1.01v29.82c0,.55.47,1.01,1.03,1.01h50.13Zm1.81-1.01h0,0Z"/><rect class="cls-8" x="214.91" y="322.5" width="92" height="18" rx="3" ry="3"/><path class="cls-11" d="m228.28,328.38v1.86h-2.11v5.83h-1.98v-5.83h-2.1v-1.86h6.19Z"/><path class="cls-11" d="m236.85,336.07h-2.18l-.53-1.45h-3.01l-.53,1.45h-2.08l3-7.69h2.33l3,7.69Zm-5.09-3.2h1.74l-.86-2.39-.88,2.39Z"/><path class="cls-11" d="m240.99,336.07h-3.3v-7.69h3.14c.78,0,1.43.2,1.94.61.51.41.77.94.77,1.6,0,.71-.38,1.24-1.13,1.57.4.12.72.33.95.62s.35.66.35,1.09c0,.62-.23,1.14-.7,1.56-.47.42-1.15.64-2.03.64Zm-.34-5.95h-.98v1.28h.98c.26,0,.46-.06.61-.17s.22-.27.22-.47-.08-.35-.23-.46c-.15-.12-.35-.17-.6-.17Zm.16,2.89h-1.14v1.32h1.14c.25,0,.45-.06.6-.18s.23-.28.23-.49-.07-.36-.22-.47-.35-.17-.61-.17Z"/><path class="cls-11" d="m250.15,336.07h-5.47v-7.69h1.98v5.83h3.49v1.86Z"/><path class="cls-11" d="m256.1,336.07h-5.11v-7.69h5.11v1.86h-3.13v1.01h2.65v1.86h-2.65v1.1h3.13v1.86Z"/><path class="cls-11" d="m265.29,336.07h-5.11v-7.69h5.11v1.86h-3.13v1.01h2.65v1.86h-2.65v1.1h3.13v1.86Z"/><path class="cls-11" d="m269.17,336.07h-2.8v-7.69h2.8c1.26,0,2.3.36,3.12,1.09.82.73,1.24,1.65,1.24,2.77s-.41,2.02-1.24,2.74c-.82.73-1.86,1.09-3.12,1.09Zm-.04-5.83h-.72v3.97h.73c.68,0,1.23-.18,1.64-.55.41-.36.62-.85.62-1.45s-.21-1.07-.62-1.43-.96-.55-1.64-.55Z"/><path class="cls-11" d="m276.58,336.07h-1.98v-7.69h1.98v7.69Z"/><path class="cls-11" d="m283.62,328.38v1.86h-2.11v5.83h-1.98v-5.83h-2.1v-1.86h6.19Z"/><path class="cls-11" d="m285.28,329.37c.78-.78,1.73-1.18,2.84-1.18s2.06.39,2.86,1.18c.78.8,1.18,1.75,1.18,2.86s-.39,2.06-1.18,2.84c-.8.78-1.75,1.18-2.86,1.18s-2.07-.4-2.84-1.19c-.79-.78-1.19-1.73-1.19-2.84s.4-2.06,1.19-2.84Zm.94,2.84c0,.57.19,1.05.56,1.45.38.4.82.6,1.34.6s.98-.2,1.36-.6c.37-.39.55-.87.55-1.44s-.18-1.06-.55-1.45c-.38-.4-.83-.6-1.36-.6s-.98.2-1.34.59c-.38.4-.56.88-.56,1.45Z"/><path class="cls-11" d="m295.22,336.07h-1.98v-7.69h2.8c.98,0,1.77.23,2.36.7.59.47.89,1.09.89,1.85,0,.5-.12.93-.37,1.31s-.6.68-1.06.89l1.62,2.94h-2.29l-1.32-2.57h-.65v2.57Zm.97-5.95h-.97v1.64h.97c.3,0,.54-.08.72-.23.18-.15.28-.36.28-.61,0-.24-.09-.43-.28-.58-.18-.15-.42-.22-.72-.22Z"/><path class="cls-8" d="m393.9,397.38c-.41,0-.75-.34-.75-.75v-8.95c0-.41.34-.75.75-.75s.75.34.75.75v8.95c0,.41-.34.75-.75.75Z"/><path class="cls-8" d="m405.01,398.12h-22.23c-.41,0-.75-.34-.75-.75s.34-.75.75-.75h22.23c.41,0,.75.34.75.75s-.34.75-.75.75Z"/><path class="cls-5" d="m420.76,385.42c-.01.99-.82,1.77-1.81,1.76h-50.12c-.98,0-1.78-.78-1.79-1.76v-29.84c.01-.97.82-1.76,1.79-1.75h50.14c.98-.02,1.79.76,1.81,1.75h0s-.02,29.84-.02,29.84Z"/><path class="cls-8" d="m418.98,387.93h-50.15c-1.41.04-2.52-1.11-2.54-2.5v-29.84c.02-1.39,1.15-2.5,2.53-2.5h50.15c.66-.01,1.3.24,1.79.71.49.47.76,1.1.77,1.77l-.02,29.85h0c-.01.69-.28,1.32-.77,1.79-.48.46-1.1.72-1.76.72Zm-.03-1.5c.31.03.55-.1.75-.29.2-.19.31-.45.31-.72l.02-29.83c0-.27-.12-.52-.31-.72s-.46-.3-.73-.29h-50.16c-.56,0-1.02.45-1.03,1.01v29.82c0,.55.47,1.01,1.03,1.01h50.13Zm1.81-1.01h0,0Z"/><rect class="cls-8" x="356.91" y="322.5" width="74" height="18" rx="3" ry="3"/><path class="cls-11" d="m372.01,329.34l-1.32,1.51c-.43-.45-.97-.67-1.61-.67-.53,0-.97.2-1.33.59-.37.39-.55.88-.55,1.45s.19,1.05.56,1.45c.38.4.85.6,1.42.6.29,0,.57-.06.85-.18.28-.12.5-.28.67-.49l1.32,1.46c-.66.79-1.64,1.19-2.96,1.19-1.13,0-2.07-.39-2.83-1.18s-1.14-1.74-1.14-2.86.39-2.06,1.18-2.84c.78-.78,1.72-1.18,2.81-1.18,1.28,0,2.26.38,2.95,1.14Z"/><path class="cls-11" d="m377.33,336.07h-1.6l.38-1.87h-1.13l-.38,1.87h-1.6l.38-1.87h-1.12l.29-1.38h1.1l.26-1.28h-1.1l.28-1.38h1.1l.36-1.78h1.6l-.36,1.78h1.13l.36-1.78h1.6l-.36,1.78h1.1l-.28,1.38h-1.1l-.26,1.28h1.1l-.28,1.38h-1.1l-.38,1.87Zm-2.06-3.25h1.13l.26-1.28h-1.13l-.26,1.28Z"/><path class="cls-11" d="m388.55,336.07h-5.11v-7.69h5.11v1.86h-3.13v1.01h2.65v1.86h-2.65v1.1h3.13v1.86Z"/><path class="cls-11" d="m392.42,336.07h-2.8v-7.69h2.8c1.26,0,2.3.36,3.12,1.09.82.73,1.24,1.65,1.24,2.77s-.41,2.02-1.24,2.74c-.82.73-1.86,1.09-3.12,1.09Zm-.04-5.83h-.72v3.97h.73c.68,0,1.23-.18,1.64-.55.41-.36.62-.85.62-1.45s-.21-1.07-.62-1.43-.96-.55-1.64-.55Z"/><path class="cls-11" d="m399.84,336.07h-1.98v-7.69h1.98v7.69Z"/><path class="cls-11" d="m406.87,328.38v1.86h-2.11v5.83h-1.98v-5.83h-2.1v-1.86h6.19Z"/><path class="cls-11" d="m408.54,329.37c.78-.78,1.73-1.18,2.84-1.18s2.06.39,2.86,1.18c.78.8,1.18,1.75,1.18,2.86s-.39,2.06-1.18,2.84c-.8.78-1.75,1.18-2.86,1.18s-2.07-.4-2.84-1.19c-.79-.78-1.19-1.73-1.19-2.84s.4-2.06,1.19-2.84Zm.94,2.84c0,.57.19,1.05.56,1.45.38.4.82.6,1.34.6s.98-.2,1.36-.6c.37-.39.55-.87.55-1.44s-.18-1.06-.55-1.45c-.38-.4-.83-.6-1.36-.6s-.98.2-1.34.59c-.38.4-.56.88-.56,1.45Z"/><path class="cls-11" d="m418.48,336.07h-1.98v-7.69h2.8c.98,0,1.77.23,2.36.7.59.47.89,1.09.89,1.85,0,.5-.12.93-.37,1.31s-.6.68-1.06.89l1.62,2.94h-2.29l-1.32-2.57h-.65v2.57Zm.97-5.95h-.97v1.64h.97c.3,0,.54-.08.72-.23.18-.15.28-.36.28-.61,0-.24-.09-.43-.28-.58-.18-.15-.42-.22-.72-.22Z"/><rect class="cls-8" x="219.62" y="143.5" width="83" height="18" rx="3" ry="3"/><path class="cls-11" d="m227.67,149.38h2.56l1.26,1.96,1.31-1.96h2.23l-2.46,3.65,2.6,4.04h-2.48l-1.45-2.23-1.5,2.23h-2.23l2.63-3.91-2.46-3.78Z"/><path class="cls-11" d="m242.53,152.43l-2.24,3.25-2.24-3.24v4.63h-1.98v-7.69h2.28l2.08,3.14,2.08-3.14h2.02v7.69h-1.98v-4.64Z"/><path class="cls-11" d="m251.43,157.07h-5.47v-7.69h1.98v5.83h3.49v1.86Z"/><path class="cls-11" d="m260.38,157.07h-5.11v-7.69h5.11v1.86h-3.13v1.01h2.65v1.86h-2.65v1.1h3.13v1.86Z"/><path class="cls-11" d="m264.25,157.07h-2.8v-7.69h2.8c1.26,0,2.3.36,3.12,1.09.82.73,1.24,1.65,1.24,2.77s-.41,2.02-1.24,2.74c-.82.73-1.86,1.09-3.12,1.09Zm-.04-5.83h-.72v3.97h.73c.68,0,1.23-.18,1.64-.55.41-.36.62-.85.62-1.45s-.21-1.07-.62-1.43-.96-.55-1.64-.55Z"/><path class="cls-11" d="m271.67,157.07h-1.98v-7.69h1.98v7.69Z"/><path class="cls-11" d="m278.7,149.38v1.86h-2.11v5.83h-1.98v-5.83h-2.1v-1.86h6.19Z"/><path class="cls-11" d="m280.37,150.37c.78-.78,1.73-1.18,2.84-1.18s2.06.39,2.86,1.18c.78.8,1.18,1.75,1.18,2.86s-.39,2.06-1.18,2.84c-.8.78-1.75,1.18-2.86,1.18s-2.07-.4-2.84-1.19c-.79-.78-1.19-1.73-1.19-2.84s.4-2.06,1.19-2.84Zm.94,2.84c0,.57.19,1.05.56,1.45.38.4.82.6,1.34.6s.98-.2,1.36-.6c.37-.39.55-.87.55-1.44s-.18-1.06-.55-1.45c-.38-.4-.83-.6-1.36-.6s-.98.2-1.34.59c-.38.4-.56.88-.56,1.45Z"/><path class="cls-11" d="m290.31,157.07h-1.98v-7.69h2.8c.98,0,1.77.23,2.36.7.59.47.89,1.09.89,1.85,0,.5-.12.93-.37,1.31s-.6.68-1.06.89l1.62,2.94h-2.29l-1.32-2.57h-.65v2.57Zm.97-5.95h-.97v1.64h.97c.3,0,.54-.08.72-.23.18-.15.28-.36.28-.61,0-.24-.09-.43-.28-.58-.18-.15-.42-.22-.72-.22Z"/><path class="cls-8" d="m393.72,367.68l-1.21,1.39c-.4-.41-.89-.62-1.48-.62-.49,0-.89.18-1.22.54-.34.36-.51.81-.51,1.33s.17.97.52,1.33c.35.37.78.55,1.3.55.26,0,.52-.06.78-.17.25-.11.46-.26.61-.45l1.21,1.35c-.6.73-1.51,1.09-2.72,1.09-1.04,0-1.9-.36-2.6-1.08-.7-.72-1.05-1.6-1.05-2.62s.36-1.89,1.08-2.61,1.58-1.08,2.58-1.08c1.18,0,2.08.35,2.71,1.05Z"/><path class="cls-8" d="m398.61,373.87h-1.47l.35-1.72h-1.04l-.35,1.72h-1.47l.35-1.72h-1.03l.26-1.27h1.02l.24-1.18h-1.02l.25-1.27h1.02l.33-1.63h1.47l-.33,1.63h1.04l.33-1.63h1.47l-.33,1.63h1.02l-.25,1.27h-1.02l-.24,1.18h1.02l-.25,1.27h-1.01l-.35,1.72Zm-1.9-2.99h1.04l.24-1.18h-1.04l-.24,1.18Z"/><path class="cls-8" d="m276.72,381.25h-31.63c-1.34,0-2.44-1.09-2.44-2.44v-17.12c0-1.34,1.09-2.44,2.44-2.44h31.63c1.34,0,2.44,1.09,2.44,2.44v17.12c0,1.34-1.09,2.44-2.44,2.44Zm-31.63-20.5c-.52,0-.94.42-.94.94v17.12c0,.52.42.94.94.94h31.63c.52,0,.94-.42.94-.94v-17.12c0-.52-.42-.94-.94-.94h-31.63Z"/><rect class="cls-8" x="254.32" y="359.5" width="1.5" height="21"/><rect class="cls-8" x="265.99" y="359.5" width="1.5" height="21"/><rect class="cls-8" x="243.5" y="363.5" width="35" height="1.5"/><rect class="cls-8" x="243.5" y="367.5" width="35" height="1.5"/><rect class="cls-8" x="243.5" y="371.5" width="35" height="1.5"/><rect class="cls-8" x="243.5" y="375.5" width="35" height="1.5"/><rect class="cls-8" x="243.5" y="360.5" width="35" height="4"/><path d="m231.32,235.42h-1.25v-6.41h4.06v1.18h-2.81v1.55h2.41v1.18h-2.41v2.5Z"/><path d="m235.04,230.63h1.22v2.59c0,.35.09.63.28.84.19.22.43.33.74.33s.55-.11.74-.33c.19-.22.28-.5.28-.84v-2.59h1.22v2.68c0,.67-.2,1.21-.61,1.62-.41.41-.95.61-1.63.61s-1.21-.2-1.62-.61c-.41-.41-.62-.95-.62-1.62v-2.68Z"/><path d="m242.01,232.7v2.72h-1.22v-4.79h1.22v.47c.31-.41.76-.61,1.35-.61.55,0,1,.18,1.33.54.33.36.49.86.49,1.48v2.9h-1.22v-2.72c0-.33-.09-.58-.27-.78-.18-.19-.41-.29-.71-.29s-.55.1-.72.29c-.17.19-.26.45-.26.78Z"/><path d="m250.64,231.21l-.7.87c-.31-.29-.69-.44-1.13-.44-.39,0-.71.13-.96.39-.25.26-.38.59-.38.99s.12.73.38,1c.25.26.57.4.96.4.47,0,.87-.16,1.18-.47l.62.9c-.2.22-.46.4-.79.53s-.67.19-1.04.19c-.7,0-1.3-.25-1.79-.74-.49-.49-.73-1.08-.73-1.79s.24-1.31.73-1.8c.48-.49,1.07-.74,1.77-.74.8,0,1.43.24,1.89.72Z"/><path d="m251.86,231.71h-.84v-1.08h.85v-.94l1.22-.3v1.24h1.3v1.08h-1.29v2.03c0,.45.18.67.55.67.23,0,.42-.08.56-.24l.55.91c-.33.32-.77.48-1.31.48-.5,0-.89-.15-1.17-.46-.28-.31-.42-.75-.42-1.31v-2.07Z"/><path d="m256.24,229.98c-.19,0-.36-.07-.5-.2-.14-.14-.21-.31-.21-.51s.07-.36.21-.5c.14-.14.31-.21.5-.21s.37.07.51.21c.14.14.21.31.21.5s-.07.37-.21.51-.31.2-.51.2Zm-.6.65h1.22v4.79h-1.22v-4.79Z"/><path d="m262.23,234.82c-.49.49-1.08.74-1.77.74s-1.28-.25-1.76-.74c-.49-.49-.73-1.08-.73-1.79s.24-1.31.73-1.8c.48-.49,1.07-.74,1.76-.74s1.28.25,1.77.74c.49.49.73,1.09.73,1.8s-.24,1.3-.73,1.79Zm-1.76-.41c.36,0,.66-.14.9-.41.24-.27.36-.6.36-.98s-.12-.71-.36-.98c-.24-.27-.54-.4-.9-.4s-.67.13-.91.4c-.25.27-.37.59-.37.98s.12.71.37.98c.24.27.54.41.91.41Z"/><path d="m265.29,232.7v2.72h-1.22v-4.79h1.22v.47c.31-.41.76-.61,1.35-.61.55,0,1,.18,1.33.54.33.36.49.86.49,1.48v2.9h-1.22v-2.72c0-.33-.09-.58-.27-.78-.18-.19-.41-.29-.71-.29s-.55.1-.72.29c-.17.19-.26.45-.26.78Z"/><path d="m270.79,231.92c0,.09.03.17.09.24s.16.14.29.19c.13.05.25.1.38.14.12.04.28.09.46.14s.34.1.45.14c.27.1.49.26.66.48.17.22.25.49.25.81,0,.43-.18.79-.54,1.08-.36.28-.84.42-1.46.42-.88,0-1.55-.27-2.01-.81l.68-.78c.37.41.83.61,1.4.61.23,0,.4-.04.53-.13.12-.09.18-.21.18-.37,0-.13-.06-.25-.19-.34-.13-.09-.28-.17-.47-.22-.19-.05-.4-.12-.62-.2-.22-.08-.43-.17-.62-.27s-.35-.24-.48-.44c-.13-.2-.19-.43-.19-.7,0-.41.17-.75.5-1.02s.78-.41,1.34-.41c.89,0,1.52.26,1.9.79l-.69.72c-.3-.35-.69-.53-1.18-.53-.21,0-.37.04-.49.12-.12.08-.18.19-.18.33Z"/><path d="m275.44,235.31c-.16.15-.35.23-.57.23s-.41-.08-.56-.23-.23-.34-.23-.56.08-.41.23-.57c.15-.15.34-.23.56-.23s.41.08.57.23c.15.16.23.35.23.57s-.08.41-.23.56Z"/><path d="m281.3,235.42h-1.52l-1.11-1.5-1.13,1.5h-1.36l1.82-2.42-1.75-2.37h1.51l1.04,1.41,1.06-1.41h1.37l-1.75,2.33,1.82,2.46Z"/><path d="m283.4,232.7v2.72h-1.22v-4.79h1.22v.51c.31-.43.75-.65,1.32-.65.71,0,1.22.29,1.53.88.35-.59.86-.88,1.53-.88.57,0,1.02.18,1.35.54.33.36.5.86.5,1.49v2.9h-1.22v-2.72c0-.33-.08-.58-.25-.78-.17-.19-.4-.29-.69-.29s-.52.1-.69.29c-.17.19-.26.45-.26.78v2.72h-1.22v-2.72c0-.33-.08-.58-.25-.78-.17-.19-.4-.29-.69-.29s-.52.1-.7.29c-.17.19-.25.45-.25.78Z"/><path d="m292.23,235.42h-1.22v-6.58l1.22-.3v6.88Z"/><path d="m216.71,247.42h-1.39l-.55-1.44h-2.81l-.56,1.44h-1.31l2.58-6.41h1.46l2.58,6.41Zm-4.33-2.55h1.96l-.98-2.54-.98,2.54Z"/><path d="m217.42,242.63h1.22v2.59c0,.35.09.63.28.84.19.22.43.33.74.33s.55-.11.74-.33c.19-.22.28-.5.28-.84v-2.59h1.22v2.68c0,.67-.2,1.21-.61,1.62-.41.41-.95.61-1.63.61s-1.21-.2-1.62-.61c-.41-.41-.62-.95-.62-1.62v-2.68Z"/><path d="m223.51,243.71h-.84v-1.08h.85v-.94l1.22-.3v1.24h1.3v1.08h-1.29v2.03c0,.45.18.67.55.67.23,0,.42-.08.56-.24l.55.91c-.33.32-.77.48-1.31.48-.5,0-.89-.15-1.17-.46-.28-.31-.42-.75-.42-1.31v-2.07Z"/><path d="m231.23,246.82c-.49.49-1.08.74-1.77.74s-1.28-.25-1.76-.74c-.49-.49-.73-1.08-.73-1.79s.24-1.31.73-1.8c.48-.49,1.07-.74,1.76-.74s1.28.25,1.77.74c.49.49.73,1.09.73,1.8s-.24,1.3-.73,1.79Zm-1.76-.41c.36,0,.66-.14.9-.41.24-.27.36-.6.36-.98s-.12-.71-.36-.98c-.24-.27-.54-.4-.9-.4s-.67.13-.91.4c-.25.27-.37.59-.37.98s.12.71.37.98c.24.27.54.41.91.41Z"/><path d="m234.29,244.7v2.72h-1.22v-4.79h1.22v.51c.31-.43.75-.65,1.32-.65.71,0,1.22.29,1.53.88.35-.59.86-.88,1.53-.88.57,0,1.02.18,1.35.54.33.36.5.86.5,1.49v2.9h-1.22v-2.72c0-.33-.08-.58-.25-.78-.17-.19-.4-.29-.69-.29s-.52.1-.69.29c-.17.19-.26.45-.26.78v2.72h-1.22v-2.72c0-.33-.08-.58-.25-.78-.17-.19-.4-.29-.69-.29s-.52.1-.7.29c-.17.19-.25.45-.25.78Z"/><path d="m246.57,247.42h-1.23v-.52c-.37.44-.86.66-1.46.66-.65,0-1.19-.24-1.63-.72-.45-.47-.67-1.07-.67-1.81s.22-1.33.66-1.82c.43-.48.97-.72,1.64-.72.61,0,1.1.21,1.46.62v-.48h1.23v4.79Zm-2.49-1.01c.36,0,.66-.14.9-.41.24-.27.36-.6.36-.98s-.12-.71-.36-.98c-.24-.27-.54-.4-.9-.4s-.67.13-.91.4c-.25.27-.37.59-.37.98s.12.71.37.98c.24.27.54.41.91.41Z"/><path d="m248.34,243.71h-.84v-1.08h.85v-.94l1.22-.3v1.24h1.3v1.08h-1.29v2.03c0,.45.18.67.55.67.23,0,.42-.08.56-.24l.55.91c-.33.32-.77.48-1.31.48-.5,0-.89-.15-1.17-.46-.28-.31-.42-.75-.42-1.31v-2.07Z"/><path d="m252.72,241.98c-.19,0-.36-.07-.5-.2-.14-.14-.21-.31-.21-.51s.07-.36.21-.5c.14-.14.31-.21.5-.21s.37.07.51.21c.14.14.21.31.21.5s-.07.37-.21.51-.31.2-.51.2Zm-.6.65h1.22v4.79h-1.22v-4.79Z"/><path d="m258.71,246.82c-.49.49-1.08.74-1.77.74s-1.28-.25-1.76-.74c-.49-.49-.73-1.08-.73-1.79s.24-1.31.73-1.8c.48-.49,1.07-.74,1.76-.74s1.28.25,1.77.74c.49.49.73,1.09.73,1.8s-.24,1.3-.73,1.79Zm-1.76-.41c.36,0,.66-.14.9-.41.24-.27.36-.6.36-.98s-.12-.71-.36-.98c-.24-.27-.54-.4-.9-.4s-.67.13-.91.4c-.25.27-.37.59-.37.98s.12.71.37.98c.24.27.54.41.91.41Z"/><path d="m261.77,244.7v2.72h-1.22v-4.79h1.22v.47c.31-.41.76-.61,1.35-.61.55,0,1,.18,1.33.54.33.36.49.86.49,1.48v2.9h-1.22v-2.72c0-.33-.09-.58-.27-.78-.18-.19-.41-.29-.71-.29s-.55.1-.72.29c-.17.19-.26.45-.26.78Z"/><path d="m270.82,241.95l-.86.85c-.15-.22-.36-.4-.63-.54-.27-.14-.56-.21-.87-.21s-.52.06-.7.17c-.17.12-.25.27-.25.46,0,.18.08.33.25.46.17.13.38.22.62.29.25.07.52.16.81.27s.56.23.81.36.46.32.62.58.25.56.25.92c0,.59-.22,1.06-.67,1.43-.45.37-1.05.56-1.78.56-1.16,0-1.99-.38-2.5-1.15l.89-.83c.4.53.94.8,1.63.8.35,0,.62-.07.81-.2s.29-.31.29-.54c0-.13-.04-.25-.12-.36-.08-.11-.21-.2-.38-.29-.17-.08-.33-.16-.49-.21-.16-.06-.36-.13-.6-.21s-.44-.15-.59-.21c-.35-.14-.64-.35-.86-.62-.22-.28-.33-.61-.33-1.01,0-.54.22-.99.66-1.34.43-.35.99-.52,1.68-.52.5,0,.95.1,1.36.29.41.19.72.46.95.79Z"/><path d="m276.02,243.21l-.7.87c-.31-.29-.69-.44-1.13-.44-.39,0-.71.13-.96.39-.25.26-.38.59-.38.99s.12.73.38,1c.25.26.57.4.96.4.47,0,.87-.16,1.18-.47l.62.9c-.2.22-.46.4-.79.53s-.67.19-1.04.19c-.7,0-1.3-.25-1.79-.74-.49-.49-.73-1.08-.73-1.79s.24-1.31.73-1.8c.48-.49,1.07-.74,1.77-.74.8,0,1.43.24,1.89.72Z"/><path d="m278.12,244.74v2.68h-1.22v-4.79h1.22v.52c.3-.44.69-.66,1.17-.66.31,0,.57.08.77.24l-.51,1.16c-.17-.15-.38-.22-.63-.21-.25,0-.45.1-.58.28-.15.19-.22.45-.22.78Z"/><path d="m281.56,241.98c-.19,0-.36-.07-.5-.2-.14-.14-.21-.31-.21-.51s.07-.36.21-.5c.14-.14.31-.21.5-.21s.37.07.51.21c.14.14.21.31.21.5s-.07.37-.21.51-.31.2-.51.2Zm-.6.65h1.22v4.79h-1.22v-4.79Z"/><path d="m283.61,249.38v-6.75h1.22v.52c.37-.44.86-.66,1.46-.66.64,0,1.19.24,1.64.71.44.48.66,1.09.66,1.82s-.22,1.32-.65,1.81c-.44.49-.99.73-1.65.73-.61,0-1.1-.21-1.46-.62v2.44h-1.22Zm2.49-5.74c-.36,0-.66.13-.9.4-.25.27-.37.6-.37.99s.12.71.37.98c.24.27.54.4.9.4s.67-.13.91-.4c.24-.27.36-.6.36-.98s-.12-.72-.36-.99c-.24-.27-.54-.4-.91-.4Z"/><path d="m290.05,243.71h-.84v-1.08h.85v-.94l1.22-.3v1.24h1.3v1.08h-1.29v2.03c0,.45.18.67.55.67.23,0,.42-.08.56-.24l.55.91c-.33.32-.77.48-1.31.48-.5,0-.89-.15-1.17-.46-.28-.31-.42-.75-.42-1.31v-2.07Z"/><path d="m294.82,247.31c-.16.15-.35.23-.57.23s-.41-.08-.56-.23-.23-.34-.23-.56.08-.41.23-.57c.15-.15.34-.23.56-.23s.41.08.57.23c.15.16.23.35.23.57s-.08.41-.23.56Z"/><path d="m300.68,247.42h-1.52l-1.11-1.5-1.13,1.5h-1.36l1.82-2.42-1.75-2.37h1.51l1.04,1.41,1.06-1.41h1.37l-1.75,2.33,1.82,2.46Z"/><path d="m302.78,244.7v2.72h-1.22v-4.79h1.22v.51c.31-.43.75-.65,1.32-.65.71,0,1.22.29,1.53.88.35-.59.86-.88,1.53-.88.57,0,1.02.18,1.35.54.33.36.5.86.5,1.49v2.9h-1.22v-2.72c0-.33-.08-.58-.25-.78-.17-.19-.4-.29-.69-.29s-.52.1-.69.29c-.17.19-.26.45-.26.78v2.72h-1.22v-2.72c0-.33-.08-.58-.25-.78-.17-.19-.4-.29-.69-.29s-.52.1-.7.29c-.17.19-.25.45-.25.78Z"/><path d="m311.61,247.42h-1.22v-6.58l1.22-.3v6.88Z"/><path d="m234,259.42h-1.25v-6.41h2.28c.78,0,1.4.19,1.87.58s.7.9.7,1.54-.24,1.16-.71,1.55c-.47.39-1.09.58-1.88.58h-1.01v2.16Zm1.13-5.31h-1.13v2.05h1.13c.35,0,.62-.1.83-.29.21-.19.31-.44.31-.75s-.1-.55-.31-.74-.49-.28-.83-.28Z"/><path d="m239.88,256.74v2.68h-1.22v-4.79h1.22v.52c.3-.44.69-.66,1.17-.66.31,0,.57.08.77.24l-.51,1.16c-.17-.15-.38-.22-.63-.21-.25,0-.45.1-.58.28-.15.19-.22.45-.22.78Z"/><path d="m246.66,258.82c-.49.49-1.08.74-1.77.74s-1.28-.25-1.76-.74c-.49-.49-.73-1.08-.73-1.79s.24-1.31.73-1.8c.48-.49,1.07-.74,1.76-.74s1.28.25,1.77.74c.49.49.73,1.09.73,1.8s-.24,1.3-.73,1.79Zm-1.76-.41c.36,0,.66-.14.9-.41.24-.27.36-.6.36-.98s-.12-.71-.36-.98c-.24-.27-.54-.4-.9-.4s-.67.13-.91.4c-.25.27-.37.59-.37.98s.12.71.37.98c.24.27.54.41.91.41Z"/><path d="m248.84,255.71h-.84v-1.08h.85v-.94l1.22-.3v1.24h1.3v1.08h-1.29v2.03c0,.45.18.67.55.67.23,0,.42-.08.56-.24l.55.91c-.33.32-.77.48-1.31.48-.5,0-.89-.15-1.17-.46-.28-.31-.42-.75-.42-1.31v-2.07Z"/><path d="m256.56,258.82c-.49.49-1.08.74-1.77.74s-1.28-.25-1.76-.74c-.49-.49-.73-1.08-.73-1.79s.24-1.31.73-1.8c.48-.49,1.07-.74,1.76-.74s1.28.25,1.77.74c.49.49.73,1.09.73,1.8s-.24,1.3-.73,1.79Zm-1.76-.41c.36,0,.66-.14.9-.41.24-.27.36-.6.36-.98s-.12-.71-.36-.98c-.24-.27-.54-.4-.9-.4s-.67.13-.91.4c-.25.27-.37.59-.37.98s.12.71.37.98c.24.27.54.41.91.41Z"/><path d="m262.47,255.21l-.7.87c-.31-.29-.69-.44-1.13-.44-.39,0-.71.13-.96.39-.25.26-.38.59-.38.99s.12.73.38,1c.25.26.57.4.96.4.47,0,.87-.16,1.18-.47l.62.9c-.2.22-.46.4-.79.53s-.67.19-1.04.19c-.7,0-1.3-.25-1.79-.74-.49-.49-.73-1.08-.73-1.79s.24-1.31.73-1.8c.48-.49,1.07-.74,1.77-.74.8,0,1.43.24,1.89.72Z"/><path d="m267.29,258.82c-.49.49-1.08.74-1.77.74s-1.28-.25-1.76-.74c-.49-.49-.73-1.08-.73-1.79s.24-1.31.73-1.8c.48-.49,1.07-.74,1.76-.74s1.28.25,1.77.74c.49.49.73,1.09.73,1.8s-.24,1.3-.73,1.79Zm-1.76-.41c.36,0,.66-.14.9-.41.24-.27.36-.6.36-.98s-.12-.71-.36-.98c-.24-.27-.54-.4-.9-.4s-.67.13-.91.4c-.25.27-.37.59-.37.98s.12.71.37.98c.24.27.54.41.91.41Z"/><path d="m270.35,259.42h-1.22v-6.58l1.22-.3v6.88Z"/><path d="m272.77,259.31c-.16.15-.35.23-.57.23s-.41-.08-.56-.23-.23-.34-.23-.56.08-.41.23-.57c.15-.15.34-.23.56-.23s.41.08.57.23c.15.16.23.35.23.57s-.08.41-.23.56Z"/><path d="m278.63,259.42h-1.52l-1.11-1.5-1.13,1.5h-1.36l1.82-2.42-1.75-2.37h1.51l1.04,1.41,1.06-1.41h1.37l-1.75,2.33,1.82,2.46Z"/><path d="m280.73,256.7v2.72h-1.22v-4.79h1.22v.51c.31-.43.75-.65,1.32-.65.71,0,1.22.29,1.53.88.35-.59.86-.88,1.53-.88.57,0,1.02.18,1.35.54.33.36.5.86.5,1.49v2.9h-1.22v-2.72c0-.33-.08-.58-.25-.78-.17-.19-.4-.29-.69-.29s-.52.1-.69.29c-.17.19-.26.45-.26.78v2.72h-1.22v-2.72c0-.33-.08-.58-.25-.78-.17-.19-.4-.29-.69-.29s-.52.1-.7.29c-.17.19-.25.45-.25.78Z"/><path d="m289.56,259.42h-1.22v-6.58l1.22-.3v6.88Z"/><path d="m507.82,159.42h-1.67l-.66-1.73h-3.37l-.67,1.73h-1.57l3.1-7.69h1.75l3.1,7.69Zm-5.2-3.06h2.35l-1.18-3.05-1.18,3.05Z"/><path d="m508.68,153.67h1.46v3.11c0,.42.11.75.34,1.01s.52.39.89.39.66-.13.89-.39.34-.6.34-1.01v-3.11h1.46v3.22c0,.81-.24,1.46-.73,1.94-.49.49-1.14.73-1.96.73s-1.46-.24-1.94-.73-.74-1.14-.74-1.94v-3.22Z"/><path d="m515.98,154.97h-1.01v-1.3h1.02v-1.13l1.46-.36v1.49h1.56v1.3h-1.55v2.44c0,.54.22.8.66.8.28,0,.5-.1.67-.29l.66,1.09c-.4.38-.92.58-1.57.58-.6,0-1.07-.19-1.4-.56s-.5-.9-.5-1.58v-2.48Z"/><path d="m525.25,158.7c-.59.59-1.3.89-2.12.89s-1.54-.3-2.11-.89c-.58-.58-.88-1.3-.88-2.15s.29-1.57.88-2.16c.58-.59,1.28-.89,2.11-.89s1.53.3,2.12.89c.58.59.88,1.31.88,2.16s-.29,1.56-.88,2.15Zm-2.11-.49c.43,0,.79-.16,1.08-.49s.43-.72.43-1.18-.14-.85-.43-1.18c-.29-.32-.65-.48-1.08-.48s-.8.16-1.09.48c-.3.32-.44.71-.44,1.18s.15.86.44,1.18c.29.33.65.49,1.09.49Z"/><path d="m528.92,156.15v3.26h-1.46v-5.75h1.46v.61c.38-.52.9-.78,1.58-.78.86,0,1.47.35,1.84,1.06.42-.7,1.03-1.06,1.84-1.06.68,0,1.22.22,1.61.65.4.43.59,1.03.59,1.79v3.48h-1.46v-3.26c0-.39-.1-.7-.31-.93-.2-.23-.48-.34-.82-.34s-.63.11-.83.34c-.2.23-.31.54-.31.93v3.26h-1.46v-3.26c0-.39-.1-.7-.31-.93-.2-.23-.48-.34-.82-.34s-.63.11-.83.34c-.2.23-.31.54-.31.93Z"/><path d="m543.66,159.42h-1.48v-.62c-.45.53-1.03.79-1.75.79-.78,0-1.43-.29-1.96-.86-.54-.56-.8-1.28-.8-2.17s.26-1.6.79-2.18c.51-.58,1.17-.86,1.97-.86.74,0,1.32.25,1.75.74v-.58h1.48v5.75Zm-2.99-1.21c.43,0,.79-.16,1.08-.49s.43-.72.43-1.18-.14-.85-.43-1.18c-.29-.32-.65-.48-1.08-.48s-.8.16-1.09.48c-.3.32-.44.71-.44,1.18s.15.86.44,1.18c.29.33.65.49,1.09.49Z"/><path d="m545.78,154.97h-1.01v-1.3h1.02v-1.13l1.46-.36v1.49h1.56v1.3h-1.55v2.44c0,.54.22.8.66.8.28,0,.5-.1.67-.29l.66,1.09c-.4.38-.92.58-1.57.58-.6,0-1.07-.19-1.4-.56s-.5-.9-.5-1.58v-2.48Z"/><path d="m551.04,152.89c-.23,0-.43-.08-.6-.25-.17-.16-.25-.37-.25-.61s.08-.43.25-.61c.17-.17.37-.26.6-.26s.44.09.61.26c.17.17.25.37.25.61s-.08.44-.25.61c-.17.16-.37.25-.61.25Zm-.72.78h1.46v5.75h-1.46v-5.75Z"/><path d="m558.22,158.7c-.59.59-1.3.89-2.12.89s-1.54-.3-2.11-.89c-.58-.58-.88-1.3-.88-2.15s.29-1.57.88-2.16c.58-.59,1.28-.89,2.11-.89s1.53.3,2.12.89c.58.59.88,1.31.88,2.16s-.29,1.56-.88,2.15Zm-2.11-.49c.43,0,.79-.16,1.08-.49s.43-.72.43-1.18-.14-.85-.43-1.18c-.29-.32-.65-.48-1.08-.48s-.8.16-1.09.48c-.3.32-.44.71-.44,1.18s.15.86.44,1.18c.29.33.65.49,1.09.49Z"/><path d="m561.9,156.15v3.26h-1.46v-5.75h1.46v.56c.37-.49.91-.73,1.62-.73.66,0,1.19.22,1.59.65.4.44.59,1.03.59,1.78v3.48h-1.46v-3.26c0-.39-.11-.7-.32-.93-.21-.23-.49-.34-.85-.34s-.66.11-.86.34c-.21.23-.31.54-.31.93Z"/><path d="m572.76,152.85l-1.03,1.02c-.18-.26-.43-.48-.76-.65s-.68-.25-1.04-.25-.63.07-.83.21c-.2.14-.31.33-.31.56,0,.22.1.4.3.55.2.15.45.27.75.35.3.08.62.19.97.32.35.13.67.28.97.43.3.16.55.39.75.7.2.31.3.67.3,1.1,0,.7-.27,1.28-.8,1.72-.54.45-1.26.67-2.14.67-1.39,0-2.39-.46-3-1.38l1.07-1c.48.64,1.13.96,1.96.96.42,0,.74-.08.97-.23.23-.16.34-.37.34-.65,0-.16-.05-.3-.15-.43-.1-.13-.25-.24-.45-.34-.2-.1-.39-.19-.58-.26-.19-.07-.43-.16-.73-.25-.3-.1-.53-.18-.71-.25-.42-.17-.77-.42-1.03-.75-.26-.33-.4-.73-.4-1.21,0-.65.26-1.18.79-1.61.51-.42,1.18-.62,2.02-.62.6,0,1.14.12,1.63.35.49.23.87.55,1.14.95Z"/><path d="m579,154.37l-.84,1.04c-.38-.35-.83-.53-1.36-.53-.47,0-.86.16-1.16.47-.3.31-.45.71-.45,1.19s.15.88.45,1.19c.3.32.68.47,1.15.47.57,0,1.04-.19,1.42-.56l.74,1.08c-.24.26-.56.47-.95.63-.39.16-.81.23-1.25.23-.84,0-1.56-.3-2.15-.89s-.88-1.3-.88-2.15.29-1.57.88-2.16c.58-.59,1.28-.89,2.12-.89.96,0,1.72.29,2.27.86Z"/><path d="m581.52,156.2v3.22h-1.46v-5.75h1.46v.62c.36-.53.83-.79,1.4-.79.38,0,.68.1.92.29l-.61,1.39c-.2-.18-.45-.26-.76-.25-.3,0-.54.12-.7.34-.18.22-.26.54-.26.94Z"/><path d="m585.64,152.89c-.23,0-.43-.08-.6-.25-.17-.16-.25-.37-.25-.61s.08-.43.25-.61c.17-.17.37-.26.6-.26s.44.09.61.26c.17.17.25.37.25.61s-.08.44-.25.61c-.17.16-.37.25-.61.25Zm-.72.78h1.46v5.75h-1.46v-5.75Z"/><path d="m588.1,161.77v-8.1h1.46v.62c.45-.53,1.03-.79,1.75-.79.77,0,1.42.28,1.97.85.53.58.79,1.3.79,2.18s-.26,1.59-.78,2.17c-.53.58-1.19.88-1.98.88-.74,0-1.32-.25-1.75-.74v2.93h-1.46Zm2.99-6.89c-.43,0-.79.16-1.08.48-.3.32-.44.72-.44,1.19s.15.86.44,1.18c.29.32.65.48,1.08.48s.8-.16,1.09-.48c.29-.33.43-.72.43-1.18s-.14-.87-.43-1.19c-.29-.32-.65-.48-1.09-.48Z"/><path d="m595.83,154.97h-1.01v-1.3h1.02v-1.13l1.46-.36v1.49h1.56v1.3h-1.55v2.44c0,.54.22.8.66.8.28,0,.5-.1.67-.29l.66,1.09c-.4.38-.92.58-1.57.58-.6,0-1.07-.19-1.4-.56s-.5-.9-.5-1.58v-2.48Z"/><path d="m601.55,159.29c-.19.18-.42.28-.68.28s-.49-.09-.67-.28c-.18-.18-.28-.41-.28-.67s.09-.49.28-.68c.18-.18.41-.28.67-.28s.49.09.68.28c.18.19.28.42.28.68s-.09.49-.28.67Z"/><path d="m608.59,159.42h-1.82l-1.33-1.8-1.36,1.8h-1.63l2.18-2.9-2.1-2.84h1.81l1.25,1.69,1.27-1.69h1.64l-2.1,2.8,2.18,2.95Z"/><path d="m611.11,156.15v3.26h-1.46v-5.75h1.46v.61c.38-.52.9-.78,1.58-.78.86,0,1.47.35,1.84,1.06.42-.7,1.03-1.06,1.84-1.06.68,0,1.22.22,1.61.65.4.43.59,1.03.59,1.79v3.48h-1.46v-3.26c0-.39-.1-.7-.31-.93-.2-.23-.48-.34-.82-.34s-.63.11-.83.34c-.2.23-.31.54-.31.93v3.26h-1.46v-3.26c0-.39-.1-.7-.31-.93-.2-.23-.48-.34-.82-.34s-.63.11-.83.34c-.2.23-.31.54-.31.93Z"/><path d="m621.7,159.42h-1.46v-7.9l1.46-.36v8.26Z"/><path d="m606,296.42h-1.25v-6.41h2.28c.78,0,1.4.19,1.87.58s.7.9.7,1.54-.24,1.16-.71,1.55c-.47.39-1.09.58-1.88.58h-1.01v2.16Zm1.13-5.31h-1.13v2.05h1.13c.35,0,.62-.1.83-.29.21-.19.31-.44.31-.75s-.1-.55-.31-.74-.49-.28-.83-.28Z"/><path d="m611.88,293.74v2.68h-1.22v-4.79h1.22v.52c.3-.44.69-.66,1.17-.66.31,0,.57.08.77.24l-.51,1.16c-.17-.15-.38-.22-.63-.21-.25,0-.45.1-.58.28-.15.19-.22.45-.22.78Z"/><path d="m618.66,295.82c-.49.49-1.08.74-1.77.74s-1.28-.25-1.76-.74c-.49-.49-.73-1.08-.73-1.79s.24-1.31.73-1.8c.48-.49,1.07-.74,1.76-.74s1.28.25,1.77.74c.49.49.73,1.09.73,1.8s-.24,1.3-.73,1.79Zm-1.76-.41c.36,0,.66-.14.9-.41.24-.27.36-.6.36-.98s-.12-.71-.36-.98c-.24-.27-.54-.4-.9-.4s-.67.13-.91.4c-.25.27-.37.59-.37.98s.12.71.37.98c.24.27.54.41.91.41Z"/><path d="m620.84,292.71h-.84v-1.08h.85v-.94l1.22-.3v1.24h1.3v1.08h-1.29v2.03c0,.45.18.67.55.67.23,0,.42-.08.56-.24l.55.91c-.33.32-.77.48-1.31.48-.5,0-.89-.15-1.17-.46-.28-.31-.42-.75-.42-1.31v-2.07Z"/><path d="m628.56,295.82c-.49.49-1.08.74-1.77.74s-1.28-.25-1.76-.74c-.49-.49-.73-1.08-.73-1.79s.24-1.31.73-1.8c.48-.49,1.07-.74,1.76-.74s1.28.25,1.77.74c.49.49.73,1.09.73,1.8s-.24,1.3-.73,1.79Zm-1.76-.41c.36,0,.66-.14.9-.41.24-.27.36-.6.36-.98s-.12-.71-.36-.98c-.24-.27-.54-.4-.9-.4s-.67.13-.91.4c-.25.27-.37.59-.37.98s.12.71.37.98c.24.27.54.41.91.41Z"/><path d="m634.47,292.21l-.7.87c-.31-.29-.69-.44-1.13-.44-.39,0-.71.13-.96.39-.25.26-.38.59-.38.99s.12.73.38,1c.25.26.57.4.96.4.47,0,.87-.16,1.18-.47l.62.9c-.2.22-.46.4-.79.53s-.67.19-1.04.19c-.7,0-1.3-.25-1.79-.74-.49-.49-.73-1.08-.73-1.79s.24-1.31.73-1.8c.48-.49,1.07-.74,1.77-.74.8,0,1.43.24,1.89.72Z"/><path d="m639.29,295.82c-.49.49-1.08.74-1.77.74s-1.28-.25-1.76-.74c-.49-.49-.73-1.08-.73-1.79s.24-1.31.73-1.8c.48-.49,1.07-.74,1.76-.74s1.28.25,1.77.74c.49.49.73,1.09.73,1.8s-.24,1.3-.73,1.79Zm-1.76-.41c.36,0,.66-.14.9-.41.24-.27.36-.6.36-.98s-.12-.71-.36-.98c-.24-.27-.54-.4-.9-.4s-.67.13-.91.4c-.25.27-.37.59-.37.98s.12.71.37.98c.24.27.54.41.91.41Z"/><path d="m642.35,296.42h-1.22v-6.58l1.22-.3v6.88Z"/><path d="m644.77,296.31c-.16.15-.35.23-.57.23s-.41-.08-.56-.23-.23-.34-.23-.56.08-.41.23-.57c.15-.15.34-.23.56-.23s.41.08.57.23c.15.16.23.35.23.57s-.08.41-.23.56Z"/><path d="m650.63,296.42h-1.52l-1.11-1.5-1.13,1.5h-1.36l1.82-2.42-1.75-2.37h1.51l1.04,1.41,1.06-1.41h1.37l-1.75,2.33,1.82,2.46Z"/><path d="m652.73,293.7v2.72h-1.22v-4.79h1.22v.51c.31-.43.75-.65,1.32-.65.71,0,1.22.29,1.53.88.35-.59.86-.88,1.53-.88.57,0,1.02.18,1.35.54.33.36.5.86.5,1.49v2.9h-1.22v-2.72c0-.33-.08-.58-.25-.78-.17-.19-.4-.29-.69-.29s-.52.1-.69.29c-.17.19-.26.45-.26.78v2.72h-1.22v-2.72c0-.33-.08-.58-.25-.78-.17-.19-.4-.29-.69-.29s-.52.1-.7.29c-.17.19-.25.45-.25.78Z"/><path d="m661.56,296.42h-1.22v-6.58l1.22-.3v6.88Z"/><path class="cls-7" d="m712.81,273.96v32.6c0,.44-.34.81-.81.81h-31.76c-.44,0-.81-.37-.81-.81v-44.51c0-.44.37-.81.81-.81h19.88l12.69,12.72Z"/><path class="cls-8" d="m712,308.12h-31.76c-.84,0-1.56-.71-1.56-1.56v-44.52c0-.84.71-1.56,1.56-1.56h19.88c.2,0,.39.08.53.22l12.69,12.72c.14.14.22.33.22.53v32.6c0,.86-.7,1.56-1.56,1.56Zm-31.76-46.13l-.06,44.57,31.82.06.06-32.35-12.25-12.28h-19.57Z"/><path class="cls-8" d="m712.81,274.71h-12.72c-.41,0-.75-.34-.75-.75v-12.72c0-.3.18-.58.46-.69.28-.11.6-.05.82.16l12.72,12.72c.21.21.28.54.16.82s-.39.46-.69.46Zm-11.97-1.5h10.16l-10.16-10.16v10.16Z"/><path d="m671.82,320.85c.65-.65,1.43-.98,2.34-.98s1.7.33,2.35.98c.65.65.97,1.44.97,2.37,0,.59-.15,1.15-.44,1.66-.29.51-.68.92-1.18,1.21l1.5.82-.58.99-2.32-1.35s-.15,0-.3,0c-.91,0-1.69-.33-2.34-.98-.65-.65-.97-1.43-.97-2.36s.32-1.72.97-2.37Zm2.34,4.46c.55,0,1.02-.2,1.41-.61.39-.41.58-.9.58-1.48s-.19-1.08-.58-1.49c-.39-.41-.86-.61-1.41-.61s-1.01.2-1.4.61c-.39.41-.58.9-.58,1.49s.19,1.06.58,1.47c.39.41.86.62,1.4.62Z"/><path d="m684.7,326.42h-1.39l-.55-1.44h-2.81l-.56,1.44h-1.31l2.58-6.41h1.46l2.58,6.41Zm-4.33-2.55h1.96l-.98-2.54-.98,2.54Z"/><path d="m689.65,322.21l-.7.87c-.31-.29-.69-.44-1.13-.44-.39,0-.71.13-.96.39-.25.26-.38.59-.38.99s.12.73.38,1c.25.26.57.4.96.4.47,0,.87-.16,1.18-.47l.62.9c-.2.22-.46.4-.79.53s-.67.19-1.04.19c-.7,0-1.3-.25-1.79-.74-.49-.49-.73-1.08-.73-1.79s.24-1.31.73-1.8c.48-.49,1.07-.74,1.77-.74.8,0,1.43.24,1.89.72Z"/><path d="m690.87,322.71h-.84v-1.08h.85v-.94l1.22-.3v1.24h1.3v1.08h-1.29v2.03c0,.45.18.67.55.67.23,0,.42-.08.56-.24l.55.91c-.33.32-.77.48-1.31.48-.5,0-.89-.15-1.17-.46-.28-.31-.42-.75-.42-1.31v-2.07Z"/><path d="m695.25,320.98c-.19,0-.36-.07-.5-.2-.14-.14-.21-.31-.21-.51s.07-.36.21-.5c.14-.14.31-.21.5-.21s.37.07.51.21c.14.14.21.31.21.5s-.07.37-.21.51-.31.2-.51.2Zm-.6.65h1.22v4.79h-1.22v-4.79Z"/><path d="m701.24,325.82c-.49.49-1.08.74-1.77.74s-1.28-.25-1.76-.74c-.49-.49-.73-1.08-.73-1.79s.24-1.31.73-1.8c.48-.49,1.07-.74,1.76-.74s1.28.25,1.77.74c.49.49.73,1.09.73,1.8s-.24,1.3-.73,1.79Zm-1.76-.41c.36,0,.66-.14.9-.41.24-.27.36-.6.36-.98s-.12-.71-.36-.98c-.24-.27-.54-.4-.9-.4s-.67.13-.91.4c-.25.27-.37.59-.37.98s.12.71.37.98c.24.27.54.41.91.41Z"/><path d="m704.3,323.7v2.72h-1.22v-4.79h1.22v.47c.31-.41.76-.61,1.35-.61.55,0,1,.18,1.33.54.33.36.49.86.49,1.48v2.9h-1.22v-2.72c0-.33-.09-.58-.27-.78-.18-.19-.41-.29-.71-.29s-.55.1-.72.29c-.17.19-.26.45-.26.78Z"/><path d="m709.85,326.31c-.16.15-.35.23-.57.23s-.41-.08-.56-.23-.23-.34-.23-.56.08-.41.23-.57c.15-.15.34-.23.56-.23s.41.08.57.23c.15.16.23.35.23.57s-.08.41-.23.56Z"/><path d="m714.59,322.11v-2.27l1.23-.3v6.88h-1.23v-.52c-.37.44-.86.66-1.46.66-.65,0-1.19-.24-1.63-.72-.45-.47-.67-1.07-.67-1.81s.22-1.33.66-1.82c.43-.48.97-.72,1.64-.72.61,0,1.1.21,1.46.62Zm-1.26,3.3c.36,0,.66-.14.9-.41.24-.27.36-.6.36-.98s-.12-.71-.36-.98c-.24-.27-.54-.4-.9-.4s-.67.13-.91.4c-.25.27-.37.59-.37.98s.12.71.37.98c.24.27.54.41.91.41Z"/><path d="m718.47,326.42h-1.22v-6.58l1.22-.3v6.88Z"/><path d="m721.12,326.42h-1.22v-6.58l1.22-.3v6.88Z"/><path d="m509.33,354.73c.78-.78,1.72-1.18,2.81-1.18s2.04.39,2.82,1.18c.78.78,1.16,1.73,1.16,2.84,0,.71-.17,1.37-.52,1.99-.35.61-.82,1.1-1.42,1.46l1.8.98-.7,1.19-2.78-1.62c-.06,0-.18.01-.36.01-1.09,0-2.02-.39-2.81-1.18s-1.16-1.72-1.16-2.83.39-2.07,1.16-2.84Zm2.81,5.35c.66,0,1.23-.24,1.69-.73.46-.49.7-1.08.7-1.78s-.23-1.3-.7-1.79-1.03-.73-1.69-.73-1.22.24-1.68.73-.7,1.08-.7,1.79.23,1.28.7,1.76c.47.5,1.03.74,1.68.74Z"/><path d="m524.79,361.42h-1.67l-.66-1.73h-3.37l-.67,1.73h-1.57l3.1-7.69h1.75l3.1,7.69Zm-5.2-3.06h2.35l-1.18-3.05-1.18,3.05Z"/><path d="m532.3,354.61l-1,1.14c-.54-.46-1.15-.7-1.84-.7s-1.21.24-1.67.73c-.46.49-.7,1.08-.7,1.79s.24,1.28.71,1.78c.46.49,1.05.73,1.75.73s1.3-.23,1.74-.7l1,1.1c-.67.73-1.62,1.09-2.84,1.09-1.11,0-2.05-.39-2.81-1.18s-1.14-1.73-1.14-2.83.39-2.07,1.16-2.84c.77-.78,1.7-1.18,2.78-1.18,1.19,0,2.14.35,2.84,1.06Z"/><path d="m538.79,353.73v1.4h-2.29v6.29h-1.5v-6.29h-2.28v-1.4h6.07Z"/><path d="m541.37,361.42h-1.5v-7.69h1.5v7.69Z"/><path d="m543.98,354.73c.78-.78,1.72-1.18,2.81-1.18s2.04.39,2.82,1.18c.78.78,1.16,1.73,1.16,2.84s-.39,2.06-1.16,2.83c-.78.78-1.72,1.18-2.82,1.18s-2.02-.39-2.81-1.18-1.16-1.72-1.16-2.83.39-2.07,1.16-2.84Zm2.81,5.35c.66,0,1.23-.24,1.69-.73.46-.49.7-1.08.7-1.78s-.23-1.3-.7-1.79-1.03-.73-1.69-.73-1.22.24-1.68.73-.7,1.08-.7,1.79.23,1.28.7,1.76c.47.5,1.03.74,1.68.74Z"/><path d="m558.9,361.42h-1.62l-3.59-5.21v5.21h-1.5v-7.69h1.62l3.59,5.27v-5.27h1.5v7.69Z"/><path d="m565.92,361.42h-2.62v-7.69h2.56c1.26,0,2.3.36,3.12,1.08.82.73,1.22,1.66,1.22,2.78s-.4,2.03-1.2,2.75c-.8.72-1.83,1.08-3.08,1.08Zm-.07-6.28h-1.01v4.86h1.02c.82,0,1.48-.22,1.99-.67.5-.45.74-1.04.74-1.76s-.25-1.32-.74-1.76c-.5-.44-1.16-.66-2-.66Z"/><path d="m576.63,361.42h-4.98v-7.69h4.98v1.4h-3.48v1.7h3v1.42h-3v1.75h3.48v1.42Z"/><path d="m581.27,361.42h-3.26v-7.69h3.08c.72,0,1.33.2,1.82.6.48.39.72.9.72,1.54,0,.38-.11.71-.32.99-.22.28-.49.48-.83.62.42.12.75.34,1,.65.25.31.37.69.37,1.14,0,.61-.23,1.12-.68,1.54-.46.42-1.1.62-1.9.62Zm-.32-6.36h-1.44v1.85h1.45c.32,0,.59-.09.8-.26.21-.18.32-.4.32-.66s-.11-.49-.32-.67c-.21-.17-.48-.26-.81-.26Zm.18,3.08h-1.62v1.94h1.61c.34,0,.61-.09.83-.28.22-.18.33-.42.33-.71s-.11-.51-.32-.69-.49-.27-.83-.27Z"/><path d="m585.09,358.29v-4.56h1.5v4.54c0,.54.15.98.46,1.32.3.34.7.5,1.2.5s.88-.17,1.18-.5.45-.77.45-1.31v-4.55h1.5v4.56c0,.99-.29,1.79-.86,2.39-.58.61-1.35.91-2.29.91s-1.71-.3-2.27-.91c-.58-.6-.86-1.4-.86-2.39Z"/><path d="m599.6,357.21v3.54c-.74.56-1.7.84-2.9.84-1.11,0-2.05-.39-2.81-1.18-.76-.78-1.14-1.73-1.14-2.83s.39-2.07,1.16-2.84c.77-.78,1.7-1.18,2.78-1.18,1.19,0,2.14.35,2.84,1.06l-1,1.14c-.54-.46-1.15-.7-1.84-.7s-1.21.24-1.67.73c-.46.49-.7,1.08-.7,1.79s.24,1.28.71,1.78c.46.49,1.05.73,1.75.73.47,0,.9-.1,1.3-.3v-2.17l1.5-.41Zm-3.24,0h3.24l-.52,1.34h-2.72v-1.34Z"/><path d="m607.7,357.21v3.54c-.74.56-1.7.84-2.9.84-1.11,0-2.05-.39-2.81-1.18s-1.14-1.73-1.14-2.83.39-2.07,1.16-2.84c.77-.78,1.7-1.18,2.78-1.18,1.19,0,2.14.35,2.84,1.06l-1,1.14c-.54-.46-1.15-.7-1.84-.7s-1.21.24-1.67.73c-.46.49-.7,1.08-.7,1.79s.24,1.28.71,1.78c.46.49,1.05.73,1.75.73.47,0,.9-.1,1.3-.3v-2.17l1.5-.41Zm-3.24,0h3.24l-.52,1.34h-2.72v-1.34Z"/><path d="m610.84,361.42h-1.5v-7.69h1.5v7.69Z"/><path d="m619.36,361.42h-1.62l-3.59-5.21v5.21h-1.5v-7.69h1.62l3.59,5.27v-5.27h1.5v7.69Z"/><path d="m627.64,357.21v3.54c-.74.56-1.7.84-2.9.84-1.11,0-2.05-.39-2.81-1.18-.76-.78-1.14-1.73-1.14-2.83s.39-2.07,1.16-2.84c.77-.78,1.7-1.18,2.78-1.18,1.19,0,2.14.35,2.84,1.06l-1,1.14c-.54-.46-1.15-.7-1.84-.7s-1.21.24-1.67.73c-.46.49-.7,1.08-.7,1.79s.24,1.28.71,1.78c.46.49,1.05.73,1.75.73.47,0,.9-.1,1.3-.3v-2.17l1.5-.41Zm-3.24,0h3.24l-.52,1.34h-2.72v-1.34Z"/><path d="m640.37,214.42h-4.98v-7.69h4.98v1.4h-3.48v1.7h3v1.42h-3v1.75h3.48v1.42Z"/><path d="m647,214.42h-5.26v-7.69h1.5v6.28h3.76v1.42Z"/><path d="m653.1,214.42h-4.98v-7.69h4.98v1.4h-3.48v1.7h3v1.42h-3v1.75h3.48v1.42Z"/><path d="m661.13,209.07l-2.58,3.9-2.57-3.88v5.33h-1.5v-7.69h1.72l2.45,3.82,2.45-3.82h1.54v7.69h-1.5v-5.35Z"/><path d="m669.44,214.42h-4.98v-7.69h4.98v1.4h-3.48v1.7h3v1.42h-3v1.75h3.48v1.42Z"/><path d="m677.51,214.42h-1.62l-3.59-5.21v5.21h-1.5v-7.69h1.62l3.59,5.27v-5.27h1.5v7.69Z"/><path d="m684.64,206.73v1.4h-2.29v6.29h-1.5v-6.29h-2.28v-1.4h6.07Z"/><path d="m691.04,207.85l-1.03,1.02c-.18-.26-.43-.48-.76-.65s-.68-.25-1.04-.25-.63.07-.83.21c-.2.14-.31.33-.31.56,0,.22.1.4.3.55.2.15.45.27.75.35.3.08.62.19.97.32s.67.28.97.43c.3.16.55.39.75.7.2.31.3.67.3,1.1,0,.7-.27,1.28-.8,1.72-.54.45-1.26.67-2.14.67-1.39,0-2.39-.46-3-1.38l1.07-1c.48.64,1.13.96,1.96.96.42,0,.74-.08.97-.23.23-.16.34-.37.34-.65,0-.16-.05-.3-.15-.43-.1-.13-.25-.24-.45-.34-.2-.1-.39-.19-.58-.26-.19-.07-.43-.16-.73-.25s-.53-.18-.71-.25c-.42-.17-.77-.42-1.03-.75-.26-.33-.4-.73-.4-1.21,0-.65.26-1.18.79-1.61.51-.42,1.18-.62,2.02-.62.6,0,1.14.12,1.63.35.49.23.87.55,1.14.95Z"/><path d="m396.32,199.42h-1.5v-7.69h2.74c.94,0,1.68.23,2.24.7s.84,1.08.84,1.85-.28,1.39-.85,1.86c-.56.46-1.31.7-2.26.7h-1.21v2.59Zm1.36-6.37h-1.36v2.46h1.36c.42,0,.75-.11,1-.34.25-.23.38-.53.38-.89s-.13-.66-.38-.89c-.25-.22-.59-.34-1-.34Z"/><path d="m401.89,196.29v-4.56h1.5v4.54c0,.54.15.98.46,1.32s.7.5,1.2.5.88-.17,1.18-.5c.3-.33.45-.77.45-1.31v-4.55h1.5v4.56c0,.99-.29,1.79-.86,2.39-.58.61-1.35.91-2.29.91s-1.71-.3-2.27-.91c-.58-.6-.86-1.4-.86-2.39Z"/><path d="m413.21,199.42h-3.26v-7.69h3.08c.72,0,1.33.2,1.82.6.48.39.72.9.72,1.54,0,.38-.11.71-.32.99-.22.28-.49.48-.83.62.42.12.75.34,1,.65.25.31.37.69.37,1.14,0,.61-.23,1.12-.68,1.54-.46.42-1.1.62-1.9.62Zm-.32-6.36h-1.44v1.85h1.45c.32,0,.59-.09.8-.26.21-.18.32-.4.32-.66s-.11-.49-.32-.67c-.21-.17-.48-.26-.81-.26Zm.18,3.08h-1.62v1.94h1.61c.34,0,.61-.09.83-.28.22-.18.33-.42.33-.71s-.11-.51-.32-.69c-.22-.18-.49-.27-.83-.27Z"/><path d="m422.36,199.42h-5.26v-7.69h1.5v6.28h3.76v1.42Z"/><path d="m424.98,199.42h-1.5v-7.69h1.5v7.69Z"/><path d="m432.14,192.85l-1.03,1.02c-.18-.26-.43-.48-.76-.65s-.68-.25-1.04-.25-.63.07-.83.21c-.2.14-.31.33-.31.56,0,.22.1.4.3.55.2.15.45.27.75.35.3.08.62.19.97.32.35.13.67.28.97.43.3.16.55.39.75.7.2.31.3.67.3,1.1,0,.7-.27,1.28-.8,1.72-.54.45-1.26.67-2.14.67-1.39,0-2.39-.46-3-1.38l1.07-1c.48.64,1.13.96,1.96.96.42,0,.74-.08.97-.23.23-.16.34-.37.34-.65,0-.16-.05-.3-.15-.43-.1-.13-.25-.24-.45-.34-.2-.1-.39-.19-.58-.26-.19-.07-.43-.16-.73-.25-.3-.1-.53-.18-.71-.25-.42-.17-.77-.42-1.03-.75-.26-.33-.4-.73-.4-1.21,0-.65.26-1.18.79-1.61.51-.42,1.18-.62,2.02-.62.6,0,1.14.12,1.63.35.49.23.87.55,1.14.95Z"/><path d="m440.23,199.42h-1.51v-3.23h-3.66v3.23h-1.5v-7.69h1.5v3.06h3.66v-3.06h1.51v7.69Z"/><g id="Available"><path class="cls-8" d="m698.08,297.49h0c-1.16,0-2.24-.45-3.06-1.27-.82-.82-1.27-1.91-1.27-3.06,0-1.16.45-2.24,1.27-3.06.82-.82,1.9-1.27,3.06-1.27h0c2.39,0,4.33,1.95,4.33,4.33,0,1.16-.45,2.24-1.27,3.06-.82.82-1.9,1.27-3.06,1.27Zm0-7.66c-.89,0-1.72.35-2.35.97-.63.63-.98,1.46-.98,2.35s.35,1.73.97,2.35c.63.63,1.46.98,2.35.98h0c.89,0,1.72-.35,2.35-.97.63-.63.98-1.46.98-2.35,0-1.83-1.49-3.33-3.33-3.33h0Z"/><path class="cls-8" d="m699.42,303.75h-2.63c-.25,0-.46-.18-.49-.43l-.35-2.35c-.66-.18-1.29-.45-1.88-.79l-1.86,1.45c-.2.16-.48.14-.66-.04l-1.87-1.86c-.18-.18-.2-.46-.05-.66l1.45-1.9c-.34-.59-.6-1.22-.78-1.87l-2.38-.31c-.25-.03-.44-.24-.44-.49v-2.63c0-.25.17-.46.42-.5l2.39-.35c.17-.64.43-1.26.75-1.83l-1.46-1.92c-.15-.2-.13-.48.04-.66l1.86-1.87c.18-.18.46-.2.66-.05l1.91,1.44c.59-.34,1.22-.6,1.87-.79l.31-2.36c.03-.25.24-.43.5-.43h2.63c.25,0,.46.18.49.42l.36,2.36c.65.18,1.27.43,1.85.76l1.88-1.44c.2-.15.48-.13.66.04l1.87,1.86c.18.17.2.45.05.65l-1.42,1.93c.33.59.59,1.21.77,1.86l2.35.31c.25.03.43.24.43.49v2.63c.01.25-.17.46-.41.5l-2.35.36c-.18.65-.43,1.26-.76,1.85l1.43,1.9c.15.2.13.48-.04.65l-1.86,1.88c-.17.18-.45.2-.65.05l-1.92-1.41c-.59.34-1.22.6-1.88.78l-.29,2.32c-.03.25-.24.44-.5.44Zm-2.2-1h1.75l.28-2.22c.03-.21.18-.38.39-.43.78-.17,1.53-.48,2.21-.91.17-.11.4-.1.56.02l1.84,1.35,1.25-1.26-1.37-1.82c-.12-.17-.13-.39-.02-.57.42-.67.72-1.4.9-2.17.05-.2.21-.35.41-.38l2.25-.35v-1.76s-2.26-.3-2.26-.3c-.21-.03-.37-.18-.42-.38-.18-.77-.48-1.51-.91-2.18-.11-.17-.1-.4.02-.56l1.36-1.85-1.25-1.25-1.81,1.38c-.17.13-.39.14-.57.03-.67-.42-1.4-.72-2.17-.9-.2-.04-.35-.21-.38-.41l-.35-2.26h-1.76l-.3,2.26c-.03.21-.18.37-.38.42-.78.18-1.52.49-2.2.92-.18.11-.4.1-.57-.02l-1.83-1.38-1.24,1.25,1.4,1.84c.13.17.14.39.03.57-.41.67-.71,1.39-.88,2.16-.05.2-.21.36-.42.39l-2.29.33v1.76s2.29.29,2.29.29c.21.03.38.18.42.38.18.78.49,1.52.91,2.2.11.18.1.4-.02.57l-1.39,1.82,1.25,1.24,1.79-1.39c.17-.13.4-.14.58-.03.68.43,1.42.75,2.2.93.2.05.35.21.38.41l.34,2.25Z"/><path class="cls-8" d="m689.05,281.32c-.65,0-1.26-.25-1.72-.71-.46-.46-.71-1.07-.72-1.72,0-1.34,1.09-2.44,2.44-2.44h0c1.34,0,2.44,1.09,2.44,2.44,0,.65-.25,1.26-.71,1.73s-1.07.71-1.72.72h0Zm0-3.88h0c-.79,0-1.44.65-1.44,1.44,0,.38.15.75.42,1.02.27.27.63.42,1.01.42h0c.38,0,.75-.15,1.02-.42.27-.27.42-.63.42-1.02,0-.79-.65-1.44-1.44-1.44h0Z"/><path class="cls-8" d="m689.74,284.49h-1.33c-.25,0-.46-.18-.49-.43l-.16-1.03c-.24-.08-.48-.18-.71-.3l-.81.64c-.2.16-.48.14-.66-.04l-.95-.94c-.18-.18-.2-.46-.05-.66l.64-.84c-.12-.22-.21-.46-.29-.7l-1.05-.13c-.25-.03-.44-.24-.44-.5v-1.33c0-.25.18-.46.43-.5l1.05-.15c.07-.23.17-.46.28-.68l-.65-.85c-.15-.2-.13-.48.04-.66l.94-.95c.18-.18.46-.2.66-.05l.84.63c.23-.12.46-.22.7-.3l.14-1.03c.03-.25.24-.43.5-.43h1.33s0,0,0,0c.25,0,.46.18.49.42l.16,1.04c.24.08.47.17.69.29l.82-.63c.2-.15.48-.13.66.04l.95.94c.18.17.2.45.05.65l-.62.85c.12.22.21.46.29.7l1.03.14c.25.03.43.25.43.5v1.33c0,.25-.18.46-.42.49l-1.04.16c-.07.24-.17.47-.28.69l.63.83c.15.2.13.48-.04.65l-.94.95c-.17.18-.45.2-.65.05l-.85-.62c-.23.12-.46.22-.71.29l-.12,1.01c-.03.25-.24.44-.5.44Zm-.9-1h.46l.11-.91c.03-.21.18-.38.39-.43.36-.08.71-.22,1.04-.43.17-.11.4-.1.56.02l.76.56.33-.33-.56-.75c-.12-.16-.13-.39-.03-.56.2-.32.34-.66.42-1.02.04-.2.21-.35.41-.38l.94-.14v-.46l-.92-.12c-.21-.03-.38-.18-.42-.38-.08-.37-.23-.71-.43-1.03-.11-.17-.1-.4.02-.56l.56-.76-.33-.33-.74.57c-.17.13-.39.14-.57.03-.31-.2-.66-.34-1.02-.43-.2-.05-.35-.21-.38-.41l-.14-.94h-.46l-.12.93c-.03.21-.18.38-.38.42-.37.08-.72.23-1.04.43-.17.11-.4.1-.57-.02l-.75-.57-.33.33.58.76c.13.16.14.39.03.57-.2.32-.34.66-.42,1.02-.05.2-.21.36-.42.39l-.95.14v.46l.94.12c.21.03.38.18.42.38.08.37.23.72.43,1.04.11.18.1.4-.03.57l-.57.75.32.32.73-.57c.17-.13.4-.14.58-.03.32.21.67.35,1.04.44.2.05.35.21.38.41l.14.93Z"/></g><path class="cls-15" d="m377.16,316c-.28,0-.5-.22-.5-.5v-53c0-3.03-2.47-5.5-5.5-5.5h-73.16c-.28,0-.5-.22-.5-.5s.22-.5.5-.5h73.16c3.58,0,6.5,2.92,6.5,6.5v53c0,.28-.22.5-.5.5Z"/><path class="cls-15" d="m124.91,316.5c-.28,0-.5-.22-.5-.5v-53c0-3.58,2.92-6.5,6.5-6.5h92.09c.28,0,.5.22.5.5s-.22.5-.5.5h-92.09c-3.03,0-5.5,2.47-5.5,5.5v53c0,.28-.22.5-.5.5Z"/><path class="cls-15" d="m260.91,316.5c-.28,0-.5-.22-.5-.5v-46c0-.28.22-.5.5-.5s.5.22.5.5v46c0,.28-.22.5-.5.5Z"/><path class="cls-15" d="m410.66,316.5c-.28,0-.5-.22-.5-.5v-65c0-3.03-2.47-5.5-5.5-5.5h-85.66c-.28,0-.5-.22-.5-.5s.22-.5.5-.5h85.66c3.58,0,6.5,2.92,6.5,6.5v65c0,.28-.22.5-.5.5Z"/><path class="cls-15" d="m226,204.5h-58c-.28,0-.5-.22-.5-.5s.22-.5.5-.5h58c.28,0,.5.22.5.5s-.22.5-.5.5Z"/><path class="cls-15" d="m579.37,254.5h-49.37c-3.58,0-6.5-2.92-6.5-6.5v-38c0-3.03-2.47-5.5-5.5-5.5h-225c-.28,0-.5-.22-.5-.5s.22-.5.5-.5h225c3.58,0,6.5,2.92,6.5,6.5v38c0,3.03,2.47,5.5,5.5,5.5h49.37c.28,0,.5.22.5.5s-.22.5-.5.5Z"/><polygon class="cls-15" points="574.4 260.13 573.38 259.04 578.8 254 573.38 248.97 574.4 247.87 581 254 574.4 260.13"/><path class="cls-15" d="m522.37,187.5h-229.37c-.28,0-.5-.22-.5-.5s.22-.5.5-.5h229.37c.28,0,.5.22.5.5s-.22.5-.5.5Z"/><polygon class="cls-15" points="517.4 193.13 516.38 192.04 521.8 187 516.38 181.97 517.4 180.87 524 187 517.4 193.13"/><path class="cls-15" d="m690,369.5h-244.37c-.28,0-.5-.22-.5-.5s.22-.5.5-.5h244.37c3.03,0,5.5-2.47,5.5-5.5v-21.37c0-.28.22-.5.5-.5s.5.22.5.5v21.37c0,3.58-2.92,6.5-6.5,6.5Z"/><polygon class="cls-15" points="450.6 375.13 451.62 374.04 446.2 369 451.62 363.97 450.6 362.87 444 369 450.6 375.13"/><polygon class="cls-15" points="702.13 346.6 701.04 347.62 696 342.2 690.97 347.62 689.87 346.6 696 340 702.13 346.6"/><g class="cls-3"><g class="cls-17"><g class="cls-4"><path class="cls-16" d="m241.01,72.51l-5.52-4.14c-.17-.13-.31-.29-.41-.49-.1-.19-.15-.4-.14-.62v-12.42c0-.21.05-.43.14-.62.1-.19.24-.36.41-.49l5.52-4.14c-.15.14-.26.31-.33.5-.07.19-.08.4-.05.6v20.7c-.03.2-.01.41.05.6s.18.37.33.5Z"/><path class="cls-2" d="m267.45,50.25c-.23-.15-.49-.23-.77-.23-.18,0-.35.03-.51.1-.16.07-.31.16-.44.29l-.1.1-5.87,5.62-5.15,4.93-6.09,5.84-5.64,5.4-.1.1c-.13.12-.27.22-.44.29-.16.07-.34.1-.51.1-.3,0-.59-.1-.83-.28l-5.52-4.14c.28.21.63.31.98.27.35-.04.67-.21.9-.48l3.09-3.59,3.04-3.53,5.03-5.84,8.81-10.23c.13-.15.29-.27.47-.36.18-.08.38-.13.57-.13.27,0,.54.08.77.23l8.3,5.52Z"/><path class="cls-20" d="m267.45,71.87l-8.28,5.52c-.28.18-.62.26-.95.21-.33-.05-.64-.21-.86-.46l-8.83-10.24-5.03-5.85-3.04-3.52-3.09-3.59c-.23-.26-.55-.43-.9-.47-.35-.04-.7.06-.98.27l5.52-4.14c.24-.18.53-.28.83-.28.18,0,.35.03.51.1.16.07.31.16.44.29l.1.1,5.64,5.4,6.09,5.84,5.15,4.94,5.86,5.62.1.1c.13.12.27.22.44.29.16.07.34.1.51.1.27,0,.54-.08.77-.23Z"/><path class="cls-18" d="m268.06,51.4v19.32c0,.23-.06.45-.16.65-.11.2-.26.37-.45.5l-8.28,5.52c.19-.13.34-.3.45-.5.11-.2.16-.43.16-.65v-30.36c0-.23-.06-.45-.17-.66-.11-.2-.27-.37-.46-.5l8.3,5.52c.19.13.34.3.45.5.11.2.16.42.16.65Z"/></g></g></g><path class="cls-19" d="m627.41,46.4c-2.6-1.57-5.65-2.48-8.91-2.48-9.51,0-17.23,7.71-17.23,17.23,0,3.04.79,5.9,2.17,8.38l23.96-23.12Z"/><path class="cls-21" d="m623.81,49.87l3.6-3.47c4.99,3.02,8.32,8.49,8.32,14.75,0,7.66-5,14.15-11.92,16.39v-27.67Z"/><path class="cls-9" d="m623.81,49.87l-20.37,19.65c2.94,5.28,8.58,8.85,15.06,8.85,1.85,0,3.64-.29,5.31-.83v-27.67Z"/><line class="cls-1" x1="603.44" y1="69.52" x2="627.41" y2="46.4"/><path class="cls-11" d="m619.76,53.77v3.68h0c-.66-1.17-1.82-1.76-3.48-1.76-1.76,0-3.18.64-4.27,1.91-1.09,1.27-1.63,2.97-1.63,5.08s.49,3.6,1.48,4.72c.99,1.13,2.29,1.69,3.9,1.69,1.76,0,3.09-.69,4-2.07h.05v1.76h3.99v-18.92l-4.05,3.91Zm.13,8.8c0,1.06-.25,1.91-.76,2.55-.51.64-1.17.96-1.98.96-.85,0-1.52-.3-1.99-.91-.48-.61-.72-1.47-.72-2.6,0-1.2.25-2.14.74-2.83.5-.69,1.19-1.03,2.07-1.03.78,0,1.42.28,1.91.82.49.55.73,1.24.73,2.07v.96Z"/><rect class="cls-12" x="65" y="87.5" width="373" height="30" rx="5" ry="5"/><path class="cls-8" d="m83.99,110.52h-5.13v-14.1h5.13c2.3,0,4.21.67,5.72,2,1.51,1.33,2.27,3.03,2.27,5.08s-.76,3.7-2.27,5.02c-1.51,1.33-3.42,2-5.72,2Zm-.07-10.69h-1.32v7.28h1.34c1.25,0,2.25-.33,3-1,.75-.67,1.13-1.55,1.13-2.65s-.38-1.96-1.14-2.63c-.76-.67-1.77-1-3.01-1Z"/><path class="cls-8" d="m108.13,110.52h-4l-.97-2.66h-5.52l-.97,2.66h-3.81l5.5-14.1h4.27l5.5,14.1Zm-9.33-5.87h3.19l-1.58-4.38-1.61,4.38Z"/><path class="cls-8" d="m119.92,96.42v3.41h-3.87v10.69h-3.63v-10.69h-3.85v-3.41h11.35Z"/><path class="cls-8" d="m135.63,110.52h-4l-.97-2.66h-5.52l-.97,2.66h-3.81l5.5-14.1h4.27l5.5,14.1Zm-9.33-5.87h3.19l-1.58-4.38-1.61,4.38Z"/><path class="cls-8" d="m149.03,102.01l-4.11,5.96-4.11-5.94v8.49h-3.63v-14.1h4.18l3.81,5.76,3.81-5.76h3.7v14.1h-3.63v-8.51Z"/><path class="cls-8" d="m158.92,110.52h-3.63v-14.1h3.63v14.1Z"/><path class="cls-8" d="m174.26,110.52h-3.89l-5.17-8.03v8.03h-3.63v-14.1h3.89l5.17,8.16v-8.16h3.63v14.1Z"/><path class="cls-8" d="m186.27,110.52h-9.37v-14.1h9.37v3.41h-5.74v1.85h4.86v3.41h-4.86v2.02h5.74v3.41Z"/><path class="cls-8" d="m191.88,110.52h-3.63v-14.1h5.13c1.8,0,3.25.43,4.33,1.28,1.09.87,1.63,2,1.63,3.39,0,.91-.23,1.71-.68,2.41-.46.7-1.1,1.24-1.94,1.64l2.97,5.39h-4.2l-2.42-4.71h-1.19v4.71Zm1.78-10.91h-1.78v3.01h1.78c.54,0,.98-.14,1.32-.42.34-.28.51-.65.51-1.12,0-.44-.17-.79-.51-1.07-.34-.27-.78-.41-1.32-.41Z"/><path class="cls-8" d="m210.8,110.52h-3.63v-14.1h3.63v14.1Z"/><path class="cls-8" d="m226.13,110.52h-3.89l-5.17-8.03v8.03h-3.63v-14.1h3.89l5.17,8.16v-8.16h3.63v14.1Z"/><path class="cls-8" d="m239.03,96.42v3.41h-3.87v10.69h-3.63v-10.69h-3.85v-3.41h11.35Z"/><path class="cls-8" d="m249.94,110.52h-9.37v-14.1h9.37v3.41h-5.74v1.85h4.86v3.41h-4.86v2.02h5.74v3.41Z"/><path class="cls-8" d="m264.11,102.25l.02,6.89c-1.39,1.14-3.26,1.72-5.59,1.72-2.07,0-3.8-.72-5.19-2.16-1.39-1.44-2.09-3.18-2.09-5.24s.72-3.78,2.16-5.21,3.15-2.16,5.15-2.16c2.35,0,4.15.7,5.41,2.09l-2.42,2.77c-.79-.82-1.78-1.23-2.95-1.23-.97,0-1.78.36-2.44,1.08-.67.72-1.01,1.61-1.01,2.66s.34,1.93,1.03,2.66c.69.73,1.55,1.1,2.6,1.1.62,0,1.19-.13,1.72-.4v-4.53l3.61-.04Zm-5.68,0h5.68l-1.76,2.93h-3.92v-2.93Z"/><path class="cls-8" d="m270.18,110.52h-3.63v-14.1h5.13c1.8,0,3.25.43,4.33,1.28,1.09.87,1.63,2,1.63,3.39,0,.91-.23,1.71-.68,2.41-.46.7-1.1,1.24-1.94,1.64l2.97,5.39h-4.2l-2.42-4.71h-1.19v4.71Zm1.78-10.91h-1.78v3.01h1.78c.54,0,.98-.14,1.32-.42.34-.28.51-.65.51-1.12,0-.44-.17-.79-.51-1.07-.34-.27-.78-.41-1.32-.41Z"/><path class="cls-8" d="m294.13,110.52h-4l-.97-2.66h-5.52l-.97,2.66h-3.81l5.5-14.1h4.27l5.5,14.1Zm-9.33-5.87h3.19l-1.58-4.38-1.61,4.38Z"/><path class="cls-8" d="m305.93,96.42v3.41h-3.87v10.69h-3.63v-10.69h-3.85v-3.41h11.35Z"/><path class="cls-8" d="m311.1,110.52h-3.63v-14.1h3.63v14.1Z"/><path class="cls-8" d="m315.25,98.24c1.44-1.44,3.18-2.16,5.21-2.16s3.77.72,5.24,2.16c1.44,1.47,2.16,3.21,2.16,5.24s-.72,3.78-2.16,5.21c-1.47,1.44-3.21,2.16-5.24,2.16s-3.79-.73-5.21-2.18c-1.45-1.44-2.18-3.18-2.18-5.21s.73-3.78,2.18-5.21Zm1.72,5.21c0,1.04.34,1.93,1.03,2.66.69.73,1.51,1.1,2.46,1.1s1.8-.37,2.49-1.1c.67-.72,1.01-1.6,1.01-2.64s-.34-1.94-1.01-2.66c-.69-.73-1.52-1.1-2.49-1.1s-1.79.36-2.46,1.08c-.69.73-1.03,1.62-1.03,2.66Z"/><path class="cls-8" d="m342.53,110.52h-3.89l-5.17-8.03v8.03h-3.63v-14.1h3.89l5.17,8.16v-8.16h3.63v14.1Z"/><path class="cls-8" d="m361.15,98.66l-2.46,2.46c-.78-1.09-1.8-1.63-3.08-1.63-.89,0-1.34.29-1.34.86,0,.29.2.55.61.77.4.22,1.04.47,1.92.76s1.53.52,1.94.69c.72.32,1.3.8,1.75,1.44s.67,1.39.67,2.25c0,1.33-.53,2.43-1.58,3.28-1.07.87-2.42,1.3-4.05,1.3-2.7,0-4.61-.88-5.72-2.64l2.57-2.42c.79,1.1,1.86,1.65,3.21,1.65,1.11,0,1.67-.34,1.67-1.01,0-.25-.13-.47-.38-.66-.26-.19-.59-.36-.99-.5-.4-.14-.85-.28-1.33-.43-.48-.15-.97-.33-1.46-.56-.49-.23-.94-.5-1.34-.8-.4-.31-.73-.72-.99-1.24-.26-.52-.38-1.12-.38-1.79,0-1.26.51-2.3,1.52-3.12,1.03-.82,2.32-1.23,3.87-1.23,1.17,0,2.23.23,3.17.68s1.68,1.08,2.22,1.89Z"/><path class="cls-8" d="m373.27,96.42v3.41h-3.87v10.69h-3.63v-10.69h-3.85v-3.41h11.35Z"/><path class="cls-8" d="m374.7,104.49v-8.07h3.63v7.99c0,.85.22,1.53.67,2.05.45.51,1.04.77,1.77.77s1.29-.25,1.73-.76c.43-.51.65-1.18.65-2.04v-8.01h3.63v8.07c0,1.91-.55,3.44-1.65,4.6-1.13,1.17-2.6,1.76-4.42,1.76s-3.26-.59-4.36-1.76c-1.1-1.16-1.65-2.69-1.65-4.6Z"/><path class="cls-8" d="m394.43,110.52h-5.13v-14.1h5.13c2.3,0,4.21.67,5.72,2,1.51,1.33,2.27,3.03,2.27,5.08s-.76,3.7-2.27,5.02c-1.51,1.33-3.42,2-5.72,2Zm-.07-10.69h-1.32v7.28h1.34c1.25,0,2.25-.33,3-1,.75-.67,1.13-1.55,1.13-2.65s-.38-1.96-1.14-2.63c-.76-.67-1.77-1-3.01-1Z"/><path class="cls-8" d="m408.03,110.52h-3.63v-14.1h3.63v14.1Z"/><path class="cls-8" d="m412.18,98.24c1.44-1.44,3.18-2.16,5.21-2.16s3.77.72,5.24,2.16c1.44,1.47,2.16,3.21,2.16,5.24s-.72,3.78-2.16,5.21c-1.47,1.44-3.21,2.16-5.24,2.16s-3.79-.73-5.21-2.18c-1.45-1.44-2.18-3.18-2.18-5.21s.73-3.78,2.18-5.21Zm1.72,5.21c0,1.04.34,1.93,1.03,2.66.69.73,1.51,1.1,2.46,1.1s1.8-.37,2.49-1.1c.67-.72,1.01-1.6,1.01-2.64s-.34-1.94-1.01-2.66c-.69-.73-1.52-1.1-2.49-1.1s-1.79.36-2.46,1.08c-.69.73-1.03,1.62-1.03,2.66Z"/><rect class="cls-10" x="502" y="87.5" width="233" height="30" rx="5" ry="5"/><path class="cls-8" d="m526.39,110.52h-5.13v-14.1h5.13c2.3,0,4.21.67,5.72,2,1.51,1.33,2.27,3.03,2.27,5.08s-.76,3.7-2.27,5.02c-1.51,1.33-3.42,2-5.72,2Zm-.07-10.69h-1.32v7.28h1.34c1.25,0,2.25-.33,3-1,.76-.67,1.13-1.55,1.13-2.65s-.38-1.96-1.14-2.63c-.76-.67-1.77-1-3.01-1Z"/><path class="cls-8" d="m550.52,110.52h-4l-.97-2.66h-5.52l-.97,2.66h-3.81l5.5-14.1h4.27l5.5,14.1Zm-9.33-5.87h3.19l-1.58-4.38-1.61,4.38Z"/><path class="cls-8" d="m562.31,96.42v3.41h-3.87v10.69h-3.63v-10.69h-3.85v-3.41h11.35Z"/><path class="cls-8" d="m578.02,110.52h-4l-.97-2.66h-5.52l-.97,2.66h-3.81l5.5-14.1h4.27l5.5,14.1Zm-9.33-5.87h3.19l-1.58-4.38-1.61,4.38Z"/><path class="cls-8" d="m591.42,102.01l-4.11,5.96-4.11-5.94v8.49h-3.63v-14.1h4.18l3.81,5.76,3.81-5.76h3.7v14.1h-3.63v-8.51Z"/><path class="cls-8" d="m601.32,110.52h-3.63v-14.1h3.63v14.1Z"/><path class="cls-8" d="m616.65,110.52h-3.89l-5.17-8.03v8.03h-3.63v-14.1h3.89l5.17,8.16v-8.16h3.63v14.1Z"/><path class="cls-8" d="m628.66,110.52h-9.37v-14.1h9.37v3.41h-5.74v1.85h4.86v3.41h-4.86v2.02h5.74v3.41Z"/><path class="cls-8" d="m634.27,110.52h-3.63v-14.1h5.13c1.8,0,3.25.43,4.33,1.28,1.08.87,1.63,2,1.63,3.39,0,.91-.23,1.71-.68,2.41-.46.7-1.1,1.24-1.94,1.64l2.97,5.39h-4.2l-2.42-4.71h-1.19v4.71Zm1.78-10.91h-1.78v3.01h1.78c.54,0,.98-.14,1.32-.42.34-.28.51-.65.51-1.12,0-.44-.17-.79-.51-1.07-.34-.27-.78-.41-1.32-.41Z"/><path class="cls-8" d="m663.73,110.52h-4l-.97-2.66h-5.52l-.97,2.66h-3.81l5.5-14.1h4.27l5.5,14.1Zm-9.33-5.87h3.19l-1.58-4.38-1.61,4.38Z"/><path class="cls-8" d="m677.46,102.25l.02,6.89c-1.39,1.14-3.26,1.72-5.59,1.72-2.07,0-3.8-.72-5.19-2.16-1.39-1.44-2.09-3.18-2.09-5.24s.72-3.78,2.16-5.21,3.15-2.16,5.15-2.16c2.35,0,4.15.7,5.41,2.09l-2.42,2.77c-.79-.82-1.78-1.23-2.95-1.23-.97,0-1.78.36-2.44,1.08-.67.72-1.01,1.61-1.01,2.66s.34,1.93,1.03,2.66c.69.73,1.55,1.1,2.6,1.1.62,0,1.19-.13,1.72-.4v-4.53l3.61-.04Zm-5.68,0h5.68l-1.76,2.93h-3.92v-2.93Z"/><path class="cls-8" d="m689.27,110.52h-9.37v-14.1h9.37v3.41h-5.74v1.85h4.86v3.41h-4.86v2.02h5.74v3.41Z"/><path class="cls-8" d="m703.95,110.52h-3.89l-5.17-8.03v8.03h-3.63v-14.1h3.89l5.17,8.16v-8.16h3.63v14.1Z"/><path class="cls-8" d="m716.84,96.42v3.41h-3.87v10.69h-3.63v-10.69h-3.85v-3.41h11.35Z"/></svg>