<svg xmlns="http://www.w3.org/2000/svg" viewBox="0 0 1606 1581.12"><defs><style>.cls-1{fill:#fff;}.cls-2,.cls-4{fill:none;}.cls-2{stroke:#00517d;stroke-width:1.62px;}.cls-2,.cls-4,.cls-7{stroke-miterlimit:10;}.cls-3{fill:#00517c;}.cls-4{stroke:#00517c;stroke-width:1.5px;}.cls-5,.cls-6,.cls-7{fill:#e5f5fc;}.cls-6,.cls-7{stroke:#e5f5fc;}.cls-6{stroke-linecap:round;stroke-linejoin:round;stroke-width:1.62px;}.cls-7{stroke-width:0.6px;}</style></defs><g id="Layer_2" data-name="Layer 2"><rect class="cls-1" x="-83.72" y="-1006.26" width="3442.78" height="2628.99"/><rect class="cls-2" x="43.53" y="695.37" width="461.12" height="846.69" rx="6"/><path class="cls-3" d="M200.07,1172.6a8.25,8.25,0,0,1,11.73,0,8.39,8.39,0,0,1-1.63,13.1l3.75,2-1.45,2.48-5.8-3.38a5.78,5.78,0,0,1-.75,0,8.39,8.39,0,0,1-5.85-14.28Zm5.85,11.15a4.72,4.72,0,0,0,3.53-1.52,5.48,5.48,0,0,0,0-7.43,4.72,4.72,0,0,0-3.53-1.52,4.67,4.67,0,0,0-3.5,1.52,5.2,5.2,0,0,0-1.45,3.73,5.11,5.11,0,0,0,1.45,3.67A4.64,4.64,0,0,0,205.92,1183.75Z"/><path class="cls-3" d="M232.27,1186.53h-3.48l-1.37-3.6h-7l-1.41,3.6h-3.27l6.45-16h3.65Zm-10.83-6.38h4.91l-2.45-6.35Z"/><path class="cls-3" d="M244.64,1176l-1.75,2.18a3.94,3.94,0,0,0-2.82-1.1,3.19,3.19,0,0,0-2.41,1,3.42,3.42,0,0,0-.94,2.48,3.46,3.46,0,0,0,.94,2.49,3.16,3.16,0,0,0,2.38,1,4,4,0,0,0,3-1.17l1.55,2.25a5.12,5.12,0,0,1-2,1.31,6.87,6.87,0,0,1-2.6.49,6.27,6.27,0,0,1-6.3-6.33,6.21,6.21,0,0,1,1.82-4.5,6,6,0,0,1,4.43-1.85A6.22,6.22,0,0,1,244.64,1176Z"/><path class="cls-3" d="M247.69,1177.25h-2.1v-2.7h2.13v-2.35l3.05-.75v3.1H254v2.7h-3.23v5.08c0,1.11.46,1.67,1.38,1.67a1.77,1.77,0,0,0,1.4-.6l1.37,2.28a4.51,4.51,0,0,1-3.27,1.2,3.77,3.77,0,0,1-2.93-1.16,4.76,4.76,0,0,1-1.05-3.29Z"/><path class="cls-3" d="M258.64,1172.93a1.74,1.74,0,0,1-1.25-.51,1.72,1.72,0,0,1-.52-1.27,1.75,1.75,0,0,1,.52-1.26,1.69,1.69,0,0,1,1.25-.54,1.72,1.72,0,0,1,1.28.54,1.75,1.75,0,0,1,.52,1.26,1.72,1.72,0,0,1-.52,1.27A1.77,1.77,0,0,1,258.64,1172.93Zm-1.5,1.62h3.05v12h-3.05Z"/><path class="cls-3" d="M273.62,1185a6.05,6.05,0,0,1-4.43,1.85,5.92,5.92,0,0,1-4.4-1.85,6.12,6.12,0,0,1-1.82-4.48,6.21,6.21,0,0,1,1.82-4.5,5.92,5.92,0,0,1,4.4-1.85,6.05,6.05,0,0,1,4.43,1.85,6.17,6.17,0,0,1,1.82,4.5A6.08,6.08,0,0,1,273.62,1185Zm-4.4-1a2.88,2.88,0,0,0,2.25-1,3.78,3.78,0,0,0,0-4.9,2.89,2.89,0,0,0-2.25-1,2.92,2.92,0,0,0-2.28,1,3.72,3.72,0,0,0,0,4.9A2.91,2.91,0,0,0,269.22,1184Z"/><path class="cls-3" d="M281.27,1179.73v6.8h-3v-12h3v1.18a4,4,0,0,1,3.37-1.53,4.27,4.27,0,0,1,3.32,1.37,5.31,5.31,0,0,1,1.23,3.71v7.25h-3.05v-6.8a2.75,2.75,0,0,0-.66-1.94,2.59,2.59,0,0,0-3.56,0A2.79,2.79,0,0,0,281.27,1179.73Z"/><path class="cls-3" d="M304.62,1170.5v16h-3.05v-12.4L299,1176.6l-1.83-2,4.3-4.08Z"/><path class="cls-3" d="M314.19,1170.43a5.79,5.79,0,0,1,4.25,1.65,5.43,5.43,0,0,1,1.7,4.07,6.36,6.36,0,0,1-.52,2.55,21.87,21.87,0,0,1-2.05,3.48l-3.23,4.62h-3.5l3.63-5.32-.3,0a5.82,5.82,0,0,1-4.23-1.57,5,5,0,0,1-1.65-3.78,5.52,5.52,0,0,1,1.68-4.1A5.81,5.81,0,0,1,314.19,1170.43Zm0,8.57a2.8,2.8,0,0,0,2-.82,2.89,2.89,0,0,0,0-4,2.81,2.81,0,0,0-2-.83,2.8,2.8,0,0,0-2.85,2.85,2.79,2.79,0,0,0,.81,2A2.74,2.74,0,0,0,314.22,1179Z"/><path class="cls-3" d="M328.24,1170.43a5.79,5.79,0,0,1,4.25,1.65,5.43,5.43,0,0,1,1.7,4.07,6.36,6.36,0,0,1-.52,2.55,21.12,21.12,0,0,1-2.05,3.48l-3.23,4.62h-3.5l3.63-5.32-.3,0a5.82,5.82,0,0,1-4.23-1.57,5,5,0,0,1-1.65-3.78,5.52,5.52,0,0,1,1.68-4.1A5.83,5.83,0,0,1,328.24,1170.43Zm0,8.57a2.8,2.8,0,0,0,2-.82,2.89,2.89,0,0,0,0-4,2.81,2.81,0,0,0-2-.83,2.8,2.8,0,0,0-2.85,2.85,2.79,2.79,0,0,0,.81,2A2.74,2.74,0,0,0,328.27,1179Z"/><path class="cls-3" d="M342.29,1170.43a5.79,5.79,0,0,1,4.25,1.65,5.43,5.43,0,0,1,1.7,4.07,6.36,6.36,0,0,1-.52,2.55,21.12,21.12,0,0,1-2.05,3.48l-3.23,4.62h-3.5l3.63-5.32-.3,0a5.82,5.82,0,0,1-4.23-1.57,5,5,0,0,1-1.65-3.78,5.52,5.52,0,0,1,1.68-4.1A5.83,5.83,0,0,1,342.29,1170.43Zm0,8.57a2.8,2.8,0,0,0,2-.82,2.89,2.89,0,0,0,0-4,2.81,2.81,0,0,0-2-.83,2.8,2.8,0,0,0-2.85,2.85,2.79,2.79,0,0,0,.81,2A2.74,2.74,0,0,0,342.32,1179Z"/><path class="cls-3" d="M130.42,1216.53H120.05v-16h10.37v2.93h-7.25V1207h6.25v3h-6.25v3.65h7.25Z"/><path class="cls-3" d="M136.22,1209.73v6.8h-3.05v-12h3.05v1.18a4,4,0,0,1,3.38-1.53,4.25,4.25,0,0,1,3.31,1.37,5.31,5.31,0,0,1,1.24,3.71v7.25H141.1v-6.8a2.75,2.75,0,0,0-.66-1.94,2.6,2.6,0,0,0-3.57,0A2.79,2.79,0,0,0,136.22,1209.73Z"/><path class="cls-3" d="M148.47,1207.25h-2.1v-2.7h2.13v-2.35l3.05-.75v3.1h3.25v2.7h-3.23v5.08c0,1.11.46,1.67,1.38,1.67a1.77,1.77,0,0,0,1.4-.6l1.37,2.28a4.51,4.51,0,0,1-3.27,1.2,3.77,3.77,0,0,1-2.93-1.16,4.76,4.76,0,0,1-1.05-3.29Z"/><path class="cls-3" d="M161,1209.83v6.7h-3.05v-12H161v1.3a3.41,3.41,0,0,1,2.93-1.65,3,3,0,0,1,1.92.6l-1.27,2.9a2.22,2.22,0,0,0-1.58-.52,1.75,1.75,0,0,0-1.45.7A3,3,0,0,0,161,1209.83Z"/><path class="cls-3" d="M166.5,1204.55h3.37l3.48,8.25,2.87-8.25h3.08l-4.9,13.5q-1.34,3.73-4.45,3.73a4.74,4.74,0,0,1-3.28-1.28l1.38-2.4a2.7,2.7,0,0,0,1.92.8,1.49,1.49,0,0,0,1.09-.43,4.16,4.16,0,0,0,.81-1.47l.1-.3Z"/><path class="cls-3" d="M181.5,1221.43v-16.88h3.05v1.3a4.55,4.55,0,0,1,3.65-1.65,5.46,5.46,0,0,1,4.1,1.78,6.46,6.46,0,0,1,1.65,4.55,6.55,6.55,0,0,1-1.63,4.52,5.31,5.31,0,0,1-4.12,1.83,4.59,4.59,0,0,1-3.65-1.55v6.1Zm6.22-14.35a2.89,2.89,0,0,0-2.25,1,3.75,3.75,0,0,0,0,4.92,2.89,2.89,0,0,0,2.25,1,2.92,2.92,0,0,0,2.28-1,3.58,3.58,0,0,0,.9-2.45,3.55,3.55,0,0,0-.9-2.47A2.92,2.92,0,0,0,187.72,1207.08Z"/><path class="cls-3" d="M206.6,1215a6.07,6.07,0,0,1-4.43,1.85,5.92,5.92,0,0,1-4.4-1.85,6.08,6.08,0,0,1-1.82-4.48,6.17,6.17,0,0,1,1.82-4.5,5.92,5.92,0,0,1,4.4-1.85,6.07,6.07,0,0,1,4.43,1.85,6.21,6.21,0,0,1,1.82,4.5A6.12,6.12,0,0,1,206.6,1215Zm-4.4-1a2.88,2.88,0,0,0,2.25-1,3.78,3.78,0,0,0,0-4.9,2.89,2.89,0,0,0-2.25-1,2.92,2.92,0,0,0-2.28,1,3.72,3.72,0,0,0,0,4.9A2.91,2.91,0,0,0,202.2,1214Z"/><path class="cls-3" d="M212.7,1202.93a1.78,1.78,0,0,1-1.78-1.78,1.76,1.76,0,0,1,.53-1.26,1.67,1.67,0,0,1,1.25-.54,1.7,1.7,0,0,1,1.27.54,1.76,1.76,0,0,1,.53,1.26,1.73,1.73,0,0,1-.53,1.27A1.75,1.75,0,0,1,212.7,1202.93Zm-1.5,1.62h3.05v12H211.2Z"/><path class="cls-3" d="M220.87,1209.73v6.8h-3.05v-12h3.05v1.18a4,4,0,0,1,3.38-1.53,4.26,4.26,0,0,1,3.31,1.37,5.31,5.31,0,0,1,1.24,3.71v7.25h-3.05v-6.8a2.75,2.75,0,0,0-.67-1.94,2.59,2.59,0,0,0-3.56,0A2.79,2.79,0,0,0,220.87,1209.73Z"/><path class="cls-3" d="M233.12,1207.25H231v-2.7h2.13v-2.35l3-.75v3.1h3.25v2.7h-3.22v5.08c0,1.11.46,1.67,1.38,1.67a1.77,1.77,0,0,0,1.4-.6l1.37,2.28a4.53,4.53,0,0,1-3.27,1.2,3.77,3.77,0,0,1-2.93-1.16,4.76,4.76,0,0,1-1-3.29Z"/><path class="cls-3" d="M245.05,1207.9a2,2,0,0,1-1.43.58,1.88,1.88,0,0,1-1.4-.58,1.91,1.91,0,0,1-.57-1.4,2,2,0,0,1,.57-1.42,1.88,1.88,0,0,1,1.4-.58,2,2,0,0,1,2,2A1.91,1.91,0,0,1,245.05,1207.9Zm0,8.35a2,2,0,0,1-1.43.58,1.88,1.88,0,0,1-1.4-.58,1.91,1.91,0,0,1-.57-1.4,2,2,0,0,1,.57-1.42,1.88,1.88,0,0,1,1.4-.58,2,2,0,0,1,2,2A1.91,1.91,0,0,1,245.05,1216.25Z"/><path class="cls-3" d="M256.92,1216.53h-3.13v-16h5.7a7.15,7.15,0,0,1,4.68,1.45,4.74,4.74,0,0,1,1.75,3.85,4.82,4.82,0,0,1-1.77,3.88,7.15,7.15,0,0,1-4.71,1.45h-2.52Zm2.82-13.28h-2.82v5.13h2.82a3,3,0,0,0,2.09-.71,2.4,2.4,0,0,0,.79-1.87,2.36,2.36,0,0,0-.79-1.85A3.05,3.05,0,0,0,259.74,1203.25Z"/><path class="cls-3" d="M280.24,1216.53h-3.07v-1.3a4.55,4.55,0,0,1-3.65,1.65,5.31,5.31,0,0,1-4.08-1.8,6.32,6.32,0,0,1-1.67-4.53,6.55,6.55,0,0,1,1.65-4.55,5.24,5.24,0,0,1,4.1-1.8,4.61,4.61,0,0,1,3.65,1.55v-1.2h3.07ZM274,1214a2.88,2.88,0,0,0,2.25-1,3.78,3.78,0,0,0,0-4.9,2.89,2.89,0,0,0-2.25-1,2.92,2.92,0,0,0-2.28,1,3.72,3.72,0,0,0,0,4.9A2.91,2.91,0,0,0,274,1214Z"/><path class="cls-3" d="M286.87,1209.83v6.7h-3.05v-12h3.05v1.3a3.4,3.4,0,0,1,2.92-1.65,3,3,0,0,1,1.93.6l-1.28,2.9a2.2,2.2,0,0,0-1.57-.52,1.74,1.74,0,0,0-1.45.7A3,3,0,0,0,286.87,1209.83Z"/><path class="cls-3" d="M296.32,1207.78a.92.92,0,0,0,.24.6,1.79,1.79,0,0,0,.71.47,9,9,0,0,0,.94.35c.3.1.69.22,1.16.35s.84.25,1.12.35a3.48,3.48,0,0,1,1.65,1.2,3.25,3.25,0,0,1,.63,2,3.31,3.31,0,0,1-1.34,2.69,5.73,5.73,0,0,1-3.64,1.06,6.23,6.23,0,0,1-5-2l1.7-1.95a4.5,4.5,0,0,0,3.5,1.53,2.17,2.17,0,0,0,1.31-.34,1.06,1.06,0,0,0,.46-.91,1,1,0,0,0-.47-.85,3.45,3.45,0,0,0-1.19-.55c-.47-.13-1-.3-1.55-.5a13.89,13.89,0,0,1-1.55-.66,3.2,3.2,0,0,1-1.19-1.1,3.24,3.24,0,0,1-.47-1.74,3.16,3.16,0,0,1,1.24-2.55,5.05,5.05,0,0,1,3.36-1q3.33,0,4.75,2l-1.73,1.8a3.66,3.66,0,0,0-2.95-1.33,2.1,2.1,0,0,0-1.22.32A.93.93,0,0,0,296.32,1207.78Z"/><path class="cls-3" d="M311.09,1216.88a6.22,6.22,0,0,1-4.57-1.85,6.09,6.09,0,0,1-1.85-4.48,6.25,6.25,0,0,1,1.75-4.5,5.64,5.64,0,0,1,4.3-1.85A5.81,5.81,0,0,1,315,1206a6,6,0,0,1,1.72,4.35,4.69,4.69,0,0,1-.07,1h-8.88a3.38,3.38,0,0,0,3.43,2.88,3.9,3.9,0,0,0,2.92-1.25l1.58,2.07a5,5,0,0,1-2,1.37A7,7,0,0,1,311.09,1216.88Zm-.32-10.08a2.73,2.73,0,0,0-1.88.69,3.58,3.58,0,0,0-1.05,1.89h5.78a3.37,3.37,0,0,0-1-1.91A2.64,2.64,0,0,0,310.77,1206.8Z"/><path class="cls-3" d="M322.62,1216.53h-3.13v-16h5.7a7,7,0,0,1,4.55,1.38,4.5,4.5,0,0,1,1.73,3.67,4.6,4.6,0,0,1-.89,2.82,5.34,5.34,0,0,1-2.49,1.78l3.73,6.38h-3.63l-3.27-5.9h-2.3Zm2.82-13.28h-2.82v4.63h2.82a2.93,2.93,0,0,0,2-.64,2.25,2.25,0,0,0,0-3.35A3,3,0,0,0,325.44,1203.25Z"/><path class="cls-3" d="M340.32,1216.88a6.24,6.24,0,0,1-4.58-1.85,6.13,6.13,0,0,1-1.85-4.48,6.29,6.29,0,0,1,1.75-4.5,5.66,5.66,0,0,1,4.3-1.85,5.81,5.81,0,0,1,4.3,1.75,6,6,0,0,1,1.73,4.35,4.53,4.53,0,0,1-.08,1H337a3.36,3.36,0,0,0,3.42,2.88,3.92,3.92,0,0,0,2.93-1.25l1.57,2.07a4.81,4.81,0,0,1-1.95,1.37A7,7,0,0,1,340.32,1216.88ZM340,1206.8a2.7,2.7,0,0,0-1.87.69,3.45,3.45,0,0,0-1.05,1.89h5.77a3.3,3.3,0,0,0-1-1.91A2.68,2.68,0,0,0,340,1206.8Z"/><path class="cls-3" d="M350.94,1207.78a.92.92,0,0,0,.24.6,2,2,0,0,0,.71.47,9.87,9.87,0,0,0,.94.35l1.16.35c.47.14.84.25,1.13.35a3.58,3.58,0,0,1,1.65,1.2,3.25,3.25,0,0,1,.62,2,3.3,3.3,0,0,1-1.33,2.69,5.77,5.77,0,0,1-3.64,1.06,6.25,6.25,0,0,1-5-2l1.7-1.95a4.51,4.51,0,0,0,3.5,1.53,2.18,2.18,0,0,0,1.32-.34,1.08,1.08,0,0,0,.46-.91,1,1,0,0,0-.48-.85,3.4,3.4,0,0,0-1.18-.55c-.48-.13-1-.3-1.55-.5a13.13,13.13,0,0,1-1.55-.66,3.06,3.06,0,0,1-1.19-1.1,3.16,3.16,0,0,1-.48-1.74,3.19,3.19,0,0,1,1.24-2.55,5.09,5.09,0,0,1,3.36-1q3.33,0,4.75,2l-1.72,1.8a3.68,3.68,0,0,0-2.95-1.33,2.11,2.11,0,0,0-1.23.32A.93.93,0,0,0,350.94,1207.78Z"/><path class="cls-3" d="M360.09,1221.43v-16.88h3.05v1.3a4.57,4.57,0,0,1,3.65-1.65,5.45,5.45,0,0,1,4.1,1.78,6.46,6.46,0,0,1,1.65,4.55,6.54,6.54,0,0,1-1.62,4.52,5.33,5.33,0,0,1-4.13,1.83,4.61,4.61,0,0,1-3.65-1.55v6.1Zm6.23-14.35a2.89,2.89,0,0,0-2.25,1,3.72,3.72,0,0,0,0,4.92,3.05,3.05,0,0,0,4.52,0,3.58,3.58,0,0,0,.9-2.45,3.55,3.55,0,0,0-.9-2.47A2.92,2.92,0,0,0,366.32,1207.08Z"/><path class="cls-3" d="M385.19,1215a6,6,0,0,1-4.42,1.85,5.91,5.91,0,0,1-4.4-1.85,6.09,6.09,0,0,1-1.83-4.48,6.18,6.18,0,0,1,1.83-4.5,5.91,5.91,0,0,1,4.4-1.85,6,6,0,0,1,4.42,1.85,6.18,6.18,0,0,1,1.83,4.5A6.09,6.09,0,0,1,385.19,1215Zm-4.4-1a2.88,2.88,0,0,0,2.25-1,3.78,3.78,0,0,0,0-4.9,3.05,3.05,0,0,0-4.52,0,3.69,3.69,0,0,0,0,4.9A2.9,2.9,0,0,0,380.79,1214Z"/><path class="cls-3" d="M392.84,1209.73v6.8h-3v-12h3v1.18a4,4,0,0,1,3.38-1.53,4.25,4.25,0,0,1,3.31,1.37,5.27,5.27,0,0,1,1.24,3.71v7.25h-3v-6.8a2.75,2.75,0,0,0-.66-1.94,2.6,2.6,0,0,0-3.57,0A2.79,2.79,0,0,0,392.84,1209.73Z"/><path class="cls-3" d="M406.59,1207.78a.92.92,0,0,0,.24.6,2,2,0,0,0,.71.47,9.87,9.87,0,0,0,.94.35l1.16.35c.47.14.84.25,1.13.35a3.58,3.58,0,0,1,1.65,1.2,3.47,3.47,0,0,1-.72,4.72,5.72,5.72,0,0,1-3.63,1.06,6.25,6.25,0,0,1-5-2l1.7-1.95a4.5,4.5,0,0,0,3.5,1.53,2.13,2.13,0,0,0,1.31-.34,1.07,1.07,0,0,0,.47-.91,1,1,0,0,0-.48-.85,3.37,3.37,0,0,0-1.19-.55c-.47-.13-1-.3-1.55-.5a14.73,14.73,0,0,1-1.55-.66,3.1,3.1,0,0,1-1.18-1.1,3.3,3.3,0,0,1,.76-4.29,5.05,5.05,0,0,1,3.36-1q3.33,0,4.75,2l-1.72,1.8a3.68,3.68,0,0,0-3-1.33,2.11,2.11,0,0,0-1.23.32A.93.93,0,0,0,406.59,1207.78Z"/><path class="cls-3" d="M421.37,1216.88a6.23,6.23,0,0,1-4.58-1.85,6.13,6.13,0,0,1-1.85-4.48,6.25,6.25,0,0,1,1.75-4.5,5.64,5.64,0,0,1,4.3-1.85,5.81,5.81,0,0,1,4.3,1.75,6,6,0,0,1,1.73,4.35,4.53,4.53,0,0,1-.08,1h-8.87a3.36,3.36,0,0,0,3.42,2.88,3.92,3.92,0,0,0,2.93-1.25L426,1215a4.88,4.88,0,0,1-1.95,1.37A7,7,0,0,1,421.37,1216.88ZM421,1206.8a2.7,2.7,0,0,0-1.87.69,3.45,3.45,0,0,0-1.05,1.89h5.77a3.25,3.25,0,0,0-1-1.91A2.64,2.64,0,0,0,421,1206.8Z"/><rect class="cls-4" x="92.53" y="1149.97" width="360.9" height="87.86" rx="5"/><path class="cls-3" d="M741.09,1172.6a8.23,8.23,0,0,1,11.72,0,8.12,8.12,0,0,1,2.43,5.93,8.34,8.34,0,0,1-4,7.17l3.75,2-1.45,2.48-5.8-3.38a5.78,5.78,0,0,1-.75,0,8.38,8.38,0,0,1-5.85-14.28Zm5.85,11.15a4.69,4.69,0,0,0,3.52-1.52,5.48,5.48,0,0,0,0-7.43,4.81,4.81,0,0,0-7,0,5.2,5.2,0,0,0-1.45,3.73,5.11,5.11,0,0,0,1.45,3.67A4.64,4.64,0,0,0,746.94,1183.75Z"/><path class="cls-3" d="M773.29,1186.53h-3.48l-1.37-3.6h-7l-1.4,3.6h-3.27l6.45-16h3.65Zm-10.83-6.38h4.9l-2.45-6.35Z"/><path class="cls-3" d="M785.66,1176l-1.75,2.18a3.94,3.94,0,0,0-2.82-1.1,3.21,3.21,0,0,0-2.42,1,3.45,3.45,0,0,0-.93,2.48,3.49,3.49,0,0,0,.93,2.49,3.18,3.18,0,0,0,2.39,1,4,4,0,0,0,3-1.17l1.55,2.25a5.2,5.2,0,0,1-2,1.31,6.91,6.91,0,0,1-2.6.49,6.37,6.37,0,0,1-4.48-10.83,6,6,0,0,1,4.43-1.85A6.22,6.22,0,0,1,785.66,1176Z"/><path class="cls-3" d="M788.71,1177.25h-2.1v-2.7h2.13v-2.35l3-.75v3.1H795v2.7h-3.23v5.08c0,1.11.46,1.67,1.38,1.67a1.77,1.77,0,0,0,1.4-.6l1.37,2.28a4.51,4.51,0,0,1-3.27,1.2,3.77,3.77,0,0,1-2.93-1.16,4.76,4.76,0,0,1-1-3.29Z"/><path class="cls-3" d="M799.66,1172.93a1.74,1.74,0,0,1-1.25-.51,1.72,1.72,0,0,1-.52-1.27,1.75,1.75,0,0,1,.52-1.26,1.69,1.69,0,0,1,1.25-.54,1.72,1.72,0,0,1,1.28.54,1.75,1.75,0,0,1,.52,1.26,1.72,1.72,0,0,1-.52,1.27A1.77,1.77,0,0,1,799.66,1172.93Zm-1.5,1.62h3.05v12h-3.05Z"/><path class="cls-3" d="M814.64,1185a6.07,6.07,0,0,1-4.43,1.85,5.92,5.92,0,0,1-4.4-1.85,6.08,6.08,0,0,1-1.82-4.48,6.17,6.17,0,0,1,1.82-4.5,5.92,5.92,0,0,1,4.4-1.85,6.07,6.07,0,0,1,4.43,1.85,6.21,6.21,0,0,1,1.82,4.5A6.12,6.12,0,0,1,814.64,1185Zm-4.4-1a2.88,2.88,0,0,0,2.25-1,3.78,3.78,0,0,0,0-4.9,2.89,2.89,0,0,0-2.25-1,2.92,2.92,0,0,0-2.28,1,3.72,3.72,0,0,0,0,4.9A2.91,2.91,0,0,0,810.24,1184Z"/><path class="cls-3" d="M822.29,1179.73v6.8h-3v-12h3v1.18a4,4,0,0,1,3.37-1.53,4.25,4.25,0,0,1,3.31,1.37,5.27,5.27,0,0,1,1.24,3.71v7.25h-3.05v-6.8a2.75,2.75,0,0,0-.66-1.94,2.59,2.59,0,0,0-3.56,0A2.74,2.74,0,0,0,822.29,1179.73Z"/><path class="cls-3" d="M845.64,1170.5v16h-3v-12.4L840,1176.6l-1.83-2,4.3-4.08Z"/><path class="cls-3" d="M855.21,1170.43a5.81,5.81,0,0,1,4.25,1.65,5.47,5.47,0,0,1,1.7,4.07,6.37,6.37,0,0,1-.53,2.55,20.42,20.42,0,0,1-2,3.48l-3.22,4.62h-3.5l3.62-5.32-.29,0a5.81,5.81,0,0,1-4.23-1.57,5,5,0,0,1-1.65-3.78,5.55,5.55,0,0,1,1.67-4.1A5.85,5.85,0,0,1,855.21,1170.43Zm0,8.57a2.8,2.8,0,0,0,2-.82,2.86,2.86,0,0,0,0-4,2.81,2.81,0,0,0-2-.83,2.74,2.74,0,0,0-2,.83,2.91,2.91,0,0,0,0,4A2.73,2.73,0,0,0,855.23,1179Z"/><path class="cls-3" d="M869.26,1170.43a5.81,5.81,0,0,1,4.25,1.65,5.47,5.47,0,0,1,1.7,4.07,6.36,6.36,0,0,1-.52,2.55,21.87,21.87,0,0,1-2.05,3.48l-3.23,4.62h-3.5l3.63-5.32-.3,0a5.81,5.81,0,0,1-4.23-1.57,5,5,0,0,1-1.65-3.78,5.52,5.52,0,0,1,1.68-4.1A5.81,5.81,0,0,1,869.26,1170.43Zm0,8.57a2.78,2.78,0,0,0,2-.82,2.86,2.86,0,0,0,0-4,2.78,2.78,0,0,0-2-.83,2.8,2.8,0,0,0-2.85,2.85,2.79,2.79,0,0,0,.81,2A2.74,2.74,0,0,0,869.29,1179Z"/><path class="cls-3" d="M883.31,1170.43a5.81,5.81,0,0,1,4.25,1.65,5.47,5.47,0,0,1,1.7,4.07,6.2,6.2,0,0,1-.53,2.55,20.93,20.93,0,0,1-2,3.48l-3.23,4.62H880l3.63-5.32-.3,0a5.81,5.81,0,0,1-4.23-1.57,5,5,0,0,1-1.65-3.78,5.52,5.52,0,0,1,1.68-4.1A5.81,5.81,0,0,1,883.31,1170.43Zm0,8.57a2.78,2.78,0,0,0,2-.82,2.86,2.86,0,0,0,0-4,2.78,2.78,0,0,0-2-.83,2.74,2.74,0,0,0-2,.83,2.91,2.91,0,0,0,0,4A2.74,2.74,0,0,0,883.34,1179Z"/><path class="cls-3" d="M727,1202.35l-2.07,2.38a5.67,5.67,0,0,0-3.83-1.45,4.59,4.59,0,0,0-3.47,1.52,5.44,5.44,0,0,0,0,7.43,4.82,4.82,0,0,0,3.64,1.52,4.77,4.77,0,0,0,3.63-1.45l2.07,2.3a7.64,7.64,0,0,1-5.92,2.28,7.83,7.83,0,0,1-5.85-2.45,8.2,8.2,0,0,1-2.38-5.9,8.06,8.06,0,0,1,2.43-5.93,7.83,7.83,0,0,1,5.8-2.45A8,8,0,0,1,727,1202.35Z"/><path class="cls-3" d="M739.23,1215a6.07,6.07,0,0,1-4.43,1.85,5.92,5.92,0,0,1-4.4-1.85,6.09,6.09,0,0,1-1.83-4.48,6.18,6.18,0,0,1,1.83-4.5,5.92,5.92,0,0,1,4.4-1.85,6.07,6.07,0,0,1,4.43,1.85,6.21,6.21,0,0,1,1.82,4.5A6.12,6.12,0,0,1,739.23,1215Zm-4.41-1a2.85,2.85,0,0,0,2.25-1,3.75,3.75,0,0,0,0-4.9,2.86,2.86,0,0,0-2.25-1,2.92,2.92,0,0,0-2.27,1,3.69,3.69,0,0,0,0,4.9A2.9,2.9,0,0,0,734.82,1214Z"/><path class="cls-3" d="M746.87,1209.73v6.8h-3v-12h3v1.18a4,4,0,0,1,3.38-1.53,4.25,4.25,0,0,1,3.31,1.37,5.27,5.27,0,0,1,1.24,3.71v7.25h-3v-6.8a2.75,2.75,0,0,0-.66-1.94,2.31,2.31,0,0,0-1.77-.71,2.35,2.35,0,0,0-1.8.71A2.79,2.79,0,0,0,746.87,1209.73Z"/><path class="cls-3" d="M768.45,1206l-1.75,2.18a4,4,0,0,0-2.83-1.1,3.2,3.2,0,0,0-2.41,1,3.46,3.46,0,0,0-.94,2.48,3.5,3.5,0,0,0,.94,2.49,3.18,3.18,0,0,0,2.39,1,4,4,0,0,0,2.95-1.17l1.55,2.25a5.16,5.16,0,0,1-2,1.31,6.83,6.83,0,0,1-2.6.49,6.28,6.28,0,0,1-6.3-6.33,6.18,6.18,0,0,1,1.83-4.5,5.93,5.93,0,0,1,4.42-1.85A6.25,6.25,0,0,1,768.45,1206Z"/><path class="cls-3" d="M770.22,1204.55h3V1211a3.14,3.14,0,0,0,.7,2.11,2.34,2.34,0,0,0,1.85.81,2.31,2.31,0,0,0,1.85-.81,3.09,3.09,0,0,0,.7-2.11v-6.48h3v6.7a5.44,5.44,0,0,1-1.52,4,5.62,5.62,0,0,1-9.68-4Z"/><path class="cls-3" d="M787.65,1209.83v6.7h-3v-12h3v1.3a3.4,3.4,0,0,1,2.92-1.65,3,3,0,0,1,1.93.6l-1.28,2.9a2.2,2.2,0,0,0-1.57-.52,1.74,1.74,0,0,0-1.45.7A3,3,0,0,0,787.65,1209.83Z"/><path class="cls-3" d="M797.8,1209.83v6.7h-3v-12h3v1.3a3.4,3.4,0,0,1,2.92-1.65,3,3,0,0,1,1.93.6l-1.28,2.9a2.2,2.2,0,0,0-1.57-.52,1.74,1.74,0,0,0-1.45.7A3,3,0,0,0,797.8,1209.83Z"/><path class="cls-3" d="M810.52,1216.88A6.22,6.22,0,0,1,806,1215a6.09,6.09,0,0,1-1.85-4.48,6.25,6.25,0,0,1,1.75-4.5,5.64,5.64,0,0,1,4.3-1.85,5.83,5.83,0,0,1,4.3,1.75,6,6,0,0,1,1.72,4.35,4.69,4.69,0,0,1-.07,1h-8.88a3.38,3.38,0,0,0,3.43,2.88,3.9,3.9,0,0,0,2.92-1.25l1.58,2.07a5,5,0,0,1-1.95,1.37A7.06,7.06,0,0,1,810.52,1216.88Zm-.32-10.08a2.73,2.73,0,0,0-1.88.69,3.58,3.58,0,0,0-1.05,1.89h5.78a3.37,3.37,0,0,0-1-1.91A2.64,2.64,0,0,0,810.2,1206.8Z"/><path class="cls-3" d="M821.85,1209.73v6.8H818.8v-12h3.05v1.18a4,4,0,0,1,3.37-1.53,4.27,4.27,0,0,1,3.32,1.37,5.31,5.31,0,0,1,1.23,3.71v7.25h-3v-6.8a2.75,2.75,0,0,0-.66-1.94,2.59,2.59,0,0,0-3.56,0A2.74,2.74,0,0,0,821.85,1209.73Z"/><path class="cls-3" d="M834.1,1207.25H832v-2.7h2.12v-2.35l3-.75v3.1h3.25v2.7H837.2v5.08c0,1.11.46,1.67,1.37,1.67a1.76,1.76,0,0,0,1.4-.6l1.38,2.28a4.55,4.55,0,0,1-3.28,1.2,3.74,3.74,0,0,1-2.92-1.16,4.76,4.76,0,0,1-1-3.29Z"/><path class="cls-3" d="M845.27,1202.6a8.25,8.25,0,0,1,11.73,0,8.15,8.15,0,0,1,2.42,5.93,8.28,8.28,0,0,1-4,7.17l3.75,2-1.45,2.48-5.8-3.38a5.56,5.56,0,0,1-.75,0,8.39,8.39,0,0,1-5.85-14.28Zm5.85,11.15a4.71,4.71,0,0,0,3.53-1.52,5.48,5.48,0,0,0,0-7.43,4.82,4.82,0,0,0-7,0,5.24,5.24,0,0,0-1.45,3.73,5.15,5.15,0,0,0,1.45,3.67A4.66,4.66,0,0,0,851.12,1213.75Z"/><path class="cls-3" d="M861.9,1204.55H865V1211a3.09,3.09,0,0,0,.7,2.11,2.31,2.31,0,0,0,1.85.81,2.34,2.34,0,0,0,1.85-.81,3.14,3.14,0,0,0,.7-2.11v-6.48h3.05v6.7a5.6,5.6,0,1,1-11.2,0Z"/><path class="cls-3" d="M881.9,1216.88a6.24,6.24,0,0,1-4.58-1.85,6.13,6.13,0,0,1-1.85-4.48,6.29,6.29,0,0,1,1.75-4.5,5.66,5.66,0,0,1,4.3-1.85,5.81,5.81,0,0,1,4.3,1.75,6,6,0,0,1,1.73,4.35,4.53,4.53,0,0,1-.08,1H878.6a3.36,3.36,0,0,0,3.42,2.88,3.92,3.92,0,0,0,2.93-1.25l1.57,2.07a4.81,4.81,0,0,1-1.95,1.37A7,7,0,0,1,881.9,1216.88Zm-.33-10.08a2.7,2.7,0,0,0-1.87.69,3.45,3.45,0,0,0-1.05,1.89h5.77a3.3,3.3,0,0,0-1-1.91A2.68,2.68,0,0,0,881.57,1206.8Z"/><path class="cls-3" d="M889.75,1204.55h3V1211a3.09,3.09,0,0,0,.7,2.11,2.31,2.31,0,0,0,1.85.81,2.34,2.34,0,0,0,1.85-.81,3.14,3.14,0,0,0,.7-2.11v-6.48H901v6.7a5.6,5.6,0,1,1-11.2,0Z"/><path class="cls-3" d="M909.75,1216.88a6.24,6.24,0,0,1-4.58-1.85,6.13,6.13,0,0,1-1.85-4.48,6.29,6.29,0,0,1,1.75-4.5,5.66,5.66,0,0,1,4.3-1.85,5.81,5.81,0,0,1,4.3,1.75,6,6,0,0,1,1.73,4.35,4.53,4.53,0,0,1-.08,1h-8.87a3.36,3.36,0,0,0,3.42,2.88,3.92,3.92,0,0,0,2.93-1.25l1.57,2.07a4.81,4.81,0,0,1-2,1.37A7,7,0,0,1,909.75,1216.88Zm-.33-10.08a2.7,2.7,0,0,0-1.87.69,3.45,3.45,0,0,0-1,1.89h5.77a3.3,3.3,0,0,0-1-1.91A2.68,2.68,0,0,0,909.42,1206.8Z"/><rect class="cls-4" x="633.55" y="1149.97" width="360.9" height="87.86" rx="5"/><path class="cls-3" d="M147.35,1436.07l-2.08,2.37a5.71,5.71,0,0,0-3.82-1.45,4.57,4.57,0,0,0-3.48,1.53,5.43,5.43,0,0,0,0,7.42,5.18,5.18,0,0,0,7.27.08l2.08,2.3a7.69,7.69,0,0,1-5.93,2.27,7.79,7.79,0,0,1-5.85-2.45,8.18,8.18,0,0,1-2.37-5.9,8,8,0,0,1,2.42-5.92,7.79,7.79,0,0,1,5.8-2.45A8,8,0,0,1,147.35,1436.07Z"/><path class="cls-3" d="M152.75,1443.44v6.8H149.7v-16.45l3.05-.75v6.4a4,4,0,0,1,3.37-1.52,4.24,4.24,0,0,1,3.31,1.36,5.3,5.3,0,0,1,1.24,3.71v7.25h-3v-6.8a2.77,2.77,0,0,0-.66-1.94,2.59,2.59,0,0,0-3.56,0A2.76,2.76,0,0,0,152.75,1443.44Z"/><path class="cls-3" d="M169.77,1450.59a6.21,6.21,0,0,1-4.58-1.85,6.08,6.08,0,0,1-1.84-4.47,6.22,6.22,0,0,1,1.75-4.5,5.61,5.61,0,0,1,4.3-1.85,5.75,5.75,0,0,1,4.29,1.75,6,6,0,0,1,1.73,4.35,4.76,4.76,0,0,1-.07,1h-8.88a3.36,3.36,0,0,0,3.43,2.87,3.87,3.87,0,0,0,2.92-1.25l1.58,2.08a4.9,4.9,0,0,1-2,1.36A7,7,0,0,1,169.77,1450.59Zm-.33-10.07a2.76,2.76,0,0,0-1.87.68,3.45,3.45,0,0,0-1,1.89h5.78a3.4,3.4,0,0,0-1-1.91A2.7,2.7,0,0,0,169.44,1440.52Z"/><path class="cls-3" d="M188.22,1439.72l-1.75,2.17a4,4,0,0,0-2.82-1.1,3.22,3.22,0,0,0-2.42,1,3.43,3.43,0,0,0-.93,2.47,3.49,3.49,0,0,0,.93,2.49,3.15,3.15,0,0,0,2.39,1,4,4,0,0,0,2.95-1.18l1.55,2.25a5.2,5.2,0,0,1-2,1.31,6.91,6.91,0,0,1-2.6.49,6.27,6.27,0,0,1-6.3-6.32,6.14,6.14,0,0,1,1.82-4.5,5.92,5.92,0,0,1,4.43-1.85A6.22,6.22,0,0,1,188.22,1439.72Z"/><path class="cls-3" d="M193.47,1450.24h-3.05v-16.45l3.05-.75v9.55l3.08-4.32h3.72l-4.07,5.55,4.42,6.42H196.8l-3.28-4.87h-.05Z"/><path class="cls-3" d="M203.87,1441h-2.1v-2.7h2.13v-2.35l3-.75v3.1h3.25v2.7H207V1446q0,1.68,1.38,1.68a1.77,1.77,0,0,0,1.4-.6l1.37,2.27a4.53,4.53,0,0,1-3.27,1.2,3.77,3.77,0,0,1-2.93-1.16,4.74,4.74,0,0,1-1-3.29Z"/><path class="cls-3" d="M216.37,1443.54v6.7h-3.05v-12h3.05v1.3a3.41,3.41,0,0,1,2.93-1.65,3,3,0,0,1,1.92.6l-1.28,2.9a2.2,2.2,0,0,0-1.57-.53,1.76,1.76,0,0,0-1.45.7A3.08,3.08,0,0,0,216.37,1443.54Z"/><path class="cls-3" d="M225,1436.64a1.74,1.74,0,0,1-1.25-.51,1.69,1.69,0,0,1-.53-1.26,1.76,1.76,0,0,1,.53-1.27,1.76,1.76,0,0,1,2.52,0,1.76,1.76,0,0,1,.53,1.27,1.69,1.69,0,0,1-.53,1.26A1.75,1.75,0,0,1,225,1436.64Zm-1.5,1.63h3.05v12h-3.05Z"/><path class="cls-3" d="M230.17,1453.89l1.55-2.37a5.8,5.8,0,0,0,3.5,1.17,3.4,3.4,0,0,0,2.44-.82,3.09,3.09,0,0,0,.86-2.33v-1a4.71,4.71,0,0,1-3.65,1.58,5.22,5.22,0,0,1-4-1.73,6,6,0,0,1-1.63-4.35,6.11,6.11,0,0,1,1.63-4.3,5.27,5.27,0,0,1,4-1.7,4.67,4.67,0,0,1,3.65,1.45v-1.17h3.07v11.15a7.46,7.46,0,0,1-.37,2.45,5.18,5.18,0,0,1-1,1.73,5,5,0,0,1-1.42,1.1,6.05,6.05,0,0,1-1.67.62,9.35,9.35,0,0,1-1.78.17A7.67,7.67,0,0,1,230.17,1453.89Zm3.07-7.62a3.09,3.09,0,0,0,4.4,0,3.38,3.38,0,0,0,0-4.55,3.07,3.07,0,0,0-4.4,0,3.11,3.11,0,0,0-.9,2.27A3.15,3.15,0,0,0,233.24,1446.27Z"/><path class="cls-3" d="M245.24,1453.89l1.55-2.37a5.82,5.82,0,0,0,3.5,1.17,3.38,3.38,0,0,0,2.44-.82,3.06,3.06,0,0,0,.86-2.33v-1a4.68,4.68,0,0,1-3.65,1.58,5.25,5.25,0,0,1-3.95-1.73,6,6,0,0,1-1.62-4.35,6.1,6.1,0,0,1,1.62-4.3,5.3,5.3,0,0,1,3.95-1.7,4.66,4.66,0,0,1,3.65,1.45v-1.17h3.08v11.15a7.46,7.46,0,0,1-.38,2.45,5.18,5.18,0,0,1-1,1.73,4.79,4.79,0,0,1-1.41,1.1,6.11,6.11,0,0,1-1.68.62,9.16,9.16,0,0,1-1.77.17A7.68,7.68,0,0,1,245.24,1453.89Zm3.08-7.62a3.09,3.09,0,0,0,4.4,0,3.41,3.41,0,0,0,0-4.55,3.07,3.07,0,0,0-4.4,0,3.11,3.11,0,0,0-.9,2.27A3.15,3.15,0,0,0,248.32,1446.27Z"/><path class="cls-3" d="M265.87,1450.59a6.21,6.21,0,0,1-4.58-1.85,6.09,6.09,0,0,1-1.85-4.47,6.26,6.26,0,0,1,1.75-4.5,5.64,5.64,0,0,1,4.3-1.85,5.76,5.76,0,0,1,4.3,1.75,6,6,0,0,1,1.73,4.35,4.59,4.59,0,0,1-.08,1h-8.87a3.36,3.36,0,0,0,3.42,2.87,3.87,3.87,0,0,0,2.93-1.25l1.57,2.08a4.79,4.79,0,0,1-1.95,1.36A7,7,0,0,1,265.87,1450.59Zm-.33-10.07a2.76,2.76,0,0,0-1.87.68,3.45,3.45,0,0,0-1.05,1.89h5.78a3.4,3.4,0,0,0-1-1.91A2.7,2.7,0,0,0,265.54,1440.52Z"/><path class="cls-3" d="M277.19,1443.54v6.7h-3.05v-12h3.05v1.3a3.41,3.41,0,0,1,2.93-1.65,3,3,0,0,1,1.92.6l-1.27,2.9a2.23,2.23,0,0,0-1.58-.53,1.78,1.78,0,0,0-1.45.7A3.14,3.14,0,0,0,277.19,1443.54Z"/><path class="cls-3" d="M286.77,1441.62a2,2,0,0,1-1.43.57,1.95,1.95,0,0,1-2-2,2,2,0,0,1,.57-1.43,1.92,1.92,0,0,1,1.4-.57,1.95,1.95,0,0,1,2,2A1.92,1.92,0,0,1,286.77,1441.62Zm0,8.35a2,2,0,0,1-1.43.57,1.95,1.95,0,0,1-2-2,2,2,0,0,1,.57-1.43,1.92,1.92,0,0,1,1.4-.57,1.95,1.95,0,0,1,2,2A1.92,1.92,0,0,1,286.77,1450Z"/><path class="cls-3" d="M298.64,1450.24h-3.12v-16h3.12v6.6h0l4.52-6.6h3.53l-5.4,7.87,5.77,8.15h-3.8l-4.5-6.5h-.15Z"/><path class="cls-3" d="M314.94,1450.59a6.18,6.18,0,0,1-4.57-1.85,6.09,6.09,0,0,1-1.85-4.47,6.22,6.22,0,0,1,1.75-4.5,5.61,5.61,0,0,1,4.3-1.85,5.77,5.77,0,0,1,4.3,1.75,6,6,0,0,1,1.72,4.35,4.76,4.76,0,0,1-.07,1h-8.88a3.38,3.38,0,0,0,3.43,2.87,3.87,3.87,0,0,0,2.92-1.25l1.58,2.08a4.93,4.93,0,0,1-1.95,1.36A7,7,0,0,1,314.94,1450.59Zm-.32-10.07a2.79,2.79,0,0,0-1.88.68,3.58,3.58,0,0,0-1.05,1.89h5.78a3.4,3.4,0,0,0-1-1.91A2.68,2.68,0,0,0,314.62,1440.52Z"/><path class="cls-3" d="M328.84,1450.59a6.18,6.18,0,0,1-4.57-1.85,6.05,6.05,0,0,1-1.85-4.47,6.22,6.22,0,0,1,1.75-4.5,5.61,5.61,0,0,1,4.3-1.85,5.77,5.77,0,0,1,4.3,1.75,6,6,0,0,1,1.72,4.35,4.76,4.76,0,0,1-.07,1h-8.88a3.38,3.38,0,0,0,3.43,2.87,3.87,3.87,0,0,0,2.92-1.25l1.58,2.08a4.93,4.93,0,0,1-2,1.36A7,7,0,0,1,328.84,1450.59Zm-.32-10.07a2.77,2.77,0,0,0-1.88.68,3.58,3.58,0,0,0-1.05,1.89h5.78a3.4,3.4,0,0,0-1-1.91A2.68,2.68,0,0,0,328.52,1440.52Z"/><path class="cls-3" d="M337.12,1455.14v-16.87h3.05v1.3a4.55,4.55,0,0,1,3.65-1.65,5.47,5.47,0,0,1,4.1,1.77,6.48,6.48,0,0,1,1.65,4.55,6.55,6.55,0,0,1-1.63,4.53,5.34,5.34,0,0,1-4.12,1.82,4.61,4.61,0,0,1-3.65-1.55v6.1Zm6.22-14.35a2.92,2.92,0,0,0-2.25,1,3.76,3.76,0,0,0,0,4.93,2.92,2.92,0,0,0,2.25,1,3,3,0,0,0,2.28-1,3.83,3.83,0,0,0,0-4.93A3,3,0,0,0,343.34,1440.79Z"/><path class="cls-3" d="M372.89,1450.24h-3.47l-1.38-3.6h-7l-1.4,3.6h-3.28l6.45-16h3.65Zm-10.82-6.37H367l-2.45-6.35Z"/><path class="cls-3" d="M378.14,1450.24h-3.05v-16.45l3.05-.75Z"/><path class="cls-3" d="M383.22,1436.64a1.72,1.72,0,0,1-1.25-.51,1.69,1.69,0,0,1-.53-1.26,1.76,1.76,0,0,1,.53-1.27,1.7,1.7,0,0,1,1.25-.53,1.73,1.73,0,0,1,1.27.53,1.76,1.76,0,0,1,.53,1.27,1.69,1.69,0,0,1-.53,1.26A1.75,1.75,0,0,1,383.22,1436.64Zm-1.5,1.63h3v12h-3Z"/><path class="cls-3" d="M393.34,1447.52l3.1-9.25h3.13l-4.33,12h-3.95l-4.35-12h3.35Z"/><path class="cls-3" d="M407.39,1450.59a6.18,6.18,0,0,1-4.57-1.85,6.05,6.05,0,0,1-1.85-4.47,6.22,6.22,0,0,1,1.75-4.5,5.61,5.61,0,0,1,4.3-1.85,5.79,5.79,0,0,1,4.3,1.75A6,6,0,0,1,413,1444a4.76,4.76,0,0,1-.07,1h-8.88a3.36,3.36,0,0,0,3.43,2.87,3.87,3.87,0,0,0,2.92-1.25l1.58,2.08a4.93,4.93,0,0,1-1.95,1.36A7.06,7.06,0,0,1,407.39,1450.59Zm-.32-10.07a2.77,2.77,0,0,0-1.88.68,3.58,3.58,0,0,0-1.05,1.89h5.78a3.4,3.4,0,0,0-1-1.91A2.68,2.68,0,0,0,407.07,1440.52Z"/><path class="cls-3" d="M160.13,1466.32a8.25,8.25,0,0,1,11.73,0,8.09,8.09,0,0,1,2.42,5.92,8.29,8.29,0,1,1-14.15-5.92Zm5.85,11.15a4.68,4.68,0,0,0,3.53-1.53,5.47,5.47,0,0,0,0-7.42,4.8,4.8,0,0,0-7,0,5.45,5.45,0,0,0,0,7.4A4.69,4.69,0,0,0,166,1477.47Z"/><path class="cls-3" d="M180.23,1473.54v6.7h-3v-12h3v1.3a3.41,3.41,0,0,1,2.93-1.65,3,3,0,0,1,1.92.6l-1.27,2.9a2.23,2.23,0,0,0-1.58-.53,1.78,1.78,0,0,0-1.45.7A3.14,3.14,0,0,0,180.23,1473.54Z"/><path class="cls-3" d="M200.78,1466.07l-2.07,2.37a5.72,5.72,0,0,0-3.83-1.45,4.57,4.57,0,0,0-3.47,1.53,5.44,5.44,0,0,0,0,7.42,5.19,5.19,0,0,0,7.28.08l2.07,2.3a7.67,7.67,0,0,1-5.92,2.27,7.79,7.79,0,0,1-5.85-2.45,8.18,8.18,0,0,1-2.38-5.9,8,8,0,0,1,2.43-5.92,7.79,7.79,0,0,1,5.8-2.45A8,8,0,0,1,200.78,1466.07Z"/><path class="cls-3" d="M206.18,1473.44v6.8h-3.05v-16.45l3.05-.75v6.4a4,4,0,0,1,3.38-1.52,4.24,4.24,0,0,1,3.31,1.36,5.3,5.3,0,0,1,1.24,3.71v7.25h-3.05v-6.8a2.77,2.77,0,0,0-.66-1.94,2.6,2.6,0,0,0-3.57,0A2.81,2.81,0,0,0,206.18,1473.44Z"/><path class="cls-3" d="M223.21,1480.59a6.21,6.21,0,0,1-4.58-1.85,6.09,6.09,0,0,1-1.85-4.47,6.26,6.26,0,0,1,1.75-4.5,5.62,5.62,0,0,1,4.3-1.85,5.77,5.77,0,0,1,4.3,1.75,6,6,0,0,1,1.73,4.35,4.59,4.59,0,0,1-.08,1h-8.87a3.36,3.36,0,0,0,3.42,2.87,3.89,3.89,0,0,0,2.93-1.25l1.57,2.08a4.79,4.79,0,0,1-2,1.36A7,7,0,0,1,223.21,1480.59Zm-.33-10.07a2.74,2.74,0,0,0-1.87.68,3.45,3.45,0,0,0-1,1.89h5.77a3.33,3.33,0,0,0-1-1.91A2.72,2.72,0,0,0,222.88,1470.52Z"/><path class="cls-3" d="M241.66,1469.72l-1.75,2.17a4,4,0,0,0-2.83-1.1,3.21,3.21,0,0,0-2.41,1,3.44,3.44,0,0,0-.94,2.47,3.5,3.5,0,0,0,.94,2.49,3.15,3.15,0,0,0,2.39,1,4,4,0,0,0,2.95-1.18l1.55,2.25a5.16,5.16,0,0,1-2,1.31,6.83,6.83,0,0,1-2.6.49,6.28,6.28,0,0,1-6.3-6.32,6.15,6.15,0,0,1,1.83-4.5,5.9,5.9,0,0,1,4.42-1.85A6.25,6.25,0,0,1,241.66,1469.72Z"/><path class="cls-3" d="M246.91,1480.24h-3v-16.45l3-.75v9.55l3.07-4.32h3.73l-4.08,5.55,4.43,6.42h-3.83l-3.27-4.87h-.05Z"/><path class="cls-3" d="M257.31,1471h-2.1v-2.7h2.12v-2.35l3.05-.75v3.1h3.25v2.7h-3.22V1476c0,1.12.46,1.68,1.37,1.68a1.76,1.76,0,0,0,1.4-.6l1.38,2.27a4.55,4.55,0,0,1-3.28,1.2,3.74,3.74,0,0,1-2.92-1.16,4.74,4.74,0,0,1-1.05-3.29Z"/><path class="cls-3" d="M269.81,1473.54v6.7h-3.05v-12h3.05v1.3a3.4,3.4,0,0,1,2.92-1.65,3,3,0,0,1,1.93.6l-1.28,2.9a2.2,2.2,0,0,0-1.57-.53,1.75,1.75,0,0,0-1.45.7A3.08,3.08,0,0,0,269.81,1473.54Z"/><path class="cls-3" d="M278.41,1466.64a1.72,1.72,0,0,1-1.25-.51,1.69,1.69,0,0,1-.53-1.26,1.76,1.76,0,0,1,.53-1.27,1.7,1.7,0,0,1,1.25-.53,1.73,1.73,0,0,1,1.27.53,1.76,1.76,0,0,1,.53,1.27,1.69,1.69,0,0,1-.53,1.26A1.75,1.75,0,0,1,278.41,1466.64Zm-1.5,1.63h3v12h-3Z"/><path class="cls-3" d="M283.61,1483.89l1.55-2.37a5.78,5.78,0,0,0,3.5,1.17,3.36,3.36,0,0,0,2.43-.82,3.06,3.06,0,0,0,.87-2.33v-1a4.71,4.71,0,0,1-3.65,1.58,5.22,5.22,0,0,1-3.95-1.73,6,6,0,0,1-1.63-4.35,6.06,6.06,0,0,1,1.63-4.3,5.27,5.27,0,0,1,3.95-1.7,4.69,4.69,0,0,1,3.65,1.45v-1.17H295v11.15a7.46,7.46,0,0,1-.37,2.45,5,5,0,0,1-1,1.73,4.79,4.79,0,0,1-1.41,1.1,6.17,6.17,0,0,1-1.67.62,9.35,9.35,0,0,1-1.78.17A7.64,7.64,0,0,1,283.61,1483.89Zm3.07-7.62a3.09,3.09,0,0,0,4.4,0,3.38,3.38,0,0,0,0-4.55,3.07,3.07,0,0,0-4.4,0,3.11,3.11,0,0,0-.9,2.27A3.15,3.15,0,0,0,286.68,1476.27Z"/><path class="cls-3" d="M298.68,1483.89l1.55-2.37a5.82,5.82,0,0,0,3.5,1.17,3.4,3.4,0,0,0,2.44-.82,3.09,3.09,0,0,0,.86-2.33v-1a4.7,4.7,0,0,1-3.65,1.58,5.24,5.24,0,0,1-3.95-1.73,6,6,0,0,1-1.62-4.35,6.1,6.1,0,0,1,1.62-4.3,5.28,5.28,0,0,1,3.95-1.7,4.66,4.66,0,0,1,3.65,1.45v-1.17h3.08v11.15a7.46,7.46,0,0,1-.38,2.45,5.18,5.18,0,0,1-1,1.73,4.79,4.79,0,0,1-1.41,1.1,6.11,6.11,0,0,1-1.68.62,9.24,9.24,0,0,1-1.77.17A7.68,7.68,0,0,1,298.68,1483.89Zm3.08-7.62a3.09,3.09,0,0,0,4.4,0,3.41,3.41,0,0,0,0-4.55,3.07,3.07,0,0,0-4.4,0,3.11,3.11,0,0,0-.9,2.27A3.15,3.15,0,0,0,301.76,1476.27Z"/><path class="cls-3" d="M319.31,1480.59a6.21,6.21,0,0,1-4.58-1.85,6.09,6.09,0,0,1-1.85-4.47,6.26,6.26,0,0,1,1.75-4.5,5.62,5.62,0,0,1,4.3-1.85,5.77,5.77,0,0,1,4.3,1.75A6,6,0,0,1,325,1474a4.59,4.59,0,0,1-.08,1H316a3.36,3.36,0,0,0,3.42,2.87,3.89,3.89,0,0,0,2.93-1.25l1.57,2.08a4.79,4.79,0,0,1-1.95,1.36A7,7,0,0,1,319.31,1480.59Zm-.33-10.07a2.74,2.74,0,0,0-1.87.68,3.45,3.45,0,0,0-1.05,1.89h5.77a3.33,3.33,0,0,0-1-1.91A2.72,2.72,0,0,0,319,1470.52Z"/><path class="cls-3" d="M330.63,1473.54v6.7h-3.05v-12h3.05v1.3a3.41,3.41,0,0,1,2.93-1.65,3,3,0,0,1,1.92.6l-1.27,2.9a2.23,2.23,0,0,0-1.58-.53,1.78,1.78,0,0,0-1.45.7A3.08,3.08,0,0,0,330.63,1473.54Z"/><path class="cls-3" d="M340.21,1471.62a2,2,0,0,1-1.43.57,1.95,1.95,0,0,1-2-2,2,2,0,0,1,.57-1.43,1.92,1.92,0,0,1,1.4-.57,1.95,1.95,0,0,1,2,2A1.92,1.92,0,0,1,340.21,1471.62Zm0,8.35a2,2,0,0,1-1.43.57,1.95,1.95,0,0,1-2-2,2,2,0,0,1,.57-1.43,1.92,1.92,0,0,1,1.4-.57,1.95,1.95,0,0,1,2,2A1.92,1.92,0,0,1,340.21,1480Z"/><path class="cls-3" d="M364,1480.24h-3.47l-1.38-3.6h-7l-1.4,3.6h-3.28l6.45-16h3.65Zm-10.82-6.37h4.9l-2.45-6.35Z"/><path class="cls-3" d="M376.36,1469.72l-1.75,2.17a4,4,0,0,0-2.83-1.1,3.19,3.19,0,0,0-2.41,1,3.4,3.4,0,0,0-.94,2.47,3.46,3.46,0,0,0,.94,2.49,3.14,3.14,0,0,0,2.39,1,4,4,0,0,0,2.95-1.18l1.55,2.25a5.16,5.16,0,0,1-2,1.31,6.87,6.87,0,0,1-2.6.49,6.28,6.28,0,0,1-6.3-6.32,6.15,6.15,0,0,1,1.83-4.5,5.9,5.9,0,0,1,4.42-1.85A6.25,6.25,0,0,1,376.36,1469.72Z"/><path class="cls-3" d="M381.61,1480.24h-3.05v-16.45l3.05-.75v9.55l3.07-4.32h3.73l-4.08,5.55,4.43,6.42h-3.83l-3.27-4.87h-.05Z"/><rect class="cls-4" x="92.53" y="1413.68" width="360.9" height="87.86" rx="5"/><path class="cls-3" d="M209.94,937.81h-3.12v-16h5.7a7.05,7.05,0,0,1,4.67,1.45,5.11,5.11,0,0,1,0,7.72,7.12,7.12,0,0,1-4.7,1.45h-2.53Zm2.83-13.27h-2.83v5.12h2.83a3,3,0,0,0,2.09-.71,2.57,2.57,0,0,0,0-3.71A3,3,0,0,0,212.77,924.54Z"/><path class="cls-3" d="M233.27,937.81h-3.08v-1.3a4.55,4.55,0,0,1-3.65,1.65,5.31,5.31,0,0,1-4.07-1.8,6.24,6.24,0,0,1-1.68-4.52,6.53,6.53,0,0,1,1.65-4.55,5.25,5.25,0,0,1,4.1-1.8,4.59,4.59,0,0,1,3.65,1.55v-1.2h3.08ZM227,935.29a2.85,2.85,0,0,0,2.25-1,3.78,3.78,0,0,0,0-4.9,3.05,3.05,0,0,0-4.52,0,3.69,3.69,0,0,0,0,4.9A2.88,2.88,0,0,0,227,935.29Z"/><path class="cls-3" d="M239.89,931.11v6.7h-3v-12h3v1.3a3.41,3.41,0,0,1,2.93-1.65,3,3,0,0,1,1.92.6l-1.27,2.9a2.23,2.23,0,0,0-1.58-.53,1.78,1.78,0,0,0-1.45.7A3.14,3.14,0,0,0,239.89,931.11Z"/><path class="cls-3" d="M258.67,937.81h-3.08v-1.3a4.55,4.55,0,0,1-3.65,1.65,5.31,5.31,0,0,1-4.07-1.8,6.24,6.24,0,0,1-1.68-4.52,6.53,6.53,0,0,1,1.65-4.55,5.25,5.25,0,0,1,4.1-1.8,4.59,4.59,0,0,1,3.65,1.55v-1.2h3.08Zm-6.23-2.52a2.85,2.85,0,0,0,2.25-1,3.78,3.78,0,0,0,0-4.9,3.05,3.05,0,0,0-4.52,0,3.69,3.69,0,0,0,0,4.9A2.88,2.88,0,0,0,252.44,935.29Z"/><path class="cls-3" d="M265.29,931v6.8h-3.05v-12h3.05v1.27a3.86,3.86,0,0,1,3.3-1.62,4,4,0,0,1,3.83,2.2,4.17,4.17,0,0,1,3.82-2.2,4.36,4.36,0,0,1,3.37,1.35,5.32,5.32,0,0,1,1.23,3.72v7.25h-3V931a2.8,2.8,0,0,0-.63-1.93,2.43,2.43,0,0,0-3.45,0,2.76,2.76,0,0,0-.64,1.93v6.8H270V931a2.76,2.76,0,0,0-.64-1.93,2.16,2.16,0,0,0-1.71-.72,2.22,2.22,0,0,0-1.74.72A2.81,2.81,0,0,0,265.29,931Z"/><path class="cls-3" d="M296.27,921.79v16h-3v-12.4l-2.55,2.48-1.83-2,4.3-4.07Z"/><path class="cls-3" d="M305.84,921.71a5.79,5.79,0,0,1,4.25,1.65,5.43,5.43,0,0,1,1.7,4.08,6.43,6.43,0,0,1-.52,2.55,20.7,20.7,0,0,1-2,3.47L306,938.09h-3.5l3.63-5.33a1,1,0,0,1-.3,0,5.83,5.83,0,0,1-4.23-1.58,5,5,0,0,1-1.65-3.77,5.52,5.52,0,0,1,1.68-4.1A5.82,5.82,0,0,1,305.84,921.71Zm0,8.58a2.81,2.81,0,0,0,2-.83,2.89,2.89,0,0,0,0-4.05,2.8,2.8,0,0,0-2-.82,2.74,2.74,0,0,0-2,.82,2.94,2.94,0,0,0,0,4.05A2.74,2.74,0,0,0,305.87,930.29Z"/><path class="cls-3" d="M319.89,921.71a5.79,5.79,0,0,1,4.25,1.65,5.43,5.43,0,0,1,1.7,4.08,6.43,6.43,0,0,1-.52,2.55,20.7,20.7,0,0,1-2.05,3.47L320,938.09h-3.5l3.63-5.33a1,1,0,0,1-.3,0,5.83,5.83,0,0,1-4.23-1.58,5,5,0,0,1-1.65-3.77,5.52,5.52,0,0,1,1.68-4.1A5.82,5.82,0,0,1,319.89,921.71Zm0,8.58a2.81,2.81,0,0,0,2-.83,2.89,2.89,0,0,0,0-4.05,2.8,2.8,0,0,0-2-.82,2.74,2.74,0,0,0-2,.82,2.94,2.94,0,0,0,0,4.05A2.74,2.74,0,0,0,319.92,930.29Z"/><path class="cls-3" d="M333.94,921.71a5.79,5.79,0,0,1,4.25,1.65,5.43,5.43,0,0,1,1.7,4.08,6.43,6.43,0,0,1-.52,2.55,21.42,21.42,0,0,1-2.05,3.47l-3.23,4.63h-3.5l3.63-5.33a1,1,0,0,1-.3,0,5.83,5.83,0,0,1-4.23-1.58,5,5,0,0,1-1.65-3.77,5.52,5.52,0,0,1,1.68-4.1A5.82,5.82,0,0,1,333.94,921.71Zm0,8.58a2.81,2.81,0,0,0,2-.83,2.89,2.89,0,0,0,0-4.05,2.8,2.8,0,0,0-2-.82,2.74,2.74,0,0,0-2,.82,2.94,2.94,0,0,0,0,4.05A2.74,2.74,0,0,0,334,930.29Z"/><rect class="cls-4" x="92.53" y="886.26" width="360.9" height="87.86" rx="5"/><rect class="cls-2" x="1102.85" y="39.64" width="461.12" height="1237.96" rx="4.99"/><rect class="cls-4" x="1151.85" y="885.5" width="360.9" height="87.86" rx="5"/><path class="cls-3" d="M1259.39,1171.85a8.25,8.25,0,0,1,11.73,0,8.4,8.4,0,0,1-1.63,13.1l3.75,2-1.45,2.48-5.8-3.38a5.78,5.78,0,0,1-.75,0,8.39,8.39,0,0,1-5.85-14.28Zm5.85,11.15a4.72,4.72,0,0,0,3.53-1.52,5.48,5.48,0,0,0,0-7.43,4.69,4.69,0,0,0-3.53-1.52,4.64,4.64,0,0,0-3.5,1.52,5.2,5.2,0,0,0-1.45,3.73,5.11,5.11,0,0,0,1.45,3.67A4.68,4.68,0,0,0,1265.24,1183Z"/><path class="cls-3" d="M1291.59,1185.78h-3.48l-1.37-3.6h-7l-1.41,3.6H1275l6.45-16h3.65Zm-10.82-6.38h4.9l-2.45-6.35Z"/><path class="cls-3" d="M1304,1175.25l-1.75,2.18a3.94,3.94,0,0,0-2.82-1.1,3.19,3.19,0,0,0-2.41,1,3.74,3.74,0,0,0,0,5,3.13,3.13,0,0,0,2.38,1,4,4,0,0,0,3-1.17l1.55,2.25a5.23,5.23,0,0,1-2,1.31,7.07,7.07,0,0,1-2.6.49,6.37,6.37,0,0,1-4.48-10.83,6,6,0,0,1,4.43-1.85A6.22,6.22,0,0,1,1304,1175.25Z"/><path class="cls-3" d="M1307,1176.5h-2.11v-2.7H1307v-2.35l3-.75v3.1h3.25v2.7h-3.23v5.08c0,1.11.46,1.67,1.38,1.67a1.77,1.77,0,0,0,1.4-.6l1.38,2.28a4.55,4.55,0,0,1-3.28,1.2,3.75,3.75,0,0,1-2.93-1.17,4.71,4.71,0,0,1-1-3.28Z"/><path class="cls-3" d="M1318,1172.18a1.71,1.71,0,0,1-1.25-.52,1.68,1.68,0,0,1-.52-1.26,1.75,1.75,0,0,1,.52-1.26,1.69,1.69,0,0,1,1.25-.54,1.72,1.72,0,0,1,1.28.54,1.75,1.75,0,0,1,.52,1.26,1.68,1.68,0,0,1-.52,1.26A1.74,1.74,0,0,1,1318,1172.18Zm-1.5,1.62h3v12h-3Z"/><path class="cls-3" d="M1332.94,1184.28a6.05,6.05,0,0,1-4.43,1.85,5.92,5.92,0,0,1-4.4-1.85,6.12,6.12,0,0,1-1.82-4.48,6.18,6.18,0,0,1,1.82-4.5,5.92,5.92,0,0,1,4.4-1.85,6.05,6.05,0,0,1,4.43,1.85,6.45,6.45,0,0,1,0,9Zm-4.4-1a2.88,2.88,0,0,0,2.25-1,3.78,3.78,0,0,0,0-4.9,2.89,2.89,0,0,0-2.25-1,2.92,2.92,0,0,0-2.28,1,3.72,3.72,0,0,0,0,4.9A2.91,2.91,0,0,0,1328.54,1183.25Z"/><path class="cls-3" d="M1340.59,1179v6.8h-3v-12h3V1175a4,4,0,0,1,3.37-1.53,4.3,4.3,0,0,1,3.32,1.36,5.36,5.36,0,0,1,1.24,3.72v7.25h-3.06V1179a2.73,2.73,0,0,0-.66-1.94,2.59,2.59,0,0,0-3.56,0A2.77,2.77,0,0,0,1340.59,1179Z"/><path class="cls-3" d="M1363.94,1169.75v16h-3v-12.4l-2.55,2.47-1.83-2,4.3-4.08Z"/><path class="cls-3" d="M1373.51,1169.68a5.79,5.79,0,0,1,4.25,1.65,5.41,5.41,0,0,1,1.7,4.07,6.43,6.43,0,0,1-.52,2.55,21.12,21.12,0,0,1-2,3.48l-3.23,4.62h-3.5l3.63-5.32-.3,0a5.82,5.82,0,0,1-4.23-1.57,5,5,0,0,1-1.65-3.78,5.52,5.52,0,0,1,1.68-4.1A5.81,5.81,0,0,1,1373.51,1169.68Zm0,8.57a2.8,2.8,0,0,0,2-.82,2.89,2.89,0,0,0,0-4,2.81,2.81,0,0,0-2-.83,2.8,2.8,0,0,0-2.85,2.85,2.79,2.79,0,0,0,.81,2A2.74,2.74,0,0,0,1373.54,1178.25Z"/><path class="cls-3" d="M1387.56,1169.68a5.79,5.79,0,0,1,4.25,1.65,5.41,5.41,0,0,1,1.7,4.07,6.43,6.43,0,0,1-.52,2.55,21.12,21.12,0,0,1-2,3.48l-3.23,4.62h-3.5l3.63-5.32-.3,0a5.84,5.84,0,0,1-4.23-1.57,5,5,0,0,1-1.65-3.78,5.52,5.52,0,0,1,1.68-4.1A5.83,5.83,0,0,1,1387.56,1169.68Zm0,8.57a2.8,2.8,0,0,0,2-.82,2.89,2.89,0,0,0,0-4,2.81,2.81,0,0,0-2-.83,2.8,2.8,0,0,0-2.85,2.85,2.79,2.79,0,0,0,.81,2A2.74,2.74,0,0,0,1387.59,1178.25Z"/><path class="cls-3" d="M1401.61,1169.68a5.79,5.79,0,0,1,4.25,1.65,5.41,5.41,0,0,1,1.7,4.07,6.43,6.43,0,0,1-.52,2.55,21.12,21.12,0,0,1-2,3.48l-3.23,4.62h-3.5l3.63-5.32-.3,0a5.84,5.84,0,0,1-4.23-1.57,5,5,0,0,1-1.65-3.78,5.52,5.52,0,0,1,1.68-4.1A5.83,5.83,0,0,1,1401.61,1169.68Zm0,8.57a2.8,2.8,0,0,0,2-.82,2.89,2.89,0,0,0,0-4,2.81,2.81,0,0,0-2-.83,2.8,2.8,0,0,0-2.85,2.85,2.79,2.79,0,0,0,.81,2A2.74,2.74,0,0,0,1401.64,1178.25Z"/><path class="cls-3" d="M1207.64,1215.78h-10.37v-16h10.37v2.93h-7.25v3.55h6.25v3h-6.25v3.65h7.25Z"/><path class="cls-3" d="M1213.44,1209v6.8h-3v-12h3V1205a4,4,0,0,1,3.38-1.53,4.27,4.27,0,0,1,3.31,1.36,5.36,5.36,0,0,1,1.24,3.72v7.25h-3V1209a2.69,2.69,0,0,0-.67-1.94,2.26,2.26,0,0,0-1.76-.71,2.31,2.31,0,0,0-1.8.71A2.77,2.77,0,0,0,1213.44,1209Z"/><path class="cls-3" d="M1225.69,1206.5h-2.1v-2.7h2.13v-2.35l3-.75v3.1H1232v2.7h-3.23v5.08c0,1.11.46,1.67,1.38,1.67a1.77,1.77,0,0,0,1.4-.6l1.37,2.28a4.51,4.51,0,0,1-3.27,1.2,3.74,3.74,0,0,1-2.93-1.17,4.72,4.72,0,0,1-1-3.28Z"/><path class="cls-3" d="M1238.19,1209.08v6.7h-3v-12h3v1.3a3.41,3.41,0,0,1,2.93-1.65,3,3,0,0,1,1.92.6l-1.27,2.9a2.19,2.19,0,0,0-1.58-.52,1.74,1.74,0,0,0-1.45.7A3,3,0,0,0,1238.19,1209.08Z"/><path class="cls-3" d="M1243.72,1203.8h3.37l3.48,8.25,2.87-8.25h3.08l-4.9,13.5c-.89,2.48-2.37,3.73-4.45,3.73a4.72,4.72,0,0,1-3.28-1.28l1.38-2.4a2.74,2.74,0,0,0,1.92.8,1.45,1.45,0,0,0,1.09-.44,4.1,4.1,0,0,0,.81-1.46l.1-.3Z"/><path class="cls-3" d="M1258.72,1220.68V1203.8h3v1.3a4.55,4.55,0,0,1,3.65-1.65,5.46,5.46,0,0,1,4.1,1.78,6.46,6.46,0,0,1,1.65,4.55,6.57,6.57,0,0,1-1.63,4.52,5.31,5.31,0,0,1-4.12,1.83,4.59,4.59,0,0,1-3.65-1.55v6.1Zm6.22-14.35a2.89,2.89,0,0,0-2.25,1,3.75,3.75,0,0,0,0,4.92,2.89,2.89,0,0,0,2.25,1,2.92,2.92,0,0,0,2.28-1,3.58,3.58,0,0,0,.9-2.45,3.55,3.55,0,0,0-.9-2.47A2.92,2.92,0,0,0,1264.94,1206.33Z"/><path class="cls-3" d="M1283.82,1214.28a6.07,6.07,0,0,1-4.43,1.85,5.92,5.92,0,0,1-4.4-1.85,6.45,6.45,0,0,1,0-9,5.92,5.92,0,0,1,4.4-1.85,6.07,6.07,0,0,1,4.43,1.85,6.18,6.18,0,0,1,1.82,4.5A6.12,6.12,0,0,1,1283.82,1214.28Zm-4.4-1a2.88,2.88,0,0,0,2.25-1,3.78,3.78,0,0,0,0-4.9,2.89,2.89,0,0,0-2.25-1,2.92,2.92,0,0,0-2.28,1,3.72,3.72,0,0,0,0,4.9A2.91,2.91,0,0,0,1279.42,1213.25Z"/><path class="cls-3" d="M1289.92,1202.18a1.79,1.79,0,0,1-1.78-1.78,1.76,1.76,0,0,1,.53-1.26,1.67,1.67,0,0,1,1.25-.54,1.7,1.7,0,0,1,1.27.54,1.76,1.76,0,0,1,.53,1.26,1.69,1.69,0,0,1-.53,1.26A1.72,1.72,0,0,1,1289.92,1202.18Zm-1.5,1.62h3v12h-3Z"/><path class="cls-3" d="M1298.09,1209v6.8h-3v-12h3V1205a4,4,0,0,1,3.38-1.53,4.29,4.29,0,0,1,3.31,1.36,5.36,5.36,0,0,1,1.24,3.72v7.25h-3V1209a2.74,2.74,0,0,0-.67-1.94,2.59,2.59,0,0,0-3.56,0A2.77,2.77,0,0,0,1298.09,1209Z"/><path class="cls-3" d="M1310.34,1206.5h-2.1v-2.7h2.12v-2.35l3.05-.75v3.1h3.25v2.7h-3.22v5.08c0,1.11.46,1.67,1.37,1.67a1.79,1.79,0,0,0,1.41-.6l1.37,2.28a4.54,4.54,0,0,1-3.28,1.2,3.72,3.72,0,0,1-2.92-1.17,4.72,4.72,0,0,1-1.05-3.28Z"/><path class="cls-3" d="M1322.27,1207.15a2,2,0,0,1-1.43.58,2,2,0,0,1-2-2,2,2,0,0,1,.58-1.42,1.88,1.88,0,0,1,1.4-.58,2,2,0,0,1,2,2A1.91,1.91,0,0,1,1322.27,1207.15Zm0,8.35a2,2,0,0,1-1.43.58,2,2,0,0,1-2-2,2,2,0,0,1,.58-1.42,1.88,1.88,0,0,1,1.4-.58,2,2,0,0,1,2,2A1.91,1.91,0,0,1,1322.27,1215.5Z"/><path class="cls-3" d="M1334.14,1215.78H1331v-16h5.7a7.1,7.1,0,0,1,4.68,1.45,4.74,4.74,0,0,1,1.75,3.85,4.8,4.8,0,0,1-1.78,3.88,7.16,7.16,0,0,1-4.7,1.45h-2.52Zm2.82-13.28h-2.82v5.13H1337a3,3,0,0,0,2.09-.72,2.57,2.57,0,0,0,0-3.71A3,3,0,0,0,1337,1202.5Z"/><path class="cls-3" d="M1357.46,1215.78h-3.07v-1.3a4.55,4.55,0,0,1-3.65,1.65,5.31,5.31,0,0,1-4.08-1.8,6.32,6.32,0,0,1-1.67-4.53,6.53,6.53,0,0,1,1.65-4.55,5.24,5.24,0,0,1,4.1-1.8,4.61,4.61,0,0,1,3.65,1.55v-1.2h3.07Zm-6.22-2.53a2.88,2.88,0,0,0,2.25-1,3.78,3.78,0,0,0,0-4.9,2.89,2.89,0,0,0-2.25-1,2.92,2.92,0,0,0-2.28,1,3.72,3.72,0,0,0,0,4.9A2.91,2.91,0,0,0,1351.24,1213.25Z"/><path class="cls-3" d="M1364.09,1209.08v6.7h-3v-12h3v1.3a3.4,3.4,0,0,1,2.92-1.65,3,3,0,0,1,1.93.6l-1.28,2.9a2.15,2.15,0,0,0-1.57-.52,1.74,1.74,0,0,0-1.45.7A3,3,0,0,0,1364.09,1209.08Z"/><path class="cls-3" d="M1373.54,1207a.92.92,0,0,0,.24.6,1.79,1.79,0,0,0,.71.47c.31.13.63.25.94.35s.69.22,1.16.35.84.25,1.12.35a3.48,3.48,0,0,1,1.65,1.2,3.44,3.44,0,0,1-.71,4.71,5.68,5.68,0,0,1-3.64,1.07,6.23,6.23,0,0,1-5-2l1.7-1.95a4.5,4.5,0,0,0,3.5,1.53,2.24,2.24,0,0,0,1.31-.34,1.07,1.07,0,0,0,.46-.91,1,1,0,0,0-.47-.85,3.45,3.45,0,0,0-1.19-.55c-.47-.14-1-.3-1.55-.5a12.25,12.25,0,0,1-1.55-.67,3,3,0,0,1-1.19-1.1,3.31,3.31,0,0,1,.77-4.28,5.05,5.05,0,0,1,3.36-1q3.33,0,4.75,2l-1.73,1.8a3.66,3.66,0,0,0-3-1.33,2.18,2.18,0,0,0-1.22.31A1,1,0,0,0,1373.54,1207Z"/><path class="cls-3" d="M1388.31,1216.13a6.22,6.22,0,0,1-4.57-1.85,6.09,6.09,0,0,1-1.85-4.48,6.25,6.25,0,0,1,1.75-4.5,5.64,5.64,0,0,1,4.3-1.85,5.79,5.79,0,0,1,4.3,1.75,6,6,0,0,1,1.72,4.35,4.69,4.69,0,0,1-.07,1H1385a3.38,3.38,0,0,0,3.43,2.88,3.9,3.9,0,0,0,2.92-1.25l1.58,2.07a4.84,4.84,0,0,1-2,1.36A7.07,7.07,0,0,1,1388.31,1216.13Zm-.32-10.08a2.73,2.73,0,0,0-1.88.69,3.58,3.58,0,0,0-1,1.89h5.78a3.43,3.43,0,0,0-1-1.92A2.68,2.68,0,0,0,1388,1206.05Z"/><path class="cls-3" d="M1398.31,1201.85a8.25,8.25,0,0,1,11.73,0,8.14,8.14,0,0,1,2.42,5.93,8.32,8.32,0,0,1-4,7.17l3.75,2-1.45,2.48-5.8-3.38a5.56,5.56,0,0,1-.75,0,8.39,8.39,0,0,1-5.85-14.28Zm5.85,11.15a4.71,4.71,0,0,0,3.53-1.52,5.48,5.48,0,0,0,0-7.43,4.82,4.82,0,0,0-7,0,5.24,5.24,0,0,0-1.45,3.73,5.15,5.15,0,0,0,1.45,3.67A4.69,4.69,0,0,0,1404.16,1213Z"/><path class="cls-3" d="M1414.94,1203.8h3v6.48a3.11,3.11,0,0,0,.7,2.11,2.31,2.31,0,0,0,1.85.81,2.34,2.34,0,0,0,1.85-.81,3.16,3.16,0,0,0,.7-2.11v-6.48h3.05v6.7a5.6,5.6,0,1,1-11.2,0Z"/><path class="cls-3" d="M1434.94,1216.13a6.24,6.24,0,0,1-4.58-1.85,6.13,6.13,0,0,1-1.85-4.48,6.29,6.29,0,0,1,1.75-4.5,5.66,5.66,0,0,1,4.3-1.85,5.77,5.77,0,0,1,4.3,1.75,6,6,0,0,1,1.73,4.35,4.53,4.53,0,0,1-.08,1h-8.87a3.36,3.36,0,0,0,3.42,2.88,3.92,3.92,0,0,0,2.93-1.25l1.57,2.07a4.7,4.7,0,0,1-2,1.36A7,7,0,0,1,1434.94,1216.13Zm-.33-10.08a2.7,2.7,0,0,0-1.87.69,3.45,3.45,0,0,0-1,1.89h5.77a3.36,3.36,0,0,0-1-1.92A2.72,2.72,0,0,0,1434.61,1206.05Z"/><path class="cls-3" d="M1442.79,1203.8h3v6.48a3.11,3.11,0,0,0,.7,2.11,2.52,2.52,0,0,0,3.7,0,3.16,3.16,0,0,0,.7-2.11v-6.48h3v6.7a5.6,5.6,0,1,1-11.2,0Z"/><path class="cls-3" d="M1462.79,1216.13a6.24,6.24,0,0,1-4.58-1.85,6.13,6.13,0,0,1-1.85-4.48,6.29,6.29,0,0,1,1.75-4.5,5.66,5.66,0,0,1,4.3-1.85,5.77,5.77,0,0,1,4.3,1.75,6,6,0,0,1,1.73,4.35,4.53,4.53,0,0,1-.08,1h-8.87a3.37,3.37,0,0,0,1.16,2.09,3.42,3.42,0,0,0,2.26.79,3.92,3.92,0,0,0,2.93-1.25l1.57,2.07a4.7,4.7,0,0,1-2,1.36A7,7,0,0,1,1462.79,1216.13Zm-.33-10.08a2.7,2.7,0,0,0-1.87.69,3.45,3.45,0,0,0-1,1.89h5.77a3.36,3.36,0,0,0-1-1.92A2.72,2.72,0,0,0,1462.46,1206.05Z"/><rect class="cls-4" x="1151.85" y="1149.22" width="360.9" height="87.86" rx="5"/><path class="cls-3" d="M1287.5,673.35H1284l-1.38-3.6h-7l-1.4,3.6H1271l6.45-16h3.65ZM1276.68,667h4.9l-2.45-6.35Z"/><path class="cls-3" d="M1299.88,662.82l-1.75,2.18a4,4,0,0,0-2.83-1.1,3.2,3.2,0,0,0-2.41,1,3.46,3.46,0,0,0-.94,2.48,3.5,3.5,0,0,0,.94,2.49,3.18,3.18,0,0,0,2.39,1,4,4,0,0,0,3-1.17l1.55,2.25a5.16,5.16,0,0,1-2,1.31,6.83,6.83,0,0,1-2.6.49,6.28,6.28,0,0,1-6.3-6.33,6.18,6.18,0,0,1,1.83-4.5,5.93,5.93,0,0,1,4.42-1.85A6.25,6.25,0,0,1,1299.88,662.82Z"/><path class="cls-3" d="M1302.93,664.07h-2.1v-2.7H1303V659l3-.75v3.1h3.25v2.7H1306v5.08c0,1.12.46,1.67,1.37,1.67a1.76,1.76,0,0,0,1.4-.6l1.38,2.28a4.55,4.55,0,0,1-3.28,1.2,3.74,3.74,0,0,1-2.92-1.16,4.74,4.74,0,0,1-1-3.29Z"/><path class="cls-3" d="M1313.88,659.75a1.78,1.78,0,0,1-1.78-1.78,1.76,1.76,0,0,1,.53-1.26,1.67,1.67,0,0,1,1.25-.54,1.7,1.7,0,0,1,1.27.54,1.76,1.76,0,0,1,.53,1.26,1.73,1.73,0,0,1-.53,1.27A1.75,1.75,0,0,1,1313.88,659.75Zm-1.5,1.62h3v12h-3Z"/><path class="cls-3" d="M1328.85,671.85a6,6,0,0,1-4.42,1.85,5.91,5.91,0,0,1-4.4-1.85,6.09,6.09,0,0,1-1.83-4.48,6.18,6.18,0,0,1,1.83-4.5,5.91,5.91,0,0,1,4.4-1.85,6,6,0,0,1,4.42,1.85,6.18,6.18,0,0,1,1.83,4.5A6.09,6.09,0,0,1,1328.85,671.85Zm-4.4-1a2.88,2.88,0,0,0,2.25-1,3.78,3.78,0,0,0,0-4.9,3.05,3.05,0,0,0-4.52,0,3.69,3.69,0,0,0,0,4.9A2.9,2.9,0,0,0,1324.45,670.82Z"/><path class="cls-3" d="M1336.5,666.55v6.8h-3v-12h3v1.18a4,4,0,0,1,3.38-1.53,4.26,4.26,0,0,1,3.31,1.37,5.31,5.31,0,0,1,1.24,3.71v7.25h-3v-6.8a2.71,2.71,0,0,0-.67-1.94,2.29,2.29,0,0,0-1.76-.71,2.35,2.35,0,0,0-1.8.71A2.79,2.79,0,0,0,1336.5,666.55Z"/><path class="cls-3" d="M1363.1,673.35h-10.9V671l6-5.8a4.52,4.52,0,0,0,1.7-3.12,2.11,2.11,0,0,0-.68-1.61,2.45,2.45,0,0,0-1.77-.64c-1.34,0-2.39.77-3.18,2.32l-2.37-1.57a5.9,5.9,0,0,1,5.7-3.63,5.31,5.31,0,0,1,3.9,1.45A4.93,4.93,0,0,1,1363,662q0,2.43-2.62,4.9l-4,3.73h6.72Z"/><path class="cls-3" d="M1371.73,673.7a5.47,5.47,0,0,1-4.55-2.38,9.59,9.59,0,0,1-1.8-6,9.75,9.75,0,0,1,1.77-6,5.37,5.37,0,0,1,4.45-2.38,5.54,5.54,0,0,1,4.58,2.38,11.14,11.14,0,0,1,0,12A5.41,5.41,0,0,1,1371.73,673.7Zm-2.4-4.4a2.58,2.58,0,0,0,4.7,0,7.92,7.92,0,0,0,.87-3.95,7.76,7.76,0,0,0-.9-4,2.7,2.7,0,0,0-2.4-1.51,2.54,2.54,0,0,0-2.27,1.52,7.72,7.72,0,0,0-.9,4A7.84,7.84,0,0,0,1369.33,669.3Z"/><path class="cls-3" d="M1386.65,673.7a5.48,5.48,0,0,1-4.55-2.38,9.59,9.59,0,0,1-1.8-6,9.69,9.69,0,0,1,1.78-6,5.36,5.36,0,0,1,4.45-2.38,5.52,5.52,0,0,1,4.57,2.38,11.08,11.08,0,0,1,.05,12A5.38,5.38,0,0,1,1386.65,673.7Zm-2.4-4.4a2.58,2.58,0,0,0,4.7,0,7.91,7.91,0,0,0,.88-3.95,7.76,7.76,0,0,0-.9-4,2.7,2.7,0,0,0-2.4-1.51,2.57,2.57,0,0,0-2.28,1.52,7.72,7.72,0,0,0-.9,4A7.84,7.84,0,0,0,1384.25,669.3Z"/><path class="cls-3" d="M1267.71,937.81h-3.13v-16h5.7a7.1,7.1,0,0,1,4.68,1.45,5.1,5.1,0,0,1,0,7.72,7.1,7.1,0,0,1-4.7,1.45h-2.52Zm2.82-13.27h-2.82v5.12h2.82a3,3,0,0,0,2.09-.71,2.57,2.57,0,0,0,0-3.71A3,3,0,0,0,1270.53,924.54Z"/><path class="cls-3" d="M1291,937.81H1288v-1.3a4.57,4.57,0,0,1-3.65,1.65,5.31,5.31,0,0,1-4.08-1.8,6.28,6.28,0,0,1-1.67-4.52,6.53,6.53,0,0,1,1.65-4.55,5.22,5.22,0,0,1,4.1-1.8A4.61,4.61,0,0,1,1288,927v-1.2H1291Zm-6.22-2.52a2.85,2.85,0,0,0,2.25-1,3.78,3.78,0,0,0,0-4.9,2.92,2.92,0,0,0-2.25-1,3,3,0,0,0-2.28,1,3.72,3.72,0,0,0,0,4.9A2.89,2.89,0,0,0,1284.81,935.29Z"/><path class="cls-3" d="M1297.66,931.11v6.7h-3.05v-12h3.05v1.3a3.4,3.4,0,0,1,2.92-1.65,3,3,0,0,1,1.93.6l-1.28,2.9a2.22,2.22,0,0,0-1.57-.53,1.75,1.75,0,0,0-1.45.7A3.08,3.08,0,0,0,1297.66,931.11Z"/><path class="cls-3" d="M1316.43,937.81h-3.07v-1.3a4.57,4.57,0,0,1-3.65,1.65,5.31,5.31,0,0,1-4.08-1.8,6.28,6.28,0,0,1-1.67-4.52,6.53,6.53,0,0,1,1.65-4.55,5.22,5.22,0,0,1,4.1-1.8,4.61,4.61,0,0,1,3.65,1.55v-1.2h3.07Zm-6.22-2.52a2.85,2.85,0,0,0,2.25-1,3.78,3.78,0,0,0,0-4.9,2.92,2.92,0,0,0-2.25-1,3,3,0,0,0-2.28,1,3.72,3.72,0,0,0,0,4.9A2.89,2.89,0,0,0,1310.21,935.29Z"/><path class="cls-3" d="M1323.06,931v6.8h-3v-12h3v1.27a3.83,3.83,0,0,1,3.3-1.62,4,4,0,0,1,3.82,2.2,4.18,4.18,0,0,1,3.83-2.2,4.35,4.35,0,0,1,3.36,1.35,5.32,5.32,0,0,1,1.24,3.72v7.25h-3V931a2.81,2.81,0,0,0-.64-1.93,2.43,2.43,0,0,0-3.45,0,2.76,2.76,0,0,0-.64,1.93v6.8h-3V931a2.76,2.76,0,0,0-.64-1.93,2.16,2.16,0,0,0-1.71-.72,2.22,2.22,0,0,0-1.74.72A2.8,2.8,0,0,0,1323.06,931Z"/><path class="cls-3" d="M1354,921.79v16h-3v-12.4l-2.55,2.48-1.82-2,4.3-4.07Z"/><path class="cls-3" d="M1363.61,921.71a5.82,5.82,0,0,1,4.25,1.65,5.47,5.47,0,0,1,1.7,4.08A6.44,6.44,0,0,1,1369,930a20.7,20.7,0,0,1-2,3.47l-3.22,4.63h-3.5l3.62-5.33a1,1,0,0,1-.3,0,5.81,5.81,0,0,1-4.22-1.58,5,5,0,0,1-1.65-3.77,5.51,5.51,0,0,1,1.67-4.1A5.86,5.86,0,0,1,1363.61,921.71Zm0,8.58a2.81,2.81,0,0,0,2-.83,2.86,2.86,0,0,0,0-4.05,2.8,2.8,0,0,0-2-.82,2.75,2.75,0,0,0-2,.82,2.94,2.94,0,0,0,0,4.05A2.76,2.76,0,0,0,1363.63,930.29Z"/><path class="cls-3" d="M1377.66,921.71a5.82,5.82,0,0,1,4.25,1.65,5.47,5.47,0,0,1,1.7,4.08,6.44,6.44,0,0,1-.53,2.55,20.7,20.7,0,0,1-2,3.47l-3.22,4.63h-3.5l3.62-5.33a1,1,0,0,1-.3,0,5.81,5.81,0,0,1-4.22-1.58,5,5,0,0,1-1.65-3.77,5.51,5.51,0,0,1,1.67-4.1A5.86,5.86,0,0,1,1377.66,921.71Zm0,8.58a2.81,2.81,0,0,0,2-.83,2.86,2.86,0,0,0,0-4.05,2.8,2.8,0,0,0-2-.82,2.75,2.75,0,0,0-2,.82,2.94,2.94,0,0,0,0,4.05A2.76,2.76,0,0,0,1377.68,930.29Z"/><path class="cls-3" d="M1391.71,921.71a5.82,5.82,0,0,1,4.25,1.65,5.47,5.47,0,0,1,1.7,4.08,6.44,6.44,0,0,1-.53,2.55,20.7,20.7,0,0,1-2.05,3.47l-3.22,4.63h-3.5l3.62-5.33a1,1,0,0,1-.3,0,5.81,5.81,0,0,1-4.22-1.58,5,5,0,0,1-1.65-3.77,5.51,5.51,0,0,1,1.67-4.1A5.86,5.86,0,0,1,1391.71,921.71Zm0,8.58a2.81,2.81,0,0,0,2-.83,2.86,2.86,0,0,0,0-4.05,2.8,2.8,0,0,0-2-.82,2.74,2.74,0,0,0-2,.82,2.94,2.94,0,0,0,0,4.05A2.74,2.74,0,0,0,1391.73,930.29Z"/><rect class="cls-4" x="1151.85" y="621.79" width="360.9" height="87.86" rx="5"/><path class="cls-3" d="M1290.22,400.7v7.37a9.7,9.7,0,0,1-6,1.75,7.86,7.86,0,0,1-5.85-2.45,8.18,8.18,0,0,1-2.37-5.9,8.06,8.06,0,0,1,2.42-5.92,7.81,7.81,0,0,1,5.8-2.45,8,8,0,0,1,5.93,2.2l-2.08,2.37a5.64,5.64,0,0,0-3.82-1.45,4.57,4.57,0,0,0-3.48,1.53,5.43,5.43,0,0,0,0,7.42,4.82,4.82,0,0,0,3.65,1.53,5.84,5.84,0,0,0,2.7-.63v-4.52Zm-6.75,0h6.75l-1.07,2.8h-5.68Z"/><path class="cls-3" d="M1296.57,402.77v6.7h-3v-12h3v1.3a3.41,3.41,0,0,1,2.93-1.65,3,3,0,0,1,1.92.6l-1.27,2.9a2.18,2.18,0,0,0-1.58-.53,1.78,1.78,0,0,0-1.45.7A3.14,3.14,0,0,0,1296.57,402.77Z"/><path class="cls-3" d="M1313.52,408a6,6,0,0,1-4.42,1.85,5.91,5.91,0,0,1-4.4-1.85,6.08,6.08,0,0,1-1.83-4.47,6.15,6.15,0,0,1,1.83-4.5,5.87,5.87,0,0,1,4.4-1.85,6,6,0,0,1,4.42,1.85,6.15,6.15,0,0,1,1.83,4.5A6.08,6.08,0,0,1,1313.52,408Zm-4.4-1a2.89,2.89,0,0,0,2.25-1,3.78,3.78,0,0,0,0-4.9,3.05,3.05,0,0,0-4.52,0,3.69,3.69,0,0,0,0,4.9A2.91,2.91,0,0,0,1309.12,407Z"/><path class="cls-3" d="M1317.7,397.5h3V404a3.09,3.09,0,0,0,.7,2.11,2.5,2.5,0,0,0,3.7,0,3.14,3.14,0,0,0,.7-2.11V397.5h3.05v6.7a5.6,5.6,0,1,1-11.2,0Z"/><path class="cls-3" d="M1332.07,414.37V397.5h3v1.3a4.57,4.57,0,0,1,3.65-1.65,5.47,5.47,0,0,1,4.1,1.77,6.48,6.48,0,0,1,1.65,4.55,6.59,6.59,0,0,1-1.62,4.53,5.36,5.36,0,0,1-4.13,1.82,4.61,4.61,0,0,1-3.65-1.55v6.1ZM1338.3,400a2.89,2.89,0,0,0-2.25,1,3.73,3.73,0,0,0,0,4.93,3.05,3.05,0,0,0,4.52,0,3.83,3.83,0,0,0,0-4.93A2.92,2.92,0,0,0,1338.3,400Z"/><path class="cls-3" d="M1362.52,409.47h-10.9v-2.32l6-5.8a4.56,4.56,0,0,0,1.7-3.13,2.11,2.11,0,0,0-.68-1.61,2.45,2.45,0,0,0-1.77-.64c-1.34,0-2.39.78-3.18,2.33l-2.37-1.58a5.89,5.89,0,0,1,5.7-3.62,5.27,5.27,0,0,1,3.9,1.45,4.9,4.9,0,0,1,1.47,3.6c0,1.61-.87,3.25-2.62,4.9l-4,3.72h6.72Z"/><path class="cls-3" d="M1371.15,409.82a5.49,5.49,0,0,1-4.55-2.37,9.64,9.64,0,0,1-1.8-6,9.75,9.75,0,0,1,1.77-6,5.38,5.38,0,0,1,4.45-2.37,5.53,5.53,0,0,1,4.58,2.37,11.15,11.15,0,0,1,.05,12A5.42,5.42,0,0,1,1371.15,409.82Zm-2.4-4.4a2.57,2.57,0,0,0,4.7,0,7.92,7.92,0,0,0,.87-3.95,7.76,7.76,0,0,0-.9-4A2.72,2.72,0,0,0,1371,396a2.54,2.54,0,0,0-2.27,1.53,7.67,7.67,0,0,0-.9,3.95A7.83,7.83,0,0,0,1368.75,405.42Z"/><path class="cls-3" d="M1386.07,409.82a5.5,5.5,0,0,1-4.55-2.37,10.92,10.92,0,0,1,0-12,5.35,5.35,0,0,1,4.45-2.37,5.51,5.51,0,0,1,4.57,2.37,11.1,11.1,0,0,1,0,12A5.4,5.4,0,0,1,1386.07,409.82Zm-2.4-4.4a2.57,2.57,0,0,0,4.7,0,9.3,9.3,0,0,0,0-7.94A2.72,2.72,0,0,0,1386,396a2.56,2.56,0,0,0-2.28,1.53,7.67,7.67,0,0,0-.9,3.95A7.83,7.83,0,0,0,1383.67,405.42Z"/><rect class="cls-4" x="1153.71" y="357.91" width="360.9" height="87.86" rx="5"/><path class="cls-3" d="M1301.17,129.57v2.92h-4.77v13.1h-3.13v-13.1h-4.75v-2.92Z"/><path class="cls-3" d="M1304.8,132a1.72,1.72,0,0,1-1.25-.51,1.69,1.69,0,0,1-.53-1.26,1.76,1.76,0,0,1,.53-1.27,1.7,1.7,0,0,1,1.25-.53,1.73,1.73,0,0,1,1.27.53,1.75,1.75,0,0,1,.52,1.27,1.68,1.68,0,0,1-.52,1.26A1.75,1.75,0,0,1,1304.8,132Zm-1.5,1.63h3v12h-3Z"/><path class="cls-3" d="M1313,138.79v6.8h-3v-12h3v1.27a3.83,3.83,0,0,1,3.3-1.62,4,4,0,0,1,3.82,2.2,4.19,4.19,0,0,1,3.83-2.2,4.32,4.32,0,0,1,3.36,1.35,5.28,5.28,0,0,1,1.24,3.72v7.25h-3v-6.8a2.8,2.8,0,0,0-.64-1.94,2.18,2.18,0,0,0-1.71-.71,2.25,2.25,0,0,0-1.74.71,2.85,2.85,0,0,0-.64,1.94v6.8h-3v-6.8a2.85,2.85,0,0,0-.64-1.94,2.45,2.45,0,0,0-3.45,0A2.8,2.8,0,0,0,1313,138.79Z"/><path class="cls-3" d="M1337.62,145.94a6.21,6.21,0,0,1-4.57-1.85,6.05,6.05,0,0,1-1.85-4.47,6.22,6.22,0,0,1,1.75-4.5,5.6,5.6,0,0,1,4.29-1.85,5.8,5.8,0,0,1,4.31,1.75,6,6,0,0,1,1.72,4.35,5.57,5.57,0,0,1-.07,1h-8.88a3.36,3.36,0,0,0,3.42,2.87,3.91,3.91,0,0,0,2.93-1.25l1.57,2.08a4.83,4.83,0,0,1-1.94,1.36A7.06,7.06,0,0,1,1337.62,145.94Zm-.32-10.07a2.77,2.77,0,0,0-1.88.68,3.45,3.45,0,0,0-1.05,1.89h5.78a3.4,3.4,0,0,0-1-1.91A2.68,2.68,0,0,0,1337.3,135.87Z"/><path class="cls-3" d="M1348.94,138.89v6.7h-3v-12h3v1.3a3.41,3.41,0,0,1,2.93-1.65,3,3,0,0,1,1.93.6l-1.28,2.9a2.23,2.23,0,0,0-1.58-.53,1.78,1.78,0,0,0-1.45.7A3.14,3.14,0,0,0,1348.94,138.89Z"/><path class="cls-3" d="M1371.24,145.59h-10.9v-2.32l6-5.8a4.56,4.56,0,0,0,1.7-3.13,2.14,2.14,0,0,0-.67-1.61,2.48,2.48,0,0,0-1.78-.64c-1.33,0-2.39.78-3.17,2.33l-2.38-1.58a5.92,5.92,0,0,1,5.7-3.62,5.27,5.27,0,0,1,3.9,1.45,4.9,4.9,0,0,1,1.48,3.6c0,1.61-.88,3.25-2.63,4.9l-4,3.72h6.72Z"/><path class="cls-3" d="M1376.49,136.84a.88.88,0,0,0,.24.6,2,2,0,0,0,.71.48c.32.13.63.25.94.35l1.17.35c.46.13.84.25,1.12.35a3.58,3.58,0,0,1,1.65,1.2,3.22,3.22,0,0,1,.62,2,3.29,3.29,0,0,1-1.33,2.69,5.69,5.69,0,0,1-3.64,1.06,6.24,6.24,0,0,1-5-2l1.71-1.95a4.51,4.51,0,0,0,3.5,1.52,2.17,2.17,0,0,0,1.31-.34,1.06,1.06,0,0,0,0-1.76,3.8,3.8,0,0,0-1.18-.55c-.48-.13-1-.3-1.55-.5a13.13,13.13,0,0,1-1.55-.66,3,3,0,0,1-1.19-1.1,3.11,3.11,0,0,1-.48-1.74,3.2,3.2,0,0,1,1.24-2.55,5.14,5.14,0,0,1,3.36-1c2.22,0,3.81.66,4.75,2l-1.72,1.8a3.68,3.68,0,0,0-2.95-1.32,2.11,2.11,0,0,0-1.23.31A1,1,0,0,0,1376.49,136.84Z"/><rect class="cls-4" x="1155.57" y="94.03" width="360.9" height="87.86" rx="5"/><path class="cls-5" d="M1121.59,1081.57l35.12-20.28a121.52,121.52,0,0,0-217.62,74.43h40a81.52,81.52,0,0,1,142.5-54.15Z"/><path class="cls-6" d="M1100.29,1079.14a.85.85,0,0,1,0-1.5l38.05-18.52,38-18.53a.85.85,0,0,1,1.21.89l-5.47,36.87-5.52,37.24a.85.85,0,0,1-1.26.61l-32.71-18.62Z"/><path class="cls-5" d="M1007.85,1308l-35.12,20.28a121.52,121.52,0,0,0,217.63-74.43h-40A81.52,81.52,0,0,1,1007.85,1308Z"/><path class="cls-6" d="M1027.79,1300.5a.84.84,0,0,1,0,1.5l-38,18.53-38.05,18.52a.85.85,0,0,1-1.21-.89l5.47-36.87,5.52-37.23a.85.85,0,0,1,1.26-.62l32.71,18.63Z"/><path class="cls-3" d="M349.05,765.26h-1.32v-14.1h1.32Z"/><path class="cls-3" d="M354.82,759v6.27H353.5V754.73h1.32v1.54a3.65,3.65,0,0,1,3.34-1.79,4.07,4.07,0,0,1,3,1.16,4.27,4.27,0,0,1,1.13,3.11v6.51H361V759a3.41,3.41,0,0,0-.82-2.42,3.39,3.39,0,0,0-4.56,0A3.41,3.41,0,0,0,354.82,759Z"/><path class="cls-3" d="M374.75,755.87l-.77,1a4.3,4.3,0,0,0-3-1.13,3.85,3.85,0,0,0-2.92,1.24,4.19,4.19,0,0,0-1.15,3A4.29,4.29,0,0,0,368,763a3.7,3.7,0,0,0,2.88,1.28,4.17,4.17,0,0,0,3.08-1.13l.7,1a5.05,5.05,0,0,1-3.8,1.39,5,5,0,0,1-3.79-1.61,5.54,5.54,0,0,1-1.52-3.92,5.46,5.46,0,0,1,1.54-3.91,5.06,5.06,0,0,1,3.81-1.59A5.2,5.2,0,0,1,374.75,755.87Z"/><path class="cls-3" d="M385.68,763.9a5.2,5.2,0,0,1-7.52,0,5.54,5.54,0,0,1-1.52-3.92,5.47,5.47,0,0,1,1.52-3.89,5.2,5.2,0,0,1,7.52,0A5.47,5.47,0,0,1,387.2,760,5.54,5.54,0,0,1,385.68,763.9Zm-6.6-.88a3.7,3.7,0,0,0,2.86,1.28,3.62,3.62,0,0,0,2.84-1.28A4.43,4.43,0,0,0,385.9,760a4.25,4.25,0,0,0-1.12-3,3.9,3.9,0,0,0-5.7,0,4.22,4.22,0,0,0-1.14,3A4.33,4.33,0,0,0,379.08,763Z"/><path class="cls-3" d="M392,759v6.27H390.7V754.73H392v1.54a3.39,3.39,0,0,1,3.17-1.79,4.1,4.1,0,0,1,2.24.61,3.55,3.55,0,0,1,1.39,1.7,3.68,3.68,0,0,1,3.52-2.31,3.8,3.8,0,0,1,2.91,1.17,4.35,4.35,0,0,1,1.09,3.1v6.51H405V759a3.54,3.54,0,0,0-.78-2.42,3.08,3.08,0,0,0-4.31,0,3.54,3.54,0,0,0-.78,2.42v6.27h-1.3V759a3.54,3.54,0,0,0-.78-2.42,3.05,3.05,0,0,0-4.29,0A3.54,3.54,0,0,0,392,759Z"/><path class="cls-3" d="M411.69,752.26a.86.86,0,0,1-.62.27.84.84,0,0,1-.62-.27.8.8,0,0,1-.26-.61.88.88,0,0,1,.26-.64.84.84,0,0,1,.62-.27.86.86,0,0,1,.62.27.88.88,0,0,1,.26.64A.8.8,0,0,1,411.69,752.26Zm-1.28,2.47h1.32v10.53h-1.32Z"/><path class="cls-3" d="M417.36,759v6.27H416V754.73h1.32v1.54a3.67,3.67,0,0,1,3.35-1.79,4,4,0,0,1,3,1.16,4.23,4.23,0,0,1,1.13,3.11v6.51h-1.3V759a3.41,3.41,0,0,0-.82-2.42,3.38,3.38,0,0,0-4.55,0A3.42,3.42,0,0,0,417.36,759Z"/><path class="cls-3" d="M429,768.52l.68-1a6.21,6.21,0,0,0,3.7,1.12,3.61,3.61,0,0,0,4-4V763a4.51,4.51,0,0,1-4.12,2.35,4.71,4.71,0,0,1-3.63-1.58,5.8,5.8,0,0,1,0-7.72,4.76,4.76,0,0,1,3.63-1.56,4.53,4.53,0,0,1,4.12,2.28v-2.06h1.3v9.79a4.75,4.75,0,0,1-5.24,5.3A7,7,0,0,1,429,768.52Zm4.42-4.36a3.61,3.61,0,0,0,2.82-1.25,4.3,4.3,0,0,0,1.12-3,4.34,4.34,0,0,0-1.12-3,3.91,3.91,0,0,0-5.66,0,4.53,4.53,0,0,0,0,6A3.64,3.64,0,0,0,433.4,764.16Z"/><path class="cls-3" d="M342.23,791.26h-1.32v-14.1h4.89a5.3,5.3,0,0,1,3.47,1.1,4,4,0,0,1,.35,5.57,4.54,4.54,0,0,1-2.64,1.36l3.81,6.07h-1.52l-3.69-6h-3.35Zm3.68-12.91h-3.68v5.76h3.68a3.51,3.51,0,0,0,2.4-.79,2.83,2.83,0,0,0,0-4.18A3.51,3.51,0,0,0,345.91,778.35Z"/><path class="cls-3" d="M359,791.51a5.13,5.13,0,0,1-3.88-1.61,5.38,5.38,0,0,1-1.54-3.92,5.54,5.54,0,0,1,1.48-3.91,4.73,4.73,0,0,1,3.65-1.59,4.78,4.78,0,0,1,3.61,1.54,5.3,5.3,0,0,1,1.45,3.77,4.52,4.52,0,0,1,0,.55H354.9a4.28,4.28,0,0,0,1.28,2.86,3.89,3.89,0,0,0,2.86,1.14,4.45,4.45,0,0,0,3.26-1.25l.7.9A5.28,5.28,0,0,1,359,791.51Zm2.22-8.88a3.38,3.38,0,0,0-2.51-1,3.5,3.5,0,0,0-2.57,1,4.41,4.41,0,0,0-1.24,2.71h7.53A4.64,4.64,0,0,0,361.22,782.63Z"/><path class="cls-3" d="M368.15,782.05a1.38,1.38,0,0,0-.64,1.18,1.34,1.34,0,0,0,.66,1.17,4.71,4.71,0,0,0,1.56.73l.61.17.59.19a5.91,5.91,0,0,1,.64.24l.55.26a2.49,2.49,0,0,1,.55.33,4.45,4.45,0,0,0,.42.39,1.32,1.32,0,0,1,.37.49c.07.17.13.37.2.58a2.17,2.17,0,0,1,.1.69,2.67,2.67,0,0,1-1.05,2.21,4.42,4.42,0,0,1-2.82.83,4.91,4.91,0,0,1-4.07-1.7l.85-.86a3.84,3.84,0,0,0,3.3,1.46,2.93,2.93,0,0,0,1.83-.52,1.66,1.66,0,0,0,.66-1.38,1.39,1.39,0,0,0-.2-.72,2.2,2.2,0,0,0-.44-.54,3.15,3.15,0,0,0-.72-.43,7.73,7.73,0,0,0-.81-.33l-1-.31-.91-.28a3.68,3.68,0,0,1-1.59-1,2.4,2.4,0,0,1-.61-1.64,2.42,2.42,0,0,1,1-2,4.07,4.07,0,0,1,2.62-.79,4.16,4.16,0,0,1,3.68,1.54l-.86.8a3.34,3.34,0,0,0-2.8-1.24A2.78,2.78,0,0,0,368.15,782.05Z"/><path class="cls-3" d="M377,795.58V780.73h1.32v2.06A4.91,4.91,0,0,1,380,781.1a4.65,4.65,0,0,1,2.36-.62,4.85,4.85,0,0,1,3.68,1.59,6,6,0,0,1,0,7.85,4.88,4.88,0,0,1-3.7,1.59,4.53,4.53,0,0,1-4.09-2.27v6.34ZM385.13,783a3.82,3.82,0,0,0-5.67,0,4.43,4.43,0,0,0-1.15,3.08,4.19,4.19,0,0,0,1.15,3,3.86,3.86,0,0,0,5.67,0,4.32,4.32,0,0,0,1.12-3A4.5,4.5,0,0,0,385.13,783Z"/><path class="cls-3" d="M399.28,789.9a5.21,5.21,0,0,1-7.53,0,5.53,5.53,0,0,1-1.51-3.92,5.46,5.46,0,0,1,1.51-3.89,5.21,5.21,0,0,1,7.53,0A5.47,5.47,0,0,1,400.8,786,5.54,5.54,0,0,1,399.28,789.9Zm-6.6-.88a3.67,3.67,0,0,0,2.86,1.28,3.63,3.63,0,0,0,2.84-1.28A4.48,4.48,0,0,0,399.5,786a4.3,4.3,0,0,0-1.12-3,3.9,3.9,0,0,0-5.7,0,4.23,4.23,0,0,0-1.15,3A4.34,4.34,0,0,0,392.68,789Z"/><path class="cls-3" d="M405.61,785v6.27h-1.32V780.73h1.32v1.54a3.68,3.68,0,0,1,3.35-1.79,4,4,0,0,1,3,1.16,4.23,4.23,0,0,1,1.13,3.11v6.51h-1.29V785a3.42,3.42,0,0,0-.83-2.42,3.38,3.38,0,0,0-4.55,0A3.42,3.42,0,0,0,405.61,785Z"/><path class="cls-3" d="M418.33,782.05a1.38,1.38,0,0,0-.64,1.18,1.34,1.34,0,0,0,.66,1.17,4.71,4.71,0,0,0,1.56.73l.61.17.59.19a5.91,5.91,0,0,1,.64.24l.55.26a2.27,2.27,0,0,1,.55.33l.42.39a1.32,1.32,0,0,1,.37.49c.07.17.13.37.2.58a2.17,2.17,0,0,1,.1.69,2.69,2.69,0,0,1-1,2.21,4.45,4.45,0,0,1-2.83.83,4.91,4.91,0,0,1-4.07-1.7l.86-.86a3.82,3.82,0,0,0,3.3,1.46,2.92,2.92,0,0,0,1.82-.52,1.66,1.66,0,0,0,.66-1.38,1.31,1.31,0,0,0-.2-.72,2.2,2.2,0,0,0-.44-.54,3.15,3.15,0,0,0-.72-.43c-.33-.15-.59-.26-.8-.33l-1-.31-.9-.28a3.71,3.71,0,0,1-1.6-1,2.39,2.39,0,0,1-.6-1.64,2.42,2.42,0,0,1,1-2,4,4,0,0,1,2.61-.79A4.16,4.16,0,0,1,423.7,782l-.86.8a3.33,3.33,0,0,0-2.79-1.24A2.79,2.79,0,0,0,418.33,782.05Z"/><path class="cls-3" d="M431.77,791.51a5.09,5.09,0,0,1-3.87-1.61,5.34,5.34,0,0,1-1.54-3.92,5.57,5.57,0,0,1,1.47-3.91,5,5,0,0,1,7.26-.05,5.31,5.31,0,0,1,1.46,3.77,5,5,0,0,1-.05.55h-8.82A4.23,4.23,0,0,0,429,789.2a3.87,3.87,0,0,0,2.85,1.14,4.43,4.43,0,0,0,3.26-1.25l.7.9A5.27,5.27,0,0,1,431.77,791.51Zm2.22-8.88a3.36,3.36,0,0,0-2.51-1,3.5,3.5,0,0,0-2.57,1,4.34,4.34,0,0,0-1.23,2.71h7.52A4.58,4.58,0,0,0,434,782.63Z"/><path class="cls-3" d="M440.92,782.05a1.39,1.39,0,0,0-.63,1.18,1.34,1.34,0,0,0,.66,1.17,4.71,4.71,0,0,0,1.56.73l.6.17.6.19a4.78,4.78,0,0,1,.63.24l.56.26a2.15,2.15,0,0,1,.54.33l.42.39a1.36,1.36,0,0,1,.38.49c.06.17.13.37.19.58a2.17,2.17,0,0,1,.1.69,2.66,2.66,0,0,1-1,2.21,4.45,4.45,0,0,1-2.83.83,4.92,4.92,0,0,1-4.07-1.7l.86-.86a3.84,3.84,0,0,0,3.3,1.46,2.93,2.93,0,0,0,1.83-.52,1.66,1.66,0,0,0,.66-1.38,1.39,1.39,0,0,0-.2-.72,2.2,2.2,0,0,0-.44-.54,3.26,3.26,0,0,0-.73-.43,7.7,7.7,0,0,0-.8-.33l-1-.31-.9-.28a3.77,3.77,0,0,1-1.6-1,2.39,2.39,0,0,1-.6-1.64,2.42,2.42,0,0,1,1-2,4.05,4.05,0,0,1,2.62-.79,4.14,4.14,0,0,1,3.67,1.54l-.86.8a3.31,3.31,0,0,0-2.79-1.24A2.81,2.81,0,0,0,440.92,782.05Z"/><path class="cls-3" d="M341,1289.85l-.85,1a6.42,6.42,0,0,0-4-1.39,5.47,5.47,0,0,0-4.07,1.76,6.07,6.07,0,0,0-1.69,4.29,5.81,5.81,0,0,0,1.71,4.23,5.67,5.67,0,0,0,4.22,1.76,5.83,5.83,0,0,0,3.9-1.32l.84.94a7.05,7.05,0,0,1-4.84,1.65,6.84,6.84,0,0,1-5.11-2.13,7.07,7.07,0,0,1-2.09-5.13,7.21,7.21,0,0,1,2.09-5.19,6.76,6.76,0,0,1,5-2.13A7.34,7.34,0,0,1,341,1289.85Z"/><path class="cls-3" d="M345.27,1296.29v6.27H344v-15.13h1.32v6.13a3.67,3.67,0,0,1,3.34-1.78,4.07,4.07,0,0,1,3,1.16,4.26,4.26,0,0,1,1.13,3.11v6.51h-1.3v-6.27a3.41,3.41,0,0,0-.82-2.42,3.39,3.39,0,0,0-4.56,0A3.41,3.41,0,0,0,345.27,1296.29Z"/><path class="cls-3" d="M361.44,1302.8a5.08,5.08,0,0,1-3.87-1.6,5.34,5.34,0,0,1-1.54-3.92,5.57,5.57,0,0,1,1.47-3.91,5,5,0,0,1,7.26,0,5.27,5.27,0,0,1,1.45,3.76,4.27,4.27,0,0,1,0,.55h-8.82a4.22,4.22,0,0,0,1.27,2.86,3.87,3.87,0,0,0,2.86,1.15,4.4,4.4,0,0,0,3.26-1.26l.7.91A5.26,5.26,0,0,1,361.44,1302.8Zm2.22-8.87a3.36,3.36,0,0,0-2.51-1,3.5,3.5,0,0,0-2.57,1,4.34,4.34,0,0,0-1.23,2.71h7.52A4.59,4.59,0,0,0,363.66,1293.93Z"/><path class="cls-3" d="M377.81,1293.17l-.77.94a4.34,4.34,0,0,0-3-1.12,3.88,3.88,0,0,0-2.93,1.23,4.26,4.26,0,0,0-1.14,3,4.33,4.33,0,0,0,1.14,3.06,3.73,3.73,0,0,0,2.89,1.27,4.16,4.16,0,0,0,3.08-1.12l.7,1a5.06,5.06,0,0,1-3.81,1.38,5,5,0,0,1-3.78-1.6,5.56,5.56,0,0,1-1.52-3.92,5.46,5.46,0,0,1,1.54-3.91,5,5,0,0,1,3.81-1.59A5.16,5.16,0,0,1,377.81,1293.17Z"/><path class="cls-3" d="M381.83,1302.56h-1.32v-15.13h1.32v9l3.52-4.4h1.54L383,1297l4.09,5.61h-1.61l-3.58-4.93h-.05Z"/><path class="cls-3" d="M390.32,1293.19h-1.65V1292h1.65v-2.5h1.3v2.5h3.13v1.17h-3.11v6.53c0,1.25.55,1.87,1.65,1.87a2.18,2.18,0,0,0,1.5-.57l.64,1a3.24,3.24,0,0,1-2.25.79,2.77,2.77,0,0,1-2.12-.77,3.12,3.12,0,0,1-.74-2.24Z"/><path class="cls-3" d="M399.45,1296.34v6.22h-1.32V1292h1.32v1.46a2.9,2.9,0,0,1,2.69-1.7,2.54,2.54,0,0,1,1.56.42l-.55,1.21a2.33,2.33,0,0,0-1.34-.4,2,2,0,0,0-1.73.89A4.18,4.18,0,0,0,399.45,1296.34Z"/><path class="cls-3" d="M407.64,1289.56a.87.87,0,0,1-.62.26.85.85,0,0,1-.61-.26.8.8,0,0,1-.27-.62.83.83,0,0,1,.27-.63.82.82,0,0,1,.61-.27.84.84,0,0,1,.62.27.86.86,0,0,1,.26.63A.82.82,0,0,1,407.64,1289.56Zm-1.28,2.46h1.32v10.54h-1.32Z"/><path class="cls-3" d="M412,1305.82l.68-1a6.15,6.15,0,0,0,3.7,1.13,3.61,3.61,0,0,0,4-4v-1.58a4.51,4.51,0,0,1-4.12,2.35,4.74,4.74,0,0,1-3.63-1.58,5.8,5.8,0,0,1,0-7.72,4.73,4.73,0,0,1,3.63-1.57,4.54,4.54,0,0,1,4.12,2.29V1292h1.3v9.79a4.77,4.77,0,0,1-5.24,5.31A7,7,0,0,1,412,1305.82Zm4.42-4.36a3.65,3.65,0,0,0,2.82-1.25,4.59,4.59,0,0,0,0-6,3.91,3.91,0,0,0-5.66,0,4.53,4.53,0,0,0,0,6A3.66,3.66,0,0,0,416.46,1301.46Z"/><path class="cls-3" d="M426.05,1305.82l.68-1a6.17,6.17,0,0,0,3.7,1.13,3.6,3.6,0,0,0,4-4v-1.58a4.51,4.51,0,0,1-4.11,2.35,4.74,4.74,0,0,1-3.63-1.58,5.77,5.77,0,0,1,0-7.72,4.73,4.73,0,0,1,3.63-1.57,4.51,4.51,0,0,1,4.11,2.29V1292h1.3v9.79a4.75,4.75,0,0,1-5.24,5.31A7.06,7.06,0,0,1,426.05,1305.82Zm4.42-4.36a3.65,3.65,0,0,0,2.82-1.25,4.59,4.59,0,0,0,0-6,3.9,3.9,0,0,0-5.65,0,4.5,4.5,0,0,0,0,6A3.64,3.64,0,0,0,430.47,1301.46Z"/><path class="cls-3" d="M444.62,1302.8a5.08,5.08,0,0,1-3.87-1.6,5.34,5.34,0,0,1-1.54-3.92,5.57,5.57,0,0,1,1.47-3.91,5,5,0,0,1,7.26,0,5.27,5.27,0,0,1,1.45,3.76,4.27,4.27,0,0,1,0,.55h-8.82a4.22,4.22,0,0,0,1.27,2.86,3.87,3.87,0,0,0,2.86,1.15,4.4,4.4,0,0,0,3.26-1.26l.7.91A5.26,5.26,0,0,1,444.62,1302.8Zm2.22-8.87a3.36,3.36,0,0,0-2.51-1,3.5,3.5,0,0,0-2.57,1,4.34,4.34,0,0,0-1.23,2.71h7.52A4.59,4.59,0,0,0,446.84,1293.93Z"/><path class="cls-3" d="M454,1296.34v6.22h-1.32V1292H454v1.46a2.88,2.88,0,0,1,2.68-1.7,2.5,2.5,0,0,1,1.56.42l-.55,1.21a2.33,2.33,0,0,0-1.34-.4,2,2,0,0,0-1.73.89A4.26,4.26,0,0,0,454,1296.34Z"/><path class="cls-3" d="M532.31,1130.89h-8.8v-14.1h8.8V1118h-7.48v5.19h6.6v1.23h-6.6v5.22h7.48Z"/><path class="cls-3" d="M536.86,1124.62v6.27h-1.32v-10.54h1.32v1.54a3.65,3.65,0,0,1,3.34-1.78,4.06,4.06,0,0,1,3,1.15,4.28,4.28,0,0,1,1.13,3.12v6.51h-1.3v-6.27a3.4,3.4,0,0,0-.82-2.42,3.39,3.39,0,0,0-4.56,0A3.4,3.4,0,0,0,536.86,1124.62Z"/><path class="cls-3" d="M556.88,1122.42v-2.07h1.3v14.85h-1.3v-6.42a4.53,4.53,0,0,1-4.11,2.35,4.88,4.88,0,0,1-3.68-1.58,6,6,0,0,1,0-7.86,4.79,4.79,0,0,1,3.68-1.58A4.53,4.53,0,0,1,556.88,1122.42Zm-6.82,6.23a3.68,3.68,0,0,0,2.86,1.27,3.63,3.63,0,0,0,2.84-1.27,4.43,4.43,0,0,0,1.12-3.06,4.29,4.29,0,0,0-1.12-3,3.92,3.92,0,0,0-5.7,0,4.26,4.26,0,0,0-1.14,3A4.35,4.35,0,0,0,550.06,1128.65Z"/><path class="cls-3" d="M562,1120.35h1.29v5.94a3.69,3.69,0,0,0,.86,2.55,2.9,2.9,0,0,0,2.29,1,3,3,0,0,0,2.31-1,3.61,3.61,0,0,0,.88-2.55v-5.94h1.3v6.07a4.58,4.58,0,0,1-1.23,3.35,4.4,4.4,0,0,1-3.26,1.25,4.29,4.29,0,0,1-3.22-1.25,4.57,4.57,0,0,1-1.22-3.35Z"/><path class="cls-3" d="M579.45,1131.13a5.08,5.08,0,0,1-3.87-1.6,5.36,5.36,0,0,1-1.54-3.92,5.6,5.6,0,0,1,1.47-3.92,5,5,0,0,1,7.26,0,5.28,5.28,0,0,1,1.46,3.76,4.79,4.79,0,0,1-.05.55h-8.82a4.19,4.19,0,0,0,1.28,2.86,3.87,3.87,0,0,0,2.85,1.15,4.4,4.4,0,0,0,3.26-1.26l.7.9A5.23,5.23,0,0,1,579.45,1131.13Zm2.22-8.88a3.4,3.4,0,0,0-2.51-1,3.51,3.51,0,0,0-2.57,1.06,4.32,4.32,0,0,0-1.23,2.71h7.52A4.58,4.58,0,0,0,581.67,1122.25Z"/><path class="cls-3" d="M587,1120.35h1.29v5.94a3.69,3.69,0,0,0,.86,2.55,2.9,2.9,0,0,0,2.29,1,3,3,0,0,0,2.31-1,3.61,3.61,0,0,0,.88-2.55v-5.94h1.3v6.07a4.58,4.58,0,0,1-1.23,3.35,4.4,4.4,0,0,1-3.26,1.25,4.29,4.29,0,0,1-3.22-1.25,4.57,4.57,0,0,1-1.22-3.35Z"/><path class="cls-3" d="M604.42,1131.13a5.08,5.08,0,0,1-3.87-1.6,5.36,5.36,0,0,1-1.54-3.92,5.6,5.6,0,0,1,1.47-3.92,4.78,4.78,0,0,1,3.66-1.58,4.73,4.73,0,0,1,3.6,1.54,5.28,5.28,0,0,1,1.46,3.76,4.79,4.79,0,0,1-.05.55h-8.82a4.19,4.19,0,0,0,1.28,2.86,3.88,3.88,0,0,0,2.86,1.15,4.38,4.38,0,0,0,3.25-1.26l.71.9A5.27,5.27,0,0,1,604.42,1131.13Zm2.22-8.88a3.39,3.39,0,0,0-2.5-1,3.53,3.53,0,0,0-2.58,1.06,4.32,4.32,0,0,0-1.23,2.71h7.52A4.58,4.58,0,0,0,606.64,1122.25Z"/><path class="cls-3" d="M999.78,1413l3.9-12.43h1.38l-4.57,14.1H998.9l-3.83-12.38-3.84,12.38h-1.55l-4.57-14.1h1.45l3.92,12.45,3.8-12.45h1.65Z"/><path class="cls-3" d="M1009.33,1408.37v6.27H1008v-15.13h1.32v6.14a3.66,3.66,0,0,1,3.34-1.79,4.05,4.05,0,0,1,3,1.16,4.23,4.23,0,0,1,1.13,3.11v6.51h-1.3v-6.27a3.41,3.41,0,0,0-.82-2.42,3,3,0,0,0-2.28-.88,3,3,0,0,0-2.28.88A3.46,3.46,0,0,0,1009.33,1408.37Z"/><path class="cls-3" d="M1022.18,1401.64a.83.83,0,0,1-.62.26.81.81,0,0,1-.61-.26.79.79,0,0,1-.27-.61.85.85,0,0,1,.27-.64.82.82,0,0,1,.61-.27.84.84,0,0,1,.62.27.88.88,0,0,1,.26.64A.82.82,0,0,1,1022.18,1401.64Zm-1.28,2.47h1.32v10.53h-1.32Z"/><path class="cls-3" d="M1027.85,1414.64h-1.32v-15.13h1.32Z"/><path class="cls-3" d="M1036.76,1414.89a5.09,5.09,0,0,1-3.87-1.61,5.38,5.38,0,0,1-1.54-3.92,5.54,5.54,0,0,1,1.48-3.91,4.71,4.71,0,0,1,3.65-1.59,4.8,4.8,0,0,1,3.61,1.54,5.32,5.32,0,0,1,1.45,3.76,4.93,4.93,0,0,1,0,.56h-8.82a4.23,4.23,0,0,0,1.28,2.85,3.84,3.84,0,0,0,2.86,1.15,4.41,4.41,0,0,0,3.25-1.25l.71.9A5.29,5.29,0,0,1,1036.76,1414.89ZM1039,1406a3.34,3.34,0,0,0-2.5-1,3.54,3.54,0,0,0-2.58,1,4.34,4.34,0,0,0-1.23,2.71h7.53A4.59,4.59,0,0,0,1039,1406Z"/><path class="cls-3" d="M1045.27,1413.58a11.5,11.5,0,0,1-1.16-5,11.36,11.36,0,0,1,1.16-5,13.66,13.66,0,0,1,3.26-4.25l.8.75a12,12,0,0,0-2.89,3.92,10.92,10.92,0,0,0,0,9.26,11.92,11.92,0,0,0,2.89,3.91l-.8.75A13.55,13.55,0,0,1,1045.27,1413.58Z"/><path class="cls-3" d="M1052.27,1405.27h-1.65v-1.16h1.65v-2.51h1.3v2.51h3.13v1.16h-3.11v6.54c0,1.24.55,1.87,1.65,1.87a2.21,2.21,0,0,0,1.5-.58l.64,1a3.24,3.24,0,0,1-2.25.8,2.81,2.81,0,0,1-2.12-.77,3.16,3.16,0,0,1-.74-2.25Z"/><path class="cls-3" d="M1061.4,1408.42v6.22h-1.32v-10.53h1.32v1.45a2.89,2.89,0,0,1,2.69-1.7,2.54,2.54,0,0,1,1.56.42l-.55,1.21a2.32,2.32,0,0,0-1.34-.39,2,2,0,0,0-1.73.89A4.12,4.12,0,0,0,1061.4,1408.42Z"/><path class="cls-3" d="M1066.6,1404.11H1068l4,9.06,3.41-9.06h1.32l-4.77,12.58c-.62,1.67-1.61,2.51-3,2.51a3.26,3.26,0,0,1-2.2-.84l.64-1a2.35,2.35,0,0,0,1.62.64,1.37,1.37,0,0,0,1-.4,3.76,3.76,0,0,0,.8-1.36l.55-1.45Z"/><path class="cls-3" d="M1087.82,1406.17v-6.66h1.3v15.13h-1.3v-2.11a4.54,4.54,0,0,1-4.11,2.36,4.85,4.85,0,0,1-3.67-1.59,5.94,5.94,0,0,1,0-7.85,4.76,4.76,0,0,1,3.67-1.59A4.51,4.51,0,0,1,1087.82,1406.17Zm-6.81,6.23a3.67,3.67,0,0,0,2.86,1.28,3.6,3.6,0,0,0,2.83-1.28,4.43,4.43,0,0,0,1.12-3.06,4.25,4.25,0,0,0-1.12-3,3.88,3.88,0,0,0-5.69,0,4.19,4.19,0,0,0-1.15,3A4.29,4.29,0,0,0,1081,1412.4Z"/><path class="cls-3" d="M1098,1414.89a5.09,5.09,0,0,1-3.87-1.61,5.38,5.38,0,0,1-1.54-3.92,5.54,5.54,0,0,1,1.48-3.91,4.71,4.71,0,0,1,3.65-1.59,4.8,4.8,0,0,1,3.61,1.54,5.32,5.32,0,0,1,1.45,3.76,4.93,4.93,0,0,1,0,.56h-8.82a4.23,4.23,0,0,0,1.28,2.85,3.84,3.84,0,0,0,2.86,1.15,4.41,4.41,0,0,0,3.25-1.25l.71.9A5.31,5.31,0,0,1,1098,1414.89Zm2.22-8.88a3.34,3.34,0,0,0-2.5-1,3.52,3.52,0,0,0-2.58,1,4.34,4.34,0,0,0-1.23,2.71h7.53A4.65,4.65,0,0,0,1100.25,1406Z"/><path class="cls-3" d="M1114.49,1406.17v-2.06h1.3V1419h-1.3v-6.43a4.55,4.55,0,0,1-4.11,2.36,4.85,4.85,0,0,1-3.68-1.59,6,6,0,0,1,0-7.85,4.76,4.76,0,0,1,3.68-1.59A4.53,4.53,0,0,1,1114.49,1406.17Zm-6.82,6.23a3.69,3.69,0,0,0,2.86,1.28,3.63,3.63,0,0,0,2.84-1.28,4.43,4.43,0,0,0,1.12-3.06,4.25,4.25,0,0,0-1.12-3,3.9,3.9,0,0,0-5.7,0,4.23,4.23,0,0,0-1.15,3A4.34,4.34,0,0,0,1107.67,1412.4Z"/><path class="cls-3" d="M1119.61,1404.11h1.3v5.94a3.73,3.73,0,0,0,.86,2.55,2.92,2.92,0,0,0,2.29,1,3,3,0,0,0,2.31-1,3.64,3.64,0,0,0,.88-2.55v-5.94h1.3v6.07a4.52,4.52,0,0,1-1.24,3.34,4.8,4.8,0,0,1-6.48,0,4.59,4.59,0,0,1-1.22-3.34Z"/><path class="cls-3" d="M1137.06,1414.89a5.09,5.09,0,0,1-3.87-1.61,5.34,5.34,0,0,1-1.54-3.92,5.57,5.57,0,0,1,1.47-3.91,5,5,0,0,1,7.26,0,5.27,5.27,0,0,1,1.45,3.76,4.53,4.53,0,0,1,0,.56H1133a4.22,4.22,0,0,0,1.27,2.85,3.87,3.87,0,0,0,2.86,1.15,4.43,4.43,0,0,0,3.26-1.25l.7.9A5.27,5.27,0,0,1,1137.06,1414.89Zm2.22-8.88a3.36,3.36,0,0,0-2.51-1,3.5,3.5,0,0,0-2.57,1,4.34,4.34,0,0,0-1.23,2.71h7.52A4.58,4.58,0,0,0,1139.28,1406Z"/><path class="cls-3" d="M1144.58,1404.11h1.3v5.94a3.73,3.73,0,0,0,.86,2.55,2.92,2.92,0,0,0,2.29,1,3,3,0,0,0,2.31-1,3.64,3.64,0,0,0,.88-2.55v-5.94h1.3v6.07a4.56,4.56,0,0,1-1.23,3.34,4.37,4.37,0,0,1-3.26,1.26,4.26,4.26,0,0,1-3.22-1.26,4.56,4.56,0,0,1-1.23-3.34Z"/><path class="cls-3" d="M1162,1414.89a5.09,5.09,0,0,1-3.87-1.61,5.34,5.34,0,0,1-1.54-3.92,5.57,5.57,0,0,1,1.47-3.91,5,5,0,0,1,7.26,0,5.28,5.28,0,0,1,1.46,3.76,4.93,4.93,0,0,1,0,.56h-8.82a4.19,4.19,0,0,0,1.28,2.85,3.84,3.84,0,0,0,2.85,1.15,4.43,4.43,0,0,0,3.26-1.25l.7.9A5.27,5.27,0,0,1,1162,1414.89Zm2.22-8.88a3.36,3.36,0,0,0-2.51-1,3.5,3.5,0,0,0-2.57,1,4.34,4.34,0,0,0-1.23,2.71h7.52A4.64,4.64,0,0,0,1164.25,1406Z"/><path class="cls-3" d="M1172.34,1403.49a11.35,11.35,0,0,1,1.15,5,11.49,11.49,0,0,1-1.15,5,13.43,13.43,0,0,1-3.27,4.25l-.79-.75a12,12,0,0,0,2.88-3.91,10.92,10.92,0,0,0,0-9.26,12.07,12.07,0,0,0-2.88-3.92l.79-.75A13.54,13.54,0,0,1,1172.34,1403.49Z"/><rect class="cls-5" x="1315.54" y="192.94" width="40.95" height="103.38" rx="3.3"/><path class="cls-7" d="M1297.27,283.26h77.5a2.15,2.15,0,0,1,1.79,3.34l-38.75,58.53a2.15,2.15,0,0,1-3.58,0l-38.76-58.53A2.16,2.16,0,0,1,1297.27,283.26Z"/><rect class="cls-5" x="1315.54" y="457.82" width="40.95" height="103.38" rx="3.3"/><path class="cls-7" d="M1297.27,548.14h77.5a2.15,2.15,0,0,1,1.79,3.34L1337.81,610a2.15,2.15,0,0,1-3.58,0l-38.76-58.53A2.16,2.16,0,0,1,1297.27,548.14Z"/><rect class="cls-5" x="1315.54" y="722.04" width="40.95" height="103.38" rx="3.3"/><path class="cls-7" d="M1297.27,812.36h77.5a2.15,2.15,0,0,1,1.79,3.34l-38.75,58.53a2.15,2.15,0,0,1-3.58,0l-38.76-58.53A2.16,2.16,0,0,1,1297.27,812.36Z"/><rect class="cls-5" x="1315.54" y="985.6" width="40.95" height="103.38" rx="3.3"/><path class="cls-7" d="M1297.27,1075.92h77.5a2.15,2.15,0,0,1,1.79,3.34l-38.75,58.53a2.15,2.15,0,0,1-3.58,0l-38.76-58.53A2.16,2.16,0,0,1,1297.27,1075.92Z"/><rect class="cls-5" x="252.5" y="720.06" width="40.95" height="103.38" rx="3.3"/><path class="cls-7" d="M234.23,810.38h77.5a2.15,2.15,0,0,1,1.8,3.33l-38.76,58.54a2.15,2.15,0,0,1-3.58,0l-38.75-58.54A2.15,2.15,0,0,1,234.23,810.38Z"/><rect class="cls-5" x="252.5" y="985.6" width="40.95" height="103.38" rx="3.3"/><path class="cls-7" d="M234.23,1075.92h77.5a2.16,2.16,0,0,1,1.8,3.34l-38.76,58.53a2.15,2.15,0,0,1-3.58,0l-38.75-58.53A2.15,2.15,0,0,1,234.23,1075.92Z"/><rect class="cls-5" x="496.97" y="1142.21" width="40.95" height="103.38" rx="3.3" transform="translate(-676.45 1711.34) rotate(-90)"/><path class="cls-7" d="M556.08,1232.65v-77.51a2.15,2.15,0,0,1,3.34-1.79L618,1192.11a2.15,2.15,0,0,1,0,3.58l-58.53,38.75A2.15,2.15,0,0,1,556.08,1232.65Z"/><rect class="cls-5" x="252.5" y="1251.14" width="40.95" height="103.38" rx="3.3"/><path class="cls-7" d="M234.23,1341.46h77.5a2.16,2.16,0,0,1,1.8,3.34l-38.76,58.53a2.15,2.15,0,0,1-3.58,0l-38.75-58.53A2.15,2.15,0,0,1,234.23,1341.46Z"/></g></svg>