<svg xmlns="http://www.w3.org/2000/svg" viewBox="0 0 1606 850"><defs><style>.cls-1{fill:#fff;}.cls-2{fill:#e5f5fc;stroke:#e5f5fc;stroke-width:1.55px;}.cls-2,.cls-4,.cls-5{stroke-miterlimit:10;}.cls-3,.cls-6{fill:#00517c;}.cls-4,.cls-5,.cls-7{fill:none;}.cls-4,.cls-5,.cls-6,.cls-7{stroke:#00517c;}.cls-4{stroke-width:1.5px;}.cls-5,.cls-6,.cls-7{stroke-linecap:round;stroke-width:2px;}.cls-6,.cls-7{stroke-linejoin:round;}</style></defs><g id="Layer_2" data-name="Layer 2"><rect class="cls-1" x="-82.79" y="-61.85" width="3442.78" height="2628.99"/><rect class="cls-2" x="52.56" y="172.43" width="89.15" height="646.7"/><rect class="cls-2" x="413.09" y="173.1" width="89.15" height="646.7"/><rect class="cls-2" x="773.43" y="173.1" width="89.15" height="646.7"/><rect class="cls-2" x="1133.62" y="173.1" width="89.15" height="646.7"/><rect class="cls-2" x="1492.55" y="173.1" width="89.15" height="646.7"/><path class="cls-3" d="M1106.3,136.14a8.23,8.23,0,0,1,11.72,0,8.08,8.08,0,0,1,2.43,5.92,8.37,8.37,0,0,1-4,7.18l3.75,2-1.45,2.47-5.8-3.37c-.12,0-.37,0-.75,0a8.37,8.37,0,0,1-5.85-14.27Zm5.85,11.15a4.66,4.66,0,0,0,3.52-1.53,5.47,5.47,0,0,0,0-7.42,4.79,4.79,0,0,0-7,0,5.45,5.45,0,0,0,0,7.4A4.68,4.68,0,0,0,1112.15,147.29Z"/><path class="cls-3" d="M1138.5,150.06H1135l-1.37-3.6h-7l-1.4,3.6H1122l6.45-16h3.65Zm-10.83-6.37h4.9l-2.45-6.35Z"/><path class="cls-3" d="M1150.87,139.54l-1.75,2.17a4,4,0,0,0-2.82-1.1,3.18,3.18,0,0,0-2.41,1,3.4,3.4,0,0,0-.94,2.47,3.46,3.46,0,0,0,.94,2.49,3.13,3.13,0,0,0,2.38,1,4,4,0,0,0,3-1.18l1.55,2.25a5.12,5.12,0,0,1-2,1.31,6.87,6.87,0,0,1-2.6.49,6.36,6.36,0,0,1-4.48-10.82,5.92,5.92,0,0,1,4.43-1.85A6.22,6.22,0,0,1,1150.87,139.54Z"/><path class="cls-3" d="M1153.92,140.79h-2.1v-2.7H1154v-2.35l3-.75v3.1h3.25v2.7H1157v5.07q0,1.68,1.38,1.68a1.77,1.77,0,0,0,1.4-.6l1.37,2.27a4.51,4.51,0,0,1-3.27,1.2,3.77,3.77,0,0,1-2.93-1.16,4.74,4.74,0,0,1-1-3.29Z"/><path class="cls-3" d="M1164.87,136.46a1.74,1.74,0,0,1-1.25-.51,1.68,1.68,0,0,1-.52-1.26,1.75,1.75,0,0,1,.52-1.27,1.72,1.72,0,0,1,1.25-.53,1.79,1.79,0,0,1,1.8,1.8,1.68,1.68,0,0,1-.52,1.26A1.77,1.77,0,0,1,1164.87,136.46Zm-1.5,1.63h3.05v12h-3.05Z"/><path class="cls-3" d="M1179.85,148.56a6.07,6.07,0,0,1-4.43,1.85,5.92,5.92,0,0,1-4.4-1.85,6.11,6.11,0,0,1-1.82-4.47,6.18,6.18,0,0,1,1.82-4.5,5.88,5.88,0,0,1,4.4-1.85,6,6,0,0,1,4.43,1.85,6.18,6.18,0,0,1,1.82,4.5A6.11,6.11,0,0,1,1179.85,148.56Zm-4.4-1a2.85,2.85,0,0,0,2.25-1,3.78,3.78,0,0,0,0-4.9,2.92,2.92,0,0,0-2.25-1,3,3,0,0,0-2.28,1,3.72,3.72,0,0,0,0,4.9A2.89,2.89,0,0,0,1175.45,147.54Z"/><path class="cls-3" d="M1187.5,143.26v6.8h-3v-12h3v1.17a3.94,3.94,0,0,1,3.37-1.52,4.23,4.23,0,0,1,3.31,1.36,5.28,5.28,0,0,1,1.24,3.71v7.25h-3.05v-6.8a2.77,2.77,0,0,0-.66-1.94,2.59,2.59,0,0,0-3.56,0A2.76,2.76,0,0,0,1187.5,143.26Z"/><path class="cls-3" d="M1210.85,134v16h-3v-12.4l-2.55,2.48-1.83-2,4.3-4.07Z"/><path class="cls-3" d="M1220.42,134a5.81,5.81,0,0,1,4.25,1.65,5.47,5.47,0,0,1,1.7,4.08,6.43,6.43,0,0,1-.52,2.55,21.85,21.85,0,0,1-2,3.47l-3.23,4.63h-3.5l3.63-5.33a1,1,0,0,1-.3,0,5.81,5.81,0,0,1-4.23-1.58,5,5,0,0,1-1.65-3.77,5.5,5.5,0,0,1,1.68-4.1A5.78,5.78,0,0,1,1220.42,134Zm0,8.58a2.78,2.78,0,0,0,2-.83,2.86,2.86,0,0,0,0-4.05,2.78,2.78,0,0,0-2-.82,2.74,2.74,0,0,0-2,.82,2.94,2.94,0,0,0,0,4.05A2.74,2.74,0,0,0,1220.45,142.54Z"/><path class="cls-3" d="M1234.47,134a5.81,5.81,0,0,1,4.25,1.65,5.47,5.47,0,0,1,1.7,4.08,6.43,6.43,0,0,1-.52,2.55,21.85,21.85,0,0,1-2.05,3.47l-3.23,4.63h-3.5l3.63-5.33a1,1,0,0,1-.3,0,5.81,5.81,0,0,1-4.23-1.58,5,5,0,0,1-1.65-3.77,5.5,5.5,0,0,1,1.68-4.1A5.78,5.78,0,0,1,1234.47,134Zm0,8.58a2.78,2.78,0,0,0,2-.83,2.86,2.86,0,0,0,0-4.05,2.78,2.78,0,0,0-2-.82,2.74,2.74,0,0,0-2,.82,2.94,2.94,0,0,0,0,4.05A2.74,2.74,0,0,0,1234.5,142.54Z"/><path class="cls-3" d="M1248.52,134a5.81,5.81,0,0,1,4.25,1.65,5.47,5.47,0,0,1,1.7,4.08,6.43,6.43,0,0,1-.52,2.55,21.85,21.85,0,0,1-2,3.47l-3.23,4.63h-3.5l3.63-5.33a1,1,0,0,1-.3,0,5.81,5.81,0,0,1-4.23-1.58,5,5,0,0,1-1.65-3.77,5.5,5.5,0,0,1,1.68-4.1A5.78,5.78,0,0,1,1248.52,134Zm0,8.58a2.78,2.78,0,0,0,2-.83,2.86,2.86,0,0,0,0-4.05,2.78,2.78,0,0,0-2-.82,2.74,2.74,0,0,0-2,.82,2.94,2.94,0,0,0,0,4.05A2.74,2.74,0,0,0,1248.55,142.54Z"/><rect class="cls-4" x="1084.07" y="112.37" width="188.25" height="60.13" rx="5"/><path class="cls-3" d="M1502.82,136.14a8.23,8.23,0,0,1,11.72,0,8.08,8.08,0,0,1,2.43,5.92,8.37,8.37,0,0,1-4,7.18l3.75,2-1.45,2.47-5.8-3.37c-.12,0-.37,0-.75,0a8.37,8.37,0,0,1-5.85-14.27Zm5.85,11.15a4.66,4.66,0,0,0,3.52-1.53,5.47,5.47,0,0,0,0-7.42,4.79,4.79,0,0,0-7,0,5.45,5.45,0,0,0,0,7.4A4.68,4.68,0,0,0,1508.67,147.29Z"/><path class="cls-3" d="M1519.44,138.09h3v6.47a3.14,3.14,0,0,0,.7,2.11,2.35,2.35,0,0,0,1.85.82,2.32,2.32,0,0,0,1.85-.82,3.09,3.09,0,0,0,.7-2.11v-6.47h3.05v6.7a5.6,5.6,0,1,1-11.2,0Z"/><path class="cls-3" d="M1539.44,150.41a6.22,6.22,0,0,1-4.57-1.85,6.05,6.05,0,0,1-1.85-4.47,6.22,6.22,0,0,1,1.75-4.5,5.61,5.61,0,0,1,4.3-1.85,5.77,5.77,0,0,1,4.3,1.75,6,6,0,0,1,1.72,4.35,4.76,4.76,0,0,1-.07,1h-8.88a3.38,3.38,0,0,0,3.43,2.87,3.9,3.9,0,0,0,2.92-1.25l1.58,2.08a4.93,4.93,0,0,1-2,1.36A7,7,0,0,1,1539.44,150.41Zm-.32-10.07a2.77,2.77,0,0,0-1.88.68,3.58,3.58,0,0,0-1,1.89H1542a3.4,3.4,0,0,0-1-1.91A2.68,2.68,0,0,0,1539.12,140.34Z"/><path class="cls-3" d="M1547.29,138.09h3v6.47a3.14,3.14,0,0,0,.7,2.11,2.35,2.35,0,0,0,1.85.82,2.32,2.32,0,0,0,1.85-.82,3.09,3.09,0,0,0,.7-2.11v-6.47h3v6.7a5.47,5.47,0,0,1-1.52,4.05,5.62,5.62,0,0,1-9.68-4.05Z"/><path class="cls-3" d="M1567.29,150.41a6.22,6.22,0,0,1-4.57-1.85,6.09,6.09,0,0,1-1.85-4.47,6.22,6.22,0,0,1,1.75-4.5,5.61,5.61,0,0,1,4.3-1.85,5.77,5.77,0,0,1,4.3,1.75,6,6,0,0,1,1.72,4.35,4.76,4.76,0,0,1-.07,1H1564a3.38,3.38,0,0,0,3.43,2.87,3.9,3.9,0,0,0,2.92-1.25l1.58,2.08a4.93,4.93,0,0,1-2,1.36A7,7,0,0,1,1567.29,150.41Zm-.32-10.07a2.79,2.79,0,0,0-1.88.68,3.58,3.58,0,0,0-1,1.89h5.78a3.4,3.4,0,0,0-1-1.91A2.68,2.68,0,0,0,1567,140.34Z"/><rect class="cls-4" x="1479.39" y="112.37" width="115.48" height="60.13" rx="5"/><path class="cls-3" d="M163.25,225.47h-1.32v-14.1h4.89a5.3,5.3,0,0,1,3.47,1.1,4,4,0,0,1,.35,5.57A4.54,4.54,0,0,1,168,219.4l3.8,6.07h-1.52l-3.69-6h-3.35Zm3.68-12.91h-3.68v5.77h3.68a3.56,3.56,0,0,0,2.41-.8,2.86,2.86,0,0,0,0-4.18A3.6,3.6,0,0,0,166.93,212.56Z"/><path class="cls-3" d="M180,225.72a5.13,5.13,0,0,1-3.88-1.61,5.38,5.38,0,0,1-1.54-3.91,5.61,5.61,0,0,1,1.48-3.92,4.72,4.72,0,0,1,3.65-1.58,4.78,4.78,0,0,1,3.61,1.53,5.3,5.3,0,0,1,1.45,3.77,4.52,4.52,0,0,1,0,.55h-8.83a4.26,4.26,0,0,0,1.28,2.86,3.89,3.89,0,0,0,2.86,1.14,4.43,4.43,0,0,0,3.26-1.25l.7.9A5.28,5.28,0,0,1,180,225.72Zm2.22-8.88a3.38,3.38,0,0,0-2.51-1,3.5,3.5,0,0,0-2.57,1,4.41,4.41,0,0,0-1.24,2.71h7.53A4.64,4.64,0,0,0,182.24,216.84Z"/><path class="cls-3" d="M196.47,217v-2.06h1.3v14.85h-1.3v-6.43a4.54,4.54,0,0,1-4.11,2.36,4.83,4.83,0,0,1-3.67-1.59,5.94,5.94,0,0,1,0-7.85,4.73,4.73,0,0,1,3.67-1.58A4.52,4.52,0,0,1,196.47,217Zm-6.82,6.23a3.7,3.7,0,0,0,2.86,1.28,3.62,3.62,0,0,0,2.84-1.28,4.41,4.41,0,0,0,1.12-3.06,4.27,4.27,0,0,0-1.12-3,3.92,3.92,0,0,0-5.7,0,4.24,4.24,0,0,0-1.14,3A4.33,4.33,0,0,0,189.65,223.23Z"/><path class="cls-3" d="M201.6,214.94h1.3v5.94a3.68,3.68,0,0,0,.86,2.55,2.91,2.91,0,0,0,2.28,1,3,3,0,0,0,2.31-1,3.64,3.64,0,0,0,.88-2.55v-5.94h1.3V221a4.56,4.56,0,0,1-1.23,3.34,4.35,4.35,0,0,1-3.26,1.26,4.28,4.28,0,0,1-3.22-1.26A4.59,4.59,0,0,1,201.6,221Z"/><path class="cls-3" d="M219.05,225.72a5.11,5.11,0,0,1-3.88-1.61,5.38,5.38,0,0,1-1.54-3.91,5.56,5.56,0,0,1,1.48-3.92,4.72,4.72,0,0,1,3.65-1.58,4.78,4.78,0,0,1,3.61,1.53,5.3,5.3,0,0,1,1.45,3.77c0,.13,0,.31,0,.55H215a4.26,4.26,0,0,0,1.28,2.86,3.89,3.89,0,0,0,2.86,1.14,4.41,4.41,0,0,0,3.25-1.25l.71.9A5.28,5.28,0,0,1,219.05,225.72Zm2.22-8.88a3.38,3.38,0,0,0-2.51-1,3.54,3.54,0,0,0-2.58,1A4.45,4.45,0,0,0,215,219.6h7.53A4.64,4.64,0,0,0,221.27,216.84Z"/><path class="cls-3" d="M228.2,216.26a1.39,1.39,0,0,0-.64,1.19,1.33,1.33,0,0,0,.66,1.16,4.71,4.71,0,0,0,1.56.73l.61.17.59.19a5.91,5.91,0,0,1,.64.24l.55.27a1.9,1.9,0,0,1,.55.33c.09.09.23.22.42.38a1.38,1.38,0,0,1,.37.5c.07.16.13.36.2.57a2.5,2.5,0,0,1,.1.69,2.66,2.66,0,0,1-1.05,2.21,4.45,4.45,0,0,1-2.83.83,4.92,4.92,0,0,1-4.07-1.7l.86-.86a3.84,3.84,0,0,0,3.3,1.46,2.87,2.87,0,0,0,1.83-.52,1.65,1.65,0,0,0,.66-1.38,1.39,1.39,0,0,0-.2-.72,2.2,2.2,0,0,0-.44-.54,3,3,0,0,0-.73-.43c-.32-.15-.59-.25-.8-.33l-1-.31-.9-.28a3.68,3.68,0,0,1-1.59-1,2.35,2.35,0,0,1-.61-1.64,2.42,2.42,0,0,1,1-2,4,4,0,0,1,2.62-.78,4.13,4.13,0,0,1,3.67,1.53l-.85.8a3.37,3.37,0,0,0-2.8-1.24A2.78,2.78,0,0,0,228.2,216.26Z"/><path class="cls-3" d="M237.44,216.1h-1.65v-1.16h1.65v-2.51h1.29v2.51h3.13v1.16h-3.1v6.54c0,1.24.55,1.87,1.65,1.87a2.15,2.15,0,0,0,1.49-.57l.64,1a3.26,3.26,0,0,1-2.24.79,2.84,2.84,0,0,1-2.13-.77,3.14,3.14,0,0,1-.73-2.25Z"/><path class="cls-3" d="M259,217v-6.66h1.3v15.13H259v-2.11a4.54,4.54,0,0,1-4.11,2.36,4.83,4.83,0,0,1-3.67-1.59,5.94,5.94,0,0,1,0-7.85,4.75,4.75,0,0,1,3.67-1.58A4.5,4.5,0,0,1,259,217Zm-6.81,6.23a3.67,3.67,0,0,0,2.85,1.28,3.61,3.61,0,0,0,2.84-1.28,4.41,4.41,0,0,0,1.12-3.06,4.27,4.27,0,0,0-1.12-3,3.91,3.91,0,0,0-5.69,0,4.21,4.21,0,0,0-1.15,3A4.29,4.29,0,0,0,252.16,223.23Z"/><path class="cls-3" d="M274.33,225.47H273v-2.11a4.54,4.54,0,0,1-4.11,2.36,4.83,4.83,0,0,1-3.67-1.59,5.94,5.94,0,0,1,0-7.85,4.73,4.73,0,0,1,3.67-1.58A4.52,4.52,0,0,1,273,217v-2.06h1.3Zm-8.12-2.24a3.7,3.7,0,0,0,2.86,1.28,3.62,3.62,0,0,0,2.84-1.28,4.41,4.41,0,0,0,1.12-3.06,4.27,4.27,0,0,0-1.12-3,3.92,3.92,0,0,0-5.7,0,4.24,4.24,0,0,0-1.14,3A4.33,4.33,0,0,0,266.21,223.23Z"/><path class="cls-3" d="M279,216.1h-1.65v-1.16H279v-2.51h1.3v2.51h3.12v1.16h-3.1v6.54c0,1.24.55,1.87,1.65,1.87a2.15,2.15,0,0,0,1.49-.57l.64,1a3.24,3.24,0,0,1-2.24.79,2.8,2.8,0,0,1-2.12-.77,3.1,3.1,0,0,1-.74-2.25Z"/><path class="cls-3" d="M296.59,225.47H295.3v-2.11a4.57,4.57,0,0,1-4.12,2.36,4.85,4.85,0,0,1-3.67-1.59,5.94,5.94,0,0,1,0-7.85,4.75,4.75,0,0,1,3.67-1.58,4.53,4.53,0,0,1,4.12,2.3v-2.06h1.29Zm-8.11-2.24a3.67,3.67,0,0,0,2.86,1.28,3.6,3.6,0,0,0,2.83-1.28,4.42,4.42,0,0,0,1.13-3.06,4.28,4.28,0,0,0-1.13-3,3.91,3.91,0,0,0-5.69,0,4.21,4.21,0,0,0-1.15,3A4.29,4.29,0,0,0,288.48,223.23Z"/><path class="cls-3" d="M314.55,216.08l-.77.95a4.29,4.29,0,0,0-3-1.12,3.88,3.88,0,0,0-2.93,1.23,4.24,4.24,0,0,0-1.14,3,4.33,4.33,0,0,0,1.14,3.06,3.74,3.74,0,0,0,2.89,1.28,4.17,4.17,0,0,0,3.08-1.13l.7,1a5.06,5.06,0,0,1-3.81,1.39,5,5,0,0,1-3.78-1.61,5.54,5.54,0,0,1-1.52-3.91,5.44,5.44,0,0,1,1.54-3.92,5,5,0,0,1,3.81-1.58A5.2,5.2,0,0,1,314.55,216.08Z"/><path class="cls-3" d="M325.48,224.11a5.2,5.2,0,0,1-7.52,0,5.49,5.49,0,0,1-1.52-3.91,5.44,5.44,0,0,1,1.52-3.9,5.22,5.22,0,0,1,7.52,0,5.48,5.48,0,0,1,1.52,3.9A5.54,5.54,0,0,1,325.48,224.11Zm-6.6-.88a3.67,3.67,0,0,0,2.86,1.28,3.63,3.63,0,0,0,2.84-1.28,4.41,4.41,0,0,0,1.12-3.06,4.27,4.27,0,0,0-1.12-3,3.92,3.92,0,0,0-5.7,0,4.25,4.25,0,0,0-1.15,3A4.34,4.34,0,0,0,318.88,223.23Z"/><path class="cls-3" d="M331.81,219.2v6.27H330.5V214.94h1.31v1.54A3.4,3.4,0,0,1,335,214.7a4.11,4.11,0,0,1,2.25.6,3.47,3.47,0,0,1,1.38,1.7,3.84,3.84,0,0,1,1.38-1.69,3.73,3.73,0,0,1,2.14-.61,3.8,3.8,0,0,1,2.92,1.16,4.39,4.39,0,0,1,1.09,3.1v6.51h-1.3V219.2a3.49,3.49,0,0,0-.78-2.41,3.08,3.08,0,0,0-4.31,0,3.45,3.45,0,0,0-.78,2.41v6.27h-1.3V219.2a3.49,3.49,0,0,0-.78-2.41,3.05,3.05,0,0,0-4.29,0A3.5,3.5,0,0,0,331.81,219.2Z"/><path class="cls-3" d="M351.53,219.2v6.27h-1.32V214.94h1.32v1.54a3.37,3.37,0,0,1,3.16-1.78,4.11,4.11,0,0,1,2.25.6,3.55,3.55,0,0,1,1.39,1.7,3.65,3.65,0,0,1,3.51-2.3,3.8,3.8,0,0,1,2.92,1.16,4.35,4.35,0,0,1,1.09,3.1v6.51h-1.3V219.2a3.49,3.49,0,0,0-.78-2.41,3.08,3.08,0,0,0-4.31,0,3.49,3.49,0,0,0-.78,2.41v6.27h-1.3V219.2a3.49,3.49,0,0,0-.78-2.41,3.05,3.05,0,0,0-4.29,0A3.49,3.49,0,0,0,351.53,219.2Z"/><path class="cls-3" d="M379.67,225.47h-1.3v-2.11a4.57,4.57,0,0,1-4.12,2.36,4.85,4.85,0,0,1-3.67-1.59,5.94,5.94,0,0,1,0-7.85,4.75,4.75,0,0,1,3.67-1.58,4.53,4.53,0,0,1,4.12,2.3v-2.06h1.3Zm-8.12-2.24a3.67,3.67,0,0,0,2.86,1.28,3.63,3.63,0,0,0,2.84-1.28,4.46,4.46,0,0,0,1.12-3.06,4.31,4.31,0,0,0-1.12-3,3.92,3.92,0,0,0-5.7,0,4.21,4.21,0,0,0-1.15,3A4.29,4.29,0,0,0,371.55,223.23Z"/><path class="cls-3" d="M385.3,219.2v6.27H384V214.94h1.32v1.54a3.64,3.64,0,0,1,3.34-1.78,4.06,4.06,0,0,1,3,1.15A4.27,4.27,0,0,1,392.8,219v6.51h-1.3V219.2a3.37,3.37,0,0,0-.82-2.41,3.39,3.39,0,0,0-4.56,0A3.37,3.37,0,0,0,385.3,219.2Z"/><path class="cls-3" d="M405.32,217v-6.66h1.29v15.13h-1.29v-2.11a4.57,4.57,0,0,1-4.12,2.36,4.85,4.85,0,0,1-3.67-1.59,5.94,5.94,0,0,1,0-7.85,4.75,4.75,0,0,1,3.67-1.58A4.53,4.53,0,0,1,405.32,217Zm-6.82,6.23a3.67,3.67,0,0,0,2.86,1.28,3.6,3.6,0,0,0,2.83-1.28,4.42,4.42,0,0,0,1.13-3.06,4.28,4.28,0,0,0-1.13-3,3.91,3.91,0,0,0-5.69,0,4.21,4.21,0,0,0-1.15,3A4.29,4.29,0,0,0,398.5,223.23Z"/><path class="cls-3" d="M730.06,150.06h-3.13V134h5.7a7.08,7.08,0,0,1,4.68,1.45,4.73,4.73,0,0,1,1.75,3.85,4.78,4.78,0,0,1-1.77,3.87,7.14,7.14,0,0,1-4.7,1.45h-2.53Zm2.82-13.27h-2.82v5.12h2.82a3,3,0,0,0,2.09-.71,2.39,2.39,0,0,0,.79-1.86,2.33,2.33,0,0,0-.79-1.85A3,3,0,0,0,732.88,136.79Z"/><path class="cls-3" d="M753.38,150.06h-3.07v-1.3a4.55,4.55,0,0,1-3.65,1.65,5.31,5.31,0,0,1-4.08-1.8,6.28,6.28,0,0,1-1.67-4.52,6.51,6.51,0,0,1,1.65-4.55,5.24,5.24,0,0,1,4.1-1.8,4.58,4.58,0,0,1,3.65,1.55v-1.2h3.07Zm-6.22-2.52a2.85,2.85,0,0,0,2.25-1,3.78,3.78,0,0,0,0-4.9,2.92,2.92,0,0,0-2.25-1,3,3,0,0,0-2.28,1,3.72,3.72,0,0,0,0,4.9A2.89,2.89,0,0,0,747.16,147.54Z"/><path class="cls-3" d="M760,143.36v6.7h-3v-12h3v1.3a3.4,3.4,0,0,1,2.92-1.65,3,3,0,0,1,1.93.6l-1.28,2.9a2.2,2.2,0,0,0-1.57-.53,1.76,1.76,0,0,0-1.45.7A3.08,3.08,0,0,0,760,143.36Z"/><path class="cls-3" d="M778.78,150.06h-3.07v-1.3a4.55,4.55,0,0,1-3.65,1.65,5.31,5.31,0,0,1-4.08-1.8,6.28,6.28,0,0,1-1.67-4.52,6.51,6.51,0,0,1,1.65-4.55,5.24,5.24,0,0,1,4.1-1.8,4.58,4.58,0,0,1,3.65,1.55v-1.2h3.07Zm-6.22-2.52a2.85,2.85,0,0,0,2.25-1,3.78,3.78,0,0,0,0-4.9,2.92,2.92,0,0,0-2.25-1,3,3,0,0,0-2.28,1,3.72,3.72,0,0,0,0,4.9A2.89,2.89,0,0,0,772.56,147.54Z"/><path class="cls-3" d="M785.41,143.26v6.8h-3v-12h3v1.27a3.83,3.83,0,0,1,3.3-1.62,4,4,0,0,1,3.82,2.2,4.18,4.18,0,0,1,3.83-2.2,4.32,4.32,0,0,1,3.36,1.35,5.28,5.28,0,0,1,1.24,3.72v7.25h-3.05v-6.8a2.8,2.8,0,0,0-.64-1.94,2.18,2.18,0,0,0-1.71-.71,2.25,2.25,0,0,0-1.74.71,2.85,2.85,0,0,0-.64,1.94v6.8h-3v-6.8a2.85,2.85,0,0,0-.63-1.94,2.45,2.45,0,0,0-3.45,0A2.8,2.8,0,0,0,785.41,143.26Z"/><path class="cls-3" d="M810.06,150.41a6.24,6.24,0,0,1-4.58-1.85,6.09,6.09,0,0,1-1.85-4.47,6.26,6.26,0,0,1,1.75-4.5,5.62,5.62,0,0,1,4.3-1.85,5.77,5.77,0,0,1,4.3,1.75,6,6,0,0,1,1.73,4.35,4.59,4.59,0,0,1-.08,1h-8.87a3.36,3.36,0,0,0,3.42,2.87,3.92,3.92,0,0,0,2.93-1.25l1.57,2.08a4.79,4.79,0,0,1-1.95,1.36A7,7,0,0,1,810.06,150.41Zm-.33-10.07a2.76,2.76,0,0,0-1.87.68,3.45,3.45,0,0,0-1.05,1.89h5.77a3.33,3.33,0,0,0-1-1.91A2.72,2.72,0,0,0,809.73,140.34Z"/><path class="cls-3" d="M819.18,140.79h-2.1v-2.7h2.13v-2.35l3-.75v3.1h3.25v2.7h-3.23v5.07q0,1.68,1.38,1.68a1.77,1.77,0,0,0,1.4-.6l1.37,2.27a4.51,4.51,0,0,1-3.27,1.2,3.77,3.77,0,0,1-2.93-1.16,4.74,4.74,0,0,1-1.05-3.29Z"/><path class="cls-3" d="M834.26,150.41a6.24,6.24,0,0,1-4.58-1.85,6.09,6.09,0,0,1-1.85-4.47,6.26,6.26,0,0,1,1.75-4.5,5.62,5.62,0,0,1,4.3-1.85,5.77,5.77,0,0,1,4.3,1.75,6,6,0,0,1,1.73,4.35,4.59,4.59,0,0,1-.08,1H831a3.36,3.36,0,0,0,3.42,2.87,3.92,3.92,0,0,0,2.93-1.25l1.57,2.08a4.79,4.79,0,0,1-2,1.36A7,7,0,0,1,834.26,150.41Zm-.33-10.07a2.76,2.76,0,0,0-1.87.68,3.45,3.45,0,0,0-1,1.89h5.77a3.33,3.33,0,0,0-1-1.91A2.72,2.72,0,0,0,833.93,140.34Z"/><path class="cls-3" d="M845.58,143.36v6.7h-3.05v-12h3.05v1.3a3.41,3.41,0,0,1,2.93-1.65,3,3,0,0,1,1.92.6l-1.27,2.9a2.23,2.23,0,0,0-1.58-.53,1.78,1.78,0,0,0-1.45.7A3.14,3.14,0,0,0,845.58,143.36Z"/><path class="cls-3" d="M864.63,134v16h-3v-12.4L859,140.14l-1.82-2,4.3-4.07Z"/><path class="cls-3" d="M874.21,134a5.82,5.82,0,0,1,4.25,1.65,5.47,5.47,0,0,1,1.7,4.08,6.44,6.44,0,0,1-.53,2.55,20.41,20.41,0,0,1-2,3.47l-3.22,4.63h-3.5l3.62-5.33a1,1,0,0,1-.3,0,5.81,5.81,0,0,1-4.22-1.58,5,5,0,0,1-1.65-3.77,5.53,5.53,0,0,1,1.67-4.1A5.82,5.82,0,0,1,874.21,134Zm0,8.58a2.81,2.81,0,0,0,2-.83,2.86,2.86,0,0,0,0-4.05,2.8,2.8,0,0,0-2-.82,2.73,2.73,0,0,0-2,.82,2.86,2.86,0,0,0,2,4.88Z"/><path class="cls-3" d="M888.26,134a5.82,5.82,0,0,1,4.25,1.65,5.47,5.47,0,0,1,1.7,4.08,6.44,6.44,0,0,1-.53,2.55,20.41,20.41,0,0,1-2,3.47l-3.22,4.63h-3.5l3.62-5.33a1,1,0,0,1-.3,0,5.81,5.81,0,0,1-4.22-1.58,5,5,0,0,1-1.65-3.77,5.53,5.53,0,0,1,1.67-4.1A5.82,5.82,0,0,1,888.26,134Zm0,8.58a2.81,2.81,0,0,0,2-.83,2.86,2.86,0,0,0,0-4.05,2.8,2.8,0,0,0-2-.82,2.73,2.73,0,0,0-2,.82,2.86,2.86,0,0,0,2,4.88Z"/><path class="cls-3" d="M902.31,134a5.82,5.82,0,0,1,4.25,1.65,5.47,5.47,0,0,1,1.7,4.08,6.44,6.44,0,0,1-.53,2.55,20.41,20.41,0,0,1-2.05,3.47l-3.22,4.63H899l3.62-5.33a1,1,0,0,1-.3,0,5.81,5.81,0,0,1-4.22-1.58,5,5,0,0,1-1.65-3.77,5.53,5.53,0,0,1,1.67-4.1A5.82,5.82,0,0,1,902.31,134Zm0,8.58a2.81,2.81,0,0,0,2-.83,2.86,2.86,0,0,0,0-4.05,2.8,2.8,0,0,0-2-.82,2.73,2.73,0,0,0-2,.82,2.86,2.86,0,0,0,2,4.88Z"/><rect class="cls-4" x="706.54" y="112.37" width="222.92" height="60.13" rx="5"/><path class="cls-3" d="M422.34,150.06H412V134h10.37V137h-7.25v3.55h6.25v3h-6.25v3.65h7.25Z"/><path class="cls-3" d="M428.14,150.06h-3.05V133.61l3.05-.75Z"/><path class="cls-3" d="M437.34,150.41a6.22,6.22,0,0,1-4.57-1.85,6.05,6.05,0,0,1-1.85-4.47,6.22,6.22,0,0,1,1.75-4.5,5.61,5.61,0,0,1,4.3-1.85,5.79,5.79,0,0,1,4.3,1.75,6,6,0,0,1,1.72,4.35,4.76,4.76,0,0,1-.07,1H434a3.36,3.36,0,0,0,3.43,2.87,3.9,3.9,0,0,0,2.92-1.25l1.58,2.08a4.93,4.93,0,0,1-2,1.36A7.06,7.06,0,0,1,437.34,150.41ZM437,140.34a2.77,2.77,0,0,0-1.88.68,3.58,3.58,0,0,0-1.05,1.89h5.78a3.4,3.4,0,0,0-1-1.91A2.68,2.68,0,0,0,437,140.34Z"/><path class="cls-3" d="M448.67,143.26v6.8h-3.05v-12h3.05v1.27a3.83,3.83,0,0,1,3.3-1.62,4,4,0,0,1,3.82,2.2,4.18,4.18,0,0,1,3.83-2.2,4.33,4.33,0,0,1,3.36,1.35,5.32,5.32,0,0,1,1.24,3.72v7.25h-3.05v-6.8a2.8,2.8,0,0,0-.64-1.94,2.45,2.45,0,0,0-3.45,0,2.85,2.85,0,0,0-.64,1.94v6.8h-3.05v-6.8a2.85,2.85,0,0,0-.63-1.94,2.22,2.22,0,0,0-1.72-.71,2.25,2.25,0,0,0-1.74.71A2.85,2.85,0,0,0,448.67,143.26Z"/><path class="cls-3" d="M473.32,150.41a6.24,6.24,0,0,1-4.58-1.85,6.09,6.09,0,0,1-1.85-4.47,6.26,6.26,0,0,1,1.75-4.5,5.62,5.62,0,0,1,4.3-1.85,5.77,5.77,0,0,1,4.3,1.75,6,6,0,0,1,1.73,4.35,4.59,4.59,0,0,1-.08,1H470a3.36,3.36,0,0,0,3.42,2.87,3.92,3.92,0,0,0,2.93-1.25l1.57,2.08A4.79,4.79,0,0,1,476,149.9,7,7,0,0,1,473.32,150.41ZM473,140.34a2.74,2.74,0,0,0-1.87.68,3.45,3.45,0,0,0-1.05,1.89h5.77a3.33,3.33,0,0,0-1-1.91A2.72,2.72,0,0,0,473,140.34Z"/><path class="cls-3" d="M484.64,143.26v6.8h-3.05v-12h3.05v1.17a4,4,0,0,1,3.38-1.52,4.24,4.24,0,0,1,3.31,1.36,5.28,5.28,0,0,1,1.24,3.71v7.25h-3.05v-6.8a2.77,2.77,0,0,0-.66-1.94,2.6,2.6,0,0,0-3.57,0A2.81,2.81,0,0,0,484.64,143.26Z"/><path class="cls-3" d="M496.89,140.79h-2.1v-2.7h2.13v-2.35L500,135v3.1h3.25v2.7H500v5.07q0,1.68,1.38,1.68a1.77,1.77,0,0,0,1.4-.6l1.37,2.27a4.51,4.51,0,0,1-3.27,1.2,3.77,3.77,0,0,1-2.93-1.16,4.74,4.74,0,0,1-1.05-3.29Z"/><rect class="cls-4" x="389.44" y="112.37" width="136.44" height="60.13" rx="5"/><path class="cls-3" d="M34.38,150.06H28.93V134h5.33a9.47,9.47,0,0,1,6.5,2.25,7.83,7.83,0,0,1,.05,11.52A9.25,9.25,0,0,1,34.38,150.06ZM34.23,137h-2.1v10.12h2.13a6.09,6.09,0,0,0,4.15-1.4,5.13,5.13,0,0,0,0-7.35A6.1,6.1,0,0,0,34.23,137Z"/><path class="cls-3" d="M57.86,150.06H54.78v-1.3a4.55,4.55,0,0,1-3.65,1.65,5.31,5.31,0,0,1-4.07-1.8,6.24,6.24,0,0,1-1.68-4.52A6.51,6.51,0,0,1,47,139.54a5.25,5.25,0,0,1,4.1-1.8,4.56,4.56,0,0,1,3.65,1.55v-1.2h3.08Zm-6.23-2.52a2.85,2.85,0,0,0,2.25-1,3.78,3.78,0,0,0,0-4.9,3.05,3.05,0,0,0-4.52,0,3.69,3.69,0,0,0,0,4.9A2.88,2.88,0,0,0,51.63,147.54Z"/><path class="cls-3" d="M62.28,140.79h-2.1v-2.7h2.13v-2.35l3-.75v3.1h3.25v2.7H65.38v5.07q0,1.68,1.38,1.68a1.77,1.77,0,0,0,1.4-.6l1.37,2.27a4.51,4.51,0,0,1-3.27,1.2,3.77,3.77,0,0,1-2.93-1.16,4.74,4.74,0,0,1-1-3.29Z"/><path class="cls-3" d="M83.41,150.06H80.33v-1.3a4.55,4.55,0,0,1-3.65,1.65,5.31,5.31,0,0,1-4.07-1.8,6.24,6.24,0,0,1-1.68-4.52,6.51,6.51,0,0,1,1.65-4.55,5.25,5.25,0,0,1,4.1-1.8,4.56,4.56,0,0,1,3.65,1.55v-1.2h3.08Zm-6.23-2.52a2.85,2.85,0,0,0,2.25-1,3.78,3.78,0,0,0,0-4.9,3.05,3.05,0,0,0-4.52,0,3.69,3.69,0,0,0,0,4.9A2.88,2.88,0,0,0,77.18,147.54Z"/><path class="cls-3" d="M103.58,136.39l-2.15,2.12a4,4,0,0,0-1.57-1.35,4.73,4.73,0,0,0-2.18-.52,3,3,0,0,0-1.73.43,1.35,1.35,0,0,0-.64,1.17,1.42,1.42,0,0,0,.62,1.15,4.66,4.66,0,0,0,1.57.73c.62.18,1.3.4,2,.68a17.24,17.24,0,0,1,2,.9,4.15,4.15,0,0,1,1.56,1.45,4.07,4.07,0,0,1,.62,2.29,4.43,4.43,0,0,1-1.67,3.57,6.76,6.76,0,0,1-4.45,1.4q-4.35,0-6.25-2.87l2.22-2.08a4.84,4.84,0,0,0,4.08,2,3.47,3.47,0,0,0,2-.49,1.53,1.53,0,0,0,.71-1.36,1.43,1.43,0,0,0-.31-.9,2.79,2.79,0,0,0-.94-.71,12.55,12.55,0,0,0-1.21-.54c-.39-.15-.89-.32-1.51-.52s-1.11-.38-1.48-.53a5.1,5.1,0,0,1-2.15-1.56,3.9,3.9,0,0,1-.82-2.51A4.11,4.11,0,0,1,93.61,135a6.43,6.43,0,0,1,4.2-1.3,7.88,7.88,0,0,1,3.4.72A5.73,5.73,0,0,1,103.58,136.39Z"/><path class="cls-3" d="M116.26,148.56a6.07,6.07,0,0,1-4.43,1.85,5.92,5.92,0,0,1-4.4-1.85,6.11,6.11,0,0,1-1.82-4.47,6.18,6.18,0,0,1,1.82-4.5,5.88,5.88,0,0,1,4.4-1.85,6,6,0,0,1,4.43,1.85,6.18,6.18,0,0,1,1.82,4.5A6.11,6.11,0,0,1,116.26,148.56Zm-4.4-1a2.85,2.85,0,0,0,2.25-1,3.78,3.78,0,0,0,0-4.9,2.92,2.92,0,0,0-2.25-1,3,3,0,0,0-2.28,1,3.72,3.72,0,0,0,0,4.9A2.89,2.89,0,0,0,111.86,147.54Z"/><path class="cls-3" d="M120.43,138.09h3v6.47a3.14,3.14,0,0,0,.7,2.11,2.35,2.35,0,0,0,1.85.82,2.32,2.32,0,0,0,1.85-.82,3.09,3.09,0,0,0,.7-2.11v-6.47h3v6.7a5.6,5.6,0,1,1-11.2,0Z"/><path class="cls-3" d="M137.86,143.36v6.7h-3.05v-12h3.05v1.3a3.4,3.4,0,0,1,2.92-1.65,3,3,0,0,1,1.93.6l-1.28,2.9a2.2,2.2,0,0,0-1.57-.53,1.75,1.75,0,0,0-1.45.7A3.08,3.08,0,0,0,137.86,143.36Z"/><path class="cls-3" d="M155.13,139.54l-1.75,2.17a4,4,0,0,0-2.82-1.1,3.22,3.22,0,0,0-2.42,1,3.43,3.43,0,0,0-.93,2.47,3.49,3.49,0,0,0,.93,2.49,3.17,3.17,0,0,0,2.39,1,4,4,0,0,0,2.95-1.18l1.55,2.25a5.2,5.2,0,0,1-2,1.31,6.91,6.91,0,0,1-2.6.49A6.36,6.36,0,0,1,146,139.59a5.92,5.92,0,0,1,4.43-1.85A6.22,6.22,0,0,1,155.13,139.54Z"/><path class="cls-3" d="M163,150.41a6.24,6.24,0,0,1-4.58-1.85,6.09,6.09,0,0,1-1.85-4.47,6.26,6.26,0,0,1,1.75-4.5,5.62,5.62,0,0,1,4.3-1.85,5.77,5.77,0,0,1,4.3,1.75,6,6,0,0,1,1.73,4.35,4.59,4.59,0,0,1-.08,1h-8.87a3.36,3.36,0,0,0,3.42,2.87,3.92,3.92,0,0,0,2.93-1.25l1.57,2.08a4.79,4.79,0,0,1-2,1.36A7,7,0,0,1,163,150.41Zm-.33-10.07a2.74,2.74,0,0,0-1.87.68,3.45,3.45,0,0,0-1,1.89h5.77a3.33,3.33,0,0,0-1-1.91A2.72,2.72,0,0,0,162.63,140.34Z"/><rect class="cls-4" x="7.72" y="112.37" width="178.82" height="60.13" rx="5"/><line class="cls-5" x1="435.45" y1="243.42" x2="130.15" y2="243.42"/><polygon class="cls-6" points="130.13 237.26 130.15 243.42 130.17 249.59 124.42 246.52 118.66 243.46 124.4 240.36 130.13 237.26"/><path class="cls-3" d="M140.38,295.44h-1.32v-14.1h4.88a5.31,5.31,0,0,1,3.48,1.1,4,4,0,0,1,.35,5.57,4.54,4.54,0,0,1-2.64,1.36l3.81,6.07h-1.52l-3.7-6h-3.34Zm3.67-12.91h-3.67v5.76h3.67a3.54,3.54,0,0,0,2.41-.79,2.83,2.83,0,0,0,0-4.18A3.54,3.54,0,0,0,144.05,282.53Z"/><path class="cls-3" d="M157.14,295.69a5.09,5.09,0,0,1-3.87-1.61,5.38,5.38,0,0,1-1.54-3.92,5.54,5.54,0,0,1,1.48-3.91,4.71,4.71,0,0,1,3.65-1.59,4.78,4.78,0,0,1,3.61,1.54,5.34,5.34,0,0,1,1.45,3.77,5,5,0,0,1,0,.55h-8.82a4.28,4.28,0,0,0,1.28,2.86,3.87,3.87,0,0,0,2.86,1.14,4.41,4.41,0,0,0,3.25-1.25l.71.9A5.31,5.31,0,0,1,157.14,295.69Zm2.23-8.88a3.38,3.38,0,0,0-2.51-1,3.54,3.54,0,0,0-2.58,1.05,4.34,4.34,0,0,0-1.23,2.71h7.53A4.64,4.64,0,0,0,159.37,286.81Z"/><path class="cls-3" d="M166.3,286.23a1.38,1.38,0,0,0-.64,1.18,1.34,1.34,0,0,0,.66,1.17,4.71,4.71,0,0,0,1.56.73l.61.17.59.19a5.91,5.91,0,0,1,.64.24l.55.27a1.9,1.9,0,0,1,.55.33c.09.09.23.22.42.38a1.44,1.44,0,0,1,.37.49c.06.17.13.36.2.58a2.5,2.5,0,0,1,.1.69,2.67,2.67,0,0,1-1,2.21,4.45,4.45,0,0,1-2.83.83A4.92,4.92,0,0,1,164,294l.86-.86a3.84,3.84,0,0,0,3.3,1.46,2.93,2.93,0,0,0,1.83-.52,1.66,1.66,0,0,0,.66-1.38,1.39,1.39,0,0,0-.2-.72,2.2,2.2,0,0,0-.44-.54,3,3,0,0,0-.73-.43,7.7,7.7,0,0,0-.8-.33l-1-.31-.9-.28a3.68,3.68,0,0,1-1.59-1,2.35,2.35,0,0,1-.61-1.64,2.42,2.42,0,0,1,1-2,4.05,4.05,0,0,1,2.62-.79,4.13,4.13,0,0,1,3.67,1.54l-.85.8a3.37,3.37,0,0,0-2.8-1.24A2.78,2.78,0,0,0,166.3,286.23Z"/><path class="cls-3" d="M175.14,299.76V284.91h1.32V287a4.91,4.91,0,0,1,1.73-1.69,4.65,4.65,0,0,1,2.36-.62,4.87,4.87,0,0,1,3.68,1.59,6,6,0,0,1,0,7.85,4.88,4.88,0,0,1-3.7,1.59,4.53,4.53,0,0,1-4.09-2.27v6.34Zm8.14-12.63a3.83,3.83,0,0,0-5.68,0,4.47,4.47,0,0,0-1.14,3.08,4.22,4.22,0,0,0,1.14,3,3.87,3.87,0,0,0,5.68,0,4.32,4.32,0,0,0,1.12-3A4.5,4.5,0,0,0,183.28,287.13Z"/><path class="cls-3" d="M197.43,294.08a5.21,5.21,0,0,1-7.53,0,5.56,5.56,0,0,1-1.52-3.92,5.47,5.47,0,0,1,1.52-3.89,5.21,5.21,0,0,1,7.53,0,5.46,5.46,0,0,1,1.51,3.89A5.55,5.55,0,0,1,197.43,294.08Zm-6.6-.88a3.67,3.67,0,0,0,2.86,1.28,3.6,3.6,0,0,0,2.83-1.28,4.42,4.42,0,0,0,1.13-3.06,4.28,4.28,0,0,0-1.13-3,3.88,3.88,0,0,0-5.69,0,4.21,4.21,0,0,0-1.15,3A4.29,4.29,0,0,0,190.83,293.2Z"/><path class="cls-3" d="M203.76,289.17v6.27h-1.32V284.91h1.32v1.54a3.68,3.68,0,0,1,3.35-1.79,4,4,0,0,1,3,1.16,4.23,4.23,0,0,1,1.13,3.11v6.51H210v-6.27a3.42,3.42,0,0,0-.83-2.42,3.38,3.38,0,0,0-4.55,0A3.42,3.42,0,0,0,203.76,289.17Z"/><path class="cls-3" d="M216.48,286.23a1.38,1.38,0,0,0-.64,1.18,1.34,1.34,0,0,0,.66,1.17,4.71,4.71,0,0,0,1.56.73l.61.17.59.19a5.91,5.91,0,0,1,.64.24l.55.27a1.9,1.9,0,0,1,.55.33c.09.09.23.22.42.38a1.44,1.44,0,0,1,.37.49c.07.17.13.36.2.58a2.5,2.5,0,0,1,.1.69,2.67,2.67,0,0,1-1.05,2.21,4.42,4.42,0,0,1-2.82.83,4.9,4.9,0,0,1-4.07-1.7l.85-.86a3.84,3.84,0,0,0,3.3,1.46,2.93,2.93,0,0,0,1.83-.52,1.66,1.66,0,0,0,.66-1.38,1.39,1.39,0,0,0-.2-.72,2.2,2.2,0,0,0-.44-.54,3.15,3.15,0,0,0-.72-.43,7.73,7.73,0,0,0-.81-.33l-1-.31-.91-.28a3.68,3.68,0,0,1-1.59-1,2.4,2.4,0,0,1-.61-1.64,2.42,2.42,0,0,1,1-2,4.07,4.07,0,0,1,2.62-.79,4.16,4.16,0,0,1,3.68,1.54l-.86.8a3.37,3.37,0,0,0-2.8-1.24A2.78,2.78,0,0,0,216.48,286.23Z"/><path class="cls-3" d="M229.92,295.69a5.09,5.09,0,0,1-3.87-1.61,5.34,5.34,0,0,1-1.54-3.92,5.57,5.57,0,0,1,1.47-3.91,5,5,0,0,1,7.26-.05,5.3,5.3,0,0,1,1.45,3.77,4.52,4.52,0,0,1,0,.55h-8.82a4.26,4.26,0,0,0,1.27,2.86,3.91,3.91,0,0,0,2.86,1.14,4.43,4.43,0,0,0,3.26-1.25l.7.9A5.27,5.27,0,0,1,229.92,295.69Zm2.22-8.88a3.36,3.36,0,0,0-2.51-1,3.5,3.5,0,0,0-2.57,1.05,4.34,4.34,0,0,0-1.23,2.71h7.52A4.58,4.58,0,0,0,232.14,286.81Z"/><path class="cls-3" d="M244.53,289.17v6.27h-1.32V280.31h1.32v6.14a3.66,3.66,0,0,1,3.34-1.79,4.07,4.07,0,0,1,3,1.16,4.27,4.27,0,0,1,1.13,3.11v6.51h-1.3v-6.27a3.41,3.41,0,0,0-.82-2.42,3.39,3.39,0,0,0-4.56,0A3.41,3.41,0,0,0,244.53,289.17Z"/><path class="cls-3" d="M260.7,295.69a5.13,5.13,0,0,1-3.88-1.61,5.38,5.38,0,0,1-1.54-3.92,5.58,5.58,0,0,1,1.48-3.91,4.73,4.73,0,0,1,3.65-1.59A4.78,4.78,0,0,1,264,286.2a5.3,5.3,0,0,1,1.45,3.77,4.52,4.52,0,0,1,0,.55H256.6a4.28,4.28,0,0,0,1.28,2.86,3.89,3.89,0,0,0,2.86,1.14,4.43,4.43,0,0,0,3.26-1.25l.7.9A5.28,5.28,0,0,1,260.7,295.69Zm2.22-8.88a3.38,3.38,0,0,0-2.51-1,3.5,3.5,0,0,0-2.57,1.05,4.41,4.41,0,0,0-1.24,2.71h7.53A4.64,4.64,0,0,0,262.92,286.81Z"/><path class="cls-3" d="M278.45,295.44h-1.3v-2.11a4.54,4.54,0,0,1-4.11,2.36,4.83,4.83,0,0,1-3.67-1.59,5.94,5.94,0,0,1,0-7.85,4.74,4.74,0,0,1,3.67-1.59,4.53,4.53,0,0,1,4.11,2.31v-2.06h1.3Zm-8.12-2.24a3.7,3.7,0,0,0,2.86,1.28A3.62,3.62,0,0,0,276,293.2a4.41,4.41,0,0,0,1.12-3.06,4.27,4.27,0,0,0-1.12-3,3.9,3.9,0,0,0-5.7,0,4.24,4.24,0,0,0-1.14,3A4.33,4.33,0,0,0,270.33,293.2Z"/><path class="cls-3" d="M291.21,287v-6.66h1.3v15.13h-1.3v-2.11a4.54,4.54,0,0,1-4.11,2.36,4.85,4.85,0,0,1-3.68-1.59,6,6,0,0,1,0-7.85,4.78,4.78,0,0,1,3.68-1.59A4.53,4.53,0,0,1,291.21,287Zm-6.82,6.23a3.69,3.69,0,0,0,2.86,1.28,3.63,3.63,0,0,0,2.84-1.28,4.41,4.41,0,0,0,1.12-3.06,4.27,4.27,0,0,0-1.12-3,3.9,3.9,0,0,0-5.7,0,4.24,4.24,0,0,0-1.14,3A4.33,4.33,0,0,0,284.39,293.2Z"/><path class="cls-3" d="M301.42,295.69a5.09,5.09,0,0,1-3.87-1.61,5.34,5.34,0,0,1-1.54-3.92,5.57,5.57,0,0,1,1.47-3.91,5,5,0,0,1,7.26-.05,5.3,5.3,0,0,1,1.45,3.77,4.52,4.52,0,0,1,0,.55h-8.82a4.22,4.22,0,0,0,1.27,2.86,3.89,3.89,0,0,0,2.86,1.14,4.43,4.43,0,0,0,3.26-1.25l.7.9A5.28,5.28,0,0,1,301.42,295.69Zm2.22-8.88a3.38,3.38,0,0,0-2.51-1,3.5,3.5,0,0,0-2.57,1.05,4.34,4.34,0,0,0-1.23,2.71h7.52A4.64,4.64,0,0,0,303.64,286.81Z"/><path class="cls-3" d="M310.75,289.22v6.22h-1.32V284.91h1.32v1.45a2.88,2.88,0,0,1,2.68-1.7,2.52,2.52,0,0,1,1.56.42l-.55,1.21a2.32,2.32,0,0,0-1.34-.39,2,2,0,0,0-1.73.89A4.13,4.13,0,0,0,310.75,289.22Z"/><path class="cls-3" d="M332.68,295.44h-1.3v-2.11a4.54,4.54,0,0,1-4.11,2.36,4.87,4.87,0,0,1-3.68-1.59,6,6,0,0,1,0-7.85,4.78,4.78,0,0,1,3.68-1.59,4.53,4.53,0,0,1,4.11,2.31v-2.06h1.3Zm-8.12-2.24a3.69,3.69,0,0,0,2.86,1.28,3.62,3.62,0,0,0,2.84-1.28,4.41,4.41,0,0,0,1.12-3.06,4.27,4.27,0,0,0-1.12-3,3.9,3.9,0,0,0-5.7,0,4.24,4.24,0,0,0-1.14,3A4.33,4.33,0,0,0,324.56,293.2Z"/><path class="cls-3" d="M338.31,289.17v6.27H337V284.91h1.32v1.54a3.67,3.67,0,0,1,3.35-1.79,4,4,0,0,1,3,1.16,4.23,4.23,0,0,1,1.13,3.11v6.51h-1.3v-6.27a3.41,3.41,0,0,0-.82-2.42,3.38,3.38,0,0,0-4.55,0A3.42,3.42,0,0,0,338.31,289.17Z"/><path class="cls-3" d="M358.33,287v-6.66h1.3v15.13h-1.3v-2.11a4.54,4.54,0,0,1-4.11,2.36,4.85,4.85,0,0,1-3.68-1.59,6,6,0,0,1,0-7.85,4.78,4.78,0,0,1,3.68-1.59A4.53,4.53,0,0,1,358.33,287Zm-6.82,6.23a3.69,3.69,0,0,0,2.86,1.28,3.63,3.63,0,0,0,2.84-1.28,4.41,4.41,0,0,0,1.12-3.06,4.27,4.27,0,0,0-1.12-3,3.9,3.9,0,0,0-5.7,0,4.24,4.24,0,0,0-1.14,3A4.33,4.33,0,0,0,351.51,293.2Z"/><path class="cls-3" d="M377.67,287v-6.66H379v15.13h-1.3v-2.11a4.56,4.56,0,0,1-4.12,2.36,4.85,4.85,0,0,1-3.67-1.59,6,6,0,0,1,0-7.85,4.76,4.76,0,0,1,3.67-1.59A4.54,4.54,0,0,1,377.67,287Zm-6.82,6.23a3.67,3.67,0,0,0,2.86,1.28,3.63,3.63,0,0,0,2.84-1.28,4.41,4.41,0,0,0,1.12-3.06,4.27,4.27,0,0,0-1.12-3,3.9,3.9,0,0,0-5.7,0,4.25,4.25,0,0,0-1.15,3A4.34,4.34,0,0,0,370.85,293.2Z"/><path class="cls-3" d="M393,295.44h-1.29v-2.11a4.57,4.57,0,0,1-4.12,2.36,4.85,4.85,0,0,1-3.67-1.59,5.94,5.94,0,0,1,0-7.85,4.76,4.76,0,0,1,3.67-1.59,4.54,4.54,0,0,1,4.12,2.31v-2.06H393Zm-8.11-2.24a3.67,3.67,0,0,0,2.86,1.28,3.6,3.6,0,0,0,2.83-1.28,4.42,4.42,0,0,0,1.13-3.06,4.28,4.28,0,0,0-1.13-3,3.88,3.88,0,0,0-5.69,0,4.21,4.21,0,0,0-1.15,3A4.29,4.29,0,0,0,384.91,293.2Z"/><path class="cls-3" d="M397.73,286.07h-1.65v-1.16h1.65V282.4H399v2.51h3.12v1.16h-3.1v6.54c0,1.24.55,1.87,1.65,1.87a2.16,2.16,0,0,0,1.5-.58l.64,1a3.24,3.24,0,0,1-2.25.8,2.81,2.81,0,0,1-2.12-.77,3.14,3.14,0,0,1-.74-2.25Z"/><path class="cls-3" d="M415.29,295.44H414v-2.11a4.54,4.54,0,0,1-4.11,2.36,4.85,4.85,0,0,1-3.68-1.59,6,6,0,0,1,0-7.85,4.76,4.76,0,0,1,3.68-1.59A4.53,4.53,0,0,1,414,287v-2.06h1.3Zm-8.12-2.24a3.69,3.69,0,0,0,2.86,1.28,3.63,3.63,0,0,0,2.84-1.28,4.41,4.41,0,0,0,1.12-3.06,4.27,4.27,0,0,0-1.12-3,3.9,3.9,0,0,0-5.7,0,4.24,4.24,0,0,0-1.14,3A4.33,4.33,0,0,0,407.17,293.2Z"/><line class="cls-5" x1="118.66" y1="313.39" x2="434.95" y2="313.39"/><polygon class="cls-6" points="424.47 307.23 424.45 313.39 424.44 319.56 430.19 316.49 435.94 313.43 430.21 310.33 424.47 307.23"/><path class="cls-3" d="M516.37,369.1h-1.32V355h1.32Z"/><path class="cls-3" d="M522.14,362.83v6.27h-1.32V358.56h1.32v1.54a3.64,3.64,0,0,1,3.34-1.78,4.06,4.06,0,0,1,3,1.15,4.28,4.28,0,0,1,1.13,3.12v6.51h-1.3v-6.27a3.38,3.38,0,0,0-.82-2.42,3.39,3.39,0,0,0-4.56,0A3.38,3.38,0,0,0,522.14,362.83Z"/><path class="cls-3" d="M542.07,359.7l-.77.95a4.29,4.29,0,0,0-3-1.12,3.84,3.84,0,0,0-2.92,1.23,4.23,4.23,0,0,0-1.15,3,4.29,4.29,0,0,0,1.15,3.05,3.7,3.7,0,0,0,2.88,1.28A4.16,4.16,0,0,0,541.3,367l.7.94a5.56,5.56,0,0,1-7.59-.22,5.77,5.77,0,0,1,0-7.83,5.08,5.08,0,0,1,3.81-1.58A5.2,5.2,0,0,1,542.07,359.7Z"/><path class="cls-3" d="M553,367.73a5.2,5.2,0,0,1-7.52,0,5.54,5.54,0,0,1-1.52-3.91,5.48,5.48,0,0,1,1.52-3.9,5.22,5.22,0,0,1,7.52,0,5.48,5.48,0,0,1,1.52,3.9A5.54,5.54,0,0,1,553,367.73Zm-6.6-.88a3.69,3.69,0,0,0,2.86,1.28,3.62,3.62,0,0,0,2.84-1.28,4.39,4.39,0,0,0,1.12-3.05,4.29,4.29,0,0,0-1.12-3,3.92,3.92,0,0,0-5.7,0,4.26,4.26,0,0,0-1.14,3A4.32,4.32,0,0,0,546.4,366.85Z"/><path class="cls-3" d="M559.34,362.83v6.27H558V358.56h1.32v1.54a3.38,3.38,0,0,1,3.17-1.78,4.1,4.1,0,0,1,2.24.6,3.57,3.57,0,0,1,1.39,1.71,3.64,3.64,0,0,1,3.52-2.31,3.83,3.83,0,0,1,2.91,1.16,4.37,4.37,0,0,1,1.09,3.11v6.51h-1.3v-6.27a3.5,3.5,0,0,0-.78-2.42,3.08,3.08,0,0,0-4.31,0,3.5,3.5,0,0,0-.78,2.42v6.27h-1.3v-6.27a3.5,3.5,0,0,0-.78-2.42,3.05,3.05,0,0,0-4.29,0A3.5,3.5,0,0,0,559.34,362.83Z"/><path class="cls-3" d="M579,356.1a.89.89,0,0,1-.62.26.87.87,0,0,1-.62-.26.84.84,0,0,1-.26-.62.9.9,0,0,1,.26-.64.87.87,0,0,1,.62-.26.89.89,0,0,1,.62.26.9.9,0,0,1,.26.64A.84.84,0,0,1,579,356.1Zm-1.28,2.46h1.32V369.1h-1.32Z"/><path class="cls-3" d="M584.68,362.83v6.27h-1.32V358.56h1.32v1.54a3.66,3.66,0,0,1,3.35-1.78,4,4,0,0,1,3,1.15,4.24,4.24,0,0,1,1.13,3.12v6.51h-1.3v-6.27a3.38,3.38,0,0,0-.82-2.42,3.38,3.38,0,0,0-4.55,0A3.38,3.38,0,0,0,584.68,362.83Z"/><path class="cls-3" d="M596.3,372.35l.68-1a6.14,6.14,0,0,0,3.69,1.12,3.6,3.6,0,0,0,4-4v-1.59a4.52,4.52,0,0,1-4.12,2.36,4.72,4.72,0,0,1-3.63-1.59,5.8,5.8,0,0,1,0-7.72,4.76,4.76,0,0,1,3.63-1.56,4.52,4.52,0,0,1,4.12,2.29v-2.07H606v9.79a4.75,4.75,0,0,1-5.24,5.3A7,7,0,0,1,596.3,372.35Zm4.42-4.35a3.62,3.62,0,0,0,2.82-1.26,4.58,4.58,0,0,0,0-6,3.91,3.91,0,0,0-5.66,0,4.52,4.52,0,0,0,0,6A3.63,3.63,0,0,0,600.72,368Z"/><path class="cls-3" d="M624,360.63V354h1.3V369.1H624V367a4.53,4.53,0,0,1-4.11,2.35,4.86,4.86,0,0,1-3.67-1.58,6,6,0,0,1,0-7.86,4.77,4.77,0,0,1,3.67-1.58A4.52,4.52,0,0,1,624,360.63Zm-6.82,6.22a3.7,3.7,0,0,0,2.86,1.28,3.61,3.61,0,0,0,2.84-1.28A4.39,4.39,0,0,0,624,363.8a4.29,4.29,0,0,0-1.12-3,3.66,3.66,0,0,0-2.84-1.23,3.72,3.72,0,0,0-2.86,1.23,4.26,4.26,0,0,0-1.14,3A4.32,4.32,0,0,0,617.17,366.85Z"/><path class="cls-3" d="M639.35,369.1h-1.3V367a4.53,4.53,0,0,1-4.11,2.35,4.89,4.89,0,0,1-3.68-1.58,6,6,0,0,1,0-7.86,4.8,4.8,0,0,1,3.68-1.58,4.53,4.53,0,0,1,4.11,2.31v-2.07h1.3Zm-8.12-2.25a3.7,3.7,0,0,0,2.86,1.28,3.62,3.62,0,0,0,2.84-1.28,4.39,4.39,0,0,0,1.12-3.05,4.29,4.29,0,0,0-1.12-3,3.92,3.92,0,0,0-5.7,0,4.26,4.26,0,0,0-1.14,3A4.32,4.32,0,0,0,631.23,366.85Z"/><path class="cls-3" d="M644.06,359.73h-1.65v-1.17h1.65v-2.51h1.3v2.51h3.12v1.17h-3.1v6.53c0,1.25.55,1.87,1.65,1.87a2.15,2.15,0,0,0,1.49-.57l.64,1a3.19,3.19,0,0,1-2.24.79,2.8,2.8,0,0,1-2.12-.77,3.07,3.07,0,0,1-.74-2.24Z"/><path class="cls-3" d="M661.61,369.1h-1.29V367a4.56,4.56,0,0,1-4.12,2.35,4.87,4.87,0,0,1-3.67-1.58,6,6,0,0,1,0-7.86,4.78,4.78,0,0,1,3.67-1.58,4.54,4.54,0,0,1,4.12,2.31v-2.07h1.29Zm-8.11-2.25a3.67,3.67,0,0,0,2.86,1.28,3.6,3.6,0,0,0,2.83-1.28,4.39,4.39,0,0,0,1.13-3.05,4.3,4.3,0,0,0-1.13-3,3.91,3.91,0,0,0-5.69,0,4.23,4.23,0,0,0-1.15,3A4.29,4.29,0,0,0,653.5,366.85Z"/><path class="cls-3" d="M672.52,362.87v6.23h-1.31V358.56h1.31V360a2.89,2.89,0,0,1,2.69-1.69,2.54,2.54,0,0,1,1.56.42l-.55,1.21a2.26,2.26,0,0,0-1.34-.4,2,2,0,0,0-1.73.89A4.17,4.17,0,0,0,672.52,362.87Z"/><path class="cls-3" d="M684,369.34a5.09,5.09,0,0,1-3.87-1.61,5.32,5.32,0,0,1-1.54-3.91,5.6,5.6,0,0,1,1.47-3.92,5,5,0,0,1,7.26,0,5.26,5.26,0,0,1,1.45,3.76,4.39,4.39,0,0,1,0,.55h-8.82a4.19,4.19,0,0,0,1.28,2.86,3.87,3.87,0,0,0,2.85,1.14,4.39,4.39,0,0,0,3.26-1.25l.7.9A5.27,5.27,0,0,1,684,369.34Zm2.22-8.88a3.4,3.4,0,0,0-2.51-1,3.47,3.47,0,0,0-2.57,1.06,4.29,4.29,0,0,0-1.23,2.7h7.52A4.58,4.58,0,0,0,686.25,360.46Z"/><path class="cls-3" d="M693.18,359.88a1.41,1.41,0,0,0-.63,1.19,1.31,1.31,0,0,0,.66,1.16,4.71,4.71,0,0,0,1.56.73l.6.18a5.53,5.53,0,0,1,.6.18,4.78,4.78,0,0,1,.63.24c.1.06.28.14.55.27a1.77,1.77,0,0,1,.55.33l.42.38a1.41,1.41,0,0,1,.38.5c.06.17.13.36.19.57a2.17,2.17,0,0,1,.1.69,2.68,2.68,0,0,1-1,2.21,4.45,4.45,0,0,1-2.83.83,4.92,4.92,0,0,1-4.07-1.69l.86-.86a3.84,3.84,0,0,0,3.3,1.45,2.89,2.89,0,0,0,1.83-.52,1.67,1.67,0,0,0,.66-1.37,1.4,1.4,0,0,0-.2-.73,2.2,2.2,0,0,0-.44-.54,3.26,3.26,0,0,0-.73-.43l-.8-.33-1-.3-.9-.29a3.68,3.68,0,0,1-1.6-1,2.37,2.37,0,0,1-.6-1.64,2.42,2.42,0,0,1,1-2,5,5,0,0,1,6.29.76l-.86.79a3.33,3.33,0,0,0-2.79-1.23A2.81,2.81,0,0,0,693.18,359.88Z"/><path class="cls-3" d="M702,373.41V358.56h1.32v2.07a4.83,4.83,0,0,1,1.72-1.7,4.68,4.68,0,0,1,2.37-.61,4.86,4.86,0,0,1,3.67,1.58,5.49,5.49,0,0,1,1.48,3.94,5.6,5.6,0,0,1-1.46,3.92,4.87,4.87,0,0,1-3.69,1.58,4.53,4.53,0,0,1-4.09-2.27v6.34Zm8.14-12.63a3.85,3.85,0,0,0-5.68,0,4.47,4.47,0,0,0-1.14,3.08,4.26,4.26,0,0,0,1.14,3,3.89,3.89,0,0,0,5.68,0,4.34,4.34,0,0,0,1.12-3A4.5,4.5,0,0,0,710.17,360.78Z"/><path class="cls-3" d="M724.31,367.73a5.2,5.2,0,0,1-7.52,0,5.54,5.54,0,0,1-1.52-3.91,5.48,5.48,0,0,1,1.52-3.9,5.22,5.22,0,0,1,7.52,0,5.44,5.44,0,0,1,1.52,3.9A5.49,5.49,0,0,1,724.31,367.73Zm-6.6-.88a3.7,3.7,0,0,0,2.86,1.28,3.62,3.62,0,0,0,2.84-1.28,4.39,4.39,0,0,0,1.12-3.05,4.29,4.29,0,0,0-1.12-3,3.92,3.92,0,0,0-5.7,0,4.26,4.26,0,0,0-1.14,3A4.32,4.32,0,0,0,717.71,366.85Z"/><path class="cls-3" d="M730.65,362.83v6.27h-1.32V358.56h1.32v1.54a3.65,3.65,0,0,1,3.34-1.78,4.06,4.06,0,0,1,3,1.15,4.28,4.28,0,0,1,1.13,3.12v6.51h-1.3v-6.27a3.38,3.38,0,0,0-.82-2.42,3.39,3.39,0,0,0-4.56,0A3.38,3.38,0,0,0,730.65,362.83Z"/><path class="cls-3" d="M743.36,359.88a1.41,1.41,0,0,0-.63,1.19,1.33,1.33,0,0,0,.66,1.16A4.71,4.71,0,0,0,745,363l.6.18a5.53,5.53,0,0,1,.6.18,5.91,5.91,0,0,1,.64.24,5.63,5.63,0,0,0,.55.27,1.9,1.9,0,0,1,.55.33l.41.38a1.31,1.31,0,0,1,.38.5c.06.17.13.36.2.57a2.5,2.5,0,0,1,.09.69,2.65,2.65,0,0,1-1,2.21,4.45,4.45,0,0,1-2.83.83,4.92,4.92,0,0,1-4.07-1.69l.86-.86a3.84,3.84,0,0,0,3.3,1.45,2.87,2.87,0,0,0,1.83-.52,1.65,1.65,0,0,0,.66-1.37,1.4,1.4,0,0,0-.2-.73,2.2,2.2,0,0,0-.44-.54,3.26,3.26,0,0,0-.73-.43l-.8-.33-1-.3-.9-.29a3.59,3.59,0,0,1-1.59-1,2.33,2.33,0,0,1-.61-1.64,2.42,2.42,0,0,1,1-2,5,5,0,0,1,6.29.76l-.86.79a3.33,3.33,0,0,0-2.79-1.23A2.81,2.81,0,0,0,743.36,359.88Z"/><path class="cls-3" d="M756.81,369.34a5.13,5.13,0,0,1-3.88-1.61,5.36,5.36,0,0,1-1.54-3.91,5.61,5.61,0,0,1,1.48-3.92,5,5,0,0,1,7.26,0,5.26,5.26,0,0,1,1.45,3.76,4.39,4.39,0,0,1,0,.55h-8.82A4.18,4.18,0,0,0,754,367a3.89,3.89,0,0,0,2.86,1.14,4.39,4.39,0,0,0,3.26-1.25l.7.9A5.28,5.28,0,0,1,756.81,369.34Zm2.22-8.88a3.41,3.41,0,0,0-2.51-1,3.47,3.47,0,0,0-2.57,1.06,4.29,4.29,0,0,0-1.23,2.7h7.52A4.64,4.64,0,0,0,759,360.46Z"/><line class="cls-5" x1="479.92" y1="387.05" x2="797.95" y2="387.05"/><polygon class="cls-6" points="787.48 380.88 787.46 387.05 787.44 393.21 793.2 390.15 798.95 387.08 793.22 383.98 787.48 380.88"/><path class="cls-3" d="M885.69,436.89h-1.32v-14.1h4.88A5.71,5.71,0,0,1,893,424a3.88,3.88,0,0,1,1.41,3.13,3.81,3.81,0,0,1-1.43,3.1,5.73,5.73,0,0,1-3.81,1.19h-3.47ZM889.36,424h-3.67v6.21h3.67a4,4,0,0,0,2.66-.86,3,3,0,0,0,0-4.5A4,4,0,0,0,889.36,424Z"/><path class="cls-3" d="M907.53,436.89h-1.3v-2.11a4.55,4.55,0,0,1-4.11,2.35,4.83,4.83,0,0,1-3.67-1.59,5.94,5.94,0,0,1,0-7.85,4.73,4.73,0,0,1,3.67-1.58,4.53,4.53,0,0,1,4.11,2.31v-2.07h1.3Zm-8.12-2.25a3.7,3.7,0,0,0,2.86,1.28,3.62,3.62,0,0,0,2.84-1.28,4.39,4.39,0,0,0,1.12-3.06,4.29,4.29,0,0,0-1.12-3,3.92,3.92,0,0,0-5.7,0,4.26,4.26,0,0,0-1.14,3A4.33,4.33,0,0,0,899.41,434.64Z"/><path class="cls-3" d="M913.16,430.66v6.23h-1.32V426.35h1.32v1.45a2.88,2.88,0,0,1,2.69-1.69,2.54,2.54,0,0,1,1.56.42l-.55,1.21a2.26,2.26,0,0,0-1.34-.4,2,2,0,0,0-1.73.89A4.12,4.12,0,0,0,913.16,430.66Z"/><path class="cls-3" d="M921.21,427.67a1.41,1.41,0,0,0-.63,1.19,1.33,1.33,0,0,0,.66,1.16,4.71,4.71,0,0,0,1.56.73l.6.17.6.19a4.78,4.78,0,0,1,.63.24c.1.06.28.14.56.27a1.9,1.9,0,0,1,.55.33l.41.38a1.31,1.31,0,0,1,.38.5c.06.17.13.36.19.57a2.17,2.17,0,0,1,.1.69,2.65,2.65,0,0,1-1,2.21,4.45,4.45,0,0,1-2.83.83,4.92,4.92,0,0,1-4.07-1.7l.86-.85A3.86,3.86,0,0,0,923,436a2.87,2.87,0,0,0,1.83-.52,1.65,1.65,0,0,0,.66-1.37,1.4,1.4,0,0,0-.2-.73,2.2,2.2,0,0,0-.44-.54,3.26,3.26,0,0,0-.73-.43l-.8-.33-1-.31-.9-.28a3.59,3.59,0,0,1-1.59-1,2.35,2.35,0,0,1-.61-1.64,2.42,2.42,0,0,1,1-2,5,5,0,0,1,6.29.76l-.86.79a3.33,3.33,0,0,0-2.79-1.23A2.81,2.81,0,0,0,921.21,427.67Z"/><path class="cls-3" d="M934.66,437.13a5.13,5.13,0,0,1-3.88-1.61,5.36,5.36,0,0,1-1.54-3.91,5.61,5.61,0,0,1,1.48-3.92,5,5,0,0,1,7.26,0,5.26,5.26,0,0,1,1.45,3.76,4.52,4.52,0,0,1,0,.55h-8.83a4.26,4.26,0,0,0,1.28,2.86A3.89,3.89,0,0,0,934.7,436a4.43,4.43,0,0,0,3.26-1.25l.7.9A5.28,5.28,0,0,1,934.66,437.13Zm2.22-8.88a3.38,3.38,0,0,0-2.51-1,3.47,3.47,0,0,0-2.57,1.06,4.36,4.36,0,0,0-1.24,2.7h7.53A4.64,4.64,0,0,0,936.88,428.25Z"/><path class="cls-3" d="M949.26,430.62v6.27h-1.32V421.75h1.32v6.14a3.67,3.67,0,0,1,3.35-1.78,4,4,0,0,1,3,1.15,4.23,4.23,0,0,1,1.13,3.11v6.52h-1.29v-6.27a3.38,3.38,0,0,0-.83-2.42,3.38,3.38,0,0,0-4.55,0A3.38,3.38,0,0,0,949.26,430.62Z"/><path class="cls-3" d="M965.43,437.13a5.09,5.09,0,0,1-3.87-1.61,5.32,5.32,0,0,1-1.54-3.91,5.56,5.56,0,0,1,1.48-3.92,4.71,4.71,0,0,1,3.65-1.58,4.76,4.76,0,0,1,3.61,1.54,5.3,5.3,0,0,1,1.45,3.76,5,5,0,0,1-.05.55h-8.82a4.26,4.26,0,0,0,1.28,2.86,3.87,3.87,0,0,0,2.86,1.14,4.41,4.41,0,0,0,3.25-1.25l.71.9A5.31,5.31,0,0,1,965.43,437.13Zm2.22-8.88a3.34,3.34,0,0,0-2.5-1,3.49,3.49,0,0,0-2.58,1.06,4.29,4.29,0,0,0-1.23,2.7h7.52A4.58,4.58,0,0,0,967.65,428.25Z"/><path class="cls-3" d="M983.19,436.89h-1.3v-2.11a4.56,4.56,0,0,1-4.11,2.35,4.85,4.85,0,0,1-3.68-1.59,6,6,0,0,1,0-7.85,4.75,4.75,0,0,1,3.68-1.58,4.53,4.53,0,0,1,4.11,2.31v-2.07h1.3Zm-8.12-2.25a3.69,3.69,0,0,0,2.86,1.28,3.63,3.63,0,0,0,2.84-1.28,4.39,4.39,0,0,0,1.12-3.06,4.29,4.29,0,0,0-1.12-3,3.92,3.92,0,0,0-5.7,0,4.26,4.26,0,0,0-1.15,3A4.34,4.34,0,0,0,975.07,434.64Z"/><path class="cls-3" d="M996,428.42v-6.67h1.3v15.14H996v-2.11a4.58,4.58,0,0,1-4.12,2.35,4.85,4.85,0,0,1-3.67-1.59,5.94,5.94,0,0,1,0-7.85,4.75,4.75,0,0,1,3.67-1.58A4.54,4.54,0,0,1,996,428.42Zm-6.82,6.22a3.67,3.67,0,0,0,2.86,1.28,3.63,3.63,0,0,0,2.84-1.28,4.44,4.44,0,0,0,1.12-3.06,4.33,4.33,0,0,0-1.12-3,3.92,3.92,0,0,0-5.7,0,4.22,4.22,0,0,0-1.15,3A4.29,4.29,0,0,0,989.13,434.64Z"/><path class="cls-3" d="M1006.15,437.13a5.11,5.11,0,0,1-3.87-1.61,5.36,5.36,0,0,1-1.54-3.91,5.56,5.56,0,0,1,1.48-3.92,5,5,0,0,1,7.26,0,5.3,5.3,0,0,1,1.45,3.76,5,5,0,0,1,0,.55h-8.82a4.26,4.26,0,0,0,1.28,2.86,3.87,3.87,0,0,0,2.86,1.14,4.41,4.41,0,0,0,3.25-1.25l.71.9A5.29,5.29,0,0,1,1006.15,437.13Zm2.23-8.88a3.38,3.38,0,0,0-2.51-1,3.51,3.51,0,0,0-2.58,1.06,4.4,4.4,0,0,0-1.23,2.7h7.53A4.64,4.64,0,0,0,1008.38,428.25Z"/><path class="cls-3" d="M1015.48,430.66v6.23h-1.32V426.35h1.32v1.45a2.88,2.88,0,0,1,2.69-1.69,2.54,2.54,0,0,1,1.56.42l-.55,1.21a2.26,2.26,0,0,0-1.34-.4,2,2,0,0,0-1.73.89A4.12,4.12,0,0,0,1015.48,430.66Z"/><path class="cls-3" d="M1037.42,436.89h-1.3v-2.11a4.58,4.58,0,0,1-4.12,2.35,4.85,4.85,0,0,1-3.67-1.59,6,6,0,0,1,0-7.85,4.75,4.75,0,0,1,3.67-1.58,4.54,4.54,0,0,1,4.12,2.31v-2.07h1.3Zm-8.12-2.25a3.67,3.67,0,0,0,2.86,1.28,3.63,3.63,0,0,0,2.84-1.28,4.44,4.44,0,0,0,1.12-3.06,4.33,4.33,0,0,0-1.12-3,3.92,3.92,0,0,0-5.7,0,4.26,4.26,0,0,0-1.15,3A4.34,4.34,0,0,0,1029.3,434.64Z"/><path class="cls-3" d="M1043.05,430.62v6.27h-1.32V426.35h1.32v1.54a3.65,3.65,0,0,1,3.34-1.78,4.06,4.06,0,0,1,3,1.15,4.27,4.27,0,0,1,1.13,3.11v6.52h-1.3v-6.27a3.38,3.38,0,0,0-.82-2.42,3.39,3.39,0,0,0-4.56,0A3.38,3.38,0,0,0,1043.05,430.62Z"/><path class="cls-3" d="M1063.07,428.42v-6.67h1.3v15.14h-1.3v-2.11a4.58,4.58,0,0,1-4.12,2.35,4.85,4.85,0,0,1-3.67-1.59,5.94,5.94,0,0,1,0-7.85,4.75,4.75,0,0,1,3.67-1.58A4.54,4.54,0,0,1,1063.07,428.42Zm-6.82,6.22a3.67,3.67,0,0,0,2.86,1.28,3.63,3.63,0,0,0,2.84-1.28,4.44,4.44,0,0,0,1.12-3.06,4.33,4.33,0,0,0-1.12-3,3.92,3.92,0,0,0-5.7,0,4.22,4.22,0,0,0-1.15,3A4.29,4.29,0,0,0,1056.25,434.64Z"/><path class="cls-3" d="M1082.4,428.42v-6.67h1.3v15.14h-1.3v-2.11a4.55,4.55,0,0,1-4.11,2.35,4.83,4.83,0,0,1-3.67-1.59,5.94,5.94,0,0,1,0-7.85,4.75,4.75,0,0,1,3.67-1.58A4.52,4.52,0,0,1,1082.4,428.42Zm-6.81,6.22a3.67,3.67,0,0,0,2.85,1.28,3.61,3.61,0,0,0,2.84-1.28,4.39,4.39,0,0,0,1.12-3.06,4.29,4.29,0,0,0-1.12-3,3.91,3.91,0,0,0-5.69,0,4.22,4.22,0,0,0-1.15,3A4.29,4.29,0,0,0,1075.59,434.64Z"/><path class="cls-3" d="M1097.76,436.89h-1.3v-2.11a4.55,4.55,0,0,1-4.11,2.35,4.87,4.87,0,0,1-3.68-1.59,6,6,0,0,1,0-7.85,4.77,4.77,0,0,1,3.68-1.58,4.53,4.53,0,0,1,4.11,2.31v-2.07h1.3Zm-8.12-2.25a3.7,3.7,0,0,0,2.86,1.28,3.62,3.62,0,0,0,2.84-1.28,4.39,4.39,0,0,0,1.12-3.06,4.29,4.29,0,0,0-1.12-3,3.92,3.92,0,0,0-5.7,0,4.26,4.26,0,0,0-1.14,3A4.33,4.33,0,0,0,1089.64,434.64Z"/><path class="cls-3" d="M1102.47,427.51h-1.65v-1.16h1.65v-2.51h1.3v2.51h3.12v1.16h-3.1v6.54c0,1.25.55,1.87,1.65,1.87a2.15,2.15,0,0,0,1.49-.57l.64,1a3.19,3.19,0,0,1-2.24.79,2.8,2.8,0,0,1-2.12-.77,3.07,3.07,0,0,1-.74-2.24Z"/><path class="cls-3" d="M1120,436.89h-1.29v-2.11a4.58,4.58,0,0,1-4.12,2.35,4.85,4.85,0,0,1-3.67-1.59,5.94,5.94,0,0,1,0-7.85,4.75,4.75,0,0,1,3.67-1.58,4.54,4.54,0,0,1,4.12,2.31v-2.07H1120Zm-8.11-2.25a3.67,3.67,0,0,0,2.86,1.28,3.6,3.6,0,0,0,2.83-1.28,4.4,4.4,0,0,0,1.13-3.06,4.29,4.29,0,0,0-1.13-3,3.91,3.91,0,0,0-5.69,0,4.22,4.22,0,0,0-1.15,3A4.29,4.29,0,0,0,1111.91,434.64Z"/><path class="cls-3" d="M1203.26,515.89h-1.32v-14.1h4.89a5.73,5.73,0,0,1,3.74,1.17,3.88,3.88,0,0,1,1.41,3.12,3.8,3.8,0,0,1-1.43,3.1,5.68,5.68,0,0,1-3.81,1.19h-3.48Zm3.68-12.91h-3.68v6.2h3.68a4,4,0,0,0,2.66-.85,2.83,2.83,0,0,0,1-2.25,2.79,2.79,0,0,0-1-2.25A4,4,0,0,0,1206.94,503Z"/><path class="cls-3" d="M1225.11,515.89h-1.3v-2.11a4.54,4.54,0,0,1-4.11,2.36,4.87,4.87,0,0,1-3.68-1.59,6,6,0,0,1,0-7.85,4.78,4.78,0,0,1,3.68-1.59,4.53,4.53,0,0,1,4.11,2.31v-2.06h1.3Zm-8.12-2.24a3.69,3.69,0,0,0,2.86,1.28,3.62,3.62,0,0,0,2.84-1.28,4.43,4.43,0,0,0,1.12-3.06,4.25,4.25,0,0,0-1.12-3,3.9,3.9,0,0,0-5.7,0,4.22,4.22,0,0,0-1.14,3A4.33,4.33,0,0,0,1217,513.65Z"/><path class="cls-3" d="M1230.74,509.67v6.22h-1.32V505.36h1.32v1.45a2.89,2.89,0,0,1,2.68-1.7,2.55,2.55,0,0,1,1.57.42l-.55,1.21a2.35,2.35,0,0,0-1.35-.39,2,2,0,0,0-1.72.89A4.12,4.12,0,0,0,1230.74,509.67Z"/><path class="cls-3" d="M1238.79,506.68a1.4,1.4,0,0,0-.64,1.18,1.34,1.34,0,0,0,.66,1.17,4.77,4.77,0,0,0,1.57.73l.6.17.6.19a4.78,4.78,0,0,1,.63.24l.55.26a2.27,2.27,0,0,1,.55.33l.42.39a1.48,1.48,0,0,1,.38.49c.06.17.13.36.19.58a2.17,2.17,0,0,1,.1.69,2.69,2.69,0,0,1-1,2.21,4.45,4.45,0,0,1-2.83.83,4.92,4.92,0,0,1-4.07-1.7l.86-.86a3.84,3.84,0,0,0,3.3,1.46,2.9,2.9,0,0,0,1.82-.52,1.68,1.68,0,0,0,.66-1.38,1.39,1.39,0,0,0-.19-.72,2.45,2.45,0,0,0-.44-.54,3.51,3.51,0,0,0-.73-.43,7.7,7.7,0,0,0-.8-.33l-1-.31-.9-.28a3.7,3.7,0,0,1-1.6-1,2.34,2.34,0,0,1-.6-1.63,2.45,2.45,0,0,1,1-2,5,5,0,0,1,6.29.76l-.86.8a3.31,3.31,0,0,0-2.79-1.24A2.79,2.79,0,0,0,1238.79,506.68Z"/><path class="cls-3" d="M1252.23,516.14a5.11,5.11,0,0,1-3.87-1.61,5.38,5.38,0,0,1-1.54-3.92,5.54,5.54,0,0,1,1.48-3.91,4.71,4.71,0,0,1,3.65-1.59,4.78,4.78,0,0,1,3.61,1.54,5.32,5.32,0,0,1,1.45,3.77c0,.13,0,.31,0,.54h-8.83a4.28,4.28,0,0,0,1.28,2.87,3.87,3.87,0,0,0,2.86,1.14,4.38,4.38,0,0,0,3.25-1.26l.71.91A5.29,5.29,0,0,1,1252.23,516.14Zm2.23-8.88a3.38,3.38,0,0,0-2.51-1,3.54,3.54,0,0,0-2.58,1.05,4.45,4.45,0,0,0-1.23,2.71h7.53A4.64,4.64,0,0,0,1254.46,507.26Z"/><path class="cls-3" d="M1266.84,509.62v6.27h-1.32V500.76h1.32v6.14a3.67,3.67,0,0,1,3.35-1.79,4,4,0,0,1,3,1.16,4.23,4.23,0,0,1,1.13,3.11v6.51h-1.29v-6.27a3.42,3.42,0,0,0-.83-2.42,3.38,3.38,0,0,0-4.55,0A3.42,3.42,0,0,0,1266.84,509.62Z"/><path class="cls-3" d="M1283,516.14a5.09,5.09,0,0,1-3.87-1.61,5.34,5.34,0,0,1-1.54-3.92,5.57,5.57,0,0,1,1.47-3.91,5,5,0,0,1,7.26-.05,5.29,5.29,0,0,1,1.46,3.77,4.66,4.66,0,0,1,0,.54h-8.82a4.23,4.23,0,0,0,1.28,2.87,3.87,3.87,0,0,0,2.85,1.14,4.4,4.4,0,0,0,3.26-1.26l.7.91A5.27,5.27,0,0,1,1283,516.14Zm2.22-8.88a3.36,3.36,0,0,0-2.51-1,3.5,3.5,0,0,0-2.57,1.05,4.34,4.34,0,0,0-1.23,2.71h7.52A4.58,4.58,0,0,0,1285.23,507.26Z"/><path class="cls-3" d="M1300.77,515.89h-1.3v-2.11a4.57,4.57,0,0,1-4.12,2.36,4.85,4.85,0,0,1-3.67-1.59,6,6,0,0,1,0-7.85,4.76,4.76,0,0,1,3.67-1.59,4.54,4.54,0,0,1,4.12,2.31v-2.06h1.3Zm-8.12-2.24a3.67,3.67,0,0,0,2.86,1.28,3.63,3.63,0,0,0,2.84-1.28,4.48,4.48,0,0,0,1.12-3.06,4.3,4.3,0,0,0-1.12-3,3.9,3.9,0,0,0-5.7,0,4.19,4.19,0,0,0-1.15,3A4.29,4.29,0,0,0,1292.65,513.65Z"/><path class="cls-3" d="M1313.52,507.42v-6.66h1.3v15.13h-1.3v-2.11a4.54,4.54,0,0,1-4.11,2.36,4.83,4.83,0,0,1-3.67-1.59,5.94,5.94,0,0,1,0-7.85,4.76,4.76,0,0,1,3.67-1.59A4.51,4.51,0,0,1,1313.52,507.42Zm-6.81,6.23a3.67,3.67,0,0,0,2.85,1.28,3.61,3.61,0,0,0,2.84-1.28,4.43,4.43,0,0,0,1.12-3.06,4.25,4.25,0,0,0-1.12-3,3.88,3.88,0,0,0-5.69,0,4.19,4.19,0,0,0-1.15,3A4.29,4.29,0,0,0,1306.71,513.65Z"/><path class="cls-3" d="M1323.73,516.14a5.09,5.09,0,0,1-3.87-1.61,5.34,5.34,0,0,1-1.54-3.92,5.54,5.54,0,0,1,1.48-3.91,4.71,4.71,0,0,1,3.65-1.59,4.76,4.76,0,0,1,3.6,1.54,5.29,5.29,0,0,1,1.46,3.77,4.66,4.66,0,0,1,0,.54h-8.82a4.28,4.28,0,0,0,1.28,2.87,3.87,3.87,0,0,0,2.86,1.14,4.38,4.38,0,0,0,3.25-1.26l.71.91A5.31,5.31,0,0,1,1323.73,516.14Zm2.22-8.88a3.34,3.34,0,0,0-2.5-1,3.52,3.52,0,0,0-2.58,1.05,4.34,4.34,0,0,0-1.23,2.71h7.52A4.58,4.58,0,0,0,1326,507.26Z"/><path class="cls-3" d="M1333.06,509.67v6.22h-1.32V505.36h1.32v1.45a2.89,2.89,0,0,1,2.68-1.7,2.55,2.55,0,0,1,1.57.42l-.55,1.21a2.35,2.35,0,0,0-1.35-.39,2,2,0,0,0-1.72.89A4.12,4.12,0,0,0,1333.06,509.67Z"/><path class="cls-3" d="M1346.13,508.77l6.91,3.52v1.32l-8.41-4.32v-1L1353,504v1.3Z"/><path class="cls-3" d="M1360.58,501.79v14.1h-1.3V503.42l-2.79,2.73-.79-.88,3.58-3.48Z"/><path class="cls-3" d="M1370.24,516.14a4.25,4.25,0,0,1-3.65-2.07,10.2,10.2,0,0,1,0-10.45,4.22,4.22,0,0,1,3.63-2.07,4.34,4.34,0,0,1,3.67,2.07,8.83,8.83,0,0,1,1.45,5.21,9.11,9.11,0,0,1-1.43,5.24A4.32,4.32,0,0,1,1370.24,516.14Zm-2.73-2.93a3.14,3.14,0,0,0,2.71,1.72,3.18,3.18,0,0,0,2.73-1.72,9.66,9.66,0,0,0,0-8.76,3.22,3.22,0,0,0-2.75-1.69,3.11,3.11,0,0,0-2.69,1.69,9.42,9.42,0,0,0,0,8.76Z"/><path class="cls-3" d="M1380.34,509.62v6.27H1379V505.36h1.32v1.54a3.39,3.39,0,0,1,3.17-1.79,4.1,4.1,0,0,1,2.24.61,3.55,3.55,0,0,1,1.39,1.7,3.7,3.7,0,0,1,1.37-1.69,3.75,3.75,0,0,1,2.15-.62,3.8,3.8,0,0,1,2.91,1.17,4.35,4.35,0,0,1,1.09,3.1v6.51h-1.3v-6.27a3.54,3.54,0,0,0-.78-2.42,3.08,3.08,0,0,0-4.31,0,3.54,3.54,0,0,0-.78,2.42v6.27h-1.3v-6.27a3.54,3.54,0,0,0-.78-2.42,3.05,3.05,0,0,0-4.29,0A3.54,3.54,0,0,0,1380.34,509.62Z"/><path class="cls-3" d="M1399.87,506.68a1.39,1.39,0,0,0-.63,1.18,1.34,1.34,0,0,0,.66,1.17,4.71,4.71,0,0,0,1.56.73l.6.17.6.19a4.78,4.78,0,0,1,.63.24l.55.26a2.07,2.07,0,0,1,.55.33l.42.39a1.36,1.36,0,0,1,.38.49c.06.17.13.36.19.58a2.17,2.17,0,0,1,.1.69,2.69,2.69,0,0,1-1,2.21,4.45,4.45,0,0,1-2.83.83,4.92,4.92,0,0,1-4.07-1.7l.86-.86a3.84,3.84,0,0,0,3.3,1.46,2.93,2.93,0,0,0,1.83-.52,1.68,1.68,0,0,0,.66-1.38,1.39,1.39,0,0,0-.2-.72,2.2,2.2,0,0,0-.44-.54,3.26,3.26,0,0,0-.73-.43,7.7,7.7,0,0,0-.8-.33l-1-.31-.9-.28a3.7,3.7,0,0,1-1.6-1,2.34,2.34,0,0,1-.6-1.63,2.45,2.45,0,0,1,1-2,5,5,0,0,1,6.29.76l-.86.8a3.31,3.31,0,0,0-2.79-1.24A2.81,2.81,0,0,0,1399.87,506.68Z"/><line class="cls-5" x1="843.08" y1="454.84" x2="1160.37" y2="454.84"/><polygon class="cls-6" points="1149.9 448.67 1149.88 454.84 1149.86 461 1155.61 457.94 1161.37 454.87 1155.63 451.77 1149.9 448.67"/><path class="cls-3" d="M1273,659h-1.47l-1.67-4h-7.22l-1.67,4h-1.36l5.94-14.11h1.54Zm-9.87-5.2h6.24l-3.12-7.5Z"/><path class="cls-3" d="M1284.21,650.49v-6.67h1.3V659h-1.3v-2.12a4.54,4.54,0,0,1-4.11,2.36,4.88,4.88,0,0,1-3.68-1.58,6,6,0,0,1,0-7.86,4.77,4.77,0,0,1,3.68-1.58A4.53,4.53,0,0,1,1284.21,650.49Zm-6.82,6.22a3.69,3.69,0,0,0,2.86,1.28,3.63,3.63,0,0,0,2.84-1.28,4.39,4.39,0,0,0,1.12-3.05,4.29,4.29,0,0,0-1.12-3,3.92,3.92,0,0,0-5.7,0,4.26,4.26,0,0,0-1.14,3A4.32,4.32,0,0,0,1277.39,656.71Z"/><path class="cls-3" d="M1298.27,650.49v-6.67h1.3V659h-1.3v-2.12a4.57,4.57,0,0,1-4.12,2.36,4.87,4.87,0,0,1-3.67-1.58,6,6,0,0,1,0-7.86,4.75,4.75,0,0,1,3.67-1.58A4.54,4.54,0,0,1,1298.27,650.49Zm-6.82,6.22a3.67,3.67,0,0,0,2.86,1.28,3.63,3.63,0,0,0,2.84-1.28,4.43,4.43,0,0,0,1.12-3.05,4.34,4.34,0,0,0-1.12-3,3.92,3.92,0,0,0-5.7,0,4.27,4.27,0,0,0-1.15,3A4.33,4.33,0,0,0,1291.45,656.71Z"/><path class="cls-3" d="M1317.6,650.49v-6.67h1.3V659h-1.3v-2.12a4.54,4.54,0,0,1-4.11,2.36,4.86,4.86,0,0,1-3.67-1.58,6,6,0,0,1,0-7.86,4.75,4.75,0,0,1,3.67-1.58A4.51,4.51,0,0,1,1317.6,650.49Zm-6.81,6.22a3.67,3.67,0,0,0,2.85,1.28,3.61,3.61,0,0,0,2.84-1.28,4.39,4.39,0,0,0,1.12-3.05,4.29,4.29,0,0,0-1.12-3,3.91,3.91,0,0,0-5.69,0,4.23,4.23,0,0,0-1.15,3A4.29,4.29,0,0,0,1310.79,656.71Z"/><path class="cls-3" d="M1333,659h-1.3v-2.12a4.54,4.54,0,0,1-4.11,2.36,4.86,4.86,0,0,1-3.67-1.58,6,6,0,0,1,0-7.86,4.73,4.73,0,0,1,3.67-1.58,4.53,4.53,0,0,1,4.11,2.31v-2.07h1.3Zm-8.12-2.25a3.7,3.7,0,0,0,2.86,1.28,3.62,3.62,0,0,0,2.84-1.28,4.39,4.39,0,0,0,1.12-3.05,4.29,4.29,0,0,0-1.12-3,3.92,3.92,0,0,0-5.7,0,4.26,4.26,0,0,0-1.14,3A4.32,4.32,0,0,0,1324.84,656.71Z"/><path class="cls-3" d="M1337.67,649.58H1336v-1.16h1.65v-2.51h1.3v2.51h3.12v1.16H1339v6.54c0,1.25.55,1.87,1.65,1.87a2.15,2.15,0,0,0,1.49-.57l.64,1a3.24,3.24,0,0,1-2.24.79,2.8,2.8,0,0,1-2.12-.77,3.08,3.08,0,0,1-.74-2.25Z"/><path class="cls-3" d="M1355.22,659h-1.29v-2.12a4.57,4.57,0,0,1-4.12,2.36,4.87,4.87,0,0,1-3.67-1.58,6,6,0,0,1,0-7.86,4.75,4.75,0,0,1,3.67-1.58,4.54,4.54,0,0,1,4.12,2.31v-2.07h1.29Zm-8.11-2.25A3.67,3.67,0,0,0,1350,658a3.6,3.6,0,0,0,2.83-1.28,4.39,4.39,0,0,0,1.13-3.05,4.3,4.3,0,0,0-1.13-3,3.91,3.91,0,0,0-5.69,0,4.23,4.23,0,0,0-1.15,3A4.29,4.29,0,0,0,1347.11,656.71Z"/><path class="cls-3" d="M1365.21,649.58h-1.65v-1.16h1.65v-2.51h1.3v2.51h3.12v1.16h-3.1v6.54c0,1.25.55,1.87,1.65,1.87a2.2,2.2,0,0,0,1.5-.57l.64,1a3.28,3.28,0,0,1-2.25.79,2.81,2.81,0,0,1-2.12-.77,3.13,3.13,0,0,1-.74-2.25Z"/><path class="cls-3" d="M1381.25,657.59a5.2,5.2,0,0,1-7.52,0,5.49,5.49,0,0,1-1.52-3.91,5.44,5.44,0,0,1,1.52-3.9,5.22,5.22,0,0,1,7.52,0,5.48,5.48,0,0,1,1.52,3.9A5.54,5.54,0,0,1,1381.25,657.59Zm-6.6-.88a3.69,3.69,0,0,0,2.86,1.28,3.63,3.63,0,0,0,2.84-1.28,4.39,4.39,0,0,0,1.12-3.05,4.29,4.29,0,0,0-1.12-3,3.92,3.92,0,0,0-5.7,0,4.26,4.26,0,0,0-1.14,3A4.32,4.32,0,0,0,1374.65,656.71Z"/><path class="cls-3" d="M1400,650.49v-2.07h1.3v14.85H1400v-6.43a4.54,4.54,0,0,1-4.11,2.36,4.86,4.86,0,0,1-3.67-1.58,6,6,0,0,1,0-7.86,4.73,4.73,0,0,1,3.67-1.58A4.53,4.53,0,0,1,1400,650.49Zm-6.82,6.22A3.7,3.7,0,0,0,1396,658a3.62,3.62,0,0,0,2.84-1.28,4.39,4.39,0,0,0,1.12-3.05,4.29,4.29,0,0,0-1.12-3,3.67,3.67,0,0,0-2.84-1.23,3.72,3.72,0,0,0-2.86,1.23,4.26,4.26,0,0,0-1.14,3A4.32,4.32,0,0,0,1393.17,656.71Z"/><path class="cls-3" d="M1405.12,648.42h1.3v5.94a3.66,3.66,0,0,0,.86,2.55,2.88,2.88,0,0,0,2.28,1,2.94,2.94,0,0,0,2.31-1,3.63,3.63,0,0,0,.88-2.55v-5.94h1.3v6.07a4.56,4.56,0,0,1-1.23,3.34,4.35,4.35,0,0,1-3.26,1.26,4.28,4.28,0,0,1-3.22-1.26,4.59,4.59,0,0,1-1.22-3.34Z"/><path class="cls-3" d="M1422.57,659.2a5.13,5.13,0,0,1-3.88-1.61,5.36,5.36,0,0,1-1.54-3.91,5.56,5.56,0,0,1,1.48-3.92,5,5,0,0,1,7.26,0,5.26,5.26,0,0,1,1.45,3.76,4.52,4.52,0,0,1,0,.55h-8.83a4.26,4.26,0,0,0,1.28,2.86,3.89,3.89,0,0,0,2.86,1.14,4.41,4.41,0,0,0,3.26-1.25l.7.9A5.28,5.28,0,0,1,1422.57,659.2Zm2.22-8.88a3.38,3.38,0,0,0-2.51-1,3.47,3.47,0,0,0-2.57,1.06,4.36,4.36,0,0,0-1.24,2.7H1426A4.64,4.64,0,0,0,1424.79,650.32Z"/><path class="cls-3" d="M1430.09,648.42h1.3v5.94a3.66,3.66,0,0,0,.86,2.55,2.88,2.88,0,0,0,2.28,1,2.94,2.94,0,0,0,2.31-1,3.63,3.63,0,0,0,.88-2.55v-5.94h1.3v6.07a4.56,4.56,0,0,1-1.23,3.34,4.35,4.35,0,0,1-3.26,1.26,4.28,4.28,0,0,1-3.22-1.26,4.59,4.59,0,0,1-1.22-3.34Z"/><path class="cls-3" d="M1447.54,659.2a5.11,5.11,0,0,1-3.88-1.61,5.36,5.36,0,0,1-1.54-3.91,5.56,5.56,0,0,1,1.48-3.92,5,5,0,0,1,7.26,0,5.26,5.26,0,0,1,1.45,3.76,4.52,4.52,0,0,1,0,.55h-8.83a4.26,4.26,0,0,0,1.28,2.86,3.89,3.89,0,0,0,2.86,1.14,4.41,4.41,0,0,0,3.26-1.25l.7.9A5.28,5.28,0,0,1,1447.54,659.2Zm2.22-8.88a3.38,3.38,0,0,0-2.51-1,3.51,3.51,0,0,0-2.58,1.06,4.4,4.4,0,0,0-1.23,2.7H1451A4.64,4.64,0,0,0,1449.76,650.32Z"/><line class="cls-5" x1="1197.75" y1="676.91" x2="1514.45" y2="676.91"/><polygon class="cls-6" points="1503.98 670.74 1503.96 676.9 1503.94 683.07 1509.7 680 1515.45 676.94 1509.72 673.84 1503.98 670.74"/><path class="cls-7" d="M1195.75,533.9h209.86a5.49,5.49,0,0,1,5.49,5.5V580a5.49,5.49,0,0,1-5.49,5.49H1266.46"/><polygon class="cls-6" points="1267.2 579.28 1267.22 585.44 1267.24 591.61 1261.48 588.54 1255.73 585.48 1261.46 582.38 1267.2 579.28"/><path class="cls-3" d="M525,724.66v1.23h-4.73v12.87H519V725.89h-4.7v-1.23Z"/><path class="cls-3" d="M528.88,732.53v6.23h-1.32V728.22h1.32v1.45a2.89,2.89,0,0,1,2.69-1.69,2.54,2.54,0,0,1,1.56.42l-.55,1.21a2.26,2.26,0,0,0-1.34-.4,2,2,0,0,0-1.73.89A4.17,4.17,0,0,0,528.88,732.53Z"/><path class="cls-3" d="M537.07,725.76a.87.87,0,0,1-.62.26.85.85,0,0,1-.61-.26.8.8,0,0,1-.27-.62.87.87,0,0,1,.27-.64.85.85,0,0,1,.61-.26.87.87,0,0,1,.62.26.9.9,0,0,1,.26.64A.82.82,0,0,1,537.07,725.76Zm-1.28,2.46h1.32v10.54h-1.32Z"/><path class="cls-3" d="M541.47,742l.68-1a6.15,6.15,0,0,0,3.7,1.12,3.6,3.6,0,0,0,4-4v-1.58a4.53,4.53,0,0,1-4.12,2.35,4.74,4.74,0,0,1-3.63-1.58,5.82,5.82,0,0,1,0-7.73,4.76,4.76,0,0,1,3.63-1.56,4.52,4.52,0,0,1,4.12,2.29v-2.07h1.3V738a4.75,4.75,0,0,1-5.24,5.3A7,7,0,0,1,541.47,742Zm4.42-4.36a3.65,3.65,0,0,0,2.82-1.25,4.59,4.59,0,0,0,0-6,3.91,3.91,0,0,0-5.66,0,4.19,4.19,0,0,0-1.14,3,4.25,4.25,0,0,0,1.14,3A3.67,3.67,0,0,0,545.89,737.66Z"/><path class="cls-3" d="M555.48,742l.68-1a6.17,6.17,0,0,0,3.7,1.12,3.59,3.59,0,0,0,4-4v-1.58a4.53,4.53,0,0,1-4.11,2.35,4.74,4.74,0,0,1-3.63-1.58,5.79,5.79,0,0,1,0-7.73,4.76,4.76,0,0,1,3.63-1.56,4.49,4.49,0,0,1,4.11,2.29v-2.07h1.3V738a4.75,4.75,0,0,1-5.24,5.3A7.06,7.06,0,0,1,555.48,742Zm4.42-4.36a3.65,3.65,0,0,0,2.82-1.25,4.59,4.59,0,0,0,0-6,3.9,3.9,0,0,0-5.65,0,4.16,4.16,0,0,0-1.15,3,4.21,4.21,0,0,0,1.15,3A3.64,3.64,0,0,0,559.9,737.66Z"/><path class="cls-3" d="M574.05,739a5.08,5.08,0,0,1-3.87-1.6,5.36,5.36,0,0,1-1.54-3.92,5.6,5.6,0,0,1,1.47-3.92,5,5,0,0,1,7.26,0,5.27,5.27,0,0,1,1.45,3.76,4.39,4.39,0,0,1,0,.55H570a4.22,4.22,0,0,0,1.27,2.86,3.91,3.91,0,0,0,2.86,1.15,4.4,4.4,0,0,0,3.26-1.26l.7.9A5.27,5.27,0,0,1,574.05,739Zm2.22-8.88a3.4,3.4,0,0,0-2.51-1,3.47,3.47,0,0,0-2.57,1.06,4.29,4.29,0,0,0-1.23,2.7h7.52A4.64,4.64,0,0,0,576.27,730.12Z"/><path class="cls-3" d="M583.38,732.53v6.23h-1.32V728.22h1.32v1.45a2.87,2.87,0,0,1,2.68-1.69,2.5,2.5,0,0,1,1.56.42l-.55,1.21a2.26,2.26,0,0,0-1.34-.4,2,2,0,0,0-1.73.89A4.24,4.24,0,0,0,583.38,732.53Z"/><path class="cls-3" d="M596,729.39h-1.65v-1.17H596v-2.51h1.3v2.51h3.12v1.17h-3.1v6.53c0,1.25.55,1.87,1.65,1.87a2.2,2.2,0,0,0,1.5-.57l.64,1a3.24,3.24,0,0,1-2.25.79,2.81,2.81,0,0,1-2.12-.77A3.12,3.12,0,0,1,596,736Z"/><path class="cls-3" d="M612,737.4a5.22,5.22,0,0,1-7.52,0,5.53,5.53,0,0,1-1.52-3.92,5.41,5.41,0,0,1,1.52-3.89,5.2,5.2,0,0,1,7.52,0,5.45,5.45,0,0,1,1.52,3.89A5.58,5.58,0,0,1,612,737.4Zm-6.6-.88a3.68,3.68,0,0,0,2.86,1.27,3.63,3.63,0,0,0,2.84-1.27,4.43,4.43,0,0,0,1.12-3.06,4.29,4.29,0,0,0-1.12-3,3.92,3.92,0,0,0-5.7,0,4.26,4.26,0,0,0-1.14,3A4.36,4.36,0,0,0,605.4,736.52Z"/><path class="cls-3" d="M623.44,729.54a1.4,1.4,0,0,0-.64,1.19,1.36,1.36,0,0,0,.66,1.17,4.7,4.7,0,0,0,1.56.72l.61.18.59.18a5.29,5.29,0,0,1,.64.25l.55.26a2,2,0,0,1,.55.33l.42.38a1.35,1.35,0,0,1,.37.5c.07.17.13.36.2.57a2.21,2.21,0,0,1,.1.69,2.7,2.7,0,0,1-1,2.22,4.45,4.45,0,0,1-2.83.82,4.9,4.9,0,0,1-4.07-1.69l.86-.86a3.81,3.81,0,0,0,3.3,1.45,2.86,2.86,0,0,0,1.82-.52,1.65,1.65,0,0,0,.66-1.37,1.32,1.32,0,0,0-.2-.73,2.2,2.2,0,0,0-.44-.54,3.18,3.18,0,0,0-.72-.42c-.33-.15-.59-.26-.8-.33l-1-.31-.9-.29a3.62,3.62,0,0,1-1.6-1,2.37,2.37,0,0,1-.6-1.64,2.43,2.43,0,0,1,1-2,4.1,4.1,0,0,1,2.61-.78,4.14,4.14,0,0,1,3.68,1.54l-.86.79a3.35,3.35,0,0,0-2.79-1.23A2.79,2.79,0,0,0,623.44,729.54Z"/><path class="cls-3" d="M636.88,739a5.08,5.08,0,0,1-3.87-1.6,5.36,5.36,0,0,1-1.54-3.92,5.6,5.6,0,0,1,1.47-3.92A4.78,4.78,0,0,1,636.6,728a4.73,4.73,0,0,1,3.6,1.54,5.28,5.28,0,0,1,1.46,3.76,4.79,4.79,0,0,1,0,.55h-8.82a4.19,4.19,0,0,0,1.28,2.86,3.88,3.88,0,0,0,2.86,1.15,4.38,4.38,0,0,0,3.25-1.26l.71.9A5.31,5.31,0,0,1,636.88,739Zm2.22-8.88a3.39,3.39,0,0,0-2.5-1,3.49,3.49,0,0,0-2.58,1.06,4.29,4.29,0,0,0-1.23,2.7h7.52A4.58,4.58,0,0,0,639.1,730.12Z"/><path class="cls-3" d="M646.21,732.49v6.27h-1.32V728.22h1.32v1.54a3.65,3.65,0,0,1,3.34-1.78,4.06,4.06,0,0,1,3,1.15,4.28,4.28,0,0,1,1.13,3.12v6.51h-1.3v-6.27a3.4,3.4,0,0,0-.82-2.42,3.39,3.39,0,0,0-4.56,0A3.4,3.4,0,0,0,646.21,732.49Z"/><path class="cls-3" d="M666.23,730.29v-6.67h1.3v15.14h-1.3v-2.11a4.54,4.54,0,0,1-4.11,2.35,4.88,4.88,0,0,1-3.68-1.58,6,6,0,0,1,0-7.86,4.79,4.79,0,0,1,3.68-1.58A4.53,4.53,0,0,1,666.23,730.29Zm-6.82,6.23a3.68,3.68,0,0,0,2.86,1.27,3.63,3.63,0,0,0,2.84-1.27,4.43,4.43,0,0,0,1.12-3.06,4.29,4.29,0,0,0-1.12-3,3.92,3.92,0,0,0-5.7,0,4.27,4.27,0,0,0-1.15,3A4.37,4.37,0,0,0,659.41,736.52Z"/><path class="cls-3" d="M688.93,738.76h-1.47l-1.67-4h-7.22l-1.67,4h-1.37l5.94-14.1H683Zm-9.88-5.19h6.25l-3.12-7.5Z"/><path class="cls-3" d="M703,726l-.86,1a6.36,6.36,0,0,0-4-1.39,5.47,5.47,0,0,0-4.07,1.76,6,6,0,0,0-1.69,4.29A5.74,5.74,0,0,0,694,736a5.63,5.63,0,0,0,4.22,1.76,5.81,5.81,0,0,0,3.89-1.31l.84.94a7.05,7.05,0,0,1-4.84,1.65,6.82,6.82,0,0,1-5.1-2.13,7,7,0,0,1-2.09-5.13,7.17,7.17,0,0,1,2.09-5.19,6.73,6.73,0,0,1,5-2.14A7.44,7.44,0,0,1,703,726Z"/><path class="cls-3" d="M707.32,738.76H706v-14.1h1.32v6.55h0l5.14-6.55H714l-5.54,7.08,5.81,7h-1.67l-5.22-6.31h-.09Z"/><line class="cls-5" x1="1161.37" y1="756.71" x2="115.42" y2="756.71"/><polygon class="cls-6" points="115.38 750.54 115.4 756.71 115.42 762.87 109.66 759.81 103.91 756.74 109.64 753.64 115.38 750.54"/><path class="cls-3" d="M609.47,56.66l4.23-14.88h3.93L611.54,61h-4.68l-3.78-14.58L599.3,61h-4.53l-6.09-19.23h4.14l4.23,14.88,3.84-14.88h4.71Z"/><path class="cls-3" d="M622.37,44.69a2.12,2.12,0,0,1-2.13-2.13,2.11,2.11,0,0,1,.63-1.52,2.06,2.06,0,0,1,1.5-.64,2.17,2.17,0,0,1,2.16,2.16,2.06,2.06,0,0,1-.63,1.52A2.1,2.1,0,0,1,622.37,44.69Zm-1.8,2h3.66V61h-3.66Z"/><path class="cls-3" d="M629.54,49.88H627V46.64h2.55V43.82l3.66-.9v3.72h3.9v3.24h-3.87V56q0,2,1.65,2a2.12,2.12,0,0,0,1.68-.72L638.24,60a5.44,5.44,0,0,1-3.93,1.44A4.52,4.52,0,0,1,630.8,60a5.71,5.71,0,0,1-1.26-3.95Z"/><path class="cls-3" d="M644.54,52.85V61h-3.66V41.27l3.66-.9v7.68a4.76,4.76,0,0,1,4.05-1.83,5.11,5.11,0,0,1,4,1.63,6.41,6.41,0,0,1,1.48,4.46V61h-3.66V52.85a3.29,3.29,0,0,0-.79-2.33,3.12,3.12,0,0,0-4.28,0A3.33,3.33,0,0,0,644.54,52.85Z"/><path class="cls-3" d="M681.44,47.63,675,57.38l-6.42-9.69V61h-3.75V41.78h4.29l6.12,9.54,6.12-9.54h3.84V61h-3.75Z"/><path class="cls-3" d="M689.12,46.64h3.66v7.77a3.73,3.73,0,0,0,.84,2.53,3,3,0,0,0,4.44,0,3.73,3.73,0,0,0,.84-2.53V46.64h3.66v8a6.72,6.72,0,1,1-13.44,0Z"/><path class="cls-3" d="M710,61h-3.66V41.27l3.66-.9Z"/><path class="cls-3" d="M715.34,49.88h-2.52V46.64h2.55V43.82l3.66-.9v3.72h3.9v3.24h-3.87V56q0,2,1.65,2a2.12,2.12,0,0,0,1.68-.72L724,60a5.44,5.44,0,0,1-3.93,1.44A4.52,4.52,0,0,1,716.6,60a5.71,5.71,0,0,1-1.26-3.95Z"/><path class="cls-3" d="M728.48,44.69a2.12,2.12,0,0,1-2.13-2.13A2.11,2.11,0,0,1,727,41a2.06,2.06,0,0,1,1.5-.64,2.17,2.17,0,0,1,2.16,2.16,2.06,2.06,0,0,1-.63,1.52A2.1,2.1,0,0,1,728.48,44.69Zm-1.8,2h3.66V61h-3.66Z"/><path class="cls-3" d="M734.63,66.89V46.64h3.66V48.2a5.47,5.47,0,0,1,4.38-2,6.57,6.57,0,0,1,4.92,2.13,7.77,7.77,0,0,1,2,5.46,7.87,7.87,0,0,1-2,5.43,6.4,6.4,0,0,1-5,2.19,5.51,5.51,0,0,1-4.38-1.86v7.32Zm7.47-17.22a3.48,3.48,0,0,0-2.7,1.2,4.49,4.49,0,0,0,0,5.91,3.67,3.67,0,0,0,5.43,0,4.58,4.58,0,0,0,0-5.91A3.51,3.51,0,0,0,742.1,49.67Z"/><path class="cls-3" d="M756.59,61h-3.66V41.27l3.66-.9Z"/><path class="cls-3" d="M767.63,61.43a7.46,7.46,0,0,1-5.49-2.22,7.32,7.32,0,0,1-2.22-5.37,7.5,7.5,0,0,1,2.1-5.4,6.76,6.76,0,0,1,5.16-2.22,7,7,0,0,1,5.16,2.1,7.2,7.2,0,0,1,2.07,5.22,5.56,5.56,0,0,1-.09,1.2H763.67a4,4,0,0,0,1.4,2.5,4.07,4.07,0,0,0,2.71.95,4.68,4.68,0,0,0,3.51-1.5l1.89,2.49a5.71,5.71,0,0,1-2.34,1.63A8.38,8.38,0,0,1,767.63,61.43Zm-.39-12.09a3.32,3.32,0,0,0-2.25.82,4.19,4.19,0,0,0-1.26,2.27h6.93a4.05,4.05,0,0,0-1.18-2.3A3.28,3.28,0,0,0,767.24,49.34Z"/><path class="cls-3" d="M787.91,61h-3.75V41.78H791a8.52,8.52,0,0,1,5.61,1.74,6.14,6.14,0,0,1,0,9.27,8.56,8.56,0,0,1-5.64,1.74h-3Zm3.39-15.93h-3.39v6.15h3.39a3.61,3.61,0,0,0,2.51-.86,2.86,2.86,0,0,0,.94-2.23,2.82,2.82,0,0,0-.94-2.22A3.64,3.64,0,0,0,791.3,45.08Z"/><path class="cls-3" d="M805.55,53v8h-3.66V46.64h3.66V48.2a4.09,4.09,0,0,1,3.51-2,3.58,3.58,0,0,1,2.31.72l-1.53,3.48a2.64,2.64,0,0,0-1.89-.63,2.11,2.11,0,0,0-1.74.84A3.7,3.7,0,0,0,805.55,53Z"/><path class="cls-3" d="M825.89,59.21a7.25,7.25,0,0,1-5.31,2.22,7.08,7.08,0,0,1-5.28-2.22,7.3,7.3,0,0,1-2.19-5.37,7.4,7.4,0,0,1,2.19-5.4,7.08,7.08,0,0,1,5.28-2.22,7.25,7.25,0,0,1,5.31,2.22,7.4,7.4,0,0,1,2.19,5.4A7.3,7.3,0,0,1,825.89,59.21ZM820.61,58a3.44,3.44,0,0,0,2.7-1.23,4.54,4.54,0,0,0,0-5.88,3.67,3.67,0,0,0-5.43,0,4.45,4.45,0,0,0,0,5.88A3.48,3.48,0,0,0,820.61,58Z"/><path class="cls-3" d="M832.43,49.88h-2.52V46.64h2.55V43.82l3.66-.9v3.72H840v3.24h-3.87V56q0,2,1.65,2a2.12,2.12,0,0,0,1.68-.72L841.13,60a5.44,5.44,0,0,1-3.93,1.44A4.52,4.52,0,0,1,833.69,60a5.71,5.71,0,0,1-1.26-3.95Z"/><path class="cls-3" d="M855.59,59.21a7.25,7.25,0,0,1-5.31,2.22A7.08,7.08,0,0,1,845,59.21a7.3,7.3,0,0,1-2.19-5.37,7.4,7.4,0,0,1,2.19-5.4,7.08,7.08,0,0,1,5.28-2.22,7.25,7.25,0,0,1,5.31,2.22,7.4,7.4,0,0,1,2.19,5.4A7.3,7.3,0,0,1,855.59,59.21ZM850.31,58a3.44,3.44,0,0,0,2.7-1.23,4.54,4.54,0,0,0,0-5.88,3.67,3.67,0,0,0-5.43,0,4.45,4.45,0,0,0,0,5.88A3.48,3.48,0,0,0,850.31,58Z"/><path class="cls-3" d="M873.32,48.38,871.22,51a4.78,4.78,0,0,0-3.39-1.32,3.85,3.85,0,0,0-2.9,1.17,4.51,4.51,0,0,0,0,5.95A3.79,3.79,0,0,0,867.8,58a4.8,4.8,0,0,0,3.54-1.41l1.86,2.7a6.26,6.26,0,0,1-2.37,1.57,8.36,8.36,0,0,1-3.12.59,7.53,7.53,0,0,1-7.56-7.59,7.4,7.4,0,0,1,2.19-5.4,7.12,7.12,0,0,1,5.31-2.22A7.48,7.48,0,0,1,873.32,48.38Z"/><path class="cls-3" d="M887.78,59.21a7.25,7.25,0,0,1-5.31,2.22,7.08,7.08,0,0,1-5.28-2.22A7.3,7.3,0,0,1,875,53.84a7.4,7.4,0,0,1,2.19-5.4,7.08,7.08,0,0,1,5.28-2.22,7.25,7.25,0,0,1,5.31,2.22,7.4,7.4,0,0,1,2.19,5.4A7.3,7.3,0,0,1,887.78,59.21ZM882.5,58a3.44,3.44,0,0,0,2.7-1.23,4.54,4.54,0,0,0,0-5.88,3.67,3.67,0,0,0-5.43,0,4.45,4.45,0,0,0,0,5.88A3.48,3.48,0,0,0,882.5,58Z"/><path class="cls-3" d="M897,61H893.3V41.27l3.66-.9Z"/><path class="cls-3" d="M921.11,41.78v3.51h-5.73V61h-3.75V45.29h-5.7V41.78Z"/><path class="cls-3" d="M927.32,52.85V61h-3.66V41.27l3.66-.9v7.68a4.76,4.76,0,0,1,4-1.83,5.09,5.09,0,0,1,4,1.63,6.41,6.41,0,0,1,1.49,4.46V61h-3.66V52.85a3.29,3.29,0,0,0-.8-2.33,2.74,2.74,0,0,0-2.11-.85,2.77,2.77,0,0,0-2.16.85A3.33,3.33,0,0,0,927.32,52.85Z"/><path class="cls-3" d="M944.66,53v8H941V46.64h3.66V48.2a4.09,4.09,0,0,1,3.51-2,3.58,3.58,0,0,1,2.31.72L949,50.42a2.64,2.64,0,0,0-1.89-.63,2.11,2.11,0,0,0-1.74.84A3.7,3.7,0,0,0,944.66,53Z"/><path class="cls-3" d="M959.93,61.43a7.46,7.46,0,0,1-5.49-2.22,7.32,7.32,0,0,1-2.22-5.37,7.5,7.5,0,0,1,2.1-5.4,6.76,6.76,0,0,1,5.16-2.22,7,7,0,0,1,5.16,2.1,7.2,7.2,0,0,1,2.07,5.22,5.56,5.56,0,0,1-.09,1.2H956a4,4,0,0,0,1.39,2.5,4.1,4.1,0,0,0,2.72.95,4.68,4.68,0,0,0,3.51-1.5l1.89,2.49a5.71,5.71,0,0,1-2.34,1.63A8.38,8.38,0,0,1,959.93,61.43Zm-.39-12.09a3.32,3.32,0,0,0-2.25.82A4.19,4.19,0,0,0,956,52.43H963a4.06,4.06,0,0,0-1.19-2.3A3.25,3.25,0,0,0,959.54,49.34Z"/><path class="cls-3" d="M983.87,61h-3.69V59.45a5.47,5.47,0,0,1-4.38,2,6.37,6.37,0,0,1-4.89-2.16,7.53,7.53,0,0,1-2-5.43,7.84,7.84,0,0,1,2-5.46,6.29,6.29,0,0,1,4.92-2.16,5.51,5.51,0,0,1,4.38,1.86V46.64h3.69Zm-7.47-3a3.44,3.44,0,0,0,2.7-1.23,4.54,4.54,0,0,0,0-5.88,3.67,3.67,0,0,0-5.43,0,4.45,4.45,0,0,0,0,5.88A3.48,3.48,0,0,0,976.4,58Z"/><path class="cls-3" d="M998.48,48.08V41.27l3.69-.9V61h-3.69V59.45a5.47,5.47,0,0,1-4.38,2,6.37,6.37,0,0,1-4.89-2.16,7.53,7.53,0,0,1-2-5.43,7.84,7.84,0,0,1,2-5.46,6.29,6.29,0,0,1,4.92-2.16A5.51,5.51,0,0,1,998.48,48.08ZM994.7,58a3.44,3.44,0,0,0,2.7-1.23,4.54,4.54,0,0,0,0-5.88,3.67,3.67,0,0,0-5.43,0,4.45,4.45,0,0,0,0,5.88A3.48,3.48,0,0,0,994.7,58Z"/><path class="cls-3" d="M1009.28,50.51a1.07,1.07,0,0,0,.28.72,2.3,2.3,0,0,0,.86.57c.38.16.75.3,1.12.42l1.4.42q.84.24,1.35.42a4.26,4.26,0,0,1,2,1.44,4.13,4.13,0,0,1-.86,5.65,6.82,6.82,0,0,1-4.36,1.28,7.48,7.48,0,0,1-6-2.43l2-2.34a5.41,5.41,0,0,0,4.2,1.83,2.62,2.62,0,0,0,1.57-.41,1.28,1.28,0,0,0,.56-1.09,1.24,1.24,0,0,0-.57-1,4.41,4.41,0,0,0-1.43-.66q-.85-.24-1.86-.6a16,16,0,0,1-1.86-.8,3.65,3.65,0,0,1-1.42-1.32,3.75,3.75,0,0,1-.57-2.08,3.81,3.81,0,0,1,1.48-3.06,6.15,6.15,0,0,1,4-1.23q4,0,5.7,2.37l-2.07,2.16a4.42,4.42,0,0,0-3.54-1.59,2.54,2.54,0,0,0-1.47.38A1.13,1.13,0,0,0,1009.28,50.51Z"/></g></svg>