<?xml version="1.0" encoding="UTF-8"?>
<svg xmlns="http://www.w3.org/2000/svg" xmlns:xlink="http://www.w3.org/1999/xlink" width="40px" height="40px" viewBox="0 0 40 40" version="1.1">
<g id="surface1">
<path style=" stroke:none;fill-rule:nonzero;fill:rgb(91.372549%,91.372549%,87.843137%);fill-opacity:1;" d="M 26.417969 0 L 5.6875 0 C 5.109375 0 4.644531 0.46875 4.644531 1.375 L 4.644531 39.285156 C 4.644531 39.53125 5.109375 40 5.6875 40 L 34.3125 40 C 34.890625 40 35.355469 39.53125 35.355469 39.285156 L 35.355469 9.269531 C 35.355469 8.773438 35.289062 8.613281 35.171875 8.496094 L 26.863281 0.183594 C 26.746094 0.0664062 26.585938 0 26.417969 0 Z M 26.417969 0 "/>
<path style=" stroke:none;fill-rule:nonzero;fill:rgb(85.098039%,84.313725%,79.215686%);fill-opacity:1;" d="M 26.785156 0.109375 L 26.785156 8.570312 L 35.25 8.570312 Z M 26.785156 0.109375 "/>
<path style=" stroke:none;fill-rule:nonzero;fill:rgb(80%,29.411765%,29.803922%);fill-opacity:1;" d="M 13.9375 23.804688 C 13.691406 23.804688 13.453125 23.722656 13.246094 23.570312 C 12.503906 23.011719 12.402344 22.390625 12.453125 21.96875 C 12.582031 20.804688 14.019531 19.589844 16.726562 18.347656 C 17.800781 15.996094 18.824219 13.09375 19.433594 10.671875 C 18.71875 9.117188 18.027344 7.105469 18.53125 5.925781 C 18.707031 5.511719 18.929688 5.195312 19.339844 5.058594 C 19.503906 5.003906 19.914062 4.933594 20.066406 4.933594 C 20.425781 4.933594 20.742188 5.398438 20.96875 5.683594 C 21.179688 5.953125 21.65625 6.519531 20.703125 10.542969 C 21.664062 12.53125 23.027344 14.554688 24.335938 15.945312 C 25.273438 15.773438 26.078125 15.6875 26.734375 15.6875 C 27.851562 15.6875 28.53125 15.949219 28.808594 16.484375 C 29.035156 16.929688 28.941406 17.449219 28.527344 18.027344 C 28.128906 18.585938 27.582031 18.878906 26.941406 18.878906 C 26.074219 18.878906 25.0625 18.332031 23.933594 17.246094 C 21.910156 17.671875 19.542969 18.425781 17.628906 19.261719 C 17.03125 20.53125 16.460938 21.550781 15.925781 22.300781 C 15.195312 23.324219 14.5625 23.804688 13.9375 23.804688 Z M 15.839844 20.140625 C 14.3125 21 13.691406 21.703125 13.644531 22.101562 C 13.640625 22.167969 13.621094 22.339844 13.953125 22.597656 C 14.0625 22.5625 14.683594 22.277344 15.839844 20.140625 Z M 25.582031 16.96875 C 26.164062 17.417969 26.304688 17.644531 26.6875 17.644531 C 26.851562 17.644531 27.328125 17.636719 27.550781 17.328125 C 27.65625 17.179688 27.699219 17.082031 27.714844 17.03125 C 27.625 16.984375 27.511719 16.890625 26.875 16.890625 C 26.515625 16.890625 26.0625 16.90625 25.582031 16.96875 Z M 20.246094 12.265625 C 19.734375 14.035156 19.058594 15.941406 18.335938 17.671875 C 19.828125 17.089844 21.449219 16.585938 22.976562 16.226562 C 22.011719 15.105469 21.046875 13.707031 20.246094 12.265625 Z M 19.8125 6.222656 C 19.742188 6.246094 18.863281 7.476562 19.878906 8.519531 C 20.558594 7.007812 19.84375 6.210938 19.8125 6.222656 Z M 19.8125 6.222656 "/>
<path style=" stroke:none;fill-rule:nonzero;fill:rgb(80%,29.411765%,29.803922%);fill-opacity:1;" d="M 34.3125 40 L 5.6875 40 C 5.109375 40 4.644531 39.53125 4.644531 38.953125 L 4.644531 27.855469 L 35.355469 27.855469 L 35.355469 38.953125 C 35.355469 39.53125 34.890625 40 34.3125 40 Z M 34.3125 40 "/>
<path style=" stroke:none;fill-rule:nonzero;fill:rgb(100%,100%,100%);fill-opacity:1;" d="M 12.417969 37.855469 L 11.246094 37.855469 L 11.246094 30.660156 L 13.316406 30.660156 C 13.621094 30.660156 13.925781 30.707031 14.222656 30.804688 C 14.523438 30.902344 14.792969 31.050781 15.027344 31.246094 C 15.265625 31.441406 15.460938 31.675781 15.605469 31.953125 C 15.753906 32.230469 15.824219 32.539062 15.824219 32.886719 C 15.824219 33.25 15.761719 33.582031 15.640625 33.878906 C 15.515625 34.175781 15.34375 34.421875 15.121094 34.625 C 14.902344 34.828125 14.632812 34.984375 14.320312 35.09375 C 14.007812 35.203125 13.664062 35.257812 13.285156 35.257812 L 12.417969 35.257812 Z M 12.417969 31.546875 L 12.417969 34.398438 L 13.492188 34.398438 C 13.636719 34.398438 13.777344 34.375 13.917969 34.328125 C 14.058594 34.277344 14.1875 34.199219 14.304688 34.085938 C 14.421875 33.976562 14.515625 33.820312 14.585938 33.625 C 14.65625 33.425781 14.691406 33.179688 14.691406 32.886719 C 14.691406 32.769531 14.675781 32.632812 14.644531 32.480469 C 14.613281 32.328125 14.546875 32.183594 14.445312 32.042969 C 14.34375 31.902344 14.203125 31.785156 14.019531 31.691406 C 13.835938 31.597656 13.597656 31.550781 13.296875 31.550781 L 12.417969 31.550781 Z M 12.417969 31.546875 "/>
<path style=" stroke:none;fill-rule:nonzero;fill:rgb(100%,100%,100%);fill-opacity:1;" d="M 23.011719 34.058594 C 23.011719 34.652344 22.949219 35.15625 22.824219 35.578125 C 22.695312 35.996094 22.535156 36.347656 22.339844 36.632812 C 22.144531 36.914062 21.925781 37.136719 21.679688 37.300781 C 21.4375 37.464844 21.199219 37.585938 20.972656 37.667969 C 20.746094 37.75 20.535156 37.800781 20.347656 37.824219 C 20.160156 37.847656 20.019531 37.855469 19.925781 37.855469 L 17.203125 37.855469 L 17.203125 30.660156 L 19.371094 30.660156 C 19.976562 30.660156 20.507812 30.757812 20.96875 30.949219 C 21.425781 31.140625 21.808594 31.394531 22.109375 31.714844 C 22.414062 32.03125 22.636719 32.394531 22.789062 32.804688 C 22.9375 33.210938 23.011719 33.628906 23.011719 34.058594 Z M 19.539062 36.996094 C 20.332031 36.996094 20.902344 36.746094 21.253906 36.238281 C 21.605469 35.730469 21.78125 34.992188 21.78125 34.027344 C 21.78125 33.730469 21.746094 33.433594 21.675781 33.140625 C 21.605469 32.847656 21.464844 32.582031 21.261719 32.34375 C 21.054688 32.105469 20.777344 31.914062 20.425781 31.769531 C 20.074219 31.621094 19.617188 31.546875 19.058594 31.546875 L 18.375 31.546875 L 18.375 36.996094 Z M 19.539062 36.996094 "/>
<path style=" stroke:none;fill-rule:nonzero;fill:rgb(100%,100%,100%);fill-opacity:1;" d="M 25.902344 31.546875 L 25.902344 33.8125 L 28.914062 33.8125 L 28.914062 34.613281 L 25.902344 34.613281 L 25.902344 37.855469 L 24.710938 37.855469 L 24.710938 30.660156 L 29.214844 30.660156 L 29.214844 31.546875 Z M 25.902344 31.546875 "/>
</g>
</svg>
