<?xml version="1.0" encoding="UTF-8" standalone="no"?>
<!DOCTYPE svg PUBLIC "-//W3C//DTD SVG 1.1//EN" "http://www.w3.org/Graphics/SVG/1.1/DTD/svg11.dtd">
<!-- Generated by Microsoft Visio, SVG Export Multi-threaded timers conceptual.svg Page-1 -->
<svg xmlns="http://www.w3.org/2000/svg" xmlns:xlink="http://www.w3.org/1999/xlink" xmlns:ev="http://www.w3.org/2001/xml-events"
		xmlns:v="http://schemas.microsoft.com/visio/2003/SVGExtensions/" width="12.9991in" height="5.3215in"
		viewBox="0 0 935.933 383.148" xml:space="preserve" color-interpolation-filters="sRGB" class="st19">
	<v:documentProperties v:langID="1033" v:viewMarkup="false"/>

	<style type="text/css">
	<![CDATA[
		.st1 {fill:#ffffff;stroke:#00517d;stroke-dasharray:0.75,0.75;stroke-linecap:round;stroke-linejoin:round;stroke-width:0.25}
		.st2 {fill:none;stroke:none;stroke-linecap:round;stroke-linejoin:round;stroke-width:0.75}
		.st3 {fill:#00517d;font-family:SkylineSans;font-size:1.99999em}
		.st4 {fill:#000000;font-family:SkylineSans;font-size:1.66667em}
		.st5 {fill:#e3f3ff;stroke:#00517d;stroke-linecap:round;stroke-linejoin:round;stroke-width:0.25}
		.st6 {fill:none;stroke:none;stroke-linecap:round;stroke-linejoin:round;stroke-width:0.5}
		.st7 {fill:#000000;font-family:SkylineSans;font-size:1.33333em}
		.st8 {fill:#bdd6ff;stroke:#000000;stroke-linecap:round;stroke-linejoin:round;stroke-width:0.75}
		.st9 {fill:#000000;font-family:SkylineSans;font-size:1.00001em}
		.st10 {fill:#8cceff;stroke:#000000;stroke-linecap:round;stroke-linejoin:round;stroke-width:0.75}
		.st11 {fill:#00517d;stroke:#000000;stroke-linecap:round;stroke-linejoin:round;stroke-width:0.75}
		.st12 {fill:#ffffff;stroke:#000000;stroke-linecap:round;stroke-linejoin:round;stroke-width:0.75}
		.st13 {marker-end:url(#mrkr4-121);marker-start:url(#mrkr4-119);stroke:#000000;stroke-linecap:round;stroke-linejoin:round;stroke-width:0.75}
		.st14 {fill:#000000;fill-opacity:1;stroke:#000000;stroke-opacity:1;stroke-width:0.22935779816514}
		.st15 {stroke:#000000;stroke-dasharray:2.25,2.25;stroke-linecap:round;stroke-linejoin:round;stroke-width:0.75}
		.st16 {stroke:#8cceff;stroke-dasharray:2.25,2.25;stroke-linecap:round;stroke-linejoin:round;stroke-width:0.75}
		.st17 {stroke:#00517d;stroke-dasharray:2.25,2.25;stroke-linecap:round;stroke-linejoin:round;stroke-width:0.75}
		.st18 {fill:#0000ff;font-family:SkylineSans;font-size:0.791656em}
		.st19 {fill:none;fill-rule:evenodd;font-size:12px;overflow:visible;stroke-linecap:square;stroke-miterlimit:3}
	]]>
	</style>

	<defs id="Markers">
		<g id="lend4">
			<path d="M 2 1 L 0 0 L 2 -1 L 2 1 " style="stroke:none"/>
		</g>
		<marker id="mrkr4-119" class="st14" v:arrowType="4" v:arrowSize="2" v:setback="8.24" refX="8.24" orient="auto"
				markerUnits="strokeWidth" overflow="visible">
			<use xlink:href="#lend4" transform="scale(4.36) "/>
		</marker>
		<marker id="mrkr4-121" class="st14" v:arrowType="4" v:arrowSize="2" v:setback="8.72" refX="-8.72" orient="auto"
				markerUnits="strokeWidth" overflow="visible">
			<use xlink:href="#lend4" transform="scale(-4.36,-4.36) "/>
		</marker>
	</defs>
	<g v:mID="0" v:index="1" v:groupContext="foregroundPage">
		<title>Page-1</title>
		<v:pageProperties v:drawingScale="0.0393701" v:pageScale="0.0393701" v:drawingUnits="24" v:shadowOffsetX="8.50394"
				v:shadowOffsetY="-8.50394"/>
		<g id="shape194-1" v:mID="194" v:groupContext="shape" transform="translate(0.375,-0.125)">
			<title>Sheet.194</title>
			<path d="M0 383.15 L935.43 383.15 L935.43 0.25 L0 0.25 L0 383.15 Z" class="st1"/>
		</g>
		<g id="shape195-3" v:mID="195" v:groupContext="shape" transform="translate(0.375,-350.633)">
			<title>Sheet.195</title>
			<desc>SLProtocol</desc>
			<v:textBlock v:margins="rect(4,4,4,4)" v:tabSpace="42.5197"/>
			<v:textRect cx="85.0394" cy="372.518" width="170.08" height="21.2598"/>
			<rect x="0" y="361.888" width="170.079" height="21.2598" class="st2"/>
			<text x="24.69" y="379.72" class="st3" v:langID="1033"><v:paragraph v:horizAlign="1"/><v:tabList/>SLProtocol</text>		</g>
		<g id="shape196-6" v:mID="196" v:groupContext="shape" transform="translate(411.898,-314.853)">
			<title>Sheet.196</title>
			<desc>Multi-threaded timer</desc>
			<v:textBlock v:margins="rect(4,4,4,4)" v:tabSpace="42.5197"/>
			<v:textRect cx="120.223" cy="377.409" width="240.45" height="11.4776"/>
			<rect x="0" y="371.671" width="240.445" height="11.4776" class="st2"/>
			<text x="23.11" y="383.41" class="st4" v:langID="1033"><v:paragraph v:horizAlign="1"/><v:tabList/>Multi-threaded timer</text>		</g>
		<g id="shape197-9" v:mID="197" v:groupContext="shape" transform="translate(420.967,-29.2701)">
			<title>Sheet.197</title>
			<rect x="0" y="116.143" width="477.99" height="267.005" class="st5"/>
		</g>
		<g id="shape198-11" v:mID="198" v:groupContext="shape" transform="translate(744.469,-249.983)">
			<title>Sheet.198</title>
			<desc>Thread pool</desc>
			<v:textBlock v:margins="rect(4,4,4,4)" v:tabSpace="42.5197"/>
			<v:textRect cx="57.3367" cy="373.148" width="114.68" height="20"/>
			<rect x="0" y="363.148" width="114.673" height="20" class="st6"/>
			<text x="11.94" y="377.95" class="st7" v:langID="1033"><v:paragraph v:horizAlign="1"/><v:tabList/>Thread pool</text>		</g>
		<g id="shape199-14" v:mID="199" v:groupContext="shape" transform="translate(33.1723,-269.637)">
			<title>Sheet.199</title>
			<desc>1</desc>
			<v:textBlock v:margins="rect(4,4,4,4)" v:tabSpace="42.5197"/>
			<v:textRect cx="18.9449" cy="368.975" width="37.89" height="28.3465"/>
			<rect x="0" y="354.802" width="37.8898" height="28.3465" class="st8"/>
			<text x="16.48" y="372.58" class="st9" v:langID="1033"><v:paragraph v:horizAlign="1"/><v:tabList/>1</text>		</g>
		<g id="shape200-17" v:mID="200" v:groupContext="shape" transform="translate(33.1723,-241.291)">
			<title>Sheet.200</title>
			<rect x="0" y="354.802" width="37.8898" height="28.3465" class="st10"/>
		</g>
		<g id="shape201-19" v:mID="201" v:groupContext="shape" transform="translate(33.3514,-212.944)">
			<title>Sheet.201</title>
			<desc>3</desc>
			<v:textBlock v:margins="rect(4,4,4,4)" v:tabSpace="42.5197"/>
			<v:textRect cx="18.9449" cy="368.975" width="37.89" height="28.3465"/>
			<rect x="0" y="354.802" width="37.8898" height="28.3465" class="st11"/>
			<text x="15.88" y="372.58" class="st9" v:langID="1033"><v:paragraph v:horizAlign="1"/><v:tabList/>3</text>		</g>
		<g id="shape202-22" v:mID="202" v:groupContext="shape" transform="translate(33.3514,-184.598)">
			<title>Sheet.202</title>
			<desc>4</desc>
			<v:textBlock v:margins="rect(4,4,4,4)" v:tabSpace="42.5197"/>
			<v:textRect cx="18.9449" cy="368.975" width="37.89" height="28.3465"/>
			<rect x="0" y="354.802" width="37.8898" height="28.3465" class="st8"/>
			<text x="15.63" y="372.58" class="st9" v:langID="1033"><v:paragraph v:horizAlign="1"/><v:tabList/>4</text>		</g>
		<g id="shape203-25" v:mID="203" v:groupContext="shape" transform="translate(33.3514,-156.251)">
			<title>Sheet.203</title>
			<desc>5</desc>
			<v:textBlock v:margins="rect(4,4,4,4)" v:tabSpace="42.5197"/>
			<v:textRect cx="18.9449" cy="368.975" width="37.89" height="28.3465"/>
			<rect x="0" y="354.802" width="37.8898" height="28.3465" class="st10"/>
			<text x="15.62" y="372.58" class="st9" v:langID="1033"><v:paragraph v:horizAlign="1"/><v:tabList/>5</text>		</g>
		<g id="shape204-28" v:mID="204" v:groupContext="shape" transform="translate(33.3514,-99.5586)">
			<title>Sheet.204</title>
			<desc>n</desc>
			<v:textBlock v:margins="rect(4,4,4,4)" v:tabSpace="42.5197"/>
			<v:textRect cx="18.9449" cy="368.975" width="37.89" height="28.3465"/>
			<rect x="0" y="354.802" width="37.8898" height="28.3465" class="st8"/>
			<text x="15.43" y="372.58" class="st9" v:langID="1033"><v:paragraph v:horizAlign="1"/><v:tabList/>n</text>		</g>
		<g id="shape205-31" v:mID="205" v:groupContext="shape" transform="translate(71.2411,-269.637)">
			<title>Sheet.205</title>
			<rect x="0" y="354.802" width="125.816" height="28.3465" class="st12"/>
		</g>
		<g id="shape206-33" v:mID="206" v:groupContext="shape" transform="translate(71.2411,-241.291)">
			<title>Sheet.206</title>
			<rect x="0" y="354.802" width="125.816" height="28.3465" class="st12"/>
		</g>
		<g id="shape207-35" v:mID="207" v:groupContext="shape" transform="translate(71.4202,-212.944)">
			<title>Sheet.207</title>
			<rect x="0" y="354.802" width="125.816" height="28.3465" class="st12"/>
		</g>
		<g id="shape208-37" v:mID="208" v:groupContext="shape" transform="translate(71.4202,-184.598)">
			<title>Sheet.208</title>
			<rect x="0" y="354.802" width="125.816" height="28.3465" class="st12"/>
		</g>
		<g id="shape209-39" v:mID="209" v:groupContext="shape" transform="translate(71.4202,-156.251)">
			<title>Sheet.209</title>
			<rect x="0" y="354.802" width="125.816" height="28.3465" class="st12"/>
		</g>
		<g id="shape210-41" v:mID="210" v:groupContext="shape" transform="translate(33.3514,-127.905)">
			<title>Sheet.210</title>
			<desc>...</desc>
			<v:textBlock v:margins="rect(4,4,4,4)" v:tabSpace="42.5197"/>
			<v:textRect cx="145.052" cy="368.975" width="290.11" height="28.3465"/>
			<rect x="0" y="354.802" width="290.104" height="28.3465" class="st12"/>
			<text x="142.12" y="372.58" class="st9" v:langID="1033"><v:paragraph v:horizAlign="1"/><v:tabList/>...</text>		</g>
		<g id="shape211-44" v:mID="211" v:groupContext="shape" transform="translate(71.4202,-99.5586)">
			<title>Sheet.211</title>
			<rect x="0" y="354.802" width="125.816" height="28.3465" class="st12"/>
		</g>
		<g id="shape212-46" v:mID="212" v:groupContext="shape" transform="translate(197.408,-269.637)">
			<title>Sheet.212</title>
			<rect x="0" y="354.802" width="125.816" height="28.3465" class="st12"/>
		</g>
		<g id="shape213-48" v:mID="213" v:groupContext="shape" transform="translate(197.408,-241.291)">
			<title>Sheet.213</title>
			<rect x="0" y="354.802" width="125.816" height="28.3465" class="st12"/>
		</g>
		<g id="shape214-50" v:mID="214" v:groupContext="shape" transform="translate(197.587,-212.944)">
			<title>Sheet.214</title>
			<rect x="0" y="354.802" width="125.816" height="28.3465" class="st12"/>
		</g>
		<g id="shape215-52" v:mID="215" v:groupContext="shape" transform="translate(197.587,-184.598)">
			<title>Sheet.215</title>
			<rect x="0" y="354.802" width="125.816" height="28.3465" class="st12"/>
		</g>
		<g id="shape216-54" v:mID="216" v:groupContext="shape" transform="translate(197.587,-156.251)">
			<title>Sheet.216</title>
			<rect x="0" y="354.802" width="125.816" height="28.3465" class="st12"/>
		</g>
		<g id="shape217-56" v:mID="217" v:groupContext="shape" transform="translate(197.587,-99.5586)">
			<title>Sheet.217</title>
			<rect x="0" y="354.802" width="125.816" height="28.3465" class="st12"/>
		</g>
		<g id="shape218-58" v:mID="218" v:groupContext="shape" transform="translate(28.7215,-310.135)">
			<title>Sheet.218</title>
			<desc>Table</desc>
			<v:textBlock v:margins="rect(4,4,4,4)" v:tabSpace="42.5197"/>
			<v:textRect cx="62.908" cy="368.975" width="125.82" height="28.3465"/>
			<rect x="0" y="354.802" width="125.816" height="28.3465" class="st2"/>
			<text x="36.59" y="374.98" class="st4" v:langID="1033"><v:paragraph v:horizAlign="1"/><v:tabList/>Table</text>		</g>
		<g id="shape222-61" v:mID="222" v:groupContext="shape" transform="translate(474.304,-162.965)">
			<title>Sheet.222</title>
			<path d="M0.1 380.66 A14.1732 2.83465 -180 0 0 27.95 380.98 L28.24 379.97 A14.1732 2.83465 -180 0 0 -0 380.29 L0.1 380.66
						 Z" class="st10"/>
		</g>
		<g id="group223-63" transform="translate(467.217,-165.455)" v:mID="223" v:groupContext="group">
			<title>Sheet.223</title>
			<g id="shape224-64" v:mID="224" v:groupContext="shape" transform="translate(0.0219545,0)">
				<title>Sheet.224</title>
				<path d="M7.04 383.15 A14.1732 2.83465 0 0 1 35.29 382.83 L42.37 358.71 A21.2598 3.54331 0 0 1 -0 358.59 L7.04 383.15
							 Z" class="st10"/>
			</g>
			<g id="shape225-66" v:mID="225" v:groupContext="shape" transform="translate(0,-21.6047)">
				<title>Sheet.225</title>
				<ellipse cx="21.2598" cy="379.605" rx="21.2598" ry="3.54331" class="st10"/>
			</g>
		</g>
		<g id="shape227-68" v:mID="227" v:groupContext="shape" transform="translate(474.304,-210.11)">
			<title>Sheet.227</title>
			<path d="M0.1 380.66 A14.1732 2.83465 -180 0 0 27.95 380.98 L28.24 379.97 A14.1732 2.83465 -180 0 0 -0 380.29 L0.1 380.66
						 Z" class="st8"/>
		</g>
		<g id="group228-70" transform="translate(467.217,-212.6)" v:mID="228" v:groupContext="group">
			<title>Sheet.228</title>
			<g id="shape229-71" v:mID="229" v:groupContext="shape" transform="translate(0.0219545,0)">
				<title>Sheet.229</title>
				<path d="M7.04 383.15 A14.1732 2.83465 0 0 1 35.29 382.83 L42.37 358.71 A21.2598 3.54331 0 0 1 -0 358.59 L7.04 383.15
							 Z" class="st8"/>
			</g>
			<g id="shape230-73" v:mID="230" v:groupContext="shape" transform="translate(0,-21.6047)">
				<title>Sheet.230</title>
				<ellipse cx="21.2598" cy="379.605" rx="21.2598" ry="3.54331" class="st8"/>
			</g>
		</g>
		<g id="shape232-75" v:mID="232" v:groupContext="shape" transform="translate(477.661,-113.732)">
			<title>Sheet.232</title>
			<path d="M0.1 380.66 A14.1732 2.83465 -180 0 0 27.95 380.98 L28.24 379.97 A14.1732 2.83465 -180 0 0 -0 380.29 L0.1 380.66
						 Z" class="st11"/>
		</g>
		<g id="group233-77" transform="translate(470.574,-116.222)" v:mID="233" v:groupContext="group">
			<title>Sheet.233</title>
			<g id="shape234-78" v:mID="234" v:groupContext="shape" transform="translate(0.0219545,0)">
				<title>Sheet.234</title>
				<path d="M7.04 383.15 A14.1732 2.83465 0 0 1 35.29 382.83 L42.37 358.71 A21.2598 3.54331 0 0 1 -0 358.59 L7.04 383.15
							 Z" class="st11"/>
			</g>
			<g id="shape235-80" v:mID="235" v:groupContext="shape" transform="translate(0,-21.6047)">
				<title>Sheet.235</title>
				<ellipse cx="21.2598" cy="379.605" rx="21.2598" ry="3.54331" class="st11"/>
			</g>
		</g>
		<g id="shape236-82" v:mID="236" v:groupContext="shape" transform="translate(420.967,-249.637)">
			<title>Sheet.236</title>
			<desc>Buckets</desc>
			<v:textBlock v:margins="rect(4,4,4,4)" v:tabSpace="42.5197"/>
			<v:textRect cx="62.908" cy="373.148" width="125.82" height="20"/>
			<rect x="0" y="363.148" width="125.816" height="20" class="st2"/>
			<text x="34.79" y="377.95" class="st7" v:langID="1033"><v:paragraph v:horizAlign="1"/><v:tabList/>Buckets</text>		</g>
		<g id="shape237-85" v:mID="237" v:groupContext="shape" transform="translate(584.445,-249.983)">
			<title>Sheet.237</title>
			<desc>Queue</desc>
			<v:textBlock v:margins="rect(4,4,4,4)" v:tabSpace="42.5197"/>
			<v:textRect cx="46.7717" cy="373.148" width="93.55" height="20"/>
			<rect x="0" y="363.148" width="93.5433" height="20" class="st2"/>
			<text x="22.36" y="377.95" class="st7" v:langID="1033"><v:paragraph v:horizAlign="1"/><v:tabList/>Queue</text>		</g>
		<g id="shape238-88" v:mID="238" v:groupContext="shape" transform="translate(585.83,-220.031)">
			<title>Sheet.238</title>
			<rect x="0" y="361.888" width="93.5433" height="21.2598" class="st8"/>
		</g>
		<g id="shape239-90" v:mID="239" v:groupContext="shape" transform="translate(744.599,-219.858)">
			<title>Sheet.239</title>
			<desc>Thread 1</desc>
			<v:textBlock v:margins="rect(4,4,4,4)" v:tabSpace="42.5197"/>
			<v:textRect cx="57.3367" cy="372.518" width="114.68" height="21.2598"/>
			<rect x="0" y="361.888" width="114.673" height="21.2598" class="st12"/>
			<text x="33.41" y="376.12" class="st9" v:langID="1033"><v:paragraph v:horizAlign="1"/><v:tabList/>Thread 1</text>		</g>
		<g id="shape240-93" v:mID="240" v:groupContext="shape" transform="translate(585.83,-198.771)">
			<title>Sheet.240</title>
			<rect x="0" y="361.888" width="93.5433" height="21.2598" class="st8"/>
		</g>
		<g id="shape241-95" v:mID="241" v:groupContext="shape" transform="translate(585.83,-177.511)">
			<title>Sheet.241</title>
			<rect x="0" y="361.888" width="93.5433" height="21.2598" class="st8"/>
		</g>
		<g id="shape242-97" v:mID="242" v:groupContext="shape" transform="translate(585.83,-156.424)">
			<title>Sheet.242</title>
			<rect x="0" y="361.888" width="93.5433" height="21.2598" class="st10"/>
		</g>
		<g id="shape243-99" v:mID="243" v:groupContext="shape" transform="translate(585.83,-134.992)">
			<title>Sheet.243</title>
			<rect x="0" y="361.888" width="93.5433" height="21.2598" class="st10"/>
		</g>
		<g id="shape244-101" v:mID="244" v:groupContext="shape" transform="translate(585.83,-113.732)">
			<title>Sheet.244</title>
			<desc>...</desc>
			<v:textBlock v:margins="rect(4,4,4,4)" v:tabSpace="42.5197"/>
			<v:textRect cx="46.7717" cy="372.518" width="93.55" height="21.2598"/>
			<rect x="0" y="361.888" width="93.5433" height="21.2598" class="st12"/>
			<text x="43.84" y="376.12" class="st9" v:langID="1033"><v:paragraph v:horizAlign="1"/><v:tabList/>...</text>		</g>
		<g id="shape245-104" v:mID="245" v:groupContext="shape" transform="translate(744.599,-198.598)">
			<title>Sheet.245</title>
			<desc>Thread 2</desc>
			<v:textBlock v:margins="rect(4,4,4,4)" v:tabSpace="42.5197"/>
			<v:textRect cx="57.3367" cy="372.518" width="114.68" height="21.2598"/>
			<rect x="0" y="361.888" width="114.673" height="21.2598" class="st12"/>
			<text x="32.88" y="376.12" class="st9" v:langID="1033"><v:paragraph v:horizAlign="1"/><v:tabList/>Thread 2</text>		</g>
		<g id="shape246-107" v:mID="246" v:groupContext="shape" transform="translate(744.599,-177.338)">
			<title>Sheet.246</title>
			<desc>...</desc>
			<v:textBlock v:margins="rect(4,4,4,4)" v:tabSpace="42.5197"/>
			<v:textRect cx="57.3367" cy="372.518" width="114.68" height="21.2598"/>
			<rect x="0" y="361.888" width="114.673" height="21.2598" class="st12"/>
			<text x="54.4" y="376.12" class="st9" v:langID="1033"><v:paragraph v:horizAlign="1"/><v:tabList/>...</text>		</g>
		<g id="shape247-110" v:mID="247" v:groupContext="shape" transform="translate(744.599,-156.251)">
			<title>Sheet.247</title>
			<desc>Thread n</desc>
			<v:textBlock v:margins="rect(4,4,4,4)" v:tabSpace="42.5197"/>
			<v:textRect cx="57.3367" cy="372.518" width="114.68" height="21.2598"/>
			<rect x="0" y="361.888" width="114.673" height="21.2598" class="st12"/>
			<text x="32.36" y="376.12" class="st9" v:langID="1033"><v:paragraph v:horizAlign="1"/><v:tabList/>Thread n</text>		</g>
		<g id="shape248-113" v:mID="248" v:groupContext="shape" transform="translate(957.319,141.857) rotate(90)">
			<title>Sheet.248</title>
			<path d="M6.18 383.15 L6.54 383.15 L121.02 383.15" class="st13"/>
		</g>
		<g id="shape249-122" v:mID="249" v:groupContext="shape" transform="translate(1116.06,141.857) rotate(90)">
			<title>Sheet.249</title>
			<path d="M6.18 383.15 L6.54 383.15 L78.5 383.15" class="st13"/>
		</g>
		<g id="shape250-129" v:mID="250" v:groupContext="shape" transform="translate(323.224,-227.118)">
			<title>Sheet.250</title>
			<path d="M0 326.46 L55.22 326.46 L55.22 383.15 L146.89 383.15" class="st15"/>
		</g>
		<g id="shape251-132" v:mID="251" v:groupContext="shape" transform="translate(323.403,-198.771)">
			<title>Sheet.251</title>
			<path d="M0 383.15 L55.04 383.15 L55.04 354.8" class="st15"/>
		</g>
		<g id="shape252-135" v:mID="252" v:groupContext="shape" transform="translate(323.403,-113.732)">
			<title>Sheet.252</title>
			<path d="M0 383.15 L55.04 383.15 L55.04 298.11" class="st15"/>
		</g>
		<g id="shape253-138" v:mID="253" v:groupContext="shape" transform="translate(839.668,141.857) rotate(90)">
			<title>Sheet.253</title>
			<path d="M6.18 383.15 L6.54 383.15 L121.02 383.15" class="st13"/>
		</g>
		<g id="shape254-145" v:mID="254" v:groupContext="shape" transform="translate(323.403,-255.464)">
			<title>Sheet.254</title>
			<path d="M0 383.15 L76.42 383.15" class="st16"/>
		</g>
		<g id="shape255-148" v:mID="255" v:groupContext="shape" transform="translate(323.403,-170.425)">
			<title>Sheet.255</title>
			<path d="M0 383.15 L76.42 383.15" class="st16"/>
		</g>
		<g id="shape256-151" v:mID="256" v:groupContext="shape" transform="translate(782.975,127.684) rotate(90)">
			<title>Sheet.256</title>
			<path d="M0 383.15 L85.04 383.15" class="st16"/>
		</g>
		<g id="shape257-154" v:mID="257" v:groupContext="shape" transform="translate(399.827,-184.598)">
			<title>Sheet.257</title>
			<path d="M0 383.15 L68.96 383.15" class="st16"/>
		</g>
		<g id="shape258-157" v:mID="258" v:groupContext="shape" transform="translate(323.403,-134.813)">
			<title>Sheet.258</title>
			<path d="M0 290.84 L26.7 290.84 L26.7 383.15 L148.9 383.15" class="st17"/>
		</g>
		<g id="shape259-160" v:mID="259" v:groupContext="shape" transform="translate(345.292,232.031) rotate(-90)">
			<title>Sheet.259</title>
			<desc>threadpool:&#60;size&#62;</desc>
			<v:textBlock v:margins="rect(4,4,4,4)"/>
			<v:textRect cx="52.1732" cy="373.446" width="104.35" height="19.4035"/>
			<rect x="0" y="363.745" width="104.346" height="19.4035" class="st2"/>
			<text x="4" y="376.3" class="st18" v:langID="1033"><v:paragraph v:bulletSize="0.166667"/><v:tabList/>threadpool:&#60;size&#62;</text>		</g>
		<g id="shape260-163" v:mID="260" v:groupContext="shape" transform="translate(186.552,267.551) rotate(-90)">
			<title>Sheet.260</title>
			<desc>threadpool:&#60;queueSize&#62;</desc>
			<v:textBlock v:margins="rect(4,4,4,4)"/>
			<v:textRect cx="63.7795" cy="373.446" width="127.56" height="19.4035"/>
			<rect x="0" y="363.745" width="127.559" height="19.4035" class="st2"/>
			<text x="4" y="376.3" class="st18" v:langID="1033"><v:paragraph v:bulletSize="0.166667"/><v:tabList/>threadpool:&#60;queueSize&#62;</text>		</g>
		<g id="shape261-166" v:mID="261" v:groupContext="shape" transform="translate(69.7474,234.155) rotate(-90)">
			<title>Sheet.261</title>
			<desc>each/1000</desc>
			<v:textBlock v:margins="rect(4,4,4,4)"/>
			<v:textRect cx="28.3465" cy="373.446" width="56.7" height="19.4035"/>
			<rect x="0" y="363.745" width="56.6929" height="19.4035" class="st2"/>
			<text x="4" y="376.3" class="st18" v:langID="1033"><v:paragraph v:bulletSize="0.166667"/><v:tabList/>each/1000</text>		</g>
	</g>
</svg>
