<?xml version="1.0" encoding="UTF-8" standalone="no"?>
<!DOCTYPE svg PUBLIC "-//W3C//DTD SVG 1.1//EN" "http://www.w3.org/Graphics/SVG/1.1/DTD/svg11.dtd">
<!-- Generated by Microsoft Visio, SVG Export real-time trend graph.svg Page-1 -->
<svg xmlns="http://www.w3.org/2000/svg" xmlns:xlink="http://www.w3.org/1999/xlink" xmlns:ev="http://www.w3.org/2001/xml-events"
		xmlns:v="http://schemas.microsoft.com/visio/2003/SVGExtensions/" width="2.25057in" height="1.11278in"
		viewBox="0 0 162.041 80.1201" xml:space="preserve" color-interpolation-filters="sRGB" class="st11">
	<v:documentProperties v:langID="1033" v:viewMarkup="false"/>

	<style type="text/css">
	<![CDATA[
		.st1 {marker-end:url(#mrkr4-6);stroke:#000000;stroke-linecap:round;stroke-linejoin:round;stroke-width:0.5}
		.st2 {fill:#000000;fill-opacity:1;stroke:#000000;stroke-opacity:1;stroke-width:0.21739130434783}
		.st3 {stroke:#000000;stroke-dasharray:0.75,0.75;stroke-linecap:round;stroke-linejoin:round;stroke-width:0.25}
		.st4 {fill:none;stroke:none;stroke-linecap:round;stroke-linejoin:round;stroke-width:0.75}
		.st5 {fill:#000000;font-family:SkylineSans;font-size:0.499992em}
		.st6 {stroke:#0070c0;stroke-linecap:round;stroke-linejoin:round;stroke-width:0.75}
		.st7 {fill:#000000;font-family:SkylineSans;font-size:0.333344em}
		.st8 {stroke:#000000;stroke-linecap:round;stroke-linejoin:round;stroke-width:0.75}
		.st9 {stroke:#000000;stroke-dasharray:0,1.25;stroke-linecap:round;stroke-linejoin:round;stroke-width:0.25}
		.st10 {fill:#000000;font-family:SkylineSans;font-size:0.666664em}
		.st11 {fill:none;fill-rule:evenodd;font-size:12px;overflow:visible;stroke-linecap:square;stroke-miterlimit:3}
	]]>
	</style>

	<defs id="Markers">
		<g id="lend4">
			<path d="M 2 1 L 0 0 L 2 -1 L 2 1 " style="stroke:none"/>
		</g>
		<marker id="mrkr4-6" class="st2" v:arrowType="4" v:arrowSize="1" v:setback="9.2" refX="-9.2" orient="auto"
				markerUnits="strokeWidth" overflow="visible">
			<use xlink:href="#lend4" transform="scale(-4.6,-4.6) "/>
		</marker>
	</defs>
	<g v:mID="0" v:index="1" v:groupContext="foregroundPage">
		<title>Page-1</title>
		<v:pageProperties v:drawingScale="0.0393701" v:pageScale="0.0393701" v:drawingUnits="24" v:shadowOffsetX="8.50394"
				v:shadowOffsetY="-8.50394"/>
		<g id="shape1-1" v:mID="1" v:groupContext="shape" transform="translate(29.8553,-7.46161)">
			<title>Sheet.1</title>
			<path d="M0 80.12 L115.87 80.12" class="st1"/>
		</g>
		<g id="shape2-7" v:mID="2" v:groupContext="shape" transform="translate(-50.2648,72.6585) rotate(-90)">
			<title>Sheet.2</title>
			<path d="M0 80.12 L59.18 80.12" class="st1"/>
		</g>
		<g id="shape4-12" v:mID="4" v:groupContext="shape" transform="translate(-21.9183,72.6585) rotate(-90)">
			<title>Sheet.4</title>
			<path d="M0 80.12 L49.61 80.12" class="st3"/>
		</g>
		<g id="shape28-15" v:mID="28" v:groupContext="shape" transform="translate(6.42815,72.6585) rotate(-90)">
			<title>Sheet.28</title>
			<path d="M0 80.12 L49.61 80.12" class="st3"/>
		</g>
		<g id="shape29-18" v:mID="29" v:groupContext="shape" transform="translate(34.7746,72.6585) rotate(-90)">
			<title>Sheet.29</title>
			<path d="M0 80.12 L49.61 80.12" class="st3"/>
		</g>
		<g id="shape31-21" v:mID="31" v:groupContext="shape" transform="translate(147.493,-0.375)">
			<title>Sheet.31</title>
			<desc>t</desc>
			<v:textBlock v:margins="rect(4,4,4,4)" v:tabSpace="42.5197"/>
			<v:textRect cx="7.08661" cy="73.0335" width="14.18" height="14.1732"/>
			<rect x="0" y="65.9469" width="14.1732" height="14.1732" class="st4"/>
			<text x="5.97" y="74.83" class="st5" v:langID="2067"><v:paragraph v:horizAlign="1"/><v:tabList/>t</text>		</g>
		<g id="shape32-24" v:mID="32" v:groupContext="shape" transform="translate(0.375,-63.0207)">
			<title>Sheet.32</title>
			<desc>value</desc>
			<v:textBlock v:margins="rect(4,4,4,4)" v:tabSpace="42.5197"/>
			<v:textRect cx="14.1732" cy="74.4508" width="28.35" height="11.3386"/>
			<rect x="0" y="68.7815" width="28.3465" height="11.3386" class="st4"/>
			<text x="6.57" y="76.25" class="st5" v:langID="2067"><v:paragraph v:horizAlign="1"/><v:tabList/>value</text>		</g>
		<g id="shape42-27" v:mID="42" v:groupContext="shape" transform="translate(72.375,118.763) rotate(180)">
			<title>Sheet.42</title>
			<path d="M0 80.12 L14.17 80.12" class="st6"/>
		</g>
		<g id="shape44-30" v:mID="44" v:groupContext="shape" transform="translate(46.8632,-0.658465)">
			<title>Sheet.44</title>
			<desc>10:35</desc>
			<v:textBlock v:margins="rect(4,4,4,4)" v:tabSpace="42.5197"/>
			<v:textRect cx="11.3386" cy="77.2854" width="22.68" height="5.66929"/>
			<rect x="0" y="74.4508" width="22.6772" height="5.66929" class="st4"/>
			<text x="6.85" y="78.49" class="st7" v:langID="2067"><v:paragraph v:horizAlign="1"/><v:tabList/>10:35</text>		</g>
		<g id="shape45-33" v:mID="45" v:groupContext="shape" transform="translate(75.2096,-0.658465)">
			<title>Sheet.45</title>
			<desc>10:40</desc>
			<v:textBlock v:margins="rect(4,4,4,4)" v:tabSpace="42.5197"/>
			<v:textRect cx="11.3386" cy="77.2854" width="22.68" height="5.66929"/>
			<rect x="0" y="74.4508" width="22.6772" height="5.66929" class="st4"/>
			<text x="6.67" y="78.49" class="st7" v:langID="2067"><v:paragraph v:horizAlign="1"/><v:tabList/>10:40</text>		</g>
		<g id="shape46-36" v:mID="46" v:groupContext="shape" transform="translate(103.556,-0.658465)">
			<title>Sheet.46</title>
			<desc>10:45</desc>
			<v:textBlock v:margins="rect(4,4,4,4)" v:tabSpace="42.5197"/>
			<v:textRect cx="11.3386" cy="77.2854" width="22.68" height="5.66929"/>
			<rect x="0" y="74.4508" width="22.6772" height="5.66929" class="st4"/>
			<text x="6.77" y="78.49" class="st7" v:langID="2067"><v:paragraph v:horizAlign="1"/><v:tabList/>10:45</text>		</g>
		<g id="shape49-39" v:mID="49" v:groupContext="shape" transform="translate(29.8553,-35.8081)">
			<title>Sheet.49</title>
			<path d="M0 80.12 L3.02 80.12" class="st8"/>
		</g>
		<g id="shape50-42" v:mID="50" v:groupContext="shape" transform="translate(29.8553,-41.4774)">
			<title>Sheet.50</title>
			<path d="M0 80.12 L3.02 80.12" class="st8"/>
		</g>
		<g id="shape51-45" v:mID="51" v:groupContext="shape" transform="translate(29.8553,-30.1388)">
			<title>Sheet.51</title>
			<path d="M0 80.12 L2.83 80.12" class="st8"/>
		</g>
		<g id="shape52-48" v:mID="52" v:groupContext="shape" transform="translate(29.8553,-24.4695)">
			<title>Sheet.52</title>
			<path d="M0 80.12 L3.02 80.12" class="st8"/>
		</g>
		<g id="shape53-51" v:mID="53" v:groupContext="shape" transform="translate(29.8553,-18.8002)">
			<title>Sheet.53</title>
			<path d="M0 80.12 L2.65 80.12" class="st8"/>
		</g>
		<g id="shape54-54" v:mID="54" v:groupContext="shape" transform="translate(29.8553,-13.1309)">
			<title>Sheet.54</title>
			<path d="M0 80.12 L2.65 80.12" class="st8"/>
		</g>
		<g id="shape55-57" v:mID="55" v:groupContext="shape" transform="translate(29.8553,-47.1467)">
			<title>Sheet.55</title>
			<path d="M0 80.12 L3.02 80.12" class="st8"/>
		</g>
		<g id="shape56-60" v:mID="56" v:groupContext="shape" transform="translate(18.5167,-10.5797)">
			<title>Sheet.56</title>
			<desc>2</desc>
			<v:textBlock v:margins="rect(4,4,4,4)" v:tabSpace="42.5197"/>
			<v:textRect cx="3.9685" cy="77.5689" width="7.94" height="5.10236"/>
			<rect x="0" y="75.0177" width="7.93701" height="5.10236" class="st4"/>
			<text x="4" y="78.77" class="st7" v:langID="2067"><v:paragraph v:horizAlign="1"/><v:tabList/>2</text>		</g>
		<g id="shape57-63" v:mID="57" v:groupContext="shape" transform="translate(18.3278,-16.3435)">
			<title>Sheet.57</title>
			<desc>4</desc>
			<v:textBlock v:margins="rect(4,4,4,4)" v:tabSpace="42.5197"/>
			<v:textRect cx="3.9685" cy="77.5689" width="7.94" height="5.10236"/>
			<rect x="0" y="75.0177" width="7.93701" height="5.10236" class="st4"/>
			<text x="4" y="78.77" class="st7" v:langID="2067"><v:paragraph v:horizAlign="1"/><v:tabList/>4</text>		</g>
		<g id="shape58-66" v:mID="58" v:groupContext="shape" transform="translate(18.3278,-21.5404)">
			<title>Sheet.58</title>
			<desc>6</desc>
			<v:textBlock v:margins="rect(4,4,4,4)" v:tabSpace="42.5197"/>
			<v:textRect cx="3.9685" cy="77.5689" width="7.94" height="5.10236"/>
			<rect x="0" y="75.0177" width="7.93701" height="5.10236" class="st4"/>
			<text x="4" y="78.77" class="st7" v:langID="2067"><v:paragraph v:horizAlign="1"/><v:tabList/>6</text>		</g>
		<g id="shape59-69" v:mID="59" v:groupContext="shape" transform="translate(18.5167,-27.3986)">
			<title>Sheet.59</title>
			<desc>8</desc>
			<v:textBlock v:margins="rect(4,4,4,4)" v:tabSpace="42.5197"/>
			<v:textRect cx="3.9685" cy="77.5689" width="7.94" height="5.10236"/>
			<rect x="0" y="75.0177" width="7.93701" height="5.10236" class="st4"/>
			<text x="4" y="78.77" class="st7" v:langID="2067"><v:paragraph v:horizAlign="1"/><v:tabList/>8</text>		</g>
		<g id="shape60-72" v:mID="60" v:groupContext="shape" transform="translate(15.4931,-33.2569)">
			<title>Sheet.60</title>
			<desc>10</desc>
			<v:textBlock v:margins="rect(4,4,4,4)" v:tabSpace="42.5197"/>
			<v:textRect cx="7.08661" cy="77.5689" width="14.18" height="5.10236"/>
			<rect x="0" y="75.0177" width="14.1732" height="5.10236" class="st4"/>
			<text x="5.06" y="78.77" class="st7" v:langID="2067"><v:paragraph v:horizAlign="1"/><v:tabList/>10</text>		</g>
		<g id="shape62-75" v:mID="62" v:groupContext="shape" transform="translate(15.6821,-38.9262)">
			<title>Sheet.62</title>
			<desc>12</desc>
			<v:textBlock v:margins="rect(4,4,4,4)" v:tabSpace="42.5197"/>
			<v:textRect cx="7.08661" cy="77.5689" width="14.18" height="5.10236"/>
			<rect x="0" y="75.0177" width="14.1732" height="5.10236" class="st4"/>
			<text x="5.26" y="78.77" class="st7" v:langID="2067"><v:paragraph v:horizAlign="1"/><v:tabList/>12</text>		</g>
		<g id="shape63-78" v:mID="63" v:groupContext="shape" transform="translate(15.6821,-44.5955)">
			<title>Sheet.63</title>
			<desc>14</desc>
			<v:textBlock v:margins="rect(4,4,4,4)" v:tabSpace="42.5197"/>
			<v:textRect cx="7.08661" cy="77.5689" width="14.18" height="5.10236"/>
			<rect x="0" y="75.0177" width="14.1732" height="5.10236" class="st4"/>
			<text x="5.16" y="78.77" class="st7" v:langID="2067"><v:paragraph v:horizAlign="1"/><v:tabList/>14</text>		</g>
		<g id="shape64-81" v:mID="64" v:groupContext="shape" transform="translate(72.375,-41.4774)">
			<title>Sheet.64</title>
			<path d="M0 80.12 L0 74.45 L28.35 74.45" class="st6"/>
		</g>
		<g id="shape65-84" v:mID="65" v:groupContext="shape" transform="translate(29.8553,-52.8159)">
			<title>Sheet.65</title>
			<path d="M0 80.12 L3.02 80.12" class="st8"/>
		</g>
		<g id="shape66-87" v:mID="66" v:groupContext="shape" transform="translate(15.6821,-50.2648)">
			<title>Sheet.66</title>
			<desc>16</desc>
			<v:textBlock v:margins="rect(4,4,4,4)" v:tabSpace="42.5197"/>
			<v:textRect cx="7.08661" cy="77.5689" width="14.18" height="5.10236"/>
			<rect x="0" y="75.0177" width="14.1732" height="5.10236" class="st4"/>
			<text x="5.11" y="78.77" class="st7" v:langID="2067"><v:paragraph v:horizAlign="1"/><v:tabList/>16</text>		</g>
		<g id="shape67-90" v:mID="67" v:groupContext="shape" transform="translate(100.721,-47.1467)">
			<title>Sheet.67</title>
			<path d="M0 80.12 L0 74.45 L14.17 74.45" class="st6"/>
		</g>
		<g id="shape68-93" v:mID="68" v:groupContext="shape" transform="translate(152.495,38.6427) rotate(90)">
			<title>Sheet.68</title>
			<path d="M0 80.12 L34.02 80.12" class="st9"/>
		</g>
		<g id="shape69-96" v:mID="69" v:groupContext="shape" transform="translate(180.842,32.9734) rotate(90)">
			<title>Sheet.69</title>
			<path d="M0 80.12 L39.69 80.12" class="st9"/>
		</g>
		<g id="shape101-99" v:mID="101" v:groupContext="shape" transform="translate(41.1939,-65.5719)">
			<title>Sheet.101</title>
			<desc>Real-time trend graph</desc>
			<v:textBlock v:margins="rect(4,4,4,4)" v:tabSpace="42.5197"/>
			<v:textRect cx="49.0394" cy="73.0335" width="98.08" height="14.1732"/>
			<rect x="0" y="65.9469" width="98.0787" height="14.1732" class="st4"/>
			<text x="7.46" y="75.43" class="st10" v:langID="2067"><v:paragraph v:horizAlign="1"/><v:tabList/>Real-time trend graph</text>		</g>
		<g id="shape107-102" v:mID="107" v:groupContext="shape" transform="translate(58.2018,118.763) rotate(180)">
			<title>Sheet.107</title>
			<path d="M0 80.12 L28.35 80.12" class="st9"/>
		</g>
		<g id="shape108-105" v:mID="108" v:groupContext="shape" transform="translate(72.375,113.094) rotate(180)">
			<title>Sheet.108</title>
			<path d="M0 80.12 L42.52 80.12" class="st9"/>
		</g>
		<g id="shape109-108" v:mID="109" v:groupContext="shape" transform="translate(100.721,107.424) rotate(180)">
			<title>Sheet.109</title>
			<path d="M0 80.12 L70.87 80.12" class="st9"/>
		</g>
	</g>
</svg>
