<?xml version="1.0" encoding="UTF-8"?>
<svg id="Layer_1" xmlns="http://www.w3.org/2000/svg" xmlns:xlink="http://www.w3.org/1999/xlink" version="1.1" viewBox="0 0 275 250">
  <!-- Generator: Adobe Illustrator 29.0.1, SVG Export Plug-In . SVG Version: 2.1.0 Build 192)  -->
  <defs>
    <style>
      .st0, .st1 {
        fill: none;
      }

      .st2 {
        clip-path: url(#clippath-1);
      }

      .st3 {
        clip-path: url(#clippath-2);
      }

      .st4 {
        fill: #00517d;
      }

      .st5 {
        fill: #06aeef;
      }

      .st1 {
        stroke: #0ab1f0;
        stroke-miterlimit: 4;
        stroke-width: 4px;
      }

      .st6 {
        clip-path: url(#clippath);
      }

      .st7 {
        fill: #c7e9f8;
      }
    </style>
    <clipPath id="clippath">
      <rect class="st0" y=".1" width="274" height="249.1"/>
    </clipPath>
    <clipPath id="clippath-1">
      <path class="st0" d="M12,.1h250.1c3.2,0,6.2,1.3,8.5,3.5,2.2,2.2,3.5,5.3,3.5,8.5v225.2c0,3.2-1.3,6.2-3.5,8.5s-5.3,3.5-8.5,3.5H12c-3.2,0-6.2-1.3-8.5-3.5-2.2-2.2-3.5-5.3-3.5-8.5V12.1c0-3.2,1.3-6.2,3.5-8.5C5.7,1.4,8.8.1,12,.1Z"/>
    </clipPath>
    <clipPath id="clippath-2">
      <rect class="st0" x="66.2" y="209.3" width="143.2" height="24.6"/>
    </clipPath>
  </defs>
  <g class="st6">
    <g class="st2">
      <path class="st1" d="M12,.1h250.1c3.2,0,6.2,1.3,8.5,3.5,2.2,2.2,3.5,5.3,3.5,8.5v225.2c0,3.2-1.3,6.2-3.5,8.5-2.2,2.2-5.3,3.5-8.5,3.5H12c-3.2,0-6.2-1.3-8.5-3.5-2.2-2.2-3.5-5.3-3.5-8.5V12.1c0-3.2,1.3-6.2,3.5-8.5C5.7,1.4,8.8.1,12,.1Z"/>
    </g>
  </g>
  <g class="st3">
    <path class="st7" d="M66.2,209.3h143.2v24.6H66.2v-24.6Z"/>
  </g>
  <path class="st4" d="M85.5,228.6v-11.6h-4.4v-2.9h11.7v2.9h-4.4v11.6h-3Z"/>
  <path class="st4" d="M106.4,222.7c0,1.2-.2,2.3-.6,3.2-.4.9-1.1,1.6-2,2.1-.9.5-2,.8-3.3.8s-2.4-.3-3.3-.8c-.9-.5-1.5-1.2-1.9-2.1-.4-.9-.6-1.9-.6-3.1v-8.8h3v8.7c0,1.1.3,1.9.8,2.4.5.5,1.2.8,2,.8s1.6-.3,2.1-.9c.5-.6.8-1.3.8-2.2v-8.8h3v8.7Z"/>
  <path class="st4" d="M112.7,228.6v-11.6h-4.4v-2.9h11.7v2.9h-4.4v11.6h-3Z"/>
  <path class="st4" d="M121.3,221.4c0-1,.2-2,.6-2.9.4-.9.9-1.7,1.6-2.4.7-.7,1.5-1.2,2.4-1.6.9-.4,1.9-.6,3-.6s2,.2,2.9.6c.9.4,1.7.9,2.4,1.6.7.7,1.2,1.5,1.6,2.4.4.9.6,1.9.6,2.9s-.2,2-.6,2.9c-.4.9-.9,1.7-1.6,2.4-.7.7-1.5,1.2-2.4,1.6-.9.4-1.9.6-2.9.6s-2-.2-2.9-.6c-.9-.4-1.7-.9-2.4-1.6-.7-.7-1.2-1.5-1.6-2.4-.4-.9-.6-1.9-.6-2.9ZM124.4,221.3c0,.8.2,1.6.6,2.3.4.7.9,1.3,1.6,1.7.7.4,1.4.6,2.3.6s1.6-.2,2.3-.6c.7-.4,1.2-1,1.6-1.7.4-.7.6-1.5.6-2.3s-.2-1.6-.6-2.3c-.4-.7-.9-1.3-1.6-1.7-.7-.4-1.4-.6-2.3-.6s-1.6.2-2.3.6c-.7.4-1.2,1-1.6,1.7-.4.7-.6,1.4-.6,2.3Z"/>
  <path class="st4" d="M150.1,228.6h-3.3l-3-5.2h-1.8v5.2h-3v-14.5h5.8c.9,0,1.8.2,2.6.5.8.3,1.4.8,1.9,1.5.5.7.7,1.5.7,2.6,0,2.1-1,3.5-3,4.3l3.3,5.7ZM144.4,220.6c.4,0,.7,0,1.1-.2.4-.1.7-.3.9-.6.2-.3.4-.6.4-1.1s-.1-.8-.4-1.1c-.2-.3-.5-.4-.9-.6-.3-.1-.7-.2-1.1-.2h-2.5v3.7h2.5Z"/>
  <path class="st4" d="M155.5,214.1v14.5h-3v-14.5h3Z"/>
  <path class="st4" d="M160.2,228.6h-3l5.6-14.5h3.6l5.6,14.5h-3.1l-1.1-2.9h-6.5l-1.1,2.9ZM164.5,217l-2.2,5.9h4.4l-2.2-5.9Z"/>
  <path class="st4" d="M173.6,214.1h3v11.7h6.2v2.9h-9.2v-14.5Z"/>
  <path class="st4" d="M187.1,218c0,.5.2.8.6,1.1.4.3,1,.5,1.8.7,1.1.3,2,.7,2.8,1,.8.4,1.3.9,1.7,1.4.4.6.6,1.2.6,2.1s-.2,1.6-.6,2.3c-.4.7-1,1.2-1.8,1.6-.8.4-1.8.6-2.9.6s-2.6-.3-3.6-.9c-1-.6-1.7-1.5-2.1-2.5l2.6-1.4c.3.6.7,1.1,1.3,1.5.6.4,1.2.5,1.9.5s1.2-.1,1.6-.4c.4-.3.6-.7.6-1.1s0-.5-.3-.7c-.2-.2-.5-.4-.9-.6-.4-.2-1-.4-1.7-.6-.8-.2-1.5-.5-2.1-.8-.6-.3-1.1-.6-1.5-1-.3-.3-.6-.7-.8-1.2-.2-.5-.3-1-.3-1.5,0-.9.2-1.6.7-2.3.5-.7,1.1-1.2,1.8-1.5.8-.4,1.6-.6,2.5-.6s2.3.3,3.1.8c.9.5,1.5,1.3,2,2.3l-2.5,1.4c-.2-.6-.6-1-1.1-1.3-.5-.3-1-.5-1.6-.5s-1.1.1-1.4.4c-.3.3-.5.6-.5,1.1Z"/>
  <path class="st4" d="M32.9,145.6c0,.5.2.9.7,1.2.5.3,1.1.6,2,.8,1.2.3,2.3.7,3.1,1.2.9.4,1.5,1,2,1.6.5.6.7,1.4.7,2.4s-.2,1.9-.7,2.6c-.5.8-1.1,1.4-2.1,1.8-.9.4-2,.7-3.3.7s-2.9-.4-4.1-1.1c-1.1-.7-1.9-1.7-2.4-2.8l3-1.5c.3.7.8,1.3,1.4,1.7.6.4,1.4.6,2.2.6s1.4-.2,1.8-.5c.5-.3.7-.8.7-1.3s0-.6-.3-.8c-.2-.2-.5-.4-1-.6-.5-.2-1.1-.4-1.9-.7-.9-.3-1.7-.6-2.4-.9-.7-.3-1.3-.7-1.7-1.1-.4-.4-.7-.8-.9-1.3-.2-.5-.4-1.1-.4-1.8,0-1,.3-1.9.8-2.6.5-.8,1.3-1.3,2.1-1.8.9-.4,1.8-.6,2.9-.6s2.6.3,3.6,1c1,.6,1.8,1.5,2.3,2.6l-2.9,1.6c-.3-.7-.7-1.2-1.3-1.5-.6-.3-1.2-.5-1.9-.5s-1.2.2-1.6.5c-.4.3-.6.7-.6,1.2Z"/>
  <path class="st4" d="M47.6,157.7v-13.3h-5v-3.3h13.4v3.3h-5v13.3h-3.4Z"/>
  <path class="st4" d="M59.9,157.7h-3.5l6.4-16.6h4.1l6.4,16.6h-3.5l-1.3-3.4h-7.4l-1.2,3.4ZM64.9,144.4l-2.5,6.8h5l-2.5-6.8Z"/>
  <path class="st4" d="M78.7,146.2v11.5h-3.4v-16.6h3.9l7.2,10.9v-10.9h3.4v16.6h-3.5l-7.6-11.5Z"/>
  <path class="st4" d="M108.2,149.3c0,1.6-.4,3.1-1.1,4.4-.8,1.3-1.8,2.3-3.3,3-1.4.7-3.1,1-5,1h-5v-16.6h5.1c1.9,0,3.6.3,5,1,1.4.7,2.5,1.6,3.2,2.9.8,1.2,1.1,2.7,1.1,4.5ZM104.7,149.3c0-1.1-.3-2-.8-2.8-.5-.8-1.2-1.3-2.1-1.7-.9-.4-1.9-.6-2.9-.6h-1.8v10.1h1.7c1.1,0,2.1-.2,3-.6.9-.4,1.6-1,2.1-1.7.5-.8.7-1.7.7-2.8Z"/>
  <path class="st4" d="M112.6,157.7h-3.5l6.4-16.6h4.1l6.4,16.6h-3.5l-1.3-3.4h-7.4l-1.2,3.4ZM117.5,144.4l-2.5,6.8h5l-2.5-6.8Z"/>
  <path class="st4" d="M140.7,157.7h-3.8l-3.4-6h-2.1v6h-3.4v-16.6h6.6c1.1,0,2.1.2,3,.6.9.4,1.6,1,2.1,1.8.5.8.8,1.8.8,2.9,0,2.4-1.1,4.1-3.4,4.9l3.8,6.5ZM134.3,148.5c.4,0,.8,0,1.3-.2.4-.1.8-.4,1-.7.3-.3.4-.7.4-1.3s-.1-.9-.4-1.2c-.3-.3-.6-.5-1-.6-.4-.1-.8-.2-1.3-.2h-2.9v4.2h2.9Z"/>
  <path class="st4" d="M158,149.3c0,1.6-.4,3.1-1.1,4.4-.8,1.3-1.8,2.3-3.3,3-1.4.7-3.1,1-5,1h-5v-16.6h5.1c1.9,0,3.6.3,5,1,1.4.7,2.5,1.6,3.2,2.9.8,1.2,1.1,2.7,1.1,4.5ZM154.4,149.3c0-1.1-.3-2-.8-2.8-.5-.8-1.2-1.3-2.1-1.7-.9-.4-1.9-.6-2.9-.6h-1.8v10.1h1.7c1.1,0,2.1-.2,3-.6.9-.4,1.6-1,2.1-1.7.5-.8.7-1.7.7-2.8Z"/>
  <path class="st4" d="M167.7,157.7h-3.5l6.4-16.6h4.1l6.4,16.6h-3.5l-1.3-3.4h-7.4l-1.2,3.4ZM172.6,144.4l-2.5,6.8h5l-2.5-6.8Z"/>
  <path class="st4" d="M195.1,146.4c0,1.2-.3,2.2-.8,3-.5.8-1.3,1.4-2.2,1.8-.9.4-2,.6-3.1.6h-2.6v5.9h-3.4v-16.6h6.2c1.1,0,2.1.2,3,.6.9.4,1.6,1,2.1,1.8.5.8.8,1.8.8,2.9ZM191.7,146.4c0-.5-.1-.9-.4-1.3-.3-.3-.6-.5-1-.7-.4-.1-.9-.2-1.4-.2h-2.4v4.3h2.5c.5,0,.9,0,1.3-.2.4-.1.8-.4,1-.7.3-.3.4-.7.4-1.3Z"/>
  <path class="st4" d="M209.9,146.4c0,1.2-.3,2.2-.8,3-.5.8-1.3,1.4-2.2,1.8-.9.4-2,.6-3.1.6h-2.6v5.9h-3.4v-16.6h6.2c1.1,0,2.1.2,3,.6.9.4,1.6,1,2.1,1.8.5.8.8,1.8.8,2.9ZM206.4,146.4c0-.5-.1-.9-.4-1.3-.3-.3-.6-.5-1-.7-.4-.1-.9-.2-1.4-.2h-2.4v4.3h2.5c.5,0,.9,0,1.3-.2.4-.1.8-.4,1-.7.3-.3.4-.7.4-1.3Z"/>
  <path class="st4" d="M215,145.6c0,.5.2.9.7,1.2.5.3,1.1.6,2,.8,1.2.3,2.3.7,3.1,1.2.9.4,1.5,1,2,1.6.5.6.7,1.4.7,2.4s-.2,1.9-.7,2.6c-.5.8-1.1,1.4-2.1,1.8-.9.4-2,.7-3.3.7s-2.9-.4-4.1-1.1c-1.1-.7-1.9-1.7-2.4-2.8l3-1.5c.3.7.8,1.3,1.4,1.7.6.4,1.4.6,2.2.6s1.4-.2,1.8-.5c.5-.3.7-.8.7-1.3s0-.6-.3-.8c-.2-.2-.5-.4-1-.6-.5-.2-1.1-.4-1.9-.7-.9-.3-1.7-.6-2.4-.9-.7-.3-1.3-.7-1.7-1.1-.4-.4-.7-.8-.9-1.3-.2-.5-.4-1.1-.4-1.8,0-1,.3-1.9.8-2.6.5-.8,1.3-1.3,2.1-1.8.9-.4,1.8-.6,2.9-.6s2.6.3,3.6,1c1,.6,1.8,1.5,2.3,2.6l-2.9,1.6c-.3-.7-.7-1.2-1.3-1.5-.6-.3-1.2-.5-1.9-.5s-1.2.2-1.6.5c-.4.3-.6.7-.6,1.2Z"/>
  <path class="st4" d="M245.3,157.7h-4.1l-.9-1.1c-.6.4-1.3.7-2,1-.7.2-1.5.3-2.3.3s-1.8-.2-2.6-.5c-.8-.3-1.5-.8-2-1.5-.5-.7-.8-1.5-.8-2.6s.1-1.2.4-1.8c.3-.5.6-1,1.1-1.5.5-.4.9-.8,1.5-1.1l-.6-.7c-.4-.5-.8-1-1-1.5-.2-.5-.3-1-.3-1.5,0-.8.2-1.5.6-2.2.4-.7,1-1.2,1.7-1.6.7-.4,1.5-.6,2.5-.6s1.7.2,2.4.6c.7.4,1.3.9,1.8,1.6.5.7.7,1.4.7,2.2s-.2,1.5-.5,2.1c-.4.6-1,1.1-1.8,1.6l-1,.6,2.4,2.8c.6-.9,1-2,1.3-3.2l2.8.6c-.2,1-.5,1.8-.9,2.6-.4.8-.8,1.5-1.3,2.2l2.8,3.2ZM236.6,143.8c-.5,0-.9.2-1.2.5-.3.3-.5.6-.5,1s0,.4.1.6c0,.2.2.4.5.8l.7.8,1.2-.7c.3-.2.5-.4.6-.6.1-.2.2-.5.2-.8s-.2-.7-.5-1c-.3-.3-.7-.5-1.2-.5ZM236.2,154.9c.8,0,1.4-.2,2.1-.6l-2.9-3.3c-.4.3-.7.5-1,.9-.3.3-.4.7-.4,1.1s.1.9.4,1.2c.3.3.6.5.9.6.4.1.7.2,1,.2Z"/>
  <path class="st4" d="M73.6,174.5c0,.5.2.9.7,1.2.5.3,1.1.6,2,.8,1.2.3,2.3.7,3.1,1.2.9.4,1.5,1,2,1.6.5.6.7,1.4.7,2.4s-.2,1.9-.7,2.6c-.5.8-1.1,1.4-2.1,1.8-.9.4-2,.7-3.3.7s-2.9-.4-4.1-1.1c-1.1-.7-1.9-1.7-2.4-2.8l3-1.5c.3.7.8,1.3,1.4,1.7.6.4,1.4.6,2.2.6s1.4-.2,1.8-.5c.5-.3.7-.8.7-1.3s0-.6-.3-.8c-.2-.2-.5-.4-1-.6-.5-.2-1.1-.4-1.9-.7-.9-.3-1.7-.6-2.4-.9-.7-.3-1.3-.7-1.7-1.1-.4-.4-.7-.8-.9-1.3-.2-.5-.4-1.1-.4-1.8,0-1,.3-1.9.8-2.6.5-.8,1.3-1.3,2.1-1.8.9-.4,1.8-.6,2.9-.6s2.6.3,3.6,1c1,.6,1.8,1.5,2.3,2.6l-2.9,1.6c-.3-.7-.7-1.2-1.3-1.5-.6-.3-1.2-.5-1.9-.5s-1.2.2-1.6.5c-.4.3-.6.7-.6,1.2Z"/>
  <path class="st4" d="M83.9,178.3c0-1.2.2-2.3.7-3.3.5-1,1.1-2,1.9-2.8s1.7-1.4,2.8-1.8c1.1-.4,2.2-.7,3.4-.7s2.3.2,3.4.6c1,.4,1.9,1,2.7,1.8.8.8,1.4,1.7,1.8,2.7.4,1,.7,2.1.7,3.3s-.2,2.3-.7,3.4c-.4,1-1.1,2-1.9,2.8-.8.8-1.7,1.4-2.8,1.9-1,.4-2.2.6-3.4.6s-2.3-.2-3.4-.6c-1-.4-2-1.1-2.8-1.8-.8-.8-1.4-1.7-1.8-2.7-.4-1-.7-2.2-.7-3.4ZM87.4,178.2c0,.9.2,1.8.7,2.6.5.8,1.1,1.4,1.9,1.9.8.5,1.7.7,2.6.7s1.8-.2,2.6-.7c.8-.5,1.4-1.1,1.8-1.9.5-.8.7-1.7.7-2.6s-.2-1.8-.7-2.6c-.4-.8-1.1-1.4-1.8-1.9-.8-.5-1.6-.7-2.6-.7s-1.8.2-2.6.7c-.8.5-1.4,1.1-1.9,1.9-.4.8-.7,1.6-.7,2.6Z"/>
  <path class="st4" d="M104,169.9h3.4v13.4h7.1v3.3h-10.5v-16.6Z"/>
  <path class="st4" d="M130,179.9c0,1.4-.3,2.6-.8,3.7-.5,1-1.2,1.8-2.2,2.4-1,.6-2.2.8-3.7.8s-2.8-.3-3.8-.9c-1-.6-1.7-1.4-2.2-2.4-.5-1-.7-2.2-.7-3.5v-10.1h3.5v10c0,1.2.3,2.1.9,2.7s1.4.9,2.3.9,1.9-.3,2.4-1c.6-.7.9-1.5.9-2.5v-10.1h3.4v9.9Z"/>
  <path class="st4" d="M137.3,186.6v-13.3h-5v-3.3h13.4v3.3h-5v13.3h-3.4Z"/>
  <path class="st4" d="M151.5,169.9v16.6h-3.4v-16.6h3.4Z"/>
  <path class="st4" d="M154.4,178.3c0-1.2.2-2.3.7-3.3.5-1,1.1-2,1.9-2.8s1.7-1.4,2.8-1.8c1.1-.4,2.2-.7,3.4-.7s2.3.2,3.4.6c1,.4,1.9,1,2.7,1.8.8.8,1.4,1.7,1.8,2.7.4,1,.7,2.1.7,3.3s-.2,2.3-.7,3.4c-.4,1-1.1,2-1.9,2.8-.8.8-1.7,1.4-2.8,1.9-1,.4-2.2.6-3.4.6s-2.3-.2-3.4-.6c-1-.4-2-1.1-2.8-1.8-.8-.8-1.4-1.7-1.8-2.7-.4-1-.7-2.2-.7-3.4ZM157.9,178.2c0,.9.2,1.8.7,2.6.5.8,1.1,1.4,1.9,1.9.8.5,1.7.7,2.6.7s1.8-.2,2.6-.7c.8-.5,1.4-1.1,1.8-1.9.5-.8.7-1.7.7-2.6s-.2-1.8-.7-2.6c-.4-.8-1.1-1.4-1.8-1.9-.8-.5-1.6-.7-2.6-.7s-1.8.2-2.6.7c-.8.5-1.4,1.1-1.9,1.9-.4.8-.7,1.6-.7,2.6Z"/>
  <path class="st4" d="M177.9,175.1v11.5h-3.4v-16.6h3.9l7.2,10.9v-10.9h3.4v16.6h-3.5l-7.6-11.5Z"/>
  <path class="st4" d="M195.5,174.5c0,.5.2.9.7,1.2.5.3,1.1.6,2,.8,1.2.3,2.3.7,3.1,1.2.9.4,1.5,1,2,1.6.5.6.7,1.4.7,2.4s-.2,1.9-.7,2.6c-.5.8-1.1,1.4-2.1,1.8-.9.4-2,.7-3.3.7s-2.9-.4-4.1-1.1c-1.1-.7-1.9-1.7-2.4-2.8l3-1.5c.3.7.8,1.3,1.4,1.7.6.4,1.4.6,2.2.6s1.4-.2,1.8-.5c.5-.3.7-.8.7-1.3s0-.6-.3-.8c-.2-.2-.5-.4-1-.6-.5-.2-1.1-.4-1.9-.7-.9-.3-1.7-.6-2.4-.9-.7-.3-1.3-.7-1.7-1.1-.4-.4-.7-.8-.9-1.3-.2-.5-.4-1.1-.4-1.8,0-1,.3-1.9.8-2.6.5-.8,1.3-1.3,2.1-1.8.9-.4,1.8-.6,2.9-.6s2.6.3,3.6,1c1,.6,1.8,1.5,2.3,2.6l-2.9,1.6c-.3-.7-.7-1.2-1.3-1.5-.6-.3-1.2-.5-1.9-.5s-1.2.2-1.6.5c-.4.3-.6.7-.6,1.2Z"/>
  <g>
    <path class="st4" d="M187.6,70.7v33c0,1-.8,1.8-1.9,1.8h-87.7c-1,0-1.9-.8-1.9-1.8v-52.2c0-1,.8-1.8,1.9-1.8h62.3c.7,0,1.3-.6,1.3-1.3s0,0,0,0c0-.7-.6-1.2-1.3-1.2h-62.3c-2.4,0-4.4,1.9-4.4,4.3v52.2c0,2.4,2,4.3,4.4,4.3h42.6v15.3h-18.2c-.7,0-1.3.6-1.3,1.3s.6,1.3,1.3,1.3h38.9c.7,0,1.3-.6,1.3-1.3s-.6-1.3-1.3-1.3h-18.2v-15.3h42.6c2.4,0,4.4-1.9,4.4-4.3v-33c-.8,0-1.7,0-2.5,0Z"/>
    <path class="st4" d="M187.6,61.9v8.8c.9,0,1.7,0,2.5,0v-8.7c0-1.1-1.4-1.7-2.2-.9h0c-.2.2-.4.6-.4.9Z"/>
    <path class="st5" d="M179.1,97.1c0,.6-.6,1-1.3,1h-71.9c-.7,0-1.3-.5-1.3-1v-39.2c0-.6.6-1,1.3-1h54.6c.7,0,1.3-.6,1.3-1.3h0c0-.7-.6-1.3-1.3-1.3h-54.6c-2.1,0-3.8,1.6-3.8,3.6v39.2c0,2,1.7,3.6,3.8,3.6h71.9c2.1,0,3.8-1.6,3.8-3.6v-27.6c0-1-1.2-1.6-2-1s0,0,0,0c-.3.2-.5.6-.5,1v27.6Z"/>
  </g>
  <path class="st5" d="M173.5,70c-.1,0-.2,0-.3,0-.3-.1-.5-.4-.5-.8v-13.5h-2.9c-2.4,0-4.3-1.9-4.3-4.3V18c0-2.4,1.9-4.3,4.3-4.3h54.9c2.4,0,4.3,1.9,4.3,4.3v33.3c0,2.4-1.9,4.3-4.3,4.3h-36.9l-13.7,14c-.2.2-.4.2-.6.2h0ZM169.8,15.3c-1.5,0-2.7,1.2-2.7,2.7v33.3c0,1.5,1.2,2.7,2.7,2.7h3.7c.4,0,.8.4.8.8v12.3l12.6-12.9c.2-.2.4-.2.6-.2h37.2c1.5,0,2.7-1.2,2.7-2.7V18c0-1.5-1.2-2.7-2.7-2.7h-54.9Z"/>
  <rect class="st5" x="181.7" y="32.9" width="3.4" height="3.4" rx=".7" ry=".7"/>
  <rect class="st5" x="191.1" y="32.9" width="3.4" height="3.4" rx=".7" ry=".7"/>
  <rect class="st5" x="200.4" y="32.9" width="3.4" height="3.4" rx=".7" ry=".7"/>
  <rect class="st5" x="209.8" y="32.9" width="3.4" height="3.4" rx=".7" ry=".7"/>
</svg>