<?xml version="1.0" encoding="UTF-8"?>
<svg id="Layer_1" xmlns="http://www.w3.org/2000/svg" xmlns:xlink="http://www.w3.org/1999/xlink" version="1.1" viewBox="0 0 275 250">
  <!-- Generator: Adobe Illustrator 29.0.1, SVG Export Plug-In . SVG Version: 2.1.0 Build 192)  -->
  <defs>
    <style>
      .st0, .st1 {
        fill: none;
      }

      .st2 {
        clip-path: url(#clippath-1);
      }

      .st3 {
        clip-path: url(#clippath-2);
      }

      .st4 {
        fill: #00517d;
      }

      .st5 {
        fill: #06aeef;
      }

      .st1 {
        stroke: #0ab1f0;
        stroke-miterlimit: 4;
        stroke-width: 4px;
      }

      .st6 {
        clip-path: url(#clippath);
      }

      .st7 {
        fill: #c7e9f8;
      }
    </style>
    <clipPath id="clippath">
      <rect class="st0" y=".1" width="274" height="249.1"/>
    </clipPath>
    <clipPath id="clippath-1">
      <path class="st0" d="M12,.1h250.1c3.2,0,6.2,1.3,8.5,3.5,2.2,2.2,3.5,5.3,3.5,8.5v225.2c0,3.2-1.3,6.2-3.5,8.5s-5.3,3.5-8.5,3.5H12c-3.2,0-6.2-1.3-8.5-3.5-2.2-2.2-3.5-5.3-3.5-8.5V12.1c0-3.2,1.3-6.2,3.5-8.5C5.7,1.4,8.8.1,12,.1Z"/>
    </clipPath>
    <clipPath id="clippath-2">
      <rect class="st0" x="66.2" y="209.3" width="143.2" height="24.6"/>
    </clipPath>
  </defs>
  <g class="st6">
    <g class="st2">
      <path class="st1" d="M12,.1h250.1c3.2,0,6.2,1.3,8.5,3.5,2.2,2.2,3.5,5.3,3.5,8.5v225.2c0,3.2-1.3,6.2-3.5,8.5-2.2,2.2-5.3,3.5-8.5,3.5H12c-3.2,0-6.2-1.3-8.5-3.5-2.2-2.2-3.5-5.3-3.5-8.5V12.1c0-3.2,1.3-6.2,3.5-8.5C5.7,1.4,8.8.1,12,.1Z"/>
    </g>
  </g>
  <path class="st4" d="M47.1,152.6c0-1.2.2-2.3.7-3.4.4-1,1.1-1.9,1.9-2.7.8-.8,1.7-1.4,2.8-1.8,1-.4,2.2-.7,3.4-.7s2.1.2,3.1.6c1,.4,1.9.9,2.7,1.7.8.7,1.3,1.6,1.7,2.7l-3.1,1.4c-.3-.9-.9-1.6-1.7-2.2-.8-.5-1.7-.8-2.7-.8s-1.8.2-2.6.7c-.8.5-1.4,1.1-1.8,1.9-.4.8-.6,1.6-.6,2.6s.2,1.8.6,2.6c.4.8,1,1.4,1.8,1.9.8.5,1.6.7,2.6.7s2-.3,2.8-.9c.8-.6,1.4-1.3,1.7-2.2l3.2,1.5c-.4,1-1,1.9-1.8,2.7-.8.7-1.7,1.3-2.7,1.7-1,.4-2.1.6-3.2.6s-2.3-.2-3.4-.6c-1-.4-2-1-2.7-1.8-.8-.8-1.4-1.7-1.8-2.7-.4-1-.6-2.2-.6-3.4Z"/>
  <path class="st4" d="M64.8,152.6c0-1.2.2-2.3.7-3.3.5-1,1.1-2,1.9-2.8s1.7-1.4,2.8-1.8c1.1-.4,2.2-.7,3.4-.7s2.3.2,3.4.6c1,.4,1.9,1,2.7,1.8.8.8,1.4,1.7,1.8,2.7.4,1,.7,2.1.7,3.3s-.2,2.3-.7,3.4c-.4,1-1.1,2-1.9,2.8-.8.8-1.7,1.4-2.8,1.9-1,.4-2.2.6-3.4.6s-2.3-.2-3.4-.6c-1-.4-2-1.1-2.8-1.8-.8-.8-1.4-1.7-1.8-2.7-.4-1-.7-2.2-.7-3.4ZM68.3,152.6c0,.9.2,1.8.7,2.6.5.8,1.1,1.4,1.9,1.9.8.5,1.7.7,2.6.7s1.8-.2,2.6-.7c.8-.5,1.4-1.1,1.8-1.9.5-.8.7-1.7.7-2.6s-.2-1.8-.7-2.6c-.4-.8-1.1-1.4-1.8-1.9-.8-.5-1.6-.7-2.6-.7s-1.8.2-2.6.7c-.8.5-1.4,1.1-1.9,1.9-.4.8-.7,1.6-.7,2.6Z"/>
  <path class="st4" d="M88.3,149.4v11.5h-3.4v-16.6h3.9l7.2,10.9v-10.9h3.4v16.6h-3.5l-7.6-11.5Z"/>
  <path class="st4" d="M106.8,149.4v11.5h-3.4v-16.6h3.9l7.2,10.9v-10.9h3.4v16.6h-3.5l-7.6-11.5Z"/>
  <path class="st4" d="M121.8,144.3h10.9v3.2h-7.5v3.4h6.7v3.2h-6.7v3.6h7.5v3.2h-10.9v-16.6Z"/>
  <path class="st4" d="M134.9,152.6c0-1.2.2-2.3.7-3.4.4-1,1.1-1.9,1.9-2.7.8-.8,1.7-1.4,2.8-1.8,1-.4,2.2-.7,3.4-.7s2.1.2,3.1.6c1,.4,1.9.9,2.7,1.7.8.7,1.3,1.6,1.7,2.7l-3.1,1.4c-.3-.9-.9-1.6-1.7-2.2-.8-.5-1.7-.8-2.7-.8s-1.8.2-2.6.7c-.8.5-1.4,1.1-1.8,1.9-.4.8-.6,1.6-.6,2.6s.2,1.8.6,2.6c.4.8,1,1.4,1.8,1.9.8.5,1.6.7,2.6.7s2-.3,2.8-.9c.8-.6,1.4-1.3,1.7-2.2l3.2,1.5c-.4,1-1,1.9-1.8,2.7-.8.7-1.7,1.3-2.7,1.7-1,.4-2.1.6-3.2.6s-2.3-.2-3.4-.6c-1-.4-2-1-2.7-1.8-.8-.8-1.4-1.7-1.8-2.7-.4-1-.6-2.2-.6-3.4Z"/>
  <path class="st4" d="M157.1,160.9v-13.3h-5v-3.3h13.4v3.3h-5v13.3h-3.4Z"/>
  <path class="st4" d="M171.3,144.3v16.6h-3.4v-16.6h3.4Z"/>
  <path class="st4" d="M173.6,144.3h3.7l4.3,12.6,4.3-12.6h3.6l-6,16.6h-4l-6-16.6Z"/>
  <path class="st4" d="M195.3,144.3v16.6h-3.4v-16.6h3.4Z"/>
  <path class="st4" d="M202.7,160.9v-13.3h-5v-3.3h13.4v3.3h-5v13.3h-3.4Z"/>
  <path class="st4" d="M218,160.9v-6.6l-6.1-10.1h4l3.9,6.7,3.9-6.7h3.9l-6.1,9.9v6.7h-3.4Z"/>
  <path class="st4" d="M63.3,180h6.7v3.3h-6.7v6.6h-3.4v-16.6h11v3.3h-7.5v3.5Z"/>
  <path class="st4" d="M86.5,189.8h-3.8l-3.4-6h-2.1v6h-3.4v-16.6h6.6c1.1,0,2.1.2,3,.6.9.4,1.6,1,2.1,1.8.5.8.8,1.8.8,2.9,0,2.4-1.1,4.1-3.4,4.9l3.8,6.5ZM80,180.6c.4,0,.8,0,1.3-.2.4-.1.8-.4,1-.7.3-.3.4-.7.4-1.3s-.1-.9-.4-1.2c-.3-.3-.6-.5-1-.6-.4-.1-.8-.2-1.3-.2h-2.9v4.2h2.9Z"/>
  <path class="st4" d="M90.7,189.8h-3.5l6.4-16.6h4.1l6.4,16.6h-3.5l-1.3-3.4h-7.4l-1.2,3.4ZM95.7,176.5l-2.5,6.8h5l-2.5-6.8Z"/>
  <path class="st4" d="M121,178.8l-4.6,11h-2.3l-4.6-10.9h0v10.9h-3.4v-16.6h4.4l4.7,11.2,4.6-11.2h4.6v16.6h-3.4v-11h0Z"/>
  <path class="st4" d="M128.3,173.2h10.9v3.2h-7.5v3.4h6.7v3.2h-6.7v3.6h7.5v3.2h-10.9v-16.6Z"/>
  <path class="st4" d="M149.4,189.8h-3.7l-4.9-16.6h3.7l3.2,11.8,3.6-11.8h3.7l3.6,11.9,3.3-11.9h3.5l-4.9,16.6h-3.7l-3.6-12.1h0l-3.6,12.1Z"/>
  <path class="st4" d="M166.7,181.5c0-1.2.2-2.3.7-3.3.5-1,1.1-2,1.9-2.8s1.7-1.4,2.8-1.8c1.1-.4,2.2-.7,3.4-.7s2.3.2,3.4.6c1,.4,1.9,1,2.7,1.8.8.8,1.4,1.7,1.8,2.7.4,1,.7,2.1.7,3.3s-.2,2.3-.7,3.4c-.4,1-1.1,2-1.9,2.8-.8.8-1.7,1.4-2.8,1.9-1,.4-2.2.6-3.4.6s-2.3-.2-3.4-.6c-1-.4-2-1.1-2.8-1.8-.8-.8-1.4-1.7-1.8-2.7-.4-1-.7-2.2-.7-3.4ZM170.2,181.5c0,.9.2,1.8.7,2.6.5.8,1.1,1.4,1.9,1.9.8.5,1.7.7,2.6.7s1.8-.2,2.6-.7c.8-.5,1.4-1.1,1.8-1.9.5-.8.7-1.7.7-2.6s-.2-1.8-.7-2.6c-.4-.8-1.1-1.4-1.8-1.9-.8-.5-1.6-.7-2.6-.7s-1.8.2-2.6.7c-.8.5-1.4,1.1-1.9,1.9-.4.8-.7,1.6-.7,2.6Z"/>
  <path class="st4" d="M199.6,189.8h-3.8l-3.4-6h-2.1v6h-3.4v-16.6h6.6c1.1,0,2.1.2,3,.6.9.4,1.6,1,2.1,1.8.5.8.8,1.8.8,2.9,0,2.4-1.1,4.1-3.4,4.9l3.8,6.5ZM193.1,180.6c.4,0,.8,0,1.3-.2.4-.1.8-.4,1-.7.3-.3.4-.7.4-1.3s-.1-.9-.4-1.2c-.3-.3-.6-.5-1-.6-.4-.1-.8-.2-1.3-.2h-2.9v4.2h2.9Z"/>
  <path class="st4" d="M205.7,189.8h-3.4v-16.6h3.4v7.3l5.7-7.3h4.3l-6.4,8,6.8,8.7h-4.4l-6-7.9v7.9Z"/>
  <g class="st3">
    <path class="st7" d="M66.2,209.3h143.2v24.6H66.2v-24.6Z"/>
  </g>
  <path class="st4" d="M85.5,228.6v-11.6h-4.4v-2.9h11.7v2.9h-4.4v11.6h-3Z"/>
  <path class="st4" d="M106.4,222.7c0,1.2-.2,2.3-.6,3.2-.4.9-1.1,1.6-2,2.1-.9.5-2,.8-3.3.8s-2.4-.3-3.3-.8c-.9-.5-1.5-1.2-1.9-2.1-.4-.9-.6-1.9-.6-3.1v-8.8h3v8.7c0,1.1.3,1.9.8,2.4.5.5,1.2.8,2,.8s1.6-.3,2.1-.9c.5-.6.8-1.3.8-2.2v-8.8h3v8.7Z"/>
  <path class="st4" d="M112.7,228.6v-11.6h-4.4v-2.9h11.7v2.9h-4.4v11.6h-3Z"/>
  <path class="st4" d="M121.3,221.4c0-1,.2-2,.6-2.9.4-.9.9-1.7,1.6-2.4.7-.7,1.5-1.2,2.4-1.6.9-.4,1.9-.6,3-.6s2,.2,2.9.6c.9.4,1.7.9,2.4,1.6.7.7,1.2,1.5,1.6,2.4.4.9.6,1.9.6,2.9s-.2,2-.6,2.9c-.4.9-.9,1.7-1.6,2.4-.7.7-1.5,1.2-2.4,1.6-.9.4-1.9.6-2.9.6s-2-.2-2.9-.6c-.9-.4-1.7-.9-2.4-1.6-.7-.7-1.2-1.5-1.6-2.4-.4-.9-.6-1.9-.6-2.9ZM124.4,221.3c0,.8.2,1.6.6,2.3.4.7.9,1.3,1.6,1.7.7.4,1.4.6,2.3.6s1.6-.2,2.3-.6c.7-.4,1.2-1,1.6-1.7.4-.7.6-1.5.6-2.3s-.2-1.6-.6-2.3c-.4-.7-.9-1.3-1.6-1.7-.7-.4-1.4-.6-2.3-.6s-1.6.2-2.3.6c-.7.4-1.2,1-1.6,1.7-.4.7-.6,1.4-.6,2.3Z"/>
  <path class="st4" d="M150.1,228.6h-3.3l-3-5.2h-1.8v5.2h-3v-14.5h5.8c.9,0,1.8.2,2.6.5.8.3,1.4.8,1.9,1.5.5.7.7,1.5.7,2.6,0,2.1-1,3.5-3,4.3l3.3,5.7ZM144.4,220.6c.4,0,.7,0,1.1-.2.4-.1.7-.3.9-.6.2-.3.4-.6.4-1.1s-.1-.8-.4-1.1c-.2-.3-.5-.4-.9-.6-.3-.1-.7-.2-1.1-.2h-2.5v3.7h2.5Z"/>
  <path class="st4" d="M155.5,214.1v14.5h-3v-14.5h3Z"/>
  <path class="st4" d="M160.2,228.6h-3l5.6-14.5h3.6l5.6,14.5h-3.1l-1.1-2.9h-6.5l-1.1,2.9ZM164.5,217l-2.2,5.9h4.4l-2.2-5.9Z"/>
  <path class="st4" d="M173.6,214.1h3v11.7h6.2v2.9h-9.2v-14.5Z"/>
  <path class="st4" d="M187.1,218c0,.5.2.8.6,1.1.4.3,1,.5,1.8.7,1.1.3,2,.7,2.8,1,.8.4,1.3.9,1.7,1.4.4.6.6,1.2.6,2.1s-.2,1.6-.6,2.3c-.4.7-1,1.2-1.8,1.6-.8.4-1.8.6-2.9.6s-2.6-.3-3.6-.9c-1-.6-1.7-1.5-2.1-2.5l2.6-1.4c.3.6.7,1.1,1.3,1.5.6.4,1.2.5,1.9.5s1.2-.1,1.6-.4c.4-.3.6-.7.6-1.1s0-.5-.3-.7c-.2-.2-.5-.4-.9-.6-.4-.2-1-.4-1.7-.6-.8-.2-1.5-.5-2.1-.8-.6-.3-1.1-.6-1.5-1-.3-.3-.6-.7-.8-1.2-.2-.5-.3-1-.3-1.5,0-.9.2-1.6.7-2.3.5-.7,1.1-1.2,1.8-1.5.8-.4,1.6-.6,2.5-.6s2.3.3,3.1.8c.9.5,1.5,1.3,2,2.3l-2.5,1.4c-.2-.6-.6-1-1.1-1.3-.5-.3-1-.5-1.6-.5s-1.1.1-1.4.4c-.3.3-.5.6-.5,1.1Z"/>
  <g>
    <path class="st4" d="M119.7,96.2h-25.4c-.7,0-1.3-.6-1.3-1.3v-15.9c0-.7.6-1.3,1.3-1.3h25.4c.7,0,1.3.6,1.3,1.3v15.9c0,.7-.6,1.3-1.3,1.3ZM95.6,93.6h22.9v-13.4h-22.9v13.4Z"/>
    <path class="st5" d="M113.7,88.2h-13.5c-.7,0-1.3-.6-1.3-1.3s.6-1.3,1.3-1.3h13.5c.7,0,1.3.6,1.3,1.3s-.6,1.3-1.3,1.3Z"/>
    <path class="st4" d="M119.7,121.3h-25.4c-.7,0-1.3-.6-1.3-1.3v-15.9c0-.7.6-1.3,1.3-1.3h25.4c.7,0,1.3.6,1.3,1.3v15.9c0,.7-.6,1.3-1.3,1.3ZM95.6,118.8h22.9v-13.4h-22.9v13.4Z"/>
    <path class="st5" d="M113.7,113.4h-13.5c-.7,0-1.3-.6-1.3-1.3s.6-1.3,1.3-1.3h13.5c.7,0,1.3.6,1.3,1.3s-.6,1.3-1.3,1.3Z"/>
    <path class="st4" d="M182.4,96.2h-25.4c-.7,0-1.3-.6-1.3-1.3v-15.9c0-.7.6-1.3,1.3-1.3h25.4c.7,0,1.3.6,1.3,1.3v15.9c0,.7-.6,1.3-1.3,1.3ZM158.2,93.6h22.9v-13.4h-22.9v13.4Z"/>
    <path class="st5" d="M176.4,88.2h-13.5c-.7,0-1.3-.6-1.3-1.3s.6-1.3,1.3-1.3h13.5c.7,0,1.3.6,1.3,1.3s-.6,1.3-1.3,1.3Z"/>
    <path class="st4" d="M182.4,71h-25.4c-.7,0-1.3-.6-1.3-1.3v-15.9c0-.7.6-1.3,1.3-1.3h25.4c.7,0,1.3.6,1.3,1.3v15.9c0,.7-.6,1.3-1.3,1.3ZM158.2,68.5h22.9v-13.4h-22.9v13.4Z"/>
    <path class="st5" d="M176.4,63.1h-13.5c-.7,0-1.3-.6-1.3-1.3s.6-1.3,1.3-1.3h13.5c.7,0,1.3.6,1.3,1.3s-.6,1.3-1.3,1.3Z"/>
    <path class="st4" d="M182.4,121.3h-25.4c-.7,0-1.3-.6-1.3-1.3v-15.9c0-.7.6-1.3,1.3-1.3h25.4c.7,0,1.3.6,1.3,1.3v15.9c0,.7-.6,1.3-1.3,1.3ZM158.2,118.8h22.9v-13.4h-22.9v13.4Z"/>
    <path class="st5" d="M176.4,113.4h-13.5c-.7,0-1.3-.6-1.3-1.3s.6-1.3,1.3-1.3h13.5c.7,0,1.3.6,1.3,1.3s-.6,1.3-1.3,1.3Z"/>
    <path class="st4" d="M107,80.1c-.7,0-1.3-.6-1.3-1.3v-22.1c0-.7.6-1.3,1.3-1.3s1.3.6,1.3,1.3v22.1c0,.7-.6,1.3-1.3,1.3Z"/>
    <path class="st4" d="M169.7,50.5c-.7,0-1.3-.6-1.3-1.3v-7.6h-45.2c-.7,0-1.3-.6-1.3-1.3s.6-1.3,1.3-1.3h46.5c.7,0,1.3.6,1.3,1.3v8.9c0,.7-.6,1.3-1.3,1.3h0Z"/>
    <path class="st4" d="M169.7,52c-.4,0-.7-.1-.9-.4l-4.9-5.2c-.5-.5-.5-1.3,0-1.8.5-.5,1.3-.5,1.8,0l3.9,4.2,3.8-4.3c.5-.5,1.3-.6,1.8-.1.5.5.6,1.3.1,1.8l-4.7,5.4c-.2.3-.6.4-.9.4h0Z"/>
    <path class="st5" d="M106.9,48c-4.1,0-7.4-3.3-7.4-7.4s3.3-7.4,7.4-7.4,7.4,3.3,7.4,7.4-3.3,7.4-7.4,7.4ZM106.9,35.7c-2.7,0-4.9,2.2-4.9,4.9s2.2,4.9,4.9,4.9,4.9-2.2,4.9-4.9-2.2-4.9-4.9-4.9Z"/>
    <path class="st5" d="M104.9,58c-.6,0-1.2-.5-1.3-1.1l-.5-3.5c-.9-.3-1.7-.6-2.5-1l-2.8,2.1c-.5.4-1.2.3-1.7-.1l-3-3c-.4-.4-.5-1.1-.1-1.7l2.1-2.8c-.4-.8-.8-1.7-1.1-2.5l-3.4-.4c-.6,0-1.1-.6-1.1-1.3v-4.2c0-.6.4-1.2,1.1-1.3l3.5-.5c.3-.9.6-1.7,1.1-2.5l-2.1-2.7c-.4-.5-.4-1.2.1-1.7l3-3c.5-.5,1.2-.5,1.7-.1l2.8,2.1c.8-.4,1.7-.8,2.5-1l.5-3.5c0-.6.6-1.1,1.3-1.1h4.2c.6,0,1.2.5,1.3,1.1l.5,3.5c.8.3,1.7.6,2.5,1l2.8-2.1c.5-.4,1.2-.3,1.7.1l3,3c.5.4.5,1.2.1,1.7l-2.1,2.8c.4.8.8,1.7,1.1,2.5l3.5.5c.6,0,1.1.6,1.1,1.3v4.2c0,.6-.4,1.2-1.1,1.3l-3.5.5c-.3.9-.6,1.7-1,2.5l2.1,2.8c.4.5.3,1.2-.1,1.7l-3,3c-.4.4-1.2.5-1.7.1l-2.8-2.1c-.8.4-1.6.8-2.5,1l-.5,3.5c0,.6-.6,1.1-1.3,1.1h-4.2s0,0,0,0ZM100.6,49.7c.2,0,.5,0,.7.2,1,.6,2.1,1.1,3.3,1.4.5.1.9.5,1,1.1l.5,3.2h2l.4-3.2c0-.5.5-1,1-1.1,1.2-.3,2.3-.7,3.3-1.4.4-.3,1-.3,1.4,0l2.6,1.9,1.4-1.4-2-2.6c-.3-.4-.4-1,0-1.4.7-1,1.1-2.2,1.4-3.3.1-.5.5-.9,1.1-1l3.2-.5v-2l-3.2-.4c-.5,0-1-.5-1.1-1-.3-1.2-.8-2.3-1.4-3.4-.3-.4-.3-1,0-1.5l2-2.6-1.4-1.4-2.6,2c-.4.3-1,.4-1.4,0-1-.6-2.1-1.1-3.3-1.4-.5-.1-.9-.5-1-1.1l-.5-3.3h-2l-.4,3.2c0,.5-.5,1-1,1.1-1.2.3-2.3.7-3.4,1.4-.4.3-1,.3-1.5,0l-2.6-2-1.4,1.4,2,2.5c.3.4.4,1,0,1.5-.7,1-1.1,2.2-1.4,3.4-.1.5-.5.9-1.1,1l-3.2.5v2l3.2.4c.5,0,1,.5,1.1,1,.3,1.2.7,2.3,1.4,3.4.3.4.3,1,0,1.4l-1.9,2.6,1.4,1.4,2.6-1.9c.2-.2.5-.3.8-.3h0Z"/>
  </g>
</svg>