<svg xmlns="http://www.w3.org/2000/svg" xmlns:xlink="http://www.w3.org/1999/xlink" width="275" zoomAndPan="magnify" viewBox="0 0 206.25 187.499992" height="250" preserveAspectRatio="xMidYMid meet" version="1.0"><defs><g/><clipPath id="3a3dc56993"><path d="M 0 0.0898438 L 205.503906 0.0898438 L 205.503906 186.910156 L 0 186.910156 Z M 0 0.0898438 " clip-rule="nonzero"/></clipPath><clipPath id="7f9605bdfb"><path d="M 8.96875 0.0898438 L 196.535156 0.0898438 C 198.914062 0.0898438 201.195312 1.035156 202.875 2.71875 C 204.558594 4.398438 205.503906 6.679688 205.503906 9.058594 L 205.503906 177.945312 C 205.503906 180.320312 204.558594 182.601562 202.875 184.285156 C 201.195312 185.964844 198.914062 186.910156 196.535156 186.910156 L 8.96875 186.910156 C 6.589844 186.910156 4.308594 185.964844 2.625 184.285156 C 0.945312 182.601562 0 180.320312 0 177.945312 L 0 9.058594 C 0 6.679688 0.945312 4.398438 2.625 2.71875 C 4.308594 1.035156 6.589844 0.0898438 8.96875 0.0898438 Z M 8.96875 0.0898438 " clip-rule="nonzero"/></clipPath><clipPath id="eeba61eb09"><path d="M 0 0.0898438 L 205.503906 0.0898438 L 205.503906 186.910156 L 0 186.910156 Z M 0 0.0898438 " clip-rule="nonzero"/></clipPath><clipPath id="6b35fe3f01"><path d="M 8.96875 0.0898438 L 196.535156 0.0898438 C 198.914062 0.0898438 201.195312 1.035156 202.875 2.71875 C 204.558594 4.398438 205.503906 6.679688 205.503906 9.058594 L 205.503906 177.945312 C 205.503906 180.320312 204.558594 182.601562 202.875 184.285156 C 201.195312 185.964844 198.914062 186.910156 196.535156 186.910156 L 8.96875 186.910156 C 6.589844 186.910156 4.308594 185.964844 2.625 184.285156 C 0.945312 182.601562 0 180.320312 0 177.945312 L 0 9.058594 C 0 6.679688 0.945312 4.398438 2.625 2.71875 C 4.308594 1.035156 6.589844 0.0898438 8.96875 0.0898438 Z M 8.96875 0.0898438 " clip-rule="nonzero"/></clipPath><clipPath id="9844cebb48"><rect x="0" width="206" y="0" height="187"/></clipPath><clipPath id="02cc4a5ca3"><path d="M 78.324219 49.105469 L 126.773438 49.105469 L 126.773438 98.425781 L 78.324219 98.425781 Z M 78.324219 49.105469 " clip-rule="nonzero"/></clipPath><clipPath id="d07357f219"><path d="M 110.796875 50.59375 C 113.40625 51.574219 115.824219 53.011719 117.9375 54.832031 L 117.96875 54.859375 C 120.101562 56.695312 121.894531 58.890625 123.269531 61.347656 L 123.328125 61.453125 C 124.726562 63.949219 125.683594 66.667969 126.160156 69.492188 C 126.636719 72.316406 126.640625 75.199219 126.167969 78.023438 L 126.152344 78.109375 C 125.683594 80.921875 124.722656 83.636719 123.316406 86.121094 L 123.289062 86.171875 C 121.902344 88.625 120.101562 90.816406 117.96875 92.65625 L 117.9375 92.679688 C 115.824219 94.5 113.40625 95.9375 110.796875 96.917969 C 108.1875 97.902344 105.425781 98.40625 102.636719 98.40625 L 102.570312 98.40625 C 99.785156 98.40625 97.019531 97.902344 94.410156 96.917969 C 91.800781 95.9375 89.382812 94.5 87.269531 92.679688 L 87.242188 92.65625 C 85.105469 90.816406 83.308594 88.625 81.921875 86.171875 L 81.890625 86.121094 C 80.484375 83.636719 79.527344 80.921875 79.054688 78.109375 L 79.039062 78.023438 C 78.566406 75.199219 78.570312 72.316406 79.046875 69.492188 C 79.523438 66.667969 80.480469 63.949219 81.878906 61.453125 L 81.9375 61.347656 C 83.3125 58.890625 85.105469 56.695312 87.242188 54.859375 L 87.269531 54.832031 C 89.382812 53.011719 91.800781 51.574219 94.410156 50.59375 C 97.019531 49.609375 99.785156 49.105469 102.570312 49.105469 L 102.636719 49.105469 C 105.425781 49.105469 108.1875 49.609375 110.796875 50.59375 Z M 110.796875 50.59375 " clip-rule="nonzero"/></clipPath></defs><g clip-path="url(#3a3dc56993)"><g clip-path="url(#7f9605bdfb)"><g transform="matrix(1, 0, 0, 1, 0, -0.000000000000024966)"><g clip-path="url(#9844cebb48)"><g clip-path="url(#eeba61eb09)"><g clip-path="url(#6b35fe3f01)"><path fill="#fbfeff" d="M 0 0.0898438 L 205.792969 0.0898438 L 205.792969 186.910156 L 0 186.910156 Z M 0 0.0898438 " fill-opacity="1" fill-rule="nonzero"/></g></g></g></g><path stroke-linecap="butt" transform="matrix(0.747283, 0, 0, 0.747283, 0, 0.09058)" fill="none" stroke-linejoin="miter" d="M 12.001819 -0.000985185 L 262.999784 -0.000985185 C 266.183193 -0.000985185 269.23592 1.264015 271.483648 3.51697 C 273.736602 5.764697 275.001602 8.817424 275.001602 12.000833 L 275.001602 238.001979 C 275.001602 241.180161 273.736602 244.232889 271.483648 246.485843 C 269.23592 248.733571 266.183193 249.998571 262.999784 249.998571 L 12.001819 249.998571 C 8.818409 249.998571 5.765682 248.733571 3.512727 246.485843 C 1.265 244.232889 0 241.180161 0 238.001979 L 0 12.000833 C 0 8.817424 1.265 5.764697 3.512727 3.51697 C 5.765682 1.264015 8.818409 -0.000985185 12.001819 -0.000985185 Z M 12.001819 -0.000985185 " stroke="#2563eb" stroke-width="4" stroke-opacity="1" stroke-miterlimit="4"/></g></g><g fill="#2563eb" fill-opacity="1"><g transform="translate(39.152933, 141.324369)"><g><path d="M 13.328125 0 L 9.875 0 L 9.046875 -2.296875 L 4.296875 -2.296875 L 3.46875 0 L 0.1875 0 L 4.921875 -12.125 L 8.59375 -12.125 Z M 5.296875 -5.046875 L 8.046875 -5.046875 L 6.671875 -8.8125 Z M 5.296875 -5.046875 "/></g></g></g><g fill="#2563eb" fill-opacity="1"><g transform="translate(52.667019, 141.324369)"><g><path d="M 9.765625 0 L 1.140625 0 L 1.140625 -12.125 L 4.25 -12.125 L 4.25 -2.9375 L 9.765625 -2.9375 Z M 9.765625 0 "/></g></g></g><g fill="#2563eb" fill-opacity="1"><g transform="translate(62.622778, 141.324369)"><g><path d="M 13.328125 0 L 9.875 0 L 9.046875 -2.296875 L 4.296875 -2.296875 L 3.46875 0 L 0.1875 0 L 4.921875 -12.125 L 8.59375 -12.125 Z M 5.296875 -5.046875 L 8.046875 -5.046875 L 6.671875 -8.8125 Z M 5.296875 -5.046875 "/></g></g></g><g fill="#2563eb" fill-opacity="1"><g transform="translate(76.136864, 141.324369)"><g><path d="M 4.25 0 L 1.140625 0 L 1.140625 -12.125 L 5.546875 -12.125 C 7.097656 -12.125 8.335938 -11.757812 9.265625 -11.03125 C 10.203125 -10.289062 10.671875 -9.320312 10.671875 -8.125 C 10.671875 -7.332031 10.472656 -6.632812 10.078125 -6.03125 C 9.691406 -5.4375 9.140625 -4.972656 8.421875 -4.640625 L 10.96875 0 L 7.359375 0 L 5.28125 -4.046875 L 4.25 -4.046875 Z M 5.796875 -9.390625 L 4.25 -9.390625 L 4.25 -6.796875 L 5.796875 -6.796875 C 6.253906 -6.796875 6.628906 -6.914062 6.921875 -7.15625 C 7.210938 -7.394531 7.359375 -7.71875 7.359375 -8.125 C 7.359375 -8.5 7.210938 -8.800781 6.921875 -9.03125 C 6.628906 -9.269531 6.253906 -9.390625 5.796875 -9.390625 Z M 5.796875 -9.390625 "/></g></g></g><g fill="#2563eb" fill-opacity="1"><g transform="translate(87.682515, 141.324369)"><g><path d="M 11.328125 -7.328125 L 7.796875 -2.1875 L 4.25 -7.296875 L 4.25 0 L 1.140625 0 L 1.140625 -12.125 L 4.734375 -12.125 L 8 -7.171875 L 11.28125 -12.125 L 14.453125 -12.125 L 14.453125 0 L 11.328125 0 Z M 11.328125 -7.328125 "/></g></g></g><g fill="#2563eb" fill-opacity="1"><g transform="translate(103.278606, 141.324369)"><g/></g></g><g fill="#2563eb" fill-opacity="1"><g transform="translate(108.010434, 141.324369)"><g><path d="M 4.25 0 L 1.140625 0 L 1.140625 -12.125 L 9.03125 -12.125 L 9.03125 -9.203125 L 4.25 -9.203125 L 4.25 -7.265625 L 8.265625 -7.265625 L 8.265625 -4.328125 L 4.25 -4.328125 Z M 4.25 0 "/></g></g></g><g fill="#2563eb" fill-opacity="1"><g transform="translate(117.606566, 141.324369)"><g><path d="M 2.4375 -10.5625 C 3.675781 -11.789062 5.171875 -12.40625 6.921875 -12.40625 C 8.660156 -12.40625 10.160156 -11.789062 11.421875 -10.5625 C 12.660156 -9.300781 13.28125 -7.800781 13.28125 -6.0625 C 13.28125 -4.300781 12.660156 -2.804688 11.421875 -1.578125 C 10.160156 -0.335938 8.660156 0.28125 6.921875 0.28125 C 5.160156 0.28125 3.664062 -0.34375 2.4375 -1.59375 C 1.1875 -2.820312 0.5625 -4.3125 0.5625 -6.0625 C 0.5625 -7.820312 1.1875 -9.320312 2.4375 -10.5625 Z M 3.921875 -6.078125 C 3.921875 -5.179688 4.21875 -4.414062 4.8125 -3.78125 C 5.40625 -3.15625 6.109375 -2.84375 6.921875 -2.84375 C 7.753906 -2.84375 8.46875 -3.15625 9.0625 -3.78125 C 9.644531 -4.40625 9.9375 -5.164062 9.9375 -6.0625 C 9.9375 -6.96875 9.644531 -7.726562 9.0625 -8.34375 C 8.46875 -8.976562 7.753906 -9.296875 6.921875 -9.296875 C 6.085938 -9.296875 5.382812 -8.984375 4.8125 -8.359375 C 4.21875 -7.734375 3.921875 -6.972656 3.921875 -6.078125 Z M 3.921875 -6.078125 "/></g></g></g><g fill="#2563eb" fill-opacity="1"><g transform="translate(131.46134, 141.324369)"><g><path d="M 11.5 -10.609375 L 9.421875 -8.234375 C 8.742188 -8.941406 7.898438 -9.296875 6.890625 -9.296875 C 6.054688 -9.296875 5.351562 -8.984375 4.78125 -8.359375 C 4.207031 -7.742188 3.921875 -6.984375 3.921875 -6.078125 C 3.921875 -5.179688 4.21875 -4.414062 4.8125 -3.78125 C 5.40625 -3.15625 6.144531 -2.84375 7.03125 -2.84375 C 7.488281 -2.84375 7.9375 -2.9375 8.375 -3.125 C 8.8125 -3.3125 9.160156 -3.566406 9.421875 -3.890625 L 11.5 -1.59375 C 10.46875 -0.34375 8.910156 0.28125 6.828125 0.28125 C 5.046875 0.28125 3.554688 -0.332031 2.359375 -1.5625 C 1.160156 -2.800781 0.5625 -4.304688 0.5625 -6.078125 C 0.5625 -7.828125 1.179688 -9.316406 2.421875 -10.546875 C 3.660156 -11.785156 5.132812 -12.40625 6.84375 -12.40625 C 8.863281 -12.40625 10.414062 -11.804688 11.5 -10.609375 Z M 11.5 -10.609375 "/></g></g></g><g fill="#2563eb" fill-opacity="1"><g transform="translate(143.253047, 141.324369)"><g><path d="M 1.046875 -5.1875 L 1.046875 -12.125 L 4.15625 -12.125 L 4.15625 -5.265625 C 4.15625 -4.523438 4.347656 -3.9375 4.734375 -3.5 C 5.117188 -3.0625 5.628906 -2.84375 6.265625 -2.84375 C 6.878906 -2.84375 7.375 -3.054688 7.75 -3.484375 C 8.125 -3.921875 8.3125 -4.503906 8.3125 -5.234375 L 8.3125 -12.125 L 11.421875 -12.125 L 11.421875 -5.1875 C 11.421875 -3.539062 10.953125 -2.222656 10.015625 -1.234375 C 9.035156 -0.222656 7.765625 0.28125 6.203125 0.28125 C 4.648438 0.28125 3.398438 -0.222656 2.453125 -1.234375 C 1.515625 -2.222656 1.046875 -3.539062 1.046875 -5.1875 Z M 1.046875 -5.1875 "/></g></g></g><g fill="#2563eb" fill-opacity="1"><g transform="translate(155.72613, 141.324369)"><g><path d="M 10.140625 -10.203125 L 8.015625 -8.078125 C 7.347656 -9.015625 6.46875 -9.484375 5.375 -9.484375 C 4.601562 -9.484375 4.21875 -9.234375 4.21875 -8.734375 C 4.21875 -8.484375 4.390625 -8.265625 4.734375 -8.078125 C 5.085938 -7.890625 5.640625 -7.671875 6.390625 -7.421875 C 7.148438 -7.179688 7.707031 -6.984375 8.0625 -6.828125 C 8.675781 -6.554688 9.175781 -6.144531 9.5625 -5.59375 C 9.945312 -5.039062 10.140625 -4.394531 10.140625 -3.65625 C 10.140625 -2.507812 9.6875 -1.566406 8.78125 -0.828125 C 7.863281 -0.0859375 6.703125 0.28125 5.296875 0.28125 C 2.972656 0.28125 1.332031 -0.472656 0.375 -1.984375 L 2.59375 -4.0625 C 3.269531 -3.125 4.191406 -2.65625 5.359375 -2.65625 C 6.316406 -2.65625 6.796875 -2.941406 6.796875 -3.515625 C 6.796875 -3.734375 6.679688 -3.921875 6.453125 -4.078125 C 6.234375 -4.242188 5.953125 -4.382812 5.609375 -4.5 C 5.265625 -4.625 4.882812 -4.75 4.46875 -4.875 C 4.050781 -5.007812 3.628906 -5.171875 3.203125 -5.359375 C 2.785156 -5.554688 2.398438 -5.785156 2.046875 -6.046875 C 1.703125 -6.316406 1.421875 -6.675781 1.203125 -7.125 C 0.984375 -7.570312 0.875 -8.085938 0.875 -8.671875 C 0.875 -9.753906 1.304688 -10.648438 2.171875 -11.359375 C 3.054688 -12.054688 4.164062 -12.40625 5.5 -12.40625 C 6.507812 -12.40625 7.414062 -12.207031 8.21875 -11.8125 C 9.03125 -11.425781 9.671875 -10.890625 10.140625 -10.203125 Z M 10.140625 -10.203125 "/></g></g></g><g clip-path="url(#02cc4a5ca3)"><g clip-path="url(#d07357f219)"><path stroke-linecap="butt" transform="matrix(0.747283, 0, 0, 0.747283, 78.325863, 49.105708)" fill="none" stroke-linejoin="miter" d="M 43.45212 1.991271 C 46.943939 3.303316 50.17962 5.226953 53.007575 7.662862 L 53.049393 7.699453 C 55.903484 10.156271 58.302803 13.093999 60.142803 16.381953 L 60.221212 16.52309 C 62.092576 19.863317 63.373257 23.501499 64.010985 27.280817 C 64.648712 31.060136 64.653939 34.917863 64.021439 38.697181 L 64.00053 38.812181 C 63.373257 42.575818 62.087348 46.208773 60.20553 49.533318 L 60.168939 49.601273 C 58.313257 52.884 55.903484 55.8165 53.049393 58.278546 L 53.007575 58.30991 C 50.17962 60.745819 46.943939 62.669455 43.45212 63.981501 C 39.960302 65.298773 36.26462 65.973092 32.532347 65.973092 L 32.443483 65.973092 C 28.716438 65.973092 25.015529 65.298773 21.52371 63.981501 C 18.031892 62.669455 14.79621 60.745819 11.968255 58.30991 L 11.931664 58.278546 C 9.072346 55.8165 6.6678 52.884 4.812119 49.601273 L 4.7703 49.533318 C 2.888482 46.208773 1.6078 42.575818 0.9753 38.812181 L 0.954391 38.697181 C 0.321891 34.917863 0.327118 31.060136 0.964846 27.280817 C 1.602573 23.501499 2.883255 19.863317 4.754619 16.52309 L 4.833028 16.381953 C 6.673028 13.093999 9.072346 10.156271 11.931664 7.699453 L 11.968255 7.662862 C 14.79621 5.226953 18.031892 3.303316 21.52371 1.991271 C 25.015529 0.673998 28.716438 -0.000320181 32.443483 -0.000320181 L 32.532347 -0.000320181 C 36.26462 -0.000320181 39.960302 0.673998 43.45212 1.991271 Z M 43.45212 1.991271 " stroke="#1272fa" stroke-width="6" stroke-opacity="1" stroke-miterlimit="4"/></g></g><path stroke-linecap="butt" transform="matrix(0.747283, 0, 0, 0.747283, 120.119713, 39.816253)" fill="none" stroke-linejoin="miter" d="M 0.00184793 1.500433 L 10.864121 1.500433 C 13.592758 1.500433 16.201167 2.582478 18.130031 4.511342 C 20.053667 6.434979 21.14094 9.048615 21.14094 11.772024 L 21.14094 22.043616 " stroke="#04357d" stroke-width="3" stroke-opacity="1" stroke-miterlimit="4"/><path stroke-linecap="butt" transform="matrix(0.747283, 0, 0, 0.747283, 68.465664, 39.940295)" fill="none" stroke-linejoin="miter" d="M 21.524812 1.501715 L 11.509358 1.501715 C 8.85913 1.501715 6.308221 2.552396 4.43163 4.434215 C 2.555039 6.310806 1.49913 8.856488 1.49913 11.511942 L 1.49913 21.877625 " stroke="#04357d" stroke-width="3" stroke-opacity="1" stroke-miterlimit="4"/><path stroke-linecap="butt" transform="matrix(0.747283, 0, 0, 0.747283, 120.119713, 91.284644)" fill="none" stroke-linejoin="miter" d="M 21.14094 0.00068508 L 21.14094 10.371595 C 21.14094 13.12114 20.04844 15.755686 18.098667 17.700231 C 16.154121 19.644777 13.519576 20.737277 10.77003 20.737277 L 0.00184793 20.737277 " stroke="#04357d" stroke-width="3" stroke-opacity="1" stroke-miterlimit="4"/><path stroke-linecap="butt" transform="matrix(0.747283, 0, 0, 0.747283, 68.465664, 91.284644)" fill="none" stroke-linejoin="miter" d="M 1.49913 0.00068508 L 1.49913 10.727049 C 1.49913 13.382504 2.555039 15.928186 4.43163 17.804777 C 6.308221 19.686595 8.85913 20.737277 11.509358 20.737277 L 21.524812 20.737277 " stroke="#04357d" stroke-width="3" stroke-opacity="1" stroke-miterlimit="4"/></svg>