<svg xmlns="http://www.w3.org/2000/svg" xmlns:xlink="http://www.w3.org/1999/xlink" width="275" zoomAndPan="magnify" viewBox="0 0 206.25 187.499992" height="250" preserveAspectRatio="xMidYMid meet" version="1.0"><defs><g/><clipPath id="8695550177"><path d="M 0 0.0898438 L 205.503906 0.0898438 L 205.503906 186.910156 L 0 186.910156 Z M 0 0.0898438 " clip-rule="nonzero"/></clipPath><clipPath id="a250610c0d"><path d="M 8.96875 0.0898438 L 196.535156 0.0898438 C 198.914062 0.0898438 201.195312 1.035156 202.875 2.71875 C 204.558594 4.398438 205.503906 6.679688 205.503906 9.058594 L 205.503906 177.945312 C 205.503906 180.320312 204.558594 182.601562 202.875 184.285156 C 201.195312 185.964844 198.914062 186.910156 196.535156 186.910156 L 8.96875 186.910156 C 6.589844 186.910156 4.308594 185.964844 2.625 184.285156 C 0.945312 182.601562 0 180.320312 0 177.945312 L 0 9.058594 C 0 6.679688 0.945312 4.398438 2.625 2.71875 C 4.308594 1.035156 6.589844 0.0898438 8.96875 0.0898438 Z M 8.96875 0.0898438 " clip-rule="nonzero"/></clipPath><clipPath id="06f997f63c"><path d="M 0 0.0898438 L 205.503906 0.0898438 L 205.503906 186.910156 L 0 186.910156 Z M 0 0.0898438 " clip-rule="nonzero"/></clipPath><clipPath id="2970c98b7c"><path d="M 8.96875 0.0898438 L 196.535156 0.0898438 C 198.914062 0.0898438 201.195312 1.035156 202.875 2.71875 C 204.558594 4.398438 205.503906 6.679688 205.503906 9.058594 L 205.503906 177.945312 C 205.503906 180.320312 204.558594 182.601562 202.875 184.285156 C 201.195312 185.964844 198.914062 186.910156 196.535156 186.910156 L 8.96875 186.910156 C 6.589844 186.910156 4.308594 185.964844 2.625 184.285156 C 0.945312 182.601562 0 180.320312 0 177.945312 L 0 9.058594 C 0 6.679688 0.945312 4.398438 2.625 2.71875 C 4.308594 1.035156 6.589844 0.0898438 8.96875 0.0898438 Z M 8.96875 0.0898438 " clip-rule="nonzero"/></clipPath><clipPath id="abc10d8333"><rect x="0" width="206" y="0" height="187"/></clipPath><clipPath id="124d433001"><path d="M 76.199219 41.515625 L 112.683594 41.515625 L 112.683594 55.707031 L 76.199219 55.707031 Z M 76.199219 41.515625 " clip-rule="nonzero"/></clipPath><clipPath id="5b6432eb42"><path d="M 79.1875 41.515625 L 109.554688 41.515625 C 110.347656 41.515625 111.109375 41.832031 111.667969 42.390625 C 112.230469 42.953125 112.542969 43.710938 112.542969 44.503906 L 112.542969 52.503906 C 112.542969 53.296875 112.230469 54.058594 111.667969 54.617188 C 111.109375 55.179688 110.347656 55.492188 109.554688 55.492188 L 79.1875 55.492188 C 78.394531 55.492188 77.632812 55.179688 77.074219 54.617188 C 76.511719 54.058594 76.199219 53.296875 76.199219 52.503906 L 76.199219 44.503906 C 76.199219 43.710938 76.511719 42.953125 77.074219 42.390625 C 77.632812 41.832031 78.394531 41.515625 79.1875 41.515625 Z M 79.1875 41.515625 " clip-rule="nonzero"/></clipPath><clipPath id="d261cd34c0"><path d="M 76.199219 57.804688 L 112.683594 57.804688 L 112.683594 71.992188 L 76.199219 71.992188 Z M 76.199219 57.804688 " clip-rule="nonzero"/></clipPath><clipPath id="f64bb14ae8"><path d="M 79.1875 57.804688 L 109.554688 57.804688 C 110.347656 57.804688 111.109375 58.117188 111.667969 58.679688 C 112.230469 59.238281 112.542969 60 112.542969 60.792969 L 112.542969 68.792969 C 112.542969 69.582031 112.230469 70.34375 111.667969 70.90625 C 111.109375 71.464844 110.347656 71.78125 109.554688 71.78125 L 79.1875 71.78125 C 78.394531 71.78125 77.632812 71.464844 77.074219 70.90625 C 76.511719 70.34375 76.199219 69.582031 76.199219 68.792969 L 76.199219 60.792969 C 76.199219 60 76.511719 59.238281 77.074219 58.679688 C 77.632812 58.117188 78.394531 57.804688 79.1875 57.804688 Z M 79.1875 57.804688 " clip-rule="nonzero"/></clipPath><clipPath id="85a54ba022"><path d="M 76.199219 74.089844 L 112.683594 74.089844 L 112.683594 88.277344 L 76.199219 88.277344 Z M 76.199219 74.089844 " clip-rule="nonzero"/></clipPath><clipPath id="63edb80db7"><path d="M 79.1875 74.089844 L 109.554688 74.089844 C 110.347656 74.089844 111.109375 74.40625 111.667969 74.964844 C 112.230469 75.527344 112.542969 76.285156 112.542969 77.078125 L 112.542969 85.078125 C 112.542969 85.871094 112.230469 86.628906 111.667969 87.191406 C 111.109375 87.75 110.347656 88.066406 109.554688 88.066406 L 79.1875 88.066406 C 78.394531 88.066406 77.632812 87.75 77.074219 87.191406 C 76.511719 86.628906 76.199219 85.871094 76.199219 85.078125 L 76.199219 77.078125 C 76.199219 76.285156 76.511719 75.527344 77.074219 74.964844 C 77.632812 74.40625 78.394531 74.089844 79.1875 74.089844 Z M 79.1875 74.089844 " clip-rule="nonzero"/></clipPath><clipPath id="cabcb8fe73"><path d="M 76.199219 90.375 L 112.683594 90.375 L 112.683594 104.566406 L 76.199219 104.566406 Z M 76.199219 90.375 " clip-rule="nonzero"/></clipPath><clipPath id="068cf942a4"><path d="M 79.1875 90.375 L 109.554688 90.375 C 110.347656 90.375 111.109375 90.691406 111.667969 91.25 C 112.230469 91.8125 112.542969 92.570312 112.542969 93.363281 L 112.542969 101.363281 C 112.542969 102.15625 112.230469 102.917969 111.667969 103.476562 C 111.109375 104.039062 110.347656 104.351562 109.554688 104.351562 L 79.1875 104.351562 C 78.394531 104.351562 77.632812 104.039062 77.074219 103.476562 C 76.511719 102.917969 76.199219 102.15625 76.199219 101.363281 L 76.199219 93.363281 C 76.199219 92.570312 76.511719 91.8125 77.074219 91.25 C 77.632812 90.691406 78.394531 90.375 79.1875 90.375 Z M 79.1875 90.375 " clip-rule="nonzero"/></clipPath><clipPath id="c5a0f9c791"><path d="M 116.746094 41.519531 L 129.453125 41.519531 L 129.453125 55.703125 L 116.746094 55.703125 Z M 116.746094 41.519531 " clip-rule="nonzero"/></clipPath><clipPath id="4594b5586f"><path d="M 119.734375 41.519531 L 126.3125 41.519531 C 127.105469 41.519531 127.863281 41.832031 128.425781 42.394531 C 128.984375 42.953125 129.300781 43.714844 129.300781 44.507812 L 129.300781 52.503906 C 129.300781 53.296875 128.984375 54.054688 128.425781 54.617188 C 127.863281 55.175781 127.105469 55.492188 126.3125 55.492188 L 119.734375 55.492188 C 118.945312 55.492188 118.183594 55.175781 117.625 54.617188 C 117.0625 54.054688 116.746094 53.296875 116.746094 52.503906 L 116.746094 44.507812 C 116.746094 43.714844 117.0625 42.953125 117.625 42.394531 C 118.183594 41.832031 118.945312 41.519531 119.734375 41.519531 Z M 119.734375 41.519531 " clip-rule="nonzero"/></clipPath><clipPath id="275dde42f8"><path d="M 116.746094 57.804688 L 129.453125 57.804688 L 129.453125 71.992188 L 116.746094 71.992188 Z M 116.746094 57.804688 " clip-rule="nonzero"/></clipPath><clipPath id="6860933c83"><path d="M 119.734375 57.804688 L 126.3125 57.804688 C 127.105469 57.804688 127.863281 58.121094 128.425781 58.679688 C 128.984375 59.238281 129.300781 60 129.300781 60.792969 L 129.300781 68.789062 C 129.300781 69.582031 128.984375 70.34375 128.425781 70.902344 C 127.863281 71.464844 127.105469 71.777344 126.3125 71.777344 L 119.734375 71.777344 C 118.945312 71.777344 118.183594 71.464844 117.625 70.902344 C 117.0625 70.34375 116.746094 69.582031 116.746094 68.789062 L 116.746094 60.792969 C 116.746094 60 117.0625 59.238281 117.625 58.679688 C 118.183594 58.121094 118.945312 57.804688 119.734375 57.804688 Z M 119.734375 57.804688 " clip-rule="nonzero"/></clipPath><clipPath id="d796a1fa1b"><path d="M 116.746094 74.089844 L 129.453125 74.089844 L 129.453125 88.277344 L 116.746094 88.277344 Z M 116.746094 74.089844 " clip-rule="nonzero"/></clipPath><clipPath id="b66566ad05"><path d="M 119.734375 74.089844 L 126.3125 74.089844 C 127.105469 74.089844 127.863281 74.40625 128.425781 74.964844 C 128.984375 75.527344 129.300781 76.285156 129.300781 77.078125 L 129.300781 85.078125 C 129.300781 85.871094 128.984375 86.628906 128.425781 87.191406 C 127.863281 87.75 127.105469 88.066406 126.3125 88.066406 L 119.734375 88.066406 C 118.945312 88.066406 118.183594 87.75 117.625 87.191406 C 117.0625 86.628906 116.746094 85.871094 116.746094 85.078125 L 116.746094 77.078125 C 116.746094 76.285156 117.0625 75.527344 117.625 74.964844 C 118.183594 74.40625 118.945312 74.089844 119.734375 74.089844 Z M 119.734375 74.089844 " clip-rule="nonzero"/></clipPath><clipPath id="7104adfda7"><path d="M 116.746094 90.378906 L 129.453125 90.378906 L 129.453125 104.5625 L 116.746094 104.5625 Z M 116.746094 90.378906 " clip-rule="nonzero"/></clipPath><clipPath id="c62e0f26b0"><path d="M 119.734375 90.378906 L 126.3125 90.378906 C 127.105469 90.378906 127.863281 90.691406 128.425781 91.253906 C 128.984375 91.8125 129.300781 92.574219 129.300781 93.367188 L 129.300781 101.363281 C 129.300781 102.15625 128.984375 102.914062 128.425781 103.476562 C 127.863281 104.035156 127.105469 104.351562 126.3125 104.351562 L 119.734375 104.351562 C 118.945312 104.351562 118.183594 104.035156 117.625 103.476562 C 117.0625 102.914062 116.746094 102.15625 116.746094 101.363281 L 116.746094 93.367188 C 116.746094 92.574219 117.0625 91.8125 117.625 91.253906 C 118.183594 90.691406 118.945312 90.378906 119.734375 90.378906 Z M 119.734375 90.378906 " clip-rule="nonzero"/></clipPath></defs><g clip-path="url(#8695550177)"><g clip-path="url(#a250610c0d)"><g transform="matrix(1, 0, 0, 1, 0, -0.000000000000024966)"><g clip-path="url(#abc10d8333)"><g clip-path="url(#06f997f63c)"><g clip-path="url(#2970c98b7c)"><path fill="#fbfeff" d="M 0 0.0898438 L 205.792969 0.0898438 L 205.792969 186.910156 L 0 186.910156 Z M 0 0.0898438 " fill-opacity="1" fill-rule="nonzero"/></g></g></g></g><path stroke-linecap="butt" transform="matrix(0.747283, 0, 0, 0.747283, 0, 0.09058)" fill="none" stroke-linejoin="miter" d="M 12.001819 -0.000985185 L 262.999784 -0.000985185 C 266.183193 -0.000985185 269.23592 1.264015 271.483648 3.51697 C 273.736602 5.764697 275.001602 8.817424 275.001602 12.000833 L 275.001602 238.001979 C 275.001602 241.180161 273.736602 244.232889 271.483648 246.485843 C 269.23592 248.733571 266.183193 249.998571 262.999784 249.998571 L 12.001819 249.998571 C 8.818409 249.998571 5.765682 248.733571 3.512727 246.485843 C 1.265 244.232889 0 241.180161 0 238.001979 L 0 12.000833 C 0 8.817424 1.265 5.764697 3.512727 3.51697 C 5.765682 1.264015 8.818409 -0.000985185 12.001819 -0.000985185 Z M 12.001819 -0.000985185 " stroke="#2563eb" stroke-width="4" stroke-opacity="1" stroke-miterlimit="4"/></g></g><g fill="#2563eb" fill-opacity="1"><g transform="translate(49.535492, 129.666302)"><g><path d="M 13.328125 0 L 9.875 0 L 9.046875 -2.296875 L 4.296875 -2.296875 L 3.46875 0 L 0.1875 0 L 4.921875 -12.125 L 8.59375 -12.125 Z M 5.296875 -5.046875 L 8.046875 -5.046875 L 6.671875 -8.8125 Z M 5.296875 -5.046875 "/></g></g></g><g fill="#2563eb" fill-opacity="1"><g transform="translate(63.049578, 129.666302)"><g><path d="M 1.046875 -5.1875 L 1.046875 -12.125 L 4.15625 -12.125 L 4.15625 -5.265625 C 4.15625 -4.523438 4.347656 -3.9375 4.734375 -3.5 C 5.117188 -3.0625 5.628906 -2.84375 6.265625 -2.84375 C 6.878906 -2.84375 7.375 -3.054688 7.75 -3.484375 C 8.125 -3.921875 8.3125 -4.503906 8.3125 -5.234375 L 8.3125 -12.125 L 11.421875 -12.125 L 11.421875 -5.1875 C 11.421875 -3.539062 10.953125 -2.222656 10.015625 -1.234375 C 9.035156 -0.222656 7.765625 0.28125 6.203125 0.28125 C 4.648438 0.28125 3.398438 -0.222656 2.453125 -1.234375 C 1.515625 -2.222656 1.046875 -3.539062 1.046875 -5.1875 Z M 1.046875 -5.1875 "/></g></g></g><g fill="#2563eb" fill-opacity="1"><g transform="translate(75.522661, 129.666302)"><g><path d="M 9.953125 -12.125 L 9.953125 -9.203125 L 6.625 -9.203125 L 6.625 0 L 3.5 0 L 3.5 -9.203125 L 0.1875 -9.203125 L 0.1875 -12.125 Z M 9.953125 -12.125 "/></g></g></g><g fill="#2563eb" fill-opacity="1"><g transform="translate(85.667693, 129.666302)"><g><path d="M 2.4375 -10.5625 C 3.675781 -11.789062 5.171875 -12.40625 6.921875 -12.40625 C 8.660156 -12.40625 10.160156 -11.789062 11.421875 -10.5625 C 12.660156 -9.300781 13.28125 -7.800781 13.28125 -6.0625 C 13.28125 -4.300781 12.660156 -2.804688 11.421875 -1.578125 C 10.160156 -0.335938 8.660156 0.28125 6.921875 0.28125 C 5.160156 0.28125 3.664062 -0.34375 2.4375 -1.59375 C 1.1875 -2.820312 0.5625 -4.3125 0.5625 -6.0625 C 0.5625 -7.820312 1.1875 -9.320312 2.4375 -10.5625 Z M 3.921875 -6.078125 C 3.921875 -5.179688 4.21875 -4.414062 4.8125 -3.78125 C 5.40625 -3.15625 6.109375 -2.84375 6.921875 -2.84375 C 7.753906 -2.84375 8.46875 -3.15625 9.0625 -3.78125 C 9.644531 -4.40625 9.9375 -5.164062 9.9375 -6.0625 C 9.9375 -6.96875 9.644531 -7.726562 9.0625 -8.34375 C 8.46875 -8.976562 7.753906 -9.296875 6.921875 -9.296875 C 6.085938 -9.296875 5.382812 -8.984375 4.8125 -8.359375 C 4.21875 -7.734375 3.921875 -6.972656 3.921875 -6.078125 Z M 3.921875 -6.078125 "/></g></g></g><g fill="#2563eb" fill-opacity="1"><g transform="translate(99.522466, 129.666302)"><g><path d="M 11.328125 -7.328125 L 7.796875 -2.1875 L 4.25 -7.296875 L 4.25 0 L 1.140625 0 L 1.140625 -12.125 L 4.734375 -12.125 L 8 -7.171875 L 11.28125 -12.125 L 14.453125 -12.125 L 14.453125 0 L 11.328125 0 Z M 11.328125 -7.328125 "/></g></g></g><g fill="#2563eb" fill-opacity="1"><g transform="translate(115.118558, 129.666302)"><g><path d="M 13.328125 0 L 9.875 0 L 9.046875 -2.296875 L 4.296875 -2.296875 L 3.46875 0 L 0.1875 0 L 4.921875 -12.125 L 8.59375 -12.125 Z M 5.296875 -5.046875 L 8.046875 -5.046875 L 6.671875 -8.8125 Z M 5.296875 -5.046875 "/></g></g></g><g fill="#2563eb" fill-opacity="1"><g transform="translate(128.632644, 129.666302)"><g><path d="M 9.953125 -12.125 L 9.953125 -9.203125 L 6.625 -9.203125 L 6.625 0 L 3.5 0 L 3.5 -9.203125 L 0.1875 -9.203125 L 0.1875 -12.125 Z M 9.953125 -12.125 "/></g></g></g><g fill="#2563eb" fill-opacity="1"><g transform="translate(138.777675, 129.666302)"><g><path d="M 4.25 0 L 1.140625 0 L 1.140625 -12.125 L 4.25 -12.125 Z M 4.25 0 "/></g></g></g><g fill="#2563eb" fill-opacity="1"><g transform="translate(144.17195, 129.666302)"><g><path d="M 11.5 -10.609375 L 9.421875 -8.234375 C 8.742188 -8.941406 7.898438 -9.296875 6.890625 -9.296875 C 6.054688 -9.296875 5.351562 -8.984375 4.78125 -8.359375 C 4.207031 -7.742188 3.921875 -6.984375 3.921875 -6.078125 C 3.921875 -5.179688 4.21875 -4.414062 4.8125 -3.78125 C 5.40625 -3.15625 6.144531 -2.84375 7.03125 -2.84375 C 7.488281 -2.84375 7.9375 -2.9375 8.375 -3.125 C 8.8125 -3.3125 9.160156 -3.566406 9.421875 -3.890625 L 11.5 -1.59375 C 10.46875 -0.34375 8.910156 0.28125 6.828125 0.28125 C 5.046875 0.28125 3.554688 -0.332031 2.359375 -1.5625 C 1.160156 -2.800781 0.5625 -4.304688 0.5625 -6.078125 C 0.5625 -7.828125 1.179688 -9.316406 2.421875 -10.546875 C 3.660156 -11.785156 5.132812 -12.40625 6.84375 -12.40625 C 8.863281 -12.40625 10.414062 -11.804688 11.5 -10.609375 Z M 11.5 -10.609375 "/></g></g></g><g fill="#2563eb" fill-opacity="1"><g transform="translate(21.979447, 150.590214)"><g><path d="M 13.328125 0 L 9.875 0 L 9.046875 -2.296875 L 4.296875 -2.296875 L 3.46875 0 L 0.1875 0 L 4.921875 -12.125 L 8.59375 -12.125 Z M 5.296875 -5.046875 L 8.046875 -5.046875 L 6.671875 -8.8125 Z M 5.296875 -5.046875 "/></g></g></g><g fill="#2563eb" fill-opacity="1"><g transform="translate(35.493533, 150.590214)"><g><path d="M 9.765625 0 L 1.140625 0 L 1.140625 -12.125 L 4.25 -12.125 L 4.25 -2.9375 L 9.765625 -2.9375 Z M 9.765625 0 "/></g></g></g><g fill="#2563eb" fill-opacity="1"><g transform="translate(45.449292, 150.590214)"><g><path d="M 13.328125 0 L 9.875 0 L 9.046875 -2.296875 L 4.296875 -2.296875 L 3.46875 0 L 0.1875 0 L 4.921875 -12.125 L 8.59375 -12.125 Z M 5.296875 -5.046875 L 8.046875 -5.046875 L 6.671875 -8.8125 Z M 5.296875 -5.046875 "/></g></g></g><g fill="#2563eb" fill-opacity="1"><g transform="translate(58.963378, 150.590214)"><g><path d="M 4.25 0 L 1.140625 0 L 1.140625 -12.125 L 5.546875 -12.125 C 7.097656 -12.125 8.335938 -11.757812 9.265625 -11.03125 C 10.203125 -10.289062 10.671875 -9.320312 10.671875 -8.125 C 10.671875 -7.332031 10.472656 -6.632812 10.078125 -6.03125 C 9.691406 -5.4375 9.140625 -4.972656 8.421875 -4.640625 L 10.96875 0 L 7.359375 0 L 5.28125 -4.046875 L 4.25 -4.046875 Z M 5.796875 -9.390625 L 4.25 -9.390625 L 4.25 -6.796875 L 5.796875 -6.796875 C 6.253906 -6.796875 6.628906 -6.914062 6.921875 -7.15625 C 7.210938 -7.394531 7.359375 -7.71875 7.359375 -8.125 C 7.359375 -8.5 7.210938 -8.800781 6.921875 -9.03125 C 6.628906 -9.269531 6.253906 -9.390625 5.796875 -9.390625 Z M 5.796875 -9.390625 "/></g></g></g><g fill="#2563eb" fill-opacity="1"><g transform="translate(70.509029, 150.590214)"><g><path d="M 11.328125 -7.328125 L 7.796875 -2.1875 L 4.25 -7.296875 L 4.25 0 L 1.140625 0 L 1.140625 -12.125 L 4.734375 -12.125 L 8 -7.171875 L 11.28125 -12.125 L 14.453125 -12.125 L 14.453125 0 L 11.328125 0 Z M 11.328125 -7.328125 "/></g></g></g><g fill="#2563eb" fill-opacity="1"><g transform="translate(86.10512, 150.590214)"><g/></g></g><g fill="#2563eb" fill-opacity="1"><g transform="translate(90.836948, 150.590214)"><g><path d="M 6.734375 -7.109375 L 11.625 -7.109375 L 10.109375 -4.59375 L 6.734375 -4.59375 Z M 11.625 -7.109375 L 11.640625 -1.1875 C 10.441406 -0.207031 8.835938 0.28125 6.828125 0.28125 C 5.046875 0.28125 3.554688 -0.332031 2.359375 -1.5625 C 1.160156 -2.800781 0.5625 -4.304688 0.5625 -6.078125 C 0.5625 -7.828125 1.179688 -9.316406 2.421875 -10.546875 C 3.660156 -11.785156 5.132812 -12.40625 6.84375 -12.40625 C 8.863281 -12.40625 10.414062 -11.804688 11.5 -10.609375 L 9.421875 -8.234375 C 8.742188 -8.941406 7.898438 -9.296875 6.890625 -9.296875 C 6.054688 -9.296875 5.351562 -8.984375 4.78125 -8.359375 C 4.207031 -7.742188 3.921875 -6.984375 3.921875 -6.078125 C 3.921875 -5.179688 4.21875 -4.414062 4.8125 -3.78125 C 5.40625 -3.15625 6.144531 -2.84375 7.03125 -2.84375 C 7.5625 -2.84375 8.054688 -2.953125 8.515625 -3.171875 L 8.515625 -7.078125 Z M 11.625 -7.109375 "/></g></g></g><g fill="#2563eb" fill-opacity="1"><g transform="translate(103.423601, 150.590214)"><g><path d="M 4.25 0 L 1.140625 0 L 1.140625 -12.125 L 5.546875 -12.125 C 7.097656 -12.125 8.335938 -11.757812 9.265625 -11.03125 C 10.203125 -10.289062 10.671875 -9.320312 10.671875 -8.125 C 10.671875 -7.332031 10.472656 -6.632812 10.078125 -6.03125 C 9.691406 -5.4375 9.140625 -4.972656 8.421875 -4.640625 L 10.96875 0 L 7.359375 0 L 5.28125 -4.046875 L 4.25 -4.046875 Z M 5.796875 -9.390625 L 4.25 -9.390625 L 4.25 -6.796875 L 5.796875 -6.796875 C 6.253906 -6.796875 6.628906 -6.914062 6.921875 -7.15625 C 7.210938 -7.394531 7.359375 -7.71875 7.359375 -8.125 C 7.359375 -8.5 7.210938 -8.800781 6.921875 -9.03125 C 6.628906 -9.269531 6.253906 -9.390625 5.796875 -9.390625 Z M 5.796875 -9.390625 "/></g></g></g><g fill="#2563eb" fill-opacity="1"><g transform="translate(114.969252, 150.590214)"><g><path d="M 2.4375 -10.5625 C 3.675781 -11.789062 5.171875 -12.40625 6.921875 -12.40625 C 8.660156 -12.40625 10.160156 -11.789062 11.421875 -10.5625 C 12.660156 -9.300781 13.28125 -7.800781 13.28125 -6.0625 C 13.28125 -4.300781 12.660156 -2.804688 11.421875 -1.578125 C 10.160156 -0.335938 8.660156 0.28125 6.921875 0.28125 C 5.160156 0.28125 3.664062 -0.34375 2.4375 -1.59375 C 1.1875 -2.820312 0.5625 -4.3125 0.5625 -6.0625 C 0.5625 -7.820312 1.1875 -9.320312 2.4375 -10.5625 Z M 3.921875 -6.078125 C 3.921875 -5.179688 4.21875 -4.414062 4.8125 -3.78125 C 5.40625 -3.15625 6.109375 -2.84375 6.921875 -2.84375 C 7.753906 -2.84375 8.46875 -3.15625 9.0625 -3.78125 C 9.644531 -4.40625 9.9375 -5.164062 9.9375 -6.0625 C 9.9375 -6.96875 9.644531 -7.726562 9.0625 -8.34375 C 8.46875 -8.976562 7.753906 -9.296875 6.921875 -9.296875 C 6.085938 -9.296875 5.382812 -8.984375 4.8125 -8.359375 C 4.21875 -7.734375 3.921875 -6.972656 3.921875 -6.078125 Z M 3.921875 -6.078125 "/></g></g></g><g fill="#2563eb" fill-opacity="1"><g transform="translate(128.824026, 150.590214)"><g><path d="M 1.046875 -5.1875 L 1.046875 -12.125 L 4.15625 -12.125 L 4.15625 -5.265625 C 4.15625 -4.523438 4.347656 -3.9375 4.734375 -3.5 C 5.117188 -3.0625 5.628906 -2.84375 6.265625 -2.84375 C 6.878906 -2.84375 7.375 -3.054688 7.75 -3.484375 C 8.125 -3.921875 8.3125 -4.503906 8.3125 -5.234375 L 8.3125 -12.125 L 11.421875 -12.125 L 11.421875 -5.1875 C 11.421875 -3.539062 10.953125 -2.222656 10.015625 -1.234375 C 9.035156 -0.222656 7.765625 0.28125 6.203125 0.28125 C 4.648438 0.28125 3.398438 -0.222656 2.453125 -1.234375 C 1.515625 -2.222656 1.046875 -3.539062 1.046875 -5.1875 Z M 1.046875 -5.1875 "/></g></g></g><g fill="#2563eb" fill-opacity="1"><g transform="translate(141.297109, 150.590214)"><g><path d="M 4.25 0 L 1.140625 0 L 1.140625 -12.125 L 5.546875 -12.125 C 7.097656 -12.125 8.335938 -11.738281 9.265625 -10.96875 C 10.203125 -10.1875 10.671875 -9.171875 10.671875 -7.921875 C 10.671875 -6.648438 10.203125 -5.625 9.265625 -4.84375 C 8.304688 -4.0625 7.0625 -3.671875 5.53125 -3.671875 L 4.25 -3.671875 Z M 5.796875 -9.390625 L 4.25 -9.390625 L 4.25 -6.421875 L 5.796875 -6.421875 C 6.253906 -6.421875 6.628906 -6.554688 6.921875 -6.828125 C 7.210938 -7.109375 7.359375 -7.472656 7.359375 -7.921875 C 7.359375 -8.367188 7.210938 -8.722656 6.921875 -8.984375 C 6.628906 -9.253906 6.253906 -9.390625 5.796875 -9.390625 Z M 5.796875 -9.390625 "/></g></g></g><g fill="#2563eb" fill-opacity="1"><g transform="translate(152.350644, 150.590214)"><g><path d="M 4.25 0 L 1.140625 0 L 1.140625 -12.125 L 4.25 -12.125 Z M 4.25 0 "/></g></g></g><g fill="#2563eb" fill-opacity="1"><g transform="translate(157.744919, 150.590214)"><g><path d="M 12.046875 0 L 8.703125 0 L 4.25 -6.90625 L 4.25 0 L 1.140625 0 L 1.140625 -12.125 L 4.484375 -12.125 L 8.9375 -5.109375 L 8.9375 -12.125 L 12.046875 -12.125 Z M 12.046875 0 "/></g></g></g><g fill="#2563eb" fill-opacity="1"><g transform="translate(170.937246, 150.590214)"><g><path d="M 6.734375 -7.109375 L 11.625 -7.109375 L 10.109375 -4.59375 L 6.734375 -4.59375 Z M 11.625 -7.109375 L 11.640625 -1.1875 C 10.441406 -0.207031 8.835938 0.28125 6.828125 0.28125 C 5.046875 0.28125 3.554688 -0.332031 2.359375 -1.5625 C 1.160156 -2.800781 0.5625 -4.304688 0.5625 -6.078125 C 0.5625 -7.828125 1.179688 -9.316406 2.421875 -10.546875 C 3.660156 -11.785156 5.132812 -12.40625 6.84375 -12.40625 C 8.863281 -12.40625 10.414062 -11.804688 11.5 -10.609375 L 9.421875 -8.234375 C 8.742188 -8.941406 7.898438 -9.296875 6.890625 -9.296875 C 6.054688 -9.296875 5.351562 -8.984375 4.78125 -8.359375 C 4.207031 -7.742188 3.921875 -6.984375 3.921875 -6.078125 C 3.921875 -5.179688 4.21875 -4.414062 4.8125 -3.78125 C 5.40625 -3.15625 6.144531 -2.84375 7.03125 -2.84375 C 7.5625 -2.84375 8.054688 -2.953125 8.515625 -3.171875 L 8.515625 -7.078125 Z M 11.625 -7.109375 "/></g></g></g><g clip-path="url(#124d433001)"><g clip-path="url(#5b6432eb42)"><path stroke-linecap="butt" transform="matrix(0.747283, 0, 0, 0.747283, 76.198456, 41.516758)" fill="none" stroke-linejoin="miter" d="M 3.999885 -0.00151631 L 44.636708 -0.00151631 C 45.697844 -0.00151631 46.717163 0.421893 47.464663 1.169393 C 48.21739 1.92212 48.635572 2.936211 48.635572 3.997348 L 48.635572 14.702803 C 48.635572 15.76394 48.21739 16.783258 47.464663 17.530758 C 46.717163 18.283486 45.697844 18.701667 44.636708 18.701667 L 3.999885 18.701667 C 2.938749 18.701667 1.919431 18.283486 1.171931 17.530758 C 0.419203 16.783258 0.00102134 15.76394 0.00102134 14.702803 L 0.00102134 3.997348 C 0.00102134 2.936211 0.419203 1.92212 1.171931 1.169393 C 1.919431 0.421893 2.938749 -0.00151631 3.999885 -0.00151631 Z M 3.999885 -0.00151631 " stroke="#00327b" stroke-width="6" stroke-opacity="1" stroke-miterlimit="4"/></g></g><g clip-path="url(#d261cd34c0)"><g clip-path="url(#f64bb14ae8)"><path stroke-linecap="butt" transform="matrix(0.747283, 0, 0, 0.747283, 76.198456, 57.803204)" fill="none" stroke-linejoin="miter" d="M 3.999885 0.00198467 L 44.636708 0.00198467 C 45.697844 0.00198467 46.717163 0.420167 47.464663 1.172894 C 48.21739 1.920394 48.635572 2.939712 48.635572 4.000849 L 48.635572 14.706304 C 48.635572 15.762214 48.21739 16.781532 47.464663 17.534259 C 46.717163 18.281759 45.697844 18.705168 44.636708 18.705168 L 3.999885 18.705168 C 2.938749 18.705168 1.919431 18.281759 1.171931 17.534259 C 0.419203 16.781532 0.00102134 15.762214 0.00102134 14.706304 L 0.00102134 4.000849 C 0.00102134 2.939712 0.419203 1.920394 1.171931 1.172894 C 1.919431 0.420167 2.938749 0.00198467 3.999885 0.00198467 Z M 3.999885 0.00198467 " stroke="#00327b" stroke-width="6" stroke-opacity="1" stroke-miterlimit="4"/></g></g><g clip-path="url(#85a54ba022)"><g clip-path="url(#63edb80db7)"><path stroke-linecap="butt" transform="matrix(0.747283, 0, 0, 0.747283, 76.198456, 74.089655)" fill="none" stroke-linejoin="miter" d="M 3.999885 0.000251976 L 44.636708 0.000251976 C 45.697844 0.000251976 46.717163 0.423661 47.464663 1.171161 C 48.21739 1.923889 48.635572 2.93798 48.635572 3.999116 L 48.635572 14.704572 C 48.635572 15.765708 48.21739 16.779799 47.464663 17.532527 C 46.717163 18.280027 45.697844 18.703436 44.636708 18.703436 L 3.999885 18.703436 C 2.938749 18.703436 1.919431 18.280027 1.171931 17.532527 C 0.419203 16.779799 0.00102134 15.765708 0.00102134 14.704572 L 0.00102134 3.999116 C 0.00102134 2.93798 0.419203 1.923889 1.171931 1.171161 C 1.919431 0.423661 2.938749 0.000251976 3.999885 0.000251976 Z M 3.999885 0.000251976 " stroke="#00327b" stroke-width="6" stroke-opacity="1" stroke-miterlimit="4"/></g></g><g clip-path="url(#cabcb8fe73)"><g clip-path="url(#068cf942a4)"><path stroke-linecap="butt" transform="matrix(0.747283, 0, 0, 0.747283, 76.198456, 90.376111)" fill="none" stroke-linejoin="miter" d="M 3.999885 -0.00148712 L 44.636708 -0.00148712 C 45.697844 -0.00148712 46.717163 0.421922 47.464663 1.169422 C 48.21739 1.922149 48.635572 2.93624 48.635572 3.997377 L 48.635572 14.702833 C 48.635572 15.763969 48.21739 16.783287 47.464663 17.530787 C 46.717163 18.283515 45.697844 18.701697 44.636708 18.701697 L 3.999885 18.701697 C 2.938749 18.701697 1.919431 18.283515 1.171931 17.530787 C 0.419203 16.783287 0.00102134 15.763969 0.00102134 14.702833 L 0.00102134 3.997377 C 0.00102134 2.93624 0.419203 1.922149 1.171931 1.169422 C 1.919431 0.421922 2.938749 -0.00148712 3.999885 -0.00148712 Z M 3.999885 -0.00148712 " stroke="#00327b" stroke-width="6" stroke-opacity="1" stroke-miterlimit="4"/></g></g><g clip-path="url(#c5a0f9c791)"><g clip-path="url(#4594b5586f)"><path stroke-linecap="butt" transform="matrix(0.747283, 0, 0, 0.747283, 116.747964, 41.518104)" fill="none" stroke-linejoin="miter" d="M 3.996361 0.00190936 L 12.799088 0.00190936 C 13.860225 0.00190936 14.874316 0.420091 15.627043 1.172818 C 16.374543 1.920319 16.797952 2.939637 16.797952 4.000773 L 16.797952 14.701001 C 16.797952 15.762137 16.374543 16.776228 15.627043 17.528956 C 14.874316 18.276456 13.860225 18.699865 12.799088 18.699865 L 3.996361 18.699865 C 2.940452 18.699865 1.921133 18.276456 1.173633 17.528956 C 0.420906 16.776228 -0.00250309 15.762137 -0.00250309 14.701001 L -0.00250309 4.000773 C -0.00250309 2.939637 0.420906 1.920319 1.173633 1.172818 C 1.921133 0.420091 2.940452 0.00190936 3.996361 0.00190936 Z M 3.996361 0.00190936 " stroke="#1272fa" stroke-width="6" stroke-opacity="1" stroke-miterlimit="4"/></g></g><g clip-path="url(#275dde42f8)"><g clip-path="url(#6860933c83)"><path stroke-linecap="butt" transform="matrix(0.747283, 0, 0, 0.747283, 116.747964, 57.804553)" fill="none" stroke-linejoin="miter" d="M 3.996361 0.000179868 L 12.799088 0.000179868 C 13.860225 0.000179868 14.874316 0.423589 15.627043 1.171089 C 16.374543 1.918589 16.797952 2.937907 16.797952 3.999044 L 16.797952 14.699271 C 16.797952 15.760408 16.374543 16.779726 15.627043 17.527226 C 14.874316 18.279953 13.860225 18.698135 12.799088 18.698135 L 3.996361 18.698135 C 2.940452 18.698135 1.921133 18.279953 1.173633 17.527226 C 0.420906 16.779726 -0.00250309 15.760408 -0.00250309 14.699271 L -0.00250309 3.999044 C -0.00250309 2.937907 0.420906 1.918589 1.173633 1.171089 C 1.921133 0.423589 2.940452 0.000179868 3.996361 0.000179868 Z M 3.996361 0.000179868 " stroke="#1272fa" stroke-width="6" stroke-opacity="1" stroke-miterlimit="4"/></g></g><g clip-path="url(#d796a1fa1b)"><g clip-path="url(#b66566ad05)"><path stroke-linecap="butt" transform="matrix(0.747283, 0, 0, 0.747283, 116.747964, 74.091007)" fill="none" stroke-linejoin="miter" d="M 3.996361 -0.00155602 L 12.799088 -0.00155602 C 13.860225 -0.00155602 14.874316 0.421853 15.627043 1.169353 C 16.374543 1.92208 16.797952 2.936171 16.797952 3.997308 L 16.797952 14.702763 C 16.797952 15.763899 16.374543 16.77799 15.627043 17.530717 C 14.874316 18.278217 13.860225 18.701627 12.799088 18.701627 L 3.996361 18.701627 C 2.940452 18.701627 1.921133 18.278217 1.173633 17.530717 C 0.420906 16.77799 -0.00250309 15.763899 -0.00250309 14.702763 L -0.00250309 3.997308 C -0.00250309 2.936171 0.420906 1.92208 1.173633 1.169353 C 1.921133 0.421853 2.940452 -0.00155602 3.996361 -0.00155602 Z M 3.996361 -0.00155602 " stroke="#1272fa" stroke-width="6" stroke-opacity="1" stroke-miterlimit="4"/></g></g><g clip-path="url(#7104adfda7)"><g clip-path="url(#c62e0f26b0)"><path stroke-linecap="butt" transform="matrix(0.747283, 0, 0, 0.747283, 116.747964, 90.37746)" fill="none" stroke-linejoin="miter" d="M 3.996361 0.00193536 L 12.799088 0.00193536 C 13.860225 0.00193536 14.874316 0.420117 15.627043 1.172844 C 16.374543 1.920345 16.797952 2.939663 16.797952 4.000799 L 16.797952 14.701027 C 16.797952 15.762163 16.374543 16.776254 15.627043 17.528982 C 14.874316 18.276482 13.860225 18.699891 12.799088 18.699891 L 3.996361 18.699891 C 2.940452 18.699891 1.921133 18.276482 1.173633 17.528982 C 0.420906 16.776254 -0.00250309 15.762163 -0.00250309 14.701027 L -0.00250309 4.000799 C -0.00250309 2.939663 0.420906 1.920345 1.173633 1.172844 C 1.921133 0.420117 2.940452 0.00193536 3.996361 0.00193536 Z M 3.996361 0.00193536 " stroke="#1272fa" stroke-width="6" stroke-opacity="1" stroke-miterlimit="4"/></g></g></svg>