<svg xmlns="http://www.w3.org/2000/svg" xmlns:xlink="http://www.w3.org/1999/xlink" width="275" zoomAndPan="magnify" viewBox="0 0 206.25 187.499992" height="250" preserveAspectRatio="xMidYMid meet" version="1.0"><defs><g/><clipPath id="b47e97cbce"><path d="M 0 0.0898438 L 205.503906 0.0898438 L 205.503906 186.910156 L 0 186.910156 Z M 0 0.0898438 " clip-rule="nonzero"/></clipPath><clipPath id="0696a45b75"><path d="M 8.96875 0.0898438 L 196.535156 0.0898438 C 198.914062 0.0898438 201.195312 1.035156 202.875 2.71875 C 204.558594 4.398438 205.503906 6.679688 205.503906 9.058594 L 205.503906 177.945312 C 205.503906 180.320312 204.558594 182.601562 202.875 184.285156 C 201.195312 185.964844 198.914062 186.910156 196.535156 186.910156 L 8.96875 186.910156 C 6.589844 186.910156 4.308594 185.964844 2.625 184.285156 C 0.945312 182.601562 0 180.320312 0 177.945312 L 0 9.058594 C 0 6.679688 0.945312 4.398438 2.625 2.71875 C 4.308594 1.035156 6.589844 0.0898438 8.96875 0.0898438 Z M 8.96875 0.0898438 " clip-rule="nonzero"/></clipPath><clipPath id="78d47852b2"><path d="M 0 0.0898438 L 205.503906 0.0898438 L 205.503906 186.910156 L 0 186.910156 Z M 0 0.0898438 " clip-rule="nonzero"/></clipPath><clipPath id="71e7e49567"><path d="M 8.96875 0.0898438 L 196.535156 0.0898438 C 198.914062 0.0898438 201.195312 1.035156 202.875 2.71875 C 204.558594 4.398438 205.503906 6.679688 205.503906 9.058594 L 205.503906 177.945312 C 205.503906 180.320312 204.558594 182.601562 202.875 184.285156 C 201.195312 185.964844 198.914062 186.910156 196.535156 186.910156 L 8.96875 186.910156 C 6.589844 186.910156 4.308594 185.964844 2.625 184.285156 C 0.945312 182.601562 0 180.320312 0 177.945312 L 0 9.058594 C 0 6.679688 0.945312 4.398438 2.625 2.71875 C 4.308594 1.035156 6.589844 0.0898438 8.96875 0.0898438 Z M 8.96875 0.0898438 " clip-rule="nonzero"/></clipPath><clipPath id="9d2b915310"><rect x="0" width="206" y="0" height="187"/></clipPath><clipPath id="749e8ab788"><path d="M 106 50 L 128 50 L 128 73 L 106 73 Z M 106 50 " clip-rule="nonzero"/></clipPath><clipPath id="bd0345673b"><path d="M 110.566406 47.988281 L 130.34375 54.816406 L 123.511719 74.597656 L 103.734375 67.765625 Z M 110.566406 47.988281 " clip-rule="nonzero"/></clipPath><clipPath id="7772114589"><path d="M 110.566406 47.988281 L 130.574219 54.898438 L 123.664062 74.90625 L 103.65625 67.996094 Z M 110.566406 47.988281 " clip-rule="nonzero"/></clipPath><clipPath id="2d07438870"><path d="M 120.570312 51.441406 C 115.042969 49.535156 109.019531 52.46875 107.109375 57.992188 C 105.203125 63.519531 108.132812 69.542969 113.660156 71.453125 C 119.183594 73.359375 125.210938 70.429688 127.117188 64.902344 C 129.027344 59.378906 126.09375 53.351562 120.570312 51.441406 Z M 120.570312 51.441406 " clip-rule="nonzero"/></clipPath></defs><g clip-path="url(#b47e97cbce)"><g clip-path="url(#0696a45b75)"><g transform="matrix(1, 0, 0, 1, 0, -0.000000000000024966)"><g clip-path="url(#9d2b915310)"><g clip-path="url(#78d47852b2)"><g clip-path="url(#71e7e49567)"><path fill="#fbfeff" d="M 0 0.0898438 L 205.792969 0.0898438 L 205.792969 186.910156 L 0 186.910156 Z M 0 0.0898438 " fill-opacity="1" fill-rule="nonzero"/></g></g></g></g><path stroke-linecap="butt" transform="matrix(0.747283, 0, 0, 0.747283, 0, 0.09058)" fill="none" stroke-linejoin="miter" d="M 12.001819 -0.000985185 L 262.999784 -0.000985185 C 266.183193 -0.000985185 269.23592 1.264015 271.483648 3.51697 C 273.736602 5.764697 275.001602 8.817424 275.001602 12.000833 L 275.001602 238.001979 C 275.001602 241.180161 273.736602 244.232889 271.483648 246.485843 C 269.23592 248.733571 266.183193 249.998571 262.999784 249.998571 L 12.001819 249.998571 C 8.818409 249.998571 5.765682 248.733571 3.512727 246.485843 C 1.265 244.232889 0 241.180161 0 238.001979 L 0 12.000833 C 0 8.817424 1.265 5.764697 3.512727 3.51697 C 5.765682 1.264015 8.818409 -0.000985185 12.001819 -0.000985185 Z M 12.001819 -0.000985185 " stroke="#2563eb" stroke-width="4" stroke-opacity="1" stroke-miterlimit="4"/></g></g><g fill="#2563eb" fill-opacity="1"><g transform="translate(45.390404, 129.666302)"><g><path d="M 6.34375 0 L 1.140625 0 L 1.140625 -12.125 L 6.09375 -12.125 C 7.332031 -12.125 8.351562 -11.800781 9.15625 -11.15625 C 9.96875 -10.519531 10.375 -9.679688 10.375 -8.640625 C 10.375 -7.523438 9.78125 -6.703125 8.59375 -6.171875 C 9.21875 -5.984375 9.710938 -5.65625 10.078125 -5.1875 C 10.453125 -4.71875 10.640625 -4.144531 10.640625 -3.46875 C 10.640625 -2.476562 10.269531 -1.65625 9.53125 -1 C 8.789062 -0.332031 7.726562 0 6.34375 0 Z M 5.8125 -9.390625 L 4.25 -9.390625 L 4.25 -7.359375 L 5.8125 -7.359375 C 6.21875 -7.359375 6.535156 -7.445312 6.765625 -7.625 C 6.992188 -7.8125 7.109375 -8.0625 7.109375 -8.375 C 7.109375 -8.6875 6.988281 -8.929688 6.75 -9.109375 C 6.507812 -9.296875 6.195312 -9.390625 5.8125 -9.390625 Z M 6.0625 -4.828125 L 4.25 -4.828125 L 4.25 -2.75 L 6.0625 -2.75 C 6.445312 -2.75 6.757812 -2.84375 7 -3.03125 C 7.238281 -3.21875 7.359375 -3.472656 7.359375 -3.796875 C 7.359375 -4.117188 7.238281 -4.367188 7 -4.546875 C 6.769531 -4.734375 6.457031 -4.828125 6.0625 -4.828125 Z M 6.0625 -4.828125 "/></g></g></g><g fill="#2563eb" fill-opacity="1"><g transform="translate(56.406083, 129.666302)"><g><path d="M 9.203125 0 L 1.140625 0 L 1.140625 -12.125 L 9.203125 -12.125 L 9.203125 -9.203125 L 4.25 -9.203125 L 4.25 -7.609375 L 8.4375 -7.609375 L 8.4375 -4.671875 L 4.25 -4.671875 L 4.25 -2.9375 L 9.203125 -2.9375 Z M 9.203125 0 "/></g></g></g><g fill="#2563eb" fill-opacity="1"><g transform="translate(66.17257, 129.666302)"><g><path d="M 12.046875 0 L 8.9375 0 L 8.9375 -4.78125 L 4.25 -4.78125 L 4.25 0 L 1.140625 0 L 1.140625 -12.125 L 4.25 -12.125 L 4.25 -7.71875 L 8.9375 -7.71875 L 8.9375 -12.125 L 12.046875 -12.125 Z M 12.046875 0 "/></g></g></g><g fill="#2563eb" fill-opacity="1"><g transform="translate(79.364897, 129.666302)"><g><path d="M 13.328125 0 L 9.875 0 L 9.046875 -2.296875 L 4.296875 -2.296875 L 3.46875 0 L 0.1875 0 L 4.921875 -12.125 L 8.59375 -12.125 Z M 5.296875 -5.046875 L 8.046875 -5.046875 L 6.671875 -8.8125 Z M 5.296875 -5.046875 "/></g></g></g><g fill="#2563eb" fill-opacity="1"><g transform="translate(92.878983, 129.666302)"><g><path d="M 0.28125 -12.125 L 3.734375 -12.125 L 6.5625 -3.390625 L 9.390625 -12.125 L 12.65625 -12.125 L 8.3125 0 L 4.640625 0 Z M 0.28125 -12.125 "/></g></g></g><g fill="#2563eb" fill-opacity="1"><g transform="translate(105.825252, 129.666302)"><g><path d="M 4.25 0 L 1.140625 0 L 1.140625 -12.125 L 4.25 -12.125 Z M 4.25 0 "/></g></g></g><g fill="#2563eb" fill-opacity="1"><g transform="translate(111.219527, 129.666302)"><g><path d="M 2.4375 -10.5625 C 3.675781 -11.789062 5.171875 -12.40625 6.921875 -12.40625 C 8.660156 -12.40625 10.160156 -11.789062 11.421875 -10.5625 C 12.660156 -9.300781 13.28125 -7.800781 13.28125 -6.0625 C 13.28125 -4.300781 12.660156 -2.804688 11.421875 -1.578125 C 10.160156 -0.335938 8.660156 0.28125 6.921875 0.28125 C 5.160156 0.28125 3.664062 -0.34375 2.4375 -1.59375 C 1.1875 -2.820312 0.5625 -4.3125 0.5625 -6.0625 C 0.5625 -7.820312 1.1875 -9.320312 2.4375 -10.5625 Z M 3.921875 -6.078125 C 3.921875 -5.179688 4.21875 -4.414062 4.8125 -3.78125 C 5.40625 -3.15625 6.109375 -2.84375 6.921875 -2.84375 C 7.753906 -2.84375 8.46875 -3.15625 9.0625 -3.78125 C 9.644531 -4.40625 9.9375 -5.164062 9.9375 -6.0625 C 9.9375 -6.96875 9.644531 -7.726562 9.0625 -8.34375 C 8.46875 -8.976562 7.753906 -9.296875 6.921875 -9.296875 C 6.085938 -9.296875 5.382812 -8.984375 4.8125 -8.359375 C 4.21875 -7.734375 3.921875 -6.972656 3.921875 -6.078125 Z M 3.921875 -6.078125 "/></g></g></g><g fill="#2563eb" fill-opacity="1"><g transform="translate(125.074301, 129.666302)"><g><path d="M 4.25 0 L 1.140625 0 L 1.140625 -12.125 L 5.546875 -12.125 C 7.097656 -12.125 8.335938 -11.757812 9.265625 -11.03125 C 10.203125 -10.289062 10.671875 -9.320312 10.671875 -8.125 C 10.671875 -7.332031 10.472656 -6.632812 10.078125 -6.03125 C 9.691406 -5.4375 9.140625 -4.972656 8.421875 -4.640625 L 10.96875 0 L 7.359375 0 L 5.28125 -4.046875 L 4.25 -4.046875 Z M 5.796875 -9.390625 L 4.25 -9.390625 L 4.25 -6.796875 L 5.796875 -6.796875 C 6.253906 -6.796875 6.628906 -6.914062 6.921875 -7.15625 C 7.210938 -7.394531 7.359375 -7.71875 7.359375 -8.125 C 7.359375 -8.5 7.210938 -8.800781 6.921875 -9.03125 C 6.628906 -9.269531 6.253906 -9.390625 5.796875 -9.390625 Z M 5.796875 -9.390625 "/></g></g></g><g fill="#2563eb" fill-opacity="1"><g transform="translate(136.619951, 129.666302)"><g><path d="M 13.328125 0 L 9.875 0 L 9.046875 -2.296875 L 4.296875 -2.296875 L 3.46875 0 L 0.1875 0 L 4.921875 -12.125 L 8.59375 -12.125 Z M 5.296875 -5.046875 L 8.046875 -5.046875 L 6.671875 -8.8125 Z M 5.296875 -5.046875 "/></g></g></g><g fill="#2563eb" fill-opacity="1"><g transform="translate(150.134037, 129.666302)"><g><path d="M 9.765625 0 L 1.140625 0 L 1.140625 -12.125 L 4.25 -12.125 L 4.25 -2.9375 L 9.765625 -2.9375 Z M 9.765625 0 "/></g></g></g><g fill="#2563eb" fill-opacity="1"><g transform="translate(5.889514, 150.590214)"><g><path d="M 13.328125 0 L 9.875 0 L 9.046875 -2.296875 L 4.296875 -2.296875 L 3.46875 0 L 0.1875 0 L 4.921875 -12.125 L 8.59375 -12.125 Z M 5.296875 -5.046875 L 8.046875 -5.046875 L 6.671875 -8.8125 Z M 5.296875 -5.046875 "/></g></g></g><g fill="#2563eb" fill-opacity="1"><g transform="translate(19.4036, 150.590214)"><g><path d="M 12.046875 0 L 8.703125 0 L 4.25 -6.90625 L 4.25 0 L 1.140625 0 L 1.140625 -12.125 L 4.484375 -12.125 L 8.9375 -5.109375 L 8.9375 -12.125 L 12.046875 -12.125 Z M 12.046875 0 "/></g></g></g><g fill="#2563eb" fill-opacity="1"><g transform="translate(32.595926, 150.590214)"><g><path d="M 2.4375 -10.5625 C 3.675781 -11.789062 5.171875 -12.40625 6.921875 -12.40625 C 8.660156 -12.40625 10.160156 -11.789062 11.421875 -10.5625 C 12.660156 -9.300781 13.28125 -7.800781 13.28125 -6.0625 C 13.28125 -4.300781 12.660156 -2.804688 11.421875 -1.578125 C 10.160156 -0.335938 8.660156 0.28125 6.921875 0.28125 C 5.160156 0.28125 3.664062 -0.34375 2.4375 -1.59375 C 1.1875 -2.820312 0.5625 -4.3125 0.5625 -6.0625 C 0.5625 -7.820312 1.1875 -9.320312 2.4375 -10.5625 Z M 3.921875 -6.078125 C 3.921875 -5.179688 4.21875 -4.414062 4.8125 -3.78125 C 5.40625 -3.15625 6.109375 -2.84375 6.921875 -2.84375 C 7.753906 -2.84375 8.46875 -3.15625 9.0625 -3.78125 C 9.644531 -4.40625 9.9375 -5.164062 9.9375 -6.0625 C 9.9375 -6.96875 9.644531 -7.726562 9.0625 -8.34375 C 8.46875 -8.976562 7.753906 -9.296875 6.921875 -9.296875 C 6.085938 -9.296875 5.382812 -8.984375 4.8125 -8.359375 C 4.21875 -7.734375 3.921875 -6.972656 3.921875 -6.078125 Z M 3.921875 -6.078125 "/></g></g></g><g fill="#2563eb" fill-opacity="1"><g transform="translate(46.4507, 150.590214)"><g><path d="M 11.328125 -7.328125 L 7.796875 -2.1875 L 4.25 -7.296875 L 4.25 0 L 1.140625 0 L 1.140625 -12.125 L 4.734375 -12.125 L 8 -7.171875 L 11.28125 -12.125 L 14.453125 -12.125 L 14.453125 0 L 11.328125 0 Z M 11.328125 -7.328125 "/></g></g></g><g fill="#2563eb" fill-opacity="1"><g transform="translate(62.046792, 150.590214)"><g><path d="M 13.328125 0 L 9.875 0 L 9.046875 -2.296875 L 4.296875 -2.296875 L 3.46875 0 L 0.1875 0 L 4.921875 -12.125 L 8.59375 -12.125 Z M 5.296875 -5.046875 L 8.046875 -5.046875 L 6.671875 -8.8125 Z M 5.296875 -5.046875 "/></g></g></g><g fill="#2563eb" fill-opacity="1"><g transform="translate(75.560878, 150.590214)"><g><path d="M 9.765625 0 L 1.140625 0 L 1.140625 -12.125 L 4.25 -12.125 L 4.25 -2.9375 L 9.765625 -2.9375 Z M 9.765625 0 "/></g></g></g><g fill="#2563eb" fill-opacity="1"><g transform="translate(85.516637, 150.590214)"><g><path d="M 7.71875 0 L 4.59375 0 L 4.59375 -3.96875 L 0.1875 -12.125 L 3.65625 -12.125 L 6.21875 -7.25 L 8.84375 -12.125 L 12.125 -12.125 L 7.71875 -3.96875 Z M 7.71875 0 "/></g></g></g><g fill="#2563eb" fill-opacity="1"><g transform="translate(97.838305, 150.590214)"><g/></g></g><g fill="#2563eb" fill-opacity="1"><g transform="translate(102.570133, 150.590214)"><g><path d="M 5.546875 0 L 1.140625 0 L 1.140625 -12.125 L 5.546875 -12.125 C 7.523438 -12.125 9.160156 -11.550781 10.453125 -10.40625 C 11.753906 -9.257812 12.40625 -7.800781 12.40625 -6.03125 C 12.40625 -4.289062 11.757812 -2.851562 10.46875 -1.71875 C 9.164062 -0.570312 7.523438 0 5.546875 0 Z M 5.484375 -9.203125 L 4.359375 -9.203125 L 4.359375 -2.9375 L 5.5 -2.9375 C 6.570312 -2.9375 7.429688 -3.222656 8.078125 -3.796875 C 8.734375 -4.367188 9.0625 -5.128906 9.0625 -6.078125 C 9.0625 -7.003906 8.734375 -7.753906 8.078125 -8.328125 C 7.421875 -8.910156 6.554688 -9.203125 5.484375 -9.203125 Z M 5.484375 -9.203125 "/></g></g></g><g fill="#2563eb" fill-opacity="1"><g transform="translate(115.554259, 150.590214)"><g><path d="M 9.203125 0 L 1.140625 0 L 1.140625 -12.125 L 9.203125 -12.125 L 9.203125 -9.203125 L 4.25 -9.203125 L 4.25 -7.609375 L 8.4375 -7.609375 L 8.4375 -4.671875 L 4.25 -4.671875 L 4.25 -2.9375 L 9.203125 -2.9375 Z M 9.203125 0 "/></g></g></g><g fill="#2563eb" fill-opacity="1"><g transform="translate(125.320746, 150.590214)"><g><path d="M 9.953125 -12.125 L 9.953125 -9.203125 L 6.625 -9.203125 L 6.625 0 L 3.5 0 L 3.5 -9.203125 L 0.1875 -9.203125 L 0.1875 -12.125 Z M 9.953125 -12.125 "/></g></g></g><g fill="#2563eb" fill-opacity="1"><g transform="translate(135.465777, 150.590214)"><g><path d="M 9.203125 0 L 1.140625 0 L 1.140625 -12.125 L 9.203125 -12.125 L 9.203125 -9.203125 L 4.25 -9.203125 L 4.25 -7.609375 L 8.4375 -7.609375 L 8.4375 -4.671875 L 4.25 -4.671875 L 4.25 -2.9375 L 9.203125 -2.9375 Z M 9.203125 0 "/></g></g></g><g fill="#2563eb" fill-opacity="1"><g transform="translate(145.232264, 150.590214)"><g><path d="M 11.5 -10.609375 L 9.421875 -8.234375 C 8.742188 -8.941406 7.898438 -9.296875 6.890625 -9.296875 C 6.054688 -9.296875 5.351562 -8.984375 4.78125 -8.359375 C 4.207031 -7.742188 3.921875 -6.984375 3.921875 -6.078125 C 3.921875 -5.179688 4.21875 -4.414062 4.8125 -3.78125 C 5.40625 -3.15625 6.144531 -2.84375 7.03125 -2.84375 C 7.488281 -2.84375 7.9375 -2.9375 8.375 -3.125 C 8.8125 -3.3125 9.160156 -3.566406 9.421875 -3.890625 L 11.5 -1.59375 C 10.46875 -0.34375 8.910156 0.28125 6.828125 0.28125 C 5.046875 0.28125 3.554688 -0.332031 2.359375 -1.5625 C 1.160156 -2.800781 0.5625 -4.304688 0.5625 -6.078125 C 0.5625 -7.828125 1.179688 -9.316406 2.421875 -10.546875 C 3.660156 -11.785156 5.132812 -12.40625 6.84375 -12.40625 C 8.863281 -12.40625 10.414062 -11.804688 11.5 -10.609375 Z M 11.5 -10.609375 "/></g></g></g><g fill="#2563eb" fill-opacity="1"><g transform="translate(157.023972, 150.590214)"><g><path d="M 9.953125 -12.125 L 9.953125 -9.203125 L 6.625 -9.203125 L 6.625 0 L 3.5 0 L 3.5 -9.203125 L 0.1875 -9.203125 L 0.1875 -12.125 Z M 9.953125 -12.125 "/></g></g></g><g fill="#2563eb" fill-opacity="1"><g transform="translate(167.169003, 150.590214)"><g><path d="M 4.25 0 L 1.140625 0 L 1.140625 -12.125 L 4.25 -12.125 Z M 4.25 0 "/></g></g></g><g fill="#2563eb" fill-opacity="1"><g transform="translate(172.563278, 150.590214)"><g><path d="M 2.4375 -10.5625 C 3.675781 -11.789062 5.171875 -12.40625 6.921875 -12.40625 C 8.660156 -12.40625 10.160156 -11.789062 11.421875 -10.5625 C 12.660156 -9.300781 13.28125 -7.800781 13.28125 -6.0625 C 13.28125 -4.300781 12.660156 -2.804688 11.421875 -1.578125 C 10.160156 -0.335938 8.660156 0.28125 6.921875 0.28125 C 5.160156 0.28125 3.664062 -0.34375 2.4375 -1.59375 C 1.1875 -2.820312 0.5625 -4.3125 0.5625 -6.0625 C 0.5625 -7.820312 1.1875 -9.320312 2.4375 -10.5625 Z M 3.921875 -6.078125 C 3.921875 -5.179688 4.21875 -4.414062 4.8125 -3.78125 C 5.40625 -3.15625 6.109375 -2.84375 6.921875 -2.84375 C 7.753906 -2.84375 8.46875 -3.15625 9.0625 -3.78125 C 9.644531 -4.40625 9.9375 -5.164062 9.9375 -6.0625 C 9.9375 -6.96875 9.644531 -7.726562 9.0625 -8.34375 C 8.46875 -8.976562 7.753906 -9.296875 6.921875 -9.296875 C 6.085938 -9.296875 5.382812 -8.984375 4.8125 -8.359375 C 4.21875 -7.734375 3.921875 -6.972656 3.921875 -6.078125 Z M 3.921875 -6.078125 "/></g></g></g><g fill="#2563eb" fill-opacity="1"><g transform="translate(186.418052, 150.590214)"><g><path d="M 12.046875 0 L 8.703125 0 L 4.25 -6.90625 L 4.25 0 L 1.140625 0 L 1.140625 -12.125 L 4.484375 -12.125 L 8.9375 -5.109375 L 8.9375 -12.125 L 12.046875 -12.125 Z M 12.046875 0 "/></g></g></g><path stroke-linecap="butt" transform="matrix(0.747283, 0, 0, 0.747283, 68.877831, 58.139766)" fill="none" stroke-linejoin="miter" d="M 0.00143824 54.160924 L 51.547577 54.160924 C 57.621668 54.160924 62.545759 49.231606 62.545759 43.157515 L 62.545759 11.427968 C 62.545759 8.79865 63.596441 6.26865 65.45735 4.40774 C 67.318259 2.546831 69.843032 1.501377 72.477578 1.501377 L 82.409396 1.501377 " stroke="#00327b" stroke-width="3" stroke-opacity="1" stroke-miterlimit="4"/><path stroke-linecap="round" transform="matrix(0.747283, 0, 0, 0.747283, 68.877831, 58.139766)" fill-opacity="1" fill="#00327b" fill-rule="nonzero" stroke-linejoin="round" d="M 83.156896 -2.999305 L 89.157806 1.501377 L 83.156896 6.002059 Z M 83.156896 -2.999305 " stroke="#00327b" stroke-width="3" stroke-opacity="1" stroke-miterlimit="4"/><g clip-path="url(#749e8ab788)"><g clip-path="url(#bd0345673b)"><g clip-path="url(#7772114589)"><g clip-path="url(#2d07438870)"><path stroke-linecap="butt" transform="matrix(0.706346, 0.243939, -0.243939, 0.706346, 110.56474, 47.987933)" fill="none" stroke-linejoin="miter" d="M 14.164384 -0.0025124 C 6.340275 0.000823452 0.00285427 6.342669 -0.000457162 14.163544 C 0.00287869 21.987653 6.339783 28.32678 14.165599 28.328385 C 21.984767 28.326756 28.328835 21.988145 28.3255 14.164036 C 28.328811 6.343161 21.985259 0.000799035 14.164384 -0.0025124 Z M 14.164384 -0.0025124 " stroke="#1272fa" stroke-width="6" stroke-opacity="1" stroke-miterlimit="4"/></g></g></g></g><path stroke-linecap="round" transform="matrix(0.66684, -0.337277, 0.337277, 0.66684, 91.738934, 73.909236)" fill="none" stroke-linejoin="miter" d="M 1.501923 1.499117 L 24.869906 1.497115 " stroke="#1272fa" stroke-width="3" stroke-opacity="1" stroke-miterlimit="4"/></svg>