<svg xmlns="http://www.w3.org/2000/svg" xmlns:xlink="http://www.w3.org/1999/xlink" width="61" zoomAndPan="magnify" viewBox="0 0 45.75 30.000001" height="40" preserveAspectRatio="xMidYMid meet" version="1.2"><defs><clipPath id="1768db60aa"><path d="M 12.605469 11.570312 L 15.277344 11.570312 L 15.277344 27.46875 L 12.605469 27.46875 Z M 12.605469 11.570312 "/></clipPath><clipPath id="a246327d5e"><path d="M 15.277344 8.078125 L 17.949219 8.078125 L 17.949219 27.46875 L 15.277344 27.46875 Z M 15.277344 8.078125 "/></clipPath><clipPath id="d22d384957"><path d="M 17.949219 18.539062 L 20.621094 18.539062 L 20.621094 27.46875 L 17.949219 27.46875 Z M 17.949219 18.539062 "/></clipPath><clipPath id="5e1cfe5b15"><path d="M 24.730469 4.875 L 27.402344 4.875 L 27.402344 27.46875 L 24.730469 27.46875 Z M 24.730469 4.875 "/></clipPath><clipPath id="88bc805449"><path d="M 27.402344 15.269531 L 30.074219 15.269531 L 30.074219 27.46875 L 27.402344 27.46875 Z M 27.402344 15.269531 "/></clipPath><clipPath id="178d74b86d"><path d="M 30.074219 13.019531 L 32.746094 13.019531 L 32.746094 27.46875 L 30.074219 27.46875 Z M 30.074219 13.019531 "/></clipPath></defs><g id="a1cecee6ff"><path style="fill:none;stroke-width:4;stroke-linecap:butt;stroke-linejoin:miter;stroke:#000000;stroke-opacity:1;stroke-miterlimit:4;" d="M 0.00781004 1.993237 L 137.18619 1.993237 " transform="matrix(-0.195429,0,0,-0.195429,36.177308,28.252817)"/><path style="fill:none;stroke-width:4;stroke-linecap:butt;stroke-linejoin:miter;stroke:#585958;stroke-opacity:1;stroke-miterlimit:4;" d="M 0.00906567 1.991443 L 137.187446 1.991443 " transform="matrix(0.000000000341087,-0.195429,0.195429,0.000000000341087,9.349096,27.626772)"/><g clip-rule="nonzero" clip-path="url(#1768db60aa)"><path style=" stroke:none;fill-rule:nonzero;fill:#8b73ff;fill-opacity:1;" d="M 12.605469 11.570312 L 15.277344 11.570312 L 15.277344 27.476562 L 12.605469 27.476562 Z M 12.605469 11.570312 "/></g><g clip-rule="nonzero" clip-path="url(#a246327d5e)"><path style=" stroke:none;fill-rule:nonzero;fill:#96e17b;fill-opacity:1;" d="M 15.277344 8.078125 L 17.949219 8.078125 L 17.949219 27.46875 L 15.277344 27.46875 Z M 15.277344 8.078125 "/></g><g clip-rule="nonzero" clip-path="url(#d22d384957)"><path style=" stroke:none;fill-rule:nonzero;fill:#ff9861;fill-opacity:1;" d="M 17.949219 18.539062 L 20.621094 18.539062 L 20.621094 27.472656 L 17.949219 27.472656 Z M 17.949219 18.539062 "/></g><g clip-rule="nonzero" clip-path="url(#5e1cfe5b15)"><path style=" stroke:none;fill-rule:nonzero;fill:#8b73ff;fill-opacity:1;" d="M 24.730469 4.875 L 27.402344 4.875 L 27.402344 27.472656 L 24.730469 27.472656 Z M 24.730469 4.875 "/></g><g clip-rule="nonzero" clip-path="url(#88bc805449)"><path style=" stroke:none;fill-rule:nonzero;fill:#96e17b;fill-opacity:1;" d="M 27.402344 15.269531 L 30.074219 15.269531 L 30.074219 27.46875 L 27.402344 27.46875 Z M 27.402344 15.269531 "/></g><g clip-rule="nonzero" clip-path="url(#178d74b86d)"><path style=" stroke:none;fill-rule:nonzero;fill:#ff9861;fill-opacity:1;" d="M 30.074219 13.019531 L 32.746094 13.019531 L 32.746094 27.472656 L 30.074219 27.472656 Z M 30.074219 13.019531 "/></g></g></svg>