<svg xmlns="http://www.w3.org/2000/svg" xmlns:xlink="http://www.w3.org/1999/xlink" width="275" zoomAndPan="magnify" viewBox="0 0 206.25 187.499992" height="250" preserveAspectRatio="xMidYMid meet" version="1.0"><defs><g/><clipPath id="0f48b59b8a"><path d="M 0 0.0898438 L 205.503906 0.0898438 L 205.503906 186.910156 L 0 186.910156 Z M 0 0.0898438 " clip-rule="nonzero"/></clipPath><clipPath id="1b37c6c05c"><path d="M 8.96875 0.0898438 L 196.535156 0.0898438 C 198.914062 0.0898438 201.195312 1.035156 202.875 2.71875 C 204.558594 4.398438 205.503906 6.679688 205.503906 9.058594 L 205.503906 177.945312 C 205.503906 180.320312 204.558594 182.601562 202.875 184.285156 C 201.195312 185.964844 198.914062 186.910156 196.535156 186.910156 L 8.96875 186.910156 C 6.589844 186.910156 4.308594 185.964844 2.625 184.285156 C 0.945312 182.601562 0 180.320312 0 177.945312 L 0 9.058594 C 0 6.679688 0.945312 4.398438 2.625 2.71875 C 4.308594 1.035156 6.589844 0.0898438 8.96875 0.0898438 Z M 8.96875 0.0898438 " clip-rule="nonzero"/></clipPath><clipPath id="32e8cd1ff7"><path d="M 63.886719 28.457031 L 89.25 28.457031 L 89.25 53.820312 L 63.886719 53.820312 Z M 63.886719 28.457031 " clip-rule="nonzero"/></clipPath><clipPath id="b386401b17"><path d="M 76.566406 28.457031 C 69.566406 28.457031 63.886719 34.136719 63.886719 41.136719 C 63.886719 48.140625 69.566406 53.820312 76.566406 53.820312 C 83.570312 53.820312 89.25 48.140625 89.25 41.136719 C 89.25 34.136719 83.570312 28.457031 76.566406 28.457031 Z M 76.566406 28.457031 " clip-rule="nonzero"/></clipPath><clipPath id="d820bea586"><path d="M 63.886719 54.574219 L 89.25 54.574219 L 89.25 79.933594 L 63.886719 79.933594 Z M 63.886719 54.574219 " clip-rule="nonzero"/></clipPath><clipPath id="7332158b30"><path d="M 76.566406 54.574219 C 69.566406 54.574219 63.886719 60.25 63.886719 67.253906 C 63.886719 74.257812 69.566406 79.933594 76.566406 79.933594 C 83.570312 79.933594 89.25 74.257812 89.25 67.253906 C 89.25 60.25 83.570312 54.574219 76.566406 54.574219 Z M 76.566406 54.574219 " clip-rule="nonzero"/></clipPath><clipPath id="e16a02bb3b"><path d="M 63.886719 80.691406 L 89.25 80.691406 L 89.25 106.050781 L 63.886719 106.050781 Z M 63.886719 80.691406 " clip-rule="nonzero"/></clipPath><clipPath id="b7f6f4ce07"><path d="M 76.566406 80.691406 C 69.566406 80.691406 63.886719 86.367188 63.886719 93.371094 C 63.886719 100.375 69.566406 106.050781 76.566406 106.050781 C 83.570312 106.050781 89.25 100.375 89.25 93.371094 C 89.25 86.367188 83.570312 80.691406 76.566406 80.691406 Z M 76.566406 80.691406 " clip-rule="nonzero"/></clipPath><clipPath id="4b1d7d1f26"><path d="M 90.066406 28.457031 L 115.425781 28.457031 L 115.425781 53.820312 L 90.066406 53.820312 Z M 90.066406 28.457031 " clip-rule="nonzero"/></clipPath><clipPath id="9fe0d02929"><path d="M 102.746094 28.457031 C 95.742188 28.457031 90.066406 34.136719 90.066406 41.136719 C 90.066406 48.140625 95.742188 53.820312 102.746094 53.820312 C 109.75 53.820312 115.425781 48.140625 115.425781 41.136719 C 115.425781 34.136719 109.75 28.457031 102.746094 28.457031 Z M 102.746094 28.457031 " clip-rule="nonzero"/></clipPath><clipPath id="56a3eae2e4"><path d="M 90.066406 54.574219 L 115.425781 54.574219 L 115.425781 79.933594 L 90.066406 79.933594 Z M 90.066406 54.574219 " clip-rule="nonzero"/></clipPath><clipPath id="1c04370177"><path d="M 102.746094 54.574219 C 95.742188 54.574219 90.066406 60.25 90.066406 67.253906 C 90.066406 74.257812 95.742188 79.933594 102.746094 79.933594 C 109.75 79.933594 115.425781 74.257812 115.425781 67.253906 C 115.425781 60.25 109.75 54.574219 102.746094 54.574219 Z M 102.746094 54.574219 " clip-rule="nonzero"/></clipPath><clipPath id="139220447d"><path d="M 90.066406 80.691406 L 115.425781 80.691406 L 115.425781 106.050781 L 90.066406 106.050781 Z M 90.066406 80.691406 " clip-rule="nonzero"/></clipPath><clipPath id="8baabad77d"><path d="M 102.746094 80.691406 C 95.742188 80.691406 90.066406 86.367188 90.066406 93.371094 C 90.066406 100.375 95.742188 106.050781 102.746094 106.050781 C 109.75 106.050781 115.425781 100.375 115.425781 93.371094 C 115.425781 86.367188 109.75 80.691406 102.746094 80.691406 Z M 102.746094 80.691406 " clip-rule="nonzero"/></clipPath><clipPath id="f90b202139"><path d="M 116.246094 28.457031 L 141.605469 28.457031 L 141.605469 53.820312 L 116.246094 53.820312 Z M 116.246094 28.457031 " clip-rule="nonzero"/></clipPath><clipPath id="5f1f33d858"><path d="M 128.925781 28.457031 C 121.921875 28.457031 116.246094 34.136719 116.246094 41.136719 C 116.246094 48.140625 121.921875 53.820312 128.925781 53.820312 C 135.929688 53.820312 141.605469 48.140625 141.605469 41.136719 C 141.605469 34.136719 135.929688 28.457031 128.925781 28.457031 Z M 128.925781 28.457031 " clip-rule="nonzero"/></clipPath><clipPath id="4f6f8e3485"><path d="M 116.246094 54.574219 L 141.605469 54.574219 L 141.605469 79.933594 L 116.246094 79.933594 Z M 116.246094 54.574219 " clip-rule="nonzero"/></clipPath><clipPath id="0ea8bd3269"><path d="M 128.925781 54.574219 C 121.921875 54.574219 116.246094 60.25 116.246094 67.253906 C 116.246094 74.257812 121.921875 79.933594 128.925781 79.933594 C 135.929688 79.933594 141.605469 74.257812 141.605469 67.253906 C 141.605469 60.25 135.929688 54.574219 128.925781 54.574219 Z M 128.925781 54.574219 " clip-rule="nonzero"/></clipPath><clipPath id="feec2d37f9"><path d="M 116.246094 80.691406 L 141.605469 80.691406 L 141.605469 106.050781 L 116.246094 106.050781 Z M 116.246094 80.691406 " clip-rule="nonzero"/></clipPath><clipPath id="974021be96"><path d="M 128.925781 80.691406 C 121.921875 80.691406 116.246094 86.367188 116.246094 93.371094 C 116.246094 100.375 121.921875 106.050781 128.925781 106.050781 C 135.929688 106.050781 141.605469 100.375 141.605469 93.371094 C 141.605469 86.367188 135.929688 80.691406 128.925781 80.691406 Z M 128.925781 80.691406 " clip-rule="nonzero"/></clipPath></defs><g clip-path="url(#0f48b59b8a)"><g clip-path="url(#1b37c6c05c)"><path stroke-linecap="butt" transform="matrix(0.747283, 0, 0, 0.747283, 0, 0.09058)" fill="none" stroke-linejoin="miter" d="M 12.001819 -0.000985185 L 262.999784 -0.000985185 C 266.183193 -0.000985185 269.23592 1.264015 271.483648 3.51697 C 273.736602 5.764697 275.001602 8.817424 275.001602 12.000833 L 275.001602 238.001979 C 275.001602 241.180161 273.736602 244.232889 271.483648 246.485843 C 269.23592 248.733571 266.183193 249.998571 262.999784 249.998571 L 12.001819 249.998571 C 8.818409 249.998571 5.765682 248.733571 3.512727 246.485843 C 1.265 244.232889 0 241.180161 0 238.001979 L 0 12.000833 C 0 8.817424 1.265 5.764697 3.512727 3.51697 C 5.765682 1.264015 8.818409 -0.000985185 12.001819 -0.000985185 Z M 12.001819 -0.000985185 " stroke="#0ab1f0" stroke-width="4" stroke-opacity="1" stroke-miterlimit="4"/></g></g><g fill="#00517d" fill-opacity="1"><g transform="translate(49.133829, 133.534906)"><g><path d="M 12.3125 -6.265625 C 12.3125 -5.035156 12.023438 -3.945312 11.453125 -3 C 10.890625 -2.050781 10.078125 -1.3125 9.015625 -0.78125 C 7.960938 -0.257812 6.703125 0 5.234375 0 L 1.453125 0 L 1.453125 -12.484375 L 5.28125 -12.484375 C 6.726562 -12.484375 7.976562 -12.238281 9.03125 -11.75 C 10.082031 -11.257812 10.890625 -10.546875 11.453125 -9.609375 C 12.023438 -8.679688 12.3125 -7.566406 12.3125 -6.265625 Z M 9.671875 -6.265625 C 9.671875 -7.078125 9.476562 -7.765625 9.09375 -8.328125 C 8.71875 -8.898438 8.203125 -9.328125 7.546875 -9.609375 C 6.890625 -9.898438 6.15625 -10.046875 5.34375 -10.046875 L 4.03125 -10.046875 L 4.03125 -2.4375 L 5.3125 -2.4375 C 6.164062 -2.4375 6.921875 -2.582031 7.578125 -2.875 C 8.242188 -3.175781 8.757812 -3.609375 9.125 -4.171875 C 9.488281 -4.742188 9.671875 -5.441406 9.671875 -6.265625 Z M 9.671875 -6.265625 "/></g></g></g><g fill="#00517d" fill-opacity="1"><g transform="translate(62.171274, 133.534906)"><g><path d="M 2.578125 0 L -0.015625 0 L 4.75 -12.484375 L 7.859375 -12.484375 L 12.640625 0 L 9.984375 0 L 9.03125 -2.515625 L 3.5 -2.515625 Z M 6.28125 -9.984375 L 4.40625 -4.90625 L 8.15625 -4.90625 Z M 6.28125 -9.984375 "/></g></g></g><g fill="#00517d" fill-opacity="1"><g transform="translate(74.794324, 133.534906)"><g><path d="M 4.078125 0 L 4.078125 -9.984375 L 0.328125 -9.984375 L 0.328125 -12.484375 L 10.390625 -12.484375 L 10.390625 -9.984375 L 6.640625 -9.984375 L 6.640625 0 Z M 4.078125 0 "/></g></g></g><g fill="#00517d" fill-opacity="1"><g transform="translate(85.52073, 133.534906)"><g><path d="M 2.578125 0 L -0.015625 0 L 4.75 -12.484375 L 7.859375 -12.484375 L 12.640625 0 L 9.984375 0 L 9.03125 -2.515625 L 3.5 -2.515625 Z M 6.28125 -9.984375 L 4.40625 -4.90625 L 8.15625 -4.90625 Z M 6.28125 -9.984375 "/></g></g></g><g fill="#00517d" fill-opacity="1"><g transform="translate(98.14378, 133.534906)"><g><path d="M 12.65625 -8.234375 L 9.1875 0 L 7.453125 0 L 4 -8.171875 L 3.984375 -8.171875 L 3.984375 0 L 1.453125 0 L 1.453125 -12.484375 L 4.78125 -12.484375 L 8.3125 -4.109375 L 11.796875 -12.484375 L 15.21875 -12.484375 L 15.21875 0 L 12.671875 0 L 12.671875 -8.234375 Z M 12.65625 -8.234375 "/></g></g></g><g fill="#00517d" fill-opacity="1"><g transform="translate(114.81514, 133.534906)"><g><path d="M 4.03125 -12.484375 L 4.03125 0 L 1.453125 0 L 1.453125 -12.484375 Z M 4.03125 -12.484375 "/></g></g></g><g fill="#00517d" fill-opacity="1"><g transform="translate(120.313817, 133.534906)"><g><path d="M 4 -8.609375 L 4 0 L 1.453125 0 L 1.453125 -12.484375 L 4.40625 -12.484375 L 9.8125 -4.328125 L 9.8125 -12.484375 L 12.375 -12.484375 L 12.375 0 L 9.734375 0 Z M 4 -8.609375 "/></g></g></g><g fill="#00517d" fill-opacity="1"><g transform="translate(134.14818, 133.534906)"><g><path d="M 1.453125 -12.484375 L 9.625 -12.484375 L 9.625 -10.0625 L 4 -10.0625 L 4 -7.515625 L 9.03125 -7.515625 L 9.03125 -5.09375 L 4 -5.09375 L 4 -2.40625 L 9.65625 -2.40625 L 9.65625 0 L 1.453125 0 Z M 1.453125 -12.484375 "/></g></g></g><g fill="#00517d" fill-opacity="1"><g transform="translate(144.715212, 133.534906)"><g><path d="M 11.046875 0 L 8.171875 0 L 5.59375 -4.484375 L 4.03125 -4.484375 L 4.03125 0 L 1.453125 0 L 1.453125 -12.484375 L 6.375 -12.484375 C 7.1875 -12.484375 7.925781 -12.335938 8.59375 -12.046875 C 9.257812 -11.753906 9.789062 -11.3125 10.1875 -10.71875 C 10.59375 -10.132812 10.796875 -9.40625 10.796875 -8.53125 C 10.796875 -6.707031 9.9375 -5.488281 8.21875 -4.875 Z M 6.1875 -6.875 C 6.5 -6.875 6.8125 -6.925781 7.125 -7.03125 C 7.4375 -7.132812 7.6875 -7.300781 7.875 -7.53125 C 8.070312 -7.769531 8.171875 -8.085938 8.171875 -8.484375 C 8.171875 -8.878906 8.070312 -9.1875 7.875 -9.40625 C 7.675781 -9.632812 7.421875 -9.796875 7.109375 -9.890625 C 6.804688 -9.992188 6.492188 -10.046875 6.171875 -10.046875 L 4.03125 -10.046875 L 4.03125 -6.875 Z M 6.1875 -6.875 "/></g></g></g><g fill="#00517d" fill-opacity="1"><g transform="translate(52.566659, 155.206101)"><g><path d="M 2.578125 0 L -0.015625 0 L 4.75 -12.484375 L 7.859375 -12.484375 L 12.640625 0 L 9.984375 0 L 9.03125 -2.515625 L 3.5 -2.515625 Z M 6.28125 -9.984375 L 4.40625 -4.90625 L 8.15625 -4.90625 Z M 6.28125 -9.984375 "/></g></g></g><g fill="#00517d" fill-opacity="1"><g transform="translate(65.189709, 155.206101)"><g><path d="M 12.3125 -6.265625 C 12.3125 -5.035156 12.023438 -3.945312 11.453125 -3 C 10.890625 -2.050781 10.078125 -1.3125 9.015625 -0.78125 C 7.960938 -0.257812 6.703125 0 5.234375 0 L 1.453125 0 L 1.453125 -12.484375 L 5.28125 -12.484375 C 6.726562 -12.484375 7.976562 -12.238281 9.03125 -11.75 C 10.082031 -11.257812 10.890625 -10.546875 11.453125 -9.609375 C 12.023438 -8.679688 12.3125 -7.566406 12.3125 -6.265625 Z M 9.671875 -6.265625 C 9.671875 -7.078125 9.476562 -7.765625 9.09375 -8.328125 C 8.71875 -8.898438 8.203125 -9.328125 7.546875 -9.609375 C 6.890625 -9.898438 6.15625 -10.046875 5.34375 -10.046875 L 4.03125 -10.046875 L 4.03125 -2.4375 L 5.3125 -2.4375 C 6.164062 -2.4375 6.921875 -2.582031 7.578125 -2.875 C 8.242188 -3.175781 8.757812 -3.609375 9.125 -4.171875 C 9.488281 -4.742188 9.671875 -5.441406 9.671875 -6.265625 Z M 9.671875 -6.265625 "/></g></g></g><g fill="#00517d" fill-opacity="1"><g transform="translate(78.227154, 155.206101)"><g><path d="M 12.65625 -8.234375 L 9.1875 0 L 7.453125 0 L 4 -8.171875 L 3.984375 -8.171875 L 3.984375 0 L 1.453125 0 L 1.453125 -12.484375 L 4.78125 -12.484375 L 8.3125 -4.109375 L 11.796875 -12.484375 L 15.21875 -12.484375 L 15.21875 0 L 12.671875 0 L 12.671875 -8.234375 Z M 12.65625 -8.234375 "/></g></g></g><g fill="#00517d" fill-opacity="1"><g transform="translate(94.898513, 155.206101)"><g><path d="M 4.03125 -12.484375 L 4.03125 0 L 1.453125 0 L 1.453125 -12.484375 Z M 4.03125 -12.484375 "/></g></g></g><g fill="#00517d" fill-opacity="1"><g transform="translate(100.397191, 155.206101)"><g><path d="M 4 -8.609375 L 4 0 L 1.453125 0 L 1.453125 -12.484375 L 4.40625 -12.484375 L 9.8125 -4.328125 L 9.8125 -12.484375 L 12.375 -12.484375 L 12.375 0 L 9.734375 0 Z M 4 -8.609375 "/></g></g></g><g fill="#00517d" fill-opacity="1"><g transform="translate(114.231554, 155.206101)"><g/></g></g><g fill="#00517d" fill-opacity="1"><g transform="translate(118.23204, 155.206101)"><g><path d="M 2.578125 0 L -0.015625 0 L 4.75 -12.484375 L 7.859375 -12.484375 L 12.640625 0 L 9.984375 0 L 9.03125 -2.515625 L 3.5 -2.515625 Z M 6.28125 -9.984375 L 4.40625 -4.90625 L 8.15625 -4.90625 Z M 6.28125 -9.984375 "/></g></g></g><g fill="#00517d" fill-opacity="1"><g transform="translate(130.85509, 155.206101)"><g><path d="M 10.546875 -8.484375 C 10.546875 -7.566406 10.347656 -6.804688 9.953125 -6.203125 C 9.554688 -5.597656 9.015625 -5.144531 8.328125 -4.84375 C 7.640625 -4.550781 6.863281 -4.40625 6 -4.40625 L 4.03125 -4.40625 L 4.03125 0 L 1.453125 0 L 1.453125 -12.484375 L 6.09375 -12.484375 C 6.925781 -12.484375 7.675781 -12.332031 8.34375 -12.03125 C 9.019531 -11.738281 9.554688 -11.289062 9.953125 -10.6875 C 10.347656 -10.09375 10.546875 -9.359375 10.546875 -8.484375 Z M 7.953125 -8.421875 C 7.953125 -8.816406 7.847656 -9.132812 7.640625 -9.375 C 7.441406 -9.613281 7.1875 -9.785156 6.875 -9.890625 C 6.5625 -9.992188 6.222656 -10.046875 5.859375 -10.046875 L 4.03125 -10.046875 L 4.03125 -6.8125 L 5.875 -6.8125 C 6.21875 -6.8125 6.546875 -6.863281 6.859375 -6.96875 C 7.179688 -7.070312 7.441406 -7.242188 7.640625 -7.484375 C 7.847656 -7.722656 7.953125 -8.035156 7.953125 -8.421875 Z M 7.953125 -8.421875 "/></g></g></g><g fill="#00517d" fill-opacity="1"><g transform="translate(141.884327, 155.206101)"><g><path d="M 10.546875 -8.484375 C 10.546875 -7.566406 10.347656 -6.804688 9.953125 -6.203125 C 9.554688 -5.597656 9.015625 -5.144531 8.328125 -4.84375 C 7.640625 -4.550781 6.863281 -4.40625 6 -4.40625 L 4.03125 -4.40625 L 4.03125 0 L 1.453125 0 L 1.453125 -12.484375 L 6.09375 -12.484375 C 6.925781 -12.484375 7.675781 -12.332031 8.34375 -12.03125 C 9.019531 -11.738281 9.554688 -11.289062 9.953125 -10.6875 C 10.347656 -10.09375 10.546875 -9.359375 10.546875 -8.484375 Z M 7.953125 -8.421875 C 7.953125 -8.816406 7.847656 -9.132812 7.640625 -9.375 C 7.441406 -9.613281 7.1875 -9.785156 6.875 -9.890625 C 6.5625 -9.992188 6.222656 -10.046875 5.859375 -10.046875 L 4.03125 -10.046875 L 4.03125 -6.8125 L 5.875 -6.8125 C 6.21875 -6.8125 6.546875 -6.863281 6.859375 -6.96875 C 7.179688 -7.070312 7.441406 -7.242188 7.640625 -7.484375 C 7.847656 -7.722656 7.953125 -8.035156 7.953125 -8.421875 Z M 7.953125 -8.421875 "/></g></g></g><g clip-path="url(#32e8cd1ff7)"><g clip-path="url(#b386401b17)"><path stroke-linecap="butt" transform="matrix(0.747283, 0, 0, 0.747283, 63.887603, 28.457681)" fill="none" stroke-linejoin="miter" d="M 16.966545 -0.000869929 C 7.599272 -0.000869929 -0.00118298 7.599585 -0.00118298 16.966858 C -0.00118298 26.339358 7.599272 33.939813 16.966545 33.939813 C 26.339045 33.939813 33.9395 26.339358 33.9395 16.966858 C 33.9395 7.599585 26.339045 -0.000869929 16.966545 -0.000869929 Z M 16.966545 -0.000869929 " stroke="#00517c" stroke-width="5" stroke-opacity="1" stroke-miterlimit="4"/></g></g><g clip-path="url(#d820bea586)"><g clip-path="url(#7332158b30)"><path stroke-linecap="butt" transform="matrix(0.747283, 0, 0, 0.747283, 63.887603, 54.574575)" fill="none" stroke-linejoin="miter" d="M 16.966545 -0.000477258 C 7.599272 -0.000477258 -0.00118298 7.59475 -0.00118298 16.967251 C -0.00118298 26.339751 7.599272 33.934979 16.966545 33.934979 C 26.339045 33.934979 33.9395 26.339751 33.9395 16.967251 C 33.9395 7.59475 26.339045 -0.000477258 16.966545 -0.000477258 Z M 16.966545 -0.000477258 " stroke="#00517c" stroke-width="5" stroke-opacity="1" stroke-miterlimit="4"/></g></g><g clip-path="url(#e16a02bb3b)"><g clip-path="url(#b7f6f4ce07)"><path stroke-linecap="butt" transform="matrix(0.747283, 0, 0, 0.747283, 63.887603, 80.691475)" fill="none" stroke-linejoin="miter" d="M 16.966545 -0.0000919471 C 7.599272 -0.0000919471 -0.00118298 7.595136 -0.00118298 16.967636 C -0.00118298 26.340136 7.599272 33.935364 16.966545 33.935364 C 26.339045 33.935364 33.9395 26.340136 33.9395 16.967636 C 33.9395 7.595136 26.339045 -0.0000919471 16.966545 -0.0000919471 Z M 16.966545 -0.0000919471 " stroke="#06aeef" stroke-width="5" stroke-opacity="1" stroke-miterlimit="4"/></g></g><g clip-path="url(#4b1d7d1f26)"><g clip-path="url(#9fe0d02929)"><path stroke-linecap="butt" transform="matrix(0.747283, 0, 0, 0.747283, 90.066547, 28.457681)" fill="none" stroke-linejoin="miter" d="M 16.967539 -0.000869929 C 7.595039 -0.000869929 -0.000188505 7.599585 -0.000188505 16.966858 C -0.000188505 26.339358 7.595039 33.939813 16.967539 33.939813 C 26.34004 33.939813 33.935267 26.339358 33.935267 16.966858 C 33.935267 7.599585 26.34004 -0.000869929 16.967539 -0.000869929 Z M 16.967539 -0.000869929 " stroke="#00517c" stroke-width="5" stroke-opacity="1" stroke-miterlimit="4"/></g></g><g clip-path="url(#56a3eae2e4)"><g clip-path="url(#1c04370177)"><path stroke-linecap="butt" transform="matrix(0.747283, 0, 0, 0.747283, 90.066547, 54.574575)" fill="none" stroke-linejoin="miter" d="M 16.967539 -0.000477258 C 7.595039 -0.000477258 -0.000188505 7.59475 -0.000188505 16.967251 C -0.000188505 26.339751 7.595039 33.934979 16.967539 33.934979 C 26.34004 33.934979 33.935267 26.339751 33.935267 16.967251 C 33.935267 7.59475 26.34004 -0.000477258 16.967539 -0.000477258 Z M 16.967539 -0.000477258 " stroke="#06aeef" stroke-width="5" stroke-opacity="1" stroke-miterlimit="4"/></g></g><g clip-path="url(#139220447d)"><g clip-path="url(#8baabad77d)"><path stroke-linecap="butt" transform="matrix(0.747283, 0, 0, 0.747283, 90.066547, 80.691475)" fill="none" stroke-linejoin="miter" d="M 16.967539 -0.0000919471 C 7.595039 -0.0000919471 -0.000188505 7.595136 -0.000188505 16.967636 C -0.000188505 26.340136 7.595039 33.935364 16.967539 33.935364 C 26.34004 33.935364 33.935267 26.340136 33.935267 16.967636 C 33.935267 7.595136 26.34004 -0.0000919471 16.967539 -0.0000919471 Z M 16.967539 -0.0000919471 " stroke="#00517c" stroke-width="5" stroke-opacity="1" stroke-miterlimit="4"/></g></g><g clip-path="url(#f90b202139)"><g clip-path="url(#5f1f33d858)"><path stroke-linecap="butt" transform="matrix(0.747283, 0, 0, 0.747283, 116.245496, 28.457681)" fill="none" stroke-linejoin="miter" d="M 16.968528 -0.000869929 C 7.596027 -0.000869929 0.000799573 7.599585 0.000799573 16.966858 C 0.000799573 26.339358 7.596027 33.939813 16.968528 33.939813 C 26.341028 33.939813 33.936256 26.339358 33.936256 16.966858 C 33.936256 7.599585 26.341028 -0.000869929 16.968528 -0.000869929 Z M 16.968528 -0.000869929 " stroke="#06aeef" stroke-width="5" stroke-opacity="1" stroke-miterlimit="4"/></g></g><g clip-path="url(#4f6f8e3485)"><g clip-path="url(#0ea8bd3269)"><path stroke-linecap="butt" transform="matrix(0.747283, 0, 0, 0.747283, 116.245496, 54.574575)" fill="none" stroke-linejoin="miter" d="M 16.968528 -0.000477258 C 7.596027 -0.000477258 0.000799573 7.59475 0.000799573 16.967251 C 0.000799573 26.339751 7.596027 33.934979 16.968528 33.934979 C 26.341028 33.934979 33.936256 26.339751 33.936256 16.967251 C 33.936256 7.59475 26.341028 -0.000477258 16.968528 -0.000477258 Z M 16.968528 -0.000477258 " stroke="#00517c" stroke-width="5" stroke-opacity="1" stroke-miterlimit="4"/></g></g><g clip-path="url(#feec2d37f9)"><g clip-path="url(#974021be96)"><path stroke-linecap="butt" transform="matrix(0.747283, 0, 0, 0.747283, 116.245496, 80.691475)" fill="none" stroke-linejoin="miter" d="M 16.968528 -0.0000919471 C 7.596027 -0.0000919471 0.000799573 7.595136 0.000799573 16.967636 C 0.000799573 26.340136 7.596027 33.935364 16.968528 33.935364 C 26.341028 33.935364 33.936256 26.340136 33.936256 16.967636 C 33.936256 7.595136 26.341028 -0.0000919471 16.968528 -0.0000919471 Z M 16.968528 -0.0000919471 " stroke="#00517c" stroke-width="5" stroke-opacity="1" stroke-miterlimit="4"/></g></g></svg>