<svg xmlns="http://www.w3.org/2000/svg" xmlns:xlink="http://www.w3.org/1999/xlink" width="275" zoomAndPan="magnify" viewBox="0 0 206.25 187.499992" height="250" preserveAspectRatio="xMidYMid meet" version="1.0"><defs><g/><clipPath id="7433ce368a"><path d="M 0 0.0898438 L 205.503906 0.0898438 L 205.503906 186.910156 L 0 186.910156 Z M 0 0.0898438 " clip-rule="nonzero"/></clipPath><clipPath id="fb773fc485"><path d="M 8.96875 0.0898438 L 196.535156 0.0898438 C 198.914062 0.0898438 201.195312 1.035156 202.875 2.71875 C 204.558594 4.398438 205.503906 6.679688 205.503906 9.058594 L 205.503906 177.945312 C 205.503906 180.320312 204.558594 182.601562 202.875 184.285156 C 201.195312 185.964844 198.914062 186.910156 196.535156 186.910156 L 8.96875 186.910156 C 6.589844 186.910156 4.308594 185.964844 2.625 184.285156 C 0.945312 182.601562 0 180.320312 0 177.945312 L 0 9.058594 C 0 6.679688 0.945312 4.398438 2.625 2.71875 C 4.308594 1.035156 6.589844 0.0898438 8.96875 0.0898438 Z M 8.96875 0.0898438 " clip-rule="nonzero"/></clipPath><clipPath id="2c953fca9b"><path d="M 0 0.0898438 L 205.503906 0.0898438 L 205.503906 186.910156 L 0 186.910156 Z M 0 0.0898438 " clip-rule="nonzero"/></clipPath><clipPath id="f85db146bf"><path d="M 8.96875 0.0898438 L 196.535156 0.0898438 C 198.914062 0.0898438 201.195312 1.035156 202.875 2.71875 C 204.558594 4.398438 205.503906 6.679688 205.503906 9.058594 L 205.503906 177.945312 C 205.503906 180.320312 204.558594 182.601562 202.875 184.285156 C 201.195312 185.964844 198.914062 186.910156 196.535156 186.910156 L 8.96875 186.910156 C 6.589844 186.910156 4.308594 185.964844 2.625 184.285156 C 0.945312 182.601562 0 180.320312 0 177.945312 L 0 9.058594 C 0 6.679688 0.945312 4.398438 2.625 2.71875 C 4.308594 1.035156 6.589844 0.0898438 8.96875 0.0898438 Z M 8.96875 0.0898438 " clip-rule="nonzero"/></clipPath><clipPath id="782ee1eb86"><rect x="0" width="206" y="0" height="187"/></clipPath><clipPath id="34e5156315"><path d="M 63.886719 80.691406 L 89.25 80.691406 L 89.25 106.050781 L 63.886719 106.050781 Z M 63.886719 80.691406 " clip-rule="nonzero"/></clipPath><clipPath id="c2acd3da27"><path d="M 76.566406 80.691406 C 69.566406 80.691406 63.886719 86.367188 63.886719 93.371094 C 63.886719 100.375 69.566406 106.050781 76.566406 106.050781 C 83.570312 106.050781 89.25 100.375 89.25 93.371094 C 89.25 86.367188 83.570312 80.691406 76.566406 80.691406 Z M 76.566406 80.691406 " clip-rule="nonzero"/></clipPath><clipPath id="7f92c81753"><path d="M 90.066406 54.574219 L 115.425781 54.574219 L 115.425781 79.933594 L 90.066406 79.933594 Z M 90.066406 54.574219 " clip-rule="nonzero"/></clipPath><clipPath id="28b627433d"><path d="M 102.746094 54.574219 C 95.742188 54.574219 90.066406 60.25 90.066406 67.253906 C 90.066406 74.257812 95.742188 79.933594 102.746094 79.933594 C 109.75 79.933594 115.425781 74.257812 115.425781 67.253906 C 115.425781 60.25 109.75 54.574219 102.746094 54.574219 Z M 102.746094 54.574219 " clip-rule="nonzero"/></clipPath><clipPath id="157e9403fa"><path d="M 116.246094 28.457031 L 141.605469 28.457031 L 141.605469 53.820312 L 116.246094 53.820312 Z M 116.246094 28.457031 " clip-rule="nonzero"/></clipPath><clipPath id="1c07ae715d"><path d="M 128.925781 28.457031 C 121.921875 28.457031 116.246094 34.136719 116.246094 41.136719 C 116.246094 48.140625 121.921875 53.820312 128.925781 53.820312 C 135.929688 53.820312 141.605469 48.140625 141.605469 41.136719 C 141.605469 34.136719 135.929688 28.457031 128.925781 28.457031 Z M 128.925781 28.457031 " clip-rule="nonzero"/></clipPath><clipPath id="09405e31a1"><path d="M 63.886719 28.457031 L 89.25 28.457031 L 89.25 53.820312 L 63.886719 53.820312 Z M 63.886719 28.457031 " clip-rule="nonzero"/></clipPath><clipPath id="d799e87cef"><path d="M 76.566406 28.457031 C 69.566406 28.457031 63.886719 34.136719 63.886719 41.136719 C 63.886719 48.140625 69.566406 53.820312 76.566406 53.820312 C 83.570312 53.820312 89.25 48.140625 89.25 41.136719 C 89.25 34.136719 83.570312 28.457031 76.566406 28.457031 Z M 76.566406 28.457031 " clip-rule="nonzero"/></clipPath><clipPath id="e6edaf0a2b"><path d="M 63.886719 54.574219 L 89.25 54.574219 L 89.25 79.933594 L 63.886719 79.933594 Z M 63.886719 54.574219 " clip-rule="nonzero"/></clipPath><clipPath id="b05a6f6ef5"><path d="M 76.566406 54.574219 C 69.566406 54.574219 63.886719 60.25 63.886719 67.253906 C 63.886719 74.257812 69.566406 79.933594 76.566406 79.933594 C 83.570312 79.933594 89.25 74.257812 89.25 67.253906 C 89.25 60.25 83.570312 54.574219 76.566406 54.574219 Z M 76.566406 54.574219 " clip-rule="nonzero"/></clipPath><clipPath id="c7088d9c88"><path d="M 90.066406 28.457031 L 115.425781 28.457031 L 115.425781 53.820312 L 90.066406 53.820312 Z M 90.066406 28.457031 " clip-rule="nonzero"/></clipPath><clipPath id="bfb0bcc998"><path d="M 102.746094 28.457031 C 95.742188 28.457031 90.066406 34.136719 90.066406 41.136719 C 90.066406 48.140625 95.742188 53.820312 102.746094 53.820312 C 109.75 53.820312 115.425781 48.140625 115.425781 41.136719 C 115.425781 34.136719 109.75 28.457031 102.746094 28.457031 Z M 102.746094 28.457031 " clip-rule="nonzero"/></clipPath><clipPath id="17b91169c4"><path d="M 90.066406 80.691406 L 115.425781 80.691406 L 115.425781 106.050781 L 90.066406 106.050781 Z M 90.066406 80.691406 " clip-rule="nonzero"/></clipPath><clipPath id="52cb852813"><path d="M 102.746094 80.691406 C 95.742188 80.691406 90.066406 86.367188 90.066406 93.371094 C 90.066406 100.375 95.742188 106.050781 102.746094 106.050781 C 109.75 106.050781 115.425781 100.375 115.425781 93.371094 C 115.425781 86.367188 109.75 80.691406 102.746094 80.691406 Z M 102.746094 80.691406 " clip-rule="nonzero"/></clipPath><clipPath id="4e7f8320c7"><path d="M 116.246094 54.574219 L 141.605469 54.574219 L 141.605469 79.933594 L 116.246094 79.933594 Z M 116.246094 54.574219 " clip-rule="nonzero"/></clipPath><clipPath id="f772d0bae5"><path d="M 128.925781 54.574219 C 121.921875 54.574219 116.246094 60.25 116.246094 67.253906 C 116.246094 74.257812 121.921875 79.933594 128.925781 79.933594 C 135.929688 79.933594 141.605469 74.257812 141.605469 67.253906 C 141.605469 60.25 135.929688 54.574219 128.925781 54.574219 Z M 128.925781 54.574219 " clip-rule="nonzero"/></clipPath><clipPath id="dbe4e24c0f"><path d="M 116.246094 80.691406 L 141.605469 80.691406 L 141.605469 106.050781 L 116.246094 106.050781 Z M 116.246094 80.691406 " clip-rule="nonzero"/></clipPath><clipPath id="e8a218a467"><path d="M 128.925781 80.691406 C 121.921875 80.691406 116.246094 86.367188 116.246094 93.371094 C 116.246094 100.375 121.921875 106.050781 128.925781 106.050781 C 135.929688 106.050781 141.605469 100.375 141.605469 93.371094 C 141.605469 86.367188 135.929688 80.691406 128.925781 80.691406 Z M 128.925781 80.691406 " clip-rule="nonzero"/></clipPath></defs><g clip-path="url(#7433ce368a)"><g clip-path="url(#fb773fc485)"><g transform="matrix(1, 0, 0, 1, 0, -0.000000000000024966)"><g clip-path="url(#782ee1eb86)"><g clip-path="url(#2c953fca9b)"><g clip-path="url(#f85db146bf)"><path fill="#fbfeff" d="M 0 0.0898438 L 205.792969 0.0898438 L 205.792969 186.910156 L 0 186.910156 Z M 0 0.0898438 " fill-opacity="1" fill-rule="nonzero"/></g></g></g></g><path stroke-linecap="butt" transform="matrix(0.747283, 0, 0, 0.747283, 0, 0.09058)" fill="none" stroke-linejoin="miter" d="M 12.001819 -0.000985185 L 262.999784 -0.000985185 C 266.183193 -0.000985185 269.23592 1.264015 271.483648 3.51697 C 273.736602 5.764697 275.001602 8.817424 275.001602 12.000833 L 275.001602 238.001979 C 275.001602 241.180161 273.736602 244.232889 271.483648 246.485843 C 269.23592 248.733571 266.183193 249.998571 262.999784 249.998571 L 12.001819 249.998571 C 8.818409 249.998571 5.765682 248.733571 3.512727 246.485843 C 1.265 244.232889 0 241.180161 0 238.001979 L 0 12.000833 C 0 8.817424 1.265 5.764697 3.512727 3.51697 C 5.765682 1.264015 8.818409 -0.000985185 12.001819 -0.000985185 Z M 12.001819 -0.000985185 " stroke="#2563eb" stroke-width="4" stroke-opacity="1" stroke-miterlimit="4"/></g></g><g clip-path="url(#34e5156315)"><g clip-path="url(#c2acd3da27)"><path stroke-linecap="butt" transform="matrix(0.747283, 0, 0, 0.747283, 63.887603, 80.691475)" fill="none" stroke-linejoin="miter" d="M 16.966545 -0.0000919471 C 7.599272 -0.0000919471 -0.00118298 7.595136 -0.00118298 16.967636 C -0.00118298 26.340136 7.599272 33.935364 16.966545 33.935364 C 26.339045 33.935364 33.9395 26.340136 33.9395 16.967636 C 33.9395 7.595136 26.339045 -0.0000919471 16.966545 -0.0000919471 Z M 16.966545 -0.0000919471 " stroke="#1373fb" stroke-width="5" stroke-opacity="1" stroke-miterlimit="4"/></g></g><g clip-path="url(#7f92c81753)"><g clip-path="url(#28b627433d)"><path stroke-linecap="butt" transform="matrix(0.747283, 0, 0, 0.747283, 90.066547, 54.574575)" fill="none" stroke-linejoin="miter" d="M 16.967539 -0.000477258 C 7.595039 -0.000477258 -0.000188505 7.59475 -0.000188505 16.967251 C -0.000188505 26.339751 7.595039 33.934979 16.967539 33.934979 C 26.34004 33.934979 33.935267 26.339751 33.935267 16.967251 C 33.935267 7.59475 26.34004 -0.000477258 16.967539 -0.000477258 Z M 16.967539 -0.000477258 " stroke="#1373fb" stroke-width="5" stroke-opacity="1" stroke-miterlimit="4"/></g></g><g clip-path="url(#157e9403fa)"><g clip-path="url(#1c07ae715d)"><path stroke-linecap="butt" transform="matrix(0.747283, 0, 0, 0.747283, 116.245482, 28.457681)" fill="none" stroke-linejoin="miter" d="M 16.968547 -0.000869929 C 7.596046 -0.000869929 0.000818773 7.599585 0.000818773 16.966858 C 0.000818773 26.339358 7.596046 33.939813 16.968547 33.939813 C 26.341047 33.939813 33.936275 26.339358 33.936275 16.966858 C 33.936275 7.599585 26.341047 -0.000869929 16.968547 -0.000869929 Z M 16.968547 -0.000869929 " stroke="#1373fb" stroke-width="5" stroke-opacity="1" stroke-miterlimit="4"/></g></g><g clip-path="url(#09405e31a1)"><g clip-path="url(#d799e87cef)"><path stroke-linecap="butt" transform="matrix(0.747283, 0, 0, 0.747283, 63.887603, 28.457681)" fill="none" stroke-linejoin="miter" d="M 16.966545 -0.000869929 C 7.599272 -0.000869929 -0.00118298 7.599585 -0.00118298 16.966858 C -0.00118298 26.339358 7.599272 33.939813 16.966545 33.939813 C 26.339045 33.939813 33.9395 26.339358 33.9395 16.966858 C 33.9395 7.599585 26.339045 -0.000869929 16.966545 -0.000869929 Z M 16.966545 -0.000869929 " stroke="#00337c" stroke-width="5" stroke-opacity="1" stroke-miterlimit="4"/></g></g><g clip-path="url(#e6edaf0a2b)"><g clip-path="url(#b05a6f6ef5)"><path stroke-linecap="butt" transform="matrix(0.747283, 0, 0, 0.747283, 63.887603, 54.574575)" fill="none" stroke-linejoin="miter" d="M 16.966545 -0.000477258 C 7.599272 -0.000477258 -0.00118298 7.59475 -0.00118298 16.967251 C -0.00118298 26.339751 7.599272 33.934979 16.966545 33.934979 C 26.339045 33.934979 33.9395 26.339751 33.9395 16.967251 C 33.9395 7.59475 26.339045 -0.000477258 16.966545 -0.000477258 Z M 16.966545 -0.000477258 " stroke="#00337c" stroke-width="5" stroke-opacity="1" stroke-miterlimit="4"/></g></g><g clip-path="url(#c7088d9c88)"><g clip-path="url(#bfb0bcc998)"><path stroke-linecap="butt" transform="matrix(0.747283, 0, 0, 0.747283, 90.066547, 28.457681)" fill="none" stroke-linejoin="miter" d="M 16.967539 -0.000869929 C 7.595039 -0.000869929 -0.000188505 7.599585 -0.000188505 16.966858 C -0.000188505 26.339358 7.595039 33.939813 16.967539 33.939813 C 26.34004 33.939813 33.935267 26.339358 33.935267 16.966858 C 33.935267 7.599585 26.34004 -0.000869929 16.967539 -0.000869929 Z M 16.967539 -0.000869929 " stroke="#00337c" stroke-width="5" stroke-opacity="1" stroke-miterlimit="4"/></g></g><g clip-path="url(#17b91169c4)"><g clip-path="url(#52cb852813)"><path stroke-linecap="butt" transform="matrix(0.747283, 0, 0, 0.747283, 90.066547, 80.691475)" fill="none" stroke-linejoin="miter" d="M 16.967539 -0.0000919471 C 7.595039 -0.0000919471 -0.000188505 7.595136 -0.000188505 16.967636 C -0.000188505 26.340136 7.595039 33.935364 16.967539 33.935364 C 26.34004 33.935364 33.935267 26.340136 33.935267 16.967636 C 33.935267 7.595136 26.34004 -0.0000919471 16.967539 -0.0000919471 Z M 16.967539 -0.0000919471 " stroke="#00337c" stroke-width="5" stroke-opacity="1" stroke-miterlimit="4"/></g></g><g clip-path="url(#4e7f8320c7)"><g clip-path="url(#f772d0bae5)"><path stroke-linecap="butt" transform="matrix(0.747283, 0, 0, 0.747283, 116.245482, 54.574575)" fill="none" stroke-linejoin="miter" d="M 16.968547 -0.000477258 C 7.596046 -0.000477258 0.000818773 7.59475 0.000818773 16.967251 C 0.000818773 26.339751 7.596046 33.934979 16.968547 33.934979 C 26.341047 33.934979 33.936275 26.339751 33.936275 16.967251 C 33.936275 7.59475 26.341047 -0.000477258 16.968547 -0.000477258 Z M 16.968547 -0.000477258 " stroke="#00337c" stroke-width="5" stroke-opacity="1" stroke-miterlimit="4"/></g></g><g clip-path="url(#dbe4e24c0f)"><g clip-path="url(#e8a218a467)"><path stroke-linecap="butt" transform="matrix(0.747283, 0, 0, 0.747283, 116.245482, 80.691475)" fill="none" stroke-linejoin="miter" d="M 16.968547 -0.0000919471 C 7.596046 -0.0000919471 0.000818773 7.595136 0.000818773 16.967636 C 0.000818773 26.340136 7.596046 33.935364 16.968547 33.935364 C 26.341047 33.935364 33.936275 26.340136 33.936275 16.967636 C 33.936275 7.595136 26.341047 -0.0000919471 16.968547 -0.0000919471 Z M 16.968547 -0.0000919471 " stroke="#00337c" stroke-width="5" stroke-opacity="1" stroke-miterlimit="4"/></g></g><g fill="#2563eb" fill-opacity="1"><g transform="translate(48.521993, 130.431019)"><g><path d="M 5.6875 0 L 1.171875 0 L 1.171875 -12.453125 L 5.6875 -12.453125 C 7.71875 -12.453125 9.398438 -11.863281 10.734375 -10.6875 C 12.066406 -9.507812 12.734375 -8.015625 12.734375 -6.203125 C 12.734375 -4.410156 12.066406 -2.929688 10.734375 -1.765625 C 9.398438 -0.585938 7.71875 0 5.6875 0 Z M 5.625 -9.4375 L 4.46875 -9.4375 L 4.46875 -3.015625 L 5.65625 -3.015625 C 6.75 -3.015625 7.628906 -3.304688 8.296875 -3.890625 C 8.960938 -4.484375 9.296875 -5.265625 9.296875 -6.234375 C 9.296875 -7.191406 8.957031 -7.960938 8.28125 -8.546875 C 7.613281 -9.140625 6.726562 -9.4375 5.625 -9.4375 Z M 5.625 -9.4375 "/></g></g></g><g fill="#2563eb" fill-opacity="1"><g transform="translate(61.850535, 130.431019)"><g><path d="M 13.671875 0 L 10.140625 0 L 9.28125 -2.34375 L 4.40625 -2.34375 L 3.546875 0 L 0.1875 0 L 5.046875 -12.453125 L 8.8125 -12.453125 Z M 5.4375 -5.1875 L 8.25 -5.1875 L 6.859375 -9.046875 Z M 5.4375 -5.1875 "/></g></g></g><g fill="#2563eb" fill-opacity="1"><g transform="translate(75.723097, 130.431019)"><g><path d="M 10.21875 -12.453125 L 10.21875 -9.4375 L 6.796875 -9.4375 L 6.796875 0 L 3.59375 0 L 3.59375 -9.4375 L 0.1875 -9.4375 L 0.1875 -12.453125 Z M 10.21875 -12.453125 "/></g></g></g><g fill="#2563eb" fill-opacity="1"><g transform="translate(86.137242, 130.431019)"><g><path d="M 13.671875 0 L 10.140625 0 L 9.28125 -2.34375 L 4.40625 -2.34375 L 3.546875 0 L 0.1875 0 L 5.046875 -12.453125 L 8.8125 -12.453125 Z M 5.4375 -5.1875 L 8.25 -5.1875 L 6.859375 -9.046875 Z M 5.4375 -5.1875 "/></g></g></g><g fill="#2563eb" fill-opacity="1"><g transform="translate(100.009804, 130.431019)"><g><path d="M 11.640625 -7.515625 L 8 -2.25 L 4.375 -7.5 L 4.375 0 L 1.171875 0 L 1.171875 -12.453125 L 4.859375 -12.453125 L 8.21875 -7.359375 L 11.578125 -12.453125 L 14.84375 -12.453125 L 14.84375 0 L 11.640625 0 Z M 11.640625 -7.515625 "/></g></g></g><g fill="#2563eb" fill-opacity="1"><g transform="translate(116.019605, 130.431019)"><g><path d="M 4.375 0 L 1.171875 0 L 1.171875 -12.453125 L 4.375 -12.453125 Z M 4.375 0 "/></g></g></g><g fill="#2563eb" fill-opacity="1"><g transform="translate(121.556972, 130.431019)"><g><path d="M 12.375 0 L 8.9375 0 L 4.375 -7.09375 L 4.375 0 L 1.171875 0 L 1.171875 -12.453125 L 4.609375 -12.453125 L 9.171875 -5.25 L 9.171875 -12.453125 L 12.375 -12.453125 Z M 12.375 0 "/></g></g></g><g fill="#2563eb" fill-opacity="1"><g transform="translate(135.099234, 130.431019)"><g><path d="M 9.4375 0 L 1.171875 0 L 1.171875 -12.453125 L 9.4375 -12.453125 L 9.4375 -9.4375 L 4.375 -9.4375 L 4.375 -7.8125 L 8.65625 -7.8125 L 8.65625 -4.796875 L 4.375 -4.796875 L 4.375 -3.015625 L 9.4375 -3.015625 Z M 9.4375 0 "/></g></g></g><g fill="#2563eb" fill-opacity="1"><g transform="translate(145.124788, 130.431019)"><g><path d="M 4.375 0 L 1.171875 0 L 1.171875 -12.453125 L 5.6875 -12.453125 C 7.28125 -12.453125 8.554688 -12.078125 9.515625 -11.328125 C 10.472656 -10.554688 10.953125 -9.554688 10.953125 -8.328125 C 10.953125 -7.523438 10.75 -6.816406 10.34375 -6.203125 C 9.945312 -5.585938 9.378906 -5.109375 8.640625 -4.765625 L 11.265625 0 L 7.5625 0 L 5.421875 -4.15625 L 4.375 -4.15625 Z M 5.9375 -9.640625 L 4.375 -9.640625 L 4.375 -6.96875 L 5.9375 -6.96875 C 6.414062 -6.96875 6.804688 -7.085938 7.109375 -7.328125 C 7.410156 -7.578125 7.5625 -7.910156 7.5625 -8.328125 C 7.5625 -8.722656 7.410156 -9.039062 7.109375 -9.28125 C 6.804688 -9.519531 6.414062 -9.640625 5.9375 -9.640625 Z M 5.9375 -9.640625 "/></g></g></g><g fill="#2563eb" fill-opacity="1"><g transform="translate(50.880603, 152.102214)"><g><path d="M 13.671875 0 L 10.140625 0 L 9.28125 -2.34375 L 4.40625 -2.34375 L 3.546875 0 L 0.1875 0 L 5.046875 -12.453125 L 8.8125 -12.453125 Z M 5.4375 -5.1875 L 8.25 -5.1875 L 6.859375 -9.046875 Z M 5.4375 -5.1875 "/></g></g></g><g fill="#2563eb" fill-opacity="1"><g transform="translate(64.753165, 152.102214)"><g><path d="M 5.6875 0 L 1.171875 0 L 1.171875 -12.453125 L 5.6875 -12.453125 C 7.71875 -12.453125 9.398438 -11.863281 10.734375 -10.6875 C 12.066406 -9.507812 12.734375 -8.015625 12.734375 -6.203125 C 12.734375 -4.410156 12.066406 -2.929688 10.734375 -1.765625 C 9.398438 -0.585938 7.71875 0 5.6875 0 Z M 5.625 -9.4375 L 4.46875 -9.4375 L 4.46875 -3.015625 L 5.65625 -3.015625 C 6.75 -3.015625 7.628906 -3.304688 8.296875 -3.890625 C 8.960938 -4.484375 9.296875 -5.265625 9.296875 -6.234375 C 9.296875 -7.191406 8.957031 -7.960938 8.28125 -8.546875 C 7.613281 -9.140625 6.726562 -9.4375 5.625 -9.4375 Z M 5.625 -9.4375 "/></g></g></g><g fill="#2563eb" fill-opacity="1"><g transform="translate(78.081708, 152.102214)"><g><path d="M 11.640625 -7.515625 L 8 -2.25 L 4.375 -7.5 L 4.375 0 L 1.171875 0 L 1.171875 -12.453125 L 4.859375 -12.453125 L 8.21875 -7.359375 L 11.578125 -12.453125 L 14.84375 -12.453125 L 14.84375 0 L 11.640625 0 Z M 11.640625 -7.515625 "/></g></g></g><g fill="#2563eb" fill-opacity="1"><g transform="translate(94.091509, 152.102214)"><g><path d="M 4.375 0 L 1.171875 0 L 1.171875 -12.453125 L 4.375 -12.453125 Z M 4.375 0 "/></g></g></g><g fill="#2563eb" fill-opacity="1"><g transform="translate(99.628876, 152.102214)"><g><path d="M 12.375 0 L 8.9375 0 L 4.375 -7.09375 L 4.375 0 L 1.171875 0 L 1.171875 -12.453125 L 4.609375 -12.453125 L 9.171875 -5.25 L 9.171875 -12.453125 L 12.375 -12.453125 Z M 12.375 0 "/></g></g></g><g fill="#2563eb" fill-opacity="1"><g transform="translate(113.171138, 152.102214)"><g/></g><g transform="translate(118.028474, 152.102214)"><g><path d="M 13.671875 0 L 10.140625 0 L 9.28125 -2.34375 L 4.40625 -2.34375 L 3.546875 0 L 0.1875 0 L 5.046875 -12.453125 L 8.8125 -12.453125 Z M 5.4375 -5.1875 L 8.25 -5.1875 L 6.859375 -9.046875 Z M 5.4375 -5.1875 "/></g></g></g><g fill="#2563eb" fill-opacity="1"><g transform="translate(131.901036, 152.102214)"><g><path d="M 4.375 0 L 1.171875 0 L 1.171875 -12.453125 L 5.6875 -12.453125 C 7.28125 -12.453125 8.554688 -12.054688 9.515625 -11.265625 C 10.472656 -10.460938 10.953125 -9.421875 10.953125 -8.140625 C 10.953125 -6.828125 10.472656 -5.769531 9.515625 -4.96875 C 8.535156 -4.164062 7.253906 -3.765625 5.671875 -3.765625 L 4.375 -3.765625 Z M 5.9375 -9.640625 L 4.375 -9.640625 L 4.375 -6.578125 L 5.9375 -6.578125 C 6.414062 -6.578125 6.804688 -6.71875 7.109375 -7 C 7.410156 -7.289062 7.5625 -7.671875 7.5625 -8.140625 C 7.5625 -8.585938 7.410156 -8.945312 7.109375 -9.21875 C 6.804688 -9.5 6.414062 -9.640625 5.9375 -9.640625 Z M 5.9375 -9.640625 "/></g></g></g><g fill="#2563eb" fill-opacity="1"><g transform="translate(143.247791, 152.102214)"><g><path d="M 4.375 0 L 1.171875 0 L 1.171875 -12.453125 L 5.6875 -12.453125 C 7.28125 -12.453125 8.554688 -12.054688 9.515625 -11.265625 C 10.472656 -10.460938 10.953125 -9.421875 10.953125 -8.140625 C 10.953125 -6.828125 10.472656 -5.769531 9.515625 -4.96875 C 8.535156 -4.164062 7.253906 -3.765625 5.671875 -3.765625 L 4.375 -3.765625 Z M 5.9375 -9.640625 L 4.375 -9.640625 L 4.375 -6.578125 L 5.9375 -6.578125 C 6.414062 -6.578125 6.804688 -6.71875 7.109375 -7 C 7.410156 -7.289062 7.5625 -7.671875 7.5625 -8.140625 C 7.5625 -8.585938 7.410156 -8.945312 7.109375 -9.21875 C 6.804688 -9.5 6.414062 -9.640625 5.9375 -9.640625 Z M 5.9375 -9.640625 "/></g></g></g></svg>