<svg id="Layer_2" data-name="Layer 2" xmlns="http://www.w3.org/2000/svg" xmlns:xlink="http://www.w3.org/1999/xlink" viewBox="0 0 1836.4 360">
  <defs>
    <style>
      .cls-1 {
        clip-path: url(#clippath-6);
      }

      .cls-2 {
        clip-path: url(#clippath-7);
      }

      .cls-3 {
        fill: #1e3a8a;
      }

      .cls-4 {
        clip-path: url(#clippath-4);
      }

      .cls-5, .cls-6 {
        fill: #fff;
      }

      .cls-7, .cls-8 {
        fill: none;
      }

      .cls-9 {
        fill: url(#linear-gradient-3);
      }

      .cls-10 {
        clip-path: url(#clippath-1);
      }

      .cls-11 {
        fill: url(#linear-gradient-5);
      }

      .cls-12, .cls-13, .cls-14, .cls-15, .cls-16, .cls-6 {
        isolation: isolate;
      }

      .cls-17 {
        clip-path: url(#clippath-5);
      }

      .cls-18 {
        fill: #2563eb;
      }

      .cls-19 {
        clip-path: url(#clippath-3);
      }

      .cls-13 {
        fill: url(#linear-gradient-2);
      }

      .cls-13, .cls-14, .cls-15, .cls-16 {
        mix-blend-mode: screen;
      }

      .cls-20 {
        fill: url(#linear-gradient-7);
      }

      .cls-14 {
        fill: url(#linear-gradient-8);
      }

      .cls-15 {
        fill: url(#linear-gradient-6);
      }

      .cls-21 {
        fill: #dbeafe;
      }

      .cls-22 {
        clip-path: url(#clippath-2);
      }

      .cls-16 {
        fill: url(#linear-gradient-4);
      }

      .cls-23 {
        fill: url(#linear-gradient);
      }

      .cls-8 {
        stroke: #60a5fa;
        stroke-miterlimit: 10;
      }

      .cls-24 {
        clip-path: url(#clippath);
      }

      .cls-6 {
        opacity: .1;
      }
    </style>
    <clipPath id="clippath">
      <path class="cls-7" d="M258.6,307.6c-8.4,0-15.2-6.8-15.2-15.2s6.8-15.2,15.2-15.2,15.2,6.8,15.2,15.2-6.8,15.2-15.2,15.2ZM341.3,183.3h-165.3c-17.9,0-32.3,14.5-32.3,32.3s14.5,32.3,32.3,32.3h71c6.5,2.2,11.7,12,11.7,18,0-6.1,5.2-15.8,11.7-18h71c17.9,0,32.3-14.5,32.3-32.3s-14.5-32.3-32.3-32.3h-.1Z"/>
    </clipPath>
    <linearGradient id="linear-gradient" x1="138.7" y1="493.5" x2="378.5" y2="493.5" gradientTransform="translate(0 731) scale(1 -1)" gradientUnits="userSpaceOnUse">
      <stop offset="0" stop-color="#89c7d4"/>
      <stop offset="1" stop-color="#5fb1ca"/>
    </linearGradient>
    <clipPath id="clippath-1">
      <rect class="cls-7" x="138.7" y="161.4" width="239.8" height="152.2" rx="7.9" ry="7.9"/>
    </clipPath>
    <linearGradient id="linear-gradient-2" x1="282.37" y1="460.73" x2="472.73" y2="270.47" gradientTransform="translate(-119 603.1) scale(1 -1)" gradientUnits="userSpaceOnUse">
      <stop offset="0" stop-color="#000"/>
      <stop offset="0" stop-color="#121212"/>
      <stop offset=".2" stop-color="#424242"/>
      <stop offset=".2" stop-color="#686868"/>
      <stop offset=".3" stop-color="#636363"/>
      <stop offset=".3" stop-color="#3f3f3f"/>
      <stop offset=".4" stop-color="#232323"/>
      <stop offset=".4" stop-color="#0f0f0f"/>
      <stop offset=".5" stop-color="#030303"/>
      <stop offset=".5" stop-color="#000"/>
    </linearGradient>
    <clipPath id="clippath-2">
      <path class="cls-7" d="M836.5,292.4c0,8.4-6.8,15.2-15.2,15.2s-15.2-6.8-15.2-15.2,6.8-15.2,15.2-15.2,15.2,6.8,15.2,15.2ZM904,183.3h-165.3c-17.9,0-32.3,14.5-32.3,32.3s14.5,32.3,32.3,32.3h71c6.5,2.2,11.7,12,11.7,18,0-6.1,5.2-15.8,11.7-18h71c17.9,0,32.3-14.5,32.3-32.3s-14.5-32.3-32.3-32.3h-.1Z"/>
    </clipPath>
    <linearGradient id="linear-gradient-3" x1="701.4" y1="493.5" x2="941.2" y2="493.5" gradientTransform="translate(0 731) scale(1 -1)" gradientUnits="userSpaceOnUse">
      <stop offset="0" stop-color="#d1b096"/>
      <stop offset="1" stop-color="#a7735b"/>
    </linearGradient>
    <clipPath id="clippath-3">
      <rect class="cls-7" x="701.4" y="161.4" width="239.8" height="152.2" rx="7.9" ry="7.9"/>
    </clipPath>
    <linearGradient id="linear-gradient-4" x1="845.07" y1="460.73" x2="1035.43" y2="270.47" xlink:href="#linear-gradient-2"/>
    <clipPath id="clippath-4">
      <path class="cls-7" d="M1217.9,307.6c-8.4,0-15.2-6.8-15.2-15.2s6.8-15.2,15.2-15.2,15.2,6.8,15.2,15.2-6.8,15.2-15.2,15.2ZM1300.6,183.3h-165.3c-17.9,0-32.3,14.5-32.3,32.3s14.5,32.3,32.3,32.3h71c6.5,2.2,11.7,12,11.7,18,0-6.1,5.2-15.8,11.7-18h71c17.9,0,32.3-14.5,32.3-32.3s-14.5-32.3-32.3-32.3h-.1Z"/>
    </clipPath>
    <linearGradient id="linear-gradient-5" x1="1098" y1="493.5" x2="1337.8" y2="493.5" gradientTransform="translate(0 731) scale(1 -1)" gradientUnits="userSpaceOnUse">
      <stop offset="0" stop-color="#bdbfc0"/>
      <stop offset="1" stop-color="#7d7f7f"/>
    </linearGradient>
    <clipPath id="clippath-5">
      <rect class="cls-7" x="1098" y="161.4" width="239.8" height="152.2" rx="7.9" ry="7.9"/>
    </clipPath>
    <linearGradient id="linear-gradient-6" x1="1241.67" y1="460.63" x2="1432.23" y2="270.17" xlink:href="#linear-gradient-2"/>
    <clipPath id="clippath-6">
      <path class="cls-7" d="M1721.3,307.6c-8.4,0-15.2-6.8-15.2-15.2s6.8-15.2,15.2-15.2,15.2,6.8,15.2,15.2-6.8,15.2-15.2,15.2ZM1804,183.3h-165.3c-17.9,0-32.3,14.5-32.3,32.3s14.5,32.3,32.3,32.3h71c6.5,2.2,11.7,12,11.7,18,0-6.1,5.2-15.8,11.7-18h71c17.9,0,32.3-14.5,32.3-32.3s-14.5-32.3-32.3-32.3h-.1Z"/>
    </clipPath>
    <linearGradient id="linear-gradient-7" x1="1601.4" y1="493.5" x2="1841.2" y2="493.5" gradientTransform="translate(0 731) scale(1 -1)" gradientUnits="userSpaceOnUse">
      <stop offset="0" stop-color="#d0b35e"/>
      <stop offset="1" stop-color="#a7772b"/>
    </linearGradient>
    <clipPath id="clippath-7">
      <rect class="cls-7" x="1601.4" y="161.4" width="239.8" height="152.2" rx="7.9" ry="7.9"/>
    </clipPath>
    <linearGradient id="linear-gradient-8" x1="1745.13" y1="460.77" x2="1935.37" y2="270.43" xlink:href="#linear-gradient-2"/>
  </defs>
  <g id="Layer_1-2" data-name="Layer 1">
    <g class="cls-12">
      <g id="Layer_11" data-name="Layer 11">
        <polyline class="cls-8" points="565.1 289.7 565.1 283.9 565.1 282.3 565.1 275.5 565.1 112.7"/>
        <polyline class="cls-8" points="611.8 112.7 611.8 275.52 611.8 282.33 611.8 283.9 611.8 289.7"/>
        <polyline class="cls-8" points="682.6 112.7 682.6 275.51 682.6 282.31 682.6 283.9 682.6 289.7"/>
        <polyline class="cls-8" points="733.1 112.7 733.1 275.51 733.1 282.32 733.1 283.9 733.1 289.7"/>
        <polyline class="cls-8" points="909.2 112.7 909.2 275.5 909.2 282.3 909.2 283.9 909.2 289.7"/>
        <polyline class="cls-8" points="952.4 112.7 952.4 275.51 952.4 282.31 952.4 283.9 952.4 289.7"/>
        <polyline class="cls-8" points="1038.3 112.7 1038.3 275.51 1038.3 282.31 1038.3 283.9 1038.3 289.7"/>
        <polyline class="cls-8" points="1089.4 112.7 1089.4 275.5 1089.4 282.3 1089.4 283.9 1089.4 289.7"/>
        <polyline class="cls-8" points="1137.4 112.7 1137.4 275.51 1137.4 282.31 1137.4 283.9 1137.4 289.7"/>
        <polyline class="cls-8" points="1292.4 112.7 1292.4 275.51 1292.4 282.32 1292.4 283.9 1292.4 289.7"/>
        <polyline class="cls-8" points="1350 112.7 1350 275.48 1350 282.28 1350 283.9 1350 289.7"/>
        <polyline class="cls-8" points="1398.8 112.7 1398.8 275.47 1398.8 282.27 1398.8 283.9 1398.8 289.7"/>
        <polyline class="cls-8" points="1435.4 112.7 1435.4 275.48 1435.4 282.28 1435.4 283.9 1435.4 289.7"/>
        <polyline class="cls-8" points="1494.7 112.7 1494.7 275.48 1494.7 282.28 1494.7 283.9 1494.7 289.7"/>
        <polyline class="cls-8" points="1541.4 112.7 1541.4 275.49 1541.4 282.29 1541.4 283.9 1541.4 289.7"/>
        <polyline class="cls-8" points="1602.7 112.7 1602.7 275.49 1602.7 282.3 1602.7 283.9 1602.7 289.7"/>
        <polyline class="cls-8" points="1649.9 112.7 1649.9 203.74 1649.9 209.38 1649.9 220.75 1649.9 226.48 1649.9 275.51 1649.9 282.33 1649.9 283.9 1649.9 289.7"/>
        <path class="cls-21" d="M50.7,283.9c-1.47,2.5-2.3,5.4-2.3,8.5s.81,5.93,2.24,8.4H4.9c-2.71,0-4.9-2.19-4.9-4.9v-7.1c0-2.71,2.19-4.9,4.9-4.9h45.8Z"/>
        <path class="cls-21" d="M101.99,283.9l6.91,8.5-6.85,8.4h-22.09c1.43-2.47,2.24-5.34,2.24-8.4s-.83-6-2.3-8.5h22.09Z"/>
        <polygon class="cls-21" points="133.31 283.9 140.2 292.4 133.37 300.8 114.48 300.8 121.3 292.4 114.41 283.9 133.31 283.9"/>
        <polygon class="cls-21" points="164.71 283.9 171.6 292.4 164.77 300.8 145.85 300.8 152.7 292.4 145.79 283.9 164.71 283.9"/>
        <polygon class="cls-21" points="196.09 283.9 203 292.4 196.15 300.8 177.18 300.8 184 292.4 177.11 283.9 196.09 283.9"/>
        <path class="cls-21" d="M234.76,283.9c-.94,2.66-1.46,5.52-1.46,8.5s.5,5.77,1.43,8.4h-26.15l6.82-8.4-6.89-8.5h26.25Z"/>
        <path class="cls-21" d="M306.39,283.9l6.91,8.5-6.85,8.4h-23.98c.93-2.63,1.43-5.46,1.43-8.4s-.52-5.84-1.46-8.5h23.95Z"/>
        <polygon class="cls-21" points="337.71 283.9 344.6 292.4 337.77 300.8 318.85 300.8 325.7 292.4 318.79 283.9 337.71 283.9"/>
        <polygon class="cls-21" points="369.11 283.9 376 292.4 369.17 300.8 350.25 300.8 357.1 292.4 350.19 283.9 369.11 283.9"/>
        <polygon class="cls-21" points="400.49 283.9 407.4 292.4 400.55 300.8 381.58 300.8 388.4 292.4 381.51 283.9 400.49 283.9"/>
        <path class="cls-21" d="M435.4,283.9c-1.47,2.5-2.3,5.4-2.3,8.5s.81,5.93,2.24,8.4h-22.36l6.82-8.4-6.89-8.5h22.49Z"/>
        <path class="cls-21" d="M550.5,283.9c-1.47,2.5-2.3,5.4-2.3,8.5s.81,5.93,2.24,8.4h-85.78c1.43-2.47,2.24-5.34,2.24-8.4s-.83-6-2.3-8.5h85.9Z"/>
        <path class="cls-21" d="M598,283.9c-1.47,2.5-2.3,5.4-2.3,8.5s.81,5.93,2.24,8.4h-18.18c1.43-2.47,2.24-5.34,2.24-8.4s-.83-6-2.3-8.5h18.3Z"/>
        <path class="cls-21" d="M668.4,283.9c-1.47,2.5-2.3,5.4-2.3,8.5s.81,5.93,2.24,8.4h-41.08c1.43-2.47,2.24-5.34,2.24-8.4s-.83-6-2.3-8.5h41.2Z"/>
        <path class="cls-21" d="M717.9,283.9c-1.47,2.5-2.3,5.4-2.3,8.5s.81,5.93,2.24,8.4h-20.18c1.43-2.47,2.24-5.34,2.24-8.4s-.83-6-2.3-8.5h20.3Z"/>
        <path class="cls-21" d="M797.46,283.9c-.94,2.66-1.46,5.52-1.46,8.5s.5,5.77,1.43,8.4h-50.27c1.43-2.47,2.24-5.34,2.24-8.4s-.83-6-2.3-8.5h50.36Z"/>
        <path class="cls-21" d="M894.6,283.9c-1.47,2.5-2.3,5.4-2.3,8.5s.81,5.93,2.24,8.4h-49.37c.93-2.63,1.43-5.46,1.43-8.4s-.52-5.84-1.46-8.5h49.46Z"/>
        <path class="cls-21" d="M938.2,283.9c-1.47,2.5-2.3,5.4-2.3,8.5s.81,5.93,2.24,8.4h-14.28c1.43-2.47,2.24-5.34,2.24-8.4s-.83-6-2.3-8.5h14.4Z"/>
        <path class="cls-21" d="M1024.1,283.9c-1.47,2.5-2.3,5.4-2.3,8.5s.81,5.93,2.24,8.4h-56.58c1.43-2.47,2.24-5.34,2.24-8.4s-.83-6-2.3-8.5h56.7Z"/>
        <path class="cls-21" d="M1074.9,283.9c-1.47,2.5-2.3,5.4-2.3,8.5s.81,5.93,2.24,8.4h-21.48c1.43-2.47,2.24-5.34,2.24-8.4s-.83-6-2.3-8.5h21.6Z"/>
        <path class="cls-21" d="M1122.5,283.9c-1.47,2.5-2.3,5.4-2.3,8.5s.81,5.93,2.24,8.4h-18.28c1.43-2.47,2.24-5.34,2.24-8.4s-.83-6-2.3-8.5h18.4Z"/>
        <path class="cls-21" d="M1194.06,283.9c-.94,2.66-1.46,5.52-1.46,8.5s.5,5.77,1.43,8.4h-42.27c1.43-2.47,2.24-5.34,2.24-8.4s-.83-6-2.3-8.5h42.36Z"/>
        <path class="cls-21" d="M1278.4,283.9c-1.47,2.5-2.3,5.4-2.3,8.5s.81,5.93,2.24,8.4h-36.57c.93-2.63,1.43-5.46,1.43-8.4s-.52-5.84-1.46-8.5h36.66Z"/>
        <path class="cls-21" d="M1335.85,300.8h-28.19c1.43-2.47,2.24-5.34,2.24-8.4s-.83-6-2.3-8.5h28.04c-3.05,6.12-2.51,12.22.21,16.9Z"/>
        <path class="cls-21" d="M1384.05,300.8h-18.79c3.05-6.12,2.51-12.22-.21-16.9h18.79c-3.05,6.12-2.51,12.22.21,16.9Z"/>
        <path class="cls-21" d="M1421.05,300.8h-7.59c3.05-6.12,2.51-12.22-.21-16.9h7.59c-3.05,6.12-2.51,12.22.21,16.9Z"/>
        <path class="cls-21" d="M1480.55,300.8h-30.09c3.05-6.12,2.51-12.22-.21-16.9h30.09c-3.05,6.12-2.51,12.22.21,16.9Z"/>
        <path class="cls-21" d="M1527.45,300.8h-17.49c3.05-6.12,2.51-12.22-.21-16.9h17.49c-3.05,6.12-2.51,12.22.21,16.9Z"/>
        <path class="cls-21" d="M1588.85,300.8h-31.99c3.05-6.12,2.51-12.22-.21-16.9h31.99c-3.05,6.12-2.51,12.22.21,16.9Z"/>
        <path class="cls-21" d="M1636.45,300.8h-18.19c3.05-6.12,2.51-12.22-.21-16.9h18.19c-3.05,6.12-2.51,12.22.21,16.9Z"/>
        <path class="cls-21" d="M1697.46,283.9c-.94,2.66-1.46,5.52-1.46,8.5s.5,5.77,1.43,8.4h-31.57c3.05-6.12,2.51-12.22-.21-16.9h31.81Z"/>
        <path class="cls-21" d="M1833.6,288.8v7.1c0,2.71-2.19,4.9-4.9,4.9h-83.53c.93-2.63,1.43-5.46,1.43-8.4s-.52-5.84-1.46-8.5h83.56c2.71,0,4.9,2.19,4.9,4.9Z"/>
        <polygon class="cls-18" points="94.9 321.2 94.9 324.89 92.4 327.97 92.4 321.2 94.9 321.2"/>
        <path class="cls-18" d="M1048.8,292.4c0,3.51-1.79,6.6-4.5,8.4-1.6,1.08-3.53,1.7-5.6,1.7s-4-.62-5.6-1.7c-2.71-1.8-4.5-4.89-4.5-8.4s1.85-6.71,4.65-8.5c1.46-.95,3.19-1.52,5.05-1.59.13-.01.27-.01.4-.01,2.01,0,3.88.58,5.45,1.6,2.8,1.79,4.65,4.93,4.65,8.5Z"/>
        <path class="cls-18" d="M919.3,292.4c0,3.51-1.79,6.6-4.5,8.4-1.6,1.08-3.53,1.7-5.6,1.7s-4-.62-5.6-1.7c-2.71-1.8-4.5-4.89-4.5-8.4s1.85-6.71,4.65-8.5c1.57-1.02,3.44-1.6,5.45-1.6s3.88.58,5.45,1.6c2.8,1.79,4.65,4.93,4.65,8.5Z"/>
        <path class="cls-18" d="M962.9,292.4c0,3.51-1.79,6.6-4.5,8.4-1.6,1.08-3.53,1.7-5.6,1.7s-4-.62-5.6-1.7c-2.71-1.8-4.5-4.89-4.5-8.4s1.85-6.71,4.65-8.5c1.46-.95,3.19-1.52,5.05-1.59.13-.01.27-.01.4-.01,2.01,0,3.88.58,5.45,1.6,2.8,1.79,4.65,4.93,4.65,8.5Z"/>
        <path class="cls-18" d="M1099.6,292.4c0,3.51-1.79,6.6-4.5,8.4-1.6,1.08-3.53,1.7-5.6,1.7s-4-.62-5.6-1.7c-2.71-1.8-4.5-4.89-4.5-8.4s1.85-6.71,4.65-8.5c1.54-1,3.38-1.58,5.35-1.6h.1c2.01,0,3.88.58,5.45,1.6,2.8,1.79,4.65,4.93,4.65,8.5Z"/>
        <path class="cls-18" d="M1147.2,292.4c0,3.51-1.79,6.6-4.5,8.4-1.6,1.08-3.53,1.7-5.6,1.7s-4-.62-5.6-1.7c-2.71-1.8-4.5-4.89-4.5-8.4s1.85-6.71,4.65-8.5c1.57-1.02,3.44-1.6,5.45-1.6.1,0,.2,0,.3.01,1.89.05,3.66.63,5.15,1.59,2.8,1.79,4.65,4.93,4.65,8.5Z"/>
        <path class="cls-18" d="M1303.1,292.4c0,3.51-1.79,6.6-4.5,8.4-1.6,1.08-3.53,1.7-5.6,1.7s-4-.62-5.6-1.7c-2.71-1.8-4.5-4.89-4.5-8.4s1.85-6.71,4.65-8.5c1.41-.91,3.07-1.48,4.85-1.58.2,0,.4-.02.6-.02,2.01,0,3.88.58,5.45,1.6,2.8,1.79,4.65,4.93,4.65,8.5Z"/>
        <path class="cls-18" d="M1358.9,298.33c-.6,1.01-1.45,1.86-2.46,2.46,0,0,0,0-.01,0-4.22,2.51-8.51,2.08-11.59,0-4.17-2.82-6.13-8.64-2.74-14.33.63-1.06,1.54-1.95,2.62-2.56,0,0,.01,0,.02-.01,1.78-1.03,3.56-1.53,5.26-1.62,2.22-.1,4.29.5,6,1.62,4.28,2.76,6.33,8.67,2.9,14.43Z"/>
        <path class="cls-18" d="M1407.1,298.33c-.6,1.01-1.45,1.86-2.46,2.46,0,0,0,0-.01,0-4.22,2.51-8.51,2.08-11.59,0-4.17-2.82-6.13-8.64-2.74-14.33.63-1.06,1.54-1.95,2.62-2.56,0,0,.01,0,.02-.01,1.99-1.15,3.99-1.64,5.86-1.63,1.99.02,3.84.61,5.4,1.63,4.28,2.76,6.33,8.67,2.9,14.43Z"/>
        <path class="cls-18" d="M1444.1,298.33c-.6,1.01-1.45,1.86-2.46,2.46,0,0,0,0-.01,0-4.22,2.51-8.51,2.08-11.59,0-4.17-2.82-6.13-8.64-2.74-14.33.63-1.06,1.54-1.95,2.62-2.56,0,0,.01,0,.02-.01,1.85-1.07,3.7-1.57,5.46-1.62,2.14-.07,4.14.54,5.8,1.62,4.28,2.76,6.33,8.67,2.9,14.43Z"/>
        <path class="cls-18" d="M1503.5,298.33c-.6,1.01-1.45,1.86-2.46,2.46,0,0,0,0-.01,0-4.22,2.51-8.51,2.08-11.59,0-4.17-2.82-6.13-8.64-2.74-14.33.63-1.06,1.54-1.95,2.62-2.56,0,0,.01,0,.02-.01,1.81-1.05,3.63-1.55,5.36-1.62,2.18-.08,4.21.52,5.9,1.62,4.28,2.76,6.34,8.67,2.9,14.43Z"/>
        <path class="cls-18" d="M1550.4,298.33c-.6,1.01-1.45,1.86-2.46,2.46,0,0,0,0-.01,0-4.22,2.51-8.51,2.08-11.59,0-4.17-2.82-6.13-8.64-2.74-14.33.63-1.06,1.54-1.95,2.62-2.56,0,0,.01,0,.02-.01,1.74-1.01,3.49-1.51,5.16-1.61,2.26-.13,4.36.48,6.1,1.61,4.28,2.76,6.33,8.67,2.9,14.43Z"/>
        <path class="cls-18" d="M1611.9,298.33c-.6,1.01-1.45,1.86-2.46,2.46,0,0,0,0-.01,0-4.22,2.51-8.51,2.08-11.59,0-4.17-2.82-6.13-8.64-2.74-14.33.63-1.06,1.54-1.95,2.62-2.56,0,0,.01,0,.02-.01,1.67-.97,3.35-1.47,4.96-1.6,2.33-.18,4.51.43,6.3,1.6,4.28,2.76,6.33,8.67,2.9,14.43Z"/>
        <path class="cls-18" d="M1659.4,298.33c-.6,1.01-1.45,1.86-2.46,2.46,0,0,0,0-.01,0-4.22,2.51-8.51,2.08-11.59,0-4.17-2.82-6.13-8.64-2.74-14.33.63-1.06,1.54-1.95,2.62-2.56,0,0,.01,0,.02-.01,1.57-.91,3.14-1.41,4.66-1.57,2.44-.26,4.73.35,6.6,1.57,4.28,2.76,6.33,8.67,2.9,14.43Z"/>
        <path class="cls-18" d="M575.2,292.4c0,3.51-1.79,6.6-4.5,8.4-1.6,1.08-3.53,1.7-5.6,1.7s-4-.62-5.6-1.7c-2.71-1.8-4.5-4.89-4.5-8.4s1.85-6.71,4.65-8.5c1.57-1.02,3.44-1.6,5.45-1.6s3.88.58,5.45,1.6c2.8,1.79,4.65,4.93,4.65,8.5Z"/>
        <path class="cls-18" d="M622.7,292.4c0,3.51-1.79,6.6-4.5,8.4-1.6,1.08-3.53,1.7-5.6,1.7s-4-.62-5.6-1.7c-2.71-1.8-4.5-4.89-4.5-8.4s1.85-6.71,4.65-8.5c1.36-.88,2.94-1.43,4.65-1.57.26-.02.53-.03.8-.03,2.01,0,3.88.58,5.45,1.6,2.8,1.79,4.65,4.93,4.65,8.5Z"/>
        <path class="cls-18" d="M693.1,292.4c0,3.51-1.79,6.6-4.5,8.4-1.6,1.08-3.53,1.7-5.6,1.7s-4-.62-5.6-1.7c-2.71-1.8-4.5-4.89-4.5-8.4s1.85-6.71,4.65-8.5c1.46-.95,3.19-1.52,5.05-1.59.13-.01.27-.01.4-.01,2.01,0,3.88.58,5.45,1.6,2.8,1.79,4.65,4.93,4.65,8.5Z"/>
        <path class="cls-18" d="M742.6,292.4c0,3.51-1.79,6.6-4.5,8.4-1.6,1.08-3.53,1.7-5.6,1.7s-4-.62-5.6-1.7c-2.71-1.8-4.5-4.89-4.5-8.4s1.85-6.71,4.65-8.5c1.57-1.02,3.44-1.6,5.45-1.6.2,0,.4.01.6.02,1.78.1,3.44.67,4.85,1.58,2.8,1.79,4.65,4.93,4.65,8.5Z"/>
        <g>
          <path class="cls-18" d="M600.9,16.9c0,.5.3.9,1,1.2s1.7.7,3.1,1c1.4.4,2.5.7,3.2,1,1.2.5,2.1,1.2,2.9,2.3s1.1,2.3,1.1,3.9-.9,3.7-2.6,5.1c-1.7,1.4-4.2,2.2-7.3,2.2s-7.6-1.3-9.9-3.8l4.1-4.8c1.8,1.8,3.9,2.7,6.3,2.7s2.1-.4,2.1-1.3-.3-.8-.8-1.1-1.2-.6-2.1-.8-1.7-.5-2.7-.8c-1-.4-1.9-.8-2.7-1.3s-1.5-1.2-2.1-2.2-.8-2.1-.8-3.3c0-1.9.8-3.6,2.4-5,1.7-1.4,3.9-2.1,6.7-2.1,4.5,0,7.7,1.3,9.6,3.9l-4.1,4.4c-1.4-1.6-3.1-2.4-5.2-2.4s-2,.4-2,1.2h-.2Z"/>
          <path class="cls-18" d="M618.2,17h-4.2v-6.6h4.2v-3.7l7.5-2.3v6.1h5.7v6.6h-5.6v6.9c0,1.7.6,2.6,1.9,2.6s1.8-.4,2.3-1.1l3.3,5.6c-1.7,1.7-4,2.6-6.9,2.6s-4.6-.8-6.1-2.4-2.2-4-2.2-7v-7.1h0v-.2h.1Z"/>
          <path class="cls-18" d="M651.4,10.5v1.9c-1.3-1.7-2.6-2.6-5.7-2.6s-5.6,1.2-7.6,3.4c-2,2.3-3,5-3,8.5s1,6.3,3.1,8.5,5.1,3.3,7.5,3.3,4.3-.9,5.7-2.8v2.1h7.5V10.5h-7.5ZM650.1,25.1c-.8.9-1.9,1.4-3.1,1.4s-2.3-.5-3.1-1.4c-.9-.9-1.3-2-1.3-3.4s.5-2.6,1.3-3.5c.8-.9,1.9-1.4,3.1-1.4s2.3.5,3.1,1.4c.9,1,1.3,2.1,1.3,3.5s-.5,2.5-1.3,3.4Z"/>
          <path class="cls-18" d="M671.6,20.7v12.1h-7.5V10.4h7.5v3.5c1.2-2.8,3-4.2,5.3-4.2s2.8.4,3.7,1.3l-3.1,7.1c-.8-.7-1.8-1.1-3-1.1s-1.6.3-2.2,1-.8,1.6-.8,2.7h.1Z"/>
          <path class="cls-18" d="M686,17h-4.2v-6.6h4.2v-3.7l7.5-2.3v6.1h5.7v6.6h-5.6v6.9c0,1.7.6,2.6,1.9,2.6s1.8-.4,2.3-1.1l3.3,5.6c-1.7,1.7-4,2.6-6.9,2.6s-4.6-.8-6.1-2.4-2.2-4-2.2-7v-7.1h0v-.2h.1Z"/>
          <path class="cls-18" d="M735.8,13.4l-4.2,5.3c-1.2-1.2-2.8-1.9-4.6-1.9s-2.5.5-3.4,1.4-1.3,2.1-1.3,3.5.4,2.5,1.3,3.5c.9.9,2,1.4,3.4,1.4s3.4-.7,4.9-2.1l3.7,5.5c-.9,1.1-2.2,1.9-3.8,2.6s-3.3,1-5,1c-3.4,0-6.2-1.2-8.5-3.5-2.4-2.3-3.5-5.1-3.5-8.4s1.2-6.1,3.5-8.5c2.4-2.3,5.2-3.5,8.4-3.5s7,1.2,9.2,3.6h-.1v.1Z"/>
          <path class="cls-18" d="M746.4,20.7v12.1h-7.5V10.4h7.5v3.5c1.2-2.8,3-4.2,5.3-4.2s2.8.4,3.7,1.3l-3.1,7.1c-.8-.7-1.8-1.1-3-1.1s-1.6.3-2.2,1-.8,1.6-.8,2.7h.1Z"/>
          <path class="cls-18" d="M780.6,21.2c0-3.3-1.1-6-3.3-8.2s-5-3.3-8.3-3.3-6,1.2-8.2,3.5c-2.3,2.4-3.4,5.2-3.4,8.5s1.1,6.1,3.5,8.4c2.4,2.3,5.3,3.5,8.8,3.5l.1-.1c1.8,0,3.5-.3,5.1-1,1.6-.7,2.8-1.5,3.7-2.6l-3.8-5.1c-1.3,1.4-3.4,2.1-4.6,2.1s-2.3-.3-3.1-.9c-.8-.6-1.4-1.4-1.7-2.5h15.2v-2.3ZM765.4,19c.6-1.9,1.9-2.9,3.7-2.9h.1c1.8,0,3.1,1,3.7,2.9h-7.5Z"/>
          <path class="cls-18" d="M799.2,10.5v1.9c-1.3-1.7-2.6-2.6-5.7-2.6s-5.6,1.2-7.6,3.4c-2,2.3-3,5-3,8.5s1,6.3,3.1,8.5c2.1,2.2,5.1,3.3,7.5,3.3s4.3-.9,5.7-2.8v2.1h7.5V10.5h-7.5ZM797.9,25.1c-.8.9-1.9,1.4-3.1,1.4s-2.3-.5-3.1-1.4c-.9-.9-1.3-2-1.3-3.4s.5-2.6,1.3-3.5c.8-.9,1.9-1.4,3.1-1.4s2.3.5,3.1,1.4c.9,1,1.3,2.1,1.3,3.5s-.5,2.5-1.3,3.4Z"/>
          <path class="cls-18" d="M814,17h-4.2v-6.6h4.2v-3.7l7.5-2.3v6.1h5.7v6.6h-5.6v6.9c0,1.7.6,2.6,1.9,2.6s1.8-.4,2.3-1.1l3.3,5.6c-1.7,1.7-4,2.6-6.9,2.6s-4.6-.8-6.1-2.4-2.2-4-2.2-7v-7.1h0v-.2h.1Z"/>
          <path class="cls-18" d="M838.9,1.3c-.9-.9-1.9-1.3-3-1.3s-2,.4-2.9,1.2c-.7.6-1.1,1.3-1.2,2.2-.1.9,0,1.7.3,2.5.3.7.8,1.4,1.5,1.9.7.5,1.5.7,2.4.7,1.2,0,2.2-.3,3-1.2.8-.9,1.2-1.8,1.2-3s-.4-2.2-1.3-3ZM832.2,10.5v22.4h7.5V10.5h-7.5Z"/>
          <path class="cls-18" d="M852.4,20.5v12.3h-7.5V10.4h7.5v2.8c1.2-2.3,3.1-3.5,5.8-3.5s4.6.9,6.1,2.6,2.2,4.1,2.2,7.1v13.4h-7.5v-12.3c0-1.1-.3-2-.9-2.7s-1.4-1-2.4-1-1.8.3-2.4,1c-.6.7-.9,1.6-.9,2.7h0Z"/>
          <path class="cls-18" d="M886.2,10.6v1.8c-1.4-1.5-2.8-2.3-5.7-2.3s-5.2,1-7.2,3.1c-2,2-3,4.5-3,7.9s1,6.1,3,8.1c2,2.1,4.8,3.1,7.2,3.1s4.3-.9,5.7-2.7v2.1c0,1.3-.4,2.4-1.3,3.1-.9.7-1.3,1.1-3.5,1.1s-4.1-.7-5.8-2.1l-3.7,5.8v.1c2.2,2.1,5.5,3.1,10,3.1,2.8,0,5.3-.7,7.7-2.1,1.2-.8,2.3-2,3-3.6.7-1.6,1.1-3.5,1.1-5.7V10.6h-7.5ZM885,23.9c-.7.8-1.7,1.2-2.9,1.2s-2.2-.4-3-1.2c-.8-.7-1.2-1.7-1.2-2.9s.4-2.2,1.2-3,1.9-1.2,3-1.2,2.1.4,2.9,1.2c.8.8,1.2,1.9,1.2,3s-.4,2.1-1.2,2.9Z"/>
          <path class="cls-18" d="M934.5,24.8l3.1-14.4h8l-6.6,22.4h-9.4l-3-13-2.9,13h-8.5l-6.6-22.4h8l2.9,14.2,3.3-14.2h8.1l3.5,14.3h.1v.1Z"/>
          <path class="cls-18" d="M955.6,1.3c-.9-.9-1.9-1.3-3-1.3s-2,.4-2.9,1.2c-.7.6-1.1,1.3-1.2,2.2-.1.9,0,1.8.3,2.5.3.7.8,1.4,1.5,1.9.7.5,1.5.7,2.4.7,1.2,0,2.2-.3,3-1.2.8-.9,1.2-1.8,1.2-3s-.4-2.2-1.3-3ZM948.9,10.5v22.4h7.5V10.5h-7.5Z"/>
          <path class="cls-18" d="M963.7,17h-4.2v-6.6h4.2v-3.7l7.5-2.3v6.1h5.7v6.6h-5.6v6.9c0,1.7.6,2.6,1.9,2.6s1.8-.4,2.3-1.1l3.3,5.6c-1.7,1.7-4,2.6-6.9,2.6s-4.6-.8-6.1-2.4-2.2-4-2.2-7v-7.1h0v-.2h.1Z"/>
          <path class="cls-18" d="M989.4,20.5v12.3h-7.5V3l7.5-2.3v12.5c1.2-2.3,3.1-3.5,5.8-3.5s4.6.9,6.1,2.6,2.2,4.1,2.2,7.1v13.4h-7.5v-12.3c0-1.1-.3-2-.9-2.7s-1.4-1-2.4-1-1.8.3-2.4,1c-.6.7-.9,1.6-.9,2.7h0Z"/>
          <path class="cls-18" d="M1043.7,7c-3.3-2.8-7.3-4.2-12.2-4.2h-10.9v30h10.9v-.1c4.9,0,9-1.4,12.2-4.2,3.2-2.9,4.8-6.3,4.8-10.7s-1.5-8-4.8-10.8ZM1037.8,23.5c-1.6,1.4-3.7,2.1-6.4,2.1h-2.8v-15.5h2.8v.1c2.6,0,4.8.7,6.4,2.1,1.6,1.4,2.4,3.3,2.4,5.6s-.8,4.2-2.4,5.6Z"/>
          <path class="cls-18" d="M1067.4,10.5v1.9c-1.3-1.7-2.6-2.6-5.7-2.6s-5.6,1.2-7.6,3.4c-2,2.3-3,5-3,8.5s1,6.3,3.1,8.5,5.1,3.3,7.5,3.3,4.3-.9,5.7-2.8v2.1h7.5V10.5h-7.5ZM1066.1,25.1c-.8.9-1.9,1.4-3.1,1.4s-2.3-.5-3.1-1.4c-.9-.9-1.3-2-1.3-3.4s.5-2.6,1.3-3.5c.8-.9,1.9-1.4,3.1-1.4s2.3.5,3.1,1.4c.9,1,1.3,2.1,1.3,3.5s-.5,2.5-1.3,3.4Z"/>
          <path class="cls-18" d="M1082.2,17h-4.2v-6.6h4.2v-3.7l7.5-2.3v6.1h5.7v6.6h-5.6v6.9c0,1.7.6,2.6,1.9,2.6s1.8-.4,2.3-1.1l3.3,5.6c-1.7,1.7-4,2.6-6.9,2.6s-4.6-.8-6.1-2.4-2.2-4-2.2-7v-7.1h0v-.2h.1Z"/>
          <path class="cls-18" d="M1115.4,10.5v1.9c-1.3-1.7-2.6-2.6-5.7-2.6s-5.6,1.2-7.6,3.4c-2,2.3-3,5-3,8.5s1,6.3,3.1,8.5,5.1,3.3,7.5,3.3,4.3-.9,5.7-2.8v2.1h7.5V10.5h-7.5ZM1114.1,25.1c-.8.9-1.9,1.4-3.1,1.4s-2.3-.5-3.1-1.4c-.9-.9-1.3-2-1.3-3.4s.5-2.6,1.3-3.5c.8-.9,1.9-1.4,3.1-1.4s2.3.5,3.1,1.4c.9,1,1.3,2.1,1.3,3.5s-.5,2.5-1.3,3.4Z"/>
          <path class="cls-18" d="M1153.5,14.8l-8.7,12.7-8.7-12.6v18h-7.7V2.9h8.9l8.1,12.2,8.1-12.2h7.8v30h-7.7V14.8h-.1Z"/>
          <path class="cls-18" d="M1173.2,1.3c-.9-.9-1.9-1.3-3-1.3s-2,.4-2.9,1.2c-.7.6-1.1,1.3-1.2,2.2s0,1.8.3,2.5c.3.7.8,1.4,1.5,1.9.7.5,1.5.7,2.4.7,1.2,0,2.2-.3,3-1.2.8-.9,1.2-1.8,1.2-3s-.4-2.1-1.3-3ZM1166.6,10.5v22.4h7.5V10.5h-7.5Z"/>
          <path class="cls-18" d="M1186.8,20.5v12.3h-7.5V10.4h7.5v2.8c1.2-2.3,3.1-3.5,5.8-3.5s4.6.9,6.1,2.6,2.2,4.1,2.2,7.1v13.4h-7.5v-12.3c0-1.1-.3-2-.9-2.7s-1.4-1-2.4-1-1.8.3-2.4,1-.9,1.6-.9,2.7h0Z"/>
          <path class="cls-18" d="M1227.9,21.2c0-3.3-1.1-6-3.3-8.2-2.2-2.2-5-3.3-8.3-3.3s-6,1.2-8.2,3.5c-2.3,2.4-3.4,5.2-3.4,8.5s1.2,6.1,3.6,8.4,5.3,3.5,8.8,3.5v-.1c1.8,0,3.5-.3,5.1-1,1.6-.7,2.8-1.5,3.7-2.6l-3.8-5.1c-1.4,1.4-3.4,2.1-4.6,2.1s-2.3-.3-3.1-.9c-.8-.6-1.4-1.4-1.7-2.5h15.2v-2.3ZM1212.7,19c.6-1.9,1.9-2.9,3.7-2.9h.1c1.8,0,3.1,1,3.7,2.9h-7.5Z"/>
          <path class="cls-18" d="M1239.1,20.7v12.1h-7.5V10.4h7.5v3.5c1.2-2.8,3-4.2,5.3-4.2s2.8.4,3.7,1.3l-3.1,7.1c-.8-.7-1.8-1.1-3-1.1s-1.6.3-2.2,1-.8,1.6-.8,2.7h.1Z"/>
          <path class="cls-18" d="M1251.5,24.7h7.7l-4.2,13.4h-6.3l2.8-13.4h0Z"/>
          <path class="cls-18" d="M1296.4,13.1c-2.1-2.2-4.6-3.3-7.5-3.3v.1c-2.4,0-4.3.9-5.7,2.8V.8l-7.5,2.3v29.8h7.5v-1.9c1.3,1.7,2.6,2.6,5.7,2.6s5.6-1.1,7.6-3.4c2-2.2,3-4.9,3-8.5s-1-6.4-3.1-8.6ZM1290.7,25.2c-.8.9-1.9,1.4-3.1,1.4s-2.3-.5-3.1-1.4c-.9-1-1.3-2.1-1.3-3.5s.5-2.6,1.3-3.5c.8-.9,1.9-1.4,3.1-1.4s2.3.5,3.1,1.4c.9,1,1.3,2.1,1.3,3.5s-.5,2.6-1.3,3.5Z"/>
          <path class="cls-18" d="M1325.2,21.2c0-3.3-1.1-6-3.3-8.2-2.2-2.2-5-3.3-8.3-3.3s-6,1.2-8.2,3.5c-2.3,2.4-3.4,5.2-3.4,8.5s1.2,6.1,3.6,8.4,5.3,3.5,8.8,3.5v-.1c1.8,0,3.5-.3,5.1-1,1.6-.7,2.8-1.5,3.7-2.6l-3.8-5.1c-1.4,1.4-3.4,2.1-4.6,2.1s-2.3-.3-3.1-.9c-.8-.6-1.4-1.4-1.7-2.5h15.2v-2.3ZM1310,19c.6-1.9,1.9-2.9,3.7-2.9h.1c1.8,0,3.1,1,3.7,2.9h-7.5Z"/>
          <path class="cls-18" d="M1355.5,10.5v1.9c-1.3-1.7-2.6-2.6-5.7-2.6s-5.6,1.2-7.6,3.4c-2,2.3-3,5-3,8.5s1,6.3,3.1,8.5,5.1,3.3,7.5,3.3,4.3-.9,5.7-2.8v2.1h7.5V10.5h-7.5ZM1354.2,25.1c-.8.9-1.9,1.4-3.1,1.4s-2.3-.5-3.1-1.4c-.9-.9-1.3-2-1.3-3.4s.5-2.6,1.3-3.5c.8-.9,1.9-1.4,3.1-1.4s2.3.5,3.1,1.4c.9,1,1.3,2.1,1.3,3.5s-.5,2.5-1.3,3.4Z"/>
          <path class="cls-18" d="M1388,13.4l-4.2,5.3c-1.2-1.2-2.8-1.9-4.6-1.9s-2.6.5-3.4,1.4c-.9.9-1.3,2.1-1.3,3.5s.4,2.5,1.3,3.5c.9.9,2,1.4,3.4,1.4s3.4-.7,4.9-2.1l3.7,5.5c-.9,1.1-2.2,1.9-3.8,2.6s-3.3,1-5.1,1c-3.4,0-6.2-1.2-8.6-3.5s-3.6-5.1-3.6-8.4,1.2-6.1,3.5-8.5c2.4-2.3,5.2-3.5,8.4-3.5s6.9,1.2,9.2,3.6h.2v.1Z"/>
          <path class="cls-18" d="M1393.2,17h-4.2v-6.6h4.2v-3.7l7.5-2.3v6.1h5.7v6.6h-5.6v6.9c0,1.7.6,2.6,1.9,2.6s1.8-.4,2.3-1.1l3.3,5.6c-1.7,1.7-4,2.6-6.9,2.6s-4.6-.8-6.1-2.4-2.2-4-2.2-7v-7.1h0v-.2h.1Z"/>
          <path class="cls-18" d="M1418,1.3c-.9-.9-1.9-1.3-3-1.3s-2,.4-2.9,1.2c-.7.6-1.1,1.3-1.2,2.2-.1.9,0,1.8.3,2.5s.8,1.4,1.5,1.9,1.5.7,2.4.7c1.2,0,2.2-.3,3-1.2.8-.9,1.2-1.8,1.2-3s-.4-2.1-1.3-3ZM1411.4,10.5v22.4h7.5V10.5h-7.5Z"/>
          <path class="cls-18" d="M1434.7,26.2l4.7-15.8h7.6l-7.6,22.4h-9.8l-7.7-22.4h8.3l4.5,15.8Z"/>
          <path class="cls-18" d="M1471.9,21.2c0-3.3-1.1-6-3.3-8.2-2.2-2.2-5-3.3-8.3-3.3s-6,1.2-8.2,3.5c-2.3,2.4-3.4,5.2-3.4,8.5s1.2,6.1,3.6,8.4,5.3,3.5,8.8,3.5v-.1c1.8,0,3.5-.3,5.1-1,1.6-.7,2.8-1.5,3.7-2.6l-3.8-5.1c-1.4,1.4-3.4,2.1-4.6,2.1s-2.3-.3-3.1-.9c-.8-.6-1.4-1.4-1.7-2.5h15.2v-2.3ZM1456.8,19c.6-1.9,1.9-2.9,3.7-2.9h.1c1.8,0,3.1,1,3.7,2.9h-7.5Z"/>
          <path class="cls-18" d="M1506.3,13.1c-2.4-2.3-5.2-3.5-8.4-3.5s-6,1.2-8.4,3.5c-2.3,2.4-3.5,5.2-3.5,8.5s1.2,6.1,3.5,8.4c2.3,2.3,5.1,3.5,8.4,3.5s6.1-1.2,8.4-3.5c2.3-2.3,3.5-5.1,3.5-8.4s-1.2-6.2-3.5-8.5ZM1501,25.1c-.8.9-1.9,1.4-3.1,1.4s-2.3-.5-3.1-1.4c-.9-.9-1.3-2-1.3-3.4s.5-2.6,1.3-3.5c.8-.9,1.9-1.4,3.1-1.4s2.3.5,3.1,1.4c.9,1,1.3,2.1,1.3,3.5s-.5,2.5-1.3,3.4Z"/>
          <path class="cls-18" d="M1521.2,20.5v12.3h-7.5V10.4h7.5v2.8c1.2-2.3,3.1-3.5,5.8-3.5s4.6.9,6.1,2.6,2.2,4.1,2.2,7.1v13.4h-7.5v-12.3c0-1.1-.3-2-.9-2.7s-1.4-1-2.4-1-1.8.3-2.4,1-.9,1.6-.9,2.7h0Z"/>
          <path class="cls-18" d="M1575.5,7c-3.3-2.8-7.3-4.2-12.2-4.2h-10.9v30h10.9v-.1c4.9,0,9-1.4,12.2-4.2,3.2-2.9,4.8-6.3,4.8-10.7s-1.5-8-4.8-10.8ZM1569.5,23.5c-1.6,1.4-3.7,2.1-6.4,2.1h-2.8v-15.5h2.8v.1c2.6,0,4.8.7,6.4,2.1,1.6,1.4,2.4,3.3,2.4,5.6s-.8,4.2-2.4,5.6Z"/>
          <path class="cls-18" d="M1603.2,13.1c-2.4-2.3-5.2-3.5-8.4-3.5s-6,1.2-8.4,3.5c-2.3,2.4-3.5,5.2-3.5,8.5s1.2,6.1,3.5,8.4c2.3,2.3,5.1,3.5,8.4,3.5s6.1-1.2,8.4-3.5c2.3-2.3,3.5-5.1,3.5-8.4s-1.2-6.2-3.5-8.5ZM1597.9,25.1c-.8.9-1.9,1.4-3.1,1.4s-2.3-.5-3.1-1.4c-.9-.9-1.3-2-1.3-3.4s.5-2.6,1.3-3.5c.8-.9,1.9-1.4,3.1-1.4s2.3.5,3.1,1.4c.9,1,1.3,2.1,1.3,3.5s-.5,2.5-1.3,3.4Z"/>
          <path class="cls-18" d="M1610.5,10.5v21.9c0,1.1-.3,1.9-.7,2.5s-.8.9-1.7.9-1.8-.3-2.6-1l-3.5,5.6c1.6,1.5,3.5,2.3,6.5,2.3s5.3-1,7-2.9c1.7-1.9,2.5-4.5,2.5-7.7V10.5h-7.5ZM1617.2,1.3c-.9-.9-1.9-1.3-3-1.3s-2,.4-2.9,1.2c-.7.6-1.1,1.3-1.2,2.2s0,1.8.3,2.5c.3.7.8,1.4,1.5,1.9.7.5,1.2.7,2.4.7s2.2-.3,3-1.2c.8-.9,1.2-1.8,1.2-3s-.4-2.1-1.3-3Z"/>
          <path class="cls-18" d="M1642.2,13.1c-2.4-2.3-5.2-3.5-8.4-3.5s-6,1.2-8.4,3.5c-2.3,2.4-3.5,5.2-3.5,8.5s1.2,6.1,3.5,8.4c2.3,2.3,5.1,3.5,8.4,3.5s6.1-1.2,8.4-3.5c2.3-2.3,3.5-5.1,3.5-8.4s-1.2-6.2-3.5-8.5ZM1636.9,25.1c-.8.9-1.9,1.4-3.1,1.4s-2.3-.5-3.1-1.4c-.9-.9-1.3-2-1.3-3.4s.5-2.6,1.3-3.5c.8-.9,1.9-1.4,3.1-1.4s2.3.5,3.1,1.4c.9,1,1.3,2.1,1.3,3.5s-.5,2.5-1.3,3.4Z"/>
          <path class="cls-18" d="M579.3,66.4v1.9c-1.3-1.7-2.6-2.6-5.7-2.6s-5.6,1.2-7.6,3.4c-2,2.4-3,5-3,8.6s1,6.4,3.1,8.6c2.1,2.2,5.1,3.3,7.5,3.3s4.3-.9,5.7-2.8v2.1h7.5v-22.5h-7.5ZM577.9,81.2c-.8.9-1.9,1.4-3.1,1.4s-2.3-.5-3.1-1.4c-.9-.9-1.3-2-1.3-3.4s.5-2.6,1.3-3.5c.8-.9,1.9-1.4,3.1-1.4s2.2.4,3.1,1.4c.9,1,1.3,2.1,1.3,3.5s-.5,2.5-1.3,3.4Z"/>
          <path class="cls-18" d="M599.4,76.6v12.3h-7.5v-22.4h7.5v2.8c1.2-2.3,3.1-3.5,5.8-3.5s4.6.9,6.1,2.6,2.2,4.1,2.2,7.1v13.4h-7.5v-12.3c0-1.1-.3-2-.9-2.7-.6-.7-1.4-1-2.4-1s-1.8.3-2.4,1-.9,1.6-.9,2.7h0Z"/>
          <path class="cls-18" d="M633.7,59.1v9.3c-1.3-1.7-2.6-2.6-5.7-2.6s-5.6,1.2-7.6,3.4c-2,2.4-3,5-3,8.6s1,6.4,3.1,8.6c2.1,2.2,5.1,3.3,7.5,3.3s4.3-.9,5.7-2.8v2.1h7.5v-32.2l-7.5,2.3ZM632.4,81.2c-.8.9-1.9,1.4-3.1,1.4s-2.3-.5-3.1-1.4c-.9-.9-1.3-2-1.3-3.4s.5-2.6,1.3-3.5c.8-.9,1.9-1.4,3.1-1.4s2.2.4,3.1,1.4c.9,1,1.3,2.1,1.3,3.5s-.5,2.5-1.3,3.4Z"/>
          <path class="cls-18" d="M665.5,88.9h-7.5v-29.8l7.5-2.3v32.2h0v-.1Z"/>
          <path class="cls-18" d="M692.6,77.2c0-3.3-1.1-6-3.3-8.2s-5-3.3-8.3-3.3-6,1.2-8.2,3.5c-2.3,2.4-3.4,5.2-3.4,8.5s1.1,6.1,3.5,8.4c2.4,2.3,5.3,3.5,8.8,3.5l.1-.1c1.8,0,3.5-.3,5.1-1,1.6-.7,2.8-1.5,3.7-2.6l-3.8-5.1c-1.3,1.4-3.4,2.1-4.6,2.1s-2.3-.3-3.1-.9c-.8-.6-1.4-1.4-1.7-2.5h15.2v-2.3ZM677.4,75.1c.6-1.9,1.9-2.9,3.7-2.9h.1c1.8,0,3.1,1,3.7,2.9h-7.5Z"/>
          <path class="cls-18" d="M706.9,82.3l4.7-15.8h7.6l-7.6,22.4h-9.8l-7.7-22.4h8.3l4.5,15.8h0Z"/>
          <path class="cls-18" d="M744.2,77.2c0-3.3-1.1-6-3.3-8.2-2.2-2.2-5-3.3-8.3-3.3s-6,1.2-8.2,3.5c-2.3,2.4-3.4,5.2-3.4,8.5s1.1,6.1,3.5,8.4c2.4,2.3,5.3,3.5,8.8,3.5l.1-.1c1.8,0,3.5-.3,5.1-1,1.6-.7,2.8-1.5,3.7-2.6l-3.8-5.1c-1.3,1.4-3.4,2.1-4.6,2.1s-2.3-.3-3.1-.9c-.8-.6-1.4-1.4-1.7-2.5h15.2v-2.3ZM728.9,75.1c.6-1.9,1.9-2.9,3.7-2.9h.1c1.8,0,3.1,1,3.7,2.9h-7.5Z"/>
          <path class="cls-18" d="M755.3,88.9h-7.5v-29.8l7.5-2.3v32.2h0v-.1Z"/>
          <path class="cls-18" d="M771.4,66.5h7.5v11.8c0,1.3.3,2.3,1,3.1.7.8,1.5,1.2,2.6,1.2s1.9-.4,2.5-1.2,1-1.8,1-3.1v-11.8h7.5v12.3c0,3.2-1,5.8-3,7.8s-4.7,2.9-8,2.9-6-1-8-2.9c-2-2-3-4.6-3-7.8v-12.3h-.1Z"/>
          <path class="cls-18" d="M818.6,69.2c-2.1-2.2-5.1-3.3-7.5-3.3s-4.3.9-5.7,2.8v-2.1h-7.5v31.5h7.5v-11c1.3,1.7,2.6,2.6,5.7,2.6s5.6-1.1,7.6-3.4c2-2.2,3-5,3-8.5s-1-6.4-3.1-8.6ZM813,81.3c-.8.9-1.9,1.4-3.1,1.4s-2.2-.4-3.1-1.4c-.9-1-1.3-2.1-1.3-3.5s.5-2.6,1.3-3.5c.8-1,1.9-1.4,3.1-1.4s2.3.5,3.1,1.4c.9,1,1.3,2.1,1.3,3.5s-.5,2.6-1.3,3.5Z"/>
          <path class="cls-18" d="M834.9,66.5h8.3l5.3,12.9,4.3-12.9h7.6l-8.5,24.3c-1.8,5.3-5,7.9-9.6,7.9s-5.1-.9-7-2.7l3.3-5.9c1.1,1,2.3,1.5,3.7,1.5s2.3-.8,3-2.4l-10.3-22.8h0l-.1.1Z"/>
          <path class="cls-18" d="M882.4,69.2c-2.4-2.3-5.2-3.5-8.4-3.5s-6,1.2-8.4,3.5c-2.3,2.4-3.5,5.2-3.5,8.5s1.2,6.1,3.5,8.4c2.3,2.3,5.1,3.5,8.4,3.5s6.1-1.2,8.4-3.5,3.5-5.1,3.5-8.4-1.2-6.2-3.5-8.5ZM877.1,81.2c-.8.9-1.9,1.4-3.1,1.4s-2.3-.5-3.1-1.4c-.9-.9-1.3-2-1.3-3.4s.5-2.6,1.3-3.5c.8-.9,1.9-1.4,3.1-1.4s2.2.4,3.1,1.4c.9,1,1.3,2.1,1.3,3.5s-.5,2.5-1.3,3.4Z"/>
          <path class="cls-18" d="M889,66.5h7.5v11.8c0,1.3.3,2.3,1,3.1.7.8,1.5,1.2,2.6,1.2s1.9-.4,2.5-1.2,1-1.8,1-3.1v-11.8h7.5v12.3c0,3.2-1,5.8-3,7.8s-4.7,2.9-8,2.9-6-1-8-2.9c-2-2-3-4.6-3-7.8v-12.3h-.1Z"/>
          <path class="cls-18" d="M923.1,76.8v12.1h-7.5v-22.4h7.5v3.5c1.2-2.8,3-4.2,5.3-4.2s2.8.4,3.7,1.3l-3.1,7.1c-.8-.7-1.8-1.1-3-1.1s-1.6.3-2.2,1c-.5.7-.8,1.6-.8,2.7h.1Z"/>
          <path class="cls-18" d="M954.6,76.8v12.1h-7.5v-22.4h7.5v3.5c1.2-2.8,3-4.2,5.3-4.2s2.8.4,3.7,1.3l-3.1,7.1c-.8-.7-1.8-1.1-3-1.1s-1.6.3-2.2,1c-.5.7-.8,1.6-.8,2.7h.1Z"/>
          <path class="cls-18" d="M988.9,77.2c0-3.3-1.1-6-3.3-8.2-2.2-2.2-5-3.3-8.3-3.3s-6,1.2-8.2,3.5c-2.3,2.4-3.4,5.2-3.4,8.5s1.1,6.1,3.5,8.4,5.3,3.5,8.8,3.5l.1-.1c1.8,0,3.5-.3,5.1-1,1.6-.7,2.8-1.5,3.7-2.6l-3.8-5.1c-1.4,1.4-3.4,2.1-4.6,2.1s-2.3-.3-3.1-.9c-.8-.6-1.4-1.4-1.7-2.5h15.2v-2.3ZM973.6,75.1c.6-1.9,1.9-2.9,3.7-2.9h.1c1.8,0,3.1,1,3.7,2.9h-7.5Z"/>
          <path class="cls-18" d="M1013.2,69.2c-2.1-2.2-5.1-3.3-7.5-3.3s-4.3.9-5.7,2.8v-2.1h-7.5v31.5h7.5v-11c1.3,1.7,2.6,2.6,5.7,2.6s5.6-1.1,7.6-3.4c2-2.2,3-5,3-8.5s-1-6.4-3.1-8.6ZM1007.5,81.3c-.8.9-1.9,1.4-3.1,1.4s-2.3-.5-3.1-1.4c-.9-1-1.3-2.1-1.3-3.5s.5-2.6,1.3-3.5c.8-1,1.9-1.4,3.1-1.4s2.3.5,3.1,1.4c.9,1,1.3,2.1,1.3,3.5s-.5,2.6-1.3,3.5Z"/>
          <path class="cls-18" d="M1019.5,66.5h7.5v11.8c0,1.3.3,2.3,1,3.1.7.8,1.5,1.2,2.6,1.2s1.9-.4,2.6-1.2,1-1.8,1-3.1v-11.8h7.5v12.3c0,3.2-1,5.8-3,7.8s-4.7,2.9-8,2.9-6-1-8-2.9-3-4.6-3-7.8v-12.3s-.2,0-.2,0Z"/>
          <path class="cls-18" d="M1048.1,73.1h-4.2v-6.6h4.2v-3.7l7.5-2.3v6.1h5.7v6.6h-5.6v6.9c0,1.7.6,2.6,1.9,2.6s1.8-.4,2.3-1.1l3.3,5.6c-1.7,1.7-4,2.6-6.9,2.6s-4.6-.8-6.1-2.4-2.2-4-2.2-7v-7.1h0v-.2h.1Z"/>
          <path class="cls-18" d="M1081.4,66.4v1.9c-1.3-1.7-2.6-2.6-5.7-2.6s-5.6,1.2-7.6,3.4c-2,2.4-3,5-3,8.6s1,6.4,3.1,8.6c2.1,2.2,5.1,3.3,7.5,3.3s4.3-.9,5.7-2.8v2.1h7.5v-22.5h-7.5ZM1080,81.2c-.8.9-1.9,1.4-3.1,1.4s-2.3-.5-3.1-1.4c-.9-.9-1.3-2-1.3-3.4s.5-2.6,1.3-3.5c.8-.9,1.9-1.4,3.1-1.4s2.2.4,3.1,1.4c.9,1,1.3,2.1,1.3,3.5s-.5,2.5-1.3,3.4Z"/>
          <path class="cls-18" d="M1096.1,73.1h-4.2v-6.6h4.2v-3.7l7.5-2.3v6.1h5.7v6.6h-5.6v6.9c0,1.7.6,2.6,1.9,2.6s1.8-.4,2.3-1.1l3.3,5.6c-1.7,1.7-4,2.6-6.9,2.6s-4.6-.8-6.1-2.4-2.2-4-2.2-7v-7.1h0v-.2h.1Z"/>
          <path class="cls-18" d="M1121,57.4c-.9-.9-1.9-1.3-3-1.3s-2,.4-2.9,1.2c-.7.6-1.2,1.3-1.2,2.2-.1.8,0,1.6.3,2.4.3.7.8,1.4,1.5,1.9s1.5.7,2.4.7v.1c1.2,0,2.2-.3,3-1.2.8-.9,1.2-1.8,1.2-3s-.4-2.2-1.3-3ZM1114.3,66.5v22.4h7.5v-22.4h-7.5Z"/>
          <path class="cls-18" d="M1146,69.2c-2.4-2.3-5.2-3.5-8.4-3.5s-6,1.2-8.4,3.5c-2.3,2.4-3.5,5.2-3.5,8.5s1.2,6.1,3.5,8.4,5.1,3.5,8.4,3.5,6.1-1.2,8.4-3.5c2.3-2.3,3.5-5.1,3.5-8.4s-1.2-6.2-3.5-8.5ZM1140.7,81.2c-.8.9-1.9,1.4-3.1,1.4s-2.3-.5-3.1-1.4c-.9-.9-1.3-2-1.3-3.4s.5-2.6,1.3-3.5c.8-.9,1.9-1.4,3.1-1.4s2.2.4,3.1,1.4,1.3,2.1,1.3,3.5-.5,2.5-1.3,3.4Z"/>
          <path class="cls-18" d="M1160.9,76.6v12.3h-7.5v-22.4h7.5v2.8c1.2-2.3,3.1-3.5,5.8-3.5s4.6.9,6.1,2.6,2.2,4.1,2.2,7.1v13.4h-7.5v-12.3c0-1.1-.3-2-.9-2.7s-1.4-1-2.4-1-1.8.3-2.4,1-.9,1.6-.9,2.7h0Z"/>
          <path class="cls-18" d="M1193.9,73.1h-4.2v-6.6h4.2v-3.7l7.5-2.3v6.1h5.7v6.6h-5.6v6.9c0,1.7.6,2.6,1.9,2.6s1.8-.4,2.3-1.1l3.3,5.6c-1.7,1.7-4,2.6-6.9,2.6s-4.6-.8-6.1-2.4-2.2-4-2.2-7v-7.1h0v-.2h.1Z"/>
          <path class="cls-18" d="M1231.1,69.2c-2.4-2.3-5.2-3.5-8.4-3.5s-6,1.2-8.4,3.5c-2.3,2.4-3.5,5.2-3.5,8.5s1.2,6.1,3.5,8.4c2.3,2.3,5.1,3.5,8.4,3.5s6.1-1.2,8.4-3.5c2.3-2.3,3.5-5.1,3.5-8.4s-1.2-6.2-3.5-8.5ZM1225.8,81.2c-.8.9-1.9,1.4-3.1,1.4s-2.3-.5-3.1-1.4c-.9-.9-1.3-2-1.3-3.4s.5-2.6,1.3-3.5c.8-.9,1.9-1.4,3.1-1.4s2.2.4,3.1,1.4,1.3,2.1,1.3,3.5-.5,2.5-1.3,3.4Z"/>
          <path class="cls-18" d="M1272,77.2c0-3.3-1.1-6-3.3-8.2-2.2-2.2-5-3.3-8.3-3.3s-6,1.2-8.2,3.5c-2.3,2.4-3.4,5.2-3.4,8.5s1.2,6.1,3.6,8.4c2.4,2.3,5.3,3.5,8.8,3.5v-.1c1.8,0,3.5-.3,5.1-1,1.6-.7,2.8-1.5,3.7-2.6l-3.8-5.1c-1.4,1.4-3.4,2.1-4.6,2.1s-2.3-.3-3.1-.9c-.8-.6-1.4-1.4-1.7-2.5h15.2v-2.3ZM1256.8,75.1c.6-1.9,1.9-2.9,3.7-2.9h.1c1.8,0,3.1,1,3.7,2.9h-7.5Z"/>
          <path class="cls-18" d="M1283.2,76.6v12.3h-7.5v-22.4h7.5v2.8c1.2-2.3,3.1-3.5,5.8-3.5s4.6.9,6.1,2.6,2.2,4.1,2.2,7.1v13.4h-7.5v-12.3c0-1.1-.3-2-.9-2.7s-1.4-1-2.4-1-1.8.3-2.4,1-.9,1.6-.9,2.7h0Z"/>
          <path class="cls-18" d="M1304.6,73.1h-4.2v-6.6h4.2v-3.7l7.5-2.3v6.1h5.7v6.6h-5.6v6.9c0,1.7.6,2.6,1.9,2.6s1.8-.4,2.3-1.1l3.3,5.6c-1.7,1.7-4,2.6-6.9,2.6s-4.6-.8-6.1-2.4-2.2-4-2.2-7v-7.1h0v-.2h.1Z"/>
          <path class="cls-18" d="M1344.6,77.2c0-3.3-1.1-6-3.3-8.2-2.2-2.2-5-3.3-8.3-3.3s-6,1.2-8.2,3.5c-2.3,2.4-3.4,5.2-3.4,8.5s1.2,6.1,3.6,8.4c2.4,2.3,5.3,3.5,8.8,3.5v-.1c1.8,0,3.5-.3,5.1-1,1.6-.7,2.8-1.5,3.7-2.6l-3.8-5.1c-1.4,1.4-3.4,2.1-4.6,2.1s-2.3-.3-3.1-.9c-.8-.6-1.4-1.4-1.7-2.5h15.2v-2.3ZM1329.5,75.1c.6-1.9,1.9-2.9,3.7-2.9h.1c1.8,0,3.1,1,3.7,2.9h-7.5Z"/>
          <path class="cls-18" d="M1355.8,76.8v12.1h-7.5v-22.4h7.5v3.5c1.2-2.8,3-4.2,5.3-4.2s2.8.4,3.7,1.3l-3.1,7.1c-.8-.7-1.8-1.1-3-1.1s-1.6.3-2.2,1c-.5.7-.8,1.6-.8,2.7h.1Z"/>
          <path class="cls-18" d="M1381.9,73.1h-4.2v-6.6h4.2v-3.7l7.5-2.3v6.1h5.7v6.6h-5.6v6.9c0,1.7.6,2.6,1.9,2.6s1.8-.4,2.3-1.1l3.3,5.6c-1.7,1.7-4,2.6-6.9,2.6s-4.6-.8-6.1-2.4-2.2-4-2.2-7v-7.1h0v-.2h.1Z"/>
          <path class="cls-18" d="M1407.7,76.6v12.3h-7.5v-29.8l7.5-2.3v12.5c1.2-2.3,3.1-3.5,5.8-3.5s4.6.9,6.1,2.6,2.2,4.1,2.2,7.1v13.4h-7.5v-12.3c0-1.1-.3-2-.9-2.7s-1.4-1-2.4-1-1.8.3-2.4,1-.9,1.6-.9,2.7h0Z"/>
          <path class="cls-18" d="M1448.8,77.2c0-3.3-1.1-6-3.3-8.2-2.2-2.2-5-3.3-8.3-3.3s-6,1.2-8.2,3.5c-2.3,2.4-3.4,5.2-3.4,8.5s1.2,6.1,3.6,8.4,5.3,3.5,8.8,3.5v-.1c1.8,0,3.5-.3,5.1-1,1.6-.7,2.8-1.5,3.7-2.6l-3.8-5.1c-1.4,1.4-3.4,2.1-4.6,2.1s-2.3-.3-3.1-.9c-.8-.6-1.4-1.4-1.7-2.5h15.2v-2.3ZM1433.6,75.1c.6-1.9,1.9-2.9,3.7-2.9h.1c1.8,0,3.1,1,3.7,2.9h-7.5Z"/>
          <path class="cls-18" d="M1471.7,76.6v12.3h-7.5v-22.4h7.5v2.8c1.2-2.3,3.1-3.5,5.8-3.5s4.6.9,6.1,2.6,2.2,4.1,2.2,7.1v13.4h-7.5v-12.3c0-1.1-.3-2-.9-2.7s-1.4-1-2.4-1-1.8.3-2.4,1-.9,1.6-.9,2.7h0Z"/>
          <path class="cls-18" d="M1512.8,77.2c0-3.3-1.1-6-3.3-8.2-2.2-2.2-5-3.3-8.3-3.3s-6,1.2-8.2,3.5c-2.3,2.4-3.4,5.2-3.4,8.5s1.2,6.1,3.6,8.4,5.3,3.5,8.8,3.5v-.1c1.8,0,3.5-.3,5.1-1,1.6-.7,2.8-1.5,3.7-2.6l-3.8-5.1c-1.4,1.4-3.4,2.1-4.6,2.1s-2.3-.3-3.1-.9c-.8-.6-1.4-1.4-1.7-2.5h15.2v-2.3ZM1497.6,75.1c.6-1.9,1.9-2.9,3.7-2.9h.1c1.8,0,3.1,1,3.7,2.9h-7.5Z"/>
          <path class="cls-18" d="M1540,88.9h-9.3l-3.9-5.5-4.1,5.5h-8.4l8.3-11.2-8.1-11.2h9.3l3.7,5.1,3.8-5.1h8.4l-8.1,10.9,8.3,11.5h.1Z"/>
          <path class="cls-18" d="M1545.2,73.1h-4.2v-6.6h4.2v-3.7l7.5-2.3v6.1h5.7v6.6h-5.6v6.9c0,1.7.6,2.6,1.9,2.6s1.8-.4,2.3-1.1l3.3,5.6c-1.7,1.7-4,2.6-6.9,2.6s-4.6-.8-6.1-2.4-2.2-4-2.2-7v-7.1h0v-.2h.1Z"/>
          <path class="cls-18" d="M1582.6,88.9h-7.5v-29.8l7.5-2.3v32.2h0v-.1Z"/>
          <path class="cls-18" d="M1609.6,77.2c0-3.3-1.1-6-3.3-8.2-2.2-2.2-5-3.3-8.3-3.3s-6,1.2-8.2,3.5c-2.3,2.4-3.4,5.2-3.4,8.5s1.2,6.1,3.6,8.4c2.4,2.3,5.3,3.5,8.8,3.5v-.1c1.8,0,3.5-.3,5.1-1,1.6-.7,2.8-1.5,3.7-2.6l-3.8-5.1c-1.4,1.4-3.4,2.1-4.6,2.1s-2.3-.3-3.1-.9c-.8-.6-1.4-1.4-1.7-2.5h15.2v-2.3ZM1594.4,75.1c.6-1.9,1.9-2.9,3.7-2.9h.1c1.8,0,3.1,1,3.7,2.9h-7.5Z"/>
          <path class="cls-18" d="M1623.9,82.3l4.7-15.8h7.6l-7.6,22.4h-9.8l-7.7-22.4h8.3l4.5,15.8Z"/>
          <path class="cls-18" d="M1661.1,77.2c0-3.3-1.1-6-3.3-8.2-2.2-2.2-5-3.3-8.3-3.3s-6,1.2-8.2,3.5c-2.3,2.4-3.4,5.2-3.4,8.5s1.2,6.1,3.6,8.4c2.4,2.3,5.3,3.5,8.8,3.5v-.1c1.8,0,3.5-.3,5.1-1,1.6-.7,2.8-1.5,3.7-2.6l-3.8-5.1c-1.4,1.4-3.4,2.1-4.6,2.1s-2.3-.3-3.1-.9c-.8-.6-1.4-1.4-1.7-2.5h15.2v-2.3ZM1646,75.1c.6-1.9,1.9-2.9,3.7-2.9h.1c1.8,0,3.1,1,3.7,2.9h-7.5Z"/>
          <path class="cls-18" d="M1672.3,88.9h-7.5v-29.8l7.5-2.3v32.2h0v-.1Z"/>
          <path class="cls-18" d="M1685.2,81.7c-.9-1-2-1.4-3.3-1.4s-2.4.5-3.3,1.4c-.9.9-1.3,2-1.3,3.3s.4,2.3,1.3,3.3,2,1.4,3.3,1.4,2.4-.5,3.3-1.4c1-.9,1.4-2,1.4-3.3s-.5-2.4-1.4-3.3ZM1678,59l1,17.9h5.9l1-17.9h-7.9Z"/>
        </g>
        <path class="cls-3" d="M75.4,292.4c0,3.51-1.79,6.6-4.5,8.4-1.6,1.08-3.53,1.7-5.6,1.7s-4-.62-5.6-1.7c-2.71-1.8-4.5-4.89-4.5-8.4s1.85-6.71,4.65-8.5c1.57-1.02,3.44-1.6,5.45-1.6s3.88.58,5.45,1.6c2.8,1.79,4.65,4.93,4.65,8.5Z"/>
        <path class="cls-3" d="M108.9,205.4H21.5c-5.9,0-11.22,2.38-15.08,6.22-3.84,3.86-6.22,9.18-6.22,15.08,0,11.8,9.5,21.3,21.3,21.3h31.9c6.5,2.2,11.7,12,11.7,18.1,0-6.1,5.2-15.8,11.7-18.1h32.1c5.9,0,11.22-2.38,15.08-6.22,3.84-3.86,6.22-9.18,6.22-15.08,0-11.8-9.5-21.3-21.3-21.3ZM25.6,223.8c.5.3,1.2.5,2.2.9,1,.4,1.7.6,2.2.8.8.4,1.5.9,2,1.6s.8,1.6.8,2.5c0,1.5-.6,2.7-1.8,3.7s-2.7,1.5-4.6,1.5c-3,0-5.2-1-6.4-3l2.9-2.7c.9,1.2,2.1,1.9,3.6,1.9s1.9-.4,1.9-1.1-.2-.5-.4-.7c-.3-.2-.7-.4-1.1-.6-.4-.2-1-.3-1.5-.5s-1.1-.4-1.7-.6c-.6-.2-1.1-.6-1.5-.9-.5-.4-.8-.8-1.1-1.4-.3-.6-.4-1.3-.4-2,0-1.4.6-2.6,1.7-3.5,1.2-.9,2.6-1.4,4.4-1.4s2.5.3,3.6.8c.98.45,1.72,1.05,2.29,1.81h.01s.1.14.1.14c-.04-.05-.07-.09-.11-.14l-2.79,2.79c-.9-1.2-2-1.8-3.5-1.8s-1.5.3-1.5,1,.2.6.7.9ZM38.9,234.3h-4.1v-15.9h4.1v15.9ZM55.6,232.8c-1.6,1.3-3.7,1.9-6.3,1.9s-4.3-.8-5.8-2.4c-1.5-1.6-2.3-3.6-2.3-5.9s.8-4.2,2.4-5.9c1.6-1.6,3.6-2.4,5.8-2.4s4.7.8,6.1,2.4l-2.7,3.1c-.9-.9-2-1.4-3.3-1.4s-2,.4-2.8,1.2-1.1,1.8-1.1,3,.4,2.2,1.2,3c.8.8,1.8,1.2,2.9,1.2s1.3-.1,1.9-.5v-1.8h-2.4v-3.3h6.4v7.8ZM72.6,234.3h-4.4l-5.8-9v9h-4.1v-15.9h4.4l5.8,9.2v-9.2h4.1v15.9ZM95.3,227.5c0,2.1-.6,3.9-1.9,5.2s-2.9,2-5,2-3.7-.7-4.9-2-1.9-3-1.9-5.2h.1v-9.1h4.1v9c0,1,.2,1.7.8,2.3.5.6,1.2.9,2,.9s1.5-.3,1.9-.9c.5-.6.7-1.3.7-2.3v-9h4.1v9.1ZM108.8,227.9c-1.3,1-2.9,1.5-4.9,1.5h-1.7v4.9h-4.1v-15.9h5.8c2,0,3.7.5,4.9,1.5,1.2,1,1.8,2.4,1.8,4s-.6,3-1.8,4Z"/>
        <path class="cls-3" d="M24.9,222.9c0,.7.2.6.7.9.5.3,1.2.5,2.2.9,1,.4,1.7.6,2.2.8.8.4,1.5.9,2,1.6s.8,1.6.8,2.5c0,1.5-.6,2.7-1.8,3.7s-2.7,1.5-4.6,1.5c-3,0-5.2-1-6.4-3l2.9-2.7c.9,1.2,2.1,1.9,3.6,1.9s1.9-.4,1.9-1.1-.2-.5-.4-.7c-.3-.2-.7-.4-1.1-.6-.4-.2-1-.3-1.5-.5s-1.1-.4-1.7-.6c-.6-.2-1.1-.6-1.5-.9-.5-.4-.8-.8-1.1-1.4-.3-.6-.4-1.3-.4-2,0-1.4.6-2.6,1.7-3.5,1.2-.9,2.6-1.4,4.4-1.4s2.5.3,3.6.8c.98.45,1.72,1.05,2.29,1.81l-2.79,2.79c-.9-1.2-2-1.8-3.5-1.8s-1.5.3-1.5,1Z"/>
        <path class="cls-3" d="M32.9,221.2c-.07-.1-.13-.2-.21-.29h.01s.2.29.2.29Z"/>
        <rect class="cls-3" x="34.8" y="218.4" width="4.1" height="15.9"/>
        <polygon class="cls-3" points="68.5 218.4 72.6 218.4 72.6 234.3 68.2 234.3 62.4 225.3 62.4 234.3 58.3 234.3 58.3 218.4 62.7 218.4 68.5 227.6 68.5 218.4"/>
        <path class="cls-3" d="M91.2,218.4h4.1v9.1c0,2.1-.6,3.9-1.9,5.2s-2.9,2-5,2-3.7-.7-4.9-2-1.9-3-1.9-5.2h.1v-9.1h4.1v9c0,1,.2,1.7.8,2.3.5.6,1.2.9,2,.9s1.5-.3,1.9-.9c.5-.6.7-1.3.7-2.3v-9Z"/>
        <path class="cls-3" d="M110.6,223.9c0,1.6-.6,3-1.8,4-1.3,1-2.9,1.5-4.9,1.5h-1.7v4.9h-4.1v-15.9h5.8c2,0,3.7.5,4.9,1.5,1.2,1,1.8,2.4,1.8,4Z"/>
        <g>
          <path class="cls-5" d="M32,227.1c.5.7.8,1.6.8,2.5,0,1.5-.6,2.7-1.8,3.7s-2.7,1.5-4.6,1.5c-3,0-5.2-1-6.4-3l2.9-2.7c.9,1.2,2.1,1.9,3.6,1.9s1.9-.4,1.9-1.1-.2-.5-.4-.7c-.3-.2-.7-.4-1.1-.6-.4-.2-1-.3-1.5-.5s-1.1-.4-1.7-.6c-.6-.2-1.1-.6-1.5-.9-.5-.4-.8-.8-1.1-1.4-.3-.6-.4-1.3-.4-2,0-1.4.6-2.6,1.7-3.5,1.2-.9,2.6-1.4,4.4-1.4s2.5.3,3.6.8c.98.45,1.72,1.05,2.29,1.81l-2.79,2.79c-.9-1.2-2-1.8-3.5-1.8s-1.5.3-1.5,1,.2.6.7.9c.5.3,1.2.5,2.2.9,1,.4,1.7.6,2.2.8.8.4,1.5.9,2,1.6Z"/>
          <path class="cls-5" d="M32.9,221.2c-.07-.1-.13-.2-.21-.29h.01s.2.29.2.29Z"/>
          <rect class="cls-5" x="34.8" y="218.4" width="4.1" height="15.9"/>
          <path class="cls-5" d="M55.6,225v7.8c-1.6,1.3-3.7,1.9-6.3,1.9s-4.3-.8-5.8-2.4c-1.5-1.6-2.3-3.6-2.3-5.9s.8-4.2,2.4-5.9c1.6-1.6,3.6-2.4,5.8-2.4s4.7.8,6.1,2.4l-2.7,3.1c-.9-.9-2-1.4-3.3-1.4s-2,.4-2.8,1.2-1.1,1.8-1.1,3,.4,2.2,1.2,3c.8.8,1.8,1.2,2.9,1.2s1.3-.1,1.9-.5v-1.8h-2.4v-3.3h6.4Z"/>
          <polygon class="cls-5" points="72.6 218.4 72.6 234.3 68.2 234.3 62.4 225.3 62.4 234.3 58.3 234.3 58.3 218.4 62.7 218.4 68.5 227.6 68.5 218.4 72.6 218.4"/>
          <path class="cls-5" d="M95.3,218.4v9.1c0,2.1-.6,3.9-1.9,5.2s-2.9,2-5,2-3.7-.7-4.9-2-1.9-3-1.9-5.2h.1v-9.1h4.1v9c0,1,.2,1.7.8,2.3.5.6,1.2.9,2,.9s1.5-.3,1.9-.9c.5-.6.7-1.3.7-2.3v-9h4.1Z"/>
          <path class="cls-5" d="M108.8,219.9c-1.2-1-2.9-1.5-4.9-1.5h-5.8v15.9h4.1v-4.9h1.7c2,0,3.6-.5,4.9-1.5,1.2-1,1.8-2.4,1.8-4s-.6-3-1.8-4ZM105.7,225.4c-.4.3-.9.5-1.5.5h-2v-3.9h2v.1c.6,0,1.1.1,1.5.5.4.4.6.8.6,1.4s-.2,1-.6,1.4Z"/>
        </g>
        <polygon class="cls-18" points="302.22 321.2 300.35 323.5 300.3 323.56 297.8 326.62 297.8 321.2 302.22 321.2"/>
        <path class="cls-3" d="M460.1,292.4c0,3.51-1.79,6.6-4.5,8.4-1.6,1.08-3.53,1.7-5.6,1.7s-4-.62-5.6-1.7c-2.71-1.8-4.5-4.89-4.5-8.4s1.85-6.71,4.65-8.5c1.57-1.02,3.44-1.6,5.45-1.6s3.88.58,5.45,1.6c2.8,1.79,4.65,4.93,4.65,8.5Z"/>
        <path class="cls-3" d="M416.5,230.4v-12h-4.1v15.9h11.3v-3.9h-7.2ZM438.9,220.4c-1.7-1.6-3.6-2.4-5.9-2.4s-4.3.8-5.9,2.4v-.1c-1.7,1.7-2.5,3.6-2.5,5.9s.9,4.3,2.5,5.9c1.6,1.7,3.6,2.5,5.9,2.5s4.3-.8,5.9-2.4c1.6-1.7,2.4-3.6,2.4-5.9s-.8-4.3-2.4-5.9ZM435.9,229.3c-.8.8-1.7,1.2-2.8,1.2s-2-.4-2.8-1.2c-.8-.8-1.2-1.8-1.2-3s.4-2.2,1.2-3,1.7-1.2,2.8-1.2,2,.4,2.8,1.2c.7.8,1.1,1.8,1.1,3s-.3,2.2-1.1,3ZM466.2,218.4v15.9h4.1v-15.9h-4.1ZM483.5,218.4v9.2l-5.8-9.2h-4.4v15.9h4.1v-9l5.8,9h4.4v-15.9h-4.1Z"/>
        <path class="cls-3" d="M493.7,205.4h-87.4c-5.9,0-11.22,2.38-15.08,6.22-3.84,3.86-6.22,9.18-6.22,15.08,0,11.8,9.5,21.3,21.3,21.3h32.1c6.5,2.2,11.7,12,11.7,18.1,0-6.1,5.2-15.8,11.7-18.1h31.9c5.9,0,11.22-2.38,15.08-6.22,3.84-3.86,6.22-9.18,6.22-15.08,0-11.8-9.5-21.3-21.3-21.3ZM423.7,234.3h-11.3v-15.9h4.1v12h7.2v3.9ZM438.9,232.2c-1.6,1.6-3.6,2.4-5.9,2.4s-4.3-.8-5.9-2.5c-1.6-1.6-2.5-3.6-2.5-5.9s.8-4.2,2.5-5.9v.1c1.6-1.6,3.6-2.4,5.9-2.4s4.2.8,5.9,2.4c1.6,1.6,2.4,3.6,2.4,5.9s-.8,4.2-2.4,5.9ZM457.3,232.8c-1.6,1.3-3.7,1.9-6.3,1.9s-4.3-.8-5.9-2.4-2.4-3.6-2.4-5.9.8-4.2,2.4-5.9c1.6-1.7,3.5-2.4,5.8-2.4s4.7.8,6.1,2.4l-2.7,3.1c-.9-.9-2-1.4-3.3-1.4s-2,.4-2.8,1.2-1.1,1.8-1.1,3,.4,2.2,1.2,3c.8.8,1.8,1.2,2.9,1.2s1.3-.1,1.9-.5v-1.8h-2.2v-3.3h6.4v7.8ZM470.3,234.3h-4.1v-15.9h4.1v15.9ZM487.6,234.3h-4.4l-5.8-9v9h-4.1v-15.9h4.4l5.8,9.2v-9.2h4.1v15.9Z"/>
        <path class="cls-18" d="M888.8,338.7c0,5.9-2.38,11.22-6.22,15.08-3.86,3.84-9.18,6.22-15.08,6.22h-92.4c-11.8,0-21.3-9.5-21.3-21.3,0-5.9,2.38-11.22,6.22-15.08,3.86-3.84,9.18-6.22,15.08-6.22h92.4c11.8,0,21.3,9.5,21.3,21.3Z"/>
        <g>
          <polygon class="cls-5" points="423.7 230.4 423.7 234.3 412.4 234.3 412.4 218.4 416.5 218.4 416.5 230.4 423.7 230.4"/>
          <path class="cls-5" d="M438.9,220.4c-1.7-1.6-3.6-2.4-5.9-2.4s-4.3.8-5.9,2.4v-.1c-1.7,1.7-2.5,3.6-2.5,5.9s.9,4.3,2.5,5.9c1.6,1.7,3.6,2.5,5.9,2.5s4.3-.8,5.9-2.4c1.6-1.7,2.4-3.6,2.4-5.9s-.8-4.3-2.4-5.9ZM435.9,229.3c-.8.8-1.7,1.2-2.8,1.2s-2-.4-2.8-1.2c-.8-.8-1.2-1.8-1.2-3s.4-2.2,1.2-3,1.7-1.2,2.8-1.2,2,.4,2.8,1.2c.7.8,1.1,1.8,1.1,3s-.3,2.2-1.1,3Z"/>
          <path class="cls-3" d="M437,226.3c0,1.2-.3,2.2-1.1,3-.8.8-1.7,1.2-2.8,1.2s-2-.4-2.8-1.2c-.8-.8-1.2-1.8-1.2-3s.4-2.2,1.2-3,1.7-1.2,2.8-1.2,2,.4,2.8,1.2c.7.8,1.1,1.8,1.1,3Z"/>
          <path class="cls-5" d="M457.3,225v7.8c-1.6,1.3-3.7,1.9-6.3,1.9s-4.3-.8-5.9-2.4-2.4-3.6-2.4-5.9.8-4.2,2.4-5.9c1.6-1.7,3.5-2.4,5.8-2.4s4.7.8,6.1,2.4l-2.7,3.1c-.9-.9-2-1.4-3.3-1.4s-2,.4-2.8,1.2-1.1,1.8-1.1,3,.4,2.2,1.2,3c.8.8,1.8,1.2,2.9,1.2s1.3-.1,1.9-.5v-1.8h-2.2v-3.3h6.4Z"/>
          <rect class="cls-5" x="466.2" y="218.4" width="4.1" height="15.9"/>
          <polygon class="cls-5" points="487.6 218.4 487.6 234.3 483.2 234.3 477.4 225.3 477.4 234.3 473.3 234.3 473.3 218.4 477.7 218.4 483.5 227.6 483.5 218.4 487.6 218.4"/>
        </g>
        <g>
          <path class="cls-18" d="M24.2,334h-2.5v-12.8h8.1v2.4h-5.6v3.1h4.8v2.4h-4.8v5h0v-.1Z"/>
          <path class="cls-18" d="M39,328.8c.9-.3,1.5-.8,2-1.4s.7-1,.7-2.2-.5-2.1-1.4-2.9c-.9-.7-2.1-1.1-3.6-1.1h-4.6v12.8h2.5l.1-.1v-4.7h1.8l2.6,4.7h2.9l-3-5.1ZM38.5,326.6c-.4.3-.9.5-1.6.5h-2.3v-3.7h2.3c.7,0,1.2.2,1.6.5.4.3.6.7.6,1.3s-.2,1.1-.6,1.4Z"/>
          <path class="cls-18" d="M52.7,334h-8.3v-12.8h8.3v2.3h-5.8v2.8h5v2.4h-5v2.9h5.8v2.4h0Z"/>
          <path class="cls-18" d="M63.3,334h-8.3v-12.8h8.3v2.3h-5.8v2.8h5v2.4h-5v2.9h5.8v2.4h0Z"/>
          <path class="cls-18" d="M76.8,321.2h-2.9l-5.2,12.8h2.6l1.1-2.9h5.6l1.1,2.9h2.9l-5.2-12.8ZM73.2,328.9l2-5.1,2,5.1h-4Z"/>
          <polygon class="cls-18" points="94.9 321.2 94.9 334 92.2 334 88.5 328.64 86.2 325.3 86.2 334 83.7 334 83.7 321.2 86.4 321.2 91.65 328.9 92.4 330 92.4 321.2 94.9 321.2"/>
          <path class="cls-18" d="M107.4,323c-1.4-1.2-3.1-1.8-5.2-1.8h-4.3v12.8h4.4c2,0,3.8-.6,5.1-1.8s2-2.8,2-4.6-.6-3.4-2-4.6ZM105.5,330.6c-.8.7-1.9,1.1-3.3,1.1h-1.7v-8.1h1.7v.1c1.4,0,2.5.4,3.3,1.1.8.7,1.2,1.7,1.2,2.9s-.4,2.1-1.2,2.9Z"/>
          <path class="cls-18" d="M19.8,347.1l-1.7,1.7c-.3-.4-.7-.8-1.3-1.1s-1.1-.4-1.7-.4-1,.1-1.4.4-.5.5-.5.9.2.7.5.9.8.5,1.2.6c.5.1,1,.3,1.6.5s1.1.5,1.6.7.9.6,1.2,1.2.5,1.1.5,1.8c0,1.2-.5,2.1-1.3,2.9-.9.8-2.1,1.1-3.6,1.1-2.3,0-4-.8-5-2.3l1.8-1.7c.8,1.1,1.9,1.6,3.3,1.6s1.2-.1,1.6-.4.6-.6.6-1.1,0-.5-.2-.7-.4-.4-.8-.6-.7-.3-1-.4-.7-.3-1.2-.4c-.5-.2-.9-.3-1.2-.4-.7-.3-1.3-.7-1.7-1.2-.4-.5-.7-1.2-.7-2s.4-2,1.3-2.7c.8-.7,2-1,3.4-1s1.9.2,2.7.6,1.5.9,1.9,1.6h.1v-.1Z"/>
          <path class="cls-18" d="M22,352.8v-7.6h2.5v7.6c0,.9.2,1.6.8,2.2s1.2.8,2,.8,1.5-.3,2-.8.8-1.3.8-2.2v-7.6h2.5v7.6c0,1.6-.5,3-1.4,4-1,1-2.2,1.5-3.8,1.5s-2.8-.5-3.8-1.5-1.4-2.3-1.4-4c0,0-.2,0-.2,0Z"/>
          <path class="cls-18" d="M43.7,346.4c-.9-.8-2.1-1.2-3.7-1.2h-4.6v12.8h2.5v-4.2h2c1.6,0,2.9-.4,3.8-1.2s1.4-1.8,1.4-3.1-.5-2.3-1.4-3.1ZM41.9,350.9c-.5.4-1,.6-1.7.6h-2.3v-4.1h2.3v-.1c.7,0,1.3.2,1.7.6.4.4.6.9.6,1.5s-.1,1.1-.6,1.5Z"/>
          <path class="cls-18" d="M55.6,358h-8.3v-12.8h8.3v2.3h-5.8v2.8h5v2.4h-5v2.9h5.8v2.4h0Z"/>
          <path class="cls-18" d="M64.9,352.8c.9-.3,1.5-.8,2-1.4s.7-1,.7-2.2-.5-2.1-1.4-2.9c-.9-.7-2.1-1.1-3.6-1.1h-4.6v12.8h2.5l.1-.1v-4.7h1.8l2.6,4.7h2.9l-3-5.1ZM64.3,350.6c-.4.3-.9.5-1.6.5h-2.3v-3.7h2.3c.7,0,1.2.2,1.6.5.4.3.6.7.6,1.3s-.2,1.1-.6,1.4Z"/>
          <path class="cls-18" d="M82.8,358h-8.3v-12.8h8.3v2.3h-5.8v2.8h5v2.4h-5v2.9h5.8v2.4h0Z"/>
          <path class="cls-18" d="M92,345.2h-2.9l-5.2,12.8h2.6l1.1-2.9h5.6l1.1,2.9h2.9l-5.2-12.8ZM88.4,352.9l2-5.1,2,5.1h-4Z"/>
          <path class="cls-18" d="M107.9,347.1l-1.7,1.7c-.3-.4-.7-.8-1.3-1.1s-1.1-.4-1.7-.4-1.1.1-1.4.4-.5.5-.5.9.2.7.5.9.8.5,1.2.6c.5.1,1,.3,1.6.5s1.1.5,1.6.7.9.6,1.2,1.2c.3.5.5,1.1.5,1.8,0,1.2-.4,2.1-1.3,2.9s-2.1,1.1-3.6,1.1c-2.3,0-4-.8-5-2.3l1.8-1.7c.8,1.1,1.9,1.6,3.3,1.6s1.2-.1,1.6-.4.6-.6.6-1.1,0-.5-.2-.7-.4-.4-.8-.6-.7-.3-1-.4-.7-.3-1.2-.4-.9-.3-1.2-.4c-.7-.3-1.3-.7-1.7-1.2s-.7-1.2-.7-2,.4-2,1.3-2.7c.8-.7,2-1,3.4-1s1.9.2,2.7.6c.8.4,1.4.9,1.9,1.6h.1v-.1Z"/>
          <path class="cls-18" d="M116.2,358h-2.5v-4.3l-4.7-8.6h2.8l3.2,5.9,3.3-5.9h2.6l-4.7,8.6v4.3h0Z"/>
        </g>
        <g>
          <path class="cls-18" d="M224.8,331.1l2.8-9.9h2.6l-4.1,12.8h-3.1l-2.5-9.7-2.5,9.7h-3l-4.1-12.8h2.8l2.8,9.9,2.6-9.9h3.1l2.6,9.9h0Z"/>
          <path class="cls-18" d="M240.6,334h-8.3v-12.8h8.3v2.3h-5.8v2.8h5v2.4h-5v2.9h5.8v2.4h0Z"/>
          <path class="cls-18" d="M251.7,334h-8.8v-12.8h2.5v10.5h6.3v2.4h0v-.1Z"/>
          <path class="cls-18" d="M264.2,322.7l-1.7,1.9c-.9-.8-1.9-1.2-3.1-1.2s-2,.4-2.8,1.2c-.8.8-1.2,1.8-1.2,3s.4,2.1,1.2,3c.8.8,1.8,1.2,2.9,1.2s2.2-.4,2.9-1.2l1.7,1.8c-1.1,1.2-2.7,1.8-4.7,1.8s-3.4-.6-4.7-2-1.9-2.9-1.9-4.7.6-3.5,1.9-4.7c1.3-1.3,2.8-2,4.6-2s3.6.6,4.7,1.8h.2v.1Z"/>
          <path class="cls-18" d="M276.8,322.9c-1.3-1.4-2.9-2-4.7-2s-3.4.7-4.7,2c-1.3,1.2-1.9,2.9-1.9,4.7s.6,3.3,1.9,4.7c1.3,1.4,2.9,2,4.7,2s3.4-.7,4.7-2,1.9-2.9,1.9-4.7-.6-3.4-1.9-4.7ZM274.9,330.6c-.8.8-1.7,1.2-2.8,1.2v-.1c-1.1,0-2-.4-2.8-1.2s-1.2-1.7-1.2-2.9.4-2.2,1.2-3c.8-.8,1.7-1.2,2.8-1.2s2,.4,2.8,1.2,1.2,1.8,1.2,3-.4,2.2-1.2,3Z"/>
          <polygon class="cls-18" points="294.8 321.2 294.8 334 292.3 334 292.3 325.1 292.2 325.1 290.2 328.12 287.9 331.6 283.6 325.1 283.6 334 281.1 334 281.1 321.2 284 321.2 286.56 325.19 288.1 327.6 292.2 321.2 294.8 321.2"/>
          <polygon class="cls-18" points="300.3 326.3 305.3 326.3 305.3 328.7 300.3 328.7 300.3 331.6 306.1 331.6 306.1 334 297.8 334 297.8 321.2 306.1 321.2 306.1 323.5 300.3 323.5 300.3 326.3"/>
          <path class="cls-18" d="M186.4,345.2v2.3h-3.8v10.5h-2.5v-10.5h-3.8v-2.3h10.1Z"/>
          <path class="cls-18" d="M198.9,346.9c-1.3-1.4-2.9-2-4.7-2s-3.4.7-4.7,2c-1.3,1.2-1.9,2.9-1.9,4.7s.6,3.4,1.9,4.7c1.3,1.4,2.9,2,4.7,2s3.4-.7,4.7-2c1.3-1.3,1.9-2.9,1.9-4.7s-.6-3.4-1.9-4.7ZM197,354.6c-.7.8-1.7,1.2-2.8,1.2v-.1c-1.1,0-2-.4-2.8-1.2-.8-.8-1.2-1.7-1.2-2.9s.4-2.2,1.2-3,1.7-1.2,2.8-1.2,2,.4,2.8,1.2,1.2,1.8,1.2,3-.5,2.2-1.2,3Z"/>
          <path class="cls-18" d="M216.4,345.2v2.3h-3.8v10.5h-2.5v-10.5h-3.8v-2.3h10.1Z"/>
          <path class="cls-18" d="M229.3,358h-2.5v-5.4h-6.1v5.4h-2.5v-12.8h2.5v5.1h6.1v-5.1h2.5v12.8Z"/>
          <path class="cls-18" d="M240.7,358h-8.3v-12.8h8.3v2.3h-5.8v2.8h5v2.4h-5v2.9h5.8v2.4h0Z"/>
          <path class="cls-18" d="M255.6,346.4c-.9-.8-2.1-1.2-3.7-1.2h-4.6v12.8h2.5v-4.2h2c1.6,0,2.9-.4,3.8-1.2.9-.8,1.4-1.8,1.4-3.1s-.5-2.3-1.4-3.1ZM253.7,350.9c-.5.4-1,.6-1.7.6h-2.3v-4.1h2.3v-.1c.7,0,1.3.2,1.7.6s.6.9.6,1.5-.1,1.1-.6,1.5Z"/>
          <path class="cls-18" d="M266.1,352.8c.9-.3,1.5-.8,2-1.4s.7-1,.7-2.2-.5-2.1-1.4-2.9c-.9-.7-2.1-1.1-3.6-1.1h-4.6v12.8h2.5v-.1h.1v-4.7h1.8l2.6,4.7h2.9l-3-5.1ZM265.6,350.6c-.4.3-1,.5-1.6.5h-2.3v-3.7h2.3c.7,0,1.2.2,1.6.5.4.3.6.7.6,1.3s-.2,1.1-.6,1.4Z"/>
          <path class="cls-18" d="M282.1,346.9c-1.3-1.4-2.9-2-4.7-2s-3.4.7-4.7,2c-1.3,1.2-1.9,2.9-1.9,4.7s.6,3.3,1.9,4.7c1.3,1.4,2.9,2,4.7,2s3.4-.7,4.7-2c1.3-1.3,1.9-2.9,1.9-4.7s-.6-3.4-1.9-4.7ZM280.2,354.6c-.8.8-1.7,1.2-2.8,1.2v-.1c-1.1,0-2-.4-2.8-1.2-.8-.8-1.2-1.7-1.2-2.9s.4-2.2,1.2-3c.8-.8,1.7-1.2,2.8-1.2s2,.4,2.8,1.2,1.2,1.8,1.2,3-.4,2.2-1.2,3Z"/>
          <path class="cls-18" d="M297,351l-2.5.7v3.6c-.7.3-1.1.5-2.2.5s-2.1-.4-2.9-1.2c-.8-.9-1.2-1.8-1.2-3s.4-2.2,1.2-3,1.6-1.2,2.8-1.2,2.2.4,3.1,1.2l1.7-1.9c-1.1-1.2-2.9-1.8-4.7-1.8s-3.3.7-4.6,2c-1.3,1.2-1.9,2.9-1.9,4.7s.6,3.3,1.9,4.7c1.3,1.4,2.7,2,4.7,2s3.6-.5,4.8-1.4v-5.9h-.2ZM291.8,351v2.2h4.5l.9-2.2h-5.4Z"/>
          <path class="cls-18" d="M306.9,352.8c.9-.3,1.5-.8,2-1.4s.7-1,.7-2.2-.5-2.1-1.4-2.9c-.9-.7-2.1-1.1-3.6-1.1h-4.6v12.8h2.5v-.1h.1v-4.7h1.8l2.6,4.7h2.9l-3-5.1ZM306.3,350.6c-.4.3-1,.5-1.6.5h-2.3v-3.7h2.3c.7,0,1.2.2,1.6.5.4.3.6.7.6,1.3s-.2,1.1-.6,1.4Z"/>
          <path class="cls-18" d="M319.2,345.2h-2.9l-5.2,12.8h2.6l1.1-2.9h5.6l1.1,2.9h2.9l-5.2-12.8ZM315.5,352.9l2-5.1,2,5.1h-4Z"/>
          <path class="cls-18" d="M337.2,349.1l-4.3,6.5-4.3-6.5v8.9h-2.5v-12.8h2.9l4.1,6.4,4.1-6.4h2.6v12.8h-2.5v-8.9h-.1Z"/>
        </g>
        <g>
          <path class="cls-18" d="M432.8,327l-2.5.7v3.6c-.7.3-1.1.5-2.2.5s-2.1-.4-2.9-1.2c-.8-.9-1.2-1.8-1.2-3s.4-2.2,1.2-3,1.6-1.2,2.8-1.2,2.2.4,3.1,1.2l1.7-1.9c-1.1-1.2-2.9-1.8-4.7-1.8s-3.3.7-4.6,2c-1.3,1.2-1.9,2.9-1.9,4.7s.6,3.3,1.9,4.7c1.3,1.4,2.7,2,4.7,2s3.6-.5,4.8-1.4v-5.9h-.2ZM427.6,327v2.2h4.5l.9-2.2h-5.4Z"/>
          <path class="cls-18" d="M446.5,322.9c-1.3-1.4-2.9-2-4.7-2s-3.4.7-4.7,2c-1.3,1.2-1.9,2.9-1.9,4.7s.6,3.3,1.9,4.7c1.3,1.4,2.9,2,4.7,2s3.4-.7,4.7-2c1.3-1.3,1.9-2.9,1.9-4.7s-.6-3.4-1.9-4.7ZM444.5,330.6c-.8.8-1.7,1.2-2.8,1.2v-.1c-1.1,0-2-.4-2.8-1.2-.8-.8-1.2-1.7-1.2-2.9s.4-2.2,1.2-3,1.7-1.2,2.8-1.2,2,.4,2.8,1.2,1.2,1.8,1.2,3-.4,2.2-1.2,3Z"/>
          <path class="cls-18" d="M463.9,321.2v2.3h-3.8v10.5h-2.5v-10.5h-3.8v-2.3h10.1,0Z"/>
          <path class="cls-18" d="M476.4,322.9c-1.3-1.4-2.9-2-4.7-2s-3.4.7-4.7,2c-1.3,1.2-1.9,2.9-1.9,4.7s.6,3.3,1.9,4.7c1.3,1.4,2.9,2,4.7,2s3.4-.7,4.7-2c1.3-1.3,1.9-2.9,1.9-4.7s-.6-3.4-1.9-4.7ZM474.5,330.6c-.8.8-1.7,1.2-2.8,1.2v-.1c-1.1,0-2-.4-2.8-1.2-.8-.8-1.2-1.7-1.2-2.9s.4-2.2,1.2-3,1.7-1.2,2.8-1.2,2,.4,2.8,1.2,1.2,1.8,1.2,3-.4,2.2-1.2,3Z"/>
          <path class="cls-18" d="M376.4,347c-1.4-1.2-3.1-1.8-5.2-1.8h-4.3v12.8h4.4c2.1,0,3.8-.6,5.1-1.8s2-2.8,2-4.6-.6-3.4-2-4.6ZM374.5,354.6c-.8.7-1.9,1.1-3.3,1.1h-1.7v-8.1h1.7v.1c1.4,0,2.5.4,3.3,1.1.8.7,1.2,1.7,1.2,2.9s-.4,2.1-1.2,2.9Z"/>
          <path class="cls-18" d="M387.8,345.2h-2.9l-5.2,12.8h2.6l1.1-2.9h5.6l1.1,2.9h2.9l-5.2-12.8ZM384.1,352.9l2-5.1,2,5.1h-4Z"/>
          <path class="cls-18" d="M403.6,345.2v2.3h-3.8v10.5h-2.5v-10.5h-3.8v-2.3h10.1,0Z"/>
          <path class="cls-18" d="M412.3,345.2h-2.9l-5.2,12.8h2.6l1.1-2.9h5.6l1.1,2.9h2.9l-5.2-12.8ZM408.6,352.9l2-5.1,2,5.1h-4Z"/>
          <path class="cls-18" d="M430.3,349.1l-4.3,6.5-4.3-6.5v8.9h-2.5v-12.8h2.9l4.1,6.4,4.1-6.4h2.6v12.8h-2.5v-8.9h-.1Z"/>
          <path class="cls-18" d="M438.4,358h-2.5v-12.8h2.5v12.8Z"/>
          <path class="cls-18" d="M452.6,358h-2.7l-6-8.7v8.7h-2.5v-12.8h2.7l6,8.8v-8.8h2.5v12.8Z"/>
          <path class="cls-18" d="M463.9,358h-8.3v-12.8h8.3v2.3h-5.8v2.8h5v2.4h-5v2.9h5.8v2.4h0Z"/>
          <path class="cls-18" d="M473.1,352.8c.9-.3,1.5-.8,2-1.4s.7-1,.7-2.2-.5-2.1-1.4-2.9c-.9-.7-2.1-1.1-3.6-1.1h-4.6v12.8h2.5v-.1h.1v-4.7h1.8l2.6,4.7h2.9l-3-5.1ZM472.6,350.6c-.4.3-1,.5-1.6.5h-2.3v-3.7h2.3c.7,0,1.2.2,1.6.5.4.3.6.7.6,1.3s-.2,1.1-.6,1.4Z"/>
          <path class="cls-18" d="M492.3,347c-1.4-1.2-3.1-1.8-5.2-1.8h-4.3v12.8h4.4c2.1,0,3.8-.6,5.1-1.8,1.3-1.2,2-2.8,2-4.6s-.6-3.4-2-4.6ZM490.4,354.6c-.8.7-1.9,1.1-3.3,1.1h-1.7v-8.1h1.7v.1c1.4,0,2.5.4,3.3,1.1.8.7,1.2,1.7,1.2,2.9s-.4,2.1-1.2,2.9Z"/>
          <path class="cls-18" d="M507.4,346.9c-1.3-1.4-2.9-2-4.7-2s-3.4.7-4.7,2c-1.2,1.2-1.9,2.9-1.9,4.7s.6,3.4,1.9,4.7c1.3,1.4,2.9,2,4.7,2s3.4-.7,4.7-2c1.2-1.3,1.9-2.9,1.9-4.7s-.6-3.4-1.9-4.7ZM505.5,354.6c-.8.8-1.7,1.2-2.8,1.2v-.1c-1.1,0-2-.4-2.8-1.2-.8-.8-1.2-1.7-1.2-2.9s.4-2.2,1.2-3,1.7-1.2,2.8-1.2,2,.4,2.8,1.2,1.2,1.8,1.2,3-.4,2.2-1.2,3Z"/>
          <path class="cls-18" d="M510.5,356.6l1.7-1.7c.5.6,1,.9,1.7.9,1.2,0,1.7-.7,1.7-2.1v-8.5h2.5v8.4c0,1.5-.4,2.7-1.1,3.5s-1.8,1.2-3,1.2-1.4-.2-2-.5-1.1-.7-1.4-1.2h-.1Z"/>
          <path class="cls-18" d="M531.7,346.9c-1.3-1.4-2.9-2-4.7-2s-3.4.7-4.7,2c-1.2,1.2-1.9,2.9-1.9,4.7s.6,3.4,1.9,4.7c1.3,1.4,2.9,2,4.7,2s3.4-.7,4.7-2c1.2-1.3,1.9-2.9,1.9-4.7s-.6-3.4-1.9-4.7ZM529.8,354.6c-.8.8-1.7,1.2-2.8,1.2v-.1c-1.1,0-2-.4-2.8-1.2-.8-.8-1.2-1.7-1.2-2.9s.4-2.2,1.2-3,1.7-1.2,2.8-1.2,2,.4,2.8,1.2c.8.8,1.2,1.8,1.2,3s-.4,2.2-1.2,3Z"/>
        </g>
        <g>
          <path class="cls-5" d="M777.7,335.1l-4.8,10.9h-2.6l4.8-10.7h-5.7v-2.2h8.3v1.9h0v.1Z"/>
          <path class="cls-5" d="M783.2,344c.7,0,1.3-.2,1.7-.6s.6-.9.6-1.5-.2-1.1-.6-1.5-1-.6-1.7-.6-1.7.2-2.5.7l-1.1-.8,1-6.5h6.6v2.2h-4.6l-.4,2.6c.4-.2.9-.3,1.5-.3,1.3,0,2.3.4,3.1,1.2.8.8,1.1,1.8,1.1,3.1s-.4,2.3-1.3,3.1c-.8.8-2,1.2-3.5,1.2s-3.4-.7-4.4-2.2l1.8-1.6c.7,1,1.5,1.5,2.6,1.5h.1Z"/>
          <path class="cls-5" d="M798.6,334.8c-1-1.3-2.2-1.9-3.7-1.9s-2.7.6-3.6,1.9c-.9,1.3-1.4,2.9-1.4,4.8s.5,3.5,1.4,4.8c.9,1.3,2.1,1.9,3.6,1.9h.1c1.4,0,2.6-.6,3.6-1.9s1.4-2.9,1.4-4.8-.4-3.5-1.4-4.8ZM796.8,342.8c-.5.8-1.1,1.2-1.9,1.2s-1.4-.4-1.9-1.2h.1c-.5-.8-.7-1.9-.7-3.2s.2-2.4.7-3.2c.4-.8,1-1.2,1.8-1.2s1.4.4,1.9,1.2.7,1.9.7,3.2-.2,2.4-.7,3.2Z"/>
          <path class="cls-5" d="M815,334.4c-.9-.8-2.1-1.2-3.7-1.2h-4.6v12.8h2.5v-4.2h2c1.6,0,2.9-.4,3.8-1.2.9-.8,1.4-1.8,1.4-3.1s-.5-2.3-1.4-3.1ZM813.2,338.9c-.5.4-1,.6-1.7.6h-2.3v-4.1h2.3v-.1c.7,0,1.3.2,1.7.6s.6.9.6,1.5-.1,1.1-.6,1.5Z"/>
          <path class="cls-5" d="M829.3,334.9c-1.3-1.4-2.9-2-4.7-2s-3.4.7-4.7,2c-1.2,1.2-1.9,2.9-1.9,4.7s.6,3.4,1.9,4.7c1.3,1.4,2.9,2,4.7,2s3.4-.7,4.7-2c1.2-1.3,1.9-2.9,1.9-4.7s-.6-3.4-1.9-4.7ZM827.4,342.6c-.8.8-1.7,1.2-2.8,1.2v-.1c-1.1,0-2-.4-2.8-1.2s-1.2-1.7-1.2-2.9.4-2.2,1.2-3c.8-.8,1.7-1.2,2.8-1.2s2,.4,2.8,1.2,1.2,1.8,1.2,3-.4,2.2-1.2,3Z"/>
          <path class="cls-5" d="M836.1,346h-2.5v-12.8h2.5v12.8Z"/>
          <path class="cls-5" d="M850.3,346h-2.7l-6-8.7v8.7h-2.5v-12.8h2.7l6,8.8v-8.8h2.5v12.8Z"/>
          <path class="cls-5" d="M862.2,333.2v2.3h-3.8v10.5h-2.5v-10.5h-3.8v-2.3h10.1Z"/>
          <path class="cls-5" d="M872.9,335.1l-1.7,1.7c-.3-.4-.7-.8-1.3-1.1s-1.1-.4-1.7-.4-1,.1-1.4.4-.5.5-.5.9.2.7.5.9.8.5,1.2.6c.5.1,1,.3,1.6.5s1.1.5,1.6.7.9.6,1.2,1.2.5,1.1.5,1.8c0,1.2-.5,2.1-1.3,2.9-.9.8-2.1,1.1-3.6,1.1-2.3,0-4-.8-5-2.3l1.8-1.7c.8,1.1,1.9,1.6,3.3,1.6s1.2-.1,1.6-.4.6-.6.6-1.1,0-.5-.2-.7-.4-.4-.8-.6-.7-.3-1-.4-.7-.3-1.2-.4c-.5-.2-.9-.3-1.2-.4-.7-.3-1.3-.7-1.7-1.2s-.7-1.2-.7-2,.4-2,1.3-2.7c.8-.7,2-1,3.4-1s1.9.2,2.7.6,1.5.9,1.9,1.6h.1v-.1Z"/>
        </g>
        <g class="cls-24">
          <g>
            <g>
              <rect class="cls-23" x="138.7" y="161.4" width="239.8" height="152.2" rx="7.9" ry="7.9"/>
              <g class="cls-10">
                <g>
                  <path class="cls-6" d="M330,156.3l-87.8,47.8c-2.5,1.3-2.5,3.5,0,4.8l87.8,47.8c2.5,1.3,6.4,1.3,8.9,0l87.8-47.8c2.5-1.3,2.5-3.5,0-4.8l-87.8-47.8c-2.5-1.3-6.4-1.3-8.9,0h0Z"/>
                  <path class="cls-6" d="M330,219.2l-87.8,47.8c-2.5,1.3-2.5,3.5,0,4.8l87.8,47.8c2.5,1.3,6.4,1.3,8.9,0l87.8-47.8c2.5-1.3,2.5-3.5,0-4.8l-87.8-47.8c-2.5-1.3-6.4-1.3-8.9,0h0Z"/>
                  <path class="cls-6" d="M330,187.8l-87.8,47.8c-2.5,1.3-2.5,3.5,0,4.8l87.8,47.8c2.5,1.3,6.4,1.3,8.9,0l87.8-47.8c2.5-1.3,2.5-3.5,0-4.8l-87.8-47.8c-2.5-1.3-6.4-1.3-8.9,0h0Z"/>
                </g>
              </g>
            </g>
            <path id="Light_Effect" data-name="Light Effect" class="cls-13" d="M378.5,303.8c0,5.4-4.4,9.8-9.8,9.8h-220.3c-5.4,0-9.8-4.4-9.8-9.8v-132.6c0-5.4,4.4-9.8,9.8-9.8h220.3c5.4,0,9.8,4.4,9.8,9.8v132.6h0Z"/>
          </g>
        </g>
        <g>
          <path class="cls-5" d="M213.2,212.9l-6.4,9.2-6.4-9.2v13.1h-5.6v-21.8h6.5l5.9,8.9,5.9-8.9h5.7v21.8h-5.6v-13.2h0v.1Z"/>
          <path class="cls-5" d="M237.4,226h-14.5v-21.8h14.5v5.3h-8.9v2.9h7.5v5.3h-7.5v3.1h8.9v5.3h0v-.1Z"/>
          <path class="cls-5" d="M258.7,212.9l-6.4,9.2-6.4-9.2v13.1h-5.6v-21.8h6.5l5.9,8.9,5.9-8.9h5.7v21.8h-5.6v-13.2h0v.1Z"/>
          <path class="cls-5" d="M285.5,219.7c0-1.2-.3-2.3-1-3.1-.7-.9-1.6-1.5-2.7-1.8,2.1-.9,3.2-2.6,3.2-4.4s-.7-3.3-2.2-4.5c-1.4-1.1-3.3-1.7-5.5-1.7h-8.9v21.8h9.4l-.1-.1c2.6,0,4.5-.6,5.8-1.8s2-2.6,2-4.4ZM274,209.2h2.8c.7,0,1.3.2,1.7.5.4.3.6.8.6,1.3s-.2,1-.6,1.3c-.4.3-1,.5-1.7.5h-2.8v-3.6ZM279,220.5c-.4.3-1,.5-1.7.5h-3.2v-3.7h3.2c.7,0,1.3.2,1.7.5.4.3.6.7.6,1.3s-.2,1.1-.6,1.4Z"/>
          <path class="cls-5" d="M302.7,226h-14.5v-21.8h14.5v5.3h-8.9v2.9h7.5v5.3h-7.5v3.1h8.9v5.3h0v-.1Z"/>
          <path class="cls-5" d="M318.9,217.6c1.3-.6,2.3-1.4,3-2.5.6-1.1,1-1.6,1-3.7s-.8-3.9-2.5-5.2-3.9-2-6.7-2h-7.9v21.8h5.6v-.1h.1v-7.3h1.8l3.7,7.3h6.5l-4.6-8.3ZM316.1,213.3c-.5.4-1.2.6-2,.6h-2.8v-4.7h2.8v.2c.8,0,1.5.2,2,.6.5.4.8.9.8,1.6s-.3,1.3-.8,1.7Z"/>
        </g>
        <g class="cls-22">
          <g>
            <g>
              <rect class="cls-9" x="701.4" y="161.4" width="239.8" height="152.2" rx="7.9" ry="7.9"/>
              <g class="cls-19">
                <g>
                  <path class="cls-6" d="M892.7,156.3l-87.8,47.8c-2.5,1.3-2.5,3.5,0,4.8l87.8,47.8c2.5,1.3,6.4,1.3,8.9,0l87.8-47.8c2.5-1.3,2.5-3.5,0-4.8l-87.8-47.8c-2.5-1.3-6.4-1.3-8.9,0h0Z"/>
                  <path class="cls-6" d="M892.7,219.2l-87.8,47.8c-2.5,1.3-2.5,3.5,0,4.8l87.8,47.8c2.5,1.3,6.4,1.3,8.9,0l87.8-47.8c2.5-1.3,2.5-3.5,0-4.8l-87.8-47.8c-2.5-1.3-6.4-1.3-8.9,0Z"/>
                  <path class="cls-6" d="M892.7,187.8l-87.8,47.8c-2.5,1.3-2.5,3.5,0,4.8l87.8,47.8c2.5,1.3,6.4,1.3,8.9,0l87.8-47.8c2.5-1.3,2.5-3.5,0-4.8l-87.8-47.8c-2.5-1.3-6.4-1.3-8.9,0h0Z"/>
                </g>
              </g>
            </g>
            <path id="Light_Effect-2" data-name="Light Effect-2" class="cls-16" d="M941.2,303.8c0,5.4-4.4,9.8-9.8,9.8h-220.3c-5.4,0-9.8-4.4-9.8-9.8v-132.6c0-5.4,4.4-9.8,9.8-9.8h220.3c5.4,0,9.8,4.4,9.8,9.8v132.6h0Z"/>
          </g>
        </g>
        <g>
          <path class="cls-5" d="M748.3,204.2h-6.6l-8.5,21.8h5.9l1.5-4.1h8.5l1.5,4.1h6.2l-8.5-21.8ZM742.3,216.9l2.5-6.8,2.5,6.8h-5Z"/>
          <path class="cls-5" d="M775.9,207.3c-2.3-2.1-5.2-3.1-8.8-3.1h-7.9v21.8h7.9v.1c3.5,0,6.5-1,8.8-3.1,2.3-2.1,3.5-4.6,3.5-7.8s-1.2-5.8-3.5-7.9ZM771.7,219.3c-1.1,1-2.7,1.5-4.6,1.5h-2.1v-11.3h2c2,0,3.5.5,4.7,1.6,1.2,1.1,1.8,2.4,1.8,4.1s-.6,3.1-1.8,4.1Z"/>
          <path class="cls-5" d="M781,204.2h6.2l5.1,15.7,5.1-15.7h5.9l-7.8,21.8h-6.6l-7.8-21.8h-.1Z"/>
          <path class="cls-5" d="M824.3,207.1c-2.3-2.2-4.9-3.3-8.1-3.3s-5.9,1.1-8.1,3.3v-.1c-2.3,2.3-3.4,4.9-3.4,8.1s1.2,5.9,3.4,8.1c2.2,2.3,5,3.4,8.1,3.4s5.8-1.1,8.1-3.3c2.2-2.3,3.3-5,3.3-8.1s-1.1-5.8-3.3-8.1ZM819.9,219.2c-1,1.1-2.3,1.7-3.8,1.7s-2.7-.6-3.8-1.7-1.6-2.5-1.6-4.1.5-3,1.6-4.1c1-1.1,2.3-1.7,3.8-1.7s2.7.6,3.8,1.7c1.1,1.1,1.6,2.5,1.6,4.1s-.6,3-1.6,4.1Z"/>
          <path class="cls-5" d="M849.3,206.9l-3.7,4.3c-1.2-1.3-2.7-1.9-4.6-1.9s-2.8.6-3.8,1.7c-1,1.1-1.6,2.5-1.6,4.1s.5,3,1.6,4.1,2.4,1.7,4,1.7,1.6-.2,2.4-.5,1.4-.8,1.9-1.4l3.7,4.1c-1.9,2.2-4.7,3.4-8.4,3.4s-5.9-1.1-8-3.3-3.2-4.9-3.2-8.1,1.1-5.8,3.3-8.1c2.2-2.2,4.9-3.3,8-3.3s6.4,1.1,8.4,3.2h0Z"/>
          <path class="cls-5" d="M865.2,204.2h-6.6l-8.5,21.8h5.9l1.5-4.1h8.5l1.5,4.1h6.2l-8.5-21.8ZM859.2,216.9l2.5-6.8,2.5,6.8h-5Z"/>
          <path class="cls-5" d="M891.9,204.2v5.3h-6v16.5h-5.6v-16.5h-6v-5.3h17.6Z"/>
          <path class="cls-5" d="M908.8,226h-14.5v-21.8h14.5v5.3h-8.9v2.9h7.5v5.3h-7.5v3.1h8.9v5.3h0v-.1Z"/>
        </g>
        <g class="cls-4">
          <g>
            <g>
              <rect class="cls-11" x="1098" y="161.4" width="239.8" height="152.2" rx="7.9" ry="7.9"/>
              <g class="cls-17">
                <g>
                  <path class="cls-6" d="M1289.3,156.3l-87.8,47.8c-2.4,1.3-2.4,3.5,0,4.8l87.8,47.8c2.4,1.3,6.4,1.3,8.9,0l87.8-47.8c2.4-1.3,2.4-3.5,0-4.8l-87.8-47.8c-2.4-1.3-6.4-1.3-8.9,0h0Z"/>
                  <path class="cls-6" d="M1289.3,219.2l-87.8,47.8c-2.4,1.3-2.4,3.5,0,4.8l87.8,47.8c2.4,1.3,6.4,1.3,8.9,0l87.8-47.8c2.4-1.3,2.4-3.5,0-4.8l-87.8-47.8c-2.4-1.3-6.4-1.3-8.9,0Z"/>
                  <path class="cls-6" d="M1289.3,187.8l-87.8,47.8c-2.4,1.3-2.4,3.5,0,4.8l87.8,47.8c2.4,1.3,6.4,1.3,8.9,0l87.8-47.8c2.4-1.3,2.4-3.5,0-4.8l-87.8-47.8c-2.4-1.3-6.4-1.3-8.9,0h0Z"/>
                </g>
              </g>
            </g>
            <path id="Light_Effect-3" data-name="Light Effect-3" class="cls-15" d="M1337.9,304.2c0,5.4-4.4,9.8-9.8,9.8h-220.3c-5.4,0-9.8-4.4-9.8-9.8v-133c0-5.4,4.4-9.8,9.8-9.8h220.3c5.4,0,9.8,4.4,9.8,9.8v133h0Z"/>
          </g>
        </g>
        <g>
          <path class="cls-5" d="M1163.7,226h-14.5v-21.8h14.5v5.3h-8.9v2.9h7.5v5.3h-7.5v3.1h8.9v5.3h0v-.1Z"/>
          <path class="cls-5" d="M1186.4,226h-6l-8-12.4v12.4h-5.6v-21.8h6l8,12.6v-12.6h5.6v21.8Z"/>
          <path class="cls-5" d="M1203.9,204.2h-6.6l-8.5,21.8h5.9l1.5-4.1h8.5l1.5,4.1h6.2l-8.5-21.8ZM1198,216.9l2.5-6.8,2.4,6.8h-4.9Z"/>
          <path class="cls-5" d="M1230.9,216.6c-.7-.9-1.6-1.5-2.7-1.8,2.1-.9,3.2-2.6,3.2-4.4s-.8-3.3-2.2-4.5c-1.4-1.1-3.3-1.7-5.5-1.7h-8.9v21.8h9.3v-.1c2.6,0,4.5-.6,5.8-1.8,1.3-1.2,2-2.6,2-4.4,0-1.2-.3-2.3-1-3.1ZM1220.4,209.2h2.7c.7,0,1.2.2,1.7.5s.7.8.7,1.3-.2,1-.6,1.3c-.4.3-1,.5-1.7.5h-2.8v-3.6ZM1225.3,220.5c-.4.3-1,.5-1.7.5h-3.2v-3.7h3.3c.7,0,1.3.2,1.7.5.4.3.6.7.6,1.3s-.3,1.1-.7,1.4Z"/>
          <path class="cls-5" d="M1250.1,226h-15.5v-21.8h5.6v16.5h9.9v5.3h0Z"/>
          <path class="cls-5" d="M1266.9,226h-14.5v-21.8h14.5v5.3h-8.9v2.9h7.5v5.3h-7.5v3.1h8.9v5.3h0v-.1Z"/>
          <path class="cls-5" d="M1283,217.6c1.3-.6,2.3-1.4,3-2.5.8-1.1,1.1-1.6,1.1-3.7s-.8-3.9-2.5-5.2c-1.7-1.3-3.9-2-6.7-2h-7.9v21.8h5.6v-7.4h1.8l3.7,7.3h6.5l-4.6-8.3ZM1280.4,213.3c-.5.4-1.2.6-2,.6h-2.8v-4.7h2.8v.2c.8,0,1.5.2,2,.6.5.4.8.9.8,1.6s-.3,1.3-.8,1.7Z"/>
        </g>
        <g class="cls-1">
          <g>
            <g>
              <rect class="cls-20" x="1601.4" y="161.4" width="239.8" height="152.2" rx="7.9" ry="7.9"/>
              <g class="cls-2">
                <g>
                  <path class="cls-6" d="M1792.6,156.3l-87.8,47.8c-2.4,1.3-2.4,3.5,0,4.8l87.8,47.8c2.4,1.3,6.4,1.3,8.9,0l87.8-47.8c2.4-1.3,2.4-3.5,0-4.8l-87.8-47.8c-2.4-1.3-6.4-1.3-8.9,0h0Z"/>
                  <path class="cls-6" d="M1792.6,219.2l-87.8,47.8c-2.4,1.3-2.4,3.5,0,4.8l87.8,47.8c2.4,1.3,6.4,1.3,8.9,0l87.8-47.8c2.4-1.3,2.4-3.5,0-4.8l-87.8-47.8c-2.4-1.3-6.4-1.3-8.9,0Z"/>
                  <path class="cls-6" d="M1792.6,187.8l-87.8,47.8c-2.4,1.3-2.4,3.5,0,4.8l87.8,47.8c2.4,1.3,6.4,1.3,8.9,0l87.8-47.8c2.4-1.3,2.4-3.5,0-4.8l-87.8-47.8c-2.4-1.3-6.4-1.3-8.9,0h0Z"/>
                </g>
              </g>
            </g>
            <path id="Light_Effect-4" data-name="Light Effect-4" class="cls-14" d="M1841.2,303.8c0,5.4-4.4,9.8-9.8,9.8h-220.3c-5.4,0-9.8-4.4-9.8-9.8v-132.6c0-5.4,4.4-9.8,9.8-9.8h220.3c5.4,0,9.8,4.4,9.8,9.8v132.6h0Z"/>
          </g>
        </g>
        <g>
          <path class="cls-5" d="M1659.3,206.9l-3.7,4.3c-1.2-1.3-2.7-1.9-4.6-1.9s-2.8.6-3.8,1.7c-1,1.1-1.6,2.5-1.6,4.1s.5,3,1.6,4.1,2.4,1.7,4,1.7,1.6-.2,2.4-.5,1.4-.8,1.9-1.4l3.7,4.1c-1.9,2.2-4.7,3.4-8.4,3.4s-5.9-1.1-8-3.3-3.2-4.9-3.2-8.1,1.1-5.8,3.3-8.1,4.9-3.3,8-3.3,6.4,1.1,8.4,3.2h0Z"/>
          <path class="cls-5" d="M1675.3,204.2h-6.6l-8.5,21.8h5.9l1.5-4.1h8.5l1.5,4.1h6.2l-8.5-21.8ZM1669.3,216.9l2.5-6.8,2.4,6.8h-4.9Z"/>
          <path class="cls-5" d="M1702,204.2v5.3h-6v16.5h-5.6v-16.5h-5.9v-5.3h17.5Z"/>
          <path class="cls-5" d="M1717.8,204.2h-6.6l-8.5,21.8h5.9l1.5-4.1h8.5l1.5,4.1h6.2l-8.5-21.8ZM1711.8,216.9l2.5-6.8,2.4,6.8h-4.9Z"/>
          <path class="cls-5" d="M1744.2,226h-15.5v-21.8h5.6v16.5h9.9v5.3h0Z"/>
          <path class="cls-5" d="M1758.4,226h-5.6v-7.1l-7.9-14.6h6.2l4.6,8.8,4.7-8.8h5.9l-7.9,14.6v7.1h0Z"/>
          <path class="cls-5" d="M1784.9,207.7l-3.8,3.8c-1.2-1.7-2.8-2.5-4.8-2.5s-2.1.4-2.1,1.3.3.9.9,1.2,1.6.7,3,1.2,2.4.8,3,1.1c1.1.5,2,1.2,2.7,2.2s1,2.2,1,3.5c0,2.1-.8,3.8-2.4,5.1-1.7,1.3-3.7,2-6.3,2-4.2,0-7.1-1.4-8.8-4.1l4-3.7c1.2,1.7,2.9,2.5,5,2.5s2.6-.5,2.6-1.6-.2-.7-.6-1-.9-.5-1.5-.8c-.6-.2-1.3-.4-2.1-.7-.8-.2-1.5-.5-2.3-.9s-1.4-.8-2.1-1.2c-.6-.5-1.1-1.1-1.5-1.9s-.6-1.7-.6-2.8c0-1.9.8-3.6,2.3-4.8,1.6-1.3,3.6-1.9,6-1.9s3.4.4,4.9,1.1c1.4.7,2.6,1.7,3.4,2.9h.1Z"/>
          <path class="cls-5" d="M1803.6,204.2v5.3h-6v16.5h-5.6v-16.5h-5.9v-5.3h17.5Z"/>
        </g>
        <path class="cls-18" d="M1295.4,338.7c0,5.9-2.38,11.22-6.22,15.08-3.86,3.84-9.18,6.22-15.08,6.22h-112.4c-11.8,0-21.3-9.5-21.3-21.3,0-5.9,2.38-11.22,6.22-15.08,3.86-3.84,9.18-6.22,15.08-6.22h112.4c11.8,0,21.3,9.5,21.3,21.3Z"/>
        <g>
          <path class="cls-5" d="M1161,344c.7,0,1.3-.2,1.7-.6.4-.4.6-.9.6-1.5s-.2-1.1-.6-1.5-1-.6-1.7-.6-1.7.2-2.5.7l-1.1-.8,1-6.5h6.6v2.2h-4.6l-.4,2.6c.4-.2.9-.3,1.5-.3,1.3,0,2.3.4,3.1,1.2.8.8,1.1,1.8,1.1,3.1s-.4,2.3-1.3,3.1c-.8.8-2,1.2-3.5,1.2s-3.4-.7-4.4-2.2l1.8-1.6c.7,1,1.5,1.5,2.6,1.5h.1Z"/>
          <path class="cls-5" d="M1181,334.8c-1-1.3-2.2-1.9-3.7-1.9s-2.7.6-3.6,1.9c-.9,1.3-1.4,2.9-1.4,4.8s.5,3.5,1.4,4.8,2.1,1.9,3.6,1.9h.1c1.4,0,2.6-.6,3.6-1.9s1.4-2.9,1.4-4.8-.4-3.5-1.4-4.8ZM1179.2,342.8c-.5.8-1.1,1.2-1.9,1.2s-1.4-.4-1.9-1.2h.1c-.5-.8-.7-1.9-.7-3.2s.2-2.4.7-3.2c.4-.8,1-1.2,1.8-1.2s1.4.4,1.9,1.2.7,1.9.7,3.2-.2,2.4-.7,3.2Z"/>
          <path class="cls-5" d="M1193,334.8c-1-1.3-2.2-1.9-3.7-1.9s-2.7.6-3.6,1.9c-.9,1.3-1.4,2.9-1.4,4.8s.5,3.5,1.4,4.8,2.1,1.9,3.6,1.9h.1c1.4,0,2.6-.6,3.6-1.9s1.4-2.9,1.4-4.8-.4-3.5-1.4-4.8ZM1191.1,342.8c-.5.8-1.1,1.2-1.9,1.2s-1.4-.4-1.9-1.2h.1c-.5-.8-.7-1.9-.7-3.2s.2-2.4.7-3.2c.4-.8,1-1.2,1.8-1.2s1.4.4,1.9,1.2.7,1.9.7,3.2-.2,2.4-.7,3.2Z"/>
          <path class="cls-5" d="M1204.9,334.8c-1-1.3-2.2-1.9-3.7-1.9s-2.7.6-3.6,1.9c-.9,1.3-1.4,2.9-1.4,4.8s.5,3.5,1.4,4.8,2.1,1.9,3.6,1.9h.1c1.4,0,2.6-.6,3.6-1.9s1.4-2.9,1.4-4.8-.4-3.5-1.4-4.8ZM1203.1,342.8c-.5.8-1.1,1.2-1.9,1.2s-1.4-.4-1.9-1.2h.1c-.5-.8-.7-1.9-.7-3.2s.2-2.4.7-3.2c.4-.8,1-1.2,1.8-1.2s1.4.4,1.9,1.2.7,1.9.7,3.2-.2,2.4-.7,3.2Z"/>
          <path class="cls-5" d="M1221.3,334.4c-.9-.8-2.1-1.2-3.7-1.2h-4.6v12.8h2.5v-4.2h2c1.6,0,2.9-.4,3.8-1.2s1.4-1.8,1.4-3.1-.5-2.3-1.4-3.1ZM1219.4,338.9c-.5.4-1,.6-1.7.6h-2.3v-4.1h2.3v-.1c.7,0,1.3.2,1.7.6.4.4.6.9.6,1.5s-.1,1.1-.6,1.5Z"/>
          <path class="cls-5" d="M1235.5,334.9c-1.3-1.4-2.9-2-4.7-2s-3.4.7-4.7,2c-1.2,1.2-1.9,2.9-1.9,4.7s.6,3.4,1.9,4.7c1.3,1.4,2.9,2,4.7,2s3.5-.7,4.7-2c1.2-1.3,1.9-2.9,1.9-4.7s-.6-3.4-1.9-4.7ZM1233.6,342.6c-.7.8-1.7,1.2-2.8,1.2v-.1c-1.1,0-2-.4-2.8-1.2-.8-.8-1.2-1.7-1.2-2.9s.4-2.2,1.2-3c.8-.8,1.7-1.2,2.8-1.2s2,.4,2.8,1.2c.8.8,1.2,1.8,1.2,3s-.4,2.2-1.2,3Z"/>
          <path class="cls-5" d="M1242.4,346h-2.5v-12.8h2.5v12.8Z"/>
          <path class="cls-5" d="M1256.6,346h-2.7l-6-8.7v8.7h-2.5v-12.8h2.7l6,8.8v-8.8h2.5v12.8Z"/>
          <path class="cls-5" d="M1268.5,333.2v2.3h-3.8v10.5h-2.5v-10.5h-3.8v-2.3h10.1Z"/>
          <path class="cls-5" d="M1279.1,335.1l-1.7,1.7c-.3-.4-.7-.8-1.3-1.1s-1.1-.4-1.7-.4-1.1.1-1.4.4-.5.5-.5.9.2.7.5.9.8.5,1.2.6c.5.1,1,.3,1.6.5s1.1.5,1.6.7.9.6,1.2,1.2.5,1.1.5,1.8c0,1.2-.4,2.1-1.3,2.9s-2.1,1.1-3.6,1.1c-2.3,0-4-.8-5-2.3l1.8-1.7c.8,1.1,1.9,1.6,3.3,1.6s1.2-.1,1.6-.4.6-.6.6-1.1,0-.5-.2-.7-.4-.4-.8-.6-.7-.3-1-.4-.7-.3-1.2-.4-.9-.3-1.2-.4c-.7-.3-1.3-.7-1.7-1.2s-.7-1.2-.7-2,.4-2,1.3-2.7c.8-.7,2-1,3.4-1s1.9.2,2.7.6,1.4.9,1.9,1.6h0l.1-.1Z"/>
          <path class="cls-5" d="M1167.9,343.3h2.7l-1.7,5.2h-2.1l1.2-5.2h-.1Z"/>
        </g>
        <rect class="cls-18" x="1636.3" y="317.4" width="170" height="42.6" rx="19.6" ry="19.6"/>
        <g>
          <path class="cls-5" d="M1701.4,334.8c-1-1.3-2.2-1.9-3.7-1.9s-2.7.6-3.6,1.9c-.9,1.3-1.4,2.9-1.4,4.8s.5,3.5,1.4,4.8,2.1,1.9,3.6,1.9h.1c1.4,0,2.6-.6,3.6-1.9s1.4-2.9,1.4-4.8-.4-3.5-1.4-4.8ZM1699.6,342.8c-.5.8-1.1,1.2-1.9,1.2s-1.4-.4-1.9-1.2h.1c-.5-.8-.7-1.9-.7-3.2s.2-2.4.7-3.2c.4-.8,1-1.2,1.8-1.2s1.4.4,1.9,1.2.7,1.9.7,3.2-.2,2.4-.7,3.2Z"/>
          <path class="cls-5" d="M1729.7,334.4c-.9-.8-2.1-1.2-3.7-1.2h-4.6v12.8h2.5v-4.2h2c1.6,0,2.9-.4,3.8-1.2s1.4-1.8,1.4-3.1-.5-2.3-1.4-3.1ZM1727.8,338.9c-.5.4-1,.6-1.7.6h-2.3v-4.1h2.3v-.1c.7,0,1.3.2,1.7.6s.6.9.6,1.5-.1,1.1-.6,1.5Z"/>
          <path class="cls-5" d="M1744,334.9c-1.3-1.4-2.9-2-4.7-2s-3.4.7-4.7,2c-1.2,1.2-1.9,2.9-1.9,4.7s.6,3.4,1.9,4.7c1.3,1.4,2.9,2,4.7,2s3.5-.7,4.7-2c1.2-1.3,1.9-2.9,1.9-4.7s-.6-3.4-1.9-4.7ZM1742.1,342.6c-.7.8-1.7,1.2-2.8,1.2v-.1c-1.1,0-2-.4-2.8-1.2-.8-.8-1.2-1.7-1.2-2.9s.4-2.2,1.2-3c.8-.8,1.7-1.2,2.8-1.2s2,.4,2.8,1.2c.8.8,1.2,1.8,1.2,3s-.4,2.2-1.2,3Z"/>
          <path class="cls-5" d="M1750.8,346h-2.5v-12.8h2.5v12.8Z"/>
          <path class="cls-5" d="M1765,346h-2.7l-6-8.7v8.7h-2.5v-12.8h2.7l6,8.8v-8.8h2.5v12.8Z"/>
          <path class="cls-5" d="M1776.9,333.2v2.3h-3.8v10.5h-2.5v-10.5h-3.8v-2.3h10.1Z"/>
          <path class="cls-5" d="M1787.6,335.1l-1.7,1.7c-.3-.4-.7-.8-1.3-1.1s-1.1-.4-1.7-.4-1.1.1-1.4.4-.5.5-.5.9.2.7.5.9.8.5,1.2.6c.5.1,1,.3,1.6.5s1.1.5,1.6.7.9.6,1.2,1.2.5,1.1.5,1.8c0,1.2-.4,2.1-1.3,2.9s-2.1,1.1-3.6,1.1c-2.3,0-4-.8-5-2.3l1.8-1.7c.8,1.1,1.9,1.6,3.3,1.6s1.2-.1,1.6-.4.6-.6.6-1.1,0-.5-.2-.7-.4-.4-.8-.6-.7-.3-1-.4-.7-.3-1.2-.4-.9-.3-1.2-.4c-.7-.3-1.3-.7-1.7-1.2s-.7-1.2-.7-2,.4-2,1.3-2.7c.8-.7,2-1,3.4-1s1.9.2,2.7.6,1.4.9,1.9,1.6h0l.1-.1Z"/>
        </g>
      </g>
    </g>
  </g>
</svg>