<svg id="Layer_1" xmlns="http://www.w3.org/2000/svg" version="1.1" xmlns:xlink="http://www.w3.org/1999/xlink" viewBox="0 0 1875.1 452.6">
  <!-- Generator: Adobe Illustrator 29.5.1, SVG Export Plug-In . SVG Version: 2.1.0 Build 141)  -->
  <defs>
    <style>
      .st0 {
        fill: url(#linear-gradient2);
      }

      .st1 {
        clip-path: url(#clippath-6);
      }

      .st2 {
        clip-path: url(#clippath-7);
      }

      .st3 {
        fill: #1e3a8a;
      }

      .st4 {
        clip-path: url(#clippath-4);
      }

      .st5, .st6 {
        fill: #fff;
      }

      .st7, .st8 {
        fill: none;
      }

      .st9 {
        fill: url(#linear-gradient7);
      }

      .st9, .st10, .st11, .st12, .st13, .st6 {
        isolation: isolate;
      }

      .st9, .st11, .st12, .st13 {
        mix-blend-mode: screen;
      }

      .st14 {
        clip-path: url(#clippath-1);
      }

      .st15 {
        clip-path: url(#clippath-5);
      }

      .st16 {
        fill: #2563eb;
      }

      .st17 {
        clip-path: url(#clippath-3);
      }

      .st18 {
        fill: url(#linear-gradient4);
      }

      .st11 {
        fill: url(#linear-gradient5);
      }

      .st12 {
        fill: url(#linear-gradient1);
      }

      .st19 {
        fill: #dbeafe;
        stroke: #eff6ff;
      }

      .st19, .st8 {
        stroke-miterlimit: 10;
      }

      .st20 {
        fill: url(#linear-gradient6);
      }

      .st21 {
        clip-path: url(#clippath-2);
      }

      .st22 {
        fill: url(#linear-gradient);
      }

      .st8 {
        stroke: #60a5fa;
      }

      .st13 {
        fill: url(#linear-gradient3);
      }

      .st23 {
        clip-path: url(#clippath);
      }

      .st6 {
        opacity: .1;
      }
    </style>
    <clipPath id="clippath">
      <path class="st7" d="M278.9,346.1c-8.4,0-15.2-6.8-15.2-15.2s6.8-15.2,15.2-15.2,15.2,6.8,15.2,15.2-6.8,15.2-15.2,15.2ZM361.6,221.8h-165.3c-17.9,0-32.3,14.5-32.3,32.3s14.5,32.3,32.3,32.3h71c6.5,2.2,11.7,12,11.7,18,0-6.1,5.2-15.8,11.7-18h71c17.9,0,32.3-14.5,32.3-32.3s-14.5-32.3-32.3-32.3h-.1Z"/>
    </clipPath>
    <linearGradient id="linear-gradient" x1="159" y1="-78" x2="398.8" y2="-78" gradientTransform="translate(0 354)" gradientUnits="userSpaceOnUse">
      <stop offset="0" stop-color="#89c7d4"/>
      <stop offset="1" stop-color="#5fb1ca"/>
    </linearGradient>
    <clipPath id="clippath-1">
      <rect class="st7" x="159" y="199.9" width="239.8" height="152.2" rx="7.9" ry="7.9"/>
    </clipPath>
    <linearGradient id="linear-gradient1" x1="302.7" y1="-45.2" x2="493" y2="145" gradientTransform="translate(-119 226.1)" gradientUnits="userSpaceOnUse">
      <stop offset="0" stop-color="#000"/>
      <stop offset="0" stop-color="#121212"/>
      <stop offset=".2" stop-color="#424242"/>
      <stop offset=".2" stop-color="#686868"/>
      <stop offset=".3" stop-color="#636363"/>
      <stop offset=".3" stop-color="#3f3f3f"/>
      <stop offset=".4" stop-color="#232323"/>
      <stop offset=".4" stop-color="#0f0f0f"/>
      <stop offset=".5" stop-color="#030303"/>
      <stop offset=".5" stop-color="#000"/>
    </linearGradient>
    <clipPath id="clippath-2">
      <path class="st7" d="M856.8,330.9c0,8.4-6.8,15.2-15.2,15.2s-15.2-6.8-15.2-15.2,6.8-15.2,15.2-15.2,15.2,6.8,15.2,15.2ZM924.3,221.8h-165.3c-17.9,0-32.3,14.5-32.3,32.3s14.5,32.3,32.3,32.3h71c6.5,2.2,11.7,12,11.7,18,0-6.1,5.2-15.8,11.7-18h71c17.9,0,32.3-14.5,32.3-32.3s-14.5-32.3-32.3-32.3h-.1Z"/>
    </clipPath>
    <linearGradient id="linear-gradient2" x1="721.7" y1="-78" x2="961.5" y2="-78" gradientTransform="translate(0 354)" gradientUnits="userSpaceOnUse">
      <stop offset="0" stop-color="#d1b096"/>
      <stop offset="1" stop-color="#a7735b"/>
    </linearGradient>
    <clipPath id="clippath-3">
      <rect class="st7" x="721.7" y="199.9" width="239.8" height="152.2" rx="7.9" ry="7.9"/>
    </clipPath>
    <linearGradient id="linear-gradient3" x1="865.4" y1="-45.2" x2="1055.7" y2="145" gradientTransform="translate(-119 226.1)" gradientUnits="userSpaceOnUse">
      <stop offset="0" stop-color="#000"/>
      <stop offset="0" stop-color="#121212"/>
      <stop offset=".2" stop-color="#424242"/>
      <stop offset=".2" stop-color="#686868"/>
      <stop offset=".3" stop-color="#636363"/>
      <stop offset=".3" stop-color="#3f3f3f"/>
      <stop offset=".4" stop-color="#232323"/>
      <stop offset=".4" stop-color="#0f0f0f"/>
      <stop offset=".5" stop-color="#030303"/>
      <stop offset=".5" stop-color="#000"/>
    </linearGradient>
    <clipPath id="clippath-4">
      <path class="st7" d="M1238.2,346.1c-8.4,0-15.2-6.8-15.2-15.2s6.8-15.2,15.2-15.2,15.2,6.8,15.2,15.2-6.8,15.2-15.2,15.2ZM1320.9,221.8h-165.3c-17.9,0-32.3,14.5-32.3,32.3s14.5,32.3,32.3,32.3h71c6.5,2.2,11.7,12,11.7,18,0-6.1,5.2-15.8,11.7-18h71c17.9,0,32.3-14.5,32.3-32.3s-14.5-32.3-32.3-32.3h0Z"/>
    </clipPath>
    <linearGradient id="linear-gradient4" x1="1118.3" y1="-78" x2="1358.1" y2="-78" gradientTransform="translate(0 354)" gradientUnits="userSpaceOnUse">
      <stop offset="0" stop-color="#bdbfc0"/>
      <stop offset="1" stop-color="#7d7f7f"/>
    </linearGradient>
    <clipPath id="clippath-5">
      <rect class="st7" x="1118.3" y="199.9" width="239.8" height="152.2" rx="7.9" ry="7.9"/>
    </clipPath>
    <linearGradient id="linear-gradient5" x1="1262" y1="-45.1" x2="1452.5" y2="145.3" gradientTransform="translate(-119 226.1)" gradientUnits="userSpaceOnUse">
      <stop offset="0" stop-color="#000"/>
      <stop offset="0" stop-color="#121212"/>
      <stop offset=".2" stop-color="#424242"/>
      <stop offset=".2" stop-color="#686868"/>
      <stop offset=".3" stop-color="#636363"/>
      <stop offset=".3" stop-color="#3f3f3f"/>
      <stop offset=".4" stop-color="#232323"/>
      <stop offset=".4" stop-color="#0f0f0f"/>
      <stop offset=".5" stop-color="#030303"/>
      <stop offset=".5" stop-color="#000"/>
    </linearGradient>
    <clipPath id="clippath-6">
      <path class="st7" d="M1741.6,346.1c-8.4,0-15.2-6.8-15.2-15.2s6.8-15.2,15.2-15.2,15.2,6.8,15.2,15.2-6.8,15.2-15.2,15.2ZM1824.3,221.8h-165.3c-17.9,0-32.3,14.5-32.3,32.3s14.5,32.3,32.3,32.3h71c6.5,2.2,11.7,12,11.7,18,0-6.1,5.2-15.8,11.7-18h71c17.9,0,32.3-14.5,32.3-32.3s-14.5-32.3-32.3-32.3h0Z"/>
    </clipPath>
    <linearGradient id="linear-gradient6" x1="1621.7" y1="-78" x2="1861.5" y2="-78" gradientTransform="translate(0 354)" gradientUnits="userSpaceOnUse">
      <stop offset="0" stop-color="#d0b35e"/>
      <stop offset="1" stop-color="#a7772b"/>
    </linearGradient>
    <clipPath id="clippath-7">
      <rect class="st7" x="1621.7" y="199.9" width="239.8" height="152.2" rx="7.9" ry="7.9"/>
    </clipPath>
    <linearGradient id="linear-gradient7" x1="1765.4" y1="-45.3" x2="1955.7" y2="145.1" gradientTransform="translate(-119 226.1)" gradientUnits="userSpaceOnUse">
      <stop offset="0" stop-color="#000"/>
      <stop offset="0" stop-color="#121212"/>
      <stop offset=".2" stop-color="#424242"/>
      <stop offset=".2" stop-color="#686868"/>
      <stop offset=".3" stop-color="#636363"/>
      <stop offset=".3" stop-color="#3f3f3f"/>
      <stop offset=".4" stop-color="#232323"/>
      <stop offset=".4" stop-color="#0f0f0f"/>
      <stop offset=".5" stop-color="#030303"/>
      <stop offset=".5" stop-color="#000"/>
    </linearGradient>
  </defs>
  <g class="st10">
    <g id="Layer_11">
      <line class="st8" x1="585.4" y1="328.2" x2="585.4" y2="151.2"/>
      <line class="st8" x1="632.1" y1="328.2" x2="632.1" y2="151.2"/>
      <line class="st8" x1="702.9" y1="328.2" x2="702.9" y2="151.2"/>
      <line class="st8" x1="753.4" y1="328.2" x2="753.4" y2="151.2"/>
      <line class="st8" x1="929.5" y1="328.2" x2="929.5" y2="151.2"/>
      <line class="st8" x1="972.7" y1="328.2" x2="972.7" y2="151.2"/>
      <line class="st8" x1="1058.6" y1="328.2" x2="1058.6" y2="151.2"/>
      <line class="st8" x1="1109.7" y1="328.2" x2="1109.7" y2="151.2"/>
      <line class="st8" x1="1157.7" y1="328.2" x2="1157.7" y2="151.2"/>
      <line class="st8" x1="1312.7" y1="328.2" x2="1312.7" y2="151.2"/>
      <line class="st8" x1="1370.3" y1="328.2" x2="1370.3" y2="151.2"/>
      <line class="st8" x1="1419.1" y1="328.2" x2="1419.1" y2="151.2"/>
      <line class="st8" x1="1455.7" y1="328.2" x2="1455.7" y2="151.2"/>
      <line class="st8" x1="1515" y1="328.2" x2="1515" y2="151.2"/>
      <line class="st8" x1="1561.7" y1="328.2" x2="1561.7" y2="151.2"/>
      <line class="st8" x1="1623" y1="328.2" x2="1623" y2="151.2"/>
      <line class="st8" x1="1670.2" y1="328.2" x2="1670.2" y2="151.2"/>
      <rect class="st19" x="20.3" y="322.4" width="1833.6" height="16.9" rx="4.9" ry="4.9"/>
      <g>
        <polygon class="st5" points="111.7 367.7 100.9 365.6 129.2 330.9 100.9 296.1 111.7 294 141.6 330.9 111.7 367.7"/>
        <polygon class="st5" points="143 367.7 132.3 365.6 160.5 330.9 132.3 296.1 143 294 173 330.9 143 367.7"/>
        <polygon class="st5" points="174.4 367.7 163.7 365.6 191.9 330.9 163.7 296.1 174.4 294 204.3 330.9 174.4 367.7"/>
        <polygon class="st5" points="205.8 367.7 195 365.6 223.3 330.9 195 296.1 205.8 294 235.7 330.9 205.8 367.7"/>
      </g>
      <g>
        <circle class="st5" cx="1059" cy="330.9" r="16.9"/>
        <circle class="st16" cx="1059" cy="330.9" r="10.1"/>
      </g>
      <g>
        <circle class="st5" cx="929.5" cy="330.9" r="16.9"/>
        <circle class="st16" cx="929.5" cy="330.9" r="10.1"/>
      </g>
      <g>
        <circle class="st5" cx="973.1" cy="330.9" r="16.9"/>
        <circle class="st16" cx="973.1" cy="330.9" r="10.1"/>
      </g>
      <g>
        <circle class="st5" cx="1109.8" cy="330.9" r="16.9"/>
        <circle class="st16" cx="1109.8" cy="330.9" r="10.1"/>
      </g>
      <g>
        <circle class="st5" cx="1157.4" cy="330.9" r="16.9"/>
        <circle class="st16" cx="1157.4" cy="330.9" r="10.1"/>
      </g>
      <g>
        <circle class="st5" cx="1313.3" cy="330.9" r="16.9"/>
        <circle class="st16" cx="1313.3" cy="330.9" r="10.1"/>
      </g>
      <g>
        <path class="st5" d="M1383.1,343.2c-18,13.8-38.5-6.7-24.7-24.7,18-13.8,38.5,6.7,24.7,24.7Z"/>
        <path class="st16" d="M1378.2,338.3c-10.8,8.3-23.1-4-14.8-14.8,10.8-8.3,23.1,4,14.8,14.8Z"/>
      </g>
      <g>
        <path class="st5" d="M1431.3,343.2c-18,13.8-38.5-6.7-24.7-24.7,18-13.8,38.5,6.7,24.7,24.7Z"/>
        <path class="st16" d="M1426.4,338.3c-10.8,8.3-23.1-4-14.8-14.8,10.8-8.3,23.1,4,14.8,14.8Z"/>
      </g>
      <g>
        <path class="st5" d="M1468.3,343.2c-18,13.8-38.5-6.7-24.7-24.7,18-13.8,38.5,6.7,24.7,24.7Z"/>
        <path class="st16" d="M1463.4,338.3c-10.8,8.3-23.1-4-14.8-14.8,10.8-8.3,23.1,4,14.8,14.8Z"/>
      </g>
      <g>
        <path class="st5" d="M1527.8,343.2c-18,13.8-38.5-6.7-24.7-24.7,18-13.8,38.5,6.7,24.7,24.7Z"/>
        <path class="st16" d="M1522.8,338.3c-10.8,8.3-23.1-4-14.8-14.8,10.8-8.3,23.1,4,14.8,14.8Z"/>
      </g>
      <g>
        <path class="st5" d="M1574.7,343.2c-18,13.8-38.5-6.7-24.7-24.7,18-13.8,38.5,6.7,24.7,24.7Z"/>
        <path class="st16" d="M1569.7,338.3c-10.8,8.3-23.1-4-14.8-14.8,10.8-8.3,23.1,4,14.8,14.8Z"/>
      </g>
      <g>
        <path class="st5" d="M1636.1,343.2c-18,13.8-38.5-6.7-24.7-24.7,18-13.8,38.5,6.7,24.7,24.7Z"/>
        <path class="st16" d="M1631.2,338.3c-10.8,8.3-23.1-4-14.8-14.8,10.8-8.3,23.1,4,14.8,14.8Z"/>
      </g>
      <g>
        <path class="st5" d="M1683.7,343.2c-18,13.8-38.5-6.7-24.7-24.7,18-13.8,38.5,6.7,24.7,24.7Z"/>
        <path class="st16" d="M1678.7,338.3c-10.8,8.3-23.1-4-14.8-14.8,10.8-8.3,23.1,4,14.8,14.8Z"/>
      </g>
      <g>
        <circle class="st5" cx="585.4" cy="330.9" r="16.9"/>
        <circle class="st16" cx="585.4" cy="330.9" r="10.1"/>
      </g>
      <g>
        <circle class="st5" cx="632.9" cy="330.9" r="16.9"/>
        <circle class="st16" cx="632.9" cy="330.9" r="10.1"/>
      </g>
      <g>
        <circle class="st5" cx="703.3" cy="330.9" r="16.9"/>
        <circle class="st16" cx="703.3" cy="330.9" r="10.1"/>
      </g>
      <g>
        <circle class="st5" cx="752.8" cy="330.9" r="16.9"/>
        <circle class="st16" cx="752.8" cy="330.9" r="10.1"/>
      </g>
      <g>
        <path class="st16" d="M621.2,55.4c0,.5.3.9,1,1.2s1.7.7,3.1,1c1.4.4,2.5.7,3.2,1,1.2.5,2.1,1.2,2.9,2.3s1.1,2.3,1.1,3.9-.9,3.7-2.6,5.1c-1.7,1.4-4.2,2.2-7.3,2.2s-7.6-1.3-9.9-3.8l4.1-4.8c1.8,1.8,3.9,2.7,6.3,2.7s2.1-.4,2.1-1.3-.3-.8-.8-1.1-1.2-.6-2.1-.8-1.7-.5-2.7-.8c-1-.4-1.9-.8-2.7-1.3s-1.5-1.2-2.1-2.2-.8-2.1-.8-3.3c0-1.9.8-3.6,2.4-5,1.7-1.4,3.9-2.1,6.7-2.1,4.5,0,7.7,1.3,9.6,3.9l-4.1,4.4c-1.4-1.6-3.1-2.4-5.2-2.4s-2,.4-2,1.2h-.2Z"/>
        <path class="st16" d="M638.5,55.5h-4.2v-6.6h4.2v-3.7l7.5-2.3v6.1h5.7v6.6h-5.6v6.9c0,1.7.6,2.6,1.9,2.6s1.8-.4,2.3-1.1l3.3,5.6c-1.7,1.7-4,2.6-6.9,2.6s-4.6-.8-6.1-2.4-2.2-4-2.2-7v-7.1h0v-.2Z"/>
        <path class="st16" d="M679.2,71.3h-7.5v-2.1c-1.4,1.9-3.3,2.8-5.7,2.8s-5.4-1.1-7.5-3.3c-2.1-2.2-3.1-5-3.1-8.5s1-6.2,3-8.5c2-2.2,4.5-3.4,7.6-3.4s4.4.9,5.7,2.6v-1.9h7.5v22.4h0ZM664.2,63.6c.8.9,1.9,1.4,3.1,1.4s2.3-.5,3.1-1.4,1.3-2,1.3-3.4-.4-2.5-1.3-3.5c-.8-.9-1.9-1.4-3.1-1.4s-2.3.5-3.1,1.4-1.3,2.1-1.3,3.5.4,2.5,1.3,3.4Z"/>
        <path class="st16" d="M691.9,59.2v12.1h-7.5v-22.4h7.5v3.5c1.2-2.8,3-4.2,5.3-4.2s2.8.4,3.7,1.3l-3.1,7.1c-.8-.7-1.8-1.1-3-1.1s-1.6.3-2.2,1-.8,1.6-.8,2.7h0Z"/>
        <path class="st16" d="M706.3,55.5h-4.2v-6.6h4.2v-3.7l7.5-2.3v6.1h5.7v6.6h-5.6v6.9c0,1.7.6,2.6,1.9,2.6s1.8-.4,2.3-1.1l3.3,5.6c-1.7,1.7-4,2.6-6.9,2.6s-4.6-.8-6.1-2.4-2.2-4-2.2-7v-7.1h0v-.2Z"/>
        <path class="st16" d="M756.1,51.9l-4.2,5.3c-1.2-1.2-2.8-1.9-4.6-1.9s-2.5.5-3.4,1.4-1.3,2.1-1.3,3.5.4,2.5,1.3,3.5c.9.9,2,1.4,3.4,1.4s3.4-.7,4.9-2.1l3.7,5.5c-.9,1.1-2.2,1.9-3.8,2.6s-3.3,1-5,1c-3.4,0-6.2-1.2-8.5-3.5-2.4-2.3-3.5-5.1-3.5-8.4s1.2-6.1,3.5-8.5c2.4-2.3,5.2-3.5,8.4-3.5s7,1.2,9.2,3.6h-.1Z"/>
        <path class="st16" d="M766.7,59.2v12.1h-7.5v-22.4h7.5v3.5c1.2-2.8,3-4.2,5.3-4.2s2.8.4,3.7,1.3l-3.1,7.1c-.8-.7-1.8-1.1-3-1.1s-1.6.3-2.2,1-.8,1.6-.8,2.7h0Z"/>
        <path class="st16" d="M790,72.1c-3.5,0-6.4-1.2-8.8-3.5-2.4-2.3-3.5-5.1-3.5-8.4s1.1-6.1,3.4-8.5c2.2-2.3,4.9-3.5,8.2-3.5s6.1,1.1,8.3,3.3,3.3,4.9,3.3,8.2,0,1.9,0,2.3h-15.2c.3,1.1.9,1.9,1.7,2.5.8.6,1.9.9,3.1.9s3.3-.7,4.6-2.1l3.8,5.1c-.9,1.1-2.1,1.9-3.7,2.6s-3.3,1-5.1,1h0ZM789.4,54.6c-1.8,0-3.1,1-3.7,2.9h7.5c-.6-1.9-1.9-2.9-3.7-2.9h0Z"/>
        <path class="st16" d="M827,71.3h-7.5v-2.1c-1.4,1.9-3.3,2.8-5.7,2.8s-5.4-1.1-7.5-3.3c-2.1-2.2-3.1-5-3.1-8.5s1-6.2,3-8.5c2-2.2,4.5-3.4,7.6-3.4s4.4.9,5.7,2.6v-1.9h7.5v22.4h0ZM812,63.6c.8.9,1.9,1.4,3.1,1.4s2.3-.5,3.1-1.4,1.3-2,1.3-3.4-.4-2.5-1.3-3.5c-.8-.9-1.9-1.4-3.1-1.4s-2.3.5-3.1,1.4-1.3,2.1-1.3,3.5.4,2.5,1.3,3.4Z"/>
        <path class="st16" d="M834.3,55.5h-4.2v-6.6h4.2v-3.7l7.5-2.3v6.1h5.7v6.6h-5.6v6.9c0,1.7.6,2.6,1.9,2.6s1.8-.4,2.3-1.1l3.3,5.6c-1.7,1.7-4,2.6-6.9,2.6s-4.6-.8-6.1-2.4-2.2-4-2.2-7v-7.1h0v-.2Z"/>
        <path class="st16" d="M856.3,47c-.9,0-1.7-.2-2.4-.7s-1.2-1.2-1.5-1.9c-.3-.8-.4-1.6-.3-2.5s.5-1.6,1.2-2.2c.9-.8,1.8-1.2,2.9-1.2s2.1.4,3,1.3c.9.8,1.3,1.8,1.3,3s-.4,2.1-1.2,3-1.8,1.2-3,1.2h0ZM852.5,49h7.5v22.4h-7.5v-22.4Z"/>
        <path class="st16" d="M872.7,59v12.3h-7.5v-22.4h7.5v2.8c1.2-2.3,3.1-3.5,5.8-3.5s4.6.9,6.1,2.6,2.2,4.1,2.2,7.1v13.4h-7.5v-12.3c0-1.1-.3-2-.9-2.7s-1.4-1-2.4-1-1.8.3-2.4,1c-.6.7-.9,1.6-.9,2.7h0Z"/>
        <path class="st16" d="M892.2,78.1l3.7-5.8c1.7,1.4,3.6,2.1,5.8,2.1s2.6-.4,3.5-1.1,1.3-1.8,1.3-3.1v-2.1c-1.4,1.8-3.3,2.7-5.7,2.7s-5.2-1-7.2-3.1c-2-2-3-4.7-3-8.1s1-5.9,3-7.9c2-2.1,4.3-3.1,7.2-3.1s4.3.8,5.7,2.3v-1.8h7.5v20.8c0,2.2-.4,4.1-1.1,5.7s-1.8,2.8-3,3.6c-2.4,1.4-4.9,2.1-7.7,2.1-4.5,0-7.8-1-10-3.1h0ZM898.2,59.5c0,1.2.4,2.2,1.2,2.9.8.8,1.8,1.2,3,1.2s2.2-.4,2.9-1.2c.8-.8,1.2-1.8,1.2-2.9s-.4-2.2-1.2-3-1.8-1.2-2.9-1.2-2.2.4-3,1.2-1.2,1.8-1.2,3Z"/>
        <path class="st16" d="M954.8,63.3l3.1-14.4h8l-6.6,22.4h-9.4l-3-13-2.9,13h-8.5l-6.6-22.4h8l2.9,14.2,3.3-14.2h8.1l3.5,14.3h.1Z"/>
        <path class="st16" d="M973,47c-.9,0-1.7-.2-2.4-.7s-1.2-1.2-1.5-1.9-.4-1.6-.3-2.5.5-1.6,1.2-2.2c.9-.8,1.8-1.2,2.9-1.2s2.1.4,3,1.3c.9.8,1.3,1.8,1.3,3s-.4,2.1-1.2,3-1.8,1.2-3,1.2h0ZM969.2,49h7.5v22.4h-7.5v-22.4Z"/>
        <path class="st16" d="M984,55.5h-4.2v-6.6h4.2v-3.7l7.5-2.3v6.1h5.7v6.6h-5.6v6.9c0,1.7.6,2.6,1.9,2.6s1.8-.4,2.3-1.1l3.3,5.6c-1.7,1.7-4,2.6-6.9,2.6s-4.6-.8-6.1-2.4-2.2-4-2.2-7v-7.1h0v-.2Z"/>
        <path class="st16" d="M1009.7,59v12.3h-7.5v-29.8l7.5-2.3v12.5c1.2-2.3,3.1-3.5,5.8-3.5s4.6.9,6.1,2.6,2.2,4.1,2.2,7.1v13.4h-7.5v-12.3c0-1.1-.3-2-.9-2.7s-1.4-1-2.4-1-1.8.3-2.4,1c-.6.7-.9,1.6-.9,2.7h0Z"/>
        <path class="st16" d="M1051.8,71.3h-10.9v-30h10.9c4.9,0,8.9,1.4,12.2,4.2s4.8,6.4,4.8,10.8-1.6,7.8-4.8,10.7c-3.2,2.8-7.3,4.2-12.2,4.2h0ZM1051.7,48.6h-2.8v15.5h2.8c2.7,0,4.8-.7,6.4-2.1,1.6-1.4,2.4-3.3,2.4-5.6s-.8-4.2-2.4-5.6c-1.6-1.4-3.8-2.1-6.4-2.1h0Z"/>
        <path class="st16" d="M1095.2,71.3h-7.5v-2.1c-1.4,1.9-3.3,2.8-5.7,2.8s-5.4-1.1-7.5-3.3c-2.1-2.2-3.1-5-3.1-8.5s1-6.2,3-8.5c2-2.2,4.5-3.4,7.6-3.4s4.4.9,5.7,2.6v-1.9h7.5v22.4h0ZM1080.2,63.6c.8.9,1.9,1.4,3.1,1.4s2.3-.5,3.1-1.4c.8-.9,1.3-2,1.3-3.4s-.4-2.5-1.3-3.5c-.8-.9-1.9-1.4-3.1-1.4s-2.3.5-3.1,1.4c-.8.9-1.3,2.1-1.3,3.5s.4,2.5,1.3,3.4Z"/>
        <path class="st16" d="M1102.5,55.5h-4.2v-6.6h4.2v-3.7l7.5-2.3v6.1h5.7v6.6h-5.6v6.9c0,1.7.6,2.6,1.9,2.6s1.8-.4,2.3-1.1l3.3,5.6c-1.7,1.7-4,2.6-6.9,2.6s-4.6-.8-6.1-2.4-2.2-4-2.2-7v-7.1h0v-.2Z"/>
        <path class="st16" d="M1143.2,71.3h-7.5v-2.1c-1.4,1.9-3.3,2.8-5.7,2.8s-5.4-1.1-7.5-3.3c-2.1-2.2-3.1-5-3.1-8.5s1-6.2,3-8.5c2-2.2,4.5-3.4,7.6-3.4s4.4.9,5.7,2.6v-1.9h7.5v22.4h0ZM1128.2,63.6c.8.9,1.9,1.4,3.1,1.4s2.3-.5,3.1-1.4c.8-.9,1.3-2,1.3-3.4s-.4-2.5-1.3-3.5c-.8-.9-1.9-1.4-3.1-1.4s-2.3.5-3.1,1.4c-.8.9-1.3,2.1-1.3,3.5s.4,2.5,1.3,3.4Z"/>
        <path class="st16" d="M1173.8,53.3l-8.7,12.7-8.7-12.6v18h-7.7v-30h8.9l8.1,12.2,8.1-12.2h7.8v30h-7.7v-18.1h-.1Z"/>
        <path class="st16" d="M1190.6,47c-.9,0-1.7-.2-2.4-.7-.7-.5-1.2-1.2-1.5-1.9s-.4-1.6-.3-2.5.5-1.6,1.2-2.2c.9-.8,1.8-1.2,2.9-1.2s2.1.4,3,1.3,1.3,1.8,1.3,3-.4,2.1-1.2,3-1.8,1.2-3,1.2h0ZM1186.9,49h7.5v22.4h-7.5v-22.4Z"/>
        <path class="st16" d="M1207.1,59v12.3h-7.5v-22.4h7.5v2.8c1.2-2.3,3.1-3.5,5.8-3.5s4.6.9,6.1,2.6,2.2,4.1,2.2,7.1v13.4h-7.5v-12.3c0-1.1-.3-2-.9-2.7s-1.4-1-2.4-1-1.8.3-2.4,1-.9,1.6-.9,2.7h0Z"/>
        <path class="st16" d="M1237.4,72.1c-3.5,0-6.4-1.2-8.8-3.5s-3.6-5.1-3.6-8.4,1.1-6.1,3.4-8.5c2.2-2.3,4.9-3.5,8.2-3.5s6.1,1.1,8.3,3.3c2.2,2.2,3.3,4.9,3.3,8.2s0,1.9,0,2.3h-15.2c.3,1.1.9,1.9,1.7,2.5.8.6,1.9.9,3.1.9s3.2-.7,4.6-2.1l3.8,5.1c-.9,1.1-2.1,1.9-3.7,2.6s-3.3,1-5.1,1h0ZM1236.7,54.6c-1.8,0-3.1,1-3.7,2.9h7.5c-.6-1.9-1.9-2.9-3.7-2.9h-.1Z"/>
        <path class="st16" d="M1259.4,59.2v12.1h-7.5v-22.4h7.5v3.5c1.2-2.8,3-4.2,5.3-4.2s2.8.4,3.7,1.3l-3.1,7.1c-.8-.7-1.8-1.1-3-1.1s-1.6.3-2.2,1-.8,1.6-.8,2.7h0Z"/>
        <path class="st16" d="M1271.8,63.2h7.7l-4.2,13.4h-6.3l2.8-13.4h0Z"/>
        <path class="st16" d="M1309.2,48.3c2.9,0,5.4,1.1,7.5,3.3s3.1,5,3.1,8.6-1,6.3-3,8.5c-2,2.3-4.5,3.4-7.6,3.4s-4.4-.9-5.7-2.6v1.9h-7.5v-29.8l7.5-2.3v11.9c1.4-1.9,3.3-2.8,5.7-2.8h0ZM1311,56.7c-.8-.9-1.9-1.4-3.1-1.4s-2.3.5-3.1,1.4c-.8.9-1.3,2.1-1.3,3.5s.4,2.5,1.3,3.5c.8.9,1.9,1.4,3.1,1.4s2.3-.5,3.1-1.4,1.3-2.1,1.3-3.5-.4-2.5-1.3-3.5Z"/>
        <path class="st16" d="M1334.7,72.1c-3.5,0-6.4-1.2-8.8-3.5s-3.6-5.1-3.6-8.4,1.1-6.1,3.4-8.5c2.2-2.3,4.9-3.5,8.2-3.5s6.1,1.1,8.3,3.3c2.2,2.2,3.3,4.9,3.3,8.2s0,1.9,0,2.3h-15.2c.3,1.1.9,1.9,1.7,2.5.8.6,1.9.9,3.1.9s3.2-.7,4.6-2.1l3.8,5.1c-.9,1.1-2.1,1.9-3.7,2.6s-3.3,1-5.1,1h0ZM1334,54.6c-1.8,0-3.1,1-3.7,2.9h7.5c-.6-1.9-1.9-2.9-3.7-2.9h-.1Z"/>
        <path class="st16" d="M1383.3,71.3h-7.5v-2.1c-1.4,1.9-3.3,2.8-5.7,2.8s-5.4-1.1-7.5-3.3c-2.1-2.2-3.1-5-3.1-8.5s1-6.2,3-8.5c2-2.2,4.5-3.4,7.6-3.4s4.4.9,5.7,2.6v-1.9h7.5v22.4h0ZM1368.3,63.6c.8.9,1.9,1.4,3.1,1.4s2.3-.5,3.1-1.4c.8-.9,1.3-2,1.3-3.4s-.4-2.5-1.3-3.5c-.8-.9-1.9-1.4-3.1-1.4s-2.3.5-3.1,1.4c-.8.9-1.3,2.1-1.3,3.5s.4,2.5,1.3,3.4Z"/>
        <path class="st16" d="M1408.3,51.9l-4.2,5.3c-1.2-1.2-2.8-1.9-4.6-1.9s-2.6.5-3.4,1.4c-.9.9-1.3,2.1-1.3,3.5s.4,2.5,1.3,3.5c.9.9,2,1.4,3.4,1.4s3.4-.7,4.9-2.1l3.7,5.5c-.9,1.1-2.2,1.9-3.8,2.6s-3.3,1-5.1,1c-3.4,0-6.2-1.2-8.6-3.5s-3.6-5.1-3.6-8.4,1.2-6.1,3.5-8.5c2.4-2.3,5.2-3.5,8.4-3.5s6.9,1.2,9.2,3.6h.2Z"/>
        <path class="st16" d="M1413.5,55.5h-4.2v-6.6h4.2v-3.7l7.5-2.3v6.1h5.7v6.6h-5.6v6.9c0,1.7.6,2.6,1.9,2.6s1.8-.4,2.3-1.1l3.3,5.6c-1.7,1.7-4,2.6-6.9,2.6s-4.6-.8-6.1-2.4-2.2-4-2.2-7v-7.1h0v-.2Z"/>
        <path class="st16" d="M1435.4,47c-.9,0-1.7-.2-2.4-.7-.7-.5-1.2-1.2-1.5-1.9s-.4-1.6-.3-2.5.5-1.6,1.2-2.2c.9-.8,1.8-1.2,2.9-1.2s2.1.4,3,1.3,1.3,1.8,1.3,3-.4,2.1-1.2,3-1.8,1.2-3,1.2h0ZM1431.7,49h7.5v22.4h-7.5v-22.4Z"/>
        <path class="st16" d="M1455,64.7l4.7-15.8h7.6l-7.6,22.4h-9.8l-7.7-22.4h8.3l4.5,15.8Z"/>
        <path class="st16" d="M1481.4,72.1c-3.5,0-6.4-1.2-8.8-3.5s-3.6-5.1-3.6-8.4,1.1-6.1,3.4-8.5c2.2-2.3,4.9-3.5,8.2-3.5s6.1,1.1,8.3,3.3c2.2,2.2,3.3,4.9,3.3,8.2s0,1.9,0,2.3h-15.2c.3,1.1.9,1.9,1.7,2.5.8.6,1.9.9,3.1.9s3.2-.7,4.6-2.1l3.8,5.1c-.9,1.1-2.1,1.9-3.7,2.6s-3.3,1-5.1,1h0ZM1480.8,54.6c-1.8,0-3.1,1-3.7,2.9h7.5c-.6-1.9-1.9-2.9-3.7-2.9h-.1Z"/>
        <path class="st16" d="M1526.6,68.5c-2.3,2.3-5.1,3.5-8.4,3.5s-6.1-1.2-8.4-3.5-3.5-5.1-3.5-8.4,1.2-6.1,3.5-8.5c2.4-2.3,5.2-3.5,8.4-3.5s6,1.2,8.4,3.5c2.3,2.3,3.5,5.2,3.5,8.5s-1.2,6.1-3.5,8.4ZM1515.1,63.6c.8.9,1.9,1.4,3.1,1.4s2.3-.5,3.1-1.4c.8-.9,1.3-2,1.3-3.4s-.4-2.5-1.3-3.5c-.8-.9-1.9-1.4-3.1-1.4s-2.3.5-3.1,1.4c-.8.9-1.3,2.1-1.3,3.5s.4,2.5,1.3,3.4Z"/>
        <path class="st16" d="M1541.5,59v12.3h-7.5v-22.4h7.5v2.8c1.2-2.3,3.1-3.5,5.8-3.5s4.6.9,6.1,2.6,2.2,4.1,2.2,7.1v13.4h-7.5v-12.3c0-1.1-.3-2-.9-2.7s-1.4-1-2.4-1-1.8.3-2.4,1-.9,1.6-.9,2.7h0Z"/>
        <path class="st16" d="M1583.6,71.3h-10.9v-30h10.9c4.9,0,8.9,1.4,12.2,4.2s4.8,6.4,4.8,10.8-1.6,7.8-4.8,10.7c-3.2,2.8-7.3,4.2-12.2,4.2h0ZM1583.4,48.6h-2.8v15.5h2.8c2.7,0,4.8-.7,6.4-2.1,1.6-1.4,2.4-3.3,2.4-5.6s-.8-4.2-2.4-5.6c-1.6-1.4-3.8-2.1-6.4-2.1h0Z"/>
        <path class="st16" d="M1623.5,68.5c-2.3,2.3-5.1,3.5-8.4,3.5s-6.1-1.2-8.4-3.5-3.5-5.1-3.5-8.4,1.2-6.1,3.5-8.5c2.4-2.3,5.2-3.5,8.4-3.5s6,1.2,8.4,3.5c2.3,2.3,3.5,5.2,3.5,8.5s-1.2,6.1-3.5,8.4ZM1612,63.6c.8.9,1.9,1.4,3.1,1.4s2.3-.5,3.1-1.4c.8-.9,1.3-2,1.3-3.4s-.4-2.5-1.3-3.5c-.8-.9-1.9-1.4-3.1-1.4s-2.3.5-3.1,1.4c-.8.9-1.3,2.1-1.3,3.5s.4,2.5,1.3,3.4Z"/>
        <path class="st16" d="M1630.8,49h7.5v21.6c0,3.2-.8,5.8-2.5,7.7-1.7,1.9-4,2.9-7,2.9s-4.9-.8-6.5-2.3l3.5-5.6c.8.7,1.7,1,2.6,1s1.3-.3,1.7-.9.7-1.4.7-2.5v-22h0ZM1631.6,39.7c.9-.8,1.8-1.2,2.9-1.2s2.1.4,3,1.3,1.3,1.8,1.3,3-.4,2.1-1.2,3-1.8,1.2-3,1.2-1.7-.2-2.4-.7c-.7-.5-1.2-1.2-1.5-1.9s-.4-1.6-.3-2.5.5-1.6,1.2-2.2h0Z"/>
        <path class="st16" d="M1662.5,68.5c-2.3,2.3-5.1,3.5-8.4,3.5s-6.1-1.2-8.4-3.5-3.5-5.1-3.5-8.4,1.2-6.1,3.5-8.5c2.4-2.3,5.2-3.5,8.4-3.5s6,1.2,8.4,3.5c2.3,2.3,3.5,5.2,3.5,8.5s-1.2,6.1-3.5,8.4ZM1651,63.6c.8.9,1.9,1.4,3.1,1.4s2.3-.5,3.1-1.4c.8-.9,1.3-2,1.3-3.4s-.4-2.5-1.3-3.5c-.8-.9-1.9-1.4-3.1-1.4s-2.3.5-3.1,1.4c-.8.9-1.3,2.1-1.3,3.5s.4,2.5,1.3,3.4Z"/>
        <path class="st16" d="M607.1,127.4h-7.5v-2.1c-1.4,1.9-3.3,2.8-5.7,2.8s-5.4-1.1-7.5-3.3c-2.1-2.2-3.1-5-3.1-8.6s1-6.2,3-8.6c2-2.2,4.5-3.4,7.6-3.4s4.4.9,5.7,2.6v-1.9h7.5v22.4h0ZM592,119.7c.8.9,1.9,1.4,3.1,1.4s2.3-.5,3.1-1.4,1.3-2,1.3-3.4-.4-2.5-1.3-3.5-1.9-1.4-3.1-1.4-2.3.5-3.1,1.4-1.3,2.1-1.3,3.5.4,2.5,1.3,3.4Z"/>
        <path class="st16" d="M619.7,115.1v12.3h-7.5v-22.4h7.5v2.8c1.2-2.3,3.1-3.5,5.8-3.5s4.6.9,6.1,2.6,2.2,4.1,2.2,7.1v13.4h-7.5v-12.3c0-1.1-.3-2-.9-2.7-.6-.7-1.4-1-2.4-1s-1.8.3-2.4,1-.9,1.6-.9,2.7h0Z"/>
        <path class="st16" d="M654,106.9v-9.3l7.5-2.3v32.2h-7.5v-2.1c-1.4,1.9-3.3,2.8-5.7,2.8s-5.4-1.1-7.5-3.3c-2.1-2.2-3.1-5-3.1-8.6s1-6.2,3-8.6c2-2.2,4.5-3.4,7.6-3.4s4.4.9,5.7,2.6h0ZM646.5,119.7c.8.9,1.9,1.4,3.1,1.4s2.3-.5,3.1-1.4,1.3-2,1.3-3.4-.4-2.5-1.3-3.5-1.9-1.4-3.1-1.4-2.3.5-3.1,1.4-1.3,2.1-1.3,3.5.4,2.5,1.3,3.4Z"/>
        <path class="st16" d="M685.8,127.4h-7.5v-29.8l7.5-2.3v32.2h0Z"/>
        <path class="st16" d="M702,128.1c-3.5,0-6.4-1.2-8.8-3.5-2.4-2.3-3.5-5.1-3.5-8.4s1.1-6.1,3.4-8.5c2.2-2.3,4.9-3.5,8.2-3.5s6.1,1.1,8.3,3.3c2.2,2.2,3.3,4.9,3.3,8.2s0,1.9,0,2.3h-15.2c.3,1.1.9,1.9,1.7,2.5s1.9.9,3.1.9,3.3-.7,4.6-2.1l3.8,5.1c-.9,1.1-2.1,1.9-3.7,2.6s-3.3,1-5.1,1h0ZM701.4,110.7c-1.8,0-3.1,1-3.7,2.9h7.5c-.6-1.9-1.9-2.9-3.7-2.9h0Z"/>
        <path class="st16" d="M727.2,120.8l4.7-15.8h7.6l-7.6,22.4h-9.8l-7.7-22.4h8.3l4.5,15.8h0Z"/>
        <path class="st16" d="M753.6,128.1c-3.5,0-6.4-1.2-8.8-3.5-2.4-2.3-3.5-5.1-3.5-8.4s1.1-6.1,3.4-8.5c2.2-2.3,4.9-3.5,8.2-3.5s6.1,1.1,8.3,3.3c2.2,2.2,3.3,4.9,3.3,8.2s0,1.9,0,2.3h-15.2c.3,1.1.9,1.9,1.7,2.5s1.9.9,3.1.9,3.3-.7,4.6-2.1l3.8,5.1c-.9,1.1-2.1,1.9-3.7,2.6s-3.3,1-5.1,1h0ZM752.9,110.7c-1.8,0-3.1,1-3.7,2.9h7.5c-.6-1.9-1.9-2.9-3.7-2.9h0Z"/>
        <path class="st16" d="M775.6,127.4h-7.5v-29.8l7.5-2.3v32.2h0Z"/>
        <path class="st16" d="M791.7,105h7.5v11.8c0,1.3.3,2.3,1,3.1.7.8,1.5,1.2,2.6,1.2s1.9-.4,2.5-1.2,1-1.8,1-3.1v-11.8h7.5v12.3c0,3.2-1,5.8-3,7.8s-4.7,2.9-8,2.9-6-1-8-2.9c-2-2-3-4.6-3-7.8v-12.3h0Z"/>
        <path class="st16" d="M818.2,136.6v-31.5h7.5v2.1c1.4-1.9,3.3-2.8,5.7-2.8s5.4,1.1,7.5,3.3c2.1,2.2,3.1,5.1,3.1,8.6s-1,6.3-3,8.5c-2,2.3-4.5,3.4-7.6,3.4s-4.4-.9-5.7-2.6v11h-7.5ZM833.3,112.8c-.8-.9-1.9-1.4-3.1-1.4s-2.3.4-3.1,1.4c-.8.9-1.3,2.1-1.3,3.5s.4,2.5,1.3,3.5,1.9,1.4,3.1,1.4,2.3-.5,3.1-1.4,1.3-2.1,1.3-3.5-.4-2.5-1.3-3.5Z"/>
        <path class="st16" d="M855.2,105h8.3l5.3,12.9,4.3-12.9h7.6l-8.5,24.3c-1.8,5.3-5,7.9-9.6,7.9s-5.1-.9-7-2.7l3.3-5.9c1.1,1,2.3,1.5,3.7,1.5s2.3-.8,3-2.4l-10.3-22.8h0Z"/>
        <path class="st16" d="M902.7,124.6c-2.3,2.3-5.1,3.5-8.4,3.5s-6.1-1.2-8.4-3.5c-2.3-2.3-3.5-5.1-3.5-8.4s1.2-6.1,3.5-8.5c2.4-2.3,5.2-3.5,8.4-3.5s6,1.2,8.4,3.5c2.3,2.3,3.5,5.2,3.5,8.5s-1.2,6.1-3.5,8.4ZM891.2,119.7c.8.9,1.9,1.4,3.1,1.4s2.3-.5,3.1-1.4,1.3-2,1.3-3.4-.4-2.5-1.3-3.5-1.9-1.4-3.1-1.4-2.3.5-3.1,1.4-1.3,2.1-1.3,3.5.4,2.5,1.3,3.4Z"/>
        <path class="st16" d="M909.3,105h7.5v11.8c0,1.3.3,2.3,1,3.1.7.8,1.5,1.2,2.6,1.2s1.9-.4,2.5-1.2,1-1.8,1-3.1v-11.8h7.5v12.3c0,3.2-1,5.8-3,7.8s-4.7,2.9-8,2.9-6-1-8-2.9c-2-2-3-4.6-3-7.8v-12.3h0Z"/>
        <path class="st16" d="M943.4,115.3v12.1h-7.5v-22.4h7.5v3.5c1.2-2.8,3-4.2,5.3-4.2s2.8.4,3.7,1.3l-3.1,7.1c-.8-.7-1.8-1.1-3-1.1s-1.6.3-2.2,1c-.5.7-.8,1.6-.8,2.7h0Z"/>
        <path class="st16" d="M974.9,115.3v12.1h-7.5v-22.4h7.5v3.5c1.2-2.8,3-4.2,5.3-4.2s2.8.4,3.7,1.3l-3.1,7.1c-.8-.7-1.8-1.1-3-1.1s-1.6.3-2.2,1c-.5.7-.8,1.6-.8,2.7h0Z"/>
        <path class="st16" d="M998.3,128.1c-3.5,0-6.4-1.2-8.8-3.5-2.4-2.3-3.5-5.1-3.5-8.4s1.1-6.1,3.4-8.5c2.2-2.3,4.9-3.5,8.2-3.5s6.1,1.1,8.3,3.3c2.2,2.2,3.3,4.9,3.3,8.2s0,1.9,0,2.3h-15.2c.3,1.1.9,1.9,1.7,2.5s1.9.9,3.1.9,3.2-.7,4.6-2.1l3.8,5.1c-.9,1.1-2.1,1.9-3.7,2.6s-3.3,1-5.1,1h0ZM997.6,110.7c-1.8,0-3.1,1-3.7,2.9h7.5c-.6-1.9-1.9-2.9-3.7-2.9h0Z"/>
        <path class="st16" d="M1012.8,136.6v-31.5h7.5v2.1c1.4-1.9,3.3-2.8,5.7-2.8s5.4,1.1,7.5,3.3c2.1,2.2,3.1,5.1,3.1,8.6s-1,6.3-3,8.5c-2,2.3-4.5,3.4-7.6,3.4s-4.4-.9-5.7-2.6v11h-7.5ZM1027.8,112.8c-.8-.9-1.9-1.4-3.1-1.4s-2.3.4-3.1,1.4c-.8.9-1.3,2.1-1.3,3.5s.4,2.5,1.3,3.5c.8.9,1.9,1.4,3.1,1.4s2.3-.5,3.1-1.4,1.3-2.1,1.3-3.5-.4-2.5-1.3-3.5Z"/>
        <path class="st16" d="M1039.8,105h7.5v11.8c0,1.3.3,2.3,1,3.1.7.8,1.5,1.2,2.6,1.2s1.9-.4,2.6-1.2,1-1.8,1-3.1v-11.8h7.5v12.3c0,3.2-1,5.8-3,7.8s-4.7,2.9-8,2.9-6-1-8-2.9-3-4.6-3-7.8v-12.3h-.2Z"/>
        <path class="st16" d="M1068.4,111.6h-4.2v-6.6h4.2v-3.7l7.5-2.3v6.1h5.7v6.6h-5.6v6.9c0,1.7.6,2.6,1.9,2.6s1.8-.4,2.3-1.1l3.3,5.6c-1.7,1.7-4,2.6-6.9,2.6s-4.6-.8-6.1-2.4-2.2-4-2.2-7v-7.1h0v-.2Z"/>
        <path class="st16" d="M1109.2,127.4h-7.5v-2.1c-1.4,1.9-3.3,2.8-5.7,2.8s-5.4-1.1-7.5-3.3c-2.1-2.2-3.1-5-3.1-8.6s1-6.2,3-8.6c2-2.2,4.5-3.4,7.6-3.4s4.4.9,5.7,2.6v-1.9h7.5v22.4h0ZM1094.1,119.7c.8.9,1.9,1.4,3.1,1.4s2.3-.5,3.1-1.4c.8-.9,1.3-2,1.3-3.4s-.4-2.5-1.3-3.5-1.9-1.4-3.1-1.4-2.3.5-3.1,1.4-1.3,2.1-1.3,3.5.4,2.5,1.3,3.4Z"/>
        <path class="st16" d="M1116.4,111.6h-4.2v-6.6h4.2v-3.7l7.5-2.3v6.1h5.7v6.6h-5.6v6.9c0,1.7.6,2.6,1.9,2.6s1.8-.4,2.3-1.1l3.3,5.6c-1.7,1.7-4,2.6-6.9,2.6s-4.6-.8-6.1-2.4-2.2-4-2.2-7v-7.1h0v-.2Z"/>
        <path class="st16" d="M1138.4,103c-.9,0-1.7-.2-2.4-.7-.7-.5-1.2-1.2-1.5-1.9-.3-.8-.4-1.6-.3-2.4,0-.9.5-1.6,1.2-2.2.9-.8,1.8-1.2,2.9-1.2s2.1.4,3,1.3c.9.8,1.3,1.8,1.3,3s-.4,2.1-1.2,3-1.8,1.2-3,1.2h0ZM1134.6,105h7.5v22.4h-7.5v-22.4Z"/>
        <path class="st16" d="M1166.3,124.6c-2.3,2.3-5.1,3.5-8.4,3.5s-6.1-1.2-8.4-3.5-3.5-5.1-3.5-8.4,1.2-6.1,3.5-8.5c2.4-2.3,5.2-3.5,8.4-3.5s6,1.2,8.4,3.5c2.3,2.3,3.5,5.2,3.5,8.5s-1.2,6.1-3.5,8.4ZM1154.8,119.7c.8.9,1.9,1.4,3.1,1.4s2.3-.5,3.1-1.4c.8-.9,1.3-2,1.3-3.4s-.4-2.5-1.3-3.5-1.9-1.4-3.1-1.4-2.3.5-3.1,1.4-1.3,2.1-1.3,3.5.4,2.5,1.3,3.4Z"/>
        <path class="st16" d="M1181.2,115.1v12.3h-7.5v-22.4h7.5v2.8c1.2-2.3,3.1-3.5,5.8-3.5s4.6.9,6.1,2.6,2.2,4.1,2.2,7.1v13.4h-7.5v-12.3c0-1.1-.3-2-.9-2.7s-1.4-1-2.4-1-1.8.3-2.4,1-.9,1.6-.9,2.7h0Z"/>
        <path class="st16" d="M1214.2,111.6h-4.2v-6.6h4.2v-3.7l7.5-2.3v6.1h5.7v6.6h-5.6v6.9c0,1.7.6,2.6,1.9,2.6s1.8-.4,2.3-1.1l3.3,5.6c-1.7,1.7-4,2.6-6.9,2.6s-4.6-.8-6.1-2.4-2.2-4-2.2-7v-7.1h0v-.2Z"/>
        <path class="st16" d="M1251.4,124.6c-2.3,2.3-5.1,3.5-8.4,3.5s-6.1-1.2-8.4-3.5-3.5-5.1-3.5-8.4,1.2-6.1,3.5-8.5c2.4-2.3,5.2-3.5,8.4-3.5s6,1.2,8.4,3.5c2.3,2.3,3.5,5.2,3.5,8.5s-1.2,6.1-3.5,8.4ZM1239.9,119.7c.8.9,1.9,1.4,3.1,1.4s2.3-.5,3.1-1.4c.8-.9,1.3-2,1.3-3.4s-.4-2.5-1.3-3.5-1.9-1.4-3.1-1.4-2.3.5-3.1,1.4-1.3,2.1-1.3,3.5.4,2.5,1.3,3.4Z"/>
        <path class="st16" d="M1281.5,128.1c-3.5,0-6.4-1.2-8.8-3.5s-3.6-5.1-3.6-8.4,1.1-6.1,3.4-8.5c2.2-2.3,4.9-3.5,8.2-3.5s6.1,1.1,8.3,3.3c2.2,2.2,3.3,4.9,3.3,8.2s0,1.9,0,2.3h-15.2c.3,1.1.9,1.9,1.7,2.5s1.9.9,3.1.9,3.2-.7,4.6-2.1l3.8,5.1c-.9,1.1-2.1,1.9-3.7,2.6s-3.3,1-5.1,1h0ZM1280.8,110.7c-1.8,0-3.1,1-3.7,2.9h7.5c-.6-1.9-1.9-2.9-3.7-2.9h-.1Z"/>
        <path class="st16" d="M1303.5,115.1v12.3h-7.5v-22.4h7.5v2.8c1.2-2.3,3.1-3.5,5.8-3.5s4.6.9,6.1,2.6,2.2,4.1,2.2,7.1v13.4h-7.5v-12.3c0-1.1-.3-2-.9-2.7s-1.4-1-2.4-1-1.8.3-2.4,1-.9,1.6-.9,2.7h0Z"/>
        <path class="st16" d="M1324.9,111.6h-4.2v-6.6h4.2v-3.7l7.5-2.3v6.1h5.7v6.6h-5.6v6.9c0,1.7.6,2.6,1.9,2.6s1.8-.4,2.3-1.1l3.3,5.6c-1.7,1.7-4,2.6-6.9,2.6s-4.6-.8-6.1-2.4-2.2-4-2.2-7v-7.1h0v-.2Z"/>
        <path class="st16" d="M1354.1,128.1c-3.5,0-6.4-1.2-8.8-3.5s-3.6-5.1-3.6-8.4,1.1-6.1,3.4-8.5c2.2-2.3,4.9-3.5,8.2-3.5s6.1,1.1,8.3,3.3c2.2,2.2,3.3,4.9,3.3,8.2s0,1.9,0,2.3h-15.2c.3,1.1.9,1.9,1.7,2.5s1.9.9,3.1.9,3.2-.7,4.6-2.1l3.8,5.1c-.9,1.1-2.1,1.9-3.7,2.6s-3.3,1-5.1,1h0ZM1353.5,110.7c-1.8,0-3.1,1-3.7,2.9h7.5c-.6-1.9-1.9-2.9-3.7-2.9h-.1Z"/>
        <path class="st16" d="M1376.1,115.3v12.1h-7.5v-22.4h7.5v3.5c1.2-2.8,3-4.2,5.3-4.2s2.8.4,3.7,1.3l-3.1,7.1c-.8-.7-1.8-1.1-3-1.1s-1.6.3-2.2,1c-.5.7-.8,1.6-.8,2.7h0Z"/>
        <path class="st16" d="M1402.2,111.6h-4.2v-6.6h4.2v-3.7l7.5-2.3v6.1h5.7v6.6h-5.6v6.9c0,1.7.6,2.6,1.9,2.6s1.8-.4,2.3-1.1l3.3,5.6c-1.7,1.7-4,2.6-6.9,2.6s-4.6-.8-6.1-2.4-2.2-4-2.2-7v-7.1h0v-.2Z"/>
        <path class="st16" d="M1428,115.1v12.3h-7.5v-29.8l7.5-2.3v12.5c1.2-2.3,3.1-3.5,5.8-3.5s4.6.9,6.1,2.6,2.2,4.1,2.2,7.1v13.4h-7.5v-12.3c0-1.1-.3-2-.9-2.7s-1.4-1-2.4-1-1.8.3-2.4,1-.9,1.6-.9,2.7h0Z"/>
        <path class="st16" d="M1458.3,128.1c-3.5,0-6.4-1.2-8.8-3.5s-3.6-5.1-3.6-8.4,1.1-6.1,3.4-8.5c2.2-2.3,4.9-3.5,8.2-3.5s6.1,1.1,8.3,3.3c2.2,2.2,3.3,4.9,3.3,8.2s0,1.9,0,2.3h-15.2c.3,1.1.9,1.9,1.7,2.5s1.9.9,3.1.9,3.2-.7,4.6-2.1l3.8,5.1c-.9,1.1-2.1,1.9-3.7,2.6s-3.3,1-5.1,1h0ZM1457.6,110.7c-1.8,0-3.1,1-3.7,2.9h7.5c-.6-1.9-1.9-2.9-3.7-2.9h-.1Z"/>
        <path class="st16" d="M1492,115.1v12.3h-7.5v-22.4h7.5v2.8c1.2-2.3,3.1-3.5,5.8-3.5s4.6.9,6.1,2.6,2.2,4.1,2.2,7.1v13.4h-7.5v-12.3c0-1.1-.3-2-.9-2.7s-1.4-1-2.4-1-1.8.3-2.4,1-.9,1.6-.9,2.7h0Z"/>
        <path class="st16" d="M1522.3,128.1c-3.5,0-6.4-1.2-8.8-3.5s-3.6-5.1-3.6-8.4,1.1-6.1,3.4-8.5c2.2-2.3,4.9-3.5,8.2-3.5s6.1,1.1,8.3,3.3c2.2,2.2,3.3,4.9,3.3,8.2s0,1.9,0,2.3h-15.2c.3,1.1.9,1.9,1.7,2.5s1.9.9,3.1.9,3.2-.7,4.6-2.1l3.8,5.1c-.9,1.1-2.1,1.9-3.7,2.6s-3.3,1-5.1,1h0ZM1521.6,110.7c-1.8,0-3.1,1-3.7,2.9h7.5c-.6-1.9-1.9-2.9-3.7-2.9h-.1Z"/>
        <path class="st16" d="M1560.3,127.4h-9.3l-3.9-5.5-4.1,5.5h-8.4l8.3-11.2-8.1-11.2h9.3l3.7,5.1,3.8-5.1h8.4l-8.1,10.9,8.3,11.5h0Z"/>
        <path class="st16" d="M1565.5,111.6h-4.2v-6.6h4.2v-3.7l7.5-2.3v6.1h5.7v6.6h-5.6v6.9c0,1.7.6,2.6,1.9,2.6s1.8-.4,2.3-1.1l3.3,5.6c-1.7,1.7-4,2.6-6.9,2.6s-4.6-.8-6.1-2.4-2.2-4-2.2-7v-7.1h0v-.2Z"/>
        <path class="st16" d="M1602.9,127.4h-7.5v-29.8l7.5-2.3v32.2h0Z"/>
        <path class="st16" d="M1619.1,128.1c-3.5,0-6.4-1.2-8.8-3.5s-3.6-5.1-3.6-8.4,1.1-6.1,3.4-8.5c2.2-2.3,4.9-3.5,8.2-3.5s6.1,1.1,8.3,3.3c2.2,2.2,3.3,4.9,3.3,8.2s0,1.9,0,2.3h-15.2c.3,1.1.9,1.9,1.7,2.5s1.9.9,3.1.9,3.2-.7,4.6-2.1l3.8,5.1c-.9,1.1-2.1,1.9-3.7,2.6s-3.3,1-5.1,1h0ZM1618.4,110.7c-1.8,0-3.1,1-3.7,2.9h7.5c-.6-1.9-1.9-2.9-3.7-2.9h-.1Z"/>
        <path class="st16" d="M1644.2,120.8l4.7-15.8h7.6l-7.6,22.4h-9.8l-7.7-22.4h8.3l4.5,15.8Z"/>
        <path class="st16" d="M1670.6,128.1c-3.5,0-6.4-1.2-8.8-3.5s-3.6-5.1-3.6-8.4,1.1-6.1,3.4-8.5c2.2-2.3,4.9-3.5,8.2-3.5s6.1,1.1,8.3,3.3c2.2,2.2,3.3,4.9,3.3,8.2s0,1.9,0,2.3h-15.2c.3,1.1.9,1.9,1.7,2.5s1.9.9,3.1.9,3.2-.7,4.6-2.1l3.8,5.1c-.9,1.1-2.1,1.9-3.7,2.6s-3.3,1-5.1,1h0ZM1670,110.7c-1.8,0-3.1,1-3.7,2.9h7.5c-.6-1.9-1.9-2.9-3.7-2.9h-.1Z"/>
        <path class="st16" d="M1692.6,127.4h-7.5v-29.8l7.5-2.3v32.2h0Z"/>
        <path class="st16" d="M1705.5,120.2c.9.9,1.4,2,1.4,3.3s-.4,2.4-1.4,3.3c-.9.9-2,1.4-3.3,1.4s-2.4-.4-3.3-1.4-1.3-2-1.3-3.3.4-2.4,1.3-3.3,2-1.4,3.3-1.4,2.4.4,3.3,1.4ZM1706.2,97.5l-1,17.9h-5.9l-1-17.9h8,0Z"/>
      </g>
      <circle class="st5" cx="278.9" cy="330.9" r="25.3"/>
      <circle class="st5" cx="85.6" cy="330.9" r="16.9"/>
      <circle class="st3" cx="85.6" cy="330.9" r="10.1"/>
      <path class="st3" d="M41.8,243.9h87.4c11.8,0,21.3,9.5,21.3,21.3h0c0,11.8-9.5,21.3-21.3,21.3H41.8c-11.8,0-21.3-9.5-21.3-21.3h0c0-11.8,9.5-21.3,21.3-21.3h0Z"/>
      <path class="st3" d="M97.2,286.5l-.7-8.5h-22.1l-.7,8.5c6.5,2.2,11.7,12,11.7,18.1,0-6.1,5.2-15.8,11.7-18.1h0Z"/>
      <g>
        <path class="st5" d="M53,259.4l-2.8,2.8c-.9-1.2-2-1.8-3.5-1.8s-1.5.3-1.5,1,.2.6.7.9,1.2.5,2.2.9,1.7.6,2.2.8c.8.4,1.5.9,2,1.6s.8,1.6.8,2.5c0,1.5-.6,2.7-1.8,3.7s-2.7,1.5-4.6,1.5c-3,0-5.2-1-6.4-3l2.9-2.7c.9,1.2,2.1,1.9,3.6,1.9s1.9-.4,1.9-1.1-.2-.5-.4-.7c-.3-.2-.7-.4-1.1-.6s-1-.3-1.5-.5-1.1-.4-1.7-.6-1.1-.6-1.5-.9c-.5-.4-.8-.8-1.1-1.4s-.4-1.3-.4-2c0-1.4.6-2.6,1.7-3.5,1.2-.9,2.6-1.4,4.4-1.4s2.5.3,3.6.8,1.9,1.2,2.5,2.1h0l-.2-.3Z"/>
        <path class="st5" d="M59.2,272.8h-4.1v-15.9h4.1v15.9Z"/>
        <path class="st5" d="M75.9,263.5v7.8c-1.6,1.3-3.7,1.9-6.3,1.9s-4.3-.8-5.8-2.4-2.3-3.6-2.3-5.9.8-4.2,2.4-5.9c1.6-1.6,3.6-2.4,5.8-2.4s4.7.8,6.1,2.4l-2.7,3.1c-.9-.9-2-1.4-3.3-1.4s-2,.4-2.8,1.2c-.8.8-1.1,1.8-1.1,3s.4,2.2,1.2,3c.8.8,1.8,1.2,2.9,1.2s1.3-.1,1.9-.5v-5.1h4.1,0ZM69.5,263.5h6.4l-2,3.3h-4.4v-3.3Z"/>
        <path class="st5" d="M92.9,272.8h-4.4l-5.8-9v9h-4.1v-15.9h4.4l5.8,9.2v-9.2h4.1v15.9Z"/>
        <path class="st5" d="M102,266v-9.1h4.1v9c0,1,.2,1.7.8,2.3.5.6,1.2.9,2,.9s1.5-.3,1.9-.9c.5-.6.7-1.3.7-2.3v-9h4.1v9.1c0,2.1-.6,3.9-1.9,5.2-1.3,1.3-2.9,2-5,2s-3.7-.7-4.9-2c-1.2-1.3-1.9-3-1.9-5.2h.1Z"/>
        <path class="st5" d="M122.5,272.8h-4.1v-15.9h5.8c2,0,3.7.5,4.9,1.5,1.2,1,1.8,2.4,1.8,4s-.6,3-1.8,4c-1.3,1-2.9,1.5-4.9,1.5h-1.7v4.8h0ZM124.5,260.5h-2v3.9h2c.6,0,1.1-.2,1.5-.5.4-.4.6-.8.6-1.4s-.2-1-.6-1.4-.9-.5-1.5-.5h0Z"/>
      </g>
      <g>
        <polygon class="st5" points="316 367.7 305.3 365.6 333.6 330.9 305.3 296.1 316 294 346 330.9 316 367.7"/>
        <polygon class="st5" points="347.4 367.7 336.7 365.6 364.9 330.9 336.7 296.1 347.4 294 377.4 330.9 347.4 367.7"/>
        <polygon class="st5" points="378.8 367.7 368.1 365.6 396.3 330.9 368.1 296.1 378.8 294 408.7 330.9 378.8 367.7"/>
        <polygon class="st5" points="410.2 367.7 399.4 365.6 427.7 330.9 399.4 296.1 410.2 294 440.1 330.9 410.2 367.7"/>
      </g>
      <circle class="st5" cx="841.6" cy="330.9" r="25.3"/>
      <circle class="st5" cx="470.3" cy="330.9" r="16.9"/>
      <circle class="st3" cx="470.3" cy="330.9" r="10.1"/>
      <path class="st3" d="M426.6,243.9h87.4c11.8,0,21.3,9.5,21.3,21.3h0c0,11.8-9.5,21.3-21.3,21.3h-87.4c-11.8,0-21.3-9.5-21.3-21.3h0c0-11.8,9.5-21.3,21.3-21.3h0Z"/>
      <path class="st16" d="M795.4,355.9h92.4c11.8,0,21.3,9.5,21.3,21.3h0c0,11.8-9.5,21.3-21.3,21.3h-92.4c-11.8,0-21.3-9.5-21.3-21.3h0c0-11.8,9.5-21.3,21.3-21.3Z"/>
      <path class="st3" d="M482,286.5l-.6-8.5h-22.1l-.6,8.5c6.5,2.2,11.7,12,11.7,18.1,0-6.1,5.2-15.8,11.7-18.1h-.1Z"/>
      <g>
        <path class="st5" d="M444,272.8h-11.3v-15.9h4.1v12h7.2v3.8h0Z"/>
        <path class="st5" d="M447.4,258.9c1.6-1.6,3.6-2.4,5.9-2.4s4.2.8,5.9,2.4c1.6,1.6,2.4,3.6,2.4,5.9s-.8,4.2-2.4,5.9c-1.6,1.6-3.6,2.4-5.9,2.4s-4.3-.8-5.9-2.5c-1.6-1.6-2.5-3.6-2.5-5.9s.8-4.2,2.5-5.9h0ZM449.4,264.8c0,1.2.4,2.2,1.2,3,.8.8,1.7,1.2,2.8,1.2s2-.4,2.8-1.2c.8-.8,1.1-1.8,1.1-3s-.4-2.2-1.1-3c-.8-.8-1.7-1.2-2.8-1.2s-2,.4-2.8,1.2c-.8.8-1.2,1.8-1.2,3Z"/>
        <path class="st5" d="M477.6,263.5v7.8c-1.6,1.3-3.7,1.9-6.3,1.9s-4.3-.8-5.9-2.4-2.4-3.6-2.4-5.9.8-4.2,2.4-5.9,3.5-2.4,5.8-2.4,4.7.8,6.1,2.4l-2.7,3.1c-.9-.9-2-1.4-3.3-1.4s-2,.4-2.8,1.2c-.8.8-1.1,1.8-1.1,3s.4,2.2,1.2,3c.8.8,1.8,1.2,2.9,1.2s1.3-.1,1.9-.5v-5.1h4.2ZM471.2,263.5h6.4l-2,3.3h-4.4v-3.3Z"/>
        <path class="st5" d="M490.6,272.8h-4.1v-15.9h4.1v15.9Z"/>
        <path class="st5" d="M507.9,272.8h-4.4l-5.8-9v9h-4.1v-15.9h4.4l5.8,9.2v-9.2h4.1v15.9Z"/>
      </g>
      <g>
        <path d="M44.5,372.5h-2.5v-12.8h8.1v2.4h-5.6v3.1h4.8v2.4h-4.8v5h0Z"/>
        <path d="M54.9,372.5h-2.5v-12.8h4.6c1.5,0,2.7.4,3.6,1.1.9.8,1.4,1.7,1.4,2.9s-.2,1.6-.7,2.2-1.1,1.1-2,1.4l3,5.1h-2.9l-2.6-4.7h-1.8v4.7h0ZM57.2,361.9h-2.3v3.7h2.3c.7,0,1.2-.2,1.6-.5s.6-.8.6-1.4-.2-1-.6-1.3c-.4-.3-.9-.5-1.6-.5h0Z"/>
        <path d="M73,372.5h-8.3v-12.8h8.3v2.3h-5.8v2.8h5v2.4h-5v2.9h5.8v2.4h0Z"/>
        <path d="M83.6,372.5h-8.3v-12.8h8.3v2.3h-5.8v2.8h5v2.4h-5v2.9h5.8v2.4h0Z"/>
        <path d="M102.2,372.5h-2.8l-1.1-2.9h-5.6l-1.1,2.9h-2.6l5.2-12.8h2.9l5.2,12.8h0ZM93.6,367.4h3.9l-2-5.1-2,5.1h0Z"/>
        <path d="M115.2,372.5h-2.7l-6-8.7v8.7h-2.5v-12.8h2.7l6,8.8v-8.8h2.5v12.8Z"/>
        <path d="M122.6,372.5h-4.4v-12.8h4.3c2.1,0,3.8.6,5.2,1.8,1.4,1.2,2,2.8,2,4.6s-.7,3.4-2,4.6-3.1,1.8-5.1,1.8h0ZM122.5,362.1h-1.7v8.1h1.7c1.4,0,2.5-.4,3.3-1.1.8-.8,1.2-1.7,1.2-2.9s-.4-2.2-1.2-2.9c-.8-.7-1.9-1.1-3.3-1.1h0Z"/>
        <path d="M40.1,385.6l-1.7,1.7c-.3-.4-.7-.8-1.3-1.1s-1.1-.4-1.7-.4-1,.1-1.4.4-.5.5-.5.9.2.7.5.9.8.5,1.2.6c.5.1,1,.3,1.6.5s1.1.5,1.6.7.9.6,1.2,1.2.5,1.1.5,1.8c0,1.2-.5,2.1-1.3,2.9-.9.8-2.1,1.1-3.6,1.1-2.3,0-4-.8-5-2.3l1.8-1.7c.8,1.1,1.9,1.6,3.3,1.6s1.2-.1,1.6-.4.6-.6.6-1.1,0-.5-.2-.7-.4-.4-.8-.6-.7-.3-1-.4-.7-.3-1.2-.4c-.5-.2-.9-.3-1.2-.4-.7-.3-1.3-.7-1.7-1.2-.4-.5-.7-1.2-.7-2s.4-2,1.3-2.7c.8-.7,2-1,3.4-1s1.9.2,2.7.6,1.5.9,1.9,1.6h.1Z"/>
        <path d="M42.3,391.3v-7.6h2.5v7.6c0,.9.2,1.6.8,2.2s1.2.8,2,.8,1.5-.3,2-.8.8-1.3.8-2.2v-7.6h2.5v7.6c0,1.6-.5,3-1.4,4-1,1-2.2,1.5-3.8,1.5s-2.8-.5-3.8-1.5-1.4-2.3-1.4-4h-.2Z"/>
        <path d="M58.2,396.5h-2.5v-12.8h4.6c1.6,0,2.8.4,3.7,1.2.9.8,1.4,1.8,1.4,3.1s-.5,2.3-1.4,3.1c-.9.8-2.2,1.2-3.8,1.2h-2v4.3h0ZM60.5,385.9h-2.3v4.1h2.3c.7,0,1.2-.2,1.7-.6s.6-.9.6-1.5-.2-1.1-.6-1.5c-.4-.4-1-.6-1.7-.6h0Z"/>
        <path d="M75.9,396.5h-8.3v-12.8h8.3v2.3h-5.8v2.8h5v2.4h-5v2.9h5.8v2.4h0Z"/>
        <path d="M80.8,396.5h-2.5v-12.8h4.6c1.5,0,2.7.4,3.6,1.1.9.8,1.4,1.7,1.4,2.9s-.2,1.6-.7,2.2-1.1,1.1-2,1.4l3,5.1h-2.9l-2.6-4.7h-1.8v4.7h0ZM83,385.9h-2.3v3.7h2.3c.7,0,1.2-.2,1.6-.5s.6-.8.6-1.4-.2-1-.6-1.3-.9-.5-1.6-.5h0Z"/>
        <path d="M103.1,396.5h-8.3v-12.8h8.3v2.3h-5.8v2.8h5v2.4h-5v2.9h5.8v2.4h0Z"/>
        <path d="M117.4,396.5h-2.8l-1.1-2.9h-5.6l-1.1,2.9h-2.6l5.2-12.8h2.9l5.2,12.8h0ZM108.8,391.4h3.9l-2-5.1-2,5.1h0Z"/>
        <path d="M128.2,385.6l-1.7,1.7c-.3-.4-.7-.8-1.3-1.1s-1.1-.4-1.7-.4-1.1.1-1.4.4-.5.5-.5.9.2.7.5.9.8.5,1.2.6c.5.1,1,.3,1.6.5s1.1.5,1.6.7.9.6,1.2,1.2c.3.5.5,1.1.5,1.8,0,1.2-.4,2.1-1.3,2.9s-2.1,1.1-3.6,1.1c-2.3,0-4-.8-5-2.3l1.8-1.7c.8,1.1,1.9,1.6,3.3,1.6s1.2-.1,1.6-.4.6-.6.6-1.1,0-.5-.2-.7-.4-.4-.8-.6-.7-.3-1-.4-.7-.3-1.2-.4-.9-.3-1.2-.4c-.7-.3-1.3-.7-1.7-1.2s-.7-1.2-.7-2,.4-2,1.3-2.7c.8-.7,2-1,3.4-1s1.9.2,2.7.6c.8.4,1.4.9,1.9,1.6h.1Z"/>
        <path d="M136.5,396.5h-2.5v-4.3l-4.7-8.6h2.8l3.2,5.9,3.3-5.9h2.6l-4.7,8.6v4.3h0Z"/>
      </g>
      <g>
        <path d="M245.1,369.6l2.8-9.9h2.6l-4.1,12.8h-3.1l-2.5-9.7-2.5,9.7h-3l-4.1-12.8h2.8l2.8,9.9,2.6-9.9h3.1l2.6,9.9h0Z"/>
        <path d="M260.9,372.5h-8.3v-12.8h8.3v2.3h-5.8v2.8h5v2.4h-5v2.9h5.8v2.4h0Z"/>
        <path d="M272,372.5h-8.8v-12.8h2.5v10.5h6.3v2.4h0Z"/>
        <path d="M284.5,361.2l-1.7,1.9c-.9-.8-1.9-1.2-3.1-1.2s-2,.4-2.8,1.2c-.8.8-1.2,1.8-1.2,3s.4,2.1,1.2,3c.8.8,1.8,1.2,2.9,1.2s2.2-.4,2.9-1.2l1.7,1.8c-1.1,1.2-2.7,1.8-4.7,1.8s-3.4-.6-4.7-2-1.9-2.9-1.9-4.7.6-3.5,1.9-4.7c1.3-1.3,2.8-2,4.6-2s3.6.6,4.7,1.8h.2Z"/>
        <path d="M287.7,361.4c1.3-1.3,2.9-2,4.7-2s3.4.6,4.7,2c1.3,1.3,1.9,2.9,1.9,4.7s-.6,3.4-1.9,4.7-2.9,2-4.7,2-3.4-.6-4.7-2-1.9-2.9-1.9-4.7.6-3.5,1.9-4.7ZM292.4,370.3c1.1,0,2-.4,2.8-1.2.8-.8,1.2-1.8,1.2-3s-.4-2.2-1.2-3-1.7-1.2-2.8-1.2-2,.4-2.8,1.2-1.2,1.8-1.2,3,.4,2.1,1.2,2.9c.8.8,1.7,1.2,2.8,1.2h0Z"/>
        <path d="M312.5,363.6l-4.3,6.5-4.3-6.5v8.9h-2.5v-12.8h2.9l4.1,6.4,4.1-6.4h2.6v12.8h-2.5v-8.9h-.1Z"/>
        <path d="M326.4,372.5h-8.3v-12.8h8.3v2.3h-5.8v2.8h5v2.4h-5v2.9h5.8v2.4h0Z"/>
        <path d="M206.7,383.7v2.3h-3.8v10.5h-2.5v-10.5h-3.8v-2.3h10.1Z"/>
        <path d="M209.8,385.4c1.3-1.3,2.9-2,4.7-2s3.4.6,4.7,2c1.3,1.3,1.9,2.9,1.9,4.7s-.6,3.4-1.9,4.7-2.9,2-4.7,2-3.4-.6-4.7-2c-1.3-1.3-1.9-2.9-1.9-4.7s.6-3.5,1.9-4.7ZM214.5,394.3c1.1,0,2.1-.4,2.8-1.2s1.2-1.8,1.2-3-.4-2.2-1.2-3-1.7-1.2-2.8-1.2-2,.4-2.8,1.2-1.2,1.8-1.2,3,.4,2.1,1.2,2.9,1.7,1.2,2.8,1.2h0Z"/>
        <path d="M236.7,383.7v2.3h-3.8v10.5h-2.5v-10.5h-3.8v-2.3h10.1Z"/>
        <path d="M249.6,396.5h-2.5v-5.4h-6.1v5.4h-2.5v-12.8h2.5v5.1h6.1v-5.1h2.5v12.8Z"/>
        <path d="M261,396.5h-8.3v-12.8h8.3v2.3h-5.8v2.8h5v2.4h-5v2.9h5.8v2.4h0Z"/>
        <path d="M270.1,396.5h-2.5v-12.8h4.6c1.6,0,2.8.4,3.7,1.2s1.4,1.8,1.4,3.1-.5,2.3-1.4,3.1c-.9.8-2.2,1.2-3.8,1.2h-2v4.3h0ZM272.3,385.9h-2.3v4.1h2.3c.7,0,1.2-.2,1.7-.6s.6-.9.6-1.5-.2-1.1-.6-1.5-1-.6-1.7-.6h0Z"/>
        <path d="M282,396.5h-2.5v-12.8h4.6c1.5,0,2.7.4,3.6,1.1.9.8,1.4,1.7,1.4,2.9s-.2,1.6-.7,2.2-1.1,1.1-2,1.4l3,5.1h-2.9l-2.6-4.7h-1.8v4.7h-.1ZM284.3,385.9h-2.3v3.7h2.3c.6,0,1.2-.2,1.6-.5s.6-.8.6-1.4-.2-1-.6-1.3-.9-.5-1.6-.5h0Z"/>
        <path d="M293,385.4c1.3-1.3,2.9-2,4.7-2s3.4.6,4.7,2c1.3,1.3,1.9,2.9,1.9,4.7s-.6,3.4-1.9,4.7-2.9,2-4.7,2-3.4-.6-4.7-2-1.9-2.9-1.9-4.7.6-3.5,1.9-4.7ZM297.7,394.3c1.1,0,2-.4,2.8-1.2.8-.8,1.2-1.8,1.2-3s-.4-2.2-1.2-3-1.7-1.2-2.8-1.2-2,.4-2.8,1.2-1.2,1.8-1.2,3,.4,2.1,1.2,2.9c.8.8,1.7,1.2,2.8,1.2h0Z"/>
        <path d="M317.5,389.5v5.9c-1.2.9-2.8,1.4-4.8,1.4s-3.4-.6-4.7-2-1.9-2.9-1.9-4.7.6-3.5,1.9-4.7c1.3-1.3,2.8-2,4.6-2s3.6.6,4.7,1.8l-1.7,1.9c-.9-.8-1.9-1.2-3.1-1.2s-2,.4-2.8,1.2c-.8.8-1.2,1.8-1.2,3s.4,2.1,1.2,3c.8.8,1.8,1.2,2.9,1.2s1.5-.2,2.2-.5v-3.6l2.5-.7h.2ZM312.1,389.5h5.4l-.9,2.2h-4.5v-2.2Z"/>
        <path d="M322.8,396.5h-2.5v-12.8h4.6c1.5,0,2.7.4,3.6,1.1.9.8,1.4,1.7,1.4,2.9s-.2,1.6-.7,2.2-1.1,1.1-2,1.4l3,5.1h-2.9l-2.6-4.7h-1.8v4.7h-.1ZM325,385.9h-2.3v3.7h2.3c.6,0,1.2-.2,1.6-.5s.6-.8.6-1.4-.2-1-.6-1.3-.9-.5-1.6-.5h0Z"/>
        <path d="M344.6,396.5h-2.8l-1.1-2.9h-5.6l-1.1,2.9h-2.6l5.2-12.8h2.9l5.2,12.8h-.1ZM335.9,391.4h3.9l-2-5.1-2,5.1h.1Z"/>
        <path d="M357.5,387.6l-4.3,6.5-4.3-6.5v8.9h-2.5v-12.8h2.9l4.1,6.4,4.1-6.4h2.6v12.8h-2.5v-8.9h-.1Z"/>
      </g>
      <g>
        <path d="M453.3,365.5v5.9c-1.2.9-2.8,1.4-4.8,1.4s-3.4-.6-4.7-2-1.9-2.9-1.9-4.7.6-3.5,1.9-4.7c1.3-1.3,2.8-2,4.6-2s3.6.6,4.7,1.8l-1.7,1.9c-.9-.8-1.9-1.2-3.1-1.2s-2,.4-2.8,1.2c-.8.8-1.2,1.8-1.2,3s.4,2.1,1.2,3c.8.8,1.8,1.2,2.9,1.2s1.5-.2,2.2-.5v-3.6l2.5-.7h.2ZM447.9,365.5h5.4l-.9,2.2h-4.5v-2.2Z"/>
        <path d="M457.4,361.4c1.3-1.3,2.9-2,4.7-2s3.4.6,4.7,2c1.3,1.3,1.9,2.9,1.9,4.7s-.6,3.4-1.9,4.7-2.9,2-4.7,2-3.4-.6-4.7-2-1.9-2.9-1.9-4.7.6-3.5,1.9-4.7ZM462,370.3c1.1,0,2-.4,2.8-1.2.8-.8,1.2-1.8,1.2-3s-.4-2.2-1.2-3-1.7-1.2-2.8-1.2-2,.4-2.8,1.2-1.2,1.8-1.2,3,.4,2.1,1.2,2.9c.8.8,1.7,1.2,2.8,1.2h0Z"/>
        <path d="M484.2,359.7v2.3h-3.8v10.5h-2.5v-10.5h-3.8v-2.3h10.1,0Z"/>
        <path d="M487.3,361.4c1.3-1.3,2.9-2,4.7-2s3.4.6,4.7,2c1.3,1.3,1.9,2.9,1.9,4.7s-.6,3.4-1.9,4.7-2.9,2-4.7,2-3.4-.6-4.7-2-1.9-2.9-1.9-4.7.6-3.5,1.9-4.7ZM492,370.3c1.1,0,2-.4,2.8-1.2.8-.8,1.2-1.8,1.2-3s-.4-2.2-1.2-3-1.7-1.2-2.8-1.2-2,.4-2.8,1.2-1.2,1.8-1.2,3,.4,2.1,1.2,2.9c.8.8,1.7,1.2,2.8,1.2h0Z"/>
        <path d="M391.6,396.5h-4.4v-12.8h4.3c2.1,0,3.8.6,5.2,1.8,1.4,1.2,2,2.8,2,4.6s-.7,3.4-2,4.6-3,1.8-5.1,1.8h0ZM391.5,386.1h-1.7v8.1h1.7c1.4,0,2.5-.4,3.3-1.1.8-.8,1.2-1.7,1.2-2.9s-.4-2.2-1.2-2.9c-.8-.7-1.9-1.1-3.3-1.1h0Z"/>
        <path d="M413.2,396.5h-2.8l-1.1-2.9h-5.6l-1.1,2.9h-2.6l5.2-12.8h2.9l5.2,12.8h-.1ZM404.5,391.4h3.9l-2-5.1-2,5.1h.1Z"/>
        <path d="M423.9,383.7v2.3h-3.8v10.5h-2.5v-10.5h-3.8v-2.3h10.1,0Z"/>
        <path d="M437.7,396.5h-2.8l-1.1-2.9h-5.6l-1.1,2.9h-2.6l5.2-12.8h2.9l5.2,12.8h-.1ZM429,391.4h3.9l-2-5.1-2,5.1h.1Z"/>
        <path d="M450.6,387.6l-4.3,6.5-4.3-6.5v8.9h-2.5v-12.8h2.9l4.1,6.4,4.1-6.4h2.6v12.8h-2.5v-8.9h-.1Z"/>
        <path d="M458.7,396.5h-2.5v-12.8h2.5v12.8Z"/>
        <path d="M472.9,396.5h-2.7l-6-8.7v8.7h-2.5v-12.8h2.7l6,8.8v-8.8h2.5v12.8Z"/>
        <path d="M484.2,396.5h-8.3v-12.8h8.3v2.3h-5.8v2.8h5v2.4h-5v2.9h5.8v2.4h0Z"/>
        <path d="M489,396.5h-2.5v-12.8h4.6c1.5,0,2.7.4,3.6,1.1.9.8,1.4,1.7,1.4,2.9s-.2,1.6-.7,2.2-1.1,1.1-2,1.4l3,5.1h-2.9l-2.6-4.7h-1.8v4.7h-.1ZM491.3,385.9h-2.3v3.7h2.3c.6,0,1.2-.2,1.6-.5s.6-.8.6-1.4-.2-1-.6-1.3-.9-.5-1.6-.5h0Z"/>
        <path d="M507.5,396.5h-4.4v-12.8h4.3c2.1,0,3.8.6,5.2,1.8,1.4,1.2,2,2.8,2,4.6s-.7,3.4-2,4.6-3,1.8-5.1,1.8h0ZM507.4,386.1h-1.7v8.1h1.7c1.4,0,2.5-.4,3.3-1.1.8-.8,1.2-1.7,1.2-2.9s-.4-2.2-1.2-2.9c-.8-.7-1.9-1.1-3.3-1.1h0Z"/>
        <path d="M518.3,385.4c1.3-1.3,2.9-2,4.7-2s3.4.6,4.7,2c1.3,1.3,1.9,2.9,1.9,4.7s-.7,3.4-1.9,4.7c-1.3,1.3-2.9,2-4.7,2s-3.4-.6-4.7-2c-1.3-1.3-1.9-2.9-1.9-4.7s.7-3.5,1.9-4.7ZM523,394.3c1.1,0,2-.4,2.8-1.2s1.2-1.8,1.2-3-.4-2.2-1.2-3-1.7-1.2-2.8-1.2-2,.4-2.8,1.2c-.8.8-1.2,1.8-1.2,3s.4,2.1,1.2,2.9,1.7,1.2,2.8,1.2h0Z"/>
        <path d="M530.8,395.1l1.7-1.7c.5.6,1,.9,1.7.9,1.2,0,1.7-.7,1.7-2.1v-8.5h2.5v8.4c0,1.5-.4,2.7-1.1,3.5s-1.8,1.2-3,1.2-1.4-.2-2-.5-1.1-.7-1.4-1.2h-.1Z"/>
        <path d="M542.6,385.4c1.3-1.3,2.9-2,4.7-2s3.4.6,4.7,2c1.3,1.3,1.9,2.9,1.9,4.7s-.7,3.4-1.9,4.7c-1.3,1.3-2.9,2-4.7,2s-3.4-.6-4.7-2c-1.3-1.3-1.9-2.9-1.9-4.7s.7-3.5,1.9-4.7ZM547.3,394.3c1.1,0,2-.4,2.8-1.2s1.2-1.8,1.2-3-.4-2.2-1.2-3-1.7-1.2-2.8-1.2-2,.4-2.8,1.2c-.8.8-1.2,1.8-1.2,3s.4,2.1,1.2,2.9,1.7,1.2,2.8,1.2h0Z"/>
      </g>
      <g>
        <path class="st5" d="M798,373.6l-4.8,10.9h-2.6l4.8-10.7h-5.7v-2.2h8.3v1.9h0Z"/>
        <path class="st5" d="M803.5,382.5c.7,0,1.3-.2,1.7-.6s.6-.9.6-1.5-.2-1.1-.6-1.5-1-.6-1.7-.6-1.7.2-2.5.7l-1.1-.8,1-6.5h6.6v2.2h-4.6l-.4,2.6c.4-.2.9-.3,1.5-.3,1.3,0,2.3.4,3.1,1.2.8.8,1.1,1.8,1.1,3.1s-.4,2.3-1.3,3.1c-.8.8-2,1.2-3.5,1.2s-3.4-.7-4.4-2.2l1.8-1.6c.7,1,1.5,1.5,2.6,1.5h.1Z"/>
        <path class="st5" d="M815.2,384.8c-1.5,0-2.7-.6-3.6-1.9s-1.4-2.9-1.4-4.8.5-3.5,1.4-4.8,2.1-1.9,3.6-1.9,2.7.6,3.7,1.9,1.4,2.9,1.4,4.8-.4,3.5-1.4,4.8-2.2,1.9-3.6,1.9h-.1ZM813.3,381.3c.5.8,1.1,1.2,1.9,1.2s1.4-.4,1.9-1.2c.5-.8.7-1.9.7-3.2s-.2-2.4-.7-3.2-1.1-1.2-1.9-1.2-1.4.4-1.8,1.2c-.5.8-.7,1.9-.7,3.2s.2,2.4.7,3.2h-.1Z"/>
        <path class="st5" d="M829.5,384.5h-2.5v-12.8h4.6c1.6,0,2.8.4,3.7,1.2s1.4,1.8,1.4,3.1-.5,2.3-1.4,3.1c-.9.8-2.2,1.2-3.8,1.2h-2v4.3h0ZM831.8,373.9h-2.3v4.1h2.3c.7,0,1.2-.2,1.7-.6s.6-.9.6-1.5-.2-1.1-.6-1.5c-.4-.4-1-.6-1.7-.6h0Z"/>
        <path class="st5" d="M840.2,373.4c1.3-1.3,2.9-2,4.7-2s3.4.6,4.7,2c1.3,1.3,1.9,2.9,1.9,4.7s-.7,3.4-1.9,4.7c-1.3,1.3-2.9,2-4.7,2s-3.4-.6-4.7-2c-1.3-1.3-1.9-2.9-1.9-4.7s.7-3.5,1.9-4.7ZM844.9,382.3c1.1,0,2-.4,2.8-1.2s1.2-1.8,1.2-3-.4-2.2-1.2-3-1.7-1.2-2.8-1.2-2,.4-2.8,1.2c-.8.8-1.2,1.8-1.2,3s.4,2.1,1.2,2.9,1.7,1.2,2.8,1.2h0Z"/>
        <path class="st5" d="M856.4,384.5h-2.5v-12.8h2.5v12.8Z"/>
        <path class="st5" d="M870.6,384.5h-2.7l-6-8.7v8.7h-2.5v-12.8h2.7l6,8.8v-8.8h2.5v12.8Z"/>
        <path class="st5" d="M882.5,371.7v2.3h-3.8v10.5h-2.5v-10.5h-3.8v-2.3h10.1Z"/>
        <path class="st5" d="M893.2,373.6l-1.7,1.7c-.3-.4-.7-.8-1.3-1.1s-1.1-.4-1.7-.4-1,.1-1.4.4-.5.5-.5.9.2.7.5.9.8.5,1.2.6c.5.1,1,.3,1.6.5s1.1.5,1.6.7.9.6,1.2,1.2.5,1.1.5,1.8c0,1.2-.5,2.1-1.3,2.9-.9.8-2.1,1.1-3.6,1.1-2.3,0-4-.8-5-2.3l1.8-1.7c.8,1.1,1.9,1.6,3.3,1.6s1.2-.1,1.6-.4.6-.6.6-1.1,0-.5-.2-.7-.4-.4-.8-.6-.7-.3-1-.4-.7-.3-1.2-.4c-.5-.2-.9-.3-1.2-.4-.7-.3-1.3-.7-1.7-1.2s-.7-1.2-.7-2,.4-2,1.3-2.7c.8-.7,2-1,3.4-1s1.9.2,2.7.6,1.5.9,1.9,1.6h.1Z"/>
      </g>
      <circle class="st5" cx="1238.2" cy="330.9" r="25.3"/>
      <circle class="st5" cx="1741.6" cy="330.9" r="25.3"/>
      <g class="st23">
        <g>
          <g>
            <rect class="st22" x="159" y="199.9" width="239.8" height="152.2" rx="7.9" ry="7.9"/>
            <g class="st14">
              <g>
                <path class="st6" d="M350.3,194.8l-87.8,47.8c-2.5,1.3-2.5,3.5,0,4.8l87.8,47.8c2.5,1.3,6.4,1.3,8.9,0l87.8-47.8c2.5-1.3,2.5-3.5,0-4.8l-87.8-47.8c-2.5-1.3-6.4-1.3-8.9,0h0Z"/>
                <path class="st6" d="M350.3,257.7l-87.8,47.8c-2.5,1.3-2.5,3.5,0,4.8l87.8,47.8c2.5,1.3,6.4,1.3,8.9,0l87.8-47.8c2.5-1.3,2.5-3.5,0-4.8l-87.8-47.8c-2.5-1.3-6.4-1.3-8.9,0h0Z"/>
                <path class="st6" d="M350.3,226.3l-87.8,47.8c-2.5,1.3-2.5,3.5,0,4.8l87.8,47.8c2.5,1.3,6.4,1.3,8.9,0l87.8-47.8c2.5-1.3,2.5-3.5,0-4.8l-87.8-47.8c-2.5-1.3-6.4-1.3-8.9,0h0Z"/>
              </g>
            </g>
          </g>
          <path id="Light_Effect" class="st12" d="M398.8,342.3c0,5.4-4.4,9.8-9.8,9.8h-220.3c-5.4,0-9.8-4.4-9.8-9.8v-132.6c0-5.4,4.4-9.8,9.8-9.8h220.3c5.4,0,9.8,4.4,9.8,9.8v132.6h0Z"/>
        </g>
      </g>
      <g>
        <path class="st5" d="M233.5,251.4l-6.4,9.2-6.4-9.2v13.1h-5.6v-21.8h6.5l5.9,8.9,5.9-8.9h5.7v21.8h-5.6v-13.2h0Z"/>
        <path class="st5" d="M257.7,264.5h-14.5v-21.8h14.5v5.3h-8.9v2.9h7.5v5.3h-7.5v3.1h8.9v5.3h0Z"/>
        <path class="st5" d="M279,251.4l-6.4,9.2-6.4-9.2v13.1h-5.6v-21.8h6.5l5.9,8.9,5.9-8.9h5.7v21.8h-5.6v-13.2h0Z"/>
        <path class="st5" d="M298.1,264.5h-9.4v-21.8h8.9c2.2,0,4.1.6,5.5,1.7,1.5,1.2,2.2,2.7,2.2,4.5s-1.1,3.5-3.2,4.4c1.1.3,2,.9,2.7,1.8.7.8,1,1.9,1,3.1,0,1.8-.7,3.2-2,4.4-1.3,1.2-3.2,1.8-5.8,1.8h0ZM297.1,247.7h-2.8v3.6h2.8c.7,0,1.3-.2,1.7-.5s.6-.8.6-1.3-.2-1-.6-1.3-1-.5-1.7-.5h0ZM297.6,255.8h-3.2v3.7h3.2c.7,0,1.3-.2,1.7-.5.4-.3.6-.8.6-1.4s-.2-1-.6-1.3-1-.5-1.7-.5h0Z"/>
        <path class="st5" d="M323,264.5h-14.5v-21.8h14.5v5.3h-8.9v2.9h7.5v5.3h-7.5v3.1h8.9v5.3h0Z"/>
        <path class="st5" d="M331.7,264.5h-5.6v-21.8h7.9c2.8,0,5,.7,6.7,2s2.5,3.1,2.5,5.2-.4,2.6-1,3.7c-.7,1.1-1.7,1.9-3,2.5l4.6,8.3h-6.5l-3.7-7.3h-1.8v7.3h-.1ZM334.4,247.7h-2.8v4.7h2.8c.8,0,1.5-.2,2-.6s.8-1,.8-1.7-.3-1.2-.8-1.6-1.2-.6-2-.6h0v-.2Z"/>
      </g>
      <g class="st21">
        <g>
          <g>
            <rect class="st0" x="721.7" y="199.9" width="239.8" height="152.2" rx="7.9" ry="7.9"/>
            <g class="st17">
              <g>
                <path class="st6" d="M913,194.8l-87.8,47.8c-2.5,1.3-2.5,3.5,0,4.8l87.8,47.8c2.5,1.3,6.4,1.3,8.9,0l87.8-47.8c2.5-1.3,2.5-3.5,0-4.8l-87.8-47.8c-2.5-1.3-6.4-1.3-8.9,0h0Z"/>
                <path class="st6" d="M913,257.7l-87.8,47.8c-2.5,1.3-2.5,3.5,0,4.8l87.8,47.8c2.5,1.3,6.4,1.3,8.9,0l87.8-47.8c2.5-1.3,2.5-3.5,0-4.8l-87.8-47.8c-2.5-1.3-6.4-1.3-8.9,0Z"/>
                <path class="st6" d="M913,226.3l-87.8,47.8c-2.5,1.3-2.5,3.5,0,4.8l87.8,47.8c2.5,1.3,6.4,1.3,8.9,0l87.8-47.8c2.5-1.3,2.5-3.5,0-4.8l-87.8-47.8c-2.5-1.3-6.4-1.3-8.9,0h0Z"/>
              </g>
            </g>
          </g>
          <path id="Light_Effect-2" class="st13" d="M961.5,342.3c0,5.4-4.4,9.8-9.8,9.8h-220.3c-5.4,0-9.8-4.4-9.8-9.8v-132.6c0-5.4,4.4-9.8,9.8-9.8h220.3c5.4,0,9.8,4.4,9.8,9.8v132.6h0Z"/>
        </g>
      </g>
      <g>
        <path class="st5" d="M777.1,264.5h-6.2l-1.5-4.1h-8.5l-1.5,4.1h-5.9l8.5-21.8h6.6l8.5,21.8h0ZM762.7,255.4h4.9l-2.5-6.8-2.5,6.8h0Z"/>
        <path class="st5" d="M787.4,264.5h-7.9v-21.8h7.9c3.6,0,6.5,1,8.8,3.1s3.5,4.7,3.5,7.9-1.2,5.7-3.5,7.8-5.3,3.1-8.8,3.1h0ZM787.3,248h-2v11.3h2.1c1.9,0,3.5-.5,4.6-1.5,1.2-1,1.8-2.4,1.8-4.1s-.6-3-1.8-4.1-2.7-1.6-4.7-1.6h0Z"/>
        <path class="st5" d="M801.3,242.7h6.2l5.1,15.7,5.1-15.7h5.9l-7.8,21.8h-6.6l-7.8-21.8h-.1Z"/>
        <path class="st5" d="M828.4,245.6c2.2-2.2,4.9-3.3,8.1-3.3s5.8,1.1,8.1,3.3c2.2,2.3,3.3,5,3.3,8.1s-1.1,5.8-3.3,8.1c-2.3,2.2-5,3.3-8.1,3.3s-5.9-1.1-8.1-3.4c-2.2-2.2-3.4-4.9-3.4-8.1s1.1-5.8,3.4-8.1h0ZM831,253.6c0,1.6.5,3,1.6,4.1s2.3,1.7,3.8,1.7,2.8-.6,3.8-1.7,1.6-2.5,1.6-4.1-.5-3-1.6-4.1-2.3-1.7-3.8-1.7-2.8.6-3.8,1.7c-1.1,1.1-1.6,2.5-1.6,4.1Z"/>
        <path class="st5" d="M869.6,245.4l-3.7,4.3c-1.2-1.3-2.7-1.9-4.6-1.9s-2.8.6-3.8,1.7c-1,1.1-1.6,2.5-1.6,4.1s.5,3,1.6,4.1,2.4,1.7,4,1.7,1.6-.2,2.4-.5,1.4-.8,1.9-1.4l3.7,4.1c-1.9,2.2-4.7,3.4-8.4,3.4s-5.9-1.1-8-3.3-3.2-4.9-3.2-8.1,1.1-5.8,3.3-8.1c2.2-2.2,4.9-3.3,8-3.3s6.4,1.1,8.4,3.2h0Z"/>
        <path class="st5" d="M894,264.5h-6.2l-1.5-4.1h-8.5l-1.5,4.1h-5.9l8.5-21.8h6.6l8.5,21.8h0ZM879.6,255.4h4.9l-2.5-6.8-2.5,6.8h0Z"/>
        <path class="st5" d="M912.2,242.7v5.3h-6v16.5h-5.6v-16.5h-6v-5.3h17.6Z"/>
        <path class="st5" d="M929.1,264.5h-14.5v-21.8h14.5v5.3h-8.9v2.9h7.5v5.3h-7.5v3.1h8.9v5.3h0Z"/>
      </g>
      <g class="st4">
        <g>
          <g>
            <rect class="st18" x="1118.3" y="199.9" width="239.8" height="152.2" rx="7.9" ry="7.9"/>
            <g class="st15">
              <g>
                <path class="st6" d="M1309.6,194.8l-87.8,47.8c-2.4,1.3-2.4,3.5,0,4.8l87.8,47.8c2.4,1.3,6.4,1.3,8.9,0l87.8-47.8c2.4-1.3,2.4-3.5,0-4.8l-87.8-47.8c-2.4-1.3-6.4-1.3-8.9,0h0Z"/>
                <path class="st6" d="M1309.6,257.7l-87.8,47.8c-2.4,1.3-2.4,3.5,0,4.8l87.8,47.8c2.4,1.3,6.4,1.3,8.9,0l87.8-47.8c2.4-1.3,2.4-3.5,0-4.8l-87.8-47.8c-2.4-1.3-6.4-1.3-8.9,0Z"/>
                <path class="st6" d="M1309.6,226.3l-87.8,47.8c-2.4,1.3-2.4,3.5,0,4.8l87.8,47.8c2.4,1.3,6.4,1.3,8.9,0l87.8-47.8c2.4-1.3,2.4-3.5,0-4.8l-87.8-47.8c-2.4-1.3-6.4-1.3-8.9,0h0Z"/>
              </g>
            </g>
          </g>
          <path id="Light_Effect-3" class="st11" d="M1358.2,342.7c0,5.4-4.4,9.8-9.8,9.8h-220.3c-5.4,0-9.8-4.4-9.8-9.8v-133c0-5.4,4.4-9.8,9.8-9.8h220.3c5.4,0,9.8,4.4,9.8,9.8v133h0Z"/>
        </g>
      </g>
      <g>
        <path class="st5" d="M1184,264.5h-14.5v-21.8h14.5v5.3h-8.9v2.9h7.5v5.3h-7.5v3.1h8.9v5.3h0Z"/>
        <path class="st5" d="M1206.7,264.5h-6l-8-12.4v12.4h-5.6v-21.8h6l8,12.6v-12.6h5.6v21.8Z"/>
        <path class="st5" d="M1232.7,264.5h-6.2l-1.5-4.1h-8.5l-1.5,4.1h-5.9l8.5-21.8h6.6l8.5,21.8ZM1218.3,255.4h4.9l-2.4-6.8-2.5,6.8h0Z"/>
        <path class="st5" d="M1244.4,264.5h-9.3v-21.8h8.9c2.2,0,4.1.6,5.5,1.7,1.4,1.2,2.2,2.7,2.2,4.5s-1.1,3.5-3.2,4.4c1.1.3,2,.9,2.7,1.8.7.8,1,1.9,1,3.1,0,1.8-.7,3.2-2,4.4-1.3,1.2-3.2,1.8-5.8,1.8h0ZM1243.5,247.7h-2.8v3.6h2.8c.7,0,1.3-.2,1.7-.5.4-.3.6-.8.6-1.3s-.2-1-.7-1.3-1-.5-1.7-.5h0ZM1243.9,255.8h-3.2v3.7h3.2c.7,0,1.3-.2,1.7-.5.4-.3.7-.8.7-1.4s-.2-1-.6-1.3-1-.5-1.7-.5h0Z"/>
        <path class="st5" d="M1270.4,264.5h-15.5v-21.8h5.6v16.5h9.9v5.3h0Z"/>
        <path class="st5" d="M1287.2,264.5h-14.5v-21.8h14.5v5.3h-8.9v2.9h7.5v5.3h-7.5v3.1h8.9v5.3h0Z"/>
        <path class="st5" d="M1295.9,264.5h-5.6v-21.8h7.9c2.8,0,5,.7,6.7,2s2.5,3.1,2.5,5.2-.3,2.6-1.1,3.7c-.7,1.1-1.7,1.9-3,2.5l4.6,8.3h-6.5l-3.7-7.3h-1.8v7.3h0ZM1298.7,247.7h-2.8v4.7h2.8c.8,0,1.5-.2,2-.6s.8-1,.8-1.7-.3-1.2-.8-1.6-1.2-.6-2-.6h0v-.2Z"/>
      </g>
      <g class="st1">
        <g>
          <g>
            <rect class="st20" x="1621.7" y="199.9" width="239.8" height="152.2" rx="7.9" ry="7.9"/>
            <g class="st2">
              <g>
                <path class="st6" d="M1812.9,194.8l-87.8,47.8c-2.4,1.3-2.4,3.5,0,4.8l87.8,47.8c2.4,1.3,6.4,1.3,8.9,0l87.8-47.8c2.4-1.3,2.4-3.5,0-4.8l-87.8-47.8c-2.4-1.3-6.4-1.3-8.9,0h0Z"/>
                <path class="st6" d="M1812.9,257.7l-87.8,47.8c-2.4,1.3-2.4,3.5,0,4.8l87.8,47.8c2.4,1.3,6.4,1.3,8.9,0l87.8-47.8c2.4-1.3,2.4-3.5,0-4.8l-87.8-47.8c-2.4-1.3-6.4-1.3-8.9,0Z"/>
                <path class="st6" d="M1812.9,226.3l-87.8,47.8c-2.4,1.3-2.4,3.5,0,4.8l87.8,47.8c2.4,1.3,6.4,1.3,8.9,0l87.8-47.8c2.4-1.3,2.4-3.5,0-4.8l-87.8-47.8c-2.4-1.3-6.4-1.3-8.9,0h0Z"/>
              </g>
            </g>
          </g>
          <path id="Light_Effect-4" class="st9" d="M1861.5,342.3c0,5.4-4.4,9.8-9.8,9.8h-220.3c-5.4,0-9.8-4.4-9.8-9.8v-132.6c0-5.4,4.4-9.8,9.8-9.8h220.3c5.4,0,9.8,4.4,9.8,9.8v132.6h0Z"/>
        </g>
      </g>
      <g>
        <path class="st5" d="M1679.6,245.4l-3.7,4.3c-1.2-1.3-2.7-1.9-4.6-1.9s-2.8.6-3.8,1.7c-1,1.1-1.6,2.5-1.6,4.1s.5,3,1.6,4.1,2.4,1.7,4,1.7,1.6-.2,2.4-.5,1.4-.8,1.9-1.4l3.7,4.1c-1.9,2.2-4.7,3.4-8.4,3.4s-5.9-1.1-8-3.3-3.2-4.9-3.2-8.1,1.1-5.8,3.3-8.1,4.9-3.3,8-3.3,6.4,1.1,8.4,3.2h0Z"/>
        <path class="st5" d="M1704.1,264.5h-6.2l-1.5-4.1h-8.5l-1.5,4.1h-5.9l8.5-21.8h6.6l8.5,21.8ZM1689.6,255.4h4.9l-2.4-6.8-2.5,6.8h0Z"/>
        <path class="st5" d="M1722.3,242.7v5.3h-6v16.5h-5.6v-16.5h-5.9v-5.3h17.5Z"/>
        <path class="st5" d="M1746.6,264.5h-6.2l-1.5-4.1h-8.5l-1.5,4.1h-5.9l8.5-21.8h6.6l8.5,21.8ZM1732.1,255.4h4.9l-2.4-6.8-2.5,6.8h0Z"/>
        <path class="st5" d="M1764.5,264.5h-15.5v-21.8h5.6v16.5h9.9v5.3h0Z"/>
        <path class="st5" d="M1778.7,264.5h-5.6v-7.1l-7.9-14.6h6.2l4.6,8.8,4.7-8.8h5.9l-7.9,14.6v7.1h0Z"/>
        <path class="st5" d="M1805.2,246.2l-3.8,3.8c-1.2-1.7-2.8-2.5-4.8-2.5s-2.1.4-2.1,1.3.3.9.9,1.2,1.6.7,3,1.2,2.4.8,3,1.1c1.1.5,2,1.2,2.7,2.2s1,2.2,1,3.5c0,2.1-.8,3.8-2.4,5.1-1.7,1.3-3.7,2-6.3,2-4.2,0-7.1-1.4-8.8-4.1l4-3.7c1.2,1.7,2.9,2.5,5,2.5s2.6-.5,2.6-1.6-.2-.7-.6-1-.9-.5-1.5-.8c-.6-.2-1.3-.4-2.1-.7-.8-.2-1.5-.5-2.3-.9s-1.4-.8-2.1-1.2c-.6-.5-1.1-1.1-1.5-1.9s-.6-1.7-.6-2.8c0-1.9.8-3.6,2.3-4.8,1.6-1.3,3.6-1.9,6-1.9s3.4.4,4.9,1.1c1.4.7,2.6,1.7,3.4,2.9h.1Z"/>
        <path class="st5" d="M1823.9,242.7v5.3h-6v16.5h-5.6v-16.5h-5.9v-5.3h17.5Z"/>
      </g>
      <path class="st16" d="M1182,355.9h112.4c11.8,0,21.3,9.5,21.3,21.3h0c0,11.8-9.5,21.3-21.3,21.3h-112.4c-11.8,0-21.3-9.5-21.3-21.3h0c0-11.8,9.5-21.3,21.3-21.3Z"/>
      <g>
        <path class="st5" d="M1181.3,382.5c.7,0,1.3-.2,1.7-.6.4-.4.6-.9.6-1.5s-.2-1.1-.6-1.5-1-.6-1.7-.6-1.7.2-2.5.7l-1.1-.8,1-6.5h6.6v2.2h-4.6l-.4,2.6c.4-.2.9-.3,1.5-.3,1.3,0,2.3.4,3.1,1.2.8.8,1.1,1.8,1.1,3.1s-.4,2.3-1.3,3.1c-.8.8-2,1.2-3.5,1.2s-3.4-.7-4.4-2.2l1.8-1.6c.7,1,1.5,1.5,2.6,1.5h.1Z"/>
        <path class="st5" d="M1197.6,384.8c-1.5,0-2.7-.6-3.6-1.9s-1.4-2.9-1.4-4.8.5-3.5,1.4-4.8,2.1-1.9,3.6-1.9,2.7.6,3.7,1.9,1.4,2.9,1.4,4.8-.4,3.5-1.4,4.8-2.2,1.9-3.6,1.9h0ZM1195.7,381.3c.5.8,1.1,1.2,1.9,1.2s1.4-.4,1.9-1.2c.5-.8.7-1.9.7-3.2s-.2-2.4-.7-3.2-1.1-1.2-1.9-1.2-1.4.4-1.8,1.2c-.5.8-.7,1.9-.7,3.2s.2,2.4.7,3.2h0Z"/>
        <path class="st5" d="M1209.6,384.8c-1.5,0-2.7-.6-3.6-1.9s-1.4-2.9-1.4-4.8.5-3.5,1.4-4.8,2.1-1.9,3.6-1.9,2.7.6,3.7,1.9,1.4,2.9,1.4,4.8-.4,3.5-1.4,4.8-2.2,1.9-3.6,1.9h0ZM1207.6,381.3c.5.8,1.1,1.2,1.9,1.2s1.4-.4,1.9-1.2c.5-.8.7-1.9.7-3.2s-.2-2.4-.7-3.2-1.1-1.2-1.9-1.2-1.4.4-1.8,1.2c-.5.8-.7,1.9-.7,3.2s.2,2.4.7,3.2h0Z"/>
        <path class="st5" d="M1221.5,384.8c-1.5,0-2.7-.6-3.6-1.9s-1.4-2.9-1.4-4.8.5-3.5,1.4-4.8,2.1-1.9,3.6-1.9,2.7.6,3.7,1.9,1.4,2.9,1.4,4.8-.4,3.5-1.4,4.8-2.2,1.9-3.6,1.9h0ZM1219.6,381.3c.5.8,1.1,1.2,1.9,1.2s1.4-.4,1.9-1.2c.5-.8.7-1.9.7-3.2s-.2-2.4-.7-3.2-1.1-1.2-1.9-1.2-1.4.4-1.8,1.2c-.5.8-.7,1.9-.7,3.2s.2,2.4.7,3.2h0Z"/>
        <path class="st5" d="M1235.8,384.5h-2.5v-12.8h4.6c1.6,0,2.8.4,3.7,1.2.9.8,1.4,1.8,1.4,3.1s-.5,2.3-1.4,3.1c-.9.8-2.2,1.2-3.8,1.2h-2v4.3h0ZM1238,373.9h-2.3v4.1h2.3c.7,0,1.2-.2,1.7-.6s.6-.9.6-1.5-.2-1.1-.6-1.5-1-.6-1.7-.6h0Z"/>
        <path class="st5" d="M1246.4,373.4c1.3-1.3,2.9-2,4.7-2s3.4.6,4.7,2c1.3,1.3,1.9,2.9,1.9,4.7s-.7,3.4-1.9,4.7-2.9,2-4.7,2-3.4-.6-4.7-2c-1.3-1.3-1.9-2.9-1.9-4.7s.7-3.5,1.9-4.7ZM1251.1,382.3c1.1,0,2.1-.4,2.8-1.2.8-.8,1.2-1.8,1.2-3s-.4-2.2-1.2-3-1.7-1.2-2.8-1.2-2,.4-2.8,1.2-1.2,1.8-1.2,3,.4,2.1,1.2,2.9c.8.8,1.7,1.2,2.8,1.2h0Z"/>
        <path class="st5" d="M1262.7,384.5h-2.5v-12.8h2.5v12.8Z"/>
        <path class="st5" d="M1276.9,384.5h-2.7l-6-8.7v8.7h-2.5v-12.8h2.7l6,8.8v-8.8h2.5v12.8Z"/>
        <path class="st5" d="M1288.8,371.7v2.3h-3.8v10.5h-2.5v-10.5h-3.8v-2.3h10.1Z"/>
        <path class="st5" d="M1299.4,373.6l-1.7,1.7c-.3-.4-.7-.8-1.3-1.1s-1.1-.4-1.7-.4-1.1.1-1.4.4-.5.5-.5.9.2.7.5.9.8.5,1.2.6c.5.1,1,.3,1.6.5s1.1.5,1.6.7.9.6,1.2,1.2.5,1.1.5,1.8c0,1.2-.4,2.1-1.3,2.9s-2.1,1.1-3.6,1.1c-2.3,0-4-.8-5-2.3l1.8-1.7c.8,1.1,1.9,1.6,3.3,1.6s1.2-.1,1.6-.4.6-.6.6-1.1,0-.5-.2-.7-.4-.4-.8-.6-.7-.3-1-.4-.7-.3-1.2-.4-.9-.3-1.2-.4c-.7-.3-1.3-.7-1.7-1.2s-.7-1.2-.7-2,.4-2,1.3-2.7c.8-.7,2-1,3.4-1s1.9.2,2.7.6,1.4.9,1.9,1.6h0Z"/>
        <path class="st5" d="M1188.2,381.8h2.7l-1.7,5.2h-2.1l1.2-5.2Z"/>
      </g>
      <rect class="st16" x="1656.6" y="355.9" width="170" height="42.6" rx="19.6" ry="19.6"/>
      <g>
        <path class="st5" d="M1718,384.8c-1.5,0-2.7-.6-3.6-1.9s-1.4-2.9-1.4-4.8.5-3.5,1.4-4.8,2.1-1.9,3.6-1.9,2.7.6,3.7,1.9,1.4,2.9,1.4,4.8-.4,3.5-1.4,4.8-2.2,1.9-3.6,1.9h0ZM1716.1,381.3c.5.8,1.1,1.2,1.9,1.2s1.4-.4,1.9-1.2c.5-.8.7-1.9.7-3.2s-.2-2.4-.7-3.2-1.1-1.2-1.9-1.2-1.4.4-1.8,1.2c-.5.8-.7,1.9-.7,3.2s.2,2.4.7,3.2h0Z"/>
        <path class="st5" d="M1744.2,384.5h-2.5v-12.8h4.6c1.6,0,2.8.4,3.7,1.2.9.8,1.4,1.8,1.4,3.1s-.5,2.3-1.4,3.1c-.9.8-2.2,1.2-3.8,1.2h-2v4.3h0ZM1746.4,373.9h-2.3v4.1h2.3c.7,0,1.2-.2,1.7-.6s.6-.9.6-1.5-.2-1.1-.6-1.5-1-.6-1.7-.6h0Z"/>
        <path class="st5" d="M1754.9,373.4c1.3-1.3,2.9-2,4.7-2s3.4.6,4.7,2c1.3,1.3,1.9,2.9,1.9,4.7s-.7,3.4-1.9,4.7-2.9,2-4.7,2-3.4-.6-4.7-2c-1.3-1.3-1.9-2.9-1.9-4.7s.7-3.5,1.9-4.7ZM1759.6,382.3c1.1,0,2.1-.4,2.8-1.2.8-.8,1.2-1.8,1.2-3s-.4-2.2-1.2-3-1.7-1.2-2.8-1.2-2,.4-2.8,1.2-1.2,1.8-1.2,3,.4,2.1,1.2,2.9c.8.8,1.7,1.2,2.8,1.2h0Z"/>
        <path class="st5" d="M1771.1,384.5h-2.5v-12.8h2.5v12.8Z"/>
        <path class="st5" d="M1785.3,384.5h-2.7l-6-8.7v8.7h-2.5v-12.8h2.7l6,8.8v-8.8h2.5v12.8Z"/>
        <path class="st5" d="M1797.2,371.7v2.3h-3.8v10.5h-2.5v-10.5h-3.8v-2.3h10.1Z"/>
        <path class="st5" d="M1807.9,373.6l-1.7,1.7c-.3-.4-.7-.8-1.3-1.1s-1.1-.4-1.7-.4-1.1.1-1.4.4-.5.5-.5.9.2.7.5.9.8.5,1.2.6c.5.1,1,.3,1.6.5s1.1.5,1.6.7.9.6,1.2,1.2.5,1.1.5,1.8c0,1.2-.4,2.1-1.3,2.9s-2.1,1.1-3.6,1.1c-2.3,0-4-.8-5-2.3l1.8-1.7c.8,1.1,1.9,1.6,3.3,1.6s1.2-.1,1.6-.4.6-.6.6-1.1,0-.5-.2-.7-.4-.4-.8-.6-.7-.3-1-.4-.7-.3-1.2-.4-.9-.3-1.2-.4c-.7-.3-1.3-.7-1.7-1.2s-.7-1.2-.7-2,.4-2,1.3-2.7c.8-.7,2-1,3.4-1s1.9.2,2.7.6,1.4.9,1.9,1.6h0Z"/>
      </g>
    </g>
  </g>
  <g>
    <path class="st5" d="M1682,371.5v13.1h-2.5v-10.2l-2.1,2-1.5-1.7,3.5-3.3h2.6Z"/>
    <path class="st5" d="M1689.4,382.6c.7,0,1.3-.2,1.7-.6s.7-.9.7-1.5-.2-1.2-.6-1.6c-.4-.4-1-.6-1.7-.6s-1.7.2-2.5.7l-1.1-.8,1.1-6.6h6.7v2.2h-4.7l-.5,2.7c.4-.2.9-.3,1.5-.3,1.3,0,2.4.4,3.2,1.2.8.8,1.2,1.9,1.2,3.2s-.4,2.4-1.3,3.2c-.9.8-2.1,1.3-3.6,1.3s-3.5-.7-4.5-2.2l1.8-1.6c.7,1,1.6,1.5,2.6,1.5Z"/>
    <path class="st5" d="M1696.3,381.8h2.7l-1.7,5.2h-2.1l1.2-5.2Z"/>
    <path class="st5" d="M1706.1,385c-1.5,0-2.7-.6-3.7-1.9-1-1.3-1.5-2.9-1.5-4.9s.5-3.6,1.5-4.9c1-1.3,2.2-1.9,3.6-1.9s2.8.6,3.8,1.9c1,1.3,1.5,2.9,1.5,4.9,0,2-.4,3.6-1.4,4.9-1,1.3-2.2,1.9-3.7,1.9ZM1704.1,381.4c.5.8,1.1,1.3,1.9,1.3s1.4-.4,1.9-1.3c.5-.8.7-1.9.7-3.2s-.2-2.4-.7-3.3c-.5-.8-1.1-1.2-2-1.2s-1.4.4-1.9,1.2c-.5.8-.7,1.9-.7,3.2s.2,2.4.7,3.3Z"/>
    <path class="st5" d="M1730.6,385c-1.5,0-2.7-.6-3.7-1.9-1-1.3-1.5-2.9-1.5-4.9s.5-3.6,1.5-4.9c1-1.3,2.2-1.9,3.6-1.9s2.8.6,3.8,1.9c1,1.3,1.5,2.9,1.5,4.9,0,2-.4,3.6-1.4,4.9-1,1.3-2.2,1.9-3.7,1.9ZM1728.6,381.4c.5.8,1.1,1.3,1.9,1.3s1.4-.4,1.9-1.3c.5-.8.7-1.9.7-3.2s-.2-2.4-.7-3.3c-.5-.8-1.1-1.2-2-1.2s-1.4.4-1.9,1.2c-.5.8-.7,1.9-.7,3.2s.2,2.4.7,3.3Z"/>
  </g>
</svg>
