<?xml version="1.0" encoding="UTF-8"?><svg xmlns="http://www.w3.org/2000/svg" xmlns:xlink="http://www.w3.org/1999/xlink" viewBox="0 0 2800.24 387.14"><defs><style>.cls-1{fill:none;}.cls-2{opacity:.1;}.cls-2,.cls-3{fill:#fff;}.cls-4{fill:url(#linear-gradient);}.cls-5{clip-path:url(#clippath);}.cls-6{fill:#00517d;}.cls-7{fill:#00aeef;}.cls-8{fill:#0078d4;}.cls-9{clip-path:url(#clippath-1);}.cls-10{clip-path:url(#clippath-4);}.cls-11{clip-path:url(#clippath-3);}.cls-12{clip-path:url(#clippath-2);}.cls-13{clip-path:url(#clippath-5);}.cls-14{fill:url(#linear-gradient-2);}.cls-14,.cls-15,.cls-16{mix-blend-mode:screen;}.cls-15{fill:url(#linear-gradient-4);}.cls-16{fill:url(#linear-gradient-6);}.cls-17{fill:url(#linear-gradient-8);}.cls-18{fill:url(#linear-gradient-3);}.cls-19{fill:url(#linear-gradient-7);}.cls-20{fill:url(#linear-gradient-5);}.cls-21{isolation:isolate;}</style><clipPath id="clippath"><path class="cls-1" d="m645.18,252.86c0,8.38-6.82,15.2-15.2,15.2s-15.2-6.82-15.2-15.2,6.82-15.2,15.2-15.2,15.2,6.82,15.2,15.2Zm67.47-109.04h-165.34c-17.86,0-32.33,14.48-32.33,32.33h0c0,17.86,14.48,32.33,32.33,32.33h71c6.48,2.25,11.66,11.97,11.66,18.05,0-6.08,5.19-15.81,11.66-18.05h71c17.86,0,32.33-14.48,32.33-32.33h0c0-17.86-14.48-32.33-32.33-32.33Z"/></clipPath><linearGradient id="linear-gradient" x1="510.08" y1="198.02" x2="749.88" y2="198.02" gradientUnits="userSpaceOnUse"><stop offset="0" stop-color="#d1b096"/><stop offset="1" stop-color="#a7735b"/></linearGradient><clipPath id="clippath-1"><rect class="cls-1" x="510.08" y="121.9" width="239.8" height="152.25" rx="7.88" ry="7.88"/></clipPath><linearGradient id="linear-gradient-2" x1="653.86" y1="230.76" x2="844.13" y2="421.03" gradientTransform="translate(-119.02 -127.87)" gradientUnits="userSpaceOnUse"><stop offset="0" stop-color="#000"/><stop offset=".06" stop-color="#121212"/><stop offset=".17" stop-color="#424242"/><stop offset=".25" stop-color="#686868"/><stop offset=".26" stop-color="#636363"/><stop offset=".31" stop-color="#3f3f3f"/><stop offset=".37" stop-color="#232323"/><stop offset=".42" stop-color="#0f0f0f"/><stop offset=".48" stop-color="#030303"/><stop offset=".53" stop-color="#000"/></linearGradient><clipPath id="clippath-2"><path class="cls-1" d="m1351.25,268.06c-8.38,0-15.2-6.82-15.2-15.2s6.82-15.2,15.2-15.2,15.2,6.82,15.2,15.2-6.82,15.2-15.2,15.2Zm82.67-124.23h-165.34c-17.86,0-32.33,14.48-32.33,32.33h0c0,17.86,14.48,32.33,32.33,32.33h71c6.48,2.25,11.66,11.97,11.66,18.05,0-6.08,5.19-15.81,11.66-18.05h71c17.86,0,32.33-14.48,32.33-32.33h0c0-17.86-14.48-32.33-32.33-32.33Z"/></clipPath><linearGradient id="linear-gradient-3" x1="1231.35" y1="198.02" x2="1471.15" y2="198.02" gradientUnits="userSpaceOnUse"><stop offset="0" stop-color="#bdbfc0"/><stop offset="1" stop-color="#7d7f7f"/></linearGradient><clipPath id="clippath-3"><rect class="cls-1" x="1231.35" y="121.9" width="239.8" height="152.25" rx="7.88" ry="7.88"/></clipPath><linearGradient id="linear-gradient-4" x1="1375.03" y1="230.86" x2="1565.5" y2="421.33" xlink:href="#linear-gradient-2"/><clipPath id="clippath-4"><path class="cls-1" d="m2126.07,268.06c-8.38,0-15.2-6.82-15.2-15.2s6.82-15.2,15.2-15.2,15.2,6.82,15.2,15.2-6.82,15.2-15.2,15.2Zm82.67-124.23h-165.34c-17.86,0-32.33,14.48-32.33,32.33h0c0,17.86,14.48,32.33,32.33,32.33h71c6.48,2.25,11.66,11.97,11.66,18.05,0-6.08,5.19-15.81,11.66-18.05h71c17.86,0,32.33-14.48,32.33-32.33h0c0-17.86-14.48-32.33-32.33-32.33Z"/></clipPath><linearGradient id="linear-gradient-5" x1="2006.17" y1="198.02" x2="2245.97" y2="198.02" gradientUnits="userSpaceOnUse"><stop offset="0" stop-color="#d0b35e"/><stop offset="1" stop-color="#a7772b"/></linearGradient><clipPath id="clippath-5"><rect class="cls-1" x="2006.17" y="121.9" width="239.8" height="152.25" rx="7.88" ry="7.88"/></clipPath><linearGradient id="linear-gradient-6" x1="2149.95" x2="2340.22" y2="421.03" xlink:href="#linear-gradient-2"/><linearGradient id="linear-gradient-7" x1="2407.2" y1="130.19" x2="2419.45" y2="142.4" gradientTransform="translate(164.08 644.04) rotate(-14.89)" gradientUnits="userSpaceOnUse"><stop offset="0" stop-color="#00aeef"/><stop offset=".86" stop-color="#2892df"/></linearGradient><linearGradient id="linear-gradient-8" x1="2433.31" y1="149.49" x2="2451.71" y2="149.49" gradientTransform="translate(164.08 644.04) rotate(-14.89)" gradientUnits="userSpaceOnUse"><stop offset="0" stop-color="#013f61"/><stop offset="1" stop-color="#00517d"/></linearGradient></defs><g class="cls-21"><g id="Layer_1-2"><path class="cls-7" d="m488,246.47c.96,2.09,1.51,4.41,1.51,6.87,0,2.63-.63,5.1-1.72,7.31h118.09c-.79-2.45-1.23-5.07-1.23-7.78,0-2.21.29-4.35.82-6.39h-117.47Z"/><path class="cls-7" d="m2755.84,188.93h-73.44c-3.91,0-7.09-3.17-7.09-7.09s3.17-7.09,7.09-7.09h73.44c3.91,0,7.09,3.17,7.09,7.09s-3.17,7.09-7.09,7.09Z"/><circle class="cls-6" cx="92.99" cy="184.48" r="9"/><path class="cls-7" d="m218.59,185.01c-.28,0-.5-.22-.5-.5v-107.02c0-.28.22-.5.5-.5s.5.22.5.5v107.02c0,.28-.22.5-.5.5Z"/><circle class="cls-7" cx="218.59" cy="184.48" r="9"/><path class="cls-7" d="m322.69,292.02c-.28,0-.5-.22-.5-.5v-107.02c0-.28.22-.5.5-.5s.5.22.5.5v107.02c0,.28-.22.5-.5.5Z"/><g><g><path class="cls-7" d="m456.51,253.33c0-2.45.55-4.77,1.51-6.87h-28.52c-12.85,0-23.3-10.45-23.3-23.3v-8.26c0-20.66-16.81-37.47-37.47-37.47h-31.13c1.01,2.14,1.59,4.52,1.59,7.04s-.6,4.97-1.64,7.14h31.18c12.85,0,23.3,10.45,23.3,23.3v8.26c0,20.66,16.81,37.47,37.47,37.47h28.74c-1.09-2.2-1.72-4.68-1.72-7.31Z"/><path class="cls-7" d="m307.83,191.61c-1.04-2.16-1.64-4.58-1.64-7.14s.58-4.9,1.59-7.04h-74.29c1.01,2.14,1.59,4.52,1.59,7.04s-.6,4.97-1.64,7.14h74.38Z"/><path class="cls-7" d="m107.9,177.44c1.01,2.14,1.59,4.52,1.59,7.04s-.6,4.97-1.64,7.14h95.88c-1.04-2.16-1.64-4.58-1.64-7.14s.58-4.9,1.59-7.04h-95.78Z"/><path class="cls-7" d="m76.49,184.48c0-2.52.58-4.9,1.59-7.04h-23.58c-3.91,0-7.09,3.17-7.09,7.09s3.17,7.09,7.09,7.09h23.63c-1.04-2.16-1.64-4.58-1.64-7.14Z"/></g><circle class="cls-7" cx="322.69" cy="184.48" r="9"/></g><path class="cls-6" d="m104.21,145.91l-.65-8.54h-22.08l-.65,8.54c6.49,2.23,11.69,11.98,11.69,18.06,0-6.09,5.2-15.83,11.69-18.06Z"/><rect class="cls-6" x="25.02" y="103.9" width="135" height="42" rx="21" ry="21"/><g><path class="cls-3" d="m46.7,132.23h-4.12v-16.02h4.12v6.08l3.75-6.08h4.6l-4.88,7.77,5.32,8.25h-4.97l-3.73-6.07h-.1v6.07Z"/><path class="cls-3" d="m61.85,132.23h-4.12v-16.02h4.12v16.02Z"/><path class="cls-3" d="m78.55,118.21l-2.75,3.15c-.9-.93-2.02-1.4-3.35-1.4-1.1,0-2.02.41-2.77,1.23-.77.82-1.15,1.82-1.15,3.02s.39,2.19,1.18,3.02c.78.83,1.77,1.25,2.95,1.25.6,0,1.19-.12,1.76-.38s1.04-.59,1.39-1.02l2.75,3.05c-1.37,1.65-3.43,2.47-6.18,2.47-2.35,0-4.32-.82-5.9-2.45-1.58-1.63-2.38-3.62-2.38-5.95s.82-4.29,2.45-5.92c1.63-1.63,3.58-2.45,5.85-2.45,2.67,0,4.72.79,6.15,2.38Z"/><path class="cls-3" d="m84.55,132.23h-4.12v-16.02h4.12v6.08l3.75-6.08h4.6l-4.88,7.77,5.32,8.25h-4.97l-3.73-6.07h-.1v6.07Z"/><path class="cls-3" d="m103.55,118.28c1.63-1.63,3.61-2.45,5.92-2.45s4.28.82,5.95,2.45c1.63,1.67,2.45,3.65,2.45,5.95s-.82,4.29-2.45,5.93c-1.67,1.63-3.65,2.45-5.95,2.45s-4.31-.82-5.92-2.47c-1.65-1.63-2.48-3.61-2.48-5.92s.83-4.29,2.48-5.92Zm1.95,5.92c0,1.18.39,2.19,1.18,3.02.78.83,1.72,1.25,2.8,1.25s2.04-.42,2.83-1.25c.77-.82,1.15-1.82,1.15-3s-.38-2.21-1.15-3.02c-.78-.83-1.73-1.25-2.83-1.25s-2.03.41-2.8,1.23c-.78.83-1.18,1.84-1.18,3.02Z"/><path class="cls-3" d="m124.25,132.23h-4.12v-16.02h10.42v3.88h-6.3v2.55h5.3v3.88h-5.3v5.72Z"/><path class="cls-3" d="m136.92,132.23h-4.12v-16.02h10.42v3.88h-6.3v2.55h5.3v3.88h-5.3v5.72Z"/></g><circle class="cls-6" cx="1886.75" cy="161.78" r="9"/><path class="cls-6" d="m1897.98,123.12l-.65-8.54h-22.08l-.65,8.54c6.49,2.23,11.69,11.98,11.69,18.06,0-6.09,5.2-15.83,11.69-18.06Z"/><rect class="cls-6" x="1733.1" y="81.11" width="306.37" height="42" rx="21" ry="21"/><g><path class="cls-3" d="m1750.33,93.42h4.55l3.75,11.55,3.72-11.55h4.33l-5.75,16.03h-4.85l-5.75-16.03Z"/><path class="cls-3" d="m1784.65,109.44h-4.55l-1.1-3.03h-6.28l-1.1,3.03h-4.33l6.25-16.03h4.85l6.25,16.03Zm-10.6-6.67h3.62l-1.8-4.98-1.83,4.98Z"/><path class="cls-3" d="m1797.8,109.44h-11.4v-16.03h4.12v12.15h7.28v3.88Z"/><path class="cls-3" d="m1799.42,102.59v-9.17h4.12v9.08c0,.97.25,1.74.76,2.33.51.58,1.18.88,2.01.88s1.47-.29,1.96-.86c.49-.58.74-1.35.74-2.31v-9.1h4.12v9.17c0,2.17-.62,3.91-1.88,5.23-1.28,1.33-2.96,2-5.03,2s-3.7-.67-4.95-2c-1.25-1.32-1.88-3.06-1.88-5.23Z"/><path class="cls-3" d="m1826.67,109.44h-10.65v-16.03h10.65v3.88h-6.52v2.1h5.52v3.88h-5.52v2.3h6.52v3.88Z"/><path class="cls-3" d="m1841,109.44h-5.83v-16.03h5.83c2.62,0,4.78.76,6.5,2.28,1.72,1.52,2.57,3.44,2.57,5.77s-.86,4.2-2.57,5.7c-1.72,1.52-3.88,2.28-6.5,2.28Zm-.08-12.15h-1.5v8.28h1.52c1.42,0,2.55-.38,3.41-1.14.86-.76,1.29-1.76,1.29-3.01s-.43-2.23-1.3-2.99c-.87-.76-2.01-1.14-3.42-1.14Z"/><path class="cls-3" d="m1862.97,109.44h-10.65v-16.03h10.65v3.88h-6.53v2.1h5.53v3.88h-5.53v2.3h6.53v3.88Z"/><path class="cls-3" d="m1876.62,109.44h-11.4v-16.03h4.12v12.15h7.27v3.88Z"/><path class="cls-3" d="m1882.5,109.44h-4.12v-16.03h4.12v16.03Z"/><path class="cls-3" d="m1884.37,93.42h4.55l3.75,11.55,3.72-11.55h4.33l-5.75,16.03h-4.85l-5.75-16.03Z"/><path class="cls-3" d="m1913.25,109.44h-10.65v-16.03h10.65v3.88h-6.52v2.1h5.52v3.88h-5.52v2.3h6.52v3.88Z"/><path class="cls-3" d="m1919.62,109.44h-4.12v-16.03h5.83c2.05,0,3.69.48,4.92,1.45,1.23.98,1.85,2.27,1.85,3.85,0,1.03-.26,1.95-.78,2.74-.52.79-1.25,1.41-2.2,1.86l3.38,6.12h-4.77l-2.75-5.35h-1.35v5.35Zm2.03-12.4h-2.03v3.42h2.03c.62,0,1.12-.16,1.5-.47.38-.32.58-.74.58-1.28,0-.5-.19-.9-.58-1.21-.38-.31-.88-.46-1.5-.46Z"/><path class="cls-3" d="m1939.45,109.44h-4.12v-5.25l-5.83-10.78h4.58l3.4,6.45,3.45-6.45h4.35l-5.82,10.78v5.25Z"/><path class="cls-3" d="m1957.4,109.44h-4.12v-16.03h5.83c2.05,0,3.69.51,4.92,1.53,1.23,1.03,1.85,2.38,1.85,4.02s-.62,3.04-1.85,4.08c-1.27,1.03-2.92,1.55-4.95,1.55h-1.67v4.85Zm2.02-12.4h-2.02v3.92h2.02c.62,0,1.12-.18,1.5-.55.38-.37.58-.85.58-1.45s-.19-1.05-.58-1.4c-.38-.35-.88-.53-1.5-.53Z"/><path class="cls-3" d="m1969.6,95.49c1.63-1.63,3.61-2.45,5.92-2.45s4.28.82,5.95,2.45c1.63,1.67,2.45,3.65,2.45,5.95s-.82,4.29-2.45,5.92c-1.67,1.63-3.65,2.45-5.95,2.45s-4.31-.83-5.92-2.48c-1.65-1.63-2.48-3.61-2.48-5.92s.83-4.29,2.48-5.92Zm1.95,5.92c0,1.18.39,2.19,1.18,3.03.78.83,1.72,1.25,2.8,1.25s2.04-.42,2.83-1.25c.77-.82,1.15-1.82,1.15-3s-.38-2.21-1.15-3.03c-.78-.83-1.73-1.25-2.83-1.25s-2.03.41-2.8,1.23c-.78.83-1.18,1.84-1.18,3.02Z"/><path class="cls-3" d="m1990.3,109.44h-4.12v-16.03h4.12v16.03Z"/><path class="cls-3" d="m2007.72,109.44h-4.42l-5.88-9.12v9.12h-4.12v-16.03h4.42l5.88,9.28v-9.28h4.12v16.03Z"/><path class="cls-3" d="m2022.37,93.42v3.88h-4.4v12.15h-4.12v-12.15h-4.38v-3.88h12.9Z"/></g><g><path class="cls-6" d="m175.51,55.55l-2.15,2.12c-.37-.55-.89-1-1.58-1.35-.68-.35-1.41-.53-2.17-.53s-1.31.15-1.74.44c-.43.29-.64.68-.64,1.16,0,.45.21.83.62,1.15.42.32.94.56,1.56.74s1.3.4,2.02.67c.73.28,1.4.58,2.02.9s1.15.81,1.56,1.45.62,1.4.62,2.29c0,1.47-.56,2.66-1.67,3.58-1.13.93-2.62,1.4-4.45,1.4-2.9,0-4.98-.96-6.25-2.88l2.23-2.08c1,1.33,2.36,2,4.08,2,.87,0,1.54-.16,2.01-.49.48-.33.71-.78.71-1.36,0-.33-.1-.63-.31-.9-.21-.27-.52-.5-.94-.71-.42-.21-.82-.39-1.21-.54-.39-.15-.9-.33-1.51-.53-.62-.2-1.11-.38-1.48-.52-.88-.35-1.6-.87-2.15-1.56-.55-.69-.83-1.53-.83-2.51,0-1.35.55-2.47,1.65-3.35,1.07-.87,2.47-1.3,4.2-1.3,1.25,0,2.38.24,3.4.73s1.81,1.14,2.38,1.97Z"/><path class="cls-6" d="m189.51,53.2v2.92h-4.77v13.1h-3.12v-13.1h-4.75v-2.92h12.65Z"/><path class="cls-6" d="m206.79,69.23h-3.48l-1.38-3.6h-7.02l-1.4,3.6h-3.27l6.45-16.02h3.65l6.45,16.02Zm-10.83-6.38h4.9l-2.45-6.35-2.45,6.35Z"/><path class="cls-6" d="m212.23,69.23h-3.12v-16.02h10.15v2.95h-7.03v3.88h6.03v2.95h-6.03v6.25Z"/><path class="cls-6" d="m225.21,69.23h-3.12v-16.02h10.15v2.95h-7.03v3.88h6.03v2.95h-6.03v6.25Z"/><path class="cls-6" d="m238.18,69.23h-3.12v-16.02h3.12v16.02Z"/><path class="cls-6" d="m255.93,69.23h-3.38l-7.48-10.85v10.85h-3.12v-16.02h3.38l7.48,10.97v-10.97h3.12v16.02Z"/><path class="cls-6" d="m273.18,60.45v7.38c-1.53,1.17-3.55,1.75-6.05,1.75-2.32,0-4.27-.82-5.85-2.45-1.58-1.63-2.38-3.6-2.38-5.9s.81-4.31,2.42-5.92c1.6-1.63,3.53-2.45,5.8-2.45,2.48,0,4.46.73,5.92,2.2l-2.08,2.38c-1.12-.97-2.39-1.45-3.82-1.45s-2.52.51-3.48,1.53c-.97,1.02-1.45,2.26-1.45,3.72s.49,2.67,1.48,3.7c.97,1.02,2.18,1.53,3.65,1.53.98,0,1.88-.21,2.7-.62v-4.53l3.12-.85Zm-6.75,0h6.75l-1.08,2.8h-5.67v-2.8Z"/></g><path class="cls-7" d="m983.21,131.19c-.28,0-.5-.22-.5-.5v-53.21c0-.28.22-.5.5-.5s.5.22.5.5v53.21c0,.28-.22.5-.5.5Z"/><circle class="cls-7" cx="983.21" cy="130.03" r="9"/><g><path class="cls-6" d="m911.23,55.05l-2.08,2.38c-1.12-.97-2.39-1.45-3.82-1.45s-2.52.51-3.48,1.53c-.97,1.02-1.45,2.26-1.45,3.72s.49,2.67,1.48,3.7c.97,1.02,2.18,1.53,3.65,1.53s2.71-.48,3.62-1.45l2.08,2.3c-1.4,1.52-3.38,2.28-5.92,2.28-2.32,0-4.27-.82-5.85-2.45-1.58-1.63-2.38-3.6-2.38-5.9s.81-4.31,2.42-5.92c1.6-1.63,3.53-2.45,5.8-2.45,2.48,0,4.46.73,5.92,2.2Z"/><path class="cls-6" d="m924.08,69.23h-10.38v-16.02h10.38v2.92h-7.25v3.55h6.25v2.95h-6.25v3.65h7.25v2.95Z"/><path class="cls-6" d="m930.08,69.23h-3.12v-16.02h5.7c1.9,0,3.42.46,4.55,1.38,1.15.93,1.73,2.16,1.73,3.67,0,1.08-.3,2.02-.89,2.81-.59.79-1.42,1.39-2.49,1.79l3.73,6.38h-3.62l-3.27-5.9h-2.3v5.9Zm2.83-13.27h-2.83v4.62h2.83c.82,0,1.48-.21,1.98-.64s.75-.99.75-1.69-.25-1.24-.75-1.66c-.5-.42-1.16-.64-1.98-.64Z"/><path class="cls-6" d="m953.33,53.2v2.92h-4.77v13.1h-3.12v-13.1h-4.75v-2.92h12.65Z"/><path class="cls-6" d="m958.71,69.23h-3.12v-16.02h3.12v16.02Z"/><path class="cls-6" d="m965.66,69.23h-3.12v-16.02h10.15v2.95h-7.03v3.88h6.03v2.95h-6.03v6.25Z"/><path class="cls-6" d="m978.63,69.23h-3.12v-16.02h3.12v16.02Z"/><path class="cls-6" d="m995.78,55.05l-2.08,2.38c-1.12-.97-2.39-1.45-3.82-1.45s-2.52.51-3.48,1.53c-.97,1.02-1.45,2.26-1.45,3.72s.49,2.67,1.48,3.7c.97,1.02,2.18,1.53,3.65,1.53s2.71-.48,3.62-1.45l2.08,2.3c-1.4,1.52-3.38,2.28-5.92,2.28-2.32,0-4.27-.82-5.85-2.45-1.58-1.63-2.38-3.6-2.38-5.9s.81-4.31,2.42-5.92c1.6-1.63,3.53-2.45,5.8-2.45,2.48,0,4.46.73,5.92,2.2Z"/><path class="cls-6" d="m1013.28,69.23h-3.48l-1.38-3.6h-7.02l-1.4,3.6h-3.27l6.45-16.02h3.65l6.45,16.02Zm-10.83-6.38h4.9l-2.45-6.35-2.45,6.35Z"/><path class="cls-6" d="m1026.66,53.2v2.92h-4.77v13.1h-3.12v-13.1h-4.75v-2.92h12.65Z"/><path class="cls-6" d="m1032.03,69.23h-3.12v-16.02h3.12v16.02Z"/><path class="cls-6" d="m1037.46,55.3c1.63-1.63,3.58-2.45,5.85-2.45s4.24.82,5.88,2.45c1.62,1.63,2.42,3.61,2.42,5.92s-.81,4.28-2.42,5.9-3.59,2.45-5.88,2.45-4.22-.82-5.85-2.45c-1.62-1.62-2.42-3.58-2.42-5.9s.81-4.31,2.42-5.92Zm5.85,11.15c1.38,0,2.56-.51,3.52-1.53.97-1.02,1.45-2.25,1.45-3.7s-.48-2.71-1.45-3.72c-.97-1.02-2.14-1.53-3.52-1.53s-2.53.51-3.5,1.53c-.97,1.02-1.45,2.26-1.45,3.72s.48,2.66,1.45,3.67c.98,1.03,2.15,1.55,3.5,1.55Z"/><path class="cls-6" d="m1068.56,69.23h-3.38l-7.48-10.85v10.85h-3.12v-16.02h3.38l7.48,10.97v-10.97h3.12v16.02Z"/></g><path class="cls-7" d="m473.01,253.47c-.28,0-.5-.22-.5-.5V104.93c0-.28.22-.5.5-.5s.5.22.5.5v148.04c0,.28-.22.5-.5.5Z"/><circle class="cls-7" cx="473.01" cy="253.33" r="9"/><g><path class="cls-6" d="m409.52,69.23h-3.12v-16.03h3.12v16.03Z"/><path class="cls-6" d="m427.27,69.23h-3.38l-7.48-10.85v10.85h-3.12v-16.03h3.38l7.48,10.98v-10.98h3.12v16.03Z"/><path class="cls-6" d="m436.52,69.23h-5.45v-16.03h5.33c2.63,0,4.8.75,6.5,2.25,1.7,1.52,2.55,3.45,2.55,5.8s-.83,4.23-2.5,5.73-3.81,2.25-6.42,2.25Zm-.15-13.08h-2.1v10.12h2.12c1.7,0,3.08-.47,4.15-1.4,1.03-.93,1.55-2.16,1.55-3.67s-.52-2.74-1.55-3.67c-1.03-.92-2.42-1.38-4.17-1.38Z"/><path class="cls-6" d="m451.57,69.23h-3.12v-16.03h3.12v16.03Z"/><path class="cls-6" d="m453.97,53.2h3.45l4.4,12.62,4.4-12.62h3.27l-5.92,16.03h-3.68l-5.92-16.03Z"/><path class="cls-6" d="m475.05,69.23h-3.12v-16.03h3.12v16.03Z"/><path class="cls-6" d="m484.32,69.23h-5.45v-16.03h5.33c2.63,0,4.8.75,6.5,2.25,1.7,1.52,2.55,3.45,2.55,5.8s-.83,4.23-2.5,5.73-3.81,2.25-6.42,2.25Zm-.15-13.08h-2.1v10.12h2.12c1.7,0,3.08-.47,4.15-1.4,1.03-.93,1.55-2.16,1.55-3.67s-.52-2.74-1.55-3.67c-1.03-.92-2.42-1.38-4.17-1.38Z"/><path class="cls-6" d="m496.07,62.7v-9.5h3.12v9.45c0,1.13.32,2.05.95,2.75.63.7,1.47,1.05,2.5,1.05s1.84-.35,2.46-1.04.94-1.6.94-2.74v-9.48h3.12v9.5c0,2.07-.6,3.73-1.8,4.98-1.22,1.27-2.81,1.9-4.77,1.9s-3.56-.63-4.73-1.9c-1.2-1.25-1.8-2.91-1.8-4.98Z"/><path class="cls-6" d="m527.87,69.23h-3.48l-1.38-3.6h-7.02l-1.4,3.6h-3.27l6.45-16.03h3.65l6.45,16.03Zm-10.83-6.38h4.9l-2.45-6.35-2.45,6.35Z"/><path class="cls-6" d="m541.15,69.23h-10.95v-16.03h3.12v13.08h7.83v2.95Z"/><path class="cls-6" d="m367.52,79.2v2.93h-4.77v13.1h-3.12v-13.1h-4.75v-2.93h12.65Z"/><path class="cls-6" d="m372.9,95.23h-3.12v-16.03h5.7c1.9,0,3.42.46,4.55,1.38,1.15.93,1.73,2.16,1.73,3.68,0,1.08-.3,2.02-.89,2.81-.59.79-1.42,1.39-2.49,1.79l3.73,6.38h-3.62l-3.27-5.9h-2.3v5.9Zm2.83-13.28h-2.83v4.62h2.83c.82,0,1.48-.21,1.98-.64.5-.43.75-.99.75-1.69s-.25-1.24-.75-1.66-1.16-.64-1.98-.64Z"/><path class="cls-6" d="m400.12,95.23h-3.48l-1.38-3.6h-7.02l-1.4,3.6h-3.27l6.45-16.03h3.65l6.45,16.03Zm-10.83-6.38h4.9l-2.45-6.35-2.45,6.35Z"/><path class="cls-6" d="m405.57,95.23h-3.12v-16.03h3.12v16.03Z"/><path class="cls-6" d="m423.32,95.23h-3.38l-7.48-10.85v10.85h-3.12v-16.03h3.38l7.48,10.98v-10.98h3.12v16.03Z"/><path class="cls-6" d="m430.25,95.23h-3.12v-16.03h3.12v16.03Z"/><path class="cls-6" d="m448,95.23h-3.38l-7.48-10.85v10.85h-3.12v-16.03h3.38l7.48,10.98v-10.98h3.12v16.03Z"/><path class="cls-6" d="m465.25,86.45v7.38c-1.53,1.17-3.55,1.75-6.05,1.75-2.32,0-4.27-.82-5.85-2.45-1.58-1.63-2.38-3.6-2.38-5.9s.81-4.31,2.42-5.92c1.6-1.63,3.53-2.45,5.8-2.45,2.48,0,4.46.73,5.92,2.2l-2.08,2.38c-1.12-.97-2.39-1.45-3.82-1.45s-2.52.51-3.48,1.53c-.97,1.02-1.45,2.26-1.45,3.72s.49,2.67,1.48,3.7c.97,1.02,2.18,1.52,3.65,1.52.98,0,1.88-.21,2.7-.62v-4.52l3.12-.85Zm-6.75,0h6.75l-1.08,2.8h-5.67v-2.8Z"/><path class="cls-6" d="m477.17,95.23h-3.12v-16.03h5.7c1.95,0,3.51.48,4.67,1.45,1.17.97,1.75,2.25,1.75,3.85s-.59,2.89-1.77,3.88c-1.17.97-2.73,1.45-4.7,1.45h-2.53v5.4Zm2.83-13.28h-2.83v5.12h2.83c.87,0,1.56-.24,2.09-.71.52-.48.79-1.1.79-1.86s-.26-1.38-.79-1.85c-.52-.47-1.22-.7-2.09-.7Z"/><path class="cls-6" d="m492.07,95.23h-3.12v-16.03h5.7c1.9,0,3.42.46,4.55,1.38,1.15.93,1.73,2.16,1.73,3.68,0,1.08-.3,2.02-.89,2.81-.59.79-1.42,1.39-2.49,1.79l3.73,6.38h-3.62l-3.27-5.9h-2.3v5.9Zm2.83-13.28h-2.83v4.62h2.83c.82,0,1.48-.21,1.98-.64.5-.43.75-.99.75-1.69s-.25-1.24-.75-1.66-1.16-.64-1.98-.64Z"/><path class="cls-6" d="m505.87,81.3c1.63-1.63,3.58-2.45,5.85-2.45s4.24.82,5.88,2.45c1.62,1.63,2.42,3.61,2.42,5.92s-.81,4.28-2.42,5.9c-1.63,1.63-3.59,2.45-5.88,2.45s-4.22-.82-5.85-2.45c-1.62-1.62-2.42-3.58-2.42-5.9s.81-4.31,2.42-5.92Zm5.85,11.15c1.38,0,2.56-.51,3.52-1.52.97-1.02,1.45-2.25,1.45-3.7s-.48-2.71-1.45-3.72c-.97-1.02-2.14-1.53-3.52-1.53s-2.53.51-3.5,1.53c-.97,1.02-1.45,2.26-1.45,3.72s.48,2.66,1.45,3.67c.98,1.03,2.15,1.55,3.5,1.55Z"/><path class="cls-6" d="m536.5,86.45v7.38c-1.53,1.17-3.55,1.75-6.05,1.75-2.32,0-4.27-.82-5.85-2.45-1.58-1.63-2.38-3.6-2.38-5.9s.81-4.31,2.42-5.92c1.6-1.63,3.53-2.45,5.8-2.45,2.48,0,4.46.73,5.92,2.2l-2.08,2.38c-1.12-.97-2.39-1.45-3.82-1.45s-2.52.51-3.48,1.53c-.97,1.02-1.45,2.26-1.45,3.72s.49,2.67,1.48,3.7c.97,1.02,2.18,1.52,3.65,1.52.98,0,1.88-.21,2.7-.62v-4.52l3.12-.85Zm-6.75,0h6.75l-1.08,2.8h-5.67v-2.8Z"/><path class="cls-6" d="m543.05,95.23h-3.12v-16.03h5.7c1.9,0,3.42.46,4.55,1.38,1.15.93,1.73,2.16,1.73,3.68,0,1.08-.3,2.02-.89,2.81-.59.79-1.42,1.39-2.49,1.79l3.73,6.38h-3.62l-3.27-5.9h-2.3v5.9Zm2.83-13.28h-2.83v4.62h2.83c.82,0,1.48-.21,1.98-.64.5-.43.75-.99.75-1.69s-.25-1.24-.75-1.66-1.16-.64-1.98-.64Z"/><path class="cls-6" d="m570.27,95.23h-3.48l-1.38-3.6h-7.02l-1.4,3.6h-3.27l6.45-16.03h3.65l6.45,16.03Zm-10.83-6.38h4.9l-2.45-6.35-2.45,6.35Z"/><path class="cls-6" d="m586.45,84.08l-5.38,8.12-5.35-8.07v11.1h-3.12v-16.03h3.58l5.1,7.95,5.1-7.95h3.2v16.03h-3.12v-11.15Z"/></g><path class="cls-7" d="m1575.95,162.24c-.28,0-.5-.22-.5-.5v-56.81c0-.28.22-.5.5-.5s.5.22.5.5v56.81c0,.28-.22.5-.5.5Z"/><circle class="cls-7" cx="1575.29" cy="161.78" r="9"/><g><path class="cls-6" d="m1512.47,69.23h-3.12v-16.03h3.12v16.03Z"/><path class="cls-6" d="m1530.22,69.23h-3.38l-7.47-10.85v10.85h-3.12v-16.03h3.38l7.47,10.98v-10.98h3.12v16.03Z"/><path class="cls-6" d="m1539.47,69.23h-5.45v-16.03h5.33c2.63,0,4.8.75,6.5,2.25,1.7,1.52,2.55,3.45,2.55,5.8s-.83,4.23-2.5,5.73c-1.67,1.5-3.81,2.25-6.42,2.25Zm-.15-13.08h-2.1v10.12h2.12c1.7,0,3.08-.47,4.15-1.4,1.03-.93,1.55-2.16,1.55-3.67s-.52-2.74-1.55-3.67c-1.03-.92-2.42-1.38-4.17-1.38Z"/><path class="cls-6" d="m1554.52,69.23h-3.12v-16.03h3.12v16.03Z"/><path class="cls-6" d="m1556.92,53.2h3.45l4.4,12.62,4.4-12.62h3.27l-5.92,16.03h-3.67l-5.92-16.03Z"/><path class="cls-6" d="m1577.99,69.23h-3.12v-16.03h3.12v16.03Z"/><path class="cls-6" d="m1587.27,69.23h-5.45v-16.03h5.33c2.63,0,4.8.75,6.5,2.25,1.7,1.52,2.55,3.45,2.55,5.8s-.83,4.23-2.5,5.73c-1.67,1.5-3.81,2.25-6.42,2.25Zm-.15-13.08h-2.1v10.12h2.12c1.7,0,3.08-.47,4.15-1.4,1.03-.93,1.55-2.16,1.55-3.67s-.52-2.74-1.55-3.67c-1.03-.92-2.42-1.38-4.17-1.38Z"/><path class="cls-6" d="m1599.02,62.7v-9.5h3.12v9.45c0,1.13.32,2.05.95,2.75.63.7,1.47,1.05,2.5,1.05s1.84-.35,2.46-1.04.94-1.6.94-2.74v-9.48h3.12v9.5c0,2.07-.6,3.73-1.8,4.98-1.22,1.27-2.81,1.9-4.78,1.9s-3.56-.63-4.72-1.9c-1.2-1.25-1.8-2.91-1.8-4.98Z"/><path class="cls-6" d="m1630.82,69.23h-3.48l-1.38-3.6h-7.02l-1.4,3.6h-3.28l6.45-16.03h3.65l6.45,16.03Zm-10.83-6.38h4.9l-2.45-6.35-2.45,6.35Z"/><path class="cls-6" d="m1644.09,69.23h-10.95v-16.03h3.12v13.08h7.83v2.95Z"/><path class="cls-6" d="m1470.47,79.2v2.93h-4.78v13.1h-3.12v-13.1h-4.75v-2.93h12.65Z"/><path class="cls-6" d="m1475.84,95.23h-3.12v-16.03h5.7c1.9,0,3.42.46,4.55,1.38,1.15.93,1.73,2.16,1.73,3.68,0,1.08-.3,2.02-.89,2.81-.59.79-1.42,1.39-2.49,1.79l3.72,6.38h-3.62l-3.27-5.9h-2.3v5.9Zm2.83-13.28h-2.83v4.62h2.83c.82,0,1.48-.21,1.98-.64.5-.43.75-.99.75-1.69s-.25-1.24-.75-1.66-1.16-.64-1.98-.64Z"/><path class="cls-6" d="m1503.07,95.23h-3.48l-1.38-3.6h-7.02l-1.4,3.6h-3.28l6.45-16.03h3.65l6.45,16.03Zm-10.83-6.38h4.9l-2.45-6.35-2.45,6.35Z"/><path class="cls-6" d="m1508.52,95.23h-3.12v-16.03h3.12v16.03Z"/><path class="cls-6" d="m1526.27,95.23h-3.38l-7.47-10.85v10.85h-3.12v-16.03h3.38l7.47,10.98v-10.98h3.12v16.03Z"/><path class="cls-6" d="m1533.19,95.23h-3.12v-16.03h3.12v16.03Z"/><path class="cls-6" d="m1550.94,95.23h-3.38l-7.47-10.85v10.85h-3.12v-16.03h3.38l7.47,10.98v-10.98h3.12v16.03Z"/><path class="cls-6" d="m1568.19,86.45v7.38c-1.53,1.17-3.55,1.75-6.05,1.75-2.32,0-4.27-.82-5.85-2.45-1.58-1.63-2.38-3.6-2.38-5.9s.81-4.31,2.42-5.92c1.6-1.63,3.53-2.45,5.8-2.45,2.48,0,4.46.73,5.92,2.2l-2.08,2.38c-1.12-.97-2.39-1.45-3.82-1.45s-2.53.51-3.48,1.53c-.97,1.02-1.45,2.26-1.45,3.72s.49,2.67,1.48,3.7c.97,1.02,2.18,1.52,3.65,1.52.98,0,1.88-.21,2.7-.62v-4.52l3.12-.85Zm-6.75,0h6.75l-1.08,2.8h-5.67v-2.8Z"/><path class="cls-6" d="m1580.11,95.23h-3.12v-16.03h5.7c1.95,0,3.51.48,4.67,1.45,1.17.97,1.75,2.25,1.75,3.85s-.59,2.89-1.78,3.88c-1.17.97-2.73,1.45-4.7,1.45h-2.53v5.4Zm2.83-13.28h-2.83v5.12h2.83c.87,0,1.56-.24,2.09-.71.53-.48.79-1.1.79-1.86s-.26-1.38-.79-1.85c-.52-.47-1.22-.7-2.09-.7Z"/><path class="cls-6" d="m1595.01,95.23h-3.12v-16.03h5.7c1.9,0,3.42.46,4.55,1.38,1.15.93,1.73,2.16,1.73,3.68,0,1.08-.3,2.02-.89,2.81-.59.79-1.42,1.39-2.49,1.79l3.72,6.38h-3.62l-3.27-5.9h-2.3v5.9Zm2.83-13.28h-2.83v4.62h2.83c.82,0,1.48-.21,1.98-.64.5-.43.75-.99.75-1.69s-.25-1.24-.75-1.66-1.16-.64-1.98-.64Z"/><path class="cls-6" d="m1608.81,81.3c1.63-1.63,3.58-2.45,5.85-2.45s4.24.82,5.88,2.45c1.62,1.63,2.42,3.61,2.42,5.92s-.81,4.28-2.42,5.9c-1.63,1.63-3.59,2.45-5.88,2.45s-4.22-.82-5.85-2.45c-1.62-1.62-2.42-3.58-2.42-5.9s.81-4.31,2.42-5.92Zm5.85,11.15c1.38,0,2.56-.51,3.52-1.52s1.45-2.25,1.45-3.7-.48-2.71-1.45-3.72-2.14-1.53-3.52-1.53-2.53.51-3.5,1.53c-.97,1.02-1.45,2.26-1.45,3.72s.48,2.66,1.45,3.67c.98,1.03,2.15,1.55,3.5,1.55Z"/><path class="cls-6" d="m1639.44,86.45v7.38c-1.53,1.17-3.55,1.75-6.05,1.75-2.32,0-4.27-.82-5.85-2.45-1.58-1.63-2.38-3.6-2.38-5.9s.81-4.31,2.42-5.92c1.6-1.63,3.53-2.45,5.8-2.45,2.48,0,4.46.73,5.92,2.2l-2.08,2.38c-1.12-.97-2.39-1.45-3.82-1.45s-2.53.51-3.48,1.53c-.97,1.02-1.45,2.26-1.45,3.72s.49,2.67,1.48,3.7c.97,1.02,2.18,1.52,3.65,1.52.98,0,1.88-.21,2.7-.62v-4.52l3.12-.85Zm-6.75,0h6.75l-1.08,2.8h-5.67v-2.8Z"/><path class="cls-6" d="m1645.99,95.23h-3.12v-16.03h5.7c1.9,0,3.42.46,4.55,1.38,1.15.93,1.73,2.16,1.73,3.68,0,1.08-.3,2.02-.89,2.81-.59.79-1.42,1.39-2.49,1.79l3.72,6.38h-3.62l-3.27-5.9h-2.3v5.9Zm2.83-13.28h-2.83v4.62h2.83c.82,0,1.48-.21,1.98-.64.5-.43.75-.99.75-1.69s-.25-1.24-.75-1.66-1.16-.64-1.98-.64Z"/><path class="cls-6" d="m1673.21,95.23h-3.48l-1.38-3.6h-7.02l-1.4,3.6h-3.28l6.45-16.03h3.65l6.45,16.03Zm-10.83-6.38h4.9l-2.45-6.35-2.45,6.35Z"/><path class="cls-6" d="m1689.39,84.08l-5.38,8.12-5.35-8.07v11.1h-3.12v-16.03h3.58l5.1,7.95,5.1-7.95h3.2v16.03h-3.12v-11.15Z"/></g><g><path class="cls-6" d="m219.73,302.89v2.92h-4.77v13.1h-3.12v-13.1h-4.75v-2.92h12.65Z"/><path class="cls-6" d="m232.35,318.91h-10.38v-16.02h10.38v2.92h-7.25v3.55h6.25v2.95h-6.25v3.65h7.25v2.95Z"/><path class="cls-6" d="m250.25,318.91h-3.48l-1.38-3.6h-7.02l-1.4,3.6h-3.27l6.45-16.02h3.65l6.45,16.02Zm-10.83-6.38h4.9l-2.45-6.35-2.45,6.35Z"/><path class="cls-6" d="m266.43,307.77l-5.38,8.12-5.35-8.08v11.1h-3.12v-16.02h3.58l5.1,7.95,5.1-7.95h3.2v16.02h-3.12v-11.15Z"/><path class="cls-6" d="m280.35,304.99c1.63-1.63,3.58-2.45,5.85-2.45s4.24.82,5.88,2.45c1.62,1.63,2.42,3.61,2.42,5.92s-.81,4.28-2.42,5.9-3.59,2.45-5.88,2.45-4.22-.82-5.85-2.45c-1.62-1.62-2.42-3.58-2.42-5.9s.81-4.31,2.42-5.92Zm5.85,11.15c1.38,0,2.56-.51,3.52-1.53.97-1.02,1.45-2.25,1.45-3.7s-.48-2.71-1.45-3.72c-.97-1.02-2.14-1.53-3.52-1.53s-2.53.51-3.5,1.53c-.97,1.02-1.45,2.26-1.45,3.72s.48,2.66,1.45,3.67c.98,1.03,2.15,1.55,3.5,1.55Z"/><path class="cls-6" d="m311.45,318.91h-3.38l-7.48-10.85v10.85h-3.12v-16.02h3.38l7.48,10.97v-10.97h3.12v16.02Z"/><path class="cls-6" d="m322.05,318.91h-6.8v-16.02h6.43c1.5,0,2.77.42,3.8,1.25,1,.82,1.5,1.88,1.5,3.2,0,.8-.23,1.49-.67,2.06-.45.58-1.02,1-1.73,1.29.87.25,1.56.7,2.08,1.35.52.65.77,1.44.77,2.38,0,1.27-.48,2.33-1.43,3.2-.97.87-2.28,1.3-3.95,1.3Zm-.68-13.25h-3v3.85h3.03c.67,0,1.22-.18,1.66-.55.44-.37.66-.82.66-1.38s-.22-1.03-.66-1.39-1-.54-1.69-.54Zm.38,6.42h-3.38v4.05h3.35c.7,0,1.28-.19,1.74-.58.46-.38.69-.88.69-1.48s-.23-1.06-.68-1.44c-.45-.38-1.02-.56-1.73-.56Z"/><path class="cls-6" d="m331.78,304.99c1.63-1.63,3.58-2.45,5.85-2.45s4.24.82,5.88,2.45c1.62,1.63,2.42,3.61,2.42,5.92s-.81,4.28-2.42,5.9-3.59,2.45-5.88,2.45-4.22-.82-5.85-2.45c-1.62-1.62-2.42-3.58-2.42-5.9s.81-4.31,2.42-5.92Zm5.85,11.15c1.38,0,2.56-.51,3.52-1.53.97-1.02,1.45-2.25,1.45-3.7s-.48-2.71-1.45-3.72c-.97-1.02-2.14-1.53-3.52-1.53s-2.53.51-3.5,1.53c-.97,1.02-1.45,2.26-1.45,3.72s.48,2.66,1.45,3.67c.98,1.03,2.15,1.55,3.5,1.55Z"/><path class="cls-6" d="m363.98,318.91h-3.48l-1.38-3.6h-7.02l-1.4,3.6h-3.27l6.45-16.02h3.65l6.45,16.02Zm-10.83-6.38h4.9l-2.45-6.35-2.45,6.35Z"/><path class="cls-6" d="m369.42,318.91h-3.12v-16.02h5.7c1.9,0,3.42.46,4.55,1.38,1.15.93,1.73,2.16,1.73,3.67,0,1.08-.3,2.02-.89,2.81-.59.79-1.42,1.39-2.49,1.79l3.73,6.38h-3.62l-3.27-5.9h-2.3v5.9Zm2.83-13.27h-2.83v4.62h2.83c.82,0,1.48-.21,1.98-.64s.75-.99.75-1.69-.25-1.24-.75-1.66c-.5-.42-1.16-.64-1.98-.64Z"/><path class="cls-6" d="m387.07,318.91h-5.45v-16.02h5.33c2.63,0,4.8.75,6.5,2.25,1.7,1.52,2.55,3.45,2.55,5.8s-.83,4.22-2.5,5.72-3.81,2.25-6.42,2.25Zm-.15-13.08h-2.1v10.12h2.12c1.7,0,3.08-.47,4.15-1.4,1.03-.93,1.55-2.16,1.55-3.67s-.52-2.74-1.55-3.68c-1.03-.92-2.42-1.38-4.17-1.38Z"/><path class="cls-6" d="m402.12,318.91h-3.12v-16.02h3.12v16.02Z"/><path class="cls-6" d="m419.87,318.91h-3.38l-7.48-10.85v10.85h-3.12v-16.02h3.38l7.48,10.97v-10.97h3.12v16.02Z"/><path class="cls-6" d="m437.12,310.14v7.38c-1.53,1.17-3.55,1.75-6.05,1.75-2.32,0-4.27-.82-5.85-2.45-1.58-1.63-2.38-3.6-2.38-5.9s.81-4.31,2.42-5.92c1.6-1.63,3.53-2.45,5.8-2.45,2.48,0,4.46.73,5.92,2.2l-2.08,2.38c-1.12-.97-2.39-1.45-3.82-1.45s-2.52.51-3.48,1.53c-.97,1.02-1.45,2.26-1.45,3.72s.49,2.67,1.48,3.7c.97,1.02,2.18,1.53,3.65,1.53.98,0,1.88-.21,2.7-.62v-4.53l3.12-.85Zm-6.75,0h6.75l-1.08,2.8h-5.67v-2.8Z"/></g><path class="cls-7" d="m871.29,258.35c-.28,0-.5-.22-.5-.5v-127.9c0-.28.22-.5.5-.5s.5.22.5.5v127.9c0,.28-.22.5-.5.5Z"/><circle class="cls-7" cx="871.29" cy="130.03" r="9"/><g><path class="cls-6" d="m820.55,276.89v2.92h-4.77v13.1h-3.12v-13.1h-4.75v-2.92h12.65Z"/><path class="cls-6" d="m824.4,278.99c1.63-1.63,3.58-2.45,5.85-2.45s4.24.82,5.88,2.45c1.62,1.63,2.42,3.61,2.42,5.92s-.81,4.28-2.42,5.9-3.59,2.45-5.88,2.45-4.22-.82-5.85-2.45c-1.62-1.62-2.42-3.58-2.42-5.9s.81-4.31,2.42-5.92Zm5.85,11.15c1.38,0,2.56-.51,3.52-1.52.97-1.02,1.45-2.25,1.45-3.7s-.48-2.71-1.45-3.73c-.97-1.02-2.14-1.52-3.52-1.52s-2.53.51-3.5,1.52c-.97,1.02-1.45,2.26-1.45,3.73s.48,2.66,1.45,3.67c.98,1.03,2.15,1.55,3.5,1.55Z"/><path class="cls-6" d="m843.18,278.99c1.63-1.63,3.58-2.45,5.85-2.45s4.24.82,5.88,2.45c1.62,1.63,2.42,3.61,2.42,5.92s-.81,4.28-2.42,5.9-3.59,2.45-5.88,2.45-4.22-.82-5.85-2.45c-1.62-1.62-2.42-3.58-2.42-5.9s.81-4.31,2.42-5.92Zm5.85,11.15c1.38,0,2.56-.51,3.52-1.52.97-1.02,1.45-2.25,1.45-3.7s-.48-2.71-1.45-3.73c-.97-1.02-2.14-1.52-3.52-1.52s-2.53.51-3.5,1.52c-.97,1.02-1.45,2.26-1.45,3.73s.48,2.66,1.45,3.67c.98,1.03,2.15,1.55,3.5,1.55Z"/><path class="cls-6" d="m871.3,292.91h-10.95v-16.03h3.12v13.08h7.83v2.95Z"/><path class="cls-6" d="m876.75,292.91h-3.12v-16.03h3.12v16.03Z"/><path class="cls-6" d="m894.5,292.91h-3.38l-7.48-10.85v10.85h-3.12v-16.03h3.38l7.48,10.98v-10.98h3.12v16.03Z"/><path class="cls-6" d="m911.75,284.14v7.38c-1.53,1.17-3.55,1.75-6.05,1.75-2.32,0-4.27-.82-5.85-2.45-1.58-1.63-2.38-3.6-2.38-5.9s.81-4.31,2.42-5.92c1.6-1.63,3.53-2.45,5.8-2.45,2.48,0,4.46.73,5.92,2.2l-2.08,2.38c-1.12-.97-2.39-1.45-3.82-1.45s-2.52.51-3.48,1.52c-.97,1.02-1.45,2.26-1.45,3.73s.49,2.67,1.48,3.7c.97,1.02,2.18,1.52,3.65,1.52.98,0,1.88-.21,2.7-.62v-4.52l3.12-.85Zm-6.75,0h6.75l-1.08,2.8h-5.67v-2.8Z"/><path class="cls-6" d="m926.18,276.54c.93,0,1.77.2,2.5.59.73.39,1.31.92,1.73,1.59l-2.1,2.05c-.48-.9-1.21-1.35-2.17-1.35-.53,0-.97.16-1.3.47-.33.32-.5.71-.5,1.17,0,.68.38,1.35,1.12,2l4.57,3.95,1.73-2.17,2.25,1.7-1.83,2.33,2.43,2.1-1.8,2.3-2.5-2.17c-1.48,1.45-3.17,2.17-5.07,2.17-1.48,0-2.73-.49-3.75-1.47-1.02-.97-1.52-2.19-1.52-3.67,0-1.75.73-3.21,2.2-4.38-.6-.82-.9-1.73-.9-2.75,0-1.28.47-2.35,1.4-3.2.93-.83,2.11-1.25,3.52-1.25Zm-.75,13.85c1.03,0,1.96-.38,2.78-1.15l-4.1-3.58c-.73.6-1.1,1.34-1.1,2.22,0,.72.23,1.31.7,1.79.47.47,1.04.71,1.72.71Z"/><path class="cls-6" d="m774.4,318.91h-3.12v-16.03h3.12v16.03Z"/><path class="cls-6" d="m792.15,318.91h-3.38l-7.48-10.85v10.85h-3.12v-16.03h3.38l7.48,10.98v-10.98h3.12v16.03Z"/><path class="cls-6" d="m799.08,318.91h-3.12v-16.03h10.15v2.95h-7.03v3.88h6.03v2.95h-6.03v6.25Z"/><path class="cls-6" d="m812.05,318.91h-3.12v-16.03h5.7c1.9,0,3.42.46,4.55,1.38,1.15.93,1.73,2.16,1.73,3.68,0,1.08-.3,2.02-.89,2.81-.59.79-1.42,1.39-2.49,1.79l3.73,6.38h-3.62l-3.27-5.9h-2.3v5.9Zm2.83-13.28h-2.83v4.62h2.83c.82,0,1.48-.21,1.98-.64.5-.43.75-.99.75-1.69s-.25-1.24-.75-1.66-1.16-.64-1.98-.64Z"/><path class="cls-6" d="m839.28,318.91h-3.48l-1.38-3.6h-7.02l-1.4,3.6h-3.27l6.45-16.03h3.65l6.45,16.03Zm-10.83-6.38h4.9l-2.45-6.35-2.45,6.35Z"/><path class="cls-6" d="m852.7,305.24l-2.15,2.12c-.37-.55-.89-1-1.58-1.35-.68-.35-1.41-.52-2.17-.52s-1.31.15-1.74.44c-.43.29-.64.68-.64,1.16,0,.45.21.83.62,1.15.42.32.94.56,1.56.74s1.3.4,2.02.67c.73.28,1.4.58,2.02.9s1.15.81,1.56,1.45.62,1.4.62,2.29c0,1.47-.56,2.66-1.67,3.58-1.13.93-2.62,1.4-4.45,1.4-2.9,0-4.98-.96-6.25-2.88l2.23-2.07c1,1.33,2.36,2,4.08,2,.87,0,1.54-.16,2.01-.49.48-.32.71-.78.71-1.36,0-.33-.1-.63-.31-.9-.21-.27-.52-.5-.94-.71-.42-.21-.82-.39-1.21-.54-.39-.15-.9-.33-1.51-.53-.62-.2-1.11-.38-1.48-.53-.88-.35-1.6-.87-2.15-1.56-.55-.69-.83-1.53-.83-2.51,0-1.35.55-2.47,1.65-3.35,1.07-.87,2.47-1.3,4.2-1.3,1.25,0,2.38.24,3.4.72,1.02.48,1.81,1.14,2.38,1.98Z"/><path class="cls-6" d="m866.7,302.89v2.93h-4.77v13.1h-3.12v-13.1h-4.75v-2.93h12.65Z"/><path class="cls-6" d="m872.08,318.91h-3.12v-16.03h5.7c1.9,0,3.42.46,4.55,1.38,1.15.93,1.73,2.16,1.73,3.68,0,1.08-.3,2.02-.89,2.81-.59.79-1.42,1.39-2.49,1.79l3.73,6.38h-3.62l-3.27-5.9h-2.3v5.9Zm2.83-13.28h-2.83v4.62h2.83c.82,0,1.48-.21,1.98-.64.5-.43.75-.99.75-1.69s-.25-1.24-.75-1.66-1.16-.64-1.98-.64Z"/><path class="cls-6" d="m884.1,312.39v-9.5h3.12v9.45c0,1.13.32,2.05.95,2.75.63.7,1.47,1.05,2.5,1.05s1.84-.35,2.46-1.04.94-1.6.94-2.74v-9.48h3.12v9.5c0,2.07-.6,3.73-1.8,4.98-1.22,1.27-2.81,1.9-4.77,1.9s-3.56-.63-4.73-1.9c-1.2-1.25-1.8-2.91-1.8-4.98Z"/><path class="cls-6" d="m914.2,304.74l-2.08,2.38c-1.12-.97-2.39-1.45-3.82-1.45s-2.52.51-3.48,1.53c-.97,1.02-1.45,2.26-1.45,3.72s.49,2.67,1.48,3.7c.97,1.02,2.18,1.52,3.65,1.52s2.71-.48,3.62-1.45l2.08,2.3c-1.4,1.52-3.38,2.27-5.92,2.27-2.32,0-4.27-.82-5.85-2.45-1.58-1.63-2.38-3.6-2.38-5.9s.81-4.31,2.42-5.92c1.6-1.63,3.53-2.45,5.8-2.45,2.48,0,4.46.73,5.92,2.2Z"/><path class="cls-6" d="m927.73,302.89v2.93h-4.77v13.1h-3.12v-13.1h-4.75v-2.93h12.65Z"/><path class="cls-6" d="m929.8,312.39v-9.5h3.12v9.45c0,1.13.32,2.05.95,2.75.63.7,1.47,1.05,2.5,1.05s1.84-.35,2.46-1.04.94-1.6.94-2.74v-9.48h3.12v9.5c0,2.07-.6,3.73-1.8,4.98-1.22,1.27-2.81,1.9-4.77,1.9s-3.56-.63-4.73-1.9c-1.2-1.25-1.8-2.91-1.8-4.98Z"/><path class="cls-6" d="m949.7,318.91h-3.12v-16.03h5.7c1.9,0,3.42.46,4.55,1.38,1.15.93,1.73,2.16,1.73,3.68,0,1.08-.3,2.02-.89,2.81-.59.79-1.42,1.39-2.49,1.79l3.73,6.38h-3.62l-3.27-5.9h-2.3v5.9Zm2.83-13.28h-2.83v4.62h2.83c.82,0,1.48-.21,1.98-.64.5-.43.75-.99.75-1.69s-.25-1.24-.75-1.66-1.16-.64-1.98-.64Z"/><path class="cls-6" d="m972.28,318.91h-10.38v-16.03h10.38v2.93h-7.25v3.55h6.25v2.95h-6.25v3.65h7.25v2.95Z"/></g><path class="cls-7" d="m1705.38,258.35c-.28,0-.5-.22-.5-.5v-95.45c0-.28.22-.5.5-.5s.5.22.5.5v95.45c0,.28-.22.5-.5.5Z"/><circle class="cls-7" cx="1705.38" cy="161.78" r="9"/><g><path class="cls-6" d="m1569.87,292.91h-5.45v-16.03h5.33c2.63,0,4.8.75,6.5,2.25,1.7,1.52,2.55,3.45,2.55,5.8s-.83,4.23-2.5,5.73c-1.67,1.5-3.81,2.25-6.42,2.25Zm-.15-13.08h-2.1v10.12h2.12c1.7,0,3.08-.47,4.15-1.4,1.03-.93,1.55-2.16,1.55-3.67s-.52-2.74-1.55-3.67c-1.03-.92-2.42-1.38-4.17-1.38Z"/><path class="cls-6" d="m1592.17,292.91h-10.38v-16.03h10.38v2.92h-7.25v3.55h6.25v2.95h-6.25v3.65h7.25v2.95Z"/><path class="cls-6" d="m1606.15,279.24l-2.15,2.12c-.37-.55-.89-1-1.58-1.35-.68-.35-1.41-.52-2.17-.52s-1.31.15-1.74.44c-.43.29-.64.68-.64,1.16,0,.45.21.83.62,1.15.42.32.94.56,1.56.74s1.3.4,2.02.67c.73.28,1.4.58,2.03.9.62.32,1.15.81,1.56,1.45.42.64.62,1.4.62,2.29,0,1.47-.56,2.66-1.67,3.58-1.13.93-2.62,1.4-4.45,1.4-2.9,0-4.98-.96-6.25-2.88l2.22-2.08c1,1.33,2.36,2,4.08,2,.87,0,1.54-.16,2.01-.49s.71-.78.71-1.36c0-.33-.1-.63-.31-.9-.21-.27-.52-.5-.94-.71-.42-.21-.82-.39-1.21-.54-.39-.15-.9-.32-1.51-.52s-1.11-.38-1.47-.53c-.88-.35-1.6-.87-2.15-1.56-.55-.69-.83-1.53-.83-2.51,0-1.35.55-2.47,1.65-3.35,1.07-.87,2.47-1.3,4.2-1.3,1.25,0,2.38.24,3.4.72s1.81,1.14,2.38,1.98Z"/><path class="cls-6" d="m1612.22,292.91h-3.12v-16.03h3.12v16.03Z"/><path class="cls-6" d="m1629.5,284.14v7.38c-1.53,1.17-3.55,1.75-6.05,1.75-2.32,0-4.27-.82-5.85-2.45-1.58-1.63-2.38-3.6-2.38-5.9s.81-4.31,2.42-5.92c1.6-1.63,3.53-2.45,5.8-2.45,2.48,0,4.46.73,5.92,2.2l-2.08,2.38c-1.12-.97-2.39-1.45-3.82-1.45s-2.53.51-3.48,1.52c-.97,1.02-1.45,2.26-1.45,3.73s.49,2.67,1.48,3.7c.97,1.02,2.18,1.52,3.65,1.52.98,0,1.88-.21,2.7-.62v-4.52l3.12-.85Zm-6.75,0h6.75l-1.08,2.8h-5.67v-2.8Z"/><path class="cls-6" d="m1646.85,292.91h-3.38l-7.48-10.85v10.85h-3.12v-16.03h3.38l7.48,10.98v-10.98h3.12v16.03Z"/><path class="cls-6" d="m1661.65,276.54c.93,0,1.77.2,2.5.59.73.39,1.31.92,1.73,1.59l-2.1,2.05c-.48-.9-1.21-1.35-2.17-1.35-.53,0-.97.16-1.3.47-.33.32-.5.71-.5,1.17,0,.68.38,1.35,1.12,2l4.58,3.95,1.72-2.17,2.25,1.7-1.83,2.33,2.43,2.1-1.8,2.3-2.5-2.17c-1.48,1.45-3.17,2.17-5.07,2.17-1.48,0-2.73-.49-3.75-1.47-1.02-.97-1.53-2.19-1.53-3.67,0-1.75.73-3.21,2.2-4.38-.6-.82-.9-1.73-.9-2.75,0-1.28.47-2.35,1.4-3.2.93-.83,2.11-1.25,3.52-1.25Zm-.75,13.85c1.03,0,1.96-.38,2.78-1.15l-4.1-3.58c-.73.6-1.1,1.34-1.1,2.22,0,.72.23,1.31.7,1.79.47.47,1.04.71,1.72.71Z"/><path class="cls-6" d="m1683.22,292.91h-5.45v-16.03h5.33c2.63,0,4.8.75,6.5,2.25,1.7,1.52,2.55,3.45,2.55,5.8s-.83,4.23-2.5,5.73c-1.67,1.5-3.81,2.25-6.42,2.25Zm-.15-13.08h-2.1v10.12h2.12c1.7,0,3.08-.47,4.15-1.4,1.03-.93,1.55-2.16,1.55-3.67s-.52-2.74-1.55-3.67c-1.03-.92-2.42-1.38-4.17-1.38Z"/><path class="cls-6" d="m1705.52,292.91h-10.38v-16.03h10.38v2.92h-7.25v3.55h6.25v2.95h-6.25v3.65h7.25v2.95Z"/><path class="cls-6" d="m1706.97,276.89h3.45l4.4,12.62,4.4-12.62h3.28l-5.92,16.03h-3.68l-5.92-16.03Z"/><path class="cls-6" d="m1735.3,292.91h-10.38v-16.03h10.38v2.92h-7.25v3.55h6.25v2.95h-6.25v3.65h7.25v2.95Z"/><path class="cls-6" d="m1749.12,292.91h-10.95v-16.03h3.12v13.08h7.83v2.95Z"/><path class="cls-6" d="m1753.04,278.99c1.63-1.63,3.58-2.45,5.85-2.45s4.24.82,5.88,2.45c1.62,1.63,2.42,3.61,2.42,5.92s-.81,4.28-2.42,5.9-3.59,2.45-5.88,2.45-4.22-.82-5.85-2.45-2.42-3.58-2.42-5.9.81-4.31,2.42-5.92Zm5.85,11.15c1.38,0,2.56-.51,3.52-1.52s1.45-2.25,1.45-3.7-.48-2.71-1.45-3.73c-.97-1.02-2.14-1.52-3.52-1.52s-2.53.51-3.5,1.52c-.97,1.02-1.45,2.26-1.45,3.73s.48,2.66,1.45,3.67c.98,1.03,2.15,1.55,3.5,1.55Z"/><path class="cls-6" d="m1773.34,292.91h-3.12v-16.03h5.7c1.95,0,3.51.48,4.67,1.45,1.17.97,1.75,2.25,1.75,3.85s-.59,2.89-1.77,3.88c-1.17.97-2.73,1.45-4.7,1.45h-2.53v5.4Zm2.83-13.28h-2.83v5.12h2.83c.87,0,1.56-.24,2.09-.71.52-.48.79-1.1.79-1.86s-.26-1.38-.79-1.85c-.53-.47-1.22-.7-2.09-.7Z"/><path class="cls-6" d="m1798.97,281.76l-5.38,8.12-5.35-8.08v11.1h-3.12v-16.03h3.58l5.1,7.95,5.1-7.95h3.2v16.03h-3.12v-11.15Z"/><path class="cls-6" d="m1816.29,292.91h-10.38v-16.03h10.38v2.92h-7.25v3.55h6.25v2.95h-6.25v3.65h7.25v2.95Z"/><path class="cls-6" d="m1833.09,292.91h-3.38l-7.48-10.85v10.85h-3.12v-16.03h3.38l7.48,10.98v-10.98h3.12v16.03Z"/><path class="cls-6" d="m1847.94,276.89v2.92h-4.77v13.1h-3.12v-13.1h-4.75v-2.92h12.65Z"/><path class="cls-6" d="m1632.65,304.74l-2.08,2.38c-1.12-.97-2.39-1.45-3.82-1.45s-2.53.51-3.48,1.53c-.97,1.02-1.45,2.26-1.45,3.72s.49,2.67,1.48,3.7c.97,1.02,2.18,1.52,3.65,1.52s2.71-.48,3.62-1.45l2.08,2.3c-1.4,1.52-3.38,2.27-5.92,2.27-2.32,0-4.27-.82-5.85-2.45-1.58-1.63-2.38-3.6-2.38-5.9s.81-4.31,2.42-5.92c1.6-1.63,3.53-2.45,5.8-2.45,2.48,0,4.46.73,5.92,2.2Z"/><path class="cls-6" d="m1636.72,304.99c1.63-1.63,3.58-2.45,5.85-2.45s4.24.82,5.88,2.45c1.62,1.63,2.42,3.61,2.42,5.92s-.81,4.28-2.42,5.9c-1.63,1.63-3.59,2.45-5.88,2.45s-4.22-.82-5.85-2.45-2.42-3.58-2.42-5.9.81-4.31,2.42-5.92Zm5.85,11.15c1.38,0,2.56-.51,3.53-1.52.97-1.02,1.45-2.25,1.45-3.7s-.48-2.71-1.45-3.72c-.97-1.02-2.14-1.53-3.53-1.53s-2.53.51-3.5,1.53-1.45,2.26-1.45,3.72.48,2.66,1.45,3.67c.98,1.03,2.15,1.55,3.5,1.55Z"/><path class="cls-6" d="m1667.82,318.91h-3.38l-7.47-10.85v10.85h-3.12v-16.03h3.38l7.47,10.98v-10.98h3.12v16.03Z"/><path class="cls-6" d="m1682.72,305.24l-2.15,2.12c-.37-.55-.89-1-1.58-1.35-.68-.35-1.41-.52-2.17-.52s-1.31.15-1.74.44c-.43.29-.64.68-.64,1.16,0,.45.21.83.62,1.15.42.32.94.56,1.56.74s1.3.4,2.02.67c.73.28,1.4.58,2.03.9s1.15.81,1.56,1.45c.42.64.62,1.4.62,2.29,0,1.47-.56,2.66-1.67,3.58-1.13.93-2.62,1.4-4.45,1.4-2.9,0-4.98-.96-6.25-2.88l2.22-2.07c1,1.33,2.36,2,4.08,2,.87,0,1.54-.16,2.01-.49.47-.32.71-.78.71-1.36,0-.33-.1-.63-.31-.9-.21-.27-.52-.5-.94-.71-.42-.21-.82-.39-1.21-.54-.39-.15-.9-.33-1.51-.53s-1.11-.38-1.47-.53c-.88-.35-1.6-.87-2.15-1.56-.55-.69-.83-1.53-.83-2.51,0-1.35.55-2.47,1.65-3.35,1.07-.87,2.47-1.3,4.2-1.3,1.25,0,2.38.24,3.4.72,1.02.48,1.81,1.14,2.38,1.98Z"/><path class="cls-6" d="m1685.5,312.39v-9.5h3.12v9.45c0,1.13.32,2.05.95,2.75.63.7,1.47,1.05,2.5,1.05s1.84-.35,2.46-1.04.94-1.6.94-2.74v-9.48h3.12v9.5c0,2.07-.6,3.73-1.8,4.98-1.22,1.27-2.81,1.9-4.77,1.9s-3.56-.63-4.73-1.9c-1.2-1.25-1.8-2.91-1.8-4.98Z"/><path class="cls-6" d="m1713.22,318.91h-10.95v-16.03h3.12v13.08h7.83v2.95Z"/><path class="cls-6" d="m1726.6,302.89v2.93h-4.78v13.1h-3.12v-13.1h-4.75v-2.93h12.65Z"/><path class="cls-6" d="m1743.87,318.91h-3.48l-1.38-3.6h-7.02l-1.4,3.6h-3.28l6.45-16.03h3.65l6.45,16.03Zm-10.83-6.38h4.9l-2.45-6.35-2.45,6.35Z"/><path class="cls-6" d="m1760.12,318.91h-3.38l-7.47-10.85v10.85h-3.12v-16.03h3.38l7.47,10.98v-10.98h3.12v16.03Z"/><path class="cls-6" d="m1777.24,304.74l-2.08,2.38c-1.12-.97-2.39-1.45-3.82-1.45s-2.53.51-3.48,1.53c-.97,1.02-1.45,2.26-1.45,3.72s.49,2.67,1.48,3.7c.97,1.02,2.18,1.52,3.65,1.52s2.71-.48,3.62-1.45l2.08,2.3c-1.4,1.52-3.38,2.27-5.92,2.27-2.32,0-4.27-.82-5.85-2.45-1.58-1.63-2.38-3.6-2.38-5.9s.81-4.31,2.42-5.92c1.6-1.63,3.53-2.45,5.8-2.45,2.48,0,4.46.73,5.92,2.2Z"/><path class="cls-6" d="m1787.14,318.91h-3.12v-5.33l-5.9-10.7h3.47l4.05,7.4,4.1-7.4h3.3l-5.9,10.7v5.33Z"/></g><path class="cls-7" d="m1106.02,258.35c-.28,0-.5-.22-.5-.5v-127.9c0-.28.22-.5.5-.5s.5.22.5.5v127.9c0,.28-.22.5-.5.5Z"/><circle class="cls-7" cx="1106.02" cy="130.03" r="9"/><g><path class="cls-6" d="m1048.75,292.91h-3.12v-16.03h5.7c1.95,0,3.51.48,4.67,1.45s1.75,2.25,1.75,3.85-.59,2.89-1.77,3.88c-1.17.97-2.73,1.45-4.7,1.45h-2.53v5.4Zm2.83-13.28h-2.83v5.12h2.83c.87,0,1.56-.24,2.09-.71.52-.48.79-1.1.79-1.86s-.26-1.38-.79-1.85-1.22-.7-2.09-.7Z"/><path class="cls-6" d="m1070.9,292.91h-10.38v-16.03h10.38v2.92h-7.25v3.55h6.25v2.95h-6.25v3.65h7.25v2.95Z"/><path class="cls-6" d="m1076.9,292.91h-3.12v-16.03h5.7c1.9,0,3.42.46,4.55,1.38,1.15.93,1.73,2.16,1.73,3.67,0,1.08-.3,2.02-.89,2.81-.59.79-1.42,1.39-2.49,1.79l3.73,6.38h-3.62l-3.27-5.9h-2.3v5.9Zm2.83-13.28h-2.83v4.62h2.83c.82,0,1.48-.21,1.98-.64.5-.42.75-.99.75-1.69s-.25-1.24-.75-1.66-1.16-.64-1.98-.64Z"/><path class="cls-6" d="m1100.2,279.24l-2.15,2.12c-.37-.55-.89-1-1.58-1.35-.68-.35-1.41-.52-2.17-.52s-1.31.15-1.74.44c-.43.29-.64.68-.64,1.16,0,.45.21.83.62,1.15.42.32.94.56,1.56.74s1.3.4,2.02.67,1.4.58,2.02.9c.62.32,1.15.81,1.56,1.45.42.64.62,1.4.62,2.29,0,1.47-.56,2.66-1.67,3.58-1.13.93-2.62,1.4-4.45,1.4-2.9,0-4.98-.96-6.25-2.88l2.23-2.08c1,1.33,2.36,2,4.08,2,.87,0,1.54-.16,2.01-.49.48-.33.71-.78.71-1.36,0-.33-.1-.63-.31-.9-.21-.27-.52-.5-.94-.71-.42-.21-.82-.39-1.21-.54-.39-.15-.9-.32-1.51-.52-.62-.2-1.11-.38-1.48-.53-.88-.35-1.6-.87-2.15-1.56-.55-.69-.83-1.53-.83-2.51,0-1.35.55-2.47,1.65-3.35,1.07-.87,2.47-1.3,4.2-1.3,1.25,0,2.38.24,3.4.72s1.81,1.14,2.38,1.98Z"/><path class="cls-6" d="m1104.75,278.99c1.63-1.63,3.58-2.45,5.85-2.45s4.24.82,5.88,2.45c1.62,1.63,2.42,3.61,2.42,5.92s-.81,4.28-2.42,5.9-3.59,2.45-5.88,2.45-4.22-.82-5.85-2.45c-1.62-1.62-2.42-3.58-2.42-5.9s.81-4.31,2.42-5.92Zm5.85,11.15c1.38,0,2.56-.51,3.52-1.52.97-1.02,1.45-2.25,1.45-3.7s-.48-2.71-1.45-3.73c-.97-1.02-2.14-1.52-3.52-1.52s-2.53.51-3.5,1.52c-.97,1.02-1.45,2.26-1.45,3.73s.48,2.66,1.45,3.67c.98,1.03,2.15,1.55,3.5,1.55Z"/><path class="cls-6" d="m1135.85,292.91h-3.38l-7.48-10.85v10.85h-3.12v-16.03h3.38l7.48,10.98v-10.98h3.12v16.03Z"/><path class="cls-6" d="m1154.67,292.91h-3.48l-1.38-3.6h-7.02l-1.4,3.6h-3.27l6.45-16.03h3.65l6.45,16.03Zm-10.83-6.38h4.9l-2.45-6.35-2.45,6.35Z"/><path class="cls-6" d="m1167.95,292.91h-10.95v-16.03h3.12v13.08h7.83v2.95Z"/><path class="cls-6" d="m1057.77,304.74l-2.08,2.38c-1.12-.97-2.39-1.45-3.82-1.45s-2.52.51-3.48,1.53c-.97,1.02-1.45,2.26-1.45,3.72s.49,2.67,1.48,3.7c.97,1.02,2.18,1.52,3.65,1.52s2.71-.48,3.62-1.45l2.08,2.3c-1.4,1.52-3.38,2.27-5.92,2.27-2.32,0-4.27-.82-5.85-2.45-1.58-1.63-2.38-3.6-2.38-5.9s.81-4.31,2.42-5.92c1.6-1.63,3.53-2.45,5.8-2.45,2.48,0,4.46.73,5.92,2.2Z"/><path class="cls-6" d="m1061.85,304.99c1.63-1.63,3.58-2.45,5.85-2.45s4.24.82,5.88,2.45c1.62,1.63,2.42,3.61,2.42,5.92s-.81,4.28-2.42,5.9c-1.63,1.63-3.59,2.45-5.88,2.45s-4.22-.82-5.85-2.45c-1.62-1.62-2.42-3.58-2.42-5.9s.81-4.31,2.42-5.92Zm5.85,11.15c1.38,0,2.56-.51,3.52-1.52.97-1.02,1.45-2.25,1.45-3.7s-.48-2.71-1.45-3.72c-.97-1.02-2.14-1.53-3.52-1.53s-2.53.51-3.5,1.53c-.97,1.02-1.45,2.26-1.45,3.72s.48,2.66,1.45,3.67c.98,1.03,2.15,1.55,3.5,1.55Z"/><path class="cls-6" d="m1094.05,318.91h-3.48l-1.38-3.6h-7.02l-1.4,3.6h-3.27l6.45-16.03h3.65l6.45,16.03Zm-10.83-6.38h4.9l-2.45-6.35-2.45,6.35Z"/><path class="cls-6" d="m1109.7,304.74l-2.08,2.38c-1.12-.97-2.39-1.45-3.82-1.45s-2.52.51-3.48,1.53c-.97,1.02-1.45,2.26-1.45,3.72s.49,2.67,1.48,3.7c.97,1.02,2.18,1.52,3.65,1.52s2.71-.48,3.62-1.45l2.08,2.3c-1.4,1.52-3.38,2.27-5.92,2.27-2.32,0-4.27-.82-5.85-2.45-1.58-1.63-2.38-3.6-2.38-5.9s.81-4.31,2.42-5.92c1.6-1.63,3.53-2.45,5.8-2.45,2.48,0,4.46.73,5.92,2.2Z"/><path class="cls-6" d="m1126.07,318.91h-3.15v-6.72h-7.62v6.72h-3.12v-16.03h3.12v6.38h7.62v-6.38h3.15v16.03Z"/><path class="cls-6" d="m1133.02,318.91h-3.12v-16.03h3.12v16.03Z"/><path class="cls-6" d="m1150.77,318.91h-3.38l-7.48-10.85v10.85h-3.12v-16.03h3.38l7.48,10.98v-10.98h3.12v16.03Z"/><path class="cls-6" d="m1168.02,310.14v7.38c-1.53,1.17-3.55,1.75-6.05,1.75-2.32,0-4.27-.82-5.85-2.45-1.58-1.63-2.38-3.6-2.38-5.9s.81-4.31,2.42-5.92c1.6-1.63,3.53-2.45,5.8-2.45,2.48,0,4.46.73,5.92,2.2l-2.08,2.38c-1.12-.97-2.39-1.45-3.82-1.45s-2.52.51-3.48,1.53c-.97,1.02-1.45,2.26-1.45,3.72s.49,2.67,1.48,3.7c.97,1.02,2.18,1.52,3.65,1.52.98,0,1.88-.21,2.7-.62v-4.52l3.12-.85Zm-6.75,0h6.75l-1.08,2.8h-5.67v-2.8Z"/></g><g class="cls-5"><g><rect class="cls-4" x="510.08" y="121.9" width="239.8" height="152.25" rx="7.88" ry="7.88"/><g class="cls-9"><path class="cls-2" d="m701.32,116.8l-87.75,47.84c-2.45,1.33-2.45,3.5,0,4.83l87.75,47.84c2.45,1.33,6.41,1.33,8.86,0l87.75-47.84c2.45-1.33,2.45-3.5,0-4.83l-87.75-47.84c-2.45-1.33-6.41-1.33-8.86,0Z"/><path class="cls-2" d="m701.32,179.71l-87.75,47.84c-2.45,1.33-2.45,3.5,0,4.83l87.75,47.84c2.45,1.33,6.41,1.33,8.86,0l87.75-47.84c2.45-1.33,2.45-3.5,0-4.83l-87.75-47.84c-2.45-1.33-6.41-1.33-8.86,0Z"/><path class="cls-2" d="m701.32,148.26l-87.75,47.84c-2.45,1.33-2.45,3.5,0,4.83l87.75,47.84c2.45,1.33,6.41,1.33,8.86,0l87.75-47.84c2.45-1.33,2.45-3.5,0-4.83l-87.75-47.84c-2.45-1.33-6.41-1.33-8.86,0Z"/></g></g><path id="Light_Effect" class="cls-14" d="m749.88,264.33c0,5.4-4.39,9.82-9.75,9.82h-220.3c-5.36,0-9.75-4.42-9.75-9.82v-132.61c0-5.4,4.39-9.82,9.75-9.82h220.29c5.36,0,9.75,4.42,9.75,9.82v132.61Z"/></g><g><path class="cls-3" d="m565.43,186.52h-6.19l-1.5-4.11h-8.53l-1.5,4.11h-5.88l8.5-21.79h6.6l8.5,21.79Zm-14.42-9.08h4.93l-2.45-6.77-2.48,6.77Z"/><path class="cls-3" d="m575.74,186.52h-7.92v-21.79h7.92c3.56,0,6.51,1.03,8.84,3.09,2.33,2.06,3.5,4.68,3.5,7.85s-1.17,5.71-3.5,7.75c-2.33,2.06-5.28,3.09-8.84,3.09Zm-.1-16.52h-2.04v11.25h2.07c1.93,0,3.47-.52,4.64-1.55,1.17-1.03,1.75-2.4,1.75-4.1s-.59-3.03-1.77-4.06c-1.18-1.03-2.73-1.55-4.66-1.55Z"/><path class="cls-3" d="m589.61,164.72h6.19l5.1,15.71,5.07-15.71h5.88l-7.82,21.79h-6.6l-7.82-21.79Z"/><path class="cls-3" d="m616.74,167.55c2.22-2.22,4.91-3.33,8.06-3.33s5.83,1.11,8.09,3.33c2.22,2.27,3.33,4.96,3.33,8.09s-1.11,5.84-3.33,8.06c-2.27,2.22-4.96,3.33-8.09,3.33s-5.86-1.12-8.06-3.37c-2.24-2.22-3.37-4.91-3.37-8.06s1.12-5.84,3.37-8.06Zm2.65,8.06c0,1.61.53,2.98,1.6,4.11,1.06,1.13,2.33,1.7,3.81,1.7s2.78-.57,3.84-1.7c1.04-1.11,1.56-2.47,1.56-4.08s-.52-3-1.56-4.11c-1.07-1.13-2.35-1.7-3.84-1.7s-2.77.56-3.81,1.67c-1.07,1.13-1.6,2.5-1.6,4.11Z"/><path class="cls-3" d="m657.91,167.44l-3.74,4.28c-1.22-1.27-2.74-1.9-4.56-1.9-1.5,0-2.75.56-3.77,1.67-1.04,1.11-1.56,2.48-1.56,4.11s.53,2.98,1.6,4.11c1.06,1.13,2.4,1.7,4.01,1.7.82,0,1.62-.17,2.4-.51.78-.34,1.41-.8,1.89-1.39l3.74,4.15c-1.86,2.24-4.66,3.37-8.4,3.37-3.2,0-5.87-1.11-8.02-3.33-2.15-2.22-3.23-4.92-3.23-8.09s1.11-5.84,3.33-8.06c2.22-2.22,4.87-3.33,7.96-3.33,3.63,0,6.41,1.08,8.36,3.23Z"/><path class="cls-3" d="m682.36,186.52h-6.19l-1.5-4.11h-8.53l-1.5,4.11h-5.88l8.5-21.79h6.6l8.5,21.79Zm-14.42-9.08h4.93l-2.45-6.77-2.48,6.77Z"/><path class="cls-3" d="m700.58,164.72v5.27h-5.98v16.52h-5.61v-16.52h-5.95v-5.27h17.54Z"/><path class="cls-3" d="m717.45,186.52h-14.48v-21.79h14.48v5.27h-8.87v2.86h7.51v5.27h-7.51v3.13h8.87v5.27Z"/></g><g><g class="cls-12"><g><g><rect class="cls-18" x="1231.35" y="121.9" width="239.8" height="152.25" rx="7.88" ry="7.88"/><g class="cls-11"><path class="cls-2" d="m1422.58,116.8l-87.75,47.84c-2.45,1.33-2.45,3.5,0,4.83l87.75,47.84c2.45,1.33,6.41,1.33,8.86,0l87.75-47.84c2.45-1.33,2.45-3.5,0-4.83l-87.75-47.84c-2.45-1.33-6.41-1.33-8.86,0Z"/><path class="cls-2" d="m1422.58,179.71l-87.75,47.84c-2.45,1.33-2.45,3.5,0,4.83l87.75,47.84c2.45,1.33,6.41,1.33,8.86,0l87.75-47.84c2.45-1.33,2.45-3.5,0-4.83l-87.75-47.84c-2.45-1.33-6.41-1.33-8.86,0Z"/><path class="cls-2" d="m1422.58,148.26l-87.75,47.84c-2.45,1.33-2.45,3.5,0,4.83l87.75,47.84c2.45,1.33,6.41,1.33,8.86,0l87.75-47.84c2.45-1.33,2.45-3.5,0-4.83l-87.75-47.84c-2.45-1.33-6.41-1.33-8.86,0Z"/></g></g><path id="Light_Effect-2" class="cls-15" d="m1471.15,264.71c0,5.42-4.39,9.84-9.75,9.84h-220.3c-5.36,0-9.75-4.43-9.75-9.84v-132.97c0-5.41,4.39-9.84,9.75-9.84h220.29c5.36,0,9.75,4.43,9.75,9.84v132.97Z"/></g></g><g><path class="cls-3" d="m1297.04,186.52h-14.48v-21.79h14.48v5.27h-8.87v2.86h7.51v5.27h-7.51v3.13h8.87v5.27Z"/><path class="cls-3" d="m1319.71,186.52h-6.02l-7.99-12.41v12.41h-5.61v-21.79h6.02l7.99,12.61v-12.61h5.61v21.79Z"/><path class="cls-3" d="m1345.69,186.52h-6.19l-1.5-4.11h-8.53l-1.5,4.11h-5.88l8.5-21.79h6.6l8.5,21.79Zm-14.42-9.08h4.93l-2.45-6.77-2.48,6.77Z"/><path class="cls-3" d="m1357.42,186.52h-9.35v-21.79h8.91c2.22,0,4.06.58,5.51,1.73,1.45,1.16,2.18,2.66,2.18,4.52,0,2.02-1.07,3.5-3.2,4.45,1.13.34,2.03.93,2.69,1.77.66.84.99,1.87.99,3.09,0,1.77-.66,3.24-1.97,4.42-1.34,1.2-3.25,1.8-5.75,1.8Zm-.95-16.86h-2.79v3.64h2.79c.72,0,1.3-.17,1.72-.49.42-.33.63-.78.63-1.34s-.22-.98-.65-1.31c-.43-.33-1-.49-1.7-.49Zm.44,8.19h-3.23v3.74h3.23c.7,0,1.27-.17,1.7-.51.43-.34.65-.8.65-1.39s-.21-1.01-.63-1.34c-.42-.33-.99-.49-1.72-.49Z"/><path class="cls-3" d="m1383.36,186.52h-15.5v-21.79h5.61v16.52h9.89v5.27Z"/><path class="cls-3" d="m1400.23,186.52h-14.48v-21.79h14.48v5.27h-8.87v2.86h7.51v5.27h-7.51v3.13h8.87v5.27Z"/><path class="cls-3" d="m1408.9,186.52h-5.61v-21.79h7.92c2.79,0,5.02.66,6.7,1.97,1.68,1.34,2.52,3.08,2.52,5.24,0,1.41-.35,2.65-1.05,3.72-.7,1.08-1.7,1.92-2.99,2.53l4.59,8.33h-6.49l-3.74-7.28h-1.84v7.28Zm2.75-16.86h-2.75v4.66h2.75c.84,0,1.52-.21,2.04-.65s.78-1.01.78-1.73c0-.68-.26-1.23-.78-1.65-.52-.42-1.2-.63-2.04-.63Z"/></g></g><g><g><path class="cls-7" d="m1091.06,136.96c-.98-2.11-1.54-4.45-1.54-6.93,0-2.6.62-5.06,1.69-7.25h-93.2c1.07,2.19,1.69,4.64,1.69,7.25s-.56,4.82-1.54,6.93h92.89Z"/><path class="cls-7" d="m854.79,130.03c0-2.6.62-5.06,1.69-7.25h-38.13c-20.66,0-37.47,16.81-37.47,37.47v62.91c0,12.85-10.45,23.3-23.3,23.3h-103.09c.53,2.04.82,4.19.82,6.39,0,2.71-.43,5.33-1.23,7.78h103.49c20.66,0,37.47-16.81,37.47-37.47v-62.91c0-12.85,10.45-23.3,23.3-23.3h37.98c-.98-2.11-1.54-4.45-1.54-6.93Z"/><path class="cls-7" d="m1590.15,154.64c1.04,2.16,1.64,4.58,1.64,7.14s-.58,4.9-1.59,7.03h100.27c-1.01-2.14-1.59-4.51-1.59-7.03s.6-4.98,1.64-7.14h-100.38Z"/><path class="cls-7" d="m1871.84,168.81c-1.01-2.14-1.59-4.51-1.59-7.03s.6-4.98,1.64-7.14h-151.65c1.04,2.16,1.64,4.58,1.64,7.14s-.58,4.9-1.59,7.03h151.55Z"/><path class="cls-7" d="m886.1,122.78c1.07,2.19,1.69,4.64,1.69,7.25s-.56,4.82-1.54,6.93h82c-.98-2.11-1.54-4.45-1.54-6.93,0-2.6.62-5.06,1.69-7.25h-82.3Z"/><path class="cls-7" d="m2100.74,252.86c0-2.29.31-4.5.88-6.61h-105.17c-12.85,0-23.3-10.45-23.3-23.3v-30.84c0-20.66-16.81-37.47-37.47-37.47h-34.07c1.04,2.16,1.64,4.58,1.64,7.14s-.58,4.9-1.59,7.03h34.02c12.85,0,23.3,10.45,23.3,23.3v30.84c0,20.66,16.81,37.47,37.47,37.47h105.45c-.75-2.39-1.15-4.93-1.15-7.56Z"/><path class="cls-7" d="m1325.92,252.86c0-2.29.31-4.5.88-6.61h-93.83c-12.85,0-23.3-10.45-23.3-23.3v-62.69c0-20.66-16.81-37.47-37.47-37.47h-51.37c1.07,2.19,1.69,4.64,1.69,7.25s-.56,4.82-1.54,6.93h51.22c12.85,0,23.3,10.45,23.3,23.3v62.69c0,20.66,16.81,37.47,37.47,37.47h94.1c-.75-2.39-1.15-4.93-1.15-7.56Z"/><path class="cls-7" d="m2343.83,174.75h-39.59c-20.66,0-37.47,16.81-37.47,37.47v10.72c0,12.85-10.45,23.3-23.3,23.3h-92.94c.57,2.11.88,4.33.88,6.61,0,2.63-.4,5.17-1.15,7.56h93.22c20.66,0,37.47-16.81,37.47-37.47v-10.72c0-12.85,10.45-23.3,23.3-23.3h39.59c3.91,0,7.09-3.17,7.09-7.09s-3.17-7.09-7.09-7.09Z"/><path class="cls-7" d="m1558.79,161.78c0-2.56.6-4.98,1.64-7.14h-29.61c-20.66,0-37.47,16.81-37.47,37.47v23.78c0,13.38-10.97,30.36-23.3,30.36h-94.36c.57,2.11.88,4.33.88,6.61,0,2.63-.4,5.17-1.15,7.56h94.63c21.1,0,37.47-23.94,37.47-44.53v-23.78c0-12.85,10.45-23.3,23.3-23.3h29.56c-1.01-2.14-1.59-4.51-1.59-7.03Z"/></g><g class="cls-10"><g><g><rect class="cls-20" x="2006.17" y="121.9" width="239.8" height="152.25" rx="7.88" ry="7.88"/><g class="cls-13"><path class="cls-2" d="m2197.41,116.8l-87.75,47.84c-2.45,1.33-2.45,3.5,0,4.83l87.75,47.84c2.45,1.33,6.41,1.33,8.86,0l87.75-47.84c2.45-1.33,2.45-3.5,0-4.83l-87.75-47.84c-2.45-1.33-6.41-1.33-8.86,0Z"/><path class="cls-2" d="m2197.41,179.71l-87.75,47.84c-2.45,1.33-2.45,3.5,0,4.83l87.75,47.84c2.45,1.33,6.41,1.33,8.86,0l87.75-47.84c2.45-1.33,2.45-3.5,0-4.83l-87.75-47.84c-2.45-1.33-6.41-1.33-8.86,0Z"/><path class="cls-2" d="m2197.41,148.26l-87.75,47.84c-2.45,1.33-2.45,3.5,0,4.83l87.75,47.84c2.45,1.33,6.41,1.33,8.86,0l87.75-47.84c2.45-1.33,2.45-3.5,0-4.83l-87.75-47.84c-2.45-1.33-6.41-1.33-8.86,0Z"/></g></g><path id="Light_Effect-3" class="cls-16" d="m2245.97,264.33c0,5.4-4.39,9.82-9.75,9.82h-220.3c-5.36,0-9.75-4.42-9.75-9.82v-132.61c0-5.4,4.39-9.82,9.75-9.82h220.29c5.36,0,9.75,4.42,9.75,9.82v132.61Z"/></g></g><g><path class="cls-3" d="m2064.11,167.44l-3.74,4.28c-1.22-1.27-2.74-1.9-4.56-1.9-1.5,0-2.75.56-3.77,1.67-1.04,1.11-1.56,2.48-1.56,4.11s.53,2.98,1.6,4.11c1.06,1.13,2.4,1.7,4.01,1.7.82,0,1.62-.17,2.4-.51.78-.34,1.41-.8,1.89-1.39l3.74,4.15c-1.86,2.24-4.66,3.37-8.4,3.37-3.2,0-5.87-1.11-8.02-3.33-2.15-2.22-3.23-4.92-3.23-8.09s1.11-5.84,3.33-8.06c2.22-2.22,4.87-3.33,7.96-3.33,3.63,0,6.41,1.08,8.36,3.23Z"/><path class="cls-3" d="m2088.56,186.52h-6.19l-1.5-4.11h-8.53l-1.5,4.11h-5.88l8.5-21.79h6.6l8.5,21.79Zm-14.42-9.08h4.93l-2.45-6.77-2.48,6.77Z"/><path class="cls-3" d="m2106.78,164.72v5.27h-5.98v16.52h-5.61v-16.52h-5.95v-5.27h17.54Z"/><path class="cls-3" d="m2131.05,186.52h-6.19l-1.5-4.11h-8.53l-1.5,4.11h-5.88l8.5-21.79h6.6l8.5,21.79Zm-14.42-9.08h4.93l-2.45-6.77-2.48,6.77Z"/><path class="cls-3" d="m2148.94,186.52h-15.5v-21.79h5.61v16.52h9.89v5.27Z"/><path class="cls-3" d="m2163.15,186.52h-5.61v-7.14l-7.92-14.65h6.22l4.62,8.77,4.69-8.77h5.92l-7.92,14.65v7.14Z"/><path class="cls-3" d="m2189.64,168.19l-3.81,3.81c-1.2-1.68-2.79-2.52-4.76-2.52-1.38,0-2.07.44-2.07,1.33,0,.45.31.85.94,1.19.62.34,1.61.73,2.97,1.17,1.36.44,2.36.8,2.99,1.07,1.11.5,2.01,1.24,2.7,2.23.69.99,1.04,2.15,1.04,3.49,0,2.06-.82,3.75-2.45,5.07-1.66,1.34-3.74,2.01-6.26,2.01-4.17,0-7.12-1.36-8.84-4.08l3.98-3.74c1.22,1.7,2.88,2.55,4.96,2.55,1.72,0,2.58-.52,2.58-1.56,0-.38-.2-.72-.59-1.02s-.91-.55-1.53-.77c-.62-.21-1.31-.44-2.06-.66-.75-.23-1.5-.51-2.26-.87-.76-.35-1.45-.77-2.07-1.24-.62-.48-1.13-1.12-1.53-1.92s-.59-1.73-.59-2.77c0-1.95.78-3.56,2.35-4.83,1.59-1.27,3.58-1.9,5.98-1.9,1.81,0,3.45.35,4.9,1.05,1.45.7,2.6,1.68,3.43,2.92Z"/><path class="cls-3" d="m2208.37,164.72v5.27h-5.98v16.52h-5.61v-16.52h-5.95v-5.27h17.54Z"/></g></g><g><path class="cls-6" d="m2515.87,223.89c-.68,0-1.28-.49-1.4-1.19-.13-.77.39-1.5,1.17-1.63.7-.12,1.41-.24,2.11-.36,57.32-9.87,109.42-36.8,150.8-77.9-52.13-24.78-110.21-32.61-168.12-22.64-29.62,5.1-57.77,14.64-83.7,28.35,2.53,3.63,9.13,14.24,11.78,29.65.13.77-.38,1.5-1.16,1.64-.76.14-1.5-.38-1.64-1.16-3.12-18.14-12.12-29.61-12.21-29.73-.26-.33-.36-.76-.28-1.17.08-.41.35-.76.72-.96,26.6-14.27,55.53-24.16,86-29.41,59.16-10.19,118.51-1.98,171.63,23.74.41.2.7.59.78,1.04s-.07.91-.39,1.24c-42.02,42.32-95.18,70.02-153.74,80.11-.71.12-1.42.24-2.13.36-.08.01-.16.02-.23.02Z"/><path class="cls-6" d="m2427.56,224.59c-.16,0-.32-.03-.47-.08-.74-.26-1.12-1.07-.86-1.81.05-.13,4.72-13.7,1.55-32.08-.13-.77.38-1.5,1.16-1.64.77-.14,1.5.38,1.64,1.16,3.3,19.16-1.47,32.93-1.67,33.51-.21.58-.75.94-1.33.94Z"/></g><path class="cls-6" d="m2594.99,197.64c-.68,0-1.28-.49-1.39-1.18l-13.31-77.27c-.13-.77.38-1.5,1.16-1.64.77-.14,1.5.38,1.64,1.16l13.31,77.27c.13.77-.38,1.5-1.16,1.64-.08.01-.16.02-.24.02Z"/><path class="cls-6" d="m2426.19,141.47c-.57,0-1.11-.35-1.32-.91l-15.41-39.97c-.18-.47-.1-1.01.22-1.41.32-.39.83-.58,1.33-.5l67.28,11.14c.47.08.87.39,1.07.83l4.66,10.56c.32.72,0,1.55-.72,1.87-.72.32-1.55,0-1.87-.72l-4.35-9.86-64.07-10.61,14.52,37.66c.28.73-.08,1.55-.81,1.83-.17.06-.34.1-.51.1Z"/><path class="cls-6" d="m2417.87,192.16h-.04c-2.33-.06-4.28-1.65-4.65-3.77l-.95-5.52c-.12-.72.32-1.42,1.02-1.61l81.35-22.22c1.04-.38,2.12-.29,3.07.25,1.03.58,1.74,1.62,1.95,2.84l3.33,19.32c.38,2.23-1.08,4.15-3.49,4.57-.04,0-.09.01-.13.02l-81.35,6.12s-.07,0-.11,0Zm-2.62-8.5l.73,4.25c.15.88,1.04,1.37,1.87,1.41l81.19-6.11c.37-.08,1.28-.35,1.12-1.28l-3.33-19.32h0c-.07-.38-.27-.7-.55-.86-.22-.12-.46-.14-.72-.04-.04.02-.09.03-.14.04l-80.17,21.9Zm83.97.96h0,0Z"/><path class="cls-6" d="m2376.6,167.06c-.68,0-1.28-.49-1.39-1.18-.13-.77.38-1.5,1.16-1.64l27.6-4.75c.77-.14,1.5.38,1.64,1.16.13.77-.38,1.5-1.16,1.64l-27.6,4.75c-.08.01-.16.02-.24.02Z"/><path class="cls-6" d="m2387.06,227.78c-.68,0-1.28-.49-1.39-1.18-.13-.77.38-1.5,1.16-1.64l27.6-4.75c.77-.14,1.5.38,1.64,1.16.13.77-.38,1.5-1.16,1.64l-27.6,4.75c-.08.01-.16.02-.24.02Z"/><path class="cls-6" d="m2376.31,198.37c-.68,0-1.28-.49-1.39-1.18-.13-.77.38-1.5,1.16-1.64l16.56-2.85c.76-.14,1.5.38,1.64,1.16.13.77-.38,1.5-1.16,1.64l-16.56,2.85c-.08.01-.16.02-.24.02Z"/><path class="cls-6" d="m2471.91,314.01c-27.12,0-51.19-19.54-55.95-47.16-5.32-30.87,15.47-60.3,46.33-65.62,14.91-2.57,29.96.85,42.38,9.62,12.42,8.77,20.68,21.81,23.24,36.72,5.32,30.87-15.47,60.3-46.33,65.62-3.25.56-6.48.83-9.67.83Zm-53.15-47.64c5.05,29.32,33.02,49.07,62.35,44.02,29.32-5.05,49.07-33.02,44.02-62.35-2.44-14.16-10.28-26.55-22.08-34.88-11.8-8.33-26.1-11.58-40.26-9.14-29.32,5.05-49.07,33.02-44.02,62.35h0Z"/><path class="cls-7" d="m2736.4,218.51c-1.91,0-3.81-.77-5.21-2.28-2.66-2.88-2.48-7.36.4-10.01l22.76-21.01c1.98-2.1,1.97-5.41-.04-7.49l-22.67-20.44c-2.91-2.62-3.14-7.1-.52-10.01,2.62-2.91,7.1-3.13,10.01-.52l23.05,20.8c3.72,3.68,5.78,8.59,5.81,13.83s-1.99,10.17-5.67,13.89l-.23.22-22.91,21.14c-1.36,1.26-3.09,1.88-4.8,1.88Z"/><g><path class="cls-6" d="m2457.58,250.41c-.15,0-.3-.02-.45-.07-.83-.25-1.29-1.12-1.04-1.95,2.02-6.61,8.02-11.04,14.94-11.04s12.92,4.44,14.93,11.04c.25.83-.21,1.69-1.04,1.95-.83.25-1.69-.21-1.95-1.04-1.61-5.28-6.41-8.82-11.95-8.82s-10.33,3.55-11.95,8.83c-.2.67-.83,1.11-1.49,1.11h0Z"/><path class="cls-6" d="m2503.84,254.33c-.86,0-1.56-.7-1.56-1.56v-3.31c0-1.08-.87-1.95-1.95-1.95h-.72c-2.11,0-4.02-1.35-4.77-3.37-.23-.61-.5-1.23-.73-1.77-.9-1.91-.5-4.23,1.01-5.73l.49-.5c.77-.77.77-2.02.02-2.77l-4.97-4.97c-.73-.73-2.02-.73-2.76,0l-.53.52c-1.49,1.49-3.81,1.89-5.76.98-.54-.23-1.14-.5-1.74-.72-2.02-.74-3.37-2.66-3.37-4.77v-.72c0-1.08-.87-1.95-1.95-1.95h-7.03c-1.08,0-1.95.87-1.95,1.95v.72c0,2.11-1.35,4.02-3.37,4.77-.6.22-1.2.48-1.77.73-1.91.9-4.23.5-5.73-1.01l-.5-.49c-.77-.77-2.02-.77-2.77-.02l-4.97,4.97c-.37.37-.57.86-.57,1.38s.2,1.01.57,1.38l.52.53c1.49,1.49,1.89,3.81.98,5.76-.23.51-.5,1.13-.72,1.74-.74,2.02-2.66,3.37-4.77,3.37h-.72c-1.08,0-1.95.87-1.95,1.95v3.31c0,.86-.7,1.56-1.56,1.56s-1.56-.7-1.56-1.56v-3.31c0-2.8,2.28-5.08,5.08-5.08h.72c.82,0,1.55-.52,1.84-1.33.26-.7.55-1.37.81-1.95.37-.8.23-1.67-.36-2.26l-.52-.53c-.95-.95-1.48-2.22-1.48-3.58s.53-2.63,1.48-3.59l4.97-4.97c1.98-1.98,5.2-1.98,7.18,0l.5.49c.6.6,1.48.74,2.24.38.65-.29,1.3-.57,1.98-.83.8-.3,1.33-1.02,1.33-1.84v-.72c0-2.8,2.28-5.08,5.08-5.08h7.03c2.8,0,5.08,2.28,5.08,5.08v.72c0,.82.52,1.54,1.32,1.84.69.25,1.34.54,1.95.81.8.37,1.68.23,2.27-.36l.53-.52c.95-.95,2.22-1.48,3.58-1.48s2.63.53,3.59,1.48l4.97,4.97c1.98,1.98,1.98,5.2,0,7.18l-.49.5c-.6.6-.74,1.48-.38,2.24.27.61.57,1.29.83,1.98.3.8,1.02,1.33,1.84,1.33h.72c2.8,0,5.08,2.28,5.08,5.08v3.31c0,.86-.7,1.56-1.56,1.56h-.02Z"/><path class="cls-7" d="m2464.78,272.11c-.37,0-.73-.13-1.03-.39-.65-.57-.7-1.56-.13-2.2l6.24-7.05c.57-.65,1.56-.7,2.2-.13s.7,1.56.13,2.2l-6.24,7.05c-.31.35-.74.52-1.17.52Z"/><path class="cls-7" d="m2471.02,279.16c-.37,0-.73-.13-1.03-.39-.65-.57-.7-1.56-.13-2.2l6.24-7.05c.57-.65,1.56-.7,2.2-.13.65.57.7,1.56.13,2.2l-6.24,7.05c-.31.35-.74.52-1.17.52Z"/><path class="cls-7" d="m2453.44,289.69c-10.55,0-19.14-8.59-19.14-19.14s8.59-19.14,19.14-19.14c4.35,0,9.39,2.5,14.97,7.42.65.57.71,1.56.14,2.2s-1.55.71-2.2.14c-4.93-4.34-9.39-6.64-12.9-6.64-8.83,0-16.02,7.19-16.02,16.02s7.19,16.02,16.02,16.02c4.37,0,10.22-3.57,16.46-10.05.6-.62,1.59-.64,2.21-.04.62.6.64,1.59.04,2.21-4.83,5.02-12,11.01-18.71,11.01h0Z"/><path class="cls-7" d="m2488.6,289.69c-4.39,0-9.47-2.54-15.11-7.54-.65-.57-.7-1.56-.13-2.2.57-.65,1.56-.7,2.2-.13,4.98,4.41,9.48,6.75,13.03,6.75,8.83,0,16.02-7.19,16.02-16.02s-7.19-16.02-16.02-16.02c-4.37,0-10.22,3.57-16.46,10.05-.6.62-1.59.64-2.21.04s-.64-1.59-.04-2.21c4.83-5.02,12-11.01,18.71-11.01,10.55,0,19.14,8.59,19.14,19.14s-8.59,19.14-19.14,19.14h0Z"/><path class="cls-7" d="m2453.44,280.31c-5.39,0-9.76-4.38-9.76-9.76s4.38-9.76,9.76-9.76c2.48,0,6.12,2.76,8.74,5.08.65.57.71,1.56.13,2.2-.57.65-1.56.71-2.2.13-3.83-3.39-6-4.3-6.67-4.3-3.66,0-6.64,2.98-6.64,6.64s2.98,6.64,6.64,6.64c1.4,0,5.69-2.95,10.2-7.72.59-.62,1.58-.66,2.21-.06.62.59.66,1.59.06,2.21-1.37,1.45-8.43,8.69-12.47,8.69h0Z"/><path class="cls-7" d="m2488.6,280.31c-2.48,0-6.12-2.76-8.74-5.08-.65-.57-.71-1.56-.13-2.2.57-.65,1.56-.71,2.2-.13,3.83,3.39,6,4.3,6.68,4.3,3.66,0,6.64-2.98,6.64-6.64s-2.98-6.64-6.64-6.64c-1.4,0-5.69,2.95-10.2,7.72-.59.62-1.58.66-2.21.06-.62-.59-.66-1.59-.06-2.21,1.37-1.45,8.43-8.69,12.47-8.69,5.39,0,9.76,4.38,9.76,9.76s-4.38,9.76-9.76,9.76h0Z"/></g><g><path class="cls-19" d="m2553.25,138.44c-4.51-1.32-9.42-1.46-14.28-.16-14.21,3.78-22.66,18.36-18.88,32.56,1.21,4.54,3.52,8.49,6.56,11.64l26.6-44.04Z"/><g><path class="cls-17" d="m2549.26,145.05l3.99-6.61c8.64,2.53,15.79,9.38,18.28,18.72,3.04,11.44-1.85,23.12-11.28,29.21l-10.99-41.31Z"/><path class="cls-8" d="m2549.26,145.05l-22.61,37.43c6.49,6.71,16.33,9.81,26,7.24,2.77-.74,5.32-1.88,7.6-3.36l-10.99-41.31Z"/><line class="cls-1" x1="2549.26" y1="145.05" x2="2560.25" y2="186.36"/></g><line class="cls-1" x1="2526.65" y1="182.48" x2="2553.25" y2="138.44"/></g><path class="cls-3" d="m2544.77,152.48l1.46,5.5.02.02c-1.45-1.5-3.42-1.92-5.91-1.26-2.63.7-4.5,2.21-5.61,4.55-1.12,2.33-1.25,5.08-.42,8.23s2.16,5.17,4.08,6.47c1.92,1.29,4.08,1.62,6.5.98,2.63-.7,4.34-2.26,5.15-4.68l.08-.02.7,2.63,5.96-1.58-7.51-28.25-4.49,7.44Zm3.69,13.09c.42,1.58.38,2.95-.13,4.1-.51,1.16-1.36,1.9-2.57,2.22-1.27.34-2.38.15-3.34-.57-.96-.72-1.66-1.91-2.11-3.59-.48-1.79-.48-3.29-.01-4.52.47-1.22,1.36-2.01,2.68-2.36,1.17-.31,2.23-.15,3.17.47.95.63,1.59,1.56,1.92,2.8l.38,1.43Z"/></g></g></svg>