<svg xmlns="http://www.w3.org/2000/svg" xmlns:xlink="http://www.w3.org/1999/xlink" width="61" zoomAndPan="magnify" viewBox="0 0 45.75 30.000001" height="40" preserveAspectRatio="xMidYMid meet" version="1.2"><defs><clipPath id="3aa9353f4b"><path d="M 17.09375 2.679688 L 28.890625 2.679688 L 28.890625 8.101562 L 17.09375 8.101562 Z M 17.09375 2.679688 "/></clipPath><clipPath id="c390a11bfe"><path d="M 6.609375 11.066406 L 18.40625 11.066406 L 18.40625 16.488281 L 6.609375 16.488281 Z M 6.609375 11.066406 "/></clipPath><clipPath id="cfd092fee7"><path d="M 27.09375 11.066406 L 38.890625 11.066406 L 38.890625 16.488281 L 27.09375 16.488281 Z M 27.09375 11.066406 "/></clipPath><clipPath id="c112bd33c1"><path d="M 27.09375 20.929688 L 38.890625 20.929688 L 38.890625 26.355469 L 27.09375 26.355469 Z M 27.09375 20.929688 "/></clipPath><clipPath id="018e2c5109"><path d="M 6.609375 20.929688 L 18.40625 20.929688 L 18.40625 26.355469 L 6.609375 26.355469 Z M 6.609375 20.929688 "/></clipPath></defs><g id="8f8d29cd04"><path style="fill:none;stroke-width:1;stroke-linecap:butt;stroke-linejoin:miter;stroke:#585958;stroke-opacity:1;stroke-miterlimit:4;" d="M 0.000625093 0.502237 L 14.929006 0.5009 " transform="matrix(0.686067,0.236869,-0.236869,0.686067,22.806036,7.397471)"/><path style="fill:none;stroke-width:1;stroke-linecap:butt;stroke-linejoin:miter;stroke:#bab8b7;stroke-opacity:1;stroke-miterlimit:4;" d="M 0.00310915 0.498695 L 14.927983 0.497815 " transform="matrix(-0.686263,0.236299,-0.236299,-0.686263,22.936381,8.083689)"/><g clip-rule="nonzero" clip-path="url(#3aa9353f4b)"><path style=" stroke:none;fill-rule:nonzero;fill:#585958;fill-opacity:1;" d="M 28.890625 2.679688 L 28.890625 8.101562 L 17.089844 8.101562 L 17.089844 2.679688 Z M 28.890625 2.679688 "/></g><g clip-rule="nonzero" clip-path="url(#c390a11bfe)"><path style=" stroke:none;fill-rule:nonzero;fill:#bab8b7;fill-opacity:1;" d="M 18.40625 11.066406 L 18.40625 16.488281 L 6.605469 16.488281 L 6.605469 11.066406 Z M 18.40625 11.066406 "/></g><g clip-rule="nonzero" clip-path="url(#cfd092fee7)"><path style=" stroke:none;fill-rule:nonzero;fill:#585958;fill-opacity:1;" d="M 38.890625 11.066406 L 38.890625 16.488281 L 27.089844 16.488281 L 27.089844 11.066406 Z M 38.890625 11.066406 "/></g><g clip-rule="nonzero" clip-path="url(#c112bd33c1)"><path style=" stroke:none;fill-rule:nonzero;fill:#585958;fill-opacity:1;" d="M 38.890625 20.929688 L 38.890625 26.355469 L 27.089844 26.355469 L 27.089844 20.929688 Z M 38.890625 20.929688 "/></g><g clip-rule="nonzero" clip-path="url(#018e2c5109)"><path style=" stroke:none;fill-rule:nonzero;fill:#bab8b7;fill-opacity:1;" d="M 18.40625 20.929688 L 18.40625 26.355469 L 6.605469 26.355469 L 6.605469 20.929688 Z M 18.40625 20.929688 "/></g><path style="fill:none;stroke-width:1;stroke-linecap:butt;stroke-linejoin:miter;stroke:#585958;stroke-opacity:1;stroke-miterlimit:4;" d="M 0.000597854 0.502268 L 11.152827 0.502268 " transform="matrix(0,0.716645,-0.716645,0,33.418541,14.038634)"/><path style="fill:none;stroke-width:1;stroke-linecap:butt;stroke-linejoin:miter;stroke:#bab8b7;stroke-opacity:1;stroke-miterlimit:4;" d="M -0.00101284 0.501925 L 11.156667 0.501925 " transform="matrix(0,0.716645,-0.716645,0,12.805015,15.551507)"/></g></svg>