<svg xmlns="http://www.w3.org/2000/svg" xmlns:xlink="http://www.w3.org/1999/xlink" width="61" zoomAndPan="magnify" viewBox="0 0 46.079998 37.92" height="40" preserveAspectRatio="xMidYMid meet" version="1.2"><defs><clipPath id="0e87508100"><path d="M 19 1 L 44.855469 1 L 44.855469 6 L 19 6 Z M 19 1 "/></clipPath><clipPath id="f9dc02c9db"><path d="M 19 7 L 44.855469 7 L 44.855469 12 L 19 12 Z M 19 7 "/></clipPath><clipPath id="d5524e3e80"><path d="M 19 13 L 44.855469 13 L 44.855469 17 L 19 17 Z M 19 13 "/></clipPath><clipPath id="c0df8e8860"><path d="M 19 18 L 44.855469 18 L 44.855469 23 L 19 23 Z M 19 18 "/></clipPath></defs><g id="3360db9e3d"><path style="fill:none;stroke-width:5;stroke-linecap:round;stroke-linejoin:miter;stroke:#e4e2df;stroke-opacity:1;stroke-miterlimit:4;" d="M 2.497855 2.502355 L 22.653981 2.502355 " transform="matrix(0.731206,-0.000000000000000181,0.000000000000000181,0.731206,1.361053,18.806982)"/><path style="fill:none;stroke-width:5;stroke-linecap:round;stroke-linejoin:miter;stroke:#e4e2df;stroke-opacity:1;stroke-miterlimit:4;" d="M 2.497383 2.501194 L 16.57337 2.501194 " transform="matrix(0.732908,0.000000000000000137,-0.000000000000000137,0.732908,1.361053,13.162948)"/><path style="fill:none;stroke-width:5;stroke-linecap:round;stroke-linejoin:miter;stroke:#e4e2df;stroke-opacity:1;stroke-miterlimit:4;" d="M 2.49982 2.498248 L 7.036541 2.498248 " transform="matrix(0.735319,0,0,0.735319,1.361053,7.63174)"/><path style="fill:none;stroke-width:5;stroke-linecap:round;stroke-linejoin:miter;stroke:#e4e2df;stroke-opacity:1;stroke-miterlimit:4;" d="M 2.497855 2.501041 L 22.653981 2.501041 " transform="matrix(0.731206,-0.000000000000000272,0.000000000000000272,0.731206,1.361053,1.843099)"/><g clip-rule="nonzero" clip-path="url(#0e87508100)"><path style="fill:none;stroke-width:5;stroke-linecap:butt;stroke-linejoin:miter;stroke:#bab8b7;stroke-opacity:1;stroke-miterlimit:4;" d="M 0.00181483 2.501127 L 30.245556 2.501127 " transform="matrix(0.729619,0,0,0.729619,21.061176,1.843099)"/></g><g clip-rule="nonzero" clip-path="url(#f9dc02c9db)"><path style="fill:none;stroke-width:5;stroke-linecap:butt;stroke-linejoin:miter;stroke:#bab8b7;stroke-opacity:1;stroke-miterlimit:4;" d="M 0.00181483 2.501704 L 30.245556 2.501704 " transform="matrix(0.729619,0,0,0.729619,21.061176,7.63174)"/></g><g clip-rule="nonzero" clip-path="url(#d5524e3e80)"><path style="fill:none;stroke-width:5;stroke-linecap:butt;stroke-linejoin:miter;stroke:#bab8b7;stroke-opacity:1;stroke-miterlimit:4;" d="M 0.00181483 2.501762 L 30.245556 2.501762 " transform="matrix(0.729619,0,0,0.729619,21.061176,13.162948)"/></g><g clip-rule="nonzero" clip-path="url(#c0df8e8860)"><path style="fill:none;stroke-width:5;stroke-linecap:butt;stroke-linejoin:miter;stroke:#bab8b7;stroke-opacity:1;stroke-miterlimit:4;" d="M 0.00181483 2.502444 L 30.245556 2.502444 " transform="matrix(0.729619,-0.00000000000000009,0.00000000000000009,0.729619,21.061176,18.806982)"/></g><path style="fill:none;stroke-width:5;stroke-linecap:butt;stroke-linejoin:miter;stroke:#585958;stroke-opacity:1;stroke-miterlimit:4;" d="M 0.00180076 2.497676 L 16.714358 2.497676 " transform="matrix(0.735319,0,0,0.735319,21.061176,1.843099)"/><path style="fill:none;stroke-width:5;stroke-linecap:butt;stroke-linejoin:miter;stroke:#585958;stroke-opacity:1;stroke-miterlimit:4;" d="M 0.00180076 2.498248 L 11.003615 2.498248 " transform="matrix(0.735319,0,0,0.735319,21.061176,7.63174)"/><path style="fill:none;stroke-width:5;stroke-linecap:round;stroke-linejoin:miter;stroke:#e4e2df;stroke-opacity:1;stroke-miterlimit:4;" d="M 2.501971 2.502637 L 8.524059 2.502637 " transform="matrix(0.734276,0,0,0.734276,35.385519,24.556904)"/></g></svg>