<svg xmlns="http://www.w3.org/2000/svg" xmlns:xlink="http://www.w3.org/1999/xlink" width="61" zoomAndPan="magnify" viewBox="0 0 45.75 30.000001" height="40" preserveAspectRatio="xMidYMid meet" version="1.2"><defs><clipPath id="ece529355b"><path d="M 13.011719 24.679688 L 32.511719 24.679688 L 32.511719 28.25 L 13.011719 28.25 Z M 13.011719 24.679688 "/></clipPath><clipPath id="b173235cce"><path d="M 22.753906 24.679688 C 17.371094 24.679688 13.011719 25.480469 13.011719 26.464844 C 13.011719 27.453125 17.371094 28.25 22.753906 28.25 C 28.136719 28.25 32.496094 27.453125 32.496094 26.464844 C 32.496094 25.480469 28.136719 24.679688 22.753906 24.679688 Z M 22.753906 24.679688 "/></clipPath><clipPath id="ab9da3bb93"><path d="M 14.878906 2.074219 L 30.628906 2.074219 L 30.628906 17.828125 L 14.878906 17.828125 Z M 14.878906 2.074219 "/></clipPath><clipPath id="209205f0df"><path d="M 22.753906 2.074219 C 18.402344 2.074219 14.878906 5.601562 14.878906 9.953125 C 14.878906 14.300781 18.402344 17.828125 22.753906 17.828125 C 27.105469 17.828125 30.628906 14.300781 30.628906 9.953125 C 30.628906 5.601562 27.105469 2.074219 22.753906 2.074219 Z M 22.753906 2.074219 "/></clipPath><clipPath id="27062c42ca"><path d="M 13.570312 0.78125 L 31.714844 0.78125 L 31.714844 26 L 13.570312 26 Z M 13.570312 0.78125 "/></clipPath></defs><g id="a757559287"><g clip-rule="nonzero" clip-path="url(#ece529355b)"><g clip-rule="nonzero" clip-path="url(#b173235cce)"><path style=" stroke:none;fill-rule:nonzero;fill:#808080;fill-opacity:1;" d="M 13.011719 24.679688 L 32.496094 24.679688 L 32.496094 28.25 L 13.011719 28.25 Z M 13.011719 24.679688 "/></g></g><g clip-rule="nonzero" clip-path="url(#ab9da3bb93)"><g clip-rule="nonzero" clip-path="url(#209205f0df)"><path style=" stroke:none;fill-rule:nonzero;fill:#000000;fill-opacity:1;" d="M 14.878906 2.074219 L 30.628906 2.074219 L 30.628906 17.828125 L 14.878906 17.828125 Z M 14.878906 2.074219 "/></g></g><g clip-rule="nonzero" clip-path="url(#27062c42ca)"><path style=" stroke:none;fill-rule:nonzero;fill:#808080;fill-opacity:1;" d="M 22.628906 0.78125 C 17.644531 0.78125 13.605469 4.96875 13.605469 10.140625 C 13.605469 15.308594 16.882812 15.683594 22.628906 25.617188 C 28.359375 15.683594 31.65625 15.308594 31.65625 10.140625 C 31.65625 4.96875 27.613281 0.78125 22.628906 0.78125 Z M 22.628906 13.675781 C 22.167969 13.667969 21.726562 13.570312 21.304688 13.386719 C 20.882812 13.203125 20.511719 12.945312 20.191406 12.613281 C 19.871094 12.28125 19.628906 11.902344 19.460938 11.472656 C 19.292969 11.042969 19.210938 10.597656 19.21875 10.140625 C 19.210938 9.679688 19.292969 9.234375 19.460938 8.804688 C 19.628906 8.378906 19.875 8 20.195312 7.667969 C 20.511719 7.335938 20.882812 7.078125 21.304688 6.894531 C 21.726562 6.710938 22.167969 6.613281 22.628906 6.605469 C 23.089844 6.613281 23.53125 6.710938 23.953125 6.894531 C 24.375 7.078125 24.746094 7.335938 25.066406 7.667969 C 25.382812 8 25.628906 8.378906 25.796875 8.804688 C 25.964844 9.234375 26.046875 9.679688 26.039062 10.140625 C 26.046875 10.597656 25.96875 11.042969 25.796875 11.472656 C 25.628906 11.902344 25.386719 12.28125 25.066406 12.613281 C 24.746094 12.945312 24.375 13.203125 23.953125 13.386719 C 23.53125 13.570312 23.089844 13.667969 22.628906 13.675781 Z M 22.628906 13.675781 "/></g></g></svg>