<svg xmlns="http://www.w3.org/2000/svg" xmlns:xlink="http://www.w3.org/1999/xlink" width="61" zoomAndPan="magnify" viewBox="0 0 46.079998 37.92" height="40" preserveAspectRatio="xMidYMid meet" version="1.2"><defs><clipPath id="6f5d93bcf0"><path d="M 23.238281 1.632812 L 41.636719 1.632812 L 41.636719 14.382812 L 23.238281 14.382812 Z M 23.238281 1.632812 "/></clipPath><clipPath id="4ca4ad317b"><path d="M 25.417969 2.132812 L 39.460938 2.132812 L 39.460938 4.054688 L 25.417969 4.054688 Z M 25.417969 2.132812 "/></clipPath><clipPath id="b79d434d34"><path d="M 26.375 2.132812 L 38.5 2.132812 C 39.03125 2.132812 39.460938 2.5625 39.460938 3.09375 C 39.460938 3.625 39.03125 4.054688 38.5 4.054688 L 26.375 4.054688 C 25.847656 4.054688 25.417969 3.625 25.417969 3.09375 C 25.417969 2.5625 25.847656 2.132812 26.375 2.132812 Z M 26.375 2.132812 "/></clipPath><clipPath id="9519128272"><path d="M 23.230469 1.632812 L 24.605469 1.632812 L 24.605469 14.382812 L 23.230469 14.382812 Z M 23.230469 1.632812 "/></clipPath><clipPath id="36f453417d"><path d="M 25.492188 4.683594 L 37.96875 4.683594 L 37.96875 6.601562 L 25.492188 6.601562 Z M 25.492188 4.683594 "/></clipPath><clipPath id="b12901ce1e"><path d="M 26.453125 4.683594 L 37.007812 4.683594 C 37.539062 4.683594 37.96875 5.113281 37.96875 5.644531 C 37.96875 6.171875 37.539062 6.601562 37.007812 6.601562 L 26.453125 6.601562 C 25.921875 6.601562 25.492188 6.171875 25.492188 5.644531 C 25.492188 5.113281 25.921875 4.683594 26.453125 4.683594 Z M 26.453125 4.683594 "/></clipPath><clipPath id="1b5a44f81b"><path d="M 23.238281 15.695312 L 41.636719 15.695312 L 41.636719 28.445312 L 23.238281 28.445312 Z M 23.238281 15.695312 "/></clipPath><clipPath id="b233223698"><path d="M 25.417969 16.195312 L 39.460938 16.195312 L 39.460938 18.117188 L 25.417969 18.117188 Z M 25.417969 16.195312 "/></clipPath><clipPath id="7c2d0fb294"><path d="M 26.375 16.195312 L 38.5 16.195312 C 39.03125 16.195312 39.460938 16.625 39.460938 17.15625 C 39.460938 17.6875 39.03125 18.117188 38.5 18.117188 L 26.375 18.117188 C 25.847656 18.117188 25.417969 17.6875 25.417969 17.15625 C 25.417969 16.625 25.847656 16.195312 26.375 16.195312 Z M 26.375 16.195312 "/></clipPath><clipPath id="768f07a058"><path d="M 23.230469 15.695312 L 24.605469 15.695312 L 24.605469 28.445312 L 23.230469 28.445312 Z M 23.230469 15.695312 "/></clipPath><clipPath id="5ad7421aa0"><path d="M 25.492188 18.746094 L 37.96875 18.746094 L 37.96875 20.664062 L 25.492188 20.664062 Z M 25.492188 18.746094 "/></clipPath><clipPath id="e6afae0987"><path d="M 26.453125 18.746094 L 37.007812 18.746094 C 37.539062 18.746094 37.96875 19.175781 37.96875 19.707031 C 37.96875 20.234375 37.539062 20.664062 37.007812 20.664062 L 26.453125 20.664062 C 25.921875 20.664062 25.492188 20.234375 25.492188 19.707031 C 25.492188 19.175781 25.921875 18.746094 26.453125 18.746094 Z M 26.453125 18.746094 "/></clipPath><clipPath id="37673dcbc0"><path d="M 3.21875 1.632812 L 21.617188 1.632812 L 21.617188 14.382812 L 3.21875 14.382812 Z M 3.21875 1.632812 "/></clipPath><clipPath id="90d0383499"><path d="M 5.394531 2.132812 L 19.4375 2.132812 L 19.4375 4.054688 L 5.394531 4.054688 Z M 5.394531 2.132812 "/></clipPath><clipPath id="53c3298bc4"><path d="M 6.355469 2.132812 L 18.476562 2.132812 C 19.007812 2.132812 19.4375 2.5625 19.4375 3.09375 C 19.4375 3.625 19.007812 4.054688 18.476562 4.054688 L 6.355469 4.054688 C 5.824219 4.054688 5.394531 3.625 5.394531 3.09375 C 5.394531 2.5625 5.824219 2.132812 6.355469 2.132812 Z M 6.355469 2.132812 "/></clipPath><clipPath id="30d095693e"><path d="M 3.210938 1.632812 L 4.582031 1.632812 L 4.582031 14.382812 L 3.210938 14.382812 Z M 3.210938 1.632812 "/></clipPath><clipPath id="b9e978657b"><path d="M 5.472656 4.683594 L 17.949219 4.683594 L 17.949219 6.601562 L 5.472656 6.601562 Z M 5.472656 4.683594 "/></clipPath><clipPath id="854a41b816"><path d="M 6.429688 4.683594 L 16.984375 4.683594 C 17.515625 4.683594 17.945312 5.113281 17.945312 5.644531 C 17.945312 6.171875 17.515625 6.601562 16.984375 6.601562 L 6.429688 6.601562 C 5.902344 6.601562 5.472656 6.171875 5.472656 5.644531 C 5.472656 5.113281 5.902344 4.683594 6.429688 4.683594 Z M 6.429688 4.683594 "/></clipPath><clipPath id="cec53660ea"><path d="M 3.21875 15.695312 L 21.617188 15.695312 L 21.617188 28.445312 L 3.21875 28.445312 Z M 3.21875 15.695312 "/></clipPath><clipPath id="c9795bcafc"><path d="M 5.394531 16.195312 L 19.4375 16.195312 L 19.4375 18.117188 L 5.394531 18.117188 Z M 5.394531 16.195312 "/></clipPath><clipPath id="9e983ace88"><path d="M 6.355469 16.195312 L 18.476562 16.195312 C 19.007812 16.195312 19.4375 16.625 19.4375 17.15625 C 19.4375 17.6875 19.007812 18.117188 18.476562 18.117188 L 6.355469 18.117188 C 5.824219 18.117188 5.394531 17.6875 5.394531 17.15625 C 5.394531 16.625 5.824219 16.195312 6.355469 16.195312 Z M 6.355469 16.195312 "/></clipPath><clipPath id="c074997783"><path d="M 3.210938 15.695312 L 4.582031 15.695312 L 4.582031 28.445312 L 3.210938 28.445312 Z M 3.210938 15.695312 "/></clipPath><clipPath id="eda9af3ec6"><path d="M 5.472656 18.746094 L 17.949219 18.746094 L 17.949219 20.664062 L 5.472656 20.664062 Z M 5.472656 18.746094 "/></clipPath><clipPath id="865e4ba411"><path d="M 6.429688 18.746094 L 16.984375 18.746094 C 17.515625 18.746094 17.945312 19.175781 17.945312 19.707031 C 17.945312 20.234375 17.515625 20.664062 16.984375 20.664062 L 6.429688 20.664062 C 5.902344 20.664062 5.472656 20.234375 5.472656 19.707031 C 5.472656 19.175781 5.902344 18.746094 6.429688 18.746094 Z M 6.429688 18.746094 "/></clipPath></defs><g id="47a591c11d"><g clip-rule="nonzero" clip-path="url(#6f5d93bcf0)"><path style=" stroke:none;fill-rule:nonzero;fill:#bab8b7;fill-opacity:1;" d="M 23.238281 1.632812 L 41.617188 1.632812 L 41.617188 14.382812 L 23.238281 14.382812 Z M 23.238281 1.632812 "/></g><g clip-rule="nonzero" clip-path="url(#4ca4ad317b)"><g clip-rule="nonzero" clip-path="url(#b79d434d34)"><path style=" stroke:none;fill-rule:nonzero;fill:#000000;fill-opacity:1;" d="M 25.417969 2.132812 L 39.460938 2.132812 L 39.460938 4.054688 L 25.417969 4.054688 Z M 25.417969 2.132812 "/></g></g><g clip-rule="nonzero" clip-path="url(#9519128272)"><path style=" stroke:none;fill-rule:nonzero;fill:#96e17b;fill-opacity:1;" d="M 24.605469 1.632812 L 24.605469 14.382812 L 23.230469 14.382812 L 23.230469 1.632812 Z M 24.605469 1.632812 "/></g><g clip-rule="nonzero" clip-path="url(#36f453417d)"><g clip-rule="nonzero" clip-path="url(#b12901ce1e)"><path style=" stroke:none;fill-rule:nonzero;fill:#585958;fill-opacity:1;" d="M 25.492188 4.683594 L 37.96875 4.683594 L 37.96875 6.601562 L 25.492188 6.601562 Z M 25.492188 4.683594 "/></g></g><g clip-rule="nonzero" clip-path="url(#1b5a44f81b)"><path style=" stroke:none;fill-rule:nonzero;fill:#bab8b7;fill-opacity:1;" d="M 23.238281 15.695312 L 41.617188 15.695312 L 41.617188 28.445312 L 23.238281 28.445312 Z M 23.238281 15.695312 "/></g><g clip-rule="nonzero" clip-path="url(#b233223698)"><g clip-rule="nonzero" clip-path="url(#7c2d0fb294)"><path style=" stroke:none;fill-rule:nonzero;fill:#000000;fill-opacity:1;" d="M 25.417969 16.195312 L 39.460938 16.195312 L 39.460938 18.117188 L 25.417969 18.117188 Z M 25.417969 16.195312 "/></g></g><g clip-rule="nonzero" clip-path="url(#768f07a058)"><path style=" stroke:none;fill-rule:nonzero;fill:#51b6ff;fill-opacity:1;" d="M 24.605469 15.695312 L 24.605469 28.445312 L 23.230469 28.445312 L 23.230469 15.695312 Z M 24.605469 15.695312 "/></g><g clip-rule="nonzero" clip-path="url(#5ad7421aa0)"><g clip-rule="nonzero" clip-path="url(#e6afae0987)"><path style=" stroke:none;fill-rule:nonzero;fill:#585958;fill-opacity:1;" d="M 25.492188 18.746094 L 37.96875 18.746094 L 37.96875 20.664062 L 25.492188 20.664062 Z M 25.492188 18.746094 "/></g></g><g clip-rule="nonzero" clip-path="url(#37673dcbc0)"><path style=" stroke:none;fill-rule:nonzero;fill:#bab8b7;fill-opacity:1;" d="M 3.21875 1.632812 L 21.597656 1.632812 L 21.597656 14.382812 L 3.21875 14.382812 Z M 3.21875 1.632812 "/></g><g clip-rule="nonzero" clip-path="url(#90d0383499)"><g clip-rule="nonzero" clip-path="url(#53c3298bc4)"><path style=" stroke:none;fill-rule:nonzero;fill:#000000;fill-opacity:1;" d="M 5.394531 2.132812 L 19.4375 2.132812 L 19.4375 4.054688 L 5.394531 4.054688 Z M 5.394531 2.132812 "/></g></g><g clip-rule="nonzero" clip-path="url(#30d095693e)"><path style=" stroke:none;fill-rule:nonzero;fill:#8b73ff;fill-opacity:1;" d="M 4.582031 1.632812 L 4.582031 14.382812 L 3.210938 14.382812 L 3.210938 1.632812 Z M 4.582031 1.632812 "/></g><g clip-rule="nonzero" clip-path="url(#b9e978657b)"><g clip-rule="nonzero" clip-path="url(#854a41b816)"><path style=" stroke:none;fill-rule:nonzero;fill:#585958;fill-opacity:1;" d="M 5.472656 4.683594 L 17.949219 4.683594 L 17.949219 6.601562 L 5.472656 6.601562 Z M 5.472656 4.683594 "/></g></g><g clip-rule="nonzero" clip-path="url(#cec53660ea)"><path style=" stroke:none;fill-rule:nonzero;fill:#bab8b7;fill-opacity:1;" d="M 3.21875 15.695312 L 21.597656 15.695312 L 21.597656 28.445312 L 3.21875 28.445312 Z M 3.21875 15.695312 "/></g><g clip-rule="nonzero" clip-path="url(#c9795bcafc)"><g clip-rule="nonzero" clip-path="url(#9e983ace88)"><path style=" stroke:none;fill-rule:nonzero;fill:#000000;fill-opacity:1;" d="M 5.394531 16.195312 L 19.4375 16.195312 L 19.4375 18.117188 L 5.394531 18.117188 Z M 5.394531 16.195312 "/></g></g><g clip-rule="nonzero" clip-path="url(#c074997783)"><path style=" stroke:none;fill-rule:nonzero;fill:#ff9861;fill-opacity:1;" d="M 4.582031 15.695312 L 4.582031 28.445312 L 3.210938 28.445312 L 3.210938 15.695312 Z M 4.582031 15.695312 "/></g><g clip-rule="nonzero" clip-path="url(#eda9af3ec6)"><g clip-rule="nonzero" clip-path="url(#865e4ba411)"><path style=" stroke:none;fill-rule:nonzero;fill:#585958;fill-opacity:1;" d="M 5.472656 18.746094 L 17.949219 18.746094 L 17.949219 20.664062 L 5.472656 20.664062 Z M 5.472656 18.746094 "/></g></g><path style=" stroke:none;fill-rule:nonzero;fill:#8b73ff;fill-opacity:1;" d="M 36.910156 7.65625 C 37.519531 7.65625 38.078125 7.828125 38.582031 8.164062 C 39.089844 8.503906 39.460938 8.953125 39.691406 9.515625 C 39.925781 10.078125 39.980469 10.65625 39.863281 11.253906 C 39.746094 11.851562 39.46875 12.363281 39.039062 12.792969 L 36.910156 10.667969 Z M 36.910156 7.65625 "/><path style=" stroke:none;fill-rule:nonzero;fill:#96e17b;fill-opacity:1;" d="M 39.039062 12.792969 C 38.609375 13.226562 38.097656 13.5 37.5 13.617188 C 36.902344 13.738281 36.324219 13.679688 35.761719 13.445312 C 35.199219 13.214844 34.746094 12.84375 34.410156 12.339844 C 34.070312 11.832031 33.902344 11.273438 33.902344 10.667969 L 36.910156 10.667969 Z M 39.039062 12.792969 "/><path style=" stroke:none;fill-rule:nonzero;fill:#ff9861;fill-opacity:1;" d="M 33.902344 10.667969 C 33.902344 10.269531 33.980469 9.882812 34.132812 9.515625 C 34.285156 9.148438 34.5 8.820312 34.785156 8.539062 C 35.066406 8.257812 35.390625 8.039062 35.761719 7.886719 C 36.128906 7.734375 36.511719 7.65625 36.910156 7.65625 L 36.910156 10.667969 Z M 33.902344 10.667969 "/><path style=" stroke:none;fill-rule:nonzero;fill:#8b73ff;fill-opacity:1;" d="M 16.890625 7.65625 C 17.5 7.65625 18.054688 7.828125 18.5625 8.164062 C 19.066406 8.503906 19.4375 8.953125 19.671875 9.515625 C 19.902344 10.078125 19.960938 10.65625 19.839844 11.253906 C 19.722656 11.851562 19.449219 12.363281 19.019531 12.792969 L 16.890625 10.667969 Z M 16.890625 7.65625 "/><path style=" stroke:none;fill-rule:nonzero;fill:#96e17b;fill-opacity:1;" d="M 19.019531 12.792969 C 18.585938 13.226562 18.074219 13.5 17.476562 13.617188 C 16.878906 13.738281 16.300781 13.679688 15.738281 13.445312 C 15.175781 13.214844 14.726562 12.84375 14.386719 12.339844 C 14.050781 11.832031 13.882812 11.273438 13.882812 10.667969 L 16.890625 10.667969 Z M 19.019531 12.792969 "/><path style=" stroke:none;fill-rule:nonzero;fill:#ff9861;fill-opacity:1;" d="M 13.882812 10.667969 C 13.882812 10.269531 13.957031 9.882812 14.109375 9.515625 C 14.261719 9.148438 14.480469 8.820312 14.761719 8.539062 C 15.042969 8.257812 15.371094 8.039062 15.738281 7.886719 C 16.105469 7.734375 16.492188 7.65625 16.890625 7.65625 L 16.890625 10.667969 Z M 13.882812 10.667969 "/><path style=" stroke:none;fill-rule:nonzero;fill:#8b73ff;fill-opacity:1;" d="M 36.910156 21.71875 C 37.519531 21.71875 38.078125 21.890625 38.582031 22.226562 C 39.089844 22.566406 39.460938 23.015625 39.691406 23.578125 C 39.925781 24.140625 39.980469 24.71875 39.863281 25.316406 C 39.746094 25.914062 39.46875 26.425781 39.039062 26.855469 L 36.910156 24.730469 Z M 36.910156 21.71875 "/><path style=" stroke:none;fill-rule:nonzero;fill:#96e17b;fill-opacity:1;" d="M 39.039062 26.855469 C 38.609375 27.285156 38.097656 27.5625 37.5 27.679688 C 36.902344 27.800781 36.324219 27.742188 35.761719 27.507812 C 35.199219 27.277344 34.746094 26.90625 34.410156 26.402344 C 34.070312 25.894531 33.902344 25.335938 33.902344 24.730469 L 36.910156 24.730469 Z M 39.039062 26.855469 "/><path style=" stroke:none;fill-rule:nonzero;fill:#ff9861;fill-opacity:1;" d="M 33.902344 24.730469 C 33.902344 24.328125 33.980469 23.945312 34.132812 23.578125 C 34.285156 23.207031 34.5 22.882812 34.785156 22.601562 C 35.066406 22.320312 35.390625 22.101562 35.761719 21.949219 C 36.128906 21.796875 36.511719 21.71875 36.910156 21.71875 L 36.910156 24.730469 Z M 33.902344 24.730469 "/><path style=" stroke:none;fill-rule:nonzero;fill:#8b73ff;fill-opacity:1;" d="M 16.890625 21.71875 C 17.5 21.71875 18.054688 21.890625 18.5625 22.226562 C 19.066406 22.566406 19.4375 23.015625 19.671875 23.578125 C 19.902344 24.140625 19.960938 24.71875 19.839844 25.316406 C 19.722656 25.914062 19.449219 26.425781 19.019531 26.855469 L 16.890625 24.730469 Z M 16.890625 21.71875 "/><path style=" stroke:none;fill-rule:nonzero;fill:#96e17b;fill-opacity:1;" d="M 19.019531 26.855469 C 18.585938 27.285156 18.074219 27.5625 17.476562 27.679688 C 16.878906 27.800781 16.300781 27.742188 15.738281 27.507812 C 15.175781 27.277344 14.726562 26.90625 14.386719 26.402344 C 14.050781 25.894531 13.882812 25.335938 13.882812 24.730469 L 16.890625 24.730469 Z M 19.019531 26.855469 "/><path style=" stroke:none;fill-rule:nonzero;fill:#ff9861;fill-opacity:1;" d="M 13.882812 24.730469 C 13.882812 24.328125 13.957031 23.945312 14.109375 23.578125 C 14.261719 23.207031 14.480469 22.882812 14.761719 22.601562 C 15.042969 22.320312 15.371094 22.101562 15.738281 21.949219 C 16.105469 21.796875 16.492188 21.71875 16.890625 21.71875 L 16.890625 24.730469 Z M 13.882812 24.730469 "/></g></svg>