<svg xmlns="http://www.w3.org/2000/svg" xmlns:xlink="http://www.w3.org/1999/xlink" width="61" zoomAndPan="magnify" viewBox="0 0 45.75 30.000001" height="40" preserveAspectRatio="xMidYMid meet" version="1.2"><defs><clipPath id="25f9c15c4e"><path d="M 7.773438 14.902344 L 37.734375 14.902344 L 37.734375 19.550781 L 7.773438 19.550781 Z M 7.773438 14.902344 "/></clipPath><clipPath id="854ff06955"><path d="M 7.773438 22.96875 L 37.734375 22.96875 L 37.734375 27.621094 L 7.773438 27.621094 Z M 7.773438 22.96875 "/></clipPath></defs><g id="8f9308de33"><g clip-rule="nonzero" clip-path="url(#25f9c15c4e)"><path style=" stroke:none;fill-rule:nonzero;fill:#bab8b7;fill-opacity:1;" d="M 7.773438 14.902344 L 37.730469 14.902344 L 37.730469 19.550781 L 7.773438 19.550781 Z M 7.773438 14.902344 "/></g><g style="fill:#585958;fill-opacity:1;"><g transform="translate(12.431109, 11.541005)"><path style="stroke:none" d="M 2.3125 0 L 1.140625 0 L 1.140625 -8.828125 L 2.3125 -8.828125 Z M 2.3125 0 "/></g></g><g style="fill:#585958;fill-opacity:1;"><g transform="translate(16.176767, 11.541005)"><path style="stroke:none" d="M 8.25 0 L 6.921875 0 L 5.875 -2.6875 L 2.1875 -2.6875 L 1.234375 0 L -0.015625 0 L 3.375 -8.828125 L 4.640625 -8.828125 Z M 3.5 -6.21875 L 2.546875 -3.625 L 5.515625 -3.625 L 4.4375 -6.53125 C 4.300781 -6.875 4.148438 -7.332031 3.984375 -7.90625 C 3.984375 -7.863281 3.929688 -7.65625 3.828125 -7.28125 C 3.734375 -6.90625 3.625 -6.550781 3.5 -6.21875 Z M 3.5 -6.21875 "/></g></g><g style="fill:#585958;fill-opacity:1;"><g transform="translate(24.715332, 11.541005)"><path style="stroke:none" d="M 4 -8.96875 C 5 -8.96875 5.789062 -8.734375 6.375 -8.265625 C 6.957031 -7.796875 7.269531 -7.15625 7.3125 -6.34375 L 6.1875 -6.265625 C 6.125 -6.828125 5.914062 -7.242188 5.5625 -7.515625 C 5.21875 -7.785156 4.710938 -7.921875 4.046875 -7.921875 C 3.398438 -7.921875 2.898438 -7.800781 2.546875 -7.5625 C 2.191406 -7.332031 2.015625 -7.019531 2.015625 -6.625 C 2.015625 -6.351562 2.09375 -6.125 2.25 -5.9375 C 2.40625 -5.757812 2.628906 -5.628906 2.921875 -5.546875 C 2.984375 -5.523438 3.222656 -5.453125 3.640625 -5.328125 C 4.066406 -5.203125 4.601562 -5.070312 5.25 -4.9375 C 6.019531 -4.757812 6.597656 -4.445312 6.984375 -4 C 7.367188 -3.5625 7.5625 -3.054688 7.5625 -2.484375 C 7.5625 -2.015625 7.429688 -1.578125 7.171875 -1.171875 C 6.921875 -0.765625 6.546875 -0.441406 6.046875 -0.203125 C 5.554688 0.0234375 4.972656 0.140625 4.296875 0.140625 C 3.523438 0.140625 2.859375 0.0195312 2.296875 -0.21875 C 1.742188 -0.46875 1.316406 -0.816406 1.015625 -1.265625 C 0.722656 -1.710938 0.570312 -2.234375 0.5625 -2.828125 L 1.671875 -2.9375 C 1.710938 -2.238281 1.984375 -1.722656 2.484375 -1.390625 C 2.992188 -1.066406 3.585938 -0.90625 4.265625 -0.90625 C 4.941406 -0.90625 5.472656 -1.039062 5.859375 -1.3125 C 6.253906 -1.59375 6.453125 -1.972656 6.453125 -2.453125 C 6.453125 -3.097656 5.929688 -3.550781 4.890625 -3.8125 L 4.203125 -3.984375 C 3.773438 -4.078125 3.28125 -4.207031 2.71875 -4.375 C 2.15625 -4.539062 1.710938 -4.816406 1.390625 -5.203125 C 1.066406 -5.597656 0.90625 -6.046875 0.90625 -6.546875 C 0.90625 -7.003906 1.03125 -7.414062 1.28125 -7.78125 C 1.53125 -8.15625 1.882812 -8.445312 2.34375 -8.65625 C 2.8125 -8.863281 3.363281 -8.96875 4 -8.96875 Z M 4 -8.96875 "/></g></g><g clip-rule="nonzero" clip-path="url(#854ff06955)"><path style=" stroke:none;fill-rule:nonzero;fill:#bab8b7;fill-opacity:1;" d="M 7.773438 22.96875 L 37.730469 22.96875 L 37.730469 27.621094 L 7.773438 27.621094 Z M 7.773438 22.96875 "/></g></g></svg>