<svg xmlns="http://www.w3.org/2000/svg" xmlns:xlink="http://www.w3.org/1999/xlink" width="61" zoomAndPan="magnify" viewBox="0 0 46.079998 37.92" height="40" preserveAspectRatio="xMidYMid meet" version="1.2"><defs><clipPath id="6b68e25595"><path d="M 6.066406 20.972656 L 41.027344 20.972656 L 41.027344 29.074219 L 6.066406 29.074219 Z M 6.066406 20.972656 "/></clipPath><clipPath id="7751c0fe8e"><path d="M 4.617188 13.648438 L 20.574219 13.648438 L 20.574219 22.472656 L 4.617188 22.472656 Z M 4.617188 13.648438 "/></clipPath><clipPath id="a800752078"><path d="M 12.59375 13.648438 L 20.570312 22.472656 L 4.617188 22.472656 Z M 12.59375 13.648438 "/></clipPath><clipPath id="b2882471e9"><path d="M 4.617188 22.371094 L 18.027344 22.371094 L 18.027344 29.074219 L 4.617188 29.074219 Z M 4.617188 22.371094 "/></clipPath><clipPath id="882e6bca58"><path d="M 18.839844 6.648438 L 41.050781 6.648438 L 41.050781 21.152344 L 18.839844 21.152344 Z M 18.839844 6.648438 "/></clipPath><clipPath id="828d6285b6"><path d="M 29.933594 6.648438 L 41.027344 21.152344 L 18.839844 21.152344 Z M 29.933594 6.648438 "/></clipPath><clipPath id="2eb801ddfd"><path d="M 27 6 L 41 6 L 41 24 L 27 24 Z M 27 6 "/></clipPath><clipPath id="bc17047ab4"><path d="M 23.378906 9.480469 L 36.542969 3.796875 L 43.957031 20.976562 L 30.792969 26.660156 Z M 23.378906 9.480469 "/></clipPath><clipPath id="c77ba7f02a"><path d="M 29.960938 6.640625 L 40.25 12.386719 L 37.375 23.816406 L 27.085938 18.070312 Z M 29.960938 6.640625 "/></clipPath><clipPath id="afa3340a5b"><path d="M 37.574219 13.648438 L 41.027344 13.648438 L 41.027344 27.058594 L 37.574219 27.058594 Z M 37.574219 13.648438 "/></clipPath><clipPath id="df60347ed3"><path d="M 39.8125 12.714844 L 41.027344 12.714844 L 41.027344 13.902344 L 39.8125 13.902344 Z M 39.8125 12.714844 "/></clipPath><clipPath id="7949bb4d7e"><path d="M 28.089844 9.253906 L 41.03125 9.253906 L 41.03125 12.714844 L 28.089844 12.714844 Z M 28.089844 9.253906 "/></clipPath><clipPath id="9956d806cc"><path d="M 34.558594 9.253906 L 41.027344 12.714844 L 28.089844 12.714844 Z M 34.558594 9.253906 "/></clipPath><clipPath id="e1a8c02373"><path d="M 4.023438 1.148438 L 14.558594 1.148438 L 14.558594 11.6875 L 4.023438 11.6875 Z M 4.023438 1.148438 "/></clipPath><clipPath id="abf6616793"><path d="M 9.289062 1.148438 C 6.378906 1.148438 4.023438 3.507812 4.023438 6.417969 C 4.023438 9.328125 6.378906 11.6875 9.289062 11.6875 C 12.199219 11.6875 14.558594 9.328125 14.558594 6.417969 C 14.558594 3.507812 12.199219 1.148438 9.289062 1.148438 Z M 9.289062 1.148438 "/></clipPath><clipPath id="e2b2db379b"><path d="M 4.023438 1.148438 L 14.316406 1.148438 L 14.316406 11.441406 L 4.023438 11.441406 Z M 4.023438 1.148438 "/></clipPath><clipPath id="3eba1ccc18"><path d="M 9.167969 1.148438 C 6.328125 1.148438 4.023438 3.453125 4.023438 6.292969 C 4.023438 9.136719 6.328125 11.441406 9.167969 11.441406 C 12.011719 11.441406 14.316406 9.136719 14.316406 6.292969 C 14.316406 3.453125 12.011719 1.148438 9.167969 1.148438 Z M 9.167969 1.148438 "/></clipPath></defs><g id="96a5a88d60"><g clip-rule="nonzero" clip-path="url(#6b68e25595)"><path style=" stroke:none;fill-rule:nonzero;fill:#e4e2df;fill-opacity:1;" d="M 6.066406 20.972656 L 41.03125 20.972656 L 41.03125 29.074219 L 6.066406 29.074219 Z M 6.066406 20.972656 "/></g><g clip-rule="nonzero" clip-path="url(#7751c0fe8e)"><g clip-rule="nonzero" clip-path="url(#a800752078)"><path style=" stroke:none;fill-rule:nonzero;fill:#e4e2df;fill-opacity:1;" d="M 4.617188 13.648438 L 20.574219 13.648438 L 20.574219 22.472656 L 4.617188 22.472656 Z M 4.617188 13.648438 "/></g></g><g clip-rule="nonzero" clip-path="url(#b2882471e9)"><path style=" stroke:none;fill-rule:nonzero;fill:#e4e2df;fill-opacity:1;" d="M 4.617188 22.371094 L 18.027344 22.371094 L 18.027344 29.074219 L 4.617188 29.074219 Z M 4.617188 22.371094 "/></g><g clip-rule="nonzero" clip-path="url(#882e6bca58)"><g clip-rule="nonzero" clip-path="url(#828d6285b6)"><path style=" stroke:none;fill-rule:nonzero;fill:#e4e2df;fill-opacity:1;" d="M 18.839844 6.648438 L 41.050781 6.648438 L 41.050781 21.152344 L 18.839844 21.152344 Z M 18.839844 6.648438 "/></g></g><g clip-rule="nonzero" clip-path="url(#2eb801ddfd)"><g clip-rule="nonzero" clip-path="url(#bc17047ab4)"><g clip-rule="nonzero" clip-path="url(#c77ba7f02a)"><path style=" stroke:none;fill-rule:nonzero;fill:#e4e2df;fill-opacity:1;" d="M 23.378906 9.480469 L 36.542969 3.796875 L 43.957031 20.976562 L 30.792969 26.660156 Z M 23.378906 9.480469 "/></g></g></g><g clip-rule="nonzero" clip-path="url(#afa3340a5b)"><path style=" stroke:none;fill-rule:nonzero;fill:#e4e2df;fill-opacity:1;" d="M 37.574219 13.648438 L 41.027344 13.648438 L 41.027344 27.0625 L 37.574219 27.0625 Z M 37.574219 13.648438 "/></g><g clip-rule="nonzero" clip-path="url(#df60347ed3)"><path style=" stroke:none;fill-rule:nonzero;fill:#e4e2df;fill-opacity:1;" d="M 39.8125 12.714844 L 41.027344 12.714844 L 41.027344 13.902344 L 39.8125 13.902344 Z M 39.8125 12.714844 "/></g><g clip-rule="nonzero" clip-path="url(#7949bb4d7e)"><g clip-rule="nonzero" clip-path="url(#9956d806cc)"><path style=" stroke:none;fill-rule:nonzero;fill:#e4e2df;fill-opacity:1;" d="M 28.089844 9.253906 L 41.03125 9.253906 L 41.03125 12.714844 L 28.089844 12.714844 Z M 28.089844 9.253906 "/></g></g><path style="fill:none;stroke-width:1;stroke-linecap:butt;stroke-linejoin:miter;stroke:#e4e2df;stroke-opacity:1;stroke-miterlimit:4;" d="M -0.000940012 0.501522 L 3.403344 0.501522 " transform="matrix(0.650605,-0.000000000000000645,0.000000000000000645,0.650605,38.524049,12.435426)"/><g clip-rule="nonzero" clip-path="url(#e1a8c02373)"><g clip-rule="nonzero" clip-path="url(#abf6616793)"><path style=" stroke:none;fill-rule:nonzero;fill:#585958;fill-opacity:1;" d="M 4.023438 1.148438 L 14.558594 1.148438 L 14.558594 11.6875 L 4.023438 11.6875 Z M 4.023438 1.148438 "/></g></g><g clip-rule="nonzero" clip-path="url(#e2b2db379b)"><g clip-rule="nonzero" clip-path="url(#3eba1ccc18)"><path style="fill:none;stroke-width:4;stroke-linecap:butt;stroke-linejoin:miter;stroke:#e4e2df;stroke-opacity:1;stroke-miterlimit:4;" d="M 7.162748 0.00184794 C 3.210175 0.00184794 0.00244699 3.209576 0.00244699 7.162149 C 0.00244699 11.120159 3.210175 14.327887 7.162748 14.327887 C 11.120758 14.327887 14.328486 11.120159 14.328486 7.162149 C 14.328486 3.209576 11.120758 0.00184794 7.162748 0.00184794 Z M 7.162748 0.00184794 " transform="matrix(0.71848,0,0,0.71848,4.021679,1.14711)"/></g></g></g></svg>