<svg xmlns="http://www.w3.org/2000/svg" xmlns:xlink="http://www.w3.org/1999/xlink" width="61" zoomAndPan="magnify" viewBox="0 0 45.75 30.000001" height="40" preserveAspectRatio="xMidYMid meet" version="1.2"><defs><clipPath id="df3a7ad9eb"><path d="M 7 10 L 25 10 L 25 29.03125 L 7 29.03125 Z M 7 10 "/></clipPath><clipPath id="7972c47aef"><path d="M 7 11 L 27 11 L 27 29.03125 L 7 29.03125 Z M 7 11 "/></clipPath><clipPath id="bb627c4fdb"><path d="M 17 16 L 35 16 L 35 29.03125 L 17 29.03125 Z M 17 16 "/></clipPath></defs><g id="f93166fc03"><path style="fill:none;stroke-width:1;stroke-linecap:butt;stroke-linejoin:miter;stroke:#585958;stroke-opacity:1;stroke-miterlimit:4;" d="M 0.00168873 0.502579 L 36.20464 0.502579 " transform="matrix(-0.721734,0,0,-0.721734,35.891844,27.940853)"/><path style="fill:none;stroke-width:1;stroke-linecap:butt;stroke-linejoin:miter;stroke:#585958;stroke-opacity:1;stroke-miterlimit:4;" d="M 0.000632044 0.501259 L 36.203583 0.501259 " transform="matrix(0.00000000125966,-0.721734,0.721734,0.00000000125966,9.65385,27.348112)"/><g clip-rule="nonzero" clip-path="url(#df3a7ad9eb)"><path style="fill:none;stroke-width:1;stroke-linecap:butt;stroke-linejoin:miter;stroke:#8b73ff;stroke-opacity:1;stroke-miterlimit:4;" d="M 0.00226021 0.498896 L 20.232194 0.499898 " transform="matrix(0.441575,-0.565397,0.565397,0.441575,11.103646,25.835665)"/></g><path style="fill:none;stroke-width:1;stroke-linecap:butt;stroke-linejoin:miter;stroke:#8b73ff;stroke-opacity:1;stroke-miterlimit:4;" d="M 0.000682706 0.497536 L 11.644708 0.500276 " transform="matrix(0.530163,0.495704,-0.495704,0.530163,20.293143,14.235886)"/><path style="fill:none;stroke-width:1;stroke-linecap:butt;stroke-linejoin:miter;stroke:#8b73ff;stroke-opacity:1;stroke-miterlimit:4;" d="M -0.00203039 0.501725 L 20.232194 0.499374 " transform="matrix(0.441575,-0.565397,0.565397,0.441575,25.64691,19.800741)"/><path style="fill:none;stroke-width:1;stroke-linecap:butt;stroke-linejoin:miter;stroke:#ff9861;stroke-opacity:1;stroke-miterlimit:4;" d="M 0.00144276 0.501267 L 18.698318 0.501267 " transform="matrix(0.725806,0,0,0.725806,11.073172,10.827584)"/><path style="fill:none;stroke-width:1;stroke-linecap:butt;stroke-linejoin:miter;stroke:#ff9861;stroke-opacity:1;stroke-miterlimit:4;" d="M -0.00218496 0.500249 L 19.924976 0.49872 " transform="matrix(0.541192,0.483639,-0.483639,0.541192,24.54781,10.82017)"/><g clip-rule="nonzero" clip-path="url(#7972c47aef)"><path style="fill:none;stroke-width:1;stroke-linecap:butt;stroke-linejoin:miter;stroke:#96e17b;stroke-opacity:1;stroke-miterlimit:4;" d="M 0.00184335 0.501873 L 19.929004 0.500344 " transform="matrix(-0.541192,-0.483639,0.483639,-0.541192,21.867647,25.639689)"/></g><g clip-rule="nonzero" clip-path="url(#bb627c4fdb)"><path style="fill:none;stroke-width:1;stroke-linecap:butt;stroke-linejoin:miter;stroke:#96e17b;stroke-opacity:1;stroke-miterlimit:4;" d="M -0.0018984 0.497996 L 13.297712 0.500609 " transform="matrix(-0.615256,0.355218,-0.355218,-0.615256,30.242135,20.92035)"/></g></g></svg>