<svg xmlns="http://www.w3.org/2000/svg" xmlns:xlink="http://www.w3.org/1999/xlink" width="61" zoomAndPan="magnify" viewBox="0 0 45.75 30.000001" height="40" preserveAspectRatio="xMidYMid meet" version="1.2"><defs><clipPath id="7bcbaf2623"><path d="M 6.566406 1.34375 L 38.941406 1.34375 L 38.941406 4.976562 L 6.566406 4.976562 Z M 6.566406 1.34375 "/></clipPath><clipPath id="320ccf0199"><path d="M 12.140625 7.40625 L 38.941406 7.40625 L 38.941406 10.617188 L 12.140625 10.617188 Z M 12.140625 7.40625 "/></clipPath><clipPath id="38bffb7b42"><path d="M 12.140625 13.046875 L 38.941406 13.046875 L 38.941406 16.261719 L 12.140625 16.261719 Z M 12.140625 13.046875 "/></clipPath><clipPath id="04b936701b"><path d="M 12.140625 18.691406 L 38.941406 18.691406 L 38.941406 21.902344 L 12.140625 21.902344 Z M 12.140625 18.691406 "/></clipPath><clipPath id="e005d35384"><path d="M 12.140625 24.335938 L 38.941406 24.335938 L 38.941406 27.546875 L 12.140625 27.546875 Z M 12.140625 24.335938 "/></clipPath><clipPath id="dbb3e5a796"><path d="M 6.566406 7.40625 L 9.402344 7.40625 L 9.402344 10.617188 L 6.566406 10.617188 Z M 6.566406 7.40625 "/></clipPath><clipPath id="e8ebb48782"><path d="M 6.769531 13.046875 L 9.601562 13.046875 L 9.601562 16.261719 L 6.769531 16.261719 Z M 6.769531 13.046875 "/></clipPath><clipPath id="887b255239"><path d="M 6.667969 18.691406 L 9.503906 18.691406 L 9.503906 21.902344 L 6.667969 21.902344 Z M 6.667969 18.691406 "/></clipPath><clipPath id="c6a3e197ae"><path d="M 6.871094 24.335938 L 9.703125 24.335938 L 9.703125 27.546875 L 6.871094 27.546875 Z M 6.871094 24.335938 "/></clipPath></defs><g id="a5f1bf2246"><g clip-rule="nonzero" clip-path="url(#7bcbaf2623)"><path style=" stroke:none;fill-rule:nonzero;fill:#585958;fill-opacity:1;" d="M 6.566406 1.34375 L 38.945312 1.34375 L 38.945312 4.976562 L 6.566406 4.976562 Z M 6.566406 1.34375 "/></g><g clip-rule="nonzero" clip-path="url(#320ccf0199)"><path style=" stroke:none;fill-rule:nonzero;fill:#e4e2df;fill-opacity:1;" d="M 12.140625 7.40625 L 38.945312 7.40625 L 38.945312 10.617188 L 12.140625 10.617188 Z M 12.140625 7.40625 "/></g><g clip-rule="nonzero" clip-path="url(#38bffb7b42)"><path style=" stroke:none;fill-rule:nonzero;fill:#bab8b7;fill-opacity:1;" d="M 12.140625 13.046875 L 38.945312 13.046875 L 38.945312 16.261719 L 12.140625 16.261719 Z M 12.140625 13.046875 "/></g><g clip-rule="nonzero" clip-path="url(#04b936701b)"><path style=" stroke:none;fill-rule:nonzero;fill:#585958;fill-opacity:1;" d="M 12.140625 18.691406 L 38.945312 18.691406 L 38.945312 21.902344 L 12.140625 21.902344 Z M 12.140625 18.691406 "/></g><g clip-rule="nonzero" clip-path="url(#e005d35384)"><path style=" stroke:none;fill-rule:nonzero;fill:#585958;fill-opacity:1;" d="M 12.140625 24.335938 L 38.945312 24.335938 L 38.945312 27.546875 L 12.140625 27.546875 Z M 12.140625 24.335938 "/></g><g clip-rule="nonzero" clip-path="url(#dbb3e5a796)"><path style=" stroke:none;fill-rule:nonzero;fill:#585958;fill-opacity:1;" d="M 6.566406 7.40625 L 9.402344 7.40625 L 9.402344 10.617188 L 6.566406 10.617188 Z M 6.566406 7.40625 "/></g><g clip-rule="nonzero" clip-path="url(#e8ebb48782)"><path style=" stroke:none;fill-rule:nonzero;fill:#585958;fill-opacity:1;" d="M 6.769531 13.046875 L 9.601562 13.046875 L 9.601562 16.257812 L 6.769531 16.257812 Z M 6.769531 13.046875 "/></g><g clip-rule="nonzero" clip-path="url(#887b255239)"><path style=" stroke:none;fill-rule:nonzero;fill:#585958;fill-opacity:1;" d="M 6.667969 18.691406 L 9.503906 18.691406 L 9.503906 21.902344 L 6.667969 21.902344 Z M 6.667969 18.691406 "/></g><g clip-rule="nonzero" clip-path="url(#c6a3e197ae)"><path style=" stroke:none;fill-rule:nonzero;fill:#585958;fill-opacity:1;" d="M 6.871094 24.335938 L 9.703125 24.335938 L 9.703125 27.546875 L 6.871094 27.546875 Z M 6.871094 24.335938 "/></g></g></svg>