<svg xmlns="http://www.w3.org/2000/svg" xmlns:xlink="http://www.w3.org/1999/xlink" width="61" zoomAndPan="magnify" viewBox="0 0 45.75 30.000001" height="40" preserveAspectRatio="xMidYMid meet" version="1.2"><defs><clipPath id="d8117badc5"><path d="M 8 1 L 15 1 L 15 8 L 8 8 Z M 8 1 "/></clipPath><clipPath id="96b7cbb1e3"><path d="M 8.246094 1.09375 L 14.113281 1.230469 L 13.976562 7.097656 L 8.109375 6.960938 Z M 8.246094 1.09375 "/></clipPath><clipPath id="7c0808bc85"><path d="M 11.179688 1.164062 C 9.558594 1.125 8.214844 2.40625 8.175781 4.027344 C 8.140625 5.648438 9.421875 6.992188 11.042969 7.03125 C 12.660156 7.066406 14.003906 5.785156 14.042969 4.164062 C 14.082031 2.542969 12.796875 1.199219 11.179688 1.164062 Z M 11.179688 1.164062 "/></clipPath><filter x="0%" y="0%" width="100%" filterUnits="objectBoundingBox" id="00515e0f89" height="100%"><feColorMatrix values="0 0 0 0 1 0 0 0 0 1 0 0 0 0 1 0 0 0 1 0" type="matrix" in="SourceGraphic"/></filter><clipPath id="f0854a94f5"><path d="M 0.273438 1 L 6 1 L 6 6.761719 L 0.273438 6.761719 Z M 0.273438 1 "/></clipPath><clipPath id="bf249a9b54"><path d="M 0.53125 1.136719 L 5.960938 1.261719 L 5.835938 6.6875 L 0.40625 6.5625 Z M 0.53125 1.136719 "/></clipPath><clipPath id="a81490420a"><path d="M 3.246094 1.199219 C 1.75 1.164062 0.503906 2.351562 0.46875 3.847656 C 0.433594 5.347656 1.621094 6.589844 3.121094 6.625 C 4.621094 6.660156 5.863281 5.472656 5.898438 3.976562 C 5.933594 2.476562 4.746094 1.234375 3.246094 1.199219 Z M 3.246094 1.199219 "/></clipPath><clipPath id="c753f9ce2a"><rect x="0" width="7" y="0" height="7"/></clipPath><clipPath id="ea96ae02d8"><path d="M 0.519531 0.527344 L 6 0.527344 L 6 6 L 0.519531 6 Z M 0.519531 0.527344 "/></clipPath><clipPath id="20694cd5d2"><path d="M 0.789062 0.5625 L 6.039062 0.683594 L 5.917969 5.9375 L 0.664062 5.816406 Z M 0.789062 0.5625 "/></clipPath><clipPath id="5a2c3e5ee2"><path d="M 3.414062 0.625 C 1.964844 0.589844 0.761719 1.738281 0.726562 3.1875 C 0.691406 4.640625 1.839844 5.84375 3.292969 5.875 C 4.742188 5.910156 5.945312 4.761719 5.980469 3.3125 C 6.011719 1.859375 4.863281 0.65625 3.414062 0.625 Z M 3.414062 0.625 "/></clipPath><clipPath id="0ebe8bc776"><rect x="0" width="7" y="0" height="7"/></clipPath><clipPath id="d21398ec08"><path d="M 0.273438 0.0195312 L 6.546875 0.0195312 L 6.546875 6.289062 L 0.273438 6.289062 Z M 0.273438 0.0195312 "/></clipPath><clipPath id="f49462204d"><path d="M 0.53125 0.0976562 L 6.398438 0.234375 L 6.261719 6.101562 L 0.394531 5.964844 Z M 0.53125 0.0976562 "/></clipPath><clipPath id="73dcc40c9e"><path d="M 3.464844 0.167969 C 1.847656 0.128906 0.503906 1.414062 0.464844 3.03125 C 0.425781 4.652344 1.710938 5.996094 3.328125 6.035156 C 4.949219 6.070312 6.292969 4.789062 6.332031 3.167969 C 6.367188 1.550781 5.085938 0.207031 3.464844 0.167969 Z M 3.464844 0.167969 "/></clipPath><clipPath id="005ab15a9a"><rect x="0" width="7" y="0" height="7"/></clipPath><clipPath id="23d292ef5b"><path d="M 13 17 L 20 17 L 20 23 L 13 23 Z M 13 17 "/></clipPath><clipPath id="dba22b041e"><path d="M 13.886719 17.136719 L 19.191406 17.257812 L 19.066406 22.5625 L 13.761719 22.4375 Z M 13.886719 17.136719 "/></clipPath><clipPath id="d3b71af073"><path d="M 16.539062 17.195312 C 15.074219 17.164062 13.859375 18.324219 13.824219 19.785156 C 13.789062 21.25 14.949219 22.46875 16.414062 22.5 C 17.878906 22.535156 19.09375 21.375 19.128906 19.910156 C 19.160156 18.445312 18.003906 17.230469 16.539062 17.195312 Z M 16.539062 17.195312 "/></clipPath><clipPath id="76ac47b96c"><path d="M 21 10 L 28 10 L 28 18 L 21 18 Z M 21 10 "/></clipPath><clipPath id="d517155395"><path d="M 21.300781 10.734375 L 27.554688 10.882812 L 27.40625 17.136719 L 21.152344 16.988281 Z M 21.300781 10.734375 "/></clipPath><clipPath id="c24d6fd9b2"><path d="M 24.425781 10.808594 C 22.699219 10.769531 21.265625 12.136719 21.226562 13.863281 C 21.1875 15.589844 22.554688 17.023438 24.28125 17.0625 C 26.007812 17.101562 27.441406 15.734375 27.480469 14.007812 C 27.519531 12.28125 26.152344 10.847656 24.425781 10.808594 Z M 24.425781 10.808594 "/></clipPath></defs><g id="88d7b14020"><g clip-rule="nonzero" clip-path="url(#d8117badc5)"><g clip-rule="nonzero" clip-path="url(#96b7cbb1e3)"><g clip-rule="nonzero" clip-path="url(#7c0808bc85)"><path style=" stroke:none;fill-rule:nonzero;fill:#bab8b7;fill-opacity:1;" d="M 8.246094 1.09375 L 14.113281 1.230469 L 13.976562 7.097656 L 8.109375 6.960938 Z M 8.246094 1.09375 "/></g></g></g><g mask="url(#9897affe1e)" transform="matrix(1,0,0,1,31,16)"><g clip-path="url(#c753f9ce2a)"><g clip-rule="nonzero" clip-path="url(#f0854a94f5)"><g clip-rule="nonzero" clip-path="url(#bf249a9b54)"><g clip-rule="nonzero" clip-path="url(#a81490420a)"><path style=" stroke:none;fill-rule:nonzero;fill:#808080;fill-opacity:1;" d="M 0.53125 1.136719 L 5.960938 1.261719 L 5.835938 6.6875 L 0.40625 6.5625 Z M 0.53125 1.136719 "/></g></g></g></g><mask id="9897affe1e"><g filter="url(#00515e0f89)"><rect x="0" width="45.75" y="0" height="30.000001" style="fill:#000000;fill-opacity:0.76;stroke:none;"/></g></mask></g><path style="fill:none;stroke-width:1;stroke-linecap:butt;stroke-linejoin:miter;stroke:#000000;stroke-opacity:1;stroke-miterlimit:4;" d="M -0.00321688 0.500158 L 15.005924 0.500613 " transform="matrix(0.566596,0.453613,-0.453613,0.566596,13.506044,5.417291)"/><path style="fill:none;stroke-width:1;stroke-linecap:butt;stroke-linejoin:miter;stroke:#000000;stroke-opacity:1;stroke-miterlimit:4;" d="M 0.000117022 0.499849 L 11.701842 0.500404 " transform="matrix(0.577485,-0.439666,0.439666,0.577485,26.342666,11.805146)"/><path style="fill:none;stroke-width:1;stroke-linecap:butt;stroke-linejoin:miter;stroke:#000000;stroke-opacity:1;stroke-miterlimit:4;" d="M 0.00174175 0.498883 L 11.105998 0.502166 " transform="matrix(0.617131,0.370241,-0.370241,0.617131,26.761757,15.168042)"/><path style="fill:none;stroke-width:1;stroke-linecap:butt;stroke-linejoin:miter;stroke:#000000;stroke-opacity:1;stroke-miterlimit:4;" d="M 0.00182868 0.499479 L 11.702176 0.499479 " transform="matrix(0,-0.725806,0.725806,0,23.957787,23.950546)"/><path style="fill:none;stroke-width:1;stroke-linecap:butt;stroke-linejoin:miter;stroke:#000000;stroke-opacity:1;stroke-miterlimit:4;" d="M -0.00158359 0.498069 L 8.218401 0.499675 " transform="matrix(0.523118,-0.474841,0.474841,0.523118,17.287763,19.203543)"/><g mask="url(#783769f222)" transform="matrix(1,0,0,1,21,22)"><g clip-path="url(#0ebe8bc776)"><g clip-rule="nonzero" clip-path="url(#ea96ae02d8)"><g clip-rule="nonzero" clip-path="url(#20694cd5d2)"><g clip-rule="nonzero" clip-path="url(#5a2c3e5ee2)"><path style=" stroke:none;fill-rule:nonzero;fill:#bab8b7;fill-opacity:1;" d="M 0.789062 0.5625 L 6.039062 0.683594 L 5.917969 5.9375 L 0.664062 5.816406 Z M 0.789062 0.5625 "/></g></g></g></g><mask id="783769f222"><g filter="url(#00515e0f89)"><rect x="0" width="45.75" y="0" height="30.000001" style="fill:#000000;fill-opacity:0.41;stroke:none;"/></g></mask></g><g mask="url(#4154a25858)" transform="matrix(1,0,0,1,31,3)"><g clip-path="url(#005ab15a9a)"><g clip-rule="nonzero" clip-path="url(#d21398ec08)"><g clip-rule="nonzero" clip-path="url(#f49462204d)"><g clip-rule="nonzero" clip-path="url(#73dcc40c9e)"><path style=" stroke:none;fill-rule:nonzero;fill:#f5d228;fill-opacity:1;" d="M 0.53125 0.0976562 L 6.398438 0.234375 L 6.261719 6.101562 L 0.394531 5.964844 Z M 0.53125 0.0976562 "/></g></g></g></g><mask id="4154a25858"><g filter="url(#00515e0f89)"><rect x="0" width="45.75" y="0" height="30.000001" style="fill:#000000;fill-opacity:0.65;stroke:none;"/></g></mask></g><g clip-rule="nonzero" clip-path="url(#23d292ef5b)"><g clip-rule="nonzero" clip-path="url(#dba22b041e)"><g clip-rule="nonzero" clip-path="url(#d3b71af073)"><path style=" stroke:none;fill-rule:nonzero;fill:#f5d228;fill-opacity:1;" d="M 13.886719 17.136719 L 19.191406 17.257812 L 19.066406 22.5625 L 13.761719 22.4375 Z M 13.886719 17.136719 "/></g></g></g><g clip-rule="nonzero" clip-path="url(#76ac47b96c)"><g clip-rule="nonzero" clip-path="url(#d517155395)"><g clip-rule="nonzero" clip-path="url(#c24d6fd9b2)"><path style=" stroke:none;fill-rule:nonzero;fill:#f5d228;fill-opacity:1;" d="M 21.300781 10.734375 L 27.554688 10.882812 L 27.40625 17.136719 L 21.152344 16.988281 Z M 21.300781 10.734375 "/></g></g></g></g></svg>