<svg xmlns="http://www.w3.org/2000/svg" xmlns:xlink="http://www.w3.org/1999/xlink" width="61" zoomAndPan="magnify" viewBox="0 0 45.75 30.000001" height="40" preserveAspectRatio="xMidYMid meet" version="1.2"><defs><clipPath id="9b00b5f437"><path d="M 6.574219 1.863281 L 21.664062 1.863281 L 21.664062 15.113281 L 6.574219 15.113281 Z M 6.574219 1.863281 "/></clipPath><clipPath id="052066fcee"><path d="M 6.574219 17.433594 L 21.664062 17.433594 L 21.664062 27.171875 L 6.574219 27.171875 Z M 6.574219 17.433594 "/></clipPath><clipPath id="1bbcf9c988"><path d="M 23.84375 1.863281 L 38.933594 1.863281 L 38.933594 21.230469 L 23.84375 21.230469 Z M 23.84375 1.863281 "/></clipPath></defs><g id="3bc5557887"><g clip-rule="nonzero" clip-path="url(#9b00b5f437)"><path style=" stroke:none;fill-rule:nonzero;fill:#585958;fill-opacity:1;" d="M 6.574219 1.863281 L 21.6875 1.863281 L 21.6875 15.113281 L 6.574219 15.113281 Z M 6.574219 1.863281 "/></g><g clip-rule="nonzero" clip-path="url(#052066fcee)"><path style=" stroke:none;fill-rule:nonzero;fill:#f5d228;fill-opacity:1;" d="M 6.574219 17.433594 L 21.675781 17.433594 L 21.675781 27.171875 L 6.574219 27.171875 Z M 6.574219 17.433594 "/></g><g clip-rule="nonzero" clip-path="url(#1bbcf9c988)"><path style=" stroke:none;fill-rule:nonzero;fill:#ffeb87;fill-opacity:1;" d="M 23.84375 1.863281 L 38.933594 1.863281 L 38.933594 21.257812 L 23.84375 21.257812 Z M 23.84375 1.863281 "/></g></g></svg>