<svg xmlns="http://www.w3.org/2000/svg" xmlns:xlink="http://www.w3.org/1999/xlink" width="61" zoomAndPan="magnify" viewBox="0 0 46.079998 37.92" height="40" preserveAspectRatio="xMidYMid meet" version="1.2"><defs><clipPath id="b05f91d723"><path d="M 16.996094 2.046875 L 27.3125 2.046875 L 27.3125 4.851562 L 16.996094 4.851562 Z M 16.996094 2.046875 "/></clipPath><clipPath id="756f315501"><path d="M 5.074219 2.046875 L 15.390625 2.046875 L 15.390625 4.851562 L 5.074219 4.851562 Z M 5.074219 2.046875 "/></clipPath><clipPath id="44715bcbe2"><path d="M 28.933594 2.046875 L 39.253906 2.046875 L 39.253906 4.851562 L 28.933594 4.851562 Z M 28.933594 2.046875 "/></clipPath><clipPath id="00b05fabec"><path d="M 16.996094 6.9375 L 27.3125 6.9375 L 27.3125 23.199219 L 16.996094 23.199219 Z M 16.996094 6.9375 "/></clipPath><clipPath id="8adef86669"><path d="M 5.074219 6.9375 L 15.390625 6.9375 L 15.390625 14.703125 L 5.074219 14.703125 Z M 5.074219 6.9375 "/></clipPath><clipPath id="be7037bc18"><path d="M 28.933594 6.9375 L 39.253906 6.9375 L 39.253906 14.703125 L 28.933594 14.703125 Z M 28.933594 6.9375 "/></clipPath><clipPath id="3860144232"><path d="M 16.996094 25.226562 L 39.78125 25.226562 L 39.78125 28.03125 L 16.996094 28.03125 Z M 16.996094 25.226562 "/></clipPath><clipPath id="188035c741"><path d="M 5.074219 25.226562 L 15.390625 25.226562 L 15.390625 28.03125 L 5.074219 28.03125 Z M 5.074219 25.226562 "/></clipPath><clipPath id="3e972c2ee8"><path d="M 5.273438 11.226562 L 7.589844 11.226562 L 7.589844 13.523438 L 5.273438 13.523438 Z M 5.273438 11.226562 "/></clipPath><clipPath id="e2a48526a7"><path d="M 17.605469 14.5 L 19.917969 14.5 L 19.917969 16.796875 L 17.605469 16.796875 Z M 17.605469 14.5 "/></clipPath></defs><g id="308f8757f0"><g clip-rule="nonzero" clip-path="url(#b05f91d723)"><path style=" stroke:none;fill-rule:nonzero;fill:#585958;fill-opacity:1;" d="M 16.996094 2.046875 L 27.320312 2.046875 L 27.320312 4.851562 L 16.996094 4.851562 Z M 16.996094 2.046875 "/></g><g clip-rule="nonzero" clip-path="url(#756f315501)"><path style=" stroke:none;fill-rule:nonzero;fill:#585958;fill-opacity:1;" d="M 5.074219 2.046875 L 15.394531 2.046875 L 15.394531 4.851562 L 5.074219 4.851562 Z M 5.074219 2.046875 "/></g><g clip-rule="nonzero" clip-path="url(#44715bcbe2)"><path style=" stroke:none;fill-rule:nonzero;fill:#585958;fill-opacity:1;" d="M 28.933594 2.046875 L 39.257812 2.046875 L 39.257812 4.851562 L 28.933594 4.851562 Z M 28.933594 2.046875 "/></g><g clip-rule="nonzero" clip-path="url(#00b05fabec)"><path style=" stroke:none;fill-rule:nonzero;fill:#bab8b7;fill-opacity:1;" d="M 16.996094 6.9375 L 27.3125 6.9375 L 27.3125 23.179688 L 16.996094 23.179688 Z M 16.996094 6.9375 "/></g><g clip-rule="nonzero" clip-path="url(#8adef86669)"><path style=" stroke:none;fill-rule:nonzero;fill:#bab8b7;fill-opacity:1;" d="M 5.074219 6.9375 L 15.382812 6.9375 L 15.382812 14.703125 L 5.074219 14.703125 Z M 5.074219 6.9375 "/></g><g clip-rule="nonzero" clip-path="url(#be7037bc18)"><path style=" stroke:none;fill-rule:nonzero;fill:#bab8b7;fill-opacity:1;" d="M 28.933594 6.9375 L 39.246094 6.9375 L 39.246094 14.703125 L 28.933594 14.703125 Z M 28.933594 6.9375 "/></g><g clip-rule="nonzero" clip-path="url(#3860144232)"><path style=" stroke:none;fill-rule:nonzero;fill:#585958;fill-opacity:1;" d="M 16.996094 25.226562 L 39.777344 25.226562 L 39.777344 28.03125 L 16.996094 28.03125 Z M 16.996094 25.226562 "/></g><g clip-rule="nonzero" clip-path="url(#188035c741)"><path style=" stroke:none;fill-rule:nonzero;fill:#bab8b7;fill-opacity:1;" d="M 5.074219 25.226562 L 15.394531 25.226562 L 15.394531 28.03125 L 5.074219 28.03125 Z M 5.074219 25.226562 "/></g><g clip-rule="nonzero" clip-path="url(#3e972c2ee8)"><path style=" stroke:none;fill-rule:nonzero;fill:#585958;fill-opacity:1;" d="M 5.273438 11.226562 L 7.589844 11.226562 L 7.589844 13.523438 L 5.273438 13.523438 Z M 5.273438 11.226562 "/></g><g clip-rule="nonzero" clip-path="url(#e2a48526a7)"><path style=" stroke:none;fill-rule:nonzero;fill:#585958;fill-opacity:1;" d="M 17.605469 14.5 L 19.917969 14.5 L 19.917969 16.796875 L 17.605469 16.796875 Z M 17.605469 14.5 "/></g></g></svg>