<svg xmlns="http://www.w3.org/2000/svg" xmlns:xlink="http://www.w3.org/1999/xlink" width="275" zoomAndPan="magnify" viewBox="0 0 206.25 187.499992" height="250" preserveAspectRatio="xMidYMid meet" version="1.0"><defs><g/><clipPath id="ea982d11cd"><path d="M 0 0.0898438 L 205.503906 0.0898438 L 205.503906 186.910156 L 0 186.910156 Z M 0 0.0898438 " clip-rule="nonzero"/></clipPath><clipPath id="1d368fe900"><path d="M 8.96875 0.0898438 L 196.535156 0.0898438 C 198.914062 0.0898438 201.195312 1.035156 202.875 2.71875 C 204.558594 4.398438 205.503906 6.679688 205.503906 9.058594 L 205.503906 177.945312 C 205.503906 180.320312 204.558594 182.601562 202.875 184.285156 C 201.195312 185.964844 198.914062 186.910156 196.535156 186.910156 L 8.96875 186.910156 C 6.589844 186.910156 4.308594 185.964844 2.625 184.285156 C 0.945312 182.601562 0 180.320312 0 177.945312 L 0 9.058594 C 0 6.679688 0.945312 4.398438 2.625 2.71875 C 4.308594 1.035156 6.589844 0.0898438 8.96875 0.0898438 Z M 8.96875 0.0898438 " clip-rule="nonzero"/></clipPath><clipPath id="37cd33b919"><path d="M 0 0.0898438 L 205.503906 0.0898438 L 205.503906 186.910156 L 0 186.910156 Z M 0 0.0898438 " clip-rule="nonzero"/></clipPath><clipPath id="c63a38c625"><path d="M 8.96875 0.0898438 L 196.535156 0.0898438 C 198.914062 0.0898438 201.195312 1.035156 202.875 2.71875 C 204.558594 4.398438 205.503906 6.679688 205.503906 9.058594 L 205.503906 177.945312 C 205.503906 180.320312 204.558594 182.601562 202.875 184.285156 C 201.195312 185.964844 198.914062 186.910156 196.535156 186.910156 L 8.96875 186.910156 C 6.589844 186.910156 4.308594 185.964844 2.625 184.285156 C 0.945312 182.601562 0 180.320312 0 177.945312 L 0 9.058594 C 0 6.679688 0.945312 4.398438 2.625 2.71875 C 4.308594 1.035156 6.589844 0.0898438 8.96875 0.0898438 Z M 8.96875 0.0898438 " clip-rule="nonzero"/></clipPath><clipPath id="0640d3daf0"><rect x="0" width="206" y="0" height="187"/></clipPath></defs><g clip-path="url(#ea982d11cd)"><g clip-path="url(#1d368fe900)"><g transform="matrix(1, 0, 0, 1, 0, -0.000000000000024966)"><g clip-path="url(#0640d3daf0)"><g clip-path="url(#37cd33b919)"><g clip-path="url(#c63a38c625)"><path fill="#fbfeff" d="M 0 0.0898438 L 205.792969 0.0898438 L 205.792969 186.910156 L 0 186.910156 Z M 0 0.0898438 " fill-opacity="1" fill-rule="nonzero"/></g></g></g></g><path stroke-linecap="butt" transform="matrix(0.747283, 0, 0, 0.747283, 0, 0.09058)" fill="none" stroke-linejoin="miter" d="M 12.001819 -0.000985185 L 262.999784 -0.000985185 C 266.183193 -0.000985185 269.23592 1.264015 271.483648 3.51697 C 273.736602 5.764697 275.001602 8.817424 275.001602 12.000833 L 275.001602 238.001979 C 275.001602 241.180161 273.736602 244.232889 271.483648 246.485843 C 269.23592 248.733571 266.183193 249.998571 262.999784 249.998571 L 12.001819 249.998571 C 8.818409 249.998571 5.765682 248.733571 3.512727 246.485843 C 1.265 244.232889 0 241.180161 0 238.001979 L 0 12.000833 C 0 8.817424 1.265 5.764697 3.512727 3.51697 C 5.765682 1.264015 8.818409 -0.000985185 12.001819 -0.000985185 Z M 12.001819 -0.000985185 " stroke="#1272fa" stroke-width="4" stroke-opacity="1" stroke-miterlimit="4"/></g></g><g fill="#2563eb" fill-opacity="1"><g transform="translate(63.063643, 129.666302)"><g><path d="M 4.25 0 L 1.140625 0 L 1.140625 -12.125 L 5.546875 -12.125 C 7.097656 -12.125 8.335938 -11.738281 9.265625 -10.96875 C 10.203125 -10.1875 10.671875 -9.171875 10.671875 -7.921875 C 10.671875 -6.648438 10.203125 -5.625 9.265625 -4.84375 C 8.304688 -4.0625 7.0625 -3.671875 5.53125 -3.671875 L 4.25 -3.671875 Z M 5.796875 -9.390625 L 4.25 -9.390625 L 4.25 -6.421875 L 5.796875 -6.421875 C 6.253906 -6.421875 6.628906 -6.554688 6.921875 -6.828125 C 7.210938 -7.109375 7.359375 -7.472656 7.359375 -7.921875 C 7.359375 -8.367188 7.210938 -8.722656 6.921875 -8.984375 C 6.628906 -9.253906 6.253906 -9.390625 5.796875 -9.390625 Z M 5.796875 -9.390625 "/></g></g></g><g fill="#2563eb" fill-opacity="1"><g transform="translate(74.117179, 129.666302)"><g><path d="M 13.328125 0 L 9.875 0 L 9.046875 -2.296875 L 4.296875 -2.296875 L 3.46875 0 L 0.1875 0 L 4.921875 -12.125 L 8.59375 -12.125 Z M 5.296875 -5.046875 L 8.046875 -5.046875 L 6.671875 -8.8125 Z M 5.296875 -5.046875 "/></g></g></g><g fill="#2563eb" fill-opacity="1"><g transform="translate(87.631265, 129.666302)"><g><path d="M 9.953125 -12.125 L 9.953125 -9.203125 L 6.625 -9.203125 L 6.625 0 L 3.5 0 L 3.5 -9.203125 L 0.1875 -9.203125 L 0.1875 -12.125 Z M 9.953125 -12.125 "/></g></g></g><g fill="#2563eb" fill-opacity="1"><g transform="translate(97.776297, 129.666302)"><g><path d="M 9.953125 -12.125 L 9.953125 -9.203125 L 6.625 -9.203125 L 6.625 0 L 3.5 0 L 3.5 -9.203125 L 0.1875 -9.203125 L 0.1875 -12.125 Z M 9.953125 -12.125 "/></g></g></g><g fill="#2563eb" fill-opacity="1"><g transform="translate(107.921328, 129.666302)"><g><path d="M 9.203125 0 L 1.140625 0 L 1.140625 -12.125 L 9.203125 -12.125 L 9.203125 -9.203125 L 4.25 -9.203125 L 4.25 -7.609375 L 8.4375 -7.609375 L 8.4375 -4.671875 L 4.25 -4.671875 L 4.25 -2.9375 L 9.203125 -2.9375 Z M 9.203125 0 "/></g></g></g><g fill="#2563eb" fill-opacity="1"><g transform="translate(117.687815, 129.666302)"><g><path d="M 4.25 0 L 1.140625 0 L 1.140625 -12.125 L 5.546875 -12.125 C 7.097656 -12.125 8.335938 -11.757812 9.265625 -11.03125 C 10.203125 -10.289062 10.671875 -9.320312 10.671875 -8.125 C 10.671875 -7.332031 10.472656 -6.632812 10.078125 -6.03125 C 9.691406 -5.4375 9.140625 -4.972656 8.421875 -4.640625 L 10.96875 0 L 7.359375 0 L 5.28125 -4.046875 L 4.25 -4.046875 Z M 5.796875 -9.390625 L 4.25 -9.390625 L 4.25 -6.796875 L 5.796875 -6.796875 C 6.253906 -6.796875 6.628906 -6.914062 6.921875 -7.15625 C 7.210938 -7.394531 7.359375 -7.71875 7.359375 -8.125 C 7.359375 -8.5 7.210938 -8.800781 6.921875 -9.03125 C 6.628906 -9.269531 6.253906 -9.390625 5.796875 -9.390625 Z M 5.796875 -9.390625 "/></g></g></g><g fill="#2563eb" fill-opacity="1"><g transform="translate(129.233466, 129.666302)"><g><path d="M 12.046875 0 L 8.703125 0 L 4.25 -6.90625 L 4.25 0 L 1.140625 0 L 1.140625 -12.125 L 4.484375 -12.125 L 8.9375 -5.109375 L 8.9375 -12.125 L 12.046875 -12.125 Z M 12.046875 0 "/></g></g></g><g fill="#2563eb" fill-opacity="1"><g transform="translate(55.042032, 150.590214)"><g><path d="M 11.328125 -7.328125 L 7.796875 -2.1875 L 4.25 -7.296875 L 4.25 0 L 1.140625 0 L 1.140625 -12.125 L 4.734375 -12.125 L 8 -7.171875 L 11.28125 -12.125 L 14.453125 -12.125 L 14.453125 0 L 11.328125 0 Z M 11.328125 -7.328125 "/></g></g></g><g fill="#2563eb" fill-opacity="1"><g transform="translate(70.638124, 150.590214)"><g><path d="M 13.328125 0 L 9.875 0 L 9.046875 -2.296875 L 4.296875 -2.296875 L 3.46875 0 L 0.1875 0 L 4.921875 -12.125 L 8.59375 -12.125 Z M 5.296875 -5.046875 L 8.046875 -5.046875 L 6.671875 -8.8125 Z M 5.296875 -5.046875 "/></g></g></g><g fill="#2563eb" fill-opacity="1"><g transform="translate(84.15221, 150.590214)"><g><path d="M 9.953125 -12.125 L 9.953125 -9.203125 L 6.625 -9.203125 L 6.625 0 L 3.5 0 L 3.5 -9.203125 L 0.1875 -9.203125 L 0.1875 -12.125 Z M 9.953125 -12.125 "/></g></g></g><g fill="#2563eb" fill-opacity="1"><g transform="translate(94.297241, 150.590214)"><g><path d="M 11.5 -10.609375 L 9.421875 -8.234375 C 8.742188 -8.941406 7.898438 -9.296875 6.890625 -9.296875 C 6.054688 -9.296875 5.351562 -8.984375 4.78125 -8.359375 C 4.207031 -7.742188 3.921875 -6.984375 3.921875 -6.078125 C 3.921875 -5.179688 4.21875 -4.414062 4.8125 -3.78125 C 5.40625 -3.15625 6.144531 -2.84375 7.03125 -2.84375 C 7.488281 -2.84375 7.9375 -2.9375 8.375 -3.125 C 8.8125 -3.3125 9.160156 -3.566406 9.421875 -3.890625 L 11.5 -1.59375 C 10.46875 -0.34375 8.910156 0.28125 6.828125 0.28125 C 5.046875 0.28125 3.554688 -0.332031 2.359375 -1.5625 C 1.160156 -2.800781 0.5625 -4.304688 0.5625 -6.078125 C 0.5625 -7.828125 1.179688 -9.316406 2.421875 -10.546875 C 3.660156 -11.785156 5.132812 -12.40625 6.84375 -12.40625 C 8.863281 -12.40625 10.414062 -11.804688 11.5 -10.609375 Z M 11.5 -10.609375 "/></g></g></g><g fill="#2563eb" fill-opacity="1"><g transform="translate(106.088949, 150.590214)"><g><path d="M 12.046875 0 L 8.9375 0 L 8.9375 -4.78125 L 4.25 -4.78125 L 4.25 0 L 1.140625 0 L 1.140625 -12.125 L 4.25 -12.125 L 4.25 -7.71875 L 8.9375 -7.71875 L 8.9375 -12.125 L 12.046875 -12.125 Z M 12.046875 0 "/></g></g></g><g fill="#2563eb" fill-opacity="1"><g transform="translate(119.281275, 150.590214)"><g><path d="M 4.25 0 L 1.140625 0 L 1.140625 -12.125 L 4.25 -12.125 Z M 4.25 0 "/></g></g></g><g fill="#2563eb" fill-opacity="1"><g transform="translate(124.67555, 150.590214)"><g><path d="M 12.046875 0 L 8.703125 0 L 4.25 -6.90625 L 4.25 0 L 1.140625 0 L 1.140625 -12.125 L 4.484375 -12.125 L 8.9375 -5.109375 L 8.9375 -12.125 L 12.046875 -12.125 Z M 12.046875 0 "/></g></g></g><g fill="#2563eb" fill-opacity="1"><g transform="translate(137.867877, 150.590214)"><g><path d="M 6.734375 -7.109375 L 11.625 -7.109375 L 10.109375 -4.59375 L 6.734375 -4.59375 Z M 11.625 -7.109375 L 11.640625 -1.1875 C 10.441406 -0.207031 8.835938 0.28125 6.828125 0.28125 C 5.046875 0.28125 3.554688 -0.332031 2.359375 -1.5625 C 1.160156 -2.800781 0.5625 -4.304688 0.5625 -6.078125 C 0.5625 -7.828125 1.179688 -9.316406 2.421875 -10.546875 C 3.660156 -11.785156 5.132812 -12.40625 6.84375 -12.40625 C 8.863281 -12.40625 10.414062 -11.804688 11.5 -10.609375 L 9.421875 -8.234375 C 8.742188 -8.941406 7.898438 -9.296875 6.890625 -9.296875 C 6.054688 -9.296875 5.351562 -8.984375 4.78125 -8.359375 C 4.207031 -7.742188 3.921875 -6.984375 3.921875 -6.078125 C 3.921875 -5.179688 4.21875 -4.414062 4.8125 -3.78125 C 5.40625 -3.15625 6.144531 -2.84375 7.03125 -2.84375 C 7.5625 -2.84375 8.054688 -2.953125 8.515625 -3.171875 L 8.515625 -7.078125 Z M 11.625 -7.109375 "/></g></g></g><path stroke-linecap="round" transform="matrix(0.00000000130425, -0.747283, 0.747283, 0.00000000130425, 60.771253, 99.058361)" fill="none" stroke-linejoin="miter" d="M 1.499915 1.497924 L 55.617872 1.497924 " stroke="#00327b" stroke-width="3" stroke-opacity="1" stroke-miterlimit="4"/><path stroke-linecap="round" transform="matrix(0.231288, 0.710589, -0.710589, 0.231288, 62.830811, 56.207513)" fill="none" stroke-linejoin="miter" d="M 1.501561 1.498508 L 36.237134 1.502272 " stroke="#00327b" stroke-width="3" stroke-opacity="1" stroke-miterlimit="4"/><path stroke-linecap="round" transform="matrix(-0.219619, 0.714282, -0.714282, -0.219619, 74.685626, 72.088851)" fill="none" stroke-linejoin="miter" d="M 1.501366 1.499045 L 14.927472 1.499871 " stroke="#00327b" stroke-width="3" stroke-opacity="1" stroke-miterlimit="4"/><path stroke-linecap="round" transform="matrix(-0.24476, -0.706062, 0.706062, -0.24476, 82.015707, 99.423434)" fill="none" stroke-linejoin="miter" d="M 1.501676 1.499689 L 37.169546 1.499106 " stroke="#00327b" stroke-width="3" stroke-opacity="1" stroke-miterlimit="4"/><path stroke-linecap="round" transform="matrix(-0.747283, 0.00000000130425, -0.00000000130425, -0.747283, 92.900893, 99.527542)" fill="none" stroke-linejoin="miter" d="M 1.498286 1.500492 L 12.522605 1.500492 " stroke="#00327b" stroke-width="3" stroke-opacity="1" stroke-miterlimit="4"/><path stroke-linecap="round" transform="matrix(0.00000000130425, -0.747283, 0.747283, 0.00000000130425, 91.154724, 99.362417)" fill="none" stroke-linejoin="miter" d="M 1.499071 1.502269 L 55.617028 1.502269 " stroke="#00327b" stroke-width="3" stroke-opacity="1" stroke-miterlimit="4"/><path stroke-linecap="round" transform="matrix(0.231288, 0.710589, -0.710589, 0.231288, 93.214278, 56.511575)" fill="none" stroke-linejoin="miter" d="M 1.502087 1.4996 L 36.239277 1.498394 " stroke="#00327b" stroke-width="3" stroke-opacity="1" stroke-miterlimit="4"/><path stroke-linecap="round" transform="matrix(-0.219619, 0.714282, -0.714282, -0.219619, 105.069097, 72.392917)" fill="none" stroke-linejoin="miter" d="M 1.50242 1.499644 L 14.928526 1.50047 " stroke="#00327b" stroke-width="3" stroke-opacity="1" stroke-miterlimit="4"/><path stroke-linecap="round" transform="matrix(-0.24476, -0.706062, 0.706062, -0.24476, 112.399189, 99.727498)" fill="none" stroke-linejoin="miter" d="M 1.501181 1.49857 L 37.173989 1.499699 " stroke="#00327b" stroke-width="3" stroke-opacity="1" stroke-miterlimit="4"/><path stroke-linecap="round" transform="matrix(0.00000000130425, -0.747283, 0.747283, 0.00000000130425, 121.538184, 99.040648)" fill="none" stroke-linejoin="miter" d="M 1.502349 1.501403 L 55.620306 1.501402 " stroke="#1272fa" stroke-width="3" stroke-opacity="1" stroke-miterlimit="4"/><path stroke-linecap="round" transform="matrix(0.231288, 0.710589, -0.710589, 0.231288, 123.59775, 56.189801)" fill="none" stroke-linejoin="miter" d="M 1.498703 1.499426 L 36.235893 1.49822 " stroke="#1272fa" stroke-width="3" stroke-opacity="1" stroke-miterlimit="4"/><path stroke-linecap="round" transform="matrix(-0.219619, 0.714282, -0.714282, -0.219619, 135.452557, 72.071139)" fill="none" stroke-linejoin="miter" d="M 1.499554 1.501431 L 14.930656 1.500721 " stroke="#1272fa" stroke-width="3" stroke-opacity="1" stroke-miterlimit="4"/><path stroke-linecap="round" transform="matrix(-0.24476, -0.706062, 0.706062, -0.24476, 142.782656, 99.405729)" fill="none" stroke-linejoin="miter" d="M 1.497914 1.502043 L 37.172434 1.498233 " stroke="#1272fa" stroke-width="3" stroke-opacity="1" stroke-miterlimit="4"/><path stroke-linecap="round" transform="matrix(-0.747283, 0.00000000130425, -0.00000000130425, -0.747283, 62.859383, 99.200067)" fill="none" stroke-linejoin="miter" d="M 1.500238 1.501362 L 12.524556 1.501362 " stroke="#00327b" stroke-width="3" stroke-opacity="1" stroke-miterlimit="4"/><path stroke-linecap="round" transform="matrix(-0.747283, 0.00000000130425, -0.00000000130425, -0.747283, 153.111588, 99.527542)" fill="none" stroke-linejoin="miter" d="M 1.497962 1.500492 L 12.52228 1.500492 " stroke="#1272fa" stroke-width="3" stroke-opacity="1" stroke-miterlimit="4"/><path stroke-linecap="round" transform="matrix(-0.747283, 0.00000000130425, -0.00000000130425, -0.747283, 123.383037, 99.527542)" fill="none" stroke-linejoin="miter" d="M 1.500528 1.500492 L 12.524847 1.500492 " stroke="#00327b" stroke-width="3" stroke-opacity="1" stroke-miterlimit="4"/></svg>