<svg xmlns="http://www.w3.org/2000/svg" xmlns:xlink="http://www.w3.org/1999/xlink" width="275" zoomAndPan="magnify" viewBox="0 0 206.25 187.499992" height="250" preserveAspectRatio="xMidYMid meet" version="1.0"><defs><g/><clipPath id="719d53be64"><path d="M 0 0.0898438 L 205.503906 0.0898438 L 205.503906 186.910156 L 0 186.910156 Z M 0 0.0898438 " clip-rule="nonzero"/></clipPath><clipPath id="6385dc75da"><path d="M 8.96875 0.0898438 L 196.535156 0.0898438 C 198.914062 0.0898438 201.195312 1.035156 202.875 2.71875 C 204.558594 4.398438 205.503906 6.679688 205.503906 9.058594 L 205.503906 177.945312 C 205.503906 180.320312 204.558594 182.601562 202.875 184.285156 C 201.195312 185.964844 198.914062 186.910156 196.535156 186.910156 L 8.96875 186.910156 C 6.589844 186.910156 4.308594 185.964844 2.625 184.285156 C 0.945312 182.601562 0 180.320312 0 177.945312 L 0 9.058594 C 0 6.679688 0.945312 4.398438 2.625 2.71875 C 4.308594 1.035156 6.589844 0.0898438 8.96875 0.0898438 Z M 8.96875 0.0898438 " clip-rule="nonzero"/></clipPath><clipPath id="a96e382f17"><path d="M 0 0.0898438 L 205.503906 0.0898438 L 205.503906 186.910156 L 0 186.910156 Z M 0 0.0898438 " clip-rule="nonzero"/></clipPath><clipPath id="2e533b7d37"><path d="M 8.96875 0.0898438 L 196.535156 0.0898438 C 198.914062 0.0898438 201.195312 1.035156 202.875 2.71875 C 204.558594 4.398438 205.503906 6.679688 205.503906 9.058594 L 205.503906 177.945312 C 205.503906 180.320312 204.558594 182.601562 202.875 184.285156 C 201.195312 185.964844 198.914062 186.910156 196.535156 186.910156 L 8.96875 186.910156 C 6.589844 186.910156 4.308594 185.964844 2.625 184.285156 C 0.945312 182.601562 0 180.320312 0 177.945312 L 0 9.058594 C 0 6.679688 0.945312 4.398438 2.625 2.71875 C 4.308594 1.035156 6.589844 0.0898438 8.96875 0.0898438 Z M 8.96875 0.0898438 " clip-rule="nonzero"/></clipPath><clipPath id="a190f539cf"><rect x="0" width="206" y="0" height="187"/></clipPath></defs><g clip-path="url(#719d53be64)"><g clip-path="url(#6385dc75da)"><g transform="matrix(1, 0, 0, 1, 0, -0.000000000000024966)"><g clip-path="url(#a190f539cf)"><g clip-path="url(#a96e382f17)"><g clip-path="url(#2e533b7d37)"><path fill="#fbfeff" d="M 0 0.0898438 L 205.792969 0.0898438 L 205.792969 186.910156 L 0 186.910156 Z M 0 0.0898438 " fill-opacity="1" fill-rule="nonzero"/></g></g></g></g><path stroke-linecap="butt" transform="matrix(0.747283, 0, 0, 0.747283, 0, 0.09058)" fill="none" stroke-linejoin="miter" d="M 12.001819 -0.000985185 L 262.999784 -0.000985185 C 266.183193 -0.000985185 269.23592 1.264015 271.483648 3.51697 C 273.736602 5.764697 275.001602 8.817424 275.001602 12.000833 L 275.001602 238.001979 C 275.001602 241.180161 273.736602 244.232889 271.483648 246.485843 C 269.23592 248.733571 266.183193 249.998571 262.999784 249.998571 L 12.001819 249.998571 C 8.818409 249.998571 5.765682 248.733571 3.512727 246.485843 C 1.265 244.232889 0 241.180161 0 238.001979 L 0 12.000833 C 0 8.817424 1.265 5.764697 3.512727 3.51697 C 5.765682 1.264015 8.818409 -0.000985185 12.001819 -0.000985185 Z M 12.001819 -0.000985185 " stroke="#1272fa" stroke-width="4" stroke-opacity="1" stroke-miterlimit="4"/></g></g><g fill="#2563eb" fill-opacity="1"><g transform="translate(52.739464, 129.666302)"><g><path d="M 4.25 0 L 1.140625 0 L 1.140625 -12.125 L 5.546875 -12.125 C 7.097656 -12.125 8.335938 -11.738281 9.265625 -10.96875 C 10.203125 -10.1875 10.671875 -9.171875 10.671875 -7.921875 C 10.671875 -6.648438 10.203125 -5.625 9.265625 -4.84375 C 8.304688 -4.0625 7.0625 -3.671875 5.53125 -3.671875 L 4.25 -3.671875 Z M 5.796875 -9.390625 L 4.25 -9.390625 L 4.25 -6.421875 L 5.796875 -6.421875 C 6.253906 -6.421875 6.628906 -6.554688 6.921875 -6.828125 C 7.210938 -7.109375 7.359375 -7.472656 7.359375 -7.921875 C 7.359375 -8.367188 7.210938 -8.722656 6.921875 -8.984375 C 6.628906 -9.253906 6.253906 -9.390625 5.796875 -9.390625 Z M 5.796875 -9.390625 "/></g></g></g><g fill="#2563eb" fill-opacity="1"><g transform="translate(63.793, 129.666302)"><g><path d="M 4.25 0 L 1.140625 0 L 1.140625 -12.125 L 5.546875 -12.125 C 7.097656 -12.125 8.335938 -11.757812 9.265625 -11.03125 C 10.203125 -10.289062 10.671875 -9.320312 10.671875 -8.125 C 10.671875 -7.332031 10.472656 -6.632812 10.078125 -6.03125 C 9.691406 -5.4375 9.140625 -4.972656 8.421875 -4.640625 L 10.96875 0 L 7.359375 0 L 5.28125 -4.046875 L 4.25 -4.046875 Z M 5.796875 -9.390625 L 4.25 -9.390625 L 4.25 -6.796875 L 5.796875 -6.796875 C 6.253906 -6.796875 6.628906 -6.914062 6.921875 -7.15625 C 7.210938 -7.394531 7.359375 -7.71875 7.359375 -8.125 C 7.359375 -8.5 7.210938 -8.800781 6.921875 -9.03125 C 6.628906 -9.269531 6.253906 -9.390625 5.796875 -9.390625 Z M 5.796875 -9.390625 "/></g></g></g><g fill="#2563eb" fill-opacity="1"><g transform="translate(75.33865, 129.666302)"><g><path d="M 2.4375 -10.5625 C 3.675781 -11.789062 5.171875 -12.40625 6.921875 -12.40625 C 8.660156 -12.40625 10.160156 -11.789062 11.421875 -10.5625 C 12.660156 -9.300781 13.28125 -7.800781 13.28125 -6.0625 C 13.28125 -4.300781 12.660156 -2.804688 11.421875 -1.578125 C 10.160156 -0.335938 8.660156 0.28125 6.921875 0.28125 C 5.160156 0.28125 3.664062 -0.34375 2.4375 -1.59375 C 1.1875 -2.820312 0.5625 -4.3125 0.5625 -6.0625 C 0.5625 -7.820312 1.1875 -9.320312 2.4375 -10.5625 Z M 3.921875 -6.078125 C 3.921875 -5.179688 4.21875 -4.414062 4.8125 -3.78125 C 5.40625 -3.15625 6.109375 -2.84375 6.921875 -2.84375 C 7.753906 -2.84375 8.46875 -3.15625 9.0625 -3.78125 C 9.644531 -4.40625 9.9375 -5.164062 9.9375 -6.0625 C 9.9375 -6.96875 9.644531 -7.726562 9.0625 -8.34375 C 8.46875 -8.976562 7.753906 -9.296875 6.921875 -9.296875 C 6.085938 -9.296875 5.382812 -8.984375 4.8125 -8.359375 C 4.21875 -7.734375 3.921875 -6.972656 3.921875 -6.078125 Z M 3.921875 -6.078125 "/></g></g></g><g fill="#2563eb" fill-opacity="1"><g transform="translate(89.193424, 129.666302)"><g><path d="M 13.328125 0 L 9.875 0 L 9.046875 -2.296875 L 4.296875 -2.296875 L 3.46875 0 L 0.1875 0 L 4.921875 -12.125 L 8.59375 -12.125 Z M 5.296875 -5.046875 L 8.046875 -5.046875 L 6.671875 -8.8125 Z M 5.296875 -5.046875 "/></g></g></g><g fill="#2563eb" fill-opacity="1"><g transform="translate(102.70751, 129.666302)"><g><path d="M 11.5 -10.609375 L 9.421875 -8.234375 C 8.742188 -8.941406 7.898438 -9.296875 6.890625 -9.296875 C 6.054688 -9.296875 5.351562 -8.984375 4.78125 -8.359375 C 4.207031 -7.742188 3.921875 -6.984375 3.921875 -6.078125 C 3.921875 -5.179688 4.21875 -4.414062 4.8125 -3.78125 C 5.40625 -3.15625 6.144531 -2.84375 7.03125 -2.84375 C 7.488281 -2.84375 7.9375 -2.9375 8.375 -3.125 C 8.8125 -3.3125 9.160156 -3.566406 9.421875 -3.890625 L 11.5 -1.59375 C 10.46875 -0.34375 8.910156 0.28125 6.828125 0.28125 C 5.046875 0.28125 3.554688 -0.332031 2.359375 -1.5625 C 1.160156 -2.800781 0.5625 -4.304688 0.5625 -6.078125 C 0.5625 -7.828125 1.179688 -9.316406 2.421875 -10.546875 C 3.660156 -11.785156 5.132812 -12.40625 6.84375 -12.40625 C 8.863281 -12.40625 10.414062 -11.804688 11.5 -10.609375 Z M 11.5 -10.609375 "/></g></g></g><g fill="#2563eb" fill-opacity="1"><g transform="translate(114.499218, 129.666302)"><g><path d="M 9.953125 -12.125 L 9.953125 -9.203125 L 6.625 -9.203125 L 6.625 0 L 3.5 0 L 3.5 -9.203125 L 0.1875 -9.203125 L 0.1875 -12.125 Z M 9.953125 -12.125 "/></g></g></g><g fill="#2563eb" fill-opacity="1"><g transform="translate(124.644249, 129.666302)"><g><path d="M 4.25 0 L 1.140625 0 L 1.140625 -12.125 L 4.25 -12.125 Z M 4.25 0 "/></g></g></g><g fill="#2563eb" fill-opacity="1"><g transform="translate(130.038524, 129.666302)"><g><path d="M 0.28125 -12.125 L 3.734375 -12.125 L 6.5625 -3.390625 L 9.390625 -12.125 L 12.65625 -12.125 L 8.3125 0 L 4.640625 0 Z M 0.28125 -12.125 "/></g></g></g><g fill="#2563eb" fill-opacity="1"><g transform="translate(142.984794, 129.666302)"><g><path d="M 9.203125 0 L 1.140625 0 L 1.140625 -12.125 L 9.203125 -12.125 L 9.203125 -9.203125 L 4.25 -9.203125 L 4.25 -7.609375 L 8.4375 -7.609375 L 8.4375 -4.671875 L 4.25 -4.671875 L 4.25 -2.9375 L 9.203125 -2.9375 Z M 9.203125 0 "/></g></g></g><g fill="#2563eb" fill-opacity="1"><g transform="translate(33.683759, 150.590214)"><g><path d="M 11.5 -10.609375 L 9.421875 -8.234375 C 8.742188 -8.941406 7.898438 -9.296875 6.890625 -9.296875 C 6.054688 -9.296875 5.351562 -8.984375 4.78125 -8.359375 C 4.207031 -7.742188 3.921875 -6.984375 3.921875 -6.078125 C 3.921875 -5.179688 4.21875 -4.414062 4.8125 -3.78125 C 5.40625 -3.15625 6.144531 -2.84375 7.03125 -2.84375 C 7.488281 -2.84375 7.9375 -2.9375 8.375 -3.125 C 8.8125 -3.3125 9.160156 -3.566406 9.421875 -3.890625 L 11.5 -1.59375 C 10.46875 -0.34375 8.910156 0.28125 6.828125 0.28125 C 5.046875 0.28125 3.554688 -0.332031 2.359375 -1.5625 C 1.160156 -2.800781 0.5625 -4.304688 0.5625 -6.078125 C 0.5625 -7.828125 1.179688 -9.316406 2.421875 -10.546875 C 3.660156 -11.785156 5.132812 -12.40625 6.84375 -12.40625 C 8.863281 -12.40625 10.414062 -11.804688 11.5 -10.609375 Z M 11.5 -10.609375 "/></g></g></g><g fill="#2563eb" fill-opacity="1"><g transform="translate(45.475466, 150.590214)"><g><path d="M 13.328125 0 L 9.875 0 L 9.046875 -2.296875 L 4.296875 -2.296875 L 3.46875 0 L 0.1875 0 L 4.921875 -12.125 L 8.59375 -12.125 Z M 5.296875 -5.046875 L 8.046875 -5.046875 L 6.671875 -8.8125 Z M 5.296875 -5.046875 "/></g></g></g><g fill="#2563eb" fill-opacity="1"><g transform="translate(58.989552, 150.590214)"><g><path d="M 4.25 0 L 1.140625 0 L 1.140625 -12.125 L 5.546875 -12.125 C 7.097656 -12.125 8.335938 -11.738281 9.265625 -10.96875 C 10.203125 -10.1875 10.671875 -9.171875 10.671875 -7.921875 C 10.671875 -6.648438 10.203125 -5.625 9.265625 -4.84375 C 8.304688 -4.0625 7.0625 -3.671875 5.53125 -3.671875 L 4.25 -3.671875 Z M 5.796875 -9.390625 L 4.25 -9.390625 L 4.25 -6.421875 L 5.796875 -6.421875 C 6.253906 -6.421875 6.628906 -6.554688 6.921875 -6.828125 C 7.210938 -7.109375 7.359375 -7.472656 7.359375 -7.921875 C 7.359375 -8.367188 7.210938 -8.722656 6.921875 -8.984375 C 6.628906 -9.253906 6.253906 -9.390625 5.796875 -9.390625 Z M 5.796875 -9.390625 "/></g></g></g><g fill="#2563eb" fill-opacity="1"><g transform="translate(70.043088, 150.590214)"><g/></g></g><g fill="#2563eb" fill-opacity="1"><g transform="translate(74.774916, 150.590214)"><g><path d="M 5.546875 0 L 1.140625 0 L 1.140625 -12.125 L 5.546875 -12.125 C 7.523438 -12.125 9.160156 -11.550781 10.453125 -10.40625 C 11.753906 -9.257812 12.40625 -7.800781 12.40625 -6.03125 C 12.40625 -4.289062 11.757812 -2.851562 10.46875 -1.71875 C 9.164062 -0.570312 7.523438 0 5.546875 0 Z M 5.484375 -9.203125 L 4.359375 -9.203125 L 4.359375 -2.9375 L 5.5 -2.9375 C 6.570312 -2.9375 7.429688 -3.222656 8.078125 -3.796875 C 8.734375 -4.367188 9.0625 -5.128906 9.0625 -6.078125 C 9.0625 -7.003906 8.734375 -7.753906 8.078125 -8.328125 C 7.421875 -8.910156 6.554688 -9.203125 5.484375 -9.203125 Z M 5.484375 -9.203125 "/></g></g></g><g fill="#2563eb" fill-opacity="1"><g transform="translate(87.759042, 150.590214)"><g><path d="M 9.203125 0 L 1.140625 0 L 1.140625 -12.125 L 9.203125 -12.125 L 9.203125 -9.203125 L 4.25 -9.203125 L 4.25 -7.609375 L 8.4375 -7.609375 L 8.4375 -4.671875 L 4.25 -4.671875 L 4.25 -2.9375 L 9.203125 -2.9375 Z M 9.203125 0 "/></g></g></g><g fill="#2563eb" fill-opacity="1"><g transform="translate(97.525529, 150.590214)"><g><path d="M 9.953125 -12.125 L 9.953125 -9.203125 L 6.625 -9.203125 L 6.625 0 L 3.5 0 L 3.5 -9.203125 L 0.1875 -9.203125 L 0.1875 -12.125 Z M 9.953125 -12.125 "/></g></g></g><g fill="#2563eb" fill-opacity="1"><g transform="translate(107.670561, 150.590214)"><g><path d="M 9.203125 0 L 1.140625 0 L 1.140625 -12.125 L 9.203125 -12.125 L 9.203125 -9.203125 L 4.25 -9.203125 L 4.25 -7.609375 L 8.4375 -7.609375 L 8.4375 -4.671875 L 4.25 -4.671875 L 4.25 -2.9375 L 9.203125 -2.9375 Z M 9.203125 0 "/></g></g></g><g fill="#2563eb" fill-opacity="1"><g transform="translate(117.437048, 150.590214)"><g><path d="M 11.5 -10.609375 L 9.421875 -8.234375 C 8.742188 -8.941406 7.898438 -9.296875 6.890625 -9.296875 C 6.054688 -9.296875 5.351562 -8.984375 4.78125 -8.359375 C 4.207031 -7.742188 3.921875 -6.984375 3.921875 -6.078125 C 3.921875 -5.179688 4.21875 -4.414062 4.8125 -3.78125 C 5.40625 -3.15625 6.144531 -2.84375 7.03125 -2.84375 C 7.488281 -2.84375 7.9375 -2.9375 8.375 -3.125 C 8.8125 -3.3125 9.160156 -3.566406 9.421875 -3.890625 L 11.5 -1.59375 C 10.46875 -0.34375 8.910156 0.28125 6.828125 0.28125 C 5.046875 0.28125 3.554688 -0.332031 2.359375 -1.5625 C 1.160156 -2.800781 0.5625 -4.304688 0.5625 -6.078125 C 0.5625 -7.828125 1.179688 -9.316406 2.421875 -10.546875 C 3.660156 -11.785156 5.132812 -12.40625 6.84375 -12.40625 C 8.863281 -12.40625 10.414062 -11.804688 11.5 -10.609375 Z M 11.5 -10.609375 "/></g></g></g><g fill="#2563eb" fill-opacity="1"><g transform="translate(129.228755, 150.590214)"><g><path d="M 9.953125 -12.125 L 9.953125 -9.203125 L 6.625 -9.203125 L 6.625 0 L 3.5 0 L 3.5 -9.203125 L 0.1875 -9.203125 L 0.1875 -12.125 Z M 9.953125 -12.125 "/></g></g></g><g fill="#2563eb" fill-opacity="1"><g transform="translate(139.373787, 150.590214)"><g><path d="M 4.25 0 L 1.140625 0 L 1.140625 -12.125 L 4.25 -12.125 Z M 4.25 0 "/></g></g></g><g fill="#2563eb" fill-opacity="1"><g transform="translate(144.768062, 150.590214)"><g><path d="M 2.4375 -10.5625 C 3.675781 -11.789062 5.171875 -12.40625 6.921875 -12.40625 C 8.660156 -12.40625 10.160156 -11.789062 11.421875 -10.5625 C 12.660156 -9.300781 13.28125 -7.800781 13.28125 -6.0625 C 13.28125 -4.300781 12.660156 -2.804688 11.421875 -1.578125 C 10.160156 -0.335938 8.660156 0.28125 6.921875 0.28125 C 5.160156 0.28125 3.664062 -0.34375 2.4375 -1.59375 C 1.1875 -2.820312 0.5625 -4.3125 0.5625 -6.0625 C 0.5625 -7.820312 1.1875 -9.320312 2.4375 -10.5625 Z M 3.921875 -6.078125 C 3.921875 -5.179688 4.21875 -4.414062 4.8125 -3.78125 C 5.40625 -3.15625 6.109375 -2.84375 6.921875 -2.84375 C 7.753906 -2.84375 8.46875 -3.15625 9.0625 -3.78125 C 9.644531 -4.40625 9.9375 -5.164062 9.9375 -6.0625 C 9.9375 -6.96875 9.644531 -7.726562 9.0625 -8.34375 C 8.46875 -8.976562 7.753906 -9.296875 6.921875 -9.296875 C 6.085938 -9.296875 5.382812 -8.984375 4.8125 -8.359375 C 4.21875 -7.734375 3.921875 -6.972656 3.921875 -6.078125 Z M 3.921875 -6.078125 "/></g></g></g><g fill="#2563eb" fill-opacity="1"><g transform="translate(158.622835, 150.590214)"><g><path d="M 12.046875 0 L 8.703125 0 L 4.25 -6.90625 L 4.25 0 L 1.140625 0 L 1.140625 -12.125 L 4.484375 -12.125 L 8.9375 -5.109375 L 8.9375 -12.125 L 12.046875 -12.125 Z M 12.046875 0 "/></g></g></g><path stroke-linecap="round" transform="matrix(0.418385, -0.619181, 0.619181, 0.418385, 91.951062, 96.939041)" fill="none" stroke-linejoin="miter" d="M 1.501552 1.499599 L 22.415103 1.499728 " stroke="#1272f9" stroke-width="3" stroke-opacity="1" stroke-miterlimit="4"/><path stroke-linecap="round" transform="matrix(-0.747188, 0.0119165, -0.0119165, -0.747188, 94.385329, 98.316456)" fill="none" stroke-linejoin="miter" d="M 1.500802 1.498281 L 29.857093 1.500918 " stroke="#1272f9" stroke-width="3" stroke-opacity="1" stroke-miterlimit="4"/><path fill="#00327b" d="M 133.976562 65.785156 L 122.765625 65.785156 C 122.617188 65.785156 122.476562 65.757812 122.339844 65.699219 C 122.199219 65.644531 122.078125 65.5625 121.972656 65.457031 C 121.871094 65.351562 121.789062 65.230469 121.730469 65.09375 C 121.675781 64.957031 121.644531 64.8125 121.644531 64.664062 C 121.644531 64.515625 121.675781 64.375 121.730469 64.238281 C 121.789062 64.097656 121.871094 63.976562 121.972656 63.871094 C 122.078125 63.769531 122.199219 63.6875 122.339844 63.628906 C 122.476562 63.574219 122.617188 63.542969 122.765625 63.542969 L 133.976562 63.542969 C 134.125 63.542969 134.269531 63.574219 134.40625 63.628906 C 134.542969 63.6875 134.664062 63.769531 134.769531 63.871094 C 134.875 63.976562 134.957031 64.097656 135.011719 64.238281 C 135.070312 64.375 135.097656 64.515625 135.097656 64.664062 C 135.097656 64.8125 135.070312 64.957031 135.011719 65.09375 C 134.957031 65.230469 134.875 65.351562 134.769531 65.457031 C 134.664062 65.5625 134.542969 65.644531 134.40625 65.699219 C 134.269531 65.757812 134.125 65.785156 133.976562 65.785156 Z M 118.285156 65.785156 L 107.074219 65.785156 C 106.925781 65.785156 106.78125 65.757812 106.644531 65.699219 C 106.507812 65.644531 106.386719 65.5625 106.28125 65.457031 C 106.175781 65.351562 106.09375 65.230469 106.039062 65.09375 C 105.980469 64.957031 105.953125 64.8125 105.953125 64.664062 C 105.953125 64.515625 105.980469 64.375 106.039062 64.238281 C 106.09375 64.097656 106.175781 63.976562 106.28125 63.871094 C 106.386719 63.769531 106.507812 63.6875 106.644531 63.628906 C 106.78125 63.574219 106.925781 63.542969 107.074219 63.542969 L 118.285156 63.542969 C 118.433594 63.542969 118.574219 63.574219 118.710938 63.628906 C 118.851562 63.6875 118.972656 63.769531 119.074219 63.871094 C 119.179688 63.976562 119.261719 64.097656 119.320312 64.238281 C 119.375 64.375 119.40625 64.515625 119.40625 64.664062 C 119.40625 64.8125 119.375 64.957031 119.320312 65.09375 C 119.261719 65.230469 119.179688 65.351562 119.074219 65.457031 C 118.972656 65.5625 118.851562 65.644531 118.710938 65.699219 C 118.574219 65.757812 118.433594 65.785156 118.285156 65.785156 Z M 102.589844 65.785156 L 91.382812 65.785156 C 91.234375 65.785156 91.089844 65.757812 90.953125 65.699219 C 90.816406 65.644531 90.695312 65.5625 90.589844 65.457031 C 90.484375 65.351562 90.402344 65.230469 90.347656 65.09375 C 90.289062 64.957031 90.261719 64.8125 90.261719 64.664062 C 90.261719 64.515625 90.289062 64.375 90.347656 64.238281 C 90.402344 64.097656 90.484375 63.976562 90.589844 63.871094 C 90.695312 63.769531 90.816406 63.6875 90.953125 63.628906 C 91.089844 63.574219 91.234375 63.542969 91.382812 63.542969 L 102.589844 63.542969 C 102.738281 63.542969 102.882812 63.574219 103.019531 63.628906 C 103.15625 63.6875 103.277344 63.769531 103.382812 63.871094 C 103.488281 63.976562 103.570312 64.097656 103.625 64.238281 C 103.683594 64.375 103.710938 64.515625 103.710938 64.664062 C 103.710938 64.8125 103.683594 64.957031 103.625 65.09375 C 103.570312 65.230469 103.488281 65.351562 103.382812 65.457031 C 103.277344 65.5625 103.15625 65.644531 103.019531 65.699219 C 102.882812 65.757812 102.738281 65.785156 102.589844 65.785156 Z M 86.898438 65.785156 L 75.6875 65.785156 C 75.539062 65.785156 75.398438 65.757812 75.257812 65.699219 C 75.121094 65.644531 75 65.5625 74.894531 65.457031 C 74.789062 65.351562 74.710938 65.230469 74.652344 65.09375 C 74.597656 64.957031 74.566406 64.8125 74.566406 64.664062 C 74.566406 64.515625 74.597656 64.375 74.652344 64.238281 C 74.710938 64.097656 74.789062 63.976562 74.894531 63.871094 C 75 63.769531 75.121094 63.6875 75.257812 63.628906 C 75.398438 63.574219 75.539062 63.542969 75.6875 63.542969 L 86.898438 63.542969 C 87.046875 63.542969 87.1875 63.574219 87.328125 63.628906 C 87.464844 63.6875 87.585938 63.769531 87.691406 63.871094 C 87.796875 63.976562 87.875 64.097656 87.933594 64.238281 C 87.988281 64.375 88.019531 64.515625 88.019531 64.664062 C 88.019531 64.8125 87.988281 64.957031 87.933594 65.09375 C 87.875 65.230469 87.796875 65.351562 87.691406 65.457031 C 87.585938 65.5625 87.464844 65.644531 87.328125 65.699219 C 87.1875 65.757812 87.046875 65.785156 86.898438 65.785156 Z M 86.898438 65.785156 " fill-opacity="1" fill-rule="nonzero"/><path stroke-linecap="round" transform="matrix(0, -0.747283, 0.747283, 0, 70.391714, 104.976683)" fill="none" stroke-linejoin="miter" d="M 1.500389 1.498771 L 84.357892 1.498771 " stroke="#00327b" stroke-width="3" stroke-opacity="1" stroke-miterlimit="4"/><path stroke-linecap="round" transform="matrix(-0.747283, 0, 0, -0.747283, 135.097334, 104.981246)" fill="none" stroke-linejoin="miter" d="M 1.499796 1.501267 L 84.357299 1.501267 " stroke="#00327b" stroke-width="3" stroke-opacity="1" stroke-miterlimit="4"/><path fill="#1272f9" d="M 103.511719 79.398438 C 103.597656 79.277344 103.699219 79.175781 103.824219 79.09375 C 103.949219 79.011719 104.082031 78.953125 104.226562 78.925781 C 104.375 78.898438 104.519531 78.898438 104.664062 78.929688 C 104.8125 78.957031 104.945312 79.015625 105.070312 79.097656 C 105.191406 79.179688 105.296875 79.285156 105.378906 79.40625 C 105.460938 79.53125 105.515625 79.667969 105.542969 79.8125 C 105.570312 79.957031 105.570312 80.105469 105.539062 80.25 C 105.511719 80.394531 105.453125 80.53125 105.371094 80.652344 C 105.289062 80.777344 105.183594 80.878906 105.0625 80.960938 C 104.9375 81.042969 104.800781 81.097656 104.65625 81.128906 C 104.511719 81.15625 104.363281 81.15625 104.21875 81.125 C 104.074219 81.09375 103.9375 81.039062 103.816406 80.957031 C 103.691406 80.871094 103.589844 80.769531 103.507812 80.644531 C 103.425781 80.523438 103.371094 80.386719 103.34375 80.242188 C 103.3125 80.09375 103.3125 79.949219 103.34375 79.804688 C 103.375 79.65625 103.429688 79.523438 103.511719 79.398438 Z M 106.019531 75.683594 C 106.101562 75.558594 106.207031 75.457031 106.332031 75.375 C 106.453125 75.292969 106.589844 75.238281 106.734375 75.210938 C 106.882812 75.179688 107.027344 75.179688 107.171875 75.210938 C 107.320312 75.242188 107.453125 75.296875 107.578125 75.378906 C 107.699219 75.464844 107.800781 75.566406 107.882812 75.691406 C 107.964844 75.816406 108.023438 75.949219 108.050781 76.09375 C 108.078125 76.242188 108.078125 76.386719 108.046875 76.53125 C 108.019531 76.679688 107.960938 76.8125 107.878906 76.9375 C 107.796875 77.058594 107.691406 77.164062 107.566406 77.246094 C 107.445312 77.328125 107.308594 77.382812 107.164062 77.410156 C 107.015625 77.4375 106.871094 77.4375 106.726562 77.40625 C 106.582031 77.378906 106.445312 77.320312 106.324219 77.238281 C 106.199219 77.15625 106.097656 77.050781 106.015625 76.929688 C 105.933594 76.804688 105.878906 76.667969 105.847656 76.523438 C 105.820312 76.378906 105.820312 76.230469 105.851562 76.085938 C 105.878906 75.941406 105.9375 75.804688 106.019531 75.683594 Z M 108.527344 71.964844 C 108.609375 71.84375 108.714844 71.738281 108.839844 71.65625 C 108.960938 71.574219 109.097656 71.519531 109.242188 71.492188 C 109.390625 71.464844 109.535156 71.464844 109.679688 71.492188 C 109.824219 71.523438 109.960938 71.578125 110.082031 71.664062 C 110.207031 71.746094 110.308594 71.847656 110.390625 71.972656 C 110.472656 72.097656 110.527344 72.230469 110.558594 72.378906 C 110.585938 72.523438 110.585938 72.667969 110.554688 72.816406 C 110.527344 72.960938 110.46875 73.09375 110.386719 73.21875 C 110.304688 73.34375 110.199219 73.445312 110.074219 73.527344 C 109.953125 73.609375 109.816406 73.664062 109.671875 73.691406 C 109.523438 73.722656 109.378906 73.71875 109.234375 73.691406 C 109.085938 73.660156 108.953125 73.605469 108.828125 73.523438 C 108.707031 73.4375 108.605469 73.335938 108.523438 73.210938 C 108.441406 73.085938 108.386719 72.953125 108.355469 72.804688 C 108.328125 72.660156 108.328125 72.515625 108.359375 72.367188 C 108.386719 72.222656 108.445312 72.089844 108.527344 71.964844 Z M 111.035156 68.25 L 111.035156 68.246094 C 111.117188 68.125 111.222656 68.023438 111.347656 67.941406 C 111.46875 67.859375 111.605469 67.800781 111.75 67.773438 C 111.894531 67.746094 112.042969 67.746094 112.1875 67.777344 C 112.332031 67.804688 112.46875 67.863281 112.589844 67.945312 C 112.714844 68.027344 112.816406 68.132812 112.898438 68.257812 C 112.980469 68.378906 113.035156 68.515625 113.066406 68.660156 C 113.09375 68.808594 113.09375 68.953125 113.0625 69.097656 C 113.03125 69.242188 112.976562 69.378906 112.894531 69.5 C 112.808594 69.625 112.707031 69.726562 112.582031 69.808594 C 112.460938 69.890625 112.324219 69.945312 112.179688 69.976562 C 112.03125 70.003906 111.886719 70.003906 111.742188 69.972656 C 111.59375 69.945312 111.460938 69.886719 111.335938 69.804688 C 111.214844 69.722656 111.113281 69.617188 111.03125 69.492188 C 110.949219 69.371094 110.890625 69.234375 110.863281 69.089844 C 110.835938 68.941406 110.835938 68.796875 110.867188 68.652344 C 110.894531 68.503906 110.953125 68.371094 111.035156 68.25 Z M 113.542969 64.53125 C 113.625 64.40625 113.730469 64.304688 113.851562 64.222656 C 113.976562 64.140625 114.113281 64.085938 114.257812 64.058594 C 114.402344 64.027344 114.550781 64.027344 114.695312 64.058594 C 114.839844 64.089844 114.976562 64.144531 115.097656 64.226562 C 115.222656 64.3125 115.324219 64.414062 115.40625 64.539062 C 115.488281 64.664062 115.542969 64.796875 115.570312 64.945312 C 115.601562 65.089844 115.601562 65.234375 115.570312 65.378906 C 115.539062 65.527344 115.484375 65.660156 115.402344 65.785156 C 115.316406 65.90625 115.214844 66.011719 115.089844 66.09375 C 114.964844 66.175781 114.832031 66.230469 114.683594 66.257812 C 114.539062 66.285156 114.394531 66.285156 114.25 66.257812 C 114.101562 66.226562 113.96875 66.171875 113.84375 66.085938 C 113.722656 66.003906 113.617188 65.898438 113.535156 65.777344 C 113.453125 65.652344 113.398438 65.515625 113.371094 65.371094 C 113.34375 65.226562 113.34375 65.078125 113.375 64.933594 C 113.402344 64.789062 113.460938 64.652344 113.542969 64.53125 Z M 116.050781 60.8125 C 116.132812 60.691406 116.238281 60.585938 116.359375 60.503906 C 116.484375 60.421875 116.621094 60.367188 116.765625 60.339844 C 116.910156 60.3125 117.058594 60.3125 117.203125 60.339844 C 117.347656 60.371094 117.484375 60.425781 117.605469 60.511719 C 117.730469 60.59375 117.832031 60.699219 117.914062 60.820312 C 117.996094 60.945312 118.050781 61.082031 118.078125 61.226562 C 118.109375 61.371094 118.105469 61.519531 118.078125 61.664062 C 118.046875 61.808594 117.992188 61.945312 117.910156 62.066406 C 117.824219 62.191406 117.722656 62.292969 117.597656 62.375 C 117.472656 62.457031 117.339844 62.511719 117.191406 62.539062 C 117.046875 62.570312 116.902344 62.566406 116.753906 62.539062 C 116.609375 62.507812 116.476562 62.453125 116.351562 62.371094 C 116.230469 62.285156 116.125 62.183594 116.042969 62.058594 C 115.960938 61.933594 115.90625 61.800781 115.878906 61.652344 C 115.851562 61.507812 115.851562 61.363281 115.878906 61.214844 C 115.910156 61.070312 115.964844 60.9375 116.050781 60.8125 Z M 118.558594 57.097656 C 118.640625 56.972656 118.742188 56.871094 118.867188 56.789062 C 118.992188 56.707031 119.125 56.652344 119.273438 56.621094 C 119.417969 56.59375 119.5625 56.59375 119.710938 56.625 C 119.855469 56.652344 119.988281 56.710938 120.113281 56.792969 C 120.238281 56.875 120.339844 56.980469 120.421875 57.105469 C 120.503906 57.226562 120.558594 57.363281 120.585938 57.507812 C 120.613281 57.65625 120.613281 57.800781 120.585938 57.945312 C 120.554688 58.09375 120.5 58.226562 120.414062 58.347656 L 120.414062 58.351562 C 120.332031 58.472656 120.230469 58.574219 120.105469 58.65625 C 119.980469 58.738281 119.847656 58.792969 119.699219 58.824219 C 119.554688 58.851562 119.410156 58.851562 119.261719 58.820312 C 119.117188 58.792969 118.984375 58.734375 118.859375 58.652344 C 118.738281 58.570312 118.632812 58.464844 118.550781 58.339844 C 118.46875 58.21875 118.414062 58.082031 118.386719 57.9375 C 118.359375 57.789062 118.359375 57.644531 118.386719 57.5 C 118.417969 57.355469 118.472656 57.21875 118.558594 57.097656 Z M 121.066406 53.378906 C 121.148438 53.253906 121.25 53.152344 121.375 53.070312 C 121.5 52.988281 121.632812 52.933594 121.78125 52.90625 C 121.925781 52.875 122.070312 52.878906 122.21875 52.90625 C 122.363281 52.9375 122.496094 52.992188 122.621094 53.074219 C 122.742188 53.160156 122.847656 53.261719 122.929688 53.386719 C 123.011719 53.511719 123.066406 53.644531 123.09375 53.792969 C 123.121094 53.9375 123.121094 54.082031 123.09375 54.230469 C 123.0625 54.375 123.007812 54.507812 122.921875 54.632812 C 122.839844 54.753906 122.738281 54.859375 122.613281 54.941406 C 122.488281 55.023438 122.355469 55.078125 122.207031 55.105469 C 122.0625 55.132812 121.914062 55.132812 121.769531 55.105469 C 121.625 55.074219 121.488281 55.019531 121.367188 54.933594 C 121.242188 54.851562 121.140625 54.75 121.058594 54.625 C 120.976562 54.5 120.921875 54.367188 120.894531 54.21875 C 120.863281 54.074219 120.867188 53.925781 120.894531 53.78125 C 120.925781 53.636719 120.980469 53.5 121.066406 53.378906 Z M 123.570312 49.660156 C 123.65625 49.539062 123.757812 49.433594 123.882812 49.351562 C 124.007812 49.269531 124.140625 49.214844 124.289062 49.1875 C 124.433594 49.160156 124.578125 49.160156 124.726562 49.191406 C 124.871094 49.21875 125.003906 49.277344 125.128906 49.359375 C 125.25 49.441406 125.355469 49.546875 125.4375 49.667969 C 125.519531 49.792969 125.574219 49.929688 125.601562 50.074219 C 125.628906 50.21875 125.628906 50.367188 125.601562 50.511719 C 125.570312 50.65625 125.515625 50.792969 125.429688 50.914062 C 125.347656 51.039062 125.242188 51.140625 125.121094 51.222656 C 124.996094 51.304688 124.859375 51.359375 124.714844 51.386719 C 124.570312 51.417969 124.421875 51.417969 124.277344 51.386719 C 124.132812 51.355469 123.996094 51.300781 123.875 51.21875 C 123.75 51.132812 123.648438 51.03125 123.566406 50.90625 C 123.484375 50.78125 123.429688 50.648438 123.402344 50.503906 C 123.371094 50.355469 123.375 50.210938 123.402344 50.066406 C 123.433594 49.917969 123.488281 49.785156 123.570312 49.660156 Z M 123.570312 49.660156 " fill-opacity="1" fill-rule="nonzero"/></svg>