<svg xmlns="http://www.w3.org/2000/svg" xmlns:xlink="http://www.w3.org/1999/xlink" width="61" zoomAndPan="magnify" viewBox="0 0 45.75 30.000001" height="40" preserveAspectRatio="xMidYMid meet" version="1.2"><defs><clipPath id="e91f1220c7"><path d="M 7.742188 12.925781 L 37.761719 12.925781 L 37.761719 18.636719 L 7.742188 18.636719 Z M 7.742188 12.925781 "/></clipPath><clipPath id="547194f7e0"><path d="M 7.742188 12.925781 L 19.085938 12.925781 L 19.085938 18.636719 L 7.742188 18.636719 Z M 7.742188 12.925781 "/></clipPath></defs><g id="6af7761863"><g style="fill:#808080;fill-opacity:1;"><g transform="translate(8.973762, 9.602598)"><path style="stroke:none" d="M 3.65625 0 L 2.0625 0 L 0.09375 -5.3125 L 1.5 -5.3125 L 2.828125 -1.53125 L 2.9375 -1.53125 L 4.25 -5.3125 L 5.625 -5.3125 Z M 3.65625 0 "/></g><g transform="translate(14.693587, 9.602598)"><path style="stroke:none" d="M 2.078125 0.09375 C 1.734375 0.09375 1.4375 0.03125 1.1875 -0.09375 C 0.9375 -0.21875 0.742188 -0.398438 0.609375 -0.640625 C 0.472656 -0.878906 0.40625 -1.171875 0.40625 -1.515625 C 0.40625 -1.828125 0.472656 -2.085938 0.609375 -2.296875 C 0.742188 -2.515625 0.953125 -2.691406 1.234375 -2.828125 C 1.515625 -2.960938 1.882812 -3.070312 2.34375 -3.15625 C 2.664062 -3.195312 2.90625 -3.25 3.0625 -3.3125 C 3.226562 -3.375 3.335938 -3.441406 3.390625 -3.515625 C 3.453125 -3.597656 3.484375 -3.695312 3.484375 -3.8125 C 3.484375 -3.988281 3.425781 -4.117188 3.3125 -4.203125 C 3.195312 -4.296875 3 -4.34375 2.71875 -4.34375 C 2.425781 -4.34375 2.144531 -4.273438 1.875 -4.140625 C 1.601562 -4.015625 1.375 -3.84375 1.1875 -3.625 L 1.078125 -3.625 L 0.53125 -4.46875 C 0.800781 -4.769531 1.128906 -5.003906 1.515625 -5.171875 C 1.898438 -5.335938 2.320312 -5.421875 2.78125 -5.421875 C 3.488281 -5.421875 4 -5.269531 4.3125 -4.96875 C 4.625 -4.664062 4.78125 -4.242188 4.78125 -3.703125 L 4.78125 -1.390625 C 4.78125 -1.148438 4.882812 -1.03125 5.09375 -1.03125 C 5.175781 -1.03125 5.257812 -1.046875 5.34375 -1.078125 L 5.40625 -1.0625 L 5.5 -0.125 C 5.425781 -0.0703125 5.320312 -0.03125 5.1875 0 C 5.0625 0.0195312 4.921875 0.03125 4.765625 0.03125 C 4.441406 0.03125 4.191406 -0.0234375 4.015625 -0.140625 C 3.835938 -0.265625 3.707031 -0.457031 3.625 -0.71875 L 3.53125 -0.734375 C 3.269531 -0.179688 2.785156 0.09375 2.078125 0.09375 Z M 2.5 -0.890625 C 2.800781 -0.890625 3.046875 -0.992188 3.234375 -1.203125 C 3.421875 -1.410156 3.515625 -1.703125 3.515625 -2.078125 L 3.515625 -2.609375 L 3.421875 -2.625 C 3.335938 -2.5625 3.226562 -2.507812 3.09375 -2.46875 C 2.96875 -2.425781 2.785156 -2.382812 2.546875 -2.34375 C 2.253906 -2.289062 2.046875 -2.207031 1.921875 -2.09375 C 1.796875 -1.976562 1.734375 -1.8125 1.734375 -1.59375 C 1.734375 -1.363281 1.800781 -1.1875 1.9375 -1.0625 C 2.070312 -0.945312 2.257812 -0.890625 2.5 -0.890625 Z M 2.5 -0.890625 "/></g><g transform="translate(20.302489, 9.602598)"><path style="stroke:none" d="M 2.203125 0.09375 C 1.722656 0.09375 1.359375 -0.03125 1.109375 -0.28125 C 0.859375 -0.539062 0.734375 -0.9375 0.734375 -1.46875 L 0.734375 -7.453125 L 2.0625 -7.453125 L 2.0625 -1.515625 C 2.0625 -1.191406 2.195312 -1.03125 2.46875 -1.03125 C 2.550781 -1.03125 2.632812 -1.046875 2.71875 -1.078125 L 2.78125 -1.046875 L 2.90625 -0.03125 C 2.832031 0.0078125 2.734375 0.0390625 2.609375 0.0625 C 2.492188 0.0820312 2.359375 0.09375 2.203125 0.09375 Z M 2.203125 0.09375 "/></g><g transform="translate(23.360136, 9.602598)"><path style="stroke:none" d="M 2.4375 0.09375 C 1.832031 0.09375 1.390625 -0.0664062 1.109375 -0.390625 C 0.828125 -0.710938 0.6875 -1.179688 0.6875 -1.796875 L 0.6875 -5.3125 L 2.015625 -5.3125 L 2.015625 -1.96875 C 2.015625 -1.632812 2.082031 -1.394531 2.21875 -1.25 C 2.363281 -1.101562 2.582031 -1.03125 2.875 -1.03125 C 3.25 -1.03125 3.535156 -1.148438 3.734375 -1.390625 C 3.941406 -1.628906 4.046875 -2.007812 4.046875 -2.53125 L 4.046875 -5.3125 L 5.390625 -5.3125 L 5.390625 0 L 4.109375 0 L 4.109375 -0.78125 L 4 -0.8125 C 3.832031 -0.5 3.625 -0.269531 3.375 -0.125 C 3.132812 0.0195312 2.820312 0.09375 2.4375 0.09375 Z M 2.4375 0.09375 "/></g><g transform="translate(29.514013, 9.602598)"><path style="stroke:none" d="M 5.25 -2.359375 L 1.84375 -2.359375 C 1.875 -1.890625 2 -1.550781 2.21875 -1.34375 C 2.445312 -1.132812 2.757812 -1.03125 3.15625 -1.03125 C 3.457031 -1.03125 3.703125 -1.085938 3.890625 -1.203125 C 4.085938 -1.316406 4.242188 -1.488281 4.359375 -1.71875 L 4.453125 -1.71875 L 5.34375 -1.15625 C 5.164062 -0.78125 4.898438 -0.476562 4.546875 -0.25 C 4.203125 -0.0195312 3.738281 0.09375 3.15625 0.09375 C 2.601562 0.09375 2.125 -0.0078125 1.71875 -0.21875 C 1.320312 -0.425781 1.015625 -0.734375 0.796875 -1.140625 C 0.585938 -1.554688 0.484375 -2.0625 0.484375 -2.65625 C 0.484375 -3.257812 0.59375 -3.769531 0.8125 -4.1875 C 1.039062 -4.601562 1.347656 -4.910156 1.734375 -5.109375 C 2.128906 -5.316406 2.570312 -5.421875 3.0625 -5.421875 C 3.8125 -5.421875 4.382812 -5.21875 4.78125 -4.8125 C 5.1875 -4.414062 5.390625 -3.832031 5.390625 -3.0625 C 5.390625 -2.78125 5.378906 -2.566406 5.359375 -2.421875 Z M 4.109375 -3.21875 C 4.097656 -3.625 4.003906 -3.921875 3.828125 -4.109375 C 3.648438 -4.296875 3.394531 -4.390625 3.0625 -4.390625 C 2.382812 -4.390625 1.984375 -4 1.859375 -3.21875 Z M 4.109375 -3.21875 "/></g></g><g style="fill:#808080;fill-opacity:1;"><g transform="translate(12.51309, 26.252264)"><path style="stroke:none" d="M 0.546875 0 L 0.546875 -3.828125 L 1.46875 -3.828125 L 1.46875 -3.265625 L 1.546875 -3.234375 C 1.785156 -3.671875 2.171875 -3.890625 2.703125 -3.890625 C 3.140625 -3.890625 3.460938 -3.769531 3.671875 -3.53125 C 3.878906 -3.289062 3.984375 -2.941406 3.984375 -2.484375 L 3.984375 0 L 3.03125 0 L 3.03125 -2.359375 C 3.03125 -2.617188 2.976562 -2.800781 2.875 -2.90625 C 2.769531 -3.019531 2.609375 -3.078125 2.390625 -3.078125 C 2.109375 -3.078125 1.890625 -2.988281 1.734375 -2.8125 C 1.585938 -2.632812 1.515625 -2.359375 1.515625 -1.984375 L 1.515625 0 Z M 0.546875 0 "/></g></g><g style="fill:#808080;fill-opacity:1;"><g transform="translate(16.983649, 26.252264)"><path style="stroke:none" d="M 1.484375 0.078125 C 1.242188 0.078125 1.03125 0.03125 0.84375 -0.0625 C 0.664062 -0.15625 0.53125 -0.285156 0.4375 -0.453125 C 0.34375 -0.628906 0.296875 -0.84375 0.296875 -1.09375 C 0.296875 -1.3125 0.34375 -1.5 0.4375 -1.65625 C 0.53125 -1.8125 0.675781 -1.9375 0.875 -2.03125 C 1.082031 -2.132812 1.351562 -2.210938 1.6875 -2.265625 C 1.914062 -2.296875 2.085938 -2.332031 2.203125 -2.375 C 2.328125 -2.425781 2.40625 -2.476562 2.4375 -2.53125 C 2.476562 -2.582031 2.5 -2.65625 2.5 -2.75 C 2.5 -2.863281 2.457031 -2.953125 2.375 -3.015625 C 2.289062 -3.085938 2.148438 -3.125 1.953125 -3.125 C 1.742188 -3.125 1.539062 -3.078125 1.34375 -2.984375 C 1.15625 -2.890625 0.988281 -2.765625 0.84375 -2.609375 L 0.78125 -2.609375 L 0.375 -3.203125 C 0.570312 -3.421875 0.804688 -3.585938 1.078125 -3.703125 C 1.359375 -3.828125 1.664062 -3.890625 2 -3.890625 C 2.507812 -3.890625 2.875 -3.78125 3.09375 -3.5625 C 3.320312 -3.351562 3.4375 -3.050781 3.4375 -2.65625 L 3.4375 -1 C 3.4375 -0.820312 3.515625 -0.734375 3.671875 -0.734375 C 3.722656 -0.734375 3.773438 -0.742188 3.828125 -0.765625 L 3.890625 -0.765625 L 3.953125 -0.09375 C 3.898438 -0.0507812 3.828125 -0.0195312 3.734375 0 C 3.640625 0.0195312 3.535156 0.03125 3.421875 0.03125 C 3.191406 0.03125 3.007812 -0.0078125 2.875 -0.09375 C 2.75 -0.1875 2.660156 -0.328125 2.609375 -0.515625 L 2.53125 -0.515625 C 2.34375 -0.117188 1.992188 0.078125 1.484375 0.078125 Z M 1.796875 -0.640625 C 2.015625 -0.640625 2.191406 -0.710938 2.328125 -0.859375 C 2.460938 -1.015625 2.53125 -1.222656 2.53125 -1.484375 L 2.53125 -1.875 L 2.453125 -1.890625 C 2.398438 -1.847656 2.328125 -1.8125 2.234375 -1.78125 C 2.140625 -1.75 2.003906 -1.71875 1.828125 -1.6875 C 1.617188 -1.644531 1.46875 -1.582031 1.375 -1.5 C 1.289062 -1.414062 1.25 -1.296875 1.25 -1.140625 C 1.25 -0.984375 1.296875 -0.859375 1.390625 -0.765625 C 1.484375 -0.679688 1.617188 -0.640625 1.796875 -0.640625 Z M 1.796875 -0.640625 "/></g></g><g style="fill:#808080;fill-opacity:1;"><g transform="translate(21.007844, 26.252264)"><path style="stroke:none" d="M 0.546875 0 L 0.546875 -3.828125 L 1.46875 -3.828125 L 1.46875 -3.3125 L 1.546875 -3.296875 C 1.671875 -3.503906 1.816406 -3.65625 1.984375 -3.75 C 2.148438 -3.84375 2.363281 -3.890625 2.625 -3.890625 C 2.914062 -3.890625 3.144531 -3.832031 3.3125 -3.71875 C 3.488281 -3.601562 3.617188 -3.4375 3.703125 -3.21875 L 3.78125 -3.21875 C 3.894531 -3.445312 4.046875 -3.613281 4.234375 -3.71875 C 4.421875 -3.832031 4.648438 -3.890625 4.921875 -3.890625 C 5.710938 -3.890625 6.109375 -3.445312 6.109375 -2.5625 L 6.109375 0 L 5.15625 0 L 5.15625 -2.453125 C 5.15625 -2.671875 5.109375 -2.828125 5.015625 -2.921875 C 4.929688 -3.023438 4.796875 -3.078125 4.609375 -3.078125 C 4.078125 -3.078125 3.8125 -2.726562 3.8125 -2.03125 L 3.8125 0 L 2.859375 0 L 2.859375 -2.453125 C 2.859375 -2.671875 2.8125 -2.828125 2.71875 -2.921875 C 2.632812 -3.023438 2.492188 -3.078125 2.296875 -3.078125 C 2.046875 -3.078125 1.851562 -2.992188 1.71875 -2.828125 C 1.582031 -2.671875 1.515625 -2.410156 1.515625 -2.046875 L 1.515625 0 Z M 0.546875 0 "/></g></g><g style="fill:#808080;fill-opacity:1;"><g transform="translate(27.609876, 26.252264)"><path style="stroke:none" d="M 3.78125 -1.6875 L 1.3125 -1.6875 C 1.34375 -1.351562 1.4375 -1.109375 1.59375 -0.953125 C 1.757812 -0.804688 1.984375 -0.734375 2.265625 -0.734375 C 2.484375 -0.734375 2.660156 -0.773438 2.796875 -0.859375 C 2.929688 -0.941406 3.039062 -1.066406 3.125 -1.234375 L 3.203125 -1.234375 L 3.84375 -0.828125 C 3.71875 -0.554688 3.523438 -0.335938 3.265625 -0.171875 C 3.015625 -0.00390625 2.679688 0.078125 2.265625 0.078125 C 1.867188 0.078125 1.523438 0.00390625 1.234375 -0.140625 C 0.953125 -0.296875 0.734375 -0.519531 0.578125 -0.8125 C 0.421875 -1.113281 0.34375 -1.476562 0.34375 -1.90625 C 0.34375 -2.34375 0.421875 -2.707031 0.578125 -3 C 0.742188 -3.300781 0.96875 -3.523438 1.25 -3.671875 C 1.53125 -3.816406 1.847656 -3.890625 2.203125 -3.890625 C 2.734375 -3.890625 3.144531 -3.742188 3.4375 -3.453125 C 3.726562 -3.171875 3.875 -2.753906 3.875 -2.203125 C 3.875 -2.003906 3.863281 -1.847656 3.84375 -1.734375 Z M 2.953125 -2.3125 C 2.941406 -2.601562 2.875 -2.816406 2.75 -2.953125 C 2.625 -3.085938 2.441406 -3.15625 2.203125 -3.15625 C 1.710938 -3.15625 1.425781 -2.875 1.34375 -2.3125 Z M 2.953125 -2.3125 "/></g></g><g clip-rule="nonzero" clip-path="url(#e91f1220c7)"><path style=" stroke:none;fill-rule:nonzero;fill:#9eff95;fill-opacity:1;" d="M 37.761719 12.925781 L 37.761719 18.636719 L 7.738281 18.636719 L 7.738281 12.925781 Z M 37.761719 12.925781 "/></g><g clip-rule="nonzero" clip-path="url(#547194f7e0)"><path style=" stroke:none;fill-rule:nonzero;fill:#56d84a;fill-opacity:1;" d="M 19.085938 12.925781 L 19.085938 18.636719 L 7.734375 18.636719 L 7.734375 12.925781 Z M 19.085938 12.925781 "/></g></g></svg>