<svg xmlns="http://www.w3.org/2000/svg" xmlns:xlink="http://www.w3.org/1999/xlink" width="61" zoomAndPan="magnify" viewBox="0 0 46.079998 37.92" height="40" preserveAspectRatio="xMidYMid meet" version="1.2"><defs><clipPath id="5b6191ff7e"><path d="M 34.761719 11.851562 L 41.136719 11.851562 L 41.136719 18.226562 L 34.761719 18.226562 Z M 34.761719 11.851562 "/></clipPath><clipPath id="9deeadd4c7"><path d="M 37.949219 11.851562 C 36.1875 11.851562 34.761719 13.277344 34.761719 15.039062 C 34.761719 16.796875 36.1875 18.226562 37.949219 18.226562 C 39.710938 18.226562 41.136719 16.796875 41.136719 15.039062 C 41.136719 13.277344 39.710938 11.851562 37.949219 11.851562 Z M 37.949219 11.851562 "/></clipPath><clipPath id="c4cd7f8df6"><path d="M 11.960938 11.851562 L 18.335938 11.851562 L 18.335938 18.226562 L 11.960938 18.226562 Z M 11.960938 11.851562 "/></clipPath><clipPath id="241710d720"><path d="M 15.148438 11.851562 C 13.390625 11.851562 11.960938 13.277344 11.960938 15.039062 C 11.960938 16.796875 13.390625 18.226562 15.148438 18.226562 C 16.910156 18.226562 18.335938 16.796875 18.335938 15.039062 C 18.335938 13.277344 16.910156 11.851562 15.148438 11.851562 Z M 15.148438 11.851562 "/></clipPath><clipPath id="ceea6f01a5"><path d="M 0 0.332031 L 44.855469 0.332031 L 44.855469 29.746094 L 0 29.746094 Z M 0 0.332031 "/></clipPath></defs><g id="b558828c75"><path style="fill:none;stroke-width:19;stroke-linecap:round;stroke-linejoin:miter;stroke:#e4e2df;stroke-opacity:1;stroke-miterlimit:4;" d="M 9.491121 9.506994 L 161.418485 9.506994 " transform="matrix(0.195946,0,0,0.195946,3.718379,13.355894)"/><g clip-rule="nonzero" clip-path="url(#5b6191ff7e)"><g clip-rule="nonzero" clip-path="url(#9deeadd4c7)"><path style=" stroke:none;fill-rule:nonzero;fill:#585958;fill-opacity:1;" d="M 34.761719 11.851562 L 41.136719 11.851562 L 41.136719 18.226562 L 34.761719 18.226562 Z M 34.761719 11.851562 "/></g></g><g clip-rule="nonzero" clip-path="url(#c4cd7f8df6)"><g clip-rule="nonzero" clip-path="url(#241710d720)"><path style=" stroke:none;fill-rule:nonzero;fill:#585958;fill-opacity:1;" d="M 11.960938 11.851562 L 18.335938 11.851562 L 18.335938 18.226562 L 11.960938 18.226562 Z M 11.960938 11.851562 "/></g></g><g clip-rule="nonzero" clip-path="url(#ceea6f01a5)"><path style="fill:none;stroke-width:19;stroke-linecap:round;stroke-linejoin:miter;stroke:#585958;stroke-opacity:1;stroke-miterlimit:4;" d="M 9.502968 9.495223 L 117.356061 9.495662 " transform="matrix(0.195941,0.00141171,-0.00141171,0.195941,11.975605,13.176865)"/></g></g></svg>