<svg xmlns="http://www.w3.org/2000/svg" xmlns:xlink="http://www.w3.org/1999/xlink" width="275" zoomAndPan="magnify" viewBox="0 0 206.25 187.499992" height="250" preserveAspectRatio="xMidYMid meet" version="1.0"><defs><g/><clipPath id="c5c650d710"><path d="M 0 0.0898438 L 205.503906 0.0898438 L 205.503906 186.910156 L 0 186.910156 Z M 0 0.0898438 " clip-rule="nonzero"/></clipPath><clipPath id="41469e7445"><path d="M 8.96875 0.0898438 L 196.535156 0.0898438 C 198.914062 0.0898438 201.195312 1.035156 202.875 2.71875 C 204.558594 4.398438 205.503906 6.679688 205.503906 9.058594 L 205.503906 177.945312 C 205.503906 180.320312 204.558594 182.601562 202.875 184.285156 C 201.195312 185.964844 198.914062 186.910156 196.535156 186.910156 L 8.96875 186.910156 C 6.589844 186.910156 4.308594 185.964844 2.625 184.285156 C 0.945312 182.601562 0 180.320312 0 177.945312 L 0 9.058594 C 0 6.679688 0.945312 4.398438 2.625 2.71875 C 4.308594 1.035156 6.589844 0.0898438 8.96875 0.0898438 Z M 8.96875 0.0898438 " clip-rule="nonzero"/></clipPath><clipPath id="ae2b6f70d6"><path d="M 0 0.0898438 L 205.503906 0.0898438 L 205.503906 186.910156 L 0 186.910156 Z M 0 0.0898438 " clip-rule="nonzero"/></clipPath><clipPath id="3f34d4b268"><path d="M 8.96875 0.0898438 L 196.535156 0.0898438 C 198.914062 0.0898438 201.195312 1.035156 202.875 2.71875 C 204.558594 4.398438 205.503906 6.679688 205.503906 9.058594 L 205.503906 177.945312 C 205.503906 180.320312 204.558594 182.601562 202.875 184.285156 C 201.195312 185.964844 198.914062 186.910156 196.535156 186.910156 L 8.96875 186.910156 C 6.589844 186.910156 4.308594 185.964844 2.625 184.285156 C 0.945312 182.601562 0 180.320312 0 177.945312 L 0 9.058594 C 0 6.679688 0.945312 4.398438 2.625 2.71875 C 4.308594 1.035156 6.589844 0.0898438 8.96875 0.0898438 Z M 8.96875 0.0898438 " clip-rule="nonzero"/></clipPath><clipPath id="443d109f8d"><rect x="0" width="206" y="0" height="187"/></clipPath></defs><g clip-path="url(#c5c650d710)"><g clip-path="url(#41469e7445)"><g transform="matrix(1, 0, 0, 1, 0, -0.000000000000024966)"><g clip-path="url(#443d109f8d)"><g clip-path="url(#ae2b6f70d6)"><g clip-path="url(#3f34d4b268)"><path fill="#fbfeff" d="M 0 0.0898438 L 205.792969 0.0898438 L 205.792969 186.910156 L 0 186.910156 Z M 0 0.0898438 " fill-opacity="1" fill-rule="nonzero"/></g></g></g></g><path stroke-linecap="butt" transform="matrix(0.747283, 0, 0, 0.747283, 0, 0.09058)" fill="none" stroke-linejoin="miter" d="M 12.001819 -0.000985185 L 262.999784 -0.000985185 C 266.183193 -0.000985185 269.23592 1.264015 271.483648 3.51697 C 273.736602 5.764697 275.001602 8.817424 275.001602 12.000833 L 275.001602 238.001979 C 275.001602 241.180161 273.736602 244.232889 271.483648 246.485843 C 269.23592 248.733571 266.183193 249.998571 262.999784 249.998571 L 12.001819 249.998571 C 8.818409 249.998571 5.765682 248.733571 3.512727 246.485843 C 1.265 244.232889 0 241.180161 0 238.001979 L 0 12.000833 C 0 8.817424 1.265 5.764697 3.512727 3.51697 C 5.765682 1.264015 8.818409 -0.000985185 12.001819 -0.000985185 Z M 12.001819 -0.000985185 " stroke="#1272fa" stroke-width="4" stroke-opacity="1" stroke-miterlimit="4"/></g></g><g fill="#2563eb" fill-opacity="1"><g transform="translate(59.063347, 129.666302)"><g><path d="M 4.25 0 L 1.140625 0 L 1.140625 -12.125 L 5.546875 -12.125 C 7.097656 -12.125 8.335938 -11.757812 9.265625 -11.03125 C 10.203125 -10.289062 10.671875 -9.320312 10.671875 -8.125 C 10.671875 -7.332031 10.472656 -6.632812 10.078125 -6.03125 C 9.691406 -5.4375 9.140625 -4.972656 8.421875 -4.640625 L 10.96875 0 L 7.359375 0 L 5.28125 -4.046875 L 4.25 -4.046875 Z M 5.796875 -9.390625 L 4.25 -9.390625 L 4.25 -6.796875 L 5.796875 -6.796875 C 6.253906 -6.796875 6.628906 -6.914062 6.921875 -7.15625 C 7.210938 -7.394531 7.359375 -7.71875 7.359375 -8.125 C 7.359375 -8.5 7.210938 -8.800781 6.921875 -9.03125 C 6.628906 -9.269531 6.253906 -9.390625 5.796875 -9.390625 Z M 5.796875 -9.390625 "/></g></g></g><g fill="#2563eb" fill-opacity="1"><g transform="translate(70.608997, 129.666302)"><g><path d="M 9.203125 0 L 1.140625 0 L 1.140625 -12.125 L 9.203125 -12.125 L 9.203125 -9.203125 L 4.25 -9.203125 L 4.25 -7.609375 L 8.4375 -7.609375 L 8.4375 -4.671875 L 4.25 -4.671875 L 4.25 -2.9375 L 9.203125 -2.9375 Z M 9.203125 0 "/></g></g></g><g fill="#2563eb" fill-opacity="1"><g transform="translate(80.375484, 129.666302)"><g><path d="M 9.765625 0 L 1.140625 0 L 1.140625 -12.125 L 4.25 -12.125 L 4.25 -2.9375 L 9.765625 -2.9375 Z M 9.765625 0 "/></g></g></g><g fill="#2563eb" fill-opacity="1"><g transform="translate(90.331243, 129.666302)"><g><path d="M 13.328125 0 L 9.875 0 L 9.046875 -2.296875 L 4.296875 -2.296875 L 3.46875 0 L 0.1875 0 L 4.921875 -12.125 L 8.59375 -12.125 Z M 5.296875 -5.046875 L 8.046875 -5.046875 L 6.671875 -8.8125 Z M 5.296875 -5.046875 "/></g></g></g><g fill="#2563eb" fill-opacity="1"><g transform="translate(103.845329, 129.666302)"><g><path d="M 9.953125 -12.125 L 9.953125 -9.203125 L 6.625 -9.203125 L 6.625 0 L 3.5 0 L 3.5 -9.203125 L 0.1875 -9.203125 L 0.1875 -12.125 Z M 9.953125 -12.125 "/></g></g></g><g fill="#2563eb" fill-opacity="1"><g transform="translate(113.990361, 129.666302)"><g><path d="M 4.25 0 L 1.140625 0 L 1.140625 -12.125 L 4.25 -12.125 Z M 4.25 0 "/></g></g></g><g fill="#2563eb" fill-opacity="1"><g transform="translate(119.384636, 129.666302)"><g><path d="M 2.4375 -10.5625 C 3.675781 -11.789062 5.171875 -12.40625 6.921875 -12.40625 C 8.660156 -12.40625 10.160156 -11.789062 11.421875 -10.5625 C 12.660156 -9.300781 13.28125 -7.800781 13.28125 -6.0625 C 13.28125 -4.300781 12.660156 -2.804688 11.421875 -1.578125 C 10.160156 -0.335938 8.660156 0.28125 6.921875 0.28125 C 5.160156 0.28125 3.664062 -0.34375 2.4375 -1.59375 C 1.1875 -2.820312 0.5625 -4.3125 0.5625 -6.0625 C 0.5625 -7.820312 1.1875 -9.320312 2.4375 -10.5625 Z M 3.921875 -6.078125 C 3.921875 -5.179688 4.21875 -4.414062 4.8125 -3.78125 C 5.40625 -3.15625 6.109375 -2.84375 6.921875 -2.84375 C 7.753906 -2.84375 8.46875 -3.15625 9.0625 -3.78125 C 9.644531 -4.40625 9.9375 -5.164062 9.9375 -6.0625 C 9.9375 -6.96875 9.644531 -7.726562 9.0625 -8.34375 C 8.46875 -8.976562 7.753906 -9.296875 6.921875 -9.296875 C 6.085938 -9.296875 5.382812 -8.984375 4.8125 -8.359375 C 4.21875 -7.734375 3.921875 -6.972656 3.921875 -6.078125 Z M 3.921875 -6.078125 "/></g></g></g><g fill="#2563eb" fill-opacity="1"><g transform="translate(133.23941, 129.666302)"><g><path d="M 12.046875 0 L 8.703125 0 L 4.25 -6.90625 L 4.25 0 L 1.140625 0 L 1.140625 -12.125 L 4.484375 -12.125 L 8.9375 -5.109375 L 8.9375 -12.125 L 12.046875 -12.125 Z M 12.046875 0 "/></g></g></g><g fill="#2563eb" fill-opacity="1"><g transform="translate(58.175949, 150.590214)"><g><path d="M 9.765625 0 L 1.140625 0 L 1.140625 -12.125 L 4.25 -12.125 L 4.25 -2.9375 L 9.765625 -2.9375 Z M 9.765625 0 "/></g></g></g><g fill="#2563eb" fill-opacity="1"><g transform="translate(68.131708, 150.590214)"><g><path d="M 9.203125 0 L 1.140625 0 L 1.140625 -12.125 L 9.203125 -12.125 L 9.203125 -9.203125 L 4.25 -9.203125 L 4.25 -7.609375 L 8.4375 -7.609375 L 8.4375 -4.671875 L 4.25 -4.671875 L 4.25 -2.9375 L 9.203125 -2.9375 Z M 9.203125 0 "/></g></g></g><g fill="#2563eb" fill-opacity="1"><g transform="translate(77.898195, 150.590214)"><g><path d="M 13.328125 0 L 9.875 0 L 9.046875 -2.296875 L 4.296875 -2.296875 L 3.46875 0 L 0.1875 0 L 4.921875 -12.125 L 8.59375 -12.125 Z M 5.296875 -5.046875 L 8.046875 -5.046875 L 6.671875 -8.8125 Z M 5.296875 -5.046875 "/></g></g></g><g fill="#2563eb" fill-opacity="1"><g transform="translate(91.412281, 150.590214)"><g><path d="M 4.25 0 L 1.140625 0 L 1.140625 -12.125 L 5.546875 -12.125 C 7.097656 -12.125 8.335938 -11.757812 9.265625 -11.03125 C 10.203125 -10.289062 10.671875 -9.320312 10.671875 -8.125 C 10.671875 -7.332031 10.472656 -6.632812 10.078125 -6.03125 C 9.691406 -5.4375 9.140625 -4.972656 8.421875 -4.640625 L 10.96875 0 L 7.359375 0 L 5.28125 -4.046875 L 4.25 -4.046875 Z M 5.796875 -9.390625 L 4.25 -9.390625 L 4.25 -6.796875 L 5.796875 -6.796875 C 6.253906 -6.796875 6.628906 -6.914062 6.921875 -7.15625 C 7.210938 -7.394531 7.359375 -7.71875 7.359375 -8.125 C 7.359375 -8.5 7.210938 -8.800781 6.921875 -9.03125 C 6.628906 -9.269531 6.253906 -9.390625 5.796875 -9.390625 Z M 5.796875 -9.390625 "/></g></g></g><g fill="#2563eb" fill-opacity="1"><g transform="translate(102.957931, 150.590214)"><g><path d="M 12.046875 0 L 8.703125 0 L 4.25 -6.90625 L 4.25 0 L 1.140625 0 L 1.140625 -12.125 L 4.484375 -12.125 L 8.9375 -5.109375 L 8.9375 -12.125 L 12.046875 -12.125 Z M 12.046875 0 "/></g></g></g><g fill="#2563eb" fill-opacity="1"><g transform="translate(116.150258, 150.590214)"><g><path d="M 4.25 0 L 1.140625 0 L 1.140625 -12.125 L 4.25 -12.125 Z M 4.25 0 "/></g></g></g><g fill="#2563eb" fill-opacity="1"><g transform="translate(121.544533, 150.590214)"><g><path d="M 12.046875 0 L 8.703125 0 L 4.25 -6.90625 L 4.25 0 L 1.140625 0 L 1.140625 -12.125 L 4.484375 -12.125 L 8.9375 -5.109375 L 8.9375 -12.125 L 12.046875 -12.125 Z M 12.046875 0 "/></g></g></g><g fill="#2563eb" fill-opacity="1"><g transform="translate(134.736859, 150.590214)"><g><path d="M 6.734375 -7.109375 L 11.625 -7.109375 L 10.109375 -4.59375 L 6.734375 -4.59375 Z M 11.625 -7.109375 L 11.640625 -1.1875 C 10.441406 -0.207031 8.835938 0.28125 6.828125 0.28125 C 5.046875 0.28125 3.554688 -0.332031 2.359375 -1.5625 C 1.160156 -2.800781 0.5625 -4.304688 0.5625 -6.078125 C 0.5625 -7.828125 1.179688 -9.316406 2.421875 -10.546875 C 3.660156 -11.785156 5.132812 -12.40625 6.84375 -12.40625 C 8.863281 -12.40625 10.414062 -11.804688 11.5 -10.609375 L 9.421875 -8.234375 C 8.742188 -8.941406 7.898438 -9.296875 6.890625 -9.296875 C 6.054688 -9.296875 5.351562 -8.984375 4.78125 -8.359375 C 4.207031 -7.742188 3.921875 -6.984375 3.921875 -6.078125 C 3.921875 -5.179688 4.21875 -4.414062 4.8125 -3.78125 C 5.40625 -3.15625 6.144531 -2.84375 7.03125 -2.84375 C 7.5625 -2.84375 8.054688 -2.953125 8.515625 -3.171875 L 8.515625 -7.078125 Z M 11.625 -7.109375 "/></g></g></g><path stroke-linecap="round" transform="matrix(0.534348, -0.522401, 0.522401, 0.534348, 82.163545, 97.180082)" fill="none" stroke-linejoin="miter" d="M 1.500136 1.502409 L 96.07447 1.501489 " stroke="#1272f9" stroke-width="3" stroke-opacity="1" stroke-miterlimit="4"/><path stroke-linecap="round" transform="matrix(-0.747283, 0, 0, -0.747283, 84.431773, 98.596767)" fill="none" stroke-linejoin="miter" d="M 1.497791 1.499038 L 16.562792 1.499038 " stroke="#1272f9" stroke-width="3" stroke-opacity="1" stroke-miterlimit="4"/><path stroke-linecap="round" transform="matrix(-0.747283, 0, 0, -0.747283, 135.097319, 104.981232)" fill="none" stroke-linejoin="miter" d="M 1.499777 1.501248 L 84.35728 1.501248 " stroke="#00327b" stroke-width="3" stroke-opacity="1" stroke-miterlimit="4"/><path stroke-linecap="round" transform="matrix(-0.747283, 0, 0, -0.747283, 84.431773, 48.115471)" fill="none" stroke-linejoin="miter" d="M 1.497791 1.497931 L 16.562792 1.497931 " stroke="#00327b" stroke-width="3" stroke-opacity="1" stroke-miterlimit="4"/><path stroke-linecap="round" transform="matrix(0, -0.747283, 0.747283, 0, 70.391714, 104.976683)" fill="none" stroke-linejoin="miter" d="M 1.500389 1.498771 L 84.357892 1.498771 " stroke="#00327b" stroke-width="3" stroke-opacity="1" stroke-miterlimit="4"/><path stroke-linecap="round" transform="matrix(0.534825, 0.521914, -0.521914, 0.534825, 83.279717, 45.408608)" fill="none" stroke-linejoin="miter" d="M 1.500197 1.49695 L 96.800077 1.496913 " stroke="#00327b" stroke-width="3" stroke-opacity="1" stroke-miterlimit="4"/></svg>