<svg xmlns="http://www.w3.org/2000/svg" xmlns:xlink="http://www.w3.org/1999/xlink" width="275" zoomAndPan="magnify" viewBox="0 0 206.25 187.499992" height="250" preserveAspectRatio="xMidYMid meet" version="1.0"><defs><g/><clipPath id="d221d3ca69"><path d="M 0 0.0898438 L 205.503906 0.0898438 L 205.503906 186.910156 L 0 186.910156 Z M 0 0.0898438 " clip-rule="nonzero"/></clipPath><clipPath id="4843578056"><path d="M 8.96875 0.0898438 L 196.535156 0.0898438 C 198.914062 0.0898438 201.195312 1.035156 202.875 2.71875 C 204.558594 4.398438 205.503906 6.679688 205.503906 9.058594 L 205.503906 177.945312 C 205.503906 180.320312 204.558594 182.601562 202.875 184.285156 C 201.195312 185.964844 198.914062 186.910156 196.535156 186.910156 L 8.96875 186.910156 C 6.589844 186.910156 4.308594 185.964844 2.625 184.285156 C 0.945312 182.601562 0 180.320312 0 177.945312 L 0 9.058594 C 0 6.679688 0.945312 4.398438 2.625 2.71875 C 4.308594 1.035156 6.589844 0.0898438 8.96875 0.0898438 Z M 8.96875 0.0898438 " clip-rule="nonzero"/></clipPath><clipPath id="68633f3c9c"><path d="M 0 0.0898438 L 205.503906 0.0898438 L 205.503906 186.910156 L 0 186.910156 Z M 0 0.0898438 " clip-rule="nonzero"/></clipPath><clipPath id="77cfc39b22"><path d="M 8.96875 0.0898438 L 196.535156 0.0898438 C 198.914062 0.0898438 201.195312 1.035156 202.875 2.71875 C 204.558594 4.398438 205.503906 6.679688 205.503906 9.058594 L 205.503906 177.945312 C 205.503906 180.320312 204.558594 182.601562 202.875 184.285156 C 201.195312 185.964844 198.914062 186.910156 196.535156 186.910156 L 8.96875 186.910156 C 6.589844 186.910156 4.308594 185.964844 2.625 184.285156 C 0.945312 182.601562 0 180.320312 0 177.945312 L 0 9.058594 C 0 6.679688 0.945312 4.398438 2.625 2.71875 C 4.308594 1.035156 6.589844 0.0898438 8.96875 0.0898438 Z M 8.96875 0.0898438 " clip-rule="nonzero"/></clipPath><clipPath id="30bcc1b762"><rect x="0" width="206" y="0" height="187"/></clipPath></defs><g clip-path="url(#d221d3ca69)"><g clip-path="url(#4843578056)"><g transform="matrix(1, 0, 0, 1, 0, -0.000000000000024966)"><g clip-path="url(#30bcc1b762)"><g clip-path="url(#68633f3c9c)"><g clip-path="url(#77cfc39b22)"><path fill="#fbfeff" d="M 0 0.0898438 L 205.792969 0.0898438 L 205.792969 186.910156 L 0 186.910156 Z M 0 0.0898438 " fill-opacity="1" fill-rule="nonzero"/></g></g></g></g><path stroke-linecap="butt" transform="matrix(0.747283, 0, 0, 0.747283, 0, 0.09058)" fill="none" stroke-linejoin="miter" d="M 12.001819 -0.000985185 L 262.999784 -0.000985185 C 266.183193 -0.000985185 269.23592 1.264015 271.483648 3.51697 C 273.736602 5.764697 275.001602 8.817424 275.001602 12.000833 L 275.001602 238.001979 C 275.001602 241.180161 273.736602 244.232889 271.483648 246.485843 C 269.23592 248.733571 266.183193 249.998571 262.999784 249.998571 L 12.001819 249.998571 C 8.818409 249.998571 5.765682 248.733571 3.512727 246.485843 C 1.265 244.232889 0 241.180161 0 238.001979 L 0 12.000833 C 0 8.817424 1.265 5.764697 3.512727 3.51697 C 5.765682 1.264015 8.818409 -0.000985185 12.001819 -0.000985185 Z M 12.001819 -0.000985185 " stroke="#1272fa" stroke-width="4" stroke-opacity="1" stroke-miterlimit="4"/></g></g><g fill="#2563eb" fill-opacity="1"><g transform="translate(47.328668, 129.666302)"><g><path d="M 4.25 0 L 1.140625 0 L 1.140625 -12.125 L 5.546875 -12.125 C 7.097656 -12.125 8.335938 -11.757812 9.265625 -11.03125 C 10.203125 -10.289062 10.671875 -9.320312 10.671875 -8.125 C 10.671875 -7.332031 10.472656 -6.632812 10.078125 -6.03125 C 9.691406 -5.4375 9.140625 -4.972656 8.421875 -4.640625 L 10.96875 0 L 7.359375 0 L 5.28125 -4.046875 L 4.25 -4.046875 Z M 5.796875 -9.390625 L 4.25 -9.390625 L 4.25 -6.796875 L 5.796875 -6.796875 C 6.253906 -6.796875 6.628906 -6.914062 6.921875 -7.15625 C 7.210938 -7.394531 7.359375 -7.71875 7.359375 -8.125 C 7.359375 -8.5 7.210938 -8.800781 6.921875 -9.03125 C 6.628906 -9.269531 6.253906 -9.390625 5.796875 -9.390625 Z M 5.796875 -9.390625 "/></g></g></g><g fill="#2563eb" fill-opacity="1"><g transform="translate(58.874319, 129.666302)"><g><path d="M 9.203125 0 L 1.140625 0 L 1.140625 -12.125 L 9.203125 -12.125 L 9.203125 -9.203125 L 4.25 -9.203125 L 4.25 -7.609375 L 8.4375 -7.609375 L 8.4375 -4.671875 L 4.25 -4.671875 L 4.25 -2.9375 L 9.203125 -2.9375 Z M 9.203125 0 "/></g></g></g><g fill="#2563eb" fill-opacity="1"><g transform="translate(68.640806, 129.666302)"><g><path d="M 9.765625 0 L 1.140625 0 L 1.140625 -12.125 L 4.25 -12.125 L 4.25 -2.9375 L 9.765625 -2.9375 Z M 9.765625 0 "/></g></g></g><g fill="#2563eb" fill-opacity="1"><g transform="translate(78.596565, 129.666302)"><g><path d="M 13.328125 0 L 9.875 0 L 9.046875 -2.296875 L 4.296875 -2.296875 L 3.46875 0 L 0.1875 0 L 4.921875 -12.125 L 8.59375 -12.125 Z M 5.296875 -5.046875 L 8.046875 -5.046875 L 6.671875 -8.8125 Z M 5.296875 -5.046875 "/></g></g></g><g fill="#2563eb" fill-opacity="1"><g transform="translate(92.110651, 129.666302)"><g><path d="M 9.953125 -12.125 L 9.953125 -9.203125 L 6.625 -9.203125 L 6.625 0 L 3.5 0 L 3.5 -9.203125 L 0.1875 -9.203125 L 0.1875 -12.125 Z M 9.953125 -12.125 "/></g></g></g><g fill="#2563eb" fill-opacity="1"><g transform="translate(102.255682, 129.666302)"><g><path d="M 4.25 0 L 1.140625 0 L 1.140625 -12.125 L 4.25 -12.125 Z M 4.25 0 "/></g></g></g><g fill="#2563eb" fill-opacity="1"><g transform="translate(107.649958, 129.666302)"><g><path d="M 2.4375 -10.5625 C 3.675781 -11.789062 5.171875 -12.40625 6.921875 -12.40625 C 8.660156 -12.40625 10.160156 -11.789062 11.421875 -10.5625 C 12.660156 -9.300781 13.28125 -7.800781 13.28125 -6.0625 C 13.28125 -4.300781 12.660156 -2.804688 11.421875 -1.578125 C 10.160156 -0.335938 8.660156 0.28125 6.921875 0.28125 C 5.160156 0.28125 3.664062 -0.34375 2.4375 -1.59375 C 1.1875 -2.820312 0.5625 -4.3125 0.5625 -6.0625 C 0.5625 -7.820312 1.1875 -9.320312 2.4375 -10.5625 Z M 3.921875 -6.078125 C 3.921875 -5.179688 4.21875 -4.414062 4.8125 -3.78125 C 5.40625 -3.15625 6.109375 -2.84375 6.921875 -2.84375 C 7.753906 -2.84375 8.46875 -3.15625 9.0625 -3.78125 C 9.644531 -4.40625 9.9375 -5.164062 9.9375 -6.0625 C 9.9375 -6.96875 9.644531 -7.726562 9.0625 -8.34375 C 8.46875 -8.976562 7.753906 -9.296875 6.921875 -9.296875 C 6.085938 -9.296875 5.382812 -8.984375 4.8125 -8.359375 C 4.21875 -7.734375 3.921875 -6.972656 3.921875 -6.078125 Z M 3.921875 -6.078125 "/></g></g></g><g fill="#2563eb" fill-opacity="1"><g transform="translate(121.504731, 129.666302)"><g><path d="M 12.046875 0 L 8.703125 0 L 4.25 -6.90625 L 4.25 0 L 1.140625 0 L 1.140625 -12.125 L 4.484375 -12.125 L 8.9375 -5.109375 L 8.9375 -12.125 L 12.046875 -12.125 Z M 12.046875 0 "/></g></g></g><g fill="#2563eb" fill-opacity="1"><g transform="translate(134.697058, 129.666302)"><g><path d="M 13.328125 0 L 9.875 0 L 9.046875 -2.296875 L 4.296875 -2.296875 L 3.46875 0 L 0.1875 0 L 4.921875 -12.125 L 8.59375 -12.125 Z M 5.296875 -5.046875 L 8.046875 -5.046875 L 6.671875 -8.8125 Z M 5.296875 -5.046875 "/></g></g></g><g fill="#2563eb" fill-opacity="1"><g transform="translate(148.211144, 129.666302)"><g><path d="M 9.765625 0 L 1.140625 0 L 1.140625 -12.125 L 4.25 -12.125 L 4.25 -2.9375 L 9.765625 -2.9375 Z M 9.765625 0 "/></g></g></g><g fill="#2563eb" fill-opacity="1"><g transform="translate(5.889514, 150.590214)"><g><path d="M 13.328125 0 L 9.875 0 L 9.046875 -2.296875 L 4.296875 -2.296875 L 3.46875 0 L 0.1875 0 L 4.921875 -12.125 L 8.59375 -12.125 Z M 5.296875 -5.046875 L 8.046875 -5.046875 L 6.671875 -8.8125 Z M 5.296875 -5.046875 "/></g></g></g><g fill="#2563eb" fill-opacity="1"><g transform="translate(19.4036, 150.590214)"><g><path d="M 12.046875 0 L 8.703125 0 L 4.25 -6.90625 L 4.25 0 L 1.140625 0 L 1.140625 -12.125 L 4.484375 -12.125 L 8.9375 -5.109375 L 8.9375 -12.125 L 12.046875 -12.125 Z M 12.046875 0 "/></g></g></g><g fill="#2563eb" fill-opacity="1"><g transform="translate(32.595926, 150.590214)"><g><path d="M 2.4375 -10.5625 C 3.675781 -11.789062 5.171875 -12.40625 6.921875 -12.40625 C 8.660156 -12.40625 10.160156 -11.789062 11.421875 -10.5625 C 12.660156 -9.300781 13.28125 -7.800781 13.28125 -6.0625 C 13.28125 -4.300781 12.660156 -2.804688 11.421875 -1.578125 C 10.160156 -0.335938 8.660156 0.28125 6.921875 0.28125 C 5.160156 0.28125 3.664062 -0.34375 2.4375 -1.59375 C 1.1875 -2.820312 0.5625 -4.3125 0.5625 -6.0625 C 0.5625 -7.820312 1.1875 -9.320312 2.4375 -10.5625 Z M 3.921875 -6.078125 C 3.921875 -5.179688 4.21875 -4.414062 4.8125 -3.78125 C 5.40625 -3.15625 6.109375 -2.84375 6.921875 -2.84375 C 7.753906 -2.84375 8.46875 -3.15625 9.0625 -3.78125 C 9.644531 -4.40625 9.9375 -5.164062 9.9375 -6.0625 C 9.9375 -6.96875 9.644531 -7.726562 9.0625 -8.34375 C 8.46875 -8.976562 7.753906 -9.296875 6.921875 -9.296875 C 6.085938 -9.296875 5.382812 -8.984375 4.8125 -8.359375 C 4.21875 -7.734375 3.921875 -6.972656 3.921875 -6.078125 Z M 3.921875 -6.078125 "/></g></g></g><g fill="#2563eb" fill-opacity="1"><g transform="translate(46.4507, 150.590214)"><g><path d="M 11.328125 -7.328125 L 7.796875 -2.1875 L 4.25 -7.296875 L 4.25 0 L 1.140625 0 L 1.140625 -12.125 L 4.734375 -12.125 L 8 -7.171875 L 11.28125 -12.125 L 14.453125 -12.125 L 14.453125 0 L 11.328125 0 Z M 11.328125 -7.328125 "/></g></g></g><g fill="#2563eb" fill-opacity="1"><g transform="translate(62.046792, 150.590214)"><g><path d="M 13.328125 0 L 9.875 0 L 9.046875 -2.296875 L 4.296875 -2.296875 L 3.46875 0 L 0.1875 0 L 4.921875 -12.125 L 8.59375 -12.125 Z M 5.296875 -5.046875 L 8.046875 -5.046875 L 6.671875 -8.8125 Z M 5.296875 -5.046875 "/></g></g></g><g fill="#2563eb" fill-opacity="1"><g transform="translate(75.560878, 150.590214)"><g><path d="M 9.765625 0 L 1.140625 0 L 1.140625 -12.125 L 4.25 -12.125 L 4.25 -2.9375 L 9.765625 -2.9375 Z M 9.765625 0 "/></g></g></g><g fill="#2563eb" fill-opacity="1"><g transform="translate(85.516637, 150.590214)"><g><path d="M 7.71875 0 L 4.59375 0 L 4.59375 -3.96875 L 0.1875 -12.125 L 3.65625 -12.125 L 6.21875 -7.25 L 8.84375 -12.125 L 12.125 -12.125 L 7.71875 -3.96875 Z M 7.71875 0 "/></g></g></g><g fill="#2563eb" fill-opacity="1"><g transform="translate(97.838305, 150.590214)"><g/></g></g><g fill="#2563eb" fill-opacity="1"><g transform="translate(102.570133, 150.590214)"><g><path d="M 5.546875 0 L 1.140625 0 L 1.140625 -12.125 L 5.546875 -12.125 C 7.523438 -12.125 9.160156 -11.550781 10.453125 -10.40625 C 11.753906 -9.257812 12.40625 -7.800781 12.40625 -6.03125 C 12.40625 -4.289062 11.757812 -2.851562 10.46875 -1.71875 C 9.164062 -0.570312 7.523438 0 5.546875 0 Z M 5.484375 -9.203125 L 4.359375 -9.203125 L 4.359375 -2.9375 L 5.5 -2.9375 C 6.570312 -2.9375 7.429688 -3.222656 8.078125 -3.796875 C 8.734375 -4.367188 9.0625 -5.128906 9.0625 -6.078125 C 9.0625 -7.003906 8.734375 -7.753906 8.078125 -8.328125 C 7.421875 -8.910156 6.554688 -9.203125 5.484375 -9.203125 Z M 5.484375 -9.203125 "/></g></g></g><g fill="#2563eb" fill-opacity="1"><g transform="translate(115.554259, 150.590214)"><g><path d="M 9.203125 0 L 1.140625 0 L 1.140625 -12.125 L 9.203125 -12.125 L 9.203125 -9.203125 L 4.25 -9.203125 L 4.25 -7.609375 L 8.4375 -7.609375 L 8.4375 -4.671875 L 4.25 -4.671875 L 4.25 -2.9375 L 9.203125 -2.9375 Z M 9.203125 0 "/></g></g></g><g fill="#2563eb" fill-opacity="1"><g transform="translate(125.320746, 150.590214)"><g><path d="M 9.953125 -12.125 L 9.953125 -9.203125 L 6.625 -9.203125 L 6.625 0 L 3.5 0 L 3.5 -9.203125 L 0.1875 -9.203125 L 0.1875 -12.125 Z M 9.953125 -12.125 "/></g></g></g><g fill="#2563eb" fill-opacity="1"><g transform="translate(135.465777, 150.590214)"><g><path d="M 9.203125 0 L 1.140625 0 L 1.140625 -12.125 L 9.203125 -12.125 L 9.203125 -9.203125 L 4.25 -9.203125 L 4.25 -7.609375 L 8.4375 -7.609375 L 8.4375 -4.671875 L 4.25 -4.671875 L 4.25 -2.9375 L 9.203125 -2.9375 Z M 9.203125 0 "/></g></g></g><g fill="#2563eb" fill-opacity="1"><g transform="translate(145.232264, 150.590214)"><g><path d="M 11.5 -10.609375 L 9.421875 -8.234375 C 8.742188 -8.941406 7.898438 -9.296875 6.890625 -9.296875 C 6.054688 -9.296875 5.351562 -8.984375 4.78125 -8.359375 C 4.207031 -7.742188 3.921875 -6.984375 3.921875 -6.078125 C 3.921875 -5.179688 4.21875 -4.414062 4.8125 -3.78125 C 5.40625 -3.15625 6.144531 -2.84375 7.03125 -2.84375 C 7.488281 -2.84375 7.9375 -2.9375 8.375 -3.125 C 8.8125 -3.3125 9.160156 -3.566406 9.421875 -3.890625 L 11.5 -1.59375 C 10.46875 -0.34375 8.910156 0.28125 6.828125 0.28125 C 5.046875 0.28125 3.554688 -0.332031 2.359375 -1.5625 C 1.160156 -2.800781 0.5625 -4.304688 0.5625 -6.078125 C 0.5625 -7.828125 1.179688 -9.316406 2.421875 -10.546875 C 3.660156 -11.785156 5.132812 -12.40625 6.84375 -12.40625 C 8.863281 -12.40625 10.414062 -11.804688 11.5 -10.609375 Z M 11.5 -10.609375 "/></g></g></g><g fill="#2563eb" fill-opacity="1"><g transform="translate(157.023972, 150.590214)"><g><path d="M 9.953125 -12.125 L 9.953125 -9.203125 L 6.625 -9.203125 L 6.625 0 L 3.5 0 L 3.5 -9.203125 L 0.1875 -9.203125 L 0.1875 -12.125 Z M 9.953125 -12.125 "/></g></g></g><g fill="#2563eb" fill-opacity="1"><g transform="translate(167.169003, 150.590214)"><g><path d="M 4.25 0 L 1.140625 0 L 1.140625 -12.125 L 4.25 -12.125 Z M 4.25 0 "/></g></g></g><g fill="#2563eb" fill-opacity="1"><g transform="translate(172.563278, 150.590214)"><g><path d="M 2.4375 -10.5625 C 3.675781 -11.789062 5.171875 -12.40625 6.921875 -12.40625 C 8.660156 -12.40625 10.160156 -11.789062 11.421875 -10.5625 C 12.660156 -9.300781 13.28125 -7.800781 13.28125 -6.0625 C 13.28125 -4.300781 12.660156 -2.804688 11.421875 -1.578125 C 10.160156 -0.335938 8.660156 0.28125 6.921875 0.28125 C 5.160156 0.28125 3.664062 -0.34375 2.4375 -1.59375 C 1.1875 -2.820312 0.5625 -4.3125 0.5625 -6.0625 C 0.5625 -7.820312 1.1875 -9.320312 2.4375 -10.5625 Z M 3.921875 -6.078125 C 3.921875 -5.179688 4.21875 -4.414062 4.8125 -3.78125 C 5.40625 -3.15625 6.109375 -2.84375 6.921875 -2.84375 C 7.753906 -2.84375 8.46875 -3.15625 9.0625 -3.78125 C 9.644531 -4.40625 9.9375 -5.164062 9.9375 -6.0625 C 9.9375 -6.96875 9.644531 -7.726562 9.0625 -8.34375 C 8.46875 -8.976562 7.753906 -9.296875 6.921875 -9.296875 C 6.085938 -9.296875 5.382812 -8.984375 4.8125 -8.359375 C 4.21875 -7.734375 3.921875 -6.972656 3.921875 -6.078125 Z M 3.921875 -6.078125 "/></g></g></g><g fill="#2563eb" fill-opacity="1"><g transform="translate(186.418052, 150.590214)"><g><path d="M 12.046875 0 L 8.703125 0 L 4.25 -6.90625 L 4.25 0 L 1.140625 0 L 1.140625 -12.125 L 4.484375 -12.125 L 8.9375 -5.109375 L 8.9375 -12.125 L 12.046875 -12.125 Z M 12.046875 0 "/></g></g></g><path stroke-linecap="round" transform="matrix(-0.747283, 0, 0, -0.747283, 135.097334, 104.981246)" fill="none" stroke-linejoin="miter" d="M 1.499796 1.501267 L 84.357299 1.501267 " stroke="#00327b" stroke-width="3" stroke-opacity="1" stroke-miterlimit="4"/><path stroke-linecap="round" transform="matrix(0, -0.747283, 0.747283, 0, 77.02737, 98.246216)" fill="none" stroke-linejoin="miter" d="M 1.500391 1.500192 L 15.410165 1.500192 " stroke="#1272f9" stroke-width="3" stroke-opacity="1" stroke-miterlimit="4"/><path stroke-linecap="round" transform="matrix(-0.747273, -0.00376065, 0.00376065, -0.747273, 78.576208, 98.635196)" fill="none" stroke-linejoin="miter" d="M 1.500008 1.501114 L 8.724192 1.50135 " stroke="#1272f9" stroke-width="3" stroke-opacity="1" stroke-miterlimit="4"/><path stroke-linecap="round" transform="matrix(-0.747283, 0.00000000130425, -0.00000000130425, -0.747283, 84.432022, 87.19538)" fill="none" stroke-linejoin="miter" d="M 1.498124 1.500318 L 8.419034 1.500318 " stroke="#1272f9" stroke-width="3" stroke-opacity="1" stroke-miterlimit="4"/><path stroke-linecap="round" transform="matrix(0, -0.747283, 0.747283, 0, 82.197061, 93.768497)" fill="none" stroke-linejoin="miter" d="M 1.498843 1.497887 L 10.040207 1.497887 " stroke="#1272f9" stroke-width="3" stroke-opacity="1" stroke-miterlimit="4"/><path stroke-linecap="round" transform="matrix(-0.747273, -0.00376065, 0.00376065, -0.747273, 90.133444, 93.771993)" fill="none" stroke-linejoin="miter" d="M 1.498191 1.501228 L 8.727603 1.501438 " stroke="#1272f9" stroke-width="3" stroke-opacity="1" stroke-miterlimit="4"/><path stroke-linecap="round" transform="matrix(0.00000000130425, -0.747283, 0.747283, 0.00000000130425, 87.902338, 98.276421)" fill="none" stroke-linejoin="miter" d="M 1.498992 1.500235 L 6.90922 1.500235 " stroke="#1272f9" stroke-width="3" stroke-opacity="1" stroke-miterlimit="4"/><path stroke-linecap="round" transform="matrix(-0.747273, -0.00376065, 0.00376065, -0.747273, 95.448761, 98.654419)" fill="none" stroke-linejoin="miter" d="M 1.501958 1.500692 L 8.726142 1.500928 " stroke="#1272f9" stroke-width="3" stroke-opacity="1" stroke-miterlimit="4"/><path stroke-linecap="round" transform="matrix(0, -0.747283, 0.747283, 0, 93.88457, 98.246216)" fill="none" stroke-linejoin="miter" d="M 1.500391 1.497875 L 15.410165 1.497875 " stroke="#1272f9" stroke-width="3" stroke-opacity="1" stroke-miterlimit="4"/><path stroke-linecap="round" transform="matrix(-0.747273, -0.00376065, 0.00376065, -0.747273, 101.793286, 87.214587)" fill="none" stroke-linejoin="miter" d="M 1.497752 1.497593 L 8.727163 1.497802 " stroke="#1272f9" stroke-width="3" stroke-opacity="1" stroke-miterlimit="4"/><path stroke-linecap="round" transform="matrix(0, -0.747283, 0.747283, 0, 99.862831, 97.783521)" fill="none" stroke-linejoin="miter" d="M 1.498038 1.50083 L 15.413039 1.50083 " stroke="#1272f9" stroke-width="3" stroke-opacity="1" stroke-miterlimit="4"/><path stroke-linecap="round" transform="matrix(-0.747273, -0.00376065, 0.00376065, -0.747273, 107.500906, 98.615967)" fill="none" stroke-linejoin="miter" d="M 1.49856 1.501526 L 8.727971 1.501736 " stroke="#1272f9" stroke-width="3" stroke-opacity="1" stroke-miterlimit="4"/><path stroke-linecap="round" transform="matrix(0, -0.747283, 0.747283, 0, 105.841092, 98.246216)" fill="none" stroke-linejoin="miter" d="M 1.500391 1.498557 L 15.410165 1.498557 " stroke="#1272f9" stroke-width="3" stroke-opacity="1" stroke-miterlimit="4"/><path stroke-linecap="round" transform="matrix(-0.747283, 0, 0, -0.747283, 113.245741, 87.389738)" fill="none" stroke-linejoin="miter" d="M 1.499756 1.499041 L 8.420665 1.499041 " stroke="#1272f9" stroke-width="3" stroke-opacity="1" stroke-miterlimit="4"/><path stroke-linecap="round" transform="matrix(0, -0.747283, 0.747283, 0, 111.070434, 94.2312)" fill="none" stroke-linejoin="miter" d="M 1.501206 1.500065 L 10.04257 1.500065 " stroke="#1272f9" stroke-width="3" stroke-opacity="1" stroke-miterlimit="4"/><path stroke-linecap="round" transform="matrix(-0.747273, -0.00376065, 0.00376065, -0.747273, 118.710144, 94.641022)" fill="none" stroke-linejoin="miter" d="M 1.501498 1.498448 L 8.725682 1.498684 " stroke="#1272f9" stroke-width="3" stroke-opacity="1" stroke-miterlimit="4"/><path stroke-linecap="round" transform="matrix(0.00000000130425, -0.747283, 0.747283, 0.00000000130425, 117.052007, 98.933131)" fill="none" stroke-linejoin="miter" d="M 1.499607 1.498588 L 6.904608 1.498588 " stroke="#1272f9" stroke-width="3" stroke-opacity="1" stroke-miterlimit="4"/><path stroke-linecap="round" transform="matrix(-0.747273, -0.00376065, 0.00376065, -0.747273, 124.688405, 99.388222)" fill="none" stroke-linejoin="miter" d="M 1.498551 1.499944 L 8.727962 1.500153 " stroke="#1272f9" stroke-width="3" stroke-opacity="1" stroke-miterlimit="4"/><path stroke-linecap="round" transform="matrix(0, -0.747283, 0.747283, 0, 122.45343, 98.912611)" fill="none" stroke-linejoin="miter" d="M 1.498285 1.49982 L 33.839422 1.49982 " stroke="#1272f9" stroke-width="3" stroke-opacity="1" stroke-miterlimit="4"/><path stroke-linecap="round" transform="matrix(0, -0.747283, 0.747283, 0, 70.391714, 104.976683)" fill="none" stroke-linejoin="miter" d="M 1.500389 1.498771 L 84.357892 1.498771 " stroke="#00327b" stroke-width="3" stroke-opacity="1" stroke-miterlimit="4"/><path stroke-linecap="round" transform="matrix(0, -0.747283, 0.747283, 0, 77.604545, 67.458181)" fill="none" stroke-linejoin="miter" d="M 1.501766 1.501464 L 15.41154 1.501464 " stroke="#00327b" stroke-width="3" stroke-opacity="1" stroke-miterlimit="4"/><path stroke-linecap="round" transform="matrix(-0.747273, -0.00376065, 0.00376065, -0.747273, 79.15339, 67.847146)" fill="none" stroke-linejoin="miter" d="M 1.498753 1.502476 L 8.728138 1.497458 " stroke="#00327b" stroke-width="3" stroke-opacity="1" stroke-miterlimit="4"/><path stroke-linecap="round" transform="matrix(-0.747283, 0.00000000130425, -0.00000000130425, -0.747283, 85.009195, 56.40734)" fill="none" stroke-linejoin="miter" d="M 1.502077 1.501686 L 8.417759 1.501686 " stroke="#00327b" stroke-width="3" stroke-opacity="1" stroke-miterlimit="4"/><path stroke-linecap="round" transform="matrix(0, -0.747283, 0.747283, 0, 82.774243, 62.980455)" fill="none" stroke-linejoin="miter" d="M 1.500208 1.499149 L 10.041572 1.499149 " stroke="#00327b" stroke-width="3" stroke-opacity="1" stroke-miterlimit="4"/><path stroke-linecap="round" transform="matrix(-0.747273, -0.00376065, 0.00376065, -0.747273, 90.710626, 62.983944)" fill="none" stroke-linejoin="miter" d="M 1.502164 1.502564 L 8.726321 1.497572 " stroke="#00327b" stroke-width="3" stroke-opacity="1" stroke-miterlimit="4"/><path stroke-linecap="round" transform="matrix(0.00000000130425, -0.747283, 0.747283, 0.00000000130425, 88.47952, 67.488379)" fill="none" stroke-linejoin="miter" d="M 1.500358 1.501497 L 6.905358 1.501497 " stroke="#00327b" stroke-width="3" stroke-opacity="1" stroke-miterlimit="4"/><path stroke-linecap="round" transform="matrix(-0.747273, -0.00376065, 0.00376065, -0.747273, 96.025936, 67.866377)" fill="none" stroke-linejoin="miter" d="M 1.500694 1.502064 L 8.724878 1.5023 " stroke="#00327b" stroke-width="3" stroke-opacity="1" stroke-miterlimit="4"/><path stroke-linecap="round" transform="matrix(0, -0.747283, 0.747283, 0, 94.461743, 67.458181)" fill="none" stroke-linejoin="miter" d="M 1.501766 1.49915 L 15.41154 1.49915 " stroke="#00327b" stroke-width="3" stroke-opacity="1" stroke-miterlimit="4"/><path stroke-linecap="round" transform="matrix(-0.747273, -0.00376065, 0.00376065, -0.747273, 102.37046, 56.426545)" fill="none" stroke-linejoin="miter" d="M 1.501715 1.498938 L 8.725899 1.499174 " stroke="#00327b" stroke-width="3" stroke-opacity="1" stroke-miterlimit="4"/><path stroke-linecap="round" transform="matrix(0, -0.747283, 0.747283, 0, 100.440011, 66.995471)" fill="none" stroke-linejoin="miter" d="M 1.499394 1.502095 L 15.409168 1.502095 " stroke="#00327b" stroke-width="3" stroke-opacity="1" stroke-miterlimit="4"/><path stroke-linecap="round" transform="matrix(-0.747273, -0.00376065, 0.00376065, -0.747273, 108.078078, 67.827925)" fill="none" stroke-linejoin="miter" d="M 1.502493 1.497645 L 8.726677 1.49788 " stroke="#00327b" stroke-width="3" stroke-opacity="1" stroke-miterlimit="4"/><path stroke-linecap="round" transform="matrix(0, -0.747283, 0.747283, 0, 106.418271, 67.458181)" fill="none" stroke-linejoin="miter" d="M 1.501766 1.499823 L 15.41154 1.499823 " stroke="#00327b" stroke-width="3" stroke-opacity="1" stroke-miterlimit="4"/><path stroke-linecap="round" transform="matrix(-0.747283, 0, 0, -0.747283, 113.822916, 56.601694)" fill="none" stroke-linejoin="miter" d="M 1.498484 1.500403 L 8.419394 1.500403 " stroke="#00327b" stroke-width="3" stroke-opacity="1" stroke-miterlimit="4"/><path stroke-linecap="round" transform="matrix(0, -0.747283, 0.747283, 0, 111.647616, 63.443165)" fill="none" stroke-linejoin="miter" d="M 1.502581 1.501327 L 10.038717 1.501327 " stroke="#00327b" stroke-width="3" stroke-opacity="1" stroke-miterlimit="4"/><path stroke-linecap="round" transform="matrix(-0.747273, -0.00376065, 0.00376065, -0.747273, 119.287317, 63.852979)" fill="none" stroke-linejoin="miter" d="M 1.50023 1.49982 L 8.724414 1.500055 " stroke="#00327b" stroke-width="3" stroke-opacity="1" stroke-miterlimit="4"/><path stroke-linecap="round" transform="matrix(0.00000000130425, -0.747283, 0.747283, 0.00000000130425, 117.629181, 68.145095)" fill="none" stroke-linejoin="miter" d="M 1.500982 1.499859 L 6.905983 1.499859 " stroke="#00327b" stroke-width="3" stroke-opacity="1" stroke-miterlimit="4"/><path stroke-linecap="round" transform="matrix(-0.747273, -0.00376065, 0.00376065, -0.747273, 125.265577, 68.600187)" fill="none" stroke-linejoin="miter" d="M 1.50251 1.501299 L 8.726694 1.501535 " stroke="#00327b" stroke-width="3" stroke-opacity="1" stroke-miterlimit="4"/><path stroke-linecap="round" transform="matrix(0, -0.747283, 0.747283, 0, 123.605763, 68.116395)" fill="none" stroke-linejoin="miter" d="M 1.499167 1.499833 L 15.40894 1.499833 " stroke="#00327b" stroke-width="3" stroke-opacity="1" stroke-miterlimit="4"/><path stroke-linecap="round" transform="matrix(-0.747273, -0.00376065, 0.00376065, -0.747273, 131.243838, 57.102818)" fill="none" stroke-linejoin="miter" d="M 1.499547 1.499607 L 8.723731 1.499843 " stroke="#00327b" stroke-width="3" stroke-opacity="1" stroke-miterlimit="4"/><path stroke-linecap="round" transform="matrix(0, -0.747283, 0.747283, 0, 129.009434, 64.101378)" fill="none" stroke-linejoin="miter" d="M 1.499981 1.498057 L 10.041345 1.498057 " stroke="#00327b" stroke-width="3" stroke-opacity="1" stroke-miterlimit="4"/><path stroke-linecap="round" transform="matrix(-0.747279, -0.00235858, 0.00235858, -0.747279, 135.671326, 64.567568)" fill="none" stroke-linejoin="miter" d="M 1.499014 1.502286 L 6.653129 1.5017 " stroke="#00327b" stroke-width="3" stroke-opacity="1" stroke-miterlimit="4"/><path stroke-linecap="round" transform="matrix(-0.747283, 0, 0, -0.747283, 135.10418, 74.750294)" fill="none" stroke-linejoin="miter" d="M 1.498503 1.500621 L 14.984867 1.500621 " stroke="#1272f9" stroke-width="3" stroke-opacity="1" stroke-miterlimit="4"/></svg>