<svg xmlns="http://www.w3.org/2000/svg" xmlns:xlink="http://www.w3.org/1999/xlink" width="61" zoomAndPan="magnify" viewBox="0 0 45.75 30.000001" height="40" preserveAspectRatio="xMidYMid meet" version="1.0"><defs><g/><clipPath id="6ddda87922"><path d="M 6.429688 1.917969 L 39.070312 1.917969 L 39.070312 27.105469 L 6.429688 27.105469 Z M 6.429688 1.917969 " clip-rule="nonzero"/></clipPath><clipPath id="cb806777bb"><path d="M 6.433594 10.246094 L 39.074219 10.246094 L 39.074219 26.9375 L 6.433594 26.9375 Z M 6.433594 10.246094 " clip-rule="nonzero"/></clipPath><clipPath id="be7502764c"><path d="M 0.28125 0.398438 L 8 0.398438 L 8 8 L 0.28125 8 Z M 0.28125 0.398438 " clip-rule="nonzero"/></clipPath><clipPath id="0164cafdaa"><path d="M 8 0.398438 L 13 0.398438 L 13 8 L 8 8 Z M 8 0.398438 " clip-rule="nonzero"/></clipPath><clipPath id="5ab8e72c92"><rect x="0" width="19" y="0" height="11"/></clipPath><clipPath id="9348aea262"><rect x="0" width="5" y="0" height="16"/></clipPath><clipPath id="6e80484643"><path d="M 7 0.714844 L 9.570312 0.714844 L 9.570312 6 L 7 6 Z M 7 0.714844 " clip-rule="nonzero"/></clipPath><clipPath id="090aa08ee8"><rect x="0" width="10" y="0" height="8"/></clipPath><clipPath id="f55822d215"><path d="M 1 4 L 5 4 L 5 5.988281 L 1 5.988281 Z M 1 4 " clip-rule="nonzero"/></clipPath><clipPath id="45850bddf2"><path d="M 1 0.179688 L 5 0.179688 L 5 5 L 1 5 Z M 1 0.179688 " clip-rule="nonzero"/></clipPath><clipPath id="c5fb04062d"><rect x="0" width="6" y="0" height="6"/></clipPath></defs><g clip-path="url(#6ddda87922)"><path stroke-linecap="butt" transform="matrix(0, 0.725806, -0.725806, 0, 39.070245, 1.917803)" fill="none" stroke-linejoin="miter" d="M 0.000227694 -0.0000926771 L 34.703008 -0.0000926771 L 34.703008 44.971438 L 0.000227694 44.971438 Z M 0.000227694 -0.0000926771 " stroke="#e4e2df" stroke-width="2" stroke-opacity="1" stroke-miterlimit="4"/></g><g clip-path="url(#cb806777bb)"><path stroke-linecap="butt" transform="matrix(0, 0.725806, -0.725806, 0, 39.073013, 10.244662)" fill="none" stroke-linejoin="miter" d="M 0.00197213 -0.00166118 L 23.230446 -0.00166118 L 23.230446 44.96987 L 0.00197213 44.96987 Z M 0.00197213 -0.00166118 " stroke="#e4e2df" stroke-width="2" stroke-opacity="1" stroke-miterlimit="4"/></g><g transform="matrix(1, 0, 0, 1, 8, 14)"><g clip-path="url(#5ab8e72c92)"><g clip-path="url(#be7502764c)"><g fill="#808080" fill-opacity="1"><g transform="translate(0.73835, 7.621073)"><g><path d="M 6.546875 0 L 5.484375 0 L 4.671875 -2.125 L 1.734375 -2.125 L 0.984375 0 L -0.015625 0 L 2.6875 -7 L 3.671875 -7 Z M 2.78125 -4.9375 L 2.015625 -2.875 L 4.375 -2.875 L 3.515625 -5.1875 C 3.410156 -5.457031 3.289062 -5.816406 3.15625 -6.265625 C 3.15625 -6.234375 3.113281 -6.066406 3.03125 -5.765625 C 2.957031 -5.472656 2.875 -5.195312 2.78125 -4.9375 Z M 2.78125 -4.9375 "/></g></g></g></g><g clip-path="url(#0164cafdaa)"><g fill="#808080" fill-opacity="1"><g transform="translate(7.512032, 7.621073)"><g><path d="M 1.515625 -4.5 C 1.867188 -4.957031 2.332031 -5.1875 2.90625 -5.1875 C 3.320312 -5.1875 3.691406 -5.078125 4.015625 -4.859375 C 4.347656 -4.648438 4.601562 -4.351562 4.78125 -3.96875 C 4.96875 -3.59375 5.0625 -3.15625 5.0625 -2.65625 C 5.0625 -2.070312 4.960938 -1.570312 4.765625 -1.15625 C 4.566406 -0.738281 4.300781 -0.421875 3.96875 -0.203125 C 3.632812 0.00390625 3.265625 0.109375 2.859375 0.109375 C 2.523438 0.109375 2.238281 0.0351562 2 -0.109375 C 1.769531 -0.265625 1.585938 -0.441406 1.453125 -0.640625 L 1.453125 0 L 0.65625 0 L 0.65625 -7 L 1.515625 -7 Z M 1.453125 -2.53125 C 1.453125 -2.257812 1.457031 -2.054688 1.46875 -1.921875 C 1.488281 -1.796875 1.523438 -1.664062 1.578125 -1.53125 C 1.703125 -1.175781 1.878906 -0.929688 2.109375 -0.796875 C 2.335938 -0.660156 2.5625 -0.59375 2.78125 -0.59375 C 3.207031 -0.59375 3.546875 -0.765625 3.796875 -1.109375 C 4.046875 -1.460938 4.171875 -1.972656 4.171875 -2.640625 C 4.171875 -3.179688 4.046875 -3.625 3.796875 -3.96875 C 3.554688 -4.3125 3.226562 -4.484375 2.8125 -4.484375 C 2.570312 -4.484375 2.34375 -4.40625 2.125 -4.25 C 1.914062 -4.101562 1.75 -3.882812 1.625 -3.59375 C 1.507812 -3.300781 1.453125 -2.945312 1.453125 -2.53125 Z M 1.453125 -2.53125 "/></g></g></g></g><g fill="#808080" fill-opacity="1"><g transform="translate(13.200782, 7.621073)"><g><path d="M 2.78125 -5.1875 C 3.28125 -5.1875 3.703125 -5.046875 4.046875 -4.765625 C 4.390625 -4.492188 4.613281 -4.097656 4.71875 -3.578125 L 3.890625 -3.453125 C 3.816406 -3.753906 3.679688 -4 3.484375 -4.1875 C 3.296875 -4.382812 3.046875 -4.484375 2.734375 -4.484375 C 2.273438 -4.484375 1.914062 -4.316406 1.65625 -3.984375 C 1.394531 -3.660156 1.265625 -3.1875 1.265625 -2.5625 C 1.265625 -1.925781 1.382812 -1.4375 1.625 -1.09375 C 1.875 -0.757812 2.226562 -0.59375 2.6875 -0.59375 C 3.050781 -0.59375 3.335938 -0.703125 3.546875 -0.921875 C 3.753906 -1.148438 3.890625 -1.460938 3.953125 -1.859375 L 4.796875 -1.75 C 4.710938 -1.164062 4.476562 -0.707031 4.09375 -0.375 C 3.707031 -0.0507812 3.238281 0.109375 2.6875 0.109375 C 1.957031 0.109375 1.390625 -0.125 0.984375 -0.59375 C 0.578125 -1.070312 0.375 -1.742188 0.375 -2.609375 C 0.375 -3.410156 0.585938 -4.039062 1.015625 -4.5 C 1.441406 -4.957031 2.03125 -5.1875 2.78125 -5.1875 Z M 2.78125 -5.1875 "/></g></g></g></g></g><g transform="matrix(1, 0, 0, 1, 25, 10)"><g clip-path="url(#9348aea262)"><g fill="#808080" fill-opacity="1"><g transform="translate(1.104078, 12.181122)"><g><path d="M 2.078125 0 L 1.171875 0 L 1.171875 -7.703125 L 2.078125 -7.703125 Z M 2.078125 0 "/></g></g></g></g></g><g transform="matrix(1, 0, 0, 1, 8, 3)"><g clip-path="url(#090aa08ee8)"><g fill="#808080" fill-opacity="1"><g transform="translate(0.73835, 5.485602)"><g><path d="M 3.234375 -4.359375 C 3.429688 -4.285156 3.601562 -4.15625 3.75 -3.96875 C 3.894531 -3.78125 3.96875 -3.566406 3.96875 -3.328125 C 3.96875 -3.085938 3.898438 -2.882812 3.765625 -2.71875 C 3.628906 -2.550781 3.488281 -2.4375 3.34375 -2.375 C 3.632812 -2.28125 3.847656 -2.132812 3.984375 -1.9375 C 4.117188 -1.738281 4.1875 -1.523438 4.1875 -1.296875 C 4.1875 -1.035156 4.109375 -0.789062 3.953125 -0.5625 C 3.804688 -0.332031 3.609375 -0.175781 3.359375 -0.09375 C 3.242188 -0.0507812 3.101562 -0.0234375 2.9375 -0.015625 C 2.769531 -0.00390625 2.5625 0 2.3125 0 L 0.453125 0 L 0.453125 -4.453125 L 2.3125 -4.453125 C 2.53125 -4.453125 2.707031 -4.445312 2.84375 -4.4375 C 2.988281 -4.425781 3.117188 -4.398438 3.234375 -4.359375 Z M 3.09375 -3.1875 C 3.09375 -3.300781 3.0625 -3.394531 3 -3.46875 C 2.945312 -3.550781 2.878906 -3.613281 2.796875 -3.65625 C 2.710938 -3.6875 2.5625 -3.703125 2.34375 -3.703125 L 1.34375 -3.703125 L 1.34375 -2.6875 L 2.359375 -2.6875 C 2.847656 -2.6875 3.09375 -2.851562 3.09375 -3.1875 Z M 2.78125 -0.78125 C 2.914062 -0.800781 3.03125 -0.859375 3.125 -0.953125 C 3.21875 -1.046875 3.265625 -1.164062 3.265625 -1.3125 C 3.265625 -1.488281 3.21875 -1.617188 3.125 -1.703125 C 3.039062 -1.796875 2.925781 -1.851562 2.78125 -1.875 C 2.632812 -1.90625 2.441406 -1.921875 2.203125 -1.921875 L 1.34375 -1.921875 L 1.34375 -0.75 L 2.28125 -0.75 C 2.5 -0.75 2.664062 -0.757812 2.78125 -0.78125 Z M 2.78125 -0.78125 "/></g></g></g><g fill="#808080" fill-opacity="1"><g transform="translate(5.397114, 5.485602)"><g/></g></g><g clip-path="url(#6e80484643)"><g fill="#808080" fill-opacity="1"><g transform="translate(7.288764, 5.485602)"><g><path d="M 0.4375 0.078125 L 0 0.078125 L 1.28125 -4.53125 L 1.734375 -4.53125 Z M 0.4375 0.078125 "/></g></g></g></g></g></g><g transform="matrix(1, 0, 0, 1, 18, 4)"><g clip-path="url(#c5fb04062d)"><g clip-path="url(#f55822d215)"><path fill="#808080" d="M 1.140625 4.617188 L 4.941406 4.617188 L 4.941406 5.039062 L 1.140625 5.039062 Z M 1.140625 4.617188 " fill-opacity="1" fill-rule="nonzero"/></g><g clip-path="url(#45850bddf2)"><g fill="#808080" fill-opacity="1"><g transform="translate(1.141998, 4.193612)"><g><path d="M 0.890625 -1.484375 C 0.890625 -1.171875 0.921875 -0.945312 0.984375 -0.8125 C 1.046875 -0.675781 1.144531 -0.566406 1.28125 -0.484375 C 1.414062 -0.410156 1.59375 -0.375 1.8125 -0.375 C 2.101562 -0.375 2.316406 -0.429688 2.453125 -0.546875 C 2.597656 -0.660156 2.6875 -0.789062 2.71875 -0.9375 C 2.757812 -1.09375 2.78125 -1.273438 2.78125 -1.484375 L 2.78125 -3.640625 L 3.265625 -3.640625 L 3.265625 -1.5 C 3.265625 -1.3125 3.25 -1.128906 3.21875 -0.953125 C 3.195312 -0.785156 3.132812 -0.628906 3.03125 -0.484375 C 2.914062 -0.316406 2.765625 -0.179688 2.578125 -0.078125 C 2.390625 0.015625 2.140625 0.0625 1.828125 0.0625 C 1.535156 0.0625 1.296875 0.0195312 1.109375 -0.0625 C 0.921875 -0.15625 0.769531 -0.28125 0.65625 -0.4375 C 0.539062 -0.570312 0.46875 -0.726562 0.4375 -0.90625 C 0.414062 -1.09375 0.40625 -1.285156 0.40625 -1.484375 L 0.40625 -3.640625 L 0.890625 -3.640625 Z M 0.890625 -1.484375 "/></g></g></g></g></g></g></svg>