<svg xmlns="http://www.w3.org/2000/svg" xmlns:xlink="http://www.w3.org/1999/xlink" width="61" zoomAndPan="magnify" viewBox="0 0 45.75 30.000001" height="40" preserveAspectRatio="xMidYMid meet" version="1.2"><defs><clipPath id="c2053ecb92"><path d="M 12.089844 0.65625 L 33.136719 0.65625 L 33.136719 21.703125 L 12.089844 21.703125 Z M 12.089844 0.65625 "/></clipPath><clipPath id="4d68eb0292"><path d="M 22.613281 0.65625 C 16.800781 0.65625 12.089844 5.367188 12.089844 11.179688 C 12.089844 16.992188 16.800781 21.703125 22.613281 21.703125 C 28.425781 21.703125 33.136719 16.992188 33.136719 11.179688 C 33.136719 5.367188 28.425781 0.65625 22.613281 0.65625 Z M 22.613281 0.65625 "/></clipPath></defs><g id="ea8b233d36"><g style="fill:#808080;fill-opacity:1;"><g transform="translate(14.908249, 13.423151)"><path style="stroke:none" d="M 2.1875 0 L 1.234375 0 L 0.0625 -3.171875 L 0.890625 -3.171875 L 1.6875 -0.90625 L 1.75 -0.90625 L 2.546875 -3.171875 L 3.359375 -3.171875 Z M 2.1875 0 "/></g></g><g style="fill:#808080;fill-opacity:1;"><g transform="translate(18.317469, 13.423151)"><path style="stroke:none" d="M 1.234375 0.0625 C 1.035156 0.0625 0.859375 0.0234375 0.703125 -0.046875 C 0.554688 -0.117188 0.441406 -0.226562 0.359375 -0.375 C 0.273438 -0.519531 0.234375 -0.695312 0.234375 -0.90625 C 0.234375 -1.09375 0.273438 -1.25 0.359375 -1.375 C 0.441406 -1.5 0.566406 -1.601562 0.734375 -1.6875 C 0.898438 -1.769531 1.117188 -1.832031 1.390625 -1.875 C 1.585938 -1.90625 1.734375 -1.9375 1.828125 -1.96875 C 1.929688 -2.007812 2 -2.050781 2.03125 -2.09375 C 2.0625 -2.144531 2.078125 -2.207031 2.078125 -2.28125 C 2.078125 -2.382812 2.039062 -2.460938 1.96875 -2.515625 C 1.90625 -2.566406 1.789062 -2.59375 1.625 -2.59375 C 1.445312 -2.59375 1.273438 -2.550781 1.109375 -2.46875 C 0.953125 -2.394531 0.816406 -2.289062 0.703125 -2.15625 L 0.640625 -2.15625 L 0.3125 -2.671875 C 0.476562 -2.847656 0.675781 -2.984375 0.90625 -3.078125 C 1.132812 -3.179688 1.382812 -3.234375 1.65625 -3.234375 C 2.082031 -3.234375 2.390625 -3.144531 2.578125 -2.96875 C 2.765625 -2.789062 2.859375 -2.535156 2.859375 -2.203125 L 2.859375 -0.828125 C 2.859375 -0.679688 2.921875 -0.609375 3.046875 -0.609375 C 3.085938 -0.609375 3.132812 -0.617188 3.1875 -0.640625 L 3.21875 -0.625 L 3.28125 -0.078125 C 3.238281 -0.046875 3.175781 -0.0195312 3.09375 0 C 3.019531 0.0078125 2.9375 0.015625 2.84375 0.015625 C 2.644531 0.015625 2.492188 -0.0195312 2.390625 -0.09375 C 2.285156 -0.164062 2.210938 -0.273438 2.171875 -0.421875 L 2.109375 -0.4375 C 1.953125 -0.101562 1.660156 0.0625 1.234375 0.0625 Z M 1.484375 -0.53125 C 1.671875 -0.53125 1.816406 -0.59375 1.921875 -0.71875 C 2.035156 -0.84375 2.09375 -1.015625 2.09375 -1.234375 L 2.09375 -1.5625 L 2.046875 -1.578125 C 1.992188 -1.535156 1.925781 -1.5 1.84375 -1.46875 C 1.769531 -1.445312 1.660156 -1.421875 1.515625 -1.390625 C 1.347656 -1.367188 1.222656 -1.320312 1.140625 -1.25 C 1.066406 -1.175781 1.03125 -1.078125 1.03125 -0.953125 C 1.03125 -0.816406 1.070312 -0.710938 1.15625 -0.640625 C 1.238281 -0.566406 1.347656 -0.53125 1.484375 -0.53125 Z M 1.484375 -0.53125 "/></g></g><g style="fill:#808080;fill-opacity:1;"><g transform="translate(21.660573, 13.423151)"><path style="stroke:none" d="M 1.3125 0.0625 C 1.03125 0.0625 0.8125 -0.015625 0.65625 -0.171875 C 0.507812 -0.328125 0.4375 -0.5625 0.4375 -0.875 L 0.4375 -4.453125 L 1.234375 -4.453125 L 1.234375 -0.90625 C 1.234375 -0.707031 1.3125 -0.609375 1.46875 -0.609375 C 1.519531 -0.609375 1.570312 -0.617188 1.625 -0.640625 L 1.65625 -0.625 L 1.734375 -0.015625 C 1.691406 0.00390625 1.632812 0.0195312 1.5625 0.03125 C 1.488281 0.0507812 1.40625 0.0625 1.3125 0.0625 Z M 1.3125 0.0625 "/></g></g><g style="fill:#808080;fill-opacity:1;"><g transform="translate(23.48304, 13.423151)"><path style="stroke:none" d="M 1.453125 0.0625 C 1.097656 0.0625 0.832031 -0.0351562 0.65625 -0.234375 C 0.488281 -0.429688 0.40625 -0.707031 0.40625 -1.0625 L 0.40625 -3.171875 L 1.203125 -3.171875 L 1.203125 -1.171875 C 1.203125 -0.972656 1.242188 -0.828125 1.328125 -0.734375 C 1.410156 -0.648438 1.539062 -0.609375 1.71875 -0.609375 C 1.9375 -0.609375 2.109375 -0.679688 2.234375 -0.828125 C 2.359375 -0.972656 2.421875 -1.203125 2.421875 -1.515625 L 2.421875 -3.171875 L 3.21875 -3.171875 L 3.21875 0 L 2.453125 0 L 2.453125 -0.46875 L 2.390625 -0.484375 C 2.285156 -0.296875 2.160156 -0.15625 2.015625 -0.0625 C 1.867188 0.0195312 1.679688 0.0625 1.453125 0.0625 Z M 1.453125 0.0625 "/></g></g><g style="fill:#808080;fill-opacity:1;"><g transform="translate(27.150969, 13.423151)"><path style="stroke:none" d="M 3.140625 -1.40625 L 1.09375 -1.40625 C 1.113281 -1.132812 1.191406 -0.929688 1.328125 -0.796875 C 1.460938 -0.671875 1.644531 -0.609375 1.875 -0.609375 C 2.0625 -0.609375 2.210938 -0.640625 2.328125 -0.703125 C 2.441406 -0.773438 2.53125 -0.882812 2.59375 -1.03125 L 2.65625 -1.03125 L 3.1875 -0.6875 C 3.082031 -0.46875 2.925781 -0.285156 2.71875 -0.140625 C 2.507812 -0.00390625 2.226562 0.0625 1.875 0.0625 C 1.550781 0.0625 1.269531 0 1.03125 -0.125 C 0.789062 -0.25 0.601562 -0.429688 0.46875 -0.671875 C 0.34375 -0.921875 0.28125 -1.222656 0.28125 -1.578125 C 0.28125 -1.941406 0.347656 -2.25 0.484375 -2.5 C 0.617188 -2.75 0.800781 -2.929688 1.03125 -3.046875 C 1.269531 -3.171875 1.535156 -3.234375 1.828125 -3.234375 C 2.273438 -3.234375 2.617188 -3.113281 2.859375 -2.875 C 3.097656 -2.632812 3.21875 -2.285156 3.21875 -1.828125 C 3.21875 -1.660156 3.210938 -1.53125 3.203125 -1.4375 Z M 2.453125 -1.921875 C 2.441406 -2.160156 2.382812 -2.332031 2.28125 -2.4375 C 2.175781 -2.550781 2.023438 -2.609375 1.828125 -2.609375 C 1.421875 -2.609375 1.179688 -2.378906 1.109375 -1.921875 Z M 2.453125 -1.921875 "/></g></g><g style="fill:#808080;fill-opacity:1;"><g transform="translate(14.756056, 26.680565)"><path style="stroke:none" d="M 0.453125 0 L 0.453125 -3.171875 L 1.21875 -3.171875 L 1.21875 -2.703125 L 1.28125 -2.6875 C 1.476562 -3.050781 1.800781 -3.234375 2.25 -3.234375 C 2.613281 -3.234375 2.878906 -3.132812 3.046875 -2.9375 C 3.222656 -2.738281 3.3125 -2.445312 3.3125 -2.0625 L 3.3125 0 L 2.515625 0 L 2.515625 -1.96875 C 2.515625 -2.175781 2.472656 -2.328125 2.390625 -2.421875 C 2.304688 -2.515625 2.171875 -2.5625 1.984375 -2.5625 C 1.753906 -2.5625 1.570312 -2.484375 1.4375 -2.328125 C 1.3125 -2.179688 1.25 -1.953125 1.25 -1.640625 L 1.25 0 Z M 0.453125 0 "/></g></g><g style="fill:#808080;fill-opacity:1;"><g transform="translate(18.469979, 26.680565)"><path style="stroke:none" d="M 1.234375 0.0625 C 1.035156 0.0625 0.859375 0.0234375 0.703125 -0.046875 C 0.554688 -0.117188 0.441406 -0.226562 0.359375 -0.375 C 0.273438 -0.519531 0.234375 -0.695312 0.234375 -0.90625 C 0.234375 -1.09375 0.273438 -1.25 0.359375 -1.375 C 0.441406 -1.5 0.566406 -1.601562 0.734375 -1.6875 C 0.898438 -1.769531 1.117188 -1.832031 1.390625 -1.875 C 1.585938 -1.90625 1.734375 -1.9375 1.828125 -1.96875 C 1.929688 -2.007812 2 -2.050781 2.03125 -2.09375 C 2.0625 -2.144531 2.078125 -2.207031 2.078125 -2.28125 C 2.078125 -2.382812 2.039062 -2.460938 1.96875 -2.515625 C 1.90625 -2.566406 1.789062 -2.59375 1.625 -2.59375 C 1.445312 -2.59375 1.273438 -2.550781 1.109375 -2.46875 C 0.953125 -2.394531 0.816406 -2.289062 0.703125 -2.15625 L 0.640625 -2.15625 L 0.3125 -2.671875 C 0.476562 -2.847656 0.675781 -2.984375 0.90625 -3.078125 C 1.132812 -3.179688 1.382812 -3.234375 1.65625 -3.234375 C 2.082031 -3.234375 2.390625 -3.144531 2.578125 -2.96875 C 2.765625 -2.789062 2.859375 -2.535156 2.859375 -2.203125 L 2.859375 -0.828125 C 2.859375 -0.679688 2.921875 -0.609375 3.046875 -0.609375 C 3.085938 -0.609375 3.132812 -0.617188 3.1875 -0.640625 L 3.21875 -0.625 L 3.28125 -0.078125 C 3.238281 -0.046875 3.175781 -0.0195312 3.09375 0 C 3.019531 0.0078125 2.9375 0.015625 2.84375 0.015625 C 2.644531 0.015625 2.492188 -0.0195312 2.390625 -0.09375 C 2.285156 -0.164062 2.210938 -0.273438 2.171875 -0.421875 L 2.109375 -0.4375 C 1.953125 -0.101562 1.660156 0.0625 1.234375 0.0625 Z M 1.484375 -0.53125 C 1.671875 -0.53125 1.816406 -0.59375 1.921875 -0.71875 C 2.035156 -0.84375 2.09375 -1.015625 2.09375 -1.234375 L 2.09375 -1.5625 L 2.046875 -1.578125 C 1.992188 -1.535156 1.925781 -1.5 1.84375 -1.46875 C 1.769531 -1.445312 1.660156 -1.421875 1.515625 -1.390625 C 1.347656 -1.367188 1.222656 -1.320312 1.140625 -1.25 C 1.066406 -1.175781 1.03125 -1.078125 1.03125 -0.953125 C 1.03125 -0.816406 1.070312 -0.710938 1.15625 -0.640625 C 1.238281 -0.566406 1.347656 -0.53125 1.484375 -0.53125 Z M 1.484375 -0.53125 "/></g></g><g style="fill:#808080;fill-opacity:1;"><g transform="translate(21.813084, 26.680565)"><path style="stroke:none" d="M 0.453125 0 L 0.453125 -3.171875 L 1.21875 -3.171875 L 1.21875 -2.75 L 1.28125 -2.734375 C 1.382812 -2.898438 1.503906 -3.023438 1.640625 -3.109375 C 1.785156 -3.191406 1.96875 -3.234375 2.1875 -3.234375 C 2.425781 -3.234375 2.617188 -3.1875 2.765625 -3.09375 C 2.910156 -3 3.015625 -2.859375 3.078125 -2.671875 L 3.140625 -2.671875 C 3.234375 -2.859375 3.359375 -3 3.515625 -3.09375 C 3.671875 -3.1875 3.863281 -3.234375 4.09375 -3.234375 C 4.75 -3.234375 5.078125 -2.867188 5.078125 -2.140625 L 5.078125 0 L 4.28125 0 L 4.28125 -2.03125 C 4.28125 -2.21875 4.242188 -2.351562 4.171875 -2.4375 C 4.097656 -2.519531 3.984375 -2.5625 3.828125 -2.5625 C 3.390625 -2.5625 3.171875 -2.269531 3.171875 -1.6875 L 3.171875 0 L 2.375 0 L 2.375 -2.03125 C 2.375 -2.21875 2.335938 -2.351562 2.265625 -2.4375 C 2.191406 -2.519531 2.070312 -2.5625 1.90625 -2.5625 C 1.695312 -2.5625 1.535156 -2.492188 1.421875 -2.359375 C 1.304688 -2.222656 1.25 -2.003906 1.25 -1.703125 L 1.25 0 Z M 0.453125 0 "/></g></g><g style="fill:#808080;fill-opacity:1;"><g transform="translate(27.29773, 26.680565)"><path style="stroke:none" d="M 3.140625 -1.40625 L 1.09375 -1.40625 C 1.113281 -1.132812 1.191406 -0.929688 1.328125 -0.796875 C 1.460938 -0.671875 1.644531 -0.609375 1.875 -0.609375 C 2.0625 -0.609375 2.210938 -0.640625 2.328125 -0.703125 C 2.441406 -0.773438 2.53125 -0.882812 2.59375 -1.03125 L 2.65625 -1.03125 L 3.1875 -0.6875 C 3.082031 -0.46875 2.925781 -0.285156 2.71875 -0.140625 C 2.507812 -0.00390625 2.226562 0.0625 1.875 0.0625 C 1.550781 0.0625 1.269531 0 1.03125 -0.125 C 0.789062 -0.25 0.601562 -0.429688 0.46875 -0.671875 C 0.34375 -0.921875 0.28125 -1.222656 0.28125 -1.578125 C 0.28125 -1.941406 0.347656 -2.25 0.484375 -2.5 C 0.617188 -2.75 0.800781 -2.929688 1.03125 -3.046875 C 1.269531 -3.171875 1.535156 -3.234375 1.828125 -3.234375 C 2.273438 -3.234375 2.617188 -3.113281 2.859375 -2.875 C 3.097656 -2.632812 3.21875 -2.285156 3.21875 -1.828125 C 3.21875 -1.660156 3.210938 -1.53125 3.203125 -1.4375 Z M 2.453125 -1.921875 C 2.441406 -2.160156 2.382812 -2.332031 2.28125 -2.4375 C 2.175781 -2.550781 2.023438 -2.609375 1.828125 -2.609375 C 1.421875 -2.609375 1.179688 -2.378906 1.109375 -1.921875 Z M 2.453125 -1.921875 "/></g></g><g clip-rule="nonzero" clip-path="url(#c2053ecb92)"><g clip-rule="nonzero" clip-path="url(#4d68eb0292)"><path style="fill:none;stroke-width:4;stroke-linecap:butt;stroke-linejoin:miter;stroke:#55d549;stroke-opacity:1;stroke-miterlimit:4;" d="M 14.685943 -0.000410643 C 6.574054 -0.000410643 -0.000501918 6.574145 -0.000501918 14.686034 C -0.000501918 22.797924 6.574054 29.372479 14.685943 29.372479 C 22.797832 29.372479 29.372388 22.797924 29.372388 14.686034 C 29.372388 6.574145 22.797832 -0.000410643 14.685943 -0.000410643 Z M 14.685943 -0.000410643 " transform="matrix(0.716541,0,0,0.716541,12.090203,0.656544)"/></g></g></g></svg>