<svg xmlns="http://www.w3.org/2000/svg" xmlns:xlink="http://www.w3.org/1999/xlink" width="61" zoomAndPan="magnify" viewBox="0 0 46.079998 37.92" height="40" preserveAspectRatio="xMidYMid meet" version="1.2"><defs><clipPath id="921aab41b7"><path d="M 1.648438 11.695312 L 13.386719 11.695312 L 13.386719 18.339844 L 1.648438 18.339844 Z M 1.648438 11.695312 "/></clipPath><clipPath id="c6391535ef"><path d="M 16.558594 11.695312 L 28.296875 11.695312 L 28.296875 18.339844 L 16.558594 18.339844 Z M 16.558594 11.695312 "/></clipPath><clipPath id="be55b9305f"><path d="M 31.464844 11.695312 L 43.203125 11.695312 L 43.203125 18.339844 L 31.464844 18.339844 Z M 31.464844 11.695312 "/></clipPath><clipPath id="114fcaecff"><path d="M 31.464844 1.917969 L 43.203125 1.917969 L 43.203125 8.5625 L 31.464844 8.5625 Z M 31.464844 1.917969 "/></clipPath><clipPath id="cc756cd2ce"><path d="M 31.464844 21.511719 L 43.203125 21.511719 L 43.203125 28.160156 L 31.464844 28.160156 Z M 31.464844 21.511719 "/></clipPath></defs><g id="de48658630"><path style="fill:none;stroke-width:1;stroke-linecap:butt;stroke-linejoin:miter;stroke:#585958;stroke-opacity:1;stroke-miterlimit:4;" d="M -0.00128455 0.501038 L 4.710743 0.501038 " transform="matrix(0.735319,0.000000000000001109,-0.000000000000001109,0.735319,13.383757,14.67064)"/><path style="fill:none;stroke-width:1;stroke-linecap:butt;stroke-linejoin:miter;stroke:#585958;stroke-opacity:1;stroke-miterlimit:4;" d="M -0.00162651 0.501038 L 4.710401 0.501038 " transform="matrix(0.735319,0.000000000000001109,-0.000000000000001109,0.735319,28.137915,14.67064)"/><path style="fill:none;stroke-width:1;stroke-linecap:butt;stroke-linejoin:miter;stroke:#585958;stroke-opacity:1;stroke-miterlimit:4;" d="M 0.000813325 0.500214 L 14.434232 0.501638 " transform="matrix(0.232954,-0.674727,0.674727,0.232954,27.787303,15.110584)"/><path style="fill:none;stroke-width:1;stroke-linecap:butt;stroke-linejoin:miter;stroke:#585958;stroke-opacity:1;stroke-miterlimit:4;" d="M -0.00231361 0.499971 L 14.43271 0.498694 " transform="matrix(0.232394,0.67492,-0.67492,0.232394,28.48251,14.986934)"/><g clip-rule="nonzero" clip-path="url(#921aab41b7)"><path style=" stroke:none;fill-rule:nonzero;fill:#585958;fill-opacity:1;" d="M 1.648438 11.695312 L 13.382812 11.695312 L 13.382812 18.339844 L 1.648438 18.339844 Z M 1.648438 11.695312 "/></g><g clip-rule="nonzero" clip-path="url(#c6391535ef)"><path style=" stroke:none;fill-rule:nonzero;fill:#f5d228;fill-opacity:1;" d="M 16.558594 11.695312 L 28.292969 11.695312 L 28.292969 18.339844 L 16.558594 18.339844 Z M 16.558594 11.695312 "/></g><g clip-rule="nonzero" clip-path="url(#be55b9305f)"><path style=" stroke:none;fill-rule:nonzero;fill:#585958;fill-opacity:1;" d="M 31.464844 11.695312 L 43.199219 11.695312 L 43.199219 18.339844 L 31.464844 18.339844 Z M 31.464844 11.695312 "/></g><g clip-rule="nonzero" clip-path="url(#114fcaecff)"><path style=" stroke:none;fill-rule:nonzero;fill:#f5d228;fill-opacity:1;" d="M 31.464844 1.917969 L 43.199219 1.917969 L 43.199219 8.5625 L 31.464844 8.5625 Z M 31.464844 1.917969 "/></g><g clip-rule="nonzero" clip-path="url(#cc756cd2ce)"><path style=" stroke:none;fill-rule:nonzero;fill:#f5d228;fill-opacity:1;" d="M 31.464844 21.511719 L 43.199219 21.511719 L 43.199219 28.160156 L 31.464844 28.160156 Z M 31.464844 21.511719 "/></g></g></svg>