<svg xmlns="http://www.w3.org/2000/svg" xmlns:xlink="http://www.w3.org/1999/xlink" width="61" zoomAndPan="magnify" viewBox="0 0 46.079998 37.92" height="40" preserveAspectRatio="xMidYMid meet" version="1.2"><defs><clipPath id="8e7a9cc3e0"><path d="M 7.015625 11.550781 L 43.683594 11.550781 L 43.683594 18.527344 L 7.015625 18.527344 Z M 7.015625 11.550781 "/></clipPath><clipPath id="4c3119f07d"><path d="M 1.167969 11.550781 L 9.683594 11.550781 L 9.683594 18.527344 L 1.167969 18.527344 Z M 1.167969 11.550781 "/></clipPath><clipPath id="2aab009c9f"><path d="M 10.480469 11.550781 L 19 11.550781 L 19 18.527344 L 10.480469 18.527344 Z M 10.480469 11.550781 "/></clipPath><clipPath id="9f9da87256"><path d="M 19 11.550781 L 24.597656 11.550781 L 24.597656 18.527344 L 19 18.527344 Z M 19 11.550781 "/></clipPath><clipPath id="ab7171aea5"><path d="M 24.375 11.550781 L 30.679688 11.550781 L 30.679688 18.527344 L 24.375 18.527344 Z M 24.375 11.550781 "/></clipPath><clipPath id="2d40d1701e"><path d="M 30.679688 11.550781 L 43.683594 11.550781 L 43.683594 18.523438 L 30.679688 18.523438 Z M 30.679688 11.550781 "/></clipPath></defs><g id="d50b1ccf14"><g clip-rule="nonzero" clip-path="url(#8e7a9cc3e0)"><path style=" stroke:none;fill-rule:nonzero;fill:#9eff95;fill-opacity:1;" d="M 43.683594 11.550781 L 43.683594 18.527344 L 7.011719 18.527344 L 7.011719 11.550781 Z M 43.683594 11.550781 "/></g><g clip-rule="nonzero" clip-path="url(#4c3119f07d)"><path style=" stroke:none;fill-rule:nonzero;fill:#56d84a;fill-opacity:1;" d="M 9.683594 11.550781 L 9.683594 18.527344 L 1.15625 18.527344 L 1.15625 11.550781 Z M 9.683594 11.550781 "/></g><g clip-rule="nonzero" clip-path="url(#2aab009c9f)"><path style=" stroke:none;fill-rule:nonzero;fill:#56d84a;fill-opacity:1;" d="M 19 11.550781 L 19 18.527344 L 10.46875 18.527344 L 10.46875 11.550781 Z M 19 11.550781 "/></g><g clip-rule="nonzero" clip-path="url(#9f9da87256)"><path style=" stroke:none;fill-rule:nonzero;fill:#f5d228;fill-opacity:1;" d="M 24.597656 11.550781 L 24.597656 18.527344 L 19 18.527344 L 19 11.550781 Z M 24.597656 11.550781 "/></g><g clip-rule="nonzero" clip-path="url(#ab7171aea5)"><path style=" stroke:none;fill-rule:nonzero;fill:#61d6d6;fill-opacity:1;" d="M 30.679688 11.550781 L 30.679688 18.519531 L 24.375 18.519531 L 24.375 11.550781 Z M 30.679688 11.550781 "/></g><g clip-rule="nonzero" clip-path="url(#2d40d1701e)"><path style=" stroke:none;fill-rule:nonzero;fill:#f03241;fill-opacity:1;" d="M 43.683594 11.550781 L 43.683594 18.523438 L 30.6875 18.523438 L 30.6875 11.550781 Z M 43.683594 11.550781 "/></g></g></svg>