<svg xmlns="http://www.w3.org/2000/svg" xmlns:xlink="http://www.w3.org/1999/xlink" width="61" zoomAndPan="magnify" viewBox="0 0 45.75 30.000001" height="40" preserveAspectRatio="xMidYMid meet" version="1.2"><defs><clipPath id="408d59b18e"><path d="M 2.054688 2.351562 L 7.851562 2.351562 L 7.851562 26.679688 L 2.054688 26.679688 Z M 2.054688 2.351562 "/></clipPath></defs><g id="28bb88cb87"><g clip-rule="nonzero" clip-path="url(#408d59b18e)"><path style=" stroke:none;fill-rule:nonzero;fill:#56d84a;fill-opacity:1;" d="M 2.054688 2.351562 L 7.851562 2.351562 L 7.851562 26.671875 L 2.054688 26.671875 Z M 2.054688 2.351562 "/></g><g style="fill:#808080;fill-opacity:1;"><g transform="translate(10.711383, 12.314276)"><path style="stroke:none" d="M 0.796875 0 L 0.796875 -5.53125 L 2.125 -5.53125 L 2.125 -4.71875 L 2.234375 -4.6875 C 2.578125 -5.320312 3.132812 -5.640625 3.90625 -5.640625 C 4.539062 -5.640625 5.007812 -5.460938 5.3125 -5.109375 C 5.613281 -4.765625 5.765625 -4.257812 5.765625 -3.59375 L 5.765625 0 L 4.375 0 L 4.375 -3.421875 C 4.375 -3.785156 4.300781 -4.050781 4.15625 -4.21875 C 4.007812 -4.382812 3.773438 -4.46875 3.453125 -4.46875 C 3.054688 -4.46875 2.742188 -4.335938 2.515625 -4.078125 C 2.296875 -3.816406 2.1875 -3.410156 2.1875 -2.859375 L 2.1875 0 Z M 0.796875 0 "/></g></g><g style="fill:#808080;fill-opacity:1;"><g transform="translate(17.190138, 12.314276)"><path style="stroke:none" d="M 2.15625 0.109375 C 1.800781 0.109375 1.492188 0.046875 1.234375 -0.078125 C 0.972656 -0.210938 0.769531 -0.40625 0.625 -0.65625 C 0.488281 -0.914062 0.421875 -1.222656 0.421875 -1.578125 C 0.421875 -1.898438 0.488281 -2.171875 0.625 -2.390625 C 0.769531 -2.617188 0.988281 -2.800781 1.28125 -2.9375 C 1.570312 -3.082031 1.957031 -3.191406 2.4375 -3.265625 C 2.769531 -3.328125 3.019531 -3.390625 3.1875 -3.453125 C 3.363281 -3.515625 3.476562 -3.582031 3.53125 -3.65625 C 3.59375 -3.738281 3.625 -3.84375 3.625 -3.96875 C 3.625 -4.144531 3.5625 -4.28125 3.4375 -4.375 C 3.320312 -4.46875 3.117188 -4.515625 2.828125 -4.515625 C 2.515625 -4.515625 2.21875 -4.445312 1.9375 -4.3125 C 1.664062 -4.175781 1.429688 -3.992188 1.234375 -3.765625 L 1.125 -3.765625 L 0.546875 -4.640625 C 0.828125 -4.953125 1.171875 -5.195312 1.578125 -5.375 C 1.984375 -5.550781 2.421875 -5.640625 2.890625 -5.640625 C 3.628906 -5.640625 4.160156 -5.484375 4.484375 -5.171875 C 4.816406 -4.859375 4.984375 -4.414062 4.984375 -3.84375 L 4.984375 -1.4375 C 4.984375 -1.195312 5.085938 -1.078125 5.296875 -1.078125 C 5.378906 -1.078125 5.460938 -1.09375 5.546875 -1.125 L 5.625 -1.09375 L 5.71875 -0.125 C 5.644531 -0.0820312 5.535156 -0.0390625 5.390625 0 C 5.253906 0.03125 5.109375 0.046875 4.953125 0.046875 C 4.617188 0.046875 4.359375 -0.015625 4.171875 -0.140625 C 3.984375 -0.273438 3.851562 -0.476562 3.78125 -0.75 L 3.671875 -0.75 C 3.398438 -0.175781 2.894531 0.109375 2.15625 0.109375 Z M 2.59375 -0.9375 C 2.914062 -0.9375 3.171875 -1.039062 3.359375 -1.25 C 3.554688 -1.46875 3.65625 -1.769531 3.65625 -2.15625 L 3.65625 -2.71875 L 3.5625 -2.734375 C 3.476562 -2.671875 3.367188 -2.613281 3.234375 -2.5625 C 3.097656 -2.519531 2.898438 -2.476562 2.640625 -2.4375 C 2.347656 -2.382812 2.132812 -2.296875 2 -2.171875 C 1.863281 -2.054688 1.796875 -1.882812 1.796875 -1.65625 C 1.796875 -1.414062 1.863281 -1.234375 2 -1.109375 C 2.144531 -0.992188 2.34375 -0.9375 2.59375 -0.9375 Z M 2.59375 -0.9375 "/></g></g><g style="fill:#808080;fill-opacity:1;"><g transform="translate(23.022022, 12.314276)"><path style="stroke:none" d="M 0.796875 0 L 0.796875 -5.53125 L 2.125 -5.53125 L 2.125 -4.78125 L 2.234375 -4.765625 C 2.410156 -5.066406 2.617188 -5.285156 2.859375 -5.421875 C 3.109375 -5.566406 3.421875 -5.640625 3.796875 -5.640625 C 4.210938 -5.640625 4.546875 -5.554688 4.796875 -5.390625 C 5.054688 -5.222656 5.242188 -4.976562 5.359375 -4.65625 L 5.46875 -4.65625 C 5.632812 -4.988281 5.851562 -5.234375 6.125 -5.390625 C 6.394531 -5.554688 6.726562 -5.640625 7.125 -5.640625 C 8.28125 -5.640625 8.859375 -5 8.859375 -3.71875 L 8.859375 0 L 7.46875 0 L 7.46875 -3.546875 C 7.46875 -3.867188 7.398438 -4.101562 7.265625 -4.25 C 7.140625 -4.394531 6.9375 -4.46875 6.65625 -4.46875 C 5.894531 -4.46875 5.515625 -3.957031 5.515625 -2.9375 L 5.515625 0 L 4.125 0 L 4.125 -3.546875 C 4.125 -3.867188 4.0625 -4.101562 3.9375 -4.25 C 3.8125 -4.394531 3.609375 -4.46875 3.328125 -4.46875 C 2.960938 -4.46875 2.679688 -4.347656 2.484375 -4.109375 C 2.285156 -3.867188 2.1875 -3.488281 2.1875 -2.96875 L 2.1875 0 Z M 0.796875 0 "/></g></g><g style="fill:#808080;fill-opacity:1;"><g transform="translate(32.589719, 12.314276)"><path style="stroke:none" d="M 5.46875 -2.453125 L 1.90625 -2.453125 C 1.945312 -1.972656 2.082031 -1.625 2.3125 -1.40625 C 2.550781 -1.1875 2.875 -1.078125 3.28125 -1.078125 C 3.59375 -1.078125 3.847656 -1.132812 4.046875 -1.25 C 4.242188 -1.363281 4.40625 -1.546875 4.53125 -1.796875 L 4.625 -1.796875 L 5.546875 -1.203125 C 5.367188 -0.804688 5.097656 -0.488281 4.734375 -0.25 C 4.367188 -0.0078125 3.882812 0.109375 3.28125 0.109375 C 2.707031 0.109375 2.210938 0 1.796875 -0.21875 C 1.378906 -0.4375 1.054688 -0.757812 0.828125 -1.1875 C 0.609375 -1.613281 0.5 -2.140625 0.5 -2.765625 C 0.5 -3.390625 0.613281 -3.914062 0.84375 -4.34375 C 1.082031 -4.78125 1.40625 -5.101562 1.8125 -5.3125 C 2.21875 -5.53125 2.671875 -5.640625 3.171875 -5.640625 C 3.953125 -5.640625 4.550781 -5.429688 4.96875 -5.015625 C 5.382812 -4.597656 5.59375 -3.988281 5.59375 -3.1875 C 5.59375 -2.894531 5.582031 -2.671875 5.5625 -2.515625 Z M 4.265625 -3.34375 C 4.253906 -3.769531 4.15625 -4.078125 3.96875 -4.265625 C 3.789062 -4.460938 3.523438 -4.5625 3.171875 -4.5625 C 2.472656 -4.5625 2.0625 -4.15625 1.9375 -3.34375 Z M 4.265625 -3.34375 "/></g></g><g style="fill:#808080;fill-opacity:1;"><g transform="translate(23.300011, 20.334995)"><path style="stroke:none" d="M 2.65625 0 L 1.5 0 L 0.078125 -3.875 L 1.09375 -3.875 L 2.046875 -1.109375 L 2.140625 -1.109375 L 3.09375 -3.875 L 4.09375 -3.875 Z M 2.65625 0 "/></g></g><g style="fill:#808080;fill-opacity:1;"><g transform="translate(27.46588, 20.334995)"><path style="stroke:none" d="M 1.515625 0.078125 C 1.265625 0.078125 1.046875 0.03125 0.859375 -0.0625 C 0.679688 -0.15625 0.539062 -0.289062 0.4375 -0.46875 C 0.34375 -0.644531 0.296875 -0.859375 0.296875 -1.109375 C 0.296875 -1.335938 0.34375 -1.523438 0.4375 -1.671875 C 0.539062 -1.828125 0.691406 -1.957031 0.890625 -2.0625 C 1.097656 -2.164062 1.367188 -2.242188 1.703125 -2.296875 C 1.929688 -2.328125 2.109375 -2.363281 2.234375 -2.40625 C 2.359375 -2.457031 2.441406 -2.507812 2.484375 -2.5625 C 2.523438 -2.625 2.546875 -2.695312 2.546875 -2.78125 C 2.546875 -2.90625 2.5 -3 2.40625 -3.0625 C 2.320312 -3.125 2.179688 -3.15625 1.984375 -3.15625 C 1.765625 -3.15625 1.554688 -3.109375 1.359375 -3.015625 C 1.171875 -2.921875 1.003906 -2.796875 0.859375 -2.640625 L 0.796875 -2.640625 L 0.375 -3.25 C 0.570312 -3.46875 0.8125 -3.632812 1.09375 -3.75 C 1.382812 -3.875 1.695312 -3.9375 2.03125 -3.9375 C 2.539062 -3.9375 2.910156 -3.828125 3.140625 -3.609375 C 3.367188 -3.398438 3.484375 -3.09375 3.484375 -2.6875 L 3.484375 -1.015625 C 3.484375 -0.835938 3.5625 -0.75 3.71875 -0.75 C 3.769531 -0.75 3.828125 -0.757812 3.890625 -0.78125 L 3.9375 -0.765625 L 4 -0.09375 C 3.945312 -0.0507812 3.875 -0.0195312 3.78125 0 C 3.6875 0.0195312 3.582031 0.03125 3.46875 0.03125 C 3.226562 0.03125 3.046875 -0.0078125 2.921875 -0.09375 C 2.796875 -0.1875 2.703125 -0.328125 2.640625 -0.515625 L 2.5625 -0.53125 C 2.375 -0.125 2.023438 0.078125 1.515625 0.078125 Z M 1.8125 -0.65625 C 2.039062 -0.65625 2.222656 -0.726562 2.359375 -0.875 C 2.492188 -1.03125 2.5625 -1.242188 2.5625 -1.515625 L 2.5625 -1.90625 L 2.484375 -1.921875 C 2.429688 -1.867188 2.359375 -1.828125 2.265625 -1.796875 C 2.171875 -1.765625 2.035156 -1.734375 1.859375 -1.703125 C 1.640625 -1.671875 1.484375 -1.609375 1.390625 -1.515625 C 1.304688 -1.429688 1.265625 -1.3125 1.265625 -1.15625 C 1.265625 -0.988281 1.3125 -0.863281 1.40625 -0.78125 C 1.507812 -0.695312 1.644531 -0.65625 1.8125 -0.65625 Z M 1.8125 -0.65625 "/></g></g><g style="fill:#808080;fill-opacity:1;"><g transform="translate(31.55096, 20.334995)"><path style="stroke:none" d="M 1.609375 0.078125 C 1.253906 0.078125 0.984375 -0.015625 0.796875 -0.203125 C 0.617188 -0.390625 0.53125 -0.675781 0.53125 -1.0625 L 0.53125 -5.421875 L 1.5 -5.421875 L 1.5 -1.109375 C 1.5 -0.867188 1.597656 -0.75 1.796875 -0.75 C 1.859375 -0.75 1.921875 -0.757812 1.984375 -0.78125 L 2.03125 -0.765625 L 2.109375 -0.015625 C 2.054688 0.015625 1.984375 0.0351562 1.890625 0.046875 C 1.804688 0.0664062 1.710938 0.078125 1.609375 0.078125 Z M 1.609375 0.078125 "/></g></g><g style="fill:#808080;fill-opacity:1;"><g transform="translate(33.777908, 20.334995)"><path style="stroke:none" d="M 1.765625 0.078125 C 1.335938 0.078125 1.019531 -0.0390625 0.8125 -0.28125 C 0.601562 -0.519531 0.5 -0.863281 0.5 -1.3125 L 0.5 -3.875 L 1.46875 -3.875 L 1.46875 -1.421875 C 1.46875 -1.191406 1.519531 -1.019531 1.625 -0.90625 C 1.726562 -0.800781 1.882812 -0.75 2.09375 -0.75 C 2.363281 -0.75 2.570312 -0.835938 2.71875 -1.015625 C 2.875 -1.191406 2.953125 -1.46875 2.953125 -1.84375 L 2.953125 -3.875 L 3.921875 -3.875 L 3.921875 0 L 2.984375 0 L 2.984375 -0.5625 L 2.90625 -0.59375 C 2.789062 -0.363281 2.640625 -0.191406 2.453125 -0.078125 C 2.273438 0.0234375 2.046875 0.078125 1.765625 0.078125 Z M 1.765625 0.078125 "/></g></g><g style="fill:#808080;fill-opacity:1;"><g transform="translate(38.259905, 20.334995)"><path style="stroke:none" d="M 3.828125 -1.71875 L 1.34375 -1.71875 C 1.363281 -1.375 1.457031 -1.125 1.625 -0.96875 C 1.789062 -0.820312 2.015625 -0.75 2.296875 -0.75 C 2.515625 -0.75 2.691406 -0.789062 2.828125 -0.875 C 2.972656 -0.957031 3.085938 -1.082031 3.171875 -1.25 L 3.25 -1.25 L 3.890625 -0.84375 C 3.765625 -0.570312 3.570312 -0.347656 3.3125 -0.171875 C 3.0625 -0.00390625 2.722656 0.078125 2.296875 0.078125 C 1.890625 0.078125 1.539062 0.00390625 1.25 -0.140625 C 0.96875 -0.296875 0.742188 -0.523438 0.578125 -0.828125 C 0.421875 -1.128906 0.34375 -1.5 0.34375 -1.9375 C 0.34375 -2.375 0.425781 -2.742188 0.59375 -3.046875 C 0.757812 -3.347656 0.984375 -3.570312 1.265625 -3.71875 C 1.546875 -3.863281 1.863281 -3.9375 2.21875 -3.9375 C 2.769531 -3.9375 3.191406 -3.789062 3.484375 -3.5 C 3.773438 -3.21875 3.921875 -2.796875 3.921875 -2.234375 C 3.921875 -2.023438 3.914062 -1.867188 3.90625 -1.765625 Z M 2.984375 -2.34375 C 2.972656 -2.632812 2.90625 -2.847656 2.78125 -2.984375 C 2.65625 -3.117188 2.46875 -3.1875 2.21875 -3.1875 C 1.726562 -3.1875 1.441406 -2.90625 1.359375 -2.34375 Z M 2.984375 -2.34375 "/></g></g></g></svg>