<svg xmlns="http://www.w3.org/2000/svg" xmlns:xlink="http://www.w3.org/1999/xlink" width="61" zoomAndPan="magnify" viewBox="0 0 45.75 30.000001" height="40" preserveAspectRatio="xMidYMid meet" version="1.2"><defs><clipPath id="8c622199f5"><path d="M 1 22 L 44.890625 22 L 44.890625 28 L 1 28 Z M 1 22 "/></clipPath><clipPath id="dac5eb83e7"><path d="M 1 15 L 44.890625 15 L 44.890625 21 L 1 21 Z M 1 15 "/></clipPath><clipPath id="d23f51d242"><path d="M 0.617188 0 L 44.890625 0 L 44.890625 29.03125 L 0.617188 29.03125 Z M 0.617188 0 "/></clipPath><clipPath id="e5691642ce"><path d="M 14 1 L 44.890625 1 L 44.890625 7 L 14 7 Z M 14 1 "/></clipPath></defs><g id="f3476a6945"><g clip-rule="nonzero" clip-path="url(#8c622199f5)"><path style="fill:none;stroke-width:7;stroke-linecap:butt;stroke-linejoin:miter;stroke:#bab8b7;stroke-opacity:1;stroke-miterlimit:4;" d="M 0.00209908 3.500045 L 52.23201 3.500045 " transform="matrix(0.722766,0,0,0.722766,3.795358,22.095287)"/></g><g clip-rule="nonzero" clip-path="url(#dac5eb83e7)"><path style="fill:none;stroke-width:7;stroke-linecap:butt;stroke-linejoin:miter;stroke:#bab8b7;stroke-opacity:1;stroke-miterlimit:4;" d="M -0.000906523 3.499946 L 52.234409 3.499946 " transform="matrix(0.722766,0,0,0.722766,3.793624,15.27114)"/></g><g clip-rule="nonzero" clip-path="url(#d23f51d242)"><path style="fill:none;stroke-width:7;stroke-linecap:butt;stroke-linejoin:miter;stroke:#bab8b7;stroke-opacity:1;stroke-miterlimit:4;" d="M -0.00167947 3.501022 L 34.652863 3.499779 " transform="matrix(0.725802,0.00250588,-0.00250588,0.725802,16.56468,8.294892)"/></g><g clip-rule="nonzero" clip-path="url(#e5691642ce)"><path style="fill:none;stroke-width:7;stroke-linecap:butt;stroke-linejoin:miter;stroke:#bab8b7;stroke-opacity:1;stroke-miterlimit:4;" d="M -0.00168208 3.499707 L 34.647277 3.499707 " transform="matrix(0.725806,0,0,0.725806,16.555908,1.557546)"/></g><g style="fill:#585958;fill-opacity:1;"><g transform="translate(3.795358, 13.423439)"><path style="stroke:none" d="M 11.5 0 L 9 0 L 8.109375 -2.765625 L 3.515625 -2.765625 L 2.609375 0 L 0.1875 0 L 4.3125 -11.984375 L 7.359375 -11.984375 Z M 5.6875 -9.484375 L 4.15625 -4.75 L 7.453125 -4.75 L 5.90625 -9.484375 Z M 5.6875 -9.484375 "/></g></g></g></svg>