<svg xmlns="http://www.w3.org/2000/svg" xmlns:xlink="http://www.w3.org/1999/xlink" width="61" zoomAndPan="magnify" viewBox="0 0 45.75 30.000001" height="40" preserveAspectRatio="xMidYMid meet" version="1.2"><defs><clipPath id="561c789fa4"><path d="M 6.429688 1.917969 L 39.070312 1.917969 L 39.070312 27.105469 L 6.429688 27.105469 Z M 6.429688 1.917969 "/></clipPath></defs><g id="741da03972"><g style="fill:#808080;fill-opacity:1;"><g transform="translate(8.73835, 12.273719)"><path style="stroke:none" d="M 6.546875 0 L 5.484375 0 L 4.671875 -2.125 L 1.734375 -2.125 L 0.984375 0 L -0.015625 0 L 2.6875 -7 L 3.671875 -7 Z M 2.78125 -4.9375 L 2.015625 -2.875 L 4.375 -2.875 L 3.515625 -5.1875 C 3.410156 -5.457031 3.289062 -5.816406 3.15625 -6.265625 C 3.15625 -6.234375 3.113281 -6.066406 3.03125 -5.765625 C 2.957031 -5.472656 2.875 -5.195312 2.78125 -4.9375 Z M 2.78125 -4.9375 "/></g></g><g style="fill:#808080;fill-opacity:1;"><g transform="translate(15.512032, 12.273719)"><path style="stroke:none" d="M 1.515625 -4.5 C 1.867188 -4.957031 2.332031 -5.1875 2.90625 -5.1875 C 3.320312 -5.1875 3.691406 -5.078125 4.015625 -4.859375 C 4.347656 -4.648438 4.601562 -4.351562 4.78125 -3.96875 C 4.96875 -3.59375 5.0625 -3.15625 5.0625 -2.65625 C 5.0625 -2.070312 4.960938 -1.570312 4.765625 -1.15625 C 4.566406 -0.738281 4.300781 -0.421875 3.96875 -0.203125 C 3.632812 0.00390625 3.265625 0.109375 2.859375 0.109375 C 2.523438 0.109375 2.238281 0.0351562 2 -0.109375 C 1.769531 -0.265625 1.585938 -0.441406 1.453125 -0.640625 L 1.453125 0 L 0.65625 0 L 0.65625 -7 L 1.515625 -7 Z M 1.453125 -2.53125 C 1.453125 -2.257812 1.457031 -2.054688 1.46875 -1.921875 C 1.488281 -1.796875 1.523438 -1.664062 1.578125 -1.53125 C 1.703125 -1.175781 1.878906 -0.929688 2.109375 -0.796875 C 2.335938 -0.660156 2.5625 -0.59375 2.78125 -0.59375 C 3.207031 -0.59375 3.546875 -0.765625 3.796875 -1.109375 C 4.046875 -1.460938 4.171875 -1.972656 4.171875 -2.640625 C 4.171875 -3.179688 4.046875 -3.625 3.796875 -3.96875 C 3.554688 -4.3125 3.226562 -4.484375 2.8125 -4.484375 C 2.570312 -4.484375 2.34375 -4.40625 2.125 -4.25 C 1.914062 -4.101562 1.75 -3.882812 1.625 -3.59375 C 1.507812 -3.300781 1.453125 -2.945312 1.453125 -2.53125 Z M 1.453125 -2.53125 "/></g></g><g style="fill:#808080;fill-opacity:1;"><g transform="translate(21.200782, 12.273719)"><path style="stroke:none" d="M 2.78125 -5.1875 C 3.28125 -5.1875 3.703125 -5.046875 4.046875 -4.765625 C 4.390625 -4.492188 4.613281 -4.097656 4.71875 -3.578125 L 3.890625 -3.453125 C 3.816406 -3.753906 3.679688 -4 3.484375 -4.1875 C 3.296875 -4.382812 3.046875 -4.484375 2.734375 -4.484375 C 2.273438 -4.484375 1.914062 -4.316406 1.65625 -3.984375 C 1.394531 -3.660156 1.265625 -3.1875 1.265625 -2.5625 C 1.265625 -1.925781 1.382812 -1.4375 1.625 -1.09375 C 1.875 -0.757812 2.226562 -0.59375 2.6875 -0.59375 C 3.050781 -0.59375 3.335938 -0.703125 3.546875 -0.921875 C 3.753906 -1.148438 3.890625 -1.460938 3.953125 -1.859375 L 4.796875 -1.75 C 4.710938 -1.164062 4.476562 -0.707031 4.09375 -0.375 C 3.707031 -0.0507812 3.238281 0.109375 2.6875 0.109375 C 1.957031 0.109375 1.390625 -0.125 0.984375 -0.59375 C 0.578125 -1.070312 0.375 -1.742188 0.375 -2.609375 C 0.375 -3.410156 0.585938 -4.039062 1.015625 -4.5 C 1.441406 -4.957031 2.03125 -5.1875 2.78125 -5.1875 Z M 2.78125 -5.1875 "/></g></g><g style="fill:#808080;fill-opacity:1;"><g transform="translate(26.104078, 12.833768)"><path style="stroke:none" d="M 2.078125 0 L 1.171875 0 L 1.171875 -7.703125 L 2.078125 -7.703125 Z M 2.078125 0 "/></g></g><g clip-rule="nonzero" clip-path="url(#561c789fa4)"><path style="fill:none;stroke-width:2;stroke-linecap:butt;stroke-linejoin:miter;stroke:#e4e2df;stroke-opacity:1;stroke-miterlimit:4;" d="M -0.000249906 -0.0000926771 L 34.70253 -0.0000926771 L 34.70253 44.971438 L -0.000249906 44.971438 Z M -0.000249906 -0.0000926771 " transform="matrix(0,0.725806,-0.725806,0,39.070245,1.91815)"/></g></g></svg>