<svg xmlns="http://www.w3.org/2000/svg" xmlns:xlink="http://www.w3.org/1999/xlink" width="61" zoomAndPan="magnify" viewBox="0 0 46.079998 37.92" height="40" preserveAspectRatio="xMidYMid meet" version="1.2"><defs><clipPath id="730b4d6e19"><path d="M 7.210938 3.335938 L 37.644531 3.335938 L 37.644531 28.515625 L 7.210938 28.515625 Z M 7.210938 3.335938 "/></clipPath><clipPath id="98462e68bf"><path d="M 8.992188 4.820312 L 35.90625 4.820312 L 35.90625 26.585938 L 8.992188 26.585938 Z M 8.992188 4.820312 "/></clipPath><clipPath id="a81b13e047"><path d="M 12.4375 1.5625 L 15.492188 1.5625 L 15.492188 6.777344 L 12.4375 6.777344 Z M 12.4375 1.5625 "/></clipPath><clipPath id="4e16b743bf"><path d="M 13.964844 1.5625 C 14.367188 1.5625 14.757812 1.722656 15.042969 2.007812 C 15.332031 2.292969 15.492188 2.683594 15.492188 3.089844 L 15.492188 5.246094 C 15.492188 5.648438 15.332031 6.039062 15.042969 6.324219 C 14.757812 6.609375 14.367188 6.773438 13.964844 6.773438 C 13.558594 6.773438 13.171875 6.609375 12.882812 6.324219 C 12.597656 6.039062 12.4375 5.648438 12.4375 5.246094 L 12.4375 3.089844 C 12.4375 2.683594 12.597656 2.292969 12.882812 2.007812 C 13.171875 1.722656 13.558594 1.5625 13.964844 1.5625 Z M 13.964844 1.5625 "/></clipPath><clipPath id="9c28eea95f"><path d="M 11.035156 8.277344 L 15.636719 8.277344 L 15.636719 12.859375 L 11.035156 12.859375 Z M 11.035156 8.277344 "/></clipPath><clipPath id="c257c34788"><path d="M 17.101562 8.277344 L 21.703125 8.277344 L 21.703125 12.859375 L 17.101562 12.859375 Z M 17.101562 8.277344 "/></clipPath><clipPath id="d8b8fbf4c2"><path d="M 23.167969 8.277344 L 27.765625 8.277344 L 27.765625 12.859375 L 23.167969 12.859375 Z M 23.167969 8.277344 "/></clipPath><clipPath id="5bcba15661"><path d="M 29.21875 8.277344 L 33.816406 8.277344 L 33.816406 12.859375 L 29.21875 12.859375 Z M 29.21875 8.277344 "/></clipPath><clipPath id="671255c619"><path d="M 11.058594 14.402344 L 15.660156 14.402344 L 15.660156 18.988281 L 11.058594 18.988281 Z M 11.058594 14.402344 "/></clipPath><clipPath id="1c4ee8d594"><path d="M 17.125 14.402344 L 21.726562 14.402344 L 21.726562 18.988281 L 17.125 18.988281 Z M 17.125 14.402344 "/></clipPath><clipPath id="c7727633b7"><path d="M 23.191406 14.402344 L 27.789062 14.402344 L 27.789062 18.988281 L 23.191406 18.988281 Z M 23.191406 14.402344 "/></clipPath><clipPath id="15a9dfc868"><path d="M 29.242188 14.402344 L 33.839844 14.402344 L 33.839844 18.988281 L 29.242188 18.988281 Z M 29.242188 14.402344 "/></clipPath><clipPath id="b3d2559af8"><path d="M 11.035156 20.527344 L 15.636719 20.527344 L 15.636719 25.113281 L 11.035156 25.113281 Z M 11.035156 20.527344 "/></clipPath><clipPath id="9c4796d5aa"><path d="M 17.101562 20.527344 L 21.703125 20.527344 L 21.703125 25.113281 L 17.101562 25.113281 Z M 17.101562 20.527344 "/></clipPath><clipPath id="61add75717"><path d="M 23.167969 20.527344 L 27.765625 20.527344 L 27.765625 25.113281 L 23.167969 25.113281 Z M 23.167969 20.527344 "/></clipPath><clipPath id="b1b2bb7f4d"><path d="M 29.21875 20.527344 L 33.816406 20.527344 L 33.816406 25.113281 L 29.21875 25.113281 Z M 29.21875 20.527344 "/></clipPath><clipPath id="00276676ae"><path d="M 29.320312 1.5625 L 32.375 1.5625 L 32.375 6.777344 L 29.320312 6.777344 Z M 29.320312 1.5625 "/></clipPath><clipPath id="fb05f90e48"><path d="M 30.847656 1.5625 C 31.253906 1.5625 31.640625 1.722656 31.925781 2.007812 C 32.214844 2.292969 32.375 2.683594 32.375 3.089844 L 32.375 5.246094 C 32.375 5.648438 32.214844 6.039062 31.925781 6.324219 C 31.640625 6.609375 31.253906 6.773438 30.847656 6.773438 C 30.441406 6.773438 30.054688 6.609375 29.765625 6.324219 C 29.480469 6.039062 29.320312 5.648438 29.320312 5.246094 L 29.320312 3.089844 C 29.320312 2.683594 29.480469 2.292969 29.765625 2.007812 C 30.054688 1.722656 30.441406 1.5625 30.847656 1.5625 Z M 30.847656 1.5625 "/></clipPath></defs><g id="ae950226b7"><g clip-rule="nonzero" clip-path="url(#730b4d6e19)"><path style=" stroke:none;fill-rule:nonzero;fill:#bab8b7;fill-opacity:1;" d="M 7.210938 3.335938 L 37.605469 3.335938 L 37.605469 28.515625 L 7.210938 28.515625 Z M 7.210938 3.335938 "/></g><g clip-rule="nonzero" clip-path="url(#98462e68bf)"><path style=" stroke:none;fill-rule:nonzero;fill:#ffffff;fill-opacity:1;" d="M 8.992188 4.820312 L 35.945312 4.820312 L 35.945312 26.585938 L 8.992188 26.585938 Z M 8.992188 4.820312 "/></g><g clip-rule="nonzero" clip-path="url(#a81b13e047)"><g clip-rule="nonzero" clip-path="url(#4e16b743bf)"><path style=" stroke:none;fill-rule:nonzero;fill:#585958;fill-opacity:1;" d="M 12.4375 1.5625 L 15.492188 1.5625 L 15.492188 6.777344 L 12.4375 6.777344 Z M 12.4375 1.5625 "/></g></g><g clip-rule="nonzero" clip-path="url(#9c28eea95f)"><path style=" stroke:none;fill-rule:nonzero;fill:#bab8b7;fill-opacity:1;" d="M 11.035156 8.277344 L 15.640625 8.277344 L 15.640625 12.859375 L 11.035156 12.859375 Z M 11.035156 8.277344 "/></g><g clip-rule="nonzero" clip-path="url(#c257c34788)"><path style=" stroke:none;fill-rule:nonzero;fill:#bab8b7;fill-opacity:1;" d="M 17.101562 8.277344 L 21.703125 8.277344 L 21.703125 12.859375 L 17.101562 12.859375 Z M 17.101562 8.277344 "/></g><g clip-rule="nonzero" clip-path="url(#d8b8fbf4c2)"><path style=" stroke:none;fill-rule:nonzero;fill:#bab8b7;fill-opacity:1;" d="M 23.167969 8.277344 L 27.769531 8.277344 L 27.769531 12.859375 L 23.167969 12.859375 Z M 23.167969 8.277344 "/></g><g clip-rule="nonzero" clip-path="url(#5bcba15661)"><path style=" stroke:none;fill-rule:nonzero;fill:#bab8b7;fill-opacity:1;" d="M 29.21875 8.277344 L 33.820312 8.277344 L 33.820312 12.859375 L 29.21875 12.859375 Z M 29.21875 8.277344 "/></g><g clip-rule="nonzero" clip-path="url(#671255c619)"><path style=" stroke:none;fill-rule:nonzero;fill:#e4e2df;fill-opacity:1;" d="M 11.058594 14.402344 L 15.660156 14.402344 L 15.660156 18.988281 L 11.058594 18.988281 Z M 11.058594 14.402344 "/></g><g clip-rule="nonzero" clip-path="url(#1c4ee8d594)"><path style=" stroke:none;fill-rule:nonzero;fill:#e4e2df;fill-opacity:1;" d="M 17.125 14.402344 L 21.726562 14.402344 L 21.726562 18.988281 L 17.125 18.988281 Z M 17.125 14.402344 "/></g><g clip-rule="nonzero" clip-path="url(#c7727633b7)"><path style=" stroke:none;fill-rule:nonzero;fill:#e4e2df;fill-opacity:1;" d="M 23.191406 14.402344 L 27.792969 14.402344 L 27.792969 18.988281 L 23.191406 18.988281 Z M 23.191406 14.402344 "/></g><g clip-rule="nonzero" clip-path="url(#15a9dfc868)"><path style=" stroke:none;fill-rule:nonzero;fill:#e4e2df;fill-opacity:1;" d="M 29.242188 14.402344 L 33.84375 14.402344 L 33.84375 18.988281 L 29.242188 18.988281 Z M 29.242188 14.402344 "/></g><g clip-rule="nonzero" clip-path="url(#b3d2559af8)"><path style=" stroke:none;fill-rule:nonzero;fill:#e4e2df;fill-opacity:1;" d="M 11.035156 20.527344 L 15.640625 20.527344 L 15.640625 25.113281 L 11.035156 25.113281 Z M 11.035156 20.527344 "/></g><g clip-rule="nonzero" clip-path="url(#9c4796d5aa)"><path style=" stroke:none;fill-rule:nonzero;fill:#e4e2df;fill-opacity:1;" d="M 17.101562 20.527344 L 21.703125 20.527344 L 21.703125 25.113281 L 17.101562 25.113281 Z M 17.101562 20.527344 "/></g><g clip-rule="nonzero" clip-path="url(#61add75717)"><path style=" stroke:none;fill-rule:nonzero;fill:#e4e2df;fill-opacity:1;" d="M 23.167969 20.527344 L 27.769531 20.527344 L 27.769531 25.113281 L 23.167969 25.113281 Z M 23.167969 20.527344 "/></g><g clip-rule="nonzero" clip-path="url(#b1b2bb7f4d)"><path style=" stroke:none;fill-rule:nonzero;fill:#e4e2df;fill-opacity:1;" d="M 29.21875 20.527344 L 33.820312 20.527344 L 33.820312 25.113281 L 29.21875 25.113281 Z M 29.21875 20.527344 "/></g><g clip-rule="nonzero" clip-path="url(#00276676ae)"><g clip-rule="nonzero" clip-path="url(#fb05f90e48)"><path style=" stroke:none;fill-rule:nonzero;fill:#585958;fill-opacity:1;" d="M 29.320312 1.5625 L 32.375 1.5625 L 32.375 6.777344 L 29.320312 6.777344 Z M 29.320312 1.5625 "/></g></g></g></svg>