<svg xmlns="http://www.w3.org/2000/svg" xmlns:xlink="http://www.w3.org/1999/xlink" width="61" zoomAndPan="magnify" viewBox="0 0 46.079998 37.92" height="40" preserveAspectRatio="xMidYMid meet" version="1.2"><defs><clipPath id="0b994301a2"><path d="M 6.214844 3.8125 L 15.921875 3.8125 L 15.921875 11.058594 L 6.214844 11.058594 Z M 6.214844 3.8125 "/></clipPath><clipPath id="d388a65df9"><path d="M 28.933594 3.8125 L 38.640625 3.8125 L 38.640625 11.058594 L 28.933594 11.058594 Z M 28.933594 3.8125 "/></clipPath><clipPath id="da53f8e581"><path d="M 6.214844 21.253906 L 15.921875 21.253906 L 15.921875 28.503906 L 6.214844 28.503906 Z M 6.214844 21.253906 "/></clipPath><clipPath id="9b4dce5e83"><path d="M 28.933594 21.253906 L 38.640625 21.253906 L 38.640625 28.503906 L 28.933594 28.503906 Z M 28.933594 21.253906 "/></clipPath><clipPath id="fd708522a5"><path d="M 15 0.332031 L 24 0.332031 L 24 29.746094 L 15 29.746094 Z M 15 0.332031 "/></clipPath><filter x="0%" y="0%" width="100%" filterUnits="objectBoundingBox" id="03f7d78f0e" height="100%"><feColorMatrix values="0 0 0 0 1 0 0 0 0 1 0 0 0 0 1 0 0 0 1 0" type="matrix" in="SourceGraphic"/></filter><clipPath id="c214e8335f"><path d="M 0.457031 0.4375 L 25.789062 0.4375 L 25.789062 9.878906 L 0.457031 9.878906 Z M 0.457031 0.4375 "/></clipPath><clipPath id="57e7349b9b"><rect x="0" width="26" y="0" height="11"/></clipPath></defs><g id="55629e5a01"><g clip-rule="nonzero" clip-path="url(#0b994301a2)"><path style=" stroke:none;fill-rule:nonzero;fill:#585958;fill-opacity:1;" d="M 6.214844 3.8125 L 15.925781 3.8125 L 15.925781 11.058594 L 6.214844 11.058594 Z M 6.214844 3.8125 "/></g><g clip-rule="nonzero" clip-path="url(#d388a65df9)"><path style=" stroke:none;fill-rule:nonzero;fill:#585958;fill-opacity:1;" d="M 28.933594 3.8125 L 38.644531 3.8125 L 38.644531 11.058594 L 28.933594 11.058594 Z M 28.933594 3.8125 "/></g><g clip-rule="nonzero" clip-path="url(#da53f8e581)"><path style=" stroke:none;fill-rule:nonzero;fill:#bab8b7;fill-opacity:1;" d="M 6.214844 21.253906 L 15.925781 21.253906 L 15.925781 28.503906 L 6.214844 28.503906 Z M 6.214844 21.253906 "/></g><g clip-rule="nonzero" clip-path="url(#9b4dce5e83)"><path style=" stroke:none;fill-rule:nonzero;fill:#bab8b7;fill-opacity:1;" d="M 28.933594 21.253906 L 38.644531 21.253906 L 38.644531 28.503906 L 28.933594 28.503906 Z M 28.933594 21.253906 "/></g><g clip-rule="nonzero" clip-path="url(#fd708522a5)"><path style="fill:none;stroke-width:1;stroke-linecap:butt;stroke-linejoin:miter;stroke:#f5d228;stroke-opacity:1;stroke-miterlimit:4;" d="M -0.0011331 0.499597 L 36.612581 0.500515 " transform="matrix(0.00599296,0.735295,-0.735295,0.00599296,19.929858,1.575964)"/></g><g mask="url(#38e9c40dd7)" transform="matrix(1,0,0,1,8,11)"><g clip-path="url(#57e7349b9b)"><g clip-rule="nonzero" clip-path="url(#c214e8335f)"><path style=" stroke:none;fill-rule:nonzero;fill:#585958;fill-opacity:1;" d="M 0.457031 0.4375 L 25.792969 0.4375 L 25.792969 9.878906 L 0.457031 9.878906 Z M 0.457031 0.4375 "/></g></g><mask id="38e9c40dd7"><g filter="url(#03f7d78f0e)"><rect x="0" width="46.079998" y="0" height="37.92" style="fill:#000000;fill-opacity:0.91;stroke:none;"/></g></mask></g></g></svg>