<svg xmlns="http://www.w3.org/2000/svg" xmlns:xlink="http://www.w3.org/1999/xlink" width="61" zoomAndPan="magnify" viewBox="0 0 46.079998 37.92" height="40" preserveAspectRatio="xMidYMid meet" version="1.2"><defs><clipPath id="87641e14b2"><path d="M 8.488281 7.472656 L 36.382812 7.472656 L 36.382812 22.601562 L 8.488281 22.601562 Z M 8.488281 7.472656 "/></clipPath><clipPath id="31ed8248ce"><path d="M 16.054688 7.472656 L 28.800781 7.472656 C 32.980469 7.472656 36.367188 10.859375 36.367188 15.039062 C 36.367188 19.214844 32.980469 22.601562 28.800781 22.601562 L 16.054688 22.601562 C 11.875 22.601562 8.488281 19.214844 8.488281 15.039062 C 8.488281 10.859375 11.875 7.472656 16.054688 7.472656 Z M 16.054688 7.472656 "/></clipPath><clipPath id="97452c27b8"><path d="M 8.496094 7.472656 L 36.371094 7.472656 L 36.371094 22.59375 L 8.496094 22.59375 Z M 8.496094 7.472656 "/></clipPath><clipPath id="d0468b4630"><path d="M 16.054688 7.472656 L 28.796875 7.472656 C 32.96875 7.472656 36.355469 10.859375 36.355469 15.035156 C 36.355469 19.207031 32.96875 22.59375 28.796875 22.59375 L 16.054688 22.59375 C 11.878906 22.59375 8.496094 19.207031 8.496094 15.035156 C 8.496094 10.859375 11.878906 7.472656 16.054688 7.472656 Z M 16.054688 7.472656 "/></clipPath><clipPath id="acaa7bb5da"><path d="M 10.140625 8.894531 L 22.425781 8.894531 L 22.425781 21.179688 L 10.140625 21.179688 Z M 10.140625 8.894531 "/></clipPath><clipPath id="623565d322"><path d="M 16.285156 8.894531 C 12.890625 8.894531 10.140625 11.644531 10.140625 15.039062 C 10.140625 18.429688 12.890625 21.179688 16.285156 21.179688 C 19.675781 21.179688 22.425781 18.429688 22.425781 15.039062 C 22.425781 11.644531 19.675781 8.894531 16.285156 8.894531 Z M 16.285156 8.894531 "/></clipPath></defs><g id="d0f21f6b9a"><g clip-rule="nonzero" clip-path="url(#87641e14b2)"><g clip-rule="nonzero" clip-path="url(#31ed8248ce)"><path style=" stroke:none;fill-rule:nonzero;fill:#bab8b7;fill-opacity:1;" d="M 8.488281 7.472656 L 36.382812 7.472656 L 36.382812 22.601562 L 8.488281 22.601562 Z M 8.488281 7.472656 "/></g></g><g clip-rule="nonzero" clip-path="url(#97452c27b8)"><g clip-rule="nonzero" clip-path="url(#d0468b4630)"><path style="fill:none;stroke-width:4;stroke-linecap:butt;stroke-linejoin:miter;stroke:#585958;stroke-opacity:1;stroke-miterlimit:4;" d="M 10.281455 -0.00137169 L 27.610241 -0.00137169 C 33.283799 -0.00137169 37.88958 4.604409 37.88958 10.283279 C 37.88958 15.956836 33.283799 20.562618 27.610241 20.562618 L 10.281455 20.562618 C 4.602585 20.562618 0.00211627 15.956836 0.00211627 10.283279 C 0.00211627 4.604409 4.602585 -0.00137169 10.281455 -0.00137169 Z M 10.281455 -0.00137169 " transform="matrix(0.735319,0,0,0.735319,8.494538,7.473665)"/></g></g><g clip-rule="nonzero" clip-path="url(#acaa7bb5da)"><g clip-rule="nonzero" clip-path="url(#623565d322)"><path style=" stroke:none;fill-rule:nonzero;fill:#585958;fill-opacity:1;" d="M 10.140625 8.894531 L 22.425781 8.894531 L 22.425781 21.179688 L 10.140625 21.179688 Z M 10.140625 8.894531 "/></g></g></g></svg>