<svg xmlns="http://www.w3.org/2000/svg" xmlns:xlink="http://www.w3.org/1999/xlink" width="61" zoomAndPan="magnify" viewBox="0 0 45.75 30.000001" height="40" preserveAspectRatio="xMidYMid meet" version="1.2"><defs><clipPath id="a7dbc5259a"><path d="M 8.523438 1.632812 L 22.042969 1.632812 L 22.042969 6.4375 L 8.523438 6.4375 Z M 8.523438 1.632812 "/></clipPath><clipPath id="8e408de869"><path d="M 16.574219 7.609375 L 33.53125 7.609375 L 33.53125 11.816406 L 16.574219 11.816406 Z M 16.574219 7.609375 "/></clipPath><clipPath id="f6f0d97968"><path d="M 22.042969 13.433594 L 36.984375 13.433594 L 36.984375 17.195312 L 22.042969 17.195312 Z M 22.042969 13.433594 "/></clipPath><clipPath id="6f141b18a3"><path d="M 22.042969 18.730469 L 33.53125 18.730469 L 33.53125 22.488281 L 22.042969 22.488281 Z M 22.042969 18.730469 "/></clipPath><clipPath id="5cba67bba3"><path d="M 15.28125 23.640625 L 26.773438 23.640625 L 26.773438 27.398438 L 15.28125 27.398438 Z M 15.28125 23.640625 "/></clipPath></defs><g id="03dd8aeff3"><path style="fill:none;stroke-width:1;stroke-linecap:butt;stroke-linejoin:miter;stroke:#808080;stroke-opacity:1;stroke-miterlimit:4;" d="M 0.00264985 0.499202 L 26.610983 0.499202 " transform="matrix(0.00000000126677,0.725806,-0.725806,0.00000000126677,10.80373,6.205108)"/><path style="fill:none;stroke-width:1;stroke-linecap:butt;stroke-linejoin:miter;stroke:#808080;stroke-opacity:1;stroke-miterlimit:4;" d="M 0.000245457 0.499425 L 10.979412 0.499425 " transform="matrix(-0.725806,-0.00000000126677,0.00000000126677,-0.725806,18.211116,10.07733)"/><path style="fill:none;stroke-width:1;stroke-linecap:butt;stroke-linejoin:miter;stroke:#808080;stroke-opacity:1;stroke-miterlimit:4;" d="M 0.0017775 0.49896 L 10.980944 0.49896 " transform="matrix(-0.725806,-0.00000000126677,0.00000000126677,-0.725806,26.372384,21.252774)"/><path style="fill:none;stroke-width:1;stroke-linecap:butt;stroke-linejoin:miter;stroke:#808080;stroke-opacity:1;stroke-miterlimit:4;" d="M 0.00254702 0.501732 L 10.981714 0.501732 " transform="matrix(-0.725806,-0.00000000126677,0.00000000126677,-0.725806,26.564349,15.485254)"/><path style="fill:none;stroke-width:1;stroke-linecap:butt;stroke-linejoin:miter;stroke:#808080;stroke-opacity:1;stroke-miterlimit:4;" d="M 0.00119455 0.497905 L 18.009181 0.497905 " transform="matrix(0,0.725806,-0.725806,0,18.962945,8.206164)"/><path style="fill:none;stroke-width:1;stroke-linecap:butt;stroke-linejoin:miter;stroke:#808080;stroke-opacity:1;stroke-miterlimit:4;" d="M -0.00010182 0.49909 L 7.766044 0.49909 " transform="matrix(-0.725806,0,0,-0.725806,15.874926,25.690368)"/><g clip-rule="nonzero" clip-path="url(#a7dbc5259a)"><path style=" stroke:none;fill-rule:nonzero;fill:#e4e2df;fill-opacity:1;" d="M 8.523438 1.632812 L 22.039062 1.632812 L 22.039062 6.4375 L 8.523438 6.4375 Z M 8.523438 1.632812 "/></g><g clip-rule="nonzero" clip-path="url(#8e408de869)"><path style=" stroke:none;fill-rule:nonzero;fill:#808080;fill-opacity:1;" d="M 16.574219 7.609375 L 33.53125 7.609375 L 33.53125 11.816406 L 16.574219 11.816406 Z M 16.574219 7.609375 "/></g><g clip-rule="nonzero" clip-path="url(#f6f0d97968)"><path style=" stroke:none;fill-rule:nonzero;fill:#585958;fill-opacity:1;" d="M 22.042969 13.433594 L 36.988281 13.433594 L 36.988281 17.195312 L 22.042969 17.195312 Z M 22.042969 13.433594 "/></g><g clip-rule="nonzero" clip-path="url(#6f141b18a3)"><path style=" stroke:none;fill-rule:nonzero;fill:#585958;fill-opacity:1;" d="M 22.042969 18.730469 L 33.523438 18.730469 L 33.523438 22.488281 L 22.042969 22.488281 Z M 22.042969 18.730469 "/></g><g clip-rule="nonzero" clip-path="url(#5cba67bba3)"><path style=" stroke:none;fill-rule:nonzero;fill:#808080;fill-opacity:1;" d="M 15.28125 23.640625 L 26.765625 23.640625 L 26.765625 27.398438 L 15.28125 27.398438 Z M 15.28125 23.640625 "/></g></g></svg>