<svg xmlns="http://www.w3.org/2000/svg" xmlns:xlink="http://www.w3.org/1999/xlink" width="275" zoomAndPan="magnify" viewBox="0 0 206.25 187.499992" height="250" preserveAspectRatio="xMidYMid meet" version="1.0"><defs><g/><clipPath id="0203d52582"><path d="M 0 0.0898438 L 205.503906 0.0898438 L 205.503906 186.910156 L 0 186.910156 Z M 0 0.0898438 " clip-rule="nonzero"/></clipPath><clipPath id="f64f7979c8"><path d="M 8.96875 0.0898438 L 196.535156 0.0898438 C 198.914062 0.0898438 201.195312 1.035156 202.875 2.71875 C 204.558594 4.398438 205.503906 6.679688 205.503906 9.058594 L 205.503906 177.945312 C 205.503906 180.320312 204.558594 182.601562 202.875 184.285156 C 201.195312 185.964844 198.914062 186.910156 196.535156 186.910156 L 8.96875 186.910156 C 6.589844 186.910156 4.308594 185.964844 2.625 184.285156 C 0.945312 182.601562 0 180.320312 0 177.945312 L 0 9.058594 C 0 6.679688 0.945312 4.398438 2.625 2.71875 C 4.308594 1.035156 6.589844 0.0898438 8.96875 0.0898438 Z M 8.96875 0.0898438 " clip-rule="nonzero"/></clipPath><clipPath id="05a0f3f473"><path d="M 0 0.0898438 L 205.503906 0.0898438 L 205.503906 186.910156 L 0 186.910156 Z M 0 0.0898438 " clip-rule="nonzero"/></clipPath><clipPath id="bcd45dc2b3"><path d="M 8.96875 0.0898438 L 196.535156 0.0898438 C 198.914062 0.0898438 201.195312 1.035156 202.875 2.71875 C 204.558594 4.398438 205.503906 6.679688 205.503906 9.058594 L 205.503906 177.945312 C 205.503906 180.320312 204.558594 182.601562 202.875 184.285156 C 201.195312 185.964844 198.914062 186.910156 196.535156 186.910156 L 8.96875 186.910156 C 6.589844 186.910156 4.308594 185.964844 2.625 184.285156 C 0.945312 182.601562 0 180.320312 0 177.945312 L 0 9.058594 C 0 6.679688 0.945312 4.398438 2.625 2.71875 C 4.308594 1.035156 6.589844 0.0898438 8.96875 0.0898438 Z M 8.96875 0.0898438 " clip-rule="nonzero"/></clipPath><clipPath id="b82ae2074d"><rect x="0" width="206" y="0" height="187"/></clipPath></defs><g clip-path="url(#0203d52582)"><g clip-path="url(#f64f7979c8)"><g transform="matrix(1, 0, 0, 1, 0, -0.000000000000024966)"><g clip-path="url(#b82ae2074d)"><g clip-path="url(#05a0f3f473)"><g clip-path="url(#bcd45dc2b3)"><path fill="#fbfeff" d="M 0 0.0898438 L 205.792969 0.0898438 L 205.792969 186.910156 L 0 186.910156 Z M 0 0.0898438 " fill-opacity="1" fill-rule="nonzero"/></g></g></g></g><path stroke-linecap="butt" transform="matrix(0.747283, 0, 0, 0.747283, 0, 0.09058)" fill="none" stroke-linejoin="miter" d="M 12.001819 -0.000985185 L 262.999784 -0.000985185 C 266.183193 -0.000985185 269.23592 1.264015 271.483648 3.51697 C 273.736602 5.764697 275.001602 8.817424 275.001602 12.000833 L 275.001602 238.001979 C 275.001602 241.180161 273.736602 244.232889 271.483648 246.485843 C 269.23592 248.733571 266.183193 249.998571 262.999784 249.998571 L 12.001819 249.998571 C 8.818409 249.998571 5.765682 248.733571 3.512727 246.485843 C 1.265 244.232889 0 241.180161 0 238.001979 L 0 12.000833 C 0 8.817424 1.265 5.764697 3.512727 3.51697 C 5.765682 1.264015 8.818409 -0.000985185 12.001819 -0.000985185 Z M 12.001819 -0.000985185 " stroke="#1272fa" stroke-width="4" stroke-opacity="1" stroke-miterlimit="4"/></g></g><g fill="#2563eb" fill-opacity="1"><g transform="translate(73.927264, 129.666302)"><g><path d="M 9.953125 -12.125 L 9.953125 -9.203125 L 6.625 -9.203125 L 6.625 0 L 3.5 0 L 3.5 -9.203125 L 0.1875 -9.203125 L 0.1875 -12.125 Z M 9.953125 -12.125 "/></g></g></g><g fill="#2563eb" fill-opacity="1"><g transform="translate(84.072295, 129.666302)"><g><path d="M 4.25 0 L 1.140625 0 L 1.140625 -12.125 L 5.546875 -12.125 C 7.097656 -12.125 8.335938 -11.757812 9.265625 -11.03125 C 10.203125 -10.289062 10.671875 -9.320312 10.671875 -8.125 C 10.671875 -7.332031 10.472656 -6.632812 10.078125 -6.03125 C 9.691406 -5.4375 9.140625 -4.972656 8.421875 -4.640625 L 10.96875 0 L 7.359375 0 L 5.28125 -4.046875 L 4.25 -4.046875 Z M 5.796875 -9.390625 L 4.25 -9.390625 L 4.25 -6.796875 L 5.796875 -6.796875 C 6.253906 -6.796875 6.628906 -6.914062 6.921875 -7.15625 C 7.210938 -7.394531 7.359375 -7.71875 7.359375 -8.125 C 7.359375 -8.5 7.210938 -8.800781 6.921875 -9.03125 C 6.628906 -9.269531 6.253906 -9.390625 5.796875 -9.390625 Z M 5.796875 -9.390625 "/></g></g></g><g fill="#2563eb" fill-opacity="1"><g transform="translate(95.617946, 129.666302)"><g><path d="M 9.203125 0 L 1.140625 0 L 1.140625 -12.125 L 9.203125 -12.125 L 9.203125 -9.203125 L 4.25 -9.203125 L 4.25 -7.609375 L 8.4375 -7.609375 L 8.4375 -4.671875 L 4.25 -4.671875 L 4.25 -2.9375 L 9.203125 -2.9375 Z M 9.203125 0 "/></g></g></g><g fill="#2563eb" fill-opacity="1"><g transform="translate(105.384433, 129.666302)"><g><path d="M 12.046875 0 L 8.703125 0 L 4.25 -6.90625 L 4.25 0 L 1.140625 0 L 1.140625 -12.125 L 4.484375 -12.125 L 8.9375 -5.109375 L 8.9375 -12.125 L 12.046875 -12.125 Z M 12.046875 0 "/></g></g></g><g fill="#2563eb" fill-opacity="1"><g transform="translate(118.576759, 129.666302)"><g><path d="M 5.546875 0 L 1.140625 0 L 1.140625 -12.125 L 5.546875 -12.125 C 7.523438 -12.125 9.160156 -11.550781 10.453125 -10.40625 C 11.753906 -9.257812 12.40625 -7.800781 12.40625 -6.03125 C 12.40625 -4.289062 11.757812 -2.851562 10.46875 -1.71875 C 9.164062 -0.570312 7.523438 0 5.546875 0 Z M 5.484375 -9.203125 L 4.359375 -9.203125 L 4.359375 -2.9375 L 5.5 -2.9375 C 6.570312 -2.9375 7.429688 -3.222656 8.078125 -3.796875 C 8.734375 -4.367188 9.0625 -5.128906 9.0625 -6.078125 C 9.0625 -7.003906 8.734375 -7.753906 8.078125 -8.328125 C 7.421875 -8.910156 6.554688 -9.203125 5.484375 -9.203125 Z M 5.484375 -9.203125 "/></g></g></g><g fill="#2563eb" fill-opacity="1"><g transform="translate(50.189366, 150.590214)"><g><path d="M 4.25 0 L 1.140625 0 L 1.140625 -12.125 L 5.546875 -12.125 C 7.097656 -12.125 8.335938 -11.738281 9.265625 -10.96875 C 10.203125 -10.1875 10.671875 -9.171875 10.671875 -7.921875 C 10.671875 -6.648438 10.203125 -5.625 9.265625 -4.84375 C 8.304688 -4.0625 7.0625 -3.671875 5.53125 -3.671875 L 4.25 -3.671875 Z M 5.796875 -9.390625 L 4.25 -9.390625 L 4.25 -6.421875 L 5.796875 -6.421875 C 6.253906 -6.421875 6.628906 -6.554688 6.921875 -6.828125 C 7.210938 -7.109375 7.359375 -7.472656 7.359375 -7.921875 C 7.359375 -8.367188 7.210938 -8.722656 6.921875 -8.984375 C 6.628906 -9.253906 6.253906 -9.390625 5.796875 -9.390625 Z M 5.796875 -9.390625 "/></g></g></g><g fill="#2563eb" fill-opacity="1"><g transform="translate(61.242901, 150.590214)"><g><path d="M 4.25 0 L 1.140625 0 L 1.140625 -12.125 L 5.546875 -12.125 C 7.097656 -12.125 8.335938 -11.757812 9.265625 -11.03125 C 10.203125 -10.289062 10.671875 -9.320312 10.671875 -8.125 C 10.671875 -7.332031 10.472656 -6.632812 10.078125 -6.03125 C 9.691406 -5.4375 9.140625 -4.972656 8.421875 -4.640625 L 10.96875 0 L 7.359375 0 L 5.28125 -4.046875 L 4.25 -4.046875 Z M 5.796875 -9.390625 L 4.25 -9.390625 L 4.25 -6.796875 L 5.796875 -6.796875 C 6.253906 -6.796875 6.628906 -6.914062 6.921875 -7.15625 C 7.210938 -7.394531 7.359375 -7.71875 7.359375 -8.125 C 7.359375 -8.5 7.210938 -8.800781 6.921875 -9.03125 C 6.628906 -9.269531 6.253906 -9.390625 5.796875 -9.390625 Z M 5.796875 -9.390625 "/></g></g></g><g fill="#2563eb" fill-opacity="1"><g transform="translate(72.788552, 150.590214)"><g><path d="M 9.203125 0 L 1.140625 0 L 1.140625 -12.125 L 9.203125 -12.125 L 9.203125 -9.203125 L 4.25 -9.203125 L 4.25 -7.609375 L 8.4375 -7.609375 L 8.4375 -4.671875 L 4.25 -4.671875 L 4.25 -2.9375 L 9.203125 -2.9375 Z M 9.203125 0 "/></g></g></g><g fill="#2563eb" fill-opacity="1"><g transform="translate(82.555039, 150.590214)"><g><path d="M 5.546875 0 L 1.140625 0 L 1.140625 -12.125 L 5.546875 -12.125 C 7.523438 -12.125 9.160156 -11.550781 10.453125 -10.40625 C 11.753906 -9.257812 12.40625 -7.800781 12.40625 -6.03125 C 12.40625 -4.289062 11.757812 -2.851562 10.46875 -1.71875 C 9.164062 -0.570312 7.523438 0 5.546875 0 Z M 5.484375 -9.203125 L 4.359375 -9.203125 L 4.359375 -2.9375 L 5.5 -2.9375 C 6.570312 -2.9375 7.429688 -3.222656 8.078125 -3.796875 C 8.734375 -4.367188 9.0625 -5.128906 9.0625 -6.078125 C 9.0625 -7.003906 8.734375 -7.753906 8.078125 -8.328125 C 7.421875 -8.910156 6.554688 -9.203125 5.484375 -9.203125 Z M 5.484375 -9.203125 "/></g></g></g><g fill="#2563eb" fill-opacity="1"><g transform="translate(95.539165, 150.590214)"><g><path d="M 4.25 0 L 1.140625 0 L 1.140625 -12.125 L 4.25 -12.125 Z M 4.25 0 "/></g></g></g><g fill="#2563eb" fill-opacity="1"><g transform="translate(100.93344, 150.590214)"><g><path d="M 11.5 -10.609375 L 9.421875 -8.234375 C 8.742188 -8.941406 7.898438 -9.296875 6.890625 -9.296875 C 6.054688 -9.296875 5.351562 -8.984375 4.78125 -8.359375 C 4.207031 -7.742188 3.921875 -6.984375 3.921875 -6.078125 C 3.921875 -5.179688 4.21875 -4.414062 4.8125 -3.78125 C 5.40625 -3.15625 6.144531 -2.84375 7.03125 -2.84375 C 7.488281 -2.84375 7.9375 -2.9375 8.375 -3.125 C 8.8125 -3.3125 9.160156 -3.566406 9.421875 -3.890625 L 11.5 -1.59375 C 10.46875 -0.34375 8.910156 0.28125 6.828125 0.28125 C 5.046875 0.28125 3.554688 -0.332031 2.359375 -1.5625 C 1.160156 -2.800781 0.5625 -4.304688 0.5625 -6.078125 C 0.5625 -7.828125 1.179688 -9.316406 2.421875 -10.546875 C 3.660156 -11.785156 5.132812 -12.40625 6.84375 -12.40625 C 8.863281 -12.40625 10.414062 -11.804688 11.5 -10.609375 Z M 11.5 -10.609375 "/></g></g></g><g fill="#2563eb" fill-opacity="1"><g transform="translate(112.725147, 150.590214)"><g><path d="M 9.953125 -12.125 L 9.953125 -9.203125 L 6.625 -9.203125 L 6.625 0 L 3.5 0 L 3.5 -9.203125 L 0.1875 -9.203125 L 0.1875 -12.125 Z M 9.953125 -12.125 "/></g></g></g><g fill="#2563eb" fill-opacity="1"><g transform="translate(122.870179, 150.590214)"><g><path d="M 4.25 0 L 1.140625 0 L 1.140625 -12.125 L 4.25 -12.125 Z M 4.25 0 "/></g></g></g><g fill="#2563eb" fill-opacity="1"><g transform="translate(128.264454, 150.590214)"><g><path d="M 2.4375 -10.5625 C 3.675781 -11.789062 5.171875 -12.40625 6.921875 -12.40625 C 8.660156 -12.40625 10.160156 -11.789062 11.421875 -10.5625 C 12.660156 -9.300781 13.28125 -7.800781 13.28125 -6.0625 C 13.28125 -4.300781 12.660156 -2.804688 11.421875 -1.578125 C 10.160156 -0.335938 8.660156 0.28125 6.921875 0.28125 C 5.160156 0.28125 3.664062 -0.34375 2.4375 -1.59375 C 1.1875 -2.820312 0.5625 -4.3125 0.5625 -6.0625 C 0.5625 -7.820312 1.1875 -9.320312 2.4375 -10.5625 Z M 3.921875 -6.078125 C 3.921875 -5.179688 4.21875 -4.414062 4.8125 -3.78125 C 5.40625 -3.15625 6.109375 -2.84375 6.921875 -2.84375 C 7.753906 -2.84375 8.46875 -3.15625 9.0625 -3.78125 C 9.644531 -4.40625 9.9375 -5.164062 9.9375 -6.0625 C 9.9375 -6.96875 9.644531 -7.726562 9.0625 -8.34375 C 8.46875 -8.976562 7.753906 -9.296875 6.921875 -9.296875 C 6.085938 -9.296875 5.382812 -8.984375 4.8125 -8.359375 C 4.21875 -7.734375 3.921875 -6.972656 3.921875 -6.078125 Z M 3.921875 -6.078125 "/></g></g></g><g fill="#2563eb" fill-opacity="1"><g transform="translate(142.119228, 150.590214)"><g><path d="M 12.046875 0 L 8.703125 0 L 4.25 -6.90625 L 4.25 0 L 1.140625 0 L 1.140625 -12.125 L 4.484375 -12.125 L 8.9375 -5.109375 L 8.9375 -12.125 L 12.046875 -12.125 Z M 12.046875 0 "/></g></g></g><path stroke-linecap="round" transform="matrix(-0.747283, -0.000000000000000741, 0.000000000000000741, -0.747283, 78.856103, 88.296884)" fill="none" stroke-linejoin="miter" d="M 1.501076 1.50024 L 8.301758 1.50024 " stroke="#1272f9" stroke-width="3" stroke-opacity="1" stroke-miterlimit="4"/><path stroke-linecap="round" transform="matrix(-0.747261, 0.0057114, -0.0057114, -0.747261, 87.158348, 87.263322)" fill="none" stroke-linejoin="miter" d="M 1.626215 1.671669 C 5.003875 41.24296 8.522406 41.180986 12.181809 1.485748 " stroke="#1272f9" stroke-width="3" stroke-opacity="1" stroke-miterlimit="4"/><path stroke-linecap="round" transform="matrix(-0.747283, 0.00000000130425, -0.00000000130425, -0.747283, 97.443329, 88.296884)" fill="none" stroke-linejoin="miter" d="M 1.497572 1.50024 L 14.858482 1.50024 " stroke="#1272f9" stroke-width="3" stroke-opacity="1" stroke-miterlimit="4"/><path stroke-linecap="round" transform="matrix(-0.747261, 0.0057114, -0.0057114, -0.747261, 105.988803, 88.001168)" fill="none" stroke-linejoin="miter" d="M 1.598014 1.665644 C 4.959448 52.250997 8.493701 52.183916 12.205959 1.469668 " stroke="#1272f9" stroke-width="3" stroke-opacity="1" stroke-miterlimit="4"/><path fill="#1272f9" d="M 125.769531 85.929688 C 125.757812 85.78125 125.773438 85.636719 125.816406 85.496094 C 125.863281 85.355469 125.933594 85.226562 126.027344 85.113281 C 126.125 85 126.238281 84.90625 126.371094 84.839844 C 126.503906 84.769531 126.644531 84.730469 126.792969 84.71875 C 126.9375 84.707031 127.085938 84.722656 127.226562 84.765625 C 127.367188 84.8125 127.496094 84.882812 127.609375 84.976562 C 127.722656 85.074219 127.8125 85.1875 127.882812 85.320312 C 127.949219 85.453125 127.992188 85.59375 128.003906 85.742188 C 128.015625 85.886719 128 86.035156 127.953125 86.175781 C 127.910156 86.316406 127.839844 86.445312 127.742188 86.558594 C 127.648438 86.671875 127.53125 86.761719 127.402344 86.832031 C 127.269531 86.898438 127.128906 86.941406 126.980469 86.953125 C 126.832031 86.964844 126.6875 86.949219 126.546875 86.902344 C 126.40625 86.859375 126.277344 86.789062 126.164062 86.691406 C 126.050781 86.597656 125.957031 86.484375 125.890625 86.351562 C 125.820312 86.21875 125.78125 86.078125 125.769531 85.929688 Z M 125.367188 81.382812 C 125.351562 81.234375 125.367188 81.089844 125.410156 80.949219 C 125.457031 80.804688 125.523438 80.679688 125.621094 80.5625 C 125.714844 80.449219 125.828125 80.359375 125.960938 80.289062 C 126.089844 80.21875 126.230469 80.175781 126.378906 80.164062 C 126.527344 80.152344 126.671875 80.164062 126.8125 80.210938 C 126.957031 80.253906 127.085938 80.324219 127.199219 80.417969 C 127.3125 80.511719 127.40625 80.625 127.472656 80.757812 C 127.542969 80.890625 127.585938 81.03125 127.597656 81.175781 L 127.597656 81.179688 C 127.613281 81.324219 127.597656 81.472656 127.550781 81.613281 C 127.507812 81.753906 127.4375 81.882812 127.34375 81.996094 C 127.25 82.113281 127.136719 82.203125 127.003906 82.273438 C 126.871094 82.339844 126.734375 82.382812 126.585938 82.398438 C 126.4375 82.410156 126.292969 82.394531 126.148438 82.351562 C 126.007812 82.308594 125.878906 82.238281 125.765625 82.140625 C 125.652344 82.046875 125.558594 81.933594 125.488281 81.800781 C 125.421875 81.671875 125.378906 81.53125 125.367188 81.382812 Z M 124.921875 76.917969 C 124.910156 76.773438 124.921875 76.625 124.964844 76.484375 C 125.007812 76.339844 125.074219 76.210938 125.167969 76.097656 C 125.261719 75.980469 125.371094 75.886719 125.503906 75.816406 C 125.632812 75.746094 125.773438 75.703125 125.921875 75.6875 C 126.070312 75.671875 126.214844 75.683594 126.355469 75.726562 C 126.5 75.769531 126.628906 75.835938 126.742188 75.929688 C 126.859375 76.023438 126.953125 76.136719 127.023438 76.265625 C 127.09375 76.398438 127.136719 76.535156 127.152344 76.683594 C 127.167969 76.832031 127.15625 76.976562 127.113281 77.121094 C 127.070312 77.261719 127.003906 77.390625 126.910156 77.507812 C 126.816406 77.625 126.703125 77.714844 126.574219 77.789062 C 126.441406 77.859375 126.304688 77.902344 126.15625 77.917969 C 126.007812 77.933594 125.863281 77.917969 125.71875 77.878906 C 125.578125 77.835938 125.449219 77.765625 125.332031 77.671875 C 125.21875 77.578125 125.125 77.46875 125.054688 77.335938 C 124.984375 77.207031 124.9375 77.066406 124.921875 76.917969 Z M 124.421875 72.492188 C 124.40625 72.347656 124.417969 72.199219 124.457031 72.058594 C 124.496094 71.914062 124.5625 71.785156 124.65625 71.667969 C 124.746094 71.550781 124.855469 71.457031 124.988281 71.382812 C 125.117188 71.308594 125.253906 71.265625 125.402344 71.246094 C 125.550781 71.230469 125.695312 71.242188 125.839844 71.28125 C 125.980469 71.320312 126.113281 71.386719 126.226562 71.480469 C 126.34375 71.570312 126.441406 71.683594 126.511719 71.8125 C 126.585938 71.941406 126.628906 72.078125 126.648438 72.226562 C 126.667969 72.375 126.65625 72.519531 126.613281 72.664062 C 126.574219 72.808594 126.507812 72.9375 126.417969 73.054688 C 126.324219 73.171875 126.214844 73.265625 126.085938 73.339844 C 125.953125 73.410156 125.816406 73.457031 125.667969 73.472656 C 125.519531 73.492188 125.375 73.480469 125.234375 73.441406 C 125.089844 73.398438 124.960938 73.332031 124.84375 73.242188 C 124.726562 73.148438 124.632812 73.039062 124.558594 72.910156 C 124.484375 72.78125 124.441406 72.640625 124.421875 72.492188 Z M 123.828125 68.085938 C 123.828125 68.085938 123.828125 68.085938 123.824219 68.082031 C 123.804688 67.933594 123.8125 67.789062 123.847656 67.644531 C 123.882812 67.5 123.945312 67.371094 124.03125 67.25 C 124.121094 67.128906 124.230469 67.03125 124.355469 66.957031 C 124.484375 66.878906 124.621094 66.828125 124.769531 66.808594 C 124.914062 66.785156 125.0625 66.792969 125.203125 66.828125 C 125.347656 66.863281 125.480469 66.925781 125.601562 67.015625 C 125.71875 67.101562 125.820312 67.210938 125.894531 67.339844 C 125.972656 67.464844 126.019531 67.601562 126.042969 67.75 C 126.042969 67.746094 126.042969 67.746094 126.042969 67.746094 C 126.066406 67.890625 126.058594 68.039062 126.023438 68.183594 C 125.988281 68.324219 125.925781 68.457031 125.839844 68.578125 C 125.75 68.699219 125.644531 68.796875 125.515625 68.875 C 125.390625 68.953125 125.253906 69 125.105469 69.023438 C 124.960938 69.046875 124.8125 69.039062 124.667969 69.003906 C 124.523438 68.96875 124.390625 68.910156 124.273438 68.820312 C 124.152344 68.734375 124.054688 68.625 123.976562 68.5 C 123.898438 68.371094 123.851562 68.234375 123.828125 68.085938 Z M 123.054688 63.714844 C 123.058594 63.714844 123.058594 63.71875 123.058594 63.722656 C 123.027344 63.578125 123.027344 63.429688 123.054688 63.285156 C 123.082031 63.140625 123.136719 63.003906 123.21875 62.878906 C 123.300781 62.753906 123.402344 62.652344 123.523438 62.566406 C 123.648438 62.484375 123.78125 62.425781 123.925781 62.398438 C 124.074219 62.367188 124.21875 62.363281 124.363281 62.394531 C 124.511719 62.421875 124.644531 62.476562 124.769531 62.558594 C 124.894531 62.636719 125 62.742188 125.082031 62.863281 C 125.164062 62.984375 125.222656 63.121094 125.253906 63.265625 C 125.253906 63.269531 125.253906 63.273438 125.253906 63.273438 C 125.285156 63.421875 125.285156 63.566406 125.253906 63.710938 C 125.226562 63.859375 125.171875 63.992188 125.085938 64.117188 C 125.003906 64.238281 124.902344 64.34375 124.777344 64.425781 C 124.65625 64.507812 124.519531 64.566406 124.375 64.59375 C 124.230469 64.621094 124.082031 64.621094 123.9375 64.59375 C 123.792969 64.566406 123.65625 64.507812 123.53125 64.425781 C 123.410156 64.34375 123.304688 64.242188 123.222656 64.117188 C 123.140625 63.996094 123.085938 63.859375 123.054688 63.714844 Z M 121.863281 59.839844 C 121.785156 59.710938 121.738281 59.574219 121.714844 59.425781 C 121.691406 59.28125 121.699219 59.132812 121.734375 58.988281 C 121.769531 58.84375 121.832031 58.714844 121.921875 58.59375 C 122.007812 58.472656 122.117188 58.375 122.246094 58.300781 C 122.371094 58.222656 122.507812 58.171875 122.65625 58.152344 C 122.800781 58.128906 122.949219 58.136719 123.09375 58.171875 C 123.238281 58.207031 123.367188 58.269531 123.488281 58.355469 C 123.609375 58.445312 123.707031 58.554688 123.78125 58.679688 C 123.859375 58.808594 123.910156 58.945312 123.929688 59.09375 C 123.953125 59.238281 123.945312 59.382812 123.910156 59.527344 C 123.875 59.671875 123.8125 59.804688 123.726562 59.925781 C 123.636719 60.042969 123.527344 60.144531 123.402344 60.21875 C 123.273438 60.296875 123.136719 60.34375 122.992188 60.367188 C 122.84375 60.390625 122.699219 60.382812 122.554688 60.347656 C 122.410156 60.3125 122.277344 60.25 122.15625 60.160156 C 122.039062 60.074219 121.941406 59.964844 121.863281 59.839844 Z M 121.484375 61.703125 C 121.441406 61.84375 121.371094 61.972656 121.277344 62.085938 C 121.183594 62.199219 121.070312 62.292969 120.9375 62.363281 C 120.804688 62.429688 120.667969 62.472656 120.519531 62.484375 C 120.371094 62.5 120.226562 62.484375 120.082031 62.441406 C 119.941406 62.398438 119.8125 62.328125 119.699219 62.234375 C 119.585938 62.136719 119.492188 62.023438 119.421875 61.894531 C 119.355469 61.761719 119.3125 61.621094 119.300781 61.472656 C 119.285156 61.324219 119.300781 61.179688 119.34375 61.039062 C 119.386719 60.894531 119.457031 60.769531 119.554688 60.652344 C 119.648438 60.539062 119.761719 60.449219 119.890625 60.378906 C 120.023438 60.308594 120.164062 60.265625 120.3125 60.253906 C 120.460938 60.238281 120.605469 60.253906 120.746094 60.300781 C 120.890625 60.34375 121.015625 60.414062 121.132812 60.507812 C 121.246094 60.601562 121.335938 60.714844 121.40625 60.847656 C 121.476562 60.980469 121.515625 61.117188 121.53125 61.265625 C 121.546875 61.414062 121.53125 61.558594 121.484375 61.703125 Z M 120.484375 66.007812 C 120.457031 66.15625 120.402344 66.289062 120.320312 66.414062 C 120.234375 66.539062 120.132812 66.640625 120.011719 66.726562 C 119.886719 66.808594 119.753906 66.863281 119.605469 66.894531 C 119.460938 66.921875 119.316406 66.921875 119.167969 66.894531 C 119.023438 66.867188 118.886719 66.8125 118.765625 66.730469 C 118.640625 66.648438 118.539062 66.542969 118.453125 66.421875 C 118.371094 66.296875 118.316406 66.164062 118.285156 66.015625 C 118.257812 65.871094 118.253906 65.726562 118.285156 65.578125 C 118.3125 65.433594 118.367188 65.296875 118.449219 65.175781 C 118.53125 65.050781 118.636719 64.949219 118.757812 64.863281 C 118.882812 64.78125 119.015625 64.726562 119.164062 64.695312 C 119.308594 64.667969 119.453125 64.664062 119.597656 64.695312 C 119.746094 64.722656 119.878906 64.777344 120.003906 64.859375 C 120.128906 64.941406 120.230469 65.046875 120.3125 65.167969 C 120.398438 65.292969 120.453125 65.425781 120.484375 65.570312 C 120.511719 65.71875 120.511719 65.863281 120.484375 66.007812 Z M 119.753906 70.351562 C 119.730469 70.5 119.679688 70.636719 119.605469 70.761719 C 119.527344 70.890625 119.429688 71 119.3125 71.085938 C 119.191406 71.175781 119.058594 71.238281 118.914062 71.273438 C 118.769531 71.308594 118.625 71.316406 118.480469 71.292969 C 118.332031 71.273438 118.195312 71.222656 118.066406 71.148438 C 117.9375 71.070312 117.832031 70.972656 117.742188 70.851562 C 117.65625 70.734375 117.59375 70.601562 117.554688 70.457031 C 117.519531 70.3125 117.511719 70.167969 117.535156 70.019531 C 117.558594 69.875 117.605469 69.734375 117.683594 69.609375 C 117.757812 69.480469 117.855469 69.375 117.976562 69.285156 C 118.097656 69.195312 118.226562 69.132812 118.371094 69.097656 C 118.515625 69.0625 118.660156 69.054688 118.808594 69.078125 C 118.957031 69.097656 119.09375 69.148438 119.222656 69.222656 C 119.347656 69.300781 119.457031 69.398438 119.542969 69.519531 C 119.632812 69.636719 119.695312 69.769531 119.730469 69.914062 C 119.765625 70.058594 119.773438 70.203125 119.753906 70.351562 Z M 119.132812 74.78125 C 119.132812 74.785156 119.132812 74.789062 119.132812 74.789062 C 119.113281 74.9375 119.066406 75.074219 118.992188 75.203125 C 118.917969 75.332031 118.820312 75.441406 118.703125 75.535156 C 118.585938 75.625 118.457031 75.691406 118.3125 75.726562 C 118.167969 75.765625 118.023438 75.777344 117.875 75.757812 C 117.730469 75.738281 117.589844 75.691406 117.460938 75.617188 C 117.332031 75.546875 117.222656 75.449219 117.132812 75.332031 C 117.042969 75.214844 116.976562 75.082031 116.9375 74.941406 C 116.898438 74.796875 116.886719 74.652344 116.90625 74.503906 C 116.90625 74.503906 116.90625 74.507812 116.90625 74.511719 C 116.925781 74.363281 116.96875 74.222656 117.042969 74.09375 C 117.117188 73.964844 117.210938 73.855469 117.328125 73.761719 C 117.445312 73.671875 117.578125 73.605469 117.71875 73.566406 C 117.863281 73.527344 118.007812 73.515625 118.15625 73.535156 C 118.304688 73.550781 118.441406 73.597656 118.570312 73.671875 C 118.699219 73.742188 118.8125 73.839844 118.902344 73.957031 C 118.992188 74.074219 119.058594 74.203125 119.097656 74.347656 C 119.140625 74.488281 119.148438 74.636719 119.132812 74.78125 Z M 118.582031 79.253906 L 118.582031 79.257812 C 118.566406 79.402344 118.519531 79.542969 118.449219 79.671875 C 118.375 79.800781 118.28125 79.914062 118.164062 80.003906 C 118.050781 80.097656 117.917969 80.164062 117.777344 80.207031 C 117.632812 80.246094 117.488281 80.257812 117.339844 80.242188 C 117.191406 80.222656 117.054688 80.179688 116.925781 80.105469 C 116.792969 80.035156 116.683594 79.941406 116.589844 79.824219 C 116.5 79.707031 116.433594 79.578125 116.390625 79.433594 C 116.351562 79.292969 116.339844 79.144531 116.355469 79 C 116.371094 78.851562 116.417969 78.710938 116.488281 78.582031 C 116.5625 78.453125 116.65625 78.339844 116.773438 78.25 C 116.890625 78.15625 117.019531 78.089844 117.164062 78.050781 C 117.304688 78.007812 117.449219 77.996094 117.597656 78.011719 C 117.746094 78.03125 117.882812 78.074219 118.015625 78.148438 C 118.144531 78.21875 118.253906 78.3125 118.347656 78.429688 C 118.441406 78.546875 118.507812 78.675781 118.546875 78.820312 C 118.589844 78.960938 118.601562 79.109375 118.582031 79.253906 Z M 118.097656 83.632812 C 118.082031 83.78125 118.039062 83.917969 117.964844 84.050781 C 117.894531 84.179688 117.800781 84.289062 117.683594 84.382812 C 117.570312 84.476562 117.4375 84.542969 117.296875 84.585938 C 117.152344 84.628906 117.007812 84.640625 116.859375 84.625 C 116.714844 84.609375 116.574219 84.5625 116.445312 84.492188 C 116.3125 84.421875 116.203125 84.328125 116.109375 84.210938 C 116.015625 84.09375 115.949219 83.964844 115.90625 83.824219 C 115.867188 83.679688 115.851562 83.535156 115.871094 83.386719 C 115.886719 83.238281 115.929688 83.101562 116 82.96875 C 116.074219 82.839844 116.167969 82.726562 116.28125 82.636719 C 116.398438 82.542969 116.527344 82.476562 116.671875 82.433594 C 116.8125 82.390625 116.957031 82.378906 117.105469 82.394531 C 117.253906 82.410156 117.394531 82.457031 117.523438 82.527344 C 117.652344 82.597656 117.765625 82.691406 117.859375 82.808594 C 117.949219 82.925781 118.019531 83.054688 118.058594 83.195312 C 118.101562 83.339844 118.113281 83.484375 118.097656 83.632812 Z M 118.097656 83.632812 " fill-opacity="1" fill-rule="nonzero"/><path fill="#1272f9" d="M 115.066406 87.699219 C 114.917969 87.699219 114.773438 87.671875 114.636719 87.613281 C 114.5 87.558594 114.378906 87.476562 114.273438 87.371094 C 114.167969 87.265625 114.085938 87.144531 114.03125 87.007812 C 113.972656 86.871094 113.945312 86.726562 113.945312 86.578125 C 113.945312 86.429688 113.972656 86.285156 114.03125 86.148438 C 114.085938 86.011719 114.167969 85.890625 114.273438 85.785156 C 114.378906 85.679688 114.5 85.597656 114.636719 85.542969 C 114.773438 85.484375 114.917969 85.457031 115.066406 85.457031 C 115.214844 85.457031 115.359375 85.484375 115.496094 85.542969 C 115.632812 85.597656 115.753906 85.679688 115.859375 85.785156 C 115.964844 85.890625 116.046875 86.011719 116.101562 86.148438 C 116.160156 86.285156 116.1875 86.429688 116.1875 86.578125 C 116.1875 86.726562 116.160156 86.871094 116.101562 87.007812 C 116.046875 87.144531 115.964844 87.265625 115.859375 87.371094 C 115.753906 87.476562 115.632812 87.558594 115.496094 87.613281 C 115.359375 87.671875 115.214844 87.699219 115.066406 87.699219 Z M 110.582031 87.699219 C 110.433594 87.699219 110.289062 87.671875 110.152344 87.613281 C 110.015625 87.558594 109.894531 87.476562 109.789062 87.371094 C 109.683594 87.265625 109.605469 87.144531 109.546875 87.007812 C 109.488281 86.871094 109.460938 86.726562 109.460938 86.578125 C 109.460938 86.429688 109.488281 86.285156 109.546875 86.148438 C 109.605469 86.011719 109.683594 85.890625 109.789062 85.785156 C 109.894531 85.679688 110.015625 85.597656 110.152344 85.542969 C 110.289062 85.484375 110.433594 85.457031 110.582031 85.457031 C 110.730469 85.457031 110.875 85.484375 111.011719 85.542969 C 111.148438 85.597656 111.269531 85.679688 111.375 85.785156 C 111.480469 85.890625 111.5625 86.011719 111.617188 86.148438 C 111.675781 86.285156 111.703125 86.429688 111.703125 86.578125 C 111.703125 86.726562 111.675781 86.871094 111.617188 87.007812 C 111.5625 87.144531 111.480469 87.265625 111.375 87.371094 C 111.269531 87.476562 111.148438 87.558594 111.011719 87.613281 C 110.875 87.671875 110.730469 87.699219 110.582031 87.699219 Z M 110.582031 87.699219 " fill-opacity="1" fill-rule="nonzero"/><path stroke-linecap="round" transform="matrix(-0.747283, 0, 0, -0.747283, 108.60184, 87.760864)" fill="none" stroke-linejoin="miter" d="M 1.500599 1.499083 L 4.715372 1.499083 " stroke="#1272f9" stroke-width="3" stroke-opacity="1" stroke-miterlimit="4"/><path fill="#1272f9" d="M 133.980469 88.359375 C 133.832031 88.359375 133.6875 88.332031 133.550781 88.273438 C 133.414062 88.214844 133.292969 88.136719 133.1875 88.03125 C 133.082031 87.925781 133.003906 87.804688 132.945312 87.667969 C 132.886719 87.53125 132.859375 87.386719 132.859375 87.238281 C 132.859375 87.089844 132.886719 86.945312 132.945312 86.808594 C 133.003906 86.671875 133.082031 86.550781 133.1875 86.445312 C 133.292969 86.339844 133.414062 86.257812 133.550781 86.203125 C 133.6875 86.144531 133.832031 86.117188 133.980469 86.117188 C 134.128906 86.117188 134.273438 86.144531 134.410156 86.203125 C 134.546875 86.257812 134.667969 86.339844 134.773438 86.445312 C 134.878906 86.550781 134.960938 86.671875 135.015625 86.808594 C 135.074219 86.945312 135.101562 87.089844 135.101562 87.238281 C 135.101562 87.386719 135.074219 87.53125 135.015625 87.667969 C 134.960938 87.804688 134.878906 87.925781 134.773438 88.03125 C 134.667969 88.136719 134.546875 88.214844 134.410156 88.273438 C 134.273438 88.332031 134.128906 88.359375 133.980469 88.359375 Z M 129.496094 88.359375 C 129.347656 88.359375 129.207031 88.332031 129.066406 88.273438 C 128.929688 88.214844 128.808594 88.136719 128.703125 88.03125 C 128.597656 87.925781 128.519531 87.804688 128.460938 87.667969 C 128.40625 87.53125 128.375 87.386719 128.375 87.238281 C 128.375 87.089844 128.40625 86.945312 128.460938 86.808594 C 128.519531 86.671875 128.597656 86.550781 128.703125 86.445312 C 128.808594 86.339844 128.929688 86.257812 129.066406 86.203125 C 129.207031 86.144531 129.347656 86.117188 129.496094 86.117188 C 129.644531 86.117188 129.789062 86.144531 129.925781 86.203125 C 130.0625 86.257812 130.183594 86.339844 130.289062 86.445312 C 130.394531 86.550781 130.476562 86.671875 130.53125 86.808594 C 130.589844 86.945312 130.617188 87.089844 130.617188 87.238281 C 130.617188 87.386719 130.589844 87.53125 130.53125 87.667969 C 130.476562 87.804688 130.394531 87.925781 130.289062 88.03125 C 130.183594 88.136719 130.0625 88.214844 129.925781 88.273438 C 129.789062 88.332031 129.644531 88.359375 129.496094 88.359375 Z M 129.496094 88.359375 " fill-opacity="1" fill-rule="nonzero"/><path stroke-linecap="round" transform="matrix(0, -0.747283, 0.747283, 0, 70.391714, 104.976683)" fill="none" stroke-linejoin="miter" d="M 1.500389 1.498771 L 84.357892 1.498771 " stroke="#00327b" stroke-width="3" stroke-opacity="1" stroke-miterlimit="4"/><path stroke-linecap="round" transform="matrix(-0.747283, 0, 0, -0.747283, 135.097319, 104.981232)" fill="none" stroke-linejoin="miter" d="M 1.499777 1.501248 L 84.35728 1.501248 " stroke="#00327b" stroke-width="3" stroke-opacity="1" stroke-miterlimit="4"/><path fill="#00327b" d="M 115.230469 41.949219 L 115.230469 53.15625 C 115.230469 53.304688 115.203125 53.449219 115.144531 53.585938 C 115.089844 53.722656 115.007812 53.84375 114.902344 53.949219 C 114.796875 54.054688 114.675781 54.136719 114.539062 54.191406 C 114.402344 54.25 114.257812 54.277344 114.109375 54.277344 C 113.960938 54.277344 113.816406 54.25 113.679688 54.191406 C 113.542969 54.136719 113.421875 54.054688 113.316406 53.949219 C 113.210938 53.84375 113.128906 53.722656 113.074219 53.585938 C 113.015625 53.449219 112.988281 53.304688 112.988281 53.15625 L 112.988281 41.949219 C 112.988281 41.800781 113.015625 41.65625 113.074219 41.519531 C 113.128906 41.382812 113.210938 41.261719 113.316406 41.15625 C 113.421875 41.050781 113.542969 40.96875 113.679688 40.914062 C 113.816406 40.855469 113.960938 40.828125 114.109375 40.828125 C 114.257812 40.828125 114.402344 40.855469 114.539062 40.914062 C 114.675781 40.96875 114.796875 41.050781 114.902344 41.15625 C 115.007812 41.261719 115.089844 41.382812 115.144531 41.519531 C 115.203125 41.65625 115.230469 41.800781 115.230469 41.949219 Z M 115.230469 57.640625 L 115.230469 68.851562 C 115.230469 69 115.203125 69.140625 115.144531 69.277344 C 115.089844 69.417969 115.007812 69.539062 114.902344 69.644531 C 114.796875 69.746094 114.675781 69.828125 114.539062 69.886719 C 114.402344 69.941406 114.257812 69.972656 114.109375 69.972656 C 113.960938 69.972656 113.816406 69.941406 113.679688 69.886719 C 113.542969 69.828125 113.421875 69.746094 113.316406 69.644531 C 113.210938 69.539062 113.128906 69.417969 113.074219 69.277344 C 113.015625 69.140625 112.988281 69 112.988281 68.851562 L 112.988281 57.640625 C 112.988281 57.492188 113.015625 57.347656 113.074219 57.210938 C 113.128906 57.074219 113.210938 56.953125 113.316406 56.847656 C 113.421875 56.742188 113.542969 56.664062 113.679688 56.605469 C 113.816406 56.546875 113.960938 56.519531 114.109375 56.519531 C 114.257812 56.519531 114.402344 56.546875 114.539062 56.605469 C 114.675781 56.664062 114.796875 56.742188 114.902344 56.847656 C 115.007812 56.953125 115.089844 57.074219 115.144531 57.210938 C 115.203125 57.347656 115.230469 57.492188 115.230469 57.640625 Z M 115.230469 73.332031 L 115.230469 84.542969 C 115.230469 84.691406 115.203125 84.835938 115.144531 84.972656 C 115.089844 85.109375 115.007812 85.230469 114.902344 85.335938 C 114.796875 85.441406 114.675781 85.523438 114.539062 85.578125 C 114.402344 85.636719 114.257812 85.664062 114.109375 85.664062 C 113.960938 85.664062 113.816406 85.636719 113.679688 85.578125 C 113.542969 85.523438 113.421875 85.441406 113.316406 85.335938 C 113.210938 85.230469 113.128906 85.109375 113.074219 84.972656 C 113.015625 84.835938 112.988281 84.691406 112.988281 84.542969 L 112.988281 73.332031 C 112.988281 73.183594 113.015625 73.042969 113.074219 72.90625 C 113.128906 72.769531 113.210938 72.644531 113.316406 72.542969 C 113.421875 72.4375 113.542969 72.355469 113.679688 72.296875 C 113.816406 72.242188 113.960938 72.214844 114.109375 72.214844 C 114.257812 72.214844 114.402344 72.242188 114.539062 72.296875 C 114.675781 72.355469 114.796875 72.4375 114.902344 72.542969 C 115.007812 72.644531 115.089844 72.769531 115.144531 72.90625 C 115.203125 73.042969 115.230469 73.183594 115.230469 73.332031 Z M 115.230469 89.027344 L 115.230469 100.234375 C 115.230469 100.382812 115.203125 100.527344 115.144531 100.664062 C 115.089844 100.800781 115.007812 100.921875 114.902344 101.027344 C 114.796875 101.132812 114.675781 101.214844 114.539062 101.273438 C 114.402344 101.328125 114.257812 101.355469 114.109375 101.355469 C 113.960938 101.355469 113.816406 101.328125 113.679688 101.273438 C 113.542969 101.214844 113.421875 101.132812 113.316406 101.027344 C 113.210938 100.921875 113.128906 100.800781 113.074219 100.664062 C 113.015625 100.527344 112.988281 100.382812 112.988281 100.234375 L 112.988281 89.027344 C 112.988281 88.878906 113.015625 88.734375 113.074219 88.597656 C 113.128906 88.460938 113.210938 88.339844 113.316406 88.234375 C 113.421875 88.128906 113.542969 88.046875 113.679688 87.992188 C 113.816406 87.933594 113.960938 87.90625 114.109375 87.90625 C 114.257812 87.90625 114.402344 87.933594 114.539062 87.992188 C 114.675781 88.046875 114.796875 88.128906 114.902344 88.234375 C 115.007812 88.339844 115.089844 88.460938 115.144531 88.597656 C 115.203125 88.734375 115.230469 88.878906 115.230469 89.027344 Z M 115.230469 89.027344 " fill-opacity="1" fill-rule="nonzero"/></svg>