<svg xmlns="http://www.w3.org/2000/svg" xmlns:xlink="http://www.w3.org/1999/xlink" width="61" zoomAndPan="magnify" viewBox="0 0 45.75 30.000001" height="40" preserveAspectRatio="xMidYMid meet" version="1.2"><defs><clipPath id="06869ec9c2"><path d="M 20.886719 1.65625 L 24.621094 1.65625 L 24.621094 5.808594 L 20.886719 5.808594 Z M 20.886719 1.65625 "/></clipPath><clipPath id="5f2b098cda"><path d="M 22.753906 1.65625 C 21.722656 1.65625 20.886719 2.585938 20.886719 3.730469 C 20.886719 4.875 21.722656 5.804688 22.753906 5.804688 C 23.785156 5.804688 24.621094 4.875 24.621094 3.730469 C 24.621094 2.585938 23.785156 1.65625 22.753906 1.65625 Z M 22.753906 1.65625 "/></clipPath><clipPath id="bc4968fe69"><path d="M 8.21875 3.3125 L 37.289062 3.3125 L 37.289062 27.375 L 8.21875 27.375 Z M 8.21875 3.3125 "/></clipPath><clipPath id="6c7b9b306e"><path d="M 8.226562 3.3125 L 37.15625 3.3125 L 37.15625 27.261719 L 8.226562 27.261719 Z M 8.226562 3.3125 "/></clipPath><clipPath id="66c7bf0add"><path d="M 20.726562 18.53125 L 24.78125 18.53125 L 24.78125 22.585938 L 20.726562 22.585938 Z M 20.726562 18.53125 "/></clipPath><clipPath id="2c7c5ea027"><path d="M 26.054688 18.53125 L 30.109375 18.53125 L 30.109375 22.585938 L 26.054688 22.585938 Z M 26.054688 18.53125 "/></clipPath><clipPath id="056044d0f3"><path d="M 15.402344 18.53125 L 19.453125 18.53125 L 19.453125 22.585938 L 15.402344 22.585938 Z M 15.402344 18.53125 "/></clipPath></defs><g id="186f7db369"><g clip-rule="nonzero" clip-path="url(#06869ec9c2)"><g clip-rule="nonzero" clip-path="url(#5f2b098cda)"><path style=" stroke:none;fill-rule:nonzero;fill:#333333;fill-opacity:1;" d="M 20.886719 1.65625 L 24.621094 1.65625 L 24.621094 5.808594 L 20.886719 5.808594 Z M 20.886719 1.65625 "/></g></g><g clip-rule="nonzero" clip-path="url(#bc4968fe69)"><path style=" stroke:none;fill-rule:nonzero;fill:#808080;fill-opacity:1;" d="M 8.21875 3.3125 L 37.265625 3.3125 L 37.265625 27.375 L 8.21875 27.375 Z M 8.21875 3.3125 "/></g><g clip-rule="nonzero" clip-path="url(#6c7b9b306e)"><path style="fill:none;stroke-width:4;stroke-linecap:butt;stroke-linejoin:miter;stroke:#333333;stroke-opacity:1;stroke-miterlimit:4;" d="M 0.0000990901 0.00220679 L 40.02863 0.00220679 L 40.02863 33.139518 L 0.0000990901 33.139518 Z M 0.0000990901 0.00220679 " transform="matrix(0.722727,0,0,0.722727,8.226491,3.310905)"/></g><path style="fill:none;stroke-width:1;stroke-linecap:butt;stroke-linejoin:miter;stroke:#333333;stroke-opacity:1;stroke-miterlimit:4;" d="M -0.000939511 0.500728 L 9.366737 0.49806 " transform="matrix(0.439247,-0.542382,0.542382,0.439247,16.310858,14.799078)"/><path style="fill:none;stroke-width:1;stroke-linecap:butt;stroke-linejoin:miter;stroke:#333333;stroke-opacity:1;stroke-miterlimit:4;" d="M -0.00140445 0.500045 L 10.629877 0.499228 " transform="matrix(0.530163,0.495704,-0.495704,0.530163,20.76815,9.49731)"/><path style="fill:none;stroke-width:1;stroke-linecap:butt;stroke-linejoin:miter;stroke:#333333;stroke-opacity:1;stroke-miterlimit:4;" d="M 0.00183142 0.498454 L 9.882778 0.502542 " transform="matrix(0.490385,-0.535087,0.535087,0.490385,25.626917,14.557327)"/><g clip-rule="nonzero" clip-path="url(#66c7bf0add)"><path style=" stroke:none;fill-rule:nonzero;fill:#333333;fill-opacity:1;" d="M 20.726562 18.53125 L 24.78125 18.53125 L 24.78125 22.585938 L 20.726562 22.585938 Z M 20.726562 18.53125 "/></g><g clip-rule="nonzero" clip-path="url(#2c7c5ea027)"><path style=" stroke:none;fill-rule:nonzero;fill:#333333;fill-opacity:1;" d="M 26.054688 18.53125 L 30.109375 18.53125 L 30.109375 22.585938 L 26.054688 22.585938 Z M 26.054688 18.53125 "/></g><g clip-rule="nonzero" clip-path="url(#056044d0f3)"><path style=" stroke:none;fill-rule:nonzero;fill:#333333;fill-opacity:1;" d="M 15.402344 18.53125 L 19.453125 18.53125 L 19.453125 22.585938 L 15.402344 22.585938 Z M 15.402344 18.53125 "/></g></g></svg>