<svg xmlns="http://www.w3.org/2000/svg" xmlns:xlink="http://www.w3.org/1999/xlink" width="275" zoomAndPan="magnify" viewBox="0 0 206.25 187.499992" height="250" preserveAspectRatio="xMidYMid meet" version="1.0"><defs><g/><clipPath id="f1dc8c0026"><path d="M 0 0.0898438 L 205.503906 0.0898438 L 205.503906 186.910156 L 0 186.910156 Z M 0 0.0898438 " clip-rule="nonzero"/></clipPath><clipPath id="78f0fe5f96"><path d="M 8.96875 0.0898438 L 196.535156 0.0898438 C 198.914062 0.0898438 201.195312 1.035156 202.875 2.71875 C 204.558594 4.398438 205.503906 6.679688 205.503906 9.058594 L 205.503906 177.945312 C 205.503906 180.320312 204.558594 182.601562 202.875 184.285156 C 201.195312 185.964844 198.914062 186.910156 196.535156 186.910156 L 8.96875 186.910156 C 6.589844 186.910156 4.308594 185.964844 2.625 184.285156 C 0.945312 182.601562 0 180.320312 0 177.945312 L 0 9.058594 C 0 6.679688 0.945312 4.398438 2.625 2.71875 C 4.308594 1.035156 6.589844 0.0898438 8.96875 0.0898438 Z M 8.96875 0.0898438 " clip-rule="nonzero"/></clipPath><clipPath id="fe01b30ae9"><path d="M 0 0.0898438 L 205.503906 0.0898438 L 205.503906 186.910156 L 0 186.910156 Z M 0 0.0898438 " clip-rule="nonzero"/></clipPath><clipPath id="6a2c18bdd5"><path d="M 8.96875 0.0898438 L 196.535156 0.0898438 C 198.914062 0.0898438 201.195312 1.035156 202.875 2.71875 C 204.558594 4.398438 205.503906 6.679688 205.503906 9.058594 L 205.503906 177.945312 C 205.503906 180.320312 204.558594 182.601562 202.875 184.285156 C 201.195312 185.964844 198.914062 186.910156 196.535156 186.910156 L 8.96875 186.910156 C 6.589844 186.910156 4.308594 185.964844 2.625 184.285156 C 0.945312 182.601562 0 180.320312 0 177.945312 L 0 9.058594 C 0 6.679688 0.945312 4.398438 2.625 2.71875 C 4.308594 1.035156 6.589844 0.0898438 8.96875 0.0898438 Z M 8.96875 0.0898438 " clip-rule="nonzero"/></clipPath><clipPath id="aae6d4003c"><rect x="0" width="206" y="0" height="187"/></clipPath></defs><g clip-path="url(#f1dc8c0026)"><g clip-path="url(#78f0fe5f96)"><g transform="matrix(1, 0, 0, 1, 0, -0.000000000000024966)"><g clip-path="url(#aae6d4003c)"><g clip-path="url(#fe01b30ae9)"><g clip-path="url(#6a2c18bdd5)"><path fill="#fbfeff" d="M 0 0.0898438 L 205.792969 0.0898438 L 205.792969 186.910156 L 0 186.910156 Z M 0 0.0898438 " fill-opacity="1" fill-rule="nonzero"/></g></g></g></g><path stroke-linecap="butt" transform="matrix(0.747283, 0, 0, 0.747283, 0, 0.09058)" fill="none" stroke-linejoin="miter" d="M 12.001819 -0.000985185 L 262.999784 -0.000985185 C 266.183193 -0.000985185 269.23592 1.264015 271.483648 3.51697 C 273.736602 5.764697 275.001602 8.817424 275.001602 12.000833 L 275.001602 238.001979 C 275.001602 241.180161 273.736602 244.232889 271.483648 246.485843 C 269.23592 248.733571 266.183193 249.998571 262.999784 249.998571 L 12.001819 249.998571 C 8.818409 249.998571 5.765682 248.733571 3.512727 246.485843 C 1.265 244.232889 0 241.180161 0 238.001979 L 0 12.000833 C 0 8.817424 1.265 5.764697 3.512727 3.51697 C 5.765682 1.264015 8.818409 -0.000985185 12.001819 -0.000985185 Z M 12.001819 -0.000985185 " stroke="#2563eb" stroke-width="4" stroke-opacity="1" stroke-miterlimit="4"/></g></g><g fill="#2563eb" fill-opacity="1"><g transform="translate(44.141047, 141.324369)"><g><path d="M 9.953125 -12.125 L 9.953125 -9.203125 L 6.625 -9.203125 L 6.625 0 L 3.5 0 L 3.5 -9.203125 L 0.1875 -9.203125 L 0.1875 -12.125 Z M 9.953125 -12.125 "/></g></g></g><g fill="#2563eb" fill-opacity="1"><g transform="translate(54.286078, 141.324369)"><g><path d="M 4.25 0 L 1.140625 0 L 1.140625 -12.125 L 5.546875 -12.125 C 7.097656 -12.125 8.335938 -11.757812 9.265625 -11.03125 C 10.203125 -10.289062 10.671875 -9.320312 10.671875 -8.125 C 10.671875 -7.332031 10.472656 -6.632812 10.078125 -6.03125 C 9.691406 -5.4375 9.140625 -4.972656 8.421875 -4.640625 L 10.96875 0 L 7.359375 0 L 5.28125 -4.046875 L 4.25 -4.046875 Z M 5.796875 -9.390625 L 4.25 -9.390625 L 4.25 -6.796875 L 5.796875 -6.796875 C 6.253906 -6.796875 6.628906 -6.914062 6.921875 -7.15625 C 7.210938 -7.394531 7.359375 -7.71875 7.359375 -8.125 C 7.359375 -8.5 7.210938 -8.800781 6.921875 -9.03125 C 6.628906 -9.269531 6.253906 -9.390625 5.796875 -9.390625 Z M 5.796875 -9.390625 "/></g></g></g><g fill="#2563eb" fill-opacity="1"><g transform="translate(65.831729, 141.324369)"><g><path d="M 9.203125 0 L 1.140625 0 L 1.140625 -12.125 L 9.203125 -12.125 L 9.203125 -9.203125 L 4.25 -9.203125 L 4.25 -7.609375 L 8.4375 -7.609375 L 8.4375 -4.671875 L 4.25 -4.671875 L 4.25 -2.9375 L 9.203125 -2.9375 Z M 9.203125 0 "/></g></g></g><g fill="#2563eb" fill-opacity="1"><g transform="translate(75.598216, 141.324369)"><g><path d="M 12.046875 0 L 8.703125 0 L 4.25 -6.90625 L 4.25 0 L 1.140625 0 L 1.140625 -12.125 L 4.484375 -12.125 L 8.9375 -5.109375 L 8.9375 -12.125 L 12.046875 -12.125 Z M 12.046875 0 "/></g></g></g><g fill="#2563eb" fill-opacity="1"><g transform="translate(88.790542, 141.324369)"><g><path d="M 5.546875 0 L 1.140625 0 L 1.140625 -12.125 L 5.546875 -12.125 C 7.523438 -12.125 9.160156 -11.550781 10.453125 -10.40625 C 11.753906 -9.257812 12.40625 -7.800781 12.40625 -6.03125 C 12.40625 -4.289062 11.757812 -2.851562 10.46875 -1.71875 C 9.164062 -0.570312 7.523438 0 5.546875 0 Z M 5.484375 -9.203125 L 4.359375 -9.203125 L 4.359375 -2.9375 L 5.5 -2.9375 C 6.570312 -2.9375 7.429688 -3.222656 8.078125 -3.796875 C 8.734375 -4.367188 9.0625 -5.128906 9.0625 -6.078125 C 9.0625 -7.003906 8.734375 -7.753906 8.078125 -8.328125 C 7.421875 -8.910156 6.554688 -9.203125 5.484375 -9.203125 Z M 5.484375 -9.203125 "/></g></g></g><g fill="#2563eb" fill-opacity="1"><g transform="translate(101.774668, 141.324369)"><g/></g></g><g fill="#2563eb" fill-opacity="1"><g transform="translate(106.506496, 141.324369)"><g><path d="M 4.25 0 L 1.140625 0 L 1.140625 -12.125 L 4.25 -12.125 Z M 4.25 0 "/></g></g></g><g fill="#2563eb" fill-opacity="1"><g transform="translate(111.900771, 141.324369)"><g><path d="M 11.5 -10.609375 L 9.421875 -8.234375 C 8.742188 -8.941406 7.898438 -9.296875 6.890625 -9.296875 C 6.054688 -9.296875 5.351562 -8.984375 4.78125 -8.359375 C 4.207031 -7.742188 3.921875 -6.984375 3.921875 -6.078125 C 3.921875 -5.179688 4.21875 -4.414062 4.8125 -3.78125 C 5.40625 -3.15625 6.144531 -2.84375 7.03125 -2.84375 C 7.488281 -2.84375 7.9375 -2.9375 8.375 -3.125 C 8.8125 -3.3125 9.160156 -3.566406 9.421875 -3.890625 L 11.5 -1.59375 C 10.46875 -0.34375 8.910156 0.28125 6.828125 0.28125 C 5.046875 0.28125 3.554688 -0.332031 2.359375 -1.5625 C 1.160156 -2.800781 0.5625 -4.304688 0.5625 -6.078125 C 0.5625 -7.828125 1.179688 -9.316406 2.421875 -10.546875 C 3.660156 -11.785156 5.132812 -12.40625 6.84375 -12.40625 C 8.863281 -12.40625 10.414062 -11.804688 11.5 -10.609375 Z M 11.5 -10.609375 "/></g></g></g><g fill="#2563eb" fill-opacity="1"><g transform="translate(123.692479, 141.324369)"><g><path d="M 2.4375 -10.5625 C 3.675781 -11.789062 5.171875 -12.40625 6.921875 -12.40625 C 8.660156 -12.40625 10.160156 -11.789062 11.421875 -10.5625 C 12.660156 -9.300781 13.28125 -7.800781 13.28125 -6.0625 C 13.28125 -4.300781 12.660156 -2.804688 11.421875 -1.578125 C 10.160156 -0.335938 8.660156 0.28125 6.921875 0.28125 C 5.160156 0.28125 3.664062 -0.34375 2.4375 -1.59375 C 1.1875 -2.820312 0.5625 -4.3125 0.5625 -6.0625 C 0.5625 -7.820312 1.1875 -9.320312 2.4375 -10.5625 Z M 3.921875 -6.078125 C 3.921875 -5.179688 4.21875 -4.414062 4.8125 -3.78125 C 5.40625 -3.15625 6.109375 -2.84375 6.921875 -2.84375 C 7.753906 -2.84375 8.46875 -3.15625 9.0625 -3.78125 C 9.644531 -4.40625 9.9375 -5.164062 9.9375 -6.0625 C 9.9375 -6.96875 9.644531 -7.726562 9.0625 -8.34375 C 8.46875 -8.976562 7.753906 -9.296875 6.921875 -9.296875 C 6.085938 -9.296875 5.382812 -8.984375 4.8125 -8.359375 C 4.21875 -7.734375 3.921875 -6.972656 3.921875 -6.078125 Z M 3.921875 -6.078125 "/></g></g></g><g fill="#2563eb" fill-opacity="1"><g transform="translate(137.547252, 141.324369)"><g><path d="M 12.046875 0 L 8.703125 0 L 4.25 -6.90625 L 4.25 0 L 1.140625 0 L 1.140625 -12.125 L 4.484375 -12.125 L 8.9375 -5.109375 L 8.9375 -12.125 L 12.046875 -12.125 Z M 12.046875 0 "/></g></g></g><g fill="#2563eb" fill-opacity="1"><g transform="translate(150.739579, 141.324369)"><g><path d="M 10.140625 -10.203125 L 8.015625 -8.078125 C 7.347656 -9.015625 6.46875 -9.484375 5.375 -9.484375 C 4.601562 -9.484375 4.21875 -9.234375 4.21875 -8.734375 C 4.21875 -8.484375 4.390625 -8.265625 4.734375 -8.078125 C 5.085938 -7.890625 5.640625 -7.671875 6.390625 -7.421875 C 7.148438 -7.179688 7.707031 -6.984375 8.0625 -6.828125 C 8.675781 -6.554688 9.175781 -6.144531 9.5625 -5.59375 C 9.945312 -5.039062 10.140625 -4.394531 10.140625 -3.65625 C 10.140625 -2.507812 9.6875 -1.566406 8.78125 -0.828125 C 7.863281 -0.0859375 6.703125 0.28125 5.296875 0.28125 C 2.972656 0.28125 1.332031 -0.472656 0.375 -1.984375 L 2.59375 -4.0625 C 3.269531 -3.125 4.191406 -2.65625 5.359375 -2.65625 C 6.316406 -2.65625 6.796875 -2.941406 6.796875 -3.515625 C 6.796875 -3.734375 6.679688 -3.921875 6.453125 -4.078125 C 6.234375 -4.242188 5.953125 -4.382812 5.609375 -4.5 C 5.265625 -4.625 4.882812 -4.75 4.46875 -4.875 C 4.050781 -5.007812 3.628906 -5.171875 3.203125 -5.359375 C 2.785156 -5.554688 2.398438 -5.785156 2.046875 -6.046875 C 1.703125 -6.316406 1.421875 -6.675781 1.203125 -7.125 C 0.984375 -7.570312 0.875 -8.085938 0.875 -8.671875 C 0.875 -9.753906 1.304688 -10.648438 2.171875 -11.359375 C 3.054688 -12.054688 4.164062 -12.40625 5.5 -12.40625 C 6.507812 -12.40625 7.414062 -12.207031 8.21875 -11.8125 C 9.03125 -11.425781 9.671875 -10.890625 10.140625 -10.203125 Z M 10.140625 -10.203125 "/></g></g></g><path stroke-linecap="butt" transform="matrix(0.747283, 0, 0, 0.747283, 71.989992, 54.851768)" fill="none" stroke-linejoin="miter" d="M -0.0022893 23.214044 L 17.216348 23.214044 L 17.216348 1.499952 L 29.003848 1.499952 " stroke="#00327b" stroke-width="3" stroke-opacity="1" stroke-miterlimit="4"/><path stroke-linecap="round" transform="matrix(0.747283, 0, 0, 0.747283, 71.989992, 54.851768)" fill-opacity="1" fill="#00327b" fill-rule="nonzero" stroke-linejoin="round" d="M 29.756576 -3.00073 L 35.757485 1.499952 L 29.756576 6.000634 Z M 29.756576 -3.00073 " stroke="#00327b" stroke-width="3" stroke-opacity="1" stroke-miterlimit="4"/><path stroke-linecap="butt" transform="matrix(0.747283, 0, 0, 0.747283, 105.671747, 53.730844)" fill="none" stroke-linejoin="miter" d="M 0.00017171 1.499725 L 17.218809 1.499725 L 17.218809 23.213817 L 29.006309 23.213817 " stroke="#00327b" stroke-width="3" stroke-opacity="1" stroke-miterlimit="4"/><path stroke-linecap="round" transform="matrix(0.747283, 0, 0, 0.747283, 105.671747, 53.730844)" fill-opacity="1" fill="#00327b" fill-rule="nonzero" stroke-linejoin="round" d="M 29.753809 18.713135 L 35.754719 23.213817 L 29.753809 27.714499 Z M 29.753809 18.713135 " stroke="#00327b" stroke-width="3" stroke-opacity="1" stroke-miterlimit="4"/><path stroke-linecap="butt" transform="matrix(0.61484, -0.424739, 0.424739, 0.61484, 71.989212, 99.564681)" fill="none" stroke-linejoin="miter" d="M -0.00247284 1.500471 L 26.401711 1.500524 " stroke="#00327b" stroke-width="3" stroke-opacity="1" stroke-miterlimit="4"/><path stroke-linecap="round" transform="matrix(0.61484, -0.424739, 0.424739, 0.61484, 71.989212, 99.564681)" fill-opacity="1" fill="#00327b" fill-rule="nonzero" stroke-linejoin="round" d="M 27.153243 -2.999398 L 33.149956 1.498983 L 27.149459 6.000582 Z M 27.153243 -2.999398 " stroke="#00327b" stroke-width="3" stroke-opacity="1" stroke-miterlimit="4"/><path stroke-linecap="butt" transform="matrix(0.615115, 0.42434, -0.42434, 0.615115, 112.1967, 83.942197)" fill="none" stroke-linejoin="miter" d="M -0.00296639 1.499463 L 26.403883 1.501992 " stroke="#00327b" stroke-width="3" stroke-opacity="1" stroke-miterlimit="4"/><path stroke-linecap="round" transform="matrix(0.615115, 0.42434, -0.42434, 0.615115, 112.1967, 83.942197)" fill-opacity="1" fill="#00327b" fill-rule="nonzero" stroke-linejoin="round" d="M 27.151581 -3.001882 L 33.15346 1.500639 L 27.152496 6.002401 Z M 27.151581 -3.001882 " stroke="#00327b" stroke-width="3" stroke-opacity="1" stroke-miterlimit="4"/><g fill="#1272f9" fill-opacity="1"><g transform="translate(97.926712, 82.428607)"><g><path d="M 1.96875 -9.328125 L 0.375 -10.75 C 0.800781 -11.445312 1.363281 -12.003906 2.0625 -12.421875 C 2.769531 -12.835938 3.554688 -13.046875 4.421875 -13.046875 C 5.671875 -13.046875 6.65625 -12.679688 7.375 -11.953125 C 8.09375 -11.210938 8.453125 -10.320312 8.453125 -9.28125 C 8.453125 -8.488281 8.25 -7.789062 7.84375 -7.1875 C 7.4375 -6.59375 6.738281 -5.960938 5.75 -5.296875 L 4.40625 -4.40625 L 3.265625 -6.15625 L 4.71875 -7.15625 C 5.582031 -7.738281 6.015625 -8.398438 6.015625 -9.140625 C 6.015625 -9.609375 5.851562 -9.992188 5.53125 -10.296875 C 5.207031 -10.597656 4.796875 -10.75 4.296875 -10.75 C 3.460938 -10.75 2.6875 -10.273438 1.96875 -9.328125 Z M 5.5625 -0.21875 C 5.238281 0.0820312 4.859375 0.234375 4.421875 0.234375 C 3.984375 0.234375 3.609375 0.0820312 3.296875 -0.21875 C 2.992188 -0.519531 2.84375 -0.890625 2.84375 -1.328125 C 2.84375 -1.765625 3 -2.144531 3.3125 -2.46875 C 3.613281 -2.769531 3.984375 -2.921875 4.421875 -2.921875 C 4.859375 -2.921875 5.238281 -2.769531 5.5625 -2.46875 C 5.863281 -2.144531 6.015625 -1.765625 6.015625 -1.328125 C 6.015625 -0.890625 5.863281 -0.519531 5.5625 -0.21875 Z M 5.5625 -0.21875 "/></g></g></g></svg>