<svg xmlns="http://www.w3.org/2000/svg" xmlns:xlink="http://www.w3.org/1999/xlink" width="61" zoomAndPan="magnify" viewBox="0 0 46.079998 37.92" height="40" preserveAspectRatio="xMidYMid meet" version="1.2"><defs><clipPath id="e44db70cb2"><path d="M 16.125 5.484375 L 28.628906 5.484375 L 28.628906 17.984375 L 16.125 17.984375 Z M 16.125 5.484375 "/></clipPath><clipPath id="767e0c2a01"><path d="M 22.378906 5.484375 C 18.925781 5.484375 16.125 8.28125 16.125 11.734375 C 16.125 15.1875 18.925781 17.984375 22.378906 17.984375 C 25.828125 17.984375 28.628906 15.1875 28.628906 11.734375 C 28.628906 8.28125 25.828125 5.484375 22.378906 5.484375 Z M 22.378906 5.484375 "/></clipPath><clipPath id="12ef37b28f"><path d="M 19.957031 9.316406 L 24.929688 9.316406 L 24.929688 14.285156 L 19.957031 14.285156 Z M 19.957031 9.316406 "/></clipPath><clipPath id="1fba5bca7b"><path d="M 22.445312 9.316406 C 21.070312 9.316406 19.957031 10.425781 19.957031 11.800781 C 19.957031 13.171875 21.070312 14.285156 22.445312 14.285156 C 23.816406 14.285156 24.929688 13.171875 24.929688 11.800781 C 24.929688 10.425781 23.816406 9.316406 22.445312 9.316406 Z M 22.445312 9.316406 "/></clipPath></defs><g id="73b2d0c5fa"><path style="fill:none;stroke-width:5;stroke-linecap:round;stroke-linejoin:miter;stroke:#e4e2df;stroke-opacity:1;stroke-miterlimit:4;" d="M 2.501669 2.500367 L 46.897229 2.500367 " transform="matrix(0.729504,0,0,0.729504,4.561742,20.754098)"/><path style="fill:none;stroke-width:5;stroke-linecap:round;stroke-linejoin:miter;stroke:#585958;stroke-opacity:1;stroke-miterlimit:4;" d="M 2.498728 2.502116 L 22.61913 2.502116 " transform="matrix(0.732116,0,0,0.732116,3.971422,20.754098)"/><g clip-rule="nonzero" clip-path="url(#e44db70cb2)"><g clip-rule="nonzero" clip-path="url(#767e0c2a01)"><path style="fill:none;stroke-width:28;stroke-linecap:butt;stroke-linejoin:miter;stroke:#e4e2df;stroke-opacity:1;stroke-miterlimit:4;" d="M 8.588425 0.000645536 C 3.844856 0.000645536 -0.00258687 3.842722 -0.00258687 8.586291 C -0.00258687 13.329861 3.844856 17.171937 8.588425 17.171937 C 13.326628 17.171937 17.174071 13.329861 17.174071 8.586291 C 17.174071 3.842722 13.326628 0.000645536 8.588425 0.000645536 Z M 8.588425 0.000645536 " transform="matrix(0.727959,0,0,0.727959,16.126883,5.483905)"/></g></g><g clip-rule="nonzero" clip-path="url(#12ef37b28f)"><g clip-rule="nonzero" clip-path="url(#1fba5bca7b)"><path style=" stroke:none;fill-rule:nonzero;fill:#585958;fill-opacity:1;" d="M 19.957031 9.316406 L 24.929688 9.316406 L 24.929688 14.285156 L 19.957031 14.285156 Z M 19.957031 9.316406 "/></g></g></g></svg>