<svg xmlns="http://www.w3.org/2000/svg" xmlns:xlink="http://www.w3.org/1999/xlink" width="61" zoomAndPan="magnify" viewBox="0 0 46.079998 37.92" height="40" preserveAspectRatio="xMidYMid meet" version="1.2"><defs><clipPath id="a132921205"><path d="M 25.625 6.03125 L 36.492188 6.03125 L 36.492188 24.59375 L 25.625 24.59375 Z M 25.625 6.03125 "/></clipPath><clipPath id="372c5b05bd"><path d="M 8.355469 1.167969 L 24.617188 1.167969 L 24.617188 28.925781 L 8.355469 28.925781 Z M 8.355469 1.167969 "/></clipPath><clipPath id="d5c48a995f"><path d="M 8.355469 8.105469 L 8.355469 21.976562 L 24.617188 28.914062 L 24.617188 1.167969 Z M 8.355469 8.105469 "/></clipPath><clipPath id="ba8119e443"><path d="M 4 2 L 26 2 L 26 29.746094 L 4 29.746094 Z M 4 2 "/></clipPath><clipPath id="fb06b5ecde"><path d="M 8 0.332031 L 29 0.332031 L 29 29.746094 L 8 29.746094 Z M 8 0.332031 "/></clipPath></defs><g id="7dc398b81a"><g clip-rule="nonzero" clip-path="url(#a132921205)"><path style=" stroke:none;fill-rule:nonzero;fill:#585958;fill-opacity:1;" d="M 25.625 6.03125 L 36.492188 6.03125 L 36.492188 24.582031 L 25.625 24.582031 Z M 25.625 6.03125 "/></g><g clip-rule="nonzero" clip-path="url(#372c5b05bd)"><g clip-rule="nonzero" clip-path="url(#d5c48a995f)"><path style=" stroke:none;fill-rule:nonzero;fill:#bab8b7;fill-opacity:1;" d="M 24.617188 1.167969 L 24.617188 28.925781 L 8.355469 28.925781 L 8.355469 1.167969 Z M 24.617188 1.167969 "/></g></g><g clip-rule="nonzero" clip-path="url(#ba8119e443)"><path style="fill:none;stroke-width:2;stroke-linecap:butt;stroke-linejoin:miter;stroke:#000000;stroke-opacity:1;stroke-miterlimit:4;" d="M 0.000211004 0.999437 L 15.937121 0.997346 " transform="matrix(0.245997,0.69295,-0.69295,0.245997,13.618289,10.121183)"/></g><g clip-rule="nonzero" clip-path="url(#fb06b5ecde)"><path style="fill:none;stroke-width:2;stroke-linecap:butt;stroke-linejoin:miter;stroke:#000000;stroke-opacity:1;stroke-miterlimit:4;" d="M 0.00232501 1.001762 L 18.526435 0.99864 " transform="matrix(-0.16882,0.715677,-0.715677,-0.16882,20.639206,8.581516)"/></g></g></svg>