<svg xmlns="http://www.w3.org/2000/svg" xmlns:xlink="http://www.w3.org/1999/xlink" width="275" zoomAndPan="magnify" viewBox="0 0 206.25 187.499992" height="250" preserveAspectRatio="xMidYMid meet" version="1.0"><defs><g/><clipPath id="248ae6f324"><path d="M 6.664062 6.203125 L 198.839844 6.203125 L 198.839844 145.292969 L 6.664062 145.292969 Z M 6.664062 6.203125 " clip-rule="nonzero"/></clipPath><clipPath id="d001b2dd43"><path d="M 24.179688 151.675781 L 182.054688 151.675781 L 182.054688 179.699219 L 24.179688 179.699219 Z M 24.179688 151.675781 " clip-rule="nonzero"/></clipPath><clipPath id="d9de4e38b6"><path d="M 40.25 30.429688 L 165.253906 30.429688 L 165.253906 47.457031 L 40.25 47.457031 Z M 40.25 30.429688 " clip-rule="nonzero"/></clipPath><clipPath id="949baae168"><path d="M 40.25 53.046875 L 50.726562 53.046875 L 50.726562 63.410156 L 40.25 63.410156 Z M 40.25 53.046875 " clip-rule="nonzero"/></clipPath><clipPath id="753deb93d4"><path d="M 40.25 67.480469 L 50.726562 67.480469 L 50.726562 77.84375 L 40.25 77.84375 Z M 40.25 67.480469 " clip-rule="nonzero"/></clipPath><clipPath id="d3cc723196"><path d="M 40.25 81.828125 L 50.726562 81.828125 L 50.726562 92.1875 L 40.25 92.1875 Z M 40.25 81.828125 " clip-rule="nonzero"/></clipPath><clipPath id="4838ffd1a8"><path d="M 40.25 96.261719 L 50.726562 96.261719 L 50.726562 106.625 L 40.25 106.625 Z M 40.25 96.261719 " clip-rule="nonzero"/></clipPath><clipPath id="965731f09d"><path d="M 40.25 110.703125 L 50.726562 110.703125 L 50.726562 121.066406 L 40.25 121.066406 Z M 40.25 110.703125 " clip-rule="nonzero"/></clipPath><clipPath id="52df52a1ef"><path d="M 58.042969 52.847656 L 165.253906 52.847656 L 165.253906 63.410156 L 58.042969 63.410156 Z M 58.042969 52.847656 " clip-rule="nonzero"/></clipPath><clipPath id="662ae826b4"><path d="M 58.042969 67.382812 L 165.253906 67.382812 L 165.253906 77.941406 L 58.042969 77.941406 Z M 58.042969 67.382812 " clip-rule="nonzero"/></clipPath><clipPath id="7654b8dfaa"><path d="M 58.042969 81.828125 L 165.253906 81.828125 L 165.253906 92.386719 L 58.042969 92.386719 Z M 58.042969 81.828125 " clip-rule="nonzero"/></clipPath><clipPath id="5394c80fcb"><path d="M 58.042969 96.359375 L 165.253906 96.359375 L 165.253906 106.921875 L 58.042969 106.921875 Z M 58.042969 96.359375 " clip-rule="nonzero"/></clipPath><clipPath id="7c8d22c6ab"><path d="M 58.042969 111.253906 L 165.253906 111.253906 L 165.253906 121.816406 L 58.042969 121.816406 Z M 58.042969 111.253906 " clip-rule="nonzero"/></clipPath></defs><g clip-path="url(#248ae6f324)"><path fill="#ececec" d="M 6.664062 6.203125 L 198.839844 6.203125 L 198.839844 145.292969 L 6.664062 145.292969 Z M 6.664062 6.203125 " fill-opacity="1" fill-rule="nonzero"/></g><g clip-path="url(#d001b2dd43)"><path fill="#ffffff" d="M 24.179688 151.675781 L 182.054688 151.675781 L 182.054688 179.699219 L 24.179688 179.699219 Z M 24.179688 151.675781 " fill-opacity="1" fill-rule="nonzero"/></g><g fill="#423e3e" fill-opacity="1"><g transform="translate(33.77367, 170.74471)"><g><path d="M 2.90625 0 L 3.945312 -2.832031 L 10.167969 -2.832031 L 11.226562 0 L 14.222656 0 L 8.84375 -14.042969 L 5.34375 -14.042969 L -0.0195312 0 Z M 7.066406 -11.226562 L 9.183594 -5.523438 L 4.949219 -5.523438 Z M 7.066406 -11.226562 "/></g></g></g><g fill="#423e3e" fill-opacity="1"><g transform="translate(47.97798, 170.74471)"><g><path d="M 1.632812 -14.042969 L 1.632812 0 L 10.527344 0 L 10.527344 -2.761719 L 4.519531 -2.761719 L 4.519531 -14.042969 Z M 1.632812 -14.042969 "/></g></g></g><g fill="#423e3e" fill-opacity="1"><g transform="translate(58.810555, 170.74471)"><g><path d="M 2.90625 0 L 3.945312 -2.832031 L 10.167969 -2.832031 L 11.226562 0 L 14.222656 0 L 8.84375 -14.042969 L 5.34375 -14.042969 L -0.0195312 0 Z M 7.066406 -11.226562 L 9.183594 -5.523438 L 4.949219 -5.523438 Z M 7.066406 -11.226562 "/></g></g></g><g fill="#423e3e" fill-opacity="1"><g transform="translate(73.014865, 170.74471)"><g><path d="M 12.429688 0 L 9.253906 -5.488281 C 11.15625 -6.167969 12.140625 -7.585938 12.140625 -9.59375 C 12.140625 -12.574219 9.898438 -14.042969 7.175781 -14.042969 L 1.632812 -14.042969 L 1.632812 0 L 4.539062 0 L 4.539062 -5.039062 L 6.296875 -5.039062 L 9.199219 0 Z M 6.957031 -7.730469 L 4.539062 -7.730469 L 4.539062 -11.300781 L 6.941406 -11.300781 C 8.035156 -11.300781 9.199219 -10.886719 9.199219 -9.542969 C 9.199219 -8.214844 8.035156 -7.730469 6.957031 -7.730469 Z M 6.957031 -7.730469 "/></g></g></g><g fill="#423e3e" fill-opacity="1"><g transform="translate(86.12515, 170.74471)"><g><path d="M 14.238281 -9.273438 L 14.257812 -9.273438 L 14.257812 0 L 17.128906 0 L 17.128906 -14.042969 L 13.273438 -14.042969 L 9.363281 -4.628906 L 5.378906 -14.042969 L 1.632812 -14.042969 L 1.632812 0 L 4.484375 0 L 4.484375 -9.199219 L 4.5 -9.199219 L 8.394531 0 L 10.332031 0 Z M 14.238281 -9.273438 "/></g></g></g><g fill="#423e3e" fill-opacity="1"><g transform="translate(104.884878, 170.74471)"><g/></g></g><g fill="#423e3e" fill-opacity="1"><g transform="translate(109.386498, 170.74471)"><g><path d="M 4.589844 0 L 7.480469 0 L 7.480469 -11.226562 L 11.695312 -11.226562 L 11.695312 -14.042969 L 0.375 -14.042969 L 0.375 -11.226562 L 4.589844 -11.226562 Z M 4.589844 0 "/></g></g></g><g fill="#423e3e" fill-opacity="1"><g transform="translate(121.456567, 170.74471)"><g><path d="M 2.90625 0 L 3.945312 -2.832031 L 10.167969 -2.832031 L 11.226562 0 L 14.222656 0 L 8.84375 -14.042969 L 5.34375 -14.042969 L -0.0195312 0 Z M 7.066406 -11.226562 L 9.183594 -5.523438 L 4.949219 -5.523438 Z M 7.066406 -11.226562 "/></g></g></g><g fill="#423e3e" fill-opacity="1"><g transform="translate(135.660876, 170.74471)"><g><path d="M 12.554688 -3.875 C 12.554688 -5.738281 11.640625 -6.671875 9.972656 -7.300781 L 9.972656 -7.335938 C 11.191406 -7.964844 11.945312 -8.929688 11.945312 -10.332031 C 11.945312 -12.839844 9.71875 -14.042969 7.460938 -14.042969 L 1.632812 -14.042969 L 1.632812 0 L 7.550781 0 C 10.027344 0 12.554688 -1.023438 12.554688 -3.875 Z M 9.09375 -9.882812 C 9.09375 -8.609375 7.890625 -8.339844 6.867188 -8.339844 L 4.464844 -8.339844 L 4.464844 -11.371094 L 7.066406 -11.371094 C 8.035156 -11.371094 9.09375 -11.046875 9.09375 -9.882812 Z M 9.71875 -4.25 C 9.71875 -2.996094 8.554688 -2.691406 7.515625 -2.691406 L 4.464844 -2.691406 L 4.464844 -5.828125 L 7.425781 -5.828125 C 8.5 -5.828125 9.71875 -5.558594 9.71875 -4.25 Z M 9.71875 -4.25 "/></g></g></g><g fill="#423e3e" fill-opacity="1"><g transform="translate(149.004311, 170.74471)"><g><path d="M 1.632812 -14.042969 L 1.632812 0 L 10.527344 0 L 10.527344 -2.761719 L 4.519531 -2.761719 L 4.519531 -14.042969 Z M 1.632812 -14.042969 "/></g></g></g><g fill="#423e3e" fill-opacity="1"><g transform="translate(159.836886, 170.74471)"><g><path d="M 1.632812 -14.042969 L 1.632812 0 L 10.867188 0 L 10.867188 -2.707031 L 4.5 -2.707031 L 4.5 -5.738281 L 10.167969 -5.738281 L 10.167969 -8.464844 L 4.5 -8.464844 L 4.5 -11.316406 L 10.832031 -11.316406 L 10.832031 -14.042969 Z M 1.632812 -14.042969 "/></g></g></g><g clip-path="url(#d9de4e38b6)"><path fill="#625e5e" d="M 40.25 30.429688 L 165.253906 30.429688 L 165.253906 47.457031 L 40.25 47.457031 Z M 40.25 30.429688 " fill-opacity="1" fill-rule="nonzero"/></g><g clip-path="url(#949baae168)"><path fill="#423e3e" d="M 40.25 53.046875 L 50.726562 53.046875 L 50.726562 63.410156 L 40.25 63.410156 Z M 40.25 53.046875 " fill-opacity="1" fill-rule="nonzero"/></g><g clip-path="url(#753deb93d4)"><path fill="#423e3e" d="M 40.25 67.480469 L 50.726562 67.480469 L 50.726562 77.84375 L 40.25 77.84375 Z M 40.25 67.480469 " fill-opacity="1" fill-rule="nonzero"/></g><g clip-path="url(#d3cc723196)"><path fill="#f5d228" d="M 40.25 81.828125 L 50.726562 81.828125 L 50.726562 92.1875 L 40.25 92.1875 Z M 40.25 81.828125 " fill-opacity="1" fill-rule="nonzero"/></g><g clip-path="url(#4838ffd1a8)"><path fill="#f5d228" d="M 40.25 96.261719 L 50.726562 96.261719 L 50.726562 106.625 L 40.25 106.625 Z M 40.25 96.261719 " fill-opacity="1" fill-rule="nonzero"/></g><g clip-path="url(#965731f09d)"><path fill="#423e3e" d="M 40.25 110.703125 L 50.726562 110.703125 L 50.726562 121.066406 L 40.25 121.066406 Z M 40.25 110.703125 " fill-opacity="1" fill-rule="nonzero"/></g><g clip-path="url(#52df52a1ef)"><path fill="#a6a6a6" d="M 58.042969 52.847656 L 165.253906 52.847656 L 165.253906 63.410156 L 58.042969 63.410156 Z M 58.042969 52.847656 " fill-opacity="1" fill-rule="nonzero"/></g><g clip-path="url(#662ae826b4)"><path fill="#a6a6a6" d="M 58.042969 67.382812 L 165.253906 67.382812 L 165.253906 77.941406 L 58.042969 77.941406 Z M 58.042969 67.382812 " fill-opacity="1" fill-rule="nonzero"/></g><g clip-path="url(#7654b8dfaa)"><path fill="#ffeb87" d="M 58.042969 81.828125 L 165.253906 81.828125 L 165.253906 92.386719 L 58.042969 92.386719 Z M 58.042969 81.828125 " fill-opacity="1" fill-rule="nonzero"/></g><g clip-path="url(#5394c80fcb)"><path fill="#ffeb87" d="M 58.042969 96.359375 L 165.253906 96.359375 L 165.253906 106.921875 L 58.042969 106.921875 Z M 58.042969 96.359375 " fill-opacity="1" fill-rule="nonzero"/></g><g clip-path="url(#7c8d22c6ab)"><path fill="#a6a6a6" d="M 58.042969 111.253906 L 165.253906 111.253906 L 165.253906 121.816406 L 58.042969 121.816406 Z M 58.042969 111.253906 " fill-opacity="1" fill-rule="nonzero"/></g></svg>