<svg xmlns="http://www.w3.org/2000/svg" xmlns:xlink="http://www.w3.org/1999/xlink" width="300" zoomAndPan="magnify" viewBox="0 0 224.87999 168.749997" height="225" preserveAspectRatio="xMidYMid meet" version="1.0"><defs><g/><clipPath id="190539bc0f"><path d="M 5.984375 6.058594 L 219.1875 6.058594 L 219.1875 162.441406 L 5.984375 162.441406 Z M 5.984375 6.058594 " clip-rule="nonzero"/></clipPath><clipPath id="35fe8351d2"><path d="M 53.308594 25.421875 L 171.867188 25.421875 L 171.867188 41.570312 L 53.308594 41.570312 Z M 53.308594 25.421875 " clip-rule="nonzero"/></clipPath><clipPath id="2e010c5a0a"><path d="M 53.308594 46.875 L 63.242188 46.875 L 63.242188 56.703125 L 53.308594 56.703125 Z M 53.308594 46.875 " clip-rule="nonzero"/></clipPath><clipPath id="e688df9b0f"><path d="M 53.308594 60.5625 L 63.242188 60.5625 L 63.242188 70.390625 L 53.308594 70.390625 Z M 53.308594 60.5625 " clip-rule="nonzero"/></clipPath><clipPath id="e9406220e0"><path d="M 53.308594 74.167969 L 63.242188 74.167969 L 63.242188 83.996094 L 53.308594 83.996094 Z M 53.308594 74.167969 " clip-rule="nonzero"/></clipPath><clipPath id="cc37cb4da1"><path d="M 53.308594 87.859375 L 63.242188 87.859375 L 63.242188 97.6875 L 53.308594 97.6875 Z M 53.308594 87.859375 " clip-rule="nonzero"/></clipPath><clipPath id="e89328fe5c"><path d="M 53.308594 101.558594 L 63.242188 101.558594 L 63.242188 111.386719 L 53.308594 111.386719 Z M 53.308594 101.558594 " clip-rule="nonzero"/></clipPath><clipPath id="ee03a99f7e"><path d="M 70.183594 46.6875 L 171.867188 46.6875 L 171.867188 56.703125 L 70.183594 56.703125 Z M 70.183594 46.6875 " clip-rule="nonzero"/></clipPath><clipPath id="9d0f1831d0"><path d="M 70.183594 60.46875 L 171.867188 60.46875 L 171.867188 70.484375 L 70.183594 70.484375 Z M 70.183594 60.46875 " clip-rule="nonzero"/></clipPath><clipPath id="8c3f6b6fd0"><path d="M 70.183594 74.167969 L 171.867188 74.167969 L 171.867188 84.183594 L 70.183594 84.183594 Z M 70.183594 74.167969 " clip-rule="nonzero"/></clipPath><clipPath id="12e7cd73dd"><path d="M 70.183594 87.953125 L 171.867188 87.953125 L 171.867188 97.96875 L 70.183594 97.96875 Z M 70.183594 87.953125 " clip-rule="nonzero"/></clipPath><clipPath id="651c8eee6c"><path d="M 70.183594 102.082031 L 171.867188 102.082031 L 171.867188 112.097656 L 70.183594 112.097656 Z M 70.183594 102.082031 " clip-rule="nonzero"/></clipPath></defs><g clip-path="url(#190539bc0f)"><path fill="#ececec" d="M 5.984375 6.058594 L 219.179688 6.058594 L 219.179688 162.441406 L 5.984375 162.441406 Z M 5.984375 6.058594 " fill-opacity="1" fill-rule="nonzero"/></g><g fill="#423e3e" fill-opacity="1"><g transform="translate(39.487372, 145.878556)"><g><path d="M 3.078125 0 L -0.015625 0 L 5.65625 -14.859375 L 9.359375 -14.859375 L 15.046875 0 L 11.875 0 L 10.75 -3 L 4.171875 -3 Z M 7.46875 -11.875 L 5.234375 -5.84375 L 9.71875 -5.84375 Z M 7.46875 -11.875 "/></g></g></g><g fill="#423e3e" fill-opacity="1"><g transform="translate(54.510045, 145.878556)"><g><path d="M 1.71875 -14.859375 L 4.78125 -14.859375 L 4.78125 -2.921875 L 11.140625 -2.921875 L 11.140625 0 L 1.71875 0 Z M 1.71875 -14.859375 "/></g></g></g><g fill="#423e3e" fill-opacity="1"><g transform="translate(65.966723, 145.878556)"><g><path d="M 3.078125 0 L -0.015625 0 L 5.65625 -14.859375 L 9.359375 -14.859375 L 15.046875 0 L 11.875 0 L 10.75 -3 L 4.171875 -3 Z M 7.46875 -11.875 L 5.234375 -5.84375 L 9.71875 -5.84375 Z M 7.46875 -11.875 "/></g></g></g><g fill="#423e3e" fill-opacity="1"><g transform="translate(80.989396, 145.878556)"><g><path d="M 13.140625 0 L 9.734375 0 L 6.65625 -5.328125 L 4.796875 -5.328125 L 4.796875 0 L 1.71875 0 L 1.71875 -14.859375 L 7.59375 -14.859375 C 8.550781 -14.859375 9.425781 -14.679688 10.21875 -14.328125 C 11.019531 -13.984375 11.65625 -13.460938 12.125 -12.765625 C 12.601562 -12.066406 12.84375 -11.191406 12.84375 -10.140625 C 12.84375 -7.984375 11.820312 -6.535156 9.78125 -5.796875 Z M 7.359375 -8.171875 C 7.734375 -8.171875 8.101562 -8.234375 8.46875 -8.359375 C 8.84375 -8.492188 9.144531 -8.695312 9.375 -8.96875 C 9.613281 -9.25 9.734375 -9.625 9.734375 -10.09375 C 9.734375 -10.570312 9.613281 -10.941406 9.375 -11.203125 C 9.132812 -11.472656 8.832031 -11.664062 8.46875 -11.78125 C 8.101562 -11.894531 7.726562 -11.953125 7.34375 -11.953125 L 4.796875 -11.953125 L 4.796875 -8.171875 Z M 7.359375 -8.171875 "/></g></g></g><g fill="#423e3e" fill-opacity="1"><g transform="translate(94.855011, 145.878556)"><g><path d="M 15.0625 -9.8125 L 10.921875 0 L 8.875 0 L 4.765625 -9.734375 L 4.75 -9.734375 L 4.75 0 L 1.71875 0 L 1.71875 -14.859375 L 5.6875 -14.859375 L 9.90625 -4.890625 L 14.03125 -14.859375 L 18.109375 -14.859375 L 18.109375 0 L 15.078125 0 L 15.078125 -9.8125 Z M 15.0625 -9.8125 "/></g></g></g><g fill="#423e3e" fill-opacity="1"><g transform="translate(114.695559, 145.878556)"><g/></g></g><g fill="#423e3e" fill-opacity="1"><g transform="translate(119.456526, 145.878556)"><g><path d="M 4.859375 0 L 4.859375 -11.875 L 0.390625 -11.875 L 0.390625 -14.859375 L 12.375 -14.859375 L 12.375 -11.875 L 7.90625 -11.875 L 7.90625 0 Z M 4.859375 0 "/></g></g></g><g fill="#423e3e" fill-opacity="1"><g transform="translate(132.222003, 145.878556)"><g><path d="M 3.078125 0 L -0.015625 0 L 5.65625 -14.859375 L 9.359375 -14.859375 L 15.046875 0 L 11.875 0 L 10.75 -3 L 4.171875 -3 Z M 7.46875 -11.875 L 5.234375 -5.84375 L 9.71875 -5.84375 Z M 7.46875 -11.875 "/></g></g></g><g fill="#423e3e" fill-opacity="1"><g transform="translate(147.244676, 145.878556)"><g><path d="M 13.28125 -4.09375 C 13.28125 -3.332031 13.128906 -2.691406 12.828125 -2.171875 C 12.523438 -1.660156 12.117188 -1.242188 11.609375 -0.921875 C 11.097656 -0.597656 10.53125 -0.363281 9.90625 -0.21875 C 9.28125 -0.0703125 8.640625 0 7.984375 0 L 1.71875 0 L 1.71875 -14.859375 L 7.890625 -14.859375 C 8.691406 -14.859375 9.453125 -14.710938 10.171875 -14.421875 C 10.898438 -14.140625 11.492188 -13.707031 11.953125 -13.125 C 12.410156 -12.539062 12.640625 -11.804688 12.640625 -10.921875 C 12.640625 -10.191406 12.453125 -9.5625 12.078125 -9.03125 C 11.703125 -8.507812 11.191406 -8.085938 10.546875 -7.765625 L 10.546875 -7.71875 C 11.429688 -7.394531 12.109375 -6.957031 12.578125 -6.40625 C 13.046875 -5.851562 13.28125 -5.082031 13.28125 -4.09375 Z M 9.625 -10.453125 C 9.625 -10.867188 9.515625 -11.191406 9.296875 -11.421875 C 9.078125 -11.648438 8.800781 -11.804688 8.46875 -11.890625 C 8.144531 -11.984375 7.8125 -12.03125 7.46875 -12.03125 L 4.71875 -12.03125 L 4.71875 -8.828125 L 7.265625 -8.828125 C 7.628906 -8.828125 7.988281 -8.863281 8.34375 -8.9375 C 8.707031 -9.019531 9.007812 -9.179688 9.25 -9.421875 C 9.5 -9.660156 9.625 -10.003906 9.625 -10.453125 Z M 10.28125 -4.5 C 10.28125 -4.96875 10.15625 -5.316406 9.90625 -5.546875 C 9.664062 -5.785156 9.359375 -5.945312 8.984375 -6.03125 C 8.609375 -6.125 8.234375 -6.171875 7.859375 -6.171875 L 4.71875 -6.171875 L 4.71875 -2.84375 L 7.953125 -2.84375 C 8.316406 -2.84375 8.675781 -2.882812 9.03125 -2.96875 C 9.394531 -3.0625 9.691406 -3.226562 9.921875 -3.46875 C 10.160156 -3.707031 10.28125 -4.050781 10.28125 -4.5 Z M 10.28125 -4.5 "/></g></g></g><g fill="#423e3e" fill-opacity="1"><g transform="translate(161.356878, 145.878556)"><g><path d="M 1.71875 -14.859375 L 4.78125 -14.859375 L 4.78125 -2.921875 L 11.140625 -2.921875 L 11.140625 0 L 1.71875 0 Z M 1.71875 -14.859375 "/></g></g></g><g fill="#423e3e" fill-opacity="1"><g transform="translate(172.813556, 145.878556)"><g><path d="M 1.71875 -14.859375 L 11.453125 -14.859375 L 11.453125 -11.96875 L 4.765625 -11.96875 L 4.765625 -8.953125 L 10.75 -8.953125 L 10.75 -6.0625 L 4.765625 -6.0625 L 4.765625 -2.859375 L 11.5 -2.859375 L 11.5 0 L 1.71875 0 Z M 1.71875 -14.859375 "/></g></g></g><g clip-path="url(#35fe8351d2)"><path fill="#625e5e" d="M 53.308594 25.421875 L 171.84375 25.421875 L 171.84375 41.570312 L 53.308594 41.570312 Z M 53.308594 25.421875 " fill-opacity="1" fill-rule="nonzero"/></g><g clip-path="url(#2e010c5a0a)"><path fill="#423e3e" d="M 53.308594 46.875 L 63.25 46.875 L 63.25 56.703125 L 53.308594 56.703125 Z M 53.308594 46.875 " fill-opacity="1" fill-rule="nonzero"/></g><g clip-path="url(#e688df9b0f)"><path fill="#423e3e" d="M 53.308594 60.5625 L 63.25 60.5625 L 63.25 70.390625 L 53.308594 70.390625 Z M 53.308594 60.5625 " fill-opacity="1" fill-rule="nonzero"/></g><g clip-path="url(#e9406220e0)"><path fill="#f5d228" d="M 53.308594 74.167969 L 63.25 74.167969 L 63.25 83.996094 L 53.308594 83.996094 Z M 53.308594 74.167969 " fill-opacity="1" fill-rule="nonzero"/></g><g clip-path="url(#cc37cb4da1)"><path fill="#f5d228" d="M 53.308594 87.859375 L 63.25 87.859375 L 63.25 97.6875 L 53.308594 97.6875 Z M 53.308594 87.859375 " fill-opacity="1" fill-rule="nonzero"/></g><g clip-path="url(#e89328fe5c)"><path fill="#423e3e" d="M 53.308594 101.558594 L 63.25 101.558594 L 63.25 111.386719 L 53.308594 111.386719 Z M 53.308594 101.558594 " fill-opacity="1" fill-rule="nonzero"/></g><g clip-path="url(#ee03a99f7e)"><path fill="#a6a6a6" d="M 70.183594 46.6875 L 171.875 46.6875 L 171.875 56.703125 L 70.183594 56.703125 Z M 70.183594 46.6875 " fill-opacity="1" fill-rule="nonzero"/></g><g clip-path="url(#9d0f1831d0)"><path fill="#a6a6a6" d="M 70.183594 60.46875 L 171.875 60.46875 L 171.875 70.484375 L 70.183594 70.484375 Z M 70.183594 60.46875 " fill-opacity="1" fill-rule="nonzero"/></g><g clip-path="url(#8c3f6b6fd0)"><path fill="#ffeb87" d="M 70.183594 74.167969 L 171.875 74.167969 L 171.875 84.183594 L 70.183594 84.183594 Z M 70.183594 74.167969 " fill-opacity="1" fill-rule="nonzero"/></g><g clip-path="url(#12e7cd73dd)"><path fill="#ffeb87" d="M 70.183594 87.953125 L 171.875 87.953125 L 171.875 97.96875 L 70.183594 97.96875 Z M 70.183594 87.953125 " fill-opacity="1" fill-rule="nonzero"/></g><g clip-path="url(#651c8eee6c)"><path fill="#a6a6a6" d="M 70.183594 102.082031 L 171.875 102.082031 L 171.875 112.097656 L 70.183594 112.097656 Z M 70.183594 102.082031 " fill-opacity="1" fill-rule="nonzero"/></g></svg>