<svg xmlns="http://www.w3.org/2000/svg" xmlns:xlink="http://www.w3.org/1999/xlink" width="61" zoomAndPan="magnify" viewBox="0 0 46.079998 37.92" height="40" preserveAspectRatio="xMidYMid meet" version="1.2"><defs><clipPath id="63b89df405"><path d="M 3.699219 1.347656 L 41.152344 1.347656 L 41.152344 6.449219 L 3.699219 6.449219 Z M 3.699219 1.347656 "/></clipPath><clipPath id="ddbd1079a7"><path d="M 3.699219 8.125 L 6.839844 8.125 L 6.839844 11.230469 L 3.699219 11.230469 Z M 3.699219 8.125 "/></clipPath><clipPath id="3a0dd02271"><path d="M 3.699219 12.449219 L 6.839844 12.449219 L 6.839844 15.554688 L 3.699219 15.554688 Z M 3.699219 12.449219 "/></clipPath><clipPath id="c7666d9380"><path d="M 3.699219 16.746094 L 6.839844 16.746094 L 6.839844 19.851562 L 3.699219 19.851562 Z M 3.699219 16.746094 "/></clipPath><clipPath id="c3aa97e8ee"><path d="M 3.699219 21.074219 L 6.839844 21.074219 L 6.839844 24.175781 L 3.699219 24.175781 Z M 3.699219 21.074219 "/></clipPath><clipPath id="840ef8a68c"><path d="M 3.699219 25.398438 L 6.839844 25.398438 L 6.839844 28.503906 L 3.699219 28.503906 Z M 3.699219 25.398438 "/></clipPath><clipPath id="9b82d67443"><path d="M 9.03125 8.066406 L 41.152344 8.066406 L 41.152344 11.230469 L 9.03125 11.230469 Z M 9.03125 8.066406 "/></clipPath><clipPath id="6d62b65bb1"><path d="M 9.03125 12.417969 L 41.152344 12.417969 L 41.152344 15.585938 L 9.03125 15.585938 Z M 9.03125 12.417969 "/></clipPath><clipPath id="2c01a76f78"><path d="M 9.03125 16.746094 L 41.152344 16.746094 L 41.152344 19.910156 L 9.03125 19.910156 Z M 9.03125 16.746094 "/></clipPath><clipPath id="63fb13ae2f"><path d="M 9.03125 21.101562 L 41.152344 21.101562 L 41.152344 24.265625 L 9.03125 24.265625 Z M 9.03125 21.101562 "/></clipPath><clipPath id="247fe9f153"><path d="M 9.03125 25.566406 L 41.152344 25.566406 L 41.152344 28.730469 L 9.03125 28.730469 Z M 9.03125 25.566406 "/></clipPath></defs><g id="14eac202a2"><g clip-rule="nonzero" clip-path="url(#63b89df405)"><path style=" stroke:none;fill-rule:nonzero;fill:#585958;fill-opacity:1;" d="M 3.699219 1.347656 L 41.148438 1.347656 L 41.148438 6.449219 L 3.699219 6.449219 Z M 3.699219 1.347656 "/></g><g clip-rule="nonzero" clip-path="url(#ddbd1079a7)"><path style=" stroke:none;fill-rule:nonzero;fill:#585958;fill-opacity:1;" d="M 3.699219 8.125 L 6.839844 8.125 L 6.839844 11.230469 L 3.699219 11.230469 Z M 3.699219 8.125 "/></g><g clip-rule="nonzero" clip-path="url(#3a0dd02271)"><path style=" stroke:none;fill-rule:nonzero;fill:#585958;fill-opacity:1;" d="M 3.699219 12.449219 L 6.839844 12.449219 L 6.839844 15.554688 L 3.699219 15.554688 Z M 3.699219 12.449219 "/></g><g clip-rule="nonzero" clip-path="url(#c7666d9380)"><path style=" stroke:none;fill-rule:nonzero;fill:#f5d228;fill-opacity:1;" d="M 3.699219 16.746094 L 6.839844 16.746094 L 6.839844 19.851562 L 3.699219 19.851562 Z M 3.699219 16.746094 "/></g><g clip-rule="nonzero" clip-path="url(#c3aa97e8ee)"><path style=" stroke:none;fill-rule:nonzero;fill:#f5d228;fill-opacity:1;" d="M 3.699219 21.074219 L 6.839844 21.074219 L 6.839844 24.175781 L 3.699219 24.175781 Z M 3.699219 21.074219 "/></g><g clip-rule="nonzero" clip-path="url(#840ef8a68c)"><path style=" stroke:none;fill-rule:nonzero;fill:#585958;fill-opacity:1;" d="M 3.699219 25.398438 L 6.839844 25.398438 L 6.839844 28.503906 L 3.699219 28.503906 Z M 3.699219 25.398438 "/></g><g clip-rule="nonzero" clip-path="url(#9b82d67443)"><path style=" stroke:none;fill-rule:nonzero;fill:#e4e2df;fill-opacity:1;" d="M 9.03125 8.066406 L 41.15625 8.066406 L 41.15625 11.230469 L 9.03125 11.230469 Z M 9.03125 8.066406 "/></g><g clip-rule="nonzero" clip-path="url(#6d62b65bb1)"><path style=" stroke:none;fill-rule:nonzero;fill:#e4e2df;fill-opacity:1;" d="M 9.03125 12.417969 L 41.15625 12.417969 L 41.15625 15.585938 L 9.03125 15.585938 Z M 9.03125 12.417969 "/></g><g clip-rule="nonzero" clip-path="url(#2c01a76f78)"><path style=" stroke:none;fill-rule:nonzero;fill:#ffeb87;fill-opacity:1;" d="M 9.03125 16.746094 L 41.15625 16.746094 L 41.15625 19.910156 L 9.03125 19.910156 Z M 9.03125 16.746094 "/></g><g clip-rule="nonzero" clip-path="url(#63fb13ae2f)"><path style=" stroke:none;fill-rule:nonzero;fill:#ffeb87;fill-opacity:1;" d="M 9.03125 21.101562 L 41.15625 21.101562 L 41.15625 24.265625 L 9.03125 24.265625 Z M 9.03125 21.101562 "/></g><g clip-rule="nonzero" clip-path="url(#247fe9f153)"><path style=" stroke:none;fill-rule:nonzero;fill:#e4e2df;fill-opacity:1;" d="M 9.03125 25.566406 L 41.15625 25.566406 L 41.15625 28.730469 L 9.03125 28.730469 Z M 9.03125 25.566406 "/></g></g></svg>