<svg xmlns="http://www.w3.org/2000/svg" xmlns:xlink="http://www.w3.org/1999/xlink" width="275" zoomAndPan="magnify" viewBox="0 0 206.25 187.499992" height="250" preserveAspectRatio="xMidYMid meet" version="1.0"><defs><g/><clipPath id="e77f83d96f"><path d="M 6.664062 6.203125 L 198.839844 6.203125 L 198.839844 145.292969 L 6.664062 145.292969 Z M 6.664062 6.203125 " clip-rule="nonzero"/></clipPath><clipPath id="cbe9cc6609"><path d="M 58.289062 151.675781 L 147.214844 151.675781 L 147.214844 179.699219 L 58.289062 179.699219 Z M 58.289062 151.675781 " clip-rule="nonzero"/></clipPath><clipPath id="3c943fc75d"><path d="M 56.699219 29.761719 L 148.804688 29.761719 L 148.804688 121.734375 L 56.699219 121.734375 Z M 56.699219 29.761719 " clip-rule="nonzero"/></clipPath></defs><g clip-path="url(#e77f83d96f)"><path fill="#ececec" d="M 6.664062 6.203125 L 198.839844 6.203125 L 198.839844 145.292969 L 6.664062 145.292969 Z M 6.664062 6.203125 " fill-opacity="1" fill-rule="nonzero"/></g><g clip-path="url(#cbe9cc6609)"><path fill="#ffffff" d="M 58.289062 151.675781 L 147.214844 151.675781 L 147.214844 179.699219 L 58.289062 179.699219 Z M 58.289062 151.675781 " fill-opacity="1" fill-rule="nonzero"/></g><g clip-path="url(#3c943fc75d)"><path fill="#333333" d="M 56.699219 29.761719 L 148.804688 29.761719 L 148.804688 121.734375 L 56.699219 121.734375 Z M 56.699219 29.761719 " fill-opacity="1" fill-rule="nonzero"/></g><g fill="#423e3e" fill-opacity="1"><g transform="translate(66.642426, 172.139648)"><g><path d="M 13.25 -4.089844 C 13.25 -6.058594 12.285156 -7.042969 10.523438 -7.703125 L 10.523438 -7.742188 C 11.8125 -8.40625 12.605469 -9.425781 12.605469 -10.902344 C 12.605469 -13.554688 10.257812 -14.820312 7.875 -14.820312 L 1.722656 -14.820312 L 1.722656 0 L 7.96875 0 C 10.582031 0 13.25 -1.078125 13.25 -4.089844 Z M 9.597656 -10.429688 C 9.597656 -9.085938 8.328125 -8.800781 7.25 -8.800781 L 4.714844 -8.800781 L 4.714844 -12 L 7.457031 -12 C 8.480469 -12 9.597656 -11.660156 9.597656 -10.429688 Z M 10.257812 -4.484375 C 10.257812 -3.160156 9.027344 -2.839844 7.929688 -2.839844 L 4.714844 -2.839844 L 4.714844 -6.152344 L 7.835938 -6.152344 C 8.972656 -6.152344 10.257812 -5.867188 10.257812 -4.484375 Z M 10.257812 -4.484375 "/></g></g></g><g fill="#423e3e" fill-opacity="1"><g transform="translate(80.724329, 172.139648)"><g><path d="M 1.722656 -14.820312 L 1.722656 0 L 11.109375 0 L 11.109375 -2.914062 L 4.769531 -2.914062 L 4.769531 -14.820312 Z M 1.722656 -14.820312 "/></g></g></g><g fill="#423e3e" fill-opacity="1"><g transform="translate(92.156409, 172.139648)"><g><path d="M 0.8125 -7.402344 C 0.8125 -3.125 4.222656 0.226562 8.480469 0.226562 C 12.738281 0.226562 16.203125 -3.160156 16.203125 -7.476562 C 16.203125 -11.734375 12.816406 -15.046875 8.554688 -15.046875 C 4.296875 -15.046875 0.8125 -11.660156 0.8125 -7.402344 Z M 3.957031 -7.421875 C 3.957031 -9.976562 5.960938 -12.078125 8.519531 -12.078125 C 11.074219 -12.078125 13.078125 -9.976562 13.078125 -7.421875 C 13.078125 -4.863281 11.074219 -2.746094 8.519531 -2.746094 C 5.960938 -2.746094 3.957031 -4.863281 3.957031 -7.421875 Z M 3.957031 -7.421875 "/></g></g></g><g fill="#423e3e" fill-opacity="1"><g transform="translate(109.172048, 172.139648)"><g><path d="M 0.8125 -7.402344 C 0.8125 -3.085938 4.125 0.207031 8.441406 0.207031 C 11.355469 0.207031 14.253906 -1.402344 15.277344 -4.203125 L 12.453125 -5.507812 C 11.8125 -3.898438 10.335938 -2.761719 8.480469 -2.761719 C 5.847656 -2.761719 3.992188 -4.863281 3.992188 -7.4375 C 3.992188 -9.976562 5.90625 -12.058594 8.480469 -12.058594 C 10.335938 -12.058594 11.792969 -11.015625 12.417969 -9.386719 L 15.21875 -10.675781 C 14.214844 -13.457031 11.414062 -15.046875 8.5 -15.046875 C 4.257812 -15.046875 0.8125 -11.679688 0.8125 -7.402344 Z M 0.8125 -7.402344 "/></g></g></g><g fill="#423e3e" fill-opacity="1"><g transform="translate(124.919556, 172.139648)"><g><path d="M 4.769531 0 L 4.769531 -7.042969 L 10.109375 0 L 14.0625 0 L 8.027344 -7.742188 L 13.683594 -14.820312 L 9.863281 -14.820312 L 4.769531 -8.367188 L 4.769531 -14.820312 L 1.722656 -14.820312 L 1.722656 0 Z M 4.769531 0 "/></g></g></g></svg>