<svg xmlns="http://www.w3.org/2000/svg" xmlns:xlink="http://www.w3.org/1999/xlink" width="300" zoomAndPan="magnify" viewBox="0 0 224.87999 168.749997" height="225" preserveAspectRatio="xMidYMid meet" version="1.0"><defs><g/><clipPath id="d4fc5b9310"><path d="M 5.984375 6.179688 L 219.1875 6.179688 L 219.1875 162.5625 L 5.984375 162.5625 Z M 5.984375 6.179688 " clip-rule="nonzero"/></clipPath><clipPath id="b6d2eb755b"><path d="M 71.269531 30.691406 L 153.609375 30.691406 L 153.609375 112.894531 L 71.269531 112.894531 Z M 71.269531 30.691406 " clip-rule="nonzero"/></clipPath></defs><g clip-path="url(#d4fc5b9310)"><path fill="#ececec" d="M 5.984375 6.179688 L 219.179688 6.179688 L 219.179688 162.5625 L 5.984375 162.5625 Z M 5.984375 6.179688 " fill-opacity="1" fill-rule="nonzero"/></g><g clip-path="url(#b6d2eb755b)"><path fill="#333333" d="M 71.269531 30.691406 L 153.472656 30.691406 L 153.472656 112.894531 L 71.269531 112.894531 Z M 71.269531 30.691406 " fill-opacity="1" fill-rule="nonzero"/></g><g fill="#423e3e" fill-opacity="1"><g transform="translate(76.253367, 145.878556)"><g><path d="M 13.28125 -4.09375 C 13.28125 -3.332031 13.128906 -2.691406 12.828125 -2.171875 C 12.523438 -1.660156 12.117188 -1.242188 11.609375 -0.921875 C 11.097656 -0.597656 10.53125 -0.363281 9.90625 -0.21875 C 9.28125 -0.0703125 8.640625 0 7.984375 0 L 1.71875 0 L 1.71875 -14.859375 L 7.890625 -14.859375 C 8.691406 -14.859375 9.453125 -14.710938 10.171875 -14.421875 C 10.898438 -14.140625 11.492188 -13.707031 11.953125 -13.125 C 12.410156 -12.539062 12.640625 -11.804688 12.640625 -10.921875 C 12.640625 -10.191406 12.453125 -9.5625 12.078125 -9.03125 C 11.703125 -8.507812 11.191406 -8.085938 10.546875 -7.765625 L 10.546875 -7.71875 C 11.429688 -7.394531 12.109375 -6.957031 12.578125 -6.40625 C 13.046875 -5.851562 13.28125 -5.082031 13.28125 -4.09375 Z M 9.625 -10.453125 C 9.625 -10.867188 9.515625 -11.191406 9.296875 -11.421875 C 9.078125 -11.648438 8.800781 -11.804688 8.46875 -11.890625 C 8.144531 -11.984375 7.8125 -12.03125 7.46875 -12.03125 L 4.71875 -12.03125 L 4.71875 -8.828125 L 7.265625 -8.828125 C 7.628906 -8.828125 7.988281 -8.863281 8.34375 -8.9375 C 8.707031 -9.019531 9.007812 -9.179688 9.25 -9.421875 C 9.5 -9.660156 9.625 -10.003906 9.625 -10.453125 Z M 10.28125 -4.5 C 10.28125 -4.96875 10.15625 -5.316406 9.90625 -5.546875 C 9.664062 -5.785156 9.359375 -5.945312 8.984375 -6.03125 C 8.609375 -6.125 8.234375 -6.171875 7.859375 -6.171875 L 4.71875 -6.171875 L 4.71875 -2.84375 L 7.953125 -2.84375 C 8.316406 -2.84375 8.675781 -2.882812 9.03125 -2.96875 C 9.394531 -3.0625 9.691406 -3.226562 9.921875 -3.46875 C 10.160156 -3.707031 10.28125 -4.050781 10.28125 -4.5 Z M 10.28125 -4.5 "/></g></g></g><g fill="#423e3e" fill-opacity="1"><g transform="translate(90.36557, 145.878556)"><g><path d="M 1.71875 -14.859375 L 4.78125 -14.859375 L 4.78125 -2.921875 L 11.140625 -2.921875 L 11.140625 0 L 1.71875 0 Z M 1.71875 -14.859375 "/></g></g></g><g fill="#423e3e" fill-opacity="1"><g transform="translate(101.822248, 145.878556)"><g><path d="M 0.8125 -7.421875 C 0.8125 -8.484375 1.015625 -9.476562 1.421875 -10.40625 C 1.828125 -11.332031 2.382812 -12.144531 3.09375 -12.84375 C 3.800781 -13.550781 4.625 -14.097656 5.5625 -14.484375 C 6.507812 -14.878906 7.515625 -15.078125 8.578125 -15.078125 C 9.640625 -15.078125 10.632812 -14.882812 11.5625 -14.5 C 12.488281 -14.113281 13.300781 -13.578125 14 -12.890625 C 14.707031 -12.203125 15.253906 -11.394531 15.640625 -10.46875 C 16.035156 -9.550781 16.234375 -8.5625 16.234375 -7.5 C 16.234375 -6.414062 16.035156 -5.40625 15.640625 -4.46875 C 15.242188 -3.539062 14.6875 -2.722656 13.96875 -2.015625 C 13.257812 -1.304688 12.4375 -0.753906 11.5 -0.359375 C 10.5625 0.0351562 9.5625 0.234375 8.5 0.234375 C 7.4375 0.234375 6.4375 0.0351562 5.5 -0.359375 C 4.570312 -0.753906 3.757812 -1.296875 3.0625 -1.984375 C 2.363281 -2.679688 1.8125 -3.488281 1.40625 -4.40625 C 1.007812 -5.332031 0.8125 -6.335938 0.8125 -7.421875 Z M 3.96875 -7.4375 C 3.96875 -6.59375 4.164062 -5.8125 4.5625 -5.09375 C 4.96875 -4.375 5.519531 -3.800781 6.21875 -3.375 C 6.914062 -2.957031 7.6875 -2.75 8.53125 -2.75 C 9.394531 -2.75 10.171875 -2.957031 10.859375 -3.375 C 11.546875 -3.800781 12.09375 -4.375 12.5 -5.09375 C 12.90625 -5.8125 13.109375 -6.59375 13.109375 -7.4375 C 13.109375 -8.289062 12.90625 -9.066406 12.5 -9.765625 C 12.09375 -10.472656 11.546875 -11.039062 10.859375 -11.46875 C 10.171875 -11.894531 9.394531 -12.109375 8.53125 -12.109375 C 7.6875 -12.109375 6.914062 -11.894531 6.21875 -11.46875 C 5.519531 -11.039062 4.96875 -10.472656 4.5625 -9.765625 C 4.164062 -9.066406 3.96875 -8.289062 3.96875 -7.4375 Z M 3.96875 -7.4375 "/></g></g></g><g fill="#423e3e" fill-opacity="1"><g transform="translate(118.874499, 145.878556)"><g><path d="M 0.8125 -7.421875 C 0.8125 -8.492188 1.007812 -9.492188 1.40625 -10.421875 C 1.8125 -11.347656 2.367188 -12.160156 3.078125 -12.859375 C 3.785156 -13.554688 4.601562 -14.097656 5.53125 -14.484375 C 6.457031 -14.878906 7.453125 -15.078125 8.515625 -15.078125 C 9.492188 -15.078125 10.429688 -14.90625 11.328125 -14.5625 C 12.234375 -14.226562 13.03125 -13.734375 13.71875 -13.078125 C 14.40625 -12.429688 14.914062 -11.640625 15.25 -10.703125 L 12.4375 -9.40625 C 12.125 -10.226562 11.625 -10.878906 10.9375 -11.359375 C 10.25 -11.835938 9.4375 -12.078125 8.5 -12.078125 C 7.632812 -12.078125 6.863281 -11.867188 6.1875 -11.453125 C 5.507812 -11.035156 4.972656 -10.472656 4.578125 -9.765625 C 4.191406 -9.066406 4 -8.296875 4 -7.453125 C 4 -6.597656 4.191406 -5.816406 4.578125 -5.109375 C 4.960938 -4.398438 5.492188 -3.832031 6.171875 -3.40625 C 6.847656 -2.976562 7.625 -2.765625 8.5 -2.765625 C 9.4375 -2.765625 10.253906 -3.019531 10.953125 -3.53125 C 11.648438 -4.050781 12.160156 -4.710938 12.484375 -5.515625 L 15.3125 -4.21875 C 14.96875 -3.28125 14.441406 -2.476562 13.734375 -1.8125 C 13.023438 -1.15625 12.210938 -0.65625 11.296875 -0.3125 C 10.378906 0.03125 9.429688 0.203125 8.453125 0.203125 C 7.378906 0.203125 6.378906 0.0078125 5.453125 -0.375 C 4.523438 -0.757812 3.710938 -1.296875 3.015625 -1.984375 C 2.316406 -2.671875 1.773438 -3.476562 1.390625 -4.40625 C 1.003906 -5.332031 0.8125 -6.335938 0.8125 -7.421875 Z M 0.8125 -7.421875 "/></g></g></g><g fill="#423e3e" fill-opacity="1"><g transform="translate(134.65589, 145.878556)"><g><path d="M 4.78125 0 L 1.71875 0 L 1.71875 -14.859375 L 4.78125 -14.859375 L 4.78125 -8.390625 L 9.875 -14.859375 L 13.71875 -14.859375 L 8.046875 -7.765625 L 14.09375 0 L 10.125 0 L 4.78125 -7.0625 Z M 4.78125 0 "/></g></g></g></svg>