<svg xmlns="http://www.w3.org/2000/svg" xmlns:xlink="http://www.w3.org/1999/xlink" width="61" zoomAndPan="magnify" viewBox="0 0 46.079998 37.92" height="40" preserveAspectRatio="xMidYMid meet" version="1.2"><defs><clipPath id="743cacaa64"><path d="M 2.46875 1.089844 L 42.382812 1.089844 L 42.382812 16.921875 L 2.46875 16.921875 Z M 2.46875 1.089844 "/></clipPath><clipPath id="585749fc4a"><path d="M 2.46875 1.089844 L 42.175781 1.089844 L 42.175781 16.84375 L 2.46875 16.84375 Z M 2.46875 1.089844 "/></clipPath><clipPath id="c847ecb5cd"><path d="M 8 17 L 19 17 L 19 28 L 8 28 Z M 8 17 "/></clipPath><clipPath id="185a6a9432"><path d="M 14.039062 14.109375 L 22.4375 20.101562 L 17.203125 27.4375 L 8.804688 21.449219 Z M 14.039062 14.109375 "/></clipPath><clipPath id="17b4c0f60b"><path d="M 18.230469 17.101562 L 17.191406 27.429688 L 8.804688 21.449219 Z M 18.230469 17.101562 "/></clipPath><clipPath id="b595bdbb86"><path d="M 8 22 L 16 22 L 16 29 L 8 29 Z M 8 22 "/></clipPath><clipPath id="2db741b964"><path d="M 12.09375 22.371094 L 15.226562 24.871094 L 11.9375 28.988281 L 8.804688 26.484375 Z M 12.09375 22.371094 "/></clipPath></defs><g id="ddb7c2c999"><g clip-rule="nonzero" clip-path="url(#743cacaa64)"><path style=" stroke:none;fill-rule:nonzero;fill:#bab8b7;fill-opacity:1;" d="M 2.46875 1.089844 L 42.367188 1.089844 L 42.367188 16.921875 L 2.46875 16.921875 Z M 2.46875 1.089844 "/></g><g clip-rule="nonzero" clip-path="url(#585749fc4a)"><path style="fill:none;stroke-width:4;stroke-linecap:butt;stroke-linejoin:miter;stroke:#585958;stroke-opacity:1;stroke-miterlimit:4;" d="M -0.00212852 0.00120362 L 54.263223 0.00120362 L 54.263223 21.531175 L -0.00212852 21.531175 Z M -0.00212852 0.00120362 " transform="matrix(0.73172,0,0,0.73172,2.470307,1.088963)"/></g><g clip-rule="nonzero" clip-path="url(#c847ecb5cd)"><g clip-rule="nonzero" clip-path="url(#185a6a9432)"><g clip-rule="nonzero" clip-path="url(#17b4c0f60b)"><path style=" stroke:none;fill-rule:nonzero;fill:#585958;fill-opacity:1;" d="M 14.039062 14.109375 L 22.4375 20.101562 L 17.203125 27.4375 L 8.804688 21.449219 Z M 14.039062 14.109375 "/></g></g></g><g clip-rule="nonzero" clip-path="url(#b595bdbb86)"><g clip-rule="nonzero" clip-path="url(#2db741b964)"><path style=" stroke:none;fill-rule:nonzero;fill:#585958;fill-opacity:1;" d="M 12.09375 22.371094 L 15.226562 24.871094 L 11.941406 28.984375 L 8.808594 26.480469 Z M 12.09375 22.371094 "/></g></g></g></svg>