<svg xmlns="http://www.w3.org/2000/svg" xmlns:xlink="http://www.w3.org/1999/xlink" width="61" zoomAndPan="magnify" viewBox="0 0 45.75 30.000001" height="40" preserveAspectRatio="xMidYMid meet" version="1.2"><defs><clipPath id="c23249fb5e"><path d="M 0.617188 0 L 44.890625 0 L 44.890625 29.03125 L 0.617188 29.03125 Z M 0.617188 0 "/></clipPath><clipPath id="e9af36bb3d"><path d="M 3.289062 1.042969 L 42.15625 1.042969 L 42.15625 27.976562 L 3.289062 27.976562 Z M 3.289062 1.042969 "/></clipPath><clipPath id="306085253b"><path d="M 8.300781 6.605469 L 17.527344 6.605469 L 17.527344 11.023438 L 8.300781 11.023438 Z M 8.300781 6.605469 "/></clipPath><clipPath id="91a8abf57f"><path d="M 18.207031 6.605469 L 27.433594 6.605469 L 27.433594 11.023438 L 18.207031 11.023438 Z M 18.207031 6.605469 "/></clipPath><clipPath id="7869636087"><path d="M 28.179688 6.605469 L 37.40625 6.605469 L 37.40625 11.023438 L 28.179688 11.023438 Z M 28.179688 6.605469 "/></clipPath><clipPath id="9e519c530c"><path d="M 8.300781 12.308594 L 17.527344 12.308594 L 17.527344 16.726562 L 8.300781 16.726562 Z M 8.300781 12.308594 "/></clipPath><clipPath id="2789b385ac"><path d="M 18.207031 12.308594 L 27.433594 12.308594 L 27.433594 16.726562 L 18.207031 16.726562 Z M 18.207031 12.308594 "/></clipPath><clipPath id="888316232a"><path d="M 28.179688 12.308594 L 37.40625 12.308594 L 37.40625 16.726562 L 28.179688 16.726562 Z M 28.179688 12.308594 "/></clipPath><clipPath id="d361c11f07"><path d="M 8.550781 20.132812 L 11.539062 20.132812 L 11.539062 23.035156 L 8.550781 23.035156 Z M 8.550781 20.132812 "/></clipPath><clipPath id="25f32bb6d9"><path d="M 13.753906 20.132812 L 16.742188 20.132812 L 16.742188 23.035156 L 13.753906 23.035156 Z M 13.753906 20.132812 "/></clipPath><clipPath id="ca2aef11a9"><path d="M 18.972656 20.132812 L 21.957031 20.132812 L 21.957031 23.035156 L 18.972656 23.035156 Z M 18.972656 20.132812 "/></clipPath><clipPath id="8f52fba05f"><path d="M 23.984375 20.132812 L 26.96875 20.132812 L 26.96875 23.035156 L 23.984375 23.035156 Z M 23.984375 20.132812 "/></clipPath><clipPath id="38bcbce342"><path d="M 29.203125 20.132812 L 32.1875 20.132812 L 32.1875 23.035156 L 29.203125 23.035156 Z M 29.203125 20.132812 "/></clipPath><clipPath id="9375dfe594"><path d="M 34.417969 20.132812 L 37.40625 20.132812 L 37.40625 23.035156 L 34.417969 23.035156 Z M 34.417969 20.132812 "/></clipPath></defs><g id="1bc9cb4d8f"><g clip-rule="nonzero" clip-path="url(#c23249fb5e)"><path style=" stroke:none;fill-rule:nonzero;fill:#ffffff;fill-opacity:1;" d="M 0.617188 0 L 44.890625 0 L 44.890625 29.03125 L 0.617188 29.03125 Z M 0.617188 0 "/><path style=" stroke:none;fill-rule:nonzero;fill:#ffffff;fill-opacity:1;" d="M 0.617188 0 L 44.890625 0 L 44.890625 29.03125 L 0.617188 29.03125 Z M 0.617188 0 "/></g><g clip-rule="nonzero" clip-path="url(#e9af36bb3d)"><path style="fill:none;stroke-width:23.418337;stroke-linecap:butt;stroke-linejoin:miter;stroke:#423e3e;stroke-opacity:1;stroke-miterlimit:4;" d="M -0.00615696 0.00788596 L 209.097612 0.00788596 L 209.097612 144.909442 L -0.00615696 144.909442 Z M -0.00615696 0.00788596 " transform="matrix(0.185875,0,0,0.185875,3.290207,1.041503)"/></g><g clip-rule="nonzero" clip-path="url(#306085253b)"><path style=" stroke:none;fill-rule:nonzero;fill:#bebebe;fill-opacity:1;" d="M 8.300781 6.605469 L 17.53125 6.605469 L 17.53125 11.023438 L 8.300781 11.023438 Z M 8.300781 6.605469 "/></g><g clip-rule="nonzero" clip-path="url(#91a8abf57f)"><path style=" stroke:none;fill-rule:nonzero;fill:#423e3e;fill-opacity:1;" d="M 18.207031 6.605469 L 27.441406 6.605469 L 27.441406 11.023438 L 18.207031 11.023438 Z M 18.207031 6.605469 "/></g><g clip-rule="nonzero" clip-path="url(#7869636087)"><path style=" stroke:none;fill-rule:nonzero;fill:#bebebe;fill-opacity:1;" d="M 28.179688 6.605469 L 37.410156 6.605469 L 37.410156 11.023438 L 28.179688 11.023438 Z M 28.179688 6.605469 "/></g><g clip-rule="nonzero" clip-path="url(#9e519c530c)"><path style=" stroke:none;fill-rule:nonzero;fill:#423e3e;fill-opacity:1;" d="M 8.300781 12.308594 L 17.53125 12.308594 L 17.53125 16.726562 L 8.300781 16.726562 Z M 8.300781 12.308594 "/></g><g clip-rule="nonzero" clip-path="url(#2789b385ac)"><path style=" stroke:none;fill-rule:nonzero;fill:#bebebe;fill-opacity:1;" d="M 18.207031 12.308594 L 27.441406 12.308594 L 27.441406 16.726562 L 18.207031 16.726562 Z M 18.207031 12.308594 "/></g><g clip-rule="nonzero" clip-path="url(#888316232a)"><path style=" stroke:none;fill-rule:nonzero;fill:#423e3e;fill-opacity:1;" d="M 28.179688 12.308594 L 37.410156 12.308594 L 37.410156 16.726562 L 28.179688 16.726562 Z M 28.179688 12.308594 "/></g><g clip-rule="nonzero" clip-path="url(#d361c11f07)"><path style=" stroke:none;fill-rule:nonzero;fill:#bebebe;fill-opacity:1;" d="M 8.550781 20.132812 L 11.535156 20.132812 L 11.535156 23.035156 L 8.550781 23.035156 Z M 8.550781 20.132812 "/></g><g clip-rule="nonzero" clip-path="url(#25f32bb6d9)"><path style=" stroke:none;fill-rule:nonzero;fill:#423e3e;fill-opacity:1;" d="M 13.753906 20.132812 L 16.738281 20.132812 L 16.738281 23.035156 L 13.753906 23.035156 Z M 13.753906 20.132812 "/></g><g clip-rule="nonzero" clip-path="url(#ca2aef11a9)"><path style=" stroke:none;fill-rule:nonzero;fill:#bebebe;fill-opacity:1;" d="M 18.972656 20.132812 L 21.953125 20.132812 L 21.953125 23.035156 L 18.972656 23.035156 Z M 18.972656 20.132812 "/></g><g clip-rule="nonzero" clip-path="url(#8f52fba05f)"><path style=" stroke:none;fill-rule:nonzero;fill:#bebebe;fill-opacity:1;" d="M 23.984375 20.132812 L 26.964844 20.132812 L 26.964844 23.035156 L 23.984375 23.035156 Z M 23.984375 20.132812 "/></g><g clip-rule="nonzero" clip-path="url(#38bcbce342)"><path style=" stroke:none;fill-rule:nonzero;fill:#bebebe;fill-opacity:1;" d="M 29.203125 20.132812 L 32.183594 20.132812 L 32.183594 23.035156 L 29.203125 23.035156 Z M 29.203125 20.132812 "/></g><g clip-rule="nonzero" clip-path="url(#9375dfe594)"><path style=" stroke:none;fill-rule:nonzero;fill:#bebebe;fill-opacity:1;" d="M 34.417969 20.132812 L 37.402344 20.132812 L 37.402344 23.035156 L 34.417969 23.035156 Z M 34.417969 20.132812 "/></g></g></svg>