<svg xmlns="http://www.w3.org/2000/svg" xmlns:xlink="http://www.w3.org/1999/xlink" width="275" zoomAndPan="magnify" viewBox="0 0 206.25 187.499992" height="250" preserveAspectRatio="xMidYMid meet" version="1.0"><defs><g/><clipPath id="15b0ea087f"><path d="M 6.664062 6.203125 L 198.839844 6.203125 L 198.839844 145.292969 L 6.664062 145.292969 Z M 6.664062 6.203125 " clip-rule="nonzero"/></clipPath><clipPath id="6db726dde8"><path d="M 24.625 18.773438 L 180.804688 18.773438 L 180.804688 127.070312 L 24.625 127.070312 Z M 24.625 18.773438 " clip-rule="nonzero"/></clipPath><clipPath id="4aba22b59f"><path d="M 44.757812 41.140625 L 81.835938 41.140625 L 81.835938 58.890625 L 44.757812 58.890625 Z M 44.757812 41.140625 " clip-rule="nonzero"/></clipPath><clipPath id="6d17a61d46"><path d="M 84.570312 41.140625 L 121.648438 41.140625 L 121.648438 58.890625 L 84.570312 58.890625 Z M 84.570312 41.140625 " clip-rule="nonzero"/></clipPath><clipPath id="d7763e1a05"><path d="M 124.636719 41.140625 L 161.714844 41.140625 L 161.714844 58.890625 L 124.636719 58.890625 Z M 124.636719 41.140625 " clip-rule="nonzero"/></clipPath><clipPath id="944cd20fad"><path d="M 44.757812 64.046875 L 81.835938 64.046875 L 81.835938 81.796875 L 44.757812 81.796875 Z M 44.757812 64.046875 " clip-rule="nonzero"/></clipPath><clipPath id="02354ffc2f"><path d="M 84.570312 64.046875 L 121.648438 64.046875 L 121.648438 81.796875 L 84.570312 81.796875 Z M 84.570312 64.046875 " clip-rule="nonzero"/></clipPath><clipPath id="621d059b63"><path d="M 124.636719 64.046875 L 161.714844 64.046875 L 161.714844 81.796875 L 124.636719 81.796875 Z M 124.636719 64.046875 " clip-rule="nonzero"/></clipPath><clipPath id="ecc6466e47"><path d="M 45.769531 95.496094 L 57.769531 95.496094 L 57.769531 107.164062 L 45.769531 107.164062 Z M 45.769531 95.496094 " clip-rule="nonzero"/></clipPath><clipPath id="392296d5ce"><path d="M 66.675781 95.496094 L 78.671875 95.496094 L 78.671875 107.164062 L 66.675781 107.164062 Z M 66.675781 95.496094 " clip-rule="nonzero"/></clipPath><clipPath id="64ab45ce28"><path d="M 87.640625 95.496094 L 99.640625 95.496094 L 99.640625 107.164062 L 87.640625 107.164062 Z M 87.640625 95.496094 " clip-rule="nonzero"/></clipPath><clipPath id="845ea7f23e"><path d="M 107.78125 95.496094 L 119.78125 95.496094 L 119.78125 107.164062 L 107.78125 107.164062 Z M 107.78125 95.496094 " clip-rule="nonzero"/></clipPath><clipPath id="476ca83982"><path d="M 128.75 95.496094 L 140.75 95.496094 L 140.75 107.164062 L 128.75 107.164062 Z M 128.75 95.496094 " clip-rule="nonzero"/></clipPath><clipPath id="95cde4af14"><path d="M 149.714844 95.496094 L 161.714844 95.496094 L 161.714844 107.164062 L 149.714844 107.164062 Z M 149.714844 95.496094 " clip-rule="nonzero"/></clipPath><clipPath id="b84e7a4bb8"><path d="M 12.59375 151.675781 L 193.203125 151.675781 L 193.203125 179.699219 L 12.59375 179.699219 Z M 12.59375 151.675781 " clip-rule="nonzero"/></clipPath></defs><g clip-path="url(#15b0ea087f)"><path fill="#ececec" d="M 6.664062 6.203125 L 198.839844 6.203125 L 198.839844 145.292969 L 6.664062 145.292969 Z M 6.664062 6.203125 " fill-opacity="1" fill-rule="nonzero"/></g><g clip-path="url(#6db726dde8)"><path stroke-linecap="butt" transform="matrix(0.747283, 0, 0, 0.747283, 24.623103, 18.773598)" fill="none" stroke-linejoin="miter" d="M 0.00253825 -0.0002146 L 209.093456 -0.0002146 L 209.093456 144.920701 L 0.00253825 144.920701 Z M 0.00253825 -0.0002146 " stroke="#423e3e" stroke-width="10" stroke-opacity="1" stroke-miterlimit="4"/></g><g clip-path="url(#4aba22b59f)"><path fill="#bebebe" d="M 44.757812 41.140625 L 81.835938 41.140625 L 81.835938 58.890625 L 44.757812 58.890625 Z M 44.757812 41.140625 " fill-opacity="1" fill-rule="nonzero"/></g><g clip-path="url(#6d17a61d46)"><path fill="#423e3e" d="M 84.570312 41.140625 L 121.648438 41.140625 L 121.648438 58.890625 L 84.570312 58.890625 Z M 84.570312 41.140625 " fill-opacity="1" fill-rule="nonzero"/></g><g clip-path="url(#d7763e1a05)"><path fill="#bebebe" d="M 124.636719 41.140625 L 161.714844 41.140625 L 161.714844 58.890625 L 124.636719 58.890625 Z M 124.636719 41.140625 " fill-opacity="1" fill-rule="nonzero"/></g><g clip-path="url(#944cd20fad)"><path fill="#423e3e" d="M 44.757812 64.046875 L 81.835938 64.046875 L 81.835938 81.796875 L 44.757812 81.796875 Z M 44.757812 64.046875 " fill-opacity="1" fill-rule="nonzero"/></g><g clip-path="url(#02354ffc2f)"><path fill="#bebebe" d="M 84.570312 64.046875 L 121.648438 64.046875 L 121.648438 81.796875 L 84.570312 81.796875 Z M 84.570312 64.046875 " fill-opacity="1" fill-rule="nonzero"/></g><g clip-path="url(#621d059b63)"><path fill="#423e3e" d="M 124.636719 64.046875 L 161.714844 64.046875 L 161.714844 81.796875 L 124.636719 81.796875 Z M 124.636719 64.046875 " fill-opacity="1" fill-rule="nonzero"/></g><g clip-path="url(#ecc6466e47)"><path fill="#bebebe" d="M 45.769531 95.496094 L 57.769531 95.496094 L 57.769531 107.164062 L 45.769531 107.164062 Z M 45.769531 95.496094 " fill-opacity="1" fill-rule="nonzero"/></g><g clip-path="url(#392296d5ce)"><path fill="#423e3e" d="M 66.675781 95.496094 L 78.671875 95.496094 L 78.671875 107.164062 L 66.675781 107.164062 Z M 66.675781 95.496094 " fill-opacity="1" fill-rule="nonzero"/></g><g clip-path="url(#64ab45ce28)"><path fill="#bebebe" d="M 87.640625 95.496094 L 99.640625 95.496094 L 99.640625 107.164062 L 87.640625 107.164062 Z M 87.640625 95.496094 " fill-opacity="1" fill-rule="nonzero"/></g><g clip-path="url(#845ea7f23e)"><path fill="#bebebe" d="M 107.78125 95.496094 L 119.78125 95.496094 L 119.78125 107.164062 L 107.78125 107.164062 Z M 107.78125 95.496094 " fill-opacity="1" fill-rule="nonzero"/></g><g clip-path="url(#476ca83982)"><path fill="#bebebe" d="M 128.75 95.496094 L 140.75 95.496094 L 140.75 107.164062 L 128.75 107.164062 Z M 128.75 95.496094 " fill-opacity="1" fill-rule="nonzero"/></g><g clip-path="url(#95cde4af14)"><path fill="#bebebe" d="M 149.714844 95.496094 L 161.714844 95.496094 L 161.714844 107.164062 L 149.714844 107.164062 Z M 149.714844 95.496094 " fill-opacity="1" fill-rule="nonzero"/></g><g clip-path="url(#b84e7a4bb8)"><path fill="#ffffff" d="M 12.59375 151.675781 L 193.203125 151.675781 L 193.203125 179.699219 L 12.59375 179.699219 Z M 12.59375 151.675781 " fill-opacity="1" fill-rule="nonzero"/></g><g fill="#423e3e" fill-opacity="1"><g transform="translate(17.869393, 172.787288)"><g><path d="M 13.945312 -4.304688 C 13.945312 -6.375 12.929688 -7.410156 11.078125 -8.109375 L 11.078125 -8.148438 C 12.433594 -8.84375 13.269531 -9.921875 13.269531 -11.476562 C 13.269531 -14.265625 10.796875 -15.597656 8.289062 -15.597656 L 1.8125 -15.597656 L 1.8125 0 L 8.386719 0 C 11.136719 0 13.945312 -1.136719 13.945312 -4.304688 Z M 10.101562 -10.976562 C 10.101562 -9.5625 8.765625 -9.265625 7.628906 -9.265625 L 4.960938 -9.265625 L 4.960938 -12.632812 L 7.847656 -12.632812 C 8.925781 -12.632812 10.101562 -12.273438 10.101562 -10.976562 Z M 10.796875 -4.722656 C 10.796875 -3.328125 9.503906 -2.988281 8.347656 -2.988281 L 4.960938 -2.988281 L 4.960938 -6.476562 L 8.246094 -6.476562 C 9.441406 -6.476562 10.796875 -6.175781 10.796875 -4.722656 Z M 10.796875 -4.722656 "/></g></g></g><g fill="#423e3e" fill-opacity="1"><g transform="translate(32.689638, 172.787288)"><g><path d="M 14.183594 -6.296875 L 14.183594 -15.597656 L 10.996094 -15.597656 L 10.996094 -6.175781 C 10.996094 -4.203125 9.902344 -2.890625 7.910156 -2.890625 C 6.214844 -2.890625 4.882812 -3.945312 4.882812 -6.253906 L 4.902344 -15.597656 L 1.652344 -15.597656 L 1.652344 -6.175781 C 1.652344 -2.410156 3.566406 0.21875 7.890625 0.21875 C 12.113281 0.21875 14.183594 -2.3125 14.183594 -6.296875 Z M 14.183594 -6.296875 "/></g></g></g><g fill="#423e3e" fill-opacity="1"><g transform="translate(48.525778, 172.787288)"><g><path d="M 5.101562 0 L 8.308594 0 L 8.308594 -12.472656 L 12.988281 -12.472656 L 12.988281 -15.597656 L 0.417969 -15.597656 L 0.417969 -12.472656 L 5.101562 -12.472656 Z M 5.101562 0 "/></g></g></g><g fill="#423e3e" fill-opacity="1"><g transform="translate(61.931721, 172.787288)"><g><path d="M 5.101562 0 L 8.308594 0 L 8.308594 -12.472656 L 12.988281 -12.472656 L 12.988281 -15.597656 L 0.417969 -15.597656 L 0.417969 -12.472656 L 5.101562 -12.472656 Z M 5.101562 0 "/></g></g></g><g fill="#423e3e" fill-opacity="1"><g transform="translate(75.337664, 172.787288)"><g><path d="M 0.855469 -7.789062 C 0.855469 -3.289062 4.441406 0.238281 8.925781 0.238281 C 13.40625 0.238281 17.054688 -3.328125 17.054688 -7.871094 C 17.054688 -12.351562 13.488281 -15.839844 9.003906 -15.839844 C 4.523438 -15.839844 0.855469 -12.273438 0.855469 -7.789062 Z M 4.164062 -7.808594 C 4.164062 -10.5 6.277344 -12.710938 8.964844 -12.710938 C 11.65625 -12.710938 13.765625 -10.5 13.765625 -7.808594 C 13.765625 -5.121094 11.65625 -2.890625 8.964844 -2.890625 C 6.277344 -2.890625 4.164062 -5.121094 4.164062 -7.808594 Z M 4.164062 -7.808594 "/></g></g></g><g fill="#423e3e" fill-opacity="1"><g transform="translate(93.245456, 172.787288)"><g><path d="M 5 -10.757812 L 12.171875 0 L 15.460938 0 L 15.460938 -15.597656 L 12.273438 -15.597656 L 12.273438 -5.417969 L 5.5 -15.597656 L 1.8125 -15.597656 L 1.8125 0 L 5 0 Z M 5 -10.757812 "/></g></g></g><g fill="#423e3e" fill-opacity="1"><g transform="translate(110.535738, 172.787288)"><g/></g></g><g fill="#423e3e" fill-opacity="1"><g transform="translate(115.535574, 172.787288)"><g><path d="M 13.1875 -10.597656 C 13.1875 -13.90625 10.738281 -15.597656 7.609375 -15.597656 L 1.8125 -15.597656 L 1.8125 0 L 5.039062 0 L 5.039062 -5.5 L 7.492188 -5.5 C 10.757812 -5.5 13.1875 -7.152344 13.1875 -10.597656 Z M 9.941406 -10.519531 C 9.941406 -9.066406 8.625 -8.507812 7.351562 -8.507812 L 5.039062 -8.507812 L 5.039062 -12.550781 L 7.332031 -12.550781 C 8.667969 -12.550781 9.941406 -12.035156 9.941406 -10.519531 Z M 9.941406 -10.519531 "/></g></g></g><g fill="#423e3e" fill-opacity="1"><g transform="translate(129.319993, 172.787288)"><g><path d="M 3.226562 0 L 4.382812 -3.148438 L 11.296875 -3.148438 L 12.472656 0 L 15.796875 0 L 9.820312 -15.597656 L 5.9375 -15.597656 L -0.0195312 0 Z M 7.847656 -12.472656 L 10.199219 -6.136719 L 5.5 -6.136719 Z M 7.847656 -12.472656 "/></g></g></g><g fill="#423e3e" fill-opacity="1"><g transform="translate(145.096383, 172.787288)"><g><path d="M 5 -10.757812 L 12.171875 0 L 15.460938 0 L 15.460938 -15.597656 L 12.273438 -15.597656 L 12.273438 -5.417969 L 5.5 -15.597656 L 1.8125 -15.597656 L 1.8125 0 L 5 0 Z M 5 -10.757812 "/></g></g></g><g fill="#423e3e" fill-opacity="1"><g transform="translate(162.386666, 172.787288)"><g><path d="M 1.8125 -15.597656 L 1.8125 0 L 12.074219 0 L 12.074219 -3.007812 L 5 -3.007812 L 5 -6.375 L 11.296875 -6.375 L 11.296875 -9.402344 L 5 -9.402344 L 5 -12.570312 L 12.035156 -12.570312 L 12.035156 -15.597656 Z M 1.8125 -15.597656 "/></g></g></g><g fill="#423e3e" fill-opacity="1"><g transform="translate(175.593417, 172.787288)"><g><path d="M 1.8125 -15.597656 L 1.8125 0 L 11.695312 0 L 11.695312 -3.066406 L 5.019531 -3.066406 L 5.019531 -15.597656 Z M 1.8125 -15.597656 "/></g></g></g></svg>