<svg xmlns="http://www.w3.org/2000/svg" xmlns:xlink="http://www.w3.org/1999/xlink" width="300" zoomAndPan="magnify" viewBox="0 0 224.87999 168.749997" height="225" preserveAspectRatio="xMidYMid meet" version="1.0"><defs><g/><clipPath id="b0549a6fec"><path d="M 5.984375 6.179688 L 219.1875 6.179688 L 219.1875 162.5625 L 5.984375 162.5625 Z M 5.984375 6.179688 " clip-rule="nonzero"/></clipPath><clipPath id="82fd218a35"><path d="M 56.832031 36.152344 L 168.046875 36.152344 L 168.046875 80.277344 L 56.832031 80.277344 Z M 56.832031 36.152344 " clip-rule="nonzero"/></clipPath><clipPath id="bab2b047d2"><path d="M 56.832031 36.152344 L 168.046875 36.152344 L 168.046875 80.144531 L 56.832031 80.144531 Z M 56.832031 36.152344 " clip-rule="nonzero"/></clipPath><clipPath id="1fb977196f"><path d="M 74 80 L 101 80 L 101 110 L 74 110 Z M 74 80 " clip-rule="nonzero"/></clipPath><clipPath id="0d376349da"><path d="M 89.066406 72.433594 L 112.472656 89.125 L 97.890625 109.574219 L 74.484375 92.882812 Z M 89.066406 72.433594 " clip-rule="nonzero"/></clipPath><clipPath id="e8a882d231"><path d="M 100.753906 80.765625 L 97.855469 109.546875 L 74.484375 92.882812 Z M 100.753906 80.765625 " clip-rule="nonzero"/></clipPath><clipPath id="74e7397f64"><path d="M 74 95 L 93 95 L 93 114 L 74 114 Z M 74 95 " clip-rule="nonzero"/></clipPath><clipPath id="887a0e2d6d"><path d="M 83.648438 95.449219 L 92.378906 102.425781 L 83.21875 113.890625 L 74.488281 106.917969 Z M 83.648438 95.449219 " clip-rule="nonzero"/></clipPath></defs><g clip-path="url(#b0549a6fec)"><path fill="#ececec" d="M 5.984375 6.179688 L 219.179688 6.179688 L 219.179688 162.5625 L 5.984375 162.5625 Z M 5.984375 6.179688 " fill-opacity="1" fill-rule="nonzero"/></g><g fill="#423e3e" fill-opacity="1"><g transform="translate(68.321522, 145.878556)"><g><path d="M 13.28125 -4.09375 C 13.28125 -3.332031 13.128906 -2.691406 12.828125 -2.171875 C 12.523438 -1.660156 12.117188 -1.242188 11.609375 -0.921875 C 11.097656 -0.597656 10.53125 -0.363281 9.90625 -0.21875 C 9.28125 -0.0703125 8.640625 0 7.984375 0 L 1.71875 0 L 1.71875 -14.859375 L 7.890625 -14.859375 C 8.691406 -14.859375 9.453125 -14.710938 10.171875 -14.421875 C 10.898438 -14.140625 11.492188 -13.707031 11.953125 -13.125 C 12.410156 -12.539062 12.640625 -11.804688 12.640625 -10.921875 C 12.640625 -10.191406 12.453125 -9.5625 12.078125 -9.03125 C 11.703125 -8.507812 11.191406 -8.085938 10.546875 -7.765625 L 10.546875 -7.71875 C 11.429688 -7.394531 12.109375 -6.957031 12.578125 -6.40625 C 13.046875 -5.851562 13.28125 -5.082031 13.28125 -4.09375 Z M 9.625 -10.453125 C 9.625 -10.867188 9.515625 -11.191406 9.296875 -11.421875 C 9.078125 -11.648438 8.800781 -11.804688 8.46875 -11.890625 C 8.144531 -11.984375 7.8125 -12.03125 7.46875 -12.03125 L 4.71875 -12.03125 L 4.71875 -8.828125 L 7.265625 -8.828125 C 7.628906 -8.828125 7.988281 -8.863281 8.34375 -8.9375 C 8.707031 -9.019531 9.007812 -9.179688 9.25 -9.421875 C 9.5 -9.660156 9.625 -10.003906 9.625 -10.453125 Z M 10.28125 -4.5 C 10.28125 -4.96875 10.15625 -5.316406 9.90625 -5.546875 C 9.664062 -5.785156 9.359375 -5.945312 8.984375 -6.03125 C 8.609375 -6.125 8.234375 -6.171875 7.859375 -6.171875 L 4.71875 -6.171875 L 4.71875 -2.84375 L 7.953125 -2.84375 C 8.316406 -2.84375 8.675781 -2.882812 9.03125 -2.96875 C 9.394531 -3.0625 9.691406 -3.226562 9.921875 -3.46875 C 10.160156 -3.707031 10.28125 -4.050781 10.28125 -4.5 Z M 10.28125 -4.5 "/></g></g></g><g fill="#423e3e" fill-opacity="1"><g transform="translate(82.433724, 145.878556)"><g><path d="M 13.5 -6 C 13.5 -4.726562 13.273438 -3.628906 12.828125 -2.703125 C 12.390625 -1.773438 11.726562 -1.054688 10.84375 -0.546875 C 9.957031 -0.046875 8.847656 0.203125 7.515625 0.203125 C 6.148438 0.203125 5.023438 -0.0507812 4.140625 -0.5625 C 3.265625 -1.082031 2.617188 -1.800781 2.203125 -2.71875 C 1.785156 -3.632812 1.578125 -4.6875 1.578125 -5.875 L 1.578125 -14.859375 L 4.671875 -14.859375 L 4.640625 -5.953125 C 4.640625 -4.859375 4.914062 -4.050781 5.46875 -3.53125 C 6.03125 -3.007812 6.71875 -2.75 7.53125 -2.75 C 8.476562 -2.75 9.203125 -3.035156 9.703125 -3.609375 C 10.210938 -4.191406 10.46875 -4.945312 10.46875 -5.875 L 10.46875 -14.859375 L 13.5 -14.859375 Z M 13.5 -6 "/></g></g></g><g fill="#423e3e" fill-opacity="1"><g transform="translate(97.513293, 145.878556)"><g><path d="M 4.859375 0 L 4.859375 -11.875 L 0.390625 -11.875 L 0.390625 -14.859375 L 12.375 -14.859375 L 12.375 -11.875 L 7.90625 -11.875 L 7.90625 0 Z M 4.859375 0 "/></g></g></g><g fill="#423e3e" fill-opacity="1"><g transform="translate(110.27877, 145.878556)"><g><path d="M 4.859375 0 L 4.859375 -11.875 L 0.390625 -11.875 L 0.390625 -14.859375 L 12.375 -14.859375 L 12.375 -11.875 L 7.90625 -11.875 L 7.90625 0 Z M 4.859375 0 "/></g></g></g><g fill="#423e3e" fill-opacity="1"><g transform="translate(123.044247, 145.878556)"><g><path d="M 0.8125 -7.421875 C 0.8125 -8.484375 1.015625 -9.476562 1.421875 -10.40625 C 1.828125 -11.332031 2.382812 -12.144531 3.09375 -12.84375 C 3.800781 -13.550781 4.625 -14.097656 5.5625 -14.484375 C 6.507812 -14.878906 7.515625 -15.078125 8.578125 -15.078125 C 9.640625 -15.078125 10.632812 -14.882812 11.5625 -14.5 C 12.488281 -14.113281 13.300781 -13.578125 14 -12.890625 C 14.707031 -12.203125 15.253906 -11.394531 15.640625 -10.46875 C 16.035156 -9.550781 16.234375 -8.5625 16.234375 -7.5 C 16.234375 -6.414062 16.035156 -5.40625 15.640625 -4.46875 C 15.242188 -3.539062 14.6875 -2.722656 13.96875 -2.015625 C 13.257812 -1.304688 12.4375 -0.753906 11.5 -0.359375 C 10.5625 0.0351562 9.5625 0.234375 8.5 0.234375 C 7.4375 0.234375 6.4375 0.0351562 5.5 -0.359375 C 4.570312 -0.753906 3.757812 -1.296875 3.0625 -1.984375 C 2.363281 -2.679688 1.8125 -3.488281 1.40625 -4.40625 C 1.007812 -5.332031 0.8125 -6.335938 0.8125 -7.421875 Z M 3.96875 -7.4375 C 3.96875 -6.59375 4.164062 -5.8125 4.5625 -5.09375 C 4.96875 -4.375 5.519531 -3.800781 6.21875 -3.375 C 6.914062 -2.957031 7.6875 -2.75 8.53125 -2.75 C 9.394531 -2.75 10.171875 -2.957031 10.859375 -3.375 C 11.546875 -3.800781 12.09375 -4.375 12.5 -5.09375 C 12.90625 -5.8125 13.109375 -6.59375 13.109375 -7.4375 C 13.109375 -8.289062 12.90625 -9.066406 12.5 -9.765625 C 12.09375 -10.472656 11.546875 -11.039062 10.859375 -11.46875 C 10.171875 -11.894531 9.394531 -12.109375 8.53125 -12.109375 C 7.6875 -12.109375 6.914062 -11.894531 6.21875 -11.46875 C 5.519531 -11.039062 4.96875 -10.472656 4.5625 -9.765625 C 4.164062 -9.066406 3.96875 -8.289062 3.96875 -7.4375 Z M 3.96875 -7.4375 "/></g></g></g><g fill="#423e3e" fill-opacity="1"><g transform="translate(140.096499, 145.878556)"><g><path d="M 4.765625 -10.25 L 4.765625 0 L 1.71875 0 L 1.71875 -14.859375 L 5.234375 -14.859375 L 11.6875 -5.15625 L 11.6875 -14.859375 L 14.71875 -14.859375 L 14.71875 0 L 11.59375 0 Z M 4.765625 -10.25 "/></g></g></g><g clip-path="url(#82fd218a35)"><path fill="#a6a6a6" d="M 56.832031 36.152344 L 168.003906 36.152344 L 168.003906 80.277344 L 56.832031 80.277344 Z M 56.832031 36.152344 " fill-opacity="1" fill-rule="nonzero"/></g><g clip-path="url(#bab2b047d2)"><path stroke-linecap="butt" transform="matrix(0.494287, 0, 0, 0.494287, 56.833295, 36.152509)" fill="none" stroke-linejoin="miter" d="M -0.00255641 -0.000334258 L 224.997894 -0.000334258 L 224.997894 89.261725 L -0.00255641 89.261725 Z M -0.00255641 -0.000334258 " stroke="#423e3e" stroke-width="12.120735" stroke-opacity="1" stroke-miterlimit="4"/></g><g clip-path="url(#1fb977196f)"><g clip-path="url(#0d376349da)"><g clip-path="url(#e8a882d231)"><path fill="#423e3e" d="M 89.066406 72.433594 L 112.472656 89.125 L 97.890625 109.574219 L 74.484375 92.882812 Z M 89.066406 72.433594 " fill-opacity="1" fill-rule="nonzero"/></g></g></g><g clip-path="url(#74e7397f64)"><g clip-path="url(#887a0e2d6d)"><path fill="#423e3e" d="M 83.648438 95.449219 L 92.378906 102.425781 L 83.222656 113.886719 L 74.492188 106.910156 Z M 83.648438 95.449219 " fill-opacity="1" fill-rule="nonzero"/></g></g></svg>