<svg xmlns="http://www.w3.org/2000/svg" xmlns:xlink="http://www.w3.org/1999/xlink" width="61" zoomAndPan="magnify" viewBox="0 0 45.75 30.000001" height="40" preserveAspectRatio="xMidYMid meet" version="1.2"><defs><clipPath id="b5c247fbdc"><path d="M 0.617188 0 L 44.890625 0 L 44.890625 29.03125 L 0.617188 29.03125 Z M 0.617188 0 "/></clipPath><clipPath id="6af30dfdd0"><path d="M 3.054688 0.746094 L 42.453125 0.746094 L 42.453125 16.378906 L 3.054688 16.378906 Z M 3.054688 0.746094 "/></clipPath><clipPath id="15a4a1601f"><path d="M 3.054688 0.746094 L 42.25 0.746094 L 42.25 16.296875 L 3.054688 16.296875 Z M 3.054688 0.746094 "/></clipPath><clipPath id="b1945110aa"><path d="M 9 16 L 19 16 L 19 27 L 9 27 Z M 9 16 "/></clipPath><clipPath id="99646d8ad1"><path d="M 14.472656 13.601562 L 22.765625 19.511719 L 17.597656 26.757812 L 9.308594 20.84375 Z M 14.472656 13.601562 "/></clipPath><clipPath id="5ef6ade22a"><path d="M 18.613281 16.550781 L 17.585938 26.75 L 9.308594 20.84375 Z M 18.613281 16.550781 "/></clipPath><clipPath id="a496444b2d"><path d="M 9 21 L 16 21 L 16 29 L 9 29 Z M 9 21 "/></clipPath><clipPath id="ba210289b5"><path d="M 12.554688 21.753906 L 15.644531 24.222656 L 12.402344 28.285156 L 9.308594 25.8125 Z M 12.554688 21.753906 "/></clipPath></defs><g id="8a28d2cc51"><g clip-rule="nonzero" clip-path="url(#b5c247fbdc)"><path style=" stroke:none;fill-rule:nonzero;fill:#ffffff;fill-opacity:1;" d="M 0.617188 0 L 44.890625 0 L 44.890625 29.03125 L 0.617188 29.03125 Z M 0.617188 0 "/><path style=" stroke:none;fill-rule:nonzero;fill:#ffffff;fill-opacity:1;" d="M 0.617188 0 L 44.890625 0 L 44.890625 29.03125 L 0.617188 29.03125 Z M 0.617188 0 "/></g><g clip-rule="nonzero" clip-path="url(#6af30dfdd0)"><path style=" stroke:none;fill-rule:nonzero;fill:#a6a6a6;fill-opacity:1;" d="M 3.054688 0.746094 L 42.4375 0.746094 L 42.4375 16.378906 L 3.054688 16.378906 Z M 3.054688 0.746094 "/></g><g clip-rule="nonzero" clip-path="url(#15a4a1601f)"><path style="fill:none;stroke-width:4;stroke-linecap:butt;stroke-linejoin:miter;stroke:#423e3e;stroke-opacity:1;stroke-miterlimit:4;" d="M -0.000826536 -0.00160588 L 54.26724 -0.00160588 L 54.26724 21.529306 L -0.000826536 21.529306 Z M -0.000826536 -0.00160588 " transform="matrix(0.722254,0,0,0.722254,3.055284,0.747254)"/></g><g clip-rule="nonzero" clip-path="url(#b1945110aa)"><g clip-rule="nonzero" clip-path="url(#99646d8ad1)"><g clip-rule="nonzero" clip-path="url(#5ef6ade22a)"><path style=" stroke:none;fill-rule:nonzero;fill:#423e3e;fill-opacity:1;" d="M 14.472656 13.601562 L 22.765625 19.511719 L 17.597656 26.757812 L 9.308594 20.84375 Z M 14.472656 13.601562 "/></g></g></g><g clip-rule="nonzero" clip-path="url(#a496444b2d)"><g clip-rule="nonzero" clip-path="url(#ba210289b5)"><path style=" stroke:none;fill-rule:nonzero;fill:#423e3e;fill-opacity:1;" d="M 12.554688 21.753906 L 15.644531 24.222656 L 12.402344 28.285156 L 9.308594 25.8125 Z M 12.554688 21.753906 "/></g></g></g></svg>