<svg xmlns="http://www.w3.org/2000/svg" xmlns:xlink="http://www.w3.org/1999/xlink" width="275" zoomAndPan="magnify" viewBox="0 0 206.25 187.499992" height="250" preserveAspectRatio="xMidYMid meet" version="1.0"><defs><g/><clipPath id="fd07968033"><path d="M 6.664062 6.203125 L 198.839844 6.203125 L 198.839844 145.292969 L 6.664062 145.292969 Z M 6.664062 6.203125 " clip-rule="nonzero"/></clipPath><clipPath id="e898532bdf"><path d="M 18.683594 18.773438 L 186.820312 18.773438 L 186.820312 85.480469 L 18.683594 85.480469 Z M 18.683594 18.773438 " clip-rule="nonzero"/></clipPath><clipPath id="0c1898dcff"><path d="M 18.683594 18.773438 L 186.820312 18.773438 L 186.820312 85.28125 L 18.683594 85.28125 Z M 18.683594 18.773438 " clip-rule="nonzero"/></clipPath><clipPath id="78754e08ea"><path d="M 45 86 L 86 86 L 86 130 L 45 130 Z M 45 86 " clip-rule="nonzero"/></clipPath><clipPath id="063a2c58bf"><path d="M 67.414062 73.625 L 102.746094 98.820312 L 80.703125 129.734375 L 45.371094 104.542969 Z M 67.414062 73.625 " clip-rule="nonzero"/></clipPath><clipPath id="f2b55f787e"><path d="M 85.082031 86.222656 L 80.703125 129.734375 L 45.371094 104.542969 Z M 85.082031 86.222656 " clip-rule="nonzero"/></clipPath><clipPath id="6836a46af9"><path d="M 45 108 L 73 108 L 73 137 L 45 137 Z M 45 108 " clip-rule="nonzero"/></clipPath><clipPath id="27217611be"><path d="M 59.222656 108.421875 L 72.421875 118.96875 L 58.574219 136.300781 L 45.371094 125.757812 Z M 59.222656 108.421875 " clip-rule="nonzero"/></clipPath><clipPath id="8600ca2b97"><path d="M 59.222656 108.421875 L 72.421875 118.96875 L 58.574219 136.300781 L 45.371094 125.757812 Z M 59.222656 108.421875 " clip-rule="nonzero"/></clipPath><clipPath id="0a84e8b3bb"><path d="M 38.667969 151.675781 L 163.800781 151.675781 L 163.800781 179.699219 L 38.667969 179.699219 Z M 38.667969 151.675781 " clip-rule="nonzero"/></clipPath></defs><g clip-path="url(#fd07968033)"><path fill="#ececec" d="M 6.664062 6.203125 L 198.839844 6.203125 L 198.839844 145.292969 L 6.664062 145.292969 Z M 6.664062 6.203125 " fill-opacity="1" fill-rule="nonzero"/></g><g clip-path="url(#e898532bdf)"><path fill="#a6a6a6" d="M 18.683594 18.773438 L 186.820312 18.773438 L 186.820312 85.480469 L 18.683594 85.480469 Z M 18.683594 18.773438 " fill-opacity="1" fill-rule="nonzero"/></g><g clip-path="url(#0c1898dcff)"><path stroke-linecap="butt" transform="matrix(0.747283, 0, 0, 0.747283, 18.682989, 18.77264)" fill="none" stroke-linejoin="miter" d="M 0.000808736 0.001067 L 224.998318 0.001067 L 224.998318 89.267207 L 0.000808736 89.267207 Z M 0.000808736 0.001067 " stroke="#423e3e" stroke-width="8" stroke-opacity="1" stroke-miterlimit="4"/></g><g clip-path="url(#78754e08ea)"><g clip-path="url(#063a2c58bf)"><g clip-path="url(#f2b55f787e)"><path fill="#423e3e" d="M 67.414062 73.625 L 102.746094 98.820312 L 80.703125 129.734375 L 45.371094 104.542969 Z M 67.414062 73.625 " fill-opacity="1" fill-rule="nonzero"/></g></g></g><g clip-path="url(#6836a46af9)"><g clip-path="url(#27217611be)"><g clip-path="url(#8600ca2b97)"><path fill="#423e3e" d="M 59.222656 108.421875 L 72.421875 118.96875 L 58.574219 136.300781 L 45.371094 125.757812 Z M 59.222656 108.421875 " fill-opacity="1" fill-rule="nonzero"/></g></g></g><g clip-path="url(#0a84e8b3bb)"><path fill="#ffffff" d="M 38.667969 151.675781 L 163.800781 151.675781 L 163.800781 179.699219 L 38.667969 179.699219 Z M 38.667969 151.675781 " fill-opacity="1" fill-rule="nonzero"/></g><g fill="#423e3e" fill-opacity="1"><g transform="translate(56.41283, 172.787288)"><g><path d="M 13.945312 -4.304688 C 13.945312 -6.375 12.929688 -7.410156 11.078125 -8.109375 L 11.078125 -8.148438 C 12.433594 -8.84375 13.269531 -9.921875 13.269531 -11.476562 C 13.269531 -14.265625 10.796875 -15.597656 8.289062 -15.597656 L 1.8125 -15.597656 L 1.8125 0 L 8.386719 0 C 11.136719 0 13.945312 -1.136719 13.945312 -4.304688 Z M 10.101562 -10.976562 C 10.101562 -9.5625 8.765625 -9.265625 7.628906 -9.265625 L 4.960938 -9.265625 L 4.960938 -12.632812 L 7.847656 -12.632812 C 8.925781 -12.632812 10.101562 -12.273438 10.101562 -10.976562 Z M 10.796875 -4.722656 C 10.796875 -3.328125 9.503906 -2.988281 8.347656 -2.988281 L 4.960938 -2.988281 L 4.960938 -6.476562 L 8.246094 -6.476562 C 9.441406 -6.476562 10.796875 -6.175781 10.796875 -4.722656 Z M 10.796875 -4.722656 "/></g></g></g><g fill="#423e3e" fill-opacity="1"><g transform="translate(71.233076, 172.787288)"><g><path d="M 14.183594 -6.296875 L 14.183594 -15.597656 L 10.996094 -15.597656 L 10.996094 -6.175781 C 10.996094 -4.203125 9.902344 -2.890625 7.910156 -2.890625 C 6.214844 -2.890625 4.882812 -3.945312 4.882812 -6.253906 L 4.902344 -15.597656 L 1.652344 -15.597656 L 1.652344 -6.175781 C 1.652344 -2.410156 3.566406 0.21875 7.890625 0.21875 C 12.113281 0.21875 14.183594 -2.3125 14.183594 -6.296875 Z M 14.183594 -6.296875 "/></g></g></g><g fill="#423e3e" fill-opacity="1"><g transform="translate(87.069215, 172.787288)"><g><path d="M 5.101562 0 L 8.308594 0 L 8.308594 -12.472656 L 12.988281 -12.472656 L 12.988281 -15.597656 L 0.417969 -15.597656 L 0.417969 -12.472656 L 5.101562 -12.472656 Z M 5.101562 0 "/></g></g></g><g fill="#423e3e" fill-opacity="1"><g transform="translate(100.475158, 172.787288)"><g><path d="M 5.101562 0 L 8.308594 0 L 8.308594 -12.472656 L 12.988281 -12.472656 L 12.988281 -15.597656 L 0.417969 -15.597656 L 0.417969 -12.472656 L 5.101562 -12.472656 Z M 5.101562 0 "/></g></g></g><g fill="#423e3e" fill-opacity="1"><g transform="translate(113.881101, 172.787288)"><g><path d="M 0.855469 -7.789062 C 0.855469 -3.289062 4.441406 0.238281 8.925781 0.238281 C 13.40625 0.238281 17.054688 -3.328125 17.054688 -7.871094 C 17.054688 -12.351562 13.488281 -15.839844 9.003906 -15.839844 C 4.523438 -15.839844 0.855469 -12.273438 0.855469 -7.789062 Z M 4.164062 -7.808594 C 4.164062 -10.5 6.277344 -12.710938 8.964844 -12.710938 C 11.65625 -12.710938 13.765625 -10.5 13.765625 -7.808594 C 13.765625 -5.121094 11.65625 -2.890625 8.964844 -2.890625 C 6.277344 -2.890625 4.164062 -5.121094 4.164062 -7.808594 Z M 4.164062 -7.808594 "/></g></g></g><g fill="#423e3e" fill-opacity="1"><g transform="translate(131.788893, 172.787288)"><g><path d="M 5 -10.757812 L 12.171875 0 L 15.460938 0 L 15.460938 -15.597656 L 12.273438 -15.597656 L 12.273438 -5.417969 L 5.5 -15.597656 L 1.8125 -15.597656 L 1.8125 0 L 5 0 Z M 5 -10.757812 "/></g></g></g></svg>