<svg xmlns="http://www.w3.org/2000/svg" xmlns:xlink="http://www.w3.org/1999/xlink" width="61" zoomAndPan="magnify" viewBox="0 0 46.079998 37.92" height="40" preserveAspectRatio="xMidYMid meet" version="1.2"><defs><clipPath id="502782b655"><path d="M 2.707031 1.386719 L 41.960938 1.386719 L 41.960938 28.59375 L 2.707031 28.59375 Z M 2.707031 1.386719 "/></clipPath><clipPath id="f2f40a5905"><path d="M 7.785156 7.027344 L 17.132812 7.027344 L 17.132812 11.5 L 7.785156 11.5 Z M 7.785156 7.027344 "/></clipPath><clipPath id="3177e1859b"><path d="M 17.820312 7.027344 L 27.167969 7.027344 L 27.167969 11.5 L 17.820312 11.5 Z M 17.820312 7.027344 "/></clipPath><clipPath id="e11fdcd42d"><path d="M 27.921875 7.027344 L 37.269531 7.027344 L 37.269531 11.5 L 27.921875 11.5 Z M 27.921875 7.027344 "/></clipPath><clipPath id="323059cd58"><path d="M 7.785156 12.800781 L 17.132812 12.800781 L 17.132812 17.277344 L 7.785156 17.277344 Z M 7.785156 12.800781 "/></clipPath><clipPath id="577a8ef890"><path d="M 17.820312 12.800781 L 27.167969 12.800781 L 27.167969 17.277344 L 17.820312 17.277344 Z M 17.820312 12.800781 "/></clipPath><clipPath id="e99ba85290"><path d="M 27.921875 12.800781 L 37.269531 12.800781 L 37.269531 17.277344 L 27.921875 17.277344 Z M 27.921875 12.800781 "/></clipPath><clipPath id="e5c56d8e5b"><path d="M 8.039062 20.730469 L 11.066406 20.730469 L 11.066406 23.671875 L 8.039062 23.671875 Z M 8.039062 20.730469 "/></clipPath><clipPath id="581c027640"><path d="M 13.308594 20.730469 L 16.335938 20.730469 L 16.335938 23.671875 L 13.308594 23.671875 Z M 13.308594 20.730469 "/></clipPath><clipPath id="287b62b81f"><path d="M 18.59375 20.730469 L 21.621094 20.730469 L 21.621094 23.671875 L 18.59375 23.671875 Z M 18.59375 20.730469 "/></clipPath><clipPath id="692f318fab"><path d="M 23.671875 20.730469 L 26.699219 20.730469 L 26.699219 23.671875 L 23.671875 23.671875 Z M 23.671875 20.730469 "/></clipPath><clipPath id="966aea228c"><path d="M 28.960938 20.730469 L 31.984375 20.730469 L 31.984375 23.671875 L 28.960938 23.671875 Z M 28.960938 20.730469 "/></clipPath><clipPath id="8a0b4855c8"><path d="M 34.246094 20.730469 L 37.269531 20.730469 L 37.269531 23.671875 L 34.246094 23.671875 Z M 34.246094 20.730469 "/></clipPath></defs><g id="361c34b936"><g clip-rule="nonzero" clip-path="url(#502782b655)"><path style="fill:none;stroke-width:6;stroke-linecap:butt;stroke-linejoin:miter;stroke:#585958;stroke-opacity:1;stroke-miterlimit:4;" d="M -0.00174342 -0.00102133 L 53.562106 -0.00102133 L 53.562106 37.124286 L -0.00174342 37.124286 Z M -0.00174342 -0.00102133 " transform="matrix(0.732843,0,0,0.732843,2.708309,1.387467)"/></g><g clip-rule="nonzero" clip-path="url(#f2f40a5905)"><path style=" stroke:none;fill-rule:nonzero;fill:#bab8b7;fill-opacity:1;" d="M 7.785156 7.027344 L 17.136719 7.027344 L 17.136719 11.5 L 7.785156 11.5 Z M 7.785156 7.027344 "/></g><g clip-rule="nonzero" clip-path="url(#3177e1859b)"><path style=" stroke:none;fill-rule:nonzero;fill:#585958;fill-opacity:1;" d="M 17.820312 7.027344 L 27.175781 7.027344 L 27.175781 11.5 L 17.820312 11.5 Z M 17.820312 7.027344 "/></g><g clip-rule="nonzero" clip-path="url(#e11fdcd42d)"><path style=" stroke:none;fill-rule:nonzero;fill:#bab8b7;fill-opacity:1;" d="M 27.921875 7.027344 L 37.273438 7.027344 L 37.273438 11.5 L 27.921875 11.5 Z M 27.921875 7.027344 "/></g><g clip-rule="nonzero" clip-path="url(#323059cd58)"><path style=" stroke:none;fill-rule:nonzero;fill:#585958;fill-opacity:1;" d="M 7.785156 12.800781 L 17.136719 12.800781 L 17.136719 17.277344 L 7.785156 17.277344 Z M 7.785156 12.800781 "/></g><g clip-rule="nonzero" clip-path="url(#577a8ef890)"><path style=" stroke:none;fill-rule:nonzero;fill:#bab8b7;fill-opacity:1;" d="M 17.820312 12.800781 L 27.175781 12.800781 L 27.175781 17.277344 L 17.820312 17.277344 Z M 17.820312 12.800781 "/></g><g clip-rule="nonzero" clip-path="url(#e99ba85290)"><path style=" stroke:none;fill-rule:nonzero;fill:#585958;fill-opacity:1;" d="M 27.921875 12.800781 L 37.273438 12.800781 L 37.273438 17.277344 L 27.921875 17.277344 Z M 27.921875 12.800781 "/></g><g clip-rule="nonzero" clip-path="url(#e5c56d8e5b)"><path style=" stroke:none;fill-rule:nonzero;fill:#bab8b7;fill-opacity:1;" d="M 8.039062 20.730469 L 11.0625 20.730469 L 11.0625 23.671875 L 8.039062 23.671875 Z M 8.039062 20.730469 "/></g><g clip-rule="nonzero" clip-path="url(#581c027640)"><path style=" stroke:none;fill-rule:nonzero;fill:#585958;fill-opacity:1;" d="M 13.308594 20.730469 L 16.332031 20.730469 L 16.332031 23.671875 L 13.308594 23.671875 Z M 13.308594 20.730469 "/></g><g clip-rule="nonzero" clip-path="url(#287b62b81f)"><path style=" stroke:none;fill-rule:nonzero;fill:#bab8b7;fill-opacity:1;" d="M 18.59375 20.730469 L 21.617188 20.730469 L 21.617188 23.671875 L 18.59375 23.671875 Z M 18.59375 20.730469 "/></g><g clip-rule="nonzero" clip-path="url(#692f318fab)"><path style=" stroke:none;fill-rule:nonzero;fill:#bab8b7;fill-opacity:1;" d="M 23.671875 20.730469 L 26.695312 20.730469 L 26.695312 23.671875 L 23.671875 23.671875 Z M 23.671875 20.730469 "/></g><g clip-rule="nonzero" clip-path="url(#966aea228c)"><path style=" stroke:none;fill-rule:nonzero;fill:#bab8b7;fill-opacity:1;" d="M 28.960938 20.730469 L 31.980469 20.730469 L 31.980469 23.671875 L 28.960938 23.671875 Z M 28.960938 20.730469 "/></g><g clip-rule="nonzero" clip-path="url(#8a0b4855c8)"><path style=" stroke:none;fill-rule:nonzero;fill:#bab8b7;fill-opacity:1;" d="M 34.246094 20.730469 L 37.265625 20.730469 L 37.265625 23.671875 L 34.246094 23.671875 Z M 34.246094 20.730469 "/></g></g></svg>