<svg xmlns="http://www.w3.org/2000/svg" xmlns:xlink="http://www.w3.org/1999/xlink" width="61" zoomAndPan="magnify" viewBox="0 0 45.75 30.000001" height="40" preserveAspectRatio="xMidYMid meet" version="1.2"><defs><clipPath id="237b18295c"><path d="M 9 1 L 36 1 L 36 28 L 9 28 Z M 9 1 "/></clipPath><clipPath id="123ac43a18"><path d="M 10.054688 1.210938 L 36.058594 1.816406 L 35.453125 27.820312 L 9.449219 27.214844 Z M 10.054688 1.210938 "/></clipPath><clipPath id="671a8a6d80"><path d="M 23.058594 1.515625 C 15.875 1.347656 9.917969 7.03125 9.75 14.214844 C 9.585938 21.394531 15.269531 27.351562 22.449219 27.519531 C 29.632812 27.6875 35.589844 22 35.757812 14.820312 C 35.921875 7.636719 30.238281 1.679688 23.058594 1.515625 Z M 23.058594 1.515625 "/></clipPath><clipPath id="94487eba77"><path d="M 20.59375 12.207031 L 25.210938 12.207031 L 25.210938 16.828125 L 20.59375 16.828125 Z M 20.59375 12.207031 "/></clipPath><clipPath id="8cb97ab7c1"><path d="M 22.902344 12.207031 C 21.625 12.207031 20.59375 13.242188 20.59375 14.515625 C 20.59375 15.792969 21.625 16.828125 22.902344 16.828125 C 24.179688 16.828125 25.210938 15.792969 25.210938 14.515625 C 25.210938 13.242188 24.179688 12.207031 22.902344 12.207031 Z M 22.902344 12.207031 "/></clipPath></defs><g id="1e741e234e"><g clip-rule="nonzero" clip-path="url(#237b18295c)"><g clip-rule="nonzero" clip-path="url(#123ac43a18)"><g clip-rule="nonzero" clip-path="url(#671a8a6d80)"><path style=" stroke:none;fill-rule:nonzero;fill:#bab8b7;fill-opacity:1;" d="M 10.054688 1.210938 L 36.058594 1.816406 L 35.453125 27.820312 L 9.449219 27.214844 Z M 10.054688 1.210938 "/></g></g></g><path style="fill:none;stroke-width:4;stroke-linecap:butt;stroke-linejoin:miter;stroke:#585958;stroke-opacity:1;stroke-miterlimit:4;" d="M 0.00237603 1.997716 L 15.001855 1.997716 " transform="matrix(0.725806,0.000000000000000344,-0.000000000000000344,0.725806,11.759994,13.237545)"/><g clip-rule="nonzero" clip-path="url(#94487eba77)"><g clip-rule="nonzero" clip-path="url(#8cb97ab7c1)"><path style=" stroke:none;fill-rule:nonzero;fill:#585958;fill-opacity:1;" d="M 20.59375 12.207031 L 25.210938 12.207031 L 25.210938 16.828125 L 20.59375 16.828125 Z M 20.59375 12.207031 "/></g></g></g></svg>