<svg xmlns="http://www.w3.org/2000/svg" xmlns:xlink="http://www.w3.org/1999/xlink" width="275" zoomAndPan="magnify" viewBox="0 0 206.25 187.499992" height="250" preserveAspectRatio="xMidYMid meet" version="1.0"><defs><g/><clipPath id="4ffa0ad5ed"><path d="M 6.664062 6.203125 L 198.839844 6.203125 L 198.839844 145.292969 L 6.664062 145.292969 Z M 6.664062 6.203125 " clip-rule="nonzero"/></clipPath><clipPath id="332ea28ad9"><path d="M 55 28 L 151 28 L 151 124 L 55 124 Z M 55 28 " clip-rule="nonzero"/></clipPath><clipPath id="253916e725"><path d="M 56.21875 26.996094 L 151.503906 29.214844 L 149.285156 124.5 L 53.996094 122.28125 Z M 56.21875 26.996094 " clip-rule="nonzero"/></clipPath><clipPath id="8c4e7810e3"><path d="M 103.859375 28.105469 C 77.546875 27.492188 55.71875 48.324219 55.109375 74.636719 C 54.496094 100.953125 75.328125 122.777344 101.640625 123.390625 C 127.953125 124.003906 149.78125 103.171875 150.394531 76.859375 C 151.007812 50.542969 130.171875 28.71875 103.859375 28.105469 Z M 103.859375 28.105469 " clip-rule="nonzero"/></clipPath><clipPath id="74deab0e11"><path d="M 10.125 151.675781 L 195.378906 151.675781 L 195.378906 179.699219 L 10.125 179.699219 Z M 10.125 151.675781 " clip-rule="nonzero"/></clipPath><clipPath id="501720ea8c"><path d="M 94.832031 67.285156 L 111.761719 67.285156 L 111.761719 84.210938 L 94.832031 84.210938 Z M 94.832031 67.285156 " clip-rule="nonzero"/></clipPath><clipPath id="cb0a0a1762"><path d="M 103.296875 67.285156 C 98.621094 67.285156 94.832031 71.074219 94.832031 75.75 C 94.832031 80.421875 98.621094 84.210938 103.296875 84.210938 C 107.972656 84.210938 111.761719 80.421875 111.761719 75.75 C 111.761719 71.074219 107.972656 67.285156 103.296875 67.285156 Z M 103.296875 67.285156 " clip-rule="nonzero"/></clipPath></defs><g clip-path="url(#4ffa0ad5ed)"><path fill="#ececec" d="M 6.664062 6.203125 L 198.839844 6.203125 L 198.839844 145.292969 L 6.664062 145.292969 Z M 6.664062 6.203125 " fill-opacity="1" fill-rule="nonzero"/></g><g clip-path="url(#332ea28ad9)"><g clip-path="url(#253916e725)"><g clip-path="url(#8c4e7810e3)"><path fill="#a6a6a6" d="M 56.21875 26.996094 L 151.503906 29.214844 L 149.285156 124.5 L 53.996094 122.28125 Z M 56.21875 26.996094 " fill-opacity="1" fill-rule="nonzero"/></g></g></g><g clip-path="url(#74deab0e11)"><path fill="#ffffff" d="M 10.125 151.675781 L 195.378906 151.675781 L 195.378906 179.699219 L 10.125 179.699219 Z M 10.125 151.675781 " fill-opacity="1" fill-rule="nonzero"/></g><g fill="#423e3e" fill-opacity="1"><g transform="translate(10.123344, 172.139648)"><g><path d="M 0.8125 -7.402344 C 0.8125 -3.085938 4.125 0.207031 8.441406 0.207031 C 11.355469 0.207031 14.253906 -1.402344 15.277344 -4.203125 L 12.453125 -5.507812 C 11.8125 -3.898438 10.335938 -2.761719 8.480469 -2.761719 C 5.847656 -2.761719 3.992188 -4.863281 3.992188 -7.4375 C 3.992188 -9.976562 5.90625 -12.058594 8.480469 -12.058594 C 10.335938 -12.058594 11.792969 -11.015625 12.417969 -9.386719 L 15.21875 -10.675781 C 14.214844 -13.457031 11.414062 -15.046875 8.5 -15.046875 C 4.257812 -15.046875 0.8125 -11.679688 0.8125 -7.402344 Z M 0.8125 -7.402344 "/></g></g></g><g fill="#423e3e" fill-opacity="1"><g transform="translate(25.870851, 172.139648)"><g><path d="M 1.722656 -14.820312 L 1.722656 0 L 11.109375 0 L 11.109375 -2.914062 L 4.769531 -2.914062 L 4.769531 -14.820312 Z M 1.722656 -14.820312 "/></g></g></g><g fill="#423e3e" fill-opacity="1"><g transform="translate(37.302931, 172.139648)"><g><path d="M 0.8125 -7.402344 C 0.8125 -3.125 4.222656 0.226562 8.480469 0.226562 C 12.738281 0.226562 16.203125 -3.160156 16.203125 -7.476562 C 16.203125 -11.734375 12.816406 -15.046875 8.554688 -15.046875 C 4.296875 -15.046875 0.8125 -11.660156 0.8125 -7.402344 Z M 3.957031 -7.421875 C 3.957031 -9.976562 5.960938 -12.078125 8.519531 -12.078125 C 11.074219 -12.078125 13.078125 -9.976562 13.078125 -7.421875 C 13.078125 -4.863281 11.074219 -2.746094 8.519531 -2.746094 C 5.960938 -2.746094 3.957031 -4.863281 3.957031 -7.421875 Z M 3.957031 -7.421875 "/></g></g></g><g fill="#423e3e" fill-opacity="1"><g transform="translate(54.31857, 172.139648)"><g><path d="M 0.8125 -7.402344 C 0.8125 -3.085938 4.125 0.207031 8.441406 0.207031 C 11.355469 0.207031 14.253906 -1.402344 15.277344 -4.203125 L 12.453125 -5.507812 C 11.8125 -3.898438 10.335938 -2.761719 8.480469 -2.761719 C 5.847656 -2.761719 3.992188 -4.863281 3.992188 -7.4375 C 3.992188 -9.976562 5.90625 -12.058594 8.480469 -12.058594 C 10.335938 -12.058594 11.792969 -11.015625 12.417969 -9.386719 L 15.21875 -10.675781 C 14.214844 -13.457031 11.414062 -15.046875 8.5 -15.046875 C 4.257812 -15.046875 0.8125 -11.679688 0.8125 -7.402344 Z M 0.8125 -7.402344 "/></g></g></g><g fill="#423e3e" fill-opacity="1"><g transform="translate(70.066078, 172.139648)"><g><path d="M 4.769531 0 L 4.769531 -7.042969 L 10.109375 0 L 14.0625 0 L 8.027344 -7.742188 L 13.683594 -14.820312 L 9.863281 -14.820312 L 4.769531 -8.367188 L 4.769531 -14.820312 L 1.722656 -14.820312 L 1.722656 0 Z M 4.769531 0 "/></g></g></g><g fill="#423e3e" fill-opacity="1"><g transform="translate(83.996565, 172.139648)"><g/></g></g><g fill="#423e3e" fill-opacity="1"><g transform="translate(88.74731, 172.139648)"><g><path d="M 6.132812 2.59375 L 7.421875 0.871094 C 5.035156 -0.851562 3.519531 -3.238281 3.519531 -6.625 L 3.519531 -7.304688 C 3.519531 -10.695312 5.035156 -13.0625 7.421875 -14.800781 L 6.132812 -16.523438 C 2.859375 -14.6875 0.851562 -11.585938 0.851562 -7.324219 L 0.851562 -6.625 C 0.851562 -2.347656 2.859375 0.757812 6.132812 2.59375 Z M 6.132812 2.59375 "/></g></g></g><g fill="#423e3e" fill-opacity="1"><g transform="translate(96.54535, 172.139648)"><g><path d="M 3.066406 0 L 4.164062 -2.992188 L 10.734375 -2.992188 L 11.847656 0 L 15.011719 0 L 9.332031 -14.820312 L 5.640625 -14.820312 L -0.0195312 0 Z M 7.457031 -11.847656 L 9.691406 -5.828125 L 5.222656 -5.828125 Z M 7.457031 -11.847656 "/></g></g></g><g fill="#423e3e" fill-opacity="1"><g transform="translate(111.535768, 172.139648)"><g><path d="M 4.75 -10.222656 L 11.566406 0 L 14.6875 0 L 14.6875 -14.820312 L 11.660156 -14.820312 L 11.660156 -5.148438 L 5.222656 -14.820312 L 1.722656 -14.820312 L 1.722656 0 L 4.75 0 Z M 4.75 -10.222656 "/></g></g></g><g fill="#423e3e" fill-opacity="1"><g transform="translate(127.964662, 172.139648)"><g><path d="M 3.066406 0 L 4.164062 -2.992188 L 10.734375 -2.992188 L 11.847656 0 L 15.011719 0 L 9.332031 -14.820312 L 5.640625 -14.820312 L -0.0195312 0 Z M 7.457031 -11.847656 L 9.691406 -5.828125 L 5.222656 -5.828125 Z M 7.457031 -11.847656 "/></g></g></g><g fill="#423e3e" fill-opacity="1"><g transform="translate(142.95508, 172.139648)"><g><path d="M 1.722656 -14.820312 L 1.722656 0 L 11.109375 0 L 11.109375 -2.914062 L 4.769531 -2.914062 L 4.769531 -14.820312 Z M 1.722656 -14.820312 "/></g></g></g><g fill="#423e3e" fill-opacity="1"><g transform="translate(154.38716, 172.139648)"><g><path d="M 0.8125 -7.402344 C 0.8125 -3.125 4.222656 0.226562 8.480469 0.226562 C 12.738281 0.226562 16.203125 -3.160156 16.203125 -7.476562 C 16.203125 -11.734375 12.816406 -15.046875 8.554688 -15.046875 C 4.296875 -15.046875 0.8125 -11.660156 0.8125 -7.402344 Z M 3.957031 -7.421875 C 3.957031 -9.976562 5.960938 -12.078125 8.519531 -12.078125 C 11.074219 -12.078125 13.078125 -9.976562 13.078125 -7.421875 C 13.078125 -4.863281 11.074219 -2.746094 8.519531 -2.746094 C 5.960938 -2.746094 3.957031 -4.863281 3.957031 -7.421875 Z M 3.957031 -7.421875 "/></g></g></g><g fill="#423e3e" fill-opacity="1"><g transform="translate(171.4028, 172.139648)"><g><path d="M 3.9375 -7.421875 C 3.9375 -10.109375 6 -12.152344 8.5 -12.152344 C 10.882812 -12.152344 12.039062 -10.65625 12.472656 -9.539062 L 15.179688 -10.863281 C 14.519531 -12.71875 12.324219 -15.046875 8.535156 -15.046875 C 4.316406 -15.046875 0.8125 -11.71875 0.8125 -7.402344 C 0.8125 -3.179688 3.917969 0.226562 8.5 0.226562 C 12.113281 0.226562 15.523438 -2.195312 15.523438 -6.8125 L 15.523438 -7.96875 L 7.816406 -7.96875 L 7.816406 -5.1875 L 12.324219 -5.1875 C 11.964844 -3.730469 10.503906 -2.6875 8.5 -2.6875 C 5.8125 -2.6875 3.9375 -4.847656 3.9375 -7.421875 Z M 3.9375 -7.421875 "/></g></g></g><g fill="#423e3e" fill-opacity="1"><g transform="translate(187.623493, 172.139648)"><g><path d="M 0.359375 0.925781 L 1.589844 2.59375 C 4.882812 0.757812 6.890625 -2.347656 6.890625 -6.625 L 6.890625 -7.324219 C 6.890625 -11.585938 4.882812 -14.6875 1.589844 -16.523438 L 0.359375 -14.859375 C 2.746094 -13.117188 4.222656 -10.695312 4.222656 -7.304688 L 4.222656 -6.625 C 4.222656 -3.238281 2.746094 -0.8125 0.359375 0.925781 Z M 0.359375 0.925781 "/></g></g></g><path stroke-linecap="butt" transform="matrix(0.634013, 0.000000000000000143, -0.000000000000000143, 0.634013, 62.466336, 70.992988)" fill="none" stroke-linejoin="miter" d="M -0.00235346 8.501131 L 62.921525 8.501131 " stroke="#333333" stroke-width="17" stroke-opacity="1" stroke-miterlimit="4"/><g clip-path="url(#501720ea8c)"><g clip-path="url(#cb0a0a1762)"><path fill="#333333" d="M 94.832031 67.285156 L 111.761719 67.285156 L 111.761719 84.210938 L 94.832031 84.210938 Z M 94.832031 67.285156 " fill-opacity="1" fill-rule="nonzero"/></g></g></svg>