<svg xmlns="http://www.w3.org/2000/svg" xmlns:xlink="http://www.w3.org/1999/xlink" width="275" zoomAndPan="magnify" viewBox="0 0 206.25 187.499992" height="250" preserveAspectRatio="xMidYMid meet" version="1.0"><defs><g/><clipPath id="c854dea02b"><path d="M 58.085938 151.675781 L 149.378906 151.675781 L 149.378906 179.699219 L 58.085938 179.699219 Z M 58.085938 151.675781 " clip-rule="nonzero"/></clipPath><clipPath id="ff23ade895"><path d="M 6.664062 6.203125 L 198.839844 6.203125 L 198.839844 145.292969 L 6.664062 145.292969 Z M 6.664062 6.203125 " clip-rule="nonzero"/></clipPath><clipPath id="5ede1ad146"><path d="M 0 0.0898438 L 205.503906 0.0898438 L 205.503906 135 L 0 135 Z M 0 0.0898438 " clip-rule="nonzero"/></clipPath></defs><g clip-path="url(#c854dea02b)"><path fill="#ffffff" d="M 58.085938 151.675781 L 149.378906 151.675781 L 149.378906 179.699219 L 58.085938 179.699219 Z M 58.085938 151.675781 " fill-opacity="1" fill-rule="nonzero"/></g><g clip-path="url(#ff23ade895)"><path fill="#ececec" d="M 6.664062 6.203125 L 198.839844 6.203125 L 198.839844 145.292969 L 6.664062 145.292969 Z M 6.664062 6.203125 " fill-opacity="1" fill-rule="nonzero"/></g><g fill="#423e3e" fill-opacity="1"><g transform="translate(63.86463, 172.787288)"><g><path d="M 0.855469 -7.789062 C 0.855469 -3.246094 4.34375 0.21875 8.886719 0.21875 C 11.953125 0.21875 15 -1.472656 16.078125 -4.421875 L 13.109375 -5.796875 C 12.433594 -4.105469 10.878906 -2.910156 8.925781 -2.910156 C 6.15625 -2.910156 4.203125 -5.121094 4.203125 -7.828125 C 4.203125 -10.5 6.214844 -12.691406 8.925781 -12.691406 C 10.878906 -12.691406 12.410156 -11.59375 13.070312 -9.882812 L 16.019531 -11.234375 C 14.960938 -14.164062 12.011719 -15.839844 8.945312 -15.839844 C 4.484375 -15.839844 0.855469 -12.292969 0.855469 -7.789062 Z M 0.855469 -7.789062 "/></g></g></g><g fill="#423e3e" fill-opacity="1"><g transform="translate(80.4378, 172.787288)"><g><path d="M 1.8125 -15.597656 L 1.8125 0 L 11.695312 0 L 11.695312 -3.066406 L 5.019531 -3.066406 L 5.019531 -15.597656 Z M 1.8125 -15.597656 "/></g></g></g><g fill="#423e3e" fill-opacity="1"><g transform="translate(92.469283, 172.787288)"><g><path d="M 0.855469 -7.789062 C 0.855469 -3.289062 4.441406 0.238281 8.925781 0.238281 C 13.40625 0.238281 17.054688 -3.328125 17.054688 -7.871094 C 17.054688 -12.351562 13.488281 -15.839844 9.003906 -15.839844 C 4.523438 -15.839844 0.855469 -12.273438 0.855469 -7.789062 Z M 4.164062 -7.808594 C 4.164062 -10.5 6.277344 -12.710938 8.964844 -12.710938 C 11.65625 -12.710938 13.765625 -10.5 13.765625 -7.808594 C 13.765625 -5.121094 11.65625 -2.890625 8.964844 -2.890625 C 6.277344 -2.890625 4.164062 -5.121094 4.164062 -7.808594 Z M 4.164062 -7.808594 "/></g></g></g><g fill="#423e3e" fill-opacity="1"><g transform="translate(110.377074, 172.787288)"><g><path d="M 0.855469 -7.789062 C 0.855469 -3.246094 4.34375 0.21875 8.886719 0.21875 C 11.953125 0.21875 15 -1.472656 16.078125 -4.421875 L 13.109375 -5.796875 C 12.433594 -4.105469 10.878906 -2.910156 8.925781 -2.910156 C 6.15625 -2.910156 4.203125 -5.121094 4.203125 -7.828125 C 4.203125 -10.5 6.214844 -12.691406 8.925781 -12.691406 C 10.878906 -12.691406 12.410156 -11.59375 13.070312 -9.882812 L 16.019531 -11.234375 C 14.960938 -14.164062 12.011719 -15.839844 8.945312 -15.839844 C 4.484375 -15.839844 0.855469 -12.292969 0.855469 -7.789062 Z M 0.855469 -7.789062 "/></g></g></g><g fill="#423e3e" fill-opacity="1"><g transform="translate(126.950245, 172.787288)"><g><path d="M 5.019531 0 L 5.019531 -7.410156 L 10.636719 0 L 14.800781 0 L 8.445312 -8.148438 L 14.402344 -15.597656 L 10.378906 -15.597656 L 5.019531 -8.804688 L 5.019531 -15.597656 L 1.8125 -15.597656 L 1.8125 0 Z M 5.019531 0 "/></g></g></g><path stroke-linecap="butt" transform="matrix(0.648301, 0, 0, 0.648301, 35.954483, 104.03978)" fill="none" stroke-linejoin="miter" d="M -0.00209508 13.00164 L 209.108337 13.00164 " stroke="#a6a6a6" stroke-width="26" stroke-opacity="1" stroke-miterlimit="4"/><g clip-path="url(#5ede1ad146)"><path stroke-linecap="butt" transform="matrix(0.648294, -0.00296987, 0.00296987, 0.648294, 35.915871, 31.221532)" fill="none" stroke-linejoin="miter" d="M -0.00208273 12.998581 L 209.092465 12.998412 " stroke="#a6a6a6" stroke-width="26" stroke-opacity="1" stroke-miterlimit="4"/></g><g fill="#bebebe" fill-opacity="1"><g transform="translate(48.591214, 90.861351)"><g><path d="M 12.25 -31.6875 C 15.601562 -31.6875 18.160156 -30.347656 19.921875 -27.671875 C 21.679688 -25.003906 22.5625 -20.96875 22.5625 -15.5625 C 22.5625 -10.15625 21.6875 -6.117188 19.9375 -3.453125 C 18.195312 -0.796875 15.648438 0.53125 12.296875 0.53125 C 5.421875 0.53125 1.984375 -4.832031 1.984375 -15.5625 C 1.984375 -20.820312 2.832031 -24.820312 4.53125 -27.5625 C 6.238281 -30.3125 8.8125 -31.6875 12.25 -31.6875 Z M 5.953125 -15.5625 C 5.953125 -11.238281 6.453125 -8.003906 7.453125 -5.859375 C 8.453125 -3.710938 10.050781 -2.640625 12.25 -2.640625 C 14.488281 -2.640625 16.101562 -3.710938 17.09375 -5.859375 C 18.09375 -8.003906 18.59375 -11.238281 18.59375 -15.5625 C 18.59375 -20.082031 18.070312 -23.367188 17.03125 -25.421875 C 15.988281 -27.484375 14.378906 -28.515625 12.203125 -28.515625 C 10.035156 -28.515625 8.453125 -27.441406 7.453125 -25.296875 C 6.453125 -23.148438 5.953125 -19.90625 5.953125 -15.5625 Z M 5.953125 -15.5625 "/></g></g></g><g fill="#bebebe" fill-opacity="1"><g transform="translate(73.096521, 90.861351)"><g><path d="M 11.8125 -31.6875 C 14.539062 -31.6875 16.878906 -30.765625 18.828125 -28.921875 C 20.085938 -27.679688 21.039062 -26.132812 21.6875 -24.28125 C 22.332031 -22.4375 22.65625 -19.796875 22.65625 -16.359375 C 22.65625 -11.597656 22.066406 -8.039062 20.890625 -5.6875 C 19.742188 -3.363281 18.347656 -1.742188 16.703125 -0.828125 C 15.054688 0.078125 13.320312 0.53125 11.5 0.53125 C 8.976562 0.53125 6.914062 -0.148438 5.3125 -1.515625 C 3.707031 -2.890625 2.757812 -4.820312 2.46875 -7.3125 L 6.21875 -7.671875 C 6.539062 -5.929688 7.140625 -4.65625 8.015625 -3.84375 C 8.898438 -3.039062 10.132812 -2.640625 11.71875 -2.640625 C 13.132812 -2.640625 14.382812 -3.140625 15.46875 -4.140625 C 16.5625 -5.140625 17.398438 -6.554688 17.984375 -8.390625 C 18.566406 -10.234375 18.832031 -12.390625 18.78125 -14.859375 C 17.957031 -13.585938 16.875 -12.582031 15.53125 -11.84375 C 14.195312 -11.113281 12.796875 -10.75 11.328125 -10.75 C 9.566406 -10.75 7.960938 -11.175781 6.515625 -12.03125 C 5.078125 -12.882812 3.945312 -14.085938 3.125 -15.640625 C 2.300781 -17.203125 1.890625 -19 1.890625 -21.03125 C 1.890625 -23.082031 2.316406 -24.914062 3.171875 -26.53125 C 4.023438 -28.144531 5.203125 -29.40625 6.703125 -30.3125 C 8.203125 -31.226562 9.90625 -31.6875 11.8125 -31.6875 Z M 5.859375 -20.9375 C 5.859375 -18.9375 6.460938 -17.296875 7.671875 -16.015625 C 8.878906 -14.742188 10.378906 -14.109375 12.171875 -14.109375 C 14.015625 -14.109375 15.503906 -14.757812 16.640625 -16.0625 C 17.773438 -17.375 18.34375 -19.085938 18.34375 -21.203125 C 18.34375 -23.285156 17.773438 -25.023438 16.640625 -26.421875 C 15.503906 -27.816406 14.039062 -28.515625 12.25 -28.515625 C 11.101562 -28.515625 10.035156 -28.171875 9.046875 -27.484375 C 8.066406 -26.796875 7.289062 -25.867188 6.71875 -24.703125 C 6.144531 -23.546875 5.859375 -22.289062 5.859375 -20.9375 Z M 5.859375 -20.9375 "/></g></g></g><g fill="#bebebe" fill-opacity="1"><g transform="translate(97.601828, 90.861351)"><g><path d="M 8.375 -18.421875 L 3.96875 -18.421875 L 3.96875 -22.828125 L 8.375 -22.828125 Z M 8.375 0 L 3.96875 0 L 3.96875 -4.40625 L 8.375 -4.40625 Z M 8.375 0 "/></g></g></g><g fill="#bebebe" fill-opacity="1"><g transform="translate(109.854477, 90.861351)"><g><path d="M 18.25 -11.109375 L 22.484375 -11.109375 L 22.484375 -7.53125 L 18.25 -7.53125 L 18.25 0 L 14.375 0 L 14.375 -7.53125 L 0.65625 -7.53125 L 0.65625 -11.109375 L 15.078125 -31.5625 L 18.25 -31.5625 Z M 4.453125 -11.109375 L 14.375 -11.109375 L 14.375 -25.34375 Z M 4.453125 -11.109375 "/></g></g></g><g fill="#bebebe" fill-opacity="1"><g transform="translate(134.359784, 90.861351)"><g><path d="M 21.296875 -27.421875 L 8.6875 -27.421875 L 7.015625 -18.953125 C 8.890625 -20.242188 10.867188 -20.890625 12.953125 -20.890625 C 14.722656 -20.890625 16.351562 -20.46875 17.84375 -19.625 C 19.34375 -18.789062 20.539062 -17.59375 21.4375 -16.03125 C 22.332031 -14.476562 22.78125 -12.707031 22.78125 -10.71875 C 22.78125 -8.59375 22.316406 -6.675781 21.390625 -4.96875 C 20.472656 -3.269531 19.203125 -1.925781 17.578125 -0.9375 C 15.960938 0.0390625 14.160156 0.53125 12.171875 0.53125 C 9.285156 0.53125 6.910156 -0.253906 5.046875 -1.828125 C 3.179688 -3.398438 2.113281 -5.550781 1.84375 -8.28125 L 5.90625 -8.59375 C 6.195312 -6.65625 6.878906 -5.175781 7.953125 -4.15625 C 9.023438 -3.144531 10.367188 -2.640625 11.984375 -2.640625 C 13.953125 -2.640625 15.550781 -3.367188 16.78125 -4.828125 C 18.019531 -6.285156 18.640625 -8.21875 18.640625 -10.625 C 18.640625 -12.625 18.015625 -14.273438 16.765625 -15.578125 C 15.515625 -16.890625 13.894531 -17.546875 11.90625 -17.546875 C 10.375 -17.546875 9.125 -17.191406 8.15625 -16.484375 C 7.1875 -15.773438 6.523438 -15.097656 6.171875 -14.453125 L 2.5625 -14.9375 L 5.59375 -31.125 L 21.296875 -31.125 Z M 21.296875 -27.421875 "/></g></g></g></svg>