<svg xmlns="http://www.w3.org/2000/svg" xmlns:xlink="http://www.w3.org/1999/xlink" width="275" zoomAndPan="magnify" viewBox="0 0 206.25 187.499992" height="250" preserveAspectRatio="xMidYMid meet" version="1.0"><defs><g/><clipPath id="e9eba6eef7"><path d="M 58.085938 151.675781 L 149.378906 151.675781 L 149.378906 179.699219 L 58.085938 179.699219 Z M 58.085938 151.675781 " clip-rule="nonzero"/></clipPath><clipPath id="cce2cdbcf3"><path d="M 6.664062 6.203125 L 198.839844 6.203125 L 198.839844 145.292969 L 6.664062 145.292969 Z M 6.664062 6.203125 " clip-rule="nonzero"/></clipPath><clipPath id="2d64111d69"><path d="M 0 0.0898438 L 205.503906 0.0898438 L 205.503906 142 L 0 142 Z M 0 0.0898438 " clip-rule="nonzero"/></clipPath></defs><g clip-path="url(#e9eba6eef7)"><path fill="#ffffff" d="M 58.085938 151.675781 L 149.378906 151.675781 L 149.378906 179.699219 L 58.085938 179.699219 Z M 58.085938 151.675781 " fill-opacity="1" fill-rule="nonzero"/></g><g clip-path="url(#cce2cdbcf3)"><path fill="#ececec" d="M 6.664062 6.203125 L 198.839844 6.203125 L 198.839844 145.292969 L 6.664062 145.292969 Z M 6.664062 6.203125 " fill-opacity="1" fill-rule="nonzero"/></g><g fill="#423e3e" fill-opacity="1"><g transform="translate(63.86463, 172.787288)"><g><path d="M 0.855469 -7.789062 C 0.855469 -3.246094 4.34375 0.21875 8.886719 0.21875 C 11.953125 0.21875 15 -1.472656 16.078125 -4.421875 L 13.109375 -5.796875 C 12.433594 -4.105469 10.878906 -2.910156 8.925781 -2.910156 C 6.15625 -2.910156 4.203125 -5.121094 4.203125 -7.828125 C 4.203125 -10.5 6.214844 -12.691406 8.925781 -12.691406 C 10.878906 -12.691406 12.410156 -11.59375 13.070312 -9.882812 L 16.019531 -11.234375 C 14.960938 -14.164062 12.011719 -15.839844 8.945312 -15.839844 C 4.484375 -15.839844 0.855469 -12.292969 0.855469 -7.789062 Z M 0.855469 -7.789062 "/></g></g></g><g fill="#423e3e" fill-opacity="1"><g transform="translate(80.4378, 172.787288)"><g><path d="M 1.8125 -15.597656 L 1.8125 0 L 11.695312 0 L 11.695312 -3.066406 L 5.019531 -3.066406 L 5.019531 -15.597656 Z M 1.8125 -15.597656 "/></g></g></g><g fill="#423e3e" fill-opacity="1"><g transform="translate(92.469283, 172.787288)"><g><path d="M 0.855469 -7.789062 C 0.855469 -3.289062 4.441406 0.238281 8.925781 0.238281 C 13.40625 0.238281 17.054688 -3.328125 17.054688 -7.871094 C 17.054688 -12.351562 13.488281 -15.839844 9.003906 -15.839844 C 4.523438 -15.839844 0.855469 -12.273438 0.855469 -7.789062 Z M 4.164062 -7.808594 C 4.164062 -10.5 6.277344 -12.710938 8.964844 -12.710938 C 11.65625 -12.710938 13.765625 -10.5 13.765625 -7.808594 C 13.765625 -5.121094 11.65625 -2.890625 8.964844 -2.890625 C 6.277344 -2.890625 4.164062 -5.121094 4.164062 -7.808594 Z M 4.164062 -7.808594 "/></g></g></g><g fill="#423e3e" fill-opacity="1"><g transform="translate(110.377074, 172.787288)"><g><path d="M 0.855469 -7.789062 C 0.855469 -3.246094 4.34375 0.21875 8.886719 0.21875 C 11.953125 0.21875 15 -1.472656 16.078125 -4.421875 L 13.109375 -5.796875 C 12.433594 -4.105469 10.878906 -2.910156 8.925781 -2.910156 C 6.15625 -2.910156 4.203125 -5.121094 4.203125 -7.828125 C 4.203125 -10.5 6.214844 -12.691406 8.925781 -12.691406 C 10.878906 -12.691406 12.410156 -11.59375 13.070312 -9.882812 L 16.019531 -11.234375 C 14.960938 -14.164062 12.011719 -15.839844 8.945312 -15.839844 C 4.484375 -15.839844 0.855469 -12.292969 0.855469 -7.789062 Z M 0.855469 -7.789062 "/></g></g></g><g fill="#423e3e" fill-opacity="1"><g transform="translate(126.950245, 172.787288)"><g><path d="M 5.019531 0 L 5.019531 -7.410156 L 10.636719 0 L 14.800781 0 L 8.445312 -8.148438 L 14.402344 -15.597656 L 10.378906 -15.597656 L 5.019531 -8.804688 L 5.019531 -15.597656 L 1.8125 -15.597656 L 1.8125 0 Z M 5.019531 0 "/></g></g></g><path stroke-linecap="butt" transform="matrix(0.747283, 0, 0, 0.747283, 24.626679, 105.533293)" fill="none" stroke-linejoin="miter" d="M -0.00224703 12.997494 L 209.10958 12.997494 " stroke="#a6a6a6" stroke-width="26" stroke-opacity="1" stroke-miterlimit="4"/><g clip-path="url(#2d64111d69)"><path stroke-linecap="butt" transform="matrix(0.747275, -0.00342331, 0.00342331, 0.747275, 24.582174, 21.597217)" fill="none" stroke-linejoin="miter" d="M -0.0022487 13.000942 L 209.090865 13.002209 " stroke="#a6a6a6" stroke-width="26" stroke-opacity="1" stroke-miterlimit="4"/></g><g fill="#bebebe" fill-opacity="1"><g transform="translate(39.192778, 90.342793)"><g><path d="M 14.125 -36.53125 C 17.988281 -36.53125 20.9375 -34.988281 22.96875 -31.90625 C 25 -28.820312 26.015625 -24.164062 26.015625 -17.9375 C 26.015625 -11.707031 25.003906 -7.054688 22.984375 -3.984375 C 20.972656 -0.921875 18.035156 0.609375 14.171875 0.609375 C 6.242188 0.609375 2.28125 -5.570312 2.28125 -17.9375 C 2.28125 -24 3.265625 -28.613281 5.234375 -31.78125 C 7.203125 -34.945312 10.164062 -36.53125 14.125 -36.53125 Z M 6.859375 -17.9375 C 6.859375 -12.957031 7.429688 -9.226562 8.578125 -6.75 C 9.734375 -4.28125 11.582031 -3.046875 14.125 -3.046875 C 16.695312 -3.046875 18.554688 -4.28125 19.703125 -6.75 C 20.859375 -9.226562 21.4375 -12.957031 21.4375 -17.9375 C 21.4375 -23.15625 20.832031 -26.945312 19.625 -29.3125 C 18.425781 -31.6875 16.578125 -32.875 14.078125 -32.875 C 11.566406 -32.875 9.734375 -31.632812 8.578125 -29.15625 C 7.429688 -26.6875 6.859375 -22.945312 6.859375 -17.9375 Z M 6.859375 -17.9375 "/></g></g></g><g fill="#bebebe" fill-opacity="1"><g transform="translate(67.439537, 90.342793)"><g><path d="M 13.625 -36.53125 C 16.769531 -36.53125 19.460938 -35.460938 21.703125 -33.328125 C 23.148438 -31.910156 24.25 -30.132812 25 -28 C 25.75 -25.863281 26.125 -22.8125 26.125 -18.84375 C 26.125 -13.363281 25.441406 -9.269531 24.078125 -6.5625 C 22.765625 -3.882812 21.15625 -2.019531 19.25 -0.96875 C 17.351562 0.0820312 15.359375 0.609375 13.265625 0.609375 C 10.347656 0.609375 7.96875 -0.175781 6.125 -1.75 C 4.28125 -3.320312 3.1875 -5.550781 2.84375 -8.4375 L 7.171875 -8.84375 C 7.535156 -6.84375 8.222656 -5.375 9.234375 -4.4375 C 10.253906 -3.507812 11.679688 -3.046875 13.515625 -3.046875 C 15.140625 -3.046875 16.578125 -3.617188 17.828125 -4.765625 C 19.085938 -5.921875 20.054688 -7.554688 20.734375 -9.671875 C 21.410156 -11.796875 21.710938 -14.28125 21.640625 -17.125 C 20.691406 -15.664062 19.445312 -14.507812 17.90625 -13.65625 C 16.363281 -12.8125 14.75 -12.390625 13.0625 -12.390625 C 11.03125 -12.390625 9.179688 -12.878906 7.515625 -13.859375 C 5.859375 -14.847656 4.554688 -16.238281 3.609375 -18.03125 C 2.660156 -19.832031 2.1875 -21.898438 2.1875 -24.234375 C 2.1875 -26.609375 2.675781 -28.726562 3.65625 -30.59375 C 4.632812 -32.457031 5.988281 -33.910156 7.71875 -34.953125 C 9.445312 -36.003906 11.414062 -36.53125 13.625 -36.53125 Z M 6.765625 -24.140625 C 6.765625 -21.835938 7.457031 -19.945312 8.84375 -18.46875 C 10.226562 -17 11.957031 -16.265625 14.03125 -16.265625 C 16.15625 -16.265625 17.867188 -17.015625 19.171875 -18.515625 C 20.484375 -20.023438 21.140625 -22 21.140625 -24.4375 C 21.140625 -26.84375 20.484375 -28.847656 19.171875 -30.453125 C 17.867188 -32.066406 16.1875 -32.875 14.125 -32.875 C 12.800781 -32.875 11.570312 -32.472656 10.4375 -31.671875 C 9.300781 -30.878906 8.40625 -29.8125 7.75 -28.46875 C 7.09375 -27.132812 6.765625 -25.691406 6.765625 -24.140625 Z M 6.765625 -24.140625 "/></g></g></g><g fill="#bebebe" fill-opacity="1"><g transform="translate(95.686296, 90.342793)"><g><path d="M 9.65625 -21.234375 L 4.578125 -21.234375 L 4.578125 -26.328125 L 9.65625 -26.328125 Z M 9.65625 0 L 4.578125 0 L 4.578125 -5.078125 L 9.65625 -5.078125 Z M 9.65625 0 "/></g></g></g><g fill="#bebebe" fill-opacity="1"><g transform="translate(109.80967, 90.342793)"><g><path d="M 21.03125 -12.8125 L 25.921875 -12.8125 L 25.921875 -8.6875 L 21.03125 -8.6875 L 21.03125 0 L 16.5625 0 L 16.5625 -8.6875 L 0.765625 -8.6875 L 0.765625 -12.8125 L 17.375 -36.375 L 21.03125 -36.375 Z M 5.125 -12.8125 L 16.5625 -12.8125 L 16.5625 -29.21875 Z M 5.125 -12.8125 "/></g></g></g><g fill="#bebebe" fill-opacity="1"><g transform="translate(138.056429, 90.342793)"><g><path d="M 24.546875 -31.609375 L 10.015625 -31.609375 L 8.078125 -21.84375 C 10.242188 -23.332031 12.53125 -24.078125 14.9375 -24.078125 C 16.96875 -24.078125 18.847656 -23.59375 20.578125 -22.625 C 22.304688 -21.664062 23.6875 -20.285156 24.71875 -18.484375 C 25.75 -16.691406 26.265625 -14.644531 26.265625 -12.34375 C 26.265625 -9.90625 25.726562 -7.703125 24.65625 -5.734375 C 23.59375 -3.773438 22.128906 -2.226562 20.265625 -1.09375 C 18.410156 0.0390625 16.332031 0.609375 14.03125 0.609375 C 10.707031 0.609375 7.96875 -0.296875 5.8125 -2.109375 C 3.664062 -3.921875 2.441406 -6.398438 2.140625 -9.546875 L 6.8125 -9.90625 C 7.144531 -7.675781 7.929688 -5.972656 9.171875 -4.796875 C 10.410156 -3.628906 11.960938 -3.046875 13.828125 -3.046875 C 16.085938 -3.046875 17.929688 -3.882812 19.359375 -5.5625 C 20.785156 -7.238281 21.5 -9.46875 21.5 -12.25 C 21.5 -14.550781 20.773438 -16.453125 19.328125 -17.953125 C 17.890625 -19.460938 16.019531 -20.21875 13.71875 -20.21875 C 11.957031 -20.21875 10.515625 -19.8125 9.390625 -19 C 8.273438 -18.1875 7.515625 -17.410156 7.109375 -16.671875 L 2.953125 -17.21875 L 6.453125 -35.875 L 24.546875 -35.875 Z M 24.546875 -31.609375 "/></g></g></g></svg>