<svg xmlns="http://www.w3.org/2000/svg" xmlns:xlink="http://www.w3.org/1999/xlink" width="300" zoomAndPan="magnify" viewBox="0 0 224.87999 168.749997" height="225" preserveAspectRatio="xMidYMid meet" version="1.0"><defs><g/><clipPath id="707d86e3ab"><path d="M 5.984375 6.179688 L 219.1875 6.179688 L 219.1875 162.5625 L 5.984375 162.5625 Z M 5.984375 6.179688 " clip-rule="nonzero"/></clipPath><clipPath id="363a9ca83b"><path d="M 0.105469 0 L 224.652344 0 L 224.652344 124 L 0.105469 124 Z M 0.105469 0 " clip-rule="nonzero"/></clipPath></defs><g clip-path="url(#707d86e3ab)"><path fill="#ececec" d="M 5.984375 6.179688 L 219.179688 6.179688 L 219.179688 162.5625 L 5.984375 162.5625 Z M 5.984375 6.179688 " fill-opacity="1" fill-rule="nonzero"/></g><g fill="#423e3e" fill-opacity="1"><g transform="translate(75.420031, 145.878556)"><g><path d="M 0.8125 -7.421875 C 0.8125 -8.492188 1.007812 -9.492188 1.40625 -10.421875 C 1.8125 -11.347656 2.367188 -12.160156 3.078125 -12.859375 C 3.785156 -13.554688 4.601562 -14.097656 5.53125 -14.484375 C 6.457031 -14.878906 7.453125 -15.078125 8.515625 -15.078125 C 9.492188 -15.078125 10.429688 -14.90625 11.328125 -14.5625 C 12.234375 -14.226562 13.03125 -13.734375 13.71875 -13.078125 C 14.40625 -12.429688 14.914062 -11.640625 15.25 -10.703125 L 12.4375 -9.40625 C 12.125 -10.226562 11.625 -10.878906 10.9375 -11.359375 C 10.25 -11.835938 9.4375 -12.078125 8.5 -12.078125 C 7.632812 -12.078125 6.863281 -11.867188 6.1875 -11.453125 C 5.507812 -11.035156 4.972656 -10.472656 4.578125 -9.765625 C 4.191406 -9.066406 4 -8.296875 4 -7.453125 C 4 -6.597656 4.191406 -5.816406 4.578125 -5.109375 C 4.960938 -4.398438 5.492188 -3.832031 6.171875 -3.40625 C 6.847656 -2.976562 7.625 -2.765625 8.5 -2.765625 C 9.4375 -2.765625 10.253906 -3.019531 10.953125 -3.53125 C 11.648438 -4.050781 12.160156 -4.710938 12.484375 -5.515625 L 15.3125 -4.21875 C 14.96875 -3.28125 14.441406 -2.476562 13.734375 -1.8125 C 13.023438 -1.15625 12.210938 -0.65625 11.296875 -0.3125 C 10.378906 0.03125 9.429688 0.203125 8.453125 0.203125 C 7.378906 0.203125 6.378906 0.0078125 5.453125 -0.375 C 4.523438 -0.757812 3.710938 -1.296875 3.015625 -1.984375 C 2.316406 -2.671875 1.773438 -3.476562 1.390625 -4.40625 C 1.003906 -5.332031 0.8125 -6.335938 0.8125 -7.421875 Z M 0.8125 -7.421875 "/></g></g></g><g fill="#423e3e" fill-opacity="1"><g transform="translate(91.201422, 145.878556)"><g><path d="M 1.71875 -14.859375 L 4.78125 -14.859375 L 4.78125 -2.921875 L 11.140625 -2.921875 L 11.140625 0 L 1.71875 0 Z M 1.71875 -14.859375 "/></g></g></g><g fill="#423e3e" fill-opacity="1"><g transform="translate(102.6581, 145.878556)"><g><path d="M 0.8125 -7.421875 C 0.8125 -8.484375 1.015625 -9.476562 1.421875 -10.40625 C 1.828125 -11.332031 2.382812 -12.144531 3.09375 -12.84375 C 3.800781 -13.550781 4.625 -14.097656 5.5625 -14.484375 C 6.507812 -14.878906 7.515625 -15.078125 8.578125 -15.078125 C 9.640625 -15.078125 10.632812 -14.882812 11.5625 -14.5 C 12.488281 -14.113281 13.300781 -13.578125 14 -12.890625 C 14.707031 -12.203125 15.253906 -11.394531 15.640625 -10.46875 C 16.035156 -9.550781 16.234375 -8.5625 16.234375 -7.5 C 16.234375 -6.414062 16.035156 -5.40625 15.640625 -4.46875 C 15.242188 -3.539062 14.6875 -2.722656 13.96875 -2.015625 C 13.257812 -1.304688 12.4375 -0.753906 11.5 -0.359375 C 10.5625 0.0351562 9.5625 0.234375 8.5 0.234375 C 7.4375 0.234375 6.4375 0.0351562 5.5 -0.359375 C 4.570312 -0.753906 3.757812 -1.296875 3.0625 -1.984375 C 2.363281 -2.679688 1.8125 -3.488281 1.40625 -4.40625 C 1.007812 -5.332031 0.8125 -6.335938 0.8125 -7.421875 Z M 3.96875 -7.4375 C 3.96875 -6.59375 4.164062 -5.8125 4.5625 -5.09375 C 4.96875 -4.375 5.519531 -3.800781 6.21875 -3.375 C 6.914062 -2.957031 7.6875 -2.75 8.53125 -2.75 C 9.394531 -2.75 10.171875 -2.957031 10.859375 -3.375 C 11.546875 -3.800781 12.09375 -4.375 12.5 -5.09375 C 12.90625 -5.8125 13.109375 -6.59375 13.109375 -7.4375 C 13.109375 -8.289062 12.90625 -9.066406 12.5 -9.765625 C 12.09375 -10.472656 11.546875 -11.039062 10.859375 -11.46875 C 10.171875 -11.894531 9.394531 -12.109375 8.53125 -12.109375 C 7.6875 -12.109375 6.914062 -11.894531 6.21875 -11.46875 C 5.519531 -11.039062 4.96875 -10.472656 4.5625 -9.765625 C 4.164062 -9.066406 3.96875 -8.289062 3.96875 -7.4375 Z M 3.96875 -7.4375 "/></g></g></g><g fill="#423e3e" fill-opacity="1"><g transform="translate(119.710351, 145.878556)"><g><path d="M 0.8125 -7.421875 C 0.8125 -8.492188 1.007812 -9.492188 1.40625 -10.421875 C 1.8125 -11.347656 2.367188 -12.160156 3.078125 -12.859375 C 3.785156 -13.554688 4.601562 -14.097656 5.53125 -14.484375 C 6.457031 -14.878906 7.453125 -15.078125 8.515625 -15.078125 C 9.492188 -15.078125 10.429688 -14.90625 11.328125 -14.5625 C 12.234375 -14.226562 13.03125 -13.734375 13.71875 -13.078125 C 14.40625 -12.429688 14.914062 -11.640625 15.25 -10.703125 L 12.4375 -9.40625 C 12.125 -10.226562 11.625 -10.878906 10.9375 -11.359375 C 10.25 -11.835938 9.4375 -12.078125 8.5 -12.078125 C 7.632812 -12.078125 6.863281 -11.867188 6.1875 -11.453125 C 5.507812 -11.035156 4.972656 -10.472656 4.578125 -9.765625 C 4.191406 -9.066406 4 -8.296875 4 -7.453125 C 4 -6.597656 4.191406 -5.816406 4.578125 -5.109375 C 4.960938 -4.398438 5.492188 -3.832031 6.171875 -3.40625 C 6.847656 -2.976562 7.625 -2.765625 8.5 -2.765625 C 9.4375 -2.765625 10.253906 -3.019531 10.953125 -3.53125 C 11.648438 -4.050781 12.160156 -4.710938 12.484375 -5.515625 L 15.3125 -4.21875 C 14.96875 -3.28125 14.441406 -2.476562 13.734375 -1.8125 C 13.023438 -1.15625 12.210938 -0.65625 11.296875 -0.3125 C 10.378906 0.03125 9.429688 0.203125 8.453125 0.203125 C 7.378906 0.203125 6.378906 0.0078125 5.453125 -0.375 C 4.523438 -0.757812 3.710938 -1.296875 3.015625 -1.984375 C 2.316406 -2.671875 1.773438 -3.476562 1.390625 -4.40625 C 1.003906 -5.332031 0.8125 -6.335938 0.8125 -7.421875 Z M 0.8125 -7.421875 "/></g></g></g><g fill="#423e3e" fill-opacity="1"><g transform="translate(135.491742, 145.878556)"><g><path d="M 4.78125 0 L 1.71875 0 L 1.71875 -14.859375 L 4.78125 -14.859375 L 4.78125 -8.390625 L 9.875 -14.859375 L 13.71875 -14.859375 L 8.046875 -7.765625 L 14.09375 0 L 10.125 0 L 4.78125 -7.0625 Z M 4.78125 0 "/></g></g></g><path stroke-linecap="butt" transform="matrix(0.577613, 0, 0, 0.577613, 52.053473, 95.697454)" fill="none" stroke-linejoin="miter" d="M 0.00210234 13.001064 L 209.106381 13.001064 " stroke="#a6a6a6" stroke-width="26" stroke-opacity="1" stroke-miterlimit="4"/><g clip-path="url(#363a9ca83b)"><path stroke-linecap="butt" transform="matrix(0.577606, -0.00264605, 0.00264605, 0.577606, 52.01907, 30.819005)" fill="none" stroke-linejoin="miter" d="M 0.00210871 13.000419 L 209.095068 12.997966 " stroke="#a6a6a6" stroke-width="26" stroke-opacity="1" stroke-miterlimit="4"/></g><g fill="#bebebe" fill-opacity="1"><g transform="translate(63.31235, 83.955941)"><g><path d="M 10.921875 -28.234375 C 13.898438 -28.234375 16.175781 -27.039062 17.75 -24.65625 C 19.320312 -22.269531 20.109375 -18.671875 20.109375 -13.859375 C 20.109375 -9.046875 19.328125 -5.453125 17.765625 -3.078125 C 16.210938 -0.710938 13.941406 0.46875 10.953125 0.46875 C 4.828125 0.46875 1.765625 -4.304688 1.765625 -13.859375 C 1.765625 -18.546875 2.523438 -22.113281 4.046875 -24.5625 C 5.566406 -27.007812 7.859375 -28.234375 10.921875 -28.234375 Z M 5.296875 -13.859375 C 5.296875 -10.015625 5.738281 -7.132812 6.625 -5.21875 C 7.519531 -3.3125 8.953125 -2.359375 10.921875 -2.359375 C 12.910156 -2.359375 14.347656 -3.3125 15.234375 -5.21875 C 16.117188 -7.132812 16.5625 -10.015625 16.5625 -13.859375 C 16.5625 -17.890625 16.097656 -20.820312 15.171875 -22.65625 C 14.242188 -24.488281 12.8125 -25.40625 10.875 -25.40625 C 8.9375 -25.40625 7.519531 -24.445312 6.625 -22.53125 C 5.738281 -20.625 5.296875 -17.734375 5.296875 -13.859375 Z M 5.296875 -13.859375 "/></g></g></g><g fill="#bebebe" fill-opacity="1"><g transform="translate(85.1457, 83.955941)"><g><path d="M 10.515625 -28.234375 C 12.953125 -28.234375 15.035156 -27.410156 16.765625 -25.765625 C 17.890625 -24.660156 18.738281 -23.28125 19.3125 -21.625 C 19.894531 -19.976562 20.1875 -17.625 20.1875 -14.5625 C 20.1875 -10.320312 19.660156 -7.15625 18.609375 -5.0625 C 17.585938 -3 16.34375 -1.5625 14.875 -0.75 C 13.414062 0.0625 11.875 0.46875 10.25 0.46875 C 8 0.46875 6.160156 -0.140625 4.734375 -1.359375 C 3.304688 -2.578125 2.460938 -4.296875 2.203125 -6.515625 L 5.53125 -6.828125 C 5.820312 -5.285156 6.359375 -4.15625 7.140625 -3.4375 C 7.929688 -2.71875 9.03125 -2.359375 10.4375 -2.359375 C 11.695312 -2.359375 12.8125 -2.800781 13.78125 -3.6875 C 14.75 -4.582031 15.492188 -5.847656 16.015625 -7.484375 C 16.546875 -9.117188 16.785156 -11.035156 16.734375 -13.234375 C 15.992188 -12.109375 15.023438 -11.21875 13.828125 -10.5625 C 12.640625 -9.90625 11.394531 -9.578125 10.09375 -9.578125 C 8.519531 -9.578125 7.09375 -9.957031 5.8125 -10.71875 C 4.53125 -11.476562 3.519531 -12.550781 2.78125 -13.9375 C 2.050781 -15.320312 1.6875 -16.921875 1.6875 -18.734375 C 1.6875 -20.566406 2.066406 -22.203125 2.828125 -23.640625 C 3.585938 -25.078125 4.632812 -26.203125 5.96875 -27.015625 C 7.300781 -27.828125 8.816406 -28.234375 10.515625 -28.234375 Z M 5.21875 -18.65625 C 5.21875 -16.875 5.753906 -15.410156 6.828125 -14.265625 C 7.898438 -13.128906 9.238281 -12.5625 10.84375 -12.5625 C 12.488281 -12.5625 13.8125 -13.144531 14.8125 -14.3125 C 15.820312 -15.476562 16.328125 -17.003906 16.328125 -18.890625 C 16.328125 -20.742188 15.820312 -22.289062 14.8125 -23.53125 C 13.8125 -24.78125 12.515625 -25.40625 10.921875 -25.40625 C 9.898438 -25.40625 8.945312 -25.097656 8.0625 -24.484375 C 7.1875 -23.867188 6.492188 -23.039062 5.984375 -22 C 5.472656 -20.96875 5.21875 -19.851562 5.21875 -18.65625 Z M 5.21875 -18.65625 "/></g></g></g><g fill="#bebebe" fill-opacity="1"><g transform="translate(106.979049, 83.955941)"><g><path d="M 7.453125 -16.40625 L 3.53125 -16.40625 L 3.53125 -20.34375 L 7.453125 -20.34375 Z M 7.453125 0 L 3.53125 0 L 3.53125 -3.921875 L 7.453125 -3.921875 Z M 7.453125 0 "/></g></g></g><g fill="#bebebe" fill-opacity="1"><g transform="translate(117.89572, 83.955941)"><g><path d="M 16.25 -9.890625 L 20.03125 -9.890625 L 20.03125 -6.71875 L 16.25 -6.71875 L 16.25 0 L 12.796875 0 L 12.796875 -6.71875 L 0.59375 -6.71875 L 0.59375 -9.890625 L 13.421875 -28.109375 L 16.25 -28.109375 Z M 3.96875 -9.890625 L 12.796875 -9.890625 L 12.796875 -22.578125 Z M 3.96875 -9.890625 "/></g></g></g><g fill="#bebebe" fill-opacity="1"><g transform="translate(139.729069, 83.955941)"><g><path d="M 18.96875 -24.421875 L 7.734375 -24.421875 L 6.25 -16.890625 C 7.914062 -18.035156 9.679688 -18.609375 11.546875 -18.609375 C 13.117188 -18.609375 14.570312 -18.234375 15.90625 -17.484375 C 17.238281 -16.742188 18.300781 -15.679688 19.09375 -14.296875 C 19.894531 -12.910156 20.296875 -11.328125 20.296875 -9.546875 C 20.296875 -7.660156 19.882812 -5.957031 19.0625 -4.4375 C 18.238281 -2.914062 17.101562 -1.71875 15.65625 -0.84375 C 14.21875 0.03125 12.613281 0.46875 10.84375 0.46875 C 8.269531 0.46875 6.148438 -0.226562 4.484375 -1.625 C 2.828125 -3.03125 1.882812 -4.945312 1.65625 -7.375 L 5.265625 -7.65625 C 5.523438 -5.925781 6.128906 -4.609375 7.078125 -3.703125 C 8.035156 -2.804688 9.238281 -2.359375 10.6875 -2.359375 C 12.4375 -2.359375 13.859375 -3.003906 14.953125 -4.296875 C 16.054688 -5.597656 16.609375 -7.320312 16.609375 -9.46875 C 16.609375 -11.25 16.050781 -12.71875 14.9375 -13.875 C 13.820312 -15.039062 12.378906 -15.625 10.609375 -15.625 C 9.242188 -15.625 8.128906 -15.3125 7.265625 -14.6875 C 6.398438 -14.0625 5.8125 -13.457031 5.5 -12.875 L 2.28125 -13.3125 L 4.984375 -27.71875 L 18.96875 -27.71875 Z M 18.96875 -24.421875 "/></g></g></g></svg>