<svg xmlns="http://www.w3.org/2000/svg" xmlns:xlink="http://www.w3.org/1999/xlink" width="61" zoomAndPan="magnify" viewBox="0 0 45.75 30.000001" height="40" preserveAspectRatio="xMidYMid meet" version="1.2"><defs><clipPath id="d929d244b9"><path d="M 0.617188 0 L 44.890625 0 L 44.890625 29.03125 L 0.617188 29.03125 Z M 0.617188 0 "/></clipPath><clipPath id="135008d113"><path d="M 9 1 L 36 1 L 36 28 L 9 28 Z M 9 1 "/></clipPath><clipPath id="8e6e95fbe4"><path d="M 10.054688 1.210938 L 36.058594 1.816406 L 35.453125 27.820312 L 9.449219 27.214844 Z M 10.054688 1.210938 "/></clipPath><clipPath id="a80b56620b"><path d="M 23.058594 1.515625 C 15.875 1.347656 9.917969 7.03125 9.75 14.214844 C 9.585938 21.394531 15.269531 27.351562 22.453125 27.519531 C 29.632812 27.6875 35.589844 22 35.757812 14.820312 C 35.921875 7.636719 30.238281 1.679688 23.058594 1.515625 Z M 23.058594 1.515625 "/></clipPath><clipPath id="ad3c297ebe"><path d="M 20.59375 12.207031 L 25.210938 12.207031 L 25.210938 16.828125 L 20.59375 16.828125 Z M 20.59375 12.207031 "/></clipPath><clipPath id="e975e79a47"><path d="M 22.902344 12.207031 C 21.625 12.207031 20.59375 13.242188 20.59375 14.515625 C 20.59375 15.792969 21.625 16.828125 22.902344 16.828125 C 24.179688 16.828125 25.210938 15.792969 25.210938 14.515625 C 25.210938 13.242188 24.179688 12.207031 22.902344 12.207031 Z M 22.902344 12.207031 "/></clipPath></defs><g id="874f6642aa"><g clip-rule="nonzero" clip-path="url(#d929d244b9)"><path style=" stroke:none;fill-rule:nonzero;fill:#ffffff;fill-opacity:1;" d="M 0.617188 0 L 44.890625 0 L 44.890625 29.03125 L 0.617188 29.03125 Z M 0.617188 0 "/><path style=" stroke:none;fill-rule:nonzero;fill:#ffffff;fill-opacity:1;" d="M 0.617188 0 L 44.890625 0 L 44.890625 29.03125 L 0.617188 29.03125 Z M 0.617188 0 "/></g><g clip-rule="nonzero" clip-path="url(#135008d113)"><g clip-rule="nonzero" clip-path="url(#8e6e95fbe4)"><g clip-rule="nonzero" clip-path="url(#a80b56620b)"><path style=" stroke:none;fill-rule:nonzero;fill:#a6a6a6;fill-opacity:1;" d="M 10.054688 1.210938 L 36.058594 1.816406 L 35.453125 27.820312 L 9.449219 27.214844 Z M 10.054688 1.210938 "/></g></g></g><path style="fill:none;stroke-width:17;stroke-linecap:butt;stroke-linejoin:miter;stroke:#333333;stroke-opacity:1;stroke-miterlimit:4;" d="M 0.00996694 8.490429 L 62.929506 8.490429 " transform="matrix(0.173026,0.000000000000000078,-0.000000000000000078,0.173026,11.759994,13.218435)"/><g clip-rule="nonzero" clip-path="url(#ad3c297ebe)"><g clip-rule="nonzero" clip-path="url(#e975e79a47)"><path style=" stroke:none;fill-rule:nonzero;fill:#333333;fill-opacity:1;" d="M 20.59375 12.207031 L 25.210938 12.207031 L 25.210938 16.828125 L 20.59375 16.828125 Z M 20.59375 12.207031 "/></g></g></g></svg>