<svg xmlns="http://www.w3.org/2000/svg" xmlns:xlink="http://www.w3.org/1999/xlink" width="300" zoomAndPan="magnify" viewBox="0 0 224.87999 168.749997" height="225" preserveAspectRatio="xMidYMid meet" version="1.0"><defs><g/><clipPath id="ab961d62b3"><path d="M 5.984375 6.179688 L 219.1875 6.179688 L 219.1875 162.5625 L 5.984375 162.5625 Z M 5.984375 6.179688 " clip-rule="nonzero"/></clipPath><clipPath id="599f9147f1"><path d="M 68 25 L 156 25 L 156 113 L 68 113 Z M 68 25 " clip-rule="nonzero"/></clipPath><clipPath id="d9a4517cf6"><path d="M 69.925781 24.398438 L 156.980469 26.425781 L 154.953125 113.480469 L 67.898438 111.453125 Z M 69.925781 24.398438 " clip-rule="nonzero"/></clipPath><clipPath id="9129513034"><path d="M 113.453125 25.410156 C 89.414062 24.851562 69.472656 43.886719 68.914062 67.925781 C 68.351562 91.964844 87.386719 111.90625 111.425781 112.464844 C 135.464844 113.027344 155.40625 93.992188 155.96875 69.953125 C 156.527344 45.914062 137.492188 25.972656 113.453125 25.410156 Z M 113.453125 25.410156 " clip-rule="nonzero"/></clipPath><clipPath id="195571f92d"><path d="M 105.203125 61.207031 L 120.671875 61.207031 L 120.671875 76.671875 L 105.203125 76.671875 Z M 105.203125 61.207031 " clip-rule="nonzero"/></clipPath><clipPath id="f1411d3388"><path d="M 112.9375 61.207031 C 108.667969 61.207031 105.203125 64.667969 105.203125 68.9375 C 105.203125 73.210938 108.667969 76.671875 112.9375 76.671875 C 117.207031 76.671875 120.671875 73.210938 120.671875 68.9375 C 120.671875 64.667969 117.207031 61.207031 112.9375 61.207031 Z M 112.9375 61.207031 " clip-rule="nonzero"/></clipPath></defs><g clip-path="url(#ab961d62b3)"><path fill="#ececec" d="M 5.984375 6.179688 L 219.179688 6.179688 L 219.179688 162.5625 L 5.984375 162.5625 Z M 5.984375 6.179688 " fill-opacity="1" fill-rule="nonzero"/></g><g fill="#423e3e" fill-opacity="1"><g transform="translate(19.620856, 145.878556)"><g><path d="M 0.8125 -7.421875 C 0.8125 -8.492188 1.007812 -9.492188 1.40625 -10.421875 C 1.8125 -11.347656 2.367188 -12.160156 3.078125 -12.859375 C 3.785156 -13.554688 4.601562 -14.097656 5.53125 -14.484375 C 6.457031 -14.878906 7.453125 -15.078125 8.515625 -15.078125 C 9.492188 -15.078125 10.429688 -14.90625 11.328125 -14.5625 C 12.234375 -14.226562 13.03125 -13.734375 13.71875 -13.078125 C 14.40625 -12.429688 14.914062 -11.640625 15.25 -10.703125 L 12.4375 -9.40625 C 12.125 -10.226562 11.625 -10.878906 10.9375 -11.359375 C 10.25 -11.835938 9.4375 -12.078125 8.5 -12.078125 C 7.632812 -12.078125 6.863281 -11.867188 6.1875 -11.453125 C 5.507812 -11.035156 4.972656 -10.472656 4.578125 -9.765625 C 4.191406 -9.066406 4 -8.296875 4 -7.453125 C 4 -6.597656 4.191406 -5.816406 4.578125 -5.109375 C 4.960938 -4.398438 5.492188 -3.832031 6.171875 -3.40625 C 6.847656 -2.976562 7.625 -2.765625 8.5 -2.765625 C 9.4375 -2.765625 10.253906 -3.019531 10.953125 -3.53125 C 11.648438 -4.050781 12.160156 -4.710938 12.484375 -5.515625 L 15.3125 -4.21875 C 14.96875 -3.28125 14.441406 -2.476562 13.734375 -1.8125 C 13.023438 -1.15625 12.210938 -0.65625 11.296875 -0.3125 C 10.378906 0.03125 9.429688 0.203125 8.453125 0.203125 C 7.378906 0.203125 6.378906 0.0078125 5.453125 -0.375 C 4.523438 -0.757812 3.710938 -1.296875 3.015625 -1.984375 C 2.316406 -2.671875 1.773438 -3.476562 1.390625 -4.40625 C 1.003906 -5.332031 0.8125 -6.335938 0.8125 -7.421875 Z M 0.8125 -7.421875 "/></g></g></g><g fill="#423e3e" fill-opacity="1"><g transform="translate(35.402247, 145.878556)"><g><path d="M 1.71875 -14.859375 L 4.78125 -14.859375 L 4.78125 -2.921875 L 11.140625 -2.921875 L 11.140625 0 L 1.71875 0 Z M 1.71875 -14.859375 "/></g></g></g><g fill="#423e3e" fill-opacity="1"><g transform="translate(46.858925, 145.878556)"><g><path d="M 0.8125 -7.421875 C 0.8125 -8.484375 1.015625 -9.476562 1.421875 -10.40625 C 1.828125 -11.332031 2.382812 -12.144531 3.09375 -12.84375 C 3.800781 -13.550781 4.625 -14.097656 5.5625 -14.484375 C 6.507812 -14.878906 7.515625 -15.078125 8.578125 -15.078125 C 9.640625 -15.078125 10.632812 -14.882812 11.5625 -14.5 C 12.488281 -14.113281 13.300781 -13.578125 14 -12.890625 C 14.707031 -12.203125 15.253906 -11.394531 15.640625 -10.46875 C 16.035156 -9.550781 16.234375 -8.5625 16.234375 -7.5 C 16.234375 -6.414062 16.035156 -5.40625 15.640625 -4.46875 C 15.242188 -3.539062 14.6875 -2.722656 13.96875 -2.015625 C 13.257812 -1.304688 12.4375 -0.753906 11.5 -0.359375 C 10.5625 0.0351562 9.5625 0.234375 8.5 0.234375 C 7.4375 0.234375 6.4375 0.0351562 5.5 -0.359375 C 4.570312 -0.753906 3.757812 -1.296875 3.0625 -1.984375 C 2.363281 -2.679688 1.8125 -3.488281 1.40625 -4.40625 C 1.007812 -5.332031 0.8125 -6.335938 0.8125 -7.421875 Z M 3.96875 -7.4375 C 3.96875 -6.59375 4.164062 -5.8125 4.5625 -5.09375 C 4.96875 -4.375 5.519531 -3.800781 6.21875 -3.375 C 6.914062 -2.957031 7.6875 -2.75 8.53125 -2.75 C 9.394531 -2.75 10.171875 -2.957031 10.859375 -3.375 C 11.546875 -3.800781 12.09375 -4.375 12.5 -5.09375 C 12.90625 -5.8125 13.109375 -6.59375 13.109375 -7.4375 C 13.109375 -8.289062 12.90625 -9.066406 12.5 -9.765625 C 12.09375 -10.472656 11.546875 -11.039062 10.859375 -11.46875 C 10.171875 -11.894531 9.394531 -12.109375 8.53125 -12.109375 C 7.6875 -12.109375 6.914062 -11.894531 6.21875 -11.46875 C 5.519531 -11.039062 4.96875 -10.472656 4.5625 -9.765625 C 4.164062 -9.066406 3.96875 -8.289062 3.96875 -7.4375 Z M 3.96875 -7.4375 "/></g></g></g><g fill="#423e3e" fill-opacity="1"><g transform="translate(63.911177, 145.878556)"><g><path d="M 0.8125 -7.421875 C 0.8125 -8.492188 1.007812 -9.492188 1.40625 -10.421875 C 1.8125 -11.347656 2.367188 -12.160156 3.078125 -12.859375 C 3.785156 -13.554688 4.601562 -14.097656 5.53125 -14.484375 C 6.457031 -14.878906 7.453125 -15.078125 8.515625 -15.078125 C 9.492188 -15.078125 10.429688 -14.90625 11.328125 -14.5625 C 12.234375 -14.226562 13.03125 -13.734375 13.71875 -13.078125 C 14.40625 -12.429688 14.914062 -11.640625 15.25 -10.703125 L 12.4375 -9.40625 C 12.125 -10.226562 11.625 -10.878906 10.9375 -11.359375 C 10.25 -11.835938 9.4375 -12.078125 8.5 -12.078125 C 7.632812 -12.078125 6.863281 -11.867188 6.1875 -11.453125 C 5.507812 -11.035156 4.972656 -10.472656 4.578125 -9.765625 C 4.191406 -9.066406 4 -8.296875 4 -7.453125 C 4 -6.597656 4.191406 -5.816406 4.578125 -5.109375 C 4.960938 -4.398438 5.492188 -3.832031 6.171875 -3.40625 C 6.847656 -2.976562 7.625 -2.765625 8.5 -2.765625 C 9.4375 -2.765625 10.253906 -3.019531 10.953125 -3.53125 C 11.648438 -4.050781 12.160156 -4.710938 12.484375 -5.515625 L 15.3125 -4.21875 C 14.96875 -3.28125 14.441406 -2.476562 13.734375 -1.8125 C 13.023438 -1.15625 12.210938 -0.65625 11.296875 -0.3125 C 10.378906 0.03125 9.429688 0.203125 8.453125 0.203125 C 7.378906 0.203125 6.378906 0.0078125 5.453125 -0.375 C 4.523438 -0.757812 3.710938 -1.296875 3.015625 -1.984375 C 2.316406 -2.671875 1.773438 -3.476562 1.390625 -4.40625 C 1.003906 -5.332031 0.8125 -6.335938 0.8125 -7.421875 Z M 0.8125 -7.421875 "/></g></g></g><g fill="#423e3e" fill-opacity="1"><g transform="translate(79.692568, 145.878556)"><g><path d="M 4.78125 0 L 1.71875 0 L 1.71875 -14.859375 L 4.78125 -14.859375 L 4.78125 -8.390625 L 9.875 -14.859375 L 13.71875 -14.859375 L 8.046875 -7.765625 L 14.09375 0 L 10.125 0 L 4.78125 -7.0625 Z M 4.78125 0 "/></g></g></g><g fill="#423e3e" fill-opacity="1"><g transform="translate(93.653028, 145.878556)"><g/></g></g><g fill="#423e3e" fill-opacity="1"><g transform="translate(98.413995, 145.878556)"><g><path d="M 6.140625 2.59375 C 4.503906 1.675781 3.210938 0.441406 2.265625 -1.109375 C 1.328125 -2.660156 0.859375 -4.503906 0.859375 -6.640625 L 0.859375 -7.34375 C 0.859375 -9.476562 1.328125 -11.316406 2.265625 -12.859375 C 3.210938 -14.398438 4.503906 -15.632812 6.140625 -16.5625 L 7.4375 -14.828125 C 6.25 -13.960938 5.300781 -12.914062 4.59375 -11.6875 C 3.882812 -10.46875 3.53125 -9.015625 3.53125 -7.328125 L 3.53125 -6.640625 C 3.53125 -4.941406 3.882812 -3.476562 4.59375 -2.25 C 5.300781 -1.03125 6.25 0.0078125 7.4375 0.875 Z M 6.140625 2.59375 "/></g></g></g><g fill="#423e3e" fill-opacity="1"><g transform="translate(106.228814, 145.878556)"><g><path d="M 3.078125 0 L -0.015625 0 L 5.65625 -14.859375 L 9.359375 -14.859375 L 15.046875 0 L 11.875 0 L 10.75 -3 L 4.171875 -3 Z M 7.46875 -11.875 L 5.234375 -5.84375 L 9.71875 -5.84375 Z M 7.46875 -11.875 "/></g></g></g><g fill="#423e3e" fill-opacity="1"><g transform="translate(121.251487, 145.878556)"><g><path d="M 4.765625 -10.25 L 4.765625 0 L 1.71875 0 L 1.71875 -14.859375 L 5.234375 -14.859375 L 11.6875 -5.15625 L 11.6875 -14.859375 L 14.71875 -14.859375 L 14.71875 0 L 11.59375 0 Z M 4.765625 -10.25 "/></g></g></g><g fill="#423e3e" fill-opacity="1"><g transform="translate(137.715731, 145.878556)"><g><path d="M 3.078125 0 L -0.015625 0 L 5.65625 -14.859375 L 9.359375 -14.859375 L 15.046875 0 L 11.875 0 L 10.75 -3 L 4.171875 -3 Z M 7.46875 -11.875 L 5.234375 -5.84375 L 9.71875 -5.84375 Z M 7.46875 -11.875 "/></g></g></g><g fill="#423e3e" fill-opacity="1"><g transform="translate(152.738403, 145.878556)"><g><path d="M 1.71875 -14.859375 L 4.78125 -14.859375 L 4.78125 -2.921875 L 11.140625 -2.921875 L 11.140625 0 L 1.71875 0 Z M 1.71875 -14.859375 "/></g></g></g><g fill="#423e3e" fill-opacity="1"><g transform="translate(164.195082, 145.878556)"><g><path d="M 0.8125 -7.421875 C 0.8125 -8.484375 1.015625 -9.476562 1.421875 -10.40625 C 1.828125 -11.332031 2.382812 -12.144531 3.09375 -12.84375 C 3.800781 -13.550781 4.625 -14.097656 5.5625 -14.484375 C 6.507812 -14.878906 7.515625 -15.078125 8.578125 -15.078125 C 9.640625 -15.078125 10.632812 -14.882812 11.5625 -14.5 C 12.488281 -14.113281 13.300781 -13.578125 14 -12.890625 C 14.707031 -12.203125 15.253906 -11.394531 15.640625 -10.46875 C 16.035156 -9.550781 16.234375 -8.5625 16.234375 -7.5 C 16.234375 -6.414062 16.035156 -5.40625 15.640625 -4.46875 C 15.242188 -3.539062 14.6875 -2.722656 13.96875 -2.015625 C 13.257812 -1.304688 12.4375 -0.753906 11.5 -0.359375 C 10.5625 0.0351562 9.5625 0.234375 8.5 0.234375 C 7.4375 0.234375 6.4375 0.0351562 5.5 -0.359375 C 4.570312 -0.753906 3.757812 -1.296875 3.0625 -1.984375 C 2.363281 -2.679688 1.8125 -3.488281 1.40625 -4.40625 C 1.007812 -5.332031 0.8125 -6.335938 0.8125 -7.421875 Z M 3.96875 -7.4375 C 3.96875 -6.59375 4.164062 -5.8125 4.5625 -5.09375 C 4.96875 -4.375 5.519531 -3.800781 6.21875 -3.375 C 6.914062 -2.957031 7.6875 -2.75 8.53125 -2.75 C 9.394531 -2.75 10.171875 -2.957031 10.859375 -3.375 C 11.546875 -3.800781 12.09375 -4.375 12.5 -5.09375 C 12.90625 -5.8125 13.109375 -6.59375 13.109375 -7.4375 C 13.109375 -8.289062 12.90625 -9.066406 12.5 -9.765625 C 12.09375 -10.472656 11.546875 -11.039062 10.859375 -11.46875 C 10.171875 -11.894531 9.394531 -12.109375 8.53125 -12.109375 C 7.6875 -12.109375 6.914062 -11.894531 6.21875 -11.46875 C 5.519531 -11.039062 4.96875 -10.472656 4.5625 -9.765625 C 4.164062 -9.066406 3.96875 -8.289062 3.96875 -7.4375 Z M 3.96875 -7.4375 "/></g></g></g><g fill="#423e3e" fill-opacity="1"><g transform="translate(181.247333, 145.878556)"><g><path d="M 3.953125 -7.4375 C 3.953125 -6.570312 4.144531 -5.78125 4.53125 -5.0625 C 4.914062 -4.34375 5.453125 -3.765625 6.140625 -3.328125 C 6.828125 -2.898438 7.617188 -2.6875 8.515625 -2.6875 C 9.523438 -2.6875 10.367188 -2.921875 11.046875 -3.390625 C 11.734375 -3.859375 12.164062 -4.460938 12.34375 -5.203125 L 7.828125 -5.203125 L 7.828125 -7.984375 L 15.546875 -7.984375 L 15.546875 -6.828125 C 15.546875 -5.679688 15.351562 -4.664062 14.96875 -3.78125 C 14.582031 -2.894531 14.054688 -2.15625 13.390625 -1.5625 C 12.734375 -0.976562 11.984375 -0.53125 11.140625 -0.21875 C 10.296875 0.0820312 9.421875 0.234375 8.515625 0.234375 C 7.367188 0.234375 6.320312 0.0351562 5.375 -0.359375 C 4.4375 -0.765625 3.625 -1.3125 2.9375 -2 C 2.257812 -2.695312 1.734375 -3.507812 1.359375 -4.4375 C 0.992188 -5.363281 0.8125 -6.359375 0.8125 -7.421875 C 0.8125 -8.503906 1.015625 -9.503906 1.421875 -10.421875 C 1.828125 -11.347656 2.382812 -12.160156 3.09375 -12.859375 C 3.8125 -13.566406 4.632812 -14.113281 5.5625 -14.5 C 6.5 -14.882812 7.5 -15.078125 8.5625 -15.078125 C 9.507812 -15.078125 10.359375 -14.945312 11.109375 -14.6875 C 11.859375 -14.425781 12.507812 -14.085938 13.0625 -13.671875 C 13.613281 -13.253906 14.066406 -12.800781 14.421875 -12.3125 C 14.785156 -11.832031 15.050781 -11.359375 15.21875 -10.890625 L 12.5 -9.5625 C 12.363281 -9.9375 12.132812 -10.328125 11.8125 -10.734375 C 11.488281 -11.140625 11.054688 -11.476562 10.515625 -11.75 C 9.984375 -12.03125 9.316406 -12.171875 8.515625 -12.171875 C 7.679688 -12.171875 6.921875 -11.960938 6.234375 -11.546875 C 5.546875 -11.128906 4.992188 -10.5625 4.578125 -9.84375 C 4.160156 -9.132812 3.953125 -8.332031 3.953125 -7.4375 Z M 3.953125 -7.4375 "/></g></g></g><g fill="#423e3e" fill-opacity="1"><g transform="translate(197.502928, 145.878556)"><g><path d="M 0.359375 0.921875 C 1.554688 0.0546875 2.5 -0.992188 3.1875 -2.234375 C 3.882812 -3.472656 4.234375 -4.941406 4.234375 -6.640625 L 4.234375 -7.328125 C 4.234375 -9.015625 3.882812 -10.476562 3.1875 -11.71875 C 2.5 -12.957031 1.554688 -14.015625 0.359375 -14.890625 L 1.59375 -16.5625 C 3.25 -15.632812 4.546875 -14.398438 5.484375 -12.859375 C 6.429688 -11.316406 6.90625 -9.476562 6.90625 -7.34375 L 6.90625 -6.640625 C 6.90625 -4.503906 6.429688 -2.660156 5.484375 -1.109375 C 4.546875 0.441406 3.25 1.675781 1.59375 2.59375 Z M 0.359375 0.921875 "/></g></g></g><g clip-path="url(#599f9147f1)"><g clip-path="url(#d9a4517cf6)"><g clip-path="url(#9129513034)"><path fill="#a6a6a6" d="M 69.925781 24.398438 L 156.980469 26.425781 L 154.953125 113.480469 L 67.898438 111.453125 Z M 69.925781 24.398438 " fill-opacity="1" fill-rule="nonzero"/></g></g></g><path stroke-linecap="butt" transform="matrix(0.579241, 0, 0, 0.579241, 75.635174, 64.594481)" fill="none" stroke-linejoin="miter" d="M 0.00266642 8.502599 L 62.921803 8.502599 " stroke="#333333" stroke-width="17" stroke-opacity="1" stroke-miterlimit="4"/><g clip-path="url(#195571f92d)"><g clip-path="url(#f1411d3388)"><path fill="#333333" d="M 105.203125 61.207031 L 120.671875 61.207031 L 120.671875 76.671875 L 105.203125 76.671875 Z M 105.203125 61.207031 " fill-opacity="1" fill-rule="nonzero"/></g></g></svg>