<svg xmlns="http://www.w3.org/2000/svg" xmlns:xlink="http://www.w3.org/1999/xlink" width="61" zoomAndPan="magnify" viewBox="0 0 45.75 30.000001" height="40" preserveAspectRatio="xMidYMid meet" version="1.2"><defs><clipPath id="1b559f8487"><path d="M 0.617188 22 L 44.890625 22 L 44.890625 28 L 0.617188 28 Z M 0.617188 22 "/></clipPath><clipPath id="23054e8af8"><path d="M 0.617188 0 L 44.890625 0 L 44.890625 29.03125 L 0.617188 29.03125 Z M 0.617188 0 "/></clipPath></defs><g id="8d14993f34"><g clip-rule="nonzero" clip-path="url(#1b559f8487)"><path style="fill:none;stroke-width:7;stroke-linecap:butt;stroke-linejoin:miter;stroke:#bab8b7;stroke-opacity:1;stroke-miterlimit:4;" d="M 0.00201079 3.499675 L 54.558782 3.499675 " transform="matrix(0.725806,0,0,0.725806,2.955572,22.702101)"/></g><g clip-rule="nonzero" clip-path="url(#23054e8af8)"><path style="fill:none;stroke-width:7;stroke-linecap:butt;stroke-linejoin:miter;stroke:#bab8b7;stroke-opacity:1;stroke-miterlimit:4;" d="M 0.00200163 3.502024 L 54.553979 3.498975 " transform="matrix(0.725799,-0.00332493,0.00332493,0.725799,2.943934,1.430898)"/></g><g style="fill:#bab8b7;fill-opacity:1;"><g transform="translate(6.646931, 18.93092)"><path style="stroke:none" d="M 3.578125 -9.25 C 4.554688 -9.25 5.300781 -8.859375 5.8125 -8.078125 C 6.332031 -7.296875 6.59375 -6.117188 6.59375 -4.546875 C 6.59375 -2.960938 6.335938 -1.78125 5.828125 -1 C 5.316406 -0.226562 4.570312 0.15625 3.59375 0.15625 C 1.582031 0.15625 0.578125 -1.410156 0.578125 -4.546875 C 0.578125 -6.078125 0.828125 -7.242188 1.328125 -8.046875 C 1.828125 -8.847656 2.578125 -9.25 3.578125 -9.25 Z M 1.734375 -4.546875 C 1.734375 -3.285156 1.878906 -2.335938 2.171875 -1.703125 C 2.460938 -1.078125 2.929688 -0.765625 3.578125 -0.765625 C 4.234375 -0.765625 4.707031 -1.078125 5 -1.703125 C 5.289062 -2.335938 5.4375 -3.285156 5.4375 -4.546875 C 5.4375 -5.867188 5.28125 -6.828125 4.96875 -7.421875 C 4.664062 -8.023438 4.195312 -8.328125 3.5625 -8.328125 C 2.925781 -8.328125 2.460938 -8.015625 2.171875 -7.390625 C 1.878906 -6.765625 1.734375 -5.816406 1.734375 -4.546875 Z M 1.734375 -4.546875 "/></g></g><g style="fill:#bab8b7;fill-opacity:1;"><g transform="translate(13.805263, 18.93092)"><path style="stroke:none" d="M 3.453125 -9.25 C 4.242188 -9.25 4.925781 -8.984375 5.5 -8.453125 C 5.863281 -8.085938 6.140625 -7.632812 6.328125 -7.09375 C 6.523438 -6.550781 6.625 -5.78125 6.625 -4.78125 C 6.625 -3.382812 6.453125 -2.34375 6.109375 -1.65625 C 5.765625 -0.976562 5.351562 -0.503906 4.875 -0.234375 C 4.394531 0.0234375 3.890625 0.15625 3.359375 0.15625 C 2.617188 0.15625 2.015625 -0.0390625 1.546875 -0.4375 C 1.078125 -0.84375 0.800781 -1.410156 0.71875 -2.140625 L 1.8125 -2.234375 C 1.90625 -1.734375 2.082031 -1.363281 2.34375 -1.125 C 2.601562 -0.882812 2.960938 -0.765625 3.421875 -0.765625 C 3.835938 -0.765625 4.203125 -0.910156 4.515625 -1.203125 C 4.835938 -1.492188 5.082031 -1.90625 5.25 -2.4375 C 5.425781 -2.976562 5.503906 -3.613281 5.484375 -4.34375 C 5.242188 -3.96875 4.925781 -3.671875 4.53125 -3.453125 C 4.144531 -3.242188 3.738281 -3.140625 3.3125 -3.140625 C 2.789062 -3.140625 2.320312 -3.265625 1.90625 -3.515625 C 1.488281 -3.765625 1.15625 -4.113281 0.90625 -4.5625 C 0.664062 -5.019531 0.546875 -5.546875 0.546875 -6.140625 C 0.546875 -6.742188 0.671875 -7.28125 0.921875 -7.75 C 1.171875 -8.21875 1.515625 -8.582031 1.953125 -8.84375 C 2.390625 -9.113281 2.890625 -9.25 3.453125 -9.25 Z M 1.71875 -6.109375 C 1.71875 -5.523438 1.890625 -5.046875 2.234375 -4.671875 C 2.585938 -4.304688 3.023438 -4.125 3.546875 -4.125 C 4.085938 -4.125 4.523438 -4.3125 4.859375 -4.6875 C 5.191406 -5.070312 5.359375 -5.570312 5.359375 -6.1875 C 5.359375 -6.800781 5.191406 -7.3125 4.859375 -7.71875 C 4.523438 -8.125 4.097656 -8.328125 3.578125 -8.328125 C 3.242188 -8.328125 2.929688 -8.222656 2.640625 -8.015625 C 2.359375 -7.816406 2.132812 -7.546875 1.96875 -7.203125 C 1.800781 -6.867188 1.71875 -6.503906 1.71875 -6.109375 Z M 1.71875 -6.109375 "/></g></g><g style="fill:#bab8b7;fill-opacity:1;"><g transform="translate(20.963594, 18.93092)"><path style="stroke:none" d="M 2.453125 -5.375 L 1.15625 -5.375 L 1.15625 -6.671875 L 2.453125 -6.671875 Z M 2.453125 0 L 1.15625 0 L 1.15625 -1.28125 L 2.453125 -1.28125 Z M 2.453125 0 "/></g></g><g style="fill:#bab8b7;fill-opacity:1;"><g transform="translate(24.542758, 18.93092)"><path style="stroke:none" d="M 5.328125 -3.25 L 6.5625 -3.25 L 6.5625 -2.203125 L 5.328125 -2.203125 L 5.328125 0 L 4.203125 0 L 4.203125 -2.203125 L 0.1875 -2.203125 L 0.1875 -3.25 L 4.40625 -9.21875 L 5.328125 -9.21875 Z M 1.296875 -3.25 L 4.203125 -3.25 L 4.203125 -7.40625 Z M 1.296875 -3.25 "/></g></g><g style="fill:#bab8b7;fill-opacity:1;"><g transform="translate(31.701089, 18.93092)"><path style="stroke:none" d="M 6.21875 -8.015625 L 2.53125 -8.015625 L 2.046875 -5.53125 C 2.597656 -5.914062 3.175781 -6.109375 3.78125 -6.109375 C 4.300781 -6.109375 4.78125 -5.984375 5.21875 -5.734375 C 5.65625 -5.492188 6.003906 -5.144531 6.265625 -4.6875 C 6.523438 -4.226562 6.65625 -3.707031 6.65625 -3.125 C 6.65625 -2.507812 6.519531 -1.953125 6.25 -1.453125 C 5.976562 -0.953125 5.601562 -0.554688 5.125 -0.265625 C 4.65625 0.015625 4.128906 0.15625 3.546875 0.15625 C 2.710938 0.15625 2.019531 -0.0703125 1.46875 -0.53125 C 0.925781 -0.988281 0.617188 -1.617188 0.546875 -2.421875 L 1.71875 -2.515625 C 1.8125 -1.941406 2.015625 -1.503906 2.328125 -1.203125 C 2.640625 -0.910156 3.03125 -0.765625 3.5 -0.765625 C 4.070312 -0.765625 4.539062 -0.976562 4.90625 -1.40625 C 5.269531 -1.832031 5.453125 -2.398438 5.453125 -3.109375 C 5.453125 -3.691406 5.269531 -4.171875 4.90625 -4.546875 C 4.539062 -4.929688 4.0625 -5.125 3.46875 -5.125 C 3.03125 -5.125 2.664062 -5.019531 2.375 -4.8125 C 2.09375 -4.601562 1.898438 -4.40625 1.796875 -4.21875 L 0.75 -4.359375 L 1.640625 -9.09375 L 6.21875 -9.09375 Z M 6.21875 -8.015625 "/></g></g></g></svg>