<svg xmlns="http://www.w3.org/2000/svg" xmlns:xlink="http://www.w3.org/1999/xlink" width="275" zoomAndPan="magnify" viewBox="0 0 206.25 187.499992" height="250" preserveAspectRatio="xMidYMid meet" version="1.0"><defs><g/><clipPath id="328b3eec17"><path d="M 6.664062 6.203125 L 198.839844 6.203125 L 198.839844 145.292969 L 6.664062 145.292969 Z M 6.664062 6.203125 " clip-rule="nonzero"/></clipPath><clipPath id="1387d31e35"><path d="M 63.035156 64.457031 L 73.238281 64.457031 L 73.238281 125.175781 L 63.035156 125.175781 Z M 63.035156 64.457031 " clip-rule="nonzero"/></clipPath><clipPath id="20eb9d3601"><path d="M 6.664062 151.675781 L 198.839844 151.675781 L 198.839844 176.78125 L 6.664062 176.78125 Z M 6.664062 151.675781 " clip-rule="nonzero"/></clipPath><clipPath id="a2a563fe20"><path d="M 73.238281 51.125 L 83.4375 51.125 L 83.4375 125.175781 L 73.238281 125.175781 Z M 73.238281 51.125 " clip-rule="nonzero"/></clipPath><clipPath id="9f3a1b2fb0"><path d="M 83.4375 91.078125 L 93.640625 91.078125 L 93.640625 125.175781 L 83.4375 125.175781 Z M 83.4375 91.078125 " clip-rule="nonzero"/></clipPath><clipPath id="8c501f18af"><path d="M 109.335938 38.902344 L 119.539062 38.902344 L 119.539062 125.175781 L 109.335938 125.175781 Z M 109.335938 38.902344 " clip-rule="nonzero"/></clipPath><clipPath id="0b1984d99f"><path d="M 119.539062 78.585938 L 129.738281 78.585938 L 129.738281 125.175781 L 119.539062 125.175781 Z M 119.539062 78.585938 " clip-rule="nonzero"/></clipPath><clipPath id="62efd87e6e"><path d="M 129.738281 69.992188 L 139.941406 69.992188 L 139.941406 125.175781 L 129.738281 125.175781 Z M 129.738281 69.992188 " clip-rule="nonzero"/></clipPath></defs><g clip-path="url(#328b3eec17)"><path fill="#ececec" d="M 6.664062 6.203125 L 199 6.203125 L 199 145.292969 L 6.664062 145.292969 Z M 6.664062 6.203125 " fill-opacity="1" fill-rule="nonzero"/></g><path stroke-linecap="butt" transform="matrix(-0.747283, 0, 0, -0.747283, 153.049895, 128.166301)" fill="none" stroke-linejoin="miter" d="M -0.00118606 1.999814 L 137.188592 1.999814 " stroke="#000000" stroke-width="4" stroke-opacity="1" stroke-miterlimit="4"/><path stroke-linecap="butt" transform="matrix(0.00000000130425, -0.747283, 0.747283, 0.00000000130425, 50.60408, 125.775683)" fill="none" stroke-linejoin="miter" d="M -0.00222198 1.998677 L 137.187556 1.998677 " stroke="#000000" stroke-width="4" stroke-opacity="1" stroke-miterlimit="4"/><g clip-path="url(#1387d31e35)"><path fill="#8b73ff" d="M 63.035156 64.457031 L 73.238281 64.457031 L 73.238281 125.195312 L 63.035156 125.195312 Z M 63.035156 64.457031 " fill-opacity="1" fill-rule="nonzero"/></g><g clip-path="url(#20eb9d3601)"><path fill="#ffffff" d="M 6.664062 151.675781 L 198.867188 151.675781 L 198.867188 176.78125 L 6.664062 176.78125 Z M 6.664062 151.675781 " fill-opacity="1" fill-rule="nonzero"/></g><g clip-path="url(#a2a563fe20)"><path fill="#96e17b" d="M 73.238281 51.125 L 83.4375 51.125 L 83.4375 125.171875 L 73.238281 125.171875 Z M 73.238281 51.125 " fill-opacity="1" fill-rule="nonzero"/></g><g clip-path="url(#9f3a1b2fb0)"><path fill="#ff9861" d="M 83.4375 91.078125 L 93.640625 91.078125 L 93.640625 125.191406 L 83.4375 125.191406 Z M 83.4375 91.078125 " fill-opacity="1" fill-rule="nonzero"/></g><g clip-path="url(#8c501f18af)"><path fill="#8b73ff" d="M 109.335938 38.902344 L 119.539062 38.902344 L 119.539062 125.183594 L 109.335938 125.183594 Z M 109.335938 38.902344 " fill-opacity="1" fill-rule="nonzero"/></g><g clip-path="url(#0b1984d99f)"><path fill="#96e17b" d="M 119.539062 78.585938 L 129.738281 78.585938 L 129.738281 125.171875 L 119.539062 125.171875 Z M 119.539062 78.585938 " fill-opacity="1" fill-rule="nonzero"/></g><g clip-path="url(#62efd87e6e)"><path fill="#ff9861" d="M 129.738281 69.992188 L 139.941406 69.992188 L 139.941406 125.1875 L 129.738281 125.1875 Z M 129.738281 69.992188 " fill-opacity="1" fill-rule="nonzero"/></g><g fill="#423e3e" fill-opacity="1"><g transform="translate(8.021611, 168.054492)"><g><path d="M 0.640625 -5.84375 C 0.640625 -6.695312 0.796875 -7.488281 1.109375 -8.21875 C 1.421875 -8.945312 1.859375 -9.582031 2.421875 -10.125 C 2.984375 -10.675781 3.628906 -11.109375 4.359375 -11.421875 C 5.085938 -11.734375 5.875 -11.890625 6.71875 -11.890625 C 7.476562 -11.890625 8.210938 -11.753906 8.921875 -11.484375 C 9.640625 -11.210938 10.269531 -10.820312 10.8125 -10.3125 C 11.363281 -9.800781 11.765625 -9.175781 12.015625 -8.4375 L 9.8125 -7.421875 C 9.5625 -8.066406 9.164062 -8.578125 8.625 -8.953125 C 8.082031 -9.335938 7.441406 -9.53125 6.703125 -9.53125 C 6.023438 -9.53125 5.414062 -9.363281 4.875 -9.03125 C 4.34375 -8.695312 3.921875 -8.253906 3.609375 -7.703125 C 3.304688 -7.148438 3.15625 -6.539062 3.15625 -5.875 C 3.15625 -5.195312 3.304688 -4.578125 3.609375 -4.015625 C 3.910156 -3.460938 4.328125 -3.019531 4.859375 -2.6875 C 5.398438 -2.351562 6.015625 -2.1875 6.703125 -2.1875 C 7.441406 -2.1875 8.085938 -2.382812 8.640625 -2.78125 C 9.191406 -3.1875 9.59375 -3.707031 9.84375 -4.34375 L 12.0625 -3.3125 C 11.789062 -2.582031 11.375 -1.957031 10.8125 -1.4375 C 10.257812 -0.914062 9.625 -0.515625 8.90625 -0.234375 C 8.1875 0.0351562 7.441406 0.171875 6.671875 0.171875 C 5.816406 0.171875 5.023438 0.0195312 4.296875 -0.28125 C 3.566406 -0.59375 2.925781 -1.019531 2.375 -1.5625 C 1.832031 -2.101562 1.40625 -2.738281 1.09375 -3.46875 C 0.789062 -4.207031 0.640625 -5 0.640625 -5.84375 Z M 0.640625 -5.84375 "/></g></g></g><g fill="#423e3e" fill-opacity="1"><g transform="translate(20.456382, 168.054492)"><g><path d="M 0.640625 -5.84375 C 0.640625 -6.6875 0.796875 -7.472656 1.109375 -8.203125 C 1.429688 -8.929688 1.875 -9.570312 2.4375 -10.125 C 3 -10.675781 3.648438 -11.109375 4.390625 -11.421875 C 5.128906 -11.734375 5.921875 -11.890625 6.765625 -11.890625 C 7.597656 -11.890625 8.378906 -11.734375 9.109375 -11.421875 C 9.847656 -11.117188 10.492188 -10.695312 11.046875 -10.15625 C 11.597656 -9.613281 12.023438 -8.976562 12.328125 -8.25 C 12.640625 -7.519531 12.796875 -6.738281 12.796875 -5.90625 C 12.796875 -5.0625 12.640625 -4.269531 12.328125 -3.53125 C 12.015625 -2.789062 11.578125 -2.140625 11.015625 -1.578125 C 10.453125 -1.023438 9.800781 -0.59375 9.0625 -0.28125 C 8.320312 0.0195312 7.535156 0.171875 6.703125 0.171875 C 5.859375 0.171875 5.070312 0.0195312 4.34375 -0.28125 C 3.613281 -0.59375 2.96875 -1.019531 2.40625 -1.5625 C 1.851562 -2.113281 1.421875 -2.753906 1.109375 -3.484375 C 0.796875 -4.210938 0.640625 -5 0.640625 -5.84375 Z M 3.125 -5.859375 C 3.125 -5.191406 3.28125 -4.578125 3.59375 -4.015625 C 3.914062 -3.453125 4.351562 -3.003906 4.90625 -2.671875 C 5.457031 -2.335938 6.066406 -2.171875 6.734375 -2.171875 C 7.410156 -2.171875 8.019531 -2.335938 8.5625 -2.671875 C 9.101562 -3.003906 9.53125 -3.453125 9.84375 -4.015625 C 10.164062 -4.578125 10.328125 -5.191406 10.328125 -5.859375 C 10.328125 -6.535156 10.164062 -7.148438 9.84375 -7.703125 C 9.53125 -8.253906 9.101562 -8.695312 8.5625 -9.03125 C 8.019531 -9.375 7.410156 -9.546875 6.734375 -9.546875 C 6.066406 -9.546875 5.457031 -9.375 4.90625 -9.03125 C 4.351562 -8.695312 3.914062 -8.253906 3.59375 -7.703125 C 3.28125 -7.148438 3.125 -6.535156 3.125 -5.859375 Z M 3.125 -5.859375 "/></g></g></g><g fill="#423e3e" fill-opacity="1"><g transform="translate(33.892507, 168.054492)"><g><path d="M 1.359375 -11.703125 L 3.765625 -11.703125 L 3.765625 -2.296875 L 8.78125 -2.296875 L 8.78125 0 L 1.359375 0 Z M 1.359375 -11.703125 "/></g></g></g><g fill="#423e3e" fill-opacity="1"><g transform="translate(42.919671, 168.054492)"><g><path d="M 10.640625 -4.71875 C 10.640625 -3.726562 10.460938 -2.863281 10.109375 -2.125 C 9.765625 -1.394531 9.242188 -0.828125 8.546875 -0.421875 C 7.847656 -0.0234375 6.972656 0.171875 5.921875 0.171875 C 4.847656 0.171875 3.960938 -0.03125 3.265625 -0.4375 C 2.578125 -0.851562 2.066406 -1.421875 1.734375 -2.140625 C 1.398438 -2.867188 1.234375 -3.703125 1.234375 -4.640625 L 1.234375 -11.703125 L 3.671875 -11.703125 L 3.65625 -4.6875 C 3.65625 -3.820312 3.875 -3.1875 4.3125 -2.78125 C 4.757812 -2.375 5.300781 -2.171875 5.9375 -2.171875 C 6.6875 -2.171875 7.257812 -2.394531 7.65625 -2.84375 C 8.050781 -3.300781 8.25 -3.898438 8.25 -4.640625 L 8.25 -11.703125 L 10.640625 -11.703125 Z M 10.640625 -4.71875 "/></g></g></g><g fill="#423e3e" fill-opacity="1"><g transform="translate(54.801448, 168.054492)"><g><path d="M 11.875 -7.734375 L 8.609375 0 L 7 0 L 3.75 -7.671875 L 3.734375 -7.671875 L 3.734375 0 L 1.359375 0 L 1.359375 -11.703125 L 4.484375 -11.703125 L 7.8125 -3.859375 L 11.0625 -11.703125 L 14.28125 -11.703125 L 14.28125 0 L 11.890625 0 L 11.890625 -7.734375 Z M 11.875 -7.734375 "/></g></g></g><g fill="#423e3e" fill-opacity="1"><g transform="translate(70.434587, 168.054492)"><g><path d="M 3.75 -8.078125 L 3.75 0 L 1.359375 0 L 1.359375 -11.703125 L 4.125 -11.703125 L 9.21875 -4.0625 L 9.21875 -11.703125 L 11.609375 -11.703125 L 11.609375 0 L 9.140625 0 Z M 3.75 -8.078125 "/></g></g></g><g fill="#423e3e" fill-opacity="1"><g transform="translate(83.407401, 168.054492)"><g/></g></g><g fill="#423e3e" fill-opacity="1"><g transform="translate(87.158751, 168.054492)"><g><path d="M 10.953125 0 L 8.109375 0 L 7.453125 -0.75 C 7.015625 -0.457031 6.546875 -0.226562 6.046875 -0.0625 C 5.546875 0.09375 5.015625 0.171875 4.453125 0.171875 C 3.804688 0.171875 3.191406 0.0546875 2.609375 -0.171875 C 2.023438 -0.398438 1.550781 -0.753906 1.1875 -1.234375 C 0.832031 -1.710938 0.65625 -2.328125 0.65625 -3.078125 C 0.65625 -3.535156 0.75 -3.953125 0.9375 -4.328125 C 1.132812 -4.703125 1.394531 -5.039062 1.71875 -5.34375 C 2.039062 -5.644531 2.382812 -5.914062 2.75 -6.15625 L 2.296875 -6.65625 C 1.992188 -6.988281 1.769531 -7.34375 1.625 -7.71875 C 1.488281 -8.101562 1.421875 -8.445312 1.421875 -8.75 C 1.421875 -9.3125 1.566406 -9.832031 1.859375 -10.3125 C 2.148438 -10.789062 2.550781 -11.175781 3.0625 -11.46875 C 3.570312 -11.757812 4.15625 -11.90625 4.8125 -11.90625 C 5.414062 -11.90625 5.972656 -11.765625 6.484375 -11.484375 C 7.003906 -11.210938 7.421875 -10.84375 7.734375 -10.375 C 8.054688 -9.914062 8.21875 -9.398438 8.21875 -8.828125 C 8.21875 -8.273438 8.09375 -7.785156 7.84375 -7.359375 C 7.59375 -6.941406 7.175781 -6.554688 6.59375 -6.203125 L 5.890625 -5.78125 L 7.578125 -3.859375 C 7.972656 -4.503906 8.285156 -5.253906 8.515625 -6.109375 L 10.5 -5.65625 C 10.34375 -4.988281 10.140625 -4.367188 9.890625 -3.796875 C 9.640625 -3.234375 9.34375 -2.71875 9 -2.25 Z M 4.859375 -9.796875 C 4.515625 -9.796875 4.226562 -9.6875 4 -9.46875 C 3.78125 -9.25 3.671875 -9.007812 3.671875 -8.75 C 3.671875 -8.613281 3.695312 -8.476562 3.75 -8.34375 C 3.800781 -8.21875 3.921875 -8.046875 4.109375 -7.828125 L 4.609375 -7.265625 L 5.453125 -7.78125 C 5.648438 -7.894531 5.796875 -8.035156 5.890625 -8.203125 C 5.984375 -8.367188 6.03125 -8.550781 6.03125 -8.75 C 6.03125 -9.007812 5.921875 -9.25 5.703125 -9.46875 C 5.484375 -9.6875 5.203125 -9.796875 4.859375 -9.796875 Z M 4.625 -1.921875 C 5.144531 -1.921875 5.628906 -2.054688 6.078125 -2.328125 L 4.03125 -4.6875 C 3.757812 -4.5 3.519531 -4.289062 3.3125 -4.0625 C 3.101562 -3.832031 3 -3.578125 3 -3.296875 C 3 -2.941406 3.085938 -2.664062 3.265625 -2.46875 C 3.441406 -2.269531 3.65625 -2.128906 3.90625 -2.046875 C 4.164062 -1.960938 4.40625 -1.921875 4.625 -1.921875 Z M 4.625 -1.921875 "/></g></g></g><g fill="#423e3e" fill-opacity="1"><g transform="translate(98.367979, 168.054492)"><g/></g></g><g fill="#423e3e" fill-opacity="1"><g transform="translate(102.119329, 168.054492)"><g><path d="M 10.46875 -3.234375 C 10.46875 -2.628906 10.347656 -2.125 10.109375 -1.71875 C 9.867188 -1.3125 9.546875 -0.976562 9.140625 -0.71875 C 8.742188 -0.46875 8.300781 -0.285156 7.8125 -0.171875 C 7.320312 -0.0546875 6.816406 0 6.296875 0 L 1.359375 0 L 1.359375 -11.703125 L 6.21875 -11.703125 C 6.84375 -11.703125 7.441406 -11.585938 8.015625 -11.359375 C 8.585938 -11.140625 9.050781 -10.800781 9.40625 -10.34375 C 9.769531 -9.882812 9.953125 -9.304688 9.953125 -8.609375 C 9.953125 -8.035156 9.804688 -7.539062 9.515625 -7.125 C 9.222656 -6.707031 8.820312 -6.367188 8.3125 -6.109375 L 8.3125 -6.078125 C 9.007812 -5.828125 9.539062 -5.484375 9.90625 -5.046875 C 10.28125 -4.609375 10.46875 -4.003906 10.46875 -3.234375 Z M 7.578125 -8.234375 C 7.578125 -8.566406 7.492188 -8.820312 7.328125 -9 C 7.160156 -9.175781 6.945312 -9.300781 6.6875 -9.375 C 6.425781 -9.445312 6.160156 -9.484375 5.890625 -9.484375 L 3.71875 -9.484375 L 3.71875 -6.953125 L 5.734375 -6.953125 C 6.015625 -6.953125 6.296875 -6.984375 6.578125 -7.046875 C 6.867188 -7.109375 7.109375 -7.234375 7.296875 -7.421875 C 7.484375 -7.617188 7.578125 -7.890625 7.578125 -8.234375 Z M 8.109375 -3.546875 C 8.109375 -3.910156 8.007812 -4.1875 7.8125 -4.375 C 7.613281 -4.5625 7.367188 -4.6875 7.078125 -4.75 C 6.785156 -4.820312 6.488281 -4.859375 6.1875 -4.859375 L 3.71875 -4.859375 L 3.71875 -2.25 L 6.265625 -2.25 C 6.554688 -2.25 6.84375 -2.28125 7.125 -2.34375 C 7.40625 -2.414062 7.640625 -2.546875 7.828125 -2.734375 C 8.015625 -2.921875 8.109375 -3.191406 8.109375 -3.546875 Z M 8.109375 -3.546875 "/></g></g></g><g fill="#423e3e" fill-opacity="1"><g transform="translate(113.238886, 168.054492)"><g><path d="M 2.421875 0 L -0.015625 0 L 4.453125 -11.703125 L 7.375 -11.703125 L 11.859375 0 L 9.359375 0 L 8.484375 -2.359375 L 3.296875 -2.359375 Z M 5.890625 -9.359375 L 4.125 -4.609375 L 7.65625 -4.609375 Z M 5.890625 -9.359375 "/></g></g></g><g fill="#423e3e" fill-opacity="1"><g transform="translate(125.075828, 168.054492)"><g><path d="M 10.359375 0 L 7.671875 0 L 5.25 -4.203125 L 3.78125 -4.203125 L 3.78125 0 L 1.359375 0 L 1.359375 -11.703125 L 5.984375 -11.703125 C 6.742188 -11.703125 7.4375 -11.566406 8.0625 -11.296875 C 8.6875 -11.023438 9.1875 -10.613281 9.5625 -10.0625 C 9.9375 -9.507812 10.125 -8.820312 10.125 -8 C 10.125 -6.289062 9.320312 -5.148438 7.71875 -4.578125 Z M 5.796875 -6.4375 C 6.097656 -6.4375 6.394531 -6.488281 6.6875 -6.59375 C 6.976562 -6.695312 7.210938 -6.859375 7.390625 -7.078125 C 7.578125 -7.296875 7.671875 -7.585938 7.671875 -7.953125 C 7.671875 -8.328125 7.578125 -8.617188 7.390625 -8.828125 C 7.203125 -9.046875 6.960938 -9.195312 6.671875 -9.28125 C 6.390625 -9.375 6.09375 -9.421875 5.78125 -9.421875 L 3.78125 -9.421875 L 3.78125 -6.4375 Z M 5.796875 -6.4375 "/></g></g></g><g fill="#423e3e" fill-opacity="1"><g transform="translate(139.752434, 168.054492)"><g><path d="M 0.640625 -5.84375 C 0.640625 -6.695312 0.796875 -7.488281 1.109375 -8.21875 C 1.421875 -8.945312 1.859375 -9.582031 2.421875 -10.125 C 2.984375 -10.675781 3.628906 -11.109375 4.359375 -11.421875 C 5.085938 -11.734375 5.875 -11.890625 6.71875 -11.890625 C 7.476562 -11.890625 8.210938 -11.753906 8.921875 -11.484375 C 9.640625 -11.210938 10.269531 -10.820312 10.8125 -10.3125 C 11.363281 -9.800781 11.765625 -9.175781 12.015625 -8.4375 L 9.8125 -7.421875 C 9.5625 -8.066406 9.164062 -8.578125 8.625 -8.953125 C 8.082031 -9.335938 7.441406 -9.53125 6.703125 -9.53125 C 6.023438 -9.53125 5.414062 -9.363281 4.875 -9.03125 C 4.34375 -8.695312 3.921875 -8.253906 3.609375 -7.703125 C 3.304688 -7.148438 3.15625 -6.539062 3.15625 -5.875 C 3.15625 -5.195312 3.304688 -4.578125 3.609375 -4.015625 C 3.910156 -3.460938 4.328125 -3.019531 4.859375 -2.6875 C 5.398438 -2.351562 6.015625 -2.1875 6.703125 -2.1875 C 7.441406 -2.1875 8.085938 -2.382812 8.640625 -2.78125 C 9.191406 -3.1875 9.59375 -3.707031 9.84375 -4.34375 L 12.0625 -3.3125 C 11.789062 -2.582031 11.375 -1.957031 10.8125 -1.4375 C 10.257812 -0.914062 9.625 -0.515625 8.90625 -0.234375 C 8.1875 0.0351562 7.441406 0.171875 6.671875 0.171875 C 5.816406 0.171875 5.023438 0.0195312 4.296875 -0.28125 C 3.566406 -0.59375 2.925781 -1.019531 2.375 -1.5625 C 1.832031 -2.101562 1.40625 -2.738281 1.09375 -3.46875 C 0.789062 -4.207031 0.640625 -5 0.640625 -5.84375 Z M 0.640625 -5.84375 "/></g></g></g><g fill="#423e3e" fill-opacity="1"><g transform="translate(152.187205, 168.054492)"><g><path d="M 3.78125 -4.734375 L 3.78125 0 L 1.359375 0 L 1.359375 -11.703125 L 3.78125 -11.703125 L 3.78125 -7.09375 L 8.6875 -7.09375 L 8.6875 -11.703125 L 11.109375 -11.703125 L 11.109375 0 L 8.6875 0 L 8.6875 -4.734375 Z M 3.78125 -4.734375 "/></g></g></g><g fill="#423e3e" fill-opacity="1"><g transform="translate(164.651861, 168.054492)"><g><path d="M 2.421875 0 L -0.015625 0 L 4.453125 -11.703125 L 7.375 -11.703125 L 11.859375 0 L 9.359375 0 L 8.484375 -2.359375 L 3.296875 -2.359375 Z M 5.890625 -9.359375 L 4.125 -4.609375 L 7.65625 -4.609375 Z M 5.890625 -9.359375 "/></g></g></g><g fill="#423e3e" fill-opacity="1"><g transform="translate(176.488803, 168.054492)"><g><path d="M 10.359375 0 L 7.671875 0 L 5.25 -4.203125 L 3.78125 -4.203125 L 3.78125 0 L 1.359375 0 L 1.359375 -11.703125 L 5.984375 -11.703125 C 6.742188 -11.703125 7.4375 -11.566406 8.0625 -11.296875 C 8.6875 -11.023438 9.1875 -10.613281 9.5625 -10.0625 C 9.9375 -9.507812 10.125 -8.820312 10.125 -8 C 10.125 -6.289062 9.320312 -5.148438 7.71875 -4.578125 Z M 5.796875 -6.4375 C 6.097656 -6.4375 6.394531 -6.488281 6.6875 -6.59375 C 6.976562 -6.695312 7.210938 -6.859375 7.390625 -7.078125 C 7.578125 -7.296875 7.671875 -7.585938 7.671875 -7.953125 C 7.671875 -8.328125 7.578125 -8.617188 7.390625 -8.828125 C 7.203125 -9.046875 6.960938 -9.195312 6.671875 -9.28125 C 6.390625 -9.375 6.09375 -9.421875 5.78125 -9.421875 L 3.78125 -9.421875 L 3.78125 -6.4375 Z M 5.796875 -6.4375 "/></g></g></g><g fill="#423e3e" fill-opacity="1"><g transform="translate(187.414059, 168.054492)"><g><path d="M 3.828125 0 L 3.828125 -9.359375 L 0.3125 -9.359375 L 0.3125 -11.703125 L 9.75 -11.703125 L 9.75 -9.359375 L 6.234375 -9.359375 L 6.234375 0 Z M 3.828125 0 "/></g></g></g></svg>