<svg xmlns="http://www.w3.org/2000/svg" xmlns:xlink="http://www.w3.org/1999/xlink" width="275" zoomAndPan="magnify" viewBox="0 0 206.25 187.499992" height="250" preserveAspectRatio="xMidYMid meet" version="1.0"><defs><g/><clipPath id="5b40193f5c"><path d="M 6.664062 6.203125 L 198.839844 6.203125 L 198.839844 145.292969 L 6.664062 145.292969 Z M 6.664062 6.203125 " clip-rule="nonzero"/></clipPath><clipPath id="4d7b066083"><path d="M 63.035156 106.351562 L 82.800781 106.351562 L 82.800781 125.175781 L 63.035156 125.175781 Z M 63.035156 106.351562 " clip-rule="nonzero"/></clipPath><clipPath id="557cc82b31"><path d="M 6.664062 151.675781 L 198.839844 151.675781 L 198.839844 176.78125 L 6.664062 176.78125 Z M 6.664062 151.675781 " clip-rule="nonzero"/></clipPath><clipPath id="57d523c187"><path d="M 91.910156 85.671875 L 111.675781 85.671875 L 111.675781 125.175781 L 91.910156 125.175781 Z M 91.910156 85.671875 " clip-rule="nonzero"/></clipPath><clipPath id="13748533f8"><path d="M 120.640625 98.324219 L 140.40625 98.324219 L 140.40625 125.175781 L 120.640625 125.175781 Z M 120.640625 98.324219 " clip-rule="nonzero"/></clipPath></defs><g clip-path="url(#5b40193f5c)"><path fill="#ececec" d="M 6.664062 6.203125 L 198.839844 6.203125 L 198.839844 145.292969 L 6.664062 145.292969 Z M 6.664062 6.203125 " fill-opacity="1" fill-rule="nonzero"/></g><path stroke-linecap="butt" transform="matrix(-0.747283, 0, 0, -0.747283, 153.049895, 128.166301)" fill="none" stroke-linejoin="miter" d="M -0.00118606 1.999814 L 137.188592 1.999814 " stroke="#000000" stroke-width="4" stroke-opacity="1" stroke-miterlimit="4"/><path stroke-linecap="butt" transform="matrix(0.00000000130425, -0.747283, 0.747283, 0.00000000130425, 50.60408, 125.775683)" fill="none" stroke-linejoin="miter" d="M -0.00222198 1.998677 L 137.187556 1.998677 " stroke="#000000" stroke-width="4" stroke-opacity="1" stroke-miterlimit="4"/><g clip-path="url(#4d7b066083)"><path fill="#3d87e4" d="M 63.035156 106.351562 L 82.800781 106.351562 L 82.800781 125.175781 L 63.035156 125.175781 Z M 63.035156 106.351562 " fill-opacity="1" fill-rule="nonzero"/></g><g clip-path="url(#557cc82b31)"><path fill="#ffffff" d="M 6.664062 151.675781 L 198.839844 151.675781 L 198.839844 176.78125 L 6.664062 176.78125 Z M 6.664062 151.675781 " fill-opacity="1" fill-rule="nonzero"/></g><g fill="#423e3e" fill-opacity="1"><g transform="translate(8.021611, 168.054492)"><g><path d="M 0.644531 -5.84375 C 0.644531 -2.4375 3.257812 0.164062 6.664062 0.164062 C 8.96875 0.164062 11.253906 -1.105469 12.0625 -3.316406 L 9.835938 -4.347656 C 9.324219 -3.078125 8.160156 -2.183594 6.695312 -2.183594 C 4.617188 -2.183594 3.152344 -3.839844 3.152344 -5.875 C 3.152344 -7.875 4.664062 -9.519531 6.695312 -9.519531 C 8.160156 -9.519531 9.3125 -8.699219 9.804688 -7.414062 L 12.015625 -8.429688 C 11.222656 -10.625 9.011719 -11.882812 6.710938 -11.882812 C 3.363281 -11.882812 0.644531 -9.222656 0.644531 -5.84375 Z M 0.644531 -5.84375 "/></g></g></g><g fill="#423e3e" fill-opacity="1"><g transform="translate(20.456382, 168.054492)"><g><path d="M 0.644531 -5.84375 C 0.644531 -2.464844 3.332031 0.179688 6.695312 0.179688 C 10.058594 0.179688 12.792969 -2.496094 12.792969 -5.902344 C 12.792969 -9.265625 10.117188 -11.882812 6.753906 -11.882812 C 3.394531 -11.882812 0.644531 -9.207031 0.644531 -5.84375 Z M 3.125 -5.859375 C 3.125 -7.875 4.707031 -9.535156 6.726562 -9.535156 C 8.742188 -9.535156 10.328125 -7.875 10.328125 -5.859375 C 10.328125 -3.839844 8.742188 -2.167969 6.726562 -2.167969 C 4.707031 -2.167969 3.125 -3.839844 3.125 -5.859375 Z M 3.125 -5.859375 "/></g></g></g><g fill="#423e3e" fill-opacity="1"><g transform="translate(33.892507, 168.054492)"><g><path d="M 1.359375 -11.703125 L 1.359375 0 L 8.773438 0 L 8.773438 -2.300781 L 3.765625 -2.300781 L 3.765625 -11.703125 Z M 1.359375 -11.703125 "/></g></g></g><g fill="#423e3e" fill-opacity="1"><g transform="translate(42.919671, 168.054492)"><g><path d="M 10.640625 -4.722656 L 10.640625 -11.703125 L 8.25 -11.703125 L 8.25 -4.632812 C 8.25 -3.152344 7.429688 -2.167969 5.933594 -2.167969 C 4.664062 -2.167969 3.660156 -2.960938 3.660156 -4.691406 L 3.675781 -11.703125 L 1.242188 -11.703125 L 1.242188 -4.632812 C 1.242188 -1.808594 2.675781 0.164062 5.917969 0.164062 C 9.085938 0.164062 10.640625 -1.734375 10.640625 -4.722656 Z M 10.640625 -4.722656 "/></g></g></g><g fill="#423e3e" fill-opacity="1"><g transform="translate(54.801448, 168.054492)"><g><path d="M 11.867188 -7.726562 L 11.882812 -7.726562 L 11.882812 0 L 14.273438 0 L 14.273438 -11.703125 L 11.058594 -11.703125 L 7.800781 -3.855469 L 4.484375 -11.703125 L 1.359375 -11.703125 L 1.359375 0 L 3.738281 0 L 3.738281 -7.667969 L 3.75 -7.667969 L 6.996094 0 L 8.609375 0 Z M 11.867188 -7.726562 "/></g></g></g><g fill="#423e3e" fill-opacity="1"><g transform="translate(70.434587, 168.054492)"><g><path d="M 3.75 -8.070312 L 9.132812 0 L 11.597656 0 L 11.597656 -11.703125 L 9.207031 -11.703125 L 9.207031 -4.066406 L 4.125 -11.703125 L 1.359375 -11.703125 L 1.359375 0 L 3.75 0 Z M 3.75 -8.070312 "/></g></g></g><g fill="#423e3e" fill-opacity="1"><g transform="translate(83.407401, 168.054492)"><g/></g></g><g fill="#423e3e" fill-opacity="1"><g transform="translate(87.158751, 168.054492)"><g><path d="M 10.957031 0 L 8.996094 -2.242188 C 9.667969 -3.167969 10.191406 -4.320312 10.492188 -5.648438 L 8.519531 -6.113281 C 8.292969 -5.261719 7.964844 -4.484375 7.578125 -3.855469 L 5.886719 -5.785156 L 6.589844 -6.203125 C 7.742188 -6.890625 8.21875 -7.726562 8.21875 -8.816406 C 8.21875 -10.535156 6.605469 -11.898438 4.8125 -11.898438 C 2.839844 -11.898438 1.417969 -10.433594 1.417969 -8.742188 C 1.417969 -8.144531 1.6875 -7.324219 2.300781 -6.652344 L 2.75 -6.15625 C 1.628906 -5.425781 0.65625 -4.4375 0.65625 -3.078125 C 0.65625 -0.820312 2.496094 0.164062 4.453125 0.164062 C 5.558594 0.164062 6.574219 -0.164062 7.441406 -0.746094 L 8.101562 0 Z M 4.855469 -9.789062 C 5.53125 -9.789062 6.023438 -9.265625 6.023438 -8.742188 C 6.023438 -8.339844 5.859375 -8.011719 5.457031 -7.773438 L 4.601562 -7.261719 L 4.109375 -7.816406 C 3.722656 -8.25 3.675781 -8.472656 3.675781 -8.742188 C 3.675781 -9.265625 4.15625 -9.789062 4.855469 -9.789062 Z M 4.617188 -1.929688 C 3.945312 -1.929688 3.003906 -2.210938 3.003906 -3.304688 C 3.003906 -3.855469 3.46875 -4.320312 4.035156 -4.679688 L 6.082031 -2.332031 C 5.632812 -2.0625 5.140625 -1.929688 4.617188 -1.929688 Z M 4.617188 -1.929688 "/></g></g></g><g fill="#423e3e" fill-opacity="1"><g transform="translate(98.367979, 168.054492)"><g/></g></g><g fill="#423e3e" fill-opacity="1"><g transform="translate(102.119329, 168.054492)"><g><path d="M 10.460938 -3.226562 C 10.460938 -4.78125 9.699219 -5.558594 8.308594 -6.082031 L 8.308594 -6.113281 C 9.324219 -6.636719 9.953125 -7.441406 9.953125 -8.609375 C 9.953125 -10.699219 8.101562 -11.703125 6.21875 -11.703125 L 1.359375 -11.703125 L 1.359375 0 L 6.292969 0 C 8.355469 0 10.460938 -0.851562 10.460938 -3.226562 Z M 7.578125 -8.234375 C 7.578125 -7.175781 6.574219 -6.949219 5.722656 -6.949219 L 3.722656 -6.949219 L 3.722656 -9.476562 L 5.886719 -9.476562 C 6.695312 -9.476562 7.578125 -9.207031 7.578125 -8.234375 Z M 8.101562 -3.542969 C 8.101562 -2.496094 7.128906 -2.242188 6.261719 -2.242188 L 3.722656 -2.242188 L 3.722656 -4.855469 L 6.1875 -4.855469 C 7.085938 -4.855469 8.101562 -4.632812 8.101562 -3.542969 Z M 8.101562 -3.542969 "/></g></g></g><g fill="#423e3e" fill-opacity="1"><g transform="translate(113.238886, 168.054492)"><g><path d="M 2.421875 0 L 3.289062 -2.363281 L 8.472656 -2.363281 L 9.355469 0 L 11.851562 0 L 7.367188 -11.703125 L 4.453125 -11.703125 L -0.015625 0 Z M 5.886719 -9.355469 L 7.652344 -4.601562 L 4.125 -4.601562 Z M 5.886719 -9.355469 "/></g></g></g><g fill="#423e3e" fill-opacity="1"><g transform="translate(125.075828, 168.054492)"><g><path d="M 10.355469 0 L 7.710938 -4.574219 C 9.296875 -5.140625 10.117188 -6.320312 10.117188 -7.996094 C 10.117188 -10.476562 8.25 -11.703125 5.976562 -11.703125 L 1.359375 -11.703125 L 1.359375 0 L 3.78125 0 L 3.78125 -4.199219 L 5.246094 -4.199219 L 7.667969 0 Z M 5.800781 -6.441406 L 3.78125 -6.441406 L 3.78125 -9.414062 L 5.785156 -9.414062 C 6.695312 -9.414062 7.667969 -9.070312 7.667969 -7.949219 C 7.667969 -6.84375 6.695312 -6.441406 5.800781 -6.441406 Z M 5.800781 -6.441406 "/></g></g></g><g fill="#423e3e" fill-opacity="1"><g transform="translate(139.752434, 168.054492)"><g><path d="M 0.644531 -5.84375 C 0.644531 -2.4375 3.257812 0.164062 6.664062 0.164062 C 8.96875 0.164062 11.253906 -1.105469 12.0625 -3.316406 L 9.835938 -4.347656 C 9.324219 -3.078125 8.160156 -2.183594 6.695312 -2.183594 C 4.617188 -2.183594 3.152344 -3.839844 3.152344 -5.875 C 3.152344 -7.875 4.664062 -9.519531 6.695312 -9.519531 C 8.160156 -9.519531 9.3125 -8.699219 9.804688 -7.414062 L 12.015625 -8.429688 C 11.222656 -10.625 9.011719 -11.882812 6.710938 -11.882812 C 3.363281 -11.882812 0.644531 -9.222656 0.644531 -5.84375 Z M 0.644531 -5.84375 "/></g></g></g><g fill="#423e3e" fill-opacity="1"><g transform="translate(152.187205, 168.054492)"><g><path d="M 3.78125 -4.738281 L 8.683594 -4.738281 L 8.683594 0 L 11.105469 0 L 11.105469 -11.703125 L 8.683594 -11.703125 L 8.683594 -7.085938 L 3.78125 -7.085938 L 3.78125 -11.703125 L 1.359375 -11.703125 L 1.359375 0 L 3.78125 0 Z M 3.78125 -4.738281 "/></g></g></g><g fill="#423e3e" fill-opacity="1"><g transform="translate(164.651861, 168.054492)"><g><path d="M 2.421875 0 L 3.289062 -2.363281 L 8.472656 -2.363281 L 9.355469 0 L 11.851562 0 L 7.367188 -11.703125 L 4.453125 -11.703125 L -0.015625 0 Z M 5.886719 -9.355469 L 7.652344 -4.601562 L 4.125 -4.601562 Z M 5.886719 -9.355469 "/></g></g></g><g fill="#423e3e" fill-opacity="1"><g transform="translate(176.488803, 168.054492)"><g><path d="M 10.355469 0 L 7.710938 -4.574219 C 9.296875 -5.140625 10.117188 -6.320312 10.117188 -7.996094 C 10.117188 -10.476562 8.25 -11.703125 5.976562 -11.703125 L 1.359375 -11.703125 L 1.359375 0 L 3.78125 0 L 3.78125 -4.199219 L 5.246094 -4.199219 L 7.667969 0 Z M 5.800781 -6.441406 L 3.78125 -6.441406 L 3.78125 -9.414062 L 5.785156 -9.414062 C 6.695312 -9.414062 7.667969 -9.070312 7.667969 -7.949219 C 7.667969 -6.84375 6.695312 -6.441406 5.800781 -6.441406 Z M 5.800781 -6.441406 "/></g></g></g><g fill="#423e3e" fill-opacity="1"><g transform="translate(187.414059, 168.054492)"><g><path d="M 3.824219 0 L 6.230469 0 L 6.230469 -9.355469 L 9.746094 -9.355469 L 9.746094 -11.703125 L 0.3125 -11.703125 L 0.3125 -9.355469 L 3.824219 -9.355469 Z M 3.824219 0 "/></g></g></g><g clip-path="url(#57d523c187)"><path fill="#3ec9e9" d="M 91.910156 85.671875 L 111.675781 85.671875 L 111.675781 125.175781 L 91.910156 125.175781 Z M 91.910156 85.671875 " fill-opacity="1" fill-rule="nonzero"/></g><g clip-path="url(#13748533f8)"><path fill="#3654d2" d="M 120.640625 98.324219 L 140.40625 98.324219 L 140.40625 125.175781 L 120.640625 125.175781 Z M 120.640625 98.324219 " fill-opacity="1" fill-rule="nonzero"/></g></svg>