<svg xmlns="http://www.w3.org/2000/svg" xmlns:xlink="http://www.w3.org/1999/xlink" width="300" zoomAndPan="magnify" viewBox="0 0 224.87999 168.749997" height="225" preserveAspectRatio="xMidYMid meet" version="1.0"><defs><g/><clipPath id="8472803efa"><path d="M 5.984375 6.058594 L 219.1875 6.058594 L 219.1875 162.441406 L 5.984375 162.441406 Z M 5.984375 6.058594 " clip-rule="nonzero"/></clipPath><clipPath id="2f87f8e217"><path d="M 74.453125 53.796875 L 84.5625 53.796875 L 84.5625 113.941406 L 74.453125 113.941406 Z M 74.453125 53.796875 " clip-rule="nonzero"/></clipPath><clipPath id="1eadfde208"><path d="M 84.5625 40.589844 L 94.667969 40.589844 L 94.667969 113.941406 L 84.5625 113.941406 Z M 84.5625 40.589844 " clip-rule="nonzero"/></clipPath><clipPath id="5c73c183f5"><path d="M 94.667969 80.164062 L 104.773438 80.164062 L 104.773438 113.941406 L 94.667969 113.941406 Z M 94.667969 80.164062 " clip-rule="nonzero"/></clipPath><clipPath id="185c09b78d"><path d="M 120.316406 28.480469 L 130.421875 28.480469 L 130.421875 113.941406 L 120.316406 113.941406 Z M 120.316406 28.480469 " clip-rule="nonzero"/></clipPath><clipPath id="94878290b8"><path d="M 130.421875 67.789062 L 140.527344 67.789062 L 140.527344 113.941406 L 130.421875 113.941406 Z M 130.421875 67.789062 " clip-rule="nonzero"/></clipPath><clipPath id="67259c3787"><path d="M 140.527344 59.277344 L 150.636719 59.277344 L 150.636719 113.941406 L 140.527344 113.941406 Z M 140.527344 59.277344 " clip-rule="nonzero"/></clipPath></defs><g clip-path="url(#8472803efa)"><path fill="#ececec" d="M 5.984375 6.058594 L 219.179688 6.058594 L 219.179688 162.441406 L 5.984375 162.441406 Z M 5.984375 6.058594 " fill-opacity="1" fill-rule="nonzero"/></g><g fill="#423e3e" fill-opacity="1"><g transform="translate(11.207231, 143.18255)"><g><path d="M 0.6875 -6.25 C 0.6875 -7.144531 0.851562 -7.984375 1.1875 -8.765625 C 1.519531 -9.554688 1.984375 -10.242188 2.578125 -10.828125 C 3.179688 -11.410156 3.875 -11.863281 4.65625 -12.1875 C 5.4375 -12.519531 6.273438 -12.6875 7.171875 -12.6875 C 7.992188 -12.6875 8.785156 -12.539062 9.546875 -12.25 C 10.304688 -11.96875 10.972656 -11.550781 11.546875 -11 C 12.128906 -10.457031 12.5625 -9.789062 12.84375 -9 L 10.46875 -7.921875 C 10.207031 -8.609375 9.785156 -9.15625 9.203125 -9.5625 C 8.617188 -9.96875 7.9375 -10.171875 7.15625 -10.171875 C 6.425781 -10.171875 5.773438 -9.992188 5.203125 -9.640625 C 4.640625 -9.296875 4.191406 -8.828125 3.859375 -8.234375 C 3.535156 -7.640625 3.375 -6.988281 3.375 -6.28125 C 3.375 -5.550781 3.535156 -4.890625 3.859375 -4.296875 C 4.179688 -3.703125 4.625 -3.222656 5.1875 -2.859375 C 5.757812 -2.503906 6.414062 -2.328125 7.15625 -2.328125 C 7.9375 -2.328125 8.625 -2.539062 9.21875 -2.96875 C 9.8125 -3.40625 10.238281 -3.960938 10.5 -4.640625 L 12.890625 -3.546875 C 12.597656 -2.753906 12.15625 -2.082031 11.5625 -1.53125 C 10.96875 -0.976562 10.285156 -0.554688 9.515625 -0.265625 C 8.742188 0.0234375 7.945312 0.171875 7.125 0.171875 C 6.21875 0.171875 5.375 0.0078125 4.59375 -0.3125 C 3.8125 -0.632812 3.125 -1.082031 2.53125 -1.65625 C 1.945312 -2.238281 1.492188 -2.921875 1.171875 -3.703125 C 0.847656 -4.492188 0.6875 -5.34375 0.6875 -6.25 Z M 0.6875 -6.25 "/></g></g></g><g fill="#423e3e" fill-opacity="1"><g transform="translate(24.496345, 143.18255)"><g><path d="M 0.6875 -6.25 C 0.6875 -7.132812 0.851562 -7.96875 1.1875 -8.75 C 1.53125 -9.539062 2 -10.226562 2.59375 -10.8125 C 3.195312 -11.40625 3.894531 -11.863281 4.6875 -12.1875 C 5.476562 -12.519531 6.320312 -12.6875 7.21875 -12.6875 C 8.113281 -12.6875 8.953125 -12.523438 9.734375 -12.203125 C 10.515625 -11.878906 11.195312 -11.425781 11.78125 -10.84375 C 12.375 -10.269531 12.835938 -9.59375 13.171875 -8.8125 C 13.503906 -8.039062 13.671875 -7.207031 13.671875 -6.3125 C 13.671875 -5.40625 13.5 -4.554688 13.15625 -3.765625 C 12.820312 -2.984375 12.351562 -2.289062 11.75 -1.6875 C 11.15625 -1.09375 10.460938 -0.628906 9.671875 -0.296875 C 8.890625 0.0234375 8.050781 0.1875 7.15625 0.1875 C 6.257812 0.1875 5.421875 0.0234375 4.640625 -0.296875 C 3.859375 -0.628906 3.171875 -1.085938 2.578125 -1.671875 C 1.984375 -2.265625 1.519531 -2.945312 1.1875 -3.71875 C 0.851562 -4.5 0.6875 -5.34375 0.6875 -6.25 Z M 3.34375 -6.265625 C 3.34375 -5.546875 3.507812 -4.882812 3.84375 -4.28125 C 4.1875 -3.6875 4.648438 -3.207031 5.234375 -2.84375 C 5.816406 -2.488281 6.46875 -2.3125 7.1875 -2.3125 C 7.90625 -2.3125 8.554688 -2.488281 9.140625 -2.84375 C 9.722656 -3.207031 10.179688 -3.6875 10.515625 -4.28125 C 10.859375 -4.882812 11.03125 -5.546875 11.03125 -6.265625 C 11.03125 -6.984375 10.859375 -7.640625 10.515625 -8.234375 C 10.179688 -8.828125 9.722656 -9.300781 9.140625 -9.65625 C 8.554688 -10.007812 7.90625 -10.1875 7.1875 -10.1875 C 6.46875 -10.1875 5.816406 -10.007812 5.234375 -9.65625 C 4.648438 -9.300781 4.1875 -8.828125 3.84375 -8.234375 C 3.507812 -7.640625 3.34375 -6.984375 3.34375 -6.265625 Z M 3.34375 -6.265625 "/></g></g></g><g fill="#423e3e" fill-opacity="1"><g transform="translate(38.855614, 143.18255)"><g><path d="M 1.453125 -12.5 L 4.03125 -12.5 L 4.03125 -2.453125 L 9.375 -2.453125 L 9.375 0 L 1.453125 0 Z M 1.453125 -12.5 "/></g></g></g><g fill="#423e3e" fill-opacity="1"><g transform="translate(48.502996, 143.18255)"><g><path d="M 11.375 -5.046875 C 11.375 -3.984375 11.1875 -3.0625 10.8125 -2.28125 C 10.4375 -1.5 9.875 -0.894531 9.125 -0.46875 C 8.382812 -0.0390625 7.453125 0.171875 6.328125 0.171875 C 5.171875 0.171875 4.222656 -0.046875 3.484375 -0.484375 C 2.742188 -0.921875 2.195312 -1.523438 1.84375 -2.296875 C 1.5 -3.066406 1.328125 -3.953125 1.328125 -4.953125 L 1.328125 -12.5 L 3.921875 -12.5 L 3.90625 -5.015625 C 3.90625 -4.085938 4.140625 -3.40625 4.609375 -2.96875 C 5.078125 -2.53125 5.65625 -2.3125 6.34375 -2.3125 C 7.132812 -2.3125 7.742188 -2.550781 8.171875 -3.03125 C 8.597656 -3.519531 8.8125 -4.160156 8.8125 -4.953125 L 8.8125 -12.5 L 11.375 -12.5 Z M 11.375 -5.046875 "/></g></g></g><g fill="#423e3e" fill-opacity="1"><g transform="translate(61.201133, 143.18255)"><g><path d="M 12.671875 -8.25 L 9.203125 0 L 7.46875 0 L 4.015625 -8.1875 L 4 -8.1875 L 4 0 L 1.453125 0 L 1.453125 -12.5 L 4.796875 -12.5 L 8.328125 -4.125 L 11.8125 -12.5 L 15.25 -12.5 L 15.25 0 L 12.6875 0 L 12.6875 -8.25 Z M 12.671875 -8.25 "/></g></g></g><g fill="#423e3e" fill-opacity="1"><g transform="translate(77.908364, 143.18255)"><g><path d="M 4.015625 -8.625 L 4.015625 0 L 1.453125 0 L 1.453125 -12.5 L 4.40625 -12.5 L 9.84375 -4.34375 L 9.84375 -12.5 L 12.390625 -12.5 L 12.390625 0 L 9.75 0 Z M 4.015625 -8.625 "/></g></g></g><g fill="#423e3e" fill-opacity="1"><g transform="translate(91.772494, 143.18255)"><g/></g></g><g fill="#423e3e" fill-opacity="1"><g transform="translate(95.781588, 143.18255)"><g><path d="M 11.703125 0 L 8.65625 0 L 7.953125 -0.796875 C 7.492188 -0.484375 6.992188 -0.242188 6.453125 -0.078125 C 5.921875 0.0859375 5.359375 0.171875 4.765625 0.171875 C 4.066406 0.171875 3.40625 0.0507812 2.78125 -0.1875 C 2.164062 -0.4375 1.664062 -0.816406 1.28125 -1.328125 C 0.894531 -1.835938 0.703125 -2.492188 0.703125 -3.296875 C 0.703125 -3.785156 0.804688 -4.226562 1.015625 -4.625 C 1.222656 -5.019531 1.492188 -5.378906 1.828125 -5.703125 C 2.171875 -6.035156 2.539062 -6.328125 2.9375 -6.578125 L 2.453125 -7.109375 C 2.128906 -7.472656 1.890625 -7.851562 1.734375 -8.25 C 1.585938 -8.65625 1.515625 -9.019531 1.515625 -9.34375 C 1.515625 -9.945312 1.671875 -10.503906 1.984375 -11.015625 C 2.296875 -11.523438 2.722656 -11.9375 3.265625 -12.25 C 3.816406 -12.5625 4.441406 -12.71875 5.140625 -12.71875 C 5.773438 -12.71875 6.367188 -12.566406 6.921875 -12.265625 C 7.484375 -11.972656 7.929688 -11.578125 8.265625 -11.078125 C 8.609375 -10.585938 8.78125 -10.035156 8.78125 -9.421875 C 8.78125 -8.835938 8.644531 -8.316406 8.375 -7.859375 C 8.101562 -7.410156 7.660156 -7 7.046875 -6.625 L 6.296875 -6.1875 L 8.09375 -4.125 C 8.519531 -4.8125 8.859375 -5.613281 9.109375 -6.53125 L 11.203125 -6.03125 C 11.046875 -5.320312 10.832031 -4.660156 10.5625 -4.046875 C 10.289062 -3.441406 9.972656 -2.890625 9.609375 -2.390625 Z M 5.1875 -10.453125 C 4.8125 -10.453125 4.503906 -10.332031 4.265625 -10.09375 C 4.035156 -9.863281 3.921875 -9.613281 3.921875 -9.34375 C 3.921875 -9.207031 3.945312 -9.066406 4 -8.921875 C 4.0625 -8.773438 4.191406 -8.585938 4.390625 -8.359375 L 4.921875 -7.765625 L 5.828125 -8.296875 C 6.035156 -8.429688 6.1875 -8.582031 6.28125 -8.75 C 6.382812 -8.925781 6.4375 -9.125 6.4375 -9.34375 C 6.4375 -9.613281 6.316406 -9.863281 6.078125 -10.09375 C 5.847656 -10.332031 5.550781 -10.453125 5.1875 -10.453125 Z M 4.9375 -2.0625 C 5.5 -2.0625 6.019531 -2.203125 6.5 -2.484375 L 4.3125 -5 C 4.007812 -4.800781 3.75 -4.578125 3.53125 -4.328125 C 3.3125 -4.085938 3.203125 -3.820312 3.203125 -3.53125 C 3.203125 -3.144531 3.296875 -2.84375 3.484375 -2.625 C 3.671875 -2.414062 3.898438 -2.269531 4.171875 -2.1875 C 4.441406 -2.101562 4.695312 -2.0625 4.9375 -2.0625 Z M 4.9375 -2.0625 "/></g></g></g><g fill="#423e3e" fill-opacity="1"><g transform="translate(107.760956, 143.18255)"><g/></g></g><g fill="#423e3e" fill-opacity="1"><g transform="translate(111.77005, 143.18255)"><g><path d="M 11.171875 -3.453125 C 11.171875 -2.804688 11.039062 -2.265625 10.78125 -1.828125 C 10.53125 -1.398438 10.191406 -1.050781 9.765625 -0.78125 C 9.347656 -0.507812 8.875 -0.3125 8.34375 -0.1875 C 7.8125 -0.0625 7.269531 0 6.71875 0 L 1.453125 0 L 1.453125 -12.5 L 6.640625 -12.5 C 7.316406 -12.5 7.957031 -12.378906 8.5625 -12.140625 C 9.175781 -11.898438 9.675781 -11.535156 10.0625 -11.046875 C 10.445312 -10.554688 10.640625 -9.941406 10.640625 -9.203125 C 10.640625 -8.578125 10.476562 -8.046875 10.15625 -7.609375 C 9.84375 -7.171875 9.414062 -6.8125 8.875 -6.53125 L 8.875 -6.5 C 9.625 -6.21875 10.191406 -5.84375 10.578125 -5.375 C 10.972656 -4.914062 11.171875 -4.273438 11.171875 -3.453125 Z M 8.09375 -8.796875 C 8.09375 -9.148438 8 -9.421875 7.8125 -9.609375 C 7.632812 -9.804688 7.40625 -9.941406 7.125 -10.015625 C 6.851562 -10.085938 6.578125 -10.125 6.296875 -10.125 L 3.96875 -10.125 L 3.96875 -7.421875 L 6.109375 -7.421875 C 6.421875 -7.421875 6.726562 -7.457031 7.03125 -7.53125 C 7.332031 -7.601562 7.582031 -7.738281 7.78125 -7.9375 C 7.988281 -8.132812 8.09375 -8.421875 8.09375 -8.796875 Z M 8.65625 -3.78125 C 8.65625 -4.175781 8.550781 -4.472656 8.34375 -4.671875 C 8.132812 -4.867188 7.875 -5.003906 7.5625 -5.078125 C 7.25 -5.148438 6.929688 -5.1875 6.609375 -5.1875 L 3.96875 -5.1875 L 3.96875 -2.390625 L 6.6875 -2.390625 C 7 -2.390625 7.304688 -2.425781 7.609375 -2.5 C 7.910156 -2.582031 8.160156 -2.722656 8.359375 -2.921875 C 8.554688 -3.117188 8.65625 -3.40625 8.65625 -3.78125 Z M 8.65625 -3.78125 "/></g></g></g><g fill="#423e3e" fill-opacity="1"><g transform="translate(123.65359, 143.18255)"><g><path d="M 2.59375 0 L -0.015625 0 L 4.765625 -12.5 L 7.875 -12.5 L 12.65625 0 L 10 0 L 9.046875 -2.515625 L 3.515625 -2.515625 Z M 6.296875 -10 L 4.40625 -4.921875 L 8.171875 -4.921875 Z M 6.296875 -10 "/></g></g></g><g fill="#423e3e" fill-opacity="1"><g transform="translate(136.303801, 143.18255)"><g><path d="M 11.0625 0 L 8.1875 0 L 5.609375 -4.484375 L 4.046875 -4.484375 L 4.046875 0 L 1.453125 0 L 1.453125 -12.5 L 6.390625 -12.5 C 7.191406 -12.5 7.925781 -12.351562 8.59375 -12.0625 C 9.269531 -11.769531 9.804688 -11.332031 10.203125 -10.75 C 10.609375 -10.164062 10.8125 -9.429688 10.8125 -8.546875 C 10.8125 -6.722656 9.953125 -5.503906 8.234375 -4.890625 Z M 6.203125 -6.875 C 6.515625 -6.875 6.820312 -6.925781 7.125 -7.03125 C 7.4375 -7.144531 7.691406 -7.316406 7.890625 -7.546875 C 8.085938 -7.785156 8.1875 -8.101562 8.1875 -8.5 C 8.1875 -8.90625 8.082031 -9.21875 7.875 -9.4375 C 7.675781 -9.65625 7.425781 -9.8125 7.125 -9.90625 C 6.820312 -10.007812 6.507812 -10.0625 6.1875 -10.0625 L 4.046875 -10.0625 L 4.046875 -6.875 Z M 6.203125 -6.875 "/></g></g></g><g fill="#423e3e" fill-opacity="1"><g transform="translate(147.979698, 143.18255)"><g/></g></g><g fill="#423e3e" fill-opacity="1"><g transform="translate(151.988792, 143.18255)"><g><path d="M 0.6875 -6.25 C 0.6875 -7.144531 0.851562 -7.984375 1.1875 -8.765625 C 1.519531 -9.554688 1.984375 -10.242188 2.578125 -10.828125 C 3.179688 -11.410156 3.875 -11.863281 4.65625 -12.1875 C 5.4375 -12.519531 6.273438 -12.6875 7.171875 -12.6875 C 7.992188 -12.6875 8.785156 -12.539062 9.546875 -12.25 C 10.304688 -11.96875 10.972656 -11.550781 11.546875 -11 C 12.128906 -10.457031 12.5625 -9.789062 12.84375 -9 L 10.46875 -7.921875 C 10.207031 -8.609375 9.785156 -9.15625 9.203125 -9.5625 C 8.617188 -9.96875 7.9375 -10.171875 7.15625 -10.171875 C 6.425781 -10.171875 5.773438 -9.992188 5.203125 -9.640625 C 4.640625 -9.296875 4.191406 -8.828125 3.859375 -8.234375 C 3.535156 -7.640625 3.375 -6.988281 3.375 -6.28125 C 3.375 -5.550781 3.535156 -4.890625 3.859375 -4.296875 C 4.179688 -3.703125 4.625 -3.222656 5.1875 -2.859375 C 5.757812 -2.503906 6.414062 -2.328125 7.15625 -2.328125 C 7.9375 -2.328125 8.625 -2.539062 9.21875 -2.96875 C 9.8125 -3.40625 10.238281 -3.960938 10.5 -4.640625 L 12.890625 -3.546875 C 12.597656 -2.753906 12.15625 -2.082031 11.5625 -1.53125 C 10.96875 -0.976562 10.285156 -0.554688 9.515625 -0.265625 C 8.742188 0.0234375 7.945312 0.171875 7.125 0.171875 C 6.21875 0.171875 5.375 0.0078125 4.59375 -0.3125 C 3.8125 -0.632812 3.125 -1.082031 2.53125 -1.65625 C 1.945312 -2.238281 1.492188 -2.921875 1.171875 -3.703125 C 0.847656 -4.492188 0.6875 -5.34375 0.6875 -6.25 Z M 0.6875 -6.25 "/></g></g></g><g fill="#423e3e" fill-opacity="1"><g transform="translate(165.277907, 143.18255)"><g><path d="M 4.046875 -5.0625 L 4.046875 0 L 1.453125 0 L 1.453125 -12.5 L 4.046875 -12.5 L 4.046875 -7.5625 L 9.28125 -7.5625 L 9.28125 -12.5 L 11.859375 -12.5 L 11.859375 0 L 9.28125 0 L 9.28125 -5.0625 Z M 4.046875 -5.0625 "/></g></g></g><g fill="#423e3e" fill-opacity="1"><g transform="translate(178.598972, 143.18255)"><g><path d="M 2.59375 0 L -0.015625 0 L 4.765625 -12.5 L 7.875 -12.5 L 12.65625 0 L 10 0 L 9.046875 -2.515625 L 3.515625 -2.515625 Z M 6.296875 -10 L 4.40625 -4.921875 L 8.171875 -4.921875 Z M 6.296875 -10 "/></g></g></g><g fill="#423e3e" fill-opacity="1"><g transform="translate(191.249183, 143.18255)"><g><path d="M 11.0625 0 L 8.1875 0 L 5.609375 -4.484375 L 4.046875 -4.484375 L 4.046875 0 L 1.453125 0 L 1.453125 -12.5 L 6.390625 -12.5 C 7.191406 -12.5 7.925781 -12.351562 8.59375 -12.0625 C 9.269531 -11.769531 9.804688 -11.332031 10.203125 -10.75 C 10.609375 -10.164062 10.8125 -9.429688 10.8125 -8.546875 C 10.8125 -6.722656 9.953125 -5.503906 8.234375 -4.890625 Z M 6.203125 -6.875 C 6.515625 -6.875 6.820312 -6.925781 7.125 -7.03125 C 7.4375 -7.144531 7.691406 -7.316406 7.890625 -7.546875 C 8.085938 -7.785156 8.1875 -8.101562 8.1875 -8.5 C 8.1875 -8.90625 8.082031 -9.21875 7.875 -9.4375 C 7.675781 -9.65625 7.425781 -9.8125 7.125 -9.90625 C 6.820312 -10.007812 6.507812 -10.0625 6.1875 -10.0625 L 4.046875 -10.0625 L 4.046875 -6.875 Z M 6.203125 -6.875 "/></g></g></g><g fill="#423e3e" fill-opacity="1"><g transform="translate(202.925069, 143.18255)"><g><path d="M 4.09375 0 L 4.09375 -10 L 0.328125 -10 L 0.328125 -12.5 L 10.40625 -12.5 L 10.40625 -10 L 6.65625 -10 L 6.65625 0 Z M 4.09375 0 "/></g></g></g><path stroke-linecap="butt" transform="matrix(-0.793802, 0, 0, -0.793802, 163.615847, 117.009568)" fill="none" stroke-linejoin="miter" d="M -0.00168862 2.000112 L 127.927851 2.000112 " stroke="#000000" stroke-width="4" stroke-opacity="1" stroke-miterlimit="4"/><path stroke-linecap="butt" transform="matrix(0, -0.793802, 0.793802, 0, 61.254195, 117.003855)" fill="none" stroke-linejoin="miter" d="M -0.0000641699 2.002456 L 120.922065 2.002456 " stroke="#000000" stroke-width="4" stroke-opacity="1" stroke-miterlimit="4"/><g clip-path="url(#2f87f8e217)"><path fill="#8b73ff" d="M 74.453125 53.796875 L 84.5625 53.796875 L 84.5625 113.960938 L 74.453125 113.960938 Z M 74.453125 53.796875 " fill-opacity="1" fill-rule="nonzero"/></g><g clip-path="url(#1eadfde208)"><path fill="#96e17b" d="M 84.5625 40.589844 L 94.667969 40.589844 L 94.667969 113.9375 L 84.5625 113.9375 Z M 84.5625 40.589844 " fill-opacity="1" fill-rule="nonzero"/></g><g clip-path="url(#5c73c183f5)"><path fill="#ff9861" d="M 94.667969 80.164062 L 104.773438 80.164062 L 104.773438 113.957031 L 94.667969 113.957031 Z M 94.667969 80.164062 " fill-opacity="1" fill-rule="nonzero"/></g><g clip-path="url(#185c09b78d)"><path fill="#8b73ff" d="M 120.316406 28.480469 L 130.421875 28.480469 L 130.421875 113.949219 L 120.316406 113.949219 Z M 120.316406 28.480469 " fill-opacity="1" fill-rule="nonzero"/></g><g clip-path="url(#94878290b8)"><path fill="#96e17b" d="M 130.421875 67.789062 L 140.527344 67.789062 L 140.527344 113.9375 L 130.421875 113.9375 Z M 130.421875 67.789062 " fill-opacity="1" fill-rule="nonzero"/></g><g clip-path="url(#67259c3787)"><path fill="#ff9861" d="M 140.527344 59.277344 L 150.636719 59.277344 L 150.636719 113.953125 L 140.527344 113.953125 Z M 140.527344 59.277344 " fill-opacity="1" fill-rule="nonzero"/></g></svg>