<svg xmlns="http://www.w3.org/2000/svg" xmlns:xlink="http://www.w3.org/1999/xlink" width="275" zoomAndPan="magnify" viewBox="0 0 206.25 187.499992" height="250" preserveAspectRatio="xMidYMid meet" version="1.0"><defs><g/><clipPath id="0497b98ab3"><path d="M 0 0.0898438 L 205.503906 0.0898438 L 205.503906 186.910156 L 0 186.910156 Z M 0 0.0898438 " clip-rule="nonzero"/></clipPath><clipPath id="c3bed89591"><path d="M 8.96875 0.0898438 L 196.535156 0.0898438 C 198.914062 0.0898438 201.195312 1.035156 202.875 2.71875 C 204.558594 4.398438 205.503906 6.679688 205.503906 9.058594 L 205.503906 177.945312 C 205.503906 180.320312 204.558594 182.601562 202.875 184.285156 C 201.195312 185.964844 198.914062 186.910156 196.535156 186.910156 L 8.96875 186.910156 C 6.589844 186.910156 4.308594 185.964844 2.625 184.285156 C 0.945312 182.601562 0 180.320312 0 177.945312 L 0 9.058594 C 0 6.679688 0.945312 4.398438 2.625 2.71875 C 4.308594 1.035156 6.589844 0.0898438 8.96875 0.0898438 Z M 8.96875 0.0898438 " clip-rule="nonzero"/></clipPath><clipPath id="bebba709c9"><path d="M 74.730469 38.625 L 130.773438 38.625 L 130.773438 87.945312 L 74.730469 87.945312 Z M 74.730469 38.625 " clip-rule="nonzero"/></clipPath><clipPath id="0bb83e67eb"><path d="M 130.773438 63.378906 L 116.761719 88.132812 L 88.742188 88.132812 L 74.730469 63.378906 L 88.742188 38.625 L 116.761719 38.625 Z M 130.773438 63.378906 " clip-rule="nonzero"/></clipPath></defs><g clip-path="url(#0497b98ab3)"><g clip-path="url(#c3bed89591)"><path stroke-linecap="butt" transform="matrix(0.747283, 0, 0, 0.747283, 0, 0.09058)" fill="none" stroke-linejoin="miter" d="M 12.001819 -0.000985185 L 262.999784 -0.000985185 C 266.183193 -0.000985185 269.23592 1.264015 271.483648 3.51697 C 273.736602 5.764697 275.001602 8.817424 275.001602 12.000833 L 275.001602 238.001979 C 275.001602 241.180161 273.736602 244.232889 271.483648 246.485843 C 269.23592 248.733571 266.183193 249.998571 262.999784 249.998571 L 12.001819 249.998571 C 8.818409 249.998571 5.765682 248.733571 3.512727 246.485843 C 1.265 244.232889 0 241.180161 0 238.001979 L 0 12.000833 C 0 8.817424 1.265 5.764697 3.512727 3.51697 C 5.765682 1.264015 8.818409 -0.000985185 12.001819 -0.000985185 Z M 12.001819 -0.000985185 " stroke="#0ab1f0" stroke-width="4" stroke-opacity="1" stroke-miterlimit="4"/></g></g><g fill="#00517d" fill-opacity="1"><g transform="translate(49.125833, 129.11178)"><g><path d="M 12.3125 -6.265625 C 12.3125 -10.1875 9.625 -12.484375 5.28125 -12.484375 L 1.453125 -12.484375 L 1.453125 0 L 5.234375 0 C 9.640625 0 12.3125 -2.546875 12.3125 -6.265625 Z M 9.671875 -6.265625 C 9.671875 -3.8125 7.890625 -2.4375 5.3125 -2.4375 L 4.03125 -2.4375 L 4.03125 -10.046875 L 5.34375 -10.046875 C 7.796875 -10.046875 9.671875 -8.71875 9.671875 -6.265625 Z M 9.671875 -6.265625 "/></g></g></g><g fill="#00517d" fill-opacity="1"><g transform="translate(62.163278, 129.11178)"><g><path d="M 2.578125 0 L 3.5 -2.515625 L 9.03125 -2.515625 L 9.984375 0 L 12.640625 0 L 7.859375 -12.484375 L 4.75 -12.484375 L -0.015625 0 Z M 6.28125 -9.984375 L 8.15625 -4.90625 L 4.40625 -4.90625 Z M 6.28125 -9.984375 "/></g></g></g><g fill="#00517d" fill-opacity="1"><g transform="translate(74.786328, 129.11178)"><g><path d="M 4.078125 0 L 6.640625 0 L 6.640625 -9.984375 L 10.390625 -9.984375 L 10.390625 -12.484375 L 0.328125 -12.484375 L 0.328125 -9.984375 L 4.078125 -9.984375 Z M 4.078125 0 "/></g></g></g><g fill="#00517d" fill-opacity="1"><g transform="translate(85.512734, 129.11178)"><g><path d="M 2.578125 0 L 3.5 -2.515625 L 9.03125 -2.515625 L 9.984375 0 L 12.640625 0 L 7.859375 -12.484375 L 4.75 -12.484375 L -0.015625 0 Z M 6.28125 -9.984375 L 8.15625 -4.90625 L 4.40625 -4.90625 Z M 6.28125 -9.984375 "/></g></g></g><g fill="#00517d" fill-opacity="1"><g transform="translate(98.135784, 129.11178)"><g><path d="M 12.65625 -8.234375 L 12.671875 -8.234375 L 12.671875 0 L 15.21875 0 L 15.21875 -12.484375 L 11.796875 -12.484375 L 8.3125 -4.109375 L 4.78125 -12.484375 L 1.453125 -12.484375 L 1.453125 0 L 3.984375 0 L 3.984375 -8.171875 L 4 -8.171875 L 7.453125 0 L 9.1875 0 Z M 12.65625 -8.234375 "/></g></g></g><g fill="#00517d" fill-opacity="1"><g transform="translate(114.807143, 129.11178)"><g><path d="M 4.03125 -12.484375 L 1.453125 -12.484375 L 1.453125 0 L 4.03125 0 Z M 4.03125 -12.484375 "/></g></g></g><g fill="#00517d" fill-opacity="1"><g transform="translate(120.305821, 129.11178)"><g><path d="M 4 -8.609375 L 9.734375 0 L 12.375 0 L 12.375 -12.484375 L 9.8125 -12.484375 L 9.8125 -4.328125 L 4.40625 -12.484375 L 1.453125 -12.484375 L 1.453125 0 L 4 0 Z M 4 -8.609375 "/></g></g></g><g fill="#00517d" fill-opacity="1"><g transform="translate(134.140184, 129.11178)"><g><path d="M 1.453125 -12.484375 L 1.453125 0 L 9.65625 0 L 9.65625 -2.40625 L 4 -2.40625 L 4 -5.09375 L 9.03125 -5.09375 L 9.03125 -7.515625 L 4 -7.515625 L 4 -10.0625 L 9.625 -10.0625 L 9.625 -12.484375 Z M 1.453125 -12.484375 "/></g></g></g><g fill="#00517d" fill-opacity="1"><g transform="translate(144.707215, 129.11178)"><g><path d="M 11.046875 0 L 8.21875 -4.875 C 9.90625 -5.484375 10.796875 -6.734375 10.796875 -8.53125 C 10.796875 -11.171875 8.796875 -12.484375 6.375 -12.484375 L 1.453125 -12.484375 L 1.453125 0 L 4.03125 0 L 4.03125 -4.484375 L 5.59375 -4.484375 L 8.171875 0 Z M 6.1875 -6.875 L 4.03125 -6.875 L 4.03125 -10.046875 L 6.171875 -10.046875 C 7.140625 -10.046875 8.171875 -9.671875 8.171875 -8.484375 C 8.171875 -7.296875 7.140625 -6.875 6.1875 -6.875 Z M 6.1875 -6.875 "/></g></g></g><g fill="#00517d" fill-opacity="1"><g transform="translate(35.709775, 150.782975)"><g><path d="M 0.6875 -6.234375 C 0.6875 -2.625 3.546875 0.1875 7.140625 0.1875 C 10.71875 0.1875 13.640625 -2.65625 13.640625 -6.296875 C 13.640625 -9.875 10.796875 -12.671875 7.203125 -12.671875 C 3.625 -12.671875 0.6875 -9.8125 0.6875 -6.234375 Z M 3.328125 -6.25 C 3.328125 -8.40625 5.015625 -10.171875 7.171875 -10.171875 C 9.328125 -10.171875 11.015625 -8.40625 11.015625 -6.25 C 11.015625 -4.09375 9.328125 -2.3125 7.171875 -2.3125 C 5.015625 -2.3125 3.328125 -4.09375 3.328125 -6.25 Z M 3.328125 -6.25 "/></g></g></g><g fill="#00517d" fill-opacity="1"><g transform="translate(50.038214, 150.782975)"><g><path d="M 11.15625 -3.4375 C 11.15625 -5.09375 10.34375 -5.921875 8.859375 -6.484375 L 8.859375 -6.515625 C 9.9375 -7.078125 10.609375 -7.9375 10.609375 -9.1875 C 10.609375 -11.40625 8.640625 -12.484375 6.625 -12.484375 L 1.453125 -12.484375 L 1.453125 0 L 6.703125 0 C 8.90625 0 11.15625 -0.90625 11.15625 -3.4375 Z M 8.078125 -8.78125 C 8.078125 -7.65625 7.015625 -7.40625 6.109375 -7.40625 L 3.96875 -7.40625 L 3.96875 -10.109375 L 6.28125 -10.109375 C 7.140625 -10.109375 8.078125 -9.8125 8.078125 -8.78125 Z M 8.640625 -3.78125 C 8.640625 -2.65625 7.609375 -2.390625 6.671875 -2.390625 L 3.96875 -2.390625 L 3.96875 -5.1875 L 6.59375 -5.1875 C 7.546875 -5.1875 8.640625 -4.9375 8.640625 -3.78125 Z M 8.640625 -3.78125 "/></g></g></g><g fill="#00517d" fill-opacity="1"><g transform="translate(61.89624, 150.782975)"><g><path d="M 8.5625 -3.796875 L 8.5625 -12.484375 L 5.984375 -12.484375 L 5.984375 -3.984375 C 5.984375 -2.90625 5.375 -2.3125 4.421875 -2.3125 C 3.671875 -2.3125 3.03125 -2.734375 2.640625 -3.734375 L 0.46875 -2.515625 C 1.203125 -0.71875 2.59375 0.15625 4.46875 0.15625 C 6.6875 0.15625 8.5625 -1.203125 8.5625 -3.796875 Z M 8.5625 -3.796875 "/></g></g></g><g fill="#00517d" fill-opacity="1"><g transform="translate(71.809798, 150.782975)"><g><path d="M 1.453125 -12.484375 L 1.453125 0 L 9.65625 0 L 9.65625 -2.40625 L 4 -2.40625 L 4 -5.09375 L 9.03125 -5.09375 L 9.03125 -7.515625 L 4 -7.515625 L 4 -10.0625 L 9.625 -10.0625 L 9.625 -12.484375 Z M 1.453125 -12.484375 "/></g></g></g><g fill="#00517d" fill-opacity="1"><g transform="translate(82.376829, 150.782975)"><g><path d="M 0.6875 -6.234375 C 0.6875 -2.59375 3.46875 0.171875 7.109375 0.171875 C 9.5625 0.171875 12 -1.171875 12.859375 -3.53125 L 10.484375 -4.640625 C 9.9375 -3.28125 8.703125 -2.328125 7.140625 -2.328125 C 4.921875 -2.328125 3.359375 -4.09375 3.359375 -6.265625 C 3.359375 -8.40625 4.96875 -10.15625 7.140625 -10.15625 C 8.703125 -10.15625 9.921875 -9.28125 10.453125 -7.90625 L 12.8125 -8.984375 C 11.96875 -11.328125 9.609375 -12.671875 7.15625 -12.671875 C 3.59375 -12.671875 0.6875 -9.828125 0.6875 -6.234375 Z M 0.6875 -6.234375 "/></g></g></g><g fill="#00517d" fill-opacity="1"><g transform="translate(95.637411, 150.782975)"><g><path d="M 4.078125 0 L 6.640625 0 L 6.640625 -9.984375 L 10.390625 -9.984375 L 10.390625 -12.484375 L 0.328125 -12.484375 L 0.328125 -9.984375 L 4.078125 -9.984375 Z M 4.078125 0 "/></g></g></g><g fill="#00517d" fill-opacity="1"><g transform="translate(106.363817, 150.782975)"><g><path d="M 3.375 -9.0625 C 3.375 -9.796875 4 -10.34375 5.03125 -10.34375 C 6.109375 -10.34375 6.984375 -9.8125 7.390625 -8.8125 L 9.53125 -9.984375 C 8.8125 -11.6875 7.234375 -12.671875 5.140625 -12.671875 C 2.796875 -12.671875 0.796875 -11.140625 0.796875 -8.90625 C 0.796875 -7.953125 1.171875 -7.15625 1.75 -6.59375 C 2.421875 -5.921875 3.453125 -5.484375 4.796875 -5.078125 C 6.609375 -4.546875 7.15625 -4.203125 7.15625 -3.46875 C 7.15625 -2.703125 6.375 -2.15625 5.265625 -2.15625 C 4 -2.15625 3.015625 -2.8125 2.53125 -3.890625 L 0.296875 -2.734375 C 1.03125 -0.953125 2.828125 0.1875 5.1875 0.1875 C 8.125 0.1875 9.75 -1.46875 9.75 -3.671875 C 9.75 -5.765625 8.15625 -6.734375 5.390625 -7.53125 C 4.046875 -7.921875 3.375 -8.28125 3.375 -9.0625 Z M 3.375 -9.0625 "/></g></g></g><g fill="#00517d" fill-opacity="1"><g transform="translate(116.755522, 150.782975)"><g/></g></g><g fill="#00517d" fill-opacity="1"><g transform="translate(120.756008, 150.782975)"><g><path d="M 4.078125 0 L 6.640625 0 L 6.640625 -9.984375 L 10.390625 -9.984375 L 10.390625 -12.484375 L 0.328125 -12.484375 L 0.328125 -9.984375 L 4.078125 -9.984375 Z M 4.078125 0 "/></g></g></g><g fill="#00517d" fill-opacity="1"><g transform="translate(131.482414, 150.782975)"><g><path d="M 0.6875 -6.234375 C 0.6875 -2.625 3.546875 0.1875 7.140625 0.1875 C 10.71875 0.1875 13.640625 -2.65625 13.640625 -6.296875 C 13.640625 -9.875 10.796875 -12.671875 7.203125 -12.671875 C 3.625 -12.671875 0.6875 -9.8125 0.6875 -6.234375 Z M 3.328125 -6.25 C 3.328125 -8.40625 5.015625 -10.171875 7.171875 -10.171875 C 9.328125 -10.171875 11.015625 -8.40625 11.015625 -6.25 C 11.015625 -4.09375 9.328125 -2.3125 7.171875 -2.3125 C 5.015625 -2.3125 3.328125 -4.09375 3.328125 -6.25 Z M 3.328125 -6.25 "/></g></g></g><g fill="#00517d" fill-opacity="1"><g transform="translate(145.810853, 150.782975)"><g><path d="M 0.6875 -6.234375 C 0.6875 -2.625 3.546875 0.1875 7.140625 0.1875 C 10.71875 0.1875 13.640625 -2.65625 13.640625 -6.296875 C 13.640625 -9.875 10.796875 -12.671875 7.203125 -12.671875 C 3.625 -12.671875 0.6875 -9.8125 0.6875 -6.234375 Z M 3.328125 -6.25 C 3.328125 -8.40625 5.015625 -10.171875 7.171875 -10.171875 C 9.328125 -10.171875 11.015625 -8.40625 11.015625 -6.25 C 11.015625 -4.09375 9.328125 -2.3125 7.171875 -2.3125 C 5.015625 -2.3125 3.328125 -4.09375 3.328125 -6.25 Z M 3.328125 -6.25 "/></g></g></g><g fill="#00517d" fill-opacity="1"><g transform="translate(160.139291, 150.782975)"><g><path d="M 1.453125 -12.484375 L 1.453125 0 L 9.359375 0 L 9.359375 -2.453125 L 4.015625 -2.453125 L 4.015625 -12.484375 Z M 1.453125 -12.484375 "/></g></g></g><g clip-path="url(#bebba709c9)"><g clip-path="url(#0bb83e67eb)"><path stroke-linecap="butt" transform="matrix(0.747283, 0, 0, 0.747283, 74.731163, 38.624683)" fill="none" stroke-linejoin="miter" d="M 74.994756 33.125652 L 56.244528 66.250881 L 18.749299 66.250881 L -0.000929288 33.125652 L 18.749299 0.000423627 L 56.244528 0.000423627 Z M 74.994756 33.125652 " stroke="#00aeef" stroke-width="8" stroke-opacity="1" stroke-miterlimit="4"/></g></g></svg>