<svg xmlns="http://www.w3.org/2000/svg" xmlns:xlink="http://www.w3.org/1999/xlink" width="275" zoomAndPan="magnify" viewBox="0 0 206.25 187.499992" height="250" preserveAspectRatio="xMidYMid meet" version="1.0"><defs><g/><clipPath id="915b90ae12"><path d="M 6.664062 6.203125 L 198.839844 6.203125 L 198.839844 145.292969 L 6.664062 145.292969 Z M 6.664062 6.203125 " clip-rule="nonzero"/></clipPath><clipPath id="5e77033522"><path d="M 61.890625 151.675781 L 142.222656 151.675781 L 142.222656 179.699219 L 61.890625 179.699219 Z M 61.890625 151.675781 " clip-rule="nonzero"/></clipPath><clipPath id="552e704847"><path d="M 156.480469 20.742188 L 166.792969 20.742188 L 166.792969 76.789062 L 156.480469 76.789062 Z M 156.480469 20.742188 " clip-rule="nonzero"/></clipPath></defs><g clip-path="url(#915b90ae12)"><path fill="#ececec" d="M 6.664062 6.203125 L 198.839844 6.203125 L 198.839844 145.292969 L 6.664062 145.292969 Z M 6.664062 6.203125 " fill-opacity="1" fill-rule="nonzero"/></g><g clip-path="url(#5e77033522)"><path fill="#ffffff" d="M 61.890625 151.675781 L 142.222656 151.675781 L 142.222656 179.699219 L 61.890625 179.699219 Z M 61.890625 151.675781 " fill-opacity="1" fill-rule="nonzero"/></g><path stroke-linecap="butt" transform="matrix(0, -0.747283, 0.747283, 0, 48.974528, 119.108098)" fill="none" stroke-linejoin="miter" d="M -0.00170867 1.999541 L 102.58875 1.999541 " stroke="#000000" stroke-width="4" stroke-opacity="1" stroke-miterlimit="4"/><path stroke-linecap="butt" transform="matrix(0, -0.747283, 0.747283, 0, 82.967836, 109.445172)" fill="none" stroke-linejoin="miter" d="M -0.000187402 1.998041 L 105.465272 1.998041 " stroke="#000000" stroke-width="4" stroke-opacity="1" stroke-miterlimit="4"/><path stroke-linecap="butt" transform="matrix(0, -0.747283, 0.747283, 0, 119.53689, 119.108098)" fill="none" stroke-linejoin="miter" d="M -0.00170867 1.999726 L 102.58875 1.999726 " stroke="#000000" stroke-width="4" stroke-opacity="1" stroke-miterlimit="4"/><path stroke-linecap="butt" transform="matrix(0, -0.747283, 0.747283, 0, 153.403875, 109.445172)" fill="none" stroke-linejoin="miter" d="M -0.000187402 1.999997 L 105.465272 1.999997 " stroke="#000000" stroke-width="4" stroke-opacity="1" stroke-miterlimit="4"/><path stroke-linecap="butt" transform="matrix(0.710055, -0.232923, 0.232923, 0.710055, 49.104263, 119.067448)" fill="none" stroke-linejoin="miter" d="M -0.0000425654 2.001004 L 51.174373 1.997921 " stroke="#000000" stroke-width="4" stroke-opacity="1" stroke-miterlimit="4"/><path stroke-linecap="butt" transform="matrix(0.710055, -0.232923, 0.232923, 0.710055, 119.12938, 119.067448)" fill="none" stroke-linejoin="miter" d="M -0.00217818 2.000303 L 51.177204 1.99885 " stroke="#000000" stroke-width="4" stroke-opacity="1" stroke-miterlimit="4"/><path stroke-linecap="butt" transform="matrix(0.709898, 0.233402, -0.233402, 0.709898, 84.763007, 29.588537)" fill="none" stroke-linejoin="miter" d="M 0.000637614 1.999058 L 51.174912 2.000624 " stroke="#000000" stroke-width="4" stroke-opacity="1" stroke-miterlimit="4"/><path stroke-linecap="butt" transform="matrix(0.709898, 0.233402, -0.233402, 0.709898, 85.343999, 107.124393)" fill="none" stroke-linejoin="miter" d="M 0.00166758 1.997735 L 51.175942 1.999301 " stroke="#000000" stroke-width="4" stroke-opacity="1" stroke-miterlimit="4"/><path stroke-linecap="butt" transform="matrix(0.710055, -0.232923, 0.232923, 0.710055, 119.540312, 41.531587)" fill="none" stroke-linejoin="miter" d="M 0.00150893 2.002506 L 51.175925 1.999424 " stroke="#000000" stroke-width="4" stroke-opacity="1" stroke-miterlimit="4"/><path stroke-linecap="butt" transform="matrix(0.710055, -0.232923, 0.232923, 0.710055, 49.104263, 41.531587)" fill="none" stroke-linejoin="miter" d="M -0.000336839 2.001901 L 51.174079 1.998819 " stroke="#000000" stroke-width="4" stroke-opacity="1" stroke-miterlimit="4"/><g clip-path="url(#552e704847)"><path fill="#ececec" d="M 156.480469 20.742188 L 166.792969 20.742188 L 166.792969 76.789062 L 156.480469 76.789062 Z M 156.480469 20.742188 " fill-opacity="1" fill-rule="nonzero"/></g><g fill="#423e3e" fill-opacity="1"><g transform="translate(72.632363, 172.139648)"><g><path d="M 15.03125 -9.785156 L 15.046875 -9.785156 L 15.046875 0 L 18.078125 0 L 18.078125 -14.820312 L 14.007812 -14.820312 L 9.878906 -4.882812 L 5.679688 -14.820312 L 1.722656 -14.820312 L 1.722656 0 L 4.730469 0 L 4.730469 -9.710938 L 4.75 -9.710938 L 8.859375 0 L 10.902344 0 Z M 15.03125 -9.785156 "/></g></g></g><g fill="#423e3e" fill-opacity="1"><g transform="translate(92.430312, 172.139648)"><g><path d="M 3.066406 0 L 4.164062 -2.992188 L 10.734375 -2.992188 L 11.847656 0 L 15.011719 0 L 9.332031 -14.820312 L 5.640625 -14.820312 L -0.0195312 0 Z M 7.457031 -11.847656 L 9.691406 -5.828125 L 5.222656 -5.828125 Z M 7.457031 -11.847656 "/></g></g></g><g fill="#423e3e" fill-opacity="1"><g transform="translate(107.42073, 172.139648)"><g><path d="M 12.53125 -10.070312 C 12.53125 -13.210938 10.203125 -14.820312 7.230469 -14.820312 L 1.722656 -14.820312 L 1.722656 0 L 4.789062 0 L 4.789062 -5.222656 L 7.117188 -5.222656 C 10.222656 -5.222656 12.53125 -6.796875 12.53125 -10.070312 Z M 9.445312 -9.996094 C 9.445312 -8.613281 8.195312 -8.082031 6.984375 -8.082031 L 4.789062 -8.082031 L 4.789062 -11.925781 L 6.964844 -11.925781 C 8.234375 -11.925781 9.445312 -11.433594 9.445312 -9.996094 Z M 9.445312 -9.996094 "/></g></g></g><g fill="#423e3e" fill-opacity="1"><g transform="translate(120.518415, 172.139648)"><g><path d="M 4.011719 -10.769531 C 4.011719 -11.640625 4.75 -12.285156 5.980469 -12.285156 C 7.25 -12.285156 8.289062 -11.660156 8.78125 -10.46875 L 11.320312 -11.847656 C 10.46875 -13.875 8.59375 -15.046875 6.113281 -15.046875 C 3.3125 -15.046875 0.945312 -13.230469 0.945312 -10.582031 C 0.945312 -9.445312 1.402344 -8.5 2.082031 -7.835938 C 2.878906 -7.042969 4.109375 -6.511719 5.699219 -6.039062 C 7.855469 -5.394531 8.5 -4.996094 8.5 -4.125 C 8.5 -3.21875 7.570312 -2.554688 6.246094 -2.554688 C 4.75 -2.554688 3.578125 -3.332031 3.007812 -4.617188 L 0.359375 -3.253906 C 1.230469 -1.136719 3.351562 0.226562 6.152344 0.226562 C 9.652344 0.226562 11.585938 -1.742188 11.585938 -4.355469 C 11.585938 -6.851562 9.691406 -8.007812 6.398438 -8.953125 C 4.808594 -9.40625 4.011719 -9.84375 4.011719 -10.769531 Z M 4.011719 -10.769531 "/></g></g></g></svg>