<svg xmlns="http://www.w3.org/2000/svg" xmlns:xlink="http://www.w3.org/1999/xlink" width="300" zoomAndPan="magnify" viewBox="0 0 224.87999 168.749997" height="225" preserveAspectRatio="xMidYMid meet" version="1.0"><defs><g/><clipPath id="9a15c4ac8e"><path d="M 5.984375 6.058594 L 219.1875 6.058594 L 219.1875 162.441406 L 5.984375 162.441406 Z M 5.984375 6.058594 " clip-rule="nonzero"/></clipPath><clipPath id="978849a157"><path d="M 154.59375 60.25 L 187.523438 60.25 L 187.523438 89.242188 L 154.59375 89.242188 Z M 154.59375 60.25 " clip-rule="nonzero"/></clipPath><clipPath id="40ae95ea50"><path d="M 154.605469 60.253906 L 187.523438 60.253906 L 187.523438 89.039062 L 154.605469 89.039062 Z M 154.605469 60.253906 " clip-rule="nonzero"/></clipPath><clipPath id="75cc4ea7a1"><path d="M 37.738281 60.25 L 157.128906 60.25 L 157.128906 89.042969 L 37.738281 89.042969 Z M 37.738281 60.25 " clip-rule="nonzero"/></clipPath><clipPath id="3a83af21fd"><path d="M 163.464844 71.140625 L 178.707031 71.140625 L 178.707031 80.453125 L 163.464844 80.453125 Z M 163.464844 71.140625 " clip-rule="nonzero"/></clipPath></defs><g clip-path="url(#9a15c4ac8e)"><path fill="#ececec" d="M 5.984375 6.058594 L 219.179688 6.058594 L 219.179688 162.441406 L 5.984375 162.441406 Z M 5.984375 6.058594 " fill-opacity="1" fill-rule="nonzero"/></g><g fill="#423e3e" fill-opacity="1"><g transform="translate(46.849942, 145.878573)"><g><path d="M 14.65625 -7.453125 C 14.65625 -5.984375 14.316406 -4.6875 13.640625 -3.5625 C 12.972656 -2.4375 12.007812 -1.5625 10.75 -0.9375 C 9.488281 -0.3125 7.976562 0 6.21875 0 L 1.71875 0 L 1.71875 -14.859375 L 6.28125 -14.859375 C 8.007812 -14.859375 9.5 -14.566406 10.75 -13.984375 C 12.007812 -13.398438 12.972656 -12.550781 13.640625 -11.4375 C 14.316406 -10.332031 14.65625 -9.003906 14.65625 -7.453125 Z M 11.515625 -7.453125 C 11.515625 -8.429688 11.285156 -9.253906 10.828125 -9.921875 C 10.367188 -10.585938 9.75 -11.09375 8.96875 -11.4375 C 8.195312 -11.78125 7.328125 -11.953125 6.359375 -11.953125 L 4.796875 -11.953125 L 4.796875 -2.90625 L 6.3125 -2.90625 C 7.34375 -2.90625 8.25 -3.082031 9.03125 -3.4375 C 9.8125 -3.789062 10.421875 -4.304688 10.859375 -4.984375 C 11.296875 -5.660156 11.515625 -6.484375 11.515625 -7.453125 Z M 11.515625 -7.453125 "/></g></g></g><g fill="#423e3e" fill-opacity="1"><g transform="translate(62.365778, 145.878573)"><g><path d="M 13.140625 0 L 9.734375 0 L 6.65625 -5.328125 L 4.796875 -5.328125 L 4.796875 0 L 1.71875 0 L 1.71875 -14.859375 L 7.59375 -14.859375 C 8.550781 -14.859375 9.425781 -14.679688 10.21875 -14.328125 C 11.019531 -13.984375 11.65625 -13.460938 12.125 -12.765625 C 12.601562 -12.066406 12.84375 -11.191406 12.84375 -10.140625 C 12.84375 -7.984375 11.820312 -6.535156 9.78125 -5.796875 Z M 7.359375 -8.171875 C 7.734375 -8.171875 8.101562 -8.234375 8.46875 -8.359375 C 8.84375 -8.492188 9.144531 -8.695312 9.375 -8.96875 C 9.613281 -9.25 9.734375 -9.625 9.734375 -10.09375 C 9.734375 -10.570312 9.613281 -10.941406 9.375 -11.203125 C 9.132812 -11.472656 8.832031 -11.664062 8.46875 -11.78125 C 8.101562 -11.894531 7.726562 -11.953125 7.34375 -11.953125 L 4.796875 -11.953125 L 4.796875 -8.171875 Z M 7.359375 -8.171875 "/></g></g></g><g fill="#423e3e" fill-opacity="1"><g transform="translate(76.231393, 145.878573)"><g><path d="M 0.8125 -7.421875 C 0.8125 -8.484375 1.015625 -9.476562 1.421875 -10.40625 C 1.828125 -11.332031 2.382812 -12.144531 3.09375 -12.84375 C 3.800781 -13.550781 4.625 -14.097656 5.5625 -14.484375 C 6.507812 -14.878906 7.515625 -15.078125 8.578125 -15.078125 C 9.640625 -15.078125 10.632812 -14.882812 11.5625 -14.5 C 12.488281 -14.113281 13.300781 -13.578125 14 -12.890625 C 14.707031 -12.203125 15.253906 -11.394531 15.640625 -10.46875 C 16.035156 -9.550781 16.234375 -8.5625 16.234375 -7.5 C 16.234375 -6.414062 16.035156 -5.40625 15.640625 -4.46875 C 15.242188 -3.539062 14.6875 -2.722656 13.96875 -2.015625 C 13.257812 -1.304688 12.4375 -0.753906 11.5 -0.359375 C 10.5625 0.0351562 9.5625 0.234375 8.5 0.234375 C 7.4375 0.234375 6.4375 0.0351562 5.5 -0.359375 C 4.570312 -0.753906 3.757812 -1.296875 3.0625 -1.984375 C 2.363281 -2.679688 1.8125 -3.488281 1.40625 -4.40625 C 1.007812 -5.332031 0.8125 -6.335938 0.8125 -7.421875 Z M 3.96875 -7.4375 C 3.96875 -6.59375 4.164062 -5.8125 4.5625 -5.09375 C 4.96875 -4.375 5.519531 -3.800781 6.21875 -3.375 C 6.914062 -2.957031 7.6875 -2.75 8.53125 -2.75 C 9.394531 -2.75 10.171875 -2.957031 10.859375 -3.375 C 11.546875 -3.800781 12.09375 -4.375 12.5 -5.09375 C 12.90625 -5.8125 13.109375 -6.59375 13.109375 -7.4375 C 13.109375 -8.289062 12.90625 -9.066406 12.5 -9.765625 C 12.09375 -10.472656 11.546875 -11.039062 10.859375 -11.46875 C 10.171875 -11.894531 9.394531 -12.109375 8.53125 -12.109375 C 7.6875 -12.109375 6.914062 -11.894531 6.21875 -11.46875 C 5.519531 -11.039062 4.96875 -10.472656 4.5625 -9.765625 C 4.164062 -9.066406 3.96875 -8.289062 3.96875 -7.4375 Z M 3.96875 -7.4375 "/></g></g></g><g fill="#423e3e" fill-opacity="1"><g transform="translate(93.283644, 145.878573)"><g><path d="M 12.5625 -10.09375 C 12.5625 -9 12.320312 -8.09375 11.84375 -7.375 C 11.375 -6.65625 10.726562 -6.117188 9.90625 -5.765625 C 9.09375 -5.410156 8.164062 -5.234375 7.125 -5.234375 L 4.796875 -5.234375 L 4.796875 0 L 1.71875 0 L 1.71875 -14.859375 L 7.25 -14.859375 C 8.25 -14.859375 9.144531 -14.679688 9.9375 -14.328125 C 10.738281 -13.972656 11.375 -13.441406 11.84375 -12.734375 C 12.320312 -12.023438 12.5625 -11.144531 12.5625 -10.09375 Z M 9.46875 -10.015625 C 9.46875 -10.492188 9.347656 -10.875 9.109375 -11.15625 C 8.867188 -11.445312 8.5625 -11.648438 8.1875 -11.765625 C 7.8125 -11.890625 7.410156 -11.953125 6.984375 -11.953125 L 4.796875 -11.953125 L 4.796875 -8.09375 L 7 -8.09375 C 7.40625 -8.09375 7.796875 -8.15625 8.171875 -8.28125 C 8.554688 -8.414062 8.867188 -8.625 9.109375 -8.90625 C 9.347656 -9.1875 9.46875 -9.554688 9.46875 -10.015625 Z M 9.46875 -10.015625 "/></g></g></g><g fill="#423e3e" fill-opacity="1"><g transform="translate(106.409511, 145.878573)"><g><path d="M 14.65625 -7.453125 C 14.65625 -5.984375 14.316406 -4.6875 13.640625 -3.5625 C 12.972656 -2.4375 12.007812 -1.5625 10.75 -0.9375 C 9.488281 -0.3125 7.976562 0 6.21875 0 L 1.71875 0 L 1.71875 -14.859375 L 6.28125 -14.859375 C 8.007812 -14.859375 9.5 -14.566406 10.75 -13.984375 C 12.007812 -13.398438 12.972656 -12.550781 13.640625 -11.4375 C 14.316406 -10.332031 14.65625 -9.003906 14.65625 -7.453125 Z M 11.515625 -7.453125 C 11.515625 -8.429688 11.285156 -9.253906 10.828125 -9.921875 C 10.367188 -10.585938 9.75 -11.09375 8.96875 -11.4375 C 8.195312 -11.78125 7.328125 -11.953125 6.359375 -11.953125 L 4.796875 -11.953125 L 4.796875 -2.90625 L 6.3125 -2.90625 C 7.34375 -2.90625 8.25 -3.082031 9.03125 -3.4375 C 9.8125 -3.789062 10.421875 -4.304688 10.859375 -4.984375 C 11.296875 -5.660156 11.515625 -6.484375 11.515625 -7.453125 Z M 11.515625 -7.453125 "/></g></g></g><g fill="#423e3e" fill-opacity="1"><g transform="translate(121.925346, 145.878573)"><g><path d="M 0.8125 -7.421875 C 0.8125 -8.484375 1.015625 -9.476562 1.421875 -10.40625 C 1.828125 -11.332031 2.382812 -12.144531 3.09375 -12.84375 C 3.800781 -13.550781 4.625 -14.097656 5.5625 -14.484375 C 6.507812 -14.878906 7.515625 -15.078125 8.578125 -15.078125 C 9.640625 -15.078125 10.632812 -14.882812 11.5625 -14.5 C 12.488281 -14.113281 13.300781 -13.578125 14 -12.890625 C 14.707031 -12.203125 15.253906 -11.394531 15.640625 -10.46875 C 16.035156 -9.550781 16.234375 -8.5625 16.234375 -7.5 C 16.234375 -6.414062 16.035156 -5.40625 15.640625 -4.46875 C 15.242188 -3.539062 14.6875 -2.722656 13.96875 -2.015625 C 13.257812 -1.304688 12.4375 -0.753906 11.5 -0.359375 C 10.5625 0.0351562 9.5625 0.234375 8.5 0.234375 C 7.4375 0.234375 6.4375 0.0351562 5.5 -0.359375 C 4.570312 -0.753906 3.757812 -1.296875 3.0625 -1.984375 C 2.363281 -2.679688 1.8125 -3.488281 1.40625 -4.40625 C 1.007812 -5.332031 0.8125 -6.335938 0.8125 -7.421875 Z M 3.96875 -7.4375 C 3.96875 -6.59375 4.164062 -5.8125 4.5625 -5.09375 C 4.96875 -4.375 5.519531 -3.800781 6.21875 -3.375 C 6.914062 -2.957031 7.6875 -2.75 8.53125 -2.75 C 9.394531 -2.75 10.171875 -2.957031 10.859375 -3.375 C 11.546875 -3.800781 12.09375 -4.375 12.5 -5.09375 C 12.90625 -5.8125 13.109375 -6.59375 13.109375 -7.4375 C 13.109375 -8.289062 12.90625 -9.066406 12.5 -9.765625 C 12.09375 -10.472656 11.546875 -11.039062 10.859375 -11.46875 C 10.171875 -11.894531 9.394531 -12.109375 8.53125 -12.109375 C 7.6875 -12.109375 6.914062 -11.894531 6.21875 -11.46875 C 5.519531 -11.039062 4.96875 -10.472656 4.5625 -9.765625 C 4.164062 -9.066406 3.96875 -8.289062 3.96875 -7.4375 Z M 3.96875 -7.4375 "/></g></g></g><g fill="#423e3e" fill-opacity="1"><g transform="translate(138.977597, 145.878573)"><g><path d="M 8.03125 0 L 4.71875 0 L 0.359375 -14.859375 L 3.640625 -14.859375 L 6.46875 -4.3125 L 9.671875 -14.859375 L 12.953125 -14.859375 L 16.15625 -4.234375 L 19.078125 -14.859375 L 22.25 -14.859375 L 17.84375 0 L 14.53125 0 L 11.3125 -10.78125 L 11.265625 -10.78125 Z M 8.03125 0 "/></g></g></g><g fill="#423e3e" fill-opacity="1"><g transform="translate(161.568502, 145.878573)"><g><path d="M 4.765625 -10.25 L 4.765625 0 L 1.71875 0 L 1.71875 -14.859375 L 5.234375 -14.859375 L 11.6875 -5.15625 L 11.6875 -14.859375 L 14.71875 -14.859375 L 14.71875 0 L 11.59375 0 Z M 4.765625 -10.25 "/></g></g></g><g clip-path="url(#978849a157)"><path fill="#a6a6a6" d="M 187.523438 60.25 L 187.523438 89.242188 L 154.566406 89.242188 L 154.566406 60.25 Z M 187.523438 60.25 " fill-opacity="1" fill-rule="nonzero"/></g><g clip-path="url(#40ae95ea50)"><path stroke-linecap="butt" transform="matrix(0, 0.84678, -0.84678, 0, 187.522917, 60.252014)" fill="none" stroke-linejoin="miter" d="M 0.00223461 -0.000615264 L 34.231155 -0.000615264 L 34.231155 38.873658 L 0.00223461 38.873658 Z M 0.00223461 -0.000615264 " stroke="#a6a6a6" stroke-width="3.537591" stroke-opacity="1" stroke-miterlimit="4"/></g><g clip-path="url(#75cc4ea7a1)"><path stroke-linecap="butt" transform="matrix(0, 0.84678, -0.84678, 0, 157.128991, 60.250742)" fill="none" stroke-linejoin="miter" d="M -0.000875684 0.000100351 L 34.232659 0.000100351 L 34.232659 141.095222 L -0.000875684 141.095222 Z M -0.000875684 0.000100351 " stroke="#a6a6a6" stroke-width="3.537591" stroke-opacity="1" stroke-miterlimit="4"/></g><g clip-path="url(#3a83af21fd)"><path fill="#3c3b3d" d="M 178.707031 71.144531 L 163.464844 71.144531 L 171.085938 80.453125 Z M 178.707031 71.144531 " fill-opacity="1" fill-rule="nonzero"/></g><g fill="#423e3e" fill-opacity="1"><g transform="translate(43.571945, 82.077318)"><g><path d="M 3.328125 0 L 1.4375 0 L 1.4375 -15.359375 L 3.328125 -15.359375 Z M 3.328125 0 "/></g></g></g></svg>