<svg xmlns="http://www.w3.org/2000/svg" xmlns:xlink="http://www.w3.org/1999/xlink" width="61" zoomAndPan="magnify" viewBox="0 0 45.75 30.000001" height="40" preserveAspectRatio="xMidYMid meet" version="1.2"><defs><clipPath id="ea118f8a5c"><path d="M 33.898438 10.558594 L 42.632812 10.558594 L 42.632812 18.25 L 33.898438 18.25 Z M 33.898438 10.558594 "/></clipPath><clipPath id="6f2d7dc1c6"><path d="M 33.921875 10.558594 L 42.632812 10.558594 L 42.632812 18.226562 L 33.921875 18.226562 Z M 33.921875 10.558594 "/></clipPath><clipPath id="02a0429938"><path d="M 2.875 10.558594 L 34.566406 10.558594 L 34.566406 18.246094 L 2.875 18.246094 Z M 2.875 10.558594 "/></clipPath><clipPath id="692e43e847"><path d="M 36.25 13.445312 L 40 13.445312 L 40 15.625 L 36.25 15.625 Z M 36.25 13.445312 "/></clipPath></defs><g id="e2b670b1ae"><g clip-rule="nonzero" clip-path="url(#ea118f8a5c)"><path style=" stroke:none;fill-rule:nonzero;fill:#e4e2df;fill-opacity:1;" d="M 42.632812 10.558594 L 42.632812 18.25 L 33.890625 18.25 L 33.890625 10.558594 Z M 42.632812 10.558594 "/></g><g clip-rule="nonzero" clip-path="url(#6f2d7dc1c6)"><path style="fill:none;stroke-width:4;stroke-linecap:butt;stroke-linejoin:miter;stroke:#e4e2df;stroke-opacity:1;stroke-miterlimit:4;" d="M 0.00125896 -0.000300752 L 10.593528 -0.000300752 L 10.593528 12.032689 L 0.00125896 12.032689 Z M 0.00125896 -0.000300752 " transform="matrix(0,0.723921,-0.723921,0,42.632595,10.557682)"/></g><g clip-rule="nonzero" clip-path="url(#02a0429938)"><path style="fill:none;stroke-width:2;stroke-linecap:butt;stroke-linejoin:miter;stroke:#e4e2df;stroke-opacity:1;stroke-miterlimit:4;" d="M 0.00191713 0.000299239 L 10.593584 0.000299239 L 10.593584 43.664015 L 0.00191713 43.664015 Z M 0.00191713 0.000299239 " transform="matrix(0,0.725806,-0.725806,0,34.566623,10.557202)"/></g><g clip-rule="nonzero" clip-path="url(#692e43e847)"><path style=" stroke:none;fill-rule:nonzero;fill:#333333;fill-opacity:1;" d="M 39.96875 13.449219 L 36.25 13.449219 L 38.109375 15.621094 Z M 39.96875 13.449219 "/></g><g style="fill:#808080;fill-opacity:1;"><g transform="translate(4.444848, 16.34776)"><path style="stroke:none" d="M 0.875 0 L 0.375 0 L 0.375 -4.078125 L 0.875 -4.078125 Z M 0.875 0 "/></g></g></g></svg>