<svg xmlns="http://www.w3.org/2000/svg" xmlns:xlink="http://www.w3.org/1999/xlink" width="275" zoomAndPan="magnify" viewBox="0 0 206.25 187.499992" height="250" preserveAspectRatio="xMidYMid meet" version="1.0"><defs><g/><clipPath id="ab3922c24a"><path d="M 6.664062 6.203125 L 198.839844 6.203125 L 198.839844 145.292969 L 6.664062 145.292969 Z M 6.664062 6.203125 " clip-rule="nonzero"/></clipPath><clipPath id="9bc8848f1c"><path d="M 30.820312 151.675781 L 175.875 151.675781 L 175.875 179.699219 L 30.820312 179.699219 Z M 30.820312 151.675781 " clip-rule="nonzero"/></clipPath><clipPath id="cf509fd1dd"><path d="M 146.746094 60.117188 L 181.234375 60.117188 L 181.234375 90.484375 L 146.746094 90.484375 Z M 146.746094 60.117188 " clip-rule="nonzero"/></clipPath><clipPath id="b20aa40a2b"><path d="M 146.757812 60.121094 L 181.234375 60.121094 L 181.234375 90.273438 L 146.757812 90.273438 Z M 146.757812 60.121094 " clip-rule="nonzero"/></clipPath><clipPath id="e3ef41c0db"><path d="M 24.355469 60.117188 L 149.402344 60.117188 L 149.402344 90.273438 L 24.355469 90.273438 Z M 24.355469 60.117188 " clip-rule="nonzero"/></clipPath><clipPath id="593b0d635d"><path d="M 156.039062 71.523438 L 172 71.523438 L 172 81.28125 L 156.039062 81.28125 Z M 156.039062 71.523438 " clip-rule="nonzero"/></clipPath></defs><g clip-path="url(#ab3922c24a)"><path fill="#ececec" d="M 6.664062 6.203125 L 198.839844 6.203125 L 198.839844 145.292969 L 6.664062 145.292969 Z M 6.664062 6.203125 " fill-opacity="1" fill-rule="nonzero"/></g><g clip-path="url(#9bc8848f1c)"><path fill="#ffffff" d="M 30.820312 151.675781 L 175.875 151.675781 L 175.875 179.699219 L 30.820312 179.699219 Z M 30.820312 151.675781 " fill-opacity="1" fill-rule="nonzero"/></g><g fill="#423e3e" fill-opacity="1"><g transform="translate(37.294071, 172.139648)"><g><path d="M 14.632812 -7.4375 C 14.632812 -12.09375 11.433594 -14.820312 6.265625 -14.820312 L 1.722656 -14.820312 L 1.722656 0 L 6.207031 0 C 11.453125 0 14.632812 -3.027344 14.632812 -7.4375 Z M 11.488281 -7.4375 C 11.488281 -4.523438 9.371094 -2.894531 6.304688 -2.894531 L 4.789062 -2.894531 L 4.789062 -11.925781 L 6.339844 -11.925781 C 9.257812 -11.925781 11.488281 -10.355469 11.488281 -7.4375 Z M 11.488281 -7.4375 "/></g></g></g><g fill="#423e3e" fill-opacity="1"><g transform="translate(52.776593, 172.139648)"><g><path d="M 13.117188 0 L 9.765625 -5.792969 C 11.773438 -6.511719 12.816406 -8.007812 12.816406 -10.125 C 12.816406 -13.269531 10.449219 -14.820312 7.570312 -14.820312 L 1.722656 -14.820312 L 1.722656 0 L 4.789062 0 L 4.789062 -5.320312 L 6.644531 -5.320312 L 9.710938 0 Z M 7.34375 -8.160156 L 4.789062 -8.160156 L 4.789062 -11.925781 L 7.324219 -11.925781 C 8.480469 -11.925781 9.710938 -11.488281 9.710938 -10.070312 C 9.710938 -8.667969 8.480469 -8.160156 7.34375 -8.160156 Z M 7.34375 -8.160156 "/></g></g></g><g fill="#423e3e" fill-opacity="1"><g transform="translate(66.612438, 172.139648)"><g><path d="M 0.8125 -7.402344 C 0.8125 -3.125 4.222656 0.226562 8.480469 0.226562 C 12.738281 0.226562 16.203125 -3.160156 16.203125 -7.476562 C 16.203125 -11.734375 12.816406 -15.046875 8.554688 -15.046875 C 4.296875 -15.046875 0.8125 -11.660156 0.8125 -7.402344 Z M 3.957031 -7.421875 C 3.957031 -9.976562 5.960938 -12.078125 8.519531 -12.078125 C 11.074219 -12.078125 13.078125 -9.976562 13.078125 -7.421875 C 13.078125 -4.863281 11.074219 -2.746094 8.519531 -2.746094 C 5.960938 -2.746094 3.957031 -4.863281 3.957031 -7.421875 Z M 3.957031 -7.421875 "/></g></g></g><g fill="#423e3e" fill-opacity="1"><g transform="translate(83.628077, 172.139648)"><g><path d="M 12.53125 -10.070312 C 12.53125 -13.210938 10.203125 -14.820312 7.230469 -14.820312 L 1.722656 -14.820312 L 1.722656 0 L 4.789062 0 L 4.789062 -5.222656 L 7.117188 -5.222656 C 10.222656 -5.222656 12.53125 -6.796875 12.53125 -10.070312 Z M 9.445312 -9.996094 C 9.445312 -8.613281 8.195312 -8.082031 6.984375 -8.082031 L 4.789062 -8.082031 L 4.789062 -11.925781 L 6.964844 -11.925781 C 8.234375 -11.925781 9.445312 -11.433594 9.445312 -9.996094 Z M 9.445312 -9.996094 "/></g></g></g><g fill="#423e3e" fill-opacity="1"><g transform="translate(96.725762, 172.139648)"><g><path d="M 14.632812 -7.4375 C 14.632812 -12.09375 11.433594 -14.820312 6.265625 -14.820312 L 1.722656 -14.820312 L 1.722656 0 L 6.207031 0 C 11.453125 0 14.632812 -3.027344 14.632812 -7.4375 Z M 11.488281 -7.4375 C 11.488281 -4.523438 9.371094 -2.894531 6.304688 -2.894531 L 4.789062 -2.894531 L 4.789062 -11.925781 L 6.339844 -11.925781 C 9.257812 -11.925781 11.488281 -10.355469 11.488281 -7.4375 Z M 11.488281 -7.4375 "/></g></g></g><g fill="#423e3e" fill-opacity="1"><g transform="translate(112.208283, 172.139648)"><g><path d="M 0.8125 -7.402344 C 0.8125 -3.125 4.222656 0.226562 8.480469 0.226562 C 12.738281 0.226562 16.203125 -3.160156 16.203125 -7.476562 C 16.203125 -11.734375 12.816406 -15.046875 8.554688 -15.046875 C 4.296875 -15.046875 0.8125 -11.660156 0.8125 -7.402344 Z M 3.957031 -7.421875 C 3.957031 -9.976562 5.960938 -12.078125 8.519531 -12.078125 C 11.074219 -12.078125 13.078125 -9.976562 13.078125 -7.421875 C 13.078125 -4.863281 11.074219 -2.746094 8.519531 -2.746094 C 5.960938 -2.746094 3.957031 -4.863281 3.957031 -7.421875 Z M 3.957031 -7.421875 "/></g></g></g><g fill="#423e3e" fill-opacity="1"><g transform="translate(129.223923, 172.139648)"><g><path d="M 8.007812 0 L 11.242188 -10.75 L 11.28125 -10.75 L 14.5 0 L 17.8125 0 L 22.203125 -14.820312 L 19.042969 -14.820312 L 16.128906 -4.222656 L 12.929688 -14.820312 L 9.652344 -14.820312 L 6.453125 -4.296875 L 3.632812 -14.820312 L 0.359375 -14.820312 L 4.714844 0 Z M 8.007812 0 "/></g></g></g><g fill="#423e3e" fill-opacity="1"><g transform="translate(151.766324, 172.139648)"><g><path d="M 4.75 -10.222656 L 11.566406 0 L 14.6875 0 L 14.6875 -14.820312 L 11.660156 -14.820312 L 11.660156 -5.148438 L 5.222656 -14.820312 L 1.722656 -14.820312 L 1.722656 0 L 4.75 0 Z M 4.75 -10.222656 "/></g></g></g><g clip-path="url(#cf509fd1dd)"><path fill="#a6a6a6" d="M 181.234375 60.117188 L 181.234375 90.484375 L 146.746094 90.484375 L 146.746094 60.117188 Z M 181.234375 60.117188 " fill-opacity="1" fill-rule="nonzero"/></g><g clip-path="url(#b20aa40a2b)"><path stroke-linecap="butt" transform="matrix(0, 0.886891, -0.886891, 0, 181.236239, 60.120249)" fill="none" stroke-linejoin="miter" d="M 0.000952396 0.00210145 L 34.227789 0.00210145 L 34.227789 38.875613 L 0.000952396 38.875613 Z M 0.000952396 0.00210145 " stroke="#a6a6a6" stroke-width="3.370347" stroke-opacity="1" stroke-miterlimit="4"/></g><g clip-path="url(#e3ef41c0db)"><path stroke-linecap="butt" transform="matrix(0, 0.886891, -0.886891, 0, 149.402587, 60.118917)" fill="none" stroke-linejoin="miter" d="M -0.00195021 0.000274068 L 34.233699 0.000274068 L 34.233699 141.09625 L -0.00195021 141.09625 Z M -0.00195021 0.000274068 " stroke="#a6a6a6" stroke-width="3.370347" stroke-opacity="1" stroke-miterlimit="4"/></g><g clip-path="url(#593b0d635d)"><path fill="#3c3b3d" d="M 172 71.527344 L 156.039062 71.527344 L 164.019531 81.277344 Z M 172 71.527344 " fill-opacity="1" fill-rule="nonzero"/></g><g fill="#423e3e" fill-opacity="1"><g transform="translate(30.466548, 82.979366)"><g><path d="M 3.484375 0 L 1.5 0 L 1.5 -16.09375 L 3.484375 -16.09375 Z M 3.484375 0 "/></g></g></g></svg>