<svg xmlns="http://www.w3.org/2000/svg" xmlns:xlink="http://www.w3.org/1999/xlink" width="300" zoomAndPan="magnify" viewBox="0 0 224.87999 168.749997" height="225" preserveAspectRatio="xMidYMid meet" version="1.0"><defs><g/><clipPath id="56b9d18b9f"><path d="M 5.984375 6.058594 L 219.1875 6.058594 L 219.1875 162.441406 L 5.984375 162.441406 Z M 5.984375 6.058594 " clip-rule="nonzero"/></clipPath><clipPath id="328bf1577d"><path d="M 92.09375 28.136719 L 134.515625 28.136719 L 134.515625 47.644531 L 92.09375 47.644531 Z M 92.09375 28.136719 " clip-rule="nonzero"/></clipPath><clipPath id="43652dab0a"><path d="M 54.386719 58.296875 L 96.8125 58.296875 L 96.8125 77.804688 L 54.386719 77.804688 Z M 54.386719 58.296875 " clip-rule="nonzero"/></clipPath><clipPath id="04ccf33d02"><path d="M 128.046875 58.296875 L 170.472656 58.296875 L 170.472656 77.804688 L 128.046875 77.804688 Z M 128.046875 58.296875 " clip-rule="nonzero"/></clipPath><clipPath id="801aff4c9d"><path d="M 128.046875 93.78125 L 170.472656 93.78125 L 170.472656 113.289062 L 128.046875 113.289062 Z M 128.046875 93.78125 " clip-rule="nonzero"/></clipPath><clipPath id="cc4b670312"><path d="M 54.386719 93.78125 L 96.8125 93.78125 L 96.8125 113.289062 L 54.386719 113.289062 Z M 54.386719 93.78125 " clip-rule="nonzero"/></clipPath></defs><g clip-path="url(#56b9d18b9f)"><path fill="#ececec" d="M 5.984375 6.058594 L 219.179688 6.058594 L 219.179688 162.441406 L 5.984375 162.441406 Z M 5.984375 6.058594 " fill-opacity="1" fill-rule="nonzero"/></g><path stroke-linecap="butt" transform="matrix(0.68225, 0.235551, -0.235551, 0.68225, 112.672621, 44.979029)" fill="none" stroke-linejoin="miter" d="M 0.0022043 1.999563 L 53.987574 1.997391 " stroke="#625e5e" stroke-width="4" stroke-opacity="1" stroke-miterlimit="4"/><path stroke-linecap="butt" transform="matrix(-0.682445, 0.234985, -0.234985, -0.682445, 113.156014, 47.708614)" fill="none" stroke-linejoin="miter" d="M -0.00189522 1.999308 L 53.98648 1.997763 " stroke="#bebebe" stroke-width="4" stroke-opacity="1" stroke-miterlimit="4"/><g clip-path="url(#328bf1577d)"><path fill="#625e5e" d="M 134.515625 28.136719 L 134.515625 47.644531 L 92.070312 47.644531 L 92.070312 28.136719 Z M 134.515625 28.136719 " fill-opacity="1" fill-rule="nonzero"/></g><g clip-path="url(#43652dab0a)"><path fill="#c8cbcb" d="M 96.8125 58.296875 L 96.8125 77.804688 L 54.367188 77.804688 L 54.367188 58.296875 Z M 96.8125 58.296875 " fill-opacity="1" fill-rule="nonzero"/></g><g clip-path="url(#04ccf33d02)"><path fill="#625e5e" d="M 170.472656 58.296875 L 170.472656 77.804688 L 128.027344 77.804688 L 128.027344 58.296875 Z M 170.472656 58.296875 " fill-opacity="1" fill-rule="nonzero"/></g><g clip-path="url(#801aff4c9d)"><path fill="#625e5e" d="M 170.472656 93.78125 L 170.472656 113.289062 L 128.027344 113.289062 L 128.027344 93.78125 Z M 170.472656 93.78125 " fill-opacity="1" fill-rule="nonzero"/></g><g clip-path="url(#cc4b670312)"><path fill="#c8cbcb" d="M 96.8125 93.78125 L 96.8125 113.289062 L 54.367188 113.289062 L 54.367188 93.78125 Z M 96.8125 93.78125 " fill-opacity="1" fill-rule="nonzero"/></g><path stroke-linecap="butt" transform="matrix(0, 0.721768, -0.721768, 0, 150.944824, 68.981276)" fill="none" stroke-linejoin="miter" d="M -0.00111794 2.001783 L 40.340344 2.001783 " stroke="#625e5e" stroke-width="4" stroke-opacity="1" stroke-miterlimit="4"/><path stroke-linecap="butt" transform="matrix(0, 0.721768, -0.721768, 0, 76.813801, 74.421921)" fill="none" stroke-linejoin="miter" d="M -0.0000633105 1.998851 L 40.341398 1.998851 " stroke="#c8cbcb" stroke-width="4" stroke-opacity="1" stroke-miterlimit="4"/><g fill="#423e3e" fill-opacity="1"><g transform="translate(49.361084, 145.878556)"><g><path d="M 1.71875 -14.859375 L 11.453125 -14.859375 L 11.453125 -11.96875 L 4.765625 -11.96875 L 4.765625 -8.953125 L 10.75 -8.953125 L 10.75 -6.0625 L 4.765625 -6.0625 L 4.765625 -2.859375 L 11.5 -2.859375 L 11.5 0 L 1.71875 0 Z M 1.71875 -14.859375 "/></g></g></g><g fill="#423e3e" fill-opacity="1"><g transform="translate(61.936881, 145.878556)"><g><path d="M 12.5625 -10.09375 C 12.5625 -9 12.320312 -8.09375 11.84375 -7.375 C 11.375 -6.65625 10.726562 -6.117188 9.90625 -5.765625 C 9.09375 -5.410156 8.164062 -5.234375 7.125 -5.234375 L 4.796875 -5.234375 L 4.796875 0 L 1.71875 0 L 1.71875 -14.859375 L 7.25 -14.859375 C 8.25 -14.859375 9.144531 -14.679688 9.9375 -14.328125 C 10.738281 -13.972656 11.375 -13.441406 11.84375 -12.734375 C 12.320312 -12.023438 12.5625 -11.144531 12.5625 -10.09375 Z M 9.46875 -10.015625 C 9.46875 -10.492188 9.347656 -10.875 9.109375 -11.15625 C 8.867188 -11.445312 8.5625 -11.648438 8.1875 -11.765625 C 7.8125 -11.890625 7.410156 -11.953125 6.984375 -11.953125 L 4.796875 -11.953125 L 4.796875 -8.09375 L 7 -8.09375 C 7.40625 -8.09375 7.796875 -8.15625 8.171875 -8.28125 C 8.554688 -8.414062 8.867188 -8.625 9.109375 -8.90625 C 9.347656 -9.1875 9.46875 -9.554688 9.46875 -10.015625 Z M 9.46875 -10.015625 "/></g></g></g><g fill="#423e3e" fill-opacity="1"><g transform="translate(75.062748, 145.878556)"><g><path d="M 15.0625 -9.8125 L 10.921875 0 L 8.875 0 L 4.765625 -9.734375 L 4.75 -9.734375 L 4.75 0 L 1.71875 0 L 1.71875 -14.859375 L 5.6875 -14.859375 L 9.90625 -4.890625 L 14.03125 -14.859375 L 18.109375 -14.859375 L 18.109375 0 L 15.078125 0 L 15.078125 -9.8125 Z M 15.0625 -9.8125 "/></g></g></g><g fill="#423e3e" fill-opacity="1"><g transform="translate(94.903295, 145.878556)"><g/></g></g><g fill="#423e3e" fill-opacity="1"><g transform="translate(99.664262, 145.878556)"><g><path d="M 12.5625 -10.09375 C 12.5625 -9 12.320312 -8.09375 11.84375 -7.375 C 11.375 -6.65625 10.726562 -6.117188 9.90625 -5.765625 C 9.09375 -5.410156 8.164062 -5.234375 7.125 -5.234375 L 4.796875 -5.234375 L 4.796875 0 L 1.71875 0 L 1.71875 -14.859375 L 7.25 -14.859375 C 8.25 -14.859375 9.144531 -14.679688 9.9375 -14.328125 C 10.738281 -13.972656 11.375 -13.441406 11.84375 -12.734375 C 12.320312 -12.023438 12.5625 -11.144531 12.5625 -10.09375 Z M 9.46875 -10.015625 C 9.46875 -10.492188 9.347656 -10.875 9.109375 -11.15625 C 8.867188 -11.445312 8.5625 -11.648438 8.1875 -11.765625 C 7.8125 -11.890625 7.410156 -11.953125 6.984375 -11.953125 L 4.796875 -11.953125 L 4.796875 -8.09375 L 7 -8.09375 C 7.40625 -8.09375 7.796875 -8.15625 8.171875 -8.28125 C 8.554688 -8.414062 8.867188 -8.625 9.109375 -8.90625 C 9.347656 -9.1875 9.46875 -9.554688 9.46875 -10.015625 Z M 9.46875 -10.015625 "/></g></g></g><g fill="#423e3e" fill-opacity="1"><g transform="translate(112.790128, 145.878556)"><g><path d="M 4.796875 -14.859375 L 4.796875 0 L 1.71875 0 L 1.71875 -14.859375 Z M 4.796875 -14.859375 "/></g></g></g><g fill="#423e3e" fill-opacity="1"><g transform="translate(119.334098, 145.878556)"><g><path d="M 0.8125 -7.421875 C 0.8125 -8.492188 1.007812 -9.492188 1.40625 -10.421875 C 1.8125 -11.347656 2.367188 -12.160156 3.078125 -12.859375 C 3.785156 -13.554688 4.601562 -14.097656 5.53125 -14.484375 C 6.457031 -14.878906 7.453125 -15.078125 8.515625 -15.078125 C 9.492188 -15.078125 10.429688 -14.90625 11.328125 -14.5625 C 12.234375 -14.226562 13.03125 -13.734375 13.71875 -13.078125 C 14.40625 -12.429688 14.914062 -11.640625 15.25 -10.703125 L 12.4375 -9.40625 C 12.125 -10.226562 11.625 -10.878906 10.9375 -11.359375 C 10.25 -11.835938 9.4375 -12.078125 8.5 -12.078125 C 7.632812 -12.078125 6.863281 -11.867188 6.1875 -11.453125 C 5.507812 -11.035156 4.972656 -10.472656 4.578125 -9.765625 C 4.191406 -9.066406 4 -8.296875 4 -7.453125 C 4 -6.597656 4.191406 -5.816406 4.578125 -5.109375 C 4.960938 -4.398438 5.492188 -3.832031 6.171875 -3.40625 C 6.847656 -2.976562 7.625 -2.765625 8.5 -2.765625 C 9.4375 -2.765625 10.253906 -3.019531 10.953125 -3.53125 C 11.648438 -4.050781 12.160156 -4.710938 12.484375 -5.515625 L 15.3125 -4.21875 C 14.96875 -3.28125 14.441406 -2.476562 13.734375 -1.8125 C 13.023438 -1.15625 12.210938 -0.65625 11.296875 -0.3125 C 10.378906 0.03125 9.429688 0.203125 8.453125 0.203125 C 7.378906 0.203125 6.378906 0.0078125 5.453125 -0.375 C 4.523438 -0.757812 3.710938 -1.296875 3.015625 -1.984375 C 2.316406 -2.671875 1.773438 -3.476562 1.390625 -4.40625 C 1.003906 -5.332031 0.8125 -6.335938 0.8125 -7.421875 Z M 0.8125 -7.421875 "/></g></g></g><g fill="#423e3e" fill-opacity="1"><g transform="translate(135.115489, 145.878556)"><g><path d="M 4.78125 0 L 1.71875 0 L 1.71875 -14.859375 L 4.78125 -14.859375 L 4.78125 -8.390625 L 9.875 -14.859375 L 13.71875 -14.859375 L 8.046875 -7.765625 L 14.09375 0 L 10.125 0 L 4.78125 -7.0625 Z M 4.78125 0 "/></g></g></g><g fill="#423e3e" fill-opacity="1"><g transform="translate(149.07595, 145.878556)"><g><path d="M 1.71875 -14.859375 L 11.453125 -14.859375 L 11.453125 -11.96875 L 4.765625 -11.96875 L 4.765625 -8.953125 L 10.75 -8.953125 L 10.75 -6.0625 L 4.765625 -6.0625 L 4.765625 -2.859375 L 11.5 -2.859375 L 11.5 0 L 1.71875 0 Z M 1.71875 -14.859375 "/></g></g></g><g fill="#423e3e" fill-opacity="1"><g transform="translate(161.651747, 145.878556)"><g><path d="M 13.140625 0 L 9.734375 0 L 6.65625 -5.328125 L 4.796875 -5.328125 L 4.796875 0 L 1.71875 0 L 1.71875 -14.859375 L 7.59375 -14.859375 C 8.550781 -14.859375 9.425781 -14.679688 10.21875 -14.328125 C 11.019531 -13.984375 11.65625 -13.460938 12.125 -12.765625 C 12.601562 -12.066406 12.84375 -11.191406 12.84375 -10.140625 C 12.84375 -7.984375 11.820312 -6.535156 9.78125 -5.796875 Z M 7.359375 -8.171875 C 7.734375 -8.171875 8.101562 -8.234375 8.46875 -8.359375 C 8.84375 -8.492188 9.144531 -8.695312 9.375 -8.96875 C 9.613281 -9.25 9.734375 -9.625 9.734375 -10.09375 C 9.734375 -10.570312 9.613281 -10.941406 9.375 -11.203125 C 9.132812 -11.472656 8.832031 -11.664062 8.46875 -11.78125 C 8.101562 -11.894531 7.726562 -11.953125 7.34375 -11.953125 L 4.796875 -11.953125 L 4.796875 -8.171875 Z M 7.359375 -8.171875 "/></g></g></g></svg>