<svg xmlns="http://www.w3.org/2000/svg" xmlns:xlink="http://www.w3.org/1999/xlink" width="275" zoomAndPan="magnify" viewBox="0 0 206.25 187.499992" height="250" preserveAspectRatio="xMidYMid meet" version="1.0"><defs><g/><clipPath id="c120471c61"><path d="M 6.664062 6.203125 L 198.839844 6.203125 L 198.839844 145.292969 L 6.664062 145.292969 Z M 6.664062 6.203125 " clip-rule="nonzero"/></clipPath><clipPath id="fdc73e92df"><path d="M 30.539062 152.242188 L 173.394531 152.242188 L 173.394531 177.519531 L 30.539062 177.519531 Z M 30.539062 152.242188 " clip-rule="nonzero"/></clipPath><clipPath id="7d3878fdf1"><path d="M 81.265625 30.796875 L 126.0625 30.796875 L 126.0625 51.390625 L 81.265625 51.390625 Z M 81.265625 30.796875 " clip-rule="nonzero"/></clipPath><clipPath id="a1be726a7a"><path d="M 41.457031 62.640625 L 86.25 62.640625 L 86.25 83.238281 L 41.457031 83.238281 Z M 41.457031 62.640625 " clip-rule="nonzero"/></clipPath><clipPath id="289c8c63b7"><path d="M 119.230469 62.640625 L 164.027344 62.640625 L 164.027344 83.238281 L 119.230469 83.238281 Z M 119.230469 62.640625 " clip-rule="nonzero"/></clipPath><clipPath id="76d9045cd4"><path d="M 119.230469 100.101562 L 164.027344 100.101562 L 164.027344 120.699219 L 119.230469 120.699219 Z M 119.230469 100.101562 " clip-rule="nonzero"/></clipPath><clipPath id="a20e10dbb7"><path d="M 41.457031 100.101562 L 86.25 100.101562 L 86.25 120.699219 L 41.457031 120.699219 Z M 41.457031 100.101562 " clip-rule="nonzero"/></clipPath></defs><g clip-path="url(#c120471c61)"><path fill="#ececec" d="M 6.664062 6.203125 L 199 6.203125 L 199 145.292969 L 6.664062 145.292969 Z M 6.664062 6.203125 " fill-opacity="1" fill-rule="nonzero"/></g><g clip-path="url(#fdc73e92df)"><path fill="#ffffff" d="M 30.539062 152.242188 L 173.421875 152.242188 L 173.421875 177.519531 L 30.539062 177.519531 Z M 30.539062 152.242188 " fill-opacity="1" fill-rule="nonzero"/></g><g fill="#423e3e" fill-opacity="1"><g transform="translate(36.497745, 172.787288)"><g><path d="M 1.8125 -15.59375 L 12.03125 -15.59375 L 12.03125 -12.578125 L 5 -12.578125 L 5 -9.40625 L 11.296875 -9.40625 L 11.296875 -6.375 L 5 -6.375 L 5 -3.015625 L 12.078125 -3.015625 L 12.078125 0 L 1.8125 0 Z M 1.8125 -15.59375 "/></g></g></g><g fill="#423e3e" fill-opacity="1"><g transform="translate(49.704496, 172.787288)"><g><path d="M 13.1875 -10.59375 C 13.1875 -9.457031 12.9375 -8.507812 12.4375 -7.75 C 11.9375 -6.988281 11.257812 -6.421875 10.40625 -6.046875 C 9.550781 -5.679688 8.578125 -5.5 7.484375 -5.5 L 5.046875 -5.5 L 5.046875 0 L 1.8125 0 L 1.8125 -15.59375 L 7.609375 -15.59375 C 8.660156 -15.59375 9.601562 -15.40625 10.4375 -15.03125 C 11.269531 -14.664062 11.9375 -14.109375 12.4375 -13.359375 C 12.9375 -12.617188 13.1875 -11.695312 13.1875 -10.59375 Z M 9.9375 -10.515625 C 9.9375 -11.023438 9.8125 -11.425781 9.5625 -11.71875 C 9.3125 -12.019531 8.988281 -12.234375 8.59375 -12.359375 C 8.207031 -12.484375 7.785156 -12.546875 7.328125 -12.546875 L 5.046875 -12.546875 L 5.046875 -8.5 L 7.34375 -8.5 C 7.769531 -8.5 8.179688 -8.566406 8.578125 -8.703125 C 8.984375 -8.835938 9.3125 -9.050781 9.5625 -9.34375 C 9.8125 -9.644531 9.9375 -10.035156 9.9375 -10.515625 Z M 9.9375 -10.515625 "/></g></g></g><g fill="#423e3e" fill-opacity="1"><g transform="translate(63.488915, 172.787288)"><g><path d="M 15.8125 -10.296875 L 11.46875 0 L 9.328125 0 L 5 -10.21875 L 4.984375 -10.21875 L 4.984375 0 L 1.8125 0 L 1.8125 -15.59375 L 5.96875 -15.59375 L 10.40625 -5.140625 L 14.734375 -15.59375 L 19.03125 -15.59375 L 19.03125 0 L 15.84375 0 L 15.84375 -10.296875 Z M 15.8125 -10.296875 "/></g></g></g><g fill="#423e3e" fill-opacity="1"><g transform="translate(84.324901, 172.787288)"><g/></g></g><g fill="#423e3e" fill-opacity="1"><g transform="translate(89.324737, 172.787288)"><g><path d="M 13.1875 -10.59375 C 13.1875 -9.457031 12.9375 -8.507812 12.4375 -7.75 C 11.9375 -6.988281 11.257812 -6.421875 10.40625 -6.046875 C 9.550781 -5.679688 8.578125 -5.5 7.484375 -5.5 L 5.046875 -5.5 L 5.046875 0 L 1.8125 0 L 1.8125 -15.59375 L 7.609375 -15.59375 C 8.660156 -15.59375 9.601562 -15.40625 10.4375 -15.03125 C 11.269531 -14.664062 11.9375 -14.109375 12.4375 -13.359375 C 12.9375 -12.617188 13.1875 -11.695312 13.1875 -10.59375 Z M 9.9375 -10.515625 C 9.9375 -11.023438 9.8125 -11.425781 9.5625 -11.71875 C 9.3125 -12.019531 8.988281 -12.234375 8.59375 -12.359375 C 8.207031 -12.484375 7.785156 -12.546875 7.328125 -12.546875 L 5.046875 -12.546875 L 5.046875 -8.5 L 7.34375 -8.5 C 7.769531 -8.5 8.179688 -8.566406 8.578125 -8.703125 C 8.984375 -8.835938 9.3125 -9.050781 9.5625 -9.34375 C 9.8125 -9.644531 9.9375 -10.035156 9.9375 -10.515625 Z M 9.9375 -10.515625 "/></g></g></g><g fill="#423e3e" fill-opacity="1"><g transform="translate(103.109156, 172.787288)"><g><path d="M 5.046875 -15.59375 L 5.046875 0 L 1.8125 0 L 1.8125 -15.59375 Z M 5.046875 -15.59375 "/></g></g></g><g fill="#423e3e" fill-opacity="1"><g transform="translate(109.981439, 172.787288)"><g><path d="M 0.859375 -7.796875 C 0.859375 -8.921875 1.066406 -9.96875 1.484375 -10.9375 C 1.898438 -11.914062 2.476562 -12.769531 3.21875 -13.5 C 3.96875 -14.238281 4.828125 -14.8125 5.796875 -15.21875 C 6.773438 -15.632812 7.820312 -15.84375 8.9375 -15.84375 C 9.96875 -15.84375 10.957031 -15.660156 11.90625 -15.296875 C 12.851562 -14.941406 13.6875 -14.421875 14.40625 -13.734375 C 15.132812 -13.046875 15.671875 -12.210938 16.015625 -11.234375 L 13.0625 -9.875 C 12.738281 -10.738281 12.210938 -11.421875 11.484375 -11.921875 C 10.765625 -12.429688 9.910156 -12.6875 8.921875 -12.6875 C 8.015625 -12.6875 7.207031 -12.46875 6.5 -12.03125 C 5.789062 -11.59375 5.226562 -11.003906 4.8125 -10.265625 C 4.40625 -9.523438 4.203125 -8.710938 4.203125 -7.828125 C 4.203125 -6.921875 4.40625 -6.097656 4.8125 -5.359375 C 5.21875 -4.617188 5.773438 -4.023438 6.484375 -3.578125 C 7.191406 -3.128906 8.003906 -2.90625 8.921875 -2.90625 C 9.910156 -2.90625 10.769531 -3.171875 11.5 -3.703125 C 12.238281 -4.242188 12.773438 -4.941406 13.109375 -5.796875 L 16.078125 -4.421875 C 15.710938 -3.441406 15.160156 -2.601562 14.421875 -1.90625 C 13.679688 -1.21875 12.828125 -0.691406 11.859375 -0.328125 C 10.898438 0.0351562 9.910156 0.21875 8.890625 0.21875 C 7.753906 0.21875 6.695312 0.015625 5.71875 -0.390625 C 4.75 -0.796875 3.898438 -1.359375 3.171875 -2.078125 C 2.441406 -2.804688 1.875 -3.65625 1.46875 -4.625 C 1.0625 -5.601562 0.859375 -6.660156 0.859375 -7.796875 Z M 0.859375 -7.796875 "/></g></g></g><g fill="#423e3e" fill-opacity="1"><g transform="translate(126.55461, 172.787288)"><g><path d="M 5.015625 0 L 1.8125 0 L 1.8125 -15.59375 L 5.015625 -15.59375 L 5.015625 -8.8125 L 10.375 -15.59375 L 14.40625 -15.59375 L 8.453125 -8.140625 L 14.796875 0 L 10.640625 0 L 5.015625 -7.40625 Z M 5.015625 0 "/></g></g></g><g fill="#423e3e" fill-opacity="1"><g transform="translate(141.215493, 172.787288)"><g><path d="M 1.8125 -15.59375 L 12.03125 -15.59375 L 12.03125 -12.578125 L 5 -12.578125 L 5 -9.40625 L 11.296875 -9.40625 L 11.296875 -6.375 L 5 -6.375 L 5 -3.015625 L 12.078125 -3.015625 L 12.078125 0 L 1.8125 0 Z M 1.8125 -15.59375 "/></g></g></g><g fill="#423e3e" fill-opacity="1"><g transform="translate(154.422244, 172.787288)"><g><path d="M 13.8125 0 L 10.21875 0 L 7 -5.59375 L 5.046875 -5.59375 L 5.046875 0 L 1.8125 0 L 1.8125 -15.59375 L 7.96875 -15.59375 C 8.976562 -15.59375 9.898438 -15.410156 10.734375 -15.046875 C 11.578125 -14.679688 12.242188 -14.132812 12.734375 -13.40625 C 13.234375 -12.675781 13.484375 -11.757812 13.484375 -10.65625 C 13.484375 -8.382812 12.414062 -6.863281 10.28125 -6.09375 Z M 7.734375 -8.59375 C 8.128906 -8.59375 8.519531 -8.65625 8.90625 -8.78125 C 9.289062 -8.914062 9.601562 -9.128906 9.84375 -9.421875 C 10.09375 -9.710938 10.21875 -10.101562 10.21875 -10.59375 C 10.21875 -11.101562 10.09375 -11.492188 9.84375 -11.765625 C 9.59375 -12.046875 9.273438 -12.242188 8.890625 -12.359375 C 8.515625 -12.484375 8.117188 -12.546875 7.703125 -12.546875 L 5.046875 -12.546875 L 5.046875 -8.59375 Z M 7.734375 -8.59375 "/></g></g></g><path stroke-linecap="butt" transform="matrix(0.720348, 0.248705, -0.248705, 0.720348, 102.99698, 48.577306)" fill="none" stroke-linejoin="miter" d="M 0.00118839 2.001713 L 53.989234 1.999896 " stroke="#625e5e" stroke-width="4" stroke-opacity="1" stroke-miterlimit="4"/><path stroke-linecap="butt" transform="matrix(-0.720554, 0.248107, -0.248107, -0.720554, 103.507372, 51.459313)" fill="none" stroke-linejoin="miter" d="M -0.000127873 1.998115 L 53.989088 1.998885 " stroke="#bebebe" stroke-width="4" stroke-opacity="1" stroke-miterlimit="4"/><g clip-path="url(#7d3878fdf1)"><path fill="#625e5e" d="M 126.0625 30.796875 L 126.0625 51.390625 L 81.246094 51.390625 L 81.246094 30.796875 Z M 126.0625 30.796875 " fill-opacity="1" fill-rule="nonzero"/></g><g clip-path="url(#a1be726a7a)"><path fill="#c8cbcb" d="M 86.25 62.640625 L 86.25 83.238281 L 41.4375 83.238281 L 41.4375 62.640625 Z M 86.25 62.640625 " fill-opacity="1" fill-rule="nonzero"/></g><g clip-path="url(#289c8c63b7)"><path fill="#625e5e" d="M 164.027344 62.640625 L 164.027344 83.238281 L 119.210938 83.238281 L 119.210938 62.640625 Z M 164.027344 62.640625 " fill-opacity="1" fill-rule="nonzero"/></g><g clip-path="url(#76d9045cd4)"><path fill="#625e5e" d="M 164.027344 100.101562 L 164.027344 120.699219 L 119.210938 120.699219 L 119.210938 100.101562 Z M 164.027344 100.101562 " fill-opacity="1" fill-rule="nonzero"/></g><g clip-path="url(#a20e10dbb7)"><path fill="#c8cbcb" d="M 86.25 100.101562 L 86.25 120.699219 L 41.4375 120.699219 L 41.4375 100.101562 Z M 86.25 100.101562 " fill-opacity="1" fill-rule="nonzero"/></g><path stroke-linecap="butt" transform="matrix(0, 0.762073, -0.762073, 0, 143.406358, 73.919875)" fill="none" stroke-linejoin="miter" d="M -0.00250172 1.999212 L 40.342842 1.999212 " stroke="#625e5e" stroke-width="4" stroke-opacity="1" stroke-miterlimit="4"/><path stroke-linecap="butt" transform="matrix(0, 0.762073, -0.762073, 0, 65.135746, 79.664333)" fill="none" stroke-linejoin="miter" d="M -0.0003553 1.997795 L 40.339863 1.997795 " stroke="#c8cbcb" stroke-width="4" stroke-opacity="1" stroke-miterlimit="4"/></svg>