<svg xmlns="http://www.w3.org/2000/svg" xmlns:xlink="http://www.w3.org/1999/xlink" width="275" zoomAndPan="magnify" viewBox="0 0 206.25 187.499992" height="250" preserveAspectRatio="xMidYMid meet" version="1.0"><defs><g/><clipPath id="50ccc70bd6"><path d="M 6.664062 6.203125 L 198.839844 6.203125 L 198.839844 145.292969 L 6.664062 145.292969 Z M 6.664062 6.203125 " clip-rule="nonzero"/></clipPath><clipPath id="a868af968d"><path d="M 48.507812 152.242188 L 164.035156 152.242188 L 164.035156 177.519531 L 48.507812 177.519531 Z M 48.507812 152.242188 " clip-rule="nonzero"/></clipPath><clipPath id="5a370d3538"><path d="M 81.265625 30.796875 L 126.0625 30.796875 L 126.0625 51.390625 L 81.265625 51.390625 Z M 81.265625 30.796875 " clip-rule="nonzero"/></clipPath><clipPath id="4e74acb0d8"><path d="M 41.457031 62.640625 L 86.25 62.640625 L 86.25 83.238281 L 41.457031 83.238281 Z M 41.457031 62.640625 " clip-rule="nonzero"/></clipPath><clipPath id="f288ddb0f3"><path d="M 119.230469 62.640625 L 164.027344 62.640625 L 164.027344 83.238281 L 119.230469 83.238281 Z M 119.230469 62.640625 " clip-rule="nonzero"/></clipPath><clipPath id="c1570c3691"><path d="M 119.230469 100.101562 L 164.027344 100.101562 L 164.027344 120.699219 L 119.230469 120.699219 Z M 119.230469 100.101562 " clip-rule="nonzero"/></clipPath><clipPath id="7b733c7aae"><path d="M 41.457031 100.101562 L 86.25 100.101562 L 86.25 120.699219 L 41.457031 120.699219 Z M 41.457031 100.101562 " clip-rule="nonzero"/></clipPath></defs><g clip-path="url(#50ccc70bd6)"><path fill="#ececec" d="M 6.664062 6.203125 L 198.839844 6.203125 L 198.839844 145.292969 L 6.664062 145.292969 Z M 6.664062 6.203125 " fill-opacity="1" fill-rule="nonzero"/></g><g clip-path="url(#a868af968d)"><path fill="#ffffff" d="M 48.507812 152.242188 L 164.035156 152.242188 L 164.035156 177.519531 L 48.507812 177.519531 Z M 48.507812 152.242188 " fill-opacity="1" fill-rule="nonzero"/></g><g fill="#423e3e" fill-opacity="1"><g transform="translate(48.509149, 172.787288)"><g><path d="M 1.8125 -15.597656 L 1.8125 0 L 12.074219 0 L 12.074219 -3.007812 L 5 -3.007812 L 5 -6.375 L 11.296875 -6.375 L 11.296875 -9.402344 L 5 -9.402344 L 5 -12.570312 L 12.035156 -12.570312 L 12.035156 -15.597656 Z M 1.8125 -15.597656 "/></g></g></g><g fill="#423e3e" fill-opacity="1"><g transform="translate(61.7159, 172.787288)"><g><path d="M 13.1875 -10.597656 C 13.1875 -13.90625 10.738281 -15.597656 7.609375 -15.597656 L 1.8125 -15.597656 L 1.8125 0 L 5.039062 0 L 5.039062 -5.5 L 7.492188 -5.5 C 10.757812 -5.5 13.1875 -7.152344 13.1875 -10.597656 Z M 9.941406 -10.519531 C 9.941406 -9.066406 8.625 -8.507812 7.351562 -8.507812 L 5.039062 -8.507812 L 5.039062 -12.550781 L 7.332031 -12.550781 C 8.667969 -12.550781 9.941406 -12.035156 9.941406 -10.519531 Z M 9.941406 -10.519531 "/></g></g></g><g fill="#423e3e" fill-opacity="1"><g transform="translate(75.500319, 172.787288)"><g><path d="M 15.820312 -10.300781 L 15.839844 -10.300781 L 15.839844 0 L 19.027344 0 L 19.027344 -15.597656 L 14.742188 -15.597656 L 10.398438 -5.140625 L 5.976562 -15.597656 L 1.8125 -15.597656 L 1.8125 0 L 4.980469 0 L 4.980469 -10.21875 L 5 -10.21875 L 9.324219 0 L 11.476562 0 Z M 15.820312 -10.300781 "/></g></g></g><g fill="#423e3e" fill-opacity="1"><g transform="translate(96.336306, 172.787288)"><g/></g></g><g fill="#423e3e" fill-opacity="1"><g transform="translate(101.336141, 172.787288)"><g><path d="M 5.039062 -9.222656 L 5.039062 -12.53125 L 12.09375 -12.53125 L 12.09375 -15.597656 L 1.8125 -15.597656 L 1.8125 0 L 5.039062 0 L 5.039062 -6.15625 L 11.355469 -6.15625 L 11.355469 -9.222656 Z M 5.039062 -9.222656 "/></g></g></g><g fill="#423e3e" fill-opacity="1"><g transform="translate(114.264006, 172.787288)"><g><path d="M 1.8125 -15.597656 L 1.8125 0 L 12.074219 0 L 12.074219 -3.007812 L 5 -3.007812 L 5 -6.375 L 11.296875 -6.375 L 11.296875 -9.402344 L 5 -9.402344 L 5 -12.570312 L 12.035156 -12.570312 L 12.035156 -15.597656 Z M 1.8125 -15.597656 "/></g></g></g><g fill="#423e3e" fill-opacity="1"><g transform="translate(127.470757, 172.787288)"><g><path d="M 1.8125 -15.597656 L 1.8125 0 L 12.074219 0 L 12.074219 -3.007812 L 5 -3.007812 L 5 -6.375 L 11.296875 -6.375 L 11.296875 -9.402344 L 5 -9.402344 L 5 -12.570312 L 12.035156 -12.570312 L 12.035156 -15.597656 Z M 1.8125 -15.597656 "/></g></g></g><g fill="#423e3e" fill-opacity="1"><g transform="translate(140.677509, 172.787288)"><g><path d="M 15.398438 -7.828125 C 15.398438 -12.730469 12.035156 -15.597656 6.59375 -15.597656 L 1.8125 -15.597656 L 1.8125 0 L 6.535156 0 C 12.054688 0 15.398438 -3.1875 15.398438 -7.828125 Z M 12.09375 -7.828125 C 12.09375 -4.761719 9.863281 -3.046875 6.632812 -3.046875 L 5.039062 -3.046875 L 5.039062 -12.550781 L 6.675781 -12.550781 C 9.742188 -12.550781 12.09375 -10.898438 12.09375 -7.828125 Z M 12.09375 -7.828125 "/></g></g></g><path stroke-linecap="butt" transform="matrix(0.720348, 0.248705, -0.248705, 0.720348, 102.99698, 48.577306)" fill="none" stroke-linejoin="miter" d="M 0.00118839 2.001713 L 53.989234 1.999896 " stroke="#625e5e" stroke-width="4" stroke-opacity="1" stroke-miterlimit="4"/><path stroke-linecap="butt" transform="matrix(-0.720554, 0.248107, -0.248107, -0.720554, 103.507372, 51.459313)" fill="none" stroke-linejoin="miter" d="M -0.000127873 1.998115 L 53.989088 1.998885 " stroke="#bebebe" stroke-width="4" stroke-opacity="1" stroke-miterlimit="4"/><g clip-path="url(#5a370d3538)"><path fill="#625e5e" d="M 126.0625 30.796875 L 126.0625 51.390625 L 81.265625 51.390625 L 81.265625 30.796875 Z M 126.0625 30.796875 " fill-opacity="1" fill-rule="nonzero"/></g><g clip-path="url(#4e74acb0d8)"><path fill="#c8cbcb" d="M 86.25 62.640625 L 86.25 83.238281 L 41.457031 83.238281 L 41.457031 62.640625 Z M 86.25 62.640625 " fill-opacity="1" fill-rule="nonzero"/></g><g clip-path="url(#f288ddb0f3)"><path fill="#625e5e" d="M 164.027344 62.640625 L 164.027344 83.238281 L 119.230469 83.238281 L 119.230469 62.640625 Z M 164.027344 62.640625 " fill-opacity="1" fill-rule="nonzero"/></g><g clip-path="url(#c1570c3691)"><path fill="#625e5e" d="M 164.027344 100.101562 L 164.027344 120.699219 L 119.230469 120.699219 L 119.230469 100.101562 Z M 164.027344 100.101562 " fill-opacity="1" fill-rule="nonzero"/></g><g clip-path="url(#7b733c7aae)"><path fill="#c8cbcb" d="M 86.25 100.101562 L 86.25 120.699219 L 41.457031 120.699219 L 41.457031 100.101562 Z M 86.25 100.101562 " fill-opacity="1" fill-rule="nonzero"/></g><path stroke-linecap="butt" transform="matrix(0, 0.762073, -0.762073, 0, 143.406358, 73.919875)" fill="none" stroke-linejoin="miter" d="M -0.00250172 1.999212 L 40.342842 1.999212 " stroke="#625e5e" stroke-width="4" stroke-opacity="1" stroke-miterlimit="4"/><path stroke-linecap="butt" transform="matrix(0, 0.762073, -0.762073, 0, 65.135746, 79.664333)" fill="none" stroke-linejoin="miter" d="M -0.0003553 1.997795 L 40.339863 1.997795 " stroke="#c8cbcb" stroke-width="4" stroke-opacity="1" stroke-miterlimit="4"/></svg>