<svg xmlns="http://www.w3.org/2000/svg" xmlns:xlink="http://www.w3.org/1999/xlink" width="61" zoomAndPan="magnify" viewBox="0 0 45.75 30.000001" height="40" preserveAspectRatio="xMidYMid meet" version="1.2"><defs><clipPath id="4517f11ea2"><path d="M 0.617188 0 L 44.890625 0 L 44.890625 29.03125 L 0.617188 29.03125 Z M 0.617188 0 "/></clipPath><clipPath id="47e4ab2235"><path d="M 19 1 L 44.890625 1 L 44.890625 6 L 19 6 Z M 19 1 "/></clipPath><clipPath id="b514c99890"><path d="M 19 7 L 44.890625 7 L 44.890625 11 L 19 11 Z M 19 7 "/></clipPath><clipPath id="d290447046"><path d="M 19 12 L 44.890625 12 L 44.890625 17 L 19 17 Z M 19 12 "/></clipPath><clipPath id="11d404b22c"><path d="M 19 18 L 44.890625 18 L 44.890625 22 L 19 22 Z M 19 18 "/></clipPath></defs><g id="df8f149700"><g clip-rule="nonzero" clip-path="url(#4517f11ea2)"><path style=" stroke:none;fill-rule:nonzero;fill:#ffffff;fill-opacity:1;" d="M 0.617188 0 L 44.890625 0 L 44.890625 29.03125 L 0.617188 29.03125 Z M 0.617188 0 "/><path style=" stroke:none;fill-rule:nonzero;fill:#ffffff;fill-opacity:1;" d="M 0.617188 0 L 44.890625 0 L 44.890625 29.03125 L 0.617188 29.03125 Z M 0.617188 0 "/></g><path style="fill:none;stroke-width:20;stroke-linecap:round;stroke-linejoin:miter;stroke:#a6a6a6;stroke-opacity:1;stroke-miterlimit:4;" d="M 9.99295 10.004353 L 87.046709 10.004353 " transform="matrix(0.188079,-0.000000000000000047,0.000000000000000047,0.188079,1.960381,18.169173)"/><path style="fill:none;stroke-width:20;stroke-linecap:round;stroke-linejoin:miter;stroke:#a6a6a6;stroke-opacity:1;stroke-miterlimit:4;" d="M 9.989731 10.004894 L 63.577791 10.004894 " transform="matrix(0.18814,0.000000000000000036,-0.000000000000000036,0.18814,1.960381,12.598153)"/><path style="fill:none;stroke-width:20;stroke-linecap:round;stroke-linejoin:miter;stroke:#a6a6a6;stroke-opacity:1;stroke-miterlimit:4;" d="M 9.989731 9.998047 L 26.786609 9.998047 " transform="matrix(0.18814,0,0,0.18814,1.960381,7.138504)"/><path style="fill:none;stroke-width:20;stroke-linecap:round;stroke-linejoin:miter;stroke:#a6a6a6;stroke-opacity:1;stroke-miterlimit:4;" d="M 9.99295 9.995434 L 87.046709 9.995434 " transform="matrix(0.188079,-0.000000000000000047,0.000000000000000047,0.188079,1.960381,1.424757)"/><g clip-rule="nonzero" clip-path="url(#47e4ab2235)"><path style="fill:none;stroke-width:20;stroke-linecap:butt;stroke-linejoin:miter;stroke:#bebebe;stroke-opacity:1;stroke-miterlimit:4;" d="M 0.00321285 9.992215 L 116.688565 9.992215 " transform="matrix(0.18814,0,0,0.18814,21.405646,1.424757)"/></g><g clip-rule="nonzero" clip-path="url(#b514c99890)"><path style="fill:none;stroke-width:20;stroke-linecap:butt;stroke-linejoin:miter;stroke:#bebebe;stroke-opacity:1;stroke-miterlimit:4;" d="M 0.00321285 9.998047 L 116.688565 9.998047 " transform="matrix(0.18814,0,0,0.18814,21.405646,7.138504)"/></g><g clip-rule="nonzero" clip-path="url(#d290447046)"><path style="fill:none;stroke-width:20;stroke-linecap:butt;stroke-linejoin:miter;stroke:#bebebe;stroke-opacity:1;stroke-miterlimit:4;" d="M 0.00321285 10.004894 L 116.688565 10.004894 " transform="matrix(0.18814,0,0,0.18814,21.405646,12.598153)"/></g><g clip-rule="nonzero" clip-path="url(#11d404b22c)"><path style="fill:none;stroke-width:20;stroke-linecap:butt;stroke-linejoin:miter;stroke:#bebebe;stroke-opacity:1;stroke-miterlimit:4;" d="M 0.00320297 10.001131 L 116.688555 10.001131 " transform="matrix(0.18814,-0.000000000000000023,0.000000000000000023,0.18814,21.405647,18.169173)"/></g><path style="fill:none;stroke-width:20;stroke-linecap:butt;stroke-linejoin:miter;stroke:#423e3e;stroke-opacity:1;stroke-miterlimit:4;" d="M 0.00323638 10.002658 L 64.482916 10.002658 " transform="matrix(0.186772,0,0,0.186772,21.405646,1.424757)"/><path style="fill:none;stroke-width:20;stroke-linecap:butt;stroke-linejoin:miter;stroke:#423e3e;stroke-opacity:1;stroke-miterlimit:4;" d="M 0.00324631 9.997299 L 42.443349 9.997299 " transform="matrix(0.1862,0,0,0.1862,21.405646,7.138504)"/><path style="fill:none;stroke-width:20;stroke-linecap:round;stroke-linejoin:miter;stroke:#ddd9d9;stroke-opacity:1;stroke-miterlimit:4;" d="M 9.998422 10.002409 L 32.546517 10.002409 " transform="matrix(0.18814,0,0,0.18814,35.544683,23.844714)"/></g></svg>