<svg xmlns="http://www.w3.org/2000/svg" xmlns:xlink="http://www.w3.org/1999/xlink" width="275" zoomAndPan="magnify" viewBox="0 0 206.25 187.499992" height="250" preserveAspectRatio="xMidYMid meet" version="1.0"><defs><g/><clipPath id="a983ada844"><path d="M 6.664062 6.203125 L 198.839844 6.203125 L 198.839844 145.292969 L 6.664062 145.292969 Z M 6.664062 6.203125 " clip-rule="nonzero"/></clipPath><clipPath id="61a4278a6f"><path d="M 58.085938 151.675781 L 149.378906 151.675781 L 149.378906 179.699219 L 58.085938 179.699219 Z M 58.085938 151.675781 " clip-rule="nonzero"/></clipPath></defs><g clip-path="url(#a983ada844)"><path fill="#ececec" d="M 6.664062 6.203125 L 198.839844 6.203125 L 198.839844 145.292969 L 6.664062 145.292969 Z M 6.664062 6.203125 " fill-opacity="1" fill-rule="nonzero"/></g><g clip-path="url(#61a4278a6f)"><path fill="#ffffff" d="M 58.085938 151.675781 L 149.378906 151.675781 L 149.378906 179.699219 L 58.085938 179.699219 Z M 58.085938 151.675781 " fill-opacity="1" fill-rule="nonzero"/></g><path stroke-linecap="round" transform="matrix(0.647579, -0.000000000000000161, 0.000000000000000161, 0.647579, 31.179322, 88.321902)" fill="none" stroke-linejoin="miter" d="M 10.001761 9.998742 L 87.04355 9.998742 " stroke="#a6a6a6" stroke-width="20" stroke-opacity="1" stroke-miterlimit="4"/><path stroke-linecap="round" transform="matrix(0.647579, 0.000000000000000125, -0.000000000000000125, 0.647579, 31.179322, 69.146375)" fill="none" stroke-linejoin="miter" d="M 10.001761 9.998349 L 63.572707 9.998349 " stroke="#a6a6a6" stroke-width="20" stroke-opacity="1" stroke-miterlimit="4"/><path stroke-linecap="round" transform="matrix(0.647579, 0, 0, 0.647579, 31.179322, 50.354189)" fill="none" stroke-linejoin="miter" d="M 10.001761 9.997141 L 26.789054 9.997141 " stroke="#a6a6a6" stroke-width="20" stroke-opacity="1" stroke-miterlimit="4"/><path stroke-linecap="round" transform="matrix(0.647579, -0.000000000000000161, 0.000000000000000161, 0.647579, 31.179322, 30.687393)" fill="none" stroke-linejoin="miter" d="M 10.001761 10.001362 L 87.04355 10.001362 " stroke="#a6a6a6" stroke-width="20" stroke-opacity="1" stroke-miterlimit="4"/><path stroke-linecap="butt" transform="matrix(0.647579, 0, 0, 0.647579, 98.110189, 30.687393)" fill="none" stroke-linejoin="miter" d="M -0.00125726 10.001362 L 116.689425 10.001362 " stroke="#bebebe" stroke-width="20" stroke-opacity="1" stroke-miterlimit="4"/><path stroke-linecap="butt" transform="matrix(0.647579, 0, 0, 0.647579, 98.110189, 50.354189)" fill="none" stroke-linejoin="miter" d="M -0.00125726 9.997141 L 116.689425 9.997141 " stroke="#bebebe" stroke-width="20" stroke-opacity="1" stroke-miterlimit="4"/><path stroke-linecap="butt" transform="matrix(0.647579, 0, 0, 0.647579, 98.110189, 69.146382)" fill="none" stroke-linejoin="miter" d="M -0.00125726 9.998338 L 116.689425 9.998338 " stroke="#bebebe" stroke-width="20" stroke-opacity="1" stroke-miterlimit="4"/><path stroke-linecap="butt" transform="matrix(0.647579, -0.00000000000000008, 0.00000000000000008, 0.647579, 98.110196, 88.321902)" fill="none" stroke-linejoin="miter" d="M -0.00126834 9.998742 L 116.689414 9.998742 " stroke="#bebebe" stroke-width="20" stroke-opacity="1" stroke-miterlimit="4"/><path stroke-linecap="butt" transform="matrix(0.647579, 0, 0, 0.647579, 98.110189, 30.687393)" fill="none" stroke-linejoin="miter" d="M -0.00125726 10.001362 L 64.475698 10.001362 " stroke="#423e3e" stroke-width="20" stroke-opacity="1" stroke-miterlimit="4"/><path stroke-linecap="butt" transform="matrix(0.647579, 0, 0, 0.647579, 98.110189, 50.354189)" fill="none" stroke-linejoin="miter" d="M -0.00125726 9.997141 L 42.446524 9.997141 " stroke="#423e3e" stroke-width="20" stroke-opacity="1" stroke-miterlimit="4"/><path stroke-linecap="round" transform="matrix(0.647579, 0, 0, 0.647579, 146.776954, 107.857196)" fill="none" stroke-linejoin="miter" d="M 10.001799 9.99853 L 32.537668 9.99853 " stroke="#ddd9d9" stroke-width="20" stroke-opacity="1" stroke-miterlimit="4"/><g fill="#423e3e" fill-opacity="1"><g transform="translate(69.623383, 172.787288)"><g><path d="M 5.039062 -9.222656 L 5.039062 -12.53125 L 12.09375 -12.53125 L 12.09375 -15.597656 L 1.8125 -15.597656 L 1.8125 0 L 5.039062 0 L 5.039062 -6.15625 L 11.355469 -6.15625 L 11.355469 -9.222656 Z M 5.039062 -9.222656 "/></g></g></g><g fill="#423e3e" fill-opacity="1"><g transform="translate(82.551248, 172.787288)"><g><path d="M 0.855469 -7.789062 C 0.855469 -3.289062 4.441406 0.238281 8.925781 0.238281 C 13.40625 0.238281 17.054688 -3.328125 17.054688 -7.871094 C 17.054688 -12.351562 13.488281 -15.839844 9.003906 -15.839844 C 4.523438 -15.839844 0.855469 -12.273438 0.855469 -7.789062 Z M 4.164062 -7.808594 C 4.164062 -10.5 6.277344 -12.710938 8.964844 -12.710938 C 11.65625 -12.710938 13.765625 -10.5 13.765625 -7.808594 C 13.765625 -5.121094 11.65625 -2.890625 8.964844 -2.890625 C 6.277344 -2.890625 4.164062 -5.121094 4.164062 -7.808594 Z M 4.164062 -7.808594 "/></g></g></g><g fill="#423e3e" fill-opacity="1"><g transform="translate(100.45904, 172.787288)"><g><path d="M 13.804688 0 L 10.28125 -6.097656 C 12.390625 -6.851562 13.488281 -8.425781 13.488281 -10.660156 C 13.488281 -13.964844 10.996094 -15.597656 7.96875 -15.597656 L 1.8125 -15.597656 L 1.8125 0 L 5.039062 0 L 5.039062 -5.597656 L 6.992188 -5.597656 L 10.21875 0 Z M 7.730469 -8.585938 L 5.039062 -8.585938 L 5.039062 -12.550781 L 7.710938 -12.550781 C 8.925781 -12.550781 10.21875 -12.09375 10.21875 -10.597656 C 10.21875 -9.125 8.925781 -8.585938 7.730469 -8.585938 Z M 7.730469 -8.585938 "/></g></g></g><g fill="#423e3e" fill-opacity="1"><g transform="translate(115.02032, 172.787288)"><g><path d="M 15.820312 -10.300781 L 15.839844 -10.300781 L 15.839844 0 L 19.027344 0 L 19.027344 -15.597656 L 14.742188 -15.597656 L 10.398438 -5.140625 L 5.976562 -15.597656 L 1.8125 -15.597656 L 1.8125 0 L 4.980469 0 L 4.980469 -10.21875 L 5 -10.21875 L 9.324219 0 L 11.476562 0 Z M 15.820312 -10.300781 "/></g></g></g></svg>