<svg xmlns="http://www.w3.org/2000/svg" xmlns:xlink="http://www.w3.org/1999/xlink" width="300" zoomAndPan="magnify" viewBox="0 0 224.87999 168.749997" height="225" preserveAspectRatio="xMidYMid meet" version="1.0"><defs><g/><clipPath id="f8e67b1e1d"><path d="M 5.984375 6.179688 L 219.1875 6.179688 L 219.1875 162.5625 L 5.984375 162.5625 Z M 5.984375 6.179688 " clip-rule="nonzero"/></clipPath></defs><g clip-path="url(#f8e67b1e1d)"><path fill="#ececec" d="M 5.984375 6.179688 L 219.179688 6.179688 L 219.179688 162.5625 L 5.984375 162.5625 Z M 5.984375 6.179688 " fill-opacity="1" fill-rule="nonzero"/></g><g fill="#423e3e" fill-opacity="1"><g transform="translate(80.903129, 145.878556)"><g><path d="M 4.796875 -8.78125 L 10.8125 -8.78125 L 10.8125 -5.859375 L 4.796875 -5.859375 L 4.796875 0 L 1.71875 0 L 1.71875 -14.859375 L 11.515625 -14.859375 L 11.515625 -11.9375 L 4.796875 -11.9375 Z M 4.796875 -8.78125 "/></g></g></g><g fill="#423e3e" fill-opacity="1"><g transform="translate(93.21337, 145.878556)"><g><path d="M 0.8125 -7.421875 C 0.8125 -8.484375 1.015625 -9.476562 1.421875 -10.40625 C 1.828125 -11.332031 2.382812 -12.144531 3.09375 -12.84375 C 3.800781 -13.550781 4.625 -14.097656 5.5625 -14.484375 C 6.507812 -14.878906 7.515625 -15.078125 8.578125 -15.078125 C 9.640625 -15.078125 10.632812 -14.882812 11.5625 -14.5 C 12.488281 -14.113281 13.300781 -13.578125 14 -12.890625 C 14.707031 -12.203125 15.253906 -11.394531 15.640625 -10.46875 C 16.035156 -9.550781 16.234375 -8.5625 16.234375 -7.5 C 16.234375 -6.414062 16.035156 -5.40625 15.640625 -4.46875 C 15.242188 -3.539062 14.6875 -2.722656 13.96875 -2.015625 C 13.257812 -1.304688 12.4375 -0.753906 11.5 -0.359375 C 10.5625 0.0351562 9.5625 0.234375 8.5 0.234375 C 7.4375 0.234375 6.4375 0.0351562 5.5 -0.359375 C 4.570312 -0.753906 3.757812 -1.296875 3.0625 -1.984375 C 2.363281 -2.679688 1.8125 -3.488281 1.40625 -4.40625 C 1.007812 -5.332031 0.8125 -6.335938 0.8125 -7.421875 Z M 3.96875 -7.4375 C 3.96875 -6.59375 4.164062 -5.8125 4.5625 -5.09375 C 4.96875 -4.375 5.519531 -3.800781 6.21875 -3.375 C 6.914062 -2.957031 7.6875 -2.75 8.53125 -2.75 C 9.394531 -2.75 10.171875 -2.957031 10.859375 -3.375 C 11.546875 -3.800781 12.09375 -4.375 12.5 -5.09375 C 12.90625 -5.8125 13.109375 -6.59375 13.109375 -7.4375 C 13.109375 -8.289062 12.90625 -9.066406 12.5 -9.765625 C 12.09375 -10.472656 11.546875 -11.039062 10.859375 -11.46875 C 10.171875 -11.894531 9.394531 -12.109375 8.53125 -12.109375 C 7.6875 -12.109375 6.914062 -11.894531 6.21875 -11.46875 C 5.519531 -11.039062 4.96875 -10.472656 4.5625 -9.765625 C 4.164062 -9.066406 3.96875 -8.289062 3.96875 -7.4375 Z M 3.96875 -7.4375 "/></g></g></g><g fill="#423e3e" fill-opacity="1"><g transform="translate(110.265622, 145.878556)"><g><path d="M 13.140625 0 L 9.734375 0 L 6.65625 -5.328125 L 4.796875 -5.328125 L 4.796875 0 L 1.71875 0 L 1.71875 -14.859375 L 7.59375 -14.859375 C 8.550781 -14.859375 9.425781 -14.679688 10.21875 -14.328125 C 11.019531 -13.984375 11.65625 -13.460938 12.125 -12.765625 C 12.601562 -12.066406 12.84375 -11.191406 12.84375 -10.140625 C 12.84375 -7.984375 11.820312 -6.535156 9.78125 -5.796875 Z M 7.359375 -8.171875 C 7.734375 -8.171875 8.101562 -8.234375 8.46875 -8.359375 C 8.84375 -8.492188 9.144531 -8.695312 9.375 -8.96875 C 9.613281 -9.25 9.734375 -9.625 9.734375 -10.09375 C 9.734375 -10.570312 9.613281 -10.941406 9.375 -11.203125 C 9.132812 -11.472656 8.832031 -11.664062 8.46875 -11.78125 C 8.101562 -11.894531 7.726562 -11.953125 7.34375 -11.953125 L 4.796875 -11.953125 L 4.796875 -8.171875 Z M 7.359375 -8.171875 "/></g></g></g><g fill="#423e3e" fill-opacity="1"><g transform="translate(124.131237, 145.878556)"><g><path d="M 15.0625 -9.8125 L 10.921875 0 L 8.875 0 L 4.765625 -9.734375 L 4.75 -9.734375 L 4.75 0 L 1.71875 0 L 1.71875 -14.859375 L 5.6875 -14.859375 L 9.90625 -4.890625 L 14.03125 -14.859375 L 18.109375 -14.859375 L 18.109375 0 L 15.078125 0 L 15.078125 -9.8125 Z M 15.0625 -9.8125 "/></g></g></g><path stroke-linecap="round" transform="matrix(0.648972, -0.000000000000000161, 0.000000000000000161, 0.648972, 40.713958, 83.829617)" fill="none" stroke-linejoin="miter" d="M 9.999146 10.001501 L 87.044057 10.001501 " stroke="#a6a6a6" stroke-width="20" stroke-opacity="1" stroke-miterlimit="4"/><path stroke-linecap="round" transform="matrix(0.648972, 0.000000000000000125, -0.000000000000000125, 0.648972, 40.713958, 64.612831)" fill="none" stroke-linejoin="miter" d="M 9.999146 9.998475 L 63.575455 9.998475 " stroke="#a6a6a6" stroke-width="20" stroke-opacity="1" stroke-miterlimit="4"/><path stroke-linecap="round" transform="matrix(0.648972, 0, 0, 0.648972, 40.713958, 45.780205)" fill="none" stroke-linejoin="miter" d="M 9.999146 9.999391 L 26.78651 9.999391 " stroke="#a6a6a6" stroke-width="20" stroke-opacity="1" stroke-miterlimit="4"/><path stroke-linecap="round" transform="matrix(0.648972, -0.000000000000000161, 0.000000000000000161, 0.648972, 40.713958, 26.071096)" fill="none" stroke-linejoin="miter" d="M 9.999146 10.002594 L 87.044057 10.002594 " stroke="#a6a6a6" stroke-width="20" stroke-opacity="1" stroke-miterlimit="4"/><path stroke-linecap="butt" transform="matrix(0.648972, 0, 0, 0.648972, 107.788839, 26.071096)" fill="none" stroke-linejoin="miter" d="M 0.000344696 10.002594 L 116.68727 10.002594 " stroke="#bebebe" stroke-width="20" stroke-opacity="1" stroke-miterlimit="4"/><path stroke-linecap="butt" transform="matrix(0.648972, 0, 0, 0.648972, 107.788839, 45.780205)" fill="none" stroke-linejoin="miter" d="M 0.000344696 9.999391 L 116.68727 9.999391 " stroke="#bebebe" stroke-width="20" stroke-opacity="1" stroke-miterlimit="4"/><path stroke-linecap="butt" transform="matrix(0.648972, 0, 0, 0.648972, 107.788839, 64.612831)" fill="none" stroke-linejoin="miter" d="M 0.000344696 9.998475 L 116.68727 9.998475 " stroke="#bebebe" stroke-width="20" stroke-opacity="1" stroke-miterlimit="4"/><path stroke-linecap="butt" transform="matrix(0.648972, -0.00000000000000008, 0.00000000000000008, 0.648972, 107.788846, 83.829617)" fill="none" stroke-linejoin="miter" d="M 0.000333617 10.001501 L 116.687259 10.001501 " stroke="#bebebe" stroke-width="20" stroke-opacity="1" stroke-miterlimit="4"/><path stroke-linecap="butt" transform="matrix(0.648972, 0, 0, 0.648972, 107.788839, 26.071096)" fill="none" stroke-linejoin="miter" d="M 0.000344696 10.002594 L 64.477305 10.002594 " stroke="#423e3e" stroke-width="20" stroke-opacity="1" stroke-miterlimit="4"/><path stroke-linecap="butt" transform="matrix(0.648972, 0, 0, 0.648972, 107.788839, 45.780205)" fill="none" stroke-linejoin="miter" d="M 0.000344696 9.999391 L 42.441256 9.999391 " stroke="#423e3e" stroke-width="20" stroke-opacity="1" stroke-miterlimit="4"/><path stroke-linecap="round" transform="matrix(0.648972, 0, 0, 0.648972, 156.560319, 103.406937)" fill="none" stroke-linejoin="miter" d="M 10.001142 10.002741 L 32.536779 10.002741 " stroke="#ddd9d9" stroke-width="20" stroke-opacity="1" stroke-miterlimit="4"/></svg>