<svg xmlns="http://www.w3.org/2000/svg" xmlns:xlink="http://www.w3.org/1999/xlink" width="300" zoomAndPan="magnify" viewBox="0 0 224.87999 168.749997" height="225" preserveAspectRatio="xMidYMid meet" version="1.0"><defs><g/><clipPath id="e4beeb37d9"><path d="M 5.984375 6.179688 L 219.1875 6.179688 L 219.1875 162.5625 L 5.984375 162.5625 Z M 5.984375 6.179688 " clip-rule="nonzero"/></clipPath><clipPath id="0a7a378d27"><path d="M 49.417969 22.410156 L 175.902344 22.410156 L 175.902344 120.53125 L 49.417969 120.53125 Z M 49.417969 22.410156 " clip-rule="nonzero"/></clipPath><clipPath id="023ca91bd7"><path d="M 57.65625 22.410156 L 167.519531 22.410156 C 169.703125 22.410156 171.800781 23.277344 173.34375 24.820312 C 174.890625 26.367188 175.757812 28.460938 175.757812 30.648438 L 175.757812 112.292969 C 175.757812 114.476562 174.890625 116.574219 173.34375 118.117188 C 171.800781 119.664062 169.703125 120.53125 167.519531 120.53125 L 57.65625 120.53125 C 55.46875 120.53125 53.375 119.664062 51.832031 118.117188 C 50.285156 116.574219 49.417969 114.476562 49.417969 112.292969 L 49.417969 30.648438 C 49.417969 28.460938 50.285156 26.367188 51.832031 24.820312 C 53.375 23.277344 55.46875 22.410156 57.65625 22.410156 Z M 57.65625 22.410156 " clip-rule="nonzero"/></clipPath><clipPath id="a019df859c"><path d="M 79.414062 29.5625 L 146 29.5625 L 146 96.210938 L 79.414062 96.210938 Z M 79.414062 29.5625 " clip-rule="nonzero"/></clipPath><clipPath id="bbba7b437d"><path d="M 112.582031 29.5625 C 94.265625 29.5625 79.414062 44.515625 79.414062 62.960938 C 79.414062 81.410156 94.265625 96.363281 112.582031 96.363281 C 130.902344 96.363281 145.75 81.410156 145.75 62.960938 C 145.75 44.515625 130.902344 29.5625 112.582031 29.5625 Z M 112.582031 29.5625 " clip-rule="nonzero"/></clipPath><clipPath id="36e8ae5b8f"><path d="M 120 77 L 146 77 L 146 103 L 120 103 Z M 120 77 " clip-rule="nonzero"/></clipPath><clipPath id="3560e7b279"><path d="M 120.394531 89.433594 L 134.636719 77.488281 L 145.757812 90.75 L 131.515625 102.695312 Z M 120.394531 89.433594 " clip-rule="nonzero"/></clipPath><clipPath id="cae37d138f"><path d="M 82 76 L 108 76 L 108 103 L 82 103 Z M 82 76 " clip-rule="nonzero"/></clipPath><clipPath id="782bbeefd9"><path d="M 82.335938 88.910156 L 96.578125 76.964844 L 107.699219 90.226562 L 93.457031 102.171875 Z M 82.335938 88.910156 " clip-rule="nonzero"/></clipPath><clipPath id="ec28d380ee"><path d="M 92.925781 83.742188 L 132.304688 83.742188 L 132.304688 102.171875 L 92.925781 102.171875 Z M 92.925781 83.742188 " clip-rule="nonzero"/></clipPath><clipPath id="7fcbc6baf4"><path d="M 101.910156 83.742188 L 123.261719 83.742188 C 125.648438 83.742188 127.933594 84.691406 129.617188 86.375 C 131.304688 88.058594 132.25 90.347656 132.25 92.730469 L 132.25 93.1875 C 132.25 95.570312 131.304688 97.855469 129.617188 99.539062 C 127.933594 101.226562 125.648438 102.171875 123.261719 102.171875 L 101.910156 102.171875 C 99.527344 102.171875 97.242188 101.226562 95.558594 99.539062 C 93.871094 97.855469 92.925781 95.570312 92.925781 93.1875 L 92.925781 92.730469 C 92.925781 90.347656 93.871094 88.058594 95.558594 86.375 C 97.242188 84.691406 99.527344 83.742188 101.910156 83.742188 Z M 101.910156 83.742188 " clip-rule="nonzero"/></clipPath></defs><g clip-path="url(#e4beeb37d9)"><path fill="#ececec" d="M 5.984375 6.179688 L 219.179688 6.179688 L 219.179688 162.5625 L 5.984375 162.5625 Z M 5.984375 6.179688 " fill-opacity="1" fill-rule="nonzero"/></g><g clip-path="url(#0a7a378d27)"><g clip-path="url(#023ca91bd7)"><path fill="#ddd9d9" d="M 49.417969 22.410156 L 175.902344 22.410156 L 175.902344 120.53125 L 49.417969 120.53125 Z M 49.417969 22.410156 " fill-opacity="1" fill-rule="nonzero"/></g></g><g clip-path="url(#a019df859c)"><g clip-path="url(#bbba7b437d)"><path stroke-linecap="butt" transform="matrix(0.748891, 0, 0, 0.748891, 79.415844, 29.561606)" fill="none" stroke-linejoin="miter" d="M 44.287096 0.00119441 C 19.829041 0.00119441 -0.00237915 19.968231 -0.00237915 44.598417 C -0.00237915 69.233818 19.829041 89.200855 44.287096 89.200855 C 68.750368 89.200855 88.576571 69.233818 88.576571 44.598417 C 88.576571 19.968231 68.750368 0.00119441 44.287096 0.00119441 Z M 44.287096 0.00119441 " stroke="#56d84a" stroke-width="14" stroke-opacity="1" stroke-miterlimit="4"/></g></g><g clip-path="url(#36e8ae5b8f)"><g clip-path="url(#3560e7b279)"><path fill="#ddd9d9" d="M 120.394531 89.433594 L 134.640625 77.488281 L 145.761719 90.75 L 131.515625 102.695312 Z M 120.394531 89.433594 " fill-opacity="1" fill-rule="nonzero"/></g></g><g fill="#423e3e" fill-opacity="1"><g transform="translate(86.064747, 69.519671)"><g><path d="M 7.375 0 L 4.171875 0 L 0.203125 -10.71875 L 3.015625 -10.71875 L 5.6875 -3.078125 L 5.90625 -3.078125 L 8.578125 -10.71875 L 11.328125 -10.71875 Z M 7.375 0 "/></g></g></g><g fill="#423e3e" fill-opacity="1"><g transform="translate(97.589058, 69.519671)"><g><path d="M 4.171875 0.203125 C 3.492188 0.203125 2.898438 0.078125 2.390625 -0.171875 C 1.890625 -0.421875 1.5 -0.789062 1.21875 -1.28125 C 0.945312 -1.769531 0.8125 -2.359375 0.8125 -3.046875 C 0.8125 -3.679688 0.945312 -4.210938 1.21875 -4.640625 C 1.5 -5.078125 1.921875 -5.429688 2.484375 -5.703125 C 3.054688 -5.984375 3.800781 -6.195312 4.71875 -6.34375 C 5.363281 -6.445312 5.851562 -6.5625 6.1875 -6.6875 C 6.519531 -6.8125 6.742188 -6.953125 6.859375 -7.109375 C 6.972656 -7.265625 7.03125 -7.460938 7.03125 -7.703125 C 7.03125 -8.046875 6.910156 -8.304688 6.671875 -8.484375 C 6.429688 -8.660156 6.035156 -8.75 5.484375 -8.75 C 4.890625 -8.75 4.320312 -8.613281 3.78125 -8.34375 C 3.238281 -8.082031 2.769531 -7.738281 2.375 -7.3125 L 2.1875 -7.3125 L 1.0625 -9.015625 C 1.601562 -9.617188 2.265625 -10.085938 3.046875 -10.421875 C 3.835938 -10.753906 4.695312 -10.921875 5.625 -10.921875 C 7.039062 -10.921875 8.066406 -10.617188 8.703125 -10.015625 C 9.335938 -9.421875 9.65625 -8.566406 9.65625 -7.453125 L 9.65625 -2.796875 C 9.65625 -2.316406 9.863281 -2.078125 10.28125 -2.078125 C 10.445312 -2.078125 10.609375 -2.109375 10.765625 -2.171875 L 10.890625 -2.125 L 11.09375 -0.25 C 10.9375 -0.15625 10.722656 -0.078125 10.453125 -0.015625 C 10.191406 0.046875 9.90625 0.078125 9.59375 0.078125 C 8.945312 0.078125 8.441406 -0.0390625 8.078125 -0.28125 C 7.722656 -0.53125 7.46875 -0.921875 7.3125 -1.453125 L 7.109375 -1.46875 C 6.585938 -0.351562 5.609375 0.203125 4.171875 0.203125 Z M 5.03125 -1.8125 C 5.65625 -1.8125 6.148438 -2.019531 6.515625 -2.4375 C 6.890625 -2.851562 7.078125 -3.429688 7.078125 -4.171875 L 7.078125 -5.265625 L 6.90625 -5.3125 C 6.738281 -5.175781 6.523438 -5.0625 6.265625 -4.96875 C 6.003906 -4.882812 5.625 -4.800781 5.125 -4.71875 C 4.539062 -4.625 4.117188 -4.457031 3.859375 -4.21875 C 3.609375 -3.988281 3.484375 -3.65625 3.484375 -3.21875 C 3.484375 -2.757812 3.617188 -2.410156 3.890625 -2.171875 C 4.171875 -1.929688 4.550781 -1.8125 5.03125 -1.8125 Z M 5.03125 -1.8125 "/></g></g></g><g fill="#423e3e" fill-opacity="1"><g transform="translate(108.889882, 69.519671)"><g><path d="M 4.453125 0.203125 C 3.484375 0.203125 2.742188 -0.0546875 2.234375 -0.578125 C 1.734375 -1.097656 1.484375 -1.890625 1.484375 -2.953125 L 1.484375 -15.03125 L 4.171875 -15.03125 L 4.171875 -3.0625 C 4.171875 -2.40625 4.441406 -2.078125 4.984375 -2.078125 C 5.140625 -2.078125 5.304688 -2.101562 5.484375 -2.15625 L 5.625 -2.125 L 5.859375 -0.046875 C 5.710938 0.0234375 5.515625 0.0820312 5.265625 0.125 C 5.023438 0.175781 4.753906 0.203125 4.453125 0.203125 Z M 4.453125 0.203125 "/></g></g></g><g fill="#423e3e" fill-opacity="1"><g transform="translate(115.050433, 69.519671)"><g><path d="M 4.90625 0.203125 C 3.695312 0.203125 2.804688 -0.125 2.234375 -0.78125 C 1.660156 -1.4375 1.375 -2.378906 1.375 -3.609375 L 1.375 -10.71875 L 4.078125 -10.71875 L 4.078125 -3.953125 C 4.078125 -3.296875 4.21875 -2.816406 4.5 -2.515625 C 4.78125 -2.222656 5.210938 -2.078125 5.796875 -2.078125 C 6.546875 -2.078125 7.128906 -2.316406 7.546875 -2.796875 C 7.960938 -3.285156 8.171875 -4.054688 8.171875 -5.109375 L 8.171875 -10.71875 L 10.859375 -10.71875 L 10.859375 0 L 8.265625 0 L 8.265625 -1.578125 L 8.0625 -1.625 C 7.71875 -1.007812 7.296875 -0.550781 6.796875 -0.25 C 6.304688 0.0507812 5.675781 0.203125 4.90625 0.203125 Z M 4.90625 0.203125 "/></g></g></g><g fill="#423e3e" fill-opacity="1"><g transform="translate(127.449269, 69.519671)"><g><path d="M 10.59375 -4.75 L 3.703125 -4.75 C 3.773438 -3.820312 4.039062 -3.144531 4.5 -2.71875 C 4.957031 -2.289062 5.578125 -2.078125 6.359375 -2.078125 C 6.972656 -2.078125 7.46875 -2.191406 7.84375 -2.421875 C 8.226562 -2.648438 8.539062 -3 8.78125 -3.46875 L 8.984375 -3.46875 L 10.765625 -2.328125 C 10.421875 -1.578125 9.894531 -0.96875 9.1875 -0.5 C 8.476562 -0.03125 7.535156 0.203125 6.359375 0.203125 C 5.242188 0.203125 4.285156 -0.00390625 3.484375 -0.421875 C 2.679688 -0.847656 2.0625 -1.476562 1.625 -2.3125 C 1.1875 -3.144531 0.96875 -4.160156 0.96875 -5.359375 C 0.96875 -6.578125 1.195312 -7.601562 1.65625 -8.4375 C 2.113281 -9.269531 2.734375 -9.890625 3.515625 -10.296875 C 4.296875 -10.710938 5.175781 -10.921875 6.15625 -10.921875 C 7.675781 -10.921875 8.835938 -10.519531 9.640625 -9.71875 C 10.453125 -8.914062 10.859375 -7.738281 10.859375 -6.1875 C 10.859375 -5.625 10.835938 -5.1875 10.796875 -4.875 Z M 8.28125 -6.5 C 8.257812 -7.3125 8.070312 -7.898438 7.71875 -8.265625 C 7.363281 -8.640625 6.84375 -8.828125 6.15625 -8.828125 C 4.800781 -8.828125 4.003906 -8.050781 3.765625 -6.5 Z M 8.28125 -6.5 "/></g></g></g><g clip-path="url(#cae37d138f)"><g clip-path="url(#782bbeefd9)"><path fill="#ddd9d9" d="M 82.335938 88.910156 L 96.582031 76.964844 L 107.703125 90.222656 L 93.457031 102.171875 Z M 82.335938 88.910156 " fill-opacity="1" fill-rule="nonzero"/></g></g><g clip-path="url(#ec28d380ee)"><g clip-path="url(#7fcbc6baf4)"><path fill="#ddd9d9" d="M 92.925781 83.742188 L 132.234375 83.742188 L 132.234375 102.171875 L 92.925781 102.171875 Z M 92.925781 83.742188 " fill-opacity="1" fill-rule="nonzero"/></g></g><g fill="#423e3e" fill-opacity="1"><g transform="translate(85.556793, 108.553343)"><g><path d="M 1.546875 0 L 1.546875 -10.71875 L 4.125 -10.71875 L 4.125 -9.140625 L 4.328125 -9.09375 C 5.003906 -10.3125 6.085938 -10.921875 7.578125 -10.921875 C 8.816406 -10.921875 9.722656 -10.582031 10.296875 -9.90625 C 10.878906 -9.238281 11.171875 -8.257812 11.171875 -6.96875 L 11.171875 0 L 8.484375 0 L 8.484375 -6.640625 C 8.484375 -7.347656 8.335938 -7.859375 8.046875 -8.171875 C 7.765625 -8.492188 7.3125 -8.65625 6.6875 -8.65625 C 5.914062 -8.65625 5.3125 -8.40625 4.875 -7.90625 C 4.445312 -7.40625 4.234375 -6.617188 4.234375 -5.546875 L 4.234375 0 Z M 1.546875 0 "/></g></g></g><g fill="#423e3e" fill-opacity="1"><g transform="translate(98.111101, 108.553343)"><g><path d="M 4.171875 0.203125 C 3.492188 0.203125 2.898438 0.078125 2.390625 -0.171875 C 1.890625 -0.421875 1.5 -0.789062 1.21875 -1.28125 C 0.945312 -1.769531 0.8125 -2.359375 0.8125 -3.046875 C 0.8125 -3.679688 0.945312 -4.210938 1.21875 -4.640625 C 1.5 -5.078125 1.921875 -5.429688 2.484375 -5.703125 C 3.054688 -5.984375 3.800781 -6.195312 4.71875 -6.34375 C 5.363281 -6.445312 5.851562 -6.5625 6.1875 -6.6875 C 6.519531 -6.8125 6.742188 -6.953125 6.859375 -7.109375 C 6.972656 -7.265625 7.03125 -7.460938 7.03125 -7.703125 C 7.03125 -8.046875 6.910156 -8.304688 6.671875 -8.484375 C 6.429688 -8.660156 6.035156 -8.75 5.484375 -8.75 C 4.890625 -8.75 4.320312 -8.613281 3.78125 -8.34375 C 3.238281 -8.082031 2.769531 -7.738281 2.375 -7.3125 L 2.1875 -7.3125 L 1.0625 -9.015625 C 1.601562 -9.617188 2.265625 -10.085938 3.046875 -10.421875 C 3.835938 -10.753906 4.695312 -10.921875 5.625 -10.921875 C 7.039062 -10.921875 8.066406 -10.617188 8.703125 -10.015625 C 9.335938 -9.421875 9.65625 -8.566406 9.65625 -7.453125 L 9.65625 -2.796875 C 9.65625 -2.316406 9.863281 -2.078125 10.28125 -2.078125 C 10.445312 -2.078125 10.609375 -2.109375 10.765625 -2.171875 L 10.890625 -2.125 L 11.09375 -0.25 C 10.9375 -0.15625 10.722656 -0.078125 10.453125 -0.015625 C 10.191406 0.046875 9.90625 0.078125 9.59375 0.078125 C 8.945312 0.078125 8.441406 -0.0390625 8.078125 -0.28125 C 7.722656 -0.53125 7.46875 -0.921875 7.3125 -1.453125 L 7.109375 -1.46875 C 6.585938 -0.351562 5.609375 0.203125 4.171875 0.203125 Z M 5.03125 -1.8125 C 5.65625 -1.8125 6.148438 -2.019531 6.515625 -2.4375 C 6.890625 -2.851562 7.078125 -3.429688 7.078125 -4.171875 L 7.078125 -5.265625 L 6.90625 -5.3125 C 6.738281 -5.175781 6.523438 -5.0625 6.265625 -4.96875 C 6.003906 -4.882812 5.625 -4.800781 5.125 -4.71875 C 4.539062 -4.625 4.117188 -4.457031 3.859375 -4.21875 C 3.609375 -3.988281 3.484375 -3.65625 3.484375 -3.21875 C 3.484375 -2.757812 3.617188 -2.410156 3.890625 -2.171875 C 4.171875 -1.929688 4.550781 -1.8125 5.03125 -1.8125 Z M 5.03125 -1.8125 "/></g></g></g><g fill="#423e3e" fill-opacity="1"><g transform="translate(109.411926, 108.553343)"><g><path d="M 1.546875 0 L 1.546875 -10.71875 L 4.125 -10.71875 L 4.125 -9.28125 L 4.328125 -9.25 C 4.679688 -9.820312 5.09375 -10.242188 5.5625 -10.515625 C 6.03125 -10.785156 6.632812 -10.921875 7.375 -10.921875 C 8.175781 -10.921875 8.820312 -10.757812 9.3125 -10.4375 C 9.8125 -10.125 10.175781 -9.660156 10.40625 -9.046875 L 10.609375 -9.046875 C 10.929688 -9.679688 11.351562 -10.148438 11.875 -10.453125 C 12.40625 -10.765625 13.054688 -10.921875 13.828125 -10.921875 C 16.054688 -10.921875 17.171875 -9.6875 17.171875 -7.21875 L 17.171875 0 L 14.46875 0 L 14.46875 -6.875 C 14.46875 -7.5 14.34375 -7.953125 14.09375 -8.234375 C 13.851562 -8.515625 13.460938 -8.65625 12.921875 -8.65625 C 11.441406 -8.65625 10.703125 -7.664062 10.703125 -5.6875 L 10.703125 0 L 8.015625 0 L 8.015625 -6.875 C 8.015625 -7.5 7.890625 -7.953125 7.640625 -8.234375 C 7.390625 -8.515625 6.988281 -8.65625 6.4375 -8.65625 C 5.75 -8.65625 5.207031 -8.421875 4.8125 -7.953125 C 4.425781 -7.492188 4.234375 -6.757812 4.234375 -5.75 L 4.234375 0 Z M 1.546875 0 "/></g></g></g><g fill="#423e3e" fill-opacity="1"><g transform="translate(127.951879, 108.553343)"><g><path d="M 10.59375 -4.75 L 3.703125 -4.75 C 3.773438 -3.820312 4.039062 -3.144531 4.5 -2.71875 C 4.957031 -2.289062 5.578125 -2.078125 6.359375 -2.078125 C 6.972656 -2.078125 7.46875 -2.191406 7.84375 -2.421875 C 8.226562 -2.648438 8.539062 -3 8.78125 -3.46875 L 8.984375 -3.46875 L 10.765625 -2.328125 C 10.421875 -1.578125 9.894531 -0.96875 9.1875 -0.5 C 8.476562 -0.03125 7.535156 0.203125 6.359375 0.203125 C 5.242188 0.203125 4.285156 -0.00390625 3.484375 -0.421875 C 2.679688 -0.847656 2.0625 -1.476562 1.625 -2.3125 C 1.1875 -3.144531 0.96875 -4.160156 0.96875 -5.359375 C 0.96875 -6.578125 1.195312 -7.601562 1.65625 -8.4375 C 2.113281 -9.269531 2.734375 -9.890625 3.515625 -10.296875 C 4.296875 -10.710938 5.175781 -10.921875 6.15625 -10.921875 C 7.675781 -10.921875 8.835938 -10.519531 9.640625 -9.71875 C 10.453125 -8.914062 10.859375 -7.738281 10.859375 -6.1875 C 10.859375 -5.625 10.835938 -5.1875 10.796875 -4.875 Z M 8.28125 -6.5 C 8.257812 -7.3125 8.070312 -7.898438 7.71875 -8.265625 C 7.363281 -8.640625 6.84375 -8.828125 6.15625 -8.828125 C 4.800781 -8.828125 4.003906 -8.050781 3.765625 -6.5 Z M 8.28125 -6.5 "/></g></g></g><g fill="#423e3e" fill-opacity="1"><g transform="translate(74.845314, 145.878556)"><g><path d="M 3.953125 -7.4375 C 3.953125 -6.570312 4.144531 -5.78125 4.53125 -5.0625 C 4.914062 -4.34375 5.453125 -3.765625 6.140625 -3.328125 C 6.828125 -2.898438 7.617188 -2.6875 8.515625 -2.6875 C 9.523438 -2.6875 10.367188 -2.921875 11.046875 -3.390625 C 11.734375 -3.859375 12.164062 -4.460938 12.34375 -5.203125 L 7.828125 -5.203125 L 7.828125 -7.984375 L 15.546875 -7.984375 L 15.546875 -6.828125 C 15.546875 -5.679688 15.351562 -4.664062 14.96875 -3.78125 C 14.582031 -2.894531 14.054688 -2.15625 13.390625 -1.5625 C 12.734375 -0.976562 11.984375 -0.53125 11.140625 -0.21875 C 10.296875 0.0820312 9.421875 0.234375 8.515625 0.234375 C 7.367188 0.234375 6.320312 0.0351562 5.375 -0.359375 C 4.4375 -0.765625 3.625 -1.3125 2.9375 -2 C 2.257812 -2.695312 1.734375 -3.507812 1.359375 -4.4375 C 0.992188 -5.363281 0.8125 -6.359375 0.8125 -7.421875 C 0.8125 -8.503906 1.015625 -9.503906 1.421875 -10.421875 C 1.828125 -11.347656 2.382812 -12.160156 3.09375 -12.859375 C 3.8125 -13.566406 4.632812 -14.113281 5.5625 -14.5 C 6.5 -14.882812 7.5 -15.078125 8.5625 -15.078125 C 9.507812 -15.078125 10.359375 -14.945312 11.109375 -14.6875 C 11.859375 -14.425781 12.507812 -14.085938 13.0625 -13.671875 C 13.613281 -13.253906 14.066406 -12.800781 14.421875 -12.3125 C 14.785156 -11.832031 15.050781 -11.359375 15.21875 -10.890625 L 12.5 -9.5625 C 12.363281 -9.9375 12.132812 -10.328125 11.8125 -10.734375 C 11.488281 -11.140625 11.054688 -11.476562 10.515625 -11.75 C 9.984375 -12.03125 9.316406 -12.171875 8.515625 -12.171875 C 7.679688 -12.171875 6.921875 -11.960938 6.234375 -11.546875 C 5.546875 -11.128906 4.992188 -10.5625 4.578125 -9.84375 C 4.160156 -9.132812 3.953125 -8.332031 3.953125 -7.4375 Z M 3.953125 -7.4375 "/></g></g></g><g fill="#423e3e" fill-opacity="1"><g transform="translate(91.100909, 145.878556)"><g><path d="M 3.078125 0 L -0.015625 0 L 5.65625 -14.859375 L 9.359375 -14.859375 L 15.046875 0 L 11.875 0 L 10.75 -3 L 4.171875 -3 Z M 7.46875 -11.875 L 5.234375 -5.84375 L 9.71875 -5.84375 Z M 7.46875 -11.875 "/></g></g></g><g fill="#423e3e" fill-opacity="1"><g transform="translate(106.123582, 145.878556)"><g><path d="M 13.5 -6 C 13.5 -4.726562 13.273438 -3.628906 12.828125 -2.703125 C 12.390625 -1.773438 11.726562 -1.054688 10.84375 -0.546875 C 9.957031 -0.046875 8.847656 0.203125 7.515625 0.203125 C 6.148438 0.203125 5.023438 -0.0507812 4.140625 -0.5625 C 3.265625 -1.082031 2.617188 -1.800781 2.203125 -2.71875 C 1.785156 -3.632812 1.578125 -4.6875 1.578125 -5.875 L 1.578125 -14.859375 L 4.671875 -14.859375 L 4.640625 -5.953125 C 4.640625 -4.859375 4.914062 -4.050781 5.46875 -3.53125 C 6.03125 -3.007812 6.71875 -2.75 7.53125 -2.75 C 8.476562 -2.75 9.203125 -3.035156 9.703125 -3.609375 C 10.210938 -4.191406 10.46875 -4.945312 10.46875 -5.875 L 10.46875 -14.859375 L 13.5 -14.859375 Z M 13.5 -6 "/></g></g></g><g fill="#423e3e" fill-opacity="1"><g transform="translate(121.203151, 145.878556)"><g><path d="M 3.953125 -7.4375 C 3.953125 -6.570312 4.144531 -5.78125 4.53125 -5.0625 C 4.914062 -4.34375 5.453125 -3.765625 6.140625 -3.328125 C 6.828125 -2.898438 7.617188 -2.6875 8.515625 -2.6875 C 9.523438 -2.6875 10.367188 -2.921875 11.046875 -3.390625 C 11.734375 -3.859375 12.164062 -4.460938 12.34375 -5.203125 L 7.828125 -5.203125 L 7.828125 -7.984375 L 15.546875 -7.984375 L 15.546875 -6.828125 C 15.546875 -5.679688 15.351562 -4.664062 14.96875 -3.78125 C 14.582031 -2.894531 14.054688 -2.15625 13.390625 -1.5625 C 12.734375 -0.976562 11.984375 -0.53125 11.140625 -0.21875 C 10.296875 0.0820312 9.421875 0.234375 8.515625 0.234375 C 7.367188 0.234375 6.320312 0.0351562 5.375 -0.359375 C 4.4375 -0.765625 3.625 -1.3125 2.9375 -2 C 2.257812 -2.695312 1.734375 -3.507812 1.359375 -4.4375 C 0.992188 -5.363281 0.8125 -6.359375 0.8125 -7.421875 C 0.8125 -8.503906 1.015625 -9.503906 1.421875 -10.421875 C 1.828125 -11.347656 2.382812 -12.160156 3.09375 -12.859375 C 3.8125 -13.566406 4.632812 -14.113281 5.5625 -14.5 C 6.5 -14.882812 7.5 -15.078125 8.5625 -15.078125 C 9.507812 -15.078125 10.359375 -14.945312 11.109375 -14.6875 C 11.859375 -14.425781 12.507812 -14.085938 13.0625 -13.671875 C 13.613281 -13.253906 14.066406 -12.800781 14.421875 -12.3125 C 14.785156 -11.832031 15.050781 -11.359375 15.21875 -10.890625 L 12.5 -9.5625 C 12.363281 -9.9375 12.132812 -10.328125 11.8125 -10.734375 C 11.488281 -11.140625 11.054688 -11.476562 10.515625 -11.75 C 9.984375 -12.03125 9.316406 -12.171875 8.515625 -12.171875 C 7.679688 -12.171875 6.921875 -11.960938 6.234375 -11.546875 C 5.546875 -11.128906 4.992188 -10.5625 4.578125 -9.84375 C 4.160156 -9.132812 3.953125 -8.332031 3.953125 -7.4375 Z M 3.953125 -7.4375 "/></g></g></g><g fill="#423e3e" fill-opacity="1"><g transform="translate(137.458746, 145.878556)"><g><path d="M 1.71875 -14.859375 L 11.453125 -14.859375 L 11.453125 -11.96875 L 4.765625 -11.96875 L 4.765625 -8.953125 L 10.75 -8.953125 L 10.75 -6.0625 L 4.765625 -6.0625 L 4.765625 -2.859375 L 11.5 -2.859375 L 11.5 0 L 1.71875 0 Z M 1.71875 -14.859375 "/></g></g></g></svg>