<svg xmlns="http://www.w3.org/2000/svg" xmlns:xlink="http://www.w3.org/1999/xlink" width="275" zoomAndPan="magnify" viewBox="0 0 206.25 187.499992" height="250" preserveAspectRatio="xMidYMid meet" version="1.0"><defs><g/><clipPath id="a05869d74e"><path d="M 6.664062 6.203125 L 198.839844 6.203125 L 198.839844 145.292969 L 6.664062 145.292969 Z M 6.664062 6.203125 " clip-rule="nonzero"/></clipPath><clipPath id="039ef5f58d"><path d="M 55.476562 151.675781 L 150.027344 151.675781 L 150.027344 179.699219 L 55.476562 179.699219 Z M 55.476562 151.675781 " clip-rule="nonzero"/></clipPath><clipPath id="0d2fb73e67"><path d="M 55.476562 14.113281 L 150.378906 14.113281 L 150.378906 109.019531 L 55.476562 109.019531 Z M 55.476562 14.113281 " clip-rule="nonzero"/></clipPath><clipPath id="32afe0960b"><path d="M 102.746094 14.113281 C 76.640625 14.113281 55.476562 35.425781 55.476562 61.71875 C 55.476562 88.007812 76.640625 109.320312 102.746094 109.320312 C 128.855469 109.320312 150.019531 88.007812 150.019531 61.71875 C 150.019531 35.425781 128.855469 14.113281 102.746094 14.113281 Z M 102.746094 14.113281 " clip-rule="nonzero"/></clipPath><clipPath id="cf790c4057"><path d="M 113 82 L 151 82 L 151 119 L 113 119 Z M 113 82 " clip-rule="nonzero"/></clipPath><clipPath id="cd3a6da8c2"><path d="M 113.878906 99.445312 L 134.179688 82.421875 L 150.027344 101.320312 L 129.726562 118.34375 Z M 113.878906 99.445312 " clip-rule="nonzero"/></clipPath><clipPath id="f5aebf6739"><path d="M 113.878906 99.445312 L 134.179688 82.421875 L 150.027344 101.320312 L 129.726562 118.34375 Z M 113.878906 99.445312 " clip-rule="nonzero"/></clipPath><clipPath id="edf82aba44"><path d="M 59 81 L 96 81 L 96 118 L 59 118 Z M 59 81 " clip-rule="nonzero"/></clipPath><clipPath id="e549ac1ef1"><path d="M 59.640625 98.695312 L 79.9375 81.671875 L 95.789062 100.574219 L 75.488281 117.597656 Z M 59.640625 98.695312 " clip-rule="nonzero"/></clipPath><clipPath id="594ce69646"><path d="M 59.640625 98.695312 L 79.9375 81.671875 L 95.789062 100.574219 L 75.488281 117.597656 Z M 59.640625 98.695312 " clip-rule="nonzero"/></clipPath><clipPath id="7420a1d24e"><path d="M 74.726562 91.332031 L 130.773438 91.332031 L 130.773438 117.601562 L 74.726562 117.601562 Z M 74.726562 91.332031 " clip-rule="nonzero"/></clipPath><clipPath id="1b8c383819"><path d="M 83.695312 91.332031 L 121.808594 91.332031 C 124.183594 91.332031 126.464844 92.277344 128.148438 93.960938 C 129.828125 95.640625 130.773438 97.921875 130.773438 100.300781 L 130.773438 108.632812 C 130.773438 111.011719 129.828125 113.292969 128.148438 114.972656 C 126.464844 116.65625 124.183594 117.601562 121.808594 117.601562 L 83.695312 117.601562 C 78.742188 117.601562 74.726562 113.585938 74.726562 108.632812 L 74.726562 100.300781 C 74.726562 95.347656 78.742188 91.332031 83.695312 91.332031 Z M 83.695312 91.332031 " clip-rule="nonzero"/></clipPath></defs><g clip-path="url(#a05869d74e)"><path fill="#ececec" d="M 6.664062 6.203125 L 198.839844 6.203125 L 198.839844 145.292969 L 6.664062 145.292969 Z M 6.664062 6.203125 " fill-opacity="1" fill-rule="nonzero"/></g><g clip-path="url(#039ef5f58d)"><path fill="#ffffff" d="M 55.476562 151.675781 L 150.027344 151.675781 L 150.027344 179.699219 L 55.476562 179.699219 Z M 55.476562 151.675781 " fill-opacity="1" fill-rule="nonzero"/></g><g clip-path="url(#0d2fb73e67)"><g clip-path="url(#32afe0960b)"><path stroke-linecap="butt" transform="matrix(0.747283, 0, 0, 0.747283, 55.475372, 14.114561)" fill="none" stroke-linejoin="miter" d="M 63.256823 -0.00171282 C 28.322958 -0.00171282 0.00159277 28.518288 0.00159277 63.703063 C 0.00159277 98.882609 28.322958 127.402611 63.256823 127.402611 C 98.195915 127.402611 126.51728 98.882609 126.51728 63.703063 C 126.51728 28.518288 98.195915 -0.00171282 63.256823 -0.00171282 Z M 63.256823 -0.00171282 " stroke="#56d84a" stroke-width="14" stroke-opacity="1" stroke-miterlimit="4"/></g></g><g clip-path="url(#cf790c4057)"><g clip-path="url(#cd3a6da8c2)"><g clip-path="url(#f5aebf6739)"><path fill="#ececec" d="M 113.878906 99.445312 L 134.179688 82.421875 L 150.027344 101.320312 L 129.726562 118.34375 Z M 113.878906 99.445312 " fill-opacity="1" fill-rule="nonzero"/></g></g></g><g fill="#423e3e" fill-opacity="1"><g transform="translate(64.951314, 71.063096)"><g><path d="M 10.515625 0 L 5.9375 0 L 0.296875 -15.28125 L 4.3125 -15.28125 L 8.09375 -4.390625 L 8.421875 -4.390625 L 12.234375 -15.28125 L 16.140625 -15.28125 Z M 10.515625 0 "/></g></g></g><g fill="#423e3e" fill-opacity="1"><g transform="translate(81.375624, 71.063096)"><g><path d="M 5.953125 0.296875 C 4.972656 0.296875 4.125 0.113281 3.40625 -0.25 C 2.6875 -0.613281 2.128906 -1.140625 1.734375 -1.828125 C 1.347656 -2.523438 1.15625 -3.363281 1.15625 -4.34375 C 1.15625 -5.25 1.347656 -6.007812 1.734375 -6.625 C 2.128906 -7.238281 2.734375 -7.738281 3.546875 -8.125 C 4.359375 -8.519531 5.421875 -8.828125 6.734375 -9.046875 C 7.640625 -9.191406 8.332031 -9.351562 8.8125 -9.53125 C 9.289062 -9.707031 9.613281 -9.90625 9.78125 -10.125 C 9.945312 -10.34375 10.03125 -10.625 10.03125 -10.96875 C 10.03125 -11.457031 9.859375 -11.828125 9.515625 -12.078125 C 9.171875 -12.335938 8.601562 -12.46875 7.8125 -12.46875 C 6.957031 -12.46875 6.144531 -12.28125 5.375 -11.90625 C 4.613281 -11.53125 3.953125 -11.03125 3.390625 -10.40625 L 3.109375 -10.40625 L 1.515625 -12.84375 C 2.285156 -13.695312 3.226562 -14.363281 4.34375 -14.84375 C 5.46875 -15.320312 6.6875 -15.5625 8 -15.5625 C 10.019531 -15.5625 11.484375 -15.128906 12.390625 -14.265625 C 13.296875 -13.410156 13.75 -12.195312 13.75 -10.625 L 13.75 -3.984375 C 13.75 -3.304688 14.050781 -2.96875 14.65625 -2.96875 C 14.882812 -2.96875 15.109375 -3.007812 15.328125 -3.09375 L 15.515625 -3.03125 L 15.796875 -0.359375 C 15.585938 -0.222656 15.289062 -0.109375 14.90625 -0.015625 C 14.53125 0.0664062 14.117188 0.109375 13.671875 0.109375 C 12.753906 0.109375 12.039062 -0.0625 11.53125 -0.40625 C 11.019531 -0.757812 10.648438 -1.3125 10.421875 -2.0625 L 10.140625 -2.09375 C 9.390625 -0.5 7.992188 0.296875 5.953125 0.296875 Z M 7.171875 -2.578125 C 8.054688 -2.578125 8.765625 -2.875 9.296875 -3.46875 C 9.828125 -4.0625 10.09375 -4.890625 10.09375 -5.953125 L 10.09375 -7.5 L 9.828125 -7.5625 C 9.597656 -7.375 9.296875 -7.21875 8.921875 -7.09375 C 8.546875 -6.96875 8.007812 -6.847656 7.3125 -6.734375 C 6.476562 -6.585938 5.878906 -6.347656 5.515625 -6.015625 C 5.148438 -5.679688 4.96875 -5.203125 4.96875 -4.578125 C 4.96875 -3.921875 5.160156 -3.421875 5.546875 -3.078125 C 5.941406 -2.742188 6.484375 -2.578125 7.171875 -2.578125 Z M 7.171875 -2.578125 "/></g></g></g><g fill="#423e3e" fill-opacity="1"><g transform="translate(97.481424, 71.063096)"><g><path d="M 6.34375 0.296875 C 4.96875 0.296875 3.914062 -0.0703125 3.1875 -0.8125 C 2.46875 -1.5625 2.109375 -2.691406 2.109375 -4.203125 L 2.109375 -21.40625 L 5.9375 -21.40625 L 5.9375 -4.359375 C 5.9375 -3.429688 6.328125 -2.96875 7.109375 -2.96875 C 7.328125 -2.96875 7.5625 -3.003906 7.8125 -3.078125 L 8 -3.015625 L 8.34375 -0.0625 C 8.132812 0.0390625 7.851562 0.125 7.5 0.1875 C 7.15625 0.257812 6.769531 0.296875 6.34375 0.296875 Z M 6.34375 0.296875 "/></g></g></g><g fill="#423e3e" fill-opacity="1"><g transform="translate(106.261367, 71.063096)"><g><path d="M 7 0.296875 C 5.28125 0.296875 4.007812 -0.171875 3.1875 -1.109375 C 2.375 -2.046875 1.96875 -3.394531 1.96875 -5.15625 L 1.96875 -15.28125 L 5.796875 -15.28125 L 5.796875 -5.640625 C 5.796875 -4.703125 5.992188 -4.019531 6.390625 -3.59375 C 6.796875 -3.164062 7.421875 -2.953125 8.265625 -2.953125 C 9.328125 -2.953125 10.148438 -3.300781 10.734375 -4 C 11.328125 -4.695312 11.625 -5.789062 11.625 -7.28125 L 11.625 -15.28125 L 15.46875 -15.28125 L 15.46875 0 L 11.78125 0 L 11.78125 -2.25 L 11.5 -2.3125 C 11.007812 -1.4375 10.410156 -0.78125 9.703125 -0.34375 C 8.992188 0.0820312 8.09375 0.296875 7 0.296875 Z M 7 0.296875 "/></g></g></g><g fill="#423e3e" fill-opacity="1"><g transform="translate(123.932042, 71.063096)"><g><path d="M 15.09375 -6.765625 L 5.28125 -6.765625 C 5.382812 -5.441406 5.757812 -4.476562 6.40625 -3.875 C 7.050781 -3.269531 7.9375 -2.96875 9.0625 -2.96875 C 9.9375 -2.96875 10.644531 -3.128906 11.1875 -3.453125 C 11.726562 -3.785156 12.164062 -4.28125 12.5 -4.9375 L 12.796875 -4.9375 L 15.34375 -3.3125 C 14.84375 -2.238281 14.085938 -1.367188 13.078125 -0.703125 C 12.078125 -0.0351562 10.738281 0.296875 9.0625 0.296875 C 7.476562 0.296875 6.109375 -0.00390625 4.953125 -0.609375 C 3.804688 -1.210938 2.921875 -2.101562 2.296875 -3.28125 C 1.679688 -4.46875 1.375 -5.914062 1.375 -7.625 C 1.375 -9.363281 1.703125 -10.828125 2.359375 -12.015625 C 3.015625 -13.210938 3.898438 -14.101562 5.015625 -14.6875 C 6.128906 -15.269531 7.382812 -15.5625 8.78125 -15.5625 C 10.9375 -15.5625 12.585938 -14.988281 13.734375 -13.84375 C 14.890625 -12.695312 15.46875 -11.019531 15.46875 -8.8125 C 15.46875 -8.007812 15.441406 -7.382812 15.390625 -6.9375 Z M 11.796875 -9.25 C 11.765625 -10.414062 11.492188 -11.265625 10.984375 -11.796875 C 10.484375 -12.328125 9.75 -12.59375 8.78125 -12.59375 C 6.84375 -12.59375 5.703125 -11.476562 5.359375 -9.25 Z M 11.796875 -9.25 "/></g></g></g><g clip-path="url(#edf82aba44)"><g clip-path="url(#e549ac1ef1)"><g clip-path="url(#594ce69646)"><path fill="#ececec" d="M 59.640625 98.695312 L 79.9375 81.671875 L 95.789062 100.574219 L 75.488281 117.597656 Z M 59.640625 98.695312 " fill-opacity="1" fill-rule="nonzero"/></g></g></g><g clip-path="url(#7420a1d24e)"><g clip-path="url(#1b8c383819)"><path fill="#ececec" d="M 74.726562 91.332031 L 130.773438 91.332031 L 130.773438 117.601562 L 74.726562 117.601562 Z M 74.726562 91.332031 " fill-opacity="1" fill-rule="nonzero"/></g></g><g fill="#423e3e" fill-opacity="1"><g transform="translate(64.227384, 126.693423)"><g><path d="M 2.203125 0 L 2.203125 -15.28125 L 5.890625 -15.28125 L 5.890625 -13.03125 L 6.171875 -12.96875 C 7.128906 -14.695312 8.671875 -15.5625 10.796875 -15.5625 C 12.566406 -15.5625 13.863281 -15.082031 14.6875 -14.125 C 15.507812 -13.164062 15.921875 -11.765625 15.921875 -9.921875 L 15.921875 0 L 12.09375 0 L 12.09375 -9.453125 C 12.09375 -10.472656 11.890625 -11.207031 11.484375 -11.65625 C 11.078125 -12.101562 10.425781 -12.328125 9.53125 -12.328125 C 8.425781 -12.328125 7.566406 -11.96875 6.953125 -11.25 C 6.335938 -10.539062 6.03125 -9.425781 6.03125 -7.90625 L 6.03125 0 Z M 2.203125 0 "/></g></g></g><g fill="#423e3e" fill-opacity="1"><g transform="translate(82.119634, 126.693423)"><g><path d="M 5.953125 0.296875 C 4.972656 0.296875 4.125 0.113281 3.40625 -0.25 C 2.6875 -0.613281 2.128906 -1.140625 1.734375 -1.828125 C 1.347656 -2.523438 1.15625 -3.363281 1.15625 -4.34375 C 1.15625 -5.25 1.347656 -6.007812 1.734375 -6.625 C 2.128906 -7.238281 2.734375 -7.738281 3.546875 -8.125 C 4.359375 -8.519531 5.421875 -8.828125 6.734375 -9.046875 C 7.640625 -9.191406 8.332031 -9.351562 8.8125 -9.53125 C 9.289062 -9.707031 9.613281 -9.90625 9.78125 -10.125 C 9.945312 -10.34375 10.03125 -10.625 10.03125 -10.96875 C 10.03125 -11.457031 9.859375 -11.828125 9.515625 -12.078125 C 9.171875 -12.335938 8.601562 -12.46875 7.8125 -12.46875 C 6.957031 -12.46875 6.144531 -12.28125 5.375 -11.90625 C 4.613281 -11.53125 3.953125 -11.03125 3.390625 -10.40625 L 3.109375 -10.40625 L 1.515625 -12.84375 C 2.285156 -13.695312 3.226562 -14.363281 4.34375 -14.84375 C 5.46875 -15.320312 6.6875 -15.5625 8 -15.5625 C 10.019531 -15.5625 11.484375 -15.128906 12.390625 -14.265625 C 13.296875 -13.410156 13.75 -12.195312 13.75 -10.625 L 13.75 -3.984375 C 13.75 -3.304688 14.050781 -2.96875 14.65625 -2.96875 C 14.882812 -2.96875 15.109375 -3.007812 15.328125 -3.09375 L 15.515625 -3.03125 L 15.796875 -0.359375 C 15.585938 -0.222656 15.289062 -0.109375 14.90625 -0.015625 C 14.53125 0.0664062 14.117188 0.109375 13.671875 0.109375 C 12.753906 0.109375 12.039062 -0.0625 11.53125 -0.40625 C 11.019531 -0.757812 10.648438 -1.3125 10.421875 -2.0625 L 10.140625 -2.09375 C 9.390625 -0.5 7.992188 0.296875 5.953125 0.296875 Z M 7.171875 -2.578125 C 8.054688 -2.578125 8.765625 -2.875 9.296875 -3.46875 C 9.828125 -4.0625 10.09375 -4.890625 10.09375 -5.953125 L 10.09375 -7.5 L 9.828125 -7.5625 C 9.597656 -7.375 9.296875 -7.21875 8.921875 -7.09375 C 8.546875 -6.96875 8.007812 -6.847656 7.3125 -6.734375 C 6.476562 -6.585938 5.878906 -6.347656 5.515625 -6.015625 C 5.148438 -5.679688 4.96875 -5.203125 4.96875 -4.578125 C 4.96875 -3.921875 5.160156 -3.421875 5.546875 -3.078125 C 5.941406 -2.742188 6.484375 -2.578125 7.171875 -2.578125 Z M 7.171875 -2.578125 "/></g></g></g><g fill="#423e3e" fill-opacity="1"><g transform="translate(98.225434, 126.693423)"><g><path d="M 2.203125 0 L 2.203125 -15.28125 L 5.890625 -15.28125 L 5.890625 -13.21875 L 6.171875 -13.171875 C 6.671875 -13.992188 7.253906 -14.597656 7.921875 -14.984375 C 8.597656 -15.367188 9.457031 -15.5625 10.5 -15.5625 C 11.65625 -15.5625 12.582031 -15.332031 13.28125 -14.875 C 13.976562 -14.414062 14.488281 -13.75 14.8125 -12.875 L 15.109375 -12.875 C 15.578125 -13.789062 16.179688 -14.46875 16.921875 -14.90625 C 17.671875 -15.34375 18.597656 -15.5625 19.703125 -15.5625 C 22.867188 -15.5625 24.453125 -13.800781 24.453125 -10.28125 L 24.453125 0 L 20.625 0 L 20.625 -9.796875 C 20.625 -10.691406 20.445312 -11.335938 20.09375 -11.734375 C 19.738281 -12.128906 19.175781 -12.328125 18.40625 -12.328125 C 16.300781 -12.328125 15.25 -10.914062 15.25 -8.09375 L 15.25 0 L 11.40625 0 L 11.40625 -9.796875 C 11.40625 -10.691406 11.226562 -11.335938 10.875 -11.734375 C 10.519531 -12.128906 9.957031 -12.328125 9.1875 -12.328125 C 8.195312 -12.328125 7.421875 -11.992188 6.859375 -11.328125 C 6.304688 -10.671875 6.03125 -9.625 6.03125 -8.1875 L 6.03125 0 Z M 2.203125 0 "/></g></g></g><g fill="#423e3e" fill-opacity="1"><g transform="translate(124.648355, 126.693423)"><g><path d="M 15.09375 -6.765625 L 5.28125 -6.765625 C 5.382812 -5.441406 5.757812 -4.476562 6.40625 -3.875 C 7.050781 -3.269531 7.9375 -2.96875 9.0625 -2.96875 C 9.9375 -2.96875 10.644531 -3.128906 11.1875 -3.453125 C 11.726562 -3.785156 12.164062 -4.28125 12.5 -4.9375 L 12.796875 -4.9375 L 15.34375 -3.3125 C 14.84375 -2.238281 14.085938 -1.367188 13.078125 -0.703125 C 12.078125 -0.0351562 10.738281 0.296875 9.0625 0.296875 C 7.476562 0.296875 6.109375 -0.00390625 4.953125 -0.609375 C 3.804688 -1.210938 2.921875 -2.101562 2.296875 -3.28125 C 1.679688 -4.46875 1.375 -5.914062 1.375 -7.625 C 1.375 -9.363281 1.703125 -10.828125 2.359375 -12.015625 C 3.015625 -13.210938 3.898438 -14.101562 5.015625 -14.6875 C 6.128906 -15.269531 7.382812 -15.5625 8.78125 -15.5625 C 10.9375 -15.5625 12.585938 -14.988281 13.734375 -13.84375 C 14.890625 -12.695312 15.46875 -11.019531 15.46875 -8.8125 C 15.46875 -8.007812 15.441406 -7.382812 15.390625 -6.9375 Z M 11.796875 -9.25 C 11.765625 -10.414062 11.492188 -11.265625 10.984375 -11.796875 C 10.484375 -12.328125 9.75 -12.59375 8.78125 -12.59375 C 6.84375 -12.59375 5.703125 -11.476562 5.359375 -9.25 Z M 11.796875 -9.25 "/></g></g></g><g fill="#423e3e" fill-opacity="1"><g transform="translate(65.229596, 172.139648)"><g><path d="M 3.9375 -7.421875 C 3.9375 -10.109375 6 -12.152344 8.5 -12.152344 C 10.882812 -12.152344 12.039062 -10.65625 12.472656 -9.539062 L 15.179688 -10.863281 C 14.519531 -12.71875 12.324219 -15.046875 8.535156 -15.046875 C 4.316406 -15.046875 0.8125 -11.71875 0.8125 -7.402344 C 0.8125 -3.179688 3.917969 0.226562 8.5 0.226562 C 12.113281 0.226562 15.523438 -2.195312 15.523438 -6.8125 L 15.523438 -7.96875 L 7.816406 -7.96875 L 7.816406 -5.1875 L 12.324219 -5.1875 C 11.964844 -3.730469 10.503906 -2.6875 8.5 -2.6875 C 5.8125 -2.6875 3.9375 -4.847656 3.9375 -7.421875 Z M 3.9375 -7.421875 "/></g></g></g><g fill="#423e3e" fill-opacity="1"><g transform="translate(81.450289, 172.139648)"><g><path d="M 3.066406 0 L 4.164062 -2.992188 L 10.734375 -2.992188 L 11.847656 0 L 15.011719 0 L 9.332031 -14.820312 L 5.640625 -14.820312 L -0.0195312 0 Z M 7.457031 -11.847656 L 9.691406 -5.828125 L 5.222656 -5.828125 Z M 7.457031 -11.847656 "/></g></g></g><g fill="#423e3e" fill-opacity="1"><g transform="translate(96.440707, 172.139648)"><g><path d="M 13.476562 -5.980469 L 13.476562 -14.820312 L 10.449219 -14.820312 L 10.449219 -5.867188 C 10.449219 -3.992188 9.40625 -2.746094 7.515625 -2.746094 C 5.90625 -2.746094 4.636719 -3.746094 4.636719 -5.945312 L 4.65625 -14.820312 L 1.570312 -14.820312 L 1.570312 -5.867188 C 1.570312 -2.289062 3.386719 0.207031 7.496094 0.207031 C 11.507812 0.207031 13.476562 -2.195312 13.476562 -5.980469 Z M 13.476562 -5.980469 "/></g></g></g><g fill="#423e3e" fill-opacity="1"><g transform="translate(111.4879, 172.139648)"><g><path d="M 3.9375 -7.421875 C 3.9375 -10.109375 6 -12.152344 8.5 -12.152344 C 10.882812 -12.152344 12.039062 -10.65625 12.472656 -9.539062 L 15.179688 -10.863281 C 14.519531 -12.71875 12.324219 -15.046875 8.535156 -15.046875 C 4.316406 -15.046875 0.8125 -11.71875 0.8125 -7.402344 C 0.8125 -3.179688 3.917969 0.226562 8.5 0.226562 C 12.113281 0.226562 15.523438 -2.195312 15.523438 -6.8125 L 15.523438 -7.96875 L 7.816406 -7.96875 L 7.816406 -5.1875 L 12.324219 -5.1875 C 11.964844 -3.730469 10.503906 -2.6875 8.5 -2.6875 C 5.8125 -2.6875 3.9375 -4.847656 3.9375 -7.421875 Z M 3.9375 -7.421875 "/></g></g></g><g fill="#423e3e" fill-opacity="1"><g transform="translate(127.708593, 172.139648)"><g><path d="M 1.722656 -14.820312 L 1.722656 0 L 11.472656 0 L 11.472656 -2.859375 L 4.75 -2.859375 L 4.75 -6.058594 L 10.734375 -6.058594 L 10.734375 -8.933594 L 4.75 -8.933594 L 4.75 -11.945312 L 11.433594 -11.945312 L 11.433594 -14.820312 Z M 1.722656 -14.820312 "/></g></g></g></svg>