<svg xmlns="http://www.w3.org/2000/svg" xmlns:xlink="http://www.w3.org/1999/xlink" width="61" zoomAndPan="magnify" viewBox="0 0 45.75 30.000001" height="40" preserveAspectRatio="xMidYMid meet" version="1.2"><defs><clipPath id="7097afdb70"><path d="M 11 1 L 35 1 L 35 21 L 11 21 Z M 11 1 "/></clipPath><clipPath id="23d89ac405"><path d="M 38.894531 12.535156 L 22.984375 28.445312 L 7.074219 12.535156 L 22.984375 -3.375 Z M 38.894531 12.535156 "/></clipPath><clipPath id="0052edb250"><path d="M 38.894531 12.535156 L 22.984375 28.445312 L 7.074219 12.535156 L 22.984375 -3.375 Z M 38.894531 12.535156 "/></clipPath></defs><g id="3a5b84405b"><g style="fill:#808080;fill-opacity:1;"><g transform="translate(14.908249, 13.820359)"><path style="stroke:none" d="M 2.1875 0 L 1.234375 0 L 0.0625 -3.171875 L 0.890625 -3.171875 L 1.6875 -0.90625 L 1.75 -0.90625 L 2.546875 -3.171875 L 3.359375 -3.171875 Z M 2.1875 0 "/></g></g><g style="fill:#808080;fill-opacity:1;"><g transform="translate(18.317469, 13.820359)"><path style="stroke:none" d="M 1.234375 0.0625 C 1.035156 0.0625 0.859375 0.0234375 0.703125 -0.046875 C 0.554688 -0.117188 0.441406 -0.226562 0.359375 -0.375 C 0.273438 -0.519531 0.234375 -0.695312 0.234375 -0.90625 C 0.234375 -1.09375 0.273438 -1.25 0.359375 -1.375 C 0.441406 -1.5 0.566406 -1.601562 0.734375 -1.6875 C 0.898438 -1.769531 1.117188 -1.832031 1.390625 -1.875 C 1.585938 -1.90625 1.734375 -1.9375 1.828125 -1.96875 C 1.929688 -2.007812 2 -2.050781 2.03125 -2.09375 C 2.0625 -2.144531 2.078125 -2.207031 2.078125 -2.28125 C 2.078125 -2.382812 2.039062 -2.460938 1.96875 -2.515625 C 1.90625 -2.566406 1.789062 -2.59375 1.625 -2.59375 C 1.445312 -2.59375 1.273438 -2.550781 1.109375 -2.46875 C 0.953125 -2.394531 0.816406 -2.289062 0.703125 -2.15625 L 0.640625 -2.15625 L 0.3125 -2.671875 C 0.476562 -2.847656 0.675781 -2.984375 0.90625 -3.078125 C 1.132812 -3.179688 1.382812 -3.234375 1.65625 -3.234375 C 2.082031 -3.234375 2.390625 -3.144531 2.578125 -2.96875 C 2.765625 -2.789062 2.859375 -2.535156 2.859375 -2.203125 L 2.859375 -0.828125 C 2.859375 -0.679688 2.921875 -0.609375 3.046875 -0.609375 C 3.085938 -0.609375 3.132812 -0.617188 3.1875 -0.640625 L 3.21875 -0.625 L 3.28125 -0.078125 C 3.238281 -0.046875 3.175781 -0.0195312 3.09375 0 C 3.019531 0.0078125 2.9375 0.015625 2.84375 0.015625 C 2.644531 0.015625 2.492188 -0.0195312 2.390625 -0.09375 C 2.285156 -0.164062 2.210938 -0.273438 2.171875 -0.421875 L 2.109375 -0.4375 C 1.953125 -0.101562 1.660156 0.0625 1.234375 0.0625 Z M 1.484375 -0.53125 C 1.671875 -0.53125 1.816406 -0.59375 1.921875 -0.71875 C 2.035156 -0.84375 2.09375 -1.015625 2.09375 -1.234375 L 2.09375 -1.5625 L 2.046875 -1.578125 C 1.992188 -1.535156 1.925781 -1.5 1.84375 -1.46875 C 1.769531 -1.445312 1.660156 -1.421875 1.515625 -1.390625 C 1.347656 -1.367188 1.222656 -1.320312 1.140625 -1.25 C 1.066406 -1.175781 1.03125 -1.078125 1.03125 -0.953125 C 1.03125 -0.816406 1.070312 -0.710938 1.15625 -0.640625 C 1.238281 -0.566406 1.347656 -0.53125 1.484375 -0.53125 Z M 1.484375 -0.53125 "/></g></g><g style="fill:#808080;fill-opacity:1;"><g transform="translate(21.660573, 13.820359)"><path style="stroke:none" d="M 1.3125 0.0625 C 1.03125 0.0625 0.8125 -0.015625 0.65625 -0.171875 C 0.507812 -0.328125 0.4375 -0.5625 0.4375 -0.875 L 0.4375 -4.453125 L 1.234375 -4.453125 L 1.234375 -0.90625 C 1.234375 -0.707031 1.3125 -0.609375 1.46875 -0.609375 C 1.519531 -0.609375 1.570312 -0.617188 1.625 -0.640625 L 1.65625 -0.625 L 1.734375 -0.015625 C 1.691406 0.00390625 1.632812 0.0195312 1.5625 0.03125 C 1.488281 0.0507812 1.40625 0.0625 1.3125 0.0625 Z M 1.3125 0.0625 "/></g></g><g style="fill:#808080;fill-opacity:1;"><g transform="translate(23.48304, 13.820359)"><path style="stroke:none" d="M 1.453125 0.0625 C 1.097656 0.0625 0.832031 -0.0351562 0.65625 -0.234375 C 0.488281 -0.429688 0.40625 -0.707031 0.40625 -1.0625 L 0.40625 -3.171875 L 1.203125 -3.171875 L 1.203125 -1.171875 C 1.203125 -0.972656 1.242188 -0.828125 1.328125 -0.734375 C 1.410156 -0.648438 1.539062 -0.609375 1.71875 -0.609375 C 1.9375 -0.609375 2.109375 -0.679688 2.234375 -0.828125 C 2.359375 -0.972656 2.421875 -1.203125 2.421875 -1.515625 L 2.421875 -3.171875 L 3.21875 -3.171875 L 3.21875 0 L 2.453125 0 L 2.453125 -0.46875 L 2.390625 -0.484375 C 2.285156 -0.296875 2.160156 -0.15625 2.015625 -0.0625 C 1.867188 0.0195312 1.679688 0.0625 1.453125 0.0625 Z M 1.453125 0.0625 "/></g></g><g style="fill:#808080;fill-opacity:1;"><g transform="translate(27.150969, 13.820359)"><path style="stroke:none" d="M 3.140625 -1.40625 L 1.09375 -1.40625 C 1.113281 -1.132812 1.191406 -0.929688 1.328125 -0.796875 C 1.460938 -0.671875 1.644531 -0.609375 1.875 -0.609375 C 2.0625 -0.609375 2.210938 -0.640625 2.328125 -0.703125 C 2.441406 -0.773438 2.53125 -0.882812 2.59375 -1.03125 L 2.65625 -1.03125 L 3.1875 -0.6875 C 3.082031 -0.46875 2.925781 -0.285156 2.71875 -0.140625 C 2.507812 -0.00390625 2.226562 0.0625 1.875 0.0625 C 1.550781 0.0625 1.269531 0 1.03125 -0.125 C 0.789062 -0.25 0.601562 -0.429688 0.46875 -0.671875 C 0.34375 -0.921875 0.28125 -1.222656 0.28125 -1.578125 C 0.28125 -1.941406 0.347656 -2.25 0.484375 -2.5 C 0.617188 -2.75 0.800781 -2.929688 1.03125 -3.046875 C 1.269531 -3.171875 1.535156 -3.234375 1.828125 -3.234375 C 2.273438 -3.234375 2.617188 -3.113281 2.859375 -2.875 C 3.097656 -2.632812 3.21875 -2.285156 3.21875 -1.828125 C 3.21875 -1.660156 3.210938 -1.53125 3.203125 -1.4375 Z M 2.453125 -1.921875 C 2.441406 -2.160156 2.382812 -2.332031 2.28125 -2.4375 C 2.175781 -2.550781 2.023438 -2.609375 1.828125 -2.609375 C 1.421875 -2.609375 1.179688 -2.378906 1.109375 -1.921875 Z M 2.453125 -1.921875 "/></g></g><g style="fill:#808080;fill-opacity:1;"><g transform="translate(15.070442, 26.541868)"><path style="stroke:none" d="M 0.453125 0 L 0.453125 -3.171875 L 1.21875 -3.171875 L 1.21875 -2.703125 L 1.28125 -2.6875 C 1.476562 -3.050781 1.800781 -3.234375 2.25 -3.234375 C 2.613281 -3.234375 2.878906 -3.132812 3.046875 -2.9375 C 3.222656 -2.738281 3.3125 -2.445312 3.3125 -2.0625 L 3.3125 0 L 2.515625 0 L 2.515625 -1.96875 C 2.515625 -2.175781 2.472656 -2.328125 2.390625 -2.421875 C 2.304688 -2.515625 2.171875 -2.5625 1.984375 -2.5625 C 1.753906 -2.5625 1.570312 -2.484375 1.4375 -2.328125 C 1.3125 -2.179688 1.25 -1.953125 1.25 -1.640625 L 1.25 0 Z M 0.453125 0 "/></g></g><g style="fill:#808080;fill-opacity:1;"><g transform="translate(18.784364, 26.541868)"><path style="stroke:none" d="M 1.234375 0.0625 C 1.035156 0.0625 0.859375 0.0234375 0.703125 -0.046875 C 0.554688 -0.117188 0.441406 -0.226562 0.359375 -0.375 C 0.273438 -0.519531 0.234375 -0.695312 0.234375 -0.90625 C 0.234375 -1.09375 0.273438 -1.25 0.359375 -1.375 C 0.441406 -1.5 0.566406 -1.601562 0.734375 -1.6875 C 0.898438 -1.769531 1.117188 -1.832031 1.390625 -1.875 C 1.585938 -1.90625 1.734375 -1.9375 1.828125 -1.96875 C 1.929688 -2.007812 2 -2.050781 2.03125 -2.09375 C 2.0625 -2.144531 2.078125 -2.207031 2.078125 -2.28125 C 2.078125 -2.382812 2.039062 -2.460938 1.96875 -2.515625 C 1.90625 -2.566406 1.789062 -2.59375 1.625 -2.59375 C 1.445312 -2.59375 1.273438 -2.550781 1.109375 -2.46875 C 0.953125 -2.394531 0.816406 -2.289062 0.703125 -2.15625 L 0.640625 -2.15625 L 0.3125 -2.671875 C 0.476562 -2.847656 0.675781 -2.984375 0.90625 -3.078125 C 1.132812 -3.179688 1.382812 -3.234375 1.65625 -3.234375 C 2.082031 -3.234375 2.390625 -3.144531 2.578125 -2.96875 C 2.765625 -2.789062 2.859375 -2.535156 2.859375 -2.203125 L 2.859375 -0.828125 C 2.859375 -0.679688 2.921875 -0.609375 3.046875 -0.609375 C 3.085938 -0.609375 3.132812 -0.617188 3.1875 -0.640625 L 3.21875 -0.625 L 3.28125 -0.078125 C 3.238281 -0.046875 3.175781 -0.0195312 3.09375 0 C 3.019531 0.0078125 2.9375 0.015625 2.84375 0.015625 C 2.644531 0.015625 2.492188 -0.0195312 2.390625 -0.09375 C 2.285156 -0.164062 2.210938 -0.273438 2.171875 -0.421875 L 2.109375 -0.4375 C 1.953125 -0.101562 1.660156 0.0625 1.234375 0.0625 Z M 1.484375 -0.53125 C 1.671875 -0.53125 1.816406 -0.59375 1.921875 -0.71875 C 2.035156 -0.84375 2.09375 -1.015625 2.09375 -1.234375 L 2.09375 -1.5625 L 2.046875 -1.578125 C 1.992188 -1.535156 1.925781 -1.5 1.84375 -1.46875 C 1.769531 -1.445312 1.660156 -1.421875 1.515625 -1.390625 C 1.347656 -1.367188 1.222656 -1.320312 1.140625 -1.25 C 1.066406 -1.175781 1.03125 -1.078125 1.03125 -0.953125 C 1.03125 -0.816406 1.070312 -0.710938 1.15625 -0.640625 C 1.238281 -0.566406 1.347656 -0.53125 1.484375 -0.53125 Z M 1.484375 -0.53125 "/></g></g><g style="fill:#808080;fill-opacity:1;"><g transform="translate(22.127469, 26.541868)"><path style="stroke:none" d="M 0.453125 0 L 0.453125 -3.171875 L 1.21875 -3.171875 L 1.21875 -2.75 L 1.28125 -2.734375 C 1.382812 -2.898438 1.503906 -3.023438 1.640625 -3.109375 C 1.785156 -3.191406 1.96875 -3.234375 2.1875 -3.234375 C 2.425781 -3.234375 2.617188 -3.1875 2.765625 -3.09375 C 2.910156 -3 3.015625 -2.859375 3.078125 -2.671875 L 3.140625 -2.671875 C 3.234375 -2.859375 3.359375 -3 3.515625 -3.09375 C 3.671875 -3.1875 3.863281 -3.234375 4.09375 -3.234375 C 4.75 -3.234375 5.078125 -2.867188 5.078125 -2.140625 L 5.078125 0 L 4.28125 0 L 4.28125 -2.03125 C 4.28125 -2.21875 4.242188 -2.351562 4.171875 -2.4375 C 4.097656 -2.519531 3.984375 -2.5625 3.828125 -2.5625 C 3.390625 -2.5625 3.171875 -2.269531 3.171875 -1.6875 L 3.171875 0 L 2.375 0 L 2.375 -2.03125 C 2.375 -2.21875 2.335938 -2.351562 2.265625 -2.4375 C 2.191406 -2.519531 2.070312 -2.5625 1.90625 -2.5625 C 1.695312 -2.5625 1.535156 -2.492188 1.421875 -2.359375 C 1.304688 -2.222656 1.25 -2.003906 1.25 -1.703125 L 1.25 0 Z M 0.453125 0 "/></g></g><g style="fill:#808080;fill-opacity:1;"><g transform="translate(27.612115, 26.541868)"><path style="stroke:none" d="M 3.140625 -1.40625 L 1.09375 -1.40625 C 1.113281 -1.132812 1.191406 -0.929688 1.328125 -0.796875 C 1.460938 -0.671875 1.644531 -0.609375 1.875 -0.609375 C 2.0625 -0.609375 2.210938 -0.640625 2.328125 -0.703125 C 2.441406 -0.773438 2.53125 -0.882812 2.59375 -1.03125 L 2.65625 -1.03125 L 3.1875 -0.6875 C 3.082031 -0.46875 2.925781 -0.285156 2.71875 -0.140625 C 2.507812 -0.00390625 2.226562 0.0625 1.875 0.0625 C 1.550781 0.0625 1.269531 0 1.03125 -0.125 C 0.789062 -0.25 0.601562 -0.429688 0.46875 -0.671875 C 0.34375 -0.921875 0.28125 -1.222656 0.28125 -1.578125 C 0.28125 -1.941406 0.347656 -2.25 0.484375 -2.5 C 0.617188 -2.75 0.800781 -2.929688 1.03125 -3.046875 C 1.269531 -3.171875 1.535156 -3.234375 1.828125 -3.234375 C 2.273438 -3.234375 2.617188 -3.113281 2.859375 -2.875 C 3.097656 -2.632812 3.21875 -2.285156 3.21875 -1.828125 C 3.21875 -1.660156 3.210938 -1.53125 3.203125 -1.4375 Z M 2.453125 -1.921875 C 2.441406 -2.160156 2.382812 -2.332031 2.28125 -2.4375 C 2.175781 -2.550781 2.023438 -2.609375 1.828125 -2.609375 C 1.421875 -2.609375 1.179688 -2.378906 1.109375 -1.921875 Z M 2.453125 -1.921875 "/></g></g><g clip-rule="nonzero" clip-path="url(#7097afdb70)"><g clip-rule="nonzero" clip-path="url(#23d89ac405)"><g clip-rule="nonzero" clip-path="url(#0052edb250)"><path style=" stroke:none;fill-rule:nonzero;fill:#55d549;fill-opacity:1;" d="M 15.046875 4.550781 C 15.570312 4.027344 16.136719 3.5625 16.753906 3.152344 C 17.367188 2.738281 18.015625 2.394531 18.699219 2.109375 C 19.378906 1.828125 20.085938 1.613281 20.808594 1.46875 C 21.535156 1.324219 22.265625 1.253906 23.003906 1.253906 C 23.742188 1.253906 24.476562 1.324219 25.199219 1.46875 C 25.925781 1.613281 26.628906 1.828125 27.3125 2.109375 C 27.992188 2.394531 28.644531 2.738281 29.257812 3.152344 C 29.871094 3.5625 30.441406 4.027344 30.960938 4.550781 C 31.484375 5.074219 31.953125 5.640625 32.363281 6.253906 C 32.773438 6.871094 33.117188 7.519531 33.402344 8.203125 C 33.683594 8.882812 33.898438 9.585938 34.042969 10.3125 C 34.1875 11.035156 34.257812 11.769531 34.257812 12.507812 C 34.257812 13.246094 34.1875 13.980469 34.042969 14.703125 C 33.898438 15.429688 33.683594 16.132812 33.402344 16.8125 C 33.117188 17.496094 32.773438 18.144531 32.363281 18.761719 C 31.953125 19.375 31.484375 19.941406 30.960938 20.464844 C 30.816406 20.613281 30.640625 20.683594 30.433594 20.683594 C 30.226562 20.683594 30.050781 20.613281 29.90625 20.464844 C 29.757812 20.320312 29.683594 20.144531 29.683594 19.9375 C 29.683594 19.730469 29.757812 19.554688 29.90625 19.40625 C 30.355469 18.953125 30.761719 18.460938 31.117188 17.929688 C 31.472656 17.394531 31.773438 16.832031 32.019531 16.242188 C 32.265625 15.648438 32.449219 15.039062 32.574219 14.410156 C 32.699219 13.78125 32.761719 13.148438 32.761719 12.507812 C 32.761719 11.867188 32.699219 11.234375 32.574219 10.605469 C 32.449219 9.976562 32.265625 9.367188 32.019531 8.773438 C 31.773438 8.183594 31.472656 7.621094 31.117188 7.085938 C 30.761719 6.554688 30.355469 6.0625 29.90625 5.609375 C 29.453125 5.15625 28.957031 4.75 28.425781 4.394531 C 27.894531 4.039062 27.332031 3.738281 26.738281 3.492188 C 26.148438 3.246094 25.535156 3.0625 24.910156 2.9375 C 24.28125 2.8125 23.644531 2.75 23.003906 2.75 C 22.363281 2.75 21.730469 2.8125 21.101562 2.9375 C 20.472656 3.0625 19.863281 3.246094 19.269531 3.492188 C 18.679688 3.738281 18.117188 4.039062 17.582031 4.394531 C 17.050781 4.75 16.558594 5.15625 16.105469 5.609375 C 15.652344 6.0625 15.246094 6.554688 14.890625 7.085938 C 14.535156 7.621094 14.234375 8.183594 13.988281 8.773438 C 13.746094 9.367188 13.558594 9.976562 13.433594 10.605469 C 13.308594 11.234375 13.246094 11.867188 13.246094 12.507812 C 13.246094 13.148438 13.308594 13.78125 13.433594 14.410156 C 13.558594 15.039062 13.746094 15.648438 13.988281 16.242188 C 14.234375 16.832031 14.535156 17.394531 14.890625 17.929688 C 15.246094 18.460938 15.652344 18.953125 16.105469 19.40625 C 16.25 19.554688 16.324219 19.730469 16.324219 19.9375 C 16.324219 20.144531 16.25 20.320312 16.105469 20.464844 C 15.960938 20.613281 15.78125 20.683594 15.578125 20.683594 C 15.371094 20.683594 15.191406 20.613281 15.046875 20.464844 C 14.527344 19.941406 14.058594 19.375 13.648438 18.757812 C 13.238281 18.144531 12.894531 17.496094 12.613281 16.8125 C 12.328125 16.128906 12.117188 15.425781 11.972656 14.703125 C 11.828125 13.976562 11.757812 13.246094 11.757812 12.507812 C 11.757812 11.769531 11.828125 11.039062 11.972656 10.3125 C 12.117188 9.589844 12.328125 8.886719 12.613281 8.203125 C 12.894531 7.519531 13.238281 6.871094 13.648438 6.257812 C 14.058594 5.640625 14.527344 5.074219 15.046875 4.550781 Z M 15.046875 4.550781 "/></g></g></g></g></svg>