<svg xmlns="http://www.w3.org/2000/svg" xmlns:xlink="http://www.w3.org/1999/xlink" width="275" zoomAndPan="magnify" viewBox="0 0 206.25 187.499992" height="250" preserveAspectRatio="xMidYMid meet" version="1.0"><defs><g/><clipPath id="f3faa9f454"><path d="M 6.664062 6.203125 L 198.839844 6.203125 L 198.839844 145.292969 L 6.664062 145.292969 Z M 6.664062 6.203125 " clip-rule="nonzero"/></clipPath><clipPath id="8d0fc21056"><path d="M 74.125 105.613281 L 131.378906 105.613281 L 131.378906 116.105469 L 74.125 116.105469 Z M 74.125 105.613281 " clip-rule="nonzero"/></clipPath><clipPath id="e34bbdc531"><path d="M 102.75 105.613281 C 86.941406 105.613281 74.125 107.960938 74.125 110.859375 C 74.125 113.753906 86.941406 116.105469 102.75 116.105469 C 118.5625 116.105469 131.378906 113.753906 131.378906 110.859375 C 131.378906 107.960938 118.5625 105.613281 102.75 105.613281 Z M 102.75 105.613281 " clip-rule="nonzero"/></clipPath><clipPath id="86560dd297"><path d="M 79.609375 39.195312 L 125.894531 39.195312 L 125.894531 85.480469 L 79.609375 85.480469 Z M 79.609375 39.195312 " clip-rule="nonzero"/></clipPath><clipPath id="da606be67b"><path d="M 102.75 39.195312 C 89.972656 39.195312 79.609375 49.558594 79.609375 62.335938 C 79.609375 75.117188 89.972656 85.480469 102.75 85.480469 C 115.53125 85.480469 125.894531 75.117188 125.894531 62.335938 C 125.894531 49.558594 115.53125 39.195312 102.75 39.195312 Z M 102.75 39.195312 " clip-rule="nonzero"/></clipPath><clipPath id="53cc349ceb"><path d="M 75.765625 35.390625 L 129.453125 35.390625 L 129.453125 109.445312 L 75.765625 109.445312 Z M 75.765625 35.390625 " clip-rule="nonzero"/></clipPath><clipPath id="b30be44285"><path d="M 18.683594 151.675781 L 186.820312 151.675781 L 186.820312 179.699219 L 18.683594 179.699219 Z M 18.683594 151.675781 " clip-rule="nonzero"/></clipPath></defs><g clip-path="url(#f3faa9f454)"><path fill="#ececec" d="M 6.664062 6.203125 L 198.839844 6.203125 L 198.839844 145.292969 L 6.664062 145.292969 Z M 6.664062 6.203125 " fill-opacity="1" fill-rule="nonzero"/></g><g clip-path="url(#8d0fc21056)"><g clip-path="url(#e34bbdc531)"><path fill="#625e5e" d="M 74.125 105.613281 L 131.378906 105.613281 L 131.378906 116.105469 L 74.125 116.105469 Z M 74.125 105.613281 " fill-opacity="1" fill-rule="nonzero"/></g></g><g clip-path="url(#86560dd297)"><g clip-path="url(#da606be67b)"><path fill="#000000" d="M 79.609375 39.195312 L 125.894531 39.195312 L 125.894531 85.480469 L 79.609375 85.480469 Z M 79.609375 39.195312 " fill-opacity="1" fill-rule="nonzero"/></g></g><g clip-path="url(#53cc349ceb)"><path fill="#423e3e" d="M 102.710938 35.390625 C 87.890625 35.390625 75.878906 47.847656 75.878906 63.214844 C 75.878906 78.582031 85.625 79.695312 102.710938 109.234375 C 119.746094 79.695312 129.546875 78.589844 129.546875 63.214844 C 129.546875 47.84375 117.53125 35.390625 102.710938 35.390625 Z M 102.710938 73.730469 C 102.035156 73.71875 101.363281 73.636719 100.703125 73.492188 C 100.039062 73.347656 99.398438 73.140625 98.777344 72.871094 C 98.15625 72.597656 97.566406 72.269531 97.007812 71.882812 C 96.453125 71.496094 95.9375 71.058594 95.46875 70.570312 C 94.996094 70.082031 94.578125 69.550781 94.210938 68.980469 C 93.847656 68.410156 93.539062 67.8125 93.289062 67.179688 C 93.042969 66.550781 92.859375 65.898438 92.738281 65.234375 C 92.617188 64.566406 92.5625 63.894531 92.574219 63.214844 C 92.5625 62.539062 92.617188 61.867188 92.738281 61.199219 C 92.859375 60.53125 93.042969 59.882812 93.292969 59.253906 C 93.539062 58.621094 93.847656 58.023438 94.214844 57.453125 C 94.582031 56.882812 95 56.351562 95.46875 55.867188 C 95.941406 55.378906 96.453125 54.941406 97.011719 54.554688 C 97.566406 54.167969 98.15625 53.839844 98.777344 53.566406 C 99.398438 53.296875 100.039062 53.089844 100.703125 52.945312 C 101.363281 52.800781 102.035156 52.722656 102.710938 52.707031 C 103.390625 52.722656 104.058594 52.800781 104.722656 52.945312 C 105.382812 53.089844 106.023438 53.296875 106.644531 53.566406 C 107.265625 53.839844 107.855469 54.167969 108.414062 54.554688 C 108.96875 54.941406 109.484375 55.378906 109.953125 55.867188 C 110.425781 56.351562 110.84375 56.882812 111.210938 57.453125 C 111.574219 58.023438 111.882812 58.621094 112.132812 59.253906 C 112.378906 59.882812 112.566406 60.53125 112.6875 61.199219 C 112.808594 61.867188 112.863281 62.539062 112.851562 63.214844 C 112.863281 63.894531 112.808594 64.566406 112.6875 65.234375 C 112.566406 65.898438 112.382812 66.550781 112.132812 67.179688 C 111.886719 67.8125 111.578125 68.410156 111.210938 68.980469 C 110.84375 69.550781 110.425781 70.082031 109.957031 70.570312 C 109.484375 71.058594 108.972656 71.496094 108.414062 71.882812 C 107.859375 72.269531 107.269531 72.597656 106.648438 72.871094 C 106.027344 73.140625 105.382812 73.347656 104.722656 73.492188 C 104.058594 73.636719 103.390625 73.71875 102.710938 73.730469 Z M 102.710938 73.730469 " fill-opacity="1" fill-rule="nonzero"/></g><g clip-path="url(#b30be44285)"><path fill="#ffffff" d="M 18.683594 151.675781 L 186.820312 151.675781 L 186.820312 179.699219 L 18.683594 179.699219 Z M 18.683594 151.675781 " fill-opacity="1" fill-rule="nonzero"/></g><g fill="#423e3e" fill-opacity="1"><g transform="translate(25.658648, 172.787288)"><g><path d="M 4.144531 -7.808594 C 4.144531 -10.636719 6.316406 -12.789062 8.945312 -12.789062 C 11.457031 -12.789062 12.671875 -11.214844 13.128906 -10.039062 L 15.976562 -11.433594 C 15.28125 -13.386719 12.96875 -15.839844 8.984375 -15.839844 C 4.542969 -15.839844 0.855469 -12.332031 0.855469 -7.789062 C 0.855469 -3.347656 4.125 0.238281 8.945312 0.238281 C 12.75 0.238281 16.335938 -2.3125 16.335938 -7.171875 L 16.335938 -8.386719 L 8.226562 -8.386719 L 8.226562 -5.457031 L 12.96875 -5.457031 C 12.589844 -3.925781 11.058594 -2.828125 8.945312 -2.828125 C 6.117188 -2.828125 4.144531 -5.101562 4.144531 -7.808594 Z M 4.144531 -7.808594 "/></g></g></g><g fill="#423e3e" fill-opacity="1"><g transform="translate(42.729807, 172.787288)"><g><path d="M 1.8125 -15.597656 L 1.8125 0 L 12.074219 0 L 12.074219 -3.007812 L 5 -3.007812 L 5 -6.375 L 11.296875 -6.375 L 11.296875 -9.402344 L 5 -9.402344 L 5 -12.570312 L 12.035156 -12.570312 L 12.035156 -15.597656 Z M 1.8125 -15.597656 "/></g></g></g><g fill="#423e3e" fill-opacity="1"><g transform="translate(55.936558, 172.787288)"><g><path d="M 5 -10.757812 L 12.171875 0 L 15.460938 0 L 15.460938 -15.597656 L 12.273438 -15.597656 L 12.273438 -5.417969 L 5.5 -15.597656 L 1.8125 -15.597656 L 1.8125 0 L 5 0 Z M 5 -10.757812 "/></g></g></g><g fill="#423e3e" fill-opacity="1"><g transform="translate(73.22684, 172.787288)"><g><path d="M 1.8125 -15.597656 L 1.8125 0 L 12.074219 0 L 12.074219 -3.007812 L 5 -3.007812 L 5 -6.375 L 11.296875 -6.375 L 11.296875 -9.402344 L 5 -9.402344 L 5 -12.570312 L 12.035156 -12.570312 L 12.035156 -15.597656 Z M 1.8125 -15.597656 "/></g></g></g><g fill="#423e3e" fill-opacity="1"><g transform="translate(86.433592, 172.787288)"><g><path d="M 13.804688 0 L 10.28125 -6.097656 C 12.390625 -6.851562 13.488281 -8.425781 13.488281 -10.660156 C 13.488281 -13.964844 10.996094 -15.597656 7.96875 -15.597656 L 1.8125 -15.597656 L 1.8125 0 L 5.039062 0 L 5.039062 -5.597656 L 6.992188 -5.597656 L 10.21875 0 Z M 7.730469 -8.585938 L 5.039062 -8.585938 L 5.039062 -12.550781 L 7.710938 -12.550781 C 8.925781 -12.550781 10.21875 -12.09375 10.21875 -10.597656 C 10.21875 -9.125 8.925781 -8.585938 7.730469 -8.585938 Z M 7.730469 -8.585938 "/></g></g></g><g fill="#423e3e" fill-opacity="1"><g transform="translate(100.994872, 172.787288)"><g><path d="M 5.039062 -15.597656 L 1.8125 -15.597656 L 1.8125 0 L 5.039062 0 Z M 5.039062 -15.597656 "/></g></g></g><g fill="#423e3e" fill-opacity="1"><g transform="translate(107.867155, 172.787288)"><g><path d="M 0.855469 -7.789062 C 0.855469 -3.246094 4.34375 0.21875 8.886719 0.21875 C 11.953125 0.21875 15 -1.472656 16.078125 -4.421875 L 13.109375 -5.796875 C 12.433594 -4.105469 10.878906 -2.910156 8.925781 -2.910156 C 6.15625 -2.910156 4.203125 -5.121094 4.203125 -7.828125 C 4.203125 -10.5 6.214844 -12.691406 8.925781 -12.691406 C 10.878906 -12.691406 12.410156 -11.59375 13.070312 -9.882812 L 16.019531 -11.234375 C 14.960938 -14.164062 12.011719 -15.839844 8.945312 -15.839844 C 4.484375 -15.839844 0.855469 -12.292969 0.855469 -7.789062 Z M 0.855469 -7.789062 "/></g></g></g><g fill="#423e3e" fill-opacity="1"><g transform="translate(124.440326, 172.787288)"><g/></g></g><g fill="#423e3e" fill-opacity="1"><g transform="translate(129.440162, 172.787288)"><g><path d="M 15.820312 -10.300781 L 15.839844 -10.300781 L 15.839844 0 L 19.027344 0 L 19.027344 -15.597656 L 14.742188 -15.597656 L 10.398438 -5.140625 L 5.976562 -15.597656 L 1.8125 -15.597656 L 1.8125 0 L 4.980469 0 L 4.980469 -10.21875 L 5 -10.21875 L 9.324219 0 L 11.476562 0 Z M 15.820312 -10.300781 "/></g></g></g><g fill="#423e3e" fill-opacity="1"><g transform="translate(150.276148, 172.787288)"><g><path d="M 3.226562 0 L 4.382812 -3.148438 L 11.296875 -3.148438 L 12.472656 0 L 15.796875 0 L 9.820312 -15.597656 L 5.9375 -15.597656 L -0.0195312 0 Z M 7.847656 -12.472656 L 10.199219 -6.136719 L 5.5 -6.136719 Z M 7.847656 -12.472656 "/></g></g></g><g fill="#423e3e" fill-opacity="1"><g transform="translate(166.052538, 172.787288)"><g><path d="M 13.1875 -10.597656 C 13.1875 -13.90625 10.738281 -15.597656 7.609375 -15.597656 L 1.8125 -15.597656 L 1.8125 0 L 5.039062 0 L 5.039062 -5.5 L 7.492188 -5.5 C 10.757812 -5.5 13.1875 -7.152344 13.1875 -10.597656 Z M 9.941406 -10.519531 C 9.941406 -9.066406 8.625 -8.507812 7.351562 -8.507812 L 5.039062 -8.507812 L 5.039062 -12.550781 L 7.332031 -12.550781 C 8.667969 -12.550781 9.941406 -12.035156 9.941406 -10.519531 Z M 9.941406 -10.519531 "/></g></g></g></svg>