<svg xmlns="http://www.w3.org/2000/svg" xmlns:xlink="http://www.w3.org/1999/xlink" width="61" zoomAndPan="magnify" viewBox="0 0 45.75 30.000001" height="40" preserveAspectRatio="xMidYMid meet" version="1.2"><defs><clipPath id="e3a2b4ebf3"><path d="M 0.617188 0 L 44.890625 0 L 44.890625 29.03125 L 0.617188 29.03125 Z M 0.617188 0 "/></clipPath><clipPath id="03990d0c81"><path d="M 13.011719 24.679688 L 32.511719 24.679688 L 32.511719 28.25 L 13.011719 28.25 Z M 13.011719 24.679688 "/></clipPath><clipPath id="b7e2b8f33c"><path d="M 22.753906 24.679688 C 17.371094 24.679688 13.011719 25.480469 13.011719 26.464844 C 13.011719 27.453125 17.371094 28.25 22.753906 28.25 C 28.136719 28.25 32.496094 27.453125 32.496094 26.464844 C 32.496094 25.480469 28.136719 24.679688 22.753906 24.679688 Z M 22.753906 24.679688 "/></clipPath><clipPath id="cca35b0e26"><path d="M 14.878906 2.074219 L 30.628906 2.074219 L 30.628906 17.828125 L 14.878906 17.828125 Z M 14.878906 2.074219 "/></clipPath><clipPath id="92933a9603"><path d="M 22.753906 2.074219 C 18.402344 2.074219 14.878906 5.601562 14.878906 9.953125 C 14.878906 14.300781 18.402344 17.828125 22.753906 17.828125 C 27.105469 17.828125 30.628906 14.300781 30.628906 9.953125 C 30.628906 5.601562 27.105469 2.074219 22.753906 2.074219 Z M 22.753906 2.074219 "/></clipPath><clipPath id="b7e79320c3"><path d="M 13.570312 0.78125 L 31.84375 0.78125 L 31.84375 25.984375 L 13.570312 25.984375 Z M 13.570312 0.78125 "/></clipPath></defs><g id="df15a33d2f"><g clip-rule="nonzero" clip-path="url(#e3a2b4ebf3)"><path style=" stroke:none;fill-rule:nonzero;fill:#ffffff;fill-opacity:1;" d="M 0.617188 0 L 44.890625 0 L 44.890625 29.03125 L 0.617188 29.03125 Z M 0.617188 0 "/><path style=" stroke:none;fill-rule:nonzero;fill:#ffffff;fill-opacity:1;" d="M 0.617188 0 L 44.890625 0 L 44.890625 29.03125 L 0.617188 29.03125 Z M 0.617188 0 "/></g><g clip-rule="nonzero" clip-path="url(#03990d0c81)"><g clip-rule="nonzero" clip-path="url(#b7e2b8f33c)"><path style=" stroke:none;fill-rule:nonzero;fill:#625e5e;fill-opacity:1;" d="M 13.011719 24.679688 L 32.496094 24.679688 L 32.496094 28.25 L 13.011719 28.25 Z M 13.011719 24.679688 "/></g></g><g clip-rule="nonzero" clip-path="url(#cca35b0e26)"><g clip-rule="nonzero" clip-path="url(#92933a9603)"><path style=" stroke:none;fill-rule:nonzero;fill:#000000;fill-opacity:1;" d="M 14.878906 2.074219 L 30.628906 2.074219 L 30.628906 17.828125 L 14.878906 17.828125 Z M 14.878906 2.074219 "/></g></g><g clip-rule="nonzero" clip-path="url(#b7e79320c3)"><path style=" stroke:none;fill-rule:nonzero;fill:#423e3e;fill-opacity:1;" d="M 22.691406 0.78125 C 17.675781 0.78125 13.605469 5 13.605469 10.203125 C 13.605469 15.40625 16.90625 15.78125 22.691406 25.78125 C 28.460938 15.78125 31.777344 15.40625 31.777344 10.203125 C 31.777344 4.996094 27.710938 0.78125 22.691406 0.78125 Z M 22.691406 13.761719 C 22.230469 13.753906 21.785156 13.65625 21.359375 13.46875 C 20.933594 13.285156 20.5625 13.027344 20.242188 12.691406 C 19.917969 12.359375 19.671875 11.976562 19.503906 11.542969 C 19.332031 11.113281 19.253906 10.664062 19.261719 10.203125 C 19.253906 9.738281 19.332031 9.289062 19.503906 8.859375 C 19.671875 8.429688 19.917969 8.046875 20.242188 7.714844 C 20.5625 7.378906 20.9375 7.121094 21.359375 6.933594 C 21.785156 6.75 22.230469 6.652344 22.691406 6.644531 C 23.15625 6.652344 23.601562 6.75 24.023438 6.933594 C 24.449219 7.121094 24.824219 7.378906 25.144531 7.714844 C 25.464844 8.046875 25.710938 8.429688 25.882812 8.859375 C 26.050781 9.289062 26.132812 9.738281 26.125 10.203125 C 26.132812 10.664062 26.054688 11.113281 25.882812 11.542969 C 25.714844 11.976562 25.46875 12.359375 25.144531 12.691406 C 24.824219 13.027344 24.449219 13.285156 24.027344 13.46875 C 23.601562 13.65625 23.15625 13.753906 22.691406 13.761719 Z M 22.691406 13.761719 "/></g></g></svg>