<svg xmlns="http://www.w3.org/2000/svg" xmlns:xlink="http://www.w3.org/1999/xlink" width="275" zoomAndPan="magnify" viewBox="0 0 206.25 187.499992" height="250" preserveAspectRatio="xMidYMid meet" version="1.0"><defs><g/><clipPath id="2e19b59ca5"><path d="M 6.664062 6.203125 L 198.839844 6.203125 L 198.839844 145.292969 L 6.664062 145.292969 Z M 6.664062 6.203125 " clip-rule="nonzero"/></clipPath><clipPath id="261664d9c3"><path d="M 68.085938 112.335938 L 137.417969 112.335938 L 137.417969 125.039062 L 68.085938 125.039062 Z M 68.085938 112.335938 " clip-rule="nonzero"/></clipPath><clipPath id="69aae2ff1d"><path d="M 102.75 112.335938 C 83.605469 112.335938 68.085938 115.179688 68.085938 118.6875 C 68.085938 122.195312 83.605469 125.039062 102.75 125.039062 C 121.898438 125.039062 137.417969 122.195312 137.417969 118.6875 C 137.417969 115.179688 121.898438 112.335938 102.75 112.335938 Z M 102.75 112.335938 " clip-rule="nonzero"/></clipPath><clipPath id="79b10bf873"><path d="M 74.726562 31.90625 L 130.773438 31.90625 L 130.773438 87.953125 L 74.726562 87.953125 Z M 74.726562 31.90625 " clip-rule="nonzero"/></clipPath><clipPath id="35950276d6"><path d="M 102.75 31.90625 C 87.273438 31.90625 74.726562 44.453125 74.726562 59.929688 C 74.726562 75.40625 87.273438 87.953125 102.75 87.953125 C 118.226562 87.953125 130.773438 75.40625 130.773438 59.929688 C 130.773438 44.453125 118.226562 31.90625 102.75 31.90625 Z M 102.75 31.90625 " clip-rule="nonzero"/></clipPath><clipPath id="a96edee49e"><path d="M 70.074219 27.300781 L 135.085938 27.300781 L 135.085938 116.976562 L 70.074219 116.976562 Z M 70.074219 27.300781 " clip-rule="nonzero"/></clipPath><clipPath id="14ae842b68"><path d="M 18.683594 151.675781 L 186.820312 151.675781 L 186.820312 179.699219 L 18.683594 179.699219 Z M 18.683594 151.675781 " clip-rule="nonzero"/></clipPath></defs><g clip-path="url(#2e19b59ca5)"><path fill="#ececec" d="M 6.664062 6.203125 L 198.839844 6.203125 L 198.839844 145.292969 L 6.664062 145.292969 Z M 6.664062 6.203125 " fill-opacity="1" fill-rule="nonzero"/></g><g clip-path="url(#261664d9c3)"><g clip-path="url(#69aae2ff1d)"><path fill="#625e5e" d="M 68.085938 112.335938 L 137.417969 112.335938 L 137.417969 125.039062 L 68.085938 125.039062 Z M 68.085938 112.335938 " fill-opacity="1" fill-rule="nonzero"/></g></g><g clip-path="url(#79b10bf873)"><g clip-path="url(#35950276d6)"><path fill="#000000" d="M 74.726562 31.90625 L 130.773438 31.90625 L 130.773438 87.953125 L 74.726562 87.953125 Z M 74.726562 31.90625 " fill-opacity="1" fill-rule="nonzero"/></g></g><g clip-path="url(#a96edee49e)"><path fill="#423e3e" d="M 102.703125 27.300781 C 84.757812 27.300781 70.210938 42.386719 70.210938 60.992188 C 70.210938 79.601562 82.011719 80.953125 102.703125 116.71875 C 123.332031 80.953125 135.199219 79.609375 135.199219 60.992188 C 135.199219 42.378906 120.648438 27.300781 102.703125 27.300781 Z M 102.703125 73.726562 C 101.882812 73.710938 101.070312 73.617188 100.269531 73.441406 C 99.46875 73.265625 98.691406 73.011719 97.9375 72.683594 C 97.183594 72.355469 96.472656 71.957031 95.796875 71.488281 C 95.125 71.019531 94.5 70.492188 93.929688 69.898438 C 93.363281 69.308594 92.855469 68.667969 92.410156 67.976562 C 91.96875 67.285156 91.59375 66.558594 91.292969 65.792969 C 90.992188 65.03125 90.769531 64.246094 90.625 63.4375 C 90.476562 62.628906 90.414062 61.816406 90.425781 60.992188 C 90.414062 60.171875 90.480469 59.359375 90.625 58.550781 C 90.773438 57.746094 90.996094 56.957031 91.296875 56.195312 C 91.597656 55.433594 91.96875 54.707031 92.414062 54.015625 C 92.859375 53.324219 93.363281 52.683594 93.933594 52.09375 C 94.503906 51.503906 95.125 50.972656 95.800781 50.503906 C 96.472656 50.039062 97.1875 49.640625 97.941406 49.3125 C 98.691406 48.984375 99.46875 48.730469 100.269531 48.554688 C 101.070312 48.382812 101.882812 48.285156 102.703125 48.269531 C 103.523438 48.285156 104.335938 48.382812 105.136719 48.554688 C 105.9375 48.730469 106.714844 48.984375 107.46875 49.3125 C 108.21875 49.640625 108.933594 50.039062 109.605469 50.503906 C 110.28125 50.972656 110.902344 51.503906 111.472656 52.09375 C 112.042969 52.683594 112.550781 53.324219 112.992188 54.015625 C 113.4375 54.707031 113.808594 55.433594 114.109375 56.195312 C 114.410156 56.957031 114.636719 57.746094 114.78125 58.550781 C 114.929688 59.359375 114.996094 60.171875 114.980469 60.992188 C 114.996094 61.816406 114.929688 62.628906 114.78125 63.4375 C 114.636719 64.246094 114.414062 65.03125 114.113281 65.792969 C 113.8125 66.558594 113.441406 67.285156 112.996094 67.976562 C 112.550781 68.667969 112.046875 69.308594 111.476562 69.898438 C 110.90625 70.492188 110.285156 71.019531 109.609375 71.488281 C 108.9375 71.957031 108.222656 72.355469 107.46875 72.683594 C 106.71875 73.011719 105.941406 73.265625 105.136719 73.441406 C 104.335938 73.617188 103.523438 73.710938 102.703125 73.726562 Z M 102.703125 73.726562 " fill-opacity="1" fill-rule="nonzero"/></g><g clip-path="url(#14ae842b68)"><path fill="#ffffff" d="M 18.683594 151.675781 L 186.820312 151.675781 L 186.820312 179.699219 L 18.683594 179.699219 Z M 18.683594 151.675781 " fill-opacity="1" fill-rule="nonzero"/></g><g fill="#423e3e" fill-opacity="1"><g transform="translate(25.658648, 172.787288)"><g><path d="M 4.144531 -7.808594 C 4.144531 -10.636719 6.316406 -12.789062 8.945312 -12.789062 C 11.457031 -12.789062 12.671875 -11.214844 13.128906 -10.039062 L 15.976562 -11.433594 C 15.28125 -13.386719 12.96875 -15.839844 8.984375 -15.839844 C 4.542969 -15.839844 0.855469 -12.332031 0.855469 -7.789062 C 0.855469 -3.347656 4.125 0.238281 8.945312 0.238281 C 12.75 0.238281 16.335938 -2.3125 16.335938 -7.171875 L 16.335938 -8.386719 L 8.226562 -8.386719 L 8.226562 -5.457031 L 12.96875 -5.457031 C 12.589844 -3.925781 11.058594 -2.828125 8.945312 -2.828125 C 6.117188 -2.828125 4.144531 -5.101562 4.144531 -7.808594 Z M 4.144531 -7.808594 "/></g></g></g><g fill="#423e3e" fill-opacity="1"><g transform="translate(42.729807, 172.787288)"><g><path d="M 1.8125 -15.597656 L 1.8125 0 L 12.074219 0 L 12.074219 -3.007812 L 5 -3.007812 L 5 -6.375 L 11.296875 -6.375 L 11.296875 -9.402344 L 5 -9.402344 L 5 -12.570312 L 12.035156 -12.570312 L 12.035156 -15.597656 Z M 1.8125 -15.597656 "/></g></g></g><g fill="#423e3e" fill-opacity="1"><g transform="translate(55.936558, 172.787288)"><g><path d="M 5 -10.757812 L 12.171875 0 L 15.460938 0 L 15.460938 -15.597656 L 12.273438 -15.597656 L 12.273438 -5.417969 L 5.5 -15.597656 L 1.8125 -15.597656 L 1.8125 0 L 5 0 Z M 5 -10.757812 "/></g></g></g><g fill="#423e3e" fill-opacity="1"><g transform="translate(73.22684, 172.787288)"><g><path d="M 1.8125 -15.597656 L 1.8125 0 L 12.074219 0 L 12.074219 -3.007812 L 5 -3.007812 L 5 -6.375 L 11.296875 -6.375 L 11.296875 -9.402344 L 5 -9.402344 L 5 -12.570312 L 12.035156 -12.570312 L 12.035156 -15.597656 Z M 1.8125 -15.597656 "/></g></g></g><g fill="#423e3e" fill-opacity="1"><g transform="translate(86.433592, 172.787288)"><g><path d="M 13.804688 0 L 10.28125 -6.097656 C 12.390625 -6.851562 13.488281 -8.425781 13.488281 -10.660156 C 13.488281 -13.964844 10.996094 -15.597656 7.96875 -15.597656 L 1.8125 -15.597656 L 1.8125 0 L 5.039062 0 L 5.039062 -5.597656 L 6.992188 -5.597656 L 10.21875 0 Z M 7.730469 -8.585938 L 5.039062 -8.585938 L 5.039062 -12.550781 L 7.710938 -12.550781 C 8.925781 -12.550781 10.21875 -12.09375 10.21875 -10.597656 C 10.21875 -9.125 8.925781 -8.585938 7.730469 -8.585938 Z M 7.730469 -8.585938 "/></g></g></g><g fill="#423e3e" fill-opacity="1"><g transform="translate(100.994872, 172.787288)"><g><path d="M 5.039062 -15.597656 L 1.8125 -15.597656 L 1.8125 0 L 5.039062 0 Z M 5.039062 -15.597656 "/></g></g></g><g fill="#423e3e" fill-opacity="1"><g transform="translate(107.867155, 172.787288)"><g><path d="M 0.855469 -7.789062 C 0.855469 -3.246094 4.34375 0.21875 8.886719 0.21875 C 11.953125 0.21875 15 -1.472656 16.078125 -4.421875 L 13.109375 -5.796875 C 12.433594 -4.105469 10.878906 -2.910156 8.925781 -2.910156 C 6.15625 -2.910156 4.203125 -5.121094 4.203125 -7.828125 C 4.203125 -10.5 6.214844 -12.691406 8.925781 -12.691406 C 10.878906 -12.691406 12.410156 -11.59375 13.070312 -9.882812 L 16.019531 -11.234375 C 14.960938 -14.164062 12.011719 -15.839844 8.945312 -15.839844 C 4.484375 -15.839844 0.855469 -12.292969 0.855469 -7.789062 Z M 0.855469 -7.789062 "/></g></g></g><g fill="#423e3e" fill-opacity="1"><g transform="translate(124.440326, 172.787288)"><g/></g></g><g fill="#423e3e" fill-opacity="1"><g transform="translate(129.440162, 172.787288)"><g><path d="M 15.820312 -10.300781 L 15.839844 -10.300781 L 15.839844 0 L 19.027344 0 L 19.027344 -15.597656 L 14.742188 -15.597656 L 10.398438 -5.140625 L 5.976562 -15.597656 L 1.8125 -15.597656 L 1.8125 0 L 4.980469 0 L 4.980469 -10.21875 L 5 -10.21875 L 9.324219 0 L 11.476562 0 Z M 15.820312 -10.300781 "/></g></g></g><g fill="#423e3e" fill-opacity="1"><g transform="translate(150.276148, 172.787288)"><g><path d="M 3.226562 0 L 4.382812 -3.148438 L 11.296875 -3.148438 L 12.472656 0 L 15.796875 0 L 9.820312 -15.597656 L 5.9375 -15.597656 L -0.0195312 0 Z M 7.847656 -12.472656 L 10.199219 -6.136719 L 5.5 -6.136719 Z M 7.847656 -12.472656 "/></g></g></g><g fill="#423e3e" fill-opacity="1"><g transform="translate(166.052538, 172.787288)"><g><path d="M 13.1875 -10.597656 C 13.1875 -13.90625 10.738281 -15.597656 7.609375 -15.597656 L 1.8125 -15.597656 L 1.8125 0 L 5.039062 0 L 5.039062 -5.5 L 7.492188 -5.5 C 10.757812 -5.5 13.1875 -7.152344 13.1875 -10.597656 Z M 9.941406 -10.519531 C 9.941406 -9.066406 8.625 -8.507812 7.351562 -8.507812 L 5.039062 -8.507812 L 5.039062 -12.550781 L 7.332031 -12.550781 C 8.667969 -12.550781 9.941406 -12.035156 9.941406 -10.519531 Z M 9.941406 -10.519531 "/></g></g></g></svg>