<svg xmlns="http://www.w3.org/2000/svg" xmlns:xlink="http://www.w3.org/1999/xlink" width="300" zoomAndPan="magnify" viewBox="0 0 224.87999 168.749997" height="225" preserveAspectRatio="xMidYMid meet" version="1.0"><defs><g/><clipPath id="28984bc9b0"><path d="M 5.984375 6.179688 L 219.1875 6.179688 L 219.1875 162.5625 L 5.984375 162.5625 Z M 5.984375 6.179688 " clip-rule="nonzero"/></clipPath><clipPath id="95e1c54f16"><path d="M 83.75 102.226562 L 141.167969 102.226562 L 141.167969 112.742188 L 83.75 112.742188 Z M 83.75 102.226562 " clip-rule="nonzero"/></clipPath><clipPath id="a859b62888"><path d="M 112.441406 102.226562 C 96.59375 102.226562 83.75 104.582031 83.75 107.484375 C 83.75 110.386719 96.59375 112.742188 112.441406 112.742188 C 128.285156 112.742188 141.128906 110.386719 141.128906 107.484375 C 141.128906 104.582031 128.285156 102.226562 112.441406 102.226562 Z M 112.441406 102.226562 " clip-rule="nonzero"/></clipPath><clipPath id="7c51eb0b89"><path d="M 89.25 35.667969 L 135.632812 35.667969 L 135.632812 82.050781 L 89.25 82.050781 Z M 89.25 35.667969 " clip-rule="nonzero"/></clipPath><clipPath id="ff2930a36d"><path d="M 112.441406 35.667969 C 99.632812 35.667969 89.25 46.050781 89.25 58.859375 C 89.25 71.667969 99.632812 82.050781 112.441406 82.050781 C 125.25 82.050781 135.632812 71.667969 135.632812 58.859375 C 135.632812 46.050781 125.25 35.667969 112.441406 35.667969 Z M 112.441406 35.667969 " clip-rule="nonzero"/></clipPath><clipPath id="91ec30662c"><path d="M 85.394531 31.855469 L 139.199219 31.855469 L 139.199219 106 L 85.394531 106 Z M 85.394531 31.855469 " clip-rule="nonzero"/></clipPath></defs><g clip-path="url(#28984bc9b0)"><path fill="#ececec" d="M 5.984375 6.179688 L 219.179688 6.179688 L 219.179688 162.5625 L 5.984375 162.5625 Z M 5.984375 6.179688 " fill-opacity="1" fill-rule="nonzero"/></g><g fill="#423e3e" fill-opacity="1"><g transform="translate(39.031741, 145.878556)"><g><path d="M 3.953125 -7.4375 C 3.953125 -6.570312 4.144531 -5.78125 4.53125 -5.0625 C 4.914062 -4.34375 5.453125 -3.765625 6.140625 -3.328125 C 6.828125 -2.898438 7.617188 -2.6875 8.515625 -2.6875 C 9.523438 -2.6875 10.367188 -2.921875 11.046875 -3.390625 C 11.734375 -3.859375 12.164062 -4.460938 12.34375 -5.203125 L 7.828125 -5.203125 L 7.828125 -7.984375 L 15.546875 -7.984375 L 15.546875 -6.828125 C 15.546875 -5.679688 15.351562 -4.664062 14.96875 -3.78125 C 14.582031 -2.894531 14.054688 -2.15625 13.390625 -1.5625 C 12.734375 -0.976562 11.984375 -0.53125 11.140625 -0.21875 C 10.296875 0.0820312 9.421875 0.234375 8.515625 0.234375 C 7.367188 0.234375 6.320312 0.0351562 5.375 -0.359375 C 4.4375 -0.765625 3.625 -1.3125 2.9375 -2 C 2.257812 -2.695312 1.734375 -3.507812 1.359375 -4.4375 C 0.992188 -5.363281 0.8125 -6.359375 0.8125 -7.421875 C 0.8125 -8.503906 1.015625 -9.503906 1.421875 -10.421875 C 1.828125 -11.347656 2.382812 -12.160156 3.09375 -12.859375 C 3.8125 -13.566406 4.632812 -14.113281 5.5625 -14.5 C 6.5 -14.882812 7.5 -15.078125 8.5625 -15.078125 C 9.507812 -15.078125 10.359375 -14.945312 11.109375 -14.6875 C 11.859375 -14.425781 12.507812 -14.085938 13.0625 -13.671875 C 13.613281 -13.253906 14.066406 -12.800781 14.421875 -12.3125 C 14.785156 -11.832031 15.050781 -11.359375 15.21875 -10.890625 L 12.5 -9.5625 C 12.363281 -9.9375 12.132812 -10.328125 11.8125 -10.734375 C 11.488281 -11.140625 11.054688 -11.476562 10.515625 -11.75 C 9.984375 -12.03125 9.316406 -12.171875 8.515625 -12.171875 C 7.679688 -12.171875 6.921875 -11.960938 6.234375 -11.546875 C 5.546875 -11.128906 4.992188 -10.5625 4.578125 -9.84375 C 4.160156 -9.132812 3.953125 -8.332031 3.953125 -7.4375 Z M 3.953125 -7.4375 "/></g></g></g><g fill="#423e3e" fill-opacity="1"><g transform="translate(55.287336, 145.878556)"><g><path d="M 1.71875 -14.859375 L 11.453125 -14.859375 L 11.453125 -11.96875 L 4.765625 -11.96875 L 4.765625 -8.953125 L 10.75 -8.953125 L 10.75 -6.0625 L 4.765625 -6.0625 L 4.765625 -2.859375 L 11.5 -2.859375 L 11.5 0 L 1.71875 0 Z M 1.71875 -14.859375 "/></g></g></g><g fill="#423e3e" fill-opacity="1"><g transform="translate(67.863133, 145.878556)"><g><path d="M 4.765625 -10.25 L 4.765625 0 L 1.71875 0 L 1.71875 -14.859375 L 5.234375 -14.859375 L 11.6875 -5.15625 L 11.6875 -14.859375 L 14.71875 -14.859375 L 14.71875 0 L 11.59375 0 Z M 4.765625 -10.25 "/></g></g></g><g fill="#423e3e" fill-opacity="1"><g transform="translate(84.327377, 145.878556)"><g><path d="M 1.71875 -14.859375 L 11.453125 -14.859375 L 11.453125 -11.96875 L 4.765625 -11.96875 L 4.765625 -8.953125 L 10.75 -8.953125 L 10.75 -6.0625 L 4.765625 -6.0625 L 4.765625 -2.859375 L 11.5 -2.859375 L 11.5 0 L 1.71875 0 Z M 1.71875 -14.859375 "/></g></g></g><g fill="#423e3e" fill-opacity="1"><g transform="translate(96.903174, 145.878556)"><g><path d="M 13.140625 0 L 9.734375 0 L 6.65625 -5.328125 L 4.796875 -5.328125 L 4.796875 0 L 1.71875 0 L 1.71875 -14.859375 L 7.59375 -14.859375 C 8.550781 -14.859375 9.425781 -14.679688 10.21875 -14.328125 C 11.019531 -13.984375 11.65625 -13.460938 12.125 -12.765625 C 12.601562 -12.066406 12.84375 -11.191406 12.84375 -10.140625 C 12.84375 -7.984375 11.820312 -6.535156 9.78125 -5.796875 Z M 7.359375 -8.171875 C 7.734375 -8.171875 8.101562 -8.234375 8.46875 -8.359375 C 8.84375 -8.492188 9.144531 -8.695312 9.375 -8.96875 C 9.613281 -9.25 9.734375 -9.625 9.734375 -10.09375 C 9.734375 -10.570312 9.613281 -10.941406 9.375 -11.203125 C 9.132812 -11.472656 8.832031 -11.664062 8.46875 -11.78125 C 8.101562 -11.894531 7.726562 -11.953125 7.34375 -11.953125 L 4.796875 -11.953125 L 4.796875 -8.171875 Z M 7.359375 -8.171875 "/></g></g></g><g fill="#423e3e" fill-opacity="1"><g transform="translate(110.76879, 145.878556)"><g><path d="M 4.796875 -14.859375 L 4.796875 0 L 1.71875 0 L 1.71875 -14.859375 Z M 4.796875 -14.859375 "/></g></g></g><g fill="#423e3e" fill-opacity="1"><g transform="translate(117.31276, 145.878556)"><g><path d="M 0.8125 -7.421875 C 0.8125 -8.492188 1.007812 -9.492188 1.40625 -10.421875 C 1.8125 -11.347656 2.367188 -12.160156 3.078125 -12.859375 C 3.785156 -13.554688 4.601562 -14.097656 5.53125 -14.484375 C 6.457031 -14.878906 7.453125 -15.078125 8.515625 -15.078125 C 9.492188 -15.078125 10.429688 -14.90625 11.328125 -14.5625 C 12.234375 -14.226562 13.03125 -13.734375 13.71875 -13.078125 C 14.40625 -12.429688 14.914062 -11.640625 15.25 -10.703125 L 12.4375 -9.40625 C 12.125 -10.226562 11.625 -10.878906 10.9375 -11.359375 C 10.25 -11.835938 9.4375 -12.078125 8.5 -12.078125 C 7.632812 -12.078125 6.863281 -11.867188 6.1875 -11.453125 C 5.507812 -11.035156 4.972656 -10.472656 4.578125 -9.765625 C 4.191406 -9.066406 4 -8.296875 4 -7.453125 C 4 -6.597656 4.191406 -5.816406 4.578125 -5.109375 C 4.960938 -4.398438 5.492188 -3.832031 6.171875 -3.40625 C 6.847656 -2.976562 7.625 -2.765625 8.5 -2.765625 C 9.4375 -2.765625 10.253906 -3.019531 10.953125 -3.53125 C 11.648438 -4.050781 12.160156 -4.710938 12.484375 -5.515625 L 15.3125 -4.21875 C 14.96875 -3.28125 14.441406 -2.476562 13.734375 -1.8125 C 13.023438 -1.15625 12.210938 -0.65625 11.296875 -0.3125 C 10.378906 0.03125 9.429688 0.203125 8.453125 0.203125 C 7.378906 0.203125 6.378906 0.0078125 5.453125 -0.375 C 4.523438 -0.757812 3.710938 -1.296875 3.015625 -1.984375 C 2.316406 -2.671875 1.773438 -3.476562 1.390625 -4.40625 C 1.003906 -5.332031 0.8125 -6.335938 0.8125 -7.421875 Z M 0.8125 -7.421875 "/></g></g></g><g fill="#423e3e" fill-opacity="1"><g transform="translate(133.094151, 145.878556)"><g/></g></g><g fill="#423e3e" fill-opacity="1"><g transform="translate(137.855118, 145.878556)"><g><path d="M 15.0625 -9.8125 L 10.921875 0 L 8.875 0 L 4.765625 -9.734375 L 4.75 -9.734375 L 4.75 0 L 1.71875 0 L 1.71875 -14.859375 L 5.6875 -14.859375 L 9.90625 -4.890625 L 14.03125 -14.859375 L 18.109375 -14.859375 L 18.109375 0 L 15.078125 0 L 15.078125 -9.8125 Z M 15.0625 -9.8125 "/></g></g></g><g fill="#423e3e" fill-opacity="1"><g transform="translate(157.695665, 145.878556)"><g><path d="M 3.078125 0 L -0.015625 0 L 5.65625 -14.859375 L 9.359375 -14.859375 L 15.046875 0 L 11.875 0 L 10.75 -3 L 4.171875 -3 Z M 7.46875 -11.875 L 5.234375 -5.84375 L 9.71875 -5.84375 Z M 7.46875 -11.875 "/></g></g></g><g fill="#423e3e" fill-opacity="1"><g transform="translate(172.718338, 145.878556)"><g><path d="M 12.5625 -10.09375 C 12.5625 -9 12.320312 -8.09375 11.84375 -7.375 C 11.375 -6.65625 10.726562 -6.117188 9.90625 -5.765625 C 9.09375 -5.410156 8.164062 -5.234375 7.125 -5.234375 L 4.796875 -5.234375 L 4.796875 0 L 1.71875 0 L 1.71875 -14.859375 L 7.25 -14.859375 C 8.25 -14.859375 9.144531 -14.679688 9.9375 -14.328125 C 10.738281 -13.972656 11.375 -13.441406 11.84375 -12.734375 C 12.320312 -12.023438 12.5625 -11.144531 12.5625 -10.09375 Z M 9.46875 -10.015625 C 9.46875 -10.492188 9.347656 -10.875 9.109375 -11.15625 C 8.867188 -11.445312 8.5625 -11.648438 8.1875 -11.765625 C 7.8125 -11.890625 7.410156 -11.953125 6.984375 -11.953125 L 4.796875 -11.953125 L 4.796875 -8.09375 L 7 -8.09375 C 7.40625 -8.09375 7.796875 -8.15625 8.171875 -8.28125 C 8.554688 -8.414062 8.867188 -8.625 9.109375 -8.90625 C 9.347656 -9.1875 9.46875 -9.554688 9.46875 -10.015625 Z M 9.46875 -10.015625 "/></g></g></g><g clip-path="url(#95e1c54f16)"><g clip-path="url(#a859b62888)"><path fill="#625e5e" d="M 83.75 102.226562 L 141.128906 102.226562 L 141.128906 112.742188 L 83.75 112.742188 Z M 83.75 102.226562 " fill-opacity="1" fill-rule="nonzero"/></g></g><g clip-path="url(#7c51eb0b89)"><g clip-path="url(#ff2930a36d)"><path fill="#000000" d="M 89.25 35.667969 L 135.632812 35.667969 L 135.632812 82.050781 L 89.25 82.050781 Z M 89.25 35.667969 " fill-opacity="1" fill-rule="nonzero"/></g></g><g clip-path="url(#91ec30662c)"><path fill="#423e3e" d="M 112.402344 31.855469 C 97.550781 31.855469 85.507812 44.339844 85.507812 59.738281 C 85.507812 75.136719 95.277344 76.253906 112.402344 105.855469 C 129.472656 76.253906 139.292969 75.144531 139.292969 59.738281 C 139.292969 44.332031 127.253906 31.855469 112.402344 31.855469 Z M 112.402344 70.277344 C 111.722656 70.261719 111.050781 70.183594 110.386719 70.039062 C 109.722656 69.894531 109.078125 69.6875 108.457031 69.414062 C 107.832031 69.140625 107.242188 68.8125 106.683594 68.425781 C 106.128906 68.035156 105.613281 67.597656 105.140625 67.109375 C 104.667969 66.621094 104.25 66.089844 103.882812 65.519531 C 103.515625 64.945312 103.207031 64.34375 102.957031 63.710938 C 102.710938 63.078125 102.523438 62.429688 102.402344 61.761719 C 102.28125 61.09375 102.230469 60.417969 102.242188 59.738281 C 102.230469 59.058594 102.285156 58.386719 102.40625 57.71875 C 102.527344 57.050781 102.710938 56.398438 102.960938 55.769531 C 103.210938 55.136719 103.519531 54.535156 103.886719 53.964844 C 104.253906 53.390625 104.671875 52.863281 105.144531 52.375 C 105.613281 51.882812 106.128906 51.445312 106.6875 51.058594 C 107.246094 50.671875 107.835938 50.34375 108.457031 50.070312 C 109.082031 49.800781 109.722656 49.589844 110.386719 49.445312 C 111.050781 49.300781 111.722656 49.222656 112.402344 49.207031 C 113.078125 49.222656 113.75 49.300781 114.414062 49.445312 C 115.078125 49.589844 115.71875 49.800781 116.34375 50.070312 C 116.964844 50.34375 117.554688 50.671875 118.113281 51.058594 C 118.671875 51.445312 119.1875 51.882812 119.65625 52.375 C 120.128906 52.863281 120.546875 53.390625 120.914062 53.964844 C 121.28125 54.535156 121.589844 55.136719 121.839844 55.769531 C 122.089844 56.398438 122.273438 57.050781 122.394531 57.71875 C 122.515625 58.386719 122.570312 59.058594 122.5625 59.738281 C 122.574219 60.417969 122.519531 61.09375 122.398438 61.761719 C 122.277344 62.429688 122.089844 63.078125 121.84375 63.710938 C 121.59375 64.34375 121.285156 64.945312 120.917969 65.519531 C 120.550781 66.089844 120.132812 66.621094 119.660156 67.109375 C 119.1875 67.597656 118.671875 68.035156 118.117188 68.425781 C 117.558594 68.8125 116.96875 69.140625 116.34375 69.414062 C 115.722656 69.6875 115.078125 69.894531 114.414062 70.039062 C 113.75 70.183594 113.078125 70.261719 112.402344 70.277344 Z M 112.402344 70.277344 " fill-opacity="1" fill-rule="nonzero"/></g></svg>