<svg xmlns="http://www.w3.org/2000/svg" xmlns:xlink="http://www.w3.org/1999/xlink" width="275" zoomAndPan="magnify" viewBox="0 0 206.25 187.499992" height="250" preserveAspectRatio="xMidYMid meet" version="1.0"><defs><g/><clipPath id="8ccd3869ad"><path d="M 72.511719 152.5625 L 132.886719 152.5625 L 132.886719 173.632812 L 72.511719 173.632812 Z M 72.511719 152.5625 " clip-rule="nonzero"/></clipPath><clipPath id="6157e672f4"><path d="M 6.664062 6.203125 L 198.839844 6.203125 L 198.839844 136.34375 L 6.664062 136.34375 Z M 6.664062 6.203125 " clip-rule="nonzero"/></clipPath><clipPath id="13cf3d08e1"><path d="M 105.945312 17.699219 L 179.460938 17.699219 L 179.460938 68.652344 L 105.945312 68.652344 Z M 105.945312 17.699219 " clip-rule="nonzero"/></clipPath><clipPath id="947eb3d6a0"><path d="M 114.644531 19.703125 L 170.765625 19.703125 L 170.765625 27.378906 L 114.644531 27.378906 Z M 114.644531 19.703125 " clip-rule="nonzero"/></clipPath><clipPath id="899ffc82d7"><path d="M 118.378906 19.703125 L 167.027344 19.703125 C 169.089844 19.703125 170.761719 21.378906 170.761719 23.441406 L 170.761719 23.644531 C 170.761719 25.707031 169.089844 27.378906 167.027344 27.378906 L 118.378906 27.378906 C 116.316406 27.378906 114.644531 25.707031 114.644531 23.644531 L 114.644531 23.441406 C 114.644531 21.378906 116.316406 19.703125 118.378906 19.703125 Z M 118.378906 19.703125 " clip-rule="nonzero"/></clipPath><clipPath id="c02101b22a"><path d="M 105.9375 17.699219 L 111.429688 17.699219 L 111.429688 68.652344 L 105.9375 68.652344 Z M 105.9375 17.699219 " clip-rule="nonzero"/></clipPath><clipPath id="df39305c18"><path d="M 114.949219 29.894531 L 164.804688 29.894531 L 164.804688 37.566406 L 114.949219 37.566406 Z M 114.949219 29.894531 " clip-rule="nonzero"/></clipPath><clipPath id="efb22d8eec"><path d="M 118.785156 29.894531 L 160.960938 29.894531 C 163.082031 29.894531 164.796875 31.609375 164.796875 33.730469 C 164.796875 35.847656 163.082031 37.566406 160.960938 37.566406 L 118.785156 37.566406 C 116.667969 37.566406 114.949219 35.847656 114.949219 33.730469 C 114.949219 31.609375 116.667969 29.894531 118.785156 29.894531 Z M 118.785156 29.894531 " clip-rule="nonzero"/></clipPath><clipPath id="b2929fe622"><path d="M 105.945312 73.890625 L 179.460938 73.890625 L 179.460938 124.84375 L 105.945312 124.84375 Z M 105.945312 73.890625 " clip-rule="nonzero"/></clipPath><clipPath id="5238802cd4"><path d="M 114.644531 75.894531 L 170.765625 75.894531 L 170.765625 83.570312 L 114.644531 83.570312 Z M 114.644531 75.894531 " clip-rule="nonzero"/></clipPath><clipPath id="df0bbb1136"><path d="M 118.378906 75.894531 L 167.027344 75.894531 C 169.089844 75.894531 170.761719 77.566406 170.761719 79.632812 L 170.761719 79.832031 C 170.761719 81.898438 169.089844 83.570312 167.027344 83.570312 L 118.378906 83.570312 C 116.316406 83.570312 114.644531 81.898438 114.644531 79.832031 L 114.644531 79.632812 C 114.644531 77.566406 116.316406 75.894531 118.378906 75.894531 Z M 118.378906 75.894531 " clip-rule="nonzero"/></clipPath><clipPath id="752d04c024"><path d="M 105.9375 73.886719 L 111.429688 73.886719 L 111.429688 124.839844 L 105.9375 124.839844 Z M 105.9375 73.886719 " clip-rule="nonzero"/></clipPath><clipPath id="df719c9917"><path d="M 114.949219 86.082031 L 164.804688 86.082031 L 164.804688 93.757812 L 114.949219 93.757812 Z M 114.949219 86.082031 " clip-rule="nonzero"/></clipPath><clipPath id="9a5487dbe0"><path d="M 118.785156 86.082031 L 160.960938 86.082031 C 163.082031 86.082031 164.796875 87.800781 164.796875 89.921875 C 164.796875 92.039062 163.082031 93.757812 160.960938 93.757812 L 118.785156 93.757812 C 116.667969 93.757812 114.949219 92.039062 114.949219 89.921875 C 114.949219 87.800781 116.667969 86.082031 118.785156 86.082031 Z M 118.785156 86.082031 " clip-rule="nonzero"/></clipPath><clipPath id="92146b14a0"><path d="M 25.941406 17.699219 L 99.457031 17.699219 L 99.457031 68.652344 L 25.941406 68.652344 Z M 25.941406 17.699219 " clip-rule="nonzero"/></clipPath><clipPath id="e25995fe3b"><path d="M 34.636719 19.703125 L 90.761719 19.703125 L 90.761719 27.378906 L 34.636719 27.378906 Z M 34.636719 19.703125 " clip-rule="nonzero"/></clipPath><clipPath id="d189f0b5de"><path d="M 38.375 19.703125 L 87.019531 19.703125 C 89.085938 19.703125 90.757812 21.378906 90.757812 23.441406 L 90.757812 23.644531 C 90.757812 25.707031 89.085938 27.378906 87.019531 27.378906 L 38.375 27.378906 C 36.3125 27.378906 34.636719 25.707031 34.636719 23.644531 L 34.636719 23.441406 C 34.636719 21.378906 36.3125 19.703125 38.375 19.703125 Z M 38.375 19.703125 " clip-rule="nonzero"/></clipPath><clipPath id="a3627421e4"><path d="M 25.933594 17.699219 L 31.421875 17.699219 L 31.421875 68.652344 L 25.933594 68.652344 Z M 25.933594 17.699219 " clip-rule="nonzero"/></clipPath><clipPath id="2a3df1de5a"><path d="M 34.945312 29.894531 L 84.800781 29.894531 L 84.800781 37.566406 L 34.945312 37.566406 Z M 34.945312 29.894531 " clip-rule="nonzero"/></clipPath><clipPath id="90dc1f721a"><path d="M 38.78125 29.894531 L 80.957031 29.894531 C 83.074219 29.894531 84.792969 31.609375 84.792969 33.730469 C 84.792969 35.847656 83.074219 37.566406 80.957031 37.566406 L 38.78125 37.566406 C 36.664062 37.566406 34.945312 35.847656 34.945312 33.730469 C 34.945312 31.609375 36.664062 29.894531 38.78125 29.894531 Z M 38.78125 29.894531 " clip-rule="nonzero"/></clipPath><clipPath id="1cb1725579"><path d="M 25.941406 73.890625 L 99.457031 73.890625 L 99.457031 124.84375 L 25.941406 124.84375 Z M 25.941406 73.890625 " clip-rule="nonzero"/></clipPath><clipPath id="cdf2ad8f15"><path d="M 34.636719 75.894531 L 90.761719 75.894531 L 90.761719 83.570312 L 34.636719 83.570312 Z M 34.636719 75.894531 " clip-rule="nonzero"/></clipPath><clipPath id="10be52b68a"><path d="M 38.375 75.894531 L 87.019531 75.894531 C 89.085938 75.894531 90.757812 77.566406 90.757812 79.632812 L 90.757812 79.832031 C 90.757812 81.898438 89.085938 83.570312 87.019531 83.570312 L 38.375 83.570312 C 36.3125 83.570312 34.636719 81.898438 34.636719 79.832031 L 34.636719 79.632812 C 34.636719 77.566406 36.3125 75.894531 38.375 75.894531 Z M 38.375 75.894531 " clip-rule="nonzero"/></clipPath><clipPath id="c585ffa386"><path d="M 25.933594 73.886719 L 31.421875 73.886719 L 31.421875 124.839844 L 25.933594 124.839844 Z M 25.933594 73.886719 " clip-rule="nonzero"/></clipPath><clipPath id="dcbca2c803"><path d="M 34.945312 86.082031 L 84.800781 86.082031 L 84.800781 93.757812 L 34.945312 93.757812 Z M 34.945312 86.082031 " clip-rule="nonzero"/></clipPath><clipPath id="f2f40822c4"><path d="M 38.78125 86.082031 L 80.957031 86.082031 C 83.074219 86.082031 84.792969 87.800781 84.792969 89.921875 C 84.792969 92.039062 83.074219 93.757812 80.957031 93.757812 L 38.78125 93.757812 C 36.664062 93.757812 34.945312 92.039062 34.945312 89.921875 C 34.945312 87.800781 36.664062 86.082031 38.78125 86.082031 Z M 38.78125 86.082031 " clip-rule="nonzero"/></clipPath></defs><g clip-path="url(#8ccd3869ad)"><path fill="#ffffff" d="M 72.511719 152.5625 L 132.851562 152.5625 L 132.851562 173.632812 L 72.511719 173.632812 Z M 72.511719 152.5625 " fill-opacity="1" fill-rule="nonzero"/></g><g fill="#423e3e" fill-opacity="1"><g transform="translate(80.823281, 169.449417)"><g><path d="M 3.3125 -6.25 C 3.3125 -8.515625 5.046875 -10.234375 7.15625 -10.234375 C 9.171875 -10.234375 10.140625 -8.96875 10.5 -8.03125 L 12.78125 -9.140625 C 12.21875 -10.703125 10.375 -12.671875 7.1875 -12.671875 C 3.640625 -12.671875 0.6875 -9.859375 0.6875 -6.234375 C 0.6875 -2.671875 3.296875 0.1875 7.15625 0.1875 C 10.203125 0.1875 13.0625 -1.84375 13.0625 -5.734375 L 13.0625 -6.703125 L 6.578125 -6.703125 L 6.578125 -4.359375 L 10.375 -4.359375 C 10.078125 -3.140625 8.84375 -2.265625 7.15625 -2.265625 C 4.890625 -2.265625 3.3125 -4.078125 3.3125 -6.25 Z M 3.3125 -6.25 "/></g></g></g><g fill="#423e3e" fill-opacity="1"><g transform="translate(94.482317, 169.449417)"><g><path d="M 11.046875 0 L 8.21875 -4.875 C 9.90625 -5.484375 10.796875 -6.734375 10.796875 -8.53125 C 10.796875 -11.171875 8.796875 -12.484375 6.375 -12.484375 L 1.453125 -12.484375 L 1.453125 0 L 4.03125 0 L 4.03125 -4.484375 L 5.59375 -4.484375 L 8.171875 0 Z M 6.1875 -6.875 L 4.03125 -6.875 L 4.03125 -10.046875 L 6.171875 -10.046875 C 7.140625 -10.046875 8.171875 -9.671875 8.171875 -8.484375 C 8.171875 -7.296875 7.140625 -6.875 6.1875 -6.875 Z M 6.1875 -6.875 "/></g></g></g><g fill="#423e3e" fill-opacity="1"><g transform="translate(106.133146, 169.449417)"><g><path d="M 4.03125 -12.484375 L 1.453125 -12.484375 L 1.453125 0 L 4.03125 0 Z M 4.03125 -12.484375 "/></g></g></g><g fill="#423e3e" fill-opacity="1"><g transform="translate(111.631823, 169.449417)"><g><path d="M 12.3125 -6.265625 C 12.3125 -10.1875 9.625 -12.484375 5.28125 -12.484375 L 1.453125 -12.484375 L 1.453125 0 L 5.234375 0 C 9.640625 0 12.3125 -2.546875 12.3125 -6.265625 Z M 9.671875 -6.265625 C 9.671875 -3.8125 7.890625 -2.4375 5.3125 -2.4375 L 4.03125 -2.4375 L 4.03125 -10.046875 L 5.34375 -10.046875 C 7.796875 -10.046875 9.671875 -8.71875 9.671875 -6.265625 Z M 9.671875 -6.265625 "/></g></g></g><g clip-path="url(#6157e672f4)"><path fill="#ececec" d="M 6.664062 6.203125 L 198.824219 6.203125 L 198.824219 136.34375 L 6.664062 136.34375 Z M 6.664062 6.203125 " fill-opacity="1" fill-rule="nonzero"/></g><g clip-path="url(#13cf3d08e1)"><path fill="#bebebe" d="M 105.945312 17.699219 L 179.386719 17.699219 L 179.386719 68.652344 L 105.945312 68.652344 Z M 105.945312 17.699219 " fill-opacity="1" fill-rule="nonzero"/></g><g clip-path="url(#947eb3d6a0)"><g clip-path="url(#899ffc82d7)"><path fill="#3c3b3d" d="M 114.644531 19.703125 L 170.765625 19.703125 L 170.765625 27.378906 L 114.644531 27.378906 Z M 114.644531 19.703125 " fill-opacity="1" fill-rule="nonzero"/></g></g><g clip-path="url(#c02101b22a)"><path fill="#3ec9e9" d="M 111.429688 17.699219 L 111.429688 68.644531 L 105.9375 68.644531 L 105.9375 17.699219 Z M 111.429688 17.699219 " fill-opacity="1" fill-rule="nonzero"/></g><g clip-path="url(#df39305c18)"><g clip-path="url(#efb22d8eec)"><path fill="#625e5e" d="M 114.949219 29.894531 L 164.804688 29.894531 L 164.804688 37.566406 L 114.949219 37.566406 Z M 114.949219 29.894531 " fill-opacity="1" fill-rule="nonzero"/></g></g><g clip-path="url(#b2929fe622)"><path fill="#bebebe" d="M 105.945312 73.890625 L 179.386719 73.890625 L 179.386719 124.84375 L 105.945312 124.84375 Z M 105.945312 73.890625 " fill-opacity="1" fill-rule="nonzero"/></g><g clip-path="url(#5238802cd4)"><g clip-path="url(#df0bbb1136)"><path fill="#3c3b3d" d="M 114.644531 75.894531 L 170.765625 75.894531 L 170.765625 83.570312 L 114.644531 83.570312 Z M 114.644531 75.894531 " fill-opacity="1" fill-rule="nonzero"/></g></g><g clip-path="url(#752d04c024)"><path fill="#3ec9e9" d="M 111.429688 73.886719 L 111.429688 124.835938 L 105.9375 124.835938 L 105.9375 73.886719 Z M 111.429688 73.886719 " fill-opacity="1" fill-rule="nonzero"/></g><g clip-path="url(#df719c9917)"><g clip-path="url(#9a5487dbe0)"><path fill="#625e5e" d="M 114.949219 86.082031 L 164.804688 86.082031 L 164.804688 93.757812 L 114.949219 93.757812 Z M 114.949219 86.082031 " fill-opacity="1" fill-rule="nonzero"/></g></g><g clip-path="url(#92146b14a0)"><path fill="#bebebe" d="M 25.941406 17.699219 L 99.382812 17.699219 L 99.382812 68.652344 L 25.941406 68.652344 Z M 25.941406 17.699219 " fill-opacity="1" fill-rule="nonzero"/></g><g clip-path="url(#e25995fe3b)"><g clip-path="url(#d189f0b5de)"><path fill="#3c3b3d" d="M 34.636719 19.703125 L 90.761719 19.703125 L 90.761719 27.378906 L 34.636719 27.378906 Z M 34.636719 19.703125 " fill-opacity="1" fill-rule="nonzero"/></g></g><g clip-path="url(#a3627421e4)"><path fill="#3d87e4" d="M 31.421875 17.699219 L 31.421875 68.644531 L 25.933594 68.644531 L 25.933594 17.699219 Z M 31.421875 17.699219 " fill-opacity="1" fill-rule="nonzero"/></g><g clip-path="url(#2a3df1de5a)"><g clip-path="url(#90dc1f721a)"><path fill="#625e5e" d="M 34.945312 29.894531 L 84.800781 29.894531 L 84.800781 37.566406 L 34.945312 37.566406 Z M 34.945312 29.894531 " fill-opacity="1" fill-rule="nonzero"/></g></g><g clip-path="url(#1cb1725579)"><path fill="#bebebe" d="M 25.941406 73.890625 L 99.382812 73.890625 L 99.382812 124.84375 L 25.941406 124.84375 Z M 25.941406 73.890625 " fill-opacity="1" fill-rule="nonzero"/></g><g clip-path="url(#cdf2ad8f15)"><g clip-path="url(#10be52b68a)"><path fill="#3c3b3d" d="M 34.636719 75.894531 L 90.761719 75.894531 L 90.761719 83.570312 L 34.636719 83.570312 Z M 34.636719 75.894531 " fill-opacity="1" fill-rule="nonzero"/></g></g><g clip-path="url(#c585ffa386)"><path fill="#3654d2" d="M 31.421875 73.886719 L 31.421875 124.835938 L 25.933594 124.835938 L 25.933594 73.886719 Z M 31.421875 73.886719 " fill-opacity="1" fill-rule="nonzero"/></g><g clip-path="url(#dcbca2c803)"><g clip-path="url(#f2f40822c4)"><path fill="#625e5e" d="M 34.945312 86.082031 L 84.800781 86.082031 L 84.800781 93.757812 L 34.945312 93.757812 Z M 34.945312 86.082031 " fill-opacity="1" fill-rule="nonzero"/></g></g><path fill="#3d87e4" d="M 160.578125 41.78125 C 161.769531 41.78125 162.933594 41.953125 164.070312 42.296875 C 165.207031 42.644531 166.269531 43.144531 167.261719 43.808594 C 168.25 44.46875 169.121094 45.257812 169.875 46.175781 C 170.628906 47.097656 171.234375 48.105469 171.6875 49.203125 C 172.144531 50.300781 172.429688 51.441406 172.546875 52.625 C 172.664062 53.808594 172.605469 54.984375 172.371094 56.152344 C 172.140625 57.316406 171.746094 58.425781 171.183594 59.472656 C 170.625 60.523438 169.921875 61.464844 169.082031 62.308594 L 160.578125 53.804688 Z M 160.578125 41.78125 " fill-opacity="1" fill-rule="nonzero"/><path fill="#3ec9e9" d="M 169.082031 62.308594 C 168.242188 63.148438 167.296875 63.847656 166.246094 64.410156 C 165.199219 64.96875 164.089844 65.367188 162.925781 65.597656 C 161.757812 65.828125 160.585938 65.886719 159.402344 65.769531 C 158.21875 65.65625 157.078125 65.367188 155.976562 64.914062 C 154.878906 64.457031 153.871094 63.855469 152.953125 63.097656 C 152.03125 62.34375 151.242188 61.472656 150.582031 60.484375 C 149.921875 59.496094 149.417969 58.433594 149.074219 57.296875 C 148.726562 56.15625 148.554688 54.992188 148.554688 53.804688 L 160.578125 53.804688 Z M 169.082031 62.308594 " fill-opacity="1" fill-rule="nonzero"/><path fill="#3654d2" d="M 148.554688 53.804688 C 148.554688 53.015625 148.632812 52.234375 148.785156 51.460938 C 148.941406 50.683594 149.167969 49.933594 149.46875 49.203125 C 149.773438 48.472656 150.144531 47.78125 150.582031 47.125 C 151.019531 46.46875 151.519531 45.859375 152.078125 45.304688 C 152.636719 44.746094 153.242188 44.246094 153.898438 43.808594 C 154.554688 43.367188 155.246094 43 155.976562 42.695312 C 156.707031 42.394531 157.457031 42.164062 158.234375 42.011719 C 159.007812 41.859375 159.789062 41.78125 160.578125 41.78125 L 160.578125 53.804688 Z M 148.554688 53.804688 " fill-opacity="1" fill-rule="nonzero"/><path fill="#3d87e4" d="M 80.574219 41.78125 C 81.765625 41.78125 82.925781 41.953125 84.066406 42.296875 C 85.203125 42.644531 86.265625 43.144531 87.253906 43.808594 C 88.242188 44.46875 89.113281 45.257812 89.871094 46.175781 C 90.625 47.097656 91.230469 48.105469 91.683594 49.203125 C 92.136719 50.300781 92.425781 51.441406 92.539062 52.625 C 92.65625 53.808594 92.601562 54.984375 92.367188 56.152344 C 92.136719 57.316406 91.738281 58.425781 91.179688 59.472656 C 90.617188 60.523438 89.917969 61.464844 89.078125 62.308594 L 80.574219 53.804688 Z M 80.574219 41.78125 " fill-opacity="1" fill-rule="nonzero"/><path fill="#3ec9e9" d="M 89.078125 62.308594 C 88.234375 63.148438 87.292969 63.847656 86.242188 64.410156 C 85.195312 64.96875 84.085938 65.367188 82.921875 65.597656 C 81.753906 65.828125 80.578125 65.886719 79.394531 65.769531 C 78.210938 65.65625 77.070312 65.367188 75.972656 64.914062 C 74.875 64.457031 73.867188 63.855469 72.945312 63.097656 C 72.027344 62.34375 71.238281 61.472656 70.578125 60.484375 C 69.917969 59.496094 69.414062 58.433594 69.066406 57.296875 C 68.722656 56.15625 68.550781 54.992188 68.550781 53.804688 L 80.574219 53.804688 Z M 89.078125 62.308594 " fill-opacity="1" fill-rule="nonzero"/><path fill="#3654d2" d="M 68.550781 53.804688 C 68.550781 53.015625 68.628906 52.234375 68.78125 51.460938 C 68.9375 50.683594 69.164062 49.933594 69.464844 49.203125 C 69.769531 48.472656 70.136719 47.78125 70.578125 47.125 C 71.015625 46.46875 71.515625 45.859375 72.070312 45.304688 C 72.628906 44.746094 73.238281 44.246094 73.894531 43.808594 C 74.550781 43.367188 75.242188 43 75.972656 42.695312 C 76.703125 42.394531 77.453125 42.164062 78.226562 42.011719 C 79.003906 41.859375 79.785156 41.78125 80.574219 41.78125 L 80.574219 53.804688 Z M 68.550781 53.804688 " fill-opacity="1" fill-rule="nonzero"/><path fill="#3d87e4" d="M 160.578125 97.972656 C 161.769531 97.972656 162.933594 98.144531 164.070312 98.488281 C 165.207031 98.835938 166.269531 99.335938 167.261719 99.996094 C 168.25 100.65625 169.121094 101.449219 169.875 102.367188 C 170.628906 103.285156 171.234375 104.296875 171.6875 105.394531 C 172.144531 106.492188 172.429688 107.632812 172.546875 108.816406 C 172.664062 110 172.605469 111.175781 172.371094 112.339844 C 172.140625 113.507812 171.746094 114.613281 171.183594 115.664062 C 170.625 116.710938 169.921875 117.65625 169.082031 118.496094 L 160.578125 109.996094 Z M 160.578125 97.972656 " fill-opacity="1" fill-rule="nonzero"/><path fill="#3ec9e9" d="M 169.082031 118.496094 C 168.242188 119.339844 167.296875 120.039062 166.246094 120.597656 C 165.199219 121.160156 164.089844 121.554688 162.925781 121.789062 C 161.757812 122.019531 160.585938 122.078125 159.402344 121.960938 C 158.21875 121.84375 157.078125 121.558594 155.976562 121.105469 C 154.878906 120.648438 153.871094 120.042969 152.953125 119.289062 C 152.03125 118.535156 151.242188 117.664062 150.582031 116.675781 C 149.921875 115.6875 149.417969 114.625 149.074219 113.484375 C 148.726562 112.347656 148.554688 111.183594 148.554688 109.996094 L 160.578125 109.996094 Z M 169.082031 118.496094 " fill-opacity="1" fill-rule="nonzero"/><path fill="#3654d2" d="M 148.554688 109.996094 C 148.554688 109.207031 148.632812 108.425781 148.785156 107.648438 C 148.941406 106.875 149.167969 106.125 149.46875 105.394531 C 149.773438 104.664062 150.144531 103.972656 150.582031 103.316406 C 151.019531 102.660156 151.519531 102.050781 152.078125 101.492188 C 152.636719 100.933594 153.242188 100.4375 153.898438 99.996094 C 154.554688 99.558594 155.246094 99.1875 155.976562 98.886719 C 156.707031 98.585938 157.457031 98.355469 158.234375 98.203125 C 159.007812 98.046875 159.789062 97.972656 160.578125 97.972656 L 160.578125 109.996094 Z M 148.554688 109.996094 " fill-opacity="1" fill-rule="nonzero"/><path fill="#3d87e4" d="M 80.574219 97.972656 C 81.765625 97.972656 82.925781 98.144531 84.066406 98.488281 C 85.203125 98.835938 86.265625 99.335938 87.253906 99.996094 C 88.242188 100.65625 89.113281 101.449219 89.871094 102.367188 C 90.625 103.285156 91.230469 104.296875 91.683594 105.394531 C 92.136719 106.492188 92.425781 107.632812 92.539062 108.816406 C 92.65625 110 92.601562 111.175781 92.367188 112.339844 C 92.136719 113.507812 91.738281 114.613281 91.179688 115.664062 C 90.617188 116.710938 89.917969 117.65625 89.078125 118.496094 L 80.574219 109.996094 Z M 80.574219 97.972656 " fill-opacity="1" fill-rule="nonzero"/><path fill="#3ec9e9" d="M 89.078125 118.496094 C 88.234375 119.339844 87.292969 120.039062 86.242188 120.597656 C 85.195312 121.160156 84.085938 121.554688 82.921875 121.789062 C 81.753906 122.019531 80.578125 122.078125 79.394531 121.960938 C 78.210938 121.84375 77.070312 121.558594 75.972656 121.105469 C 74.875 120.648438 73.867188 120.042969 72.945312 119.289062 C 72.027344 118.535156 71.238281 117.664062 70.578125 116.675781 C 69.917969 115.6875 69.414062 114.625 69.066406 113.484375 C 68.722656 112.347656 68.550781 111.183594 68.550781 109.996094 L 80.574219 109.996094 Z M 89.078125 118.496094 " fill-opacity="1" fill-rule="nonzero"/><path fill="#3654d2" d="M 68.550781 109.996094 C 68.550781 109.207031 68.628906 108.425781 68.78125 107.648438 C 68.9375 106.875 69.164062 106.125 69.464844 105.394531 C 69.769531 104.664062 70.136719 103.972656 70.578125 103.316406 C 71.015625 102.660156 71.515625 102.050781 72.070312 101.492188 C 72.628906 100.933594 73.238281 100.4375 73.894531 99.996094 C 74.550781 99.558594 75.242188 99.1875 75.972656 98.886719 C 76.703125 98.585938 77.453125 98.355469 78.226562 98.203125 C 79.003906 98.046875 79.785156 97.972656 80.574219 97.972656 L 80.574219 109.996094 Z M 68.550781 109.996094 " fill-opacity="1" fill-rule="nonzero"/></svg>