<svg xmlns="http://www.w3.org/2000/svg" xmlns:xlink="http://www.w3.org/1999/xlink" width="275" zoomAndPan="magnify" viewBox="0 0 206.25 187.499992" height="250" preserveAspectRatio="xMidYMid meet" version="1.0"><defs><g/><clipPath id="e494265d94"><path d="M 72.511719 153.855469 L 132.886719 153.855469 L 132.886719 174.929688 L 72.511719 174.929688 Z M 72.511719 153.855469 " clip-rule="nonzero"/></clipPath><clipPath id="490070b342"><path d="M 6.664062 6.203125 L 198.839844 6.203125 L 198.839844 145.292969 L 6.664062 145.292969 Z M 6.664062 6.203125 " clip-rule="nonzero"/></clipPath><clipPath id="ff3b56a90b"><path d="M 106.226562 18.339844 L 185.007812 18.339844 L 185.007812 72.941406 L 106.226562 72.941406 Z M 106.226562 18.339844 " clip-rule="nonzero"/></clipPath><clipPath id="dcec7afd1a"><path d="M 115.550781 20.488281 L 175.6875 20.488281 L 175.6875 28.710938 L 115.550781 28.710938 Z M 115.550781 20.488281 " clip-rule="nonzero"/></clipPath><clipPath id="ff7d19cc39"><path d="M 119.285156 20.488281 L 171.949219 20.488281 C 172.941406 20.488281 173.890625 20.882812 174.589844 21.582031 C 175.292969 22.28125 175.6875 23.234375 175.6875 24.222656 L 175.6875 24.976562 C 175.6875 25.96875 175.292969 26.917969 174.589844 27.617188 C 173.890625 28.320312 172.941406 28.710938 171.949219 28.710938 L 119.285156 28.710938 C 118.292969 28.710938 117.34375 28.320312 116.644531 27.617188 C 115.941406 26.917969 115.550781 25.96875 115.550781 24.976562 L 115.550781 24.222656 C 115.550781 23.234375 115.941406 22.28125 116.644531 21.582031 C 117.34375 20.882812 118.292969 20.488281 119.285156 20.488281 Z M 119.285156 20.488281 " clip-rule="nonzero"/></clipPath><clipPath id="f661bd3600"><path d="M 106.222656 18.335938 L 112.105469 18.335938 L 112.105469 72.9375 L 106.222656 72.9375 Z M 106.222656 18.335938 " clip-rule="nonzero"/></clipPath><clipPath id="0e3171e71c"><path d="M 115.878906 31.40625 L 169.296875 31.40625 L 169.296875 39.628906 L 115.878906 39.628906 Z M 115.878906 31.40625 " clip-rule="nonzero"/></clipPath><clipPath id="25f9b13452"><path d="M 119.988281 31.40625 L 165.183594 31.40625 C 167.453125 31.40625 169.296875 33.246094 169.296875 35.519531 C 169.296875 37.789062 167.453125 39.628906 165.183594 39.628906 L 119.988281 39.628906 C 117.71875 39.628906 115.878906 37.789062 115.878906 35.519531 C 115.878906 33.246094 117.71875 31.40625 119.988281 31.40625 Z M 119.988281 31.40625 " clip-rule="nonzero"/></clipPath><clipPath id="a2dcbb7ff4"><path d="M 164.773438 44.144531 L 178 44.144531 L 178 66.59375 L 164.773438 66.59375 Z M 164.773438 44.144531 " clip-rule="nonzero"/></clipPath><clipPath id="47b1854b93"><path d="M 164.773438 44.144531 C 170.101562 44.144531 174.882812 47.425781 176.796875 52.398438 C 178.714844 57.371094 177.371094 63.007812 173.417969 66.585938 L 164.773438 57.03125 Z M 164.773438 44.144531 " clip-rule="nonzero"/></clipPath><clipPath id="0df7f40daf"><path d="M 151.585938 56.324219 L 173.933594 56.324219 L 173.933594 70 L 151.585938 70 Z M 151.585938 56.324219 " clip-rule="nonzero"/></clipPath><clipPath id="4b18561558"><path d="M 173.886719 66.140625 C 170.117188 69.910156 164.417969 70.96875 159.546875 68.808594 C 154.675781 66.644531 151.640625 61.707031 151.90625 56.386719 L 164.773438 57.03125 Z M 173.886719 66.140625 " clip-rule="nonzero"/></clipPath><clipPath id="e659cadcb4"><path d="M 151.890625 44.144531 L 164.773438 44.144531 L 164.773438 57.03125 L 151.890625 57.03125 Z M 151.890625 44.144531 " clip-rule="nonzero"/></clipPath><clipPath id="e419e99724"><path d="M 151.890625 57.03125 C 151.890625 49.914062 157.65625 44.144531 164.773438 44.144531 L 164.773438 57.03125 Z M 151.890625 57.03125 " clip-rule="nonzero"/></clipPath><clipPath id="486abf1dbf"><path d="M 106.226562 78.554688 L 185.007812 78.554688 L 185.007812 133.15625 L 106.226562 133.15625 Z M 106.226562 78.554688 " clip-rule="nonzero"/></clipPath><clipPath id="517f551b02"><path d="M 115.550781 80.703125 L 175.6875 80.703125 L 175.6875 88.925781 L 115.550781 88.925781 Z M 115.550781 80.703125 " clip-rule="nonzero"/></clipPath><clipPath id="52d90bd5b4"><path d="M 119.285156 80.703125 L 171.949219 80.703125 C 172.941406 80.703125 173.890625 81.09375 174.589844 81.796875 C 175.292969 82.496094 175.6875 83.445312 175.6875 84.4375 L 175.6875 85.1875 C 175.6875 86.179688 175.292969 87.128906 174.589844 87.832031 C 173.890625 88.53125 172.941406 88.925781 171.949219 88.925781 L 119.285156 88.925781 C 118.292969 88.925781 117.34375 88.53125 116.644531 87.832031 C 115.941406 87.128906 115.550781 86.179688 115.550781 85.1875 L 115.550781 84.4375 C 115.550781 83.445312 115.941406 82.496094 116.644531 81.796875 C 117.34375 81.09375 118.292969 80.703125 119.285156 80.703125 Z M 119.285156 80.703125 " clip-rule="nonzero"/></clipPath><clipPath id="d88cfd32cc"><path d="M 106.222656 78.550781 L 112.105469 78.550781 L 112.105469 133.152344 L 106.222656 133.152344 Z M 106.222656 78.550781 " clip-rule="nonzero"/></clipPath><clipPath id="80dab71722"><path d="M 115.878906 91.617188 L 169.296875 91.617188 L 169.296875 99.84375 L 115.878906 99.84375 Z M 115.878906 91.617188 " clip-rule="nonzero"/></clipPath><clipPath id="c286b5dfaa"><path d="M 119.988281 91.617188 L 165.183594 91.617188 C 167.453125 91.617188 169.296875 93.460938 169.296875 95.730469 C 169.296875 98.003906 167.453125 99.84375 165.183594 99.84375 L 119.988281 99.84375 C 117.71875 99.84375 115.878906 98.003906 115.878906 95.730469 C 115.878906 93.460938 117.71875 91.617188 119.988281 91.617188 Z M 119.988281 91.617188 " clip-rule="nonzero"/></clipPath><clipPath id="6c050a59c9"><path d="M 164.773438 104.359375 L 178 104.359375 L 178 126.804688 L 164.773438 126.804688 Z M 164.773438 104.359375 " clip-rule="nonzero"/></clipPath><clipPath id="060b6ed613"><path d="M 164.773438 104.359375 C 170.101562 104.359375 174.882812 107.636719 176.796875 112.609375 C 178.714844 117.582031 177.371094 123.222656 173.417969 126.796875 L 164.773438 117.242188 Z M 164.773438 104.359375 " clip-rule="nonzero"/></clipPath><clipPath id="9a0842d790"><path d="M 151.585938 116.539062 L 173.933594 116.539062 L 173.933594 131 L 151.585938 131 Z M 151.585938 116.539062 " clip-rule="nonzero"/></clipPath><clipPath id="bec3476c9f"><path d="M 173.886719 126.355469 C 170.117188 130.121094 164.417969 131.183594 159.546875 129.019531 C 154.675781 126.859375 151.640625 121.921875 151.90625 116.597656 L 164.773438 117.242188 Z M 173.886719 126.355469 " clip-rule="nonzero"/></clipPath><clipPath id="dd526cf3dc"><path d="M 151.890625 104.359375 L 164.773438 104.359375 L 164.773438 117.242188 L 151.890625 117.242188 Z M 151.890625 104.359375 " clip-rule="nonzero"/></clipPath><clipPath id="4b241f4c4e"><path d="M 151.890625 117.242188 C 151.890625 110.128906 157.65625 104.359375 164.773438 104.359375 L 164.773438 117.242188 Z M 151.890625 117.242188 " clip-rule="nonzero"/></clipPath><clipPath id="f47fb16379"><path d="M 20.496094 18.339844 L 99.273438 18.339844 L 99.273438 72.941406 L 20.496094 72.941406 Z M 20.496094 18.339844 " clip-rule="nonzero"/></clipPath><clipPath id="43bf7e7bca"><path d="M 29.816406 20.488281 L 89.953125 20.488281 L 89.953125 28.710938 L 29.816406 28.710938 Z M 29.816406 20.488281 " clip-rule="nonzero"/></clipPath><clipPath id="6cd8055ed4"><path d="M 33.554688 20.488281 L 86.21875 20.488281 C 87.207031 20.488281 88.160156 20.882812 88.859375 21.582031 C 89.558594 22.28125 89.953125 23.234375 89.953125 24.222656 L 89.953125 24.976562 C 89.953125 25.96875 89.558594 26.917969 88.859375 27.617188 C 88.160156 28.320312 87.207031 28.710938 86.21875 28.710938 L 33.554688 28.710938 C 32.5625 28.710938 31.613281 28.320312 30.910156 27.617188 C 30.210938 26.917969 29.816406 25.96875 29.816406 24.976562 L 29.816406 24.222656 C 29.816406 23.234375 30.210938 22.28125 30.910156 21.582031 C 31.613281 20.882812 32.5625 20.488281 33.554688 20.488281 Z M 33.554688 20.488281 " clip-rule="nonzero"/></clipPath><clipPath id="fc3b7fc171"><path d="M 20.488281 18.335938 L 26.371094 18.335938 L 26.371094 72.9375 L 20.488281 72.9375 Z M 20.488281 18.335938 " clip-rule="nonzero"/></clipPath><clipPath id="52dda465b5"><path d="M 30.144531 31.40625 L 83.5625 31.40625 L 83.5625 39.628906 L 30.144531 39.628906 Z M 30.144531 31.40625 " clip-rule="nonzero"/></clipPath><clipPath id="90698c0666"><path d="M 34.257812 31.40625 L 79.449219 31.40625 C 81.722656 31.40625 83.5625 33.246094 83.5625 35.519531 C 83.5625 37.789062 81.722656 39.628906 79.449219 39.628906 L 34.257812 39.628906 C 31.988281 39.628906 30.144531 37.789062 30.144531 35.519531 C 30.144531 33.246094 31.988281 31.40625 34.257812 31.40625 Z M 34.257812 31.40625 " clip-rule="nonzero"/></clipPath><clipPath id="f7969d7a6f"><path d="M 79.042969 44.144531 L 92 44.144531 L 92 66.59375 L 79.042969 66.59375 Z M 79.042969 44.144531 " clip-rule="nonzero"/></clipPath><clipPath id="55f0b6910f"><path d="M 79.042969 44.144531 C 84.371094 44.144531 89.148438 47.425781 91.066406 52.398438 C 92.980469 57.371094 91.636719 63.007812 87.6875 66.585938 L 79.042969 57.03125 Z M 79.042969 44.144531 " clip-rule="nonzero"/></clipPath><clipPath id="467ed0c4c4"><path d="M 66 56.324219 L 88.203125 56.324219 L 88.203125 70 L 66 70 Z M 66 56.324219 " clip-rule="nonzero"/></clipPath><clipPath id="38ed947334"><path d="M 88.152344 66.140625 C 84.386719 69.910156 78.6875 70.96875 73.816406 68.808594 C 68.945312 66.644531 65.90625 61.707031 66.171875 56.386719 L 79.042969 57.03125 Z M 88.152344 66.140625 " clip-rule="nonzero"/></clipPath><clipPath id="2a656d270d"><path d="M 66.15625 44.144531 L 79.042969 44.144531 L 79.042969 57.03125 L 66.15625 57.03125 Z M 66.15625 44.144531 " clip-rule="nonzero"/></clipPath><clipPath id="876ef8ec5e"><path d="M 66.15625 57.03125 C 66.15625 49.914062 71.925781 44.144531 79.039062 44.144531 L 79.042969 57.03125 Z M 66.15625 57.03125 " clip-rule="nonzero"/></clipPath><clipPath id="2a68348ff1"><path d="M 20.496094 78.554688 L 99.273438 78.554688 L 99.273438 133.15625 L 20.496094 133.15625 Z M 20.496094 78.554688 " clip-rule="nonzero"/></clipPath><clipPath id="1ab0022acf"><path d="M 29.816406 80.703125 L 89.953125 80.703125 L 89.953125 88.925781 L 29.816406 88.925781 Z M 29.816406 80.703125 " clip-rule="nonzero"/></clipPath><clipPath id="c6f83aab21"><path d="M 33.554688 80.703125 L 86.21875 80.703125 C 87.207031 80.703125 88.160156 81.09375 88.859375 81.796875 C 89.558594 82.496094 89.953125 83.445312 89.953125 84.4375 L 89.953125 85.1875 C 89.953125 86.179688 89.558594 87.128906 88.859375 87.832031 C 88.160156 88.53125 87.207031 88.925781 86.21875 88.925781 L 33.554688 88.925781 C 32.5625 88.925781 31.613281 88.53125 30.910156 87.832031 C 30.210938 87.128906 29.816406 86.179688 29.816406 85.1875 L 29.816406 84.4375 C 29.816406 83.445312 30.210938 82.496094 30.910156 81.796875 C 31.613281 81.09375 32.5625 80.703125 33.554688 80.703125 Z M 33.554688 80.703125 " clip-rule="nonzero"/></clipPath><clipPath id="8abc7af25e"><path d="M 20.488281 78.550781 L 26.371094 78.550781 L 26.371094 133.152344 L 20.488281 133.152344 Z M 20.488281 78.550781 " clip-rule="nonzero"/></clipPath><clipPath id="8353c06fc5"><path d="M 30.144531 91.617188 L 83.5625 91.617188 L 83.5625 99.84375 L 30.144531 99.84375 Z M 30.144531 91.617188 " clip-rule="nonzero"/></clipPath><clipPath id="f2d013bfef"><path d="M 34.257812 91.617188 L 79.449219 91.617188 C 81.722656 91.617188 83.5625 93.460938 83.5625 95.730469 C 83.5625 98.003906 81.722656 99.84375 79.449219 99.84375 L 34.257812 99.84375 C 31.988281 99.84375 30.144531 98.003906 30.144531 95.730469 C 30.144531 93.460938 31.988281 91.617188 34.257812 91.617188 Z M 34.257812 91.617188 " clip-rule="nonzero"/></clipPath><clipPath id="ad38dc8019"><path d="M 79.042969 104.359375 L 92 104.359375 L 92 126.804688 L 79.042969 126.804688 Z M 79.042969 104.359375 " clip-rule="nonzero"/></clipPath><clipPath id="0bc83b0c0e"><path d="M 79.042969 104.359375 C 84.371094 104.359375 89.148438 107.636719 91.066406 112.609375 C 92.980469 117.582031 91.636719 123.222656 87.6875 126.796875 L 79.042969 117.242188 Z M 79.042969 104.359375 " clip-rule="nonzero"/></clipPath><clipPath id="9157d59006"><path d="M 66 116.539062 L 88.203125 116.539062 L 88.203125 131 L 66 131 Z M 66 116.539062 " clip-rule="nonzero"/></clipPath><clipPath id="879585cb54"><path d="M 88.152344 126.355469 C 84.386719 130.121094 78.6875 131.183594 73.816406 129.019531 C 68.945312 126.859375 65.90625 121.921875 66.171875 116.597656 L 79.042969 117.242188 Z M 88.152344 126.355469 " clip-rule="nonzero"/></clipPath><clipPath id="475b321d1b"><path d="M 66.15625 104.359375 L 79.042969 104.359375 L 79.042969 117.242188 L 66.15625 117.242188 Z M 66.15625 104.359375 " clip-rule="nonzero"/></clipPath><clipPath id="73b1abc8d7"><path d="M 66.15625 117.242188 C 66.15625 110.128906 71.925781 104.359375 79.039062 104.359375 L 79.042969 117.242188 Z M 66.15625 117.242188 " clip-rule="nonzero"/></clipPath></defs><g clip-path="url(#e494265d94)"><path fill="#ffffff" d="M 72.511719 153.855469 L 132.886719 153.855469 L 132.886719 174.929688 L 72.511719 174.929688 Z M 72.511719 153.855469 " fill-opacity="1" fill-rule="nonzero"/></g><g fill="#423e3e" fill-opacity="1"><g transform="translate(78.079353, 170.74471)"><g><path d="M 3.730469 -7.03125 C 3.730469 -9.578125 5.683594 -11.515625 8.050781 -11.515625 C 10.3125 -11.515625 11.40625 -10.097656 11.820312 -9.039062 L 14.382812 -10.292969 C 13.757812 -12.050781 11.675781 -14.257812 8.089844 -14.257812 C 4.089844 -14.257812 0.769531 -11.101562 0.769531 -7.011719 C 0.769531 -3.011719 3.710938 0.214844 8.050781 0.214844 C 11.476562 0.214844 14.707031 -2.082031 14.707031 -6.457031 L 14.707031 -7.550781 L 7.40625 -7.550781 L 7.40625 -4.914062 L 11.675781 -4.914062 C 11.335938 -3.53125 9.953125 -2.546875 8.050781 -2.546875 C 5.507812 -2.546875 3.730469 -4.589844 3.730469 -7.03125 Z M 3.730469 -7.03125 "/></g></g></g><g fill="#423e3e" fill-opacity="1"><g transform="translate(93.44941, 170.74471)"><g><path d="M 12.429688 0 L 9.253906 -5.488281 C 11.15625 -6.167969 12.140625 -7.585938 12.140625 -9.59375 C 12.140625 -12.574219 9.898438 -14.042969 7.175781 -14.042969 L 1.632812 -14.042969 L 1.632812 0 L 4.539062 0 L 4.539062 -5.039062 L 6.296875 -5.039062 L 9.199219 0 Z M 6.957031 -7.730469 L 4.539062 -7.730469 L 4.539062 -11.300781 L 6.941406 -11.300781 C 8.035156 -11.300781 9.199219 -10.886719 9.199219 -9.542969 C 9.199219 -8.214844 8.035156 -7.730469 6.957031 -7.730469 Z M 6.957031 -7.730469 "/></g></g></g><g fill="#423e3e" fill-opacity="1"><g transform="translate(106.559694, 170.74471)"><g><path d="M 4.539062 -14.042969 L 1.632812 -14.042969 L 1.632812 0 L 4.539062 0 Z M 4.539062 -14.042969 "/></g></g></g><g fill="#423e3e" fill-opacity="1"><g transform="translate(112.74717, 170.74471)"><g><path d="M 13.863281 -7.046875 C 13.863281 -11.460938 10.832031 -14.042969 5.9375 -14.042969 L 1.632812 -14.042969 L 1.632812 0 L 5.882812 0 C 10.851562 0 13.863281 -2.871094 13.863281 -7.046875 Z M 10.886719 -7.046875 C 10.886719 -4.285156 8.878906 -2.742188 5.972656 -2.742188 L 4.539062 -2.742188 L 4.539062 -11.300781 L 6.007812 -11.300781 C 8.769531 -11.300781 10.886719 -9.808594 10.886719 -7.046875 Z M 10.886719 -7.046875 "/></g></g></g><g clip-path="url(#490070b342)"><path fill="#ececec" d="M 6.664062 6.203125 L 198.839844 6.203125 L 198.839844 145.292969 L 6.664062 145.292969 Z M 6.664062 6.203125 " fill-opacity="1" fill-rule="nonzero"/></g><g clip-path="url(#ff3b56a90b)"><path fill="#bebebe" d="M 106.226562 18.339844 L 185.007812 18.339844 L 185.007812 72.941406 L 106.226562 72.941406 Z M 106.226562 18.339844 " fill-opacity="1" fill-rule="nonzero"/></g><g clip-path="url(#dcec7afd1a)"><g clip-path="url(#ff7d19cc39)"><path fill="#3c3b3d" d="M 115.550781 20.488281 L 175.6875 20.488281 L 175.6875 28.710938 L 115.550781 28.710938 Z M 115.550781 20.488281 " fill-opacity="1" fill-rule="nonzero"/></g></g><g clip-path="url(#f661bd3600)"><path fill="#3ec9e9" d="M 112.105469 18.335938 L 112.105469 72.9375 L 106.222656 72.9375 L 106.222656 18.335938 Z M 112.105469 18.335938 " fill-opacity="1" fill-rule="nonzero"/></g><g clip-path="url(#0e3171e71c)"><g clip-path="url(#25f9b13452)"><path fill="#625e5e" d="M 115.878906 31.40625 L 169.296875 31.40625 L 169.296875 39.628906 L 115.878906 39.628906 Z M 115.878906 31.40625 " fill-opacity="1" fill-rule="nonzero"/></g></g><g clip-path="url(#a2dcbb7ff4)"><g clip-path="url(#47b1854b93)"><path fill="#3d87e4" d="M 151.890625 44.144531 L 177.660156 44.144531 L 177.660156 69.914062 L 151.890625 69.914062 Z M 151.890625 44.144531 " fill-opacity="1" fill-rule="nonzero"/></g></g><g clip-path="url(#0df7f40daf)"><g clip-path="url(#4b18561558)"><path fill="#3ec9e9" d="M 151.890625 44.144531 L 177.660156 44.144531 L 177.660156 69.914062 L 151.890625 69.914062 Z M 151.890625 44.144531 " fill-opacity="1" fill-rule="nonzero"/></g></g><g clip-path="url(#e659cadcb4)"><g clip-path="url(#e419e99724)"><path fill="#3654d2" d="M 151.890625 44.144531 L 177.660156 44.144531 L 177.660156 69.914062 L 151.890625 69.914062 Z M 151.890625 44.144531 " fill-opacity="1" fill-rule="nonzero"/></g></g><g clip-path="url(#486abf1dbf)"><path fill="#bebebe" d="M 106.226562 78.554688 L 185.007812 78.554688 L 185.007812 133.15625 L 106.226562 133.15625 Z M 106.226562 78.554688 " fill-opacity="1" fill-rule="nonzero"/></g><g clip-path="url(#517f551b02)"><g clip-path="url(#52d90bd5b4)"><path fill="#3c3b3d" d="M 115.550781 80.703125 L 175.6875 80.703125 L 175.6875 88.925781 L 115.550781 88.925781 Z M 115.550781 80.703125 " fill-opacity="1" fill-rule="nonzero"/></g></g><g clip-path="url(#d88cfd32cc)"><path fill="#3ec9e9" d="M 112.105469 78.550781 L 112.105469 133.152344 L 106.222656 133.152344 L 106.222656 78.550781 Z M 112.105469 78.550781 " fill-opacity="1" fill-rule="nonzero"/></g><g clip-path="url(#80dab71722)"><g clip-path="url(#c286b5dfaa)"><path fill="#625e5e" d="M 115.878906 91.617188 L 169.296875 91.617188 L 169.296875 99.84375 L 115.878906 99.84375 Z M 115.878906 91.617188 " fill-opacity="1" fill-rule="nonzero"/></g></g><g clip-path="url(#6c050a59c9)"><g clip-path="url(#060b6ed613)"><path fill="#3d87e4" d="M 151.890625 104.359375 L 177.660156 104.359375 L 177.660156 130.128906 L 151.890625 130.128906 Z M 151.890625 104.359375 " fill-opacity="1" fill-rule="nonzero"/></g></g><g clip-path="url(#9a0842d790)"><g clip-path="url(#bec3476c9f)"><path fill="#3ec9e9" d="M 151.890625 104.359375 L 177.660156 104.359375 L 177.660156 130.128906 L 151.890625 130.128906 Z M 151.890625 104.359375 " fill-opacity="1" fill-rule="nonzero"/></g></g><g clip-path="url(#dd526cf3dc)"><g clip-path="url(#4b241f4c4e)"><path fill="#3654d2" d="M 151.890625 104.359375 L 177.660156 104.359375 L 177.660156 130.128906 L 151.890625 130.128906 Z M 151.890625 104.359375 " fill-opacity="1" fill-rule="nonzero"/></g></g><g clip-path="url(#f47fb16379)"><path fill="#bebebe" d="M 20.496094 18.339844 L 99.273438 18.339844 L 99.273438 72.941406 L 20.496094 72.941406 Z M 20.496094 18.339844 " fill-opacity="1" fill-rule="nonzero"/></g><g clip-path="url(#43bf7e7bca)"><g clip-path="url(#6cd8055ed4)"><path fill="#3c3b3d" d="M 29.816406 20.488281 L 89.953125 20.488281 L 89.953125 28.710938 L 29.816406 28.710938 Z M 29.816406 20.488281 " fill-opacity="1" fill-rule="nonzero"/></g></g><g clip-path="url(#fc3b7fc171)"><path fill="#3d87e4" d="M 26.371094 18.335938 L 26.371094 72.9375 L 20.488281 72.9375 L 20.488281 18.335938 Z M 26.371094 18.335938 " fill-opacity="1" fill-rule="nonzero"/></g><g clip-path="url(#52dda465b5)"><g clip-path="url(#90698c0666)"><path fill="#625e5e" d="M 30.144531 31.40625 L 83.5625 31.40625 L 83.5625 39.628906 L 30.144531 39.628906 Z M 30.144531 31.40625 " fill-opacity="1" fill-rule="nonzero"/></g></g><g clip-path="url(#f7969d7a6f)"><g clip-path="url(#55f0b6910f)"><path fill="#3d87e4" d="M 66.15625 44.144531 L 91.925781 44.144531 L 91.925781 69.914062 L 66.15625 69.914062 Z M 66.15625 44.144531 " fill-opacity="1" fill-rule="nonzero"/></g></g><g clip-path="url(#467ed0c4c4)"><g clip-path="url(#38ed947334)"><path fill="#3ec9e9" d="M 66.15625 44.144531 L 91.925781 44.144531 L 91.925781 69.914062 L 66.15625 69.914062 Z M 66.15625 44.144531 " fill-opacity="1" fill-rule="nonzero"/></g></g><g clip-path="url(#2a656d270d)"><g clip-path="url(#876ef8ec5e)"><path fill="#3654d2" d="M 66.15625 44.144531 L 91.925781 44.144531 L 91.925781 69.914062 L 66.15625 69.914062 Z M 66.15625 44.144531 " fill-opacity="1" fill-rule="nonzero"/></g></g><g clip-path="url(#2a68348ff1)"><path fill="#bebebe" d="M 20.496094 78.554688 L 99.273438 78.554688 L 99.273438 133.15625 L 20.496094 133.15625 Z M 20.496094 78.554688 " fill-opacity="1" fill-rule="nonzero"/></g><g clip-path="url(#1ab0022acf)"><g clip-path="url(#c6f83aab21)"><path fill="#3c3b3d" d="M 29.816406 80.703125 L 89.953125 80.703125 L 89.953125 88.925781 L 29.816406 88.925781 Z M 29.816406 80.703125 " fill-opacity="1" fill-rule="nonzero"/></g></g><g clip-path="url(#8abc7af25e)"><path fill="#3654d2" d="M 26.371094 78.550781 L 26.371094 133.152344 L 20.488281 133.152344 L 20.488281 78.550781 Z M 26.371094 78.550781 " fill-opacity="1" fill-rule="nonzero"/></g><g clip-path="url(#8353c06fc5)"><g clip-path="url(#f2d013bfef)"><path fill="#625e5e" d="M 30.144531 91.617188 L 83.5625 91.617188 L 83.5625 99.84375 L 30.144531 99.84375 Z M 30.144531 91.617188 " fill-opacity="1" fill-rule="nonzero"/></g></g><g clip-path="url(#ad38dc8019)"><g clip-path="url(#0bc83b0c0e)"><path fill="#3d87e4" d="M 66.15625 104.359375 L 91.925781 104.359375 L 91.925781 130.128906 L 66.15625 130.128906 Z M 66.15625 104.359375 " fill-opacity="1" fill-rule="nonzero"/></g></g><g clip-path="url(#9157d59006)"><g clip-path="url(#879585cb54)"><path fill="#3ec9e9" d="M 66.15625 104.359375 L 91.925781 104.359375 L 91.925781 130.128906 L 66.15625 130.128906 Z M 66.15625 104.359375 " fill-opacity="1" fill-rule="nonzero"/></g></g><g clip-path="url(#475b321d1b)"><g clip-path="url(#73b1abc8d7)"><path fill="#3654d2" d="M 66.15625 104.359375 L 91.925781 104.359375 L 91.925781 130.128906 L 66.15625 130.128906 Z M 66.15625 104.359375 " fill-opacity="1" fill-rule="nonzero"/></g></g></svg>