<svg xmlns="http://www.w3.org/2000/svg" xmlns:xlink="http://www.w3.org/1999/xlink" width="300" zoomAndPan="magnify" viewBox="0 0 224.87999 168.749997" height="225" preserveAspectRatio="xMidYMid meet" version="1.0"><defs><g/><clipPath id="a121020727"><path d="M 5.984375 6.058594 L 219.1875 6.058594 L 219.1875 162.441406 L 5.984375 162.441406 Z M 5.984375 6.058594 " clip-rule="nonzero"/></clipPath><clipPath id="efc9bf9ca2"><path d="M 114.992188 28.136719 L 172.855469 28.136719 L 172.855469 68.242188 L 114.992188 68.242188 Z M 114.992188 28.136719 " clip-rule="nonzero"/></clipPath><clipPath id="1620c2cc98"><path d="M 121.839844 29.714844 L 166.011719 29.714844 L 166.011719 35.753906 L 121.839844 35.753906 Z M 121.839844 29.714844 " clip-rule="nonzero"/></clipPath><clipPath id="f9de24f26f"><path d="M 124.859375 29.714844 L 162.988281 29.714844 C 164.65625 29.714844 166.007812 31.066406 166.007812 32.734375 C 166.007812 34.402344 164.65625 35.753906 162.988281 35.753906 L 124.859375 35.753906 C 123.191406 35.753906 121.839844 34.402344 121.839844 32.734375 C 121.839844 31.066406 123.191406 29.714844 124.859375 29.714844 Z M 124.859375 29.714844 " clip-rule="nonzero"/></clipPath><clipPath id="b13b596733"><path d="M 114.992188 28.136719 L 119.3125 28.136719 L 119.3125 68.242188 L 114.992188 68.242188 Z M 114.992188 28.136719 " clip-rule="nonzero"/></clipPath><clipPath id="44a4af5e85"><path d="M 122.082031 37.734375 L 161.320312 37.734375 L 161.320312 43.773438 L 122.082031 43.773438 Z M 122.082031 37.734375 " clip-rule="nonzero"/></clipPath><clipPath id="87bed39601"><path d="M 125.101562 37.734375 L 158.296875 37.734375 C 159.964844 37.734375 161.316406 39.085938 161.316406 40.753906 C 161.316406 42.421875 159.964844 43.773438 158.296875 43.773438 L 125.101562 43.773438 C 123.433594 43.773438 122.082031 42.421875 122.082031 40.753906 C 122.082031 39.085938 123.433594 37.734375 125.101562 37.734375 Z M 125.101562 37.734375 " clip-rule="nonzero"/></clipPath><clipPath id="2e7219d57d"><path d="M 114.992188 72.363281 L 172.855469 72.363281 L 172.855469 112.46875 L 114.992188 112.46875 Z M 114.992188 72.363281 " clip-rule="nonzero"/></clipPath><clipPath id="d069fd0dcf"><path d="M 121.839844 73.941406 L 166.011719 73.941406 L 166.011719 79.980469 L 121.839844 79.980469 Z M 121.839844 73.941406 " clip-rule="nonzero"/></clipPath><clipPath id="c0c665e25a"><path d="M 124.859375 73.941406 L 162.988281 73.941406 C 164.65625 73.941406 166.007812 75.292969 166.007812 76.960938 C 166.007812 78.628906 164.65625 79.980469 162.988281 79.980469 L 124.859375 79.980469 C 123.191406 79.980469 121.839844 78.628906 121.839844 76.960938 C 121.839844 75.292969 123.191406 73.941406 124.859375 73.941406 Z M 124.859375 73.941406 " clip-rule="nonzero"/></clipPath><clipPath id="ee2dc9a3be"><path d="M 114.992188 72.363281 L 119.3125 72.363281 L 119.3125 112.46875 L 114.992188 112.46875 Z M 114.992188 72.363281 " clip-rule="nonzero"/></clipPath><clipPath id="5d334a9d9d"><path d="M 122.082031 81.960938 L 161.320312 81.960938 L 161.320312 88 L 122.082031 88 Z M 122.082031 81.960938 " clip-rule="nonzero"/></clipPath><clipPath id="b780b5141d"><path d="M 125.101562 81.960938 L 158.296875 81.960938 C 159.964844 81.960938 161.316406 83.3125 161.316406 84.980469 C 161.316406 86.648438 159.964844 88 158.296875 88 L 125.101562 88 C 123.433594 88 122.082031 86.648438 122.082031 84.980469 C 122.082031 83.3125 123.433594 81.960938 125.101562 81.960938 Z M 125.101562 81.960938 " clip-rule="nonzero"/></clipPath><clipPath id="464da15f67"><path d="M 52.023438 28.136719 L 109.886719 28.136719 L 109.886719 68.242188 L 52.023438 68.242188 Z M 52.023438 28.136719 " clip-rule="nonzero"/></clipPath><clipPath id="c0c43a903c"><path d="M 58.871094 29.714844 L 103.042969 29.714844 L 103.042969 35.753906 L 58.871094 35.753906 Z M 58.871094 29.714844 " clip-rule="nonzero"/></clipPath><clipPath id="327fadcd39"><path d="M 61.890625 29.714844 L 100.019531 29.714844 C 101.6875 29.714844 103.039062 31.066406 103.039062 32.734375 C 103.039062 34.402344 101.6875 35.753906 100.019531 35.753906 L 61.890625 35.753906 C 60.222656 35.753906 58.871094 34.402344 58.871094 32.734375 C 58.871094 31.066406 60.222656 29.714844 61.890625 29.714844 Z M 61.890625 29.714844 " clip-rule="nonzero"/></clipPath><clipPath id="5ad4a0862d"><path d="M 52.019531 28.136719 L 56.339844 28.136719 L 56.339844 68.242188 L 52.019531 68.242188 Z M 52.019531 28.136719 " clip-rule="nonzero"/></clipPath><clipPath id="9ea5830906"><path d="M 59.113281 37.734375 L 98.351562 37.734375 L 98.351562 43.773438 L 59.113281 43.773438 Z M 59.113281 37.734375 " clip-rule="nonzero"/></clipPath><clipPath id="3997d1d18d"><path d="M 62.132812 37.734375 L 95.324219 37.734375 C 96.992188 37.734375 98.347656 39.085938 98.347656 40.753906 C 98.347656 42.421875 96.992188 43.773438 95.324219 43.773438 L 62.132812 43.773438 C 60.464844 43.773438 59.113281 42.421875 59.113281 40.753906 C 59.113281 39.085938 60.464844 37.734375 62.132812 37.734375 Z M 62.132812 37.734375 " clip-rule="nonzero"/></clipPath><clipPath id="1d3ab10697"><path d="M 52.023438 72.363281 L 109.886719 72.363281 L 109.886719 112.46875 L 52.023438 112.46875 Z M 52.023438 72.363281 " clip-rule="nonzero"/></clipPath><clipPath id="4dcb89c0e6"><path d="M 58.871094 73.941406 L 103.042969 73.941406 L 103.042969 79.980469 L 58.871094 79.980469 Z M 58.871094 73.941406 " clip-rule="nonzero"/></clipPath><clipPath id="ca41029a23"><path d="M 61.890625 73.941406 L 100.019531 73.941406 C 101.6875 73.941406 103.039062 75.292969 103.039062 76.960938 C 103.039062 78.628906 101.6875 79.980469 100.019531 79.980469 L 61.890625 79.980469 C 60.222656 79.980469 58.871094 78.628906 58.871094 76.960938 C 58.871094 75.292969 60.222656 73.941406 61.890625 73.941406 Z M 61.890625 73.941406 " clip-rule="nonzero"/></clipPath><clipPath id="c99d1f240f"><path d="M 52.019531 72.363281 L 56.339844 72.363281 L 56.339844 112.46875 L 52.019531 112.46875 Z M 52.019531 72.363281 " clip-rule="nonzero"/></clipPath><clipPath id="81080b8e17"><path d="M 59.113281 81.960938 L 98.351562 81.960938 L 98.351562 88 L 59.113281 88 Z M 59.113281 81.960938 " clip-rule="nonzero"/></clipPath><clipPath id="8be25201b7"><path d="M 62.132812 81.960938 L 95.324219 81.960938 C 96.992188 81.960938 98.347656 83.3125 98.347656 84.980469 C 98.347656 86.648438 96.992188 88 95.324219 88 L 62.132812 88 C 60.464844 88 59.113281 86.648438 59.113281 84.980469 C 59.113281 83.3125 60.464844 81.960938 62.132812 81.960938 Z M 62.132812 81.960938 " clip-rule="nonzero"/></clipPath></defs><g clip-path="url(#a121020727)"><path fill="#ececec" d="M 5.984375 6.058594 L 219.179688 6.058594 L 219.179688 162.441406 L 5.984375 162.441406 Z M 5.984375 6.058594 " fill-opacity="1" fill-rule="nonzero"/></g><g clip-path="url(#efc9bf9ca2)"><path fill="#bebebe" d="M 114.992188 28.136719 L 172.800781 28.136719 L 172.800781 68.242188 L 114.992188 68.242188 Z M 114.992188 28.136719 " fill-opacity="1" fill-rule="nonzero"/></g><g clip-path="url(#1620c2cc98)"><g clip-path="url(#f9de24f26f)"><path fill="#3c3b3d" d="M 121.839844 29.714844 L 166.011719 29.714844 L 166.011719 35.753906 L 121.839844 35.753906 Z M 121.839844 29.714844 " fill-opacity="1" fill-rule="nonzero"/></g></g><g clip-path="url(#b13b596733)"><path fill="#96e17b" d="M 119.3125 28.136719 L 119.3125 68.238281 L 114.992188 68.238281 L 114.992188 28.136719 Z M 119.3125 28.136719 " fill-opacity="1" fill-rule="nonzero"/></g><g clip-path="url(#44a4af5e85)"><g clip-path="url(#87bed39601)"><path fill="#625e5e" d="M 122.082031 37.734375 L 161.320312 37.734375 L 161.320312 43.773438 L 122.082031 43.773438 Z M 122.082031 37.734375 " fill-opacity="1" fill-rule="nonzero"/></g></g><g clip-path="url(#2e7219d57d)"><path fill="#bebebe" d="M 114.992188 72.363281 L 172.800781 72.363281 L 172.800781 112.46875 L 114.992188 112.46875 Z M 114.992188 72.363281 " fill-opacity="1" fill-rule="nonzero"/></g><g clip-path="url(#d069fd0dcf)"><g clip-path="url(#c0c665e25a)"><path fill="#3c3b3d" d="M 121.839844 73.941406 L 166.011719 73.941406 L 166.011719 79.980469 L 121.839844 79.980469 Z M 121.839844 73.941406 " fill-opacity="1" fill-rule="nonzero"/></g></g><g clip-path="url(#ee2dc9a3be)"><path fill="#51b6ff" d="M 119.3125 72.363281 L 119.3125 112.464844 L 114.992188 112.464844 L 114.992188 72.363281 Z M 119.3125 72.363281 " fill-opacity="1" fill-rule="nonzero"/></g><g clip-path="url(#5d334a9d9d)"><g clip-path="url(#b780b5141d)"><path fill="#625e5e" d="M 122.082031 81.960938 L 161.320312 81.960938 L 161.320312 88 L 122.082031 88 Z M 122.082031 81.960938 " fill-opacity="1" fill-rule="nonzero"/></g></g><g clip-path="url(#464da15f67)"><path fill="#bebebe" d="M 52.023438 28.136719 L 109.828125 28.136719 L 109.828125 68.242188 L 52.023438 68.242188 Z M 52.023438 28.136719 " fill-opacity="1" fill-rule="nonzero"/></g><g clip-path="url(#c0c43a903c)"><g clip-path="url(#327fadcd39)"><path fill="#3c3b3d" d="M 58.871094 29.714844 L 103.042969 29.714844 L 103.042969 35.753906 L 58.871094 35.753906 Z M 58.871094 29.714844 " fill-opacity="1" fill-rule="nonzero"/></g></g><g clip-path="url(#5ad4a0862d)"><path fill="#8b73ff" d="M 56.339844 28.136719 L 56.339844 68.238281 L 52.019531 68.238281 L 52.019531 28.136719 Z M 56.339844 28.136719 " fill-opacity="1" fill-rule="nonzero"/></g><g clip-path="url(#9ea5830906)"><g clip-path="url(#3997d1d18d)"><path fill="#625e5e" d="M 59.113281 37.734375 L 98.351562 37.734375 L 98.351562 43.773438 L 59.113281 43.773438 Z M 59.113281 37.734375 " fill-opacity="1" fill-rule="nonzero"/></g></g><g clip-path="url(#1d3ab10697)"><path fill="#bebebe" d="M 52.023438 72.363281 L 109.828125 72.363281 L 109.828125 112.46875 L 52.023438 112.46875 Z M 52.023438 72.363281 " fill-opacity="1" fill-rule="nonzero"/></g><g clip-path="url(#4dcb89c0e6)"><g clip-path="url(#ca41029a23)"><path fill="#3c3b3d" d="M 58.871094 73.941406 L 103.042969 73.941406 L 103.042969 79.980469 L 58.871094 79.980469 Z M 58.871094 73.941406 " fill-opacity="1" fill-rule="nonzero"/></g></g><g clip-path="url(#c99d1f240f)"><path fill="#ff9861" d="M 56.339844 72.363281 L 56.339844 112.464844 L 52.019531 112.464844 L 52.019531 72.363281 Z M 56.339844 72.363281 " fill-opacity="1" fill-rule="nonzero"/></g><g clip-path="url(#81080b8e17)"><g clip-path="url(#8be25201b7)"><path fill="#625e5e" d="M 59.113281 81.960938 L 98.351562 81.960938 L 98.351562 88 L 59.113281 88 Z M 59.113281 81.960938 " fill-opacity="1" fill-rule="nonzero"/></g></g><path fill="#8b73ff" d="M 157.996094 47.089844 C 158.929688 47.089844 159.847656 47.226562 160.742188 47.496094 C 161.636719 47.769531 162.476562 48.164062 163.253906 48.683594 C 164.03125 49.203125 164.71875 49.828125 165.3125 50.550781 C 165.90625 51.273438 166.378906 52.066406 166.738281 52.933594 C 167.097656 53.796875 167.320312 54.695312 167.414062 55.625 C 167.503906 56.558594 167.460938 57.484375 167.277344 58.398438 C 167.09375 59.316406 166.78125 60.191406 166.339844 61.015625 C 165.902344 61.839844 165.347656 62.585938 164.6875 63.246094 L 157.996094 56.554688 Z M 157.996094 47.089844 " fill-opacity="1" fill-rule="nonzero"/><path fill="#96e17b" d="M 164.6875 63.246094 C 164.027344 63.90625 163.28125 64.460938 162.457031 64.902344 C 161.632812 65.339844 160.757812 65.652344 159.839844 65.835938 C 158.921875 66.019531 158 66.0625 157.066406 65.972656 C 156.136719 65.878906 155.238281 65.65625 154.375 65.296875 C 153.507812 64.9375 152.714844 64.464844 151.992188 63.871094 C 151.269531 63.277344 150.644531 62.589844 150.125 61.8125 C 149.605469 61.035156 149.210938 60.195312 148.9375 59.300781 C 148.667969 58.40625 148.53125 57.488281 148.53125 56.554688 L 157.996094 56.554688 Z M 164.6875 63.246094 " fill-opacity="1" fill-rule="nonzero"/><path fill="#ff9861" d="M 148.53125 56.554688 C 148.53125 55.933594 148.59375 55.316406 148.714844 54.707031 C 148.835938 54.097656 149.015625 53.507812 149.25 52.933594 C 149.488281 52.359375 149.78125 51.8125 150.125 51.296875 C 150.472656 50.78125 150.863281 50.300781 151.304688 49.863281 C 151.742188 49.421875 152.21875 49.03125 152.738281 48.683594 C 153.253906 48.339844 153.800781 48.046875 154.371094 47.8125 C 154.945312 47.574219 155.539062 47.394531 156.148438 47.273438 C 156.757812 47.152344 157.371094 47.089844 157.996094 47.089844 L 157.996094 56.554688 Z M 148.53125 56.554688 " fill-opacity="1" fill-rule="nonzero"/><path fill="#8b73ff" d="M 95.027344 47.089844 C 95.960938 47.089844 96.878906 47.226562 97.773438 47.496094 C 98.667969 47.769531 99.503906 48.164062 100.285156 48.683594 C 101.0625 49.203125 101.746094 49.828125 102.339844 50.550781 C 102.933594 51.273438 103.410156 52.066406 103.769531 52.933594 C 104.128906 53.796875 104.351562 54.695312 104.445312 55.625 C 104.535156 56.558594 104.492188 57.484375 104.308594 58.398438 C 104.125 59.316406 103.8125 60.191406 103.371094 61.015625 C 102.929688 61.839844 102.378906 62.585938 101.71875 63.246094 L 95.027344 56.554688 Z M 95.027344 47.089844 " fill-opacity="1" fill-rule="nonzero"/><path fill="#96e17b" d="M 101.71875 63.246094 C 101.054688 63.90625 100.3125 64.460938 99.488281 64.902344 C 98.660156 65.339844 97.789062 65.652344 96.871094 65.835938 C 95.953125 66.019531 95.03125 66.0625 94.097656 65.972656 C 93.167969 65.878906 92.269531 65.65625 91.402344 65.296875 C 90.539062 64.9375 89.746094 64.464844 89.023438 63.871094 C 88.296875 63.277344 87.675781 62.589844 87.15625 61.8125 C 86.636719 61.035156 86.242188 60.195312 85.96875 59.300781 C 85.699219 58.40625 85.5625 57.488281 85.5625 56.554688 L 95.027344 56.554688 Z M 101.71875 63.246094 " fill-opacity="1" fill-rule="nonzero"/><path fill="#ff9861" d="M 85.5625 56.554688 C 85.5625 55.933594 85.621094 55.316406 85.742188 54.707031 C 85.863281 54.097656 86.042969 53.507812 86.28125 52.933594 C 86.519531 52.359375 86.8125 51.8125 87.15625 51.296875 C 87.5 50.78125 87.894531 50.300781 88.332031 49.863281 C 88.773438 49.421875 89.25 49.03125 89.765625 48.683594 C 90.285156 48.339844 90.828125 48.046875 91.402344 47.8125 C 91.976562 47.574219 92.570312 47.394531 93.179688 47.273438 C 93.789062 47.152344 94.402344 47.089844 95.023438 47.089844 L 95.027344 56.554688 Z M 85.5625 56.554688 " fill-opacity="1" fill-rule="nonzero"/><path fill="#8b73ff" d="M 157.996094 91.316406 C 158.929688 91.316406 159.847656 91.453125 160.742188 91.722656 C 161.636719 91.996094 162.476562 92.390625 163.253906 92.910156 C 164.03125 93.429688 164.71875 94.054688 165.3125 94.777344 C 165.90625 95.5 166.378906 96.292969 166.738281 97.160156 C 167.097656 98.023438 167.320312 98.921875 167.414062 99.851562 C 167.503906 100.785156 167.460938 101.707031 167.277344 102.625 C 167.09375 103.542969 166.78125 104.414062 166.339844 105.242188 C 165.902344 106.066406 165.347656 106.808594 164.6875 107.472656 L 157.996094 100.78125 Z M 157.996094 91.316406 " fill-opacity="1" fill-rule="nonzero"/><path fill="#96e17b" d="M 164.6875 107.472656 C 164.027344 108.132812 163.28125 108.683594 162.457031 109.125 C 161.632812 109.566406 160.757812 109.878906 159.839844 110.0625 C 158.921875 110.246094 158 110.289062 157.066406 110.199219 C 156.136719 110.105469 155.238281 109.882812 154.375 109.523438 C 153.507812 109.164062 152.714844 108.691406 151.992188 108.097656 C 151.269531 107.503906 150.644531 106.816406 150.125 106.039062 C 149.605469 105.261719 149.210938 104.421875 148.9375 103.527344 C 148.667969 102.632812 148.53125 101.714844 148.53125 100.78125 L 157.996094 100.78125 Z M 164.6875 107.472656 " fill-opacity="1" fill-rule="nonzero"/><path fill="#ff9861" d="M 148.53125 100.78125 C 148.53125 100.160156 148.59375 99.542969 148.714844 98.933594 C 148.835938 98.324219 149.015625 97.734375 149.25 97.160156 C 149.488281 96.585938 149.78125 96.039062 150.125 95.523438 C 150.472656 95.007812 150.863281 94.527344 151.304688 94.089844 C 151.742188 93.648438 152.21875 93.257812 152.738281 92.910156 C 153.253906 92.566406 153.800781 92.273438 154.371094 92.035156 C 154.945312 91.800781 155.539062 91.621094 156.148438 91.5 C 156.757812 91.378906 157.371094 91.316406 157.996094 91.316406 L 157.996094 100.78125 Z M 148.53125 100.78125 " fill-opacity="1" fill-rule="nonzero"/><path fill="#8b73ff" d="M 95.027344 91.316406 C 95.960938 91.316406 96.878906 91.453125 97.773438 91.722656 C 98.667969 91.996094 99.503906 92.390625 100.285156 92.910156 C 101.0625 93.429688 101.746094 94.054688 102.339844 94.777344 C 102.933594 95.5 103.410156 96.292969 103.769531 97.160156 C 104.128906 98.023438 104.351562 98.921875 104.445312 99.851562 C 104.535156 100.785156 104.492188 101.707031 104.308594 102.625 C 104.125 103.542969 103.8125 104.414062 103.371094 105.242188 C 102.929688 106.066406 102.378906 106.808594 101.71875 107.472656 L 95.027344 100.78125 Z M 95.027344 91.316406 " fill-opacity="1" fill-rule="nonzero"/><path fill="#96e17b" d="M 101.71875 107.472656 C 101.054688 108.132812 100.3125 108.683594 99.488281 109.125 C 98.660156 109.566406 97.789062 109.878906 96.871094 110.0625 C 95.953125 110.246094 95.03125 110.289062 94.097656 110.199219 C 93.167969 110.105469 92.269531 109.882812 91.402344 109.523438 C 90.539062 109.164062 89.746094 108.691406 89.023438 108.097656 C 88.296875 107.503906 87.675781 106.816406 87.15625 106.039062 C 86.636719 105.261719 86.242188 104.421875 85.96875 103.527344 C 85.699219 102.632812 85.5625 101.714844 85.5625 100.78125 L 95.027344 100.78125 Z M 101.71875 107.472656 " fill-opacity="1" fill-rule="nonzero"/><path fill="#ff9861" d="M 85.5625 100.78125 C 85.5625 100.160156 85.621094 99.542969 85.742188 98.933594 C 85.863281 98.324219 86.042969 97.734375 86.28125 97.160156 C 86.519531 96.585938 86.8125 96.039062 87.15625 95.523438 C 87.5 95.007812 87.894531 94.527344 88.332031 94.089844 C 88.773438 93.648438 89.25 93.257812 89.765625 92.910156 C 90.285156 92.566406 90.828125 92.273438 91.402344 92.035156 C 91.976562 91.800781 92.570312 91.621094 93.179688 91.5 C 93.789062 91.378906 94.402344 91.316406 95.023438 91.316406 L 95.027344 100.78125 Z M 85.5625 100.78125 " fill-opacity="1" fill-rule="nonzero"/><g fill="#423e3e" fill-opacity="1"><g transform="translate(86.349976, 145.878556)"><g><path d="M 3.953125 -7.4375 C 3.953125 -6.570312 4.144531 -5.78125 4.53125 -5.0625 C 4.914062 -4.34375 5.453125 -3.765625 6.140625 -3.328125 C 6.828125 -2.898438 7.617188 -2.6875 8.515625 -2.6875 C 9.523438 -2.6875 10.367188 -2.921875 11.046875 -3.390625 C 11.734375 -3.859375 12.164062 -4.460938 12.34375 -5.203125 L 7.828125 -5.203125 L 7.828125 -7.984375 L 15.546875 -7.984375 L 15.546875 -6.828125 C 15.546875 -5.679688 15.351562 -4.664062 14.96875 -3.78125 C 14.582031 -2.894531 14.054688 -2.15625 13.390625 -1.5625 C 12.734375 -0.976562 11.984375 -0.53125 11.140625 -0.21875 C 10.296875 0.0820312 9.421875 0.234375 8.515625 0.234375 C 7.367188 0.234375 6.320312 0.0351562 5.375 -0.359375 C 4.4375 -0.765625 3.625 -1.3125 2.9375 -2 C 2.257812 -2.695312 1.734375 -3.507812 1.359375 -4.4375 C 0.992188 -5.363281 0.8125 -6.359375 0.8125 -7.421875 C 0.8125 -8.503906 1.015625 -9.503906 1.421875 -10.421875 C 1.828125 -11.347656 2.382812 -12.160156 3.09375 -12.859375 C 3.8125 -13.566406 4.632812 -14.113281 5.5625 -14.5 C 6.5 -14.882812 7.5 -15.078125 8.5625 -15.078125 C 9.507812 -15.078125 10.359375 -14.945312 11.109375 -14.6875 C 11.859375 -14.425781 12.507812 -14.085938 13.0625 -13.671875 C 13.613281 -13.253906 14.066406 -12.800781 14.421875 -12.3125 C 14.785156 -11.832031 15.050781 -11.359375 15.21875 -10.890625 L 12.5 -9.5625 C 12.363281 -9.9375 12.132812 -10.328125 11.8125 -10.734375 C 11.488281 -11.140625 11.054688 -11.476562 10.515625 -11.75 C 9.984375 -12.03125 9.316406 -12.171875 8.515625 -12.171875 C 7.679688 -12.171875 6.921875 -11.960938 6.234375 -11.546875 C 5.546875 -11.128906 4.992188 -10.5625 4.578125 -9.84375 C 4.160156 -9.132812 3.953125 -8.332031 3.953125 -7.4375 Z M 3.953125 -7.4375 "/></g></g></g><g fill="#423e3e" fill-opacity="1"><g transform="translate(102.605571, 145.878556)"><g><path d="M 13.140625 0 L 9.734375 0 L 6.65625 -5.328125 L 4.796875 -5.328125 L 4.796875 0 L 1.71875 0 L 1.71875 -14.859375 L 7.59375 -14.859375 C 8.550781 -14.859375 9.425781 -14.679688 10.21875 -14.328125 C 11.019531 -13.984375 11.65625 -13.460938 12.125 -12.765625 C 12.601562 -12.066406 12.84375 -11.191406 12.84375 -10.140625 C 12.84375 -7.984375 11.820312 -6.535156 9.78125 -5.796875 Z M 7.359375 -8.171875 C 7.734375 -8.171875 8.101562 -8.234375 8.46875 -8.359375 C 8.84375 -8.492188 9.144531 -8.695312 9.375 -8.96875 C 9.613281 -9.25 9.734375 -9.625 9.734375 -10.09375 C 9.734375 -10.570312 9.613281 -10.941406 9.375 -11.203125 C 9.132812 -11.472656 8.832031 -11.664062 8.46875 -11.78125 C 8.101562 -11.894531 7.726562 -11.953125 7.34375 -11.953125 L 4.796875 -11.953125 L 4.796875 -8.171875 Z M 7.359375 -8.171875 "/></g></g></g><g fill="#423e3e" fill-opacity="1"><g transform="translate(116.471186, 145.878556)"><g><path d="M 4.796875 -14.859375 L 4.796875 0 L 1.71875 0 L 1.71875 -14.859375 Z M 4.796875 -14.859375 "/></g></g></g><g fill="#423e3e" fill-opacity="1"><g transform="translate(123.015156, 145.878556)"><g><path d="M 14.65625 -7.453125 C 14.65625 -5.984375 14.316406 -4.6875 13.640625 -3.5625 C 12.972656 -2.4375 12.007812 -1.5625 10.75 -0.9375 C 9.488281 -0.3125 7.976562 0 6.21875 0 L 1.71875 0 L 1.71875 -14.859375 L 6.28125 -14.859375 C 8.007812 -14.859375 9.5 -14.566406 10.75 -13.984375 C 12.007812 -13.398438 12.972656 -12.550781 13.640625 -11.4375 C 14.316406 -10.332031 14.65625 -9.003906 14.65625 -7.453125 Z M 11.515625 -7.453125 C 11.515625 -8.429688 11.285156 -9.253906 10.828125 -9.921875 C 10.367188 -10.585938 9.75 -11.09375 8.96875 -11.4375 C 8.195312 -11.78125 7.328125 -11.953125 6.359375 -11.953125 L 4.796875 -11.953125 L 4.796875 -2.90625 L 6.3125 -2.90625 C 7.34375 -2.90625 8.25 -3.082031 9.03125 -3.4375 C 9.8125 -3.789062 10.421875 -4.304688 10.859375 -4.984375 C 11.296875 -5.660156 11.515625 -6.484375 11.515625 -7.453125 Z M 11.515625 -7.453125 "/></g></g></g></svg>