<svg xmlns="http://www.w3.org/2000/svg" xmlns:xlink="http://www.w3.org/1999/xlink" width="275" zoomAndPan="magnify" viewBox="0 0 206.25 187.499992" height="250" preserveAspectRatio="xMidYMid meet" version="1.0"><defs><g/><clipPath id="5072695862"><path d="M 6.664062 6.203125 L 198.839844 6.203125 L 198.839844 145.292969 L 6.664062 145.292969 Z M 6.664062 6.203125 " clip-rule="nonzero"/></clipPath><clipPath id="b5cff350ad"><path d="M 56.828125 151.675781 L 153.050781 151.675781 L 153.050781 179.699219 L 56.828125 179.699219 Z M 56.828125 151.675781 " clip-rule="nonzero"/></clipPath><clipPath id="34edc39ef8"><path d="M 90.34375 78.234375 L 116.996094 78.234375 L 116.996094 90.992188 L 90.34375 90.992188 Z M 90.34375 78.234375 " clip-rule="nonzero"/></clipPath><clipPath id="c9fd3558e5"><path d="M 118.960938 78.234375 L 145.613281 78.234375 L 145.613281 90.992188 L 118.960938 90.992188 Z M 118.960938 78.234375 " clip-rule="nonzero"/></clipPath><clipPath id="cb5daf6f60"><path d="M 147.761719 78.234375 L 174.414062 78.234375 L 174.414062 90.992188 L 147.761719 90.992188 Z M 147.761719 78.234375 " clip-rule="nonzero"/></clipPath><clipPath id="862705b2e0"><path d="M 90.34375 94.699219 L 116.996094 94.699219 L 116.996094 107.460938 L 90.34375 107.460938 Z M 90.34375 94.699219 " clip-rule="nonzero"/></clipPath><clipPath id="cf758e4c63"><path d="M 118.960938 94.699219 L 145.613281 94.699219 L 145.613281 107.460938 L 118.960938 107.460938 Z M 118.960938 94.699219 " clip-rule="nonzero"/></clipPath><clipPath id="c7dbdd7530"><path d="M 147.761719 94.699219 L 174.414062 94.699219 L 174.414062 107.460938 L 147.761719 107.460938 Z M 147.761719 94.699219 " clip-rule="nonzero"/></clipPath><clipPath id="bf895b4bfb"><path d="M 90.34375 63.023438 L 174.414062 63.023438 L 174.414062 74.472656 L 90.34375 74.472656 Z M 90.34375 63.023438 " clip-rule="nonzero"/></clipPath><clipPath id="d1d9dd9829"><path d="M 90.34375 111.21875 L 116.996094 111.21875 L 116.996094 123.980469 L 90.34375 123.980469 Z M 90.34375 111.21875 " clip-rule="nonzero"/></clipPath><clipPath id="69685531e1"><path d="M 118.960938 111.21875 L 145.613281 111.21875 L 145.613281 123.980469 L 118.960938 123.980469 Z M 118.960938 111.21875 " clip-rule="nonzero"/></clipPath><clipPath id="32f947c12e"><path d="M 147.761719 111.21875 L 174.414062 111.21875 L 174.414062 123.980469 L 147.761719 123.980469 Z M 147.761719 111.21875 " clip-rule="nonzero"/></clipPath></defs><g clip-path="url(#5072695862)"><path fill="#ececec" d="M 6.664062 6.203125 L 198.839844 6.203125 L 198.839844 145.292969 L 6.664062 145.292969 Z M 6.664062 6.203125 " fill-opacity="1" fill-rule="nonzero"/></g><g clip-path="url(#b5cff350ad)"><path fill="#ffffff" d="M 56.828125 151.675781 L 153.050781 151.675781 L 153.050781 179.699219 L 56.828125 179.699219 Z M 56.828125 151.675781 " fill-opacity="1" fill-rule="nonzero"/></g><g fill="#423e3e" fill-opacity="1"><g transform="translate(65.136186, 172.139648)"><g><path d="M 3.9375 -7.421875 C 3.9375 -10.109375 6 -12.152344 8.5 -12.152344 C 10.882812 -12.152344 12.039062 -10.65625 12.472656 -9.539062 L 15.179688 -10.863281 C 14.519531 -12.71875 12.324219 -15.046875 8.535156 -15.046875 C 4.316406 -15.046875 0.8125 -11.71875 0.8125 -7.402344 C 0.8125 -3.179688 3.917969 0.226562 8.5 0.226562 C 12.113281 0.226562 15.523438 -2.195312 15.523438 -6.8125 L 15.523438 -7.96875 L 7.816406 -7.96875 L 7.816406 -5.1875 L 12.324219 -5.1875 C 11.964844 -3.730469 10.503906 -2.6875 8.5 -2.6875 C 5.8125 -2.6875 3.9375 -4.847656 3.9375 -7.421875 Z M 3.9375 -7.421875 "/></g></g></g><g fill="#423e3e" fill-opacity="1"><g transform="translate(81.35688, 172.139648)"><g><path d="M 13.117188 0 L 9.765625 -5.792969 C 11.773438 -6.511719 12.816406 -8.007812 12.816406 -10.125 C 12.816406 -13.269531 10.449219 -14.820312 7.570312 -14.820312 L 1.722656 -14.820312 L 1.722656 0 L 4.789062 0 L 4.789062 -5.320312 L 6.644531 -5.320312 L 9.710938 0 Z M 7.34375 -8.160156 L 4.789062 -8.160156 L 4.789062 -11.925781 L 7.324219 -11.925781 C 8.480469 -11.925781 9.710938 -11.488281 9.710938 -10.070312 C 9.710938 -8.667969 8.480469 -8.160156 7.34375 -8.160156 Z M 7.34375 -8.160156 "/></g></g></g><g fill="#423e3e" fill-opacity="1"><g transform="translate(95.192725, 172.139648)"><g><path d="M 0.8125 -7.402344 C 0.8125 -3.125 4.222656 0.226562 8.480469 0.226562 C 12.738281 0.226562 16.203125 -3.160156 16.203125 -7.476562 C 16.203125 -11.734375 12.816406 -15.046875 8.554688 -15.046875 C 4.296875 -15.046875 0.8125 -11.660156 0.8125 -7.402344 Z M 3.957031 -7.421875 C 3.957031 -9.976562 5.960938 -12.078125 8.519531 -12.078125 C 11.074219 -12.078125 13.078125 -9.976562 13.078125 -7.421875 C 13.078125 -4.863281 11.074219 -2.746094 8.519531 -2.746094 C 5.960938 -2.746094 3.957031 -4.863281 3.957031 -7.421875 Z M 3.957031 -7.421875 "/></g></g></g><g fill="#423e3e" fill-opacity="1"><g transform="translate(112.208364, 172.139648)"><g><path d="M 13.476562 -5.980469 L 13.476562 -14.820312 L 10.449219 -14.820312 L 10.449219 -5.867188 C 10.449219 -3.992188 9.40625 -2.746094 7.515625 -2.746094 C 5.90625 -2.746094 4.636719 -3.746094 4.636719 -5.945312 L 4.65625 -14.820312 L 1.570312 -14.820312 L 1.570312 -5.867188 C 1.570312 -2.289062 3.386719 0.207031 7.496094 0.207031 C 11.507812 0.207031 13.476562 -2.195312 13.476562 -5.980469 Z M 13.476562 -5.980469 "/></g></g></g><g fill="#423e3e" fill-opacity="1"><g transform="translate(127.255556, 172.139648)"><g><path d="M 12.53125 -10.070312 C 12.53125 -13.210938 10.203125 -14.820312 7.230469 -14.820312 L 1.722656 -14.820312 L 1.722656 0 L 4.789062 0 L 4.789062 -5.222656 L 7.117188 -5.222656 C 10.222656 -5.222656 12.53125 -6.796875 12.53125 -10.070312 Z M 9.445312 -9.996094 C 9.445312 -8.613281 8.195312 -8.082031 6.984375 -8.082031 L 4.789062 -8.082031 L 4.789062 -11.925781 L 6.964844 -11.925781 C 8.234375 -11.925781 9.445312 -11.433594 9.445312 -9.996094 Z M 9.445312 -9.996094 "/></g></g></g><g clip-path="url(#34edc39ef8)"><path fill="#bebebe" d="M 90.34375 78.234375 L 116.996094 78.234375 L 116.996094 90.992188 L 90.34375 90.992188 Z M 90.34375 78.234375 " fill-opacity="1" fill-rule="nonzero"/></g><g clip-path="url(#c9fd3558e5)"><path fill="#423e3e" d="M 118.960938 78.234375 L 145.613281 78.234375 L 145.613281 90.992188 L 118.960938 90.992188 Z M 118.960938 78.234375 " fill-opacity="1" fill-rule="nonzero"/></g><g clip-path="url(#cb5daf6f60)"><path fill="#bebebe" d="M 147.761719 78.234375 L 174.414062 78.234375 L 174.414062 90.992188 L 147.761719 90.992188 Z M 147.761719 78.234375 " fill-opacity="1" fill-rule="nonzero"/></g><g clip-path="url(#862705b2e0)"><path fill="#423e3e" d="M 90.34375 94.699219 L 116.996094 94.699219 L 116.996094 107.460938 L 90.34375 107.460938 Z M 90.34375 94.699219 " fill-opacity="1" fill-rule="nonzero"/></g><g clip-path="url(#cf758e4c63)"><path fill="#bebebe" d="M 118.960938 94.699219 L 145.613281 94.699219 L 145.613281 107.460938 L 118.960938 107.460938 Z M 118.960938 94.699219 " fill-opacity="1" fill-rule="nonzero"/></g><g clip-path="url(#c7dbdd7530)"><path fill="#423e3e" d="M 147.761719 94.699219 L 174.414062 94.699219 L 174.414062 107.460938 L 147.761719 107.460938 Z M 147.761719 94.699219 " fill-opacity="1" fill-rule="nonzero"/></g><g clip-path="url(#bf895b4bfb)"><path fill="#625e5e" d="M 90.34375 63.023438 L 174.414062 63.023438 L 174.414062 74.472656 L 90.34375 74.472656 Z M 90.34375 63.023438 " fill-opacity="1" fill-rule="nonzero"/></g><g clip-path="url(#d1d9dd9829)"><path fill="#bebebe" d="M 90.34375 111.21875 L 116.996094 111.21875 L 116.996094 123.980469 L 90.34375 123.980469 Z M 90.34375 111.21875 " fill-opacity="1" fill-rule="nonzero"/></g><g clip-path="url(#69685531e1)"><path fill="#423e3e" d="M 118.960938 111.21875 L 145.613281 111.21875 L 145.613281 123.980469 L 118.960938 123.980469 Z M 118.960938 111.21875 " fill-opacity="1" fill-rule="nonzero"/></g><g clip-path="url(#32f947c12e)"><path fill="#bebebe" d="M 147.761719 111.21875 L 174.414062 111.21875 L 174.414062 123.980469 L 147.761719 123.980469 Z M 147.761719 111.21875 " fill-opacity="1" fill-rule="nonzero"/></g><path stroke-linecap="butt" transform="matrix(-0.681901, 0, 0, -0.681901, 111.236106, 117.679796)" fill="none" stroke-linejoin="miter" d="M 0.00253852 1.999395 L 130.800668 1.999395 " stroke="#000000" stroke-width="4" stroke-opacity="1" stroke-miterlimit="4"/><path stroke-linecap="butt" transform="matrix(0.00000000119014, -0.681901, 0.681901, 0.00000000119014, 22.043964, 115.535686)" fill="none" stroke-linejoin="miter" d="M 0.00077641 1.997776 L 130.798906 1.997776 " stroke="#000000" stroke-width="4" stroke-opacity="1" stroke-miterlimit="4"/><path stroke-linecap="butt" transform="matrix(0.419725, -0.53742, 0.53742, 0.419725, 26.991808, 110.318039)" fill="none" stroke-linejoin="miter" d="M 0.00121314 1.998602 L 73.110511 2.001788 " stroke="#0ab1f0" stroke-width="4" stroke-opacity="1" stroke-miterlimit="4"/><path stroke-linecap="butt" transform="matrix(0.498093, 0.465718, -0.465718, 0.498093, 58.380101, 70.930774)" fill="none" stroke-linejoin="miter" d="M -0.000587726 1.998185 L 42.060574 2.000631 " stroke="#0ab1f0" stroke-width="4" stroke-opacity="1" stroke-miterlimit="4"/><path stroke-linecap="butt" transform="matrix(0.419725, -0.53742, 0.53742, 0.419725, 76.356392, 89.833536)" fill="none" stroke-linejoin="miter" d="M -0.000109789 1.997213 L 73.109188 2.000399 " stroke="#0ab1f0" stroke-width="4" stroke-opacity="1" stroke-miterlimit="4"/><path stroke-linecap="butt" transform="matrix(0.681901, 0, 0, 0.681901, 26.993773, 59.327792)" fill="none" stroke-linejoin="miter" d="M -0.00232567 1.999723 L 67.547779 1.999723 " stroke="#00517d" stroke-width="4" stroke-opacity="1" stroke-miterlimit="4"/><path stroke-linecap="butt" transform="matrix(0.508454, 0.454383, -0.454383, 0.508454, 72.819842, 59.334127)" fill="none" stroke-linejoin="miter" d="M -0.000491136 2.001475 L 71.999553 2.000056 " stroke="#00517d" stroke-width="4" stroke-opacity="1" stroke-miterlimit="4"/></svg>