<svg xmlns="http://www.w3.org/2000/svg" xmlns:xlink="http://www.w3.org/1999/xlink" width="61" zoomAndPan="magnify" viewBox="0 0 45.75 30.000001" height="40" preserveAspectRatio="xMidYMid meet" version="1.2"><defs><clipPath id="3019689100"><path d="M 20.671875 15.339844 L 27.824219 15.339844 L 27.824219 18.765625 L 20.671875 18.765625 Z M 20.671875 15.339844 "/></clipPath><clipPath id="d143538b08"><path d="M 28.351562 15.339844 L 35.503906 15.339844 L 35.503906 18.765625 L 28.351562 18.765625 Z M 28.351562 15.339844 "/></clipPath><clipPath id="cc5ae34284"><path d="M 36.078125 15.339844 L 43.230469 15.339844 L 43.230469 18.765625 L 36.078125 18.765625 Z M 36.078125 15.339844 "/></clipPath><clipPath id="4d9cfa10ab"><path d="M 20.671875 19.757812 L 27.824219 19.757812 L 27.824219 23.183594 L 20.671875 23.183594 Z M 20.671875 19.757812 "/></clipPath><clipPath id="e2ec054036"><path d="M 28.351562 19.757812 L 35.503906 19.757812 L 35.503906 23.183594 L 28.351562 23.183594 Z M 28.351562 19.757812 "/></clipPath><clipPath id="178239fae9"><path d="M 36.078125 19.757812 L 43.230469 19.757812 L 43.230469 23.183594 L 36.078125 23.183594 Z M 36.078125 19.757812 "/></clipPath><clipPath id="795a50a757"><path d="M 20.671875 11.257812 L 43.230469 11.257812 L 43.230469 14.332031 L 20.671875 14.332031 Z M 20.671875 11.257812 "/></clipPath><clipPath id="f48c421cff"><path d="M 20.671875 24.191406 L 27.824219 24.191406 L 27.824219 27.617188 L 20.671875 27.617188 Z M 20.671875 24.191406 "/></clipPath><clipPath id="e1ab11fee8"><path d="M 28.351562 24.191406 L 35.503906 24.191406 L 35.503906 27.617188 L 28.351562 27.617188 Z M 28.351562 24.191406 "/></clipPath><clipPath id="442c48daf6"><path d="M 36.078125 24.191406 L 43.230469 24.191406 L 43.230469 27.617188 L 36.078125 27.617188 Z M 36.078125 24.191406 "/></clipPath><clipPath id="db9f41997c"><path d="M 0.617188 9 L 17 9 L 17 29 L 0.617188 29 Z M 0.617188 9 "/></clipPath></defs><g id="1127fdd7ac"><g clip-rule="nonzero" clip-path="url(#3019689100)"><path style=" stroke:none;fill-rule:nonzero;fill:#bab8b7;fill-opacity:1;" d="M 20.671875 15.339844 L 27.828125 15.339844 L 27.828125 18.765625 L 20.671875 18.765625 Z M 20.671875 15.339844 "/></g><g clip-rule="nonzero" clip-path="url(#d143538b08)"><path style=" stroke:none;fill-rule:nonzero;fill:#585958;fill-opacity:1;" d="M 28.351562 15.339844 L 35.507812 15.339844 L 35.507812 18.765625 L 28.351562 18.765625 Z M 28.351562 15.339844 "/></g><g clip-rule="nonzero" clip-path="url(#cc5ae34284)"><path style=" stroke:none;fill-rule:nonzero;fill:#bab8b7;fill-opacity:1;" d="M 36.078125 15.339844 L 43.234375 15.339844 L 43.234375 18.765625 L 36.078125 18.765625 Z M 36.078125 15.339844 "/></g><g clip-rule="nonzero" clip-path="url(#4d9cfa10ab)"><path style=" stroke:none;fill-rule:nonzero;fill:#585958;fill-opacity:1;" d="M 20.671875 19.757812 L 27.828125 19.757812 L 27.828125 23.183594 L 20.671875 23.183594 Z M 20.671875 19.757812 "/></g><g clip-rule="nonzero" clip-path="url(#e2ec054036)"><path style=" stroke:none;fill-rule:nonzero;fill:#bab8b7;fill-opacity:1;" d="M 28.351562 19.757812 L 35.507812 19.757812 L 35.507812 23.183594 L 28.351562 23.183594 Z M 28.351562 19.757812 "/></g><g clip-rule="nonzero" clip-path="url(#178239fae9)"><path style=" stroke:none;fill-rule:nonzero;fill:#585958;fill-opacity:1;" d="M 36.078125 19.757812 L 43.234375 19.757812 L 43.234375 23.183594 L 36.078125 23.183594 Z M 36.078125 19.757812 "/></g><g clip-rule="nonzero" clip-path="url(#795a50a757)"><path style=" stroke:none;fill-rule:nonzero;fill:#585958;fill-opacity:1;" d="M 20.671875 11.257812 L 43.226562 11.257812 L 43.226562 14.332031 L 20.671875 14.332031 Z M 20.671875 11.257812 "/></g><g clip-rule="nonzero" clip-path="url(#f48c421cff)"><path style=" stroke:none;fill-rule:nonzero;fill:#bab8b7;fill-opacity:1;" d="M 20.671875 24.191406 L 27.828125 24.191406 L 27.828125 27.617188 L 20.671875 27.617188 Z M 20.671875 24.191406 "/></g><g clip-rule="nonzero" clip-path="url(#e1ab11fee8)"><path style=" stroke:none;fill-rule:nonzero;fill:#585958;fill-opacity:1;" d="M 28.351562 24.191406 L 35.507812 24.191406 L 35.507812 27.617188 L 28.351562 27.617188 Z M 28.351562 24.191406 "/></g><g clip-rule="nonzero" clip-path="url(#442c48daf6)"><path style=" stroke:none;fill-rule:nonzero;fill:#bab8b7;fill-opacity:1;" d="M 36.078125 24.191406 L 43.234375 24.191406 L 43.234375 27.617188 L 36.078125 27.617188 Z M 36.078125 24.191406 "/></g><path style="fill:none;stroke-width:1;stroke-linecap:butt;stroke-linejoin:miter;stroke:#585958;stroke-opacity:1;stroke-miterlimit:4;" d="M 0.00216437 0.502558 L 32.977338 0.502558 " transform="matrix(-0.725806,0,0,-0.725806,26.271102,25.923354)"/><path style="fill:none;stroke-width:1;stroke-linecap:butt;stroke-linejoin:miter;stroke:#585958;stroke-opacity:1;stroke-miterlimit:4;" d="M 0.000156237 0.498155 L 32.980712 0.498155 " transform="matrix(0.00000000126677,-0.725806,0.725806,0.00000000126677,2.341561,25.34777)"/><g clip-rule="nonzero" clip-path="url(#db9f41997c)"><path style="fill:none;stroke-width:1;stroke-linecap:butt;stroke-linejoin:miter;stroke:#8b73ff;stroke-opacity:1;stroke-miterlimit:4;" d="M -0.0000195217 0.497811 L 18.431389 0.499998 " transform="matrix(0.436519,-0.558923,0.558923,0.436519,3.67099,23.950654)"/></g><path style="fill:none;stroke-width:1;stroke-linecap:butt;stroke-linejoin:miter;stroke:#8b73ff;stroke-opacity:1;stroke-miterlimit:4;" d="M 0.00317691 0.499756 L 10.604031 0.497917 " transform="matrix(0.530163,0.495704,-0.495704,0.530163,12.089797,13.385817)"/><path style="fill:none;stroke-width:1;stroke-linecap:butt;stroke-linejoin:miter;stroke:#8b73ff;stroke-opacity:1;stroke-miterlimit:4;" d="M 0.000696127 0.501465 L 18.436446 0.500263 " transform="matrix(0.436519,-0.558923,0.558923,0.436519,16.918634,18.453365)"/><path style="fill:none;stroke-width:1;stroke-linecap:butt;stroke-linejoin:miter;stroke:#ff9861;stroke-opacity:1;stroke-miterlimit:4;" d="M 0.00246371 0.500342 L 17.030427 0.500342 " transform="matrix(0.72514,0,0,0.72514,3.670088,10.269995)"/><path style="fill:none;stroke-width:1;stroke-linecap:butt;stroke-linejoin:miter;stroke:#ff9861;stroke-opacity:1;stroke-miterlimit:4;" d="M 0.00262884 0.500336 L 18.153093 0.501675 " transform="matrix(0.536997,0.47989,-0.47989,0.536997,15.965257,10.273029)"/></g></svg>