<svg xmlns="http://www.w3.org/2000/svg" xmlns:xlink="http://www.w3.org/1999/xlink" width="300" zoomAndPan="magnify" viewBox="0 0 224.87999 168.749997" height="225" preserveAspectRatio="xMidYMid meet" version="1.0"><defs><g/><clipPath id="0607c60845"><path d="M 5.984375 6.179688 L 219.1875 6.179688 L 219.1875 162.5625 L 5.984375 162.5625 Z M 5.984375 6.179688 " clip-rule="nonzero"/></clipPath><clipPath id="eccaaddb0e"><path d="M 105.535156 68.617188 L 129.246094 68.617188 L 129.246094 79.96875 L 105.535156 79.96875 Z M 105.535156 68.617188 " clip-rule="nonzero"/></clipPath><clipPath id="71fc74dff5"><path d="M 130.992188 68.617188 L 154.699219 68.617188 L 154.699219 79.96875 L 130.992188 79.96875 Z M 130.992188 68.617188 " clip-rule="nonzero"/></clipPath><clipPath id="4e2c623b8e"><path d="M 156.613281 68.617188 L 180.320312 68.617188 L 180.320312 79.96875 L 156.613281 79.96875 Z M 156.613281 68.617188 " clip-rule="nonzero"/></clipPath><clipPath id="7652ee4bcb"><path d="M 105.535156 83.265625 L 129.246094 83.265625 L 129.246094 94.617188 L 105.535156 94.617188 Z M 105.535156 83.265625 " clip-rule="nonzero"/></clipPath><clipPath id="6110a75b34"><path d="M 130.992188 83.265625 L 154.699219 83.265625 L 154.699219 94.617188 L 130.992188 94.617188 Z M 130.992188 83.265625 " clip-rule="nonzero"/></clipPath><clipPath id="fc8ad5d1e1"><path d="M 156.613281 83.265625 L 180.320312 83.265625 L 180.320312 94.617188 L 156.613281 94.617188 Z M 156.613281 83.265625 " clip-rule="nonzero"/></clipPath><clipPath id="b91a39305d"><path d="M 105.535156 55.085938 L 180.320312 55.085938 L 180.320312 65.273438 L 105.535156 65.273438 Z M 105.535156 55.085938 " clip-rule="nonzero"/></clipPath><clipPath id="e6228c1a7b"><path d="M 105.535156 97.960938 L 129.246094 97.960938 L 129.246094 109.3125 L 105.535156 109.3125 Z M 105.535156 97.960938 " clip-rule="nonzero"/></clipPath><clipPath id="5413ed47dc"><path d="M 130.992188 97.960938 L 154.699219 97.960938 L 154.699219 109.3125 L 130.992188 109.3125 Z M 130.992188 97.960938 " clip-rule="nonzero"/></clipPath><clipPath id="1d7d2b1280"><path d="M 156.613281 97.960938 L 180.320312 97.960938 L 180.320312 109.3125 L 156.613281 109.3125 Z M 156.613281 97.960938 " clip-rule="nonzero"/></clipPath></defs><g clip-path="url(#0607c60845)"><path fill="#ececec" d="M 5.984375 6.179688 L 219.179688 6.179688 L 219.179688 162.5625 L 5.984375 162.5625 Z M 5.984375 6.179688 " fill-opacity="1" fill-rule="nonzero"/></g><g fill="#423e3e" fill-opacity="1"><g transform="translate(74.746935, 145.878556)"><g><path d="M 3.953125 -7.4375 C 3.953125 -6.570312 4.144531 -5.78125 4.53125 -5.0625 C 4.914062 -4.34375 5.453125 -3.765625 6.140625 -3.328125 C 6.828125 -2.898438 7.617188 -2.6875 8.515625 -2.6875 C 9.523438 -2.6875 10.367188 -2.921875 11.046875 -3.390625 C 11.734375 -3.859375 12.164062 -4.460938 12.34375 -5.203125 L 7.828125 -5.203125 L 7.828125 -7.984375 L 15.546875 -7.984375 L 15.546875 -6.828125 C 15.546875 -5.679688 15.351562 -4.664062 14.96875 -3.78125 C 14.582031 -2.894531 14.054688 -2.15625 13.390625 -1.5625 C 12.734375 -0.976562 11.984375 -0.53125 11.140625 -0.21875 C 10.296875 0.0820312 9.421875 0.234375 8.515625 0.234375 C 7.367188 0.234375 6.320312 0.0351562 5.375 -0.359375 C 4.4375 -0.765625 3.625 -1.3125 2.9375 -2 C 2.257812 -2.695312 1.734375 -3.507812 1.359375 -4.4375 C 0.992188 -5.363281 0.8125 -6.359375 0.8125 -7.421875 C 0.8125 -8.503906 1.015625 -9.503906 1.421875 -10.421875 C 1.828125 -11.347656 2.382812 -12.160156 3.09375 -12.859375 C 3.8125 -13.566406 4.632812 -14.113281 5.5625 -14.5 C 6.5 -14.882812 7.5 -15.078125 8.5625 -15.078125 C 9.507812 -15.078125 10.359375 -14.945312 11.109375 -14.6875 C 11.859375 -14.425781 12.507812 -14.085938 13.0625 -13.671875 C 13.613281 -13.253906 14.066406 -12.800781 14.421875 -12.3125 C 14.785156 -11.832031 15.050781 -11.359375 15.21875 -10.890625 L 12.5 -9.5625 C 12.363281 -9.9375 12.132812 -10.328125 11.8125 -10.734375 C 11.488281 -11.140625 11.054688 -11.476562 10.515625 -11.75 C 9.984375 -12.03125 9.316406 -12.171875 8.515625 -12.171875 C 7.679688 -12.171875 6.921875 -11.960938 6.234375 -11.546875 C 5.546875 -11.128906 4.992188 -10.5625 4.578125 -9.84375 C 4.160156 -9.132812 3.953125 -8.332031 3.953125 -7.4375 Z M 3.953125 -7.4375 "/></g></g></g><g fill="#423e3e" fill-opacity="1"><g transform="translate(91.00253, 145.878556)"><g><path d="M 13.140625 0 L 9.734375 0 L 6.65625 -5.328125 L 4.796875 -5.328125 L 4.796875 0 L 1.71875 0 L 1.71875 -14.859375 L 7.59375 -14.859375 C 8.550781 -14.859375 9.425781 -14.679688 10.21875 -14.328125 C 11.019531 -13.984375 11.65625 -13.460938 12.125 -12.765625 C 12.601562 -12.066406 12.84375 -11.191406 12.84375 -10.140625 C 12.84375 -7.984375 11.820312 -6.535156 9.78125 -5.796875 Z M 7.359375 -8.171875 C 7.734375 -8.171875 8.101562 -8.234375 8.46875 -8.359375 C 8.84375 -8.492188 9.144531 -8.695312 9.375 -8.96875 C 9.613281 -9.25 9.734375 -9.625 9.734375 -10.09375 C 9.734375 -10.570312 9.613281 -10.941406 9.375 -11.203125 C 9.132812 -11.472656 8.832031 -11.664062 8.46875 -11.78125 C 8.101562 -11.894531 7.726562 -11.953125 7.34375 -11.953125 L 4.796875 -11.953125 L 4.796875 -8.171875 Z M 7.359375 -8.171875 "/></g></g></g><g fill="#423e3e" fill-opacity="1"><g transform="translate(104.868145, 145.878556)"><g><path d="M 0.8125 -7.421875 C 0.8125 -8.484375 1.015625 -9.476562 1.421875 -10.40625 C 1.828125 -11.332031 2.382812 -12.144531 3.09375 -12.84375 C 3.800781 -13.550781 4.625 -14.097656 5.5625 -14.484375 C 6.507812 -14.878906 7.515625 -15.078125 8.578125 -15.078125 C 9.640625 -15.078125 10.632812 -14.882812 11.5625 -14.5 C 12.488281 -14.113281 13.300781 -13.578125 14 -12.890625 C 14.707031 -12.203125 15.253906 -11.394531 15.640625 -10.46875 C 16.035156 -9.550781 16.234375 -8.5625 16.234375 -7.5 C 16.234375 -6.414062 16.035156 -5.40625 15.640625 -4.46875 C 15.242188 -3.539062 14.6875 -2.722656 13.96875 -2.015625 C 13.257812 -1.304688 12.4375 -0.753906 11.5 -0.359375 C 10.5625 0.0351562 9.5625 0.234375 8.5 0.234375 C 7.4375 0.234375 6.4375 0.0351562 5.5 -0.359375 C 4.570312 -0.753906 3.757812 -1.296875 3.0625 -1.984375 C 2.363281 -2.679688 1.8125 -3.488281 1.40625 -4.40625 C 1.007812 -5.332031 0.8125 -6.335938 0.8125 -7.421875 Z M 3.96875 -7.4375 C 3.96875 -6.59375 4.164062 -5.8125 4.5625 -5.09375 C 4.96875 -4.375 5.519531 -3.800781 6.21875 -3.375 C 6.914062 -2.957031 7.6875 -2.75 8.53125 -2.75 C 9.394531 -2.75 10.171875 -2.957031 10.859375 -3.375 C 11.546875 -3.800781 12.09375 -4.375 12.5 -5.09375 C 12.90625 -5.8125 13.109375 -6.59375 13.109375 -7.4375 C 13.109375 -8.289062 12.90625 -9.066406 12.5 -9.765625 C 12.09375 -10.472656 11.546875 -11.039062 10.859375 -11.46875 C 10.171875 -11.894531 9.394531 -12.109375 8.53125 -12.109375 C 7.6875 -12.109375 6.914062 -11.894531 6.21875 -11.46875 C 5.519531 -11.039062 4.96875 -10.472656 4.5625 -9.765625 C 4.164062 -9.066406 3.96875 -8.289062 3.96875 -7.4375 Z M 3.96875 -7.4375 "/></g></g></g><g fill="#423e3e" fill-opacity="1"><g transform="translate(121.920397, 145.878556)"><g><path d="M 13.5 -6 C 13.5 -4.726562 13.273438 -3.628906 12.828125 -2.703125 C 12.390625 -1.773438 11.726562 -1.054688 10.84375 -0.546875 C 9.957031 -0.046875 8.847656 0.203125 7.515625 0.203125 C 6.148438 0.203125 5.023438 -0.0507812 4.140625 -0.5625 C 3.265625 -1.082031 2.617188 -1.800781 2.203125 -2.71875 C 1.785156 -3.632812 1.578125 -4.6875 1.578125 -5.875 L 1.578125 -14.859375 L 4.671875 -14.859375 L 4.640625 -5.953125 C 4.640625 -4.859375 4.914062 -4.050781 5.46875 -3.53125 C 6.03125 -3.007812 6.71875 -2.75 7.53125 -2.75 C 8.476562 -2.75 9.203125 -3.035156 9.703125 -3.609375 C 10.210938 -4.191406 10.46875 -4.945312 10.46875 -5.875 L 10.46875 -14.859375 L 13.5 -14.859375 Z M 13.5 -6 "/></g></g></g><g fill="#423e3e" fill-opacity="1"><g transform="translate(136.999966, 145.878556)"><g><path d="M 12.5625 -10.09375 C 12.5625 -9 12.320312 -8.09375 11.84375 -7.375 C 11.375 -6.65625 10.726562 -6.117188 9.90625 -5.765625 C 9.09375 -5.410156 8.164062 -5.234375 7.125 -5.234375 L 4.796875 -5.234375 L 4.796875 0 L 1.71875 0 L 1.71875 -14.859375 L 7.25 -14.859375 C 8.25 -14.859375 9.144531 -14.679688 9.9375 -14.328125 C 10.738281 -13.972656 11.375 -13.441406 11.84375 -12.734375 C 12.320312 -12.023438 12.5625 -11.144531 12.5625 -10.09375 Z M 9.46875 -10.015625 C 9.46875 -10.492188 9.347656 -10.875 9.109375 -11.15625 C 8.867188 -11.445312 8.5625 -11.648438 8.1875 -11.765625 C 7.8125 -11.890625 7.410156 -11.953125 6.984375 -11.953125 L 4.796875 -11.953125 L 4.796875 -8.09375 L 7 -8.09375 C 7.40625 -8.09375 7.796875 -8.15625 8.171875 -8.28125 C 8.554688 -8.414062 8.867188 -8.625 9.109375 -8.90625 C 9.347656 -9.1875 9.46875 -9.554688 9.46875 -10.015625 Z M 9.46875 -10.015625 "/></g></g></g><g clip-path="url(#eccaaddb0e)"><path fill="#bebebe" d="M 105.535156 68.617188 L 129.257812 68.617188 L 129.257812 79.96875 L 105.535156 79.96875 Z M 105.535156 68.617188 " fill-opacity="1" fill-rule="nonzero"/></g><g clip-path="url(#71fc74dff5)"><path fill="#423e3e" d="M 130.992188 68.617188 L 154.714844 68.617188 L 154.714844 79.96875 L 130.992188 79.96875 Z M 130.992188 68.617188 " fill-opacity="1" fill-rule="nonzero"/></g><g clip-path="url(#4e2c623b8e)"><path fill="#bebebe" d="M 156.613281 68.617188 L 180.332031 68.617188 L 180.332031 79.96875 L 156.613281 79.96875 Z M 156.613281 68.617188 " fill-opacity="1" fill-rule="nonzero"/></g><g clip-path="url(#7652ee4bcb)"><path fill="#423e3e" d="M 105.535156 83.265625 L 129.257812 83.265625 L 129.257812 94.617188 L 105.535156 94.617188 Z M 105.535156 83.265625 " fill-opacity="1" fill-rule="nonzero"/></g><g clip-path="url(#6110a75b34)"><path fill="#bebebe" d="M 130.992188 83.265625 L 154.714844 83.265625 L 154.714844 94.617188 L 130.992188 94.617188 Z M 130.992188 83.265625 " fill-opacity="1" fill-rule="nonzero"/></g><g clip-path="url(#fc8ad5d1e1)"><path fill="#423e3e" d="M 156.613281 83.265625 L 180.332031 83.265625 L 180.332031 94.617188 L 156.613281 94.617188 Z M 156.613281 83.265625 " fill-opacity="1" fill-rule="nonzero"/></g><g clip-path="url(#b91a39305d)"><path fill="#625e5e" d="M 105.535156 55.085938 L 180.304688 55.085938 L 180.304688 65.273438 L 105.535156 65.273438 Z M 105.535156 55.085938 " fill-opacity="1" fill-rule="nonzero"/></g><g clip-path="url(#e6228c1a7b)"><path fill="#bebebe" d="M 105.535156 97.960938 L 129.257812 97.960938 L 129.257812 109.3125 L 105.535156 109.3125 Z M 105.535156 97.960938 " fill-opacity="1" fill-rule="nonzero"/></g><g clip-path="url(#5413ed47dc)"><path fill="#423e3e" d="M 130.992188 97.960938 L 154.714844 97.960938 L 154.714844 109.3125 L 130.992188 109.3125 Z M 130.992188 97.960938 " fill-opacity="1" fill-rule="nonzero"/></g><g clip-path="url(#1d7d2b1280)"><path fill="#bebebe" d="M 156.613281 97.960938 L 180.332031 97.960938 L 180.332031 109.3125 L 156.613281 109.3125 Z M 156.613281 97.960938 " fill-opacity="1" fill-rule="nonzero"/></g><path stroke-linecap="butt" transform="matrix(-0.477831, 0, 0, -0.477831, 124.122332, 103.927087)" fill="none" stroke-linejoin="miter" d="M 0.00259145 3.002945 L 166.04435 3.002945 " stroke="#000000" stroke-width="6" stroke-opacity="1" stroke-miterlimit="4"/><path stroke-linecap="butt" transform="matrix(0, -0.477831, 0.477831, 0, 44.559557, 101.800715)" fill="none" stroke-linejoin="miter" d="M -0.000139434 2.998196 L 166.049794 2.998196 " stroke="#000000" stroke-width="6" stroke-opacity="1" stroke-miterlimit="4"/><path stroke-linecap="butt" transform="matrix(0.294115, -0.376588, 0.376588, 0.294115, 49.00702, 97.023824)" fill="none" stroke-linejoin="miter" d="M -0.00021778 2.999997 L 92.806714 3.002549 " stroke="#0ab1f0" stroke-width="6" stroke-opacity="1" stroke-miterlimit="4"/><path stroke-linecap="butt" transform="matrix(0.34903, 0.326344, -0.326344, 0.34903, 77.251651, 61.961071)" fill="none" stroke-linejoin="miter" d="M 0.000751777 2.9983 L 53.397097 2.998928 " stroke="#0ab1f0" stroke-width="6" stroke-opacity="1" stroke-miterlimit="4"/><path stroke-linecap="butt" transform="matrix(0.294115, -0.376588, 0.376588, 0.294115, 92.91948, 78.801753)" fill="none" stroke-linejoin="miter" d="M 0.00281252 3.001885 L 92.804712 2.997994 " stroke="#0ab1f0" stroke-width="6" stroke-opacity="1" stroke-miterlimit="4"/><path stroke-linecap="butt" transform="matrix(0.477831, 0, 0, 0.477831, 49.181748, 51.579203)" fill="none" stroke-linejoin="miter" d="M 0.00386329 2.997957 L 85.742919 2.997957 " stroke="#00517d" stroke-width="6" stroke-opacity="1" stroke-miterlimit="4"/><path stroke-linecap="butt" transform="matrix(0.356291, 0.318401, -0.318401, 0.356291, 90.093865, 51.639407)" fill="none" stroke-linejoin="miter" d="M -0.00477277 3.000764 L 91.397089 2.998323 " stroke="#00517d" stroke-width="6" stroke-opacity="1" stroke-miterlimit="4"/></svg>