<svg xmlns="http://www.w3.org/2000/svg" xmlns:xlink="http://www.w3.org/1999/xlink" width="61" zoomAndPan="magnify" viewBox="0 0 45.75 30.000001" height="40" preserveAspectRatio="xMidYMid meet" version="1.2"><defs><clipPath id="4b6b8112bd"><path d="M 0.617188 0 L 44.890625 0 L 44.890625 29.03125 L 0.617188 29.03125 Z M 0.617188 0 "/></clipPath><clipPath id="77f08dbac4"><path d="M 20.671875 15.339844 L 27.824219 15.339844 L 27.824219 18.765625 L 20.671875 18.765625 Z M 20.671875 15.339844 "/></clipPath><clipPath id="aa2a9ef530"><path d="M 28.351562 15.339844 L 35.503906 15.339844 L 35.503906 18.765625 L 28.351562 18.765625 Z M 28.351562 15.339844 "/></clipPath><clipPath id="7cac5c1cee"><path d="M 36.078125 15.339844 L 43.230469 15.339844 L 43.230469 18.765625 L 36.078125 18.765625 Z M 36.078125 15.339844 "/></clipPath><clipPath id="07a82c92fe"><path d="M 20.671875 19.757812 L 27.824219 19.757812 L 27.824219 23.183594 L 20.671875 23.183594 Z M 20.671875 19.757812 "/></clipPath><clipPath id="506fcf1711"><path d="M 28.351562 19.757812 L 35.503906 19.757812 L 35.503906 23.183594 L 28.351562 23.183594 Z M 28.351562 19.757812 "/></clipPath><clipPath id="ad00e80de1"><path d="M 36.078125 19.757812 L 43.230469 19.757812 L 43.230469 23.183594 L 36.078125 23.183594 Z M 36.078125 19.757812 "/></clipPath><clipPath id="dc4f2a7d79"><path d="M 20.671875 11.257812 L 43.230469 11.257812 L 43.230469 14.332031 L 20.671875 14.332031 Z M 20.671875 11.257812 "/></clipPath><clipPath id="ec698d202a"><path d="M 20.671875 24.191406 L 27.824219 24.191406 L 27.824219 27.617188 L 20.671875 27.617188 Z M 20.671875 24.191406 "/></clipPath><clipPath id="266627c764"><path d="M 28.351562 24.191406 L 35.503906 24.191406 L 35.503906 27.617188 L 28.351562 27.617188 Z M 28.351562 24.191406 "/></clipPath><clipPath id="3d2afaf753"><path d="M 36.078125 24.191406 L 43.230469 24.191406 L 43.230469 27.617188 L 36.078125 27.617188 Z M 36.078125 24.191406 "/></clipPath><clipPath id="ff1e6655a5"><path d="M 0.617188 8 L 18 8 L 18 29.03125 L 0.617188 29.03125 Z M 0.617188 8 "/></clipPath></defs><g id="07dbe8cb44"><g clip-rule="nonzero" clip-path="url(#4b6b8112bd)"><path style=" stroke:none;fill-rule:nonzero;fill:#ffffff;fill-opacity:1;" d="M 0.617188 0 L 44.890625 0 L 44.890625 29.03125 L 0.617188 29.03125 Z M 0.617188 0 "/><path style=" stroke:none;fill-rule:nonzero;fill:#ffffff;fill-opacity:1;" d="M 0.617188 0 L 44.890625 0 L 44.890625 29.03125 L 0.617188 29.03125 Z M 0.617188 0 "/></g><g clip-rule="nonzero" clip-path="url(#77f08dbac4)"><path style=" stroke:none;fill-rule:nonzero;fill:#bebebe;fill-opacity:1;" d="M 20.671875 15.339844 L 27.828125 15.339844 L 27.828125 18.765625 L 20.671875 18.765625 Z M 20.671875 15.339844 "/></g><g clip-rule="nonzero" clip-path="url(#aa2a9ef530)"><path style=" stroke:none;fill-rule:nonzero;fill:#423e3e;fill-opacity:1;" d="M 28.351562 15.339844 L 35.507812 15.339844 L 35.507812 18.765625 L 28.351562 18.765625 Z M 28.351562 15.339844 "/></g><g clip-rule="nonzero" clip-path="url(#7cac5c1cee)"><path style=" stroke:none;fill-rule:nonzero;fill:#bebebe;fill-opacity:1;" d="M 36.078125 15.339844 L 43.234375 15.339844 L 43.234375 18.765625 L 36.078125 18.765625 Z M 36.078125 15.339844 "/></g><g clip-rule="nonzero" clip-path="url(#07a82c92fe)"><path style=" stroke:none;fill-rule:nonzero;fill:#423e3e;fill-opacity:1;" d="M 20.671875 19.757812 L 27.828125 19.757812 L 27.828125 23.183594 L 20.671875 23.183594 Z M 20.671875 19.757812 "/></g><g clip-rule="nonzero" clip-path="url(#506fcf1711)"><path style=" stroke:none;fill-rule:nonzero;fill:#bebebe;fill-opacity:1;" d="M 28.351562 19.757812 L 35.507812 19.757812 L 35.507812 23.183594 L 28.351562 23.183594 Z M 28.351562 19.757812 "/></g><g clip-rule="nonzero" clip-path="url(#ad00e80de1)"><path style=" stroke:none;fill-rule:nonzero;fill:#423e3e;fill-opacity:1;" d="M 36.078125 19.757812 L 43.234375 19.757812 L 43.234375 23.183594 L 36.078125 23.183594 Z M 36.078125 19.757812 "/></g><g clip-rule="nonzero" clip-path="url(#dc4f2a7d79)"><path style=" stroke:none;fill-rule:nonzero;fill:#625e5e;fill-opacity:1;" d="M 20.671875 11.257812 L 43.226562 11.257812 L 43.226562 14.332031 L 20.671875 14.332031 Z M 20.671875 11.257812 "/></g><g clip-rule="nonzero" clip-path="url(#ec698d202a)"><path style=" stroke:none;fill-rule:nonzero;fill:#bebebe;fill-opacity:1;" d="M 20.671875 24.191406 L 27.828125 24.191406 L 27.828125 27.617188 L 20.671875 27.617188 Z M 20.671875 24.191406 "/></g><g clip-rule="nonzero" clip-path="url(#266627c764)"><path style=" stroke:none;fill-rule:nonzero;fill:#423e3e;fill-opacity:1;" d="M 28.351562 24.191406 L 35.507812 24.191406 L 35.507812 27.617188 L 28.351562 27.617188 Z M 28.351562 24.191406 "/></g><g clip-rule="nonzero" clip-path="url(#3d2afaf753)"><path style=" stroke:none;fill-rule:nonzero;fill:#bebebe;fill-opacity:1;" d="M 36.078125 24.191406 L 43.234375 24.191406 L 43.234375 27.617188 L 36.078125 27.617188 Z M 36.078125 24.191406 "/></g><path style="fill:none;stroke-width:6;stroke-linecap:butt;stroke-linejoin:miter;stroke:#000000;stroke-opacity:1;stroke-miterlimit:4;" d="M 0.00728706 2.986619 L 166.055669 2.986619 " transform="matrix(-0.144113,0,0,-0.144113,26.278394,25.99291)"/><path style="fill:none;stroke-width:6;stroke-linecap:butt;stroke-linejoin:miter;stroke:#000000;stroke-opacity:1;stroke-miterlimit:4;" d="M -0.00101427 2.993347 L 166.047367 2.993347 " transform="matrix(0,-0.144113,0.144113,0,2.275652,25.351416)"/><g clip-rule="nonzero" clip-path="url(#ff1e6655a5)"><path style="fill:none;stroke-width:6;stroke-linecap:butt;stroke-linejoin:miter;stroke:#8b73ff;stroke-opacity:1;stroke-miterlimit:4;" d="M -0.00109108 2.990504 L 92.799754 2.992256 " transform="matrix(0.0887295,-0.11361,0.11361,0.0887295,3.617376,23.910311)"/></g><path style="fill:none;stroke-width:6;stroke-linecap:butt;stroke-linejoin:miter;stroke:#8b73ff;stroke-opacity:1;stroke-miterlimit:4;" d="M -0.0141792 2.998729 L 53.386878 2.996378 " transform="matrix(0.104526,0.0977321,-0.0977321,0.104526,12.138304,13.332472)"/><path style="fill:none;stroke-width:6;stroke-linecap:butt;stroke-linejoin:miter;stroke:#8b73ff;stroke-opacity:1;stroke-miterlimit:4;" d="M 0.00242088 3.008491 L 92.803266 3.010244 " transform="matrix(0.0887295,-0.11361,0.11361,0.0887295,16.865021,18.41302)"/><path style="fill:none;stroke-width:6;stroke-linecap:butt;stroke-linejoin:miter;stroke:#ff9861;stroke-opacity:1;stroke-miterlimit:4;" d="M 0.0123933 2.999411 L 85.750035 2.999411 " transform="matrix(0.144153,0,0,0.144153,3.670088,10.200437)"/><path style="fill:none;stroke-width:6;stroke-linecap:butt;stroke-linejoin:miter;stroke:#ff9861;stroke-opacity:1;stroke-miterlimit:4;" d="M 0.00187847 2.992521 L 91.397224 2.998377 " transform="matrix(0.107027,0.0956456,-0.0956456,0.107027,16.012583,10.218601)"/></g></svg>