<svg xmlns="http://www.w3.org/2000/svg" xmlns:xlink="http://www.w3.org/1999/xlink" width="275" zoomAndPan="magnify" viewBox="0 0 206.25 187.499992" height="250" preserveAspectRatio="xMidYMid meet" version="1.0"><defs><g/><clipPath id="40c738ded4"><path d="M 6.664062 6.203125 L 198.839844 6.203125 L 198.839844 145.292969 L 6.664062 145.292969 Z M 6.664062 6.203125 " clip-rule="nonzero"/></clipPath><clipPath id="7d8db6e284"><path d="M 56.828125 151.675781 L 153.050781 151.675781 L 153.050781 179.699219 L 56.828125 179.699219 Z M 56.828125 151.675781 " clip-rule="nonzero"/></clipPath><clipPath id="1c6e2324a1"><path d="M 95.6875 78.542969 L 119.941406 78.542969 L 119.941406 90.15625 L 95.6875 90.15625 Z M 95.6875 78.542969 " clip-rule="nonzero"/></clipPath><clipPath id="c152d556e3"><path d="M 121.730469 78.542969 L 145.980469 78.542969 L 145.980469 90.15625 L 121.730469 90.15625 Z M 121.730469 78.542969 " clip-rule="nonzero"/></clipPath><clipPath id="381f223a9a"><path d="M 147.9375 78.542969 L 172.1875 78.542969 L 172.1875 90.15625 L 147.9375 90.15625 Z M 147.9375 78.542969 " clip-rule="nonzero"/></clipPath><clipPath id="a115f1037e"><path d="M 95.6875 93.527344 L 119.941406 93.527344 L 119.941406 105.136719 L 95.6875 105.136719 Z M 95.6875 93.527344 " clip-rule="nonzero"/></clipPath><clipPath id="6fad195fb0"><path d="M 121.730469 93.527344 L 145.980469 93.527344 L 145.980469 105.136719 L 121.730469 105.136719 Z M 121.730469 93.527344 " clip-rule="nonzero"/></clipPath><clipPath id="44e53c0dd6"><path d="M 147.9375 93.527344 L 172.1875 93.527344 L 172.1875 105.136719 L 147.9375 105.136719 Z M 147.9375 93.527344 " clip-rule="nonzero"/></clipPath><clipPath id="fcbebaff4a"><path d="M 95.6875 64.703125 L 172.1875 64.703125 L 172.1875 75.121094 L 95.6875 75.121094 Z M 95.6875 64.703125 " clip-rule="nonzero"/></clipPath><clipPath id="4b85e398d4"><path d="M 95.6875 108.558594 L 119.941406 108.558594 L 119.941406 120.171875 L 95.6875 120.171875 Z M 95.6875 108.558594 " clip-rule="nonzero"/></clipPath><clipPath id="62b32d337f"><path d="M 121.730469 108.558594 L 145.980469 108.558594 L 145.980469 120.171875 L 121.730469 120.171875 Z M 121.730469 108.558594 " clip-rule="nonzero"/></clipPath><clipPath id="ed7c8c53da"><path d="M 147.9375 108.558594 L 172.1875 108.558594 L 172.1875 120.171875 L 147.9375 120.171875 Z M 147.9375 108.558594 " clip-rule="nonzero"/></clipPath></defs><g clip-path="url(#40c738ded4)"><path fill="#ececec" d="M 6.664062 6.203125 L 198.839844 6.203125 L 198.839844 145.292969 L 6.664062 145.292969 Z M 6.664062 6.203125 " fill-opacity="1" fill-rule="nonzero"/></g><g clip-path="url(#7d8db6e284)"><path fill="#ffffff" d="M 56.828125 151.675781 L 153.050781 151.675781 L 153.050781 179.699219 L 56.828125 179.699219 Z M 56.828125 151.675781 " fill-opacity="1" fill-rule="nonzero"/></g><g fill="#423e3e" fill-opacity="1"><g transform="translate(65.136186, 172.139648)"><g><path d="M 3.9375 -7.421875 C 3.9375 -10.109375 6 -12.152344 8.5 -12.152344 C 10.882812 -12.152344 12.039062 -10.65625 12.472656 -9.539062 L 15.179688 -10.863281 C 14.519531 -12.71875 12.324219 -15.046875 8.535156 -15.046875 C 4.316406 -15.046875 0.8125 -11.71875 0.8125 -7.402344 C 0.8125 -3.179688 3.917969 0.226562 8.5 0.226562 C 12.113281 0.226562 15.523438 -2.195312 15.523438 -6.8125 L 15.523438 -7.96875 L 7.816406 -7.96875 L 7.816406 -5.1875 L 12.324219 -5.1875 C 11.964844 -3.730469 10.503906 -2.6875 8.5 -2.6875 C 5.8125 -2.6875 3.9375 -4.847656 3.9375 -7.421875 Z M 3.9375 -7.421875 "/></g></g></g><g fill="#423e3e" fill-opacity="1"><g transform="translate(81.35688, 172.139648)"><g><path d="M 13.117188 0 L 9.765625 -5.792969 C 11.773438 -6.511719 12.816406 -8.007812 12.816406 -10.125 C 12.816406 -13.269531 10.449219 -14.820312 7.570312 -14.820312 L 1.722656 -14.820312 L 1.722656 0 L 4.789062 0 L 4.789062 -5.320312 L 6.644531 -5.320312 L 9.710938 0 Z M 7.34375 -8.160156 L 4.789062 -8.160156 L 4.789062 -11.925781 L 7.324219 -11.925781 C 8.480469 -11.925781 9.710938 -11.488281 9.710938 -10.070312 C 9.710938 -8.667969 8.480469 -8.160156 7.34375 -8.160156 Z M 7.34375 -8.160156 "/></g></g></g><g fill="#423e3e" fill-opacity="1"><g transform="translate(95.192725, 172.139648)"><g><path d="M 0.8125 -7.402344 C 0.8125 -3.125 4.222656 0.226562 8.480469 0.226562 C 12.738281 0.226562 16.203125 -3.160156 16.203125 -7.476562 C 16.203125 -11.734375 12.816406 -15.046875 8.554688 -15.046875 C 4.296875 -15.046875 0.8125 -11.660156 0.8125 -7.402344 Z M 3.957031 -7.421875 C 3.957031 -9.976562 5.960938 -12.078125 8.519531 -12.078125 C 11.074219 -12.078125 13.078125 -9.976562 13.078125 -7.421875 C 13.078125 -4.863281 11.074219 -2.746094 8.519531 -2.746094 C 5.960938 -2.746094 3.957031 -4.863281 3.957031 -7.421875 Z M 3.957031 -7.421875 "/></g></g></g><g fill="#423e3e" fill-opacity="1"><g transform="translate(112.208364, 172.139648)"><g><path d="M 13.476562 -5.980469 L 13.476562 -14.820312 L 10.449219 -14.820312 L 10.449219 -5.867188 C 10.449219 -3.992188 9.40625 -2.746094 7.515625 -2.746094 C 5.90625 -2.746094 4.636719 -3.746094 4.636719 -5.945312 L 4.65625 -14.820312 L 1.570312 -14.820312 L 1.570312 -5.867188 C 1.570312 -2.289062 3.386719 0.207031 7.496094 0.207031 C 11.507812 0.207031 13.476562 -2.195312 13.476562 -5.980469 Z M 13.476562 -5.980469 "/></g></g></g><g fill="#423e3e" fill-opacity="1"><g transform="translate(127.255556, 172.139648)"><g><path d="M 12.53125 -10.070312 C 12.53125 -13.210938 10.203125 -14.820312 7.230469 -14.820312 L 1.722656 -14.820312 L 1.722656 0 L 4.789062 0 L 4.789062 -5.222656 L 7.117188 -5.222656 C 10.222656 -5.222656 12.53125 -6.796875 12.53125 -10.070312 Z M 9.445312 -9.996094 C 9.445312 -8.613281 8.195312 -8.082031 6.984375 -8.082031 L 4.789062 -8.082031 L 4.789062 -11.925781 L 6.964844 -11.925781 C 8.234375 -11.925781 9.445312 -11.433594 9.445312 -9.996094 Z M 9.445312 -9.996094 "/></g></g></g><g clip-path="url(#1c6e2324a1)"><path fill="#bebebe" d="M 95.6875 78.542969 L 119.941406 78.542969 L 119.941406 90.15625 L 95.6875 90.15625 Z M 95.6875 78.542969 " fill-opacity="1" fill-rule="nonzero"/></g><g clip-path="url(#c152d556e3)"><path fill="#423e3e" d="M 121.730469 78.542969 L 145.980469 78.542969 L 145.980469 90.15625 L 121.730469 90.15625 Z M 121.730469 78.542969 " fill-opacity="1" fill-rule="nonzero"/></g><g clip-path="url(#381f223a9a)"><path fill="#bebebe" d="M 147.9375 78.542969 L 172.1875 78.542969 L 172.1875 90.15625 L 147.9375 90.15625 Z M 147.9375 78.542969 " fill-opacity="1" fill-rule="nonzero"/></g><g clip-path="url(#a115f1037e)"><path fill="#423e3e" d="M 95.6875 93.527344 L 119.941406 93.527344 L 119.941406 105.136719 L 95.6875 105.136719 Z M 95.6875 93.527344 " fill-opacity="1" fill-rule="nonzero"/></g><g clip-path="url(#6fad195fb0)"><path fill="#bebebe" d="M 121.730469 93.527344 L 145.980469 93.527344 L 145.980469 105.136719 L 121.730469 105.136719 Z M 121.730469 93.527344 " fill-opacity="1" fill-rule="nonzero"/></g><g clip-path="url(#44e53c0dd6)"><path fill="#423e3e" d="M 147.9375 93.527344 L 172.1875 93.527344 L 172.1875 105.136719 L 147.9375 105.136719 Z M 147.9375 93.527344 " fill-opacity="1" fill-rule="nonzero"/></g><g clip-path="url(#fcbebaff4a)"><path fill="#625e5e" d="M 95.6875 64.703125 L 172.1875 64.703125 L 172.1875 75.121094 L 95.6875 75.121094 Z M 95.6875 64.703125 " fill-opacity="1" fill-rule="nonzero"/></g><g clip-path="url(#4b85e398d4)"><path fill="#bebebe" d="M 95.6875 108.558594 L 119.941406 108.558594 L 119.941406 120.171875 L 95.6875 120.171875 Z M 95.6875 108.558594 " fill-opacity="1" fill-rule="nonzero"/></g><g clip-path="url(#62b32d337f)"><path fill="#423e3e" d="M 121.730469 108.558594 L 145.980469 108.558594 L 145.980469 120.171875 L 121.730469 120.171875 Z M 121.730469 108.558594 " fill-opacity="1" fill-rule="nonzero"/></g><g clip-path="url(#ed7c8c53da)"><path fill="#bebebe" d="M 147.9375 108.558594 L 172.1875 108.558594 L 172.1875 120.171875 L 147.9375 120.171875 Z M 147.9375 108.558594 " fill-opacity="1" fill-rule="nonzero"/></g><path stroke-linecap="butt" transform="matrix(-0.488787, 0, 0, -0.488787, 114.70157, 114.662881)" fill="none" stroke-linejoin="miter" d="M -0.00318178 3.00247 L 166.048765 3.00247 " stroke="#000000" stroke-width="6" stroke-opacity="1" stroke-miterlimit="4"/><path stroke-linecap="butt" transform="matrix(0, -0.488787, 0.488787, 0, 33.314445, 112.487758)" fill="none" stroke-linejoin="miter" d="M -0.00107054 3.000908 L 166.050876 3.000908 " stroke="#000000" stroke-width="6" stroke-opacity="1" stroke-miterlimit="4"/><path stroke-linecap="butt" transform="matrix(0.300859, -0.385223, 0.385223, 0.300859, 37.863885, 107.601331)" fill="none" stroke-linejoin="miter" d="M -0.0000258674 2.999961 L 92.811102 2.996876 " stroke="#0ab1f0" stroke-width="6" stroke-opacity="1" stroke-miterlimit="4"/><path stroke-linecap="butt" transform="matrix(0.357033, 0.333827, -0.333827, 0.357033, 66.756154, 71.734599)" fill="none" stroke-linejoin="miter" d="M -0.00255917 2.999563 L 53.401183 3.001054 " stroke="#0ab1f0" stroke-width="6" stroke-opacity="1" stroke-miterlimit="4"/><path stroke-linecap="butt" transform="matrix(0.300859, -0.385223, 0.385223, 0.300859, 82.783242, 88.961442)" fill="none" stroke-linejoin="miter" d="M -0.000586856 2.996796 L 92.804243 2.99863 " stroke="#0ab1f0" stroke-width="6" stroke-opacity="1" stroke-miterlimit="4"/><path stroke-linecap="butt" transform="matrix(0.488787, 0, 0, 0.488787, 38.04262, 61.114678)" fill="none" stroke-linejoin="miter" d="M 0.000713808 3.002029 L 85.743872 3.002029 " stroke="#00517d" stroke-width="6" stroke-opacity="1" stroke-miterlimit="4"/><path stroke-linecap="butt" transform="matrix(0.36446, 0.325702, -0.325702, 0.36446, 79.892841, 61.176266)" fill="none" stroke-linejoin="miter" d="M -0.00271054 3.002106 L 91.399097 3.001582 " stroke="#00517d" stroke-width="6" stroke-opacity="1" stroke-miterlimit="4"/></svg>