<svg xmlns="http://www.w3.org/2000/svg" xmlns:xlink="http://www.w3.org/1999/xlink" width="300" zoomAndPan="magnify" viewBox="0 0 224.87999 168.749997" height="225" preserveAspectRatio="xMidYMid meet" version="1.0"><defs><g/><clipPath id="ec2509f674"><path d="M 5.984375 6.058594 L 219.1875 6.058594 L 219.1875 162.441406 L 5.984375 162.441406 Z M 5.984375 6.058594 " clip-rule="nonzero"/></clipPath><clipPath id="1f62056c04"><path d="M 66.027344 69.066406 L 158.855469 69.066406 L 158.855469 83.472656 L 66.027344 83.472656 Z M 66.027344 69.066406 " clip-rule="nonzero"/></clipPath><clipPath id="678df7044e"><path d="M 66.027344 91.890625 L 158.855469 91.890625 L 158.855469 106.296875 L 66.027344 106.296875 Z M 66.027344 91.890625 " clip-rule="nonzero"/></clipPath></defs><g clip-path="url(#ec2509f674)"><path fill="#ececec" d="M 5.984375 6.058594 L 219.179688 6.058594 L 219.179688 162.441406 L 5.984375 162.441406 Z M 5.984375 6.058594 " fill-opacity="1" fill-rule="nonzero"/></g><g fill="#423e3e" fill-opacity="1"><g transform="translate(51.733055, 137.330615)"><g><path d="M 4.171875 -12.890625 L 4.171875 0 L 1.5 0 L 1.5 -12.890625 Z M 4.171875 -12.890625 "/></g></g></g><g fill="#423e3e" fill-opacity="1"><g transform="translate(57.417154, 137.330615)"><g><path d="M 4.140625 -8.890625 L 4.140625 0 L 1.5 0 L 1.5 -12.890625 L 4.546875 -12.890625 L 10.140625 -4.484375 L 10.140625 -12.890625 L 12.78125 -12.890625 L 12.78125 0 L 10.0625 0 Z M 4.140625 -8.890625 "/></g></g></g><g fill="#423e3e" fill-opacity="1"><g transform="translate(71.718019, 137.330615)"><g><path d="M 4.21875 0 L 4.21875 -10.3125 L 0.34375 -10.3125 L 0.34375 -12.890625 L 10.734375 -12.890625 L 10.734375 -10.3125 L 6.875 -10.3125 L 6.875 0 Z M 4.21875 0 "/></g></g></g><g fill="#423e3e" fill-opacity="1"><g transform="translate(82.806125, 137.330615)"><g><path d="M 1.5 -12.890625 L 9.953125 -12.890625 L 9.953125 -10.390625 L 4.140625 -10.390625 L 4.140625 -7.765625 L 9.34375 -7.765625 L 9.34375 -5.265625 L 4.140625 -5.265625 L 4.140625 -2.484375 L 9.984375 -2.484375 L 9.984375 0 L 1.5 0 Z M 1.5 -12.890625 "/></g></g></g><g fill="#423e3e" fill-opacity="1"><g transform="translate(93.729475, 137.330615)"><g><path d="M 11.40625 0 L 8.453125 0 L 5.78125 -4.625 L 4.171875 -4.625 L 4.171875 0 L 1.5 0 L 1.5 -12.890625 L 6.59375 -12.890625 C 7.425781 -12.890625 8.1875 -12.738281 8.875 -12.4375 C 9.570312 -12.132812 10.125 -11.679688 10.53125 -11.078125 C 10.945312 -10.472656 11.15625 -9.71875 11.15625 -8.8125 C 11.15625 -6.9375 10.269531 -5.679688 8.5 -5.046875 Z M 6.390625 -7.09375 C 6.722656 -7.09375 7.046875 -7.144531 7.359375 -7.25 C 7.679688 -7.363281 7.941406 -7.539062 8.140625 -7.78125 C 8.347656 -8.03125 8.453125 -8.359375 8.453125 -8.765625 C 8.453125 -9.179688 8.347656 -9.503906 8.140625 -9.734375 C 7.929688 -9.960938 7.671875 -10.125 7.359375 -10.21875 C 7.046875 -10.320312 6.71875 -10.375 6.375 -10.375 L 4.171875 -10.375 L 4.171875 -7.09375 Z M 6.390625 -7.09375 "/></g></g></g><g fill="#423e3e" fill-opacity="1"><g transform="translate(105.773178, 137.330615)"><g><path d="M 2.671875 0 L -0.015625 0 L 4.90625 -12.890625 L 8.125 -12.890625 L 13.0625 0 L 10.3125 0 L 9.34375 -2.609375 L 3.625 -2.609375 Z M 6.484375 -10.3125 L 4.546875 -5.078125 L 8.4375 -5.078125 Z M 6.484375 -10.3125 "/></g></g></g><g fill="#423e3e" fill-opacity="1"><g transform="translate(118.821889, 137.330615)"><g><path d="M 0.703125 -6.4375 C 0.703125 -7.375 0.875 -8.242188 1.21875 -9.046875 C 1.570312 -9.859375 2.054688 -10.566406 2.671875 -11.171875 C 3.285156 -11.773438 3.992188 -12.242188 4.796875 -12.578125 C 5.609375 -12.921875 6.472656 -13.09375 7.390625 -13.09375 C 8.234375 -13.09375 9.046875 -12.941406 9.828125 -12.640625 C 10.617188 -12.347656 11.3125 -11.914062 11.90625 -11.34375 C 12.507812 -10.78125 12.953125 -10.09375 13.234375 -9.28125 L 10.796875 -8.171875 C 10.523438 -8.878906 10.085938 -9.441406 9.484375 -9.859375 C 8.890625 -10.273438 8.1875 -10.484375 7.375 -10.484375 C 6.632812 -10.484375 5.96875 -10.300781 5.375 -9.9375 C 4.789062 -9.582031 4.328125 -9.097656 3.984375 -8.484375 C 3.640625 -7.878906 3.46875 -7.207031 3.46875 -6.46875 C 3.46875 -5.726562 3.632812 -5.050781 3.96875 -4.4375 C 4.3125 -3.820312 4.773438 -3.328125 5.359375 -2.953125 C 5.941406 -2.585938 6.613281 -2.40625 7.375 -2.40625 C 8.1875 -2.40625 8.894531 -2.625 9.5 -3.0625 C 10.113281 -3.507812 10.5625 -4.085938 10.84375 -4.796875 L 13.296875 -3.65625 C 12.992188 -2.84375 12.535156 -2.148438 11.921875 -1.578125 C 11.304688 -1.003906 10.597656 -0.566406 9.796875 -0.265625 C 9.003906 0.0351562 8.1875 0.1875 7.34375 0.1875 C 6.40625 0.1875 5.535156 0.0195312 4.734375 -0.3125 C 3.929688 -0.65625 3.226562 -1.125 2.625 -1.71875 C 2.019531 -2.320312 1.546875 -3.023438 1.203125 -3.828125 C 0.867188 -4.640625 0.703125 -5.507812 0.703125 -6.4375 Z M 0.703125 -6.4375 "/></g></g></g><g fill="#423e3e" fill-opacity="1"><g transform="translate(132.529627, 137.330615)"><g><path d="M 4.21875 0 L 4.21875 -10.3125 L 0.34375 -10.3125 L 0.34375 -12.890625 L 10.734375 -12.890625 L 10.734375 -10.3125 L 6.875 -10.3125 L 6.875 0 Z M 4.21875 0 "/></g></g></g><g fill="#423e3e" fill-opacity="1"><g transform="translate(143.617733, 137.330615)"><g><path d="M 4.171875 -12.890625 L 4.171875 0 L 1.5 0 L 1.5 -12.890625 Z M 4.171875 -12.890625 "/></g></g></g><g fill="#423e3e" fill-opacity="1"><g transform="translate(149.301832, 137.330615)"><g><path d="M 0.25 -12.890625 L 3.125 -12.890625 L 6.46875 -3.09375 L 9.828125 -12.890625 L 12.671875 -12.890625 L 7.984375 0 L 4.90625 0 Z M 0.25 -12.890625 "/></g></g></g><g fill="#423e3e" fill-opacity="1"><g transform="translate(162.218742, 137.330615)"><g><path d="M 1.5 -12.890625 L 9.953125 -12.890625 L 9.953125 -10.390625 L 4.140625 -10.390625 L 4.140625 -7.765625 L 9.34375 -7.765625 L 9.34375 -5.265625 L 4.140625 -5.265625 L 4.140625 -2.484375 L 9.984375 -2.484375 L 9.984375 0 L 1.5 0 Z M 1.5 -12.890625 "/></g></g></g><g fill="#423e3e" fill-opacity="1"><g transform="translate(13.925787, 153.806205)"><g><path d="M 2.671875 0 L -0.015625 0 L 4.90625 -12.890625 L 8.125 -12.890625 L 13.0625 0 L 10.3125 0 L 9.34375 -2.609375 L 3.625 -2.609375 Z M 6.484375 -10.3125 L 4.546875 -5.078125 L 8.4375 -5.078125 Z M 6.484375 -10.3125 "/></g></g></g><g fill="#423e3e" fill-opacity="1"><g transform="translate(26.974498, 153.806205)"><g><path d="M 11.71875 -5.203125 C 11.71875 -4.109375 11.523438 -3.15625 11.140625 -2.34375 C 10.765625 -1.539062 10.191406 -0.914062 9.421875 -0.46875 C 8.648438 -0.03125 7.679688 0.1875 6.515625 0.1875 C 5.335938 0.1875 4.363281 -0.0351562 3.59375 -0.484375 C 2.832031 -0.941406 2.269531 -1.566406 1.90625 -2.359375 C 1.539062 -3.160156 1.359375 -4.078125 1.359375 -5.109375 L 1.359375 -12.890625 L 4.046875 -12.890625 L 4.03125 -5.171875 C 4.03125 -4.210938 4.269531 -3.507812 4.75 -3.0625 C 5.238281 -2.613281 5.832031 -2.390625 6.53125 -2.390625 C 7.351562 -2.390625 7.984375 -2.640625 8.421875 -3.140625 C 8.867188 -3.640625 9.09375 -4.296875 9.09375 -5.109375 L 9.09375 -12.890625 L 11.71875 -12.890625 Z M 11.71875 -5.203125 "/></g></g></g><g fill="#423e3e" fill-opacity="1"><g transform="translate(40.072642, 153.806205)"><g><path d="M 4.21875 0 L 4.21875 -10.3125 L 0.34375 -10.3125 L 0.34375 -12.890625 L 10.734375 -12.890625 L 10.734375 -10.3125 L 6.875 -10.3125 L 6.875 0 Z M 4.21875 0 "/></g></g></g><g fill="#423e3e" fill-opacity="1"><g transform="translate(51.160749, 153.806205)"><g><path d="M 0.703125 -6.4375 C 0.703125 -7.363281 0.878906 -8.226562 1.234375 -9.03125 C 1.585938 -9.84375 2.070312 -10.550781 2.6875 -11.15625 C 3.300781 -11.769531 4.015625 -12.242188 4.828125 -12.578125 C 5.648438 -12.921875 6.519531 -13.09375 7.4375 -13.09375 C 8.363281 -13.09375 9.226562 -12.925781 10.03125 -12.59375 C 10.84375 -12.257812 11.550781 -11.789062 12.15625 -11.1875 C 12.769531 -10.59375 13.242188 -9.894531 13.578125 -9.09375 C 13.921875 -8.289062 14.09375 -7.425781 14.09375 -6.5 C 14.09375 -5.570312 13.921875 -4.703125 13.578125 -3.890625 C 13.234375 -3.078125 12.75 -2.363281 12.125 -1.75 C 11.507812 -1.132812 10.796875 -0.65625 9.984375 -0.3125 C 9.171875 0.03125 8.300781 0.203125 7.375 0.203125 C 6.457031 0.203125 5.59375 0.03125 4.78125 -0.3125 C 3.976562 -0.65625 3.269531 -1.128906 2.65625 -1.734375 C 2.050781 -2.335938 1.570312 -3.039062 1.21875 -3.84375 C 0.875 -4.644531 0.703125 -5.507812 0.703125 -6.4375 Z M 3.4375 -6.453125 C 3.4375 -5.722656 3.613281 -5.046875 3.96875 -4.421875 C 4.320312 -3.796875 4.800781 -3.300781 5.40625 -2.9375 C 6.007812 -2.570312 6.675781 -2.390625 7.40625 -2.390625 C 8.15625 -2.390625 8.828125 -2.570312 9.421875 -2.9375 C 10.023438 -3.300781 10.5 -3.796875 10.84375 -4.421875 C 11.195312 -5.046875 11.375 -5.722656 11.375 -6.453125 C 11.375 -7.203125 11.195312 -7.878906 10.84375 -8.484375 C 10.5 -9.097656 10.023438 -9.585938 9.421875 -9.953125 C 8.828125 -10.316406 8.15625 -10.5 7.40625 -10.5 C 6.675781 -10.5 6.007812 -10.316406 5.40625 -9.953125 C 4.800781 -9.585938 4.320312 -9.097656 3.96875 -8.484375 C 3.613281 -7.878906 3.4375 -7.203125 3.4375 -6.453125 Z M 3.4375 -6.453125 "/></g></g></g><g fill="#423e3e" fill-opacity="1"><g transform="translate(65.972351, 153.806205)"><g><path d="M 13.078125 -8.515625 L 9.484375 0 L 7.703125 0 L 4.140625 -8.453125 L 4.125 -8.453125 L 4.125 0 L 1.5 0 L 1.5 -12.890625 L 4.9375 -12.890625 L 8.59375 -4.25 L 12.1875 -12.890625 L 15.734375 -12.890625 L 15.734375 0 L 13.09375 0 L 13.09375 -8.515625 Z M 13.078125 -8.515625 "/></g></g></g><g fill="#423e3e" fill-opacity="1"><g transform="translate(83.205882, 153.806205)"><g><path d="M 2.671875 0 L -0.015625 0 L 4.90625 -12.890625 L 8.125 -12.890625 L 13.0625 0 L 10.3125 0 L 9.34375 -2.609375 L 3.625 -2.609375 Z M 6.484375 -10.3125 L 4.546875 -5.078125 L 8.4375 -5.078125 Z M 6.484375 -10.3125 "/></g></g></g><g fill="#423e3e" fill-opacity="1"><g transform="translate(96.254593, 153.806205)"><g><path d="M 4.21875 0 L 4.21875 -10.3125 L 0.34375 -10.3125 L 0.34375 -12.890625 L 10.734375 -12.890625 L 10.734375 -10.3125 L 6.875 -10.3125 L 6.875 0 Z M 4.21875 0 "/></g></g></g><g fill="#423e3e" fill-opacity="1"><g transform="translate(107.342699, 153.806205)"><g><path d="M 4.171875 -12.890625 L 4.171875 0 L 1.5 0 L 1.5 -12.890625 Z M 4.171875 -12.890625 "/></g></g></g><g fill="#423e3e" fill-opacity="1"><g transform="translate(113.026798, 153.806205)"><g><path d="M 0.703125 -6.4375 C 0.703125 -7.363281 0.878906 -8.226562 1.234375 -9.03125 C 1.585938 -9.84375 2.070312 -10.550781 2.6875 -11.15625 C 3.300781 -11.769531 4.015625 -12.242188 4.828125 -12.578125 C 5.648438 -12.921875 6.519531 -13.09375 7.4375 -13.09375 C 8.363281 -13.09375 9.226562 -12.925781 10.03125 -12.59375 C 10.84375 -12.257812 11.550781 -11.789062 12.15625 -11.1875 C 12.769531 -10.59375 13.242188 -9.894531 13.578125 -9.09375 C 13.921875 -8.289062 14.09375 -7.425781 14.09375 -6.5 C 14.09375 -5.570312 13.921875 -4.703125 13.578125 -3.890625 C 13.234375 -3.078125 12.75 -2.363281 12.125 -1.75 C 11.507812 -1.132812 10.796875 -0.65625 9.984375 -0.3125 C 9.171875 0.03125 8.300781 0.203125 7.375 0.203125 C 6.457031 0.203125 5.59375 0.03125 4.78125 -0.3125 C 3.976562 -0.65625 3.269531 -1.128906 2.65625 -1.734375 C 2.050781 -2.335938 1.570312 -3.039062 1.21875 -3.84375 C 0.875 -4.644531 0.703125 -5.507812 0.703125 -6.4375 Z M 3.4375 -6.453125 C 3.4375 -5.722656 3.613281 -5.046875 3.96875 -4.421875 C 4.320312 -3.796875 4.800781 -3.300781 5.40625 -2.9375 C 6.007812 -2.570312 6.675781 -2.390625 7.40625 -2.390625 C 8.15625 -2.390625 8.828125 -2.570312 9.421875 -2.9375 C 10.023438 -3.300781 10.5 -3.796875 10.84375 -4.421875 C 11.195312 -5.046875 11.375 -5.722656 11.375 -6.453125 C 11.375 -7.203125 11.195312 -7.878906 10.84375 -8.484375 C 10.5 -9.097656 10.023438 -9.585938 9.421875 -9.953125 C 8.828125 -10.316406 8.15625 -10.5 7.40625 -10.5 C 6.675781 -10.5 6.007812 -10.316406 5.40625 -9.953125 C 4.800781 -9.585938 4.320312 -9.097656 3.96875 -8.484375 C 3.613281 -7.878906 3.4375 -7.203125 3.4375 -6.453125 Z M 3.4375 -6.453125 "/></g></g></g><g fill="#423e3e" fill-opacity="1"><g transform="translate(127.8384, 153.806205)"><g><path d="M 4.140625 -8.890625 L 4.140625 0 L 1.5 0 L 1.5 -12.890625 L 4.546875 -12.890625 L 10.140625 -4.484375 L 10.140625 -12.890625 L 12.78125 -12.890625 L 12.78125 0 L 10.0625 0 Z M 4.140625 -8.890625 "/></g></g></g><g fill="#423e3e" fill-opacity="1"><g transform="translate(142.139264, 153.806205)"><g/></g></g><g fill="#423e3e" fill-opacity="1"><g transform="translate(146.274652, 153.806205)"><g><path d="M 3.484375 -9.375 C 3.484375 -8.96875 3.65625 -8.648438 4 -8.421875 C 4.351562 -8.203125 4.875 -7.992188 5.5625 -7.796875 C 6.519531 -7.515625 7.335938 -7.203125 8.015625 -6.859375 C 8.691406 -6.523438 9.203125 -6.109375 9.546875 -5.609375 C 9.898438 -5.117188 10.078125 -4.507812 10.078125 -3.78125 C 10.078125 -3.03125 9.894531 -2.351562 9.53125 -1.75 C 9.164062 -1.15625 8.632812 -0.679688 7.9375 -0.328125 C 7.238281 0.0234375 6.378906 0.203125 5.359375 0.203125 C 4.140625 0.203125 3.085938 -0.0703125 2.203125 -0.625 C 1.328125 -1.175781 0.695312 -1.910156 0.3125 -2.828125 L 2.625 -4.015625 C 2.875 -3.453125 3.242188 -3.007812 3.734375 -2.6875 C 4.222656 -2.375 4.789062 -2.21875 5.4375 -2.21875 C 6.019531 -2.21875 6.488281 -2.347656 6.84375 -2.609375 C 7.207031 -2.867188 7.390625 -3.195312 7.390625 -3.59375 C 7.390625 -3.84375 7.316406 -4.054688 7.171875 -4.234375 C 7.035156 -4.421875 6.785156 -4.585938 6.421875 -4.734375 C 6.066406 -4.890625 5.578125 -5.0625 4.953125 -5.25 C 4.265625 -5.457031 3.65625 -5.6875 3.125 -5.9375 C 2.601562 -6.1875 2.164062 -6.476562 1.8125 -6.8125 C 1.507812 -7.101562 1.269531 -7.453125 1.09375 -7.859375 C 0.914062 -8.265625 0.828125 -8.710938 0.828125 -9.203125 C 0.828125 -9.972656 1.03125 -10.648438 1.4375 -11.234375 C 1.851562 -11.816406 2.398438 -12.269531 3.078125 -12.59375 C 3.753906 -12.925781 4.5 -13.09375 5.3125 -13.09375 C 6.394531 -13.09375 7.328125 -12.847656 8.109375 -12.359375 C 8.890625 -11.867188 9.46875 -11.1875 9.84375 -10.3125 L 7.640625 -9.109375 C 7.429688 -9.617188 7.109375 -10.007812 6.671875 -10.28125 C 6.242188 -10.550781 5.753906 -10.6875 5.203125 -10.6875 C 4.660156 -10.6875 4.238281 -10.5625 3.9375 -10.3125 C 3.632812 -10.070312 3.484375 -9.757812 3.484375 -9.375 Z M 3.484375 -9.375 "/></g></g></g><g fill="#423e3e" fill-opacity="1"><g transform="translate(157.016778, 153.806205)"><g><path d="M 0.703125 -6.4375 C 0.703125 -7.375 0.875 -8.242188 1.21875 -9.046875 C 1.570312 -9.859375 2.054688 -10.566406 2.671875 -11.171875 C 3.285156 -11.773438 3.992188 -12.242188 4.796875 -12.578125 C 5.609375 -12.921875 6.472656 -13.09375 7.390625 -13.09375 C 8.234375 -13.09375 9.046875 -12.941406 9.828125 -12.640625 C 10.617188 -12.347656 11.3125 -11.914062 11.90625 -11.34375 C 12.507812 -10.78125 12.953125 -10.09375 13.234375 -9.28125 L 10.796875 -8.171875 C 10.523438 -8.878906 10.085938 -9.441406 9.484375 -9.859375 C 8.890625 -10.273438 8.1875 -10.484375 7.375 -10.484375 C 6.632812 -10.484375 5.96875 -10.300781 5.375 -9.9375 C 4.789062 -9.582031 4.328125 -9.097656 3.984375 -8.484375 C 3.640625 -7.878906 3.46875 -7.207031 3.46875 -6.46875 C 3.46875 -5.726562 3.632812 -5.050781 3.96875 -4.4375 C 4.3125 -3.820312 4.773438 -3.328125 5.359375 -2.953125 C 5.941406 -2.585938 6.613281 -2.40625 7.375 -2.40625 C 8.1875 -2.40625 8.894531 -2.625 9.5 -3.0625 C 10.113281 -3.507812 10.5625 -4.085938 10.84375 -4.796875 L 13.296875 -3.65625 C 12.992188 -2.84375 12.535156 -2.148438 11.921875 -1.578125 C 11.304688 -1.003906 10.597656 -0.566406 9.796875 -0.265625 C 9.003906 0.0351562 8.1875 0.1875 7.34375 0.1875 C 6.40625 0.1875 5.535156 0.0195312 4.734375 -0.3125 C 3.929688 -0.65625 3.226562 -1.125 2.625 -1.71875 C 2.019531 -2.320312 1.546875 -3.023438 1.203125 -3.828125 C 0.867188 -4.640625 0.703125 -5.507812 0.703125 -6.4375 Z M 0.703125 -6.4375 "/></g></g></g><g fill="#423e3e" fill-opacity="1"><g transform="translate(170.724516, 153.806205)"><g><path d="M 11.40625 0 L 8.453125 0 L 5.78125 -4.625 L 4.171875 -4.625 L 4.171875 0 L 1.5 0 L 1.5 -12.890625 L 6.59375 -12.890625 C 7.425781 -12.890625 8.1875 -12.738281 8.875 -12.4375 C 9.570312 -12.132812 10.125 -11.679688 10.53125 -11.078125 C 10.945312 -10.472656 11.15625 -9.71875 11.15625 -8.8125 C 11.15625 -6.9375 10.269531 -5.679688 8.5 -5.046875 Z M 6.390625 -7.09375 C 6.722656 -7.09375 7.046875 -7.144531 7.359375 -7.25 C 7.679688 -7.363281 7.941406 -7.539062 8.140625 -7.78125 C 8.347656 -8.03125 8.453125 -8.359375 8.453125 -8.765625 C 8.453125 -9.179688 8.347656 -9.503906 8.140625 -9.734375 C 7.929688 -9.960938 7.671875 -10.125 7.359375 -10.21875 C 7.046875 -10.320312 6.71875 -10.375 6.375 -10.375 L 4.171875 -10.375 L 4.171875 -7.09375 Z M 6.390625 -7.09375 "/></g></g></g><g fill="#423e3e" fill-opacity="1"><g transform="translate(182.768219, 153.806205)"><g><path d="M 4.171875 -12.890625 L 4.171875 0 L 1.5 0 L 1.5 -12.890625 Z M 4.171875 -12.890625 "/></g></g></g><g fill="#423e3e" fill-opacity="1"><g transform="translate(188.452318, 153.806205)"><g><path d="M 10.90625 -8.765625 C 10.90625 -7.816406 10.695312 -7.03125 10.28125 -6.40625 C 9.875 -5.78125 9.316406 -5.3125 8.609375 -5 C 7.898438 -4.695312 7.09375 -4.546875 6.1875 -4.546875 L 4.171875 -4.546875 L 4.171875 0 L 1.5 0 L 1.5 -12.890625 L 6.296875 -12.890625 C 7.160156 -12.890625 7.9375 -12.734375 8.625 -12.421875 C 9.320312 -12.117188 9.875 -11.660156 10.28125 -11.046875 C 10.695312 -10.429688 10.90625 -9.671875 10.90625 -8.765625 Z M 8.21875 -8.703125 C 8.21875 -9.117188 8.113281 -9.445312 7.90625 -9.6875 C 7.695312 -9.9375 7.429688 -10.113281 7.109375 -10.21875 C 6.785156 -10.320312 6.4375 -10.375 6.0625 -10.375 L 4.171875 -10.375 L 4.171875 -7.03125 L 6.078125 -7.03125 C 6.429688 -7.03125 6.769531 -7.082031 7.09375 -7.1875 C 7.425781 -7.300781 7.695312 -7.484375 7.90625 -7.734375 C 8.113281 -7.984375 8.21875 -8.304688 8.21875 -8.703125 Z M 8.21875 -8.703125 "/></g></g></g><g fill="#423e3e" fill-opacity="1"><g transform="translate(199.85346, 153.806205)"><g><path d="M 4.21875 0 L 4.21875 -10.3125 L 0.34375 -10.3125 L 0.34375 -12.890625 L 10.734375 -12.890625 L 10.734375 -10.3125 L 6.875 -10.3125 L 6.875 0 Z M 4.21875 0 "/></g></g></g><g clip-path="url(#1f62056c04)"><path fill="#a6a6a6" d="M 66.027344 69.066406 L 158.832031 69.066406 L 158.832031 83.472656 L 66.027344 83.472656 Z M 66.027344 69.066406 " fill-opacity="1" fill-rule="nonzero"/></g><g fill="#423e3e" fill-opacity="1"><g transform="translate(80.460253, 59.402542)"><g><path d="M 7.140625 0 L 3.515625 0 L 3.515625 -27.328125 L 7.140625 -27.328125 Z M 7.140625 0 "/></g></g></g><g fill="#423e3e" fill-opacity="1"><g transform="translate(92.064064, 59.402542)"><g><path d="M 25.53125 0 L 21.421875 0 L 18.203125 -8.328125 L 6.796875 -8.328125 L 3.8125 0 L -0.03125 0 L 10.453125 -27.328125 L 14.359375 -27.328125 Z M 10.84375 -19.234375 L 7.859375 -11.21875 L 17.09375 -11.21875 L 13.734375 -20.234375 C 13.328125 -21.296875 12.859375 -22.707031 12.328125 -24.46875 C 12.328125 -24.34375 12.171875 -23.695312 11.859375 -22.53125 C 11.554688 -21.375 11.21875 -20.273438 10.84375 -19.234375 Z M 10.84375 -19.234375 "/></g></g></g><g fill="#423e3e" fill-opacity="1"><g transform="translate(118.515987, 59.402542)"><g><path d="M 12.375 -27.78125 C 15.476562 -27.78125 17.929688 -27.054688 19.734375 -25.609375 C 21.535156 -24.160156 22.503906 -22.164062 22.640625 -19.625 L 19.15625 -19.390625 C 18.957031 -21.148438 18.320312 -22.445312 17.25 -23.28125 C 16.1875 -24.125 14.609375 -24.546875 12.515625 -24.546875 C 10.535156 -24.546875 9 -24.179688 7.90625 -23.453125 C 6.8125 -22.734375 6.265625 -21.75 6.265625 -20.5 C 6.265625 -19.6875 6.503906 -18.992188 6.984375 -18.421875 C 7.460938 -17.847656 8.148438 -17.429688 9.046875 -17.171875 C 9.253906 -17.117188 10.003906 -16.894531 11.296875 -16.5 C 12.597656 -16.113281 14.253906 -15.703125 16.265625 -15.265625 C 18.648438 -14.734375 20.441406 -13.78125 21.640625 -12.40625 C 22.835938 -11.03125 23.4375 -9.460938 23.4375 -7.703125 C 23.4375 -6.234375 23.035156 -4.875 22.234375 -3.625 C 21.429688 -2.375 20.265625 -1.378906 18.734375 -0.640625 C 17.210938 0.0859375 15.410156 0.453125 13.328125 0.453125 C 10.929688 0.453125 8.867188 0.0703125 7.140625 -0.6875 C 5.410156 -1.445312 4.085938 -2.519531 3.171875 -3.90625 C 2.253906 -5.300781 1.769531 -6.925781 1.71875 -8.78125 L 5.15625 -9.078125 C 5.300781 -6.921875 6.148438 -5.332031 7.703125 -4.3125 C 9.265625 -3.289062 11.097656 -2.78125 13.203125 -2.78125 C 15.316406 -2.78125 16.976562 -3.210938 18.1875 -4.078125 C 19.394531 -4.941406 20 -6.113281 20 -7.59375 C 20 -9.601562 18.382812 -11.003906 15.15625 -11.796875 L 13.015625 -12.328125 C 11.691406 -12.628906 10.164062 -13.035156 8.4375 -13.546875 C 6.675781 -14.054688 5.300781 -14.914062 4.3125 -16.125 C 3.320312 -17.332031 2.828125 -18.710938 2.828125 -20.265625 C 2.828125 -21.691406 3.207031 -22.976562 3.96875 -24.125 C 4.726562 -25.269531 5.828125 -26.164062 7.265625 -26.8125 C 8.703125 -27.457031 10.40625 -27.78125 12.375 -27.78125 Z M 12.375 -27.78125 "/></g></g></g><g clip-path="url(#678df7044e)"><path fill="#a6a6a6" d="M 66.027344 91.890625 L 158.832031 91.890625 L 158.832031 106.296875 L 66.027344 106.296875 Z M 66.027344 91.890625 " fill-opacity="1" fill-rule="nonzero"/></g></svg>