<svg xmlns="http://www.w3.org/2000/svg" xmlns:xlink="http://www.w3.org/1999/xlink" width="275" zoomAndPan="magnify" viewBox="0 0 206.25 187.499992" height="250" preserveAspectRatio="xMidYMid meet" version="1.0"><defs><g/><clipPath id="5ea5e6f159"><path d="M 3.332031 144.546875 L 202.171875 144.546875 L 202.171875 181.214844 L 3.332031 181.214844 Z M 3.332031 144.546875 " clip-rule="nonzero"/></clipPath><clipPath id="45e46ea596"><path d="M 6.664062 6.203125 L 198.839844 6.203125 L 198.839844 136.34375 L 6.664062 136.34375 Z M 6.664062 6.203125 " clip-rule="nonzero"/></clipPath><clipPath id="1479751ae4"><path d="M 56.4375 67.53125 L 149.066406 67.53125 L 149.066406 81.910156 L 56.4375 81.910156 Z M 56.4375 67.53125 " clip-rule="nonzero"/></clipPath><clipPath id="181103e44c"><path d="M 56.4375 92.472656 L 149.066406 92.472656 L 149.066406 106.851562 L 56.4375 106.851562 Z M 56.4375 92.472656 " clip-rule="nonzero"/></clipPath></defs><g clip-path="url(#5ea5e6f159)"><path fill="#ffffff" d="M 3.332031 144.546875 L 202.132812 144.546875 L 202.132812 181.214844 L 3.332031 181.214844 Z M 3.332031 144.546875 " fill-opacity="1" fill-rule="nonzero"/></g><g fill="#423e3e" fill-opacity="1"><g transform="translate(44.019614, 159.890972)"><g><path d="M 4.03125 -12.484375 L 1.453125 -12.484375 L 1.453125 0 L 4.03125 0 Z M 4.03125 -12.484375 "/></g></g></g><g fill="#423e3e" fill-opacity="1"><g transform="translate(49.518292, 159.890972)"><g><path d="M 4 -8.609375 L 9.734375 0 L 12.375 0 L 12.375 -12.484375 L 9.8125 -12.484375 L 9.8125 -4.328125 L 4.40625 -12.484375 L 1.453125 -12.484375 L 1.453125 0 L 4 0 Z M 4 -8.609375 "/></g></g></g><g fill="#423e3e" fill-opacity="1"><g transform="translate(63.352655, 159.890972)"><g><path d="M 4.078125 0 L 6.640625 0 L 6.640625 -9.984375 L 10.390625 -9.984375 L 10.390625 -12.484375 L 0.328125 -12.484375 L 0.328125 -9.984375 L 4.078125 -9.984375 Z M 4.078125 0 "/></g></g></g><g fill="#423e3e" fill-opacity="1"><g transform="translate(74.079061, 159.890972)"><g><path d="M 1.453125 -12.484375 L 1.453125 0 L 9.65625 0 L 9.65625 -2.40625 L 4 -2.40625 L 4 -5.09375 L 9.03125 -5.09375 L 9.03125 -7.515625 L 4 -7.515625 L 4 -10.0625 L 9.625 -10.0625 L 9.625 -12.484375 Z M 1.453125 -12.484375 "/></g></g></g><g fill="#423e3e" fill-opacity="1"><g transform="translate(84.646092, 159.890972)"><g><path d="M 11.046875 0 L 8.21875 -4.875 C 9.90625 -5.484375 10.796875 -6.734375 10.796875 -8.53125 C 10.796875 -11.171875 8.796875 -12.484375 6.375 -12.484375 L 1.453125 -12.484375 L 1.453125 0 L 4.03125 0 L 4.03125 -4.484375 L 5.59375 -4.484375 L 8.171875 0 Z M 6.1875 -6.875 L 4.03125 -6.875 L 4.03125 -10.046875 L 6.171875 -10.046875 C 7.140625 -10.046875 8.171875 -9.671875 8.171875 -8.484375 C 8.171875 -7.296875 7.140625 -6.875 6.1875 -6.875 Z M 6.1875 -6.875 "/></g></g></g><g fill="#423e3e" fill-opacity="1"><g transform="translate(96.29692, 159.890972)"><g><path d="M 2.578125 0 L 3.5 -2.515625 L 9.03125 -2.515625 L 9.984375 0 L 12.640625 0 L 7.859375 -12.484375 L 4.75 -12.484375 L -0.015625 0 Z M 6.28125 -9.984375 L 8.15625 -4.90625 L 4.40625 -4.90625 Z M 6.28125 -9.984375 "/></g></g></g><g fill="#423e3e" fill-opacity="1"><g transform="translate(108.91997, 159.890972)"><g><path d="M 0.6875 -6.234375 C 0.6875 -2.59375 3.46875 0.171875 7.109375 0.171875 C 9.5625 0.171875 12 -1.171875 12.859375 -3.53125 L 10.484375 -4.640625 C 9.9375 -3.28125 8.703125 -2.328125 7.140625 -2.328125 C 4.921875 -2.328125 3.359375 -4.09375 3.359375 -6.265625 C 3.359375 -8.40625 4.96875 -10.15625 7.140625 -10.15625 C 8.703125 -10.15625 9.921875 -9.28125 10.453125 -7.90625 L 12.8125 -8.984375 C 11.96875 -11.328125 9.609375 -12.671875 7.15625 -12.671875 C 3.59375 -12.671875 0.6875 -9.828125 0.6875 -6.234375 Z M 0.6875 -6.234375 "/></g></g></g><g fill="#423e3e" fill-opacity="1"><g transform="translate(122.180553, 159.890972)"><g><path d="M 4.078125 0 L 6.640625 0 L 6.640625 -9.984375 L 10.390625 -9.984375 L 10.390625 -12.484375 L 0.328125 -12.484375 L 0.328125 -9.984375 L 4.078125 -9.984375 Z M 4.078125 0 "/></g></g></g><g fill="#423e3e" fill-opacity="1"><g transform="translate(132.906959, 159.890972)"><g><path d="M 4.03125 -12.484375 L 1.453125 -12.484375 L 1.453125 0 L 4.03125 0 Z M 4.03125 -12.484375 "/></g></g></g><g fill="#423e3e" fill-opacity="1"><g transform="translate(138.405636, 159.890972)"><g><path d="M 0.234375 -12.484375 L 4.75 0 L 7.734375 0 L 12.25 -12.484375 L 9.515625 -12.484375 L 6.265625 -3 L 3.03125 -12.484375 Z M 0.234375 -12.484375 "/></g></g></g><g fill="#423e3e" fill-opacity="1"><g transform="translate(150.901182, 159.890972)"><g><path d="M 1.453125 -12.484375 L 1.453125 0 L 9.65625 0 L 9.65625 -2.40625 L 4 -2.40625 L 4 -5.09375 L 9.03125 -5.09375 L 9.03125 -7.515625 L 4 -7.515625 L 4 -10.0625 L 9.625 -10.0625 L 9.625 -12.484375 Z M 1.453125 -12.484375 "/></g></g></g><g fill="#423e3e" fill-opacity="1"><g transform="translate(7.449473, 177.825754)"><g><path d="M 2.578125 0 L 3.5 -2.515625 L 9.03125 -2.515625 L 9.984375 0 L 12.640625 0 L 7.859375 -12.484375 L 4.75 -12.484375 L -0.015625 0 Z M 6.28125 -9.984375 L 8.15625 -4.90625 L 4.40625 -4.90625 Z M 6.28125 -9.984375 "/></g></g></g><g fill="#423e3e" fill-opacity="1"><g transform="translate(20.072523, 177.825754)"><g><path d="M 11.34375 -5.03125 L 11.34375 -12.484375 L 8.796875 -12.484375 L 8.796875 -4.9375 C 8.796875 -3.359375 7.921875 -2.3125 6.328125 -2.3125 C 4.96875 -2.3125 3.90625 -3.15625 3.90625 -5 L 3.921875 -12.484375 L 1.328125 -12.484375 L 1.328125 -4.9375 C 1.328125 -1.921875 2.859375 0.171875 6.3125 0.171875 C 9.6875 0.171875 11.34375 -1.84375 11.34375 -5.03125 Z M 11.34375 -5.03125 "/></g></g></g><g fill="#423e3e" fill-opacity="1"><g transform="translate(32.743397, 177.825754)"><g><path d="M 4.078125 0 L 6.640625 0 L 6.640625 -9.984375 L 10.390625 -9.984375 L 10.390625 -12.484375 L 0.328125 -12.484375 L 0.328125 -9.984375 L 4.078125 -9.984375 Z M 4.078125 0 "/></g></g></g><g fill="#423e3e" fill-opacity="1"><g transform="translate(43.469803, 177.825754)"><g><path d="M 0.6875 -6.234375 C 0.6875 -2.625 3.546875 0.1875 7.140625 0.1875 C 10.71875 0.1875 13.640625 -2.65625 13.640625 -6.296875 C 13.640625 -9.875 10.796875 -12.671875 7.203125 -12.671875 C 3.625 -12.671875 0.6875 -9.8125 0.6875 -6.234375 Z M 3.328125 -6.25 C 3.328125 -8.40625 5.015625 -10.171875 7.171875 -10.171875 C 9.328125 -10.171875 11.015625 -8.40625 11.015625 -6.25 C 11.015625 -4.09375 9.328125 -2.3125 7.171875 -2.3125 C 5.015625 -2.3125 3.328125 -4.09375 3.328125 -6.25 Z M 3.328125 -6.25 "/></g></g></g><g fill="#423e3e" fill-opacity="1"><g transform="translate(57.798241, 177.825754)"><g><path d="M 12.65625 -8.234375 L 12.671875 -8.234375 L 12.671875 0 L 15.21875 0 L 15.21875 -12.484375 L 11.796875 -12.484375 L 8.3125 -4.109375 L 4.78125 -12.484375 L 1.453125 -12.484375 L 1.453125 0 L 3.984375 0 L 3.984375 -8.171875 L 4 -8.171875 L 7.453125 0 L 9.1875 0 Z M 12.65625 -8.234375 "/></g></g></g><g fill="#423e3e" fill-opacity="1"><g transform="translate(74.469601, 177.825754)"><g><path d="M 2.578125 0 L 3.5 -2.515625 L 9.03125 -2.515625 L 9.984375 0 L 12.640625 0 L 7.859375 -12.484375 L 4.75 -12.484375 L -0.015625 0 Z M 6.28125 -9.984375 L 8.15625 -4.90625 L 4.40625 -4.90625 Z M 6.28125 -9.984375 "/></g></g></g><g fill="#423e3e" fill-opacity="1"><g transform="translate(87.092651, 177.825754)"><g><path d="M 4.078125 0 L 6.640625 0 L 6.640625 -9.984375 L 10.390625 -9.984375 L 10.390625 -12.484375 L 0.328125 -12.484375 L 0.328125 -9.984375 L 4.078125 -9.984375 Z M 4.078125 0 "/></g></g></g><g fill="#423e3e" fill-opacity="1"><g transform="translate(97.819057, 177.825754)"><g><path d="M 4.03125 -12.484375 L 1.453125 -12.484375 L 1.453125 0 L 4.03125 0 Z M 4.03125 -12.484375 "/></g></g></g><g fill="#423e3e" fill-opacity="1"><g transform="translate(103.317734, 177.825754)"><g><path d="M 0.6875 -6.234375 C 0.6875 -2.625 3.546875 0.1875 7.140625 0.1875 C 10.71875 0.1875 13.640625 -2.65625 13.640625 -6.296875 C 13.640625 -9.875 10.796875 -12.671875 7.203125 -12.671875 C 3.625 -12.671875 0.6875 -9.8125 0.6875 -6.234375 Z M 3.328125 -6.25 C 3.328125 -8.40625 5.015625 -10.171875 7.171875 -10.171875 C 9.328125 -10.171875 11.015625 -8.40625 11.015625 -6.25 C 11.015625 -4.09375 9.328125 -2.3125 7.171875 -2.3125 C 5.015625 -2.3125 3.328125 -4.09375 3.328125 -6.25 Z M 3.328125 -6.25 "/></g></g></g><g fill="#423e3e" fill-opacity="1"><g transform="translate(117.646173, 177.825754)"><g><path d="M 4 -8.609375 L 9.734375 0 L 12.375 0 L 12.375 -12.484375 L 9.8125 -12.484375 L 9.8125 -4.328125 L 4.40625 -12.484375 L 1.453125 -12.484375 L 1.453125 0 L 4 0 Z M 4 -8.609375 "/></g></g></g><g fill="#423e3e" fill-opacity="1"><g transform="translate(131.480536, 177.825754)"><g/></g></g><g fill="#423e3e" fill-opacity="1"><g transform="translate(135.481022, 177.825754)"><g><path d="M 3.375 -9.0625 C 3.375 -9.796875 4 -10.34375 5.03125 -10.34375 C 6.109375 -10.34375 6.984375 -9.8125 7.390625 -8.8125 L 9.53125 -9.984375 C 8.8125 -11.6875 7.234375 -12.671875 5.140625 -12.671875 C 2.796875 -12.671875 0.796875 -11.140625 0.796875 -8.90625 C 0.796875 -7.953125 1.171875 -7.15625 1.75 -6.59375 C 2.421875 -5.921875 3.453125 -5.484375 4.796875 -5.078125 C 6.609375 -4.546875 7.15625 -4.203125 7.15625 -3.46875 C 7.15625 -2.703125 6.375 -2.15625 5.265625 -2.15625 C 4 -2.15625 3.015625 -2.8125 2.53125 -3.890625 L 0.296875 -2.734375 C 1.03125 -0.953125 2.828125 0.1875 5.1875 0.1875 C 8.125 0.1875 9.75 -1.46875 9.75 -3.671875 C 9.75 -5.765625 8.15625 -6.734375 5.390625 -7.53125 C 4.046875 -7.921875 3.375 -8.28125 3.375 -9.0625 Z M 3.375 -9.0625 "/></g></g></g><g fill="#423e3e" fill-opacity="1"><g transform="translate(145.872727, 177.825754)"><g><path d="M 0.6875 -6.234375 C 0.6875 -2.59375 3.46875 0.171875 7.109375 0.171875 C 9.5625 0.171875 12 -1.171875 12.859375 -3.53125 L 10.484375 -4.640625 C 9.9375 -3.28125 8.703125 -2.328125 7.140625 -2.328125 C 4.921875 -2.328125 3.359375 -4.09375 3.359375 -6.265625 C 3.359375 -8.40625 4.96875 -10.15625 7.140625 -10.15625 C 8.703125 -10.15625 9.921875 -9.28125 10.453125 -7.90625 L 12.8125 -8.984375 C 11.96875 -11.328125 9.609375 -12.671875 7.15625 -12.671875 C 3.59375 -12.671875 0.6875 -9.828125 0.6875 -6.234375 Z M 0.6875 -6.234375 "/></g></g></g><g fill="#423e3e" fill-opacity="1"><g transform="translate(159.133309, 177.825754)"><g><path d="M 11.046875 0 L 8.21875 -4.875 C 9.90625 -5.484375 10.796875 -6.734375 10.796875 -8.53125 C 10.796875 -11.171875 8.796875 -12.484375 6.375 -12.484375 L 1.453125 -12.484375 L 1.453125 0 L 4.03125 0 L 4.03125 -4.484375 L 5.59375 -4.484375 L 8.171875 0 Z M 6.1875 -6.875 L 4.03125 -6.875 L 4.03125 -10.046875 L 6.171875 -10.046875 C 7.140625 -10.046875 8.171875 -9.671875 8.171875 -8.484375 C 8.171875 -7.296875 7.140625 -6.875 6.1875 -6.875 Z M 6.1875 -6.875 "/></g></g></g><g fill="#423e3e" fill-opacity="1"><g transform="translate(170.784138, 177.825754)"><g><path d="M 4.03125 -12.484375 L 1.453125 -12.484375 L 1.453125 0 L 4.03125 0 Z M 4.03125 -12.484375 "/></g></g></g><g fill="#423e3e" fill-opacity="1"><g transform="translate(176.282815, 177.825754)"><g><path d="M 10.546875 -8.484375 C 10.546875 -11.125 8.59375 -12.484375 6.09375 -12.484375 L 1.453125 -12.484375 L 1.453125 0 L 4.03125 0 L 4.03125 -4.40625 L 6 -4.40625 C 8.609375 -4.40625 10.546875 -5.71875 10.546875 -8.484375 Z M 7.953125 -8.421875 C 7.953125 -7.25 6.90625 -6.8125 5.875 -6.8125 L 4.03125 -6.8125 L 4.03125 -10.046875 L 5.859375 -10.046875 C 6.9375 -10.046875 7.953125 -9.625 7.953125 -8.421875 Z M 7.953125 -8.421875 "/></g></g></g><g fill="#423e3e" fill-opacity="1"><g transform="translate(187.312052, 177.825754)"><g><path d="M 4.078125 0 L 6.640625 0 L 6.640625 -9.984375 L 10.390625 -9.984375 L 10.390625 -12.484375 L 0.328125 -12.484375 L 0.328125 -9.984375 L 4.078125 -9.984375 Z M 4.078125 0 "/></g></g></g><g clip-path="url(#45e46ea596)"><path fill="#ececec" d="M 6.664062 6.203125 L 198.824219 6.203125 L 198.824219 136.34375 L 6.664062 136.34375 Z M 6.664062 6.203125 " fill-opacity="1" fill-rule="nonzero"/></g><g clip-path="url(#1479751ae4)"><path fill="#a6a6a6" d="M 56.4375 67.53125 L 149.042969 67.53125 L 149.042969 81.910156 L 56.4375 81.910156 Z M 56.4375 67.53125 " fill-opacity="1" fill-rule="nonzero"/></g><g fill="#423e3e" fill-opacity="1"><g transform="translate(70.840279, 57.143096)"><g><path d="M 7.125 0 L 3.5 0 L 3.5 -27.28125 L 7.125 -27.28125 Z M 7.125 0 "/></g></g></g><g fill="#423e3e" fill-opacity="1"><g transform="translate(82.419176, 57.143096)"><g><path d="M 25.484375 0 L 21.375 0 L 18.171875 -8.296875 L 6.78125 -8.296875 L 3.8125 0 L -0.03125 0 L 10.4375 -27.28125 L 14.328125 -27.28125 Z M 10.8125 -19.203125 L 7.84375 -11.203125 L 17.0625 -11.203125 L 13.71875 -20.1875 C 13.3125 -21.257812 12.835938 -22.671875 12.296875 -24.421875 C 12.296875 -24.296875 12.144531 -23.65625 11.84375 -22.5 C 11.539062 -21.34375 11.195312 -20.242188 10.8125 -19.203125 Z M 10.8125 -19.203125 "/></g></g></g><g fill="#423e3e" fill-opacity="1"><g transform="translate(108.814306, 57.143096)"><g><path d="M 12.34375 -27.734375 C 15.4375 -27.734375 17.882812 -27.007812 19.6875 -25.5625 C 21.5 -24.113281 22.46875 -22.117188 22.59375 -19.578125 L 19.125 -19.359375 C 18.914062 -21.109375 18.28125 -22.398438 17.21875 -23.234375 C 16.15625 -24.078125 14.582031 -24.5 12.5 -24.5 C 10.519531 -24.5 8.984375 -24.132812 7.890625 -23.40625 C 6.796875 -22.6875 6.25 -21.703125 6.25 -20.453125 C 6.25 -19.640625 6.488281 -18.945312 6.96875 -18.375 C 7.445312 -17.800781 8.132812 -17.390625 9.03125 -17.140625 C 9.226562 -17.085938 9.972656 -16.863281 11.265625 -16.46875 C 12.566406 -16.082031 14.222656 -15.671875 16.234375 -15.234375 C 18.617188 -14.703125 20.40625 -13.75 21.59375 -12.375 C 22.789062 -11.007812 23.390625 -9.445312 23.390625 -7.6875 C 23.390625 -6.21875 22.988281 -4.859375 22.1875 -3.609375 C 21.382812 -2.367188 20.222656 -1.378906 18.703125 -0.640625 C 17.179688 0.0859375 15.378906 0.453125 13.296875 0.453125 C 10.910156 0.453125 8.851562 0.0703125 7.125 -0.6875 C 5.394531 -1.445312 4.070312 -2.519531 3.15625 -3.90625 C 2.25 -5.289062 1.769531 -6.910156 1.71875 -8.765625 L 5.140625 -9.0625 C 5.296875 -6.90625 6.144531 -5.316406 7.6875 -4.296875 C 9.238281 -3.285156 11.070312 -2.78125 13.1875 -2.78125 C 15.289062 -2.78125 16.945312 -3.210938 18.15625 -4.078125 C 19.363281 -4.941406 19.96875 -6.109375 19.96875 -7.578125 C 19.96875 -9.585938 18.351562 -10.984375 15.125 -11.765625 L 12.984375 -12.296875 C 11.671875 -12.609375 10.148438 -13.015625 8.421875 -13.515625 C 6.671875 -14.023438 5.296875 -14.882812 4.296875 -16.09375 C 3.304688 -17.300781 2.8125 -18.679688 2.8125 -20.234375 C 2.8125 -21.648438 3.191406 -22.929688 3.953125 -24.078125 C 4.722656 -25.222656 5.820312 -26.117188 7.25 -26.765625 C 8.6875 -27.410156 10.382812 -27.734375 12.34375 -27.734375 Z M 12.34375 -27.734375 "/></g></g></g><g clip-path="url(#181103e44c)"><path fill="#a6a6a6" d="M 56.4375 92.472656 L 149.042969 92.472656 L 149.042969 106.851562 L 56.4375 106.851562 Z M 56.4375 92.472656 " fill-opacity="1" fill-rule="nonzero"/></g></svg>