<svg xmlns="http://www.w3.org/2000/svg" xmlns:xlink="http://www.w3.org/1999/xlink" width="61" zoomAndPan="magnify" viewBox="0 0 45.75 30.000001" height="40" preserveAspectRatio="xMidYMid meet" version="1.2"><defs><clipPath id="c8e8bc0176"><path d="M 5 13.300781 L 41 13.300781 L 41 27.816406 L 5 27.816406 Z M 5 13.300781 "/></clipPath><clipPath id="3214429d47"><path d="M 24.523438 1 L 32.488281 1 L 32.488281 8.964844 L 24.523438 8.964844 Z M 24.523438 1 "/></clipPath><clipPath id="741989a358"><path d="M 28.507812 1 C 26.304688 1 24.523438 2.78125 24.523438 4.980469 C 24.523438 7.183594 26.304688 8.964844 28.507812 8.964844 C 30.707031 8.964844 32.488281 7.183594 32.488281 4.980469 C 32.488281 2.78125 30.707031 1 28.507812 1 Z M 28.507812 1 "/></clipPath><clipPath id="4669e3af48"><path d="M 13.019531 1 L 20.984375 1 L 20.984375 8.964844 L 13.019531 8.964844 Z M 13.019531 1 "/></clipPath><clipPath id="5397348c0f"><path d="M 17 1 C 14.800781 1 13.019531 2.78125 13.019531 4.980469 C 13.019531 7.183594 14.800781 8.964844 17 8.964844 C 19.203125 8.964844 20.984375 7.183594 20.984375 4.980469 C 20.984375 2.78125 19.203125 1 17 1 Z M 17 1 "/></clipPath></defs><g id="21c62e114a"><g clip-rule="nonzero" clip-path="url(#c8e8bc0176)"><path style=" stroke:none;fill-rule:nonzero;fill:#808080;fill-opacity:1;" d="M 22.976562 27.816406 C 21.796875 27.816406 20.621094 27.714844 19.460938 27.503906 C 13.914062 26.496094 9.050781 23.097656 6.292969 18.296875 C 5.855469 17.535156 5.472656 16.742188 5.148438 15.929688 C 4.789062 15.023438 5.246094 14.003906 6.175781 13.65625 C 7.101562 13.304688 8.144531 13.75 8.503906 14.65625 C 10.300781 19.167969 14.265625 22.632812 19.070312 23.832031 C 19.160156 23.847656 19.25 23.875 19.335938 23.90625 C 20.761719 24.21875 22.117188 24.351562 23.476562 24.308594 C 24.460938 24.277344 25.371094 24.164062 26.339844 23.953125 L 26.410156 23.929688 C 26.464844 23.914062 26.515625 23.898438 26.570312 23.886719 C 31.460938 22.765625 35.539062 19.203125 37.363281 14.652344 C 37.722656 13.75 38.769531 13.304688 39.695312 13.65625 C 40.621094 14.007812 41.078125 15.027344 40.71875 15.929688 C 38.894531 20.480469 35.222656 24.296875 30.628906 26.257812 C 28.222656 27.289062 25.601562 27.8125 22.976562 27.816406 Z M 39.371094 18.621094 C 39.371094 18.621094 39.371094 18.621094 39.371094 18.625 C 39.371094 18.621094 39.371094 18.621094 39.371094 18.621094 Z M 39.546875 18.277344 Z M 36.128906 17.167969 C 36.128906 17.171875 36.128906 17.171875 36.128906 17.171875 Z M 36.128906 17.167969 "/></g><g clip-rule="nonzero" clip-path="url(#3214429d47)"><g clip-rule="nonzero" clip-path="url(#741989a358)"><path style=" stroke:none;fill-rule:nonzero;fill:#808080;fill-opacity:1;" d="M 24.523438 1 L 32.488281 1 L 32.488281 8.964844 L 24.523438 8.964844 Z M 24.523438 1 "/></g></g><g clip-rule="nonzero" clip-path="url(#4669e3af48)"><g clip-rule="nonzero" clip-path="url(#5397348c0f)"><path style=" stroke:none;fill-rule:nonzero;fill:#808080;fill-opacity:1;" d="M 13.019531 1 L 20.984375 1 L 20.984375 8.964844 L 13.019531 8.964844 Z M 13.019531 1 "/></g></g></g></svg>