<svg xmlns="http://www.w3.org/2000/svg" xmlns:xlink="http://www.w3.org/1999/xlink" width="300" zoomAndPan="magnify" viewBox="0 0 224.87999 168.749997" height="225" preserveAspectRatio="xMidYMid meet" version="1.0"><defs><g/><clipPath id="e91cc8e70a"><path d="M 5.984375 6.179688 L 219.1875 6.179688 L 219.1875 162.5625 L 5.984375 162.5625 Z M 5.984375 6.179688 " clip-rule="nonzero"/></clipPath><clipPath id="7c8b98db5f"><path d="M 59 71 L 166 71 L 166 114.804688 L 59 114.804688 Z M 59 71 " clip-rule="nonzero"/></clipPath><clipPath id="6367f29d72"><path d="M 117.742188 33.941406 L 141.628906 33.941406 L 141.628906 57.828125 L 117.742188 57.828125 Z M 117.742188 33.941406 " clip-rule="nonzero"/></clipPath><clipPath id="19a3287643"><path d="M 129.6875 33.941406 C 123.089844 33.941406 117.742188 39.289062 117.742188 45.886719 C 117.742188 52.480469 123.089844 57.828125 129.6875 57.828125 C 136.28125 57.828125 141.628906 52.480469 141.628906 45.886719 C 141.628906 39.289062 136.28125 33.941406 129.6875 33.941406 Z M 129.6875 33.941406 " clip-rule="nonzero"/></clipPath><clipPath id="08be4e2168"><path d="M 83.25 33.941406 L 107.136719 33.941406 L 107.136719 57.828125 L 83.25 57.828125 Z M 83.25 33.941406 " clip-rule="nonzero"/></clipPath><clipPath id="c8ba4a13ef"><path d="M 95.195312 33.941406 C 88.597656 33.941406 83.25 39.289062 83.25 45.886719 C 83.25 52.480469 88.597656 57.828125 95.195312 57.828125 C 101.789062 57.828125 107.136719 52.480469 107.136719 45.886719 C 107.136719 39.289062 101.789062 33.941406 95.195312 33.941406 Z M 95.195312 33.941406 " clip-rule="nonzero"/></clipPath></defs><g clip-path="url(#e91cc8e70a)"><path fill="#ececec" d="M 5.984375 6.179688 L 219.179688 6.179688 L 219.179688 162.5625 L 5.984375 162.5625 Z M 5.984375 6.179688 " fill-opacity="1" fill-rule="nonzero"/></g><g fill="#423e3e" fill-opacity="1"><g transform="translate(84.517104, 145.878556)"><g><path d="M 4.796875 -14.859375 L 4.796875 0 L 1.71875 0 L 1.71875 -14.859375 Z M 4.796875 -14.859375 "/></g></g></g><g fill="#423e3e" fill-opacity="1"><g transform="translate(91.061074, 145.878556)"><g><path d="M 0.8125 -7.421875 C 0.8125 -8.492188 1.007812 -9.492188 1.40625 -10.421875 C 1.8125 -11.347656 2.367188 -12.160156 3.078125 -12.859375 C 3.785156 -13.554688 4.601562 -14.097656 5.53125 -14.484375 C 6.457031 -14.878906 7.453125 -15.078125 8.515625 -15.078125 C 9.492188 -15.078125 10.429688 -14.90625 11.328125 -14.5625 C 12.234375 -14.226562 13.03125 -13.734375 13.71875 -13.078125 C 14.40625 -12.429688 14.914062 -11.640625 15.25 -10.703125 L 12.4375 -9.40625 C 12.125 -10.226562 11.625 -10.878906 10.9375 -11.359375 C 10.25 -11.835938 9.4375 -12.078125 8.5 -12.078125 C 7.632812 -12.078125 6.863281 -11.867188 6.1875 -11.453125 C 5.507812 -11.035156 4.972656 -10.472656 4.578125 -9.765625 C 4.191406 -9.066406 4 -8.296875 4 -7.453125 C 4 -6.597656 4.191406 -5.816406 4.578125 -5.109375 C 4.960938 -4.398438 5.492188 -3.832031 6.171875 -3.40625 C 6.847656 -2.976562 7.625 -2.765625 8.5 -2.765625 C 9.4375 -2.765625 10.253906 -3.019531 10.953125 -3.53125 C 11.648438 -4.050781 12.160156 -4.710938 12.484375 -5.515625 L 15.3125 -4.21875 C 14.96875 -3.28125 14.441406 -2.476562 13.734375 -1.8125 C 13.023438 -1.15625 12.210938 -0.65625 11.296875 -0.3125 C 10.378906 0.03125 9.429688 0.203125 8.453125 0.203125 C 7.378906 0.203125 6.378906 0.0078125 5.453125 -0.375 C 4.523438 -0.757812 3.710938 -1.296875 3.015625 -1.984375 C 2.316406 -2.671875 1.773438 -3.476562 1.390625 -4.40625 C 1.003906 -5.332031 0.8125 -6.335938 0.8125 -7.421875 Z M 0.8125 -7.421875 "/></g></g></g><g fill="#423e3e" fill-opacity="1"><g transform="translate(106.842465, 145.878556)"><g><path d="M 0.8125 -7.421875 C 0.8125 -8.484375 1.015625 -9.476562 1.421875 -10.40625 C 1.828125 -11.332031 2.382812 -12.144531 3.09375 -12.84375 C 3.800781 -13.550781 4.625 -14.097656 5.5625 -14.484375 C 6.507812 -14.878906 7.515625 -15.078125 8.578125 -15.078125 C 9.640625 -15.078125 10.632812 -14.882812 11.5625 -14.5 C 12.488281 -14.113281 13.300781 -13.578125 14 -12.890625 C 14.707031 -12.203125 15.253906 -11.394531 15.640625 -10.46875 C 16.035156 -9.550781 16.234375 -8.5625 16.234375 -7.5 C 16.234375 -6.414062 16.035156 -5.40625 15.640625 -4.46875 C 15.242188 -3.539062 14.6875 -2.722656 13.96875 -2.015625 C 13.257812 -1.304688 12.4375 -0.753906 11.5 -0.359375 C 10.5625 0.0351562 9.5625 0.234375 8.5 0.234375 C 7.4375 0.234375 6.4375 0.0351562 5.5 -0.359375 C 4.570312 -0.753906 3.757812 -1.296875 3.0625 -1.984375 C 2.363281 -2.679688 1.8125 -3.488281 1.40625 -4.40625 C 1.007812 -5.332031 0.8125 -6.335938 0.8125 -7.421875 Z M 3.96875 -7.4375 C 3.96875 -6.59375 4.164062 -5.8125 4.5625 -5.09375 C 4.96875 -4.375 5.519531 -3.800781 6.21875 -3.375 C 6.914062 -2.957031 7.6875 -2.75 8.53125 -2.75 C 9.394531 -2.75 10.171875 -2.957031 10.859375 -3.375 C 11.546875 -3.800781 12.09375 -4.375 12.5 -5.09375 C 12.90625 -5.8125 13.109375 -6.59375 13.109375 -7.4375 C 13.109375 -8.289062 12.90625 -9.066406 12.5 -9.765625 C 12.09375 -10.472656 11.546875 -11.039062 10.859375 -11.46875 C 10.171875 -11.894531 9.394531 -12.109375 8.53125 -12.109375 C 7.6875 -12.109375 6.914062 -11.894531 6.21875 -11.46875 C 5.519531 -11.039062 4.96875 -10.472656 4.5625 -9.765625 C 4.164062 -9.066406 3.96875 -8.289062 3.96875 -7.4375 Z M 3.96875 -7.4375 "/></g></g></g><g fill="#423e3e" fill-opacity="1"><g transform="translate(123.894716, 145.878556)"><g><path d="M 4.765625 -10.25 L 4.765625 0 L 1.71875 0 L 1.71875 -14.859375 L 5.234375 -14.859375 L 11.6875 -5.15625 L 11.6875 -14.859375 L 14.71875 -14.859375 L 14.71875 0 L 11.59375 0 Z M 4.765625 -10.25 "/></g></g></g><g clip-path="url(#7c8b98db5f)"><path fill="#333333" d="M 112.644531 114.800781 C 109.144531 114.800781 105.644531 114.488281 102.199219 113.851562 C 85.710938 110.804688 71.246094 100.503906 63.050781 85.964844 C 61.75 83.652344 60.609375 81.253906 59.644531 78.785156 C 58.574219 76.042969 59.941406 72.960938 62.699219 71.894531 C 65.453125 70.832031 68.558594 72.191406 69.628906 74.929688 C 74.964844 88.59375 86.753906 99.09375 101.039062 102.722656 C 101.304688 102.78125 101.566406 102.859375 101.820312 102.960938 C 106.058594 103.902344 110.089844 104.300781 114.132812 104.171875 C 114.136719 104.171875 114.136719 104.171875 114.140625 104.171875 C 117.058594 104.082031 119.765625 103.738281 122.648438 103.09375 L 122.859375 103.023438 C 123.011719 102.972656 123.167969 102.929688 123.328125 102.890625 C 137.871094 99.492188 150 88.707031 155.414062 74.921875 C 156.492188 72.183594 159.59375 70.828125 162.347656 71.898438 C 165.105469 72.96875 166.464844 76.054688 165.390625 78.792969 C 159.976562 92.574219 149.058594 104.132812 135.402344 110.085938 C 128.242188 113.203125 120.449219 114.792969 112.644531 114.800781 Z M 161.390625 86.941406 C 161.390625 86.945312 161.386719 86.945312 161.386719 86.949219 C 161.386719 86.945312 161.390625 86.945312 161.390625 86.941406 Z M 161.910156 85.898438 L 161.910156 85.902344 C 161.910156 85.902344 161.910156 85.898438 161.910156 85.898438 Z M 151.75 82.542969 C 151.75 82.546875 151.746094 82.546875 151.746094 82.550781 Z M 151.75 82.542969 " fill-opacity="1" fill-rule="nonzero"/></g><g clip-path="url(#6367f29d72)"><g clip-path="url(#19a3287643)"><path fill="#423e3e" d="M 117.742188 33.941406 L 141.628906 33.941406 L 141.628906 57.828125 L 117.742188 57.828125 Z M 117.742188 33.941406 " fill-opacity="1" fill-rule="nonzero"/></g></g><g clip-path="url(#08be4e2168)"><g clip-path="url(#c8ba4a13ef)"><path fill="#423e3e" d="M 83.25 33.941406 L 107.136719 33.941406 L 107.136719 57.828125 L 83.25 57.828125 Z M 83.25 33.941406 " fill-opacity="1" fill-rule="nonzero"/></g></g></svg>