<svg xmlns="http://www.w3.org/2000/svg" xmlns:xlink="http://www.w3.org/1999/xlink" width="275" zoomAndPan="magnify" viewBox="0 0 206.25 187.499992" height="250" preserveAspectRatio="xMidYMid meet" version="1.0"><defs><g/><clipPath id="5b970eef98"><path d="M 6.664062 6.203125 L 198.839844 6.203125 L 198.839844 145.292969 L 6.664062 145.292969 Z M 6.664062 6.203125 " clip-rule="nonzero"/></clipPath><clipPath id="014ddb097c"><path d="M 65.550781 151.675781 L 139.953125 151.675781 L 139.953125 179.699219 L 65.550781 179.699219 Z M 65.550781 151.675781 " clip-rule="nonzero"/></clipPath><clipPath id="e7ddd89d77"><path d="M 35 76 L 171 76 L 171 131.792969 L 35 131.792969 Z M 35 76 " clip-rule="nonzero"/></clipPath><clipPath id="88b521e3ae"><path d="M 109.507812 28.738281 L 139.953125 28.738281 L 139.953125 59.183594 L 109.507812 59.183594 Z M 109.507812 28.738281 " clip-rule="nonzero"/></clipPath><clipPath id="55a28a4a44"><path d="M 124.730469 28.738281 C 116.324219 28.738281 109.507812 35.550781 109.507812 43.960938 C 109.507812 52.367188 116.324219 59.183594 124.730469 59.183594 C 133.136719 59.183594 139.953125 52.367188 139.953125 43.960938 C 139.953125 35.550781 133.136719 28.738281 124.730469 28.738281 Z M 124.730469 28.738281 " clip-rule="nonzero"/></clipPath><clipPath id="a49a2af83d"><path d="M 65.550781 28.738281 L 95.996094 28.738281 L 95.996094 59.183594 L 65.550781 59.183594 Z M 65.550781 28.738281 " clip-rule="nonzero"/></clipPath><clipPath id="7cb6721593"><path d="M 80.773438 28.738281 C 72.363281 28.738281 65.550781 35.550781 65.550781 43.960938 C 65.550781 52.367188 72.363281 59.183594 80.773438 59.183594 C 89.179688 59.183594 95.996094 52.367188 95.996094 43.960938 C 95.996094 35.550781 89.179688 28.738281 80.773438 28.738281 Z M 80.773438 28.738281 " clip-rule="nonzero"/></clipPath></defs><g clip-path="url(#5b970eef98)"><path fill="#ececec" d="M 6.664062 6.203125 L 198.839844 6.203125 L 198.839844 145.292969 L 6.664062 145.292969 Z M 6.664062 6.203125 " fill-opacity="1" fill-rule="nonzero"/></g><g clip-path="url(#014ddb097c)"><path fill="#ffffff" d="M 65.550781 151.675781 L 139.953125 151.675781 L 139.953125 179.699219 L 65.550781 179.699219 Z M 65.550781 151.675781 " fill-opacity="1" fill-rule="nonzero"/></g><g fill="#423e3e" fill-opacity="1"><g transform="translate(73.420513, 172.787288)"><g><path d="M 5.039062 -15.597656 L 1.8125 -15.597656 L 1.8125 0 L 5.039062 0 Z M 5.039062 -15.597656 "/></g></g></g><g fill="#423e3e" fill-opacity="1"><g transform="translate(80.292797, 172.787288)"><g><path d="M 0.855469 -7.789062 C 0.855469 -3.246094 4.34375 0.21875 8.886719 0.21875 C 11.953125 0.21875 15 -1.472656 16.078125 -4.421875 L 13.109375 -5.796875 C 12.433594 -4.105469 10.878906 -2.910156 8.925781 -2.910156 C 6.15625 -2.910156 4.203125 -5.121094 4.203125 -7.828125 C 4.203125 -10.5 6.214844 -12.691406 8.925781 -12.691406 C 10.878906 -12.691406 12.410156 -11.59375 13.070312 -9.882812 L 16.019531 -11.234375 C 14.960938 -14.164062 12.011719 -15.839844 8.945312 -15.839844 C 4.484375 -15.839844 0.855469 -12.292969 0.855469 -7.789062 Z M 0.855469 -7.789062 "/></g></g></g><g fill="#423e3e" fill-opacity="1"><g transform="translate(96.865968, 172.787288)"><g><path d="M 0.855469 -7.789062 C 0.855469 -3.289062 4.441406 0.238281 8.925781 0.238281 C 13.40625 0.238281 17.054688 -3.328125 17.054688 -7.871094 C 17.054688 -12.351562 13.488281 -15.839844 9.003906 -15.839844 C 4.523438 -15.839844 0.855469 -12.273438 0.855469 -7.789062 Z M 4.164062 -7.808594 C 4.164062 -10.5 6.277344 -12.710938 8.964844 -12.710938 C 11.65625 -12.710938 13.765625 -10.5 13.765625 -7.808594 C 13.765625 -5.121094 11.65625 -2.890625 8.964844 -2.890625 C 6.277344 -2.890625 4.164062 -5.121094 4.164062 -7.808594 Z M 4.164062 -7.808594 "/></g></g></g><g fill="#423e3e" fill-opacity="1"><g transform="translate(114.773759, 172.787288)"><g><path d="M 5 -10.757812 L 12.171875 0 L 15.460938 0 L 15.460938 -15.597656 L 12.273438 -15.597656 L 12.273438 -5.417969 L 5.5 -15.597656 L 1.8125 -15.597656 L 1.8125 0 L 5 0 Z M 5 -10.757812 "/></g></g></g><g clip-path="url(#e7ddd89d77)"><path fill="#333333" d="M 103.011719 131.789062 C 98.554688 131.792969 94.09375 131.390625 89.699219 130.582031 C 68.683594 126.699219 50.25 113.570312 39.808594 95.039062 C 38.148438 92.09375 36.695312 89.035156 35.464844 85.886719 C 34.101562 82.394531 35.84375 78.464844 39.355469 77.109375 C 42.871094 75.753906 46.824219 77.484375 48.1875 80.976562 C 54.988281 98.390625 70.011719 111.769531 88.222656 116.398438 C 88.558594 116.472656 88.894531 116.574219 89.21875 116.699219 C 94.617188 117.902344 99.757812 118.410156 104.910156 118.246094 C 104.910156 118.246094 104.914062 118.246094 104.917969 118.246094 C 108.636719 118.132812 112.089844 117.695312 115.761719 116.871094 L 116.03125 116.78125 C 116.226562 116.714844 116.425781 116.660156 116.628906 116.613281 C 135.164062 112.28125 150.621094 98.535156 157.523438 80.964844 C 158.890625 77.476562 162.847656 75.75 166.359375 77.113281 C 169.871094 78.476562 171.605469 82.410156 170.234375 85.898438 C 163.332031 103.464844 149.417969 118.191406 132.015625 125.777344 C 122.894531 129.753906 112.957031 131.777344 103.011719 131.789062 Z M 165.136719 96.285156 C 165.136719 96.289062 165.132812 96.289062 165.132812 96.292969 C 165.132812 96.289062 165.136719 96.289062 165.136719 96.285156 Z M 165.800781 94.953125 L 165.800781 94.960938 C 165.800781 94.960938 165.800781 94.957031 165.800781 94.953125 Z M 152.851562 90.679688 C 152.847656 90.683594 152.847656 90.683594 152.847656 90.6875 Z M 152.851562 90.679688 " fill-opacity="1" fill-rule="nonzero"/></g><g clip-path="url(#88b521e3ae)"><g clip-path="url(#55a28a4a44)"><path fill="#423e3e" d="M 109.507812 28.738281 L 139.953125 28.738281 L 139.953125 59.183594 L 109.507812 59.183594 Z M 109.507812 28.738281 " fill-opacity="1" fill-rule="nonzero"/></g></g><g clip-path="url(#a49a2af83d)"><g clip-path="url(#7cb6721593)"><path fill="#423e3e" d="M 65.550781 28.738281 L 95.996094 28.738281 L 95.996094 59.183594 L 65.550781 59.183594 Z M 65.550781 28.738281 " fill-opacity="1" fill-rule="nonzero"/></g></g></svg>