<svg xmlns="http://www.w3.org/2000/svg" xmlns:xlink="http://www.w3.org/1999/xlink" width="275" zoomAndPan="magnify" viewBox="0 0 206.25 187.499992" height="250" preserveAspectRatio="xMidYMid meet" version="1.0"><defs><g/><clipPath id="08454ff77d"><path d="M 6.664062 6.203125 L 198.839844 6.203125 L 198.839844 145.292969 L 6.664062 145.292969 Z M 6.664062 6.203125 " clip-rule="nonzero"/></clipPath><clipPath id="7136886540"><path d="M 65.550781 151.675781 L 139.953125 151.675781 L 139.953125 179.699219 L 65.550781 179.699219 Z M 65.550781 151.675781 " clip-rule="nonzero"/></clipPath><clipPath id="8700e659f5"><path d="M 49.003906 72.113281 L 156 72.113281 L 156 115.996094 L 49.003906 115.996094 Z M 49.003906 72.113281 " clip-rule="nonzero"/></clipPath><clipPath id="51b41787ab"><path d="M 108.042969 35.308594 L 131.878906 35.308594 L 131.878906 59.144531 L 108.042969 59.144531 Z M 108.042969 35.308594 " clip-rule="nonzero"/></clipPath><clipPath id="3cb42dd627"><path d="M 119.960938 35.308594 C 113.378906 35.308594 108.042969 40.644531 108.042969 47.226562 C 108.042969 53.808594 113.378906 59.144531 119.960938 59.144531 C 126.542969 59.144531 131.878906 53.808594 131.878906 47.226562 C 131.878906 40.644531 126.542969 35.308594 119.960938 35.308594 Z M 119.960938 35.308594 " clip-rule="nonzero"/></clipPath><clipPath id="631177a302"><path d="M 73.625 35.308594 L 97.460938 35.308594 L 97.460938 59.144531 L 73.625 59.144531 Z M 73.625 35.308594 " clip-rule="nonzero"/></clipPath><clipPath id="902b36348f"><path d="M 85.542969 35.308594 C 78.960938 35.308594 73.625 40.644531 73.625 47.226562 C 73.625 53.808594 78.960938 59.144531 85.542969 59.144531 C 92.125 59.144531 97.460938 53.808594 97.460938 47.226562 C 97.460938 40.644531 92.125 35.308594 85.542969 35.308594 Z M 85.542969 35.308594 " clip-rule="nonzero"/></clipPath></defs><g clip-path="url(#08454ff77d)"><path fill="#ececec" d="M 6.664062 6.203125 L 198.839844 6.203125 L 198.839844 145.292969 L 6.664062 145.292969 Z M 6.664062 6.203125 " fill-opacity="1" fill-rule="nonzero"/></g><g clip-path="url(#7136886540)"><path fill="#ffffff" d="M 65.550781 151.675781 L 139.953125 151.675781 L 139.953125 179.699219 L 65.550781 179.699219 Z M 65.550781 151.675781 " fill-opacity="1" fill-rule="nonzero"/></g><g fill="#423e3e" fill-opacity="1"><g transform="translate(73.420513, 172.787288)"><g><path d="M 5.039062 -15.597656 L 1.8125 -15.597656 L 1.8125 0 L 5.039062 0 Z M 5.039062 -15.597656 "/></g></g></g><g fill="#423e3e" fill-opacity="1"><g transform="translate(80.292797, 172.787288)"><g><path d="M 0.855469 -7.789062 C 0.855469 -3.246094 4.34375 0.21875 8.886719 0.21875 C 11.953125 0.21875 15 -1.472656 16.078125 -4.421875 L 13.109375 -5.796875 C 12.433594 -4.105469 10.878906 -2.910156 8.925781 -2.910156 C 6.15625 -2.910156 4.203125 -5.121094 4.203125 -7.828125 C 4.203125 -10.5 6.214844 -12.691406 8.925781 -12.691406 C 10.878906 -12.691406 12.410156 -11.59375 13.070312 -9.882812 L 16.019531 -11.234375 C 14.960938 -14.164062 12.011719 -15.839844 8.945312 -15.839844 C 4.484375 -15.839844 0.855469 -12.292969 0.855469 -7.789062 Z M 0.855469 -7.789062 "/></g></g></g><g fill="#423e3e" fill-opacity="1"><g transform="translate(96.865968, 172.787288)"><g><path d="M 0.855469 -7.789062 C 0.855469 -3.289062 4.441406 0.238281 8.925781 0.238281 C 13.40625 0.238281 17.054688 -3.328125 17.054688 -7.871094 C 17.054688 -12.351562 13.488281 -15.839844 9.003906 -15.839844 C 4.523438 -15.839844 0.855469 -12.273438 0.855469 -7.789062 Z M 4.164062 -7.808594 C 4.164062 -10.5 6.277344 -12.710938 8.964844 -12.710938 C 11.65625 -12.710938 13.765625 -10.5 13.765625 -7.808594 C 13.765625 -5.121094 11.65625 -2.890625 8.964844 -2.890625 C 6.277344 -2.890625 4.164062 -5.121094 4.164062 -7.808594 Z M 4.164062 -7.808594 "/></g></g></g><g fill="#423e3e" fill-opacity="1"><g transform="translate(114.773759, 172.787288)"><g><path d="M 5 -10.757812 L 12.171875 0 L 15.460938 0 L 15.460938 -15.597656 L 12.273438 -15.597656 L 12.273438 -5.417969 L 5.5 -15.597656 L 1.8125 -15.597656 L 1.8125 0 L 5 0 Z M 5 -10.757812 "/></g></g></g><g clip-path="url(#8700e659f5)"><path fill="#333333" d="M 102.957031 115.992188 C 99.464844 115.996094 95.972656 115.679688 92.535156 115.046875 C 76.078125 112.007812 61.648438 101.726562 53.46875 87.21875 C 52.171875 84.914062 51.03125 82.515625 50.070312 80.054688 C 49.003906 77.320312 50.367188 74.242188 53.117188 73.179688 C 55.867188 72.117188 58.960938 73.472656 60.03125 76.207031 C 65.355469 89.84375 77.117188 100.320312 91.375 103.941406 C 91.640625 104 91.902344 104.078125 92.15625 104.179688 C 96.382812 105.121094 100.40625 105.515625 104.441406 105.386719 C 104.441406 105.386719 104.445312 105.386719 104.445312 105.386719 C 107.359375 105.300781 110.0625 104.957031 112.9375 104.3125 L 113.148438 104.242188 C 113.300781 104.191406 113.457031 104.148438 113.617188 104.109375 C 128.128906 100.71875 140.230469 89.957031 145.632812 76.199219 C 146.707031 73.46875 149.804688 72.117188 152.554688 73.183594 C 155.300781 74.25 156.660156 77.332031 155.585938 80.0625 C 150.183594 93.816406 139.289062 105.347656 125.664062 111.285156 C 118.519531 114.398438 110.742188 115.984375 102.957031 115.992188 Z M 151.597656 88.195312 C 151.59375 88.195312 151.59375 88.199219 151.59375 88.199219 C 151.59375 88.199219 151.59375 88.195312 151.597656 88.195312 Z M 152.117188 87.152344 L 152.113281 87.15625 C 152.117188 87.15625 152.117188 87.15625 152.117188 87.152344 Z M 141.976562 83.804688 C 141.976562 83.808594 141.976562 83.808594 141.972656 83.8125 Z M 141.976562 83.804688 " fill-opacity="1" fill-rule="nonzero"/></g><g clip-path="url(#51b41787ab)"><g clip-path="url(#3cb42dd627)"><path fill="#423e3e" d="M 108.042969 35.308594 L 131.878906 35.308594 L 131.878906 59.144531 L 108.042969 59.144531 Z M 108.042969 35.308594 " fill-opacity="1" fill-rule="nonzero"/></g></g><g clip-path="url(#631177a302)"><g clip-path="url(#902b36348f)"><path fill="#423e3e" d="M 73.625 35.308594 L 97.460938 35.308594 L 97.460938 59.144531 L 73.625 59.144531 Z M 73.625 35.308594 " fill-opacity="1" fill-rule="nonzero"/></g></g></svg>