<svg xmlns="http://www.w3.org/2000/svg" xmlns:xlink="http://www.w3.org/1999/xlink" width="61" zoomAndPan="magnify" viewBox="0 0 45.75 30.000001" height="40" preserveAspectRatio="xMidYMid meet" version="1.2"><defs><clipPath id="2b6fb60e8a"><path d="M 0.617188 0 L 44.890625 0 L 44.890625 29.03125 L 0.617188 29.03125 Z M 0.617188 0 "/></clipPath><clipPath id="ed9afdb6ac"><path d="M 5 13.300781 L 40.773438 13.300781 L 40.773438 27.96875 L 5 27.96875 Z M 5 13.300781 "/></clipPath><clipPath id="e5d52a4b61"><path d="M 24.523438 1 L 32.488281 1 L 32.488281 8.964844 L 24.523438 8.964844 Z M 24.523438 1 "/></clipPath><clipPath id="3402458b22"><path d="M 28.507812 1 C 26.304688 1 24.523438 2.78125 24.523438 4.980469 C 24.523438 7.183594 26.304688 8.964844 28.507812 8.964844 C 30.707031 8.964844 32.488281 7.183594 32.488281 4.980469 C 32.488281 2.78125 30.707031 1 28.507812 1 Z M 28.507812 1 "/></clipPath><clipPath id="d9872caf79"><path d="M 13.019531 1 L 20.984375 1 L 20.984375 8.964844 L 13.019531 8.964844 Z M 13.019531 1 "/></clipPath><clipPath id="cacb105269"><path d="M 17 1 C 14.800781 1 13.019531 2.78125 13.019531 4.980469 C 13.019531 7.183594 14.800781 8.964844 17 8.964844 C 19.203125 8.964844 20.984375 7.183594 20.984375 4.980469 C 20.984375 2.78125 19.203125 1 17 1 Z M 17 1 "/></clipPath></defs><g id="e58af32c7a"><g clip-rule="nonzero" clip-path="url(#2b6fb60e8a)"><path style=" stroke:none;fill-rule:nonzero;fill:#ffffff;fill-opacity:1;" d="M 0.617188 0 L 44.890625 0 L 44.890625 29.03125 L 0.617188 29.03125 Z M 0.617188 0 "/><path style=" stroke:none;fill-rule:nonzero;fill:#ffffff;fill-opacity:1;" d="M 0.617188 0 L 44.890625 0 L 44.890625 29.03125 L 0.617188 29.03125 Z M 0.617188 0 "/></g><g clip-rule="nonzero" clip-path="url(#ed9afdb6ac)"><path style=" stroke:none;fill-rule:nonzero;fill:#333333;fill-opacity:1;" d="M 22.824219 27.96875 C 21.65625 27.96875 20.488281 27.863281 19.339844 27.652344 C 13.839844 26.636719 9.015625 23.199219 6.28125 18.351562 C 5.847656 17.578125 5.46875 16.777344 5.144531 15.957031 C 4.789062 15.042969 5.242188 14.011719 6.164062 13.65625 C 7.082031 13.304688 8.117188 13.757812 8.472656 14.671875 C 10.253906 19.226562 14.1875 22.730469 18.953125 23.941406 C 19.039062 23.960938 19.128906 23.984375 19.210938 24.019531 C 20.625 24.332031 21.96875 24.464844 23.320312 24.421875 C 24.292969 24.394531 25.199219 24.277344 26.160156 24.0625 L 26.230469 24.039062 C 26.28125 24.023438 26.332031 24.007812 26.386719 23.996094 C 31.234375 22.863281 35.28125 19.265625 37.085938 14.667969 C 37.445312 13.753906 38.480469 13.300781 39.402344 13.660156 C 40.320312 14.015625 40.773438 15.046875 40.414062 15.957031 C 38.609375 20.554688 34.96875 24.410156 30.414062 26.394531 C 28.023438 27.4375 25.425781 27.964844 22.824219 27.96875 Z M 39.082031 18.675781 C 39.082031 18.675781 39.078125 18.679688 39.078125 18.679688 C 39.078125 18.679688 39.082031 18.675781 39.082031 18.675781 Z M 39.253906 18.328125 Z M 35.863281 17.210938 Z M 35.863281 17.210938 "/></g><g clip-rule="nonzero" clip-path="url(#e5d52a4b61)"><g clip-rule="nonzero" clip-path="url(#3402458b22)"><path style=" stroke:none;fill-rule:nonzero;fill:#423e3e;fill-opacity:1;" d="M 24.523438 1 L 32.488281 1 L 32.488281 8.964844 L 24.523438 8.964844 Z M 24.523438 1 "/></g></g><g clip-rule="nonzero" clip-path="url(#d9872caf79)"><g clip-rule="nonzero" clip-path="url(#cacb105269)"><path style=" stroke:none;fill-rule:nonzero;fill:#423e3e;fill-opacity:1;" d="M 13.019531 1 L 20.984375 1 L 20.984375 8.964844 L 13.019531 8.964844 Z M 13.019531 1 "/></g></g></g></svg>