<svg xmlns="http://www.w3.org/2000/svg" xmlns:xlink="http://www.w3.org/1999/xlink" width="275" zoomAndPan="magnify" viewBox="0 0 206.25 187.499992" height="250" preserveAspectRatio="xMidYMid meet" version="1.0"><defs><g/><clipPath id="8c0857a20e"><path d="M 6.664062 6.203125 L 198.839844 6.203125 L 198.839844 145.292969 L 6.664062 145.292969 Z M 6.664062 6.203125 " clip-rule="nonzero"/></clipPath><clipPath id="fb0d5a068f"><path d="M 58.085938 151.675781 L 149.378906 151.675781 L 149.378906 179.699219 L 58.085938 179.699219 Z M 58.085938 151.675781 " clip-rule="nonzero"/></clipPath><clipPath id="8d41a0764d"><path d="M 33.359375 26.460938 L 68.410156 26.460938 L 68.410156 61.511719 L 33.359375 61.511719 Z M 33.359375 26.460938 " clip-rule="nonzero"/></clipPath><clipPath id="a16e76d418"><path d="M 50.886719 26.460938 C 41.207031 26.460938 33.359375 34.308594 33.359375 43.988281 C 33.359375 53.667969 41.207031 61.511719 50.886719 61.511719 C 60.566406 61.511719 68.410156 53.667969 68.410156 43.988281 C 68.410156 34.308594 60.566406 26.460938 50.886719 26.460938 Z M 50.886719 26.460938 " clip-rule="nonzero"/></clipPath><clipPath id="88b4abcf15"><path d="M 33.359375 26.460938 L 68.410156 26.460938 L 68.410156 61.511719 L 33.359375 61.511719 Z M 33.359375 26.460938 " clip-rule="nonzero"/></clipPath><clipPath id="c3280b7833"><path d="M 50.886719 26.460938 C 41.207031 26.460938 33.359375 34.308594 33.359375 43.988281 C 33.359375 53.664062 41.207031 61.511719 50.886719 61.511719 C 60.566406 61.511719 68.410156 53.664062 68.410156 43.988281 C 68.410156 34.308594 60.566406 26.460938 50.886719 26.460938 Z M 50.886719 26.460938 " clip-rule="nonzero"/></clipPath><clipPath id="79c8a39b67"><path d="M 41.050781 96.589844 L 163.8125 96.589844 L 163.8125 125.035156 L 41.050781 125.035156 Z M 41.050781 96.589844 " clip-rule="nonzero"/></clipPath><clipPath id="7e79273439"><path d="M 35.957031 70.871094 L 91.980469 70.871094 L 91.980469 101.855469 L 35.957031 101.855469 Z M 35.957031 70.871094 " clip-rule="nonzero"/></clipPath><clipPath id="be45b7d468"><path d="M 63.96875 70.871094 L 91.980469 101.855469 L 35.957031 101.855469 Z M 63.96875 70.871094 " clip-rule="nonzero"/></clipPath><clipPath id="a7e15801de"><path d="M 35.957031 101.492188 L 83.046875 101.492188 L 83.046875 125.035156 L 35.957031 125.035156 Z M 35.957031 101.492188 " clip-rule="nonzero"/></clipPath><clipPath id="86c02117b2"><path d="M 85.902344 46.285156 L 163.8125 46.285156 L 163.8125 97.21875 L 85.902344 97.21875 Z M 85.902344 46.285156 " clip-rule="nonzero"/></clipPath><clipPath id="dc0a444c87"><path d="M 124.859375 46.285156 L 163.8125 97.21875 L 85.902344 97.21875 Z M 124.859375 46.285156 " clip-rule="nonzero"/></clipPath><clipPath id="94ad26efbb"><path d="M 114 46 L 162 46 L 162 107 L 114 107 Z M 114 46 " clip-rule="nonzero"/></clipPath><clipPath id="bd6a327bfb"><path d="M 101.835938 56.238281 L 148.066406 36.28125 L 174.101562 96.589844 L 127.871094 116.546875 Z M 101.835938 56.238281 " clip-rule="nonzero"/></clipPath><clipPath id="05623ae54a"><path d="M 124.953125 46.257812 L 161.085938 66.433594 L 150.988281 106.570312 L 114.851562 86.394531 Z M 124.953125 46.257812 " clip-rule="nonzero"/></clipPath><clipPath id="a2f5426719"><path d="M 151.683594 70.871094 L 163.8125 70.871094 L 163.8125 117.960938 L 151.683594 117.960938 Z M 151.683594 70.871094 " clip-rule="nonzero"/></clipPath><clipPath id="7617562b3f"><path d="M 159.542969 67.585938 L 163.8125 67.585938 L 163.8125 71.753906 L 159.542969 71.753906 Z M 159.542969 67.585938 " clip-rule="nonzero"/></clipPath><clipPath id="8f377fb0cb"><path d="M 118.382812 55.441406 L 163.8125 55.441406 L 163.8125 67.585938 L 118.382812 67.585938 Z M 118.382812 55.441406 " clip-rule="nonzero"/></clipPath><clipPath id="30bec69c4a"><path d="M 141.097656 55.441406 L 163.8125 67.585938 L 118.382812 67.585938 Z M 141.097656 55.441406 " clip-rule="nonzero"/></clipPath></defs><g clip-path="url(#8c0857a20e)"><path fill="#ececec" d="M 6.664062 6.203125 L 198.839844 6.203125 L 198.839844 145.292969 L 6.664062 145.292969 Z M 6.664062 6.203125 " fill-opacity="1" fill-rule="nonzero"/></g><g clip-path="url(#fb0d5a068f)"><path fill="#ffffff" d="M 58.085938 151.675781 L 149.378906 151.675781 L 149.378906 179.699219 L 58.085938 179.699219 Z M 58.085938 151.675781 " fill-opacity="1" fill-rule="nonzero"/></g><g fill="#423e3e" fill-opacity="1"><g transform="translate(65.860116, 172.787288)"><g><path d="M 5.039062 -15.597656 L 1.8125 -15.597656 L 1.8125 0 L 5.039062 0 Z M 5.039062 -15.597656 "/></g></g></g><g fill="#423e3e" fill-opacity="1"><g transform="translate(72.732399, 172.787288)"><g><path d="M 15.820312 -10.300781 L 15.839844 -10.300781 L 15.839844 0 L 19.027344 0 L 19.027344 -15.597656 L 14.742188 -15.597656 L 10.398438 -5.140625 L 5.976562 -15.597656 L 1.8125 -15.597656 L 1.8125 0 L 4.980469 0 L 4.980469 -10.21875 L 5 -10.21875 L 9.324219 0 L 11.476562 0 Z M 15.820312 -10.300781 "/></g></g></g><g fill="#423e3e" fill-opacity="1"><g transform="translate(93.568385, 172.787288)"><g><path d="M 3.226562 0 L 4.382812 -3.148438 L 11.296875 -3.148438 L 12.472656 0 L 15.796875 0 L 9.820312 -15.597656 L 5.9375 -15.597656 L -0.0195312 0 Z M 7.847656 -12.472656 L 10.199219 -6.136719 L 5.5 -6.136719 Z M 7.847656 -12.472656 "/></g></g></g><g fill="#423e3e" fill-opacity="1"><g transform="translate(109.344775, 172.787288)"><g><path d="M 4.144531 -7.808594 C 4.144531 -10.636719 6.316406 -12.789062 8.945312 -12.789062 C 11.457031 -12.789062 12.671875 -11.214844 13.128906 -10.039062 L 15.976562 -11.433594 C 15.28125 -13.386719 12.96875 -15.839844 8.984375 -15.839844 C 4.542969 -15.839844 0.855469 -12.332031 0.855469 -7.789062 C 0.855469 -3.347656 4.125 0.238281 8.945312 0.238281 C 12.75 0.238281 16.335938 -2.3125 16.335938 -7.171875 L 16.335938 -8.386719 L 8.226562 -8.386719 L 8.226562 -5.457031 L 12.96875 -5.457031 C 12.589844 -3.925781 11.058594 -2.828125 8.945312 -2.828125 C 6.117188 -2.828125 4.144531 -5.101562 4.144531 -7.808594 Z M 4.144531 -7.808594 "/></g></g></g><g fill="#423e3e" fill-opacity="1"><g transform="translate(126.415934, 172.787288)"><g><path d="M 1.8125 -15.597656 L 1.8125 0 L 12.074219 0 L 12.074219 -3.007812 L 5 -3.007812 L 5 -6.375 L 11.296875 -6.375 L 11.296875 -9.402344 L 5 -9.402344 L 5 -12.570312 L 12.035156 -12.570312 L 12.035156 -15.597656 Z M 1.8125 -15.597656 "/></g></g></g><g clip-path="url(#8d41a0764d)"><g clip-path="url(#a16e76d418)"><path fill="#423e3e" d="M 33.359375 26.460938 L 68.410156 26.460938 L 68.410156 61.511719 L 33.359375 61.511719 Z M 33.359375 26.460938 " fill-opacity="1" fill-rule="nonzero"/></g></g><g clip-path="url(#88b4abcf15)"><g clip-path="url(#c3280b7833)"><path stroke-linecap="butt" transform="matrix(0.627856, 0, 0, 0.627856, 33.359515, 26.46058)" fill="none" stroke-linejoin="miter" d="M 27.915942 0.000569774 C 12.498902 0.000569774 -0.000223295 12.499695 -0.000223295 27.916735 C -0.000223295 43.327554 12.498902 55.826679 27.915942 55.826679 C 43.332982 55.826679 55.825886 43.327554 55.825886 27.916735 C 55.825886 12.499695 43.332982 0.000569774 27.915942 0.000569774 Z M 27.915942 0.000569774 " stroke="#a6a6a6" stroke-width="9.521701" stroke-opacity="1" stroke-miterlimit="4"/></g></g><g clip-path="url(#79c8a39b67)"><path fill="#a6a6a6" d="M 41.050781 96.589844 L 163.8125 96.589844 L 163.8125 125.035156 L 41.050781 125.035156 Z M 41.050781 96.589844 " fill-opacity="1" fill-rule="nonzero"/></g><g clip-path="url(#7e79273439)"><g clip-path="url(#be45b7d468)"><path fill="#a6a6a6" d="M 35.957031 70.871094 L 91.980469 70.871094 L 91.980469 101.855469 L 35.957031 101.855469 Z M 35.957031 70.871094 " fill-opacity="1" fill-rule="nonzero"/></g></g><g clip-path="url(#a7e15801de)"><path fill="#a6a6a6" d="M 35.957031 101.492188 L 83.046875 101.492188 L 83.046875 125.035156 L 35.957031 125.035156 Z M 35.957031 101.492188 " fill-opacity="1" fill-rule="nonzero"/></g><g clip-path="url(#86c02117b2)"><g clip-path="url(#dc0a444c87)"><path fill="#a6a6a6" d="M 85.902344 46.285156 L 163.8125 46.285156 L 163.8125 97.21875 L 85.902344 97.21875 Z M 85.902344 46.285156 " fill-opacity="1" fill-rule="nonzero"/></g></g><g clip-path="url(#94ad26efbb)"><g clip-path="url(#bd6a327bfb)"><g clip-path="url(#05623ae54a)"><path fill="#a6a6a6" d="M 101.835938 56.238281 L 148.066406 36.28125 L 174.101562 96.589844 L 127.871094 116.546875 Z M 101.835938 56.238281 " fill-opacity="1" fill-rule="nonzero"/></g></g></g><g clip-path="url(#a2f5426719)"><path fill="#a6a6a6" d="M 151.683594 70.871094 L 163.8125 70.871094 L 163.8125 117.960938 L 151.683594 117.960938 Z M 151.683594 70.871094 " fill-opacity="1" fill-rule="nonzero"/></g><g clip-path="url(#7617562b3f)"><path fill="#a6a6a6" d="M 159.542969 67.585938 L 163.8125 67.585938 L 163.8125 71.753906 L 159.542969 71.753906 Z M 159.542969 67.585938 " fill-opacity="1" fill-rule="nonzero"/></g><g clip-path="url(#8f377fb0cb)"><g clip-path="url(#30bec69c4a)"><path fill="#a6a6a6" d="M 118.382812 55.441406 L 163.8125 55.441406 L 163.8125 67.585938 L 118.382812 67.585938 Z M 118.382812 55.441406 " fill-opacity="1" fill-rule="nonzero"/></g></g><path stroke-linecap="butt" transform="matrix(0.627856, -0.000000000000000623, 0.000000000000000623, 0.627856, 155.023436, 67.585174)" fill="none" stroke-linejoin="miter" d="M 0.0000024974 0.498941 L 13.998525 0.498941 " stroke="#a6a6a6" stroke-width="1" stroke-opacity="1" stroke-miterlimit="4"/></svg>