<svg xmlns="http://www.w3.org/2000/svg" xmlns:xlink="http://www.w3.org/1999/xlink" width="275" zoomAndPan="magnify" viewBox="0 0 206.25 187.499992" height="250" preserveAspectRatio="xMidYMid meet" version="1.0"><defs><g/><clipPath id="71cc1bfcfc"><path d="M 6.664062 6.203125 L 198.839844 6.203125 L 198.839844 145.292969 L 6.664062 145.292969 Z M 6.664062 6.203125 " clip-rule="nonzero"/></clipPath><clipPath id="74391f5e2e"><path d="M 58.085938 151.675781 L 149.378906 151.675781 L 149.378906 179.699219 L 58.085938 179.699219 Z M 58.085938 151.675781 " clip-rule="nonzero"/></clipPath><clipPath id="33b409c58b"><path d="M 20.160156 18.773438 L 61.878906 18.773438 L 61.878906 60.492188 L 20.160156 60.492188 Z M 20.160156 18.773438 " clip-rule="nonzero"/></clipPath><clipPath id="481d5cc798"><path d="M 41.019531 18.773438 C 29.5 18.773438 20.160156 28.113281 20.160156 39.632812 C 20.160156 51.152344 29.5 60.492188 41.019531 60.492188 C 52.539062 60.492188 61.878906 51.152344 61.878906 39.632812 C 61.878906 28.113281 52.539062 18.773438 41.019531 18.773438 Z M 41.019531 18.773438 " clip-rule="nonzero"/></clipPath><clipPath id="37c590145e"><path d="M 29.316406 102.242188 L 175.425781 102.242188 L 175.425781 136.097656 L 29.316406 136.097656 Z M 29.316406 102.242188 " clip-rule="nonzero"/></clipPath><clipPath id="63c8e0065c"><path d="M 23.25 71.628906 L 89.929688 71.628906 L 89.929688 108.507812 L 23.25 108.507812 Z M 23.25 71.628906 " clip-rule="nonzero"/></clipPath><clipPath id="a242c04658"><path d="M 56.589844 71.628906 L 89.929688 108.507812 L 23.25 108.507812 Z M 56.589844 71.628906 " clip-rule="nonzero"/></clipPath><clipPath id="4c9157c9ee"><path d="M 23.25 108.074219 L 79.296875 108.074219 L 79.296875 136.097656 L 23.25 136.097656 Z M 23.25 108.074219 " clip-rule="nonzero"/></clipPath><clipPath id="7ceebcbb39"><path d="M 82.699219 42.371094 L 175.425781 42.371094 L 175.425781 102.988281 L 82.699219 102.988281 Z M 82.699219 42.371094 " clip-rule="nonzero"/></clipPath><clipPath id="6d05d3bca5"><path d="M 129.0625 42.371094 L 175.425781 102.988281 L 82.699219 102.988281 Z M 129.0625 42.371094 " clip-rule="nonzero"/></clipPath><clipPath id="397d2cce51"><path d="M 117 42 L 173 42 L 173 115 L 117 115 Z M 117 42 " clip-rule="nonzero"/></clipPath><clipPath id="09a3aa97ef"><path d="M 101.660156 54.214844 L 156.6875 30.460938 L 187.675781 102.242188 L 132.648438 125.996094 Z M 101.660156 54.214844 " clip-rule="nonzero"/></clipPath><clipPath id="dafefb8e6b"><path d="M 129.175781 42.335938 L 172.179688 66.351562 L 160.160156 114.121094 L 117.152344 90.105469 Z M 129.175781 42.335938 " clip-rule="nonzero"/></clipPath><clipPath id="135ed242cc"><path d="M 160.988281 71.628906 L 175.425781 71.628906 L 175.425781 127.675781 L 160.988281 127.675781 Z M 160.988281 71.628906 " clip-rule="nonzero"/></clipPath><clipPath id="44de5d21ef"><path d="M 170.347656 67.71875 L 175.425781 67.71875 L 175.425781 72.679688 L 170.347656 72.679688 Z M 170.347656 67.71875 " clip-rule="nonzero"/></clipPath><clipPath id="f298940e77"><path d="M 121.355469 53.265625 L 175.425781 53.265625 L 175.425781 67.71875 L 121.355469 67.71875 Z M 121.355469 53.265625 " clip-rule="nonzero"/></clipPath><clipPath id="7a1e489633"><path d="M 148.390625 53.265625 L 175.425781 67.71875 L 121.355469 67.71875 Z M 148.390625 53.265625 " clip-rule="nonzero"/></clipPath></defs><g clip-path="url(#71cc1bfcfc)"><path fill="#ececec" d="M 6.664062 6.203125 L 198.839844 6.203125 L 198.839844 145.292969 L 6.664062 145.292969 Z M 6.664062 6.203125 " fill-opacity="1" fill-rule="nonzero"/></g><g clip-path="url(#74391f5e2e)"><path fill="#ffffff" d="M 58.085938 151.675781 L 149.378906 151.675781 L 149.378906 179.699219 L 58.085938 179.699219 Z M 58.085938 151.675781 " fill-opacity="1" fill-rule="nonzero"/></g><g fill="#423e3e" fill-opacity="1"><g transform="translate(65.860116, 172.787288)"><g><path d="M 5.039062 -15.597656 L 1.8125 -15.597656 L 1.8125 0 L 5.039062 0 Z M 5.039062 -15.597656 "/></g></g></g><g fill="#423e3e" fill-opacity="1"><g transform="translate(72.732399, 172.787288)"><g><path d="M 15.820312 -10.300781 L 15.839844 -10.300781 L 15.839844 0 L 19.027344 0 L 19.027344 -15.597656 L 14.742188 -15.597656 L 10.398438 -5.140625 L 5.976562 -15.597656 L 1.8125 -15.597656 L 1.8125 0 L 4.980469 0 L 4.980469 -10.21875 L 5 -10.21875 L 9.324219 0 L 11.476562 0 Z M 15.820312 -10.300781 "/></g></g></g><g fill="#423e3e" fill-opacity="1"><g transform="translate(93.568385, 172.787288)"><g><path d="M 3.226562 0 L 4.382812 -3.148438 L 11.296875 -3.148438 L 12.472656 0 L 15.796875 0 L 9.820312 -15.597656 L 5.9375 -15.597656 L -0.0195312 0 Z M 7.847656 -12.472656 L 10.199219 -6.136719 L 5.5 -6.136719 Z M 7.847656 -12.472656 "/></g></g></g><g fill="#423e3e" fill-opacity="1"><g transform="translate(109.344775, 172.787288)"><g><path d="M 4.144531 -7.808594 C 4.144531 -10.636719 6.316406 -12.789062 8.945312 -12.789062 C 11.457031 -12.789062 12.671875 -11.214844 13.128906 -10.039062 L 15.976562 -11.433594 C 15.28125 -13.386719 12.96875 -15.839844 8.984375 -15.839844 C 4.542969 -15.839844 0.855469 -12.332031 0.855469 -7.789062 C 0.855469 -3.347656 4.125 0.238281 8.945312 0.238281 C 12.75 0.238281 16.335938 -2.3125 16.335938 -7.171875 L 16.335938 -8.386719 L 8.226562 -8.386719 L 8.226562 -5.457031 L 12.96875 -5.457031 C 12.589844 -3.925781 11.058594 -2.828125 8.945312 -2.828125 C 6.117188 -2.828125 4.144531 -5.101562 4.144531 -7.808594 Z M 4.144531 -7.808594 "/></g></g></g><g fill="#423e3e" fill-opacity="1"><g transform="translate(126.415934, 172.787288)"><g><path d="M 1.8125 -15.597656 L 1.8125 0 L 12.074219 0 L 12.074219 -3.007812 L 5 -3.007812 L 5 -6.375 L 11.296875 -6.375 L 11.296875 -9.402344 L 5 -9.402344 L 5 -12.570312 L 12.035156 -12.570312 L 12.035156 -15.597656 Z M 1.8125 -15.597656 "/></g></g></g><g clip-path="url(#33b409c58b)"><g clip-path="url(#481d5cc798)"><path fill="#423e3e" d="M 20.160156 18.773438 L 61.878906 18.773438 L 61.878906 60.492188 L 20.160156 60.492188 Z M 20.160156 18.773438 " fill-opacity="1" fill-rule="nonzero"/><path stroke-linecap="butt" transform="matrix(0.747283, 0, 0, 0.747283, 20.159807, 18.77264)" fill="none" stroke-linejoin="miter" d="M 27.914107 0.001067 C 12.498878 0.001067 0.00046799 12.499477 0.00046799 27.914706 C 0.00046799 43.329935 12.498878 55.828346 27.914107 55.828346 C 43.329336 55.828346 55.827747 43.329935 55.827747 27.914706 C 55.827747 12.499477 43.329336 0.001067 27.914107 0.001067 Z M 27.914107 0.001067 " stroke="#a6a6a6" stroke-width="8" stroke-opacity="1" stroke-miterlimit="4"/></g></g><g clip-path="url(#37c590145e)"><path fill="#a6a6a6" d="M 29.316406 102.242188 L 175.425781 102.242188 L 175.425781 136.097656 L 29.316406 136.097656 Z M 29.316406 102.242188 " fill-opacity="1" fill-rule="nonzero"/></g><g clip-path="url(#63c8e0065c)"><g clip-path="url(#a242c04658)"><path fill="#a6a6a6" d="M 23.25 71.628906 L 89.929688 71.628906 L 89.929688 108.507812 L 23.25 108.507812 Z M 23.25 71.628906 " fill-opacity="1" fill-rule="nonzero"/></g></g><g clip-path="url(#4c9157c9ee)"><path fill="#a6a6a6" d="M 23.25 108.074219 L 79.296875 108.074219 L 79.296875 136.097656 L 23.25 136.097656 Z M 23.25 108.074219 " fill-opacity="1" fill-rule="nonzero"/></g><g clip-path="url(#7ceebcbb39)"><g clip-path="url(#6d05d3bca5)"><path fill="#a6a6a6" d="M 82.699219 42.371094 L 175.425781 42.371094 L 175.425781 102.988281 L 82.699219 102.988281 Z M 82.699219 42.371094 " fill-opacity="1" fill-rule="nonzero"/></g></g><g clip-path="url(#397d2cce51)"><g clip-path="url(#09a3aa97ef)"><g clip-path="url(#dafefb8e6b)"><path fill="#a6a6a6" d="M 101.660156 54.214844 L 156.6875 30.460938 L 187.675781 102.242188 L 132.648438 125.996094 Z M 101.660156 54.214844 " fill-opacity="1" fill-rule="nonzero"/></g></g></g><g clip-path="url(#135ed242cc)"><path fill="#a6a6a6" d="M 160.988281 71.628906 L 175.425781 71.628906 L 175.425781 127.675781 L 160.988281 127.675781 Z M 160.988281 71.628906 " fill-opacity="1" fill-rule="nonzero"/></g><g clip-path="url(#44de5d21ef)"><path fill="#a6a6a6" d="M 170.347656 67.71875 L 175.425781 67.71875 L 175.425781 72.679688 L 170.347656 72.679688 Z M 170.347656 67.71875 " fill-opacity="1" fill-rule="nonzero"/></g><g clip-path="url(#f298940e77)"><g clip-path="url(#7a1e489633)"><path fill="#a6a6a6" d="M 121.355469 53.265625 L 175.425781 53.265625 L 175.425781 67.71875 L 121.355469 67.71875 Z M 121.355469 53.265625 " fill-opacity="1" fill-rule="nonzero"/></g></g><path stroke-linecap="butt" transform="matrix(0.747283, -0.000000000000000741, 0.000000000000000741, 0.747283, 164.965738, 67.719649)" fill="none" stroke-linejoin="miter" d="M -0.00119626 0.500615 L 13.997441 0.500615 " stroke="#a6a6a6" stroke-width="1" stroke-opacity="1" stroke-miterlimit="4"/></svg>