<svg xmlns="http://www.w3.org/2000/svg" xmlns:xlink="http://www.w3.org/1999/xlink" width="61" zoomAndPan="magnify" viewBox="0 0 45.75 30.000001" height="40" preserveAspectRatio="xMidYMid meet" version="1.2"><defs><clipPath id="9afd5344f6"><path d="M 0.617188 0 L 44.890625 0 L 44.890625 29.03125 L 0.617188 29.03125 Z M 0.617188 0 "/></clipPath><clipPath id="004d8c0566"><path d="M 6.605469 20.375 L 41.113281 20.375 L 41.113281 28.371094 L 6.605469 28.371094 Z M 6.605469 20.375 "/></clipPath><clipPath id="4be934b13c"><path d="M 5.171875 13.144531 L 20.925781 13.144531 L 20.925781 21.855469 L 5.171875 21.855469 Z M 5.171875 13.144531 "/></clipPath><clipPath id="f1708de987"><path d="M 13.046875 13.144531 L 20.921875 21.855469 L 5.171875 21.855469 Z M 13.046875 13.144531 "/></clipPath><clipPath id="0a938feed3"><path d="M 5.171875 21.753906 L 18.410156 21.753906 L 18.410156 28.371094 L 5.171875 28.371094 Z M 5.171875 21.753906 "/></clipPath><clipPath id="23181fbd42"><path d="M 19.214844 6.234375 L 41.136719 6.234375 L 41.136719 20.550781 L 19.214844 20.550781 Z M 19.214844 6.234375 "/></clipPath><clipPath id="03014a5090"><path d="M 30.164062 6.234375 L 41.113281 20.550781 L 19.214844 20.550781 Z M 30.164062 6.234375 "/></clipPath><clipPath id="e1d0b9d530"><path d="M 27 6 L 41 6 L 41 24 L 27 24 Z M 27 6 "/></clipPath><clipPath id="719be30ef1"><path d="M 23.691406 9.03125 L 36.6875 3.421875 L 44.007812 20.375 L 31.011719 25.988281 Z M 23.691406 9.03125 "/></clipPath><clipPath id="bc699bfac2"><path d="M 30.191406 6.226562 L 40.347656 11.898438 L 37.507812 23.179688 L 27.351562 17.507812 Z M 30.191406 6.226562 "/></clipPath><clipPath id="1b9d3e2dcd"><path d="M 37.703125 13.144531 L 41.113281 13.144531 L 41.113281 26.382812 L 37.703125 26.382812 Z M 37.703125 13.144531 "/></clipPath><clipPath id="0753a72f8f"><path d="M 39.914062 12.222656 L 41.113281 12.222656 L 41.113281 13.394531 L 39.914062 13.394531 Z M 39.914062 12.222656 "/></clipPath><clipPath id="b49987ea72"><path d="M 28.34375 8.808594 L 41.117188 8.808594 L 41.117188 12.222656 L 28.34375 12.222656 Z M 28.34375 8.808594 "/></clipPath><clipPath id="d4e93cbfeb"><path d="M 34.726562 8.808594 L 41.113281 12.222656 L 28.34375 12.222656 Z M 34.726562 8.808594 "/></clipPath><clipPath id="547697f15c"><path d="M 4.585938 0.804688 L 14.988281 0.804688 L 14.988281 11.207031 L 4.585938 11.207031 Z M 4.585938 0.804688 "/></clipPath><clipPath id="7e88428c38"><path d="M 9.789062 0.804688 C 6.914062 0.804688 4.585938 3.132812 4.585938 6.003906 C 4.585938 8.878906 6.914062 11.207031 9.789062 11.207031 C 12.660156 11.207031 14.988281 8.878906 14.988281 6.003906 C 14.988281 3.132812 12.660156 0.804688 9.789062 0.804688 Z M 9.789062 0.804688 "/></clipPath><clipPath id="c84abcfc19"><path d="M 4.585938 0.804688 L 14.746094 0.804688 L 14.746094 10.964844 L 4.585938 10.964844 Z M 4.585938 0.804688 "/></clipPath><clipPath id="4fd2335dfd"><path d="M 9.667969 0.804688 C 6.859375 0.804688 4.585938 3.078125 4.585938 5.886719 C 4.585938 8.691406 6.859375 10.964844 9.667969 10.964844 C 12.472656 10.964844 14.746094 8.691406 14.746094 5.886719 C 14.746094 3.078125 12.472656 0.804688 9.667969 0.804688 Z M 9.667969 0.804688 "/></clipPath></defs><g id="f364e7c754"><g clip-rule="nonzero" clip-path="url(#9afd5344f6)"><path style=" stroke:none;fill-rule:nonzero;fill:#ffffff;fill-opacity:1;" d="M 0.617188 0 L 44.890625 0 L 44.890625 29.03125 L 0.617188 29.03125 Z M 0.617188 0 "/><path style=" stroke:none;fill-rule:nonzero;fill:#ffffff;fill-opacity:1;" d="M 0.617188 0 L 44.890625 0 L 44.890625 29.03125 L 0.617188 29.03125 Z M 0.617188 0 "/></g><g clip-rule="nonzero" clip-path="url(#004d8c0566)"><path style=" stroke:none;fill-rule:nonzero;fill:#a6a6a6;fill-opacity:1;" d="M 6.605469 20.375 L 41.117188 20.375 L 41.117188 28.371094 L 6.605469 28.371094 Z M 6.605469 20.375 "/></g><g clip-rule="nonzero" clip-path="url(#4be934b13c)"><g clip-rule="nonzero" clip-path="url(#f1708de987)"><path style=" stroke:none;fill-rule:nonzero;fill:#a6a6a6;fill-opacity:1;" d="M 5.171875 13.144531 L 20.925781 13.144531 L 20.925781 21.855469 L 5.171875 21.855469 Z M 5.171875 13.144531 "/></g></g><g clip-rule="nonzero" clip-path="url(#0a938feed3)"><path style=" stroke:none;fill-rule:nonzero;fill:#a6a6a6;fill-opacity:1;" d="M 5.171875 21.753906 L 18.410156 21.753906 L 18.410156 28.371094 L 5.171875 28.371094 Z M 5.171875 21.753906 "/></g><g clip-rule="nonzero" clip-path="url(#23181fbd42)"><g clip-rule="nonzero" clip-path="url(#03014a5090)"><path style=" stroke:none;fill-rule:nonzero;fill:#a6a6a6;fill-opacity:1;" d="M 19.214844 6.234375 L 41.136719 6.234375 L 41.136719 20.550781 L 19.214844 20.550781 Z M 19.214844 6.234375 "/></g></g><g clip-rule="nonzero" clip-path="url(#e1d0b9d530)"><g clip-rule="nonzero" clip-path="url(#719be30ef1)"><g clip-rule="nonzero" clip-path="url(#bc699bfac2)"><path style=" stroke:none;fill-rule:nonzero;fill:#a6a6a6;fill-opacity:1;" d="M 23.691406 9.03125 L 36.6875 3.421875 L 44.007812 20.375 L 31.011719 25.988281 Z M 23.691406 9.03125 "/></g></g></g><g clip-rule="nonzero" clip-path="url(#1b9d3e2dcd)"><path style=" stroke:none;fill-rule:nonzero;fill:#a6a6a6;fill-opacity:1;" d="M 37.703125 13.144531 L 41.113281 13.144531 L 41.113281 26.382812 L 37.703125 26.382812 Z M 37.703125 13.144531 "/></g><g clip-rule="nonzero" clip-path="url(#0753a72f8f)"><path style=" stroke:none;fill-rule:nonzero;fill:#a6a6a6;fill-opacity:1;" d="M 39.914062 12.222656 L 41.113281 12.222656 L 41.113281 13.394531 L 39.914062 13.394531 Z M 39.914062 12.222656 "/></g><g clip-rule="nonzero" clip-path="url(#b49987ea72)"><g clip-rule="nonzero" clip-path="url(#d4e93cbfeb)"><path style=" stroke:none;fill-rule:nonzero;fill:#a6a6a6;fill-opacity:1;" d="M 28.34375 8.808594 L 41.117188 8.808594 L 41.117188 12.222656 L 28.34375 12.222656 Z M 28.34375 8.808594 "/></g></g><path style="fill:none;stroke-width:1;stroke-linecap:butt;stroke-linejoin:miter;stroke:#a6a6a6;stroke-opacity:1;stroke-miterlimit:4;" d="M 0.00299524 0.502347 L 3.403235 0.502347 " transform="matrix(0.642188,-0.000000000000000637,0.000000000000000637,0.642188,38.642608,11.94693)"/><g clip-rule="nonzero" clip-path="url(#547697f15c)"><g clip-rule="nonzero" clip-path="url(#7e88428c38)"><path style=" stroke:none;fill-rule:nonzero;fill:#423e3e;fill-opacity:1;" d="M 4.585938 0.804688 L 14.988281 0.804688 L 14.988281 11.207031 L 4.585938 11.207031 Z M 4.585938 0.804688 "/></g></g><g clip-rule="nonzero" clip-path="url(#c84abcfc19)"><g clip-rule="nonzero" clip-path="url(#4fd2335dfd)"><path style="fill:none;stroke-width:4;stroke-linecap:butt;stroke-linejoin:miter;stroke:#a6a6a6;stroke-opacity:1;stroke-miterlimit:4;" d="M 7.165102 0.0000555216 C 3.204789 0.0000555216 -0.000915357 3.20576 -0.000915357 7.166073 C -0.000915357 11.120877 3.204789 14.326582 7.165102 14.326582 C 11.119906 14.326582 14.325611 11.120877 14.325611 7.166073 C 14.325611 3.20576 11.119906 0.0000555216 7.165102 0.0000555216 Z M 7.165102 0.0000555216 " transform="matrix(0.709185,0,0,0.709185,4.586587,0.804648)"/></g></g></g></svg>