<svg xmlns="http://www.w3.org/2000/svg" xmlns:xlink="http://www.w3.org/1999/xlink" width="300" zoomAndPan="magnify" viewBox="0 0 224.87999 168.749997" height="225" preserveAspectRatio="xMidYMid meet" version="1.0"><defs><g/><clipPath id="c078bee98a"><path d="M 5.984375 6.179688 L 219.1875 6.179688 L 219.1875 162.5625 L 5.984375 162.5625 Z M 5.984375 6.179688 " clip-rule="nonzero"/></clipPath><clipPath id="2c39c171b8"><path d="M 46.976562 23.296875 L 79.582031 23.296875 L 79.582031 55.902344 L 46.976562 55.902344 Z M 46.976562 23.296875 " clip-rule="nonzero"/></clipPath><clipPath id="e549529b14"><path d="M 63.28125 23.296875 C 54.277344 23.296875 46.976562 30.597656 46.976562 39.601562 C 46.976562 48.605469 54.277344 55.902344 63.28125 55.902344 C 72.285156 55.902344 79.582031 48.605469 79.582031 39.601562 C 79.582031 30.597656 72.285156 23.296875 63.28125 23.296875 Z M 63.28125 23.296875 " clip-rule="nonzero"/></clipPath><clipPath id="f67bd2ff8f"><path d="M 54.132812 88.535156 L 168.332031 88.535156 L 168.332031 114.996094 L 54.132812 114.996094 Z M 54.132812 88.535156 " clip-rule="nonzero"/></clipPath><clipPath id="1506fdebf3"><path d="M 49.390625 64.609375 L 101.523438 64.609375 L 101.523438 93.433594 L 49.390625 93.433594 Z M 49.390625 64.609375 " clip-rule="nonzero"/></clipPath><clipPath id="c5a4d748fd"><path d="M 75.449219 64.609375 L 101.507812 93.433594 L 49.390625 93.433594 Z M 75.449219 64.609375 " clip-rule="nonzero"/></clipPath><clipPath id="b71b587dcc"><path d="M 49.390625 93.09375 L 93.199219 93.09375 L 93.199219 114.996094 L 49.390625 114.996094 Z M 49.390625 93.09375 " clip-rule="nonzero"/></clipPath><clipPath id="1c40c769d8"><path d="M 95.855469 41.738281 L 168.40625 41.738281 L 168.40625 89.121094 L 95.855469 89.121094 Z M 95.855469 41.738281 " clip-rule="nonzero"/></clipPath><clipPath id="694c1ebadc"><path d="M 132.09375 41.738281 L 168.332031 89.121094 L 95.855469 89.121094 Z M 132.09375 41.738281 " clip-rule="nonzero"/></clipPath><clipPath id="d1fb548e20"><path d="M 122 41 L 166 41 L 166 98 L 122 98 Z M 122 41 " clip-rule="nonzero"/></clipPath><clipPath id="8d68a13243"><path d="M 110.675781 50.996094 L 153.683594 32.429688 L 177.90625 88.542969 L 134.898438 107.109375 Z M 110.675781 50.996094 " clip-rule="nonzero"/></clipPath><clipPath id="030b3d5305"><path d="M 132.179688 41.714844 L 165.792969 60.484375 L 156.398438 97.820312 L 122.785156 79.050781 Z M 132.179688 41.714844 " clip-rule="nonzero"/></clipPath><clipPath id="0a506e351b"><path d="M 157.046875 64.609375 L 168.332031 64.609375 L 168.332031 108.414062 L 157.046875 108.414062 Z M 157.046875 64.609375 " clip-rule="nonzero"/></clipPath><clipPath id="988a12e120"><path d="M 164.359375 61.554688 L 168.332031 61.554688 L 168.332031 65.429688 L 164.359375 65.429688 Z M 164.359375 61.554688 " clip-rule="nonzero"/></clipPath><clipPath id="5d770fb343"><path d="M 126.070312 50.253906 L 168.347656 50.253906 L 168.347656 61.554688 L 126.070312 61.554688 Z M 126.070312 50.253906 " clip-rule="nonzero"/></clipPath><clipPath id="5438e64a39"><path d="M 147.199219 50.253906 L 168.332031 61.554688 L 126.070312 61.554688 Z M 147.199219 50.253906 " clip-rule="nonzero"/></clipPath></defs><g clip-path="url(#c078bee98a)"><path fill="#ececec" d="M 5.984375 6.179688 L 219.179688 6.179688 L 219.179688 162.5625 L 5.984375 162.5625 Z M 5.984375 6.179688 " fill-opacity="1" fill-rule="nonzero"/></g><g fill="#423e3e" fill-opacity="1"><g transform="translate(77.320216, 145.878556)"><g><path d="M 4.796875 -14.859375 L 4.796875 0 L 1.71875 0 L 1.71875 -14.859375 Z M 4.796875 -14.859375 "/></g></g></g><g fill="#423e3e" fill-opacity="1"><g transform="translate(83.864186, 145.878556)"><g><path d="M 15.0625 -9.8125 L 10.921875 0 L 8.875 0 L 4.765625 -9.734375 L 4.75 -9.734375 L 4.75 0 L 1.71875 0 L 1.71875 -14.859375 L 5.6875 -14.859375 L 9.90625 -4.890625 L 14.03125 -14.859375 L 18.109375 -14.859375 L 18.109375 0 L 15.078125 0 L 15.078125 -9.8125 Z M 15.0625 -9.8125 "/></g></g></g><g fill="#423e3e" fill-opacity="1"><g transform="translate(103.704734, 145.878556)"><g><path d="M 3.078125 0 L -0.015625 0 L 5.65625 -14.859375 L 9.359375 -14.859375 L 15.046875 0 L 11.875 0 L 10.75 -3 L 4.171875 -3 Z M 7.46875 -11.875 L 5.234375 -5.84375 L 9.71875 -5.84375 Z M 7.46875 -11.875 "/></g></g></g><g fill="#423e3e" fill-opacity="1"><g transform="translate(118.727406, 145.878556)"><g><path d="M 3.953125 -7.4375 C 3.953125 -6.570312 4.144531 -5.78125 4.53125 -5.0625 C 4.914062 -4.34375 5.453125 -3.765625 6.140625 -3.328125 C 6.828125 -2.898438 7.617188 -2.6875 8.515625 -2.6875 C 9.523438 -2.6875 10.367188 -2.921875 11.046875 -3.390625 C 11.734375 -3.859375 12.164062 -4.460938 12.34375 -5.203125 L 7.828125 -5.203125 L 7.828125 -7.984375 L 15.546875 -7.984375 L 15.546875 -6.828125 C 15.546875 -5.679688 15.351562 -4.664062 14.96875 -3.78125 C 14.582031 -2.894531 14.054688 -2.15625 13.390625 -1.5625 C 12.734375 -0.976562 11.984375 -0.53125 11.140625 -0.21875 C 10.296875 0.0820312 9.421875 0.234375 8.515625 0.234375 C 7.367188 0.234375 6.320312 0.0351562 5.375 -0.359375 C 4.4375 -0.765625 3.625 -1.3125 2.9375 -2 C 2.257812 -2.695312 1.734375 -3.507812 1.359375 -4.4375 C 0.992188 -5.363281 0.8125 -6.359375 0.8125 -7.421875 C 0.8125 -8.503906 1.015625 -9.503906 1.421875 -10.421875 C 1.828125 -11.347656 2.382812 -12.160156 3.09375 -12.859375 C 3.8125 -13.566406 4.632812 -14.113281 5.5625 -14.5 C 6.5 -14.882812 7.5 -15.078125 8.5625 -15.078125 C 9.507812 -15.078125 10.359375 -14.945312 11.109375 -14.6875 C 11.859375 -14.425781 12.507812 -14.085938 13.0625 -13.671875 C 13.613281 -13.253906 14.066406 -12.800781 14.421875 -12.3125 C 14.785156 -11.832031 15.050781 -11.359375 15.21875 -10.890625 L 12.5 -9.5625 C 12.363281 -9.9375 12.132812 -10.328125 11.8125 -10.734375 C 11.488281 -11.140625 11.054688 -11.476562 10.515625 -11.75 C 9.984375 -12.03125 9.316406 -12.171875 8.515625 -12.171875 C 7.679688 -12.171875 6.921875 -11.960938 6.234375 -11.546875 C 5.546875 -11.128906 4.992188 -10.5625 4.578125 -9.84375 C 4.160156 -9.132812 3.953125 -8.332031 3.953125 -7.4375 Z M 3.953125 -7.4375 "/></g></g></g><g fill="#423e3e" fill-opacity="1"><g transform="translate(134.983001, 145.878556)"><g><path d="M 1.71875 -14.859375 L 11.453125 -14.859375 L 11.453125 -11.96875 L 4.765625 -11.96875 L 4.765625 -8.953125 L 10.75 -8.953125 L 10.75 -6.0625 L 4.765625 -6.0625 L 4.765625 -2.859375 L 11.5 -2.859375 L 11.5 0 L 1.71875 0 Z M 1.71875 -14.859375 "/></g></g></g><g clip-path="url(#2c39c171b8)"><g clip-path="url(#e549529b14)"><path fill="#423e3e" d="M 46.976562 23.296875 L 79.582031 23.296875 L 79.582031 55.902344 L 46.976562 55.902344 Z M 46.976562 23.296875 " fill-opacity="1" fill-rule="nonzero"/><path stroke-linecap="butt" transform="matrix(0.584069, 0, 0, 0.584069, 46.976266, 23.296394)" fill="none" stroke-linejoin="miter" d="M 27.916216 0.000823223 C 12.500378 0.000823223 0.000506847 12.500694 0.000506847 27.916533 C 0.000506847 43.332371 12.500378 55.825554 27.916216 55.825554 C 43.332055 55.825554 55.825238 43.332371 55.825238 27.916533 C 55.825238 12.500694 43.332055 0.000823223 27.916216 0.000823223 Z M 27.916216 0.000823223 " stroke="#a6a6a6" stroke-width="10.257569" stroke-opacity="1" stroke-miterlimit="4"/></g></g><g clip-path="url(#f67bd2ff8f)"><path fill="#a6a6a6" d="M 54.132812 88.535156 L 168.347656 88.535156 L 168.347656 114.996094 L 54.132812 114.996094 Z M 54.132812 88.535156 " fill-opacity="1" fill-rule="nonzero"/></g><g clip-path="url(#1506fdebf3)"><g clip-path="url(#c5a4d748fd)"><path fill="#a6a6a6" d="M 49.390625 64.609375 L 101.523438 64.609375 L 101.523438 93.433594 L 49.390625 93.433594 Z M 49.390625 64.609375 " fill-opacity="1" fill-rule="nonzero"/></g></g><g clip-path="url(#b71b587dcc)"><path fill="#a6a6a6" d="M 49.390625 93.09375 L 93.199219 93.09375 L 93.199219 114.996094 L 49.390625 114.996094 Z M 49.390625 93.09375 " fill-opacity="1" fill-rule="nonzero"/></g><g clip-path="url(#1c40c769d8)"><g clip-path="url(#694c1ebadc)"><path fill="#a6a6a6" d="M 95.855469 41.738281 L 168.40625 41.738281 L 168.40625 89.121094 L 95.855469 89.121094 Z M 95.855469 41.738281 " fill-opacity="1" fill-rule="nonzero"/></g></g><g clip-path="url(#d1fb548e20)"><g clip-path="url(#8d68a13243)"><g clip-path="url(#030b3d5305)"><path fill="#a6a6a6" d="M 110.675781 50.996094 L 153.683594 32.429688 L 177.90625 88.542969 L 134.898438 107.109375 Z M 110.675781 50.996094 " fill-opacity="1" fill-rule="nonzero"/></g></g></g><g clip-path="url(#0a506e351b)"><path fill="#a6a6a6" d="M 157.046875 64.609375 L 168.332031 64.609375 L 168.332031 108.425781 L 157.046875 108.425781 Z M 157.046875 64.609375 " fill-opacity="1" fill-rule="nonzero"/></g><g clip-path="url(#988a12e120)"><path fill="#a6a6a6" d="M 164.359375 61.554688 L 168.328125 61.554688 L 168.328125 65.429688 L 164.359375 65.429688 Z M 164.359375 61.554688 " fill-opacity="1" fill-rule="nonzero"/></g><g clip-path="url(#5d770fb343)"><g clip-path="url(#5438e64a39)"><path fill="#a6a6a6" d="M 126.070312 50.253906 L 168.347656 50.253906 L 168.347656 61.554688 L 126.070312 61.554688 Z M 126.070312 50.253906 " fill-opacity="1" fill-rule="nonzero"/></g></g><path stroke-linecap="butt" transform="matrix(0.584069, -0.000000000000000579, 0.000000000000000579, 0.584069, 160.155139, 61.552888)" fill="none" stroke-linejoin="miter" d="M 0.00190208 0.497992 L 13.999884 0.497992 " stroke="#a6a6a6" stroke-width="1" stroke-opacity="1" stroke-miterlimit="4"/></svg>