<svg xmlns="http://www.w3.org/2000/svg" xmlns:xlink="http://www.w3.org/1999/xlink" width="275" zoomAndPan="magnify" viewBox="0 0 206.25 187.499992" height="250" preserveAspectRatio="xMidYMid meet" version="1.0"><defs><g/><clipPath id="382af017c9"><path d="M 6.664062 6.203125 L 198.839844 6.203125 L 198.839844 145.292969 L 6.664062 145.292969 Z M 6.664062 6.203125 " clip-rule="nonzero"/></clipPath><clipPath id="cc393b4bb1"><path d="M 18.683594 151.675781 L 186.820312 151.675781 L 186.820312 176.78125 L 18.683594 176.78125 Z M 18.683594 151.675781 " clip-rule="nonzero"/></clipPath></defs><g clip-path="url(#382af017c9)"><path fill="#ececec" d="M 6.664062 6.203125 L 199 6.203125 L 199 145.292969 L 6.664062 145.292969 Z M 6.664062 6.203125 " fill-opacity="1" fill-rule="nonzero"/></g><g clip-path="url(#cc393b4bb1)"><path fill="#ffffff" d="M 18.683594 151.675781 L 186.859375 151.675781 L 186.859375 176.78125 L 18.683594 176.78125 Z M 18.683594 151.675781 " fill-opacity="1" fill-rule="nonzero"/></g><g fill="#423e3e" fill-opacity="1"><g transform="translate(21.869692, 168.054492)"><g><path d="M 1.359375 -11.703125 L 3.765625 -11.703125 L 3.765625 -2.296875 L 8.78125 -2.296875 L 8.78125 0 L 1.359375 0 Z M 1.359375 -11.703125 "/></g></g></g><g fill="#423e3e" fill-opacity="1"><g transform="translate(30.896855, 168.054492)"><g><path d="M 3.78125 -11.703125 L 3.78125 0 L 1.359375 0 L 1.359375 -11.703125 Z M 3.78125 -11.703125 "/></g></g></g><g fill="#423e3e" fill-opacity="1"><g transform="translate(36.0531, 168.054492)"><g><path d="M 3.75 -8.078125 L 3.75 0 L 1.359375 0 L 1.359375 -11.703125 L 4.125 -11.703125 L 9.21875 -4.0625 L 9.21875 -11.703125 L 11.609375 -11.703125 L 11.609375 0 L 9.140625 0 Z M 3.75 -8.078125 "/></g></g></g><g fill="#423e3e" fill-opacity="1"><g transform="translate(49.025915, 168.054492)"><g><path d="M 1.359375 -11.703125 L 9.03125 -11.703125 L 9.03125 -9.4375 L 3.75 -9.4375 L 3.75 -7.0625 L 8.484375 -7.0625 L 8.484375 -4.78125 L 3.75 -4.78125 L 3.75 -2.265625 L 9.0625 -2.265625 L 9.0625 0 L 1.359375 0 Z M 1.359375 -11.703125 "/></g></g></g><g fill="#423e3e" fill-opacity="1"><g transform="translate(58.934878, 168.054492)"><g/></g></g><g fill="#423e3e" fill-opacity="1"><g transform="translate(62.686228, 168.054492)"><g><path d="M 10.953125 0 L 8.109375 0 L 7.453125 -0.75 C 7.015625 -0.457031 6.546875 -0.226562 6.046875 -0.0625 C 5.546875 0.09375 5.015625 0.171875 4.453125 0.171875 C 3.804688 0.171875 3.191406 0.0546875 2.609375 -0.171875 C 2.023438 -0.398438 1.550781 -0.753906 1.1875 -1.234375 C 0.832031 -1.710938 0.65625 -2.328125 0.65625 -3.078125 C 0.65625 -3.535156 0.75 -3.953125 0.9375 -4.328125 C 1.132812 -4.703125 1.394531 -5.039062 1.71875 -5.34375 C 2.039062 -5.644531 2.382812 -5.914062 2.75 -6.15625 L 2.296875 -6.65625 C 1.992188 -6.988281 1.769531 -7.34375 1.625 -7.71875 C 1.488281 -8.101562 1.421875 -8.445312 1.421875 -8.75 C 1.421875 -9.3125 1.566406 -9.832031 1.859375 -10.3125 C 2.148438 -10.789062 2.550781 -11.175781 3.0625 -11.46875 C 3.570312 -11.757812 4.15625 -11.90625 4.8125 -11.90625 C 5.414062 -11.90625 5.972656 -11.765625 6.484375 -11.484375 C 7.003906 -11.210938 7.421875 -10.84375 7.734375 -10.375 C 8.054688 -9.914062 8.21875 -9.398438 8.21875 -8.828125 C 8.21875 -8.273438 8.09375 -7.785156 7.84375 -7.359375 C 7.59375 -6.941406 7.175781 -6.554688 6.59375 -6.203125 L 5.890625 -5.78125 L 7.578125 -3.859375 C 7.972656 -4.503906 8.285156 -5.253906 8.515625 -6.109375 L 10.5 -5.65625 C 10.34375 -4.988281 10.140625 -4.367188 9.890625 -3.796875 C 9.640625 -3.234375 9.34375 -2.71875 9 -2.25 Z M 4.859375 -9.796875 C 4.515625 -9.796875 4.226562 -9.6875 4 -9.46875 C 3.78125 -9.25 3.671875 -9.007812 3.671875 -8.75 C 3.671875 -8.613281 3.695312 -8.476562 3.75 -8.34375 C 3.800781 -8.21875 3.921875 -8.046875 4.109375 -7.828125 L 4.609375 -7.265625 L 5.453125 -7.78125 C 5.648438 -7.894531 5.796875 -8.035156 5.890625 -8.203125 C 5.984375 -8.367188 6.03125 -8.550781 6.03125 -8.75 C 6.03125 -9.007812 5.921875 -9.25 5.703125 -9.46875 C 5.484375 -9.6875 5.203125 -9.796875 4.859375 -9.796875 Z M 4.625 -1.921875 C 5.144531 -1.921875 5.628906 -2.054688 6.078125 -2.328125 L 4.03125 -4.6875 C 3.757812 -4.5 3.519531 -4.289062 3.3125 -4.0625 C 3.101562 -3.832031 3 -3.578125 3 -3.296875 C 3 -2.941406 3.085938 -2.664062 3.265625 -2.46875 C 3.441406 -2.269531 3.65625 -2.128906 3.90625 -2.046875 C 4.164062 -1.960938 4.40625 -1.921875 4.625 -1.921875 Z M 4.625 -1.921875 "/></g></g></g><g fill="#423e3e" fill-opacity="1"><g transform="translate(73.895455, 168.054492)"><g/></g></g><g fill="#423e3e" fill-opacity="1"><g transform="translate(77.646805, 168.054492)"><g><path d="M 2.421875 0 L -0.015625 0 L 4.453125 -11.703125 L 7.375 -11.703125 L 11.859375 0 L 9.359375 0 L 8.484375 -2.359375 L 3.296875 -2.359375 Z M 5.890625 -9.359375 L 4.125 -4.609375 L 7.65625 -4.609375 Z M 5.890625 -9.359375 "/></g></g></g><g fill="#423e3e" fill-opacity="1"><g transform="translate(89.483747, 168.054492)"><g><path d="M 10.359375 0 L 7.671875 0 L 5.25 -4.203125 L 3.78125 -4.203125 L 3.78125 0 L 1.359375 0 L 1.359375 -11.703125 L 5.984375 -11.703125 C 6.742188 -11.703125 7.4375 -11.566406 8.0625 -11.296875 C 8.6875 -11.023438 9.1875 -10.613281 9.5625 -10.0625 C 9.9375 -9.507812 10.125 -8.820312 10.125 -8 C 10.125 -6.289062 9.320312 -5.148438 7.71875 -4.578125 Z M 5.796875 -6.4375 C 6.097656 -6.4375 6.394531 -6.488281 6.6875 -6.59375 C 6.976562 -6.695312 7.210938 -6.859375 7.390625 -7.078125 C 7.578125 -7.296875 7.671875 -7.585938 7.671875 -7.953125 C 7.671875 -8.328125 7.578125 -8.617188 7.390625 -8.828125 C 7.203125 -9.046875 6.960938 -9.195312 6.671875 -9.28125 C 6.390625 -9.375 6.09375 -9.421875 5.78125 -9.421875 L 3.78125 -9.421875 L 3.78125 -6.4375 Z M 5.796875 -6.4375 "/></g></g></g><g fill="#423e3e" fill-opacity="1"><g transform="translate(100.409004, 168.054492)"><g><path d="M 1.359375 -11.703125 L 9.03125 -11.703125 L 9.03125 -9.4375 L 3.75 -9.4375 L 3.75 -7.0625 L 8.484375 -7.0625 L 8.484375 -4.78125 L 3.75 -4.78125 L 3.75 -2.265625 L 9.0625 -2.265625 L 9.0625 0 L 1.359375 0 Z M 1.359375 -11.703125 "/></g></g></g><g fill="#423e3e" fill-opacity="1"><g transform="translate(110.317967, 168.054492)"><g><path d="M 2.421875 0 L -0.015625 0 L 4.453125 -11.703125 L 7.375 -11.703125 L 11.859375 0 L 9.359375 0 L 8.484375 -2.359375 L 3.296875 -2.359375 Z M 5.890625 -9.359375 L 4.125 -4.609375 L 7.65625 -4.609375 Z M 5.890625 -9.359375 "/></g></g></g><g fill="#423e3e" fill-opacity="1"><g transform="translate(122.154908, 168.054492)"><g/></g></g><g fill="#423e3e" fill-opacity="1"><g transform="translate(125.906259, 168.054492)"><g><path d="M 0.640625 -5.84375 C 0.640625 -6.695312 0.796875 -7.488281 1.109375 -8.21875 C 1.421875 -8.945312 1.859375 -9.582031 2.421875 -10.125 C 2.984375 -10.675781 3.628906 -11.109375 4.359375 -11.421875 C 5.085938 -11.734375 5.875 -11.890625 6.71875 -11.890625 C 7.476562 -11.890625 8.210938 -11.753906 8.921875 -11.484375 C 9.640625 -11.210938 10.269531 -10.820312 10.8125 -10.3125 C 11.363281 -9.800781 11.765625 -9.175781 12.015625 -8.4375 L 9.8125 -7.421875 C 9.5625 -8.066406 9.164062 -8.578125 8.625 -8.953125 C 8.082031 -9.335938 7.441406 -9.53125 6.703125 -9.53125 C 6.023438 -9.53125 5.414062 -9.363281 4.875 -9.03125 C 4.34375 -8.695312 3.921875 -8.253906 3.609375 -7.703125 C 3.304688 -7.148438 3.15625 -6.539062 3.15625 -5.875 C 3.15625 -5.195312 3.304688 -4.578125 3.609375 -4.015625 C 3.910156 -3.460938 4.328125 -3.019531 4.859375 -2.6875 C 5.398438 -2.351562 6.015625 -2.1875 6.703125 -2.1875 C 7.441406 -2.1875 8.085938 -2.382812 8.640625 -2.78125 C 9.191406 -3.1875 9.59375 -3.707031 9.84375 -4.34375 L 12.0625 -3.3125 C 11.789062 -2.582031 11.375 -1.957031 10.8125 -1.4375 C 10.257812 -0.914062 9.625 -0.515625 8.90625 -0.234375 C 8.1875 0.0351562 7.441406 0.171875 6.671875 0.171875 C 5.816406 0.171875 5.023438 0.0195312 4.296875 -0.28125 C 3.566406 -0.59375 2.925781 -1.019531 2.375 -1.5625 C 1.832031 -2.101562 1.40625 -2.738281 1.09375 -3.46875 C 0.789062 -4.207031 0.640625 -5 0.640625 -5.84375 Z M 0.640625 -5.84375 "/></g></g></g><g fill="#423e3e" fill-opacity="1"><g transform="translate(138.341029, 168.054492)"><g><path d="M 3.78125 -4.734375 L 3.78125 0 L 1.359375 0 L 1.359375 -11.703125 L 3.78125 -11.703125 L 3.78125 -7.09375 L 8.6875 -7.09375 L 8.6875 -11.703125 L 11.109375 -11.703125 L 11.109375 0 L 8.6875 0 L 8.6875 -4.734375 Z M 3.78125 -4.734375 "/></g></g></g><g fill="#423e3e" fill-opacity="1"><g transform="translate(150.805685, 168.054492)"><g><path d="M 2.421875 0 L -0.015625 0 L 4.453125 -11.703125 L 7.375 -11.703125 L 11.859375 0 L 9.359375 0 L 8.484375 -2.359375 L 3.296875 -2.359375 Z M 5.890625 -9.359375 L 4.125 -4.609375 L 7.65625 -4.609375 Z M 5.890625 -9.359375 "/></g></g></g><g fill="#423e3e" fill-opacity="1"><g transform="translate(162.642627, 168.054492)"><g><path d="M 10.359375 0 L 7.671875 0 L 5.25 -4.203125 L 3.78125 -4.203125 L 3.78125 0 L 1.359375 0 L 1.359375 -11.703125 L 5.984375 -11.703125 C 6.742188 -11.703125 7.4375 -11.566406 8.0625 -11.296875 C 8.6875 -11.023438 9.1875 -10.613281 9.5625 -10.0625 C 9.9375 -9.507812 10.125 -8.820312 10.125 -8 C 10.125 -6.289062 9.320312 -5.148438 7.71875 -4.578125 Z M 5.796875 -6.4375 C 6.097656 -6.4375 6.394531 -6.488281 6.6875 -6.59375 C 6.976562 -6.695312 7.210938 -6.859375 7.390625 -7.078125 C 7.578125 -7.296875 7.671875 -7.585938 7.671875 -7.953125 C 7.671875 -8.328125 7.578125 -8.617188 7.390625 -8.828125 C 7.203125 -9.046875 6.960938 -9.195312 6.671875 -9.28125 C 6.390625 -9.375 6.09375 -9.421875 5.78125 -9.421875 L 3.78125 -9.421875 L 3.78125 -6.4375 Z M 5.796875 -6.4375 "/></g></g></g><g fill="#423e3e" fill-opacity="1"><g transform="translate(173.567884, 168.054492)"><g><path d="M 3.828125 0 L 3.828125 -9.359375 L 0.3125 -9.359375 L 0.3125 -11.703125 L 9.75 -11.703125 L 9.75 -9.359375 L 6.234375 -9.359375 L 6.234375 0 Z M 3.828125 0 "/></g></g></g><path stroke-linecap="butt" transform="matrix(-0.747283, 0, 0, -0.747283, 153.049895, 128.166301)" fill="none" stroke-linejoin="miter" d="M -0.00118606 1.999814 L 137.188592 1.999814 " stroke="#000000" stroke-width="4" stroke-opacity="1" stroke-miterlimit="4"/><path stroke-linecap="butt" transform="matrix(0.00000000130425, -0.747283, 0.747283, 0.00000000130425, 50.60408, 125.775683)" fill="none" stroke-linejoin="miter" d="M -0.00222198 1.998677 L 137.187556 1.998677 " stroke="#000000" stroke-width="4" stroke-opacity="1" stroke-miterlimit="4"/><path stroke-linecap="butt" transform="matrix(0.459968, -0.588948, 0.588948, 0.459968, 56.276012, 119.824956)" fill="none" stroke-linejoin="miter" d="M -0.00191188 2.000162 L 76.676953 1.9996 " stroke="#8b73ff" stroke-width="4" stroke-opacity="1" stroke-miterlimit="4"/><path stroke-linecap="butt" transform="matrix(0.54585, 0.510371, -0.510371, 0.54585, 92.24459, 74.560941)" fill="none" stroke-linejoin="miter" d="M -0.00143688 2.000798 L 44.115917 1.999702 " stroke="#8b73ff" stroke-width="4" stroke-opacity="1" stroke-miterlimit="4"/><path stroke-linecap="butt" transform="matrix(0.459968, -0.588948, 0.588948, 0.459968, 113.015951, 96.279957)" fill="none" stroke-linejoin="miter" d="M 0.00191812 2.000988 L 76.680783 2.000426 " stroke="#8b73ff" stroke-width="4" stroke-opacity="1" stroke-miterlimit="4"/><path stroke-linecap="butt" transform="matrix(0.747283, 0, 0, 0.747283, 56.219575, 61.242158)" fill="none" stroke-linejoin="miter" d="M -0.00110377 2.002085 L 70.844126 2.002085 " stroke="#ff9861" stroke-width="4" stroke-opacity="1" stroke-miterlimit="4"/><path stroke-linecap="butt" transform="matrix(0.557205, 0.497949, -0.497949, 0.557205, 108.843664, 61.230926)" fill="none" stroke-linejoin="miter" d="M -0.00152353 1.998514 L 75.509383 2.000243 " stroke="#ff9861" stroke-width="4" stroke-opacity="1" stroke-miterlimit="4"/><path stroke-linecap="butt" transform="matrix(-0.557205, -0.497949, 0.497949, -0.557205, 98.287421, 119.170698)" fill="none" stroke-linejoin="miter" d="M -0.000406743 2.003234 L 75.514397 2.00148 " stroke="#96e17b" stroke-width="4" stroke-opacity="1" stroke-miterlimit="4"/><path stroke-linecap="butt" transform="matrix(-0.647166, 0.373641, -0.373641, -0.647166, 131.079261, 100.756603)" fill="none" stroke-linejoin="miter" d="M -0.000953699 2.001511 L 50.380623 2.002157 " stroke="#96e17b" stroke-width="4" stroke-opacity="1" stroke-miterlimit="4"/></svg>