<svg xmlns="http://www.w3.org/2000/svg" xmlns:xlink="http://www.w3.org/1999/xlink" width="300" zoomAndPan="magnify" viewBox="0 0 224.87999 168.749997" height="225" preserveAspectRatio="xMidYMid meet" version="1.0"><defs><g/><clipPath id="d24ab4728f"><path d="M 5.984375 6.058594 L 219.1875 6.058594 L 219.1875 162.441406 L 5.984375 162.441406 Z M 5.984375 6.058594 " clip-rule="nonzero"/></clipPath></defs><g clip-path="url(#d24ab4728f)"><path fill="#ececec" d="M 5.984375 6.058594 L 219.179688 6.058594 L 219.179688 162.441406 L 5.984375 162.441406 Z M 5.984375 6.058594 " fill-opacity="1" fill-rule="nonzero"/></g><g fill="#423e3e" fill-opacity="1"><g transform="translate(26.004857, 143.18255)"><g><path d="M 1.453125 -12.5 L 4.03125 -12.5 L 4.03125 -2.453125 L 9.375 -2.453125 L 9.375 0 L 1.453125 0 Z M 1.453125 -12.5 "/></g></g></g><g fill="#423e3e" fill-opacity="1"><g transform="translate(35.652238, 143.18255)"><g><path d="M 4.046875 -12.5 L 4.046875 0 L 1.453125 0 L 1.453125 -12.5 Z M 4.046875 -12.5 "/></g></g></g><g fill="#423e3e" fill-opacity="1"><g transform="translate(41.162747, 143.18255)"><g><path d="M 4.015625 -8.625 L 4.015625 0 L 1.453125 0 L 1.453125 -12.5 L 4.40625 -12.5 L 9.84375 -4.34375 L 9.84375 -12.5 L 12.390625 -12.5 L 12.390625 0 L 9.75 0 Z M 4.015625 -8.625 "/></g></g></g><g fill="#423e3e" fill-opacity="1"><g transform="translate(55.026877, 143.18255)"><g><path d="M 1.453125 -12.5 L 9.640625 -12.5 L 9.640625 -10.078125 L 4.015625 -10.078125 L 4.015625 -7.53125 L 9.046875 -7.53125 L 9.046875 -5.109375 L 4.015625 -5.109375 L 4.015625 -2.40625 L 9.671875 -2.40625 L 9.671875 0 L 1.453125 0 Z M 1.453125 -12.5 "/></g></g></g><g fill="#423e3e" fill-opacity="1"><g transform="translate(65.616646, 143.18255)"><g/></g></g><g fill="#423e3e" fill-opacity="1"><g transform="translate(69.62574, 143.18255)"><g><path d="M 11.703125 0 L 8.65625 0 L 7.953125 -0.796875 C 7.492188 -0.484375 6.992188 -0.242188 6.453125 -0.078125 C 5.921875 0.0859375 5.359375 0.171875 4.765625 0.171875 C 4.066406 0.171875 3.40625 0.0507812 2.78125 -0.1875 C 2.164062 -0.4375 1.664062 -0.816406 1.28125 -1.328125 C 0.894531 -1.835938 0.703125 -2.492188 0.703125 -3.296875 C 0.703125 -3.785156 0.804688 -4.226562 1.015625 -4.625 C 1.222656 -5.019531 1.492188 -5.378906 1.828125 -5.703125 C 2.171875 -6.035156 2.539062 -6.328125 2.9375 -6.578125 L 2.453125 -7.109375 C 2.128906 -7.472656 1.890625 -7.851562 1.734375 -8.25 C 1.585938 -8.65625 1.515625 -9.019531 1.515625 -9.34375 C 1.515625 -9.945312 1.671875 -10.503906 1.984375 -11.015625 C 2.296875 -11.523438 2.722656 -11.9375 3.265625 -12.25 C 3.816406 -12.5625 4.441406 -12.71875 5.140625 -12.71875 C 5.773438 -12.71875 6.367188 -12.566406 6.921875 -12.265625 C 7.484375 -11.972656 7.929688 -11.578125 8.265625 -11.078125 C 8.609375 -10.585938 8.78125 -10.035156 8.78125 -9.421875 C 8.78125 -8.835938 8.644531 -8.316406 8.375 -7.859375 C 8.101562 -7.410156 7.660156 -7 7.046875 -6.625 L 6.296875 -6.1875 L 8.09375 -4.125 C 8.519531 -4.8125 8.859375 -5.613281 9.109375 -6.53125 L 11.203125 -6.03125 C 11.046875 -5.320312 10.832031 -4.660156 10.5625 -4.046875 C 10.289062 -3.441406 9.972656 -2.890625 9.609375 -2.390625 Z M 5.1875 -10.453125 C 4.8125 -10.453125 4.503906 -10.332031 4.265625 -10.09375 C 4.035156 -9.863281 3.921875 -9.613281 3.921875 -9.34375 C 3.921875 -9.207031 3.945312 -9.066406 4 -8.921875 C 4.0625 -8.773438 4.191406 -8.585938 4.390625 -8.359375 L 4.921875 -7.765625 L 5.828125 -8.296875 C 6.035156 -8.429688 6.1875 -8.582031 6.28125 -8.75 C 6.382812 -8.925781 6.4375 -9.125 6.4375 -9.34375 C 6.4375 -9.613281 6.316406 -9.863281 6.078125 -10.09375 C 5.847656 -10.332031 5.550781 -10.453125 5.1875 -10.453125 Z M 4.9375 -2.0625 C 5.5 -2.0625 6.019531 -2.203125 6.5 -2.484375 L 4.3125 -5 C 4.007812 -4.800781 3.75 -4.578125 3.53125 -4.328125 C 3.3125 -4.085938 3.203125 -3.820312 3.203125 -3.53125 C 3.203125 -3.144531 3.296875 -2.84375 3.484375 -2.625 C 3.671875 -2.414062 3.898438 -2.269531 4.171875 -2.1875 C 4.441406 -2.101562 4.695312 -2.0625 4.9375 -2.0625 Z M 4.9375 -2.0625 "/></g></g></g><g fill="#423e3e" fill-opacity="1"><g transform="translate(81.605108, 143.18255)"><g/></g></g><g fill="#423e3e" fill-opacity="1"><g transform="translate(85.614202, 143.18255)"><g><path d="M 2.59375 0 L -0.015625 0 L 4.765625 -12.5 L 7.875 -12.5 L 12.65625 0 L 10 0 L 9.046875 -2.515625 L 3.515625 -2.515625 Z M 6.296875 -10 L 4.40625 -4.921875 L 8.171875 -4.921875 Z M 6.296875 -10 "/></g></g></g><g fill="#423e3e" fill-opacity="1"><g transform="translate(98.264413, 143.18255)"><g><path d="M 11.0625 0 L 8.1875 0 L 5.609375 -4.484375 L 4.046875 -4.484375 L 4.046875 0 L 1.453125 0 L 1.453125 -12.5 L 6.390625 -12.5 C 7.191406 -12.5 7.925781 -12.351562 8.59375 -12.0625 C 9.269531 -11.769531 9.804688 -11.332031 10.203125 -10.75 C 10.609375 -10.164062 10.8125 -9.429688 10.8125 -8.546875 C 10.8125 -6.722656 9.953125 -5.503906 8.234375 -4.890625 Z M 6.203125 -6.875 C 6.515625 -6.875 6.820312 -6.925781 7.125 -7.03125 C 7.4375 -7.144531 7.691406 -7.316406 7.890625 -7.546875 C 8.085938 -7.785156 8.1875 -8.101562 8.1875 -8.5 C 8.1875 -8.90625 8.082031 -9.21875 7.875 -9.4375 C 7.675781 -9.65625 7.425781 -9.8125 7.125 -9.90625 C 6.820312 -10.007812 6.507812 -10.0625 6.1875 -10.0625 L 4.046875 -10.0625 L 4.046875 -6.875 Z M 6.203125 -6.875 "/></g></g></g><g fill="#423e3e" fill-opacity="1"><g transform="translate(109.94031, 143.18255)"><g><path d="M 1.453125 -12.5 L 9.640625 -12.5 L 9.640625 -10.078125 L 4.015625 -10.078125 L 4.015625 -7.53125 L 9.046875 -7.53125 L 9.046875 -5.109375 L 4.015625 -5.109375 L 4.015625 -2.40625 L 9.671875 -2.40625 L 9.671875 0 L 1.453125 0 Z M 1.453125 -12.5 "/></g></g></g><g fill="#423e3e" fill-opacity="1"><g transform="translate(120.530078, 143.18255)"><g><path d="M 2.59375 0 L -0.015625 0 L 4.765625 -12.5 L 7.875 -12.5 L 12.65625 0 L 10 0 L 9.046875 -2.515625 L 3.515625 -2.515625 Z M 6.296875 -10 L 4.40625 -4.921875 L 8.171875 -4.921875 Z M 6.296875 -10 "/></g></g></g><g fill="#423e3e" fill-opacity="1"><g transform="translate(133.180289, 143.18255)"><g/></g></g><g fill="#423e3e" fill-opacity="1"><g transform="translate(137.189383, 143.18255)"><g><path d="M 0.6875 -6.25 C 0.6875 -7.144531 0.851562 -7.984375 1.1875 -8.765625 C 1.519531 -9.554688 1.984375 -10.242188 2.578125 -10.828125 C 3.179688 -11.410156 3.875 -11.863281 4.65625 -12.1875 C 5.4375 -12.519531 6.273438 -12.6875 7.171875 -12.6875 C 7.992188 -12.6875 8.785156 -12.539062 9.546875 -12.25 C 10.304688 -11.96875 10.972656 -11.550781 11.546875 -11 C 12.128906 -10.457031 12.5625 -9.789062 12.84375 -9 L 10.46875 -7.921875 C 10.207031 -8.609375 9.785156 -9.15625 9.203125 -9.5625 C 8.617188 -9.96875 7.9375 -10.171875 7.15625 -10.171875 C 6.425781 -10.171875 5.773438 -9.992188 5.203125 -9.640625 C 4.640625 -9.296875 4.191406 -8.828125 3.859375 -8.234375 C 3.535156 -7.640625 3.375 -6.988281 3.375 -6.28125 C 3.375 -5.550781 3.535156 -4.890625 3.859375 -4.296875 C 4.179688 -3.703125 4.625 -3.222656 5.1875 -2.859375 C 5.757812 -2.503906 6.414062 -2.328125 7.15625 -2.328125 C 7.9375 -2.328125 8.625 -2.539062 9.21875 -2.96875 C 9.8125 -3.40625 10.238281 -3.960938 10.5 -4.640625 L 12.890625 -3.546875 C 12.597656 -2.753906 12.15625 -2.082031 11.5625 -1.53125 C 10.96875 -0.976562 10.285156 -0.554688 9.515625 -0.265625 C 8.742188 0.0234375 7.945312 0.171875 7.125 0.171875 C 6.21875 0.171875 5.375 0.0078125 4.59375 -0.3125 C 3.8125 -0.632812 3.125 -1.082031 2.53125 -1.65625 C 1.945312 -2.238281 1.492188 -2.921875 1.171875 -3.703125 C 0.847656 -4.492188 0.6875 -5.34375 0.6875 -6.25 Z M 0.6875 -6.25 "/></g></g></g><g fill="#423e3e" fill-opacity="1"><g transform="translate(150.478498, 143.18255)"><g><path d="M 4.046875 -5.0625 L 4.046875 0 L 1.453125 0 L 1.453125 -12.5 L 4.046875 -12.5 L 4.046875 -7.5625 L 9.28125 -7.5625 L 9.28125 -12.5 L 11.859375 -12.5 L 11.859375 0 L 9.28125 0 L 9.28125 -5.0625 Z M 4.046875 -5.0625 "/></g></g></g><g fill="#423e3e" fill-opacity="1"><g transform="translate(163.799563, 143.18255)"><g><path d="M 2.59375 0 L -0.015625 0 L 4.765625 -12.5 L 7.875 -12.5 L 12.65625 0 L 10 0 L 9.046875 -2.515625 L 3.515625 -2.515625 Z M 6.296875 -10 L 4.40625 -4.921875 L 8.171875 -4.921875 Z M 6.296875 -10 "/></g></g></g><g fill="#423e3e" fill-opacity="1"><g transform="translate(176.449774, 143.18255)"><g><path d="M 11.0625 0 L 8.1875 0 L 5.609375 -4.484375 L 4.046875 -4.484375 L 4.046875 0 L 1.453125 0 L 1.453125 -12.5 L 6.390625 -12.5 C 7.191406 -12.5 7.925781 -12.351562 8.59375 -12.0625 C 9.269531 -11.769531 9.804688 -11.332031 10.203125 -10.75 C 10.609375 -10.164062 10.8125 -9.429688 10.8125 -8.546875 C 10.8125 -6.722656 9.953125 -5.503906 8.234375 -4.890625 Z M 6.203125 -6.875 C 6.515625 -6.875 6.820312 -6.925781 7.125 -7.03125 C 7.4375 -7.144531 7.691406 -7.316406 7.890625 -7.546875 C 8.085938 -7.785156 8.1875 -8.101562 8.1875 -8.5 C 8.1875 -8.90625 8.082031 -9.21875 7.875 -9.4375 C 7.675781 -9.65625 7.425781 -9.8125 7.125 -9.90625 C 6.820312 -10.007812 6.507812 -10.0625 6.1875 -10.0625 L 4.046875 -10.0625 L 4.046875 -6.875 Z M 6.203125 -6.875 "/></g></g></g><g fill="#423e3e" fill-opacity="1"><g transform="translate(188.125671, 143.18255)"><g><path d="M 4.09375 0 L 4.09375 -10 L 0.328125 -10 L 0.328125 -12.5 L 10.40625 -12.5 L 10.40625 -10 L 6.65625 -10 L 6.65625 0 Z M 4.09375 0 "/></g></g></g><path stroke-linecap="butt" transform="matrix(-0.790626, 0, 0, -0.790626, 163.772206, 116.344065)" fill="none" stroke-linejoin="miter" d="M -0.00155786 2.001385 L 128.950911 2.001385 " stroke="#000000" stroke-width="4" stroke-opacity="1" stroke-miterlimit="4"/><path stroke-linecap="butt" transform="matrix(0.0000000013799, -0.790626, 0.790626, 0.0000000013799, 61.097705, 116.343224)" fill="none" stroke-linejoin="miter" d="M -0.000665715 2.000925 L 114.925134 2.000925 " stroke="#000000" stroke-width="4" stroke-opacity="1" stroke-miterlimit="4"/><path stroke-linecap="butt" transform="matrix(0.486647, -0.623108, 0.623108, 0.486647, 67.467545, 107.894438)" fill="none" stroke-linejoin="miter" d="M 0.00138599 2.000656 L 72.075363 2.000062 " stroke="#8b73ff" stroke-width="4" stroke-opacity="1" stroke-miterlimit="4"/><path stroke-linecap="butt" transform="matrix(0.57751, 0.539973, -0.539973, 0.57751, 103.375981, 62.873795)" fill="none" stroke-linejoin="miter" d="M -0.000494039 1.997915 L 41.470986 1.999728 " stroke="#8b73ff" stroke-width="4" stroke-opacity="1" stroke-miterlimit="4"/><path stroke-linecap="butt" transform="matrix(0.486647, -0.623108, 0.623108, 0.486647, 123.892412, 84.480172)" fill="none" stroke-linejoin="miter" d="M -0.0011464 1.997832 L 72.075871 2.001132 " stroke="#8b73ff" stroke-width="4" stroke-opacity="1" stroke-miterlimit="4"/><path stroke-linecap="butt" transform="matrix(0.790626, 0, 0, 0.790626, 67.486843, 49.601574)" fill="none" stroke-linejoin="miter" d="M 0.00181893 2.000972 L 66.587736 2.000972 " stroke="#ff9861" stroke-width="4" stroke-opacity="1" stroke-miterlimit="4"/><path stroke-linecap="butt" transform="matrix(0.589524, 0.526831, -0.526831, 0.589524, 119.882411, 49.613515)" fill="none" stroke-linejoin="miter" d="M -0.000247198 2.000909 L 70.975925 1.99785 " stroke="#ff9861" stroke-width="4" stroke-opacity="1" stroke-miterlimit="4"/><path stroke-linecap="butt" transform="matrix(-0.589524, -0.526831, 0.526831, -0.589524, 109.260563, 107.375319)" fill="none" stroke-linejoin="miter" d="M 0.00243461 1.999451 L 70.974923 1.999684 " stroke="#96e17b" stroke-width="4" stroke-opacity="1" stroke-miterlimit="4"/><path stroke-linecap="butt" transform="matrix(-0.684702, 0.395313, -0.395313, -0.684702, 141.97446, 89.074884)" fill="none" stroke-linejoin="miter" d="M 0.0012442 1.998454 L 47.353042 1.998486 " stroke="#96e17b" stroke-width="4" stroke-opacity="1" stroke-miterlimit="4"/></svg>