<svg xmlns="http://www.w3.org/2000/svg" xmlns:xlink="http://www.w3.org/1999/xlink" width="275" zoomAndPan="magnify" viewBox="0 0 206.25 187.499992" height="250" preserveAspectRatio="xMidYMid meet" version="1.0"><defs><g/><clipPath id="a5605ff7a9"><path d="M 6.664062 6.203125 L 198.839844 6.203125 L 198.839844 145.292969 L 6.664062 145.292969 Z M 6.664062 6.203125 " clip-rule="nonzero"/></clipPath><clipPath id="91942bbb46"><path d="M 18.683594 151.675781 L 186.820312 151.675781 L 186.820312 176.78125 L 18.683594 176.78125 Z M 18.683594 151.675781 " clip-rule="nonzero"/></clipPath></defs><g clip-path="url(#a5605ff7a9)"><path fill="#ececec" d="M 6.664062 6.203125 L 198.839844 6.203125 L 198.839844 145.292969 L 6.664062 145.292969 Z M 6.664062 6.203125 " fill-opacity="1" fill-rule="nonzero"/></g><g clip-path="url(#91942bbb46)"><path fill="#ffffff" d="M 18.683594 151.675781 L 186.820312 151.675781 L 186.820312 176.78125 L 18.683594 176.78125 Z M 18.683594 151.675781 " fill-opacity="1" fill-rule="nonzero"/></g><g fill="#423e3e" fill-opacity="1"><g transform="translate(21.869692, 168.054492)"><g><path d="M 1.359375 -11.703125 L 1.359375 0 L 8.773438 0 L 8.773438 -2.300781 L 3.765625 -2.300781 L 3.765625 -11.703125 Z M 1.359375 -11.703125 "/></g></g></g><g fill="#423e3e" fill-opacity="1"><g transform="translate(30.896855, 168.054492)"><g><path d="M 3.78125 -11.703125 L 1.359375 -11.703125 L 1.359375 0 L 3.78125 0 Z M 3.78125 -11.703125 "/></g></g></g><g fill="#423e3e" fill-opacity="1"><g transform="translate(36.0531, 168.054492)"><g><path d="M 3.75 -8.070312 L 9.132812 0 L 11.597656 0 L 11.597656 -11.703125 L 9.207031 -11.703125 L 9.207031 -4.066406 L 4.125 -11.703125 L 1.359375 -11.703125 L 1.359375 0 L 3.75 0 Z M 3.75 -8.070312 "/></g></g></g><g fill="#423e3e" fill-opacity="1"><g transform="translate(49.025915, 168.054492)"><g><path d="M 1.359375 -11.703125 L 1.359375 0 L 9.058594 0 L 9.058594 -2.257812 L 3.75 -2.257812 L 3.75 -4.78125 L 8.472656 -4.78125 L 8.472656 -7.054688 L 3.75 -7.054688 L 3.75 -9.429688 L 9.027344 -9.429688 L 9.027344 -11.703125 Z M 1.359375 -11.703125 "/></g></g></g><g fill="#423e3e" fill-opacity="1"><g transform="translate(58.934878, 168.054492)"><g/></g></g><g fill="#423e3e" fill-opacity="1"><g transform="translate(62.686228, 168.054492)"><g><path d="M 10.957031 0 L 8.996094 -2.242188 C 9.667969 -3.167969 10.191406 -4.320312 10.492188 -5.648438 L 8.519531 -6.113281 C 8.292969 -5.261719 7.964844 -4.484375 7.578125 -3.855469 L 5.886719 -5.785156 L 6.589844 -6.203125 C 7.742188 -6.890625 8.21875 -7.726562 8.21875 -8.816406 C 8.21875 -10.535156 6.605469 -11.898438 4.8125 -11.898438 C 2.839844 -11.898438 1.417969 -10.433594 1.417969 -8.742188 C 1.417969 -8.144531 1.6875 -7.324219 2.300781 -6.652344 L 2.75 -6.15625 C 1.628906 -5.425781 0.65625 -4.4375 0.65625 -3.078125 C 0.65625 -0.820312 2.496094 0.164062 4.453125 0.164062 C 5.558594 0.164062 6.574219 -0.164062 7.441406 -0.746094 L 8.101562 0 Z M 4.855469 -9.789062 C 5.53125 -9.789062 6.023438 -9.265625 6.023438 -8.742188 C 6.023438 -8.339844 5.859375 -8.011719 5.457031 -7.773438 L 4.601562 -7.261719 L 4.109375 -7.816406 C 3.722656 -8.25 3.675781 -8.472656 3.675781 -8.742188 C 3.675781 -9.265625 4.15625 -9.789062 4.855469 -9.789062 Z M 4.617188 -1.929688 C 3.945312 -1.929688 3.003906 -2.210938 3.003906 -3.304688 C 3.003906 -3.855469 3.46875 -4.320312 4.035156 -4.679688 L 6.082031 -2.332031 C 5.632812 -2.0625 5.140625 -1.929688 4.617188 -1.929688 Z M 4.617188 -1.929688 "/></g></g></g><g fill="#423e3e" fill-opacity="1"><g transform="translate(73.895455, 168.054492)"><g/></g></g><g fill="#423e3e" fill-opacity="1"><g transform="translate(77.646805, 168.054492)"><g><path d="M 2.421875 0 L 3.289062 -2.363281 L 8.472656 -2.363281 L 9.355469 0 L 11.851562 0 L 7.367188 -11.703125 L 4.453125 -11.703125 L -0.015625 0 Z M 5.886719 -9.355469 L 7.652344 -4.601562 L 4.125 -4.601562 Z M 5.886719 -9.355469 "/></g></g></g><g fill="#423e3e" fill-opacity="1"><g transform="translate(89.483747, 168.054492)"><g><path d="M 10.355469 0 L 7.710938 -4.574219 C 9.296875 -5.140625 10.117188 -6.320312 10.117188 -7.996094 C 10.117188 -10.476562 8.25 -11.703125 5.976562 -11.703125 L 1.359375 -11.703125 L 1.359375 0 L 3.78125 0 L 3.78125 -4.199219 L 5.246094 -4.199219 L 7.667969 0 Z M 5.800781 -6.441406 L 3.78125 -6.441406 L 3.78125 -9.414062 L 5.785156 -9.414062 C 6.695312 -9.414062 7.667969 -9.070312 7.667969 -7.949219 C 7.667969 -6.84375 6.695312 -6.441406 5.800781 -6.441406 Z M 5.800781 -6.441406 "/></g></g></g><g fill="#423e3e" fill-opacity="1"><g transform="translate(100.409004, 168.054492)"><g><path d="M 1.359375 -11.703125 L 1.359375 0 L 9.058594 0 L 9.058594 -2.257812 L 3.75 -2.257812 L 3.75 -4.78125 L 8.472656 -4.78125 L 8.472656 -7.054688 L 3.75 -7.054688 L 3.75 -9.429688 L 9.027344 -9.429688 L 9.027344 -11.703125 Z M 1.359375 -11.703125 "/></g></g></g><g fill="#423e3e" fill-opacity="1"><g transform="translate(110.317967, 168.054492)"><g><path d="M 2.421875 0 L 3.289062 -2.363281 L 8.472656 -2.363281 L 9.355469 0 L 11.851562 0 L 7.367188 -11.703125 L 4.453125 -11.703125 L -0.015625 0 Z M 5.886719 -9.355469 L 7.652344 -4.601562 L 4.125 -4.601562 Z M 5.886719 -9.355469 "/></g></g></g><g fill="#423e3e" fill-opacity="1"><g transform="translate(122.154908, 168.054492)"><g/></g></g><g fill="#423e3e" fill-opacity="1"><g transform="translate(125.906259, 168.054492)"><g><path d="M 0.644531 -5.84375 C 0.644531 -2.4375 3.257812 0.164062 6.664062 0.164062 C 8.96875 0.164062 11.253906 -1.105469 12.0625 -3.316406 L 9.835938 -4.347656 C 9.324219 -3.078125 8.160156 -2.183594 6.695312 -2.183594 C 4.617188 -2.183594 3.152344 -3.839844 3.152344 -5.875 C 3.152344 -7.875 4.664062 -9.519531 6.695312 -9.519531 C 8.160156 -9.519531 9.3125 -8.699219 9.804688 -7.414062 L 12.015625 -8.429688 C 11.222656 -10.625 9.011719 -11.882812 6.710938 -11.882812 C 3.363281 -11.882812 0.644531 -9.222656 0.644531 -5.84375 Z M 0.644531 -5.84375 "/></g></g></g><g fill="#423e3e" fill-opacity="1"><g transform="translate(138.341029, 168.054492)"><g><path d="M 3.78125 -4.738281 L 8.683594 -4.738281 L 8.683594 0 L 11.105469 0 L 11.105469 -11.703125 L 8.683594 -11.703125 L 8.683594 -7.085938 L 3.78125 -7.085938 L 3.78125 -11.703125 L 1.359375 -11.703125 L 1.359375 0 L 3.78125 0 Z M 3.78125 -4.738281 "/></g></g></g><g fill="#423e3e" fill-opacity="1"><g transform="translate(150.805685, 168.054492)"><g><path d="M 2.421875 0 L 3.289062 -2.363281 L 8.472656 -2.363281 L 9.355469 0 L 11.851562 0 L 7.367188 -11.703125 L 4.453125 -11.703125 L -0.015625 0 Z M 5.886719 -9.355469 L 7.652344 -4.601562 L 4.125 -4.601562 Z M 5.886719 -9.355469 "/></g></g></g><g fill="#423e3e" fill-opacity="1"><g transform="translate(162.642627, 168.054492)"><g><path d="M 10.355469 0 L 7.710938 -4.574219 C 9.296875 -5.140625 10.117188 -6.320312 10.117188 -7.996094 C 10.117188 -10.476562 8.25 -11.703125 5.976562 -11.703125 L 1.359375 -11.703125 L 1.359375 0 L 3.78125 0 L 3.78125 -4.199219 L 5.246094 -4.199219 L 7.667969 0 Z M 5.800781 -6.441406 L 3.78125 -6.441406 L 3.78125 -9.414062 L 5.785156 -9.414062 C 6.695312 -9.414062 7.667969 -9.070312 7.667969 -7.949219 C 7.667969 -6.84375 6.695312 -6.441406 5.800781 -6.441406 Z M 5.800781 -6.441406 "/></g></g></g><g fill="#423e3e" fill-opacity="1"><g transform="translate(173.567884, 168.054492)"><g><path d="M 3.824219 0 L 6.230469 0 L 6.230469 -9.355469 L 9.746094 -9.355469 L 9.746094 -11.703125 L 0.3125 -11.703125 L 0.3125 -9.355469 L 3.824219 -9.355469 Z M 3.824219 0 "/></g></g></g><path stroke-linecap="butt" transform="matrix(-0.747283, 0, 0, -0.747283, 153.049895, 128.166301)" fill="none" stroke-linejoin="miter" d="M -0.00118606 1.999814 L 137.188592 1.999814 " stroke="#000000" stroke-width="4" stroke-opacity="1" stroke-miterlimit="4"/><path stroke-linecap="butt" transform="matrix(0.00000000130425, -0.747283, 0.747283, 0.00000000130425, 50.60408, 125.775683)" fill="none" stroke-linejoin="miter" d="M -0.00222198 1.998677 L 137.187556 1.998677 " stroke="#000000" stroke-width="4" stroke-opacity="1" stroke-miterlimit="4"/><path stroke-linecap="butt" transform="matrix(0.459968, -0.588948, 0.588948, 0.459968, 56.276012, 119.824971)" fill="none" stroke-linejoin="miter" d="M -0.00189675 2.00015 L 76.676968 1.999589 " stroke="#0ab1f0" stroke-width="4" stroke-opacity="1" stroke-miterlimit="4"/><path stroke-linecap="butt" transform="matrix(0.54585, 0.510371, -0.510371, 0.54585, 92.24459, 74.560948)" fill="none" stroke-linejoin="miter" d="M -0.00144344 2.000791 L 44.115911 1.999695 " stroke="#0ab1f0" stroke-width="4" stroke-opacity="1" stroke-miterlimit="4"/><path stroke-linecap="butt" transform="matrix(0.459968, -0.588948, 0.588948, 0.459968, 113.015951, 96.279957)" fill="none" stroke-linejoin="miter" d="M 0.00191812 2.000988 L 76.680783 2.000426 " stroke="#0ab1f0" stroke-width="4" stroke-opacity="1" stroke-miterlimit="4"/><path stroke-linecap="butt" transform="matrix(0.747283, 0, 0, 0.747283, 56.219575, 61.242158)" fill="none" stroke-linejoin="miter" d="M -0.00110377 2.002085 L 70.844126 2.002085 " stroke="#00517d" stroke-width="4" stroke-opacity="1" stroke-miterlimit="4"/><path stroke-linecap="butt" transform="matrix(0.557205, 0.497949, -0.497949, 0.557205, 108.843664, 61.230926)" fill="none" stroke-linejoin="miter" d="M -0.00152353 1.998514 L 75.509383 2.000243 " stroke="#00517d" stroke-width="4" stroke-opacity="1" stroke-miterlimit="4"/><path stroke-linecap="butt" transform="matrix(-0.557205, -0.497949, 0.497949, -0.557205, 98.287421, 119.170698)" fill="none" stroke-linejoin="miter" d="M -0.000406743 2.003234 L 75.514397 2.00148 " stroke="#6bd3fa" stroke-width="4" stroke-opacity="1" stroke-miterlimit="4"/><path stroke-linecap="butt" transform="matrix(-0.647166, 0.373641, -0.373641, -0.647166, 131.079261, 100.756603)" fill="none" stroke-linejoin="miter" d="M -0.000953699 2.001511 L 50.380623 2.002157 " stroke="#6bd3fa" stroke-width="4" stroke-opacity="1" stroke-miterlimit="4"/></svg>