<svg xmlns="http://www.w3.org/2000/svg" xmlns:xlink="http://www.w3.org/1999/xlink" width="275" zoomAndPan="magnify" viewBox="0 0 206.25 187.499992" height="250" preserveAspectRatio="xMidYMid meet" version="1.0"><defs><g/><clipPath id="cbc64e0ca8"><path d="M 6.664062 12.585938 L 198.839844 12.585938 L 198.839844 151.675781 L 6.664062 151.675781 Z M 6.664062 12.585938 " clip-rule="nonzero"/></clipPath><clipPath id="448b885c09"><path d="M 71.988281 155.351562 L 133.515625 155.351562 L 133.515625 179.699219 L 71.988281 179.699219 Z M 71.988281 155.351562 " clip-rule="nonzero"/></clipPath><clipPath id="317cae374a"><path d="M 43.597656 34.511719 L 161.90625 34.511719 L 161.90625 47.265625 L 43.597656 47.265625 Z M 43.597656 34.511719 " clip-rule="nonzero"/></clipPath><clipPath id="d7b316a417"><path d="M 63.96875 56.144531 L 161.90625 56.144531 L 161.90625 67.886719 L 63.96875 67.886719 Z M 63.96875 56.144531 " clip-rule="nonzero"/></clipPath><clipPath id="89230c990d"><path d="M 63.96875 76.765625 L 161.90625 76.765625 L 161.90625 88.507812 L 63.96875 88.507812 Z M 63.96875 76.765625 " clip-rule="nonzero"/></clipPath><clipPath id="5fcb17bf35"><path d="M 63.96875 97.386719 L 161.90625 97.386719 L 161.90625 109.128906 L 63.96875 109.128906 Z M 63.96875 97.386719 " clip-rule="nonzero"/></clipPath><clipPath id="ff6c58424b"><path d="M 63.96875 118.011719 L 161.90625 118.011719 L 161.90625 129.75 L 63.96875 129.75 Z M 63.96875 118.011719 " clip-rule="nonzero"/></clipPath><clipPath id="1bfabc423a"><path d="M 43.597656 56.144531 L 53.957031 56.144531 L 53.957031 67.886719 L 43.597656 67.886719 Z M 43.597656 56.144531 " clip-rule="nonzero"/></clipPath><clipPath id="85cd3e5c8b"><path d="M 44.335938 76.765625 L 54.695312 76.765625 L 54.695312 88.507812 L 44.335938 88.507812 Z M 44.335938 76.765625 " clip-rule="nonzero"/></clipPath><clipPath id="b2a4c6d54c"><path d="M 43.96875 97.386719 L 54.328125 97.386719 L 54.328125 109.128906 L 43.96875 109.128906 Z M 43.96875 97.386719 " clip-rule="nonzero"/></clipPath><clipPath id="60dc17e957"><path d="M 44.707031 118.011719 L 55.066406 118.011719 L 55.066406 129.75 L 44.707031 129.75 Z M 44.707031 118.011719 " clip-rule="nonzero"/></clipPath></defs><g clip-path="url(#cbc64e0ca8)"><path fill="#ececec" d="M 6.664062 12.585938 L 198.839844 12.585938 L 198.839844 151.675781 L 6.664062 151.675781 Z M 6.664062 12.585938 " fill-opacity="1" fill-rule="nonzero"/></g><g clip-path="url(#448b885c09)"><path fill="#ffffff" d="M 71.988281 155.351562 L 133.515625 155.351562 L 133.515625 179.699219 L 71.988281 179.699219 Z M 71.988281 155.351562 " fill-opacity="1" fill-rule="nonzero"/></g><g fill="#423e3e" fill-opacity="1"><g transform="translate(80.099352, 174.281853)"><g><path d="M 1.8125 -15.597656 L 1.8125 0 L 11.695312 0 L 11.695312 -3.066406 L 5.019531 -3.066406 L 5.019531 -15.597656 Z M 1.8125 -15.597656 "/></g></g></g><g fill="#423e3e" fill-opacity="1"><g transform="translate(92.130834, 174.281853)"><g><path d="M 5.039062 -15.597656 L 1.8125 -15.597656 L 1.8125 0 L 5.039062 0 Z M 5.039062 -15.597656 "/></g></g></g><g fill="#423e3e" fill-opacity="1"><g transform="translate(99.003118, 174.281853)"><g><path d="M 4.222656 -11.335938 C 4.222656 -12.253906 5 -12.929688 6.296875 -12.929688 C 7.628906 -12.929688 8.726562 -12.273438 9.242188 -11.015625 L 11.914062 -12.472656 C 11.015625 -14.601562 9.042969 -15.839844 6.433594 -15.839844 C 3.488281 -15.839844 0.996094 -13.925781 0.996094 -11.136719 C 0.996094 -9.941406 1.472656 -8.945312 2.191406 -8.246094 C 3.027344 -7.410156 4.324219 -6.851562 5.996094 -6.355469 C 8.269531 -5.679688 8.945312 -5.257812 8.945312 -4.34375 C 8.945312 -3.386719 7.96875 -2.691406 6.574219 -2.691406 C 5 -2.691406 3.765625 -3.507812 3.167969 -4.859375 L 0.378906 -3.425781 C 1.296875 -1.195312 3.527344 0.238281 6.476562 0.238281 C 10.160156 0.238281 12.191406 -1.832031 12.191406 -4.582031 C 12.191406 -7.210938 10.199219 -8.425781 6.734375 -9.421875 C 5.058594 -9.902344 4.222656 -10.359375 4.222656 -11.335938 Z M 4.222656 -11.335938 "/></g></g></g><g fill="#423e3e" fill-opacity="1"><g transform="translate(111.990745, 174.281853)"><g><path d="M 5.101562 0 L 8.308594 0 L 8.308594 -12.472656 L 12.988281 -12.472656 L 12.988281 -15.597656 L 0.417969 -15.597656 L 0.417969 -12.472656 L 5.101562 -12.472656 Z M 5.101562 0 "/></g></g></g><g clip-path="url(#317cae374a)"><path fill="#625e5e" d="M 43.597656 34.511719 L 161.90625 34.511719 L 161.90625 47.265625 L 43.597656 47.265625 Z M 43.597656 34.511719 " fill-opacity="1" fill-rule="nonzero"/></g><g clip-path="url(#d7b316a417)"><path fill="#a6a6a6" d="M 63.96875 56.144531 L 161.90625 56.144531 L 161.90625 67.886719 L 63.96875 67.886719 Z M 63.96875 56.144531 " fill-opacity="1" fill-rule="nonzero"/></g><g clip-path="url(#89230c990d)"><path fill="#8f8f8f" d="M 63.96875 76.765625 L 161.90625 76.765625 L 161.90625 88.507812 L 63.96875 88.507812 Z M 63.96875 76.765625 " fill-opacity="1" fill-rule="nonzero"/></g><g clip-path="url(#5fcb17bf35)"><path fill="#7b7b7b" d="M 63.96875 97.386719 L 161.90625 97.386719 L 161.90625 109.128906 L 63.96875 109.128906 Z M 63.96875 97.386719 " fill-opacity="1" fill-rule="nonzero"/></g><g clip-path="url(#ff6c58424b)"><path fill="#7b7b7b" d="M 63.96875 118.011719 L 161.90625 118.011719 L 161.90625 129.75 L 63.96875 129.75 Z M 63.96875 118.011719 " fill-opacity="1" fill-rule="nonzero"/></g><g clip-path="url(#1bfabc423a)"><path fill="#7b7b7b" d="M 43.597656 56.144531 L 53.957031 56.144531 L 53.957031 67.886719 L 43.597656 67.886719 Z M 43.597656 56.144531 " fill-opacity="1" fill-rule="nonzero"/></g><g clip-path="url(#85cd3e5c8b)"><path fill="#423e3e" d="M 44.335938 76.765625 L 54.695312 76.765625 L 54.695312 88.507812 L 44.335938 88.507812 Z M 44.335938 76.765625 " fill-opacity="1" fill-rule="nonzero"/></g><g clip-path="url(#b2a4c6d54c)"><path fill="#625e5e" d="M 43.96875 97.386719 L 54.328125 97.386719 L 54.328125 109.128906 L 43.96875 109.128906 Z M 43.96875 97.386719 " fill-opacity="1" fill-rule="nonzero"/></g><g clip-path="url(#60dc17e957)"><path fill="#423e3e" d="M 44.707031 118.011719 L 55.066406 118.011719 L 55.066406 129.75 L 44.707031 129.75 Z M 44.707031 118.011719 " fill-opacity="1" fill-rule="nonzero"/></g></svg>