<svg xmlns="http://www.w3.org/2000/svg" xmlns:xlink="http://www.w3.org/1999/xlink" width="300" zoomAndPan="magnify" viewBox="0 0 224.87999 168.749997" height="225" preserveAspectRatio="xMidYMid meet" version="1.0"><defs><g/><clipPath id="15b27a805b"><path d="M 5.984375 6.058594 L 219.1875 6.058594 L 219.1875 162.441406 L 5.984375 162.441406 Z M 5.984375 6.058594 " clip-rule="nonzero"/></clipPath><clipPath id="02e0762d30"><path d="M 56.199219 23.703125 L 169.347656 23.703125 L 169.347656 35.898438 L 56.199219 35.898438 Z M 56.199219 23.703125 " clip-rule="nonzero"/></clipPath><clipPath id="338dab6140"><path d="M 75.679688 44.390625 L 169.347656 44.390625 L 169.347656 55.621094 L 75.679688 55.621094 Z M 75.679688 44.390625 " clip-rule="nonzero"/></clipPath><clipPath id="217dcf1455"><path d="M 75.679688 64.113281 L 169.347656 64.113281 L 169.347656 75.339844 L 75.679688 75.339844 Z M 75.679688 64.113281 " clip-rule="nonzero"/></clipPath><clipPath id="daa3ed561a"><path d="M 75.679688 83.835938 L 169.347656 83.835938 L 169.347656 95.0625 L 75.679688 95.0625 Z M 75.679688 83.835938 " clip-rule="nonzero"/></clipPath><clipPath id="1b0797a804"><path d="M 75.679688 103.558594 L 169.347656 103.558594 L 169.347656 114.785156 L 75.679688 114.785156 Z M 75.679688 103.558594 " clip-rule="nonzero"/></clipPath><clipPath id="9713bc860a"><path d="M 56.199219 44.390625 L 66.105469 44.390625 L 66.105469 55.621094 L 56.199219 55.621094 Z M 56.199219 44.390625 " clip-rule="nonzero"/></clipPath><clipPath id="e4c28adc20"><path d="M 56.90625 64.113281 L 66.8125 64.113281 L 66.8125 75.339844 L 56.90625 75.339844 Z M 56.90625 64.113281 " clip-rule="nonzero"/></clipPath><clipPath id="e6bfe47fae"><path d="M 56.550781 83.835938 L 66.460938 83.835938 L 66.460938 95.0625 L 56.550781 95.0625 Z M 56.550781 83.835938 " clip-rule="nonzero"/></clipPath><clipPath id="29a3fdd37e"><path d="M 57.257812 103.558594 L 67.167969 103.558594 L 67.167969 114.785156 L 57.257812 114.785156 Z M 57.257812 103.558594 " clip-rule="nonzero"/></clipPath></defs><g clip-path="url(#15b27a805b)"><path fill="#ececec" d="M 5.984375 6.058594 L 219.179688 6.058594 L 219.179688 162.441406 L 5.984375 162.441406 Z M 5.984375 6.058594 " fill-opacity="1" fill-rule="nonzero"/></g><g clip-path="url(#02e0762d30)"><path fill="#625e5e" d="M 56.199219 23.703125 L 169.34375 23.703125 L 169.34375 35.898438 L 56.199219 35.898438 Z M 56.199219 23.703125 " fill-opacity="1" fill-rule="nonzero"/></g><g clip-path="url(#338dab6140)"><path fill="#a6a6a6" d="M 75.679688 44.390625 L 169.359375 44.390625 L 169.359375 55.621094 L 75.679688 55.621094 Z M 75.679688 44.390625 " fill-opacity="1" fill-rule="nonzero"/></g><g clip-path="url(#217dcf1455)"><path fill="#8f8f8f" d="M 75.679688 64.113281 L 169.359375 64.113281 L 169.359375 75.339844 L 75.679688 75.339844 Z M 75.679688 64.113281 " fill-opacity="1" fill-rule="nonzero"/></g><g clip-path="url(#daa3ed561a)"><path fill="#7b7b7b" d="M 75.679688 83.835938 L 169.359375 83.835938 L 169.359375 95.0625 L 75.679688 95.0625 Z M 75.679688 83.835938 " fill-opacity="1" fill-rule="nonzero"/></g><g clip-path="url(#1b0797a804)"><path fill="#7b7b7b" d="M 75.679688 103.558594 L 169.359375 103.558594 L 169.359375 114.785156 L 75.679688 114.785156 Z M 75.679688 103.558594 " fill-opacity="1" fill-rule="nonzero"/></g><g clip-path="url(#9713bc860a)"><path fill="#7b7b7b" d="M 56.199219 44.390625 L 66.105469 44.390625 L 66.105469 55.617188 L 56.199219 55.617188 Z M 56.199219 44.390625 " fill-opacity="1" fill-rule="nonzero"/></g><g clip-path="url(#e4c28adc20)"><path fill="#423e3e" d="M 56.90625 64.113281 L 66.8125 64.113281 L 66.8125 75.335938 L 56.90625 75.335938 Z M 56.90625 64.113281 " fill-opacity="1" fill-rule="nonzero"/></g><g clip-path="url(#e6bfe47fae)"><path fill="#625e5e" d="M 56.550781 83.835938 L 66.460938 83.835938 L 66.460938 95.058594 L 56.550781 95.058594 Z M 56.550781 83.835938 " fill-opacity="1" fill-rule="nonzero"/></g><g clip-path="url(#29a3fdd37e)"><path fill="#423e3e" d="M 57.257812 103.558594 L 67.167969 103.558594 L 67.167969 114.78125 L 57.257812 114.78125 Z M 57.257812 103.558594 " fill-opacity="1" fill-rule="nonzero"/></g><g fill="#423e3e" fill-opacity="1"><g transform="translate(90.870044, 145.878556)"><g><path d="M 1.71875 -14.859375 L 4.78125 -14.859375 L 4.78125 -2.921875 L 11.140625 -2.921875 L 11.140625 0 L 1.71875 0 Z M 1.71875 -14.859375 "/></g></g></g><g fill="#423e3e" fill-opacity="1"><g transform="translate(102.326722, 145.878556)"><g><path d="M 4.796875 -14.859375 L 4.796875 0 L 1.71875 0 L 1.71875 -14.859375 Z M 4.796875 -14.859375 "/></g></g></g><g fill="#423e3e" fill-opacity="1"><g transform="translate(108.870692, 145.878556)"><g><path d="M 4.015625 -10.796875 C 4.015625 -10.328125 4.210938 -9.960938 4.609375 -9.703125 C 5.015625 -9.441406 5.613281 -9.195312 6.40625 -8.96875 C 7.507812 -8.65625 8.445312 -8.300781 9.21875 -7.90625 C 10 -7.519531 10.59375 -7.039062 11 -6.46875 C 11.40625 -5.894531 11.609375 -5.191406 11.609375 -4.359375 C 11.609375 -3.484375 11.398438 -2.703125 10.984375 -2.015625 C 10.566406 -1.328125 9.953125 -0.78125 9.140625 -0.375 C 8.328125 0.03125 7.335938 0.234375 6.171875 0.234375 C 4.765625 0.234375 3.554688 -0.0820312 2.546875 -0.71875 C 1.535156 -1.351562 0.804688 -2.203125 0.359375 -3.265625 L 3.015625 -4.625 C 3.304688 -3.976562 3.734375 -3.472656 4.296875 -3.109375 C 4.859375 -2.742188 5.515625 -2.5625 6.265625 -2.5625 C 6.929688 -2.5625 7.472656 -2.707031 7.890625 -3 C 8.304688 -3.300781 8.515625 -3.679688 8.515625 -4.140625 C 8.515625 -4.429688 8.429688 -4.679688 8.265625 -4.890625 C 8.109375 -5.097656 7.820312 -5.289062 7.40625 -5.46875 C 7 -5.644531 6.429688 -5.835938 5.703125 -6.046875 C 4.910156 -6.285156 4.207031 -6.546875 3.59375 -6.828125 C 2.988281 -7.117188 2.488281 -7.460938 2.09375 -7.859375 C 1.75 -8.179688 1.472656 -8.578125 1.265625 -9.046875 C 1.054688 -9.515625 0.953125 -10.035156 0.953125 -10.609375 C 0.953125 -11.492188 1.1875 -12.269531 1.65625 -12.9375 C 2.132812 -13.601562 2.765625 -14.125 3.546875 -14.5 C 4.328125 -14.882812 5.1875 -15.078125 6.125 -15.078125 C 7.363281 -15.078125 8.4375 -14.796875 9.34375 -14.234375 C 10.25 -13.671875 10.914062 -12.882812 11.34375 -11.875 L 8.796875 -10.484375 C 8.554688 -11.078125 8.1875 -11.53125 7.6875 -11.84375 C 7.1875 -12.15625 6.625 -12.3125 6 -12.3125 C 5.375 -12.3125 4.882812 -12.164062 4.53125 -11.875 C 4.1875 -11.59375 4.015625 -11.234375 4.015625 -10.796875 Z M 4.015625 -10.796875 "/></g></g></g><g fill="#423e3e" fill-opacity="1"><g transform="translate(121.237841, 145.878556)"><g><path d="M 4.859375 0 L 4.859375 -11.875 L 0.390625 -11.875 L 0.390625 -14.859375 L 12.375 -14.859375 L 12.375 -11.875 L 7.90625 -11.875 L 7.90625 0 Z M 4.859375 0 "/></g></g></g></svg>