<?xml version="1.0" encoding="UTF-8"?>
<svg id="Layer_1" data-name="Layer 1" xmlns="http://www.w3.org/2000/svg" xmlns:xlink="http://www.w3.org/1999/xlink" viewBox="0 0 275 250">
  <defs>
    <style>
      .cls-1 {
        fill: url(#linear-gradient);
      }

      .cls-1, .cls-2, .cls-3, .cls-4, .cls-5, .cls-6 {
        stroke-width: 0px;
      }

      .cls-2 {
        fill: #000936;
      }

      .cls-7 {
        fill: none;
        stroke: #0ab1f0;
        stroke-linecap: round;
        stroke-linejoin: round;
        stroke-width: 2px;
      }

      .cls-3 {
        fill: #00517d;
      }

      .cls-4 {
        fill: #0078d4;
      }

      .cls-5 {
        fill: url(#linear-gradient-2);
      }

      .cls-6 {
        fill: #fff;
      }
    </style>
    <linearGradient id="linear-gradient" x1="166.4" y1="1251.83" x2="173.59" y2="1258.99" gradientTransform="translate(0 -1138)" gradientUnits="userSpaceOnUse">
      <stop offset="0" stop-color="#00aeef"/>
      <stop offset=".86" stop-color="#2892df"/>
    </linearGradient>
    <linearGradient id="linear-gradient-2" x1="181.71" y1="1263.14" x2="192.5" y2="1263.14" gradientTransform="translate(0 -1138)" gradientUnits="userSpaceOnUse">
      <stop offset="0" stop-color="#013f61"/>
      <stop offset="1" stop-color="#00517d"/>
    </linearGradient>
  </defs>
  <g>
    <g>
      <path class="cls-2" d="M192.5,85c0,8.5-1.93,16.54-5.37,23.72-2.94-1.93-6.46-3.05-10.24-3.05-10.34,0-18.72,8.39-18.72,18.72,0,3.78,1.12,7.29,3.05,10.24-7.18,3.44-15.23,5.37-23.72,5.37-30.37,0-55-24.62-55-55s24.63-55,55-55,55,24.62,55,55Z"/>
      <g>
        <path class="cls-6" d="M130.24,71.41l-2.4,2.29c-.93-1.23-2.25-2.25-3.97-3.07-1.71-.82-3.52-1.23-5.42-1.23-2.53,0-4.57.54-6.12,1.62-1.55,1.08-2.32,2.52-2.32,4.3,0,.78.2,1.51.61,2.18.41.67.91,1.23,1.51,1.68.6.45,1.43.88,2.49,1.31,1.06.43,2,.77,2.82,1.03.82.26,1.88.59,3.19.98,1.3.39,2.31.7,3.02.92,2.2.71,3.99,1.8,5.36,3.27,1.38,1.47,2.07,3.25,2.07,5.34,0,2.83-.97,5.15-2.91,6.96-1.94,1.81-4.58,2.86-7.94,3.16v4.53h-3.02v-4.53c-5.33-.3-9.3-2.24-11.9-5.81l2.4-2.24c2.68,3.32,6.26,4.97,10.73,4.97,2.79,0,5.01-.61,6.65-1.82,1.64-1.21,2.46-2.84,2.46-4.89,0-1.08-.25-2.03-.75-2.85s-1.24-1.5-2.21-2.04c-.97-.54-1.96-1.01-2.96-1.4-1.01-.39-2.22-.81-3.63-1.26-.41-.11-.73-.2-.95-.28-1.3-.37-2.36-.71-3.16-1.01-.8-.3-1.72-.71-2.77-1.23-1.04-.52-1.85-1.07-2.43-1.65-.58-.58-1.08-1.31-1.51-2.21-.43-.89-.64-1.9-.64-3.02,0-2.57.97-4.68,2.91-6.34,1.94-1.66,4.53-2.58,7.77-2.77v-4.53h3.02v4.53c2.2.22,4.19.79,5.98,1.7s3.13,2.04,4.02,3.38Z"/>
        <path class="cls-6" d="M170.58,69.84l-2.07,2.46c-2.98-2.31-6.41-3.46-10.28-3.46-3.09,0-5.89.91-8.38,2.74-2.5,1.83-4.27,4.21-5.31,7.15h18.16l-.73,2.57h-18.16c-.19,1.19-.28,2.2-.28,3.02s.07,1.81.22,2.85h16.76l-.78,2.57h-15.26c1.04,2.98,2.84,5.37,5.39,7.18,2.55,1.81,5.45,2.71,8.69,2.71,4.06,0,7.4-1.12,10-3.35l2.01,2.29c-3.2,2.79-7.27,4.19-12.18,4.19-4.13,0-7.8-1.21-11.01-3.63-3.2-2.42-5.36-5.55-6.48-9.39h-4.3l.73-2.57h3.02c-.15-.74-.22-1.69-.22-2.85,0-1.23.07-2.24.22-3.02h-3.74l.73-2.57h3.63c1.19-3.84,3.35-6.97,6.48-9.39,3.2-2.42,6.78-3.63,10.73-3.63,4.84,0,8.98,1.38,12.41,4.13Z"/>
      </g>
    </g>
    <g>
      <path class="cls-1" d="M184.97,111.04c-2.35-1.42-5.11-2.25-8.07-2.25-8.62,0-15.6,6.99-15.6,15.6,0,2.75.71,5.34,1.97,7.59l21.71-20.94Z"/>
      <path class="cls-5" d="M181.71,114.18l3.26-3.14c4.52,2.73,7.54,7.69,7.54,13.36,0,6.94-4.53,12.82-10.79,14.85v-25.06Z"/>
      <path class="cls-4" d="M181.71,114.18l-18.45,17.8c2.67,4.78,7.77,8.02,13.64,8.02,1.68,0,3.3-.27,4.81-.76v-25.06Z"/>
      <path class="cls-6" d="M178.04,117.72v3.33h0c-.59-1.06-1.65-1.59-3.16-1.59-1.59,0-2.88.58-3.86,1.73-.98,1.15-1.48,2.69-1.48,4.6s.45,3.26,1.34,4.28c.89,1.02,2.07,1.53,3.53,1.53,1.59,0,2.8-.63,3.62-1.88h.05v1.59h3.61v-17.14l-3.67,3.54h0ZM178.16,125.69c0,.96-.23,1.73-.69,2.31-.46.58-1.06.87-1.79.87-.77,0-1.37-.27-1.81-.82-.43-.55-.65-1.33-.65-2.35,0-1.09.22-1.94.67-2.56.45-.62,1.08-.93,1.88-.93.71,0,1.28.25,1.73.75.44.5.66,1.12.66,1.88v.87Z"/>
    </g>
  </g>
  <g>
    <path class="cls-3" d="M109.85,167.8l-2.16,2.47c-1.16-1-2.49-1.51-3.98-1.51s-2.63.53-3.61,1.59c-1.01,1.06-1.51,2.35-1.51,3.87s.51,2.77,1.53,3.85c1,1.06,2.27,1.59,3.8,1.59s2.82-.5,3.77-1.51l2.16,2.39c-1.46,1.58-3.51,2.37-6.16,2.37-2.41,0-4.44-.85-6.08-2.55-1.65-1.7-2.47-3.74-2.47-6.14s.84-4.48,2.52-6.16c1.66-1.7,3.67-2.55,6.03-2.55,2.58,0,4.64.76,6.16,2.29Z"/>
    <path class="cls-3" d="M114.09,168.06c1.7-1.7,3.73-2.55,6.08-2.55s4.41.85,6.11,2.55c1.68,1.7,2.52,3.75,2.52,6.16s-.84,4.46-2.52,6.14c-1.7,1.7-3.74,2.55-6.11,2.55s-4.39-.85-6.08-2.55c-1.68-1.68-2.52-3.73-2.52-6.14s.84-4.48,2.52-6.16ZM120.17,179.65c1.44,0,2.66-.53,3.67-1.59,1-1.06,1.51-2.34,1.51-3.85s-.5-2.82-1.51-3.87c-1.01-1.06-2.23-1.59-3.67-1.59s-2.63.53-3.64,1.59c-1.01,1.06-1.51,2.35-1.51,3.87s.5,2.77,1.51,3.82c1.02,1.08,2.24,1.61,3.64,1.61Z"/>
    <path class="cls-3" d="M143.49,168.32l-2.24,2.21c-.38-.57-.93-1.04-1.64-1.4-.71-.36-1.46-.55-2.26-.55s-1.37.15-1.81.46-.66.71-.66,1.21c0,.47.22.87.65,1.2s.98.58,1.62.77c.65.18,1.35.42,2.11.7.75.29,1.46.6,2.11.94.65.34,1.19.84,1.62,1.51.43.67.65,1.46.65,2.38,0,1.53-.58,2.76-1.74,3.72-1.18.97-2.72,1.46-4.63,1.46-3.02,0-5.18-1-6.5-2.99l2.31-2.16c1.04,1.39,2.45,2.08,4.24,2.08.9,0,1.6-.17,2.09-.51s.74-.81.74-1.42c0-.35-.11-.66-.32-.94-.22-.28-.54-.52-.98-.74-.43-.22-.85-.4-1.26-.56-.41-.16-.93-.34-1.57-.55-.64-.21-1.15-.39-1.53-.55-.92-.36-1.66-.91-2.24-1.62-.57-.72-.86-1.59-.86-2.61,0-1.4.57-2.56,1.72-3.48,1.11-.9,2.57-1.35,4.37-1.35,1.3,0,2.48.25,3.54.75,1.06.5,1.88,1.19,2.47,2.05Z"/>
    <path class="cls-3" d="M158.05,165.87v3.04h-4.97v13.62h-3.25v-13.62h-4.94v-3.04h13.16Z"/>
    <path class="cls-3" d="M171.83,165.51c.97,0,1.84.2,2.6.61.76.41,1.36.96,1.79,1.65l-2.18,2.13c-.5-.94-1.26-1.4-2.26-1.4-.55,0-1.01.17-1.35.49-.35.33-.52.74-.52,1.22,0,.71.39,1.4,1.17,2.08l4.76,4.11,1.79-2.26,2.34,1.77-1.9,2.42,2.52,2.18-1.87,2.39-2.6-2.26c-1.54,1.51-3.3,2.26-5.28,2.26-1.54,0-2.84-.51-3.9-1.53-1.06-1-1.59-2.28-1.59-3.82,0-1.82.76-3.34,2.29-4.55-.62-.85-.94-1.8-.94-2.86,0-1.33.48-2.44,1.46-3.33.97-.87,2.19-1.3,3.67-1.3ZM171.05,179.91c1.07,0,2.04-.4,2.89-1.2l-4.26-3.72c-.76.62-1.14,1.4-1.14,2.31,0,.75.24,1.36.73,1.86s1.08.74,1.79.74Z"/>
    <path class="cls-3" d="M99.79,214.54h-7.07v-16.67h6.68c1.56,0,2.88.43,3.95,1.3,1.04.85,1.56,1.96,1.56,3.33,0,.83-.23,1.55-.7,2.15-.47.6-1.07,1.04-1.79,1.34.9.26,1.62.73,2.16,1.4.54.68.81,1.5.81,2.47,0,1.32-.49,2.43-1.48,3.33-1.01.9-2.38,1.35-4.11,1.35ZM99.09,200.76h-3.12v4h3.15c.69,0,1.27-.19,1.73-.57.46-.38.69-.86.69-1.43s-.23-1.07-.69-1.44c-.46-.37-1.04-.56-1.75-.56ZM99.48,207.44h-3.51v4.21h3.48c.73,0,1.33-.2,1.81-.6.48-.4.71-.91.71-1.53s-.23-1.11-.7-1.5c-.47-.39-1.07-.58-1.79-.58Z"/>
    <path class="cls-3" d="M111.49,214.54h-3.25v-16.67h3.25v16.67Z"/>
    <path class="cls-3" d="M126.85,214.54h-11.39v-16.67h3.25v13.6h8.14v3.07Z"/>
    <path class="cls-3" d="M140.66,214.54h-11.39v-16.67h3.25v13.6h8.14v3.07Z"/>
    <path class="cls-3" d="M146.33,214.54h-3.25v-16.67h3.25v16.67Z"/>
    <path class="cls-3" d="M164.79,214.54h-3.51l-7.77-11.28v11.28h-3.25v-16.67h3.51l7.77,11.41v-11.41h3.25v16.67Z"/>
    <path class="cls-3" d="M182.73,205.41v7.67c-1.6,1.21-3.69,1.82-6.29,1.82-2.41,0-4.44-.85-6.08-2.55-1.65-1.7-2.47-3.74-2.47-6.14s.84-4.48,2.52-6.16c1.66-1.7,3.67-2.55,6.03-2.55,2.58,0,4.64.76,6.16,2.29l-2.16,2.47c-1.16-1-2.49-1.51-3.98-1.51s-2.63.53-3.61,1.59c-1.01,1.06-1.51,2.35-1.51,3.87s.51,2.77,1.53,3.85c1,1.06,2.27,1.59,3.8,1.59,1.02,0,1.96-.22,2.81-.65v-4.71l3.25-.88ZM175.71,205.41h7.02l-1.12,2.91h-5.9v-2.91Z"/>
  </g>
  <rect class="cls-7" x="3.15" y="3.66" width="268.7" height="242.69" rx="5" ry="5"/>
</svg>