<?xml version="1.0" encoding="UTF-8"?>
<svg id="Layer_1" data-name="Layer 1" xmlns="http://www.w3.org/2000/svg" xmlns:xlink="http://www.w3.org/1999/xlink" viewBox="0 0 277.99 253.08">
  <defs>
    <style>
      .cls-1 {
        fill: url(#linear-gradient);
      }

      .cls-1, .cls-2, .cls-3, .cls-4, .cls-5 {
        stroke-width: 0px;
      }

      .cls-6 {
        fill: none;
        stroke: #0ab1f0;
        stroke-linecap: round;
        stroke-linejoin: round;
        stroke-width: 2px;
      }

      .cls-2 {
        fill: #0078d4;
      }

      .cls-7 {
        fill: #00517d;
        font-family: SkylineSans-Bold, SkylineSans;
        font-size: 26px;
        font-weight: 700;
      }

      .cls-3 {
        fill: url(#linear-gradient-2);
      }

      .cls-4 {
        fill: #fff;
      }

      .cls-5 {
        fill: #213746;
      }
    </style>
    <linearGradient id="linear-gradient" x1="168.39" y1="1253.7" x2="175.58" y2="1260.86" gradientTransform="translate(0 -1138)" gradientUnits="userSpaceOnUse">
      <stop offset="0" stop-color="#00aeef"/>
      <stop offset=".86" stop-color="#2892df"/>
    </linearGradient>
    <linearGradient id="linear-gradient-2" x1="183.7" y1="1265.01" x2="194.49" y2="1265.01" gradientTransform="translate(0 -1138)" gradientUnits="userSpaceOnUse">
      <stop offset="0" stop-color="#013f61"/>
      <stop offset="1" stop-color="#00517d"/>
    </linearGradient>
  </defs>
  <text class="cls-7" transform="translate(82.24 184.41)"><tspan x="0" y="0">PEOPLE &amp;</tspan><tspan x="-44.42" y="32">ORGANIZATIONS</tspan></text>
  <g>
    <g>
      <path class="cls-5" d="M194.49,86.87c0,8.5-1.93,16.54-5.37,23.72-2.94-1.93-6.46-3.05-10.24-3.05-10.34,0-18.72,8.39-18.72,18.72,0,3.78,1.12,7.29,3.05,10.24-7.18,3.44-15.23,5.37-23.72,5.37-30.38,0-55-24.62-55-55s24.62-55,55-55,55,24.62,55,55Z"/>
      <g>
        <path class="cls-4" d="M117.66,93.77c-4.63,0-8.39-3.76-8.39-8.39s3.76-8.39,8.39-8.39,8.39,3.76,8.39,8.39-3.76,8.39-8.39,8.39ZM117.66,78.99c-3.52,0-6.39,2.87-6.39,6.39s2.87,6.39,6.39,6.39,6.39-2.87,6.39-6.39-2.87-6.39-6.39-6.39Z"/>
        <path class="cls-4" d="M128.75,104.85c-.55,0-1-.45-1-1,0-5.56-4.52-10.08-10.09-10.08s-10.09,4.52-10.09,10.08c0,.55-.45,1-1,1s-1-.45-1-1c0-6.66,5.42-12.08,12.09-12.08s12.09,5.42,12.09,12.08c0,.55-.45,1-1,1Z"/>
        <path class="cls-4" d="M172.5,104.85c-.55,0-1-.45-1-1v-33.43l-14.6-14.6-14.34,14.34v33.69c0,.55-.45,1-1,1s-1-.45-1-1v-34.1c0-.27.11-.52.29-.71l15.34-15.34c.39-.39,1.02-.39,1.41,0l15.6,15.6c.19.19.29.44.29.71v33.85c0,.55-.45,1-1,1Z"/>
        <rect class="cls-4" x="147.84" y="77.37" width="4.93" height="4.93"/>
        <rect class="cls-4" x="147.84" y="85.99" width="4.93" height="4.93"/>
        <rect class="cls-4" x="147.84" y="94.62" width="4.93" height="4.93"/>
        <rect class="cls-4" x="161.39" y="94.62" width="4.93" height="4.93"/>
        <rect class="cls-4" x="161.39" y="85.99" width="4.93" height="4.93"/>
        <rect class="cls-4" x="161.39" y="77.37" width="4.93" height="4.93"/>
      </g>
    </g>
    <g>
      <path class="cls-1" d="M186.95,112.91c-2.35-1.42-5.11-2.25-8.07-2.25-8.62,0-15.6,6.99-15.6,15.6,0,2.75.71,5.34,1.97,7.59l21.71-20.94Z"/>
      <path class="cls-3" d="M183.7,116.05l3.26-3.14c4.52,2.73,7.54,7.69,7.54,13.36,0,6.94-4.53,12.82-10.79,14.85v-25.06Z"/>
      <path class="cls-2" d="M183.7,116.05l-18.45,17.8c2.67,4.78,7.77,8.02,13.64,8.02,1.68,0,3.3-.27,4.81-.76v-25.06Z"/>
      <path class="cls-4" d="M180.03,119.59v3.33h0c-.59-1.06-1.65-1.59-3.16-1.59-1.59,0-2.88.58-3.86,1.73-.98,1.15-1.48,2.69-1.48,4.6s.45,3.26,1.34,4.28c.89,1.02,2.07,1.53,3.53,1.53,1.59,0,2.8-.63,3.62-1.88h.05v1.59h3.61v-17.14l-3.67,3.54h0ZM180.15,127.56c0,.96-.23,1.73-.69,2.31-.46.58-1.06.87-1.79.87-.77,0-1.37-.27-1.81-.82-.43-.55-.65-1.33-.65-2.35,0-1.09.22-1.94.67-2.56.45-.62,1.08-.93,1.88-.93.71,0,1.28.25,1.73.75.44.5.66,1.12.66,1.88v.87Z"/>
    </g>
  </g>
  <rect class="cls-6" x="4.64" y="5.2" width="268.7" height="242.69" rx="5" ry="5"/>
</svg>