<?xml version="1.0" encoding="UTF-8"?>
<svg id="Layer_1" data-name="Layer 1" xmlns="http://www.w3.org/2000/svg" xmlns:xlink="http://www.w3.org/1999/xlink" viewBox="0 0 275 250">
  <defs>
    <style>
      .cls-1 {
        fill: url(#linear-gradient);
      }

      .cls-1, .cls-2, .cls-3, .cls-4, .cls-5, .cls-6 {
        stroke-width: 0px;
      }

      .cls-2 {
        fill: #bc5729;
      }

      .cls-7 {
        fill: none;
        stroke: #0ab1f0;
        stroke-linecap: round;
        stroke-linejoin: round;
        stroke-width: 2px;
      }

      .cls-3 {
        fill: #00517d;
      }

      .cls-4 {
        fill: #0078d4;
      }

      .cls-5 {
        fill: url(#linear-gradient-2);
      }

      .cls-6 {
        fill: #fff;
      }
    </style>
    <linearGradient id="linear-gradient" x1="166.4" y1="1251.83" x2="173.59" y2="1258.99" gradientTransform="translate(0 -1138)" gradientUnits="userSpaceOnUse">
      <stop offset="0" stop-color="#00aeef"/>
      <stop offset=".86" stop-color="#2892df"/>
    </linearGradient>
    <linearGradient id="linear-gradient-2" x1="181.71" y1="1263.14" x2="192.5" y2="1263.14" gradientTransform="translate(0 -1138)" gradientUnits="userSpaceOnUse">
      <stop offset="0" stop-color="#013f61"/>
      <stop offset="1" stop-color="#00517d"/>
    </linearGradient>
  </defs>
  <g>
    <path class="cls-3" d="M79.12,182.54h-3.25v-16.67h5.93c1.98,0,3.55.48,4.73,1.43,1.2.97,1.79,2.25,1.79,3.82,0,1.13-.31,2.1-.92,2.93-.62.82-1.48,1.44-2.59,1.86l3.87,6.63h-3.77l-3.41-6.13h-2.39v6.13ZM82.06,168.74h-2.94v4.81h2.94c.85,0,1.53-.22,2.05-.66s.78-1.03.78-1.76-.26-1.29-.78-1.73-1.21-.66-2.05-.66Z"/>
    <path class="cls-3" d="M102.6,182.54h-10.79v-16.67h10.79v3.04h-7.54v3.69h6.5v3.07h-6.5v3.79h7.54v3.07Z"/>
    <path class="cls-3" d="M117.13,168.32l-2.24,2.21c-.38-.57-.93-1.04-1.64-1.4-.71-.36-1.46-.54-2.26-.54s-1.37.15-1.81.46c-.44.3-.66.71-.66,1.21,0,.47.22.87.65,1.2.43.33.98.59,1.62.77.65.18,1.35.42,2.11.7.75.29,1.46.6,2.11.94.65.34,1.19.84,1.62,1.51.43.67.65,1.46.65,2.38,0,1.53-.58,2.76-1.74,3.72-1.18.97-2.72,1.46-4.63,1.46-3.02,0-5.18-1-6.5-2.99l2.31-2.16c1.04,1.39,2.45,2.08,4.24,2.08.9,0,1.6-.17,2.09-.51s.74-.81.74-1.42c0-.35-.11-.66-.32-.94-.22-.28-.54-.52-.98-.74-.43-.22-.85-.4-1.26-.56-.41-.16-.93-.34-1.57-.55-.64-.21-1.15-.39-1.53-.54-.92-.37-1.66-.91-2.24-1.62-.57-.72-.86-1.59-.86-2.61,0-1.4.57-2.56,1.72-3.48,1.11-.9,2.57-1.35,4.37-1.35,1.3,0,2.48.25,3.54.75,1.06.5,1.88,1.19,2.47,2.05Z"/>
    <path class="cls-3" d="M121.86,168.06c1.7-1.7,3.73-2.55,6.08-2.55s4.41.85,6.11,2.55c1.68,1.7,2.52,3.75,2.52,6.16s-.84,4.46-2.52,6.14c-1.7,1.7-3.74,2.55-6.11,2.55s-4.39-.85-6.08-2.55c-1.68-1.68-2.52-3.73-2.52-6.14s.84-4.48,2.52-6.16ZM127.95,179.66c1.44,0,2.66-.53,3.67-1.59,1-1.06,1.51-2.34,1.51-3.85s-.5-2.82-1.51-3.87c-1.01-1.06-2.23-1.59-3.67-1.59s-2.63.53-3.64,1.59-1.51,2.35-1.51,3.87.5,2.77,1.51,3.82c1.02,1.08,2.24,1.61,3.64,1.61Z"/>
    <path class="cls-3" d="M139.54,175.75v-9.88h3.25v9.83c0,1.18.33,2.13.99,2.86.66.73,1.52,1.09,2.6,1.09s1.91-.36,2.56-1.08c.65-.72.97-1.67.97-2.85v-9.86h3.25v9.88c0,2.15-.62,3.87-1.87,5.17-1.27,1.32-2.92,1.98-4.97,1.98s-3.7-.66-4.91-1.98c-1.25-1.3-1.87-3.03-1.87-5.17Z"/>
    <path class="cls-3" d="M160.24,182.54h-3.25v-16.67h5.93c1.98,0,3.55.48,4.73,1.43,1.2.97,1.79,2.25,1.79,3.82,0,1.13-.31,2.1-.92,2.93-.62.82-1.48,1.44-2.59,1.86l3.87,6.63h-3.77l-3.41-6.13h-2.39v6.13ZM163.17,168.74h-2.94v4.81h2.94c.85,0,1.53-.22,2.05-.66s.78-1.03.78-1.76-.26-1.29-.78-1.73-1.21-.66-2.05-.66Z"/>
    <path class="cls-3" d="M186.78,167.8l-2.16,2.47c-1.16-1.01-2.49-1.51-3.98-1.51s-2.63.53-3.61,1.59c-1.01,1.06-1.51,2.35-1.51,3.87s.51,2.77,1.53,3.85c1,1.06,2.27,1.59,3.8,1.59s2.82-.5,3.77-1.51l2.16,2.39c-1.46,1.58-3.51,2.37-6.16,2.37-2.41,0-4.44-.85-6.08-2.55-1.65-1.7-2.47-3.74-2.47-6.14s.84-4.48,2.52-6.16c1.66-1.7,3.67-2.55,6.03-2.55,2.58,0,4.64.76,6.16,2.29Z"/>
    <path class="cls-3" d="M200.15,182.54h-10.79v-16.67h10.79v3.04h-7.54v3.69h6.5v3.07h-6.5v3.79h7.54v3.07Z"/>
    <path class="cls-3" d="M105.78,200.32l-2.24,2.21c-.38-.57-.93-1.04-1.64-1.4-.71-.36-1.46-.54-2.26-.54s-1.37.15-1.81.46c-.44.3-.66.71-.66,1.21,0,.47.22.87.65,1.2.43.33.98.59,1.62.77.65.18,1.35.42,2.11.7.75.29,1.46.6,2.11.94.65.34,1.19.84,1.62,1.51.43.67.65,1.46.65,2.38,0,1.53-.58,2.76-1.74,3.72-1.18.97-2.72,1.46-4.63,1.46-3.02,0-5.18-1-6.5-2.99l2.31-2.16c1.04,1.39,2.45,2.08,4.24,2.08.9,0,1.6-.17,2.09-.51s.74-.81.74-1.42c0-.35-.11-.66-.32-.94-.22-.28-.54-.52-.98-.74-.43-.22-.85-.4-1.26-.56-.41-.16-.93-.34-1.57-.55-.64-.21-1.15-.39-1.53-.54-.92-.37-1.66-.91-2.24-1.62-.57-.72-.86-1.59-.86-2.61,0-1.4.57-2.56,1.72-3.48,1.11-.9,2.57-1.35,4.37-1.35,1.3,0,2.48.25,3.54.75,1.06.5,1.88,1.19,2.47,2.05Z"/>
    <path class="cls-3" d="M120.34,197.87v3.04h-4.97v13.62h-3.25v-13.62h-4.94v-3.04h13.16Z"/>
    <path class="cls-3" d="M122.5,207.75v-9.88h3.25v9.83c0,1.18.33,2.13.99,2.86.66.73,1.52,1.09,2.6,1.09s1.91-.36,2.56-1.08c.65-.72.97-1.67.97-2.85v-9.86h3.25v9.88c0,2.15-.62,3.87-1.87,5.17-1.27,1.32-2.92,1.98-4.97,1.98s-3.7-.66-4.91-1.98c-1.25-1.3-1.87-3.03-1.87-5.17Z"/>
    <path class="cls-3" d="M145.61,214.54h-5.67v-16.67h5.54c2.74,0,4.99.78,6.76,2.34,1.77,1.58,2.65,3.59,2.65,6.03s-.87,4.39-2.6,5.95c-1.73,1.56-3.96,2.34-6.68,2.34ZM145.46,200.94h-2.18v10.53h2.21c1.77,0,3.21-.48,4.32-1.46,1.07-.97,1.61-2.24,1.61-3.82s-.54-2.85-1.61-3.82c-1.07-.95-2.52-1.43-4.34-1.43Z"/>
    <path class="cls-3" d="M161.26,214.54h-3.25v-16.67h3.25v16.67Z"/>
    <path class="cls-3" d="M166.91,200.06c1.7-1.7,3.73-2.55,6.08-2.55s4.41.85,6.11,2.55c1.68,1.7,2.52,3.75,2.52,6.16s-.84,4.46-2.52,6.14c-1.7,1.7-3.74,2.55-6.11,2.55s-4.39-.85-6.08-2.55c-1.68-1.68-2.52-3.73-2.52-6.14s.84-4.48,2.52-6.16ZM172.99,211.66c1.44,0,2.66-.53,3.67-1.59,1-1.06,1.51-2.34,1.51-3.85s-.5-2.82-1.51-3.87c-1.01-1.06-2.23-1.59-3.67-1.59s-2.63.53-3.64,1.59-1.51,2.35-1.51,3.87.5,2.77,1.51,3.82c1.02,1.08,2.24,1.61,3.64,1.61Z"/>
  </g>
  <g>
    <g>
      <path class="cls-2" d="M192.5,85c0,8.5-1.93,16.55-5.37,23.73-2.94-1.93-6.46-3.06-10.24-3.06-10.34,0-18.72,8.39-18.72,18.72,0,3.78,1.12,7.29,3.06,10.24-7.19,3.44-15.24,5.37-23.73,5.37-30.38,0-55-24.62-55-55s24.62-55,55-55,55,24.62,55,55Z"/>
      <path class="cls-6" d="M168.01,90.77s0-.06-.01-.09c-.02-.12-.05-.23-.11-.33,0,0,0,0,0,0,0,0,0,0,0,0-.06-.1-.14-.19-.23-.26-.02-.02-.05-.04-.07-.05-.02-.02-.04-.03-.06-.05l-6.12-3.53v-11.41c0-.36-.19-.69-.5-.87l-10.07-5.81v-5.79s0-.05-.01-.08c0-.03,0-.06-.01-.09-.02-.12-.05-.23-.11-.33,0,0,0,0,0,0,0,0,0,0,0,0-.06-.1-.14-.19-.23-.26-.02-.02-.05-.04-.07-.06-.02-.01-.04-.03-.06-.05l-12.19-7.04c-.31-.18-.69-.18-1,0l-12.19,7.04s-.04.03-.06.05c-.03.02-.05.04-.08.06-.09.08-.17.16-.23.26,0,0,0,0,0,0,0,0,0,0,0,0-.06.1-.09.21-.11.33,0,.03,0,.06-.01.09,0,.03-.01.05-.01.08v5.79l-10.07,5.81c-.31.18-.5.51-.5.87v11.23l-6.42,3.71s-.04.03-.06.05c-.03.02-.05.04-.08.06-.09.08-.17.16-.23.26,0,0,0,0,0,0,0,0,0,0,0,0-.06.1-.09.21-.11.33,0,.03,0,.06-.01.09,0,.03-.01.05-.01.08v14.07c0,.36.19.69.5.87l12.19,7.04s.05.02.07.03c.03.01.05.02.08.03.11.04.23.07.34.07s.23-.03.34-.07c.03-.01.06-.02.08-.03.02-.01.05-.02.07-.03l6.08-3.51,10.41,6.01c.15.09.33.13.5.13s.35-.04.5-.13l10.26-5.92,5.93,3.42s.05.02.07.03c.03.01.05.02.08.03.11.04.23.07.34.07s.23-.03.34-.07c.03-.01.06-.02.08-.03.02-.01.05-.02.07-.03l12.19-7.04c.31-.18.5-.51.5-.87v-14.07s0-.05-.01-.08ZM143.65,104.34v-11.76l10.19,5.88v11.76l-10.19-5.88ZM154.84,96.73l-10.19-5.88,10.19-5.88,10.19,5.88-10.19,5.88ZM126.47,76.07v-11.76l10.19,5.88v11.76l-10.19-5.88ZM138.65,70.19l10.19-5.88v11.76l-10.19,5.88v-11.76ZM137.65,56.7l10.19,5.88-10.19,5.88-10.19-5.88,10.19-5.88ZM121.16,110.22v-11.76l10.19-5.88v11.76l-10.19,5.88ZM120.16,96.73l-10.19-5.88,10.19-5.88,10.19,5.88-10.19,5.88ZM108.98,92.58l10.19,5.88v11.76l-10.19-5.88v-11.76ZM137.65,113.3l-8.91-5.14,4.11-2.37c.31-.18.5-.51.5-.87v-14.07s0-.05-.01-.08c0-.03,0-.06-.01-.09-.02-.12-.05-.23-.11-.33,0,0,0,0,0,0,0,0,0,0,0,0-.06-.1-.14-.19-.23-.26-.02-.02-.05-.04-.07-.06-.02-.02-.04-.03-.06-.05l-12.19-7.04c-.31-.18-.69-.18-1,0l-3.76,2.17v-9.5l8.57-4.95v5.97c0,.36.19.69.5.87l12.19,7.04s.05.02.07.03c.03.01.05.02.08.03.11.04.23.07.34.07s.23-.03.34-.07c.03-.01.06-.02.08-.03.02-.01.05-.02.07-.03l12.19-7.04c.31-.18.5-.51.5-.87v-5.97l8.57,4.95v9.67l-4.07-2.35c-.31-.18-.69-.18-1,0l-12.19,7.04s-.04.03-.06.05c-.03.02-.05.04-.07.06-.09.08-.17.16-.23.26,0,0,0,0,0,0,0,0,0,0,0,0-.06.1-.09.21-.11.33,0,.03,0,.06-.01.09,0,.03-.01.05-.01.08v14.07c0,.36.19.69.5.87l4.26,2.46-8.76,5.06ZM155.84,110.22v-11.76l10.19-5.88v11.76l-10.19,5.88Z"/>
    </g>
    <g>
      <path class="cls-1" d="M184.96,111.04c-2.35-1.42-5.11-2.25-8.07-2.25-8.62,0-15.6,6.99-15.6,15.6,0,2.75.71,5.34,1.97,7.59l21.71-20.94Z"/>
      <path class="cls-5" d="M181.71,114.18l3.26-3.14c4.52,2.73,7.54,7.69,7.54,13.36,0,6.94-4.53,12.82-10.79,14.85v-25.06Z"/>
      <path class="cls-4" d="M181.71,114.18l-18.45,17.8c2.67,4.78,7.77,8.02,13.64,8.02,1.68,0,3.3-.27,4.81-.76v-25.06Z"/>
      <path class="cls-6" d="M178.04,117.72v3.33h0c-.59-1.06-1.65-1.59-3.16-1.59-1.59,0-2.88.58-3.86,1.73-.98,1.15-1.48,2.69-1.48,4.6s.45,3.26,1.34,4.28c.89,1.02,2.07,1.53,3.53,1.53,1.59,0,2.8-.63,3.62-1.88h.05v1.59h3.61v-17.14l-3.67,3.54h0ZM178.16,125.69c0,.96-.23,1.73-.69,2.31-.46.58-1.06.87-1.79.87-.77,0-1.37-.27-1.81-.82-.43-.55-.65-1.33-.65-2.35,0-1.09.22-1.94.67-2.56.45-.62,1.08-.93,1.88-.93.71,0,1.28.25,1.73.75.44.5.66,1.12.66,1.88v.87Z"/>
    </g>
  </g>
  <rect class="cls-7" x="3.15" y="3.66" width="268.7" height="242.69" rx="5" ry="5"/>
</svg>