<?xml version="1.0" encoding="UTF-8"?>
<svg id="Layer_1" data-name="Layer 1" xmlns="http://www.w3.org/2000/svg" xmlns:xlink="http://www.w3.org/1999/xlink" viewBox="0 0 275 250">
  <defs>
    <style>
      .cls-1 {
        fill: url(#linear-gradient);
      }

      .cls-1, .cls-2, .cls-3, .cls-4, .cls-5, .cls-6 {
        stroke-width: 0px;
      }

      .cls-7 {
        fill: none;
        stroke: #0ab1f0;
        stroke-linecap: round;
        stroke-linejoin: round;
        stroke-width: 2px;
      }

      .cls-2 {
        fill: #001942;
      }

      .cls-3 {
        fill: #00517d;
      }

      .cls-4 {
        fill: #0078d4;
      }

      .cls-5 {
        fill: url(#linear-gradient-2);
      }

      .cls-6 {
        fill: #fff;
      }
    </style>
    <linearGradient id="linear-gradient" x1="166.4" y1="1251.83" x2="173.59" y2="1258.99" gradientTransform="translate(0 -1138)" gradientUnits="userSpaceOnUse">
      <stop offset="0" stop-color="#00aeef"/>
      <stop offset=".86" stop-color="#2892df"/>
    </linearGradient>
    <linearGradient id="linear-gradient-2" x1="181.71" y1="1263.14" x2="192.5" y2="1263.14" gradientTransform="translate(0 -1138)" gradientUnits="userSpaceOnUse">
      <stop offset="0" stop-color="#013f61"/>
      <stop offset="1" stop-color="#00517d"/>
    </linearGradient>
  </defs>
  <g>
    <path class="cls-3" d="M41.59,168.32l-2.24,2.21c-.38-.57-.93-1.04-1.64-1.4-.71-.36-1.46-.54-2.26-.54s-1.37.15-1.81.46c-.44.3-.66.71-.66,1.21,0,.47.22.87.65,1.2.43.33.98.59,1.62.77.65.18,1.35.42,2.11.7.75.29,1.46.6,2.11.94.65.34,1.19.84,1.62,1.51.43.67.65,1.46.65,2.38,0,1.53-.58,2.76-1.74,3.72-1.18.97-2.72,1.46-4.63,1.46-3.02,0-5.18-1-6.5-2.99l2.31-2.16c1.04,1.39,2.45,2.08,4.24,2.08.9,0,1.6-.17,2.09-.51s.74-.81.74-1.42c0-.35-.11-.66-.32-.94-.22-.28-.54-.52-.98-.74-.43-.22-.85-.4-1.26-.56-.41-.16-.93-.34-1.57-.55-.64-.21-1.15-.39-1.53-.54-.92-.37-1.66-.91-2.24-1.62-.57-.72-.86-1.59-.86-2.61,0-1.4.57-2.56,1.72-3.48,1.11-.9,2.57-1.35,4.37-1.35,1.3,0,2.48.25,3.54.75,1.06.5,1.88,1.19,2.47,2.05Z"/>
    <path class="cls-3" d="M60.28,182.54h-3.61l-1.43-3.74h-7.31l-1.46,3.74h-3.41l6.71-16.67h3.8l6.71,16.67ZM49.02,175.91h5.1l-2.55-6.61-2.55,6.61Z"/>
    <path class="cls-3" d="M74.19,165.87v3.04h-4.97v13.62h-3.25v-13.62h-4.94v-3.04h13.16Z"/>
    <path class="cls-3" d="M87.32,182.54h-10.79v-16.67h10.79v3.04h-7.54v3.69h6.5v3.07h-6.5v3.79h7.54v3.07Z"/>
    <path class="cls-3" d="M101.7,182.54h-11.39v-16.67h3.25v13.6h8.14v3.07Z"/>
    <path class="cls-3" d="M115.5,182.54h-11.39v-16.67h3.25v13.6h8.14v3.07Z"/>
    <path class="cls-3" d="M121.17,182.54h-3.25v-16.67h3.25v16.67Z"/>
    <path class="cls-3" d="M136.64,165.87v3.04h-4.97v13.62h-3.25v-13.62h-4.94v-3.04h13.16Z"/>
    <path class="cls-3" d="M149.77,182.54h-10.79v-16.67h10.79v3.04h-7.54v3.69h6.5v3.07h-6.5v3.79h7.54v3.07Z"/>
    <path class="cls-3" d="M164.02,182.54h-5.67v-16.67h5.54c2.74,0,4.99.78,6.76,2.34,1.77,1.58,2.65,3.59,2.65,6.03s-.87,4.39-2.6,5.95-3.96,2.34-6.68,2.34ZM163.86,168.94h-2.18v10.53h2.21c1.77,0,3.21-.48,4.32-1.46,1.08-.97,1.61-2.24,1.61-3.82s-.54-2.85-1.61-3.82c-1.07-.95-2.52-1.43-4.34-1.43Z"/>
    <path class="cls-3" d="M192.05,182.54h-3.61l-1.43-3.74h-7.31l-1.46,3.74h-3.41l6.71-16.67h3.8l6.71,16.67ZM180.79,175.91h5.1l-2.55-6.61-2.55,6.61Z"/>
    <path class="cls-3" d="M205.96,165.87v3.04h-4.97v13.62h-3.25v-13.62h-4.94v-3.04h13.16Z"/>
    <path class="cls-3" d="M223.92,182.54h-3.61l-1.43-3.74h-7.31l-1.46,3.74h-3.41l6.71-16.67h3.8l6.71,16.67ZM212.67,175.91h5.1l-2.55-6.61-2.55,6.61Z"/>
    <path class="cls-3" d="M237.78,165.51c.97,0,1.84.2,2.6.61.76.41,1.36.96,1.79,1.65l-2.18,2.13c-.5-.94-1.26-1.4-2.26-1.4-.55,0-1.01.16-1.35.49-.35.33-.52.74-.52,1.22,0,.71.39,1.4,1.17,2.08l4.76,4.11,1.79-2.26,2.34,1.77-1.9,2.42,2.52,2.18-1.87,2.39-2.6-2.26c-1.54,1.51-3.3,2.26-5.28,2.26-1.54,0-2.84-.51-3.9-1.54-1.06-1-1.59-2.28-1.59-3.82,0-1.82.76-3.34,2.29-4.55-.62-.85-.94-1.8-.94-2.86,0-1.33.49-2.44,1.46-3.33.97-.87,2.19-1.3,3.67-1.3ZM237,179.91c1.08,0,2.04-.4,2.89-1.2l-4.26-3.72c-.76.62-1.14,1.39-1.14,2.31,0,.74.24,1.36.73,1.86s1.08.74,1.79.74Z"/>
    <path class="cls-3" d="M26,199.8l-2.16,2.47c-1.16-1.01-2.49-1.51-3.98-1.51s-2.63.53-3.61,1.59c-1.01,1.06-1.51,2.35-1.51,3.87s.51,2.77,1.53,3.85c1,1.06,2.27,1.59,3.8,1.59s2.82-.5,3.77-1.51l2.16,2.39c-1.46,1.58-3.51,2.37-6.16,2.37-2.41,0-4.44-.85-6.08-2.55-1.65-1.7-2.47-3.74-2.47-6.14s.84-4.48,2.52-6.16c1.66-1.7,3.67-2.55,6.03-2.55,2.58,0,4.64.76,6.16,2.29Z"/>
    <path class="cls-3" d="M44.2,214.54h-3.61l-1.43-3.74h-7.31l-1.46,3.74h-3.41l6.71-16.67h3.8l6.71,16.67ZM32.94,207.91h5.1l-2.55-6.61-2.55,6.61Z"/>
    <path class="cls-3" d="M49.87,214.54h-3.25v-16.67h5.93c2.03,0,3.65.5,4.86,1.51,1.21,1.01,1.82,2.34,1.82,4s-.62,3.01-1.85,4.03c-1.21,1.01-2.84,1.51-4.89,1.51h-2.63v5.62ZM52.81,200.74h-2.94v5.33h2.94c.9,0,1.62-.25,2.17-.74.55-.49.82-1.14.82-1.94s-.27-1.44-.82-1.92c-.55-.48-1.27-.73-2.17-.73Z"/>
    <path class="cls-3" d="M77.74,214.54h-3.61l-1.43-3.74h-7.31l-1.46,3.74h-3.41l6.71-16.67h3.8l6.71,16.67ZM66.48,207.91h5.1l-2.55-6.61-2.55,6.61Z"/>
    <path class="cls-3" d="M94.02,199.8l-2.16,2.47c-1.16-1.01-2.49-1.51-3.98-1.51s-2.63.53-3.61,1.59c-1.01,1.06-1.51,2.35-1.51,3.87s.51,2.77,1.53,3.85c1,1.06,2.27,1.59,3.8,1.59s2.82-.5,3.77-1.51l2.16,2.39c-1.46,1.58-3.51,2.37-6.16,2.37-2.41,0-4.44-.85-6.08-2.55-1.65-1.7-2.47-3.74-2.47-6.14s.84-4.48,2.52-6.16c1.66-1.7,3.67-2.55,6.03-2.55,2.58,0,4.64.76,6.16,2.29Z"/>
    <path class="cls-3" d="M99.84,214.54h-3.25v-16.67h3.25v16.67Z"/>
    <path class="cls-3" d="M115.31,197.87v3.04h-4.97v13.62h-3.25v-13.62h-4.94v-3.04h13.16Z"/>
    <path class="cls-3" d="M125.37,214.54h-3.25v-5.54l-6.14-11.13h3.61l4.21,7.7,4.26-7.7h3.43l-6.14,11.13v5.54Z"/>
    <path class="cls-3" d="M142.69,214.54h-3.25v-16.67h5.93c2.03,0,3.65.5,4.86,1.51,1.21,1.01,1.82,2.34,1.82,4s-.62,3.01-1.85,4.03c-1.21,1.01-2.84,1.51-4.89,1.51h-2.63v5.62ZM145.62,200.74h-2.94v5.33h2.94c.9,0,1.62-.25,2.17-.74.55-.49.82-1.14.82-1.94s-.27-1.44-.82-1.92c-.55-.48-1.27-.73-2.17-.73Z"/>
    <path class="cls-3" d="M166.32,214.54h-11.39v-16.67h3.25v13.6h8.14v3.07Z"/>
    <path class="cls-3" d="M184.36,214.54h-3.61l-1.43-3.74h-7.31l-1.46,3.74h-3.41l6.71-16.67h3.8l6.71,16.67ZM173.11,207.91h5.1l-2.55-6.61-2.55,6.61Z"/>
    <path class="cls-3" d="M201.26,214.54h-3.51l-7.77-11.28v11.28h-3.25v-16.67h3.51l7.77,11.41v-11.41h3.25v16.67Z"/>
    <path class="cls-3" d="M219.7,214.54h-3.51l-7.77-11.28v11.28h-3.25v-16.67h3.51l7.77,11.41v-11.41h3.25v16.67Z"/>
    <path class="cls-3" d="M226.9,214.54h-3.25v-16.67h3.25v16.67Z"/>
    <path class="cls-3" d="M245.36,214.54h-3.51l-7.77-11.28v11.28h-3.25v-16.67h3.51l7.77,11.41v-11.41h3.25v16.67Z"/>
    <path class="cls-3" d="M263.3,205.41v7.67c-1.6,1.21-3.69,1.82-6.29,1.82-2.41,0-4.44-.85-6.08-2.55-1.65-1.7-2.47-3.74-2.47-6.14s.84-4.48,2.52-6.16c1.66-1.7,3.67-2.55,6.03-2.55,2.58,0,4.64.76,6.16,2.29l-2.16,2.47c-1.16-1.01-2.49-1.51-3.98-1.51s-2.63.53-3.61,1.59c-1,1.06-1.51,2.35-1.51,3.87s.51,2.77,1.53,3.85c1,1.06,2.27,1.59,3.8,1.59,1.02,0,1.96-.22,2.81-.65v-4.71l3.25-.88ZM256.28,205.41h7.02l-1.12,2.91h-5.9v-2.91Z"/>
  </g>
  <g>
    <g>
      <path class="cls-2" d="M192.5,85c0,8.5-1.93,16.55-5.37,23.73-2.94-1.93-6.46-3.06-10.24-3.06-10.34,0-18.72,8.39-18.72,18.72,0,3.78,1.12,7.29,3.05,10.24-7.19,3.44-15.23,5.37-23.72,5.37-30.38,0-55-24.62-55-55s24.62-55,55-55,55,24.62,55,55Z"/>
      <g>
        <path class="cls-6" d="M127.44,103.93c-.27,0-.52-.11-.71-.29l-9.7-9.71c-.39-.39-.39-1.02,0-1.41l20.36-20.36c.38-.38,1.04-.37,1.41,0l9.71,9.71c.39.39.39,1.02,0,1.41l-20.36,20.36c-.19.19-.44.29-.71.29ZM119.15,93.22l8.29,8.29,18.95-18.95-8.29-8.29-18.95,18.95Z"/>
        <path class="cls-6" d="M153.31,78.06c-.26,0-.52-.1-.71-.29l-9.71-9.71c-.29-.29-.38-.74-.2-1.12l4.7-10.39c.13-.3.41-.51.73-.57.32-.06.65.04.89.28l15.4,15.4c.23.23.34.56.28.89-.06.32-.27.6-.57.73l-10.39,4.7c-.13.06-.27.09-.41.09ZM144.81,67.14l8.73,8.73,8.45-3.82-13.36-13.36-3.82,8.45Z"/>
        <path class="cls-6" d="M118.31,81.08c-.26,0-.51-.1-.71-.29-.39-.39-.39-1.02,0-1.41l11.16-11.16c.39-.39,1.02-.39,1.41,0s.39,1.02,0,1.41l-11.16,11.16c-.2.2-.45.29-.71.29Z"/>
        <path class="cls-6" d="M112.14,74.91c-.26,0-.51-.1-.71-.29-.39-.39-.39-1.02,0-1.41l11.16-11.16c.39-.39,1.02-.39,1.41,0s.39,1.02,0,1.41l-11.16,11.16c-.2.2-.45.29-.71.29Z"/>
        <path class="cls-6" d="M105.96,68.74c-.26,0-.51-.1-.71-.29-.39-.39-.39-1.02,0-1.41l11.16-11.16c.39-.39,1.02-.39,1.41,0s.39,1.02,0,1.41l-11.16,11.16c-.2.2-.45.29-.71.29Z"/>
        <path class="cls-6" d="M153.2,115.97c-.26,0-.51-.1-.71-.29-.39-.39-.39-1.02,0-1.41l11.16-11.16c.39-.39,1.02-.39,1.41,0s.39,1.02,0,1.41l-11.16,11.16c-.2.2-.45.29-.71.29Z"/>
        <path class="cls-6" d="M147.03,109.8c-.26,0-.51-.1-.71-.29-.39-.39-.39-1.02,0-1.41l11.16-11.16c.39-.39,1.02-.39,1.41,0s.39,1.02,0,1.41l-11.16,11.16c-.2.2-.45.29-.71.29Z"/>
        <path class="cls-6" d="M140.85,103.63c-.26,0-.51-.1-.71-.29-.39-.39-.39-1.02,0-1.41l11.16-11.16c.39-.39,1.02-.39,1.41,0s.39,1.02,0,1.41l-11.16,11.16c-.2.2-.45.29-.71.29Z"/>
      </g>
    </g>
    <g>
      <path class="cls-1" d="M184.96,111.04c-2.35-1.42-5.11-2.25-8.07-2.25-8.62,0-15.6,6.99-15.6,15.6,0,2.75.71,5.34,1.97,7.59l21.71-20.94Z"/>
      <path class="cls-5" d="M181.71,114.18l3.26-3.14c4.52,2.73,7.54,7.69,7.54,13.36,0,6.94-4.53,12.82-10.79,14.85v-25.06Z"/>
      <path class="cls-4" d="M181.71,114.18l-18.45,17.8c2.67,4.78,7.77,8.02,13.64,8.02,1.68,0,3.3-.27,4.81-.76v-25.06Z"/>
      <path class="cls-6" d="M178.04,117.72v3.33h0c-.59-1.06-1.65-1.59-3.16-1.59-1.59,0-2.88.58-3.86,1.73-.98,1.15-1.48,2.69-1.48,4.6s.45,3.26,1.34,4.28c.89,1.02,2.07,1.53,3.53,1.53,1.59,0,2.8-.63,3.62-1.88h.05v1.59h3.61v-17.14l-3.67,3.54h0ZM178.16,125.69c0,.96-.23,1.73-.69,2.31-.46.58-1.06.87-1.79.87-.77,0-1.37-.27-1.81-.82-.43-.55-.65-1.33-.65-2.35,0-1.09.22-1.94.67-2.56.45-.62,1.08-.93,1.88-.93.71,0,1.28.25,1.73.75.44.5.66,1.12.66,1.88v.87Z"/>
    </g>
  </g>
  <rect class="cls-7" x="3.15" y="3.66" width="268.7" height="242.69" rx="5" ry="5"/>
</svg>