<svg xmlns="http://www.w3.org/2000/svg" xmlns:xlink="http://www.w3.org/1999/xlink" width="300" zoomAndPan="magnify" viewBox="0 0 224.87999 168.749997" height="225" preserveAspectRatio="xMidYMid meet" version="1.0"><defs><filter x="0%" y="0%" width="100%" height="100%" id="42ab6257e2"><feColorMatrix values="0 0 0 0 1 0 0 0 0 1 0 0 0 0 1 0 0 0 1 0" color-interpolation-filters="sRGB"/></filter><g/><clipPath id="0bffdc28d4"><path d="M 5.984375 6.058594 L 219.1875 6.058594 L 219.1875 162.441406 L 5.984375 162.441406 Z M 5.984375 6.058594 " clip-rule="nonzero"/></clipPath><clipPath id="0d644acabe"><path d="M 60 21 L 82 21 L 82 43 L 60 43 Z M 60 21 " clip-rule="nonzero"/></clipPath><clipPath id="52f89925ee"><path d="M 61.0625 21.382812 L 81.894531 21.867188 L 81.410156 42.699219 L 60.574219 42.214844 Z M 61.0625 21.382812 " clip-rule="nonzero"/></clipPath><clipPath id="d057e50d4a"><path d="M 71.476562 21.625 C 65.726562 21.488281 60.953125 26.046875 60.820312 31.796875 C 60.683594 37.550781 65.238281 42.324219 70.992188 42.457031 C 76.746094 42.59375 81.519531 38.039062 81.652344 32.285156 C 81.785156 26.53125 77.230469 21.757812 71.476562 21.625 Z M 71.476562 21.625 " clip-rule="nonzero"/></clipPath><mask id="086773f50e"><g filter="url(#42ab6257e2)"><rect x="-22.487999" width="269.855988" fill="#000000" y="-16.875" height="202.499996" fill-opacity="0.76"/></g></mask><clipPath id="92e4f69744"><path d="M 0.175781 0.125 L 20 0.125 L 20 20 L 0.175781 20 Z M 0.175781 0.125 " clip-rule="nonzero"/></clipPath><clipPath id="b5deef9318"><path d="M 0.765625 0.34375 L 20.042969 0.792969 L 19.59375 20.070312 L 0.316406 19.621094 Z M 0.765625 0.34375 " clip-rule="nonzero"/></clipPath><clipPath id="309d159f7d"><path d="M 10.402344 0.570312 C 5.078125 0.445312 0.664062 4.660156 0.539062 9.984375 C 0.417969 15.308594 4.632812 19.722656 9.953125 19.847656 C 15.277344 19.972656 19.691406 15.757812 19.816406 10.433594 C 19.941406 5.109375 15.726562 0.695312 10.402344 0.570312 Z M 10.402344 0.570312 " clip-rule="nonzero"/></clipPath><clipPath id="627b82feb3"><rect x="0" width="21" y="0" height="21"/></clipPath><mask id="4e15ae0977"><g filter="url(#42ab6257e2)"><rect x="-22.487999" width="269.855988" fill="#000000" y="-16.875" height="202.499996" fill-opacity="0.41"/></g></mask><clipPath id="cafc4cd53f"><path d="M 0.664062 0.535156 L 19.835938 0.535156 L 19.835938 19.945312 L 0.664062 19.945312 Z M 0.664062 0.535156 " clip-rule="nonzero"/></clipPath><clipPath id="be04255f29"><path d="M 1.152344 0.621094 L 19.808594 1.054688 L 19.375 19.710938 L 0.71875 19.273438 Z M 1.152344 0.621094 " clip-rule="nonzero"/></clipPath><clipPath id="e61f1b231b"><path d="M 10.480469 0.839844 C 5.332031 0.71875 1.058594 4.796875 0.9375 9.949219 C 0.816406 15.097656 4.894531 19.371094 10.046875 19.492188 C 15.199219 19.613281 19.472656 15.535156 19.589844 10.382812 C 19.710938 5.230469 15.632812 0.957031 10.480469 0.839844 Z M 10.480469 0.839844 " clip-rule="nonzero"/></clipPath><clipPath id="c9704cdcfd"><rect x="0" width="20" y="0" height="20"/></clipPath><mask id="912262587d"><g filter="url(#42ab6257e2)"><rect x="-22.487999" width="269.855988" fill="#000000" y="-16.875" height="202.499996" fill-opacity="0.65"/></g></mask><clipPath id="322c5caef9"><path d="M 0.175781 0.277344 L 21.742188 0.277344 L 21.742188 21.847656 L 0.175781 21.847656 Z M 0.175781 0.277344 " clip-rule="nonzero"/></clipPath><clipPath id="f4b154b956"><path d="M 0.765625 0.5 L 21.597656 0.984375 L 21.113281 21.820312 L 0.28125 21.335938 Z M 0.765625 0.5 " clip-rule="nonzero"/></clipPath><clipPath id="dda10199d9"><path d="M 11.183594 0.742188 C 5.429688 0.609375 0.65625 5.164062 0.523438 10.917969 C 0.386719 16.671875 4.945312 21.445312 10.695312 21.578125 C 16.449219 21.710938 21.222656 17.15625 21.355469 11.402344 C 21.492188 5.648438 16.933594 0.878906 11.183594 0.742188 Z M 11.183594 0.742188 " clip-rule="nonzero"/></clipPath><clipPath id="8b28210ceb"><rect x="0" width="22" y="0" height="22"/></clipPath><clipPath id="5a2f38a24f"><path d="M 80 78 L 100 78 L 100 98 L 80 98 Z M 80 78 " clip-rule="nonzero"/></clipPath><clipPath id="90d56fa676"><path d="M 81.09375 78.34375 L 99.929688 78.785156 L 99.492188 97.621094 L 80.652344 97.183594 Z M 81.09375 78.34375 " clip-rule="nonzero"/></clipPath><clipPath id="03b094b559"><path d="M 90.511719 78.566406 C 85.308594 78.445312 80.996094 82.5625 80.875 87.765625 C 80.753906 92.964844 84.871094 97.28125 90.074219 97.402344 C 95.273438 97.523438 99.589844 93.402344 99.710938 88.203125 C 99.832031 83 95.714844 78.6875 90.511719 78.566406 Z M 90.511719 78.566406 " clip-rule="nonzero"/></clipPath><clipPath id="76b7ff1975"><path d="M 107 55 L 130 55 L 130 79 L 107 79 Z M 107 55 " clip-rule="nonzero"/></clipPath><clipPath id="86bf4a467c"><path d="M 107.421875 55.621094 L 129.632812 56.136719 L 129.113281 78.34375 L 106.90625 77.828125 Z M 107.421875 55.621094 " clip-rule="nonzero"/></clipPath><clipPath id="b43df44d3c"><path d="M 118.527344 55.878906 C 112.394531 55.734375 107.308594 60.589844 107.164062 66.722656 C 107.019531 72.855469 111.878906 77.945312 118.011719 78.085938 C 124.144531 78.230469 129.230469 73.375 129.371094 67.242188 C 129.515625 61.109375 124.660156 56.019531 118.527344 55.878906 Z M 118.527344 55.878906 " clip-rule="nonzero"/></clipPath></defs><g clip-path="url(#0bffdc28d4)"><path fill="#ececec" d="M 5.984375 6.058594 L 219.179688 6.058594 L 219.179688 162.441406 L 5.984375 162.441406 Z M 5.984375 6.058594 " fill-opacity="1" fill-rule="nonzero"/></g><g fill="#423e3e" fill-opacity="1"><g transform="translate(11.367737, 145.878556)"><g><path d="M 4.765625 -10.25 L 4.765625 0 L 1.71875 0 L 1.71875 -14.859375 L 5.234375 -14.859375 L 11.6875 -5.15625 L 11.6875 -14.859375 L 14.71875 -14.859375 L 14.71875 0 L 11.59375 0 Z M 4.765625 -10.25 "/></g></g></g><g fill="#423e3e" fill-opacity="1"><g transform="translate(27.831981, 145.878556)"><g><path d="M 0.8125 -7.421875 C 0.8125 -8.484375 1.015625 -9.476562 1.421875 -10.40625 C 1.828125 -11.332031 2.382812 -12.144531 3.09375 -12.84375 C 3.800781 -13.550781 4.625 -14.097656 5.5625 -14.484375 C 6.507812 -14.878906 7.515625 -15.078125 8.578125 -15.078125 C 9.640625 -15.078125 10.632812 -14.882812 11.5625 -14.5 C 12.488281 -14.113281 13.300781 -13.578125 14 -12.890625 C 14.707031 -12.203125 15.253906 -11.394531 15.640625 -10.46875 C 16.035156 -9.550781 16.234375 -8.5625 16.234375 -7.5 C 16.234375 -6.414062 16.035156 -5.40625 15.640625 -4.46875 C 15.242188 -3.539062 14.6875 -2.722656 13.96875 -2.015625 C 13.257812 -1.304688 12.4375 -0.753906 11.5 -0.359375 C 10.5625 0.0351562 9.5625 0.234375 8.5 0.234375 C 7.4375 0.234375 6.4375 0.0351562 5.5 -0.359375 C 4.570312 -0.753906 3.757812 -1.296875 3.0625 -1.984375 C 2.363281 -2.679688 1.8125 -3.488281 1.40625 -4.40625 C 1.007812 -5.332031 0.8125 -6.335938 0.8125 -7.421875 Z M 3.96875 -7.4375 C 3.96875 -6.59375 4.164062 -5.8125 4.5625 -5.09375 C 4.96875 -4.375 5.519531 -3.800781 6.21875 -3.375 C 6.914062 -2.957031 7.6875 -2.75 8.53125 -2.75 C 9.394531 -2.75 10.171875 -2.957031 10.859375 -3.375 C 11.546875 -3.800781 12.09375 -4.375 12.5 -5.09375 C 12.90625 -5.8125 13.109375 -6.59375 13.109375 -7.4375 C 13.109375 -8.289062 12.90625 -9.066406 12.5 -9.765625 C 12.09375 -10.472656 11.546875 -11.039062 10.859375 -11.46875 C 10.171875 -11.894531 9.394531 -12.109375 8.53125 -12.109375 C 7.6875 -12.109375 6.914062 -11.894531 6.21875 -11.46875 C 5.519531 -11.039062 4.96875 -10.472656 4.5625 -9.765625 C 4.164062 -9.066406 3.96875 -8.289062 3.96875 -7.4375 Z M 3.96875 -7.4375 "/></g></g></g><g fill="#423e3e" fill-opacity="1"><g transform="translate(44.884232, 145.878556)"><g><path d="M 14.65625 -7.453125 C 14.65625 -5.984375 14.316406 -4.6875 13.640625 -3.5625 C 12.972656 -2.4375 12.007812 -1.5625 10.75 -0.9375 C 9.488281 -0.3125 7.976562 0 6.21875 0 L 1.71875 0 L 1.71875 -14.859375 L 6.28125 -14.859375 C 8.007812 -14.859375 9.5 -14.566406 10.75 -13.984375 C 12.007812 -13.398438 12.972656 -12.550781 13.640625 -11.4375 C 14.316406 -10.332031 14.65625 -9.003906 14.65625 -7.453125 Z M 11.515625 -7.453125 C 11.515625 -8.429688 11.285156 -9.253906 10.828125 -9.921875 C 10.367188 -10.585938 9.75 -11.09375 8.96875 -11.4375 C 8.195312 -11.78125 7.328125 -11.953125 6.359375 -11.953125 L 4.796875 -11.953125 L 4.796875 -2.90625 L 6.3125 -2.90625 C 7.34375 -2.90625 8.25 -3.082031 9.03125 -3.4375 C 9.8125 -3.789062 10.421875 -4.304688 10.859375 -4.984375 C 11.296875 -5.660156 11.515625 -6.484375 11.515625 -7.453125 Z M 11.515625 -7.453125 "/></g></g></g><g fill="#423e3e" fill-opacity="1"><g transform="translate(60.400067, 145.878556)"><g><path d="M 1.71875 -14.859375 L 11.453125 -14.859375 L 11.453125 -11.96875 L 4.765625 -11.96875 L 4.765625 -8.953125 L 10.75 -8.953125 L 10.75 -6.0625 L 4.765625 -6.0625 L 4.765625 -2.859375 L 11.5 -2.859375 L 11.5 0 L 1.71875 0 Z M 1.71875 -14.859375 "/></g></g></g><g fill="#423e3e" fill-opacity="1"><g transform="translate(72.975865, 145.878556)"><g/></g></g><g fill="#423e3e" fill-opacity="1"><g transform="translate(77.736832, 145.878556)"><g><path d="M 1.71875 -14.859375 L 11.453125 -14.859375 L 11.453125 -11.96875 L 4.765625 -11.96875 L 4.765625 -8.953125 L 10.75 -8.953125 L 10.75 -6.0625 L 4.765625 -6.0625 L 4.765625 -2.859375 L 11.5 -2.859375 L 11.5 0 L 1.71875 0 Z M 1.71875 -14.859375 "/></g></g></g><g fill="#423e3e" fill-opacity="1"><g transform="translate(90.312629, 145.878556)"><g><path d="M 14.65625 -7.453125 C 14.65625 -5.984375 14.316406 -4.6875 13.640625 -3.5625 C 12.972656 -2.4375 12.007812 -1.5625 10.75 -0.9375 C 9.488281 -0.3125 7.976562 0 6.21875 0 L 1.71875 0 L 1.71875 -14.859375 L 6.28125 -14.859375 C 8.007812 -14.859375 9.5 -14.566406 10.75 -13.984375 C 12.007812 -13.398438 12.972656 -12.550781 13.640625 -11.4375 C 14.316406 -10.332031 14.65625 -9.003906 14.65625 -7.453125 Z M 11.515625 -7.453125 C 11.515625 -8.429688 11.285156 -9.253906 10.828125 -9.921875 C 10.367188 -10.585938 9.75 -11.09375 8.96875 -11.4375 C 8.195312 -11.78125 7.328125 -11.953125 6.359375 -11.953125 L 4.796875 -11.953125 L 4.796875 -2.90625 L 6.3125 -2.90625 C 7.34375 -2.90625 8.25 -3.082031 9.03125 -3.4375 C 9.8125 -3.789062 10.421875 -4.304688 10.859375 -4.984375 C 11.296875 -5.660156 11.515625 -6.484375 11.515625 -7.453125 Z M 11.515625 -7.453125 "/></g></g></g><g fill="#423e3e" fill-opacity="1"><g transform="translate(105.828464, 145.878556)"><g><path d="M 3.953125 -7.4375 C 3.953125 -6.570312 4.144531 -5.78125 4.53125 -5.0625 C 4.914062 -4.34375 5.453125 -3.765625 6.140625 -3.328125 C 6.828125 -2.898438 7.617188 -2.6875 8.515625 -2.6875 C 9.523438 -2.6875 10.367188 -2.921875 11.046875 -3.390625 C 11.734375 -3.859375 12.164062 -4.460938 12.34375 -5.203125 L 7.828125 -5.203125 L 7.828125 -7.984375 L 15.546875 -7.984375 L 15.546875 -6.828125 C 15.546875 -5.679688 15.351562 -4.664062 14.96875 -3.78125 C 14.582031 -2.894531 14.054688 -2.15625 13.390625 -1.5625 C 12.734375 -0.976562 11.984375 -0.53125 11.140625 -0.21875 C 10.296875 0.0820312 9.421875 0.234375 8.515625 0.234375 C 7.367188 0.234375 6.320312 0.0351562 5.375 -0.359375 C 4.4375 -0.765625 3.625 -1.3125 2.9375 -2 C 2.257812 -2.695312 1.734375 -3.507812 1.359375 -4.4375 C 0.992188 -5.363281 0.8125 -6.359375 0.8125 -7.421875 C 0.8125 -8.503906 1.015625 -9.503906 1.421875 -10.421875 C 1.828125 -11.347656 2.382812 -12.160156 3.09375 -12.859375 C 3.8125 -13.566406 4.632812 -14.113281 5.5625 -14.5 C 6.5 -14.882812 7.5 -15.078125 8.5625 -15.078125 C 9.507812 -15.078125 10.359375 -14.945312 11.109375 -14.6875 C 11.859375 -14.425781 12.507812 -14.085938 13.0625 -13.671875 C 13.613281 -13.253906 14.066406 -12.800781 14.421875 -12.3125 C 14.785156 -11.832031 15.050781 -11.359375 15.21875 -10.890625 L 12.5 -9.5625 C 12.363281 -9.9375 12.132812 -10.328125 11.8125 -10.734375 C 11.488281 -11.140625 11.054688 -11.476562 10.515625 -11.75 C 9.984375 -12.03125 9.316406 -12.171875 8.515625 -12.171875 C 7.679688 -12.171875 6.921875 -11.960938 6.234375 -11.546875 C 5.546875 -11.128906 4.992188 -10.5625 4.578125 -9.84375 C 4.160156 -9.132812 3.953125 -8.332031 3.953125 -7.4375 Z M 3.953125 -7.4375 "/></g></g></g><g fill="#423e3e" fill-opacity="1"><g transform="translate(122.084059, 145.878556)"><g><path d="M 1.71875 -14.859375 L 11.453125 -14.859375 L 11.453125 -11.96875 L 4.765625 -11.96875 L 4.765625 -8.953125 L 10.75 -8.953125 L 10.75 -6.0625 L 4.765625 -6.0625 L 4.765625 -2.859375 L 11.5 -2.859375 L 11.5 0 L 1.71875 0 Z M 1.71875 -14.859375 "/></g></g></g><g fill="#423e3e" fill-opacity="1"><g transform="translate(134.659857, 145.878556)"><g/></g></g><g fill="#423e3e" fill-opacity="1"><g transform="translate(139.420824, 145.878556)"><g><path d="M 3.953125 -7.4375 C 3.953125 -6.570312 4.144531 -5.78125 4.53125 -5.0625 C 4.914062 -4.34375 5.453125 -3.765625 6.140625 -3.328125 C 6.828125 -2.898438 7.617188 -2.6875 8.515625 -2.6875 C 9.523438 -2.6875 10.367188 -2.921875 11.046875 -3.390625 C 11.734375 -3.859375 12.164062 -4.460938 12.34375 -5.203125 L 7.828125 -5.203125 L 7.828125 -7.984375 L 15.546875 -7.984375 L 15.546875 -6.828125 C 15.546875 -5.679688 15.351562 -4.664062 14.96875 -3.78125 C 14.582031 -2.894531 14.054688 -2.15625 13.390625 -1.5625 C 12.734375 -0.976562 11.984375 -0.53125 11.140625 -0.21875 C 10.296875 0.0820312 9.421875 0.234375 8.515625 0.234375 C 7.367188 0.234375 6.320312 0.0351562 5.375 -0.359375 C 4.4375 -0.765625 3.625 -1.3125 2.9375 -2 C 2.257812 -2.695312 1.734375 -3.507812 1.359375 -4.4375 C 0.992188 -5.363281 0.8125 -6.359375 0.8125 -7.421875 C 0.8125 -8.503906 1.015625 -9.503906 1.421875 -10.421875 C 1.828125 -11.347656 2.382812 -12.160156 3.09375 -12.859375 C 3.8125 -13.566406 4.632812 -14.113281 5.5625 -14.5 C 6.5 -14.882812 7.5 -15.078125 8.5625 -15.078125 C 9.507812 -15.078125 10.359375 -14.945312 11.109375 -14.6875 C 11.859375 -14.425781 12.507812 -14.085938 13.0625 -13.671875 C 13.613281 -13.253906 14.066406 -12.800781 14.421875 -12.3125 C 14.785156 -11.832031 15.050781 -11.359375 15.21875 -10.890625 L 12.5 -9.5625 C 12.363281 -9.9375 12.132812 -10.328125 11.8125 -10.734375 C 11.488281 -11.140625 11.054688 -11.476562 10.515625 -11.75 C 9.984375 -12.03125 9.316406 -12.171875 8.515625 -12.171875 C 7.679688 -12.171875 6.921875 -11.960938 6.234375 -11.546875 C 5.546875 -11.128906 4.992188 -10.5625 4.578125 -9.84375 C 4.160156 -9.132812 3.953125 -8.332031 3.953125 -7.4375 Z M 3.953125 -7.4375 "/></g></g></g><g fill="#423e3e" fill-opacity="1"><g transform="translate(155.676419, 145.878556)"><g><path d="M 13.140625 0 L 9.734375 0 L 6.65625 -5.328125 L 4.796875 -5.328125 L 4.796875 0 L 1.71875 0 L 1.71875 -14.859375 L 7.59375 -14.859375 C 8.550781 -14.859375 9.425781 -14.679688 10.21875 -14.328125 C 11.019531 -13.984375 11.65625 -13.460938 12.125 -12.765625 C 12.601562 -12.066406 12.84375 -11.191406 12.84375 -10.140625 C 12.84375 -7.984375 11.820312 -6.535156 9.78125 -5.796875 Z M 7.359375 -8.171875 C 7.734375 -8.171875 8.101562 -8.234375 8.46875 -8.359375 C 8.84375 -8.492188 9.144531 -8.695312 9.375 -8.96875 C 9.613281 -9.25 9.734375 -9.625 9.734375 -10.09375 C 9.734375 -10.570312 9.613281 -10.941406 9.375 -11.203125 C 9.132812 -11.472656 8.832031 -11.664062 8.46875 -11.78125 C 8.101562 -11.894531 7.726562 -11.953125 7.34375 -11.953125 L 4.796875 -11.953125 L 4.796875 -8.171875 Z M 7.359375 -8.171875 "/></g></g></g><g fill="#423e3e" fill-opacity="1"><g transform="translate(169.542034, 145.878556)"><g><path d="M 3.078125 0 L -0.015625 0 L 5.65625 -14.859375 L 9.359375 -14.859375 L 15.046875 0 L 11.875 0 L 10.75 -3 L 4.171875 -3 Z M 7.46875 -11.875 L 5.234375 -5.84375 L 9.71875 -5.84375 Z M 7.46875 -11.875 "/></g></g></g><g fill="#423e3e" fill-opacity="1"><g transform="translate(184.564707, 145.878556)"><g><path d="M 12.5625 -10.09375 C 12.5625 -9 12.320312 -8.09375 11.84375 -7.375 C 11.375 -6.65625 10.726562 -6.117188 9.90625 -5.765625 C 9.09375 -5.410156 8.164062 -5.234375 7.125 -5.234375 L 4.796875 -5.234375 L 4.796875 0 L 1.71875 0 L 1.71875 -14.859375 L 7.25 -14.859375 C 8.25 -14.859375 9.144531 -14.679688 9.9375 -14.328125 C 10.738281 -13.972656 11.375 -13.441406 11.84375 -12.734375 C 12.320312 -12.023438 12.5625 -11.144531 12.5625 -10.09375 Z M 9.46875 -10.015625 C 9.46875 -10.492188 9.347656 -10.875 9.109375 -11.15625 C 8.867188 -11.445312 8.5625 -11.648438 8.1875 -11.765625 C 7.8125 -11.890625 7.410156 -11.953125 6.984375 -11.953125 L 4.796875 -11.953125 L 4.796875 -8.09375 L 7 -8.09375 C 7.40625 -8.09375 7.796875 -8.15625 8.171875 -8.28125 C 8.554688 -8.414062 8.867188 -8.625 9.109375 -8.90625 C 9.347656 -9.1875 9.46875 -9.554688 9.46875 -10.015625 Z M 9.46875 -10.015625 "/></g></g></g><g fill="#423e3e" fill-opacity="1"><g transform="translate(197.690573, 145.878556)"><g><path d="M 4.796875 -6.015625 L 4.796875 0 L 1.71875 0 L 1.71875 -14.859375 L 4.796875 -14.859375 L 4.796875 -8.984375 L 11.015625 -8.984375 L 11.015625 -14.859375 L 14.09375 -14.859375 L 14.09375 0 L 11.015625 0 L 11.015625 -6.015625 Z M 4.796875 -6.015625 "/></g></g></g><g clip-path="url(#0d644acabe)"><g clip-path="url(#52f89925ee)"><g clip-path="url(#d057e50d4a)"><path fill="#423e3e" d="M 61.0625 21.382812 L 81.894531 21.867188 L 81.410156 42.699219 L 60.574219 42.214844 Z M 61.0625 21.382812 " fill-opacity="1" fill-rule="nonzero"/></g></g></g><g mask="url(#086773f50e)"><g transform="matrix(1, 0, 0, 1, 143, 78)"><g clip-path="url(#627b82feb3)"><g clip-path="url(#92e4f69744)"><g clip-path="url(#b5deef9318)"><g clip-path="url(#309d159f7d)"><path fill="#423e3e" d="M 0.765625 0.34375 L 20.042969 0.792969 L 19.59375 20.070312 L 0.316406 19.621094 Z M 0.765625 0.34375 " fill-opacity="1" fill-rule="nonzero"/></g></g></g></g></g></g><path stroke-linecap="butt" transform="matrix(0.48463, 0.387992, -0.387992, 0.48463, 79.522656, 37.008197)" fill="none" stroke-linejoin="miter" d="M 0.000154856 1.498293 L 62.298837 1.499345 " stroke="#3c3b3d" stroke-width="3" stroke-opacity="1" stroke-miterlimit="4"/><path stroke-linecap="butt" transform="matrix(0.493944, -0.376063, 0.376063, 0.493944, 125.551922, 59.712099)" fill="none" stroke-linejoin="miter" d="M 0.00139404 1.501284 L 48.582169 1.501042 " stroke="#3c3b3d" stroke-width="3" stroke-opacity="1" stroke-miterlimit="4"/><path stroke-linecap="butt" transform="matrix(0.532353, 0.31938, -0.31938, 0.532353, 126.63853, 71.659445)" fill="none" stroke-linejoin="miter" d="M 0.00018025 1.49812 L 46.11022 1.498 " stroke="#3c3b3d" stroke-width="3" stroke-opacity="1" stroke-miterlimit="4"/><path stroke-linecap="butt" transform="matrix(0, -0.620809, 0.620809, 0, 117.236254, 102.56627)" fill="none" stroke-linejoin="miter" d="M -0.000219438 1.500807 L 48.581804 1.500807 " stroke="#3c3b3d" stroke-width="3" stroke-opacity="1" stroke-miterlimit="4"/><path stroke-linecap="butt" transform="matrix(0.459676, -0.417254, 0.417254, 0.459676, 93.415488, 85.956933)" fill="none" stroke-linejoin="miter" d="M 0.00398261 1.499445 L 34.124992 1.496972 " stroke="#3c3b3d" stroke-width="3" stroke-opacity="1" stroke-miterlimit="4"/><g mask="url(#4e15ae0977)"><g transform="matrix(1, 0, 0, 1, 108, 97)"><g clip-path="url(#c9704cdcfd)"><g clip-path="url(#cafc4cd53f)"><g clip-path="url(#be04255f29)"><g clip-path="url(#e61f1b231b)"><path fill="#423e3e" d="M 1.152344 0.621094 L 19.808594 1.054688 L 19.375 19.710938 L 0.71875 19.273438 Z M 1.152344 0.621094 " fill-opacity="1" fill-rule="nonzero"/></g></g></g></g></g></g><g mask="url(#912262587d)"><g transform="matrix(1, 0, 0, 1, 143, 28)"><g clip-path="url(#8b28210ceb)"><g clip-path="url(#322c5caef9)"><g clip-path="url(#f4b154b956)"><g clip-path="url(#dda10199d9)"><path fill="#f5d228" d="M 0.765625 0.5 L 21.597656 0.984375 L 21.113281 21.820312 L 0.28125 21.335938 Z M 0.765625 0.5 " fill-opacity="1" fill-rule="nonzero"/></g></g></g></g></g></g><g clip-path="url(#5a2f38a24f)"><g clip-path="url(#90d56fa676)"><g clip-path="url(#03b094b559)"><path fill="#f5d228" d="M 81.09375 78.34375 L 99.929688 78.785156 L 99.492188 97.621094 L 80.652344 97.183594 Z M 81.09375 78.34375 " fill-opacity="1" fill-rule="nonzero"/></g></g></g><g clip-path="url(#76b7ff1975)"><g clip-path="url(#86bf4a467c)"><g clip-path="url(#b43df44d3c)"><path fill="#f5d228" d="M 107.421875 55.621094 L 129.632812 56.136719 L 129.113281 78.34375 L 106.90625 77.828125 Z M 107.421875 55.621094 " fill-opacity="1" fill-rule="nonzero"/></g></g></g></svg>