<svg xmlns="http://www.w3.org/2000/svg" xmlns:xlink="http://www.w3.org/1999/xlink" width="275" zoomAndPan="magnify" viewBox="0 0 206.25 187.499992" height="250" preserveAspectRatio="xMidYMid meet" version="1.0"><defs><filter x="0%" y="0%" width="100%" height="100%" id="03b90deb8f"><feColorMatrix values="0 0 0 0 1 0 0 0 0 1 0 0 0 0 1 0 0 0 1 0" color-interpolation-filters="sRGB"/></filter><g/><clipPath id="a7cc5ac679"><path d="M 6.664062 6.203125 L 198.839844 6.203125 L 198.839844 136.34375 L 6.664062 136.34375 Z M 6.664062 6.203125 " clip-rule="nonzero"/></clipPath><clipPath id="0ac6ffa538"><path d="M 6.664062 152.5625 L 198.839844 152.5625 L 198.839844 173.632812 L 6.664062 173.632812 Z M 6.664062 152.5625 " clip-rule="nonzero"/></clipPath><clipPath id="00ff870a95"><path d="M 40 14 L 66 14 L 66 40 L 40 40 Z M 40 14 " clip-rule="nonzero"/></clipPath><clipPath id="52f969d5cc"><path d="M 40.726562 13.898438 L 65.804688 14.480469 L 65.222656 39.5625 L 40.144531 38.976562 Z M 40.726562 13.898438 " clip-rule="nonzero"/></clipPath><clipPath id="e14aaf5033"><path d="M 53.265625 14.191406 C 46.34375 14.027344 40.597656 19.511719 40.4375 26.4375 C 40.273438 33.363281 45.757812 39.109375 52.683594 39.269531 C 59.609375 39.429688 65.351562 33.945312 65.515625 27.023438 C 65.675781 20.097656 60.191406 14.351562 53.265625 14.191406 Z M 53.265625 14.191406 " clip-rule="nonzero"/></clipPath><mask id="70eadf8a00"><g filter="url(#03b90deb8f)"><rect x="-20.625" width="247.5" fill="#000000" y="-18.749999" height="224.99999" fill-opacity="0.76"/></g></mask><clipPath id="a17dbce186"><path d="M 1 0.351562 L 24.566406 0.351562 L 24.566406 24 L 1 24 Z M 1 0.351562 " clip-rule="nonzero"/></clipPath><clipPath id="c9da4418e4"><path d="M 1.28125 0.46875 L 24.484375 1.007812 L 23.945312 24.210938 L 0.738281 23.671875 Z M 1.28125 0.46875 " clip-rule="nonzero"/></clipPath><clipPath id="b78670ae4c"><path d="M 12.882812 0.738281 C 6.472656 0.589844 1.160156 5.660156 1.011719 12.070312 C 0.859375 18.476562 5.933594 23.792969 12.339844 23.941406 C 18.75 24.089844 24.066406 19.015625 24.214844 12.609375 C 24.363281 6.203125 19.289062 0.886719 12.882812 0.738281 Z M 12.882812 0.738281 " clip-rule="nonzero"/></clipPath><clipPath id="802f8d9e25"><rect x="0" width="25" y="0" height="25"/></clipPath><mask id="452b5d61f5"><g filter="url(#03b90deb8f)"><rect x="-20.625" width="247.5" fill="#000000" y="-18.749999" height="224.99999" fill-opacity="0.41"/></g></mask><clipPath id="ca6fa74d43"><path d="M 0.0429688 0.546875 L 23 0.546875 L 23 23.742188 L 0.0429688 23.742188 Z M 0.0429688 0.546875 " clip-rule="nonzero"/></clipPath><clipPath id="0b853563f1"><path d="M 0.617188 0.667969 L 23.074219 1.191406 L 22.550781 23.648438 L 0.09375 23.125 Z M 0.617188 0.667969 " clip-rule="nonzero"/></clipPath><clipPath id="a22f49b19e"><path d="M 11.84375 0.929688 C 5.644531 0.785156 0.5 5.695312 0.355469 11.898438 C 0.210938 18.097656 5.121094 23.242188 11.324219 23.386719 C 17.523438 23.53125 22.667969 18.621094 22.8125 12.417969 C 22.957031 6.21875 18.046875 1.074219 11.84375 0.929688 Z M 11.84375 0.929688 " clip-rule="nonzero"/></clipPath><clipPath id="4c6cb48e5d"><rect x="0" width="24" y="0" height="24"/></clipPath><mask id="7d415f5a92"><g filter="url(#03b90deb8f)"><rect x="-20.625" width="247.5" fill="#000000" y="-18.749999" height="224.99999" fill-opacity="0.65"/></g></mask><clipPath id="b283a7f8be"><path d="M 0.652344 0.328125 L 26.476562 0.328125 L 26.476562 26 L 0.652344 26 Z M 0.652344 0.328125 " clip-rule="nonzero"/></clipPath><clipPath id="de1425fca8"><path d="M 1.28125 0.46875 L 26.359375 1.050781 L 25.773438 26.132812 L 0.695312 25.546875 Z M 1.28125 0.46875 " clip-rule="nonzero"/></clipPath><clipPath id="19fa8a8710"><path d="M 13.820312 0.761719 C 6.894531 0.597656 1.148438 6.082031 0.988281 13.007812 C 0.828125 19.933594 6.308594 25.679688 13.234375 25.839844 C 20.160156 26 25.90625 20.515625 26.066406 13.589844 C 26.226562 6.667969 20.746094 0.921875 13.820312 0.761719 Z M 13.820312 0.761719 " clip-rule="nonzero"/></clipPath><clipPath id="f5ac245f74"><rect x="0" width="27" y="0" height="27"/></clipPath><clipPath id="f6c7736a7e"><path d="M 64 82 L 88 82 L 88 106 L 64 106 Z M 64 82 " clip-rule="nonzero"/></clipPath><clipPath id="f317f76776"><path d="M 64.839844 82.46875 L 87.515625 82.996094 L 86.988281 105.667969 L 64.3125 105.140625 Z M 64.839844 82.46875 " clip-rule="nonzero"/></clipPath><clipPath id="4f39d77b20"><path d="M 76.175781 82.730469 C 69.914062 82.585938 64.722656 87.542969 64.574219 93.804688 C 64.429688 100.066406 69.386719 105.261719 75.648438 105.40625 C 81.910156 105.550781 87.105469 100.59375 87.25 94.332031 C 87.398438 88.070312 82.4375 82.875 76.175781 82.730469 Z M 76.175781 82.730469 " clip-rule="nonzero"/></clipPath><clipPath id="a0aacc4e7f"><path d="M 96 55 L 123 55 L 123 83 L 96 83 Z M 96 55 " clip-rule="nonzero"/></clipPath><clipPath id="09151147eb"><path d="M 96.535156 55.113281 L 123.265625 55.734375 L 122.644531 82.46875 L 95.910156 81.84375 Z M 96.535156 55.113281 " clip-rule="nonzero"/></clipPath><clipPath id="bb0dea0301"><path d="M 109.902344 55.421875 C 102.519531 55.25 96.394531 61.097656 96.222656 68.476562 C 96.050781 75.859375 101.894531 81.984375 109.277344 82.15625 C 116.660156 82.328125 122.785156 76.484375 122.957031 69.101562 C 123.128906 61.71875 117.28125 55.59375 109.902344 55.421875 Z M 109.902344 55.421875 " clip-rule="nonzero"/></clipPath></defs><g clip-path="url(#a7cc5ac679)"><path fill="#ececec" d="M 6.664062 6.203125 L 198.824219 6.203125 L 198.824219 136.34375 L 6.664062 136.34375 Z M 6.664062 6.203125 " fill-opacity="1" fill-rule="nonzero"/></g><g clip-path="url(#0ac6ffa538)"><path fill="#ffffff" d="M 6.664062 152.5625 L 198.875 152.5625 L 198.875 173.632812 L 6.664062 173.632812 Z M 6.664062 152.5625 " fill-opacity="1" fill-rule="nonzero"/></g><g fill="#423e3e" fill-opacity="1"><g transform="translate(17.823857, 169.449417)"><g><path d="M 4 -8.609375 L 9.734375 0 L 12.375 0 L 12.375 -12.484375 L 9.8125 -12.484375 L 9.8125 -4.328125 L 4.40625 -12.484375 L 1.453125 -12.484375 L 1.453125 0 L 4 0 Z M 4 -8.609375 "/></g></g></g><g fill="#423e3e" fill-opacity="1"><g transform="translate(31.65822, 169.449417)"><g><path d="M 0.6875 -6.234375 C 0.6875 -2.625 3.546875 0.1875 7.140625 0.1875 C 10.71875 0.1875 13.640625 -2.65625 13.640625 -6.296875 C 13.640625 -9.875 10.796875 -12.671875 7.203125 -12.671875 C 3.625 -12.671875 0.6875 -9.8125 0.6875 -6.234375 Z M 3.328125 -6.25 C 3.328125 -8.40625 5.015625 -10.171875 7.171875 -10.171875 C 9.328125 -10.171875 11.015625 -8.40625 11.015625 -6.25 C 11.015625 -4.09375 9.328125 -2.3125 7.171875 -2.3125 C 5.015625 -2.3125 3.328125 -4.09375 3.328125 -6.25 Z M 3.328125 -6.25 "/></g></g></g><g fill="#423e3e" fill-opacity="1"><g transform="translate(45.986659, 169.449417)"><g><path d="M 12.3125 -6.265625 C 12.3125 -10.1875 9.625 -12.484375 5.28125 -12.484375 L 1.453125 -12.484375 L 1.453125 0 L 5.234375 0 C 9.640625 0 12.3125 -2.546875 12.3125 -6.265625 Z M 9.671875 -6.265625 C 9.671875 -3.8125 7.890625 -2.4375 5.3125 -2.4375 L 4.03125 -2.4375 L 4.03125 -10.046875 L 5.34375 -10.046875 C 7.796875 -10.046875 9.671875 -8.71875 9.671875 -6.265625 Z M 9.671875 -6.265625 "/></g></g></g><g fill="#423e3e" fill-opacity="1"><g transform="translate(59.024104, 169.449417)"><g><path d="M 1.453125 -12.484375 L 1.453125 0 L 9.65625 0 L 9.65625 -2.40625 L 4 -2.40625 L 4 -5.09375 L 9.03125 -5.09375 L 9.03125 -7.515625 L 4 -7.515625 L 4 -10.0625 L 9.625 -10.0625 L 9.625 -12.484375 Z M 1.453125 -12.484375 "/></g></g></g><g fill="#423e3e" fill-opacity="1"><g transform="translate(69.591135, 169.449417)"><g/></g></g><g fill="#423e3e" fill-opacity="1"><g transform="translate(73.591621, 169.449417)"><g><path d="M 1.453125 -12.484375 L 1.453125 0 L 9.65625 0 L 9.65625 -2.40625 L 4 -2.40625 L 4 -5.09375 L 9.03125 -5.09375 L 9.03125 -7.515625 L 4 -7.515625 L 4 -10.0625 L 9.625 -10.0625 L 9.625 -12.484375 Z M 1.453125 -12.484375 "/></g></g></g><g fill="#423e3e" fill-opacity="1"><g transform="translate(84.158652, 169.449417)"><g><path d="M 12.3125 -6.265625 C 12.3125 -10.1875 9.625 -12.484375 5.28125 -12.484375 L 1.453125 -12.484375 L 1.453125 0 L 5.234375 0 C 9.640625 0 12.3125 -2.546875 12.3125 -6.265625 Z M 9.671875 -6.265625 C 9.671875 -3.8125 7.890625 -2.4375 5.3125 -2.4375 L 4.03125 -2.4375 L 4.03125 -10.046875 L 5.34375 -10.046875 C 7.796875 -10.046875 9.671875 -8.71875 9.671875 -6.265625 Z M 9.671875 -6.265625 "/></g></g></g><g fill="#423e3e" fill-opacity="1"><g transform="translate(97.196097, 169.449417)"><g><path d="M 3.3125 -6.25 C 3.3125 -8.515625 5.046875 -10.234375 7.15625 -10.234375 C 9.171875 -10.234375 10.140625 -8.96875 10.5 -8.03125 L 12.78125 -9.140625 C 12.21875 -10.703125 10.375 -12.671875 7.1875 -12.671875 C 3.640625 -12.671875 0.6875 -9.859375 0.6875 -6.234375 C 0.6875 -2.671875 3.296875 0.1875 7.15625 0.1875 C 10.203125 0.1875 13.0625 -1.84375 13.0625 -5.734375 L 13.0625 -6.703125 L 6.578125 -6.703125 L 6.578125 -4.359375 L 10.375 -4.359375 C 10.078125 -3.140625 8.84375 -2.265625 7.15625 -2.265625 C 4.890625 -2.265625 3.3125 -4.078125 3.3125 -6.25 Z M 3.3125 -6.25 "/></g></g></g><g fill="#423e3e" fill-opacity="1"><g transform="translate(110.855134, 169.449417)"><g><path d="M 1.453125 -12.484375 L 1.453125 0 L 9.65625 0 L 9.65625 -2.40625 L 4 -2.40625 L 4 -5.09375 L 9.03125 -5.09375 L 9.03125 -7.515625 L 4 -7.515625 L 4 -10.0625 L 9.625 -10.0625 L 9.625 -12.484375 Z M 1.453125 -12.484375 "/></g></g></g><g fill="#423e3e" fill-opacity="1"><g transform="translate(121.422165, 169.449417)"><g/></g></g><g fill="#423e3e" fill-opacity="1"><g transform="translate(125.422651, 169.449417)"><g><path d="M 3.3125 -6.25 C 3.3125 -8.515625 5.046875 -10.234375 7.15625 -10.234375 C 9.171875 -10.234375 10.140625 -8.96875 10.5 -8.03125 L 12.78125 -9.140625 C 12.21875 -10.703125 10.375 -12.671875 7.1875 -12.671875 C 3.640625 -12.671875 0.6875 -9.859375 0.6875 -6.234375 C 0.6875 -2.671875 3.296875 0.1875 7.15625 0.1875 C 10.203125 0.1875 13.0625 -1.84375 13.0625 -5.734375 L 13.0625 -6.703125 L 6.578125 -6.703125 L 6.578125 -4.359375 L 10.375 -4.359375 C 10.078125 -3.140625 8.84375 -2.265625 7.15625 -2.265625 C 4.890625 -2.265625 3.3125 -4.078125 3.3125 -6.25 Z M 3.3125 -6.25 "/></g></g></g><g fill="#423e3e" fill-opacity="1"><g transform="translate(139.081688, 169.449417)"><g><path d="M 11.046875 0 L 8.21875 -4.875 C 9.90625 -5.484375 10.796875 -6.734375 10.796875 -8.53125 C 10.796875 -11.171875 8.796875 -12.484375 6.375 -12.484375 L 1.453125 -12.484375 L 1.453125 0 L 4.03125 0 L 4.03125 -4.484375 L 5.59375 -4.484375 L 8.171875 0 Z M 6.1875 -6.875 L 4.03125 -6.875 L 4.03125 -10.046875 L 6.171875 -10.046875 C 7.140625 -10.046875 8.171875 -9.671875 8.171875 -8.484375 C 8.171875 -7.296875 7.140625 -6.875 6.1875 -6.875 Z M 6.1875 -6.875 "/></g></g></g><g fill="#423e3e" fill-opacity="1"><g transform="translate(150.732516, 169.449417)"><g><path d="M 2.578125 0 L 3.5 -2.515625 L 9.03125 -2.515625 L 9.984375 0 L 12.640625 0 L 7.859375 -12.484375 L 4.75 -12.484375 L -0.015625 0 Z M 6.28125 -9.984375 L 8.15625 -4.90625 L 4.40625 -4.90625 Z M 6.28125 -9.984375 "/></g></g></g><g fill="#423e3e" fill-opacity="1"><g transform="translate(163.355566, 169.449417)"><g><path d="M 10.546875 -8.484375 C 10.546875 -11.125 8.59375 -12.484375 6.09375 -12.484375 L 1.453125 -12.484375 L 1.453125 0 L 4.03125 0 L 4.03125 -4.40625 L 6 -4.40625 C 8.609375 -4.40625 10.546875 -5.71875 10.546875 -8.484375 Z M 7.953125 -8.421875 C 7.953125 -7.25 6.90625 -6.8125 5.875 -6.8125 L 4.03125 -6.8125 L 4.03125 -10.046875 L 5.859375 -10.046875 C 6.9375 -10.046875 7.953125 -9.625 7.953125 -8.421875 Z M 7.953125 -8.421875 "/></g></g></g><g fill="#423e3e" fill-opacity="1"><g transform="translate(174.384803, 169.449417)"><g><path d="M 4.03125 -5.046875 L 9.265625 -5.046875 L 9.265625 0 L 11.84375 0 L 11.84375 -12.484375 L 9.265625 -12.484375 L 9.265625 -7.546875 L 4.03125 -7.546875 L 4.03125 -12.484375 L 1.453125 -12.484375 L 1.453125 0 L 4.03125 0 Z M 4.03125 -5.046875 "/></g></g></g><g clip-path="url(#00ff870a95)"><g clip-path="url(#52f969d5cc)"><g clip-path="url(#e14aaf5033)"><path fill="#423e3e" d="M 40.726562 13.898438 L 65.804688 14.480469 L 65.222656 39.5625 L 40.144531 38.976562 Z M 40.726562 13.898438 " fill-opacity="1" fill-rule="nonzero"/></g></g></g><g mask="url(#70eadf8a00)"><g transform="matrix(1, 0, 0, 1, 139, 82)"><g clip-path="url(#802f8d9e25)"><g clip-path="url(#a17dbce186)"><g clip-path="url(#c9da4418e4)"><g clip-path="url(#b78670ae4c)"><path fill="#423e3e" d="M 1.28125 0.46875 L 24.484375 1.007812 L 23.945312 24.210938 L 0.738281 23.671875 Z M 1.28125 0.46875 " fill-opacity="1" fill-rule="nonzero"/></g></g></g></g></g></g><path stroke-linecap="butt" transform="matrix(0.583361, 0.467035, -0.467035, 0.583361, 62.950295, 32.708643)" fill="none" stroke-linejoin="miter" d="M -0.00111389 1.498059 L 62.296362 1.502467 " stroke="#3c3b3d" stroke-width="3" stroke-opacity="1" stroke-miterlimit="4"/><path stroke-linecap="butt" transform="matrix(0.594572, -0.452676, 0.452676, 0.594572, 118.356819, 60.037869)" fill="none" stroke-linejoin="miter" d="M -0.000688231 1.49941 L 48.582849 1.500067 " stroke="#3c3b3d" stroke-width="3" stroke-opacity="1" stroke-miterlimit="4"/><path stroke-linecap="butt" transform="matrix(0.640807, 0.384445, -0.384445, 0.640807, 119.664803, 74.419168)" fill="none" stroke-linejoin="miter" d="M 0.000947974 1.497135 L 46.11267 1.501866 " stroke="#3c3b3d" stroke-width="3" stroke-opacity="1" stroke-miterlimit="4"/><path stroke-linecap="butt" transform="matrix(0, -0.747283, 0.747283, 0, 108.347057, 111.622465)" fill="none" stroke-linejoin="miter" d="M 0.00183437 1.50103 L 48.584109 1.50103 " stroke="#3c3b3d" stroke-width="3" stroke-opacity="1" stroke-miterlimit="4"/><path stroke-linecap="butt" transform="matrix(0.553324, -0.502259, 0.502259, 0.553324, 79.673437, 91.629401)" fill="none" stroke-linejoin="miter" d="M -0.00242968 1.500598 L 34.124136 1.500156 " stroke="#3c3b3d" stroke-width="3" stroke-opacity="1" stroke-miterlimit="4"/><g mask="url(#452b5d61f5)"><g transform="matrix(1, 0, 0, 1, 98, 105)"><g clip-path="url(#4c6cb48e5d)"><g clip-path="url(#ca6fa74d43)"><g clip-path="url(#0b853563f1)"><g clip-path="url(#a22f49b19e)"><path fill="#423e3e" d="M 0.617188 0.667969 L 23.074219 1.191406 L 22.550781 23.648438 L 0.09375 23.125 Z M 0.617188 0.667969 " fill-opacity="1" fill-rule="nonzero"/></g></g></g></g></g></g><g mask="url(#7d415f5a92)"><g transform="matrix(1, 0, 0, 1, 139, 22)"><g clip-path="url(#f5ac245f74)"><g clip-path="url(#b283a7f8be)"><g clip-path="url(#de1425fca8)"><g clip-path="url(#19fa8a8710)"><path fill="#f5d228" d="M 1.28125 0.46875 L 26.359375 1.050781 L 25.773438 26.132812 L 0.695312 25.546875 Z M 1.28125 0.46875 " fill-opacity="1" fill-rule="nonzero"/></g></g></g></g></g></g><g clip-path="url(#f6c7736a7e)"><g clip-path="url(#f317f76776)"><g clip-path="url(#4f39d77b20)"><path fill="#f5d228" d="M 64.839844 82.46875 L 87.515625 82.996094 L 86.988281 105.667969 L 64.3125 105.140625 Z M 64.839844 82.46875 " fill-opacity="1" fill-rule="nonzero"/></g></g></g><g clip-path="url(#a0aacc4e7f)"><g clip-path="url(#09151147eb)"><g clip-path="url(#bb0dea0301)"><path fill="#f5d228" d="M 96.535156 55.113281 L 123.265625 55.734375 L 122.644531 82.46875 L 95.910156 81.84375 Z M 96.535156 55.113281 " fill-opacity="1" fill-rule="nonzero"/></g></g></g></svg>