<svg xmlns="http://www.w3.org/2000/svg" xmlns:xlink="http://www.w3.org/1999/xlink" width="275" zoomAndPan="magnify" viewBox="0 0 206.25 187.499992" height="250" preserveAspectRatio="xMidYMid meet" version="1.0"><defs><filter x="0%" y="0%" width="100%" height="100%" id="21147c2378"><feColorMatrix values="0 0 0 0 1 0 0 0 0 1 0 0 0 0 1 0 0 0 1 0" color-interpolation-filters="sRGB"/></filter><g/><clipPath id="368cec8d84"><path d="M 6.664062 6.203125 L 198.839844 6.203125 L 198.839844 145.292969 L 6.664062 145.292969 Z M 6.664062 6.203125 " clip-rule="nonzero"/></clipPath><clipPath id="dad54649c2"><path d="M 6.664062 153.855469 L 198.839844 153.855469 L 198.839844 174.929688 L 6.664062 174.929688 Z M 6.664062 153.855469 " clip-rule="nonzero"/></clipPath><clipPath id="b5155b8e64"><path d="M 40 18 L 66 18 L 66 44 L 40 44 Z M 40 18 " clip-rule="nonzero"/></clipPath><clipPath id="afb99cd8f0"><path d="M 40.726562 18.375 L 65.804688 18.957031 L 65.222656 44.035156 L 40.144531 43.453125 Z M 40.726562 18.375 " clip-rule="nonzero"/></clipPath><clipPath id="618803d449"><path d="M 53.265625 18.664062 C 46.34375 18.503906 40.597656 23.988281 40.4375 30.914062 C 40.273438 37.839844 45.757812 43.582031 52.683594 43.746094 C 59.609375 43.90625 65.351562 38.421875 65.515625 31.496094 C 65.675781 24.570312 60.191406 18.828125 53.265625 18.664062 Z M 53.265625 18.664062 " clip-rule="nonzero"/></clipPath><mask id="f7e8b600e4"><g filter="url(#21147c2378)"><rect x="-20.625" width="247.5" fill="#000000" y="-18.749999" height="224.99999" fill-opacity="0.76"/></g></mask><clipPath id="2f217798d3"><path d="M 1 1 L 24.566406 1 L 24.566406 24.808594 L 1 24.808594 Z M 1 1 " clip-rule="nonzero"/></clipPath><clipPath id="1ad331818f"><path d="M 1.28125 0.941406 L 24.484375 1.484375 L 23.945312 24.6875 L 0.738281 24.148438 Z M 1.28125 0.941406 " clip-rule="nonzero"/></clipPath><clipPath id="6386ac04b8"><path d="M 12.882812 1.210938 C 6.472656 1.0625 1.160156 6.136719 1.011719 12.542969 C 0.859375 18.953125 5.933594 24.269531 12.339844 24.417969 C 18.75 24.566406 24.066406 19.492188 24.214844 13.085938 C 24.363281 6.675781 19.289062 1.363281 12.882812 1.210938 Z M 12.882812 1.210938 " clip-rule="nonzero"/></clipPath><clipPath id="4eda607822"><rect x="0" width="25" y="0" height="25"/></clipPath><mask id="a034426bef"><g filter="url(#21147c2378)"><rect x="-20.625" width="247.5" fill="#000000" y="-18.749999" height="224.99999" fill-opacity="0.41"/></g></mask><clipPath id="f91f316d44"><path d="M 0.0429688 0.0898438 L 23 0.0898438 L 23 23 L 0.0429688 23 Z M 0.0429688 0.0898438 " clip-rule="nonzero"/></clipPath><clipPath id="c772d44813"><path d="M 0.617188 0.144531 L 23.074219 0.667969 L 22.550781 23.121094 L 0.09375 22.597656 Z M 0.617188 0.144531 " clip-rule="nonzero"/></clipPath><clipPath id="a70d97c743"><path d="M 11.84375 0.40625 C 5.644531 0.261719 0.5 5.171875 0.355469 11.371094 C 0.210938 17.574219 5.121094 22.714844 11.324219 22.859375 C 17.523438 23.003906 22.667969 18.097656 22.8125 11.894531 C 22.957031 5.695312 18.046875 0.550781 11.84375 0.40625 Z M 11.84375 0.40625 " clip-rule="nonzero"/></clipPath><clipPath id="db5b740ce2"><rect x="0" width="24" y="0" height="24"/></clipPath><mask id="f54bfaa639"><g filter="url(#21147c2378)"><rect x="-20.625" width="247.5" fill="#000000" y="-18.749999" height="224.99999" fill-opacity="0.65"/></g></mask><clipPath id="f015389845"><path d="M 0.652344 1 L 26.476562 1 L 26.476562 26.699219 L 0.652344 26.699219 Z M 0.652344 1 " clip-rule="nonzero"/></clipPath><clipPath id="56b5cd9cb5"><path d="M 1.28125 0.945312 L 26.359375 1.527344 L 25.773438 26.605469 L 0.695312 26.023438 Z M 1.28125 0.945312 " clip-rule="nonzero"/></clipPath><clipPath id="f8a9077ee9"><path d="M 13.820312 1.234375 C 6.894531 1.074219 1.148438 6.558594 0.988281 13.484375 C 0.828125 20.410156 6.308594 26.152344 13.234375 26.316406 C 20.160156 26.476562 25.90625 20.992188 26.066406 14.066406 C 26.226562 7.140625 20.746094 1.398438 13.820312 1.234375 Z M 13.820312 1.234375 " clip-rule="nonzero"/></clipPath><clipPath id="b55dcbb9a8"><rect x="0" width="27" y="0" height="27"/></clipPath><clipPath id="645fbf7221"><path d="M 64 87 L 88 87 L 88 110 L 64 110 Z M 64 87 " clip-rule="nonzero"/></clipPath><clipPath id="98b7482d57"><path d="M 64.839844 86.941406 L 87.515625 87.46875 L 86.988281 110.144531 L 64.3125 109.617188 Z M 64.839844 86.941406 " clip-rule="nonzero"/></clipPath><clipPath id="e069877214"><path d="M 76.175781 87.207031 C 69.914062 87.0625 64.722656 92.019531 64.574219 98.28125 C 64.429688 104.542969 69.386719 109.734375 75.648438 109.882812 C 81.910156 110.027344 87.105469 105.070312 87.25 98.808594 C 87.398438 92.546875 82.4375 87.351562 76.175781 87.207031 Z M 76.175781 87.207031 " clip-rule="nonzero"/></clipPath><clipPath id="ec43cd17e1"><path d="M 96 59 L 123 59 L 123 87 L 96 87 Z M 96 59 " clip-rule="nonzero"/></clipPath><clipPath id="3b5718d393"><path d="M 96.535156 59.585938 L 123.265625 60.210938 L 122.644531 86.941406 L 95.910156 86.320312 Z M 96.535156 59.585938 " clip-rule="nonzero"/></clipPath><clipPath id="746e7931bc"><path d="M 109.902344 59.898438 C 102.519531 59.726562 96.394531 65.570312 96.222656 72.953125 C 96.050781 80.335938 101.894531 86.460938 109.277344 86.632812 C 116.660156 86.804688 122.785156 80.957031 122.957031 73.574219 C 123.128906 66.195312 117.28125 60.070312 109.902344 59.898438 Z M 109.902344 59.898438 " clip-rule="nonzero"/></clipPath></defs><g clip-path="url(#368cec8d84)"><path fill="#ececec" d="M 6.664062 6.203125 L 198.839844 6.203125 L 198.839844 145.292969 L 6.664062 145.292969 Z M 6.664062 6.203125 " fill-opacity="1" fill-rule="nonzero"/></g><g clip-path="url(#dad54649c2)"><path fill="#ffffff" d="M 6.664062 153.855469 L 198.839844 153.855469 L 198.839844 174.929688 L 6.664062 174.929688 Z M 6.664062 153.855469 " fill-opacity="1" fill-rule="nonzero"/></g><g fill="#423e3e" fill-opacity="1"><g transform="translate(7.180919, 170.74471)"><g><path d="M 4.5 -9.683594 L 10.957031 0 L 13.917969 0 L 13.917969 -14.042969 L 11.046875 -14.042969 L 11.046875 -4.878906 L 4.949219 -14.042969 L 1.632812 -14.042969 L 1.632812 0 L 4.5 0 Z M 4.5 -9.683594 "/></g></g></g><g fill="#423e3e" fill-opacity="1"><g transform="translate(22.748264, 170.74471)"><g><path d="M 0.769531 -7.011719 C 0.769531 -2.960938 4 0.214844 8.035156 0.214844 C 12.070312 0.214844 15.351562 -2.996094 15.351562 -7.085938 C 15.351562 -11.121094 12.140625 -14.257812 8.105469 -14.257812 C 4.070312 -14.257812 0.769531 -11.046875 0.769531 -7.011719 Z M 3.75 -7.03125 C 3.75 -9.453125 5.648438 -11.441406 8.070312 -11.441406 C 10.492188 -11.441406 12.394531 -9.453125 12.394531 -7.03125 C 12.394531 -4.609375 10.492188 -2.601562 8.070312 -2.601562 C 5.648438 -2.601562 3.75 -4.609375 3.75 -7.03125 Z M 3.75 -7.03125 "/></g></g></g><g fill="#423e3e" fill-opacity="1"><g transform="translate(38.871591, 170.74471)"><g><path d="M 13.863281 -7.046875 C 13.863281 -11.460938 10.832031 -14.042969 5.9375 -14.042969 L 1.632812 -14.042969 L 1.632812 0 L 5.882812 0 C 10.851562 0 13.863281 -2.871094 13.863281 -7.046875 Z M 10.886719 -7.046875 C 10.886719 -4.285156 8.878906 -2.742188 5.972656 -2.742188 L 4.539062 -2.742188 L 4.539062 -11.300781 L 6.007812 -11.300781 C 8.769531 -11.300781 10.886719 -9.808594 10.886719 -7.046875 Z M 10.886719 -7.046875 "/></g></g></g><g fill="#423e3e" fill-opacity="1"><g transform="translate(53.5422, 170.74471)"><g><path d="M 1.632812 -14.042969 L 1.632812 0 L 10.867188 0 L 10.867188 -2.707031 L 4.5 -2.707031 L 4.5 -5.738281 L 10.167969 -5.738281 L 10.167969 -8.464844 L 4.5 -8.464844 L 4.5 -11.316406 L 10.832031 -11.316406 L 10.832031 -14.042969 Z M 1.632812 -14.042969 "/></g></g></g><g fill="#423e3e" fill-opacity="1"><g transform="translate(65.432928, 170.74471)"><g/></g></g><g fill="#423e3e" fill-opacity="1"><g transform="translate(69.934548, 170.74471)"><g><path d="M 1.632812 -14.042969 L 1.632812 0 L 10.867188 0 L 10.867188 -2.707031 L 4.5 -2.707031 L 4.5 -5.738281 L 10.167969 -5.738281 L 10.167969 -8.464844 L 4.5 -8.464844 L 4.5 -11.316406 L 10.832031 -11.316406 L 10.832031 -14.042969 Z M 1.632812 -14.042969 "/></g></g></g><g fill="#423e3e" fill-opacity="1"><g transform="translate(81.825276, 170.74471)"><g><path d="M 13.863281 -7.046875 C 13.863281 -11.460938 10.832031 -14.042969 5.9375 -14.042969 L 1.632812 -14.042969 L 1.632812 0 L 5.882812 0 C 10.851562 0 13.863281 -2.871094 13.863281 -7.046875 Z M 10.886719 -7.046875 C 10.886719 -4.285156 8.878906 -2.742188 5.972656 -2.742188 L 4.539062 -2.742188 L 4.539062 -11.300781 L 6.007812 -11.300781 C 8.769531 -11.300781 10.886719 -9.808594 10.886719 -7.046875 Z M 10.886719 -7.046875 "/></g></g></g><g fill="#423e3e" fill-opacity="1"><g transform="translate(96.495885, 170.74471)"><g><path d="M 3.730469 -7.03125 C 3.730469 -9.578125 5.683594 -11.515625 8.050781 -11.515625 C 10.3125 -11.515625 11.40625 -10.097656 11.820312 -9.039062 L 14.382812 -10.292969 C 13.757812 -12.050781 11.675781 -14.257812 8.089844 -14.257812 C 4.089844 -14.257812 0.769531 -11.101562 0.769531 -7.011719 C 0.769531 -3.011719 3.710938 0.214844 8.050781 0.214844 C 11.476562 0.214844 14.707031 -2.082031 14.707031 -6.457031 L 14.707031 -7.550781 L 7.40625 -7.550781 L 7.40625 -4.914062 L 11.675781 -4.914062 C 11.335938 -3.53125 9.953125 -2.546875 8.050781 -2.546875 C 5.507812 -2.546875 3.730469 -4.589844 3.730469 -7.03125 Z M 3.730469 -7.03125 "/></g></g></g><g fill="#423e3e" fill-opacity="1"><g transform="translate(111.865942, 170.74471)"><g><path d="M 1.632812 -14.042969 L 1.632812 0 L 10.867188 0 L 10.867188 -2.707031 L 4.5 -2.707031 L 4.5 -5.738281 L 10.167969 -5.738281 L 10.167969 -8.464844 L 4.5 -8.464844 L 4.5 -11.316406 L 10.832031 -11.316406 L 10.832031 -14.042969 Z M 1.632812 -14.042969 "/></g></g></g><g fill="#423e3e" fill-opacity="1"><g transform="translate(123.75667, 170.74471)"><g/></g></g><g fill="#423e3e" fill-opacity="1"><g transform="translate(128.258291, 170.74471)"><g><path d="M 3.730469 -7.03125 C 3.730469 -9.578125 5.683594 -11.515625 8.050781 -11.515625 C 10.3125 -11.515625 11.40625 -10.097656 11.820312 -9.039062 L 14.382812 -10.292969 C 13.757812 -12.050781 11.675781 -14.257812 8.089844 -14.257812 C 4.089844 -14.257812 0.769531 -11.101562 0.769531 -7.011719 C 0.769531 -3.011719 3.710938 0.214844 8.050781 0.214844 C 11.476562 0.214844 14.707031 -2.082031 14.707031 -6.457031 L 14.707031 -7.550781 L 7.40625 -7.550781 L 7.40625 -4.914062 L 11.675781 -4.914062 C 11.335938 -3.53125 9.953125 -2.546875 8.050781 -2.546875 C 5.507812 -2.546875 3.730469 -4.589844 3.730469 -7.03125 Z M 3.730469 -7.03125 "/></g></g></g><g fill="#423e3e" fill-opacity="1"><g transform="translate(143.628348, 170.74471)"><g><path d="M 12.429688 0 L 9.253906 -5.488281 C 11.15625 -6.167969 12.140625 -7.585938 12.140625 -9.59375 C 12.140625 -12.574219 9.898438 -14.042969 7.175781 -14.042969 L 1.632812 -14.042969 L 1.632812 0 L 4.539062 0 L 4.539062 -5.039062 L 6.296875 -5.039062 L 9.199219 0 Z M 6.957031 -7.730469 L 4.539062 -7.730469 L 4.539062 -11.300781 L 6.941406 -11.300781 C 8.035156 -11.300781 9.199219 -10.886719 9.199219 -9.542969 C 9.199219 -8.214844 8.035156 -7.730469 6.957031 -7.730469 Z M 6.957031 -7.730469 "/></g></g></g><g fill="#423e3e" fill-opacity="1"><g transform="translate(156.738633, 170.74471)"><g><path d="M 2.90625 0 L 3.945312 -2.832031 L 10.167969 -2.832031 L 11.226562 0 L 14.222656 0 L 8.84375 -14.042969 L 5.34375 -14.042969 L -0.0195312 0 Z M 7.066406 -11.226562 L 9.183594 -5.523438 L 4.949219 -5.523438 Z M 7.066406 -11.226562 "/></g></g></g><g fill="#423e3e" fill-opacity="1"><g transform="translate(170.942942, 170.74471)"><g><path d="M 11.871094 -9.542969 C 11.871094 -12.519531 9.667969 -14.042969 6.851562 -14.042969 L 1.632812 -14.042969 L 1.632812 0 L 4.539062 0 L 4.539062 -4.949219 L 6.742188 -4.949219 C 9.683594 -4.949219 11.871094 -6.4375 11.871094 -9.542969 Z M 8.949219 -9.46875 C 8.949219 -8.160156 7.765625 -7.65625 6.617188 -7.65625 L 4.539062 -7.65625 L 4.539062 -11.300781 L 6.601562 -11.300781 C 7.800781 -11.300781 8.949219 -10.832031 8.949219 -9.46875 Z M 8.949219 -9.46875 "/></g></g></g><g fill="#423e3e" fill-opacity="1"><g transform="translate(183.353779, 170.74471)"><g><path d="M 4.539062 -5.683594 L 10.421875 -5.683594 L 10.421875 0 L 13.324219 0 L 13.324219 -14.042969 L 10.421875 -14.042969 L 10.421875 -8.5 L 4.539062 -8.5 L 4.539062 -14.042969 L 1.632812 -14.042969 L 1.632812 0 L 4.539062 0 Z M 4.539062 -5.683594 "/></g></g></g><g clip-path="url(#b5155b8e64)"><g clip-path="url(#afb99cd8f0)"><g clip-path="url(#618803d449)"><path fill="#423e3e" d="M 40.726562 18.375 L 65.804688 18.957031 L 65.222656 44.035156 L 40.144531 43.453125 Z M 40.726562 18.375 " fill-opacity="1" fill-rule="nonzero"/></g></g></g><g mask="url(#f7e8b600e4)"><g transform="matrix(1, 0, 0, 1, 139, 86)"><g clip-path="url(#4eda607822)"><g clip-path="url(#2f217798d3)"><g clip-path="url(#1ad331818f)"><g clip-path="url(#6386ac04b8)"><path fill="#423e3e" d="M 1.28125 0.941406 L 24.484375 1.484375 L 23.945312 24.6875 L 0.738281 24.148438 Z M 1.28125 0.941406 " fill-opacity="1" fill-rule="nonzero"/></g></g></g></g></g></g><path stroke-linecap="butt" transform="matrix(0.583361, 0.467035, -0.467035, 0.583361, 62.950295, 37.184129)" fill="none" stroke-linejoin="miter" d="M -0.000213279 1.499184 L 62.297263 1.503592 " stroke="#3c3b3d" stroke-width="3" stroke-opacity="1" stroke-miterlimit="4"/><path stroke-linecap="butt" transform="matrix(0.594572, -0.452676, 0.452676, 0.594572, 118.356819, 64.513355)" fill="none" stroke-linejoin="miter" d="M -0.00156077 1.500556 L 48.581977 1.501213 " stroke="#3c3b3d" stroke-width="3" stroke-opacity="1" stroke-miterlimit="4"/><path stroke-linecap="butt" transform="matrix(0.640807, 0.384445, -0.384445, 0.640807, 119.664803, 78.894654)" fill="none" stroke-linejoin="miter" d="M 0.001689 1.498371 L 46.110722 1.498618 " stroke="#3c3b3d" stroke-width="3" stroke-opacity="1" stroke-miterlimit="4"/><path stroke-linecap="butt" transform="matrix(0, -0.747283, 0.747283, 0, 108.347057, 116.097951)" fill="none" stroke-linejoin="miter" d="M 0.000393973 1.50103 L 48.582669 1.50103 " stroke="#3c3b3d" stroke-width="3" stroke-opacity="1" stroke-miterlimit="4"/><path stroke-linecap="butt" transform="matrix(0.553324, -0.502259, 0.502259, 0.553324, 79.673437, 96.104892)" fill="none" stroke-linejoin="miter" d="M 0.000119838 1.497789 L 34.126686 1.497347 " stroke="#3c3b3d" stroke-width="3" stroke-opacity="1" stroke-miterlimit="4"/><g mask="url(#a034426bef)"><g transform="matrix(1, 0, 0, 1, 98, 110)"><g clip-path="url(#db5b740ce2)"><g clip-path="url(#f91f316d44)"><g clip-path="url(#c772d44813)"><g clip-path="url(#a70d97c743)"><path fill="#423e3e" d="M 0.617188 0.144531 L 23.074219 0.667969 L 22.550781 23.121094 L 0.09375 22.597656 Z M 0.617188 0.144531 " fill-opacity="1" fill-rule="nonzero"/></g></g></g></g></g></g><g mask="url(#f54bfaa639)"><g transform="matrix(1, 0, 0, 1, 139, 26)"><g clip-path="url(#b55dcbb9a8)"><g clip-path="url(#f015389845)"><g clip-path="url(#56b5cd9cb5)"><g clip-path="url(#f8a9077ee9)"><path fill="#f5d228" d="M 1.28125 0.945312 L 26.359375 1.527344 L 25.773438 26.605469 L 0.695312 26.023438 Z M 1.28125 0.945312 " fill-opacity="1" fill-rule="nonzero"/></g></g></g></g></g></g><g clip-path="url(#645fbf7221)"><g clip-path="url(#98b7482d57)"><g clip-path="url(#e069877214)"><path fill="#f5d228" d="M 64.839844 86.941406 L 87.515625 87.46875 L 86.988281 110.144531 L 64.3125 109.617188 Z M 64.839844 86.941406 " fill-opacity="1" fill-rule="nonzero"/></g></g></g><g clip-path="url(#ec43cd17e1)"><g clip-path="url(#3b5718d393)"><g clip-path="url(#746e7931bc)"><path fill="#f5d228" d="M 96.535156 59.585938 L 123.265625 60.210938 L 122.644531 86.941406 L 95.910156 86.320312 Z M 96.535156 59.585938 " fill-opacity="1" fill-rule="nonzero"/></g></g></g></svg>