<svg xmlns="http://www.w3.org/2000/svg" xmlns:xlink="http://www.w3.org/1999/xlink" width="61" zoomAndPan="magnify" viewBox="0 0 45.75 30.000001" height="40" preserveAspectRatio="xMidYMid meet" version="1.2"><defs><clipPath id="af0d5c573b"><path d="M 2.355469 9.839844 L 43.144531 9.839844 L 43.144531 18.667969 L 2.355469 18.667969 Z M 2.355469 9.839844 "/></clipPath></defs><g id="7ad7fac428"><g clip-rule="nonzero" clip-path="url(#af0d5c573b)"><path style="fill:none;stroke-width:1.734121;stroke-linecap:butt;stroke-linejoin:miter;stroke:#e4e2df;stroke-opacity:1;stroke-miterlimit:4;" d="M 0.00107847 0.000091302 L 10.547301 0.000091302 L 10.547301 48.727373 L 0.00107847 48.727373 Z M 0.00107847 0.000091302 " transform="matrix(0,0.837089,-0.837089,0,43.144608,9.838941)"/></g><g style="fill:#808080;fill-opacity:1;"><g transform="translate(5.885907, 16.614512)"><path style="stroke:none" d="M 2.171875 -4.90625 L 2.5625 -4.90625 L 2.5625 0 L 1.953125 0 L 1.953125 -3.828125 C 1.804688 -3.679688 1.617188 -3.539062 1.390625 -3.40625 C 1.171875 -3.269531 0.960938 -3.164062 0.765625 -3.09375 L 0.765625 -3.6875 C 1.078125 -3.832031 1.359375 -4.015625 1.609375 -4.234375 C 1.867188 -4.453125 2.054688 -4.675781 2.171875 -4.90625 Z M 2.171875 -4.90625 "/></g></g><g style="fill:#808080;fill-opacity:1;"><g transform="translate(10.874423, 16.614512)"><path style="stroke:none" d="M 1.890625 -4.90625 C 2.203125 -4.90625 2.472656 -4.84375 2.703125 -4.71875 C 2.929688 -4.601562 3.101562 -4.445312 3.21875 -4.25 C 3.34375 -4.050781 3.40625 -3.828125 3.40625 -3.578125 C 3.40625 -3.316406 3.34375 -3.070312 3.21875 -2.84375 C 3.09375 -2.613281 2.9375 -2.40625 2.75 -2.21875 C 2.5625 -2.03125 2.320312 -1.816406 2.03125 -1.578125 C 1.738281 -1.328125 1.519531 -1.132812 1.375 -1 C 1.226562 -0.863281 1.113281 -0.722656 1.03125 -0.578125 L 3.421875 -0.578125 L 3.421875 0 L 0.1875 0 C 0.1875 -0.28125 0.289062 -0.5625 0.5 -0.84375 C 0.707031 -1.132812 0.984375 -1.425781 1.328125 -1.71875 C 1.679688 -2.007812 1.957031 -2.25 2.15625 -2.4375 C 2.351562 -2.625 2.507812 -2.8125 2.625 -3 C 2.738281 -3.1875 2.796875 -3.375 2.796875 -3.5625 C 2.796875 -3.8125 2.707031 -4.015625 2.53125 -4.171875 C 2.363281 -4.335938 2.148438 -4.421875 1.890625 -4.421875 C 1.609375 -4.421875 1.375 -4.335938 1.1875 -4.171875 C 1.007812 -4.003906 0.921875 -3.753906 0.921875 -3.421875 L 0.3125 -3.5 C 0.351562 -3.957031 0.507812 -4.304688 0.78125 -4.546875 C 1.0625 -4.785156 1.429688 -4.90625 1.890625 -4.90625 Z M 1.890625 -4.90625 "/></g></g><g style="fill:#808080;fill-opacity:1;"><g transform="translate(15.86294, 16.614512)"><path style="stroke:none" d="M 1.828125 -4.90625 C 2.097656 -4.90625 2.34375 -4.847656 2.5625 -4.734375 C 2.78125 -4.617188 2.945312 -4.46875 3.0625 -4.28125 C 3.1875 -4.09375 3.25 -3.890625 3.25 -3.671875 C 3.25 -3.203125 3.03125 -2.863281 2.59375 -2.65625 C 2.882812 -2.582031 3.109375 -2.4375 3.265625 -2.21875 C 3.421875 -2.007812 3.5 -1.769531 3.5 -1.5 C 3.5 -1.175781 3.421875 -0.894531 3.265625 -0.65625 C 3.117188 -0.414062 2.921875 -0.234375 2.671875 -0.109375 C 2.429688 0.015625 2.175781 0.078125 1.90625 0.078125 C 1.445312 0.078125 1.070312 -0.046875 0.78125 -0.296875 C 0.5 -0.546875 0.335938 -0.878906 0.296875 -1.296875 L 0.90625 -1.375 C 0.957031 -1.050781 1.066406 -0.804688 1.234375 -0.640625 C 1.398438 -0.484375 1.609375 -0.40625 1.859375 -0.40625 C 2.046875 -0.40625 2.210938 -0.445312 2.359375 -0.53125 C 2.515625 -0.625 2.632812 -0.75 2.71875 -0.90625 C 2.8125 -1.070312 2.859375 -1.265625 2.859375 -1.484375 C 2.859375 -1.628906 2.820312 -1.769531 2.75 -1.90625 C 2.675781 -2.039062 2.566406 -2.148438 2.421875 -2.234375 C 2.273438 -2.328125 2.109375 -2.375 1.921875 -2.375 C 1.828125 -2.375 1.753906 -2.367188 1.703125 -2.359375 C 1.648438 -2.359375 1.578125 -2.34375 1.484375 -2.3125 L 1.546875 -2.84375 L 1.65625 -2.828125 C 1.925781 -2.828125 2.15625 -2.898438 2.34375 -3.046875 C 2.539062 -3.191406 2.640625 -3.398438 2.640625 -3.671875 C 2.640625 -3.890625 2.5625 -4.066406 2.40625 -4.203125 C 2.257812 -4.347656 2.070312 -4.421875 1.84375 -4.421875 C 1.601562 -4.421875 1.40625 -4.34375 1.25 -4.1875 C 1.101562 -4.03125 1.007812 -3.8125 0.96875 -3.53125 L 0.359375 -3.640625 C 0.429688 -4.046875 0.597656 -4.359375 0.859375 -4.578125 C 1.117188 -4.796875 1.441406 -4.90625 1.828125 -4.90625 Z M 1.828125 -4.90625 "/></g></g></g></svg>