<svg xmlns="http://www.w3.org/2000/svg" xmlns:xlink="http://www.w3.org/1999/xlink" width="275" zoomAndPan="magnify" viewBox="0 0 206.25 187.499992" height="250" preserveAspectRatio="xMidYMid meet" version="1.0"><defs><g/><clipPath id="de4c271759"><path d="M 6.664062 6.203125 L 198.839844 6.203125 L 198.839844 145.292969 L 6.664062 145.292969 Z M 6.664062 6.203125 " clip-rule="nonzero"/></clipPath><clipPath id="3e3d926b13"><path d="M 11.84375 151.675781 L 194.117188 151.675781 L 194.117188 179.699219 L 11.84375 179.699219 Z M 11.84375 151.675781 " clip-rule="nonzero"/></clipPath><clipPath id="64e6692a38"><path d="M 24.304688 60.121094 L 181.214844 60.121094 L 181.214844 90.480469 L 24.304688 90.480469 Z M 24.304688 60.121094 " clip-rule="nonzero"/></clipPath></defs><g clip-path="url(#de4c271759)"><path fill="#ececec" d="M 6.664062 6.203125 L 198.839844 6.203125 L 198.839844 145.292969 L 6.664062 145.292969 Z M 6.664062 6.203125 " fill-opacity="1" fill-rule="nonzero"/></g><g clip-path="url(#3e3d926b13)"><path fill="#ffffff" d="M 11.84375 151.675781 L 194.117188 151.675781 L 194.117188 179.699219 L 11.84375 179.699219 Z M 11.84375 151.675781 " fill-opacity="1" fill-rule="nonzero"/></g><g fill="#423e3e" fill-opacity="1"><g transform="translate(18.477729, 172.139648)"><g><path d="M 4.75 -10.222656 L 11.566406 0 L 14.6875 0 L 14.6875 -14.820312 L 11.660156 -14.820312 L 11.660156 -5.148438 L 5.222656 -14.820312 L 1.722656 -14.820312 L 1.722656 0 L 4.75 0 Z M 4.75 -10.222656 "/></g></g></g><g fill="#423e3e" fill-opacity="1"><g transform="translate(34.906623, 172.139648)"><g><path d="M 13.476562 -5.980469 L 13.476562 -14.820312 L 10.449219 -14.820312 L 10.449219 -5.867188 C 10.449219 -3.992188 9.40625 -2.746094 7.515625 -2.746094 C 5.90625 -2.746094 4.636719 -3.746094 4.636719 -5.945312 L 4.65625 -14.820312 L 1.570312 -14.820312 L 1.570312 -5.867188 C 1.570312 -2.289062 3.386719 0.207031 7.496094 0.207031 C 11.507812 0.207031 13.476562 -2.195312 13.476562 -5.980469 Z M 13.476562 -5.980469 "/></g></g></g><g fill="#423e3e" fill-opacity="1"><g transform="translate(49.953816, 172.139648)"><g><path d="M 15.03125 -9.785156 L 15.046875 -9.785156 L 15.046875 0 L 18.078125 0 L 18.078125 -14.820312 L 14.007812 -14.820312 L 9.878906 -4.882812 L 5.679688 -14.820312 L 1.722656 -14.820312 L 1.722656 0 L 4.730469 0 L 4.730469 -9.710938 L 4.75 -9.710938 L 8.859375 0 L 10.902344 0 Z M 15.03125 -9.785156 "/></g></g></g><g fill="#423e3e" fill-opacity="1"><g transform="translate(69.751764, 172.139648)"><g><path d="M 1.722656 -14.820312 L 1.722656 0 L 11.472656 0 L 11.472656 -2.859375 L 4.75 -2.859375 L 4.75 -6.058594 L 10.734375 -6.058594 L 10.734375 -8.933594 L 4.75 -8.933594 L 4.75 -11.945312 L 11.433594 -11.945312 L 11.433594 -14.820312 Z M 1.722656 -14.820312 "/></g></g></g><g fill="#423e3e" fill-opacity="1"><g transform="translate(82.300561, 172.139648)"><g><path d="M 13.117188 0 L 9.765625 -5.792969 C 11.773438 -6.511719 12.816406 -8.007812 12.816406 -10.125 C 12.816406 -13.269531 10.449219 -14.820312 7.570312 -14.820312 L 1.722656 -14.820312 L 1.722656 0 L 4.789062 0 L 4.789062 -5.320312 L 6.644531 -5.320312 L 9.710938 0 Z M 7.34375 -8.160156 L 4.789062 -8.160156 L 4.789062 -11.925781 L 7.324219 -11.925781 C 8.480469 -11.925781 9.710938 -11.488281 9.710938 -10.070312 C 9.710938 -8.667969 8.480469 -8.160156 7.34375 -8.160156 Z M 7.34375 -8.160156 "/></g></g></g><g fill="#423e3e" fill-opacity="1"><g transform="translate(96.136406, 172.139648)"><g><path d="M 4.789062 -14.820312 L 1.722656 -14.820312 L 1.722656 0 L 4.789062 0 Z M 4.789062 -14.820312 "/></g></g></g><g fill="#423e3e" fill-opacity="1"><g transform="translate(102.666325, 172.139648)"><g><path d="M 0.8125 -7.402344 C 0.8125 -3.085938 4.125 0.207031 8.441406 0.207031 C 11.355469 0.207031 14.253906 -1.402344 15.277344 -4.203125 L 12.453125 -5.507812 C 11.8125 -3.898438 10.335938 -2.761719 8.480469 -2.761719 C 5.847656 -2.761719 3.992188 -4.863281 3.992188 -7.4375 C 3.992188 -9.976562 5.90625 -12.058594 8.480469 -12.058594 C 10.335938 -12.058594 11.792969 -11.015625 12.417969 -9.386719 L 15.21875 -10.675781 C 14.214844 -13.457031 11.414062 -15.046875 8.5 -15.046875 C 4.257812 -15.046875 0.8125 -11.679688 0.8125 -7.402344 Z M 0.8125 -7.402344 "/></g></g></g><g fill="#423e3e" fill-opacity="1"><g transform="translate(118.413833, 172.139648)"><g/></g></g><g fill="#423e3e" fill-opacity="1"><g transform="translate(123.164578, 172.139648)"><g><path d="M 4.789062 -14.820312 L 1.722656 -14.820312 L 1.722656 0 L 4.789062 0 Z M 4.789062 -14.820312 "/></g></g></g><g fill="#423e3e" fill-opacity="1"><g transform="translate(129.694498, 172.139648)"><g><path d="M 4.75 -10.222656 L 11.566406 0 L 14.6875 0 L 14.6875 -14.820312 L 11.660156 -14.820312 L 11.660156 -5.148438 L 5.222656 -14.820312 L 1.722656 -14.820312 L 1.722656 0 L 4.75 0 Z M 4.75 -10.222656 "/></g></g></g><g fill="#423e3e" fill-opacity="1"><g transform="translate(146.123391, 172.139648)"><g><path d="M 12.53125 -10.070312 C 12.53125 -13.210938 10.203125 -14.820312 7.230469 -14.820312 L 1.722656 -14.820312 L 1.722656 0 L 4.789062 0 L 4.789062 -5.222656 L 7.117188 -5.222656 C 10.222656 -5.222656 12.53125 -6.796875 12.53125 -10.070312 Z M 9.445312 -9.996094 C 9.445312 -8.613281 8.195312 -8.082031 6.984375 -8.082031 L 4.789062 -8.082031 L 4.789062 -11.925781 L 6.964844 -11.925781 C 8.234375 -11.925781 9.445312 -11.433594 9.445312 -9.996094 Z M 9.445312 -9.996094 "/></g></g></g><g fill="#423e3e" fill-opacity="1"><g transform="translate(159.221076, 172.139648)"><g><path d="M 13.476562 -5.980469 L 13.476562 -14.820312 L 10.449219 -14.820312 L 10.449219 -5.867188 C 10.449219 -3.992188 9.40625 -2.746094 7.515625 -2.746094 C 5.90625 -2.746094 4.636719 -3.746094 4.636719 -5.945312 L 4.65625 -14.820312 L 1.570312 -14.820312 L 1.570312 -5.867188 C 1.570312 -2.289062 3.386719 0.207031 7.496094 0.207031 C 11.507812 0.207031 13.476562 -2.195312 13.476562 -5.980469 Z M 13.476562 -5.980469 "/></g></g></g><g fill="#423e3e" fill-opacity="1"><g transform="translate(174.268268, 172.139648)"><g><path d="M 4.847656 0 L 7.894531 0 L 7.894531 -11.847656 L 12.339844 -11.847656 L 12.339844 -14.820312 L 0.398438 -14.820312 L 0.398438 -11.847656 L 4.847656 -11.847656 Z M 4.847656 0 "/></g></g></g><g clip-path="url(#64e6692a38)"><path stroke-linecap="butt" transform="matrix(0, 0.747283, -0.747283, 0, 181.216274, 60.120443)" fill="none" stroke-linejoin="miter" d="M 0.000871124 0.0019136 L 40.627236 0.0019136 L 40.627236 210.012831 L 0.000871124 210.012831 Z M 0.000871124 0.0019136 " stroke="#a6a6a6" stroke-width="4" stroke-opacity="1" stroke-miterlimit="4"/></g><g fill="#423e3e" fill-opacity="1"><g transform="translate(36.444811, 83.40516)"><g><path d="M 7.453125 -16.859375 L 8.796875 -16.859375 L 8.796875 0 L 6.734375 0 L 6.734375 -13.140625 C 6.210938 -12.648438 5.566406 -12.171875 4.796875 -11.703125 C 4.023438 -11.242188 3.296875 -10.890625 2.609375 -10.640625 L 2.609375 -12.640625 C 3.703125 -13.160156 4.6875 -13.796875 5.5625 -14.546875 C 6.445312 -15.304688 7.078125 -16.078125 7.453125 -16.859375 Z M 7.453125 -16.859375 "/></g></g></g><g fill="#423e3e" fill-opacity="1"><g transform="translate(53.587003, 83.40516)"><g><path d="M 6.5 -16.859375 C 7.5625 -16.859375 8.484375 -16.65625 9.265625 -16.25 C 10.054688 -15.84375 10.664062 -15.289062 11.09375 -14.59375 C 11.519531 -13.90625 11.734375 -13.140625 11.734375 -12.296875 C 11.734375 -11.398438 11.507812 -10.550781 11.0625 -9.75 C 10.613281 -8.957031 10.066406 -8.238281 9.421875 -7.59375 C 8.785156 -6.957031 7.96875 -6.222656 6.96875 -5.390625 C 5.96875 -4.566406 5.21875 -3.914062 4.71875 -3.4375 C 4.21875 -2.957031 3.816406 -2.46875 3.515625 -1.96875 L 11.75 -1.96875 L 11.75 0 L 0.65625 0 C 0.65625 -0.957031 1.003906 -1.929688 1.703125 -2.921875 C 2.410156 -3.910156 3.367188 -4.90625 4.578125 -5.90625 C 5.773438 -6.90625 6.71875 -7.726562 7.40625 -8.375 C 8.09375 -9.03125 8.628906 -9.671875 9.015625 -10.296875 C 9.410156 -10.929688 9.609375 -11.582031 9.609375 -12.25 C 9.609375 -13.09375 9.3125 -13.789062 8.71875 -14.34375 C 8.125 -14.894531 7.375 -15.171875 6.46875 -15.171875 C 5.53125 -15.171875 4.75 -14.882812 4.125 -14.3125 C 3.5 -13.75 3.179688 -12.90625 3.171875 -11.78125 L 1.0625 -12.015625 C 1.195312 -13.585938 1.738281 -14.785156 2.6875 -15.609375 C 3.644531 -16.441406 4.914062 -16.859375 6.5 -16.859375 Z M 6.5 -16.859375 "/></g></g></g><g fill="#423e3e" fill-opacity="1"><g transform="translate(70.729195, 83.40516)"><g><path d="M 6.28125 -16.859375 C 7.207031 -16.859375 8.046875 -16.660156 8.796875 -16.265625 C 9.546875 -15.878906 10.128906 -15.363281 10.546875 -14.71875 C 10.972656 -14.070312 11.1875 -13.375 11.1875 -12.625 C 11.1875 -10.988281 10.421875 -9.8125 8.890625 -9.09375 C 9.898438 -8.863281 10.675781 -8.378906 11.21875 -7.640625 C 11.757812 -6.910156 12.03125 -6.078125 12.03125 -5.140625 C 12.03125 -4.046875 11.765625 -3.085938 11.234375 -2.265625 C 10.710938 -1.441406 10.03125 -0.8125 9.1875 -0.375 C 8.34375 0.0625 7.460938 0.28125 6.546875 0.28125 C 4.984375 0.28125 3.707031 -0.144531 2.71875 -1 C 1.738281 -1.863281 1.175781 -3.007812 1.03125 -4.4375 L 3.09375 -4.71875 C 3.300781 -3.625 3.6875 -2.796875 4.25 -2.234375 C 4.8125 -1.679688 5.519531 -1.40625 6.375 -1.40625 C 7.019531 -1.40625 7.601562 -1.554688 8.125 -1.859375 C 8.644531 -2.171875 9.054688 -2.601562 9.359375 -3.15625 C 9.671875 -3.707031 9.828125 -4.359375 9.828125 -5.109375 C 9.828125 -5.609375 9.695312 -6.09375 9.4375 -6.5625 C 9.175781 -7.03125 8.800781 -7.410156 8.3125 -7.703125 C 7.820312 -8.003906 7.25 -8.15625 6.59375 -8.15625 C 6.28125 -8.15625 6.035156 -8.144531 5.859375 -8.125 C 5.691406 -8.101562 5.441406 -8.046875 5.109375 -7.953125 L 5.328125 -9.75 L 5.703125 -9.734375 C 6.617188 -9.734375 7.410156 -9.984375 8.078125 -10.484375 C 8.742188 -10.984375 9.078125 -11.6875 9.078125 -12.59375 C 9.078125 -13.34375 8.8125 -13.957031 8.28125 -14.4375 C 7.757812 -14.925781 7.109375 -15.171875 6.328125 -15.171875 C 5.503906 -15.171875 4.828125 -14.90625 4.296875 -14.375 C 3.773438 -13.84375 3.445312 -13.101562 3.3125 -12.15625 L 1.25 -12.5 C 1.5 -13.894531 2.066406 -14.96875 2.953125 -15.71875 C 3.847656 -16.476562 4.957031 -16.859375 6.28125 -16.859375 Z M 6.28125 -16.859375 "/></g></g></g></svg>