<svg xmlns="http://www.w3.org/2000/svg" xmlns:xlink="http://www.w3.org/1999/xlink" width="300" zoomAndPan="magnify" viewBox="0 0 224.87999 168.749997" height="225" preserveAspectRatio="xMidYMid meet" version="1.0"><defs><g/><clipPath id="332d64aac5"><path d="M 5.984375 6.058594 L 219.1875 6.058594 L 219.1875 162.441406 L 5.984375 162.441406 Z M 5.984375 6.058594 " clip-rule="nonzero"/></clipPath><clipPath id="fb996fddec"><path d="M 32.46875 58.511719 L 194.140625 58.511719 L 194.140625 89.792969 L 32.46875 89.792969 Z M 32.46875 58.511719 " clip-rule="nonzero"/></clipPath></defs><g clip-path="url(#332d64aac5)"><path fill="#ececec" d="M 5.984375 6.058594 L 219.179688 6.058594 L 219.179688 162.441406 L 5.984375 162.441406 Z M 5.984375 6.058594 " fill-opacity="1" fill-rule="nonzero"/></g><g fill="#423e3e" fill-opacity="1"><g transform="translate(27.993059, 145.878573)"><g><path d="M 4.765625 -10.25 L 4.765625 0 L 1.71875 0 L 1.71875 -14.859375 L 5.234375 -14.859375 L 11.6875 -5.15625 L 11.6875 -14.859375 L 14.71875 -14.859375 L 14.71875 0 L 11.59375 0 Z M 4.765625 -10.25 "/></g></g></g><g fill="#423e3e" fill-opacity="1"><g transform="translate(44.457302, 145.878573)"><g><path d="M 13.5 -6 C 13.5 -4.726562 13.273438 -3.628906 12.828125 -2.703125 C 12.390625 -1.773438 11.726562 -1.054688 10.84375 -0.546875 C 9.957031 -0.046875 8.847656 0.203125 7.515625 0.203125 C 6.148438 0.203125 5.023438 -0.0507812 4.140625 -0.5625 C 3.265625 -1.082031 2.617188 -1.800781 2.203125 -2.71875 C 1.785156 -3.632812 1.578125 -4.6875 1.578125 -5.875 L 1.578125 -14.859375 L 4.671875 -14.859375 L 4.640625 -5.953125 C 4.640625 -4.859375 4.914062 -4.050781 5.46875 -3.53125 C 6.03125 -3.007812 6.71875 -2.75 7.53125 -2.75 C 8.476562 -2.75 9.203125 -3.035156 9.703125 -3.609375 C 10.210938 -4.191406 10.46875 -4.945312 10.46875 -5.875 L 10.46875 -14.859375 L 13.5 -14.859375 Z M 13.5 -6 "/></g></g></g><g fill="#423e3e" fill-opacity="1"><g transform="translate(59.536871, 145.878573)"><g><path d="M 15.0625 -9.8125 L 10.921875 0 L 8.875 0 L 4.765625 -9.734375 L 4.75 -9.734375 L 4.75 0 L 1.71875 0 L 1.71875 -14.859375 L 5.6875 -14.859375 L 9.90625 -4.890625 L 14.03125 -14.859375 L 18.109375 -14.859375 L 18.109375 0 L 15.078125 0 L 15.078125 -9.8125 Z M 15.0625 -9.8125 "/></g></g></g><g fill="#423e3e" fill-opacity="1"><g transform="translate(79.377419, 145.878573)"><g><path d="M 1.71875 -14.859375 L 11.453125 -14.859375 L 11.453125 -11.96875 L 4.765625 -11.96875 L 4.765625 -8.953125 L 10.75 -8.953125 L 10.75 -6.0625 L 4.765625 -6.0625 L 4.765625 -2.859375 L 11.5 -2.859375 L 11.5 0 L 1.71875 0 Z M 1.71875 -14.859375 "/></g></g></g><g fill="#423e3e" fill-opacity="1"><g transform="translate(91.953216, 145.878573)"><g><path d="M 13.140625 0 L 9.734375 0 L 6.65625 -5.328125 L 4.796875 -5.328125 L 4.796875 0 L 1.71875 0 L 1.71875 -14.859375 L 7.59375 -14.859375 C 8.550781 -14.859375 9.425781 -14.679688 10.21875 -14.328125 C 11.019531 -13.984375 11.65625 -13.460938 12.125 -12.765625 C 12.601562 -12.066406 12.84375 -11.191406 12.84375 -10.140625 C 12.84375 -7.984375 11.820312 -6.535156 9.78125 -5.796875 Z M 7.359375 -8.171875 C 7.734375 -8.171875 8.101562 -8.234375 8.46875 -8.359375 C 8.84375 -8.492188 9.144531 -8.695312 9.375 -8.96875 C 9.613281 -9.25 9.734375 -9.625 9.734375 -10.09375 C 9.734375 -10.570312 9.613281 -10.941406 9.375 -11.203125 C 9.132812 -11.472656 8.832031 -11.664062 8.46875 -11.78125 C 8.101562 -11.894531 7.726562 -11.953125 7.34375 -11.953125 L 4.796875 -11.953125 L 4.796875 -8.171875 Z M 7.359375 -8.171875 "/></g></g></g><g fill="#423e3e" fill-opacity="1"><g transform="translate(105.818831, 145.878573)"><g><path d="M 4.796875 -14.859375 L 4.796875 0 L 1.71875 0 L 1.71875 -14.859375 Z M 4.796875 -14.859375 "/></g></g></g><g fill="#423e3e" fill-opacity="1"><g transform="translate(112.362801, 145.878573)"><g><path d="M 0.8125 -7.421875 C 0.8125 -8.492188 1.007812 -9.492188 1.40625 -10.421875 C 1.8125 -11.347656 2.367188 -12.160156 3.078125 -12.859375 C 3.785156 -13.554688 4.601562 -14.097656 5.53125 -14.484375 C 6.457031 -14.878906 7.453125 -15.078125 8.515625 -15.078125 C 9.492188 -15.078125 10.429688 -14.90625 11.328125 -14.5625 C 12.234375 -14.226562 13.03125 -13.734375 13.71875 -13.078125 C 14.40625 -12.429688 14.914062 -11.640625 15.25 -10.703125 L 12.4375 -9.40625 C 12.125 -10.226562 11.625 -10.878906 10.9375 -11.359375 C 10.25 -11.835938 9.4375 -12.078125 8.5 -12.078125 C 7.632812 -12.078125 6.863281 -11.867188 6.1875 -11.453125 C 5.507812 -11.035156 4.972656 -10.472656 4.578125 -9.765625 C 4.191406 -9.066406 4 -8.296875 4 -7.453125 C 4 -6.597656 4.191406 -5.816406 4.578125 -5.109375 C 4.960938 -4.398438 5.492188 -3.832031 6.171875 -3.40625 C 6.847656 -2.976562 7.625 -2.765625 8.5 -2.765625 C 9.4375 -2.765625 10.253906 -3.019531 10.953125 -3.53125 C 11.648438 -4.050781 12.160156 -4.710938 12.484375 -5.515625 L 15.3125 -4.21875 C 14.96875 -3.28125 14.441406 -2.476562 13.734375 -1.8125 C 13.023438 -1.15625 12.210938 -0.65625 11.296875 -0.3125 C 10.378906 0.03125 9.429688 0.203125 8.453125 0.203125 C 7.378906 0.203125 6.378906 0.0078125 5.453125 -0.375 C 4.523438 -0.757812 3.710938 -1.296875 3.015625 -1.984375 C 2.316406 -2.671875 1.773438 -3.476562 1.390625 -4.40625 C 1.003906 -5.332031 0.8125 -6.335938 0.8125 -7.421875 Z M 0.8125 -7.421875 "/></g></g></g><g fill="#423e3e" fill-opacity="1"><g transform="translate(128.144192, 145.878573)"><g/></g></g><g fill="#423e3e" fill-opacity="1"><g transform="translate(132.905159, 145.878573)"><g><path d="M 4.796875 -14.859375 L 4.796875 0 L 1.71875 0 L 1.71875 -14.859375 Z M 4.796875 -14.859375 "/></g></g></g><g fill="#423e3e" fill-opacity="1"><g transform="translate(139.449129, 145.878573)"><g><path d="M 4.765625 -10.25 L 4.765625 0 L 1.71875 0 L 1.71875 -14.859375 L 5.234375 -14.859375 L 11.6875 -5.15625 L 11.6875 -14.859375 L 14.71875 -14.859375 L 14.71875 0 L 11.59375 0 Z M 4.765625 -10.25 "/></g></g></g><g fill="#423e3e" fill-opacity="1"><g transform="translate(155.913373, 145.878573)"><g><path d="M 12.5625 -10.09375 C 12.5625 -9 12.320312 -8.09375 11.84375 -7.375 C 11.375 -6.65625 10.726562 -6.117188 9.90625 -5.765625 C 9.09375 -5.410156 8.164062 -5.234375 7.125 -5.234375 L 4.796875 -5.234375 L 4.796875 0 L 1.71875 0 L 1.71875 -14.859375 L 7.25 -14.859375 C 8.25 -14.859375 9.144531 -14.679688 9.9375 -14.328125 C 10.738281 -13.972656 11.375 -13.441406 11.84375 -12.734375 C 12.320312 -12.023438 12.5625 -11.144531 12.5625 -10.09375 Z M 9.46875 -10.015625 C 9.46875 -10.492188 9.347656 -10.875 9.109375 -11.15625 C 8.867188 -11.445312 8.5625 -11.648438 8.1875 -11.765625 C 7.8125 -11.890625 7.410156 -11.953125 6.984375 -11.953125 L 4.796875 -11.953125 L 4.796875 -8.09375 L 7 -8.09375 C 7.40625 -8.09375 7.796875 -8.15625 8.171875 -8.28125 C 8.554688 -8.414062 8.867188 -8.625 9.109375 -8.90625 C 9.347656 -9.1875 9.46875 -9.554688 9.46875 -10.015625 Z M 9.46875 -10.015625 "/></g></g></g><g fill="#423e3e" fill-opacity="1"><g transform="translate(169.039239, 145.878573)"><g><path d="M 13.5 -6 C 13.5 -4.726562 13.273438 -3.628906 12.828125 -2.703125 C 12.390625 -1.773438 11.726562 -1.054688 10.84375 -0.546875 C 9.957031 -0.046875 8.847656 0.203125 7.515625 0.203125 C 6.148438 0.203125 5.023438 -0.0507812 4.140625 -0.5625 C 3.265625 -1.082031 2.617188 -1.800781 2.203125 -2.71875 C 1.785156 -3.632812 1.578125 -4.6875 1.578125 -5.875 L 1.578125 -14.859375 L 4.671875 -14.859375 L 4.640625 -5.953125 C 4.640625 -4.859375 4.914062 -4.050781 5.46875 -3.53125 C 6.03125 -3.007812 6.71875 -2.75 7.53125 -2.75 C 8.476562 -2.75 9.203125 -3.035156 9.703125 -3.609375 C 10.210938 -4.191406 10.46875 -4.945312 10.46875 -5.875 L 10.46875 -14.859375 L 13.5 -14.859375 Z M 13.5 -6 "/></g></g></g><g fill="#423e3e" fill-opacity="1"><g transform="translate(184.118808, 145.878573)"><g><path d="M 4.859375 0 L 4.859375 -11.875 L 0.390625 -11.875 L 0.390625 -14.859375 L 12.375 -14.859375 L 12.375 -11.875 L 7.90625 -11.875 L 7.90625 0 Z M 4.859375 0 "/></g></g></g><g clip-path="url(#fb996fddec)"><path stroke-linecap="butt" transform="matrix(0, 0.769961, -0.769961, 0, 194.141237, 58.512781)" fill="none" stroke-linejoin="miter" d="M -0.00137984 0.000794557 L 40.62567 0.000794557 L 40.62567 210.010376 L -0.00137984 210.010376 Z M -0.00137984 0.000794557 " stroke="#a6a6a6" stroke-width="3.890536" stroke-opacity="1" stroke-miterlimit="4"/></g><g fill="#423e3e" fill-opacity="1"><g transform="translate(44.976257, 82.504141)"><g><path d="M 7.6875 -17.375 L 9.0625 -17.375 L 9.0625 0 L 6.9375 0 L 6.9375 -13.53125 C 6.40625 -13.03125 5.738281 -12.539062 4.9375 -12.0625 C 4.144531 -11.59375 3.394531 -11.226562 2.6875 -10.96875 L 2.6875 -13.03125 C 3.8125 -13.5625 4.828125 -14.21875 5.734375 -15 C 6.648438 -15.78125 7.300781 -16.570312 7.6875 -17.375 Z M 7.6875 -17.375 "/></g></g></g><g fill="#423e3e" fill-opacity="1"><g transform="translate(62.638682, 82.504141)"><g><path d="M 6.703125 -17.375 C 7.796875 -17.375 8.75 -17.164062 9.5625 -16.75 C 10.375 -16.332031 10.992188 -15.765625 11.421875 -15.046875 C 11.859375 -14.328125 12.078125 -13.535156 12.078125 -12.671875 C 12.078125 -11.742188 11.847656 -10.867188 11.390625 -10.046875 C 10.929688 -9.234375 10.367188 -8.492188 9.703125 -7.828125 C 9.046875 -7.171875 8.203125 -6.414062 7.171875 -5.5625 C 6.140625 -4.707031 5.363281 -4.03125 4.84375 -3.53125 C 4.332031 -3.039062 3.925781 -2.539062 3.625 -2.03125 L 12.109375 -2.03125 L 12.109375 0 L 0.671875 0 C 0.671875 -0.976562 1.035156 -1.976562 1.765625 -3 C 2.492188 -4.03125 3.476562 -5.0625 4.71875 -6.09375 C 5.957031 -7.125 6.929688 -7.972656 7.640625 -8.640625 C 8.347656 -9.304688 8.898438 -9.96875 9.296875 -10.625 C 9.703125 -11.28125 9.90625 -11.945312 9.90625 -12.625 C 9.90625 -13.488281 9.597656 -14.207031 8.984375 -14.78125 C 8.378906 -15.351562 7.609375 -15.640625 6.671875 -15.640625 C 5.703125 -15.640625 4.894531 -15.34375 4.25 -14.75 C 3.601562 -14.164062 3.273438 -13.296875 3.265625 -12.140625 L 1.09375 -12.375 C 1.238281 -14 1.800781 -15.238281 2.78125 -16.09375 C 3.757812 -16.945312 5.066406 -17.375 6.703125 -17.375 Z M 6.703125 -17.375 "/></g></g></g><g fill="#423e3e" fill-opacity="1"><g transform="translate(80.301108, 82.504141)"><g><path d="M 6.484375 -17.375 C 7.429688 -17.375 8.289062 -17.171875 9.0625 -16.765625 C 9.832031 -16.367188 10.4375 -15.835938 10.875 -15.171875 C 11.3125 -14.503906 11.53125 -13.78125 11.53125 -13 C 11.53125 -11.320312 10.738281 -10.113281 9.15625 -9.375 C 10.207031 -9.132812 11.007812 -8.632812 11.5625 -7.875 C 12.125 -7.125 12.40625 -6.265625 12.40625 -5.296875 C 12.40625 -4.171875 12.132812 -3.179688 11.59375 -2.328125 C 11.050781 -1.484375 10.34375 -0.832031 9.46875 -0.375 C 8.601562 0.0703125 7.695312 0.296875 6.75 0.296875 C 5.132812 0.296875 3.816406 -0.144531 2.796875 -1.03125 C 1.785156 -1.925781 1.207031 -3.101562 1.0625 -4.5625 L 3.1875 -4.859375 C 3.394531 -3.734375 3.789062 -2.882812 4.375 -2.3125 C 4.957031 -1.738281 5.691406 -1.453125 6.578125 -1.453125 C 7.234375 -1.453125 7.832031 -1.609375 8.375 -1.921875 C 8.914062 -2.234375 9.34375 -2.675781 9.65625 -3.25 C 9.96875 -3.820312 10.125 -4.492188 10.125 -5.265625 C 10.125 -5.785156 9.988281 -6.285156 9.71875 -6.765625 C 9.457031 -7.253906 9.070312 -7.648438 8.5625 -7.953125 C 8.0625 -8.253906 7.472656 -8.40625 6.796875 -8.40625 C 6.472656 -8.40625 6.222656 -8.394531 6.046875 -8.375 C 5.867188 -8.351562 5.609375 -8.289062 5.265625 -8.1875 L 5.484375 -10.0625 L 5.875 -10.03125 C 6.820312 -10.03125 7.640625 -10.285156 8.328125 -10.796875 C 9.015625 -11.316406 9.359375 -12.046875 9.359375 -12.984375 C 9.359375 -13.753906 9.085938 -14.390625 8.546875 -14.890625 C 8.003906 -15.390625 7.332031 -15.640625 6.53125 -15.640625 C 5.675781 -15.640625 4.976562 -15.363281 4.4375 -14.8125 C 3.894531 -14.269531 3.550781 -13.503906 3.40625 -12.515625 L 1.28125 -12.890625 C 1.539062 -14.316406 2.128906 -15.421875 3.046875 -16.203125 C 3.960938 -16.984375 5.109375 -17.375 6.484375 -17.375 Z M 6.484375 -17.375 "/></g></g></g></svg>