<svg xmlns="http://www.w3.org/2000/svg" xmlns:xlink="http://www.w3.org/1999/xlink" width="275" zoomAndPan="magnify" viewBox="0 0 206.25 187.499992" height="250" preserveAspectRatio="xMidYMid meet" version="1.0"><defs><g/><clipPath id="fb4eb64743"><path d="M 6.664062 6.203125 L 198.839844 6.203125 L 198.839844 145.292969 L 6.664062 145.292969 Z M 6.664062 6.203125 " clip-rule="nonzero"/></clipPath><clipPath id="109deaf2c8"><path d="M 10.125 151.675781 L 195.378906 151.675781 L 195.378906 179.699219 L 10.125 179.699219 Z M 10.125 151.675781 " clip-rule="nonzero"/></clipPath><clipPath id="2a92dbbf31"><path d="M 32.484375 20.800781 L 98.023438 20.800781 L 98.023438 78.339844 L 32.484375 78.339844 Z M 32.484375 20.800781 " clip-rule="nonzero"/></clipPath><clipPath id="b1ef429851"><path d="M 32.484375 88.410156 L 98.023438 88.410156 L 98.023438 130.695312 L 32.484375 130.695312 Z M 32.484375 88.410156 " clip-rule="nonzero"/></clipPath><clipPath id="f40199e753"><path d="M 107.480469 20.800781 L 173.015625 20.800781 L 173.015625 104.910156 L 107.480469 104.910156 Z M 107.480469 20.800781 " clip-rule="nonzero"/></clipPath></defs><g clip-path="url(#fb4eb64743)"><path fill="#ececec" d="M 6.664062 6.203125 L 198.839844 6.203125 L 198.839844 145.292969 L 6.664062 145.292969 Z M 6.664062 6.203125 " fill-opacity="1" fill-rule="nonzero"/></g><g clip-path="url(#109deaf2c8)"><path fill="#ffffff" d="M 10.125 151.675781 L 195.378906 151.675781 L 195.378906 179.699219 L 10.125 179.699219 Z M 10.125 151.675781 " fill-opacity="1" fill-rule="nonzero"/></g><g fill="#423e3e" fill-opacity="1"><g transform="translate(12.732994, 170.74471)"><g><path d="M 11.871094 -9.542969 C 11.871094 -12.519531 9.667969 -14.042969 6.851562 -14.042969 L 1.632812 -14.042969 L 1.632812 0 L 4.539062 0 L 4.539062 -4.949219 L 6.742188 -4.949219 C 9.683594 -4.949219 11.871094 -6.4375 11.871094 -9.542969 Z M 8.949219 -9.46875 C 8.949219 -8.160156 7.765625 -7.65625 6.617188 -7.65625 L 4.539062 -7.65625 L 4.539062 -11.300781 L 6.601562 -11.300781 C 7.800781 -11.300781 8.949219 -10.832031 8.949219 -9.46875 Z M 8.949219 -9.46875 "/></g></g></g><g fill="#423e3e" fill-opacity="1"><g transform="translate(25.143831, 170.74471)"><g><path d="M 2.90625 0 L 3.945312 -2.832031 L 10.167969 -2.832031 L 11.226562 0 L 14.222656 0 L 8.84375 -14.042969 L 5.34375 -14.042969 L -0.0195312 0 Z M 7.066406 -11.226562 L 9.183594 -5.523438 L 4.949219 -5.523438 Z M 7.066406 -11.226562 "/></g></g></g><g fill="#423e3e" fill-opacity="1"><g transform="translate(39.34814, 170.74471)"><g><path d="M 12.429688 0 L 9.253906 -5.488281 C 11.15625 -6.167969 12.140625 -7.585938 12.140625 -9.59375 C 12.140625 -12.574219 9.898438 -14.042969 7.175781 -14.042969 L 1.632812 -14.042969 L 1.632812 0 L 4.539062 0 L 4.539062 -5.039062 L 6.296875 -5.039062 L 9.199219 0 Z M 6.957031 -7.730469 L 4.539062 -7.730469 L 4.539062 -11.300781 L 6.941406 -11.300781 C 8.035156 -11.300781 9.199219 -10.886719 9.199219 -9.542969 C 9.199219 -8.214844 8.035156 -7.730469 6.957031 -7.730469 Z M 6.957031 -7.730469 "/></g></g></g><g fill="#423e3e" fill-opacity="1"><g transform="translate(52.458425, 170.74471)"><g><path d="M 2.90625 0 L 3.945312 -2.832031 L 10.167969 -2.832031 L 11.226562 0 L 14.222656 0 L 8.84375 -14.042969 L 5.34375 -14.042969 L -0.0195312 0 Z M 7.066406 -11.226562 L 9.183594 -5.523438 L 4.949219 -5.523438 Z M 7.066406 -11.226562 "/></g></g></g><g fill="#423e3e" fill-opacity="1"><g transform="translate(66.662735, 170.74471)"><g><path d="M 14.238281 -9.273438 L 14.257812 -9.273438 L 14.257812 0 L 17.128906 0 L 17.128906 -14.042969 L 13.273438 -14.042969 L 9.363281 -4.628906 L 5.378906 -14.042969 L 1.632812 -14.042969 L 1.632812 0 L 4.484375 0 L 4.484375 -9.199219 L 4.5 -9.199219 L 8.394531 0 L 10.332031 0 Z M 14.238281 -9.273438 "/></g></g></g><g fill="#423e3e" fill-opacity="1"><g transform="translate(85.422463, 170.74471)"><g><path d="M 1.632812 -14.042969 L 1.632812 0 L 10.867188 0 L 10.867188 -2.707031 L 4.5 -2.707031 L 4.5 -5.738281 L 10.167969 -5.738281 L 10.167969 -8.464844 L 4.5 -8.464844 L 4.5 -11.316406 L 10.832031 -11.316406 L 10.832031 -14.042969 Z M 1.632812 -14.042969 "/></g></g></g><g fill="#423e3e" fill-opacity="1"><g transform="translate(97.313191, 170.74471)"><g><path d="M 4.589844 0 L 7.480469 0 L 7.480469 -11.226562 L 11.695312 -11.226562 L 11.695312 -14.042969 L 0.375 -14.042969 L 0.375 -11.226562 L 4.589844 -11.226562 Z M 4.589844 0 "/></g></g></g><g fill="#423e3e" fill-opacity="1"><g transform="translate(109.383259, 170.74471)"><g><path d="M 1.632812 -14.042969 L 1.632812 0 L 10.867188 0 L 10.867188 -2.707031 L 4.5 -2.707031 L 4.5 -5.738281 L 10.167969 -5.738281 L 10.167969 -8.464844 L 4.5 -8.464844 L 4.5 -11.316406 L 10.832031 -11.316406 L 10.832031 -14.042969 Z M 1.632812 -14.042969 "/></g></g></g><g fill="#423e3e" fill-opacity="1"><g transform="translate(121.273988, 170.74471)"><g><path d="M 12.429688 0 L 9.253906 -5.488281 C 11.15625 -6.167969 12.140625 -7.585938 12.140625 -9.59375 C 12.140625 -12.574219 9.898438 -14.042969 7.175781 -14.042969 L 1.632812 -14.042969 L 1.632812 0 L 4.539062 0 L 4.539062 -5.039062 L 6.296875 -5.039062 L 9.199219 0 Z M 6.957031 -7.730469 L 4.539062 -7.730469 L 4.539062 -11.300781 L 6.941406 -11.300781 C 8.035156 -11.300781 9.199219 -10.886719 9.199219 -9.542969 C 9.199219 -8.214844 8.035156 -7.730469 6.957031 -7.730469 Z M 6.957031 -7.730469 "/></g></g></g><g fill="#423e3e" fill-opacity="1"><g transform="translate(134.384272, 170.74471)"><g/></g></g><g fill="#423e3e" fill-opacity="1"><g transform="translate(138.885892, 170.74471)"><g><path d="M 11.871094 -9.542969 C 11.871094 -12.519531 9.667969 -14.042969 6.851562 -14.042969 L 1.632812 -14.042969 L 1.632812 0 L 4.539062 0 L 4.539062 -4.949219 L 6.742188 -4.949219 C 9.683594 -4.949219 11.871094 -6.4375 11.871094 -9.542969 Z M 8.949219 -9.46875 C 8.949219 -8.160156 7.765625 -7.65625 6.617188 -7.65625 L 4.539062 -7.65625 L 4.539062 -11.300781 L 6.601562 -11.300781 C 7.800781 -11.300781 8.949219 -10.832031 8.949219 -9.46875 Z M 8.949219 -9.46875 "/></g></g></g><g fill="#423e3e" fill-opacity="1"><g transform="translate(151.296728, 170.74471)"><g><path d="M 2.90625 0 L 3.945312 -2.832031 L 10.167969 -2.832031 L 11.226562 0 L 14.222656 0 L 8.84375 -14.042969 L 5.34375 -14.042969 L -0.0195312 0 Z M 7.066406 -11.226562 L 9.183594 -5.523438 L 4.949219 -5.523438 Z M 7.066406 -11.226562 "/></g></g></g><g fill="#423e3e" fill-opacity="1"><g transform="translate(165.501038, 170.74471)"><g><path d="M 3.730469 -7.03125 C 3.730469 -9.578125 5.683594 -11.515625 8.050781 -11.515625 C 10.3125 -11.515625 11.40625 -10.097656 11.820312 -9.039062 L 14.382812 -10.292969 C 13.757812 -12.050781 11.675781 -14.257812 8.089844 -14.257812 C 4.089844 -14.257812 0.769531 -11.101562 0.769531 -7.011719 C 0.769531 -3.011719 3.710938 0.214844 8.050781 0.214844 C 11.476562 0.214844 14.707031 -2.082031 14.707031 -6.457031 L 14.707031 -7.550781 L 7.40625 -7.550781 L 7.40625 -4.914062 L 11.675781 -4.914062 C 11.335938 -3.53125 9.953125 -2.546875 8.050781 -2.546875 C 5.507812 -2.546875 3.730469 -4.589844 3.730469 -7.03125 Z M 3.730469 -7.03125 "/></g></g></g><g fill="#423e3e" fill-opacity="1"><g transform="translate(180.871096, 170.74471)"><g><path d="M 1.632812 -14.042969 L 1.632812 0 L 10.867188 0 L 10.867188 -2.707031 L 4.5 -2.707031 L 4.5 -5.738281 L 10.167969 -5.738281 L 10.167969 -8.464844 L 4.5 -8.464844 L 4.5 -11.316406 L 10.832031 -11.316406 L 10.832031 -14.042969 Z M 1.632812 -14.042969 "/></g></g></g><g clip-path="url(#2a92dbbf31)"><path fill="#7b7b7b" d="M 32.484375 20.800781 L 98.023438 20.800781 L 98.023438 78.339844 L 32.484375 78.339844 Z M 32.484375 20.800781 " fill-opacity="1" fill-rule="nonzero"/></g><g clip-path="url(#b1ef429851)"><path fill="#f5d228" d="M 32.484375 88.410156 L 98.023438 88.410156 L 98.023438 130.695312 L 32.484375 130.695312 Z M 32.484375 88.410156 " fill-opacity="1" fill-rule="nonzero"/></g><g clip-path="url(#f40199e753)"><path fill="#ffeb87" d="M 107.480469 20.800781 L 173.015625 20.800781 L 173.015625 104.910156 L 107.480469 104.910156 Z M 107.480469 20.800781 " fill-opacity="1" fill-rule="nonzero"/></g></svg>