<svg xmlns="http://www.w3.org/2000/svg" xmlns:xlink="http://www.w3.org/1999/xlink" width="300" zoomAndPan="magnify" viewBox="0 0 224.87999 168.749997" height="225" preserveAspectRatio="xMidYMid meet" version="1.0"><defs><g/><clipPath id="1040c241fc"><path d="M 5.984375 6.058594 L 219.1875 6.058594 L 219.1875 162.441406 L 5.984375 162.441406 Z M 5.984375 6.058594 " clip-rule="nonzero"/></clipPath><clipPath id="b44de5d22a"><path d="M 55.980469 28.402344 L 108.640625 28.402344 L 108.640625 74.640625 L 55.980469 74.640625 Z M 55.980469 28.402344 " clip-rule="nonzero"/></clipPath><clipPath id="ecb98f5bf6"><path d="M 55.980469 82.730469 L 108.640625 82.730469 L 108.640625 116.710938 L 55.980469 116.710938 Z M 55.980469 82.730469 " clip-rule="nonzero"/></clipPath><clipPath id="63edab2870"><path d="M 116.242188 28.402344 L 168.898438 28.402344 L 168.898438 95.988281 L 116.242188 95.988281 Z M 116.242188 28.402344 " clip-rule="nonzero"/></clipPath></defs><g clip-path="url(#1040c241fc)"><path fill="#ececec" d="M 5.984375 6.058594 L 219.179688 6.058594 L 219.179688 162.441406 L 5.984375 162.441406 Z M 5.984375 6.058594 " fill-opacity="1" fill-rule="nonzero"/></g><g fill="#423e3e" fill-opacity="1"><g transform="translate(17.23915, 145.878556)"><g><path d="M 12.5625 -10.09375 C 12.5625 -9 12.320312 -8.09375 11.84375 -7.375 C 11.375 -6.65625 10.726562 -6.117188 9.90625 -5.765625 C 9.09375 -5.410156 8.164062 -5.234375 7.125 -5.234375 L 4.796875 -5.234375 L 4.796875 0 L 1.71875 0 L 1.71875 -14.859375 L 7.25 -14.859375 C 8.25 -14.859375 9.144531 -14.679688 9.9375 -14.328125 C 10.738281 -13.972656 11.375 -13.441406 11.84375 -12.734375 C 12.320312 -12.023438 12.5625 -11.144531 12.5625 -10.09375 Z M 9.46875 -10.015625 C 9.46875 -10.492188 9.347656 -10.875 9.109375 -11.15625 C 8.867188 -11.445312 8.5625 -11.648438 8.1875 -11.765625 C 7.8125 -11.890625 7.410156 -11.953125 6.984375 -11.953125 L 4.796875 -11.953125 L 4.796875 -8.09375 L 7 -8.09375 C 7.40625 -8.09375 7.796875 -8.15625 8.171875 -8.28125 C 8.554688 -8.414062 8.867188 -8.625 9.109375 -8.90625 C 9.347656 -9.1875 9.46875 -9.554688 9.46875 -10.015625 Z M 9.46875 -10.015625 "/></g></g></g><g fill="#423e3e" fill-opacity="1"><g transform="translate(30.365017, 145.878556)"><g><path d="M 3.078125 0 L -0.015625 0 L 5.65625 -14.859375 L 9.359375 -14.859375 L 15.046875 0 L 11.875 0 L 10.75 -3 L 4.171875 -3 Z M 7.46875 -11.875 L 5.234375 -5.84375 L 9.71875 -5.84375 Z M 7.46875 -11.875 "/></g></g></g><g fill="#423e3e" fill-opacity="1"><g transform="translate(45.387689, 145.878556)"><g><path d="M 13.140625 0 L 9.734375 0 L 6.65625 -5.328125 L 4.796875 -5.328125 L 4.796875 0 L 1.71875 0 L 1.71875 -14.859375 L 7.59375 -14.859375 C 8.550781 -14.859375 9.425781 -14.679688 10.21875 -14.328125 C 11.019531 -13.984375 11.65625 -13.460938 12.125 -12.765625 C 12.601562 -12.066406 12.84375 -11.191406 12.84375 -10.140625 C 12.84375 -7.984375 11.820312 -6.535156 9.78125 -5.796875 Z M 7.359375 -8.171875 C 7.734375 -8.171875 8.101562 -8.234375 8.46875 -8.359375 C 8.84375 -8.492188 9.144531 -8.695312 9.375 -8.96875 C 9.613281 -9.25 9.734375 -9.625 9.734375 -10.09375 C 9.734375 -10.570312 9.613281 -10.941406 9.375 -11.203125 C 9.132812 -11.472656 8.832031 -11.664062 8.46875 -11.78125 C 8.101562 -11.894531 7.726562 -11.953125 7.34375 -11.953125 L 4.796875 -11.953125 L 4.796875 -8.171875 Z M 7.359375 -8.171875 "/></g></g></g><g fill="#423e3e" fill-opacity="1"><g transform="translate(59.253305, 145.878556)"><g><path d="M 3.078125 0 L -0.015625 0 L 5.65625 -14.859375 L 9.359375 -14.859375 L 15.046875 0 L 11.875 0 L 10.75 -3 L 4.171875 -3 Z M 7.46875 -11.875 L 5.234375 -5.84375 L 9.71875 -5.84375 Z M 7.46875 -11.875 "/></g></g></g><g fill="#423e3e" fill-opacity="1"><g transform="translate(74.275977, 145.878556)"><g><path d="M 15.0625 -9.8125 L 10.921875 0 L 8.875 0 L 4.765625 -9.734375 L 4.75 -9.734375 L 4.75 0 L 1.71875 0 L 1.71875 -14.859375 L 5.6875 -14.859375 L 9.90625 -4.890625 L 14.03125 -14.859375 L 18.109375 -14.859375 L 18.109375 0 L 15.078125 0 L 15.078125 -9.8125 Z M 15.0625 -9.8125 "/></g></g></g><g fill="#423e3e" fill-opacity="1"><g transform="translate(94.116525, 145.878556)"><g><path d="M 1.71875 -14.859375 L 11.453125 -14.859375 L 11.453125 -11.96875 L 4.765625 -11.96875 L 4.765625 -8.953125 L 10.75 -8.953125 L 10.75 -6.0625 L 4.765625 -6.0625 L 4.765625 -2.859375 L 11.5 -2.859375 L 11.5 0 L 1.71875 0 Z M 1.71875 -14.859375 "/></g></g></g><g fill="#423e3e" fill-opacity="1"><g transform="translate(106.692322, 145.878556)"><g><path d="M 4.859375 0 L 4.859375 -11.875 L 0.390625 -11.875 L 0.390625 -14.859375 L 12.375 -14.859375 L 12.375 -11.875 L 7.90625 -11.875 L 7.90625 0 Z M 4.859375 0 "/></g></g></g><g fill="#423e3e" fill-opacity="1"><g transform="translate(119.457799, 145.878556)"><g><path d="M 1.71875 -14.859375 L 11.453125 -14.859375 L 11.453125 -11.96875 L 4.765625 -11.96875 L 4.765625 -8.953125 L 10.75 -8.953125 L 10.75 -6.0625 L 4.765625 -6.0625 L 4.765625 -2.859375 L 11.5 -2.859375 L 11.5 0 L 1.71875 0 Z M 1.71875 -14.859375 "/></g></g></g><g fill="#423e3e" fill-opacity="1"><g transform="translate(132.033597, 145.878556)"><g><path d="M 13.140625 0 L 9.734375 0 L 6.65625 -5.328125 L 4.796875 -5.328125 L 4.796875 0 L 1.71875 0 L 1.71875 -14.859375 L 7.59375 -14.859375 C 8.550781 -14.859375 9.425781 -14.679688 10.21875 -14.328125 C 11.019531 -13.984375 11.65625 -13.460938 12.125 -12.765625 C 12.601562 -12.066406 12.84375 -11.191406 12.84375 -10.140625 C 12.84375 -7.984375 11.820312 -6.535156 9.78125 -5.796875 Z M 7.359375 -8.171875 C 7.734375 -8.171875 8.101562 -8.234375 8.46875 -8.359375 C 8.84375 -8.492188 9.144531 -8.695312 9.375 -8.96875 C 9.613281 -9.25 9.734375 -9.625 9.734375 -10.09375 C 9.734375 -10.570312 9.613281 -10.941406 9.375 -11.203125 C 9.132812 -11.472656 8.832031 -11.664062 8.46875 -11.78125 C 8.101562 -11.894531 7.726562 -11.953125 7.34375 -11.953125 L 4.796875 -11.953125 L 4.796875 -8.171875 Z M 7.359375 -8.171875 "/></g></g></g><g fill="#423e3e" fill-opacity="1"><g transform="translate(145.899212, 145.878556)"><g/></g></g><g fill="#423e3e" fill-opacity="1"><g transform="translate(150.660179, 145.878556)"><g><path d="M 12.5625 -10.09375 C 12.5625 -9 12.320312 -8.09375 11.84375 -7.375 C 11.375 -6.65625 10.726562 -6.117188 9.90625 -5.765625 C 9.09375 -5.410156 8.164062 -5.234375 7.125 -5.234375 L 4.796875 -5.234375 L 4.796875 0 L 1.71875 0 L 1.71875 -14.859375 L 7.25 -14.859375 C 8.25 -14.859375 9.144531 -14.679688 9.9375 -14.328125 C 10.738281 -13.972656 11.375 -13.441406 11.84375 -12.734375 C 12.320312 -12.023438 12.5625 -11.144531 12.5625 -10.09375 Z M 9.46875 -10.015625 C 9.46875 -10.492188 9.347656 -10.875 9.109375 -11.15625 C 8.867188 -11.445312 8.5625 -11.648438 8.1875 -11.765625 C 7.8125 -11.890625 7.410156 -11.953125 6.984375 -11.953125 L 4.796875 -11.953125 L 4.796875 -8.09375 L 7 -8.09375 C 7.40625 -8.09375 7.796875 -8.15625 8.171875 -8.28125 C 8.554688 -8.414062 8.867188 -8.625 9.109375 -8.90625 C 9.347656 -9.1875 9.46875 -9.554688 9.46875 -10.015625 Z M 9.46875 -10.015625 "/></g></g></g><g fill="#423e3e" fill-opacity="1"><g transform="translate(163.786046, 145.878556)"><g><path d="M 3.078125 0 L -0.015625 0 L 5.65625 -14.859375 L 9.359375 -14.859375 L 15.046875 0 L 11.875 0 L 10.75 -3 L 4.171875 -3 Z M 7.46875 -11.875 L 5.234375 -5.84375 L 9.71875 -5.84375 Z M 7.46875 -11.875 "/></g></g></g><g fill="#423e3e" fill-opacity="1"><g transform="translate(178.808718, 145.878556)"><g><path d="M 3.953125 -7.4375 C 3.953125 -6.570312 4.144531 -5.78125 4.53125 -5.0625 C 4.914062 -4.34375 5.453125 -3.765625 6.140625 -3.328125 C 6.828125 -2.898438 7.617188 -2.6875 8.515625 -2.6875 C 9.523438 -2.6875 10.367188 -2.921875 11.046875 -3.390625 C 11.734375 -3.859375 12.164062 -4.460938 12.34375 -5.203125 L 7.828125 -5.203125 L 7.828125 -7.984375 L 15.546875 -7.984375 L 15.546875 -6.828125 C 15.546875 -5.679688 15.351562 -4.664062 14.96875 -3.78125 C 14.582031 -2.894531 14.054688 -2.15625 13.390625 -1.5625 C 12.734375 -0.976562 11.984375 -0.53125 11.140625 -0.21875 C 10.296875 0.0820312 9.421875 0.234375 8.515625 0.234375 C 7.367188 0.234375 6.320312 0.0351562 5.375 -0.359375 C 4.4375 -0.765625 3.625 -1.3125 2.9375 -2 C 2.257812 -2.695312 1.734375 -3.507812 1.359375 -4.4375 C 0.992188 -5.363281 0.8125 -6.359375 0.8125 -7.421875 C 0.8125 -8.503906 1.015625 -9.503906 1.421875 -10.421875 C 1.828125 -11.347656 2.382812 -12.160156 3.09375 -12.859375 C 3.8125 -13.566406 4.632812 -14.113281 5.5625 -14.5 C 6.5 -14.882812 7.5 -15.078125 8.5625 -15.078125 C 9.507812 -15.078125 10.359375 -14.945312 11.109375 -14.6875 C 11.859375 -14.425781 12.507812 -14.085938 13.0625 -13.671875 C 13.613281 -13.253906 14.066406 -12.800781 14.421875 -12.3125 C 14.785156 -11.832031 15.050781 -11.359375 15.21875 -10.890625 L 12.5 -9.5625 C 12.363281 -9.9375 12.132812 -10.328125 11.8125 -10.734375 C 11.488281 -11.140625 11.054688 -11.476562 10.515625 -11.75 C 9.984375 -12.03125 9.316406 -12.171875 8.515625 -12.171875 C 7.679688 -12.171875 6.921875 -11.960938 6.234375 -11.546875 C 5.546875 -11.128906 4.992188 -10.5625 4.578125 -9.84375 C 4.160156 -9.132812 3.953125 -8.332031 3.953125 -7.4375 Z M 3.953125 -7.4375 "/></g></g></g><g fill="#423e3e" fill-opacity="1"><g transform="translate(195.064313, 145.878556)"><g><path d="M 1.71875 -14.859375 L 11.453125 -14.859375 L 11.453125 -11.96875 L 4.765625 -11.96875 L 4.765625 -8.953125 L 10.75 -8.953125 L 10.75 -6.0625 L 4.765625 -6.0625 L 4.765625 -2.859375 L 11.5 -2.859375 L 11.5 0 L 1.71875 0 Z M 1.71875 -14.859375 "/></g></g></g><g clip-path="url(#b44de5d22a)"><path fill="#7b7b7b" d="M 55.980469 28.402344 L 108.71875 28.402344 L 108.71875 74.640625 L 55.980469 74.640625 Z M 55.980469 28.402344 " fill-opacity="1" fill-rule="nonzero"/></g><g clip-path="url(#ecb98f5bf6)"><path fill="#f5d228" d="M 55.980469 82.730469 L 108.671875 82.730469 L 108.671875 116.710938 L 55.980469 116.710938 Z M 55.980469 82.730469 " fill-opacity="1" fill-rule="nonzero"/></g><g clip-path="url(#63edab2870)"><path fill="#ffeb87" d="M 116.242188 28.402344 L 168.898438 28.402344 L 168.898438 96.078125 L 116.242188 96.078125 Z M 116.242188 28.402344 " fill-opacity="1" fill-rule="nonzero"/></g></svg>