<svg xmlns="http://www.w3.org/2000/svg" xmlns:xlink="http://www.w3.org/1999/xlink" width="300" zoomAndPan="magnify" viewBox="0 0 224.87999 168.749997" height="225" preserveAspectRatio="xMidYMid meet" version="1.0"><defs><g/><clipPath id="b6ad99cd47"><path d="M 5.984375 6.058594 L 219.1875 6.058594 L 219.1875 162.441406 L 5.984375 162.441406 Z M 5.984375 6.058594 " clip-rule="nonzero"/></clipPath><clipPath id="c42cba0978"><path d="M 53.160156 46.875 L 90.746094 46.875 L 90.746094 64.867188 L 53.160156 64.867188 Z M 53.160156 46.875 " clip-rule="nonzero"/></clipPath><clipPath id="deddcba3ea"><path d="M 93.515625 46.875 L 131.101562 46.875 L 131.101562 64.867188 L 93.515625 64.867188 Z M 93.515625 46.875 " clip-rule="nonzero"/></clipPath><clipPath id="b131b3585e"><path d="M 134.132812 46.875 L 171.71875 46.875 L 171.71875 64.867188 L 134.132812 64.867188 Z M 134.132812 46.875 " clip-rule="nonzero"/></clipPath><clipPath id="8744e34998"><path d="M 53.160156 70.09375 L 90.746094 70.09375 L 90.746094 88.089844 L 53.160156 88.089844 Z M 53.160156 70.09375 " clip-rule="nonzero"/></clipPath><clipPath id="f4e8f82086"><path d="M 93.515625 70.09375 L 131.101562 70.09375 L 131.101562 88.089844 L 93.515625 88.089844 Z M 93.515625 70.09375 " clip-rule="nonzero"/></clipPath><clipPath id="1e71619b41"><path d="M 134.132812 70.09375 L 171.71875 70.09375 L 171.71875 88.089844 L 134.132812 88.089844 Z M 134.132812 70.09375 " clip-rule="nonzero"/></clipPath><clipPath id="e738913d44"><path d="M 53.160156 25.421875 L 171.71875 25.421875 L 171.71875 41.570312 L 53.160156 41.570312 Z M 53.160156 25.421875 " clip-rule="nonzero"/></clipPath><clipPath id="afe0cf02f3"><path d="M 53.160156 93.390625 L 90.746094 93.390625 L 90.746094 111.386719 L 53.160156 111.386719 Z M 53.160156 93.390625 " clip-rule="nonzero"/></clipPath><clipPath id="e34b548763"><path d="M 93.515625 93.390625 L 131.101562 93.390625 L 131.101562 111.386719 L 93.515625 111.386719 Z M 93.515625 93.390625 " clip-rule="nonzero"/></clipPath><clipPath id="1dacf37b9a"><path d="M 134.132812 93.390625 L 171.71875 93.390625 L 171.71875 111.386719 L 134.132812 111.386719 Z M 134.132812 93.390625 " clip-rule="nonzero"/></clipPath></defs><g clip-path="url(#b6ad99cd47)"><path fill="#ececec" d="M 5.984375 6.058594 L 219.179688 6.058594 L 219.179688 162.441406 L 5.984375 162.441406 Z M 5.984375 6.058594 " fill-opacity="1" fill-rule="nonzero"/></g><g fill="#423e3e" fill-opacity="1"><g transform="translate(12.765691, 145.878556)"><g><path d="M 12.5625 -10.09375 C 12.5625 -9 12.320312 -8.09375 11.84375 -7.375 C 11.375 -6.65625 10.726562 -6.117188 9.90625 -5.765625 C 9.09375 -5.410156 8.164062 -5.234375 7.125 -5.234375 L 4.796875 -5.234375 L 4.796875 0 L 1.71875 0 L 1.71875 -14.859375 L 7.25 -14.859375 C 8.25 -14.859375 9.144531 -14.679688 9.9375 -14.328125 C 10.738281 -13.972656 11.375 -13.441406 11.84375 -12.734375 C 12.320312 -12.023438 12.5625 -11.144531 12.5625 -10.09375 Z M 9.46875 -10.015625 C 9.46875 -10.492188 9.347656 -10.875 9.109375 -11.15625 C 8.867188 -11.445312 8.5625 -11.648438 8.1875 -11.765625 C 7.8125 -11.890625 7.410156 -11.953125 6.984375 -11.953125 L 4.796875 -11.953125 L 4.796875 -8.09375 L 7 -8.09375 C 7.40625 -8.09375 7.796875 -8.15625 8.171875 -8.28125 C 8.554688 -8.414062 8.867188 -8.625 9.109375 -8.90625 C 9.347656 -9.1875 9.46875 -9.554688 9.46875 -10.015625 Z M 9.46875 -10.015625 "/></g></g></g><g fill="#423e3e" fill-opacity="1"><g transform="translate(25.891557, 145.878556)"><g><path d="M 3.078125 0 L -0.015625 0 L 5.65625 -14.859375 L 9.359375 -14.859375 L 15.046875 0 L 11.875 0 L 10.75 -3 L 4.171875 -3 Z M 7.46875 -11.875 L 5.234375 -5.84375 L 9.71875 -5.84375 Z M 7.46875 -11.875 "/></g></g></g><g fill="#423e3e" fill-opacity="1"><g transform="translate(40.91423, 145.878556)"><g><path d="M 13.140625 0 L 9.734375 0 L 6.65625 -5.328125 L 4.796875 -5.328125 L 4.796875 0 L 1.71875 0 L 1.71875 -14.859375 L 7.59375 -14.859375 C 8.550781 -14.859375 9.425781 -14.679688 10.21875 -14.328125 C 11.019531 -13.984375 11.65625 -13.460938 12.125 -12.765625 C 12.601562 -12.066406 12.84375 -11.191406 12.84375 -10.140625 C 12.84375 -7.984375 11.820312 -6.535156 9.78125 -5.796875 Z M 7.359375 -8.171875 C 7.734375 -8.171875 8.101562 -8.234375 8.46875 -8.359375 C 8.84375 -8.492188 9.144531 -8.695312 9.375 -8.96875 C 9.613281 -9.25 9.734375 -9.625 9.734375 -10.09375 C 9.734375 -10.570312 9.613281 -10.941406 9.375 -11.203125 C 9.132812 -11.472656 8.832031 -11.664062 8.46875 -11.78125 C 8.101562 -11.894531 7.726562 -11.953125 7.34375 -11.953125 L 4.796875 -11.953125 L 4.796875 -8.171875 Z M 7.359375 -8.171875 "/></g></g></g><g fill="#423e3e" fill-opacity="1"><g transform="translate(54.779845, 145.878556)"><g><path d="M 3.078125 0 L -0.015625 0 L 5.65625 -14.859375 L 9.359375 -14.859375 L 15.046875 0 L 11.875 0 L 10.75 -3 L 4.171875 -3 Z M 7.46875 -11.875 L 5.234375 -5.84375 L 9.71875 -5.84375 Z M 7.46875 -11.875 "/></g></g></g><g fill="#423e3e" fill-opacity="1"><g transform="translate(69.802518, 145.878556)"><g><path d="M 15.0625 -9.8125 L 10.921875 0 L 8.875 0 L 4.765625 -9.734375 L 4.75 -9.734375 L 4.75 0 L 1.71875 0 L 1.71875 -14.859375 L 5.6875 -14.859375 L 9.90625 -4.890625 L 14.03125 -14.859375 L 18.109375 -14.859375 L 18.109375 0 L 15.078125 0 L 15.078125 -9.8125 Z M 15.0625 -9.8125 "/></g></g></g><g fill="#423e3e" fill-opacity="1"><g transform="translate(89.643065, 145.878556)"><g><path d="M 1.71875 -14.859375 L 11.453125 -14.859375 L 11.453125 -11.96875 L 4.765625 -11.96875 L 4.765625 -8.953125 L 10.75 -8.953125 L 10.75 -6.0625 L 4.765625 -6.0625 L 4.765625 -2.859375 L 11.5 -2.859375 L 11.5 0 L 1.71875 0 Z M 1.71875 -14.859375 "/></g></g></g><g fill="#423e3e" fill-opacity="1"><g transform="translate(102.218863, 145.878556)"><g><path d="M 4.859375 0 L 4.859375 -11.875 L 0.390625 -11.875 L 0.390625 -14.859375 L 12.375 -14.859375 L 12.375 -11.875 L 7.90625 -11.875 L 7.90625 0 Z M 4.859375 0 "/></g></g></g><g fill="#423e3e" fill-opacity="1"><g transform="translate(114.98434, 145.878556)"><g><path d="M 1.71875 -14.859375 L 11.453125 -14.859375 L 11.453125 -11.96875 L 4.765625 -11.96875 L 4.765625 -8.953125 L 10.75 -8.953125 L 10.75 -6.0625 L 4.765625 -6.0625 L 4.765625 -2.859375 L 11.5 -2.859375 L 11.5 0 L 1.71875 0 Z M 1.71875 -14.859375 "/></g></g></g><g fill="#423e3e" fill-opacity="1"><g transform="translate(127.560137, 145.878556)"><g><path d="M 13.140625 0 L 9.734375 0 L 6.65625 -5.328125 L 4.796875 -5.328125 L 4.796875 0 L 1.71875 0 L 1.71875 -14.859375 L 7.59375 -14.859375 C 8.550781 -14.859375 9.425781 -14.679688 10.21875 -14.328125 C 11.019531 -13.984375 11.65625 -13.460938 12.125 -12.765625 C 12.601562 -12.066406 12.84375 -11.191406 12.84375 -10.140625 C 12.84375 -7.984375 11.820312 -6.535156 9.78125 -5.796875 Z M 7.359375 -8.171875 C 7.734375 -8.171875 8.101562 -8.234375 8.46875 -8.359375 C 8.84375 -8.492188 9.144531 -8.695312 9.375 -8.96875 C 9.613281 -9.25 9.734375 -9.625 9.734375 -10.09375 C 9.734375 -10.570312 9.613281 -10.941406 9.375 -11.203125 C 9.132812 -11.472656 8.832031 -11.664062 8.46875 -11.78125 C 8.101562 -11.894531 7.726562 -11.953125 7.34375 -11.953125 L 4.796875 -11.953125 L 4.796875 -8.171875 Z M 7.359375 -8.171875 "/></g></g></g><g fill="#423e3e" fill-opacity="1"><g transform="translate(141.425752, 145.878556)"><g/></g></g><g fill="#423e3e" fill-opacity="1"><g transform="translate(146.186719, 145.878556)"><g><path d="M 4.859375 0 L 4.859375 -11.875 L 0.390625 -11.875 L 0.390625 -14.859375 L 12.375 -14.859375 L 12.375 -11.875 L 7.90625 -11.875 L 7.90625 0 Z M 4.859375 0 "/></g></g></g><g fill="#423e3e" fill-opacity="1"><g transform="translate(158.952197, 145.878556)"><g><path d="M 3.078125 0 L -0.015625 0 L 5.65625 -14.859375 L 9.359375 -14.859375 L 15.046875 0 L 11.875 0 L 10.75 -3 L 4.171875 -3 Z M 7.46875 -11.875 L 5.234375 -5.84375 L 9.71875 -5.84375 Z M 7.46875 -11.875 "/></g></g></g><g fill="#423e3e" fill-opacity="1"><g transform="translate(173.974869, 145.878556)"><g><path d="M 13.28125 -4.09375 C 13.28125 -3.332031 13.128906 -2.691406 12.828125 -2.171875 C 12.523438 -1.660156 12.117188 -1.242188 11.609375 -0.921875 C 11.097656 -0.597656 10.53125 -0.363281 9.90625 -0.21875 C 9.28125 -0.0703125 8.640625 0 7.984375 0 L 1.71875 0 L 1.71875 -14.859375 L 7.890625 -14.859375 C 8.691406 -14.859375 9.453125 -14.710938 10.171875 -14.421875 C 10.898438 -14.140625 11.492188 -13.707031 11.953125 -13.125 C 12.410156 -12.539062 12.640625 -11.804688 12.640625 -10.921875 C 12.640625 -10.191406 12.453125 -9.5625 12.078125 -9.03125 C 11.703125 -8.507812 11.191406 -8.085938 10.546875 -7.765625 L 10.546875 -7.71875 C 11.429688 -7.394531 12.109375 -6.957031 12.578125 -6.40625 C 13.046875 -5.851562 13.28125 -5.082031 13.28125 -4.09375 Z M 9.625 -10.453125 C 9.625 -10.867188 9.515625 -11.191406 9.296875 -11.421875 C 9.078125 -11.648438 8.800781 -11.804688 8.46875 -11.890625 C 8.144531 -11.984375 7.8125 -12.03125 7.46875 -12.03125 L 4.71875 -12.03125 L 4.71875 -8.828125 L 7.265625 -8.828125 C 7.628906 -8.828125 7.988281 -8.863281 8.34375 -8.9375 C 8.707031 -9.019531 9.007812 -9.179688 9.25 -9.421875 C 9.5 -9.660156 9.625 -10.003906 9.625 -10.453125 Z M 10.28125 -4.5 C 10.28125 -4.96875 10.15625 -5.316406 9.90625 -5.546875 C 9.664062 -5.785156 9.359375 -5.945312 8.984375 -6.03125 C 8.609375 -6.125 8.234375 -6.171875 7.859375 -6.171875 L 4.71875 -6.171875 L 4.71875 -2.84375 L 7.953125 -2.84375 C 8.316406 -2.84375 8.675781 -2.882812 9.03125 -2.96875 C 9.394531 -3.0625 9.691406 -3.226562 9.921875 -3.46875 C 10.160156 -3.707031 10.28125 -4.050781 10.28125 -4.5 Z M 10.28125 -4.5 "/></g></g></g><g fill="#423e3e" fill-opacity="1"><g transform="translate(188.087072, 145.878556)"><g><path d="M 1.71875 -14.859375 L 4.78125 -14.859375 L 4.78125 -2.921875 L 11.140625 -2.921875 L 11.140625 0 L 1.71875 0 Z M 1.71875 -14.859375 "/></g></g></g><g fill="#423e3e" fill-opacity="1"><g transform="translate(199.54375, 145.878556)"><g><path d="M 1.71875 -14.859375 L 11.453125 -14.859375 L 11.453125 -11.96875 L 4.765625 -11.96875 L 4.765625 -8.953125 L 10.75 -8.953125 L 10.75 -6.0625 L 4.765625 -6.0625 L 4.765625 -2.859375 L 11.5 -2.859375 L 11.5 0 L 1.71875 0 Z M 1.71875 -14.859375 "/></g></g></g><g clip-path="url(#c42cba0978)"><path fill="#bebebe" d="M 53.160156 46.875 L 90.765625 46.875 L 90.765625 64.867188 L 53.160156 64.867188 Z M 53.160156 46.875 " fill-opacity="1" fill-rule="nonzero"/></g><g clip-path="url(#deddcba3ea)"><path fill="#f5d228" d="M 93.515625 46.875 L 131.125 46.875 L 131.125 64.867188 L 93.515625 64.867188 Z M 93.515625 46.875 " fill-opacity="1" fill-rule="nonzero"/></g><g clip-path="url(#b131b3585e)"><path fill="#bebebe" d="M 134.132812 46.875 L 171.742188 46.875 L 171.742188 64.867188 L 134.132812 64.867188 Z M 134.132812 46.875 " fill-opacity="1" fill-rule="nonzero"/></g><g clip-path="url(#8744e34998)"><path fill="#423e3e" d="M 53.160156 70.09375 L 90.765625 70.09375 L 90.765625 88.089844 L 53.160156 88.089844 Z M 53.160156 70.09375 " fill-opacity="1" fill-rule="nonzero"/></g><g clip-path="url(#f4e8f82086)"><path fill="#bebebe" d="M 93.515625 70.09375 L 131.125 70.09375 L 131.125 88.089844 L 93.515625 88.089844 Z M 93.515625 70.09375 " fill-opacity="1" fill-rule="nonzero"/></g><g clip-path="url(#1e71619b41)"><path fill="#ffeb87" d="M 134.132812 70.09375 L 171.742188 70.09375 L 171.742188 88.089844 L 134.132812 88.089844 Z M 134.132812 70.09375 " fill-opacity="1" fill-rule="nonzero"/></g><g clip-path="url(#e738913d44)"><path fill="#625e5e" d="M 53.160156 25.421875 L 171.699219 25.421875 L 171.699219 41.570312 L 53.160156 41.570312 Z M 53.160156 25.421875 " fill-opacity="1" fill-rule="nonzero"/></g><g clip-path="url(#afe0cf02f3)"><path fill="#bebebe" d="M 53.160156 93.390625 L 90.765625 93.390625 L 90.765625 111.386719 L 53.160156 111.386719 Z M 53.160156 93.390625 " fill-opacity="1" fill-rule="nonzero"/></g><g clip-path="url(#e34b548763)"><path fill="#423e3e" d="M 93.515625 93.390625 L 131.125 93.390625 L 131.125 111.386719 L 93.515625 111.386719 Z M 93.515625 93.390625 " fill-opacity="1" fill-rule="nonzero"/></g><g clip-path="url(#1dacf37b9a)"><path fill="#f5d228" d="M 134.132812 93.390625 L 171.742188 93.390625 L 171.742188 111.386719 L 134.132812 111.386719 Z M 134.132812 93.390625 " fill-opacity="1" fill-rule="nonzero"/></g></svg>