<svg xmlns="http://www.w3.org/2000/svg" xmlns:xlink="http://www.w3.org/1999/xlink" width="61" zoomAndPan="magnify" viewBox="0 0 46.079998 37.92" height="40" preserveAspectRatio="xMidYMid meet" version="1.2"><defs><clipPath id="eee1b655fd"><path d="M 3.449219 8.144531 L 15.480469 8.144531 L 15.480469 13.90625 L 3.449219 13.90625 Z M 3.449219 8.144531 "/></clipPath><clipPath id="d4f9094229"><path d="M 16.367188 8.144531 L 28.402344 8.144531 L 28.402344 13.90625 L 16.367188 13.90625 Z M 16.367188 8.144531 "/></clipPath><clipPath id="923f2fb1f6"><path d="M 29.371094 8.144531 L 41.40625 8.144531 L 41.40625 13.90625 L 29.371094 13.90625 Z M 29.371094 8.144531 "/></clipPath><clipPath id="02c663e065"><path d="M 3.449219 15.578125 L 15.480469 15.578125 L 15.480469 21.339844 L 3.449219 21.339844 Z M 3.449219 15.578125 "/></clipPath><clipPath id="68c1207918"><path d="M 16.367188 15.578125 L 28.402344 15.578125 L 28.402344 21.339844 L 16.367188 21.339844 Z M 16.367188 15.578125 "/></clipPath><clipPath id="54c2fd5bb8"><path d="M 29.371094 15.578125 L 41.40625 15.578125 L 41.40625 21.339844 L 29.371094 21.339844 Z M 29.371094 15.578125 "/></clipPath><clipPath id="f6d9fefb73"><path d="M 3.449219 1.277344 L 41.40625 1.277344 L 41.40625 6.445312 L 3.449219 6.445312 Z M 3.449219 1.277344 "/></clipPath><clipPath id="9306fb310d"><path d="M 3.449219 23.039062 L 15.480469 23.039062 L 15.480469 28.800781 L 3.449219 28.800781 Z M 3.449219 23.039062 "/></clipPath><clipPath id="582cabe35c"><path d="M 16.367188 23.039062 L 28.402344 23.039062 L 28.402344 28.800781 L 16.367188 28.800781 Z M 16.367188 23.039062 "/></clipPath><clipPath id="37e91cca01"><path d="M 29.371094 23.039062 L 41.40625 23.039062 L 41.40625 28.800781 L 29.371094 28.800781 Z M 29.371094 23.039062 "/></clipPath></defs><g id="18d9acff28"><g clip-rule="nonzero" clip-path="url(#eee1b655fd)"><path style=" stroke:none;fill-rule:nonzero;fill:#bab8b7;fill-opacity:1;" d="M 3.449219 8.144531 L 15.488281 8.144531 L 15.488281 13.90625 L 3.449219 13.90625 Z M 3.449219 8.144531 "/></g><g clip-rule="nonzero" clip-path="url(#d4f9094229)"><path style=" stroke:none;fill-rule:nonzero;fill:#f5d228;fill-opacity:1;" d="M 16.367188 8.144531 L 28.410156 8.144531 L 28.410156 13.90625 L 16.367188 13.90625 Z M 16.367188 8.144531 "/></g><g clip-rule="nonzero" clip-path="url(#923f2fb1f6)"><path style=" stroke:none;fill-rule:nonzero;fill:#bab8b7;fill-opacity:1;" d="M 29.371094 8.144531 L 41.414062 8.144531 L 41.414062 13.90625 L 29.371094 13.90625 Z M 29.371094 8.144531 "/></g><g clip-rule="nonzero" clip-path="url(#02c663e065)"><path style=" stroke:none;fill-rule:nonzero;fill:#585958;fill-opacity:1;" d="M 3.449219 15.578125 L 15.488281 15.578125 L 15.488281 21.339844 L 3.449219 21.339844 Z M 3.449219 15.578125 "/></g><g clip-rule="nonzero" clip-path="url(#68c1207918)"><path style=" stroke:none;fill-rule:nonzero;fill:#bab8b7;fill-opacity:1;" d="M 16.367188 15.578125 L 28.410156 15.578125 L 28.410156 21.339844 L 16.367188 21.339844 Z M 16.367188 15.578125 "/></g><g clip-rule="nonzero" clip-path="url(#54c2fd5bb8)"><path style=" stroke:none;fill-rule:nonzero;fill:#ffeb87;fill-opacity:1;" d="M 29.371094 15.578125 L 41.414062 15.578125 L 41.414062 21.339844 L 29.371094 21.339844 Z M 29.371094 15.578125 "/></g><g clip-rule="nonzero" clip-path="url(#f6d9fefb73)"><path style=" stroke:none;fill-rule:nonzero;fill:#585958;fill-opacity:1;" d="M 3.449219 1.277344 L 41.398438 1.277344 L 41.398438 6.445312 L 3.449219 6.445312 Z M 3.449219 1.277344 "/></g><g clip-rule="nonzero" clip-path="url(#9306fb310d)"><path style=" stroke:none;fill-rule:nonzero;fill:#bab8b7;fill-opacity:1;" d="M 3.449219 23.039062 L 15.488281 23.039062 L 15.488281 28.800781 L 3.449219 28.800781 Z M 3.449219 23.039062 "/></g><g clip-rule="nonzero" clip-path="url(#582cabe35c)"><path style=" stroke:none;fill-rule:nonzero;fill:#585958;fill-opacity:1;" d="M 16.367188 23.039062 L 28.410156 23.039062 L 28.410156 28.800781 L 16.367188 28.800781 Z M 16.367188 23.039062 "/></g><g clip-rule="nonzero" clip-path="url(#37e91cca01)"><path style=" stroke:none;fill-rule:nonzero;fill:#f5d228;fill-opacity:1;" d="M 29.371094 23.039062 L 41.414062 23.039062 L 41.414062 28.800781 L 29.371094 28.800781 Z M 29.371094 23.039062 "/></g></g></svg>