<svg xmlns="http://www.w3.org/2000/svg" xmlns:xlink="http://www.w3.org/1999/xlink" width="275" zoomAndPan="magnify" viewBox="0 0 206.25 187.499992" height="250" preserveAspectRatio="xMidYMid meet" version="1.0"><defs><g/><clipPath id="d9c59e141e"><path d="M 6.78125 7.207031 L 198.957031 7.207031 L 198.957031 146.296875 L 6.78125 146.296875 Z M 6.78125 7.207031 " clip-rule="nonzero"/></clipPath><clipPath id="7a85ca0e04"><path d="M 0 155.351562 L 205.503906 155.351562 L 205.503906 179.699219 L 0 179.699219 Z M 0 155.351562 " clip-rule="nonzero"/></clipPath><clipPath id="28e668de7b"><path d="M 81.589844 28.699219 L 119.660156 28.699219 L 119.660156 39.050781 L 81.589844 39.050781 Z M 81.589844 28.699219 " clip-rule="nonzero"/></clipPath><clipPath id="0501d77ea1"><path d="M 37.601562 28.699219 L 75.667969 28.699219 L 75.667969 39.050781 L 37.601562 39.050781 Z M 37.601562 28.699219 " clip-rule="nonzero"/></clipPath><clipPath id="e6f4ab5d2c"><path d="M 125.636719 28.699219 L 163.707031 28.699219 L 163.707031 39.050781 L 125.636719 39.050781 Z M 125.636719 28.699219 " clip-rule="nonzero"/></clipPath><clipPath id="8e1b8e7a03"><path d="M 81.589844 46.753906 L 119.660156 46.753906 L 119.660156 106.75 L 81.589844 106.75 Z M 81.589844 46.753906 " clip-rule="nonzero"/></clipPath><clipPath id="c7cde56d7b"><path d="M 37.601562 46.753906 L 75.667969 46.753906 L 75.667969 75.394531 L 37.601562 75.394531 Z M 37.601562 46.753906 " clip-rule="nonzero"/></clipPath><clipPath id="a8990424bb"><path d="M 125.636719 46.753906 L 163.707031 46.753906 L 163.707031 75.394531 L 125.636719 75.394531 Z M 125.636719 46.753906 " clip-rule="nonzero"/></clipPath><clipPath id="69bf0e655d"><path d="M 81.589844 114.222656 L 165.660156 114.222656 L 165.660156 124.574219 L 81.589844 124.574219 Z M 81.589844 114.222656 " clip-rule="nonzero"/></clipPath><clipPath id="2a8de3ee2e"><path d="M 37.601562 114.222656 L 75.667969 114.222656 L 75.667969 124.574219 L 37.601562 124.574219 Z M 37.601562 114.222656 " clip-rule="nonzero"/></clipPath><clipPath id="72222e8eb1"><path d="M 38.347656 62.566406 L 46.890625 62.566406 L 46.890625 71.039062 L 38.347656 71.039062 Z M 38.347656 62.566406 " clip-rule="nonzero"/></clipPath><clipPath id="eeba4d03a9"><path d="M 83.832031 74.648438 L 92.378906 74.648438 L 92.378906 83.117188 L 83.832031 83.117188 Z M 83.832031 74.648438 " clip-rule="nonzero"/></clipPath></defs><g clip-path="url(#d9c59e141e)"><path fill="#ececec" d="M 6.78125 7.207031 L 199.117188 7.207031 L 199.117188 146.296875 L 6.78125 146.296875 Z M 6.78125 7.207031 " fill-opacity="1" fill-rule="nonzero"/></g><g clip-path="url(#7a85ca0e04)"><path fill="#ffffff" d="M 0 155.351562 L 205.539062 155.351562 L 205.539062 179.699219 L 0 179.699219 Z M 0 155.351562 " fill-opacity="1" fill-rule="nonzero"/></g><g fill="#423e3e" fill-opacity="1"><g transform="translate(3.811134, 172.239275)"><g><path d="M 11.875 -9.546875 C 11.875 -8.515625 11.648438 -7.65625 11.203125 -6.96875 C 10.753906 -6.289062 10.144531 -5.785156 9.375 -5.453125 C 8.601562 -5.117188 7.726562 -4.953125 6.75 -4.953125 L 4.53125 -4.953125 L 4.53125 0 L 1.625 0 L 1.625 -14.046875 L 6.859375 -14.046875 C 7.796875 -14.046875 8.640625 -13.878906 9.390625 -13.546875 C 10.148438 -13.210938 10.753906 -12.707031 11.203125 -12.03125 C 11.648438 -11.363281 11.875 -10.535156 11.875 -9.546875 Z M 8.953125 -9.46875 C 8.953125 -9.925781 8.835938 -10.285156 8.609375 -10.546875 C 8.378906 -10.816406 8.085938 -11.007812 7.734375 -11.125 C 7.378906 -11.238281 7 -11.296875 6.59375 -11.296875 L 4.53125 -11.296875 L 4.53125 -7.65625 L 6.625 -7.65625 C 7 -7.65625 7.363281 -7.710938 7.71875 -7.828125 C 8.082031 -7.953125 8.378906 -8.148438 8.609375 -8.421875 C 8.835938 -8.691406 8.953125 -9.039062 8.953125 -9.46875 Z M 8.953125 -9.46875 "/></g></g></g><g fill="#423e3e" fill-opacity="1"><g transform="translate(16.22197, 172.239275)"><g><path d="M 2.90625 0 L -0.015625 0 L 5.34375 -14.046875 L 8.84375 -14.046875 L 14.21875 0 L 11.234375 0 L 10.171875 -2.828125 L 3.953125 -2.828125 Z M 7.0625 -11.234375 L 4.953125 -5.53125 L 9.1875 -5.53125 Z M 7.0625 -11.234375 "/></g></g></g><g fill="#423e3e" fill-opacity="1"><g transform="translate(30.42628, 172.239275)"><g><path d="M 12.4375 0 L 9.203125 0 L 6.296875 -5.046875 L 4.53125 -5.046875 L 4.53125 0 L 1.625 0 L 1.625 -14.046875 L 7.171875 -14.046875 C 8.078125 -14.046875 8.90625 -13.878906 9.65625 -13.546875 C 10.414062 -13.222656 11.019531 -12.726562 11.46875 -12.0625 C 11.914062 -11.40625 12.140625 -10.582031 12.140625 -9.59375 C 12.140625 -7.550781 11.175781 -6.179688 9.25 -5.484375 Z M 6.953125 -7.734375 C 7.316406 -7.734375 7.671875 -7.789062 8.015625 -7.90625 C 8.359375 -8.03125 8.640625 -8.222656 8.859375 -8.484375 C 9.085938 -8.742188 9.203125 -9.097656 9.203125 -9.546875 C 9.203125 -9.992188 9.085938 -10.34375 8.859375 -10.59375 C 8.628906 -10.851562 8.34375 -11.035156 8 -11.140625 C 7.664062 -11.242188 7.3125 -11.296875 6.9375 -11.296875 L 4.53125 -11.296875 L 4.53125 -7.734375 Z M 6.953125 -7.734375 "/></g></g></g><g fill="#423e3e" fill-opacity="1"><g transform="translate(43.536565, 172.239275)"><g><path d="M 2.90625 0 L -0.015625 0 L 5.34375 -14.046875 L 8.84375 -14.046875 L 14.21875 0 L 11.234375 0 L 10.171875 -2.828125 L 3.953125 -2.828125 Z M 7.0625 -11.234375 L 4.953125 -5.53125 L 9.1875 -5.53125 Z M 7.0625 -11.234375 "/></g></g></g><g fill="#423e3e" fill-opacity="1"><g transform="translate(57.740875, 172.239275)"><g><path d="M 14.25 -9.28125 L 10.328125 0 L 8.390625 0 L 4.5 -9.203125 L 4.484375 -9.203125 L 4.484375 0 L 1.625 0 L 1.625 -14.046875 L 5.375 -14.046875 L 9.359375 -4.625 L 13.28125 -14.046875 L 17.125 -14.046875 L 17.125 0 L 14.265625 0 L 14.265625 -9.28125 Z M 14.25 -9.28125 "/></g></g></g><g fill="#423e3e" fill-opacity="1"><g transform="translate(76.500603, 172.239275)"><g><path d="M 1.625 -14.046875 L 10.828125 -14.046875 L 10.828125 -11.3125 L 4.5 -11.3125 L 4.5 -8.46875 L 10.171875 -8.46875 L 10.171875 -5.734375 L 4.5 -5.734375 L 4.5 -2.703125 L 10.875 -2.703125 L 10.875 0 L 1.625 0 Z M 1.625 -14.046875 "/></g></g></g><g fill="#423e3e" fill-opacity="1"><g transform="translate(88.391331, 172.239275)"><g><path d="M 4.59375 0 L 4.59375 -11.234375 L 0.375 -11.234375 L 0.375 -14.046875 L 11.6875 -14.046875 L 11.6875 -11.234375 L 7.484375 -11.234375 L 7.484375 0 Z M 4.59375 0 "/></g></g></g><g fill="#423e3e" fill-opacity="1"><g transform="translate(100.461399, 172.239275)"><g><path d="M 1.625 -14.046875 L 10.828125 -14.046875 L 10.828125 -11.3125 L 4.5 -11.3125 L 4.5 -8.46875 L 10.171875 -8.46875 L 10.171875 -5.734375 L 4.5 -5.734375 L 4.5 -2.703125 L 10.875 -2.703125 L 10.875 0 L 1.625 0 Z M 1.625 -14.046875 "/></g></g></g><g fill="#423e3e" fill-opacity="1"><g transform="translate(112.352127, 172.239275)"><g><path d="M 12.4375 0 L 9.203125 0 L 6.296875 -5.046875 L 4.53125 -5.046875 L 4.53125 0 L 1.625 0 L 1.625 -14.046875 L 7.171875 -14.046875 C 8.078125 -14.046875 8.90625 -13.878906 9.65625 -13.546875 C 10.414062 -13.222656 11.019531 -12.726562 11.46875 -12.0625 C 11.914062 -11.40625 12.140625 -10.582031 12.140625 -9.59375 C 12.140625 -7.550781 11.175781 -6.179688 9.25 -5.484375 Z M 6.953125 -7.734375 C 7.316406 -7.734375 7.671875 -7.789062 8.015625 -7.90625 C 8.359375 -8.03125 8.640625 -8.222656 8.859375 -8.484375 C 9.085938 -8.742188 9.203125 -9.097656 9.203125 -9.546875 C 9.203125 -9.992188 9.085938 -10.34375 8.859375 -10.59375 C 8.628906 -10.851562 8.34375 -11.035156 8 -11.140625 C 7.664062 -11.242188 7.3125 -11.296875 6.9375 -11.296875 L 4.53125 -11.296875 L 4.53125 -7.734375 Z M 6.953125 -7.734375 "/></g></g></g><g fill="#423e3e" fill-opacity="1"><g transform="translate(125.462412, 172.239275)"><g/></g></g><g fill="#423e3e" fill-opacity="1"><g transform="translate(129.964032, 172.239275)"><g><path d="M 11.875 -9.546875 C 11.875 -8.515625 11.648438 -7.65625 11.203125 -6.96875 C 10.753906 -6.289062 10.144531 -5.785156 9.375 -5.453125 C 8.601562 -5.117188 7.726562 -4.953125 6.75 -4.953125 L 4.53125 -4.953125 L 4.53125 0 L 1.625 0 L 1.625 -14.046875 L 6.859375 -14.046875 C 7.796875 -14.046875 8.640625 -13.878906 9.390625 -13.546875 C 10.148438 -13.210938 10.753906 -12.707031 11.203125 -12.03125 C 11.648438 -11.363281 11.875 -10.535156 11.875 -9.546875 Z M 8.953125 -9.46875 C 8.953125 -9.925781 8.835938 -10.285156 8.609375 -10.546875 C 8.378906 -10.816406 8.085938 -11.007812 7.734375 -11.125 C 7.378906 -11.238281 7 -11.296875 6.59375 -11.296875 L 4.53125 -11.296875 L 4.53125 -7.65625 L 6.625 -7.65625 C 7 -7.65625 7.363281 -7.710938 7.71875 -7.828125 C 8.082031 -7.953125 8.378906 -8.148438 8.609375 -8.421875 C 8.835938 -8.691406 8.953125 -9.039062 8.953125 -9.46875 Z M 8.953125 -9.46875 "/></g></g></g><g fill="#423e3e" fill-opacity="1"><g transform="translate(142.374868, 172.239275)"><g><path d="M 4.53125 -14.046875 L 4.53125 0 L 1.625 0 L 1.625 -14.046875 Z M 4.53125 -14.046875 "/></g></g></g><g fill="#423e3e" fill-opacity="1"><g transform="translate(148.562344, 172.239275)"><g><path d="M 0.765625 -7.015625 C 0.765625 -8.023438 0.953125 -8.96875 1.328125 -9.84375 C 1.710938 -10.726562 2.238281 -11.5 2.90625 -12.15625 C 3.570312 -12.8125 4.34375 -13.328125 5.21875 -13.703125 C 6.101562 -14.078125 7.046875 -14.265625 8.046875 -14.265625 C 8.972656 -14.265625 9.863281 -14.101562 10.71875 -13.78125 C 11.570312 -13.457031 12.320312 -12.984375 12.96875 -12.359375 C 13.625 -11.742188 14.109375 -10.992188 14.421875 -10.109375 L 11.765625 -8.890625 C 11.460938 -9.671875 10.984375 -10.285156 10.328125 -10.734375 C 9.679688 -11.191406 8.914062 -11.421875 8.03125 -11.421875 C 7.21875 -11.421875 6.488281 -11.222656 5.84375 -10.828125 C 5.207031 -10.441406 4.703125 -9.914062 4.328125 -9.25 C 3.960938 -8.582031 3.78125 -7.847656 3.78125 -7.046875 C 3.78125 -6.234375 3.960938 -5.492188 4.328125 -4.828125 C 4.691406 -4.160156 5.191406 -3.625 5.828125 -3.21875 C 6.472656 -2.820312 7.207031 -2.625 8.03125 -2.625 C 8.914062 -2.625 9.691406 -2.863281 10.359375 -3.34375 C 11.023438 -3.832031 11.503906 -4.457031 11.796875 -5.21875 L 14.46875 -3.984375 C 14.144531 -3.097656 13.648438 -2.34375 12.984375 -1.71875 C 12.316406 -1.101562 11.546875 -0.628906 10.671875 -0.296875 C 9.804688 0.0351562 8.914062 0.203125 8 0.203125 C 6.976562 0.203125 6.03125 0.0195312 5.15625 -0.34375 C 4.28125 -0.707031 3.507812 -1.21875 2.84375 -1.875 C 2.1875 -2.53125 1.675781 -3.296875 1.3125 -4.171875 C 0.945312 -5.046875 0.765625 -5.992188 0.765625 -7.015625 Z M 0.765625 -7.015625 "/></g></g></g><g fill="#423e3e" fill-opacity="1"><g transform="translate(163.484039, 172.239275)"><g><path d="M 4.515625 0 L 1.625 0 L 1.625 -14.046875 L 4.515625 -14.046875 L 4.515625 -7.921875 L 9.34375 -14.046875 L 12.96875 -14.046875 L 7.609375 -7.34375 L 13.328125 0 L 9.578125 0 L 4.515625 -6.671875 Z M 4.515625 0 "/></g></g></g><g fill="#423e3e" fill-opacity="1"><g transform="translate(176.684005, 172.239275)"><g><path d="M 1.625 -14.046875 L 10.828125 -14.046875 L 10.828125 -11.3125 L 4.5 -11.3125 L 4.5 -8.46875 L 10.171875 -8.46875 L 10.171875 -5.734375 L 4.5 -5.734375 L 4.5 -2.703125 L 10.875 -2.703125 L 10.875 0 L 1.625 0 Z M 1.625 -14.046875 "/></g></g></g><g fill="#423e3e" fill-opacity="1"><g transform="translate(188.574733, 172.239275)"><g><path d="M 12.4375 0 L 9.203125 0 L 6.296875 -5.046875 L 4.53125 -5.046875 L 4.53125 0 L 1.625 0 L 1.625 -14.046875 L 7.171875 -14.046875 C 8.078125 -14.046875 8.90625 -13.878906 9.65625 -13.546875 C 10.414062 -13.222656 11.019531 -12.726562 11.46875 -12.0625 C 11.914062 -11.40625 12.140625 -10.582031 12.140625 -9.59375 C 12.140625 -7.550781 11.175781 -6.179688 9.25 -5.484375 Z M 6.953125 -7.734375 C 7.316406 -7.734375 7.671875 -7.789062 8.015625 -7.90625 C 8.359375 -8.03125 8.640625 -8.222656 8.859375 -8.484375 C 9.085938 -8.742188 9.203125 -9.097656 9.203125 -9.546875 C 9.203125 -9.992188 9.085938 -10.34375 8.859375 -10.59375 C 8.628906 -10.851562 8.34375 -11.035156 8 -11.140625 C 7.664062 -11.242188 7.3125 -11.296875 6.9375 -11.296875 L 4.53125 -11.296875 L 4.53125 -7.734375 Z M 6.953125 -7.734375 "/></g></g></g><g clip-path="url(#28e668de7b)"><path fill="#625e5e" d="M 81.589844 28.699219 L 119.679688 28.699219 L 119.679688 39.050781 L 81.589844 39.050781 Z M 81.589844 28.699219 " fill-opacity="1" fill-rule="nonzero"/></g><g clip-path="url(#0501d77ea1)"><path fill="#625e5e" d="M 37.601562 28.699219 L 75.6875 28.699219 L 75.6875 39.050781 L 37.601562 39.050781 Z M 37.601562 28.699219 " fill-opacity="1" fill-rule="nonzero"/></g><g clip-path="url(#e6f4ab5d2c)"><path fill="#625e5e" d="M 125.636719 28.699219 L 163.722656 28.699219 L 163.722656 39.050781 L 125.636719 39.050781 Z M 125.636719 28.699219 " fill-opacity="1" fill-rule="nonzero"/></g><g clip-path="url(#8e1b8e7a03)"><path fill="#8f8f8f" d="M 81.589844 46.753906 L 119.660156 46.753906 L 119.660156 106.679688 L 81.589844 106.679688 Z M 81.589844 46.753906 " fill-opacity="1" fill-rule="nonzero"/></g><g clip-path="url(#c7cde56d7b)"><path fill="#8f8f8f" d="M 37.601562 46.753906 L 75.640625 46.753906 L 75.640625 75.394531 L 37.601562 75.394531 Z M 37.601562 46.753906 " fill-opacity="1" fill-rule="nonzero"/></g><g clip-path="url(#a8990424bb)"><path fill="#8f8f8f" d="M 125.636719 46.753906 L 163.675781 46.753906 L 163.675781 75.394531 L 125.636719 75.394531 Z M 125.636719 46.753906 " fill-opacity="1" fill-rule="nonzero"/></g><g clip-path="url(#69bf0e655d)"><path fill="#625e5e" d="M 81.589844 114.222656 L 165.648438 114.222656 L 165.648438 124.574219 L 81.589844 124.574219 Z M 81.589844 114.222656 " fill-opacity="1" fill-rule="nonzero"/></g><g clip-path="url(#2a8de3ee2e)"><path fill="#8f8f8f" d="M 37.601562 114.222656 L 75.6875 114.222656 L 75.6875 124.574219 L 37.601562 124.574219 Z M 37.601562 114.222656 " fill-opacity="1" fill-rule="nonzero"/></g><g clip-path="url(#72222e8eb1)"><path fill="#625e5e" d="M 38.347656 62.566406 L 46.886719 62.566406 L 46.886719 71.039062 L 38.347656 71.039062 Z M 38.347656 62.566406 " fill-opacity="1" fill-rule="nonzero"/></g><g clip-path="url(#eeba4d03a9)"><path fill="#625e5e" d="M 83.832031 74.648438 L 92.371094 74.648438 L 92.371094 83.117188 L 83.832031 83.117188 Z M 83.832031 74.648438 " fill-opacity="1" fill-rule="nonzero"/></g></svg>