<svg xmlns="http://www.w3.org/2000/svg" xmlns:xlink="http://www.w3.org/1999/xlink" width="300" zoomAndPan="magnify" viewBox="0 0 224.87999 168.749997" height="225" preserveAspectRatio="xMidYMid meet" version="1.0"><defs><g/><clipPath id="b18b5af211"><path d="M 5.984375 6.058594 L 219.1875 6.058594 L 219.1875 162.441406 L 5.984375 162.441406 Z M 5.984375 6.058594 " clip-rule="nonzero"/></clipPath><clipPath id="0ee9809bd4"><path d="M 93.863281 24.582031 L 129.152344 24.582031 L 129.152344 34.175781 L 93.863281 34.175781 Z M 93.863281 24.582031 " clip-rule="nonzero"/></clipPath><clipPath id="51d6d42cd1"><path d="M 53.078125 24.582031 L 88.371094 24.582031 L 88.371094 34.175781 L 53.078125 34.175781 Z M 53.078125 24.582031 " clip-rule="nonzero"/></clipPath><clipPath id="2abf1c7c12"><path d="M 134.695312 24.582031 L 169.988281 24.582031 L 169.988281 34.175781 L 134.695312 34.175781 Z M 134.695312 24.582031 " clip-rule="nonzero"/></clipPath><clipPath id="f2b852d7bb"><path d="M 93.863281 41.316406 L 129.152344 41.316406 L 129.152344 96.9375 L 93.863281 96.9375 Z M 93.863281 41.316406 " clip-rule="nonzero"/></clipPath><clipPath id="2e054b7eaf"><path d="M 53.078125 41.316406 L 88.371094 41.316406 L 88.371094 67.871094 L 53.078125 67.871094 Z M 53.078125 41.316406 " clip-rule="nonzero"/></clipPath><clipPath id="d623e56789"><path d="M 134.695312 41.316406 L 169.988281 41.316406 L 169.988281 67.871094 L 134.695312 67.871094 Z M 134.695312 41.316406 " clip-rule="nonzero"/></clipPath><clipPath id="be25078adf"><path d="M 93.863281 103.867188 L 171.800781 103.867188 L 171.800781 113.460938 L 93.863281 113.460938 Z M 93.863281 103.867188 " clip-rule="nonzero"/></clipPath><clipPath id="60894eb863"><path d="M 53.078125 103.867188 L 88.371094 103.867188 L 88.371094 113.460938 L 53.078125 113.460938 Z M 53.078125 103.867188 " clip-rule="nonzero"/></clipPath><clipPath id="f1bffaa327"><path d="M 53.773438 55.980469 L 61.691406 55.980469 L 61.691406 63.832031 L 53.773438 63.832031 Z M 53.773438 55.980469 " clip-rule="nonzero"/></clipPath><clipPath id="290c9be12e"><path d="M 95.941406 67.175781 L 103.863281 67.175781 L 103.863281 75.03125 L 95.941406 75.03125 Z M 95.941406 67.175781 " clip-rule="nonzero"/></clipPath></defs><g clip-path="url(#b18b5af211)"><path fill="#ececec" d="M 5.984375 6.058594 L 219.179688 6.058594 L 219.179688 162.441406 L 5.984375 162.441406 Z M 5.984375 6.058594 " fill-opacity="1" fill-rule="nonzero"/></g><g fill="#423e3e" fill-opacity="1"><g transform="translate(13.288631, 144.480633)"><g><path d="M 11.890625 -9.5625 C 11.890625 -8.53125 11.664062 -7.671875 11.21875 -6.984375 C 10.769531 -6.304688 10.160156 -5.796875 9.390625 -5.453125 C 8.617188 -5.117188 7.738281 -4.953125 6.75 -4.953125 L 4.546875 -4.953125 L 4.546875 0 L 1.640625 0 L 1.640625 -14.0625 L 6.859375 -14.0625 C 7.804688 -14.0625 8.65625 -13.894531 9.40625 -13.5625 C 10.164062 -13.226562 10.769531 -12.722656 11.21875 -12.046875 C 11.664062 -11.378906 11.890625 -10.550781 11.890625 -9.5625 Z M 8.96875 -9.484375 C 8.96875 -9.941406 8.851562 -10.304688 8.625 -10.578125 C 8.394531 -10.847656 8.101562 -11.035156 7.75 -11.140625 C 7.394531 -11.253906 7.015625 -11.3125 6.609375 -11.3125 L 4.546875 -11.3125 L 4.546875 -7.671875 L 6.625 -7.671875 C 7.007812 -7.671875 7.378906 -7.726562 7.734375 -7.84375 C 8.097656 -7.96875 8.394531 -8.164062 8.625 -8.4375 C 8.851562 -8.707031 8.96875 -9.054688 8.96875 -9.484375 Z M 8.96875 -9.484375 "/></g></g></g><g fill="#423e3e" fill-opacity="1"><g transform="translate(25.726172, 144.480633)"><g><path d="M 2.90625 0 L -0.015625 0 L 5.359375 -14.0625 L 8.859375 -14.0625 L 14.25 0 L 11.25 0 L 10.1875 -2.84375 L 3.953125 -2.84375 Z M 7.078125 -11.25 L 4.953125 -5.53125 L 9.203125 -5.53125 Z M 7.078125 -11.25 "/></g></g></g><g fill="#423e3e" fill-opacity="1"><g transform="translate(39.961045, 144.480633)"><g><path d="M 12.453125 0 L 9.21875 0 L 6.3125 -5.046875 L 4.546875 -5.046875 L 4.546875 0 L 1.640625 0 L 1.640625 -14.0625 L 7.1875 -14.0625 C 8.09375 -14.0625 8.921875 -13.894531 9.671875 -13.5625 C 10.429688 -13.238281 11.035156 -12.75 11.484375 -12.09375 C 11.941406 -11.4375 12.171875 -10.609375 12.171875 -9.609375 C 12.171875 -7.566406 11.203125 -6.195312 9.265625 -5.5 Z M 6.96875 -7.75 C 7.332031 -7.75 7.6875 -7.804688 8.03125 -7.921875 C 8.375 -8.046875 8.65625 -8.238281 8.875 -8.5 C 9.101562 -8.757812 9.21875 -9.113281 9.21875 -9.5625 C 9.21875 -10.007812 9.101562 -10.359375 8.875 -10.609375 C 8.644531 -10.867188 8.359375 -11.050781 8.015625 -11.15625 C 7.679688 -11.257812 7.328125 -11.3125 6.953125 -11.3125 L 4.546875 -11.3125 L 4.546875 -7.75 Z M 6.96875 -7.75 "/></g></g></g><g fill="#423e3e" fill-opacity="1"><g transform="translate(53.099538, 144.480633)"><g><path d="M 2.90625 0 L -0.015625 0 L 5.359375 -14.0625 L 8.859375 -14.0625 L 14.25 0 L 11.25 0 L 10.1875 -2.84375 L 3.953125 -2.84375 Z M 7.078125 -11.25 L 4.953125 -5.53125 L 9.203125 -5.53125 Z M 7.078125 -11.25 "/></g></g></g><g fill="#423e3e" fill-opacity="1"><g transform="translate(67.334411, 144.480633)"><g><path d="M 14.265625 -9.296875 L 10.34375 0 L 8.40625 0 L 4.515625 -9.21875 L 4.484375 -9.21875 L 4.484375 0 L 1.640625 0 L 1.640625 -14.0625 L 5.390625 -14.0625 L 9.375 -4.640625 L 13.296875 -14.0625 L 17.15625 -14.0625 L 17.15625 0 L 14.28125 0 L 14.28125 -9.296875 Z M 14.265625 -9.296875 "/></g></g></g><g fill="#423e3e" fill-opacity="1"><g transform="translate(86.134504, 144.480633)"><g><path d="M 1.640625 -14.0625 L 10.859375 -14.0625 L 10.859375 -11.34375 L 4.515625 -11.34375 L 4.515625 -8.484375 L 10.1875 -8.484375 L 10.1875 -5.75 L 4.515625 -5.75 L 4.515625 -2.71875 L 10.890625 -2.71875 L 10.890625 0 L 1.640625 0 Z M 1.640625 -14.0625 "/></g></g></g><g fill="#423e3e" fill-opacity="1"><g transform="translate(98.050817, 144.480633)"><g><path d="M 4.59375 0 L 4.59375 -11.25 L 0.375 -11.25 L 0.375 -14.0625 L 11.71875 -14.0625 L 11.71875 -11.25 L 7.5 -11.25 L 7.5 0 Z M 4.59375 0 "/></g></g></g><g fill="#423e3e" fill-opacity="1"><g transform="translate(110.146856, 144.480633)"><g><path d="M 1.640625 -14.0625 L 10.859375 -14.0625 L 10.859375 -11.34375 L 4.515625 -11.34375 L 4.515625 -8.484375 L 10.1875 -8.484375 L 10.1875 -5.75 L 4.515625 -5.75 L 4.515625 -2.71875 L 10.890625 -2.71875 L 10.890625 0 L 1.640625 0 Z M 1.640625 -14.0625 "/></g></g></g><g fill="#423e3e" fill-opacity="1"><g transform="translate(122.063169, 144.480633)"><g><path d="M 12.453125 0 L 9.21875 0 L 6.3125 -5.046875 L 4.546875 -5.046875 L 4.546875 0 L 1.640625 0 L 1.640625 -14.0625 L 7.1875 -14.0625 C 8.09375 -14.0625 8.921875 -13.894531 9.671875 -13.5625 C 10.429688 -13.238281 11.035156 -12.75 11.484375 -12.09375 C 11.941406 -11.4375 12.171875 -10.609375 12.171875 -9.609375 C 12.171875 -7.566406 11.203125 -6.195312 9.265625 -5.5 Z M 6.96875 -7.75 C 7.332031 -7.75 7.6875 -7.804688 8.03125 -7.921875 C 8.375 -8.046875 8.65625 -8.238281 8.875 -8.5 C 9.101562 -8.757812 9.21875 -9.113281 9.21875 -9.5625 C 9.21875 -10.007812 9.101562 -10.359375 8.875 -10.609375 C 8.644531 -10.867188 8.359375 -11.050781 8.015625 -11.15625 C 7.679688 -11.257812 7.328125 -11.3125 6.953125 -11.3125 L 4.546875 -11.3125 L 4.546875 -7.75 Z M 6.96875 -7.75 "/></g></g></g><g fill="#423e3e" fill-opacity="1"><g transform="translate(135.201663, 144.480633)"><g/></g></g><g fill="#423e3e" fill-opacity="1"><g transform="translate(139.712969, 144.480633)"><g><path d="M 11.890625 -9.5625 C 11.890625 -8.53125 11.664062 -7.671875 11.21875 -6.984375 C 10.769531 -6.304688 10.160156 -5.796875 9.390625 -5.453125 C 8.617188 -5.117188 7.738281 -4.953125 6.75 -4.953125 L 4.546875 -4.953125 L 4.546875 0 L 1.640625 0 L 1.640625 -14.0625 L 6.859375 -14.0625 C 7.804688 -14.0625 8.65625 -13.894531 9.40625 -13.5625 C 10.164062 -13.226562 10.769531 -12.722656 11.21875 -12.046875 C 11.664062 -11.378906 11.890625 -10.550781 11.890625 -9.5625 Z M 8.96875 -9.484375 C 8.96875 -9.941406 8.851562 -10.304688 8.625 -10.578125 C 8.394531 -10.847656 8.101562 -11.035156 7.75 -11.140625 C 7.394531 -11.253906 7.015625 -11.3125 6.609375 -11.3125 L 4.546875 -11.3125 L 4.546875 -7.671875 L 6.625 -7.671875 C 7.007812 -7.671875 7.378906 -7.726562 7.734375 -7.84375 C 8.097656 -7.96875 8.394531 -8.164062 8.625 -8.4375 C 8.851562 -8.707031 8.96875 -9.054688 8.96875 -9.484375 Z M 8.96875 -9.484375 "/></g></g></g><g fill="#423e3e" fill-opacity="1"><g transform="translate(152.150509, 144.480633)"><g><path d="M 4.546875 -14.0625 L 4.546875 0 L 1.640625 0 L 1.640625 -14.0625 Z M 4.546875 -14.0625 "/></g></g></g><g fill="#423e3e" fill-opacity="1"><g transform="translate(158.351299, 144.480633)"><g><path d="M 0.765625 -7.03125 C 0.765625 -8.039062 0.953125 -8.984375 1.328125 -9.859375 C 1.710938 -10.742188 2.238281 -11.515625 2.90625 -12.171875 C 3.582031 -12.835938 4.359375 -13.351562 5.234375 -13.71875 C 6.117188 -14.09375 7.0625 -14.28125 8.0625 -14.28125 C 8.988281 -14.28125 9.878906 -14.117188 10.734375 -13.796875 C 11.585938 -13.472656 12.34375 -13.003906 13 -12.390625 C 13.65625 -11.773438 14.140625 -11.023438 14.453125 -10.140625 L 11.78125 -8.90625 C 11.488281 -9.6875 11.015625 -10.304688 10.359375 -10.765625 C 9.703125 -11.222656 8.929688 -11.453125 8.046875 -11.453125 C 7.234375 -11.453125 6.503906 -11.253906 5.859375 -10.859375 C 5.222656 -10.460938 4.71875 -9.929688 4.34375 -9.265625 C 3.976562 -8.597656 3.796875 -7.863281 3.796875 -7.0625 C 3.796875 -6.25 3.976562 -5.503906 4.34375 -4.828125 C 4.707031 -4.160156 5.207031 -3.625 5.84375 -3.21875 C 6.488281 -2.820312 7.222656 -2.625 8.046875 -2.625 C 8.929688 -2.625 9.707031 -2.863281 10.375 -3.34375 C 11.039062 -3.832031 11.523438 -4.460938 11.828125 -5.234375 L 14.5 -3.984375 C 14.175781 -3.097656 13.675781 -2.34375 13 -1.71875 C 12.332031 -1.101562 11.5625 -0.628906 10.6875 -0.296875 C 9.820312 0.0351562 8.929688 0.203125 8.015625 0.203125 C 6.992188 0.203125 6.039062 0.0195312 5.15625 -0.34375 C 4.28125 -0.707031 3.515625 -1.21875 2.859375 -1.875 C 2.203125 -2.53125 1.6875 -3.296875 1.3125 -4.171875 C 0.945312 -5.054688 0.765625 -6.007812 0.765625 -7.03125 Z M 0.765625 -7.03125 "/></g></g></g><g fill="#423e3e" fill-opacity="1"><g transform="translate(173.3051, 144.480633)"><g><path d="M 4.53125 0 L 1.640625 0 L 1.640625 -14.0625 L 4.53125 -14.0625 L 4.53125 -7.9375 L 9.359375 -14.0625 L 12.984375 -14.0625 L 7.625 -7.34375 L 13.34375 0 L 9.59375 0 L 4.53125 -6.6875 Z M 4.53125 0 "/></g></g></g><g fill="#423e3e" fill-opacity="1"><g transform="translate(186.533469, 144.480633)"><g><path d="M 1.640625 -14.0625 L 10.859375 -14.0625 L 10.859375 -11.34375 L 4.515625 -11.34375 L 4.515625 -8.484375 L 10.1875 -8.484375 L 10.1875 -5.75 L 4.515625 -5.75 L 4.515625 -2.71875 L 10.890625 -2.71875 L 10.890625 0 L 1.640625 0 Z M 1.640625 -14.0625 "/></g></g></g><g fill="#423e3e" fill-opacity="1"><g transform="translate(198.449782, 144.480633)"><g><path d="M 12.453125 0 L 9.21875 0 L 6.3125 -5.046875 L 4.546875 -5.046875 L 4.546875 0 L 1.640625 0 L 1.640625 -14.0625 L 7.1875 -14.0625 C 8.09375 -14.0625 8.921875 -13.894531 9.671875 -13.5625 C 10.429688 -13.238281 11.035156 -12.75 11.484375 -12.09375 C 11.941406 -11.4375 12.171875 -10.609375 12.171875 -9.609375 C 12.171875 -7.566406 11.203125 -6.195312 9.265625 -5.5 Z M 6.96875 -7.75 C 7.332031 -7.75 7.6875 -7.804688 8.03125 -7.921875 C 8.375 -8.046875 8.65625 -8.238281 8.875 -8.5 C 9.101562 -8.757812 9.21875 -9.113281 9.21875 -9.5625 C 9.21875 -10.007812 9.101562 -10.359375 8.875 -10.609375 C 8.644531 -10.867188 8.359375 -11.050781 8.015625 -11.15625 C 7.679688 -11.257812 7.328125 -11.3125 6.953125 -11.3125 L 4.546875 -11.3125 L 4.546875 -7.75 Z M 6.96875 -7.75 "/></g></g></g><g clip-path="url(#0ee9809bd4)"><path fill="#625e5e" d="M 93.863281 24.582031 L 129.171875 24.582031 L 129.171875 34.175781 L 93.863281 34.175781 Z M 93.863281 24.582031 " fill-opacity="1" fill-rule="nonzero"/></g><g clip-path="url(#51d6d42cd1)"><path fill="#625e5e" d="M 53.078125 24.582031 L 88.390625 24.582031 L 88.390625 34.175781 L 53.078125 34.175781 Z M 53.078125 24.582031 " fill-opacity="1" fill-rule="nonzero"/></g><g clip-path="url(#2abf1c7c12)"><path fill="#625e5e" d="M 134.695312 24.582031 L 170.003906 24.582031 L 170.003906 34.175781 L 134.695312 34.175781 Z M 134.695312 24.582031 " fill-opacity="1" fill-rule="nonzero"/></g><g clip-path="url(#f2b852d7bb)"><path fill="#8f8f8f" d="M 93.863281 41.316406 L 129.152344 41.316406 L 129.152344 96.871094 L 93.863281 96.871094 Z M 93.863281 41.316406 " fill-opacity="1" fill-rule="nonzero"/></g><g clip-path="url(#2e054b7eaf)"><path fill="#8f8f8f" d="M 53.078125 41.316406 L 88.34375 41.316406 L 88.34375 67.871094 L 53.078125 67.871094 Z M 53.078125 41.316406 " fill-opacity="1" fill-rule="nonzero"/></g><g clip-path="url(#d623e56789)"><path fill="#8f8f8f" d="M 134.695312 41.316406 L 169.960938 41.316406 L 169.960938 67.871094 L 134.695312 67.871094 Z M 134.695312 41.316406 " fill-opacity="1" fill-rule="nonzero"/></g><g clip-path="url(#be25078adf)"><path fill="#625e5e" d="M 93.863281 103.867188 L 171.789062 103.867188 L 171.789062 113.460938 L 93.863281 113.460938 Z M 93.863281 103.867188 " fill-opacity="1" fill-rule="nonzero"/></g><g clip-path="url(#60894eb863)"><path fill="#8f8f8f" d="M 53.078125 103.867188 L 88.390625 103.867188 L 88.390625 113.460938 L 53.078125 113.460938 Z M 53.078125 103.867188 " fill-opacity="1" fill-rule="nonzero"/></g><g clip-path="url(#f1bffaa327)"><path fill="#625e5e" d="M 53.773438 55.980469 L 61.6875 55.980469 L 61.6875 63.832031 L 53.773438 63.832031 Z M 53.773438 55.980469 " fill-opacity="1" fill-rule="nonzero"/></g><g clip-path="url(#290c9be12e)"><path fill="#625e5e" d="M 95.941406 67.175781 L 103.855469 67.175781 L 103.855469 75.03125 L 95.941406 75.03125 Z M 95.941406 67.175781 " fill-opacity="1" fill-rule="nonzero"/></g></svg>