<svg xmlns="http://www.w3.org/2000/svg" xmlns:xlink="http://www.w3.org/1999/xlink" width="275" zoomAndPan="magnify" viewBox="0 0 206.25 187.499992" height="250" preserveAspectRatio="xMidYMid meet" version="1.0"><defs><g/><clipPath id="8a1f0b5d3e"><path d="M 6.664062 6.203125 L 198.839844 6.203125 L 198.839844 136.34375 L 6.664062 136.34375 Z M 6.664062 6.203125 " clip-rule="nonzero"/></clipPath><clipPath id="1c6b9a5765"><path d="M 13.058594 152.5625 L 192.445312 152.5625 L 192.445312 173.632812 L 13.058594 173.632812 Z M 13.058594 152.5625 " clip-rule="nonzero"/></clipPath><clipPath id="3683447d11"><path d="M 32.484375 16.324219 L 98.023438 16.324219 L 98.023438 73.863281 L 32.484375 73.863281 Z M 32.484375 16.324219 " clip-rule="nonzero"/></clipPath><clipPath id="05f34a44e0"><path d="M 32.484375 83.933594 L 98.023438 83.933594 L 98.023438 126.222656 L 32.484375 126.222656 Z M 32.484375 83.933594 " clip-rule="nonzero"/></clipPath><clipPath id="9a78c3855b"><path d="M 107.480469 16.324219 L 173.015625 16.324219 L 173.015625 100.433594 L 107.480469 100.433594 Z M 107.480469 16.324219 " clip-rule="nonzero"/></clipPath></defs><g clip-path="url(#8a1f0b5d3e)"><path fill="#ececec" d="M 6.664062 6.203125 L 198.824219 6.203125 L 198.824219 136.34375 L 6.664062 136.34375 Z M 6.664062 6.203125 " fill-opacity="1" fill-rule="nonzero"/></g><g clip-path="url(#1c6b9a5765)"><path fill="#ffffff" d="M 13.058594 152.5625 L 192.425781 152.5625 L 192.425781 173.632812 L 13.058594 173.632812 Z M 13.058594 152.5625 " fill-opacity="1" fill-rule="nonzero"/></g><g fill="#423e3e" fill-opacity="1"><g transform="translate(22.75709, 169.449417)"><g><path d="M 10.546875 -8.484375 C 10.546875 -11.125 8.59375 -12.484375 6.09375 -12.484375 L 1.453125 -12.484375 L 1.453125 0 L 4.03125 0 L 4.03125 -4.40625 L 6 -4.40625 C 8.609375 -4.40625 10.546875 -5.71875 10.546875 -8.484375 Z M 7.953125 -8.421875 C 7.953125 -7.25 6.90625 -6.8125 5.875 -6.8125 L 4.03125 -6.8125 L 4.03125 -10.046875 L 5.859375 -10.046875 C 6.9375 -10.046875 7.953125 -9.625 7.953125 -8.421875 Z M 7.953125 -8.421875 "/></g></g></g><g fill="#423e3e" fill-opacity="1"><g transform="translate(33.786327, 169.449417)"><g><path d="M 2.578125 0 L 3.5 -2.515625 L 9.03125 -2.515625 L 9.984375 0 L 12.640625 0 L 7.859375 -12.484375 L 4.75 -12.484375 L -0.015625 0 Z M 6.28125 -9.984375 L 8.15625 -4.90625 L 4.40625 -4.90625 Z M 6.28125 -9.984375 "/></g></g></g><g fill="#423e3e" fill-opacity="1"><g transform="translate(46.409377, 169.449417)"><g><path d="M 11.046875 0 L 8.21875 -4.875 C 9.90625 -5.484375 10.796875 -6.734375 10.796875 -8.53125 C 10.796875 -11.171875 8.796875 -12.484375 6.375 -12.484375 L 1.453125 -12.484375 L 1.453125 0 L 4.03125 0 L 4.03125 -4.484375 L 5.59375 -4.484375 L 8.171875 0 Z M 6.1875 -6.875 L 4.03125 -6.875 L 4.03125 -10.046875 L 6.171875 -10.046875 C 7.140625 -10.046875 8.171875 -9.671875 8.171875 -8.484375 C 8.171875 -7.296875 7.140625 -6.875 6.1875 -6.875 Z M 6.1875 -6.875 "/></g></g></g><g fill="#423e3e" fill-opacity="1"><g transform="translate(58.060205, 169.449417)"><g><path d="M 2.578125 0 L 3.5 -2.515625 L 9.03125 -2.515625 L 9.984375 0 L 12.640625 0 L 7.859375 -12.484375 L 4.75 -12.484375 L -0.015625 0 Z M 6.28125 -9.984375 L 8.15625 -4.90625 L 4.40625 -4.90625 Z M 6.28125 -9.984375 "/></g></g></g><g fill="#423e3e" fill-opacity="1"><g transform="translate(70.683255, 169.449417)"><g><path d="M 12.65625 -8.234375 L 12.671875 -8.234375 L 12.671875 0 L 15.21875 0 L 15.21875 -12.484375 L 11.796875 -12.484375 L 8.3125 -4.109375 L 4.78125 -12.484375 L 1.453125 -12.484375 L 1.453125 0 L 3.984375 0 L 3.984375 -8.171875 L 4 -8.171875 L 7.453125 0 L 9.1875 0 Z M 12.65625 -8.234375 "/></g></g></g><g fill="#423e3e" fill-opacity="1"><g transform="translate(87.354615, 169.449417)"><g><path d="M 1.453125 -12.484375 L 1.453125 0 L 9.65625 0 L 9.65625 -2.40625 L 4 -2.40625 L 4 -5.09375 L 9.03125 -5.09375 L 9.03125 -7.515625 L 4 -7.515625 L 4 -10.0625 L 9.625 -10.0625 L 9.625 -12.484375 Z M 1.453125 -12.484375 "/></g></g></g><g fill="#423e3e" fill-opacity="1"><g transform="translate(97.921646, 169.449417)"><g><path d="M 4.078125 0 L 6.640625 0 L 6.640625 -9.984375 L 10.390625 -9.984375 L 10.390625 -12.484375 L 0.328125 -12.484375 L 0.328125 -9.984375 L 4.078125 -9.984375 Z M 4.078125 0 "/></g></g></g><g fill="#423e3e" fill-opacity="1"><g transform="translate(108.648052, 169.449417)"><g><path d="M 1.453125 -12.484375 L 1.453125 0 L 9.65625 0 L 9.65625 -2.40625 L 4 -2.40625 L 4 -5.09375 L 9.03125 -5.09375 L 9.03125 -7.515625 L 4 -7.515625 L 4 -10.0625 L 9.625 -10.0625 L 9.625 -12.484375 Z M 1.453125 -12.484375 "/></g></g></g><g fill="#423e3e" fill-opacity="1"><g transform="translate(119.215083, 169.449417)"><g><path d="M 11.046875 0 L 8.21875 -4.875 C 9.90625 -5.484375 10.796875 -6.734375 10.796875 -8.53125 C 10.796875 -11.171875 8.796875 -12.484375 6.375 -12.484375 L 1.453125 -12.484375 L 1.453125 0 L 4.03125 0 L 4.03125 -4.484375 L 5.59375 -4.484375 L 8.171875 0 Z M 6.1875 -6.875 L 4.03125 -6.875 L 4.03125 -10.046875 L 6.171875 -10.046875 C 7.140625 -10.046875 8.171875 -9.671875 8.171875 -8.484375 C 8.171875 -7.296875 7.140625 -6.875 6.1875 -6.875 Z M 6.1875 -6.875 "/></g></g></g><g fill="#423e3e" fill-opacity="1"><g transform="translate(130.865911, 169.449417)"><g/></g></g><g fill="#423e3e" fill-opacity="1"><g transform="translate(134.866398, 169.449417)"><g><path d="M 10.546875 -8.484375 C 10.546875 -11.125 8.59375 -12.484375 6.09375 -12.484375 L 1.453125 -12.484375 L 1.453125 0 L 4.03125 0 L 4.03125 -4.40625 L 6 -4.40625 C 8.609375 -4.40625 10.546875 -5.71875 10.546875 -8.484375 Z M 7.953125 -8.421875 C 7.953125 -7.25 6.90625 -6.8125 5.875 -6.8125 L 4.03125 -6.8125 L 4.03125 -10.046875 L 5.859375 -10.046875 C 6.9375 -10.046875 7.953125 -9.625 7.953125 -8.421875 Z M 7.953125 -8.421875 "/></g></g></g><g fill="#423e3e" fill-opacity="1"><g transform="translate(145.895634, 169.449417)"><g><path d="M 2.578125 0 L 3.5 -2.515625 L 9.03125 -2.515625 L 9.984375 0 L 12.640625 0 L 7.859375 -12.484375 L 4.75 -12.484375 L -0.015625 0 Z M 6.28125 -9.984375 L 8.15625 -4.90625 L 4.40625 -4.90625 Z M 6.28125 -9.984375 "/></g></g></g><g fill="#423e3e" fill-opacity="1"><g transform="translate(158.518685, 169.449417)"><g><path d="M 3.3125 -6.25 C 3.3125 -8.515625 5.046875 -10.234375 7.15625 -10.234375 C 9.171875 -10.234375 10.140625 -8.96875 10.5 -8.03125 L 12.78125 -9.140625 C 12.21875 -10.703125 10.375 -12.671875 7.1875 -12.671875 C 3.640625 -12.671875 0.6875 -9.859375 0.6875 -6.234375 C 0.6875 -2.671875 3.296875 0.1875 7.15625 0.1875 C 10.203125 0.1875 13.0625 -1.84375 13.0625 -5.734375 L 13.0625 -6.703125 L 6.578125 -6.703125 L 6.578125 -4.359375 L 10.375 -4.359375 C 10.078125 -3.140625 8.84375 -2.265625 7.15625 -2.265625 C 4.890625 -2.265625 3.3125 -4.078125 3.3125 -6.25 Z M 3.3125 -6.25 "/></g></g></g><g fill="#423e3e" fill-opacity="1"><g transform="translate(172.177721, 169.449417)"><g><path d="M 1.453125 -12.484375 L 1.453125 0 L 9.65625 0 L 9.65625 -2.40625 L 4 -2.40625 L 4 -5.09375 L 9.03125 -5.09375 L 9.03125 -7.515625 L 4 -7.515625 L 4 -10.0625 L 9.625 -10.0625 L 9.625 -12.484375 Z M 1.453125 -12.484375 "/></g></g></g><g clip-path="url(#3683447d11)"><path fill="#7b7b7b" d="M 32.484375 16.324219 L 98.117188 16.324219 L 98.117188 73.863281 L 32.484375 73.863281 Z M 32.484375 16.324219 " fill-opacity="1" fill-rule="nonzero"/></g><g clip-path="url(#05f34a44e0)"><path fill="#f5d228" d="M 32.484375 83.933594 L 98.0625 83.933594 L 98.0625 126.222656 L 32.484375 126.222656 Z M 32.484375 83.933594 " fill-opacity="1" fill-rule="nonzero"/></g><g clip-path="url(#9a78c3855b)"><path fill="#ffeb87" d="M 107.480469 16.324219 L 173.015625 16.324219 L 173.015625 100.546875 L 107.480469 100.546875 Z M 107.480469 16.324219 " fill-opacity="1" fill-rule="nonzero"/></g></svg>