<svg xmlns="http://www.w3.org/2000/svg" xmlns:xlink="http://www.w3.org/1999/xlink" width="275" zoomAndPan="magnify" viewBox="0 0 206.25 187.499992" height="250" preserveAspectRatio="xMidYMid meet" version="1.0"><defs><g/><clipPath id="e0ec56ea1e"><path d="M 6.78125 7.207031 L 198.957031 7.207031 L 198.957031 146.296875 L 6.78125 146.296875 Z M 6.78125 7.207031 " clip-rule="nonzero"/></clipPath><clipPath id="f4101a413c"><path d="M 6.78125 155.351562 L 198.957031 155.351562 L 198.957031 179.699219 L 6.78125 179.699219 Z M 6.78125 155.351562 " clip-rule="nonzero"/></clipPath><clipPath id="e7aa26fc6d"><path d="M 81.589844 28.699219 L 119.660156 28.699219 L 119.660156 39.050781 L 81.589844 39.050781 Z M 81.589844 28.699219 " clip-rule="nonzero"/></clipPath><clipPath id="94fea62787"><path d="M 37.601562 28.699219 L 75.667969 28.699219 L 75.667969 39.050781 L 37.601562 39.050781 Z M 37.601562 28.699219 " clip-rule="nonzero"/></clipPath><clipPath id="b79ed75da8"><path d="M 125.636719 28.699219 L 163.707031 28.699219 L 163.707031 39.050781 L 125.636719 39.050781 Z M 125.636719 28.699219 " clip-rule="nonzero"/></clipPath><clipPath id="33d5b995b1"><path d="M 81.589844 46.753906 L 119.660156 46.753906 L 119.660156 106.75 L 81.589844 106.75 Z M 81.589844 46.753906 " clip-rule="nonzero"/></clipPath><clipPath id="b54f8e6e66"><path d="M 37.601562 46.753906 L 75.667969 46.753906 L 75.667969 75.394531 L 37.601562 75.394531 Z M 37.601562 46.753906 " clip-rule="nonzero"/></clipPath><clipPath id="5c39729e6f"><path d="M 125.636719 46.753906 L 163.707031 46.753906 L 163.707031 75.394531 L 125.636719 75.394531 Z M 125.636719 46.753906 " clip-rule="nonzero"/></clipPath><clipPath id="7e3138b8bc"><path d="M 81.589844 114.222656 L 165.660156 114.222656 L 165.660156 124.574219 L 81.589844 124.574219 Z M 81.589844 114.222656 " clip-rule="nonzero"/></clipPath><clipPath id="d8869f2455"><path d="M 37.601562 114.222656 L 75.667969 114.222656 L 75.667969 124.574219 L 37.601562 124.574219 Z M 37.601562 114.222656 " clip-rule="nonzero"/></clipPath><clipPath id="a09b5a6c80"><path d="M 38.347656 62.566406 L 46.890625 62.566406 L 46.890625 71.039062 L 38.347656 71.039062 Z M 38.347656 62.566406 " clip-rule="nonzero"/></clipPath><clipPath id="1ae875c5c9"><path d="M 83.832031 74.648438 L 92.378906 74.648438 L 92.378906 83.117188 L 83.832031 83.117188 Z M 83.832031 74.648438 " clip-rule="nonzero"/></clipPath></defs><g clip-path="url(#e0ec56ea1e)"><path fill="#ececec" d="M 6.78125 7.207031 L 198.957031 7.207031 L 198.957031 146.296875 L 6.78125 146.296875 Z M 6.78125 7.207031 " fill-opacity="1" fill-rule="nonzero"/></g><g clip-path="url(#f4101a413c)"><path fill="#ffffff" d="M 6.78125 155.351562 L 198.957031 155.351562 L 198.957031 179.699219 L 6.78125 179.699219 Z M 6.78125 155.351562 " fill-opacity="1" fill-rule="nonzero"/></g><g fill="#423e3e" fill-opacity="1"><g transform="translate(9.743864, 173.634213)"><g><path d="M 12.53125 -10.070312 C 12.53125 -13.210938 10.203125 -14.820312 7.230469 -14.820312 L 1.722656 -14.820312 L 1.722656 0 L 4.789062 0 L 4.789062 -5.222656 L 7.117188 -5.222656 C 10.222656 -5.222656 12.53125 -6.796875 12.53125 -10.070312 Z M 9.445312 -9.996094 C 9.445312 -8.613281 8.195312 -8.082031 6.984375 -8.082031 L 4.789062 -8.082031 L 4.789062 -11.925781 L 6.964844 -11.925781 C 8.234375 -11.925781 9.445312 -11.433594 9.445312 -9.996094 Z M 9.445312 -9.996094 "/></g></g></g><g fill="#423e3e" fill-opacity="1"><g transform="translate(22.841549, 173.634213)"><g><path d="M 3.066406 0 L 4.164062 -2.992188 L 10.734375 -2.992188 L 11.847656 0 L 15.011719 0 L 9.332031 -14.820312 L 5.640625 -14.820312 L -0.0195312 0 Z M 7.457031 -11.847656 L 9.691406 -5.828125 L 5.222656 -5.828125 Z M 7.457031 -11.847656 "/></g></g></g><g fill="#423e3e" fill-opacity="1"><g transform="translate(37.831967, 173.634213)"><g><path d="M 13.117188 0 L 9.765625 -5.792969 C 11.773438 -6.511719 12.816406 -8.007812 12.816406 -10.125 C 12.816406 -13.269531 10.449219 -14.820312 7.570312 -14.820312 L 1.722656 -14.820312 L 1.722656 0 L 4.789062 0 L 4.789062 -5.320312 L 6.644531 -5.320312 L 9.710938 0 Z M 7.34375 -8.160156 L 4.789062 -8.160156 L 4.789062 -11.925781 L 7.324219 -11.925781 C 8.480469 -11.925781 9.710938 -11.488281 9.710938 -10.070312 C 9.710938 -8.667969 8.480469 -8.160156 7.34375 -8.160156 Z M 7.34375 -8.160156 "/></g></g></g><g fill="#423e3e" fill-opacity="1"><g transform="translate(51.667812, 173.634213)"><g><path d="M 3.066406 0 L 4.164062 -2.992188 L 10.734375 -2.992188 L 11.847656 0 L 15.011719 0 L 9.332031 -14.820312 L 5.640625 -14.820312 L -0.0195312 0 Z M 7.457031 -11.847656 L 9.691406 -5.828125 L 5.222656 -5.828125 Z M 7.457031 -11.847656 "/></g></g></g><g fill="#423e3e" fill-opacity="1"><g transform="translate(66.65823, 173.634213)"><g><path d="M 15.03125 -9.785156 L 15.046875 -9.785156 L 15.046875 0 L 18.078125 0 L 18.078125 -14.820312 L 14.007812 -14.820312 L 9.878906 -4.882812 L 5.679688 -14.820312 L 1.722656 -14.820312 L 1.722656 0 L 4.730469 0 L 4.730469 -9.710938 L 4.75 -9.710938 L 8.859375 0 L 10.902344 0 Z M 15.03125 -9.785156 "/></g></g></g><g fill="#423e3e" fill-opacity="1"><g transform="translate(86.456179, 173.634213)"><g><path d="M 1.722656 -14.820312 L 1.722656 0 L 11.472656 0 L 11.472656 -2.859375 L 4.75 -2.859375 L 4.75 -6.058594 L 10.734375 -6.058594 L 10.734375 -8.933594 L 4.75 -8.933594 L 4.75 -11.945312 L 11.433594 -11.945312 L 11.433594 -14.820312 Z M 1.722656 -14.820312 "/></g></g></g><g fill="#423e3e" fill-opacity="1"><g transform="translate(99.004975, 173.634213)"><g><path d="M 4.847656 0 L 7.894531 0 L 7.894531 -11.847656 L 12.339844 -11.847656 L 12.339844 -14.820312 L 0.398438 -14.820312 L 0.398438 -11.847656 L 4.847656 -11.847656 Z M 4.847656 0 "/></g></g></g><g fill="#423e3e" fill-opacity="1"><g transform="translate(111.743044, 173.634213)"><g><path d="M 1.722656 -14.820312 L 1.722656 0 L 11.472656 0 L 11.472656 -2.859375 L 4.75 -2.859375 L 4.75 -6.058594 L 10.734375 -6.058594 L 10.734375 -8.933594 L 4.75 -8.933594 L 4.75 -11.945312 L 11.433594 -11.945312 L 11.433594 -14.820312 Z M 1.722656 -14.820312 "/></g></g></g><g fill="#423e3e" fill-opacity="1"><g transform="translate(124.291841, 173.634213)"><g><path d="M 13.117188 0 L 9.765625 -5.792969 C 11.773438 -6.511719 12.816406 -8.007812 12.816406 -10.125 C 12.816406 -13.269531 10.449219 -14.820312 7.570312 -14.820312 L 1.722656 -14.820312 L 1.722656 0 L 4.789062 0 L 4.789062 -5.320312 L 6.644531 -5.320312 L 9.710938 0 Z M 7.34375 -8.160156 L 4.789062 -8.160156 L 4.789062 -11.925781 L 7.324219 -11.925781 C 8.480469 -11.925781 9.710938 -11.488281 9.710938 -10.070312 C 9.710938 -8.667969 8.480469 -8.160156 7.34375 -8.160156 Z M 7.34375 -8.160156 "/></g></g></g><g fill="#423e3e" fill-opacity="1"><g transform="translate(138.127686, 173.634213)"><g/></g></g><g fill="#423e3e" fill-opacity="1"><g transform="translate(142.878431, 173.634213)"><g><path d="M 4.789062 -8.765625 L 4.789062 -11.90625 L 11.488281 -11.90625 L 11.488281 -14.820312 L 1.722656 -14.820312 L 1.722656 0 L 4.789062 0 L 4.789062 -5.847656 L 10.789062 -5.847656 L 10.789062 -8.765625 Z M 4.789062 -8.765625 "/></g></g></g><g fill="#423e3e" fill-opacity="1"><g transform="translate(155.162242, 173.634213)"><g><path d="M 1.722656 -14.820312 L 1.722656 0 L 11.472656 0 L 11.472656 -2.859375 L 4.75 -2.859375 L 4.75 -6.058594 L 10.734375 -6.058594 L 10.734375 -8.933594 L 4.75 -8.933594 L 4.75 -11.945312 L 11.433594 -11.945312 L 11.433594 -14.820312 Z M 1.722656 -14.820312 "/></g></g></g><g fill="#423e3e" fill-opacity="1"><g transform="translate(167.711038, 173.634213)"><g><path d="M 1.722656 -14.820312 L 1.722656 0 L 11.472656 0 L 11.472656 -2.859375 L 4.75 -2.859375 L 4.75 -6.058594 L 10.734375 -6.058594 L 10.734375 -8.933594 L 4.75 -8.933594 L 4.75 -11.945312 L 11.433594 -11.945312 L 11.433594 -14.820312 Z M 1.722656 -14.820312 "/></g></g></g><g fill="#423e3e" fill-opacity="1"><g transform="translate(180.259835, 173.634213)"><g><path d="M 14.632812 -7.4375 C 14.632812 -12.09375 11.433594 -14.820312 6.265625 -14.820312 L 1.722656 -14.820312 L 1.722656 0 L 6.207031 0 C 11.453125 0 14.632812 -3.027344 14.632812 -7.4375 Z M 11.488281 -7.4375 C 11.488281 -4.523438 9.371094 -2.894531 6.304688 -2.894531 L 4.789062 -2.894531 L 4.789062 -11.925781 L 6.339844 -11.925781 C 9.257812 -11.925781 11.488281 -10.355469 11.488281 -7.4375 Z M 11.488281 -7.4375 "/></g></g></g><g clip-path="url(#e7aa26fc6d)"><path fill="#625e5e" d="M 81.589844 28.699219 L 119.660156 28.699219 L 119.660156 39.050781 L 81.589844 39.050781 Z M 81.589844 28.699219 " fill-opacity="1" fill-rule="nonzero"/></g><g clip-path="url(#94fea62787)"><path fill="#625e5e" d="M 37.601562 28.699219 L 75.667969 28.699219 L 75.667969 39.050781 L 37.601562 39.050781 Z M 37.601562 28.699219 " fill-opacity="1" fill-rule="nonzero"/></g><g clip-path="url(#b79ed75da8)"><path fill="#625e5e" d="M 125.636719 28.699219 L 163.707031 28.699219 L 163.707031 39.050781 L 125.636719 39.050781 Z M 125.636719 28.699219 " fill-opacity="1" fill-rule="nonzero"/></g><g clip-path="url(#33d5b995b1)"><path fill="#8f8f8f" d="M 81.589844 46.753906 L 119.660156 46.753906 L 119.660156 106.75 L 81.589844 106.75 Z M 81.589844 46.753906 " fill-opacity="1" fill-rule="nonzero"/></g><g clip-path="url(#b54f8e6e66)"><path fill="#8f8f8f" d="M 37.601562 46.753906 L 75.667969 46.753906 L 75.667969 75.394531 L 37.601562 75.394531 Z M 37.601562 46.753906 " fill-opacity="1" fill-rule="nonzero"/></g><g clip-path="url(#5c39729e6f)"><path fill="#8f8f8f" d="M 125.636719 46.753906 L 163.707031 46.753906 L 163.707031 75.394531 L 125.636719 75.394531 Z M 125.636719 46.753906 " fill-opacity="1" fill-rule="nonzero"/></g><g clip-path="url(#7e3138b8bc)"><path fill="#625e5e" d="M 81.589844 114.222656 L 165.660156 114.222656 L 165.660156 124.574219 L 81.589844 124.574219 Z M 81.589844 114.222656 " fill-opacity="1" fill-rule="nonzero"/></g><g clip-path="url(#d8869f2455)"><path fill="#8f8f8f" d="M 37.601562 114.222656 L 75.667969 114.222656 L 75.667969 124.574219 L 37.601562 124.574219 Z M 37.601562 114.222656 " fill-opacity="1" fill-rule="nonzero"/></g><g clip-path="url(#a09b5a6c80)"><path fill="#625e5e" d="M 38.347656 62.566406 L 46.890625 62.566406 L 46.890625 71.039062 L 38.347656 71.039062 Z M 38.347656 62.566406 " fill-opacity="1" fill-rule="nonzero"/></g><g clip-path="url(#1ae875c5c9)"><path fill="#625e5e" d="M 83.832031 74.648438 L 92.378906 74.648438 L 92.378906 83.117188 L 83.832031 83.117188 Z M 83.832031 74.648438 " fill-opacity="1" fill-rule="nonzero"/></g></svg>