<svg xmlns="http://www.w3.org/2000/svg" xmlns:xlink="http://www.w3.org/1999/xlink" width="275" zoomAndPan="magnify" viewBox="0 0 206.25 187.499992" height="250" preserveAspectRatio="xMidYMid meet" version="1.0"><defs><g/><clipPath id="30cf767ac2"><path d="M 6.664062 6.203125 L 198.839844 6.203125 L 198.839844 145.292969 L 6.664062 145.292969 Z M 6.664062 6.203125 " clip-rule="nonzero"/></clipPath><clipPath id="9b0c00285f"><path d="M 6.664062 151.675781 L 198.839844 151.675781 L 198.839844 179.699219 L 6.664062 179.699219 Z M 6.664062 151.675781 " clip-rule="nonzero"/></clipPath><clipPath id="59cfe35474"><path d="M 40.25 53.046875 L 79.878906 53.046875 L 79.878906 72.019531 L 40.25 72.019531 Z M 40.25 53.046875 " clip-rule="nonzero"/></clipPath><clipPath id="630995cce3"><path d="M 82.800781 53.046875 L 122.429688 53.046875 L 122.429688 72.019531 L 82.800781 72.019531 Z M 82.800781 53.046875 " clip-rule="nonzero"/></clipPath><clipPath id="e5ab5664ab"><path d="M 125.625 53.046875 L 165.253906 53.046875 L 165.253906 72.019531 L 125.625 72.019531 Z M 125.625 53.046875 " clip-rule="nonzero"/></clipPath><clipPath id="de208e90d2"><path d="M 40.25 77.53125 L 79.878906 77.53125 L 79.878906 96.503906 L 40.25 96.503906 Z M 40.25 77.53125 " clip-rule="nonzero"/></clipPath><clipPath id="5901a9e1d0"><path d="M 82.800781 77.53125 L 122.429688 77.53125 L 122.429688 96.503906 L 82.800781 96.503906 Z M 82.800781 77.53125 " clip-rule="nonzero"/></clipPath><clipPath id="20a21ecf9c"><path d="M 125.625 77.53125 L 165.253906 77.53125 L 165.253906 96.503906 L 125.625 96.503906 Z M 125.625 77.53125 " clip-rule="nonzero"/></clipPath><clipPath id="9cc34cf408"><path d="M 40.25 30.429688 L 165.253906 30.429688 L 165.253906 47.457031 L 40.25 47.457031 Z M 40.25 30.429688 " clip-rule="nonzero"/></clipPath><clipPath id="37cae503fa"><path d="M 40.25 102.09375 L 79.878906 102.09375 L 79.878906 121.066406 L 40.25 121.066406 Z M 40.25 102.09375 " clip-rule="nonzero"/></clipPath><clipPath id="59dfef6380"><path d="M 82.800781 102.09375 L 122.429688 102.09375 L 122.429688 121.066406 L 82.800781 121.066406 Z M 82.800781 102.09375 " clip-rule="nonzero"/></clipPath><clipPath id="3bd884a975"><path d="M 125.625 102.09375 L 165.253906 102.09375 L 165.253906 121.066406 L 125.625 121.066406 Z M 125.625 102.09375 " clip-rule="nonzero"/></clipPath></defs><g clip-path="url(#30cf767ac2)"><path fill="#ececec" d="M 6.664062 6.203125 L 198.839844 6.203125 L 198.839844 145.292969 L 6.664062 145.292969 Z M 6.664062 6.203125 " fill-opacity="1" fill-rule="nonzero"/></g><g clip-path="url(#9b0c00285f)"><path fill="#ffffff" d="M 6.664062 151.675781 L 198.839844 151.675781 L 198.839844 179.699219 L 6.664062 179.699219 Z M 6.664062 151.675781 " fill-opacity="1" fill-rule="nonzero"/></g><g fill="#423e3e" fill-opacity="1"><g transform="translate(8.500339, 170.74471)"><g><path d="M 11.871094 -9.542969 C 11.871094 -12.519531 9.667969 -14.042969 6.851562 -14.042969 L 1.632812 -14.042969 L 1.632812 0 L 4.539062 0 L 4.539062 -4.949219 L 6.742188 -4.949219 C 9.683594 -4.949219 11.871094 -6.4375 11.871094 -9.542969 Z M 8.949219 -9.46875 C 8.949219 -8.160156 7.765625 -7.65625 6.617188 -7.65625 L 4.539062 -7.65625 L 4.539062 -11.300781 L 6.601562 -11.300781 C 7.800781 -11.300781 8.949219 -10.832031 8.949219 -9.46875 Z M 8.949219 -9.46875 "/></g></g></g><g fill="#423e3e" fill-opacity="1"><g transform="translate(20.911175, 170.74471)"><g><path d="M 2.90625 0 L 3.945312 -2.832031 L 10.167969 -2.832031 L 11.226562 0 L 14.222656 0 L 8.84375 -14.042969 L 5.34375 -14.042969 L -0.0195312 0 Z M 7.066406 -11.226562 L 9.183594 -5.523438 L 4.949219 -5.523438 Z M 7.066406 -11.226562 "/></g></g></g><g fill="#423e3e" fill-opacity="1"><g transform="translate(35.115485, 170.74471)"><g><path d="M 12.429688 0 L 9.253906 -5.488281 C 11.15625 -6.167969 12.140625 -7.585938 12.140625 -9.59375 C 12.140625 -12.574219 9.898438 -14.042969 7.175781 -14.042969 L 1.632812 -14.042969 L 1.632812 0 L 4.539062 0 L 4.539062 -5.039062 L 6.296875 -5.039062 L 9.199219 0 Z M 6.957031 -7.730469 L 4.539062 -7.730469 L 4.539062 -11.300781 L 6.941406 -11.300781 C 8.035156 -11.300781 9.199219 -10.886719 9.199219 -9.542969 C 9.199219 -8.214844 8.035156 -7.730469 6.957031 -7.730469 Z M 6.957031 -7.730469 "/></g></g></g><g fill="#423e3e" fill-opacity="1"><g transform="translate(48.22577, 170.74471)"><g><path d="M 2.90625 0 L 3.945312 -2.832031 L 10.167969 -2.832031 L 11.226562 0 L 14.222656 0 L 8.84375 -14.042969 L 5.34375 -14.042969 L -0.0195312 0 Z M 7.066406 -11.226562 L 9.183594 -5.523438 L 4.949219 -5.523438 Z M 7.066406 -11.226562 "/></g></g></g><g fill="#423e3e" fill-opacity="1"><g transform="translate(62.43008, 170.74471)"><g><path d="M 14.238281 -9.273438 L 14.257812 -9.273438 L 14.257812 0 L 17.128906 0 L 17.128906 -14.042969 L 13.273438 -14.042969 L 9.363281 -4.628906 L 5.378906 -14.042969 L 1.632812 -14.042969 L 1.632812 0 L 4.484375 0 L 4.484375 -9.199219 L 4.5 -9.199219 L 8.394531 0 L 10.332031 0 Z M 14.238281 -9.273438 "/></g></g></g><g fill="#423e3e" fill-opacity="1"><g transform="translate(81.189808, 170.74471)"><g><path d="M 1.632812 -14.042969 L 1.632812 0 L 10.867188 0 L 10.867188 -2.707031 L 4.5 -2.707031 L 4.5 -5.738281 L 10.167969 -5.738281 L 10.167969 -8.464844 L 4.5 -8.464844 L 4.5 -11.316406 L 10.832031 -11.316406 L 10.832031 -14.042969 Z M 1.632812 -14.042969 "/></g></g></g><g fill="#423e3e" fill-opacity="1"><g transform="translate(93.080536, 170.74471)"><g><path d="M 4.589844 0 L 7.480469 0 L 7.480469 -11.226562 L 11.695312 -11.226562 L 11.695312 -14.042969 L 0.375 -14.042969 L 0.375 -11.226562 L 4.589844 -11.226562 Z M 4.589844 0 "/></g></g></g><g fill="#423e3e" fill-opacity="1"><g transform="translate(105.150604, 170.74471)"><g><path d="M 1.632812 -14.042969 L 1.632812 0 L 10.867188 0 L 10.867188 -2.707031 L 4.5 -2.707031 L 4.5 -5.738281 L 10.167969 -5.738281 L 10.167969 -8.464844 L 4.5 -8.464844 L 4.5 -11.316406 L 10.832031 -11.316406 L 10.832031 -14.042969 Z M 1.632812 -14.042969 "/></g></g></g><g fill="#423e3e" fill-opacity="1"><g transform="translate(117.041332, 170.74471)"><g><path d="M 12.429688 0 L 9.253906 -5.488281 C 11.15625 -6.167969 12.140625 -7.585938 12.140625 -9.59375 C 12.140625 -12.574219 9.898438 -14.042969 7.175781 -14.042969 L 1.632812 -14.042969 L 1.632812 0 L 4.539062 0 L 4.539062 -5.039062 L 6.296875 -5.039062 L 9.199219 0 Z M 6.957031 -7.730469 L 4.539062 -7.730469 L 4.539062 -11.300781 L 6.941406 -11.300781 C 8.035156 -11.300781 9.199219 -10.886719 9.199219 -9.542969 C 9.199219 -8.214844 8.035156 -7.730469 6.957031 -7.730469 Z M 6.957031 -7.730469 "/></g></g></g><g fill="#423e3e" fill-opacity="1"><g transform="translate(130.151617, 170.74471)"><g/></g></g><g fill="#423e3e" fill-opacity="1"><g transform="translate(134.653237, 170.74471)"><g><path d="M 4.589844 0 L 7.480469 0 L 7.480469 -11.226562 L 11.695312 -11.226562 L 11.695312 -14.042969 L 0.375 -14.042969 L 0.375 -11.226562 L 4.589844 -11.226562 Z M 4.589844 0 "/></g></g></g><g fill="#423e3e" fill-opacity="1"><g transform="translate(146.723306, 170.74471)"><g><path d="M 2.90625 0 L 3.945312 -2.832031 L 10.167969 -2.832031 L 11.226562 0 L 14.222656 0 L 8.84375 -14.042969 L 5.34375 -14.042969 L -0.0195312 0 Z M 7.066406 -11.226562 L 9.183594 -5.523438 L 4.949219 -5.523438 Z M 7.066406 -11.226562 "/></g></g></g><g fill="#423e3e" fill-opacity="1"><g transform="translate(160.927616, 170.74471)"><g><path d="M 12.554688 -3.875 C 12.554688 -5.738281 11.640625 -6.671875 9.972656 -7.300781 L 9.972656 -7.335938 C 11.191406 -7.964844 11.945312 -8.929688 11.945312 -10.332031 C 11.945312 -12.839844 9.71875 -14.042969 7.460938 -14.042969 L 1.632812 -14.042969 L 1.632812 0 L 7.550781 0 C 10.027344 0 12.554688 -1.023438 12.554688 -3.875 Z M 9.09375 -9.882812 C 9.09375 -8.609375 7.890625 -8.339844 6.867188 -8.339844 L 4.464844 -8.339844 L 4.464844 -11.371094 L 7.066406 -11.371094 C 8.035156 -11.371094 9.09375 -11.046875 9.09375 -9.882812 Z M 9.71875 -4.25 C 9.71875 -2.996094 8.554688 -2.691406 7.515625 -2.691406 L 4.464844 -2.691406 L 4.464844 -5.828125 L 7.425781 -5.828125 C 8.5 -5.828125 9.71875 -5.558594 9.71875 -4.25 Z M 9.71875 -4.25 "/></g></g></g><g fill="#423e3e" fill-opacity="1"><g transform="translate(174.27105, 170.74471)"><g><path d="M 1.632812 -14.042969 L 1.632812 0 L 10.527344 0 L 10.527344 -2.761719 L 4.519531 -2.761719 L 4.519531 -14.042969 Z M 1.632812 -14.042969 "/></g></g></g><g fill="#423e3e" fill-opacity="1"><g transform="translate(185.103626, 170.74471)"><g><path d="M 1.632812 -14.042969 L 1.632812 0 L 10.867188 0 L 10.867188 -2.707031 L 4.5 -2.707031 L 4.5 -5.738281 L 10.167969 -5.738281 L 10.167969 -8.464844 L 4.5 -8.464844 L 4.5 -11.316406 L 10.832031 -11.316406 L 10.832031 -14.042969 Z M 1.632812 -14.042969 "/></g></g></g><g clip-path="url(#59cfe35474)"><path fill="#bebebe" d="M 40.25 53.046875 L 79.878906 53.046875 L 79.878906 72.019531 L 40.25 72.019531 Z M 40.25 53.046875 " fill-opacity="1" fill-rule="nonzero"/></g><g clip-path="url(#630995cce3)"><path fill="#f5d228" d="M 82.800781 53.046875 L 122.429688 53.046875 L 122.429688 72.019531 L 82.800781 72.019531 Z M 82.800781 53.046875 " fill-opacity="1" fill-rule="nonzero"/></g><g clip-path="url(#e5ab5664ab)"><path fill="#bebebe" d="M 125.625 53.046875 L 165.253906 53.046875 L 165.253906 72.019531 L 125.625 72.019531 Z M 125.625 53.046875 " fill-opacity="1" fill-rule="nonzero"/></g><g clip-path="url(#de208e90d2)"><path fill="#423e3e" d="M 40.25 77.53125 L 79.878906 77.53125 L 79.878906 96.503906 L 40.25 96.503906 Z M 40.25 77.53125 " fill-opacity="1" fill-rule="nonzero"/></g><g clip-path="url(#5901a9e1d0)"><path fill="#bebebe" d="M 82.800781 77.53125 L 122.429688 77.53125 L 122.429688 96.503906 L 82.800781 96.503906 Z M 82.800781 77.53125 " fill-opacity="1" fill-rule="nonzero"/></g><g clip-path="url(#20a21ecf9c)"><path fill="#ffeb87" d="M 125.625 77.53125 L 165.253906 77.53125 L 165.253906 96.503906 L 125.625 96.503906 Z M 125.625 77.53125 " fill-opacity="1" fill-rule="nonzero"/></g><g clip-path="url(#9cc34cf408)"><path fill="#625e5e" d="M 40.25 30.429688 L 165.253906 30.429688 L 165.253906 47.457031 L 40.25 47.457031 Z M 40.25 30.429688 " fill-opacity="1" fill-rule="nonzero"/></g><g clip-path="url(#37cae503fa)"><path fill="#bebebe" d="M 40.25 102.09375 L 79.878906 102.09375 L 79.878906 121.066406 L 40.25 121.066406 Z M 40.25 102.09375 " fill-opacity="1" fill-rule="nonzero"/></g><g clip-path="url(#59dfef6380)"><path fill="#423e3e" d="M 82.800781 102.09375 L 122.429688 102.09375 L 122.429688 121.066406 L 82.800781 121.066406 Z M 82.800781 102.09375 " fill-opacity="1" fill-rule="nonzero"/></g><g clip-path="url(#3bd884a975)"><path fill="#f5d228" d="M 125.625 102.09375 L 165.253906 102.09375 L 165.253906 121.066406 L 125.625 121.066406 Z M 125.625 102.09375 " fill-opacity="1" fill-rule="nonzero"/></g></svg>