<svg xmlns="http://www.w3.org/2000/svg" xmlns:xlink="http://www.w3.org/1999/xlink" width="275" zoomAndPan="magnify" viewBox="0 0 206.25 187.499992" height="250" preserveAspectRatio="xMidYMid meet" version="1.0"><defs><g/><clipPath id="579b579acf"><path d="M 6.664062 6.203125 L 198.839844 6.203125 L 198.839844 145.292969 L 6.664062 145.292969 Z M 6.664062 6.203125 " clip-rule="nonzero"/></clipPath><clipPath id="b71d34c029"><path d="M 12.84375 151.675781 L 193.390625 151.675781 L 193.390625 176.78125 L 12.84375 176.78125 Z M 12.84375 151.675781 " clip-rule="nonzero"/></clipPath><clipPath id="f03a2cb516"><path d="M 102.75 25.398438 L 154 25.398438 L 154 113.117188 L 102.75 113.117188 Z M 102.75 25.398438 " clip-rule="nonzero"/></clipPath><clipPath id="9d7edabb05"><path d="M 102.75 25.398438 C 123.574219 25.398438 142.25 38.21875 149.734375 57.648438 C 157.21875 77.082031 151.96875 99.113281 136.527344 113.085938 L 102.75 75.75 Z M 102.75 25.398438 " clip-rule="nonzero"/></clipPath><clipPath id="a94621e14f"><path d="M 52 73 L 138.546875 73 L 138.546875 127 L 52 127 Z M 52 73 " clip-rule="nonzero"/></clipPath><clipPath id="117519638e"><path d="M 138.351562 111.347656 C 123.628906 126.074219 101.359375 130.214844 82.328125 121.765625 C 63.292969 113.320312 51.425781 94.027344 52.464844 73.230469 L 102.75 75.75 Z M 138.351562 111.347656 " clip-rule="nonzero"/></clipPath><clipPath id="03ae7eab30"><path d="M 52.402344 25.398438 L 102.75 25.398438 L 102.75 75.75 L 52.402344 75.75 Z M 52.402344 25.398438 " clip-rule="nonzero"/></clipPath><clipPath id="9f3e37a177"><path d="M 52.402344 75.75 C 52.402344 47.945312 74.941406 25.402344 102.746094 25.398438 L 102.75 75.75 Z M 52.402344 75.75 " clip-rule="nonzero"/></clipPath></defs><g clip-path="url(#579b579acf)"><path fill="#ececec" d="M 6.664062 6.203125 L 198.839844 6.203125 L 198.839844 145.292969 L 6.664062 145.292969 Z M 6.664062 6.203125 " fill-opacity="1" fill-rule="nonzero"/></g><g clip-path="url(#b71d34c029)"><path fill="#ffffff" d="M 12.84375 151.675781 L 193.390625 151.675781 L 193.390625 176.78125 L 12.84375 176.78125 Z M 12.84375 151.675781 " fill-opacity="1" fill-rule="nonzero"/></g><g fill="#423e3e" fill-opacity="1"><g transform="translate(19.662873, 168.054492)"><g><path d="M 9.894531 -7.949219 C 9.894531 -10.433594 8.054688 -11.703125 5.710938 -11.703125 L 1.359375 -11.703125 L 1.359375 0 L 3.78125 0 L 3.78125 -4.125 L 5.621094 -4.125 C 8.070312 -4.125 9.894531 -5.367188 9.894531 -7.949219 Z M 7.457031 -7.890625 C 7.457031 -6.800781 6.472656 -6.382812 5.515625 -6.382812 L 3.78125 -6.382812 L 3.78125 -9.414062 L 5.5 -9.414062 C 6.5 -9.414062 7.457031 -9.027344 7.457031 -7.890625 Z M 7.457031 -7.890625 "/></g></g></g><g fill="#423e3e" fill-opacity="1"><g transform="translate(30.00525, 168.054492)"><g><path d="M 3.78125 -11.703125 L 1.359375 -11.703125 L 1.359375 0 L 3.78125 0 Z M 3.78125 -11.703125 "/></g></g></g><g fill="#423e3e" fill-opacity="1"><g transform="translate(35.161495, 168.054492)"><g><path d="M 1.359375 -11.703125 L 1.359375 0 L 9.058594 0 L 9.058594 -2.257812 L 3.75 -2.257812 L 3.75 -4.78125 L 8.472656 -4.78125 L 8.472656 -7.054688 L 3.75 -7.054688 L 3.75 -9.429688 L 9.027344 -9.429688 L 9.027344 -11.703125 Z M 1.359375 -11.703125 "/></g></g></g><g fill="#423e3e" fill-opacity="1"><g transform="translate(45.070458, 168.054492)"><g/></g></g><g fill="#423e3e" fill-opacity="1"><g transform="translate(48.821808, 168.054492)"><g><path d="M 10.957031 0 L 8.996094 -2.242188 C 9.667969 -3.167969 10.191406 -4.320312 10.492188 -5.648438 L 8.519531 -6.113281 C 8.292969 -5.261719 7.964844 -4.484375 7.578125 -3.855469 L 5.886719 -5.785156 L 6.589844 -6.203125 C 7.742188 -6.890625 8.21875 -7.726562 8.21875 -8.816406 C 8.21875 -10.535156 6.605469 -11.898438 4.8125 -11.898438 C 2.839844 -11.898438 1.417969 -10.433594 1.417969 -8.742188 C 1.417969 -8.144531 1.6875 -7.324219 2.300781 -6.652344 L 2.75 -6.15625 C 1.628906 -5.425781 0.65625 -4.4375 0.65625 -3.078125 C 0.65625 -0.820312 2.496094 0.164062 4.453125 0.164062 C 5.558594 0.164062 6.574219 -0.164062 7.441406 -0.746094 L 8.101562 0 Z M 4.855469 -9.789062 C 5.53125 -9.789062 6.023438 -9.265625 6.023438 -8.742188 C 6.023438 -8.339844 5.859375 -8.011719 5.457031 -7.773438 L 4.601562 -7.261719 L 4.109375 -7.816406 C 3.722656 -8.25 3.675781 -8.472656 3.675781 -8.742188 C 3.675781 -9.265625 4.15625 -9.789062 4.855469 -9.789062 Z M 4.617188 -1.929688 C 3.945312 -1.929688 3.003906 -2.210938 3.003906 -3.304688 C 3.003906 -3.855469 3.46875 -4.320312 4.035156 -4.679688 L 6.082031 -2.332031 C 5.632812 -2.0625 5.140625 -1.929688 4.617188 -1.929688 Z M 4.617188 -1.929688 "/></g></g></g><g fill="#423e3e" fill-opacity="1"><g transform="translate(60.031035, 168.054492)"><g/></g></g><g fill="#423e3e" fill-opacity="1"><g transform="translate(63.782386, 168.054492)"><g><path d="M 11.554688 -5.875 C 11.554688 -9.550781 9.027344 -11.703125 4.945312 -11.703125 L 1.359375 -11.703125 L 1.359375 0 L 4.902344 0 C 9.042969 0 11.554688 -2.390625 11.554688 -5.875 Z M 9.070312 -5.875 C 9.070312 -3.570312 7.398438 -2.285156 4.976562 -2.285156 L 3.78125 -2.285156 L 3.78125 -9.414062 L 5.007812 -9.414062 C 7.308594 -9.414062 9.070312 -8.175781 9.070312 -5.875 Z M 9.070312 -5.875 "/></g></g></g><g fill="#423e3e" fill-opacity="1"><g transform="translate(76.007918, 168.054492)"><g><path d="M 0.644531 -5.84375 C 0.644531 -2.464844 3.332031 0.179688 6.695312 0.179688 C 10.058594 0.179688 12.792969 -2.496094 12.792969 -5.902344 C 12.792969 -9.265625 10.117188 -11.882812 6.753906 -11.882812 C 3.394531 -11.882812 0.644531 -9.207031 0.644531 -5.84375 Z M 3.125 -5.859375 C 3.125 -7.875 4.707031 -9.535156 6.726562 -9.535156 C 8.742188 -9.535156 10.328125 -7.875 10.328125 -5.859375 C 10.328125 -3.839844 8.742188 -2.167969 6.726562 -2.167969 C 4.707031 -2.167969 3.125 -3.839844 3.125 -5.859375 Z M 3.125 -5.859375 "/></g></g></g><g fill="#423e3e" fill-opacity="1"><g transform="translate(89.444044, 168.054492)"><g><path d="M 3.75 -8.070312 L 9.132812 0 L 11.597656 0 L 11.597656 -11.703125 L 9.207031 -11.703125 L 9.207031 -4.066406 L 4.125 -11.703125 L 1.359375 -11.703125 L 1.359375 0 L 3.75 0 Z M 3.75 -8.070312 "/></g></g></g><g fill="#423e3e" fill-opacity="1"><g transform="translate(102.416858, 168.054492)"><g><path d="M 10.640625 -4.722656 L 10.640625 -11.703125 L 8.25 -11.703125 L 8.25 -4.632812 C 8.25 -3.152344 7.429688 -2.167969 5.933594 -2.167969 C 4.664062 -2.167969 3.660156 -2.960938 3.660156 -4.691406 L 3.675781 -11.703125 L 1.242188 -11.703125 L 1.242188 -4.632812 C 1.242188 -1.808594 2.675781 0.164062 5.917969 0.164062 C 9.085938 0.164062 10.640625 -1.734375 10.640625 -4.722656 Z M 10.640625 -4.722656 "/></g></g></g><g fill="#423e3e" fill-opacity="1"><g transform="translate(114.298635, 168.054492)"><g><path d="M 3.824219 0 L 6.230469 0 L 6.230469 -9.355469 L 9.746094 -9.355469 L 9.746094 -11.703125 L 0.3125 -11.703125 L 0.3125 -9.355469 L 3.824219 -9.355469 Z M 3.824219 0 "/></g></g></g><g fill="#423e3e" fill-opacity="1"><g transform="translate(124.357052, 168.054492)"><g/></g></g><g fill="#423e3e" fill-opacity="1"><g transform="translate(128.108402, 168.054492)"><g><path d="M 0.644531 -5.84375 C 0.644531 -2.4375 3.257812 0.164062 6.664062 0.164062 C 8.96875 0.164062 11.253906 -1.105469 12.0625 -3.316406 L 9.835938 -4.347656 C 9.324219 -3.078125 8.160156 -2.183594 6.695312 -2.183594 C 4.617188 -2.183594 3.152344 -3.839844 3.152344 -5.875 C 3.152344 -7.875 4.664062 -9.519531 6.695312 -9.519531 C 8.160156 -9.519531 9.3125 -8.699219 9.804688 -7.414062 L 12.015625 -8.429688 C 11.222656 -10.625 9.011719 -11.882812 6.710938 -11.882812 C 3.363281 -11.882812 0.644531 -9.222656 0.644531 -5.84375 Z M 0.644531 -5.84375 "/></g></g></g><g fill="#423e3e" fill-opacity="1"><g transform="translate(140.543173, 168.054492)"><g><path d="M 3.78125 -4.738281 L 8.683594 -4.738281 L 8.683594 0 L 11.105469 0 L 11.105469 -11.703125 L 8.683594 -11.703125 L 8.683594 -7.085938 L 3.78125 -7.085938 L 3.78125 -11.703125 L 1.359375 -11.703125 L 1.359375 0 L 3.78125 0 Z M 3.78125 -4.738281 "/></g></g></g><g fill="#423e3e" fill-opacity="1"><g transform="translate(153.007829, 168.054492)"><g><path d="M 2.421875 0 L 3.289062 -2.363281 L 8.472656 -2.363281 L 9.355469 0 L 11.851562 0 L 7.367188 -11.703125 L 4.453125 -11.703125 L -0.015625 0 Z M 5.886719 -9.355469 L 7.652344 -4.601562 L 4.125 -4.601562 Z M 5.886719 -9.355469 "/></g></g></g><g fill="#423e3e" fill-opacity="1"><g transform="translate(164.844771, 168.054492)"><g><path d="M 10.355469 0 L 7.710938 -4.574219 C 9.296875 -5.140625 10.117188 -6.320312 10.117188 -7.996094 C 10.117188 -10.476562 8.25 -11.703125 5.976562 -11.703125 L 1.359375 -11.703125 L 1.359375 0 L 3.78125 0 L 3.78125 -4.199219 L 5.246094 -4.199219 L 7.667969 0 Z M 5.800781 -6.441406 L 3.78125 -6.441406 L 3.78125 -9.414062 L 5.785156 -9.414062 C 6.695312 -9.414062 7.667969 -9.070312 7.667969 -7.949219 C 7.667969 -6.84375 6.695312 -6.441406 5.800781 -6.441406 Z M 5.800781 -6.441406 "/></g></g></g><g fill="#423e3e" fill-opacity="1"><g transform="translate(175.770027, 168.054492)"><g><path d="M 3.824219 0 L 6.230469 0 L 6.230469 -9.355469 L 9.746094 -9.355469 L 9.746094 -11.703125 L 0.3125 -11.703125 L 0.3125 -9.355469 L 3.824219 -9.355469 Z M 3.824219 0 "/></g></g></g><g clip-path="url(#f03a2cb516)"><g clip-path="url(#9d7edabb05)"><path fill="#3d87e4" d="M 52.402344 25.398438 L 153.097656 25.398438 L 153.097656 126.097656 L 52.402344 126.097656 Z M 52.402344 25.398438 " fill-opacity="1" fill-rule="nonzero"/></g></g><g clip-path="url(#a94621e14f)"><g clip-path="url(#117519638e)"><path fill="#3ec9e9" d="M 52.402344 25.398438 L 153.097656 25.398438 L 153.097656 126.097656 L 52.402344 126.097656 Z M 52.402344 25.398438 " fill-opacity="1" fill-rule="nonzero"/></g></g><g clip-path="url(#03ae7eab30)"><g clip-path="url(#9f3e37a177)"><path fill="#3654d2" d="M 52.402344 25.398438 L 153.097656 25.398438 L 153.097656 126.097656 L 52.402344 126.097656 Z M 52.402344 25.398438 " fill-opacity="1" fill-rule="nonzero"/></g></g></svg>