<svg xmlns="http://www.w3.org/2000/svg" xmlns:xlink="http://www.w3.org/1999/xlink" width="275" zoomAndPan="magnify" viewBox="0 0 206.25 187.499992" height="250" preserveAspectRatio="xMidYMid meet" version="1.0"><defs><g/><clipPath id="f1e9919fa7"><path d="M 6.664062 6.203125 L 198.839844 6.203125 L 198.839844 145.292969 L 6.664062 145.292969 Z M 6.664062 6.203125 " clip-rule="nonzero"/></clipPath><clipPath id="1fb5d62ac6"><path d="M 12.84375 151.675781 L 193.390625 151.675781 L 193.390625 176.78125 L 12.84375 176.78125 Z M 12.84375 151.675781 " clip-rule="nonzero"/></clipPath></defs><g clip-path="url(#f1e9919fa7)"><path fill="#ececec" d="M 6.664062 6.203125 L 199 6.203125 L 199 145.292969 L 6.664062 145.292969 Z M 6.664062 6.203125 " fill-opacity="1" fill-rule="nonzero"/></g><g clip-path="url(#1fb5d62ac6)"><path fill="#ffffff" d="M 12.84375 151.675781 L 193.375 151.675781 L 193.375 176.78125 L 12.84375 176.78125 Z M 12.84375 151.675781 " fill-opacity="1" fill-rule="nonzero"/></g><g fill="#423e3e" fill-opacity="1"><g transform="translate(19.662873, 168.054492)"><g><path d="M 9.90625 -7.953125 C 9.90625 -7.097656 9.71875 -6.382812 9.34375 -5.8125 C 8.96875 -5.25 8.457031 -4.828125 7.8125 -4.546875 C 7.164062 -4.265625 6.4375 -4.125 5.625 -4.125 L 3.78125 -4.125 L 3.78125 0 L 1.359375 0 L 1.359375 -11.703125 L 5.71875 -11.703125 C 6.5 -11.703125 7.203125 -11.5625 7.828125 -11.28125 C 8.460938 -11.007812 8.96875 -10.59375 9.34375 -10.03125 C 9.71875 -9.476562 9.90625 -8.785156 9.90625 -7.953125 Z M 7.46875 -7.890625 C 7.46875 -8.273438 7.367188 -8.578125 7.171875 -8.796875 C 6.984375 -9.023438 6.742188 -9.1875 6.453125 -9.28125 C 6.160156 -9.375 5.84375 -9.421875 5.5 -9.421875 L 3.78125 -9.421875 L 3.78125 -6.390625 L 5.515625 -6.390625 C 5.835938 -6.390625 6.144531 -6.4375 6.4375 -6.53125 C 6.738281 -6.632812 6.984375 -6.796875 7.171875 -7.015625 C 7.367188 -7.242188 7.46875 -7.535156 7.46875 -7.890625 Z M 7.46875 -7.890625 "/></g></g></g><g fill="#423e3e" fill-opacity="1"><g transform="translate(30.00525, 168.054492)"><g><path d="M 3.78125 -11.703125 L 3.78125 0 L 1.359375 0 L 1.359375 -11.703125 Z M 3.78125 -11.703125 "/></g></g></g><g fill="#423e3e" fill-opacity="1"><g transform="translate(35.161495, 168.054492)"><g><path d="M 1.359375 -11.703125 L 9.03125 -11.703125 L 9.03125 -9.4375 L 3.75 -9.4375 L 3.75 -7.0625 L 8.484375 -7.0625 L 8.484375 -4.78125 L 3.75 -4.78125 L 3.75 -2.265625 L 9.0625 -2.265625 L 9.0625 0 L 1.359375 0 Z M 1.359375 -11.703125 "/></g></g></g><g fill="#423e3e" fill-opacity="1"><g transform="translate(45.070458, 168.054492)"><g/></g></g><g fill="#423e3e" fill-opacity="1"><g transform="translate(48.821808, 168.054492)"><g><path d="M 10.953125 0 L 8.109375 0 L 7.453125 -0.75 C 7.015625 -0.457031 6.546875 -0.226562 6.046875 -0.0625 C 5.546875 0.09375 5.015625 0.171875 4.453125 0.171875 C 3.804688 0.171875 3.191406 0.0546875 2.609375 -0.171875 C 2.023438 -0.398438 1.550781 -0.753906 1.1875 -1.234375 C 0.832031 -1.710938 0.65625 -2.328125 0.65625 -3.078125 C 0.65625 -3.535156 0.75 -3.953125 0.9375 -4.328125 C 1.132812 -4.703125 1.394531 -5.039062 1.71875 -5.34375 C 2.039062 -5.644531 2.382812 -5.914062 2.75 -6.15625 L 2.296875 -6.65625 C 1.992188 -6.988281 1.769531 -7.34375 1.625 -7.71875 C 1.488281 -8.101562 1.421875 -8.445312 1.421875 -8.75 C 1.421875 -9.3125 1.566406 -9.832031 1.859375 -10.3125 C 2.148438 -10.789062 2.550781 -11.175781 3.0625 -11.46875 C 3.570312 -11.757812 4.15625 -11.90625 4.8125 -11.90625 C 5.414062 -11.90625 5.972656 -11.765625 6.484375 -11.484375 C 7.003906 -11.210938 7.421875 -10.84375 7.734375 -10.375 C 8.054688 -9.914062 8.21875 -9.398438 8.21875 -8.828125 C 8.21875 -8.273438 8.09375 -7.785156 7.84375 -7.359375 C 7.59375 -6.941406 7.175781 -6.554688 6.59375 -6.203125 L 5.890625 -5.78125 L 7.578125 -3.859375 C 7.972656 -4.503906 8.285156 -5.253906 8.515625 -6.109375 L 10.5 -5.65625 C 10.34375 -4.988281 10.140625 -4.367188 9.890625 -3.796875 C 9.640625 -3.234375 9.34375 -2.71875 9 -2.25 Z M 4.859375 -9.796875 C 4.515625 -9.796875 4.226562 -9.6875 4 -9.46875 C 3.78125 -9.25 3.671875 -9.007812 3.671875 -8.75 C 3.671875 -8.613281 3.695312 -8.476562 3.75 -8.34375 C 3.800781 -8.21875 3.921875 -8.046875 4.109375 -7.828125 L 4.609375 -7.265625 L 5.453125 -7.78125 C 5.648438 -7.894531 5.796875 -8.035156 5.890625 -8.203125 C 5.984375 -8.367188 6.03125 -8.550781 6.03125 -8.75 C 6.03125 -9.007812 5.921875 -9.25 5.703125 -9.46875 C 5.484375 -9.6875 5.203125 -9.796875 4.859375 -9.796875 Z M 4.625 -1.921875 C 5.144531 -1.921875 5.628906 -2.054688 6.078125 -2.328125 L 4.03125 -4.6875 C 3.757812 -4.5 3.519531 -4.289062 3.3125 -4.0625 C 3.101562 -3.832031 3 -3.578125 3 -3.296875 C 3 -2.941406 3.085938 -2.664062 3.265625 -2.46875 C 3.441406 -2.269531 3.65625 -2.128906 3.90625 -2.046875 C 4.164062 -1.960938 4.40625 -1.921875 4.625 -1.921875 Z M 4.625 -1.921875 "/></g></g></g><g fill="#423e3e" fill-opacity="1"><g transform="translate(60.031035, 168.054492)"><g/></g></g><g fill="#423e3e" fill-opacity="1"><g transform="translate(63.782386, 168.054492)"><g><path d="M 11.5625 -5.875 C 11.5625 -4.71875 11.289062 -3.695312 10.75 -2.8125 C 10.21875 -1.925781 9.457031 -1.234375 8.46875 -0.734375 C 7.476562 -0.242188 6.289062 0 4.90625 0 L 1.359375 0 L 1.359375 -11.703125 L 4.953125 -11.703125 C 6.316406 -11.703125 7.488281 -11.472656 8.46875 -11.015625 C 9.457031 -10.554688 10.21875 -9.890625 10.75 -9.015625 C 11.289062 -8.148438 11.5625 -7.101562 11.5625 -5.875 Z M 9.078125 -5.875 C 9.078125 -6.644531 8.894531 -7.289062 8.53125 -7.8125 C 8.175781 -8.34375 7.691406 -8.742188 7.078125 -9.015625 C 6.460938 -9.285156 5.773438 -9.421875 5.015625 -9.421875 L 3.78125 -9.421875 L 3.78125 -2.28125 L 4.984375 -2.28125 C 5.785156 -2.28125 6.492188 -2.421875 7.109375 -2.703125 C 7.734375 -2.984375 8.21875 -3.390625 8.5625 -3.921875 C 8.90625 -4.453125 9.078125 -5.101562 9.078125 -5.875 Z M 9.078125 -5.875 "/></g></g></g><g fill="#423e3e" fill-opacity="1"><g transform="translate(76.007918, 168.054492)"><g><path d="M 0.640625 -5.84375 C 0.640625 -6.6875 0.796875 -7.472656 1.109375 -8.203125 C 1.429688 -8.929688 1.875 -9.570312 2.4375 -10.125 C 3 -10.675781 3.648438 -11.109375 4.390625 -11.421875 C 5.128906 -11.734375 5.921875 -11.890625 6.765625 -11.890625 C 7.597656 -11.890625 8.378906 -11.734375 9.109375 -11.421875 C 9.847656 -11.117188 10.492188 -10.695312 11.046875 -10.15625 C 11.597656 -9.613281 12.023438 -8.976562 12.328125 -8.25 C 12.640625 -7.519531 12.796875 -6.738281 12.796875 -5.90625 C 12.796875 -5.0625 12.640625 -4.269531 12.328125 -3.53125 C 12.015625 -2.789062 11.578125 -2.140625 11.015625 -1.578125 C 10.453125 -1.023438 9.800781 -0.59375 9.0625 -0.28125 C 8.320312 0.0195312 7.535156 0.171875 6.703125 0.171875 C 5.859375 0.171875 5.070312 0.0195312 4.34375 -0.28125 C 3.613281 -0.59375 2.96875 -1.019531 2.40625 -1.5625 C 1.851562 -2.113281 1.421875 -2.753906 1.109375 -3.484375 C 0.796875 -4.210938 0.640625 -5 0.640625 -5.84375 Z M 3.125 -5.859375 C 3.125 -5.191406 3.28125 -4.578125 3.59375 -4.015625 C 3.914062 -3.453125 4.351562 -3.003906 4.90625 -2.671875 C 5.457031 -2.335938 6.066406 -2.171875 6.734375 -2.171875 C 7.410156 -2.171875 8.019531 -2.335938 8.5625 -2.671875 C 9.101562 -3.003906 9.53125 -3.453125 9.84375 -4.015625 C 10.164062 -4.578125 10.328125 -5.191406 10.328125 -5.859375 C 10.328125 -6.535156 10.164062 -7.148438 9.84375 -7.703125 C 9.53125 -8.253906 9.101562 -8.695312 8.5625 -9.03125 C 8.019531 -9.375 7.410156 -9.546875 6.734375 -9.546875 C 6.066406 -9.546875 5.457031 -9.375 4.90625 -9.03125 C 4.351562 -8.695312 3.914062 -8.253906 3.59375 -7.703125 C 3.28125 -7.148438 3.125 -6.535156 3.125 -5.859375 Z M 3.125 -5.859375 "/></g></g></g><g fill="#423e3e" fill-opacity="1"><g transform="translate(89.444044, 168.054492)"><g><path d="M 3.75 -8.078125 L 3.75 0 L 1.359375 0 L 1.359375 -11.703125 L 4.125 -11.703125 L 9.21875 -4.0625 L 9.21875 -11.703125 L 11.609375 -11.703125 L 11.609375 0 L 9.140625 0 Z M 3.75 -8.078125 "/></g></g></g><g fill="#423e3e" fill-opacity="1"><g transform="translate(102.416858, 168.054492)"><g><path d="M 10.640625 -4.71875 C 10.640625 -3.726562 10.460938 -2.863281 10.109375 -2.125 C 9.765625 -1.394531 9.242188 -0.828125 8.546875 -0.421875 C 7.847656 -0.0234375 6.972656 0.171875 5.921875 0.171875 C 4.847656 0.171875 3.960938 -0.03125 3.265625 -0.4375 C 2.578125 -0.851562 2.066406 -1.421875 1.734375 -2.140625 C 1.398438 -2.867188 1.234375 -3.703125 1.234375 -4.640625 L 1.234375 -11.703125 L 3.671875 -11.703125 L 3.65625 -4.6875 C 3.65625 -3.820312 3.875 -3.1875 4.3125 -2.78125 C 4.757812 -2.375 5.300781 -2.171875 5.9375 -2.171875 C 6.6875 -2.171875 7.257812 -2.394531 7.65625 -2.84375 C 8.050781 -3.300781 8.25 -3.898438 8.25 -4.640625 L 8.25 -11.703125 L 10.640625 -11.703125 Z M 10.640625 -4.71875 "/></g></g></g><g fill="#423e3e" fill-opacity="1"><g transform="translate(114.298635, 168.054492)"><g><path d="M 3.828125 0 L 3.828125 -9.359375 L 0.3125 -9.359375 L 0.3125 -11.703125 L 9.75 -11.703125 L 9.75 -9.359375 L 6.234375 -9.359375 L 6.234375 0 Z M 3.828125 0 "/></g></g></g><g fill="#423e3e" fill-opacity="1"><g transform="translate(124.357052, 168.054492)"><g/></g></g><g fill="#423e3e" fill-opacity="1"><g transform="translate(128.108402, 168.054492)"><g><path d="M 0.640625 -5.84375 C 0.640625 -6.695312 0.796875 -7.488281 1.109375 -8.21875 C 1.421875 -8.945312 1.859375 -9.582031 2.421875 -10.125 C 2.984375 -10.675781 3.628906 -11.109375 4.359375 -11.421875 C 5.085938 -11.734375 5.875 -11.890625 6.71875 -11.890625 C 7.476562 -11.890625 8.210938 -11.753906 8.921875 -11.484375 C 9.640625 -11.210938 10.269531 -10.820312 10.8125 -10.3125 C 11.363281 -9.800781 11.765625 -9.175781 12.015625 -8.4375 L 9.8125 -7.421875 C 9.5625 -8.066406 9.164062 -8.578125 8.625 -8.953125 C 8.082031 -9.335938 7.441406 -9.53125 6.703125 -9.53125 C 6.023438 -9.53125 5.414062 -9.363281 4.875 -9.03125 C 4.34375 -8.695312 3.921875 -8.253906 3.609375 -7.703125 C 3.304688 -7.148438 3.15625 -6.539062 3.15625 -5.875 C 3.15625 -5.195312 3.304688 -4.578125 3.609375 -4.015625 C 3.910156 -3.460938 4.328125 -3.019531 4.859375 -2.6875 C 5.398438 -2.351562 6.015625 -2.1875 6.703125 -2.1875 C 7.441406 -2.1875 8.085938 -2.382812 8.640625 -2.78125 C 9.191406 -3.1875 9.59375 -3.707031 9.84375 -4.34375 L 12.0625 -3.3125 C 11.789062 -2.582031 11.375 -1.957031 10.8125 -1.4375 C 10.257812 -0.914062 9.625 -0.515625 8.90625 -0.234375 C 8.1875 0.0351562 7.441406 0.171875 6.671875 0.171875 C 5.816406 0.171875 5.023438 0.0195312 4.296875 -0.28125 C 3.566406 -0.59375 2.925781 -1.019531 2.375 -1.5625 C 1.832031 -2.101562 1.40625 -2.738281 1.09375 -3.46875 C 0.789062 -4.207031 0.640625 -5 0.640625 -5.84375 Z M 0.640625 -5.84375 "/></g></g></g><g fill="#423e3e" fill-opacity="1"><g transform="translate(140.543173, 168.054492)"><g><path d="M 3.78125 -4.734375 L 3.78125 0 L 1.359375 0 L 1.359375 -11.703125 L 3.78125 -11.703125 L 3.78125 -7.09375 L 8.6875 -7.09375 L 8.6875 -11.703125 L 11.109375 -11.703125 L 11.109375 0 L 8.6875 0 L 8.6875 -4.734375 Z M 3.78125 -4.734375 "/></g></g></g><g fill="#423e3e" fill-opacity="1"><g transform="translate(153.007829, 168.054492)"><g><path d="M 2.421875 0 L -0.015625 0 L 4.453125 -11.703125 L 7.375 -11.703125 L 11.859375 0 L 9.359375 0 L 8.484375 -2.359375 L 3.296875 -2.359375 Z M 5.890625 -9.359375 L 4.125 -4.609375 L 7.65625 -4.609375 Z M 5.890625 -9.359375 "/></g></g></g><g fill="#423e3e" fill-opacity="1"><g transform="translate(164.844771, 168.054492)"><g><path d="M 10.359375 0 L 7.671875 0 L 5.25 -4.203125 L 3.78125 -4.203125 L 3.78125 0 L 1.359375 0 L 1.359375 -11.703125 L 5.984375 -11.703125 C 6.742188 -11.703125 7.4375 -11.566406 8.0625 -11.296875 C 8.6875 -11.023438 9.1875 -10.613281 9.5625 -10.0625 C 9.9375 -9.507812 10.125 -8.820312 10.125 -8 C 10.125 -6.289062 9.320312 -5.148438 7.71875 -4.578125 Z M 5.796875 -6.4375 C 6.097656 -6.4375 6.394531 -6.488281 6.6875 -6.59375 C 6.976562 -6.695312 7.210938 -6.859375 7.390625 -7.078125 C 7.578125 -7.296875 7.671875 -7.585938 7.671875 -7.953125 C 7.671875 -8.328125 7.578125 -8.617188 7.390625 -8.828125 C 7.203125 -9.046875 6.960938 -9.195312 6.671875 -9.28125 C 6.390625 -9.375 6.09375 -9.421875 5.78125 -9.421875 L 3.78125 -9.421875 L 3.78125 -6.4375 Z M 5.796875 -6.4375 "/></g></g></g><g fill="#423e3e" fill-opacity="1"><g transform="translate(175.770027, 168.054492)"><g><path d="M 3.828125 0 L 3.828125 -9.359375 L 0.3125 -9.359375 L 0.3125 -11.703125 L 9.75 -11.703125 L 9.75 -9.359375 L 6.234375 -9.359375 L 6.234375 0 Z M 3.828125 0 "/></g></g></g><path fill="#8b73ff" d="M 102.75 25.398438 C 105.226562 25.398438 107.691406 25.582031 110.140625 25.945312 C 112.589844 26.308594 114.996094 26.847656 117.367188 27.566406 C 119.734375 28.285156 122.039062 29.175781 124.277344 30.234375 C 126.515625 31.292969 128.664062 32.511719 130.722656 33.886719 C 132.78125 35.261719 134.726562 36.78125 136.5625 38.441406 C 138.398438 40.105469 140.101562 41.894531 141.671875 43.808594 C 143.242188 45.722656 144.664062 47.742188 145.9375 49.863281 C 147.210938 51.988281 148.320312 54.191406 149.265625 56.480469 C 150.214844 58.769531 150.988281 61.113281 151.589844 63.515625 C 152.191406 65.917969 152.613281 68.347656 152.855469 70.8125 C 153.097656 73.277344 153.160156 75.746094 153.039062 78.21875 C 152.917969 80.691406 152.613281 83.140625 152.132812 85.570312 C 151.648438 88 150.992188 90.378906 150.15625 92.710938 C 149.320312 95.039062 148.320312 97.296875 147.152344 99.480469 C 145.988281 101.664062 144.667969 103.75 143.191406 105.742188 C 141.714844 107.730469 140.101562 109.597656 138.351562 111.347656 L 102.75 75.75 Z M 102.75 25.398438 " fill-opacity="1" fill-rule="nonzero"/><path fill="#96e17b" d="M 138.351562 111.347656 C 136.601562 113.101562 134.730469 114.714844 132.742188 116.1875 C 130.753906 117.664062 128.667969 118.984375 126.484375 120.152344 C 124.300781 121.316406 122.042969 122.320312 119.714844 123.152344 C 117.382812 123.988281 115.003906 124.644531 112.574219 125.128906 C 110.144531 125.613281 107.695312 125.914062 105.222656 126.035156 C 102.75 126.15625 100.28125 126.097656 97.816406 125.855469 C 95.351562 125.609375 92.917969 125.1875 90.519531 124.585938 C 88.117188 123.984375 85.773438 123.210938 83.484375 122.261719 C 81.195312 121.316406 78.992188 120.207031 76.867188 118.933594 C 74.742188 117.660156 72.726562 116.238281 70.8125 114.667969 C 68.898438 113.097656 67.109375 111.394531 65.445312 109.558594 C 63.785156 107.726562 62.265625 105.777344 60.886719 103.71875 C 59.511719 101.660156 58.296875 99.511719 57.238281 97.273438 C 56.179688 95.035156 55.289062 92.734375 54.570312 90.363281 C 53.851562 87.992188 53.3125 85.585938 52.949219 83.136719 C 52.585938 80.6875 52.402344 78.222656 52.402344 75.75 L 102.75 75.75 Z M 138.351562 111.347656 " fill-opacity="1" fill-rule="nonzero"/><path fill="#ff9861" d="M 52.402344 75.75 C 52.402344 74.097656 52.484375 72.453125 52.644531 70.8125 C 52.808594 69.171875 53.050781 67.542969 53.371094 65.925781 C 53.691406 64.308594 54.09375 62.710938 54.570312 61.132812 C 55.050781 59.554688 55.605469 58.003906 56.234375 56.480469 C 56.867188 54.957031 57.570312 53.46875 58.347656 52.015625 C 59.125 50.5625 59.972656 49.148438 60.886719 47.777344 C 61.804688 46.40625 62.785156 45.085938 63.832031 43.808594 C 64.875 42.535156 65.980469 41.316406 67.148438 40.148438 C 68.3125 38.984375 69.535156 37.875 70.808594 36.832031 C 72.082031 35.785156 73.40625 34.804688 74.777344 33.886719 C 76.148438 32.972656 77.558594 32.125 79.015625 31.347656 C 80.46875 30.570312 81.957031 29.867188 83.480469 29.234375 C 85.003906 28.601562 86.554688 28.046875 88.132812 27.570312 C 89.710938 27.089844 91.308594 26.691406 92.925781 26.367188 C 94.542969 26.046875 96.171875 25.804688 97.8125 25.644531 C 99.453125 25.480469 101.097656 25.398438 102.746094 25.398438 L 102.75 75.75 Z M 52.402344 75.75 " fill-opacity="1" fill-rule="nonzero"/></svg>