<svg xmlns="http://www.w3.org/2000/svg" xmlns:xlink="http://www.w3.org/1999/xlink" width="300" zoomAndPan="magnify" viewBox="0 0 224.87999 168.749997" height="225" preserveAspectRatio="xMidYMid meet" version="1.0"><defs><g/><clipPath id="577b22fd3e"><path d="M 5.984375 6.058594 L 219.1875 6.058594 L 219.1875 162.441406 L 5.984375 162.441406 Z M 5.984375 6.058594 " clip-rule="nonzero"/></clipPath></defs><g clip-path="url(#577b22fd3e)"><path fill="#ececec" d="M 5.984375 6.058594 L 219.179688 6.058594 L 219.179688 162.441406 L 5.984375 162.441406 Z M 5.984375 6.058594 " fill-opacity="1" fill-rule="nonzero"/></g><g fill="#423e3e" fill-opacity="1"><g transform="translate(23.649039, 143.18255)"><g><path d="M 10.578125 -8.5 C 10.578125 -7.582031 10.375 -6.816406 9.96875 -6.203125 C 9.570312 -5.597656 9.03125 -5.144531 8.34375 -4.84375 C 7.65625 -4.550781 6.875 -4.40625 6 -4.40625 L 4.046875 -4.40625 L 4.046875 0 L 1.453125 0 L 1.453125 -12.5 L 6.09375 -12.5 C 6.9375 -12.5 7.691406 -12.347656 8.359375 -12.046875 C 9.035156 -11.753906 9.570312 -11.3125 9.96875 -10.71875 C 10.375 -10.125 10.578125 -9.382812 10.578125 -8.5 Z M 7.96875 -8.4375 C 7.96875 -8.832031 7.863281 -9.148438 7.65625 -9.390625 C 7.457031 -9.628906 7.203125 -9.800781 6.890625 -9.90625 C 6.578125 -10.007812 6.238281 -10.0625 5.875 -10.0625 L 4.046875 -10.0625 L 4.046875 -6.8125 L 5.890625 -6.8125 C 6.234375 -6.8125 6.5625 -6.863281 6.875 -6.96875 C 7.195312 -7.082031 7.457031 -7.257812 7.65625 -7.5 C 7.863281 -7.738281 7.96875 -8.050781 7.96875 -8.4375 Z M 7.96875 -8.4375 "/></g></g></g><g fill="#423e3e" fill-opacity="1"><g transform="translate(34.702007, 143.18255)"><g><path d="M 4.046875 -12.5 L 4.046875 0 L 1.453125 0 L 1.453125 -12.5 Z M 4.046875 -12.5 "/></g></g></g><g fill="#423e3e" fill-opacity="1"><g transform="translate(40.212516, 143.18255)"><g><path d="M 1.453125 -12.5 L 9.640625 -12.5 L 9.640625 -10.078125 L 4.015625 -10.078125 L 4.015625 -7.53125 L 9.046875 -7.53125 L 9.046875 -5.109375 L 4.015625 -5.109375 L 4.015625 -2.40625 L 9.671875 -2.40625 L 9.671875 0 L 1.453125 0 Z M 1.453125 -12.5 "/></g></g></g><g fill="#423e3e" fill-opacity="1"><g transform="translate(50.802284, 143.18255)"><g/></g></g><g fill="#423e3e" fill-opacity="1"><g transform="translate(54.811378, 143.18255)"><g><path d="M 11.703125 0 L 8.65625 0 L 7.953125 -0.796875 C 7.492188 -0.484375 6.992188 -0.242188 6.453125 -0.078125 C 5.921875 0.0859375 5.359375 0.171875 4.765625 0.171875 C 4.066406 0.171875 3.40625 0.0507812 2.78125 -0.1875 C 2.164062 -0.4375 1.664062 -0.816406 1.28125 -1.328125 C 0.894531 -1.835938 0.703125 -2.492188 0.703125 -3.296875 C 0.703125 -3.785156 0.804688 -4.226562 1.015625 -4.625 C 1.222656 -5.019531 1.492188 -5.378906 1.828125 -5.703125 C 2.171875 -6.035156 2.539062 -6.328125 2.9375 -6.578125 L 2.453125 -7.109375 C 2.128906 -7.472656 1.890625 -7.851562 1.734375 -8.25 C 1.585938 -8.65625 1.515625 -9.019531 1.515625 -9.34375 C 1.515625 -9.945312 1.671875 -10.503906 1.984375 -11.015625 C 2.296875 -11.523438 2.722656 -11.9375 3.265625 -12.25 C 3.816406 -12.5625 4.441406 -12.71875 5.140625 -12.71875 C 5.773438 -12.71875 6.367188 -12.566406 6.921875 -12.265625 C 7.484375 -11.972656 7.929688 -11.578125 8.265625 -11.078125 C 8.609375 -10.585938 8.78125 -10.035156 8.78125 -9.421875 C 8.78125 -8.835938 8.644531 -8.316406 8.375 -7.859375 C 8.101562 -7.410156 7.660156 -7 7.046875 -6.625 L 6.296875 -6.1875 L 8.09375 -4.125 C 8.519531 -4.8125 8.859375 -5.613281 9.109375 -6.53125 L 11.203125 -6.03125 C 11.046875 -5.320312 10.832031 -4.660156 10.5625 -4.046875 C 10.289062 -3.441406 9.972656 -2.890625 9.609375 -2.390625 Z M 5.1875 -10.453125 C 4.8125 -10.453125 4.503906 -10.332031 4.265625 -10.09375 C 4.035156 -9.863281 3.921875 -9.613281 3.921875 -9.34375 C 3.921875 -9.207031 3.945312 -9.066406 4 -8.921875 C 4.0625 -8.773438 4.191406 -8.585938 4.390625 -8.359375 L 4.921875 -7.765625 L 5.828125 -8.296875 C 6.035156 -8.429688 6.1875 -8.582031 6.28125 -8.75 C 6.382812 -8.925781 6.4375 -9.125 6.4375 -9.34375 C 6.4375 -9.613281 6.316406 -9.863281 6.078125 -10.09375 C 5.847656 -10.332031 5.550781 -10.453125 5.1875 -10.453125 Z M 4.9375 -2.0625 C 5.5 -2.0625 6.019531 -2.203125 6.5 -2.484375 L 4.3125 -5 C 4.007812 -4.800781 3.75 -4.578125 3.53125 -4.328125 C 3.3125 -4.085938 3.203125 -3.820312 3.203125 -3.53125 C 3.203125 -3.144531 3.296875 -2.84375 3.484375 -2.625 C 3.671875 -2.414062 3.898438 -2.269531 4.171875 -2.1875 C 4.441406 -2.101562 4.695312 -2.0625 4.9375 -2.0625 Z M 4.9375 -2.0625 "/></g></g></g><g fill="#423e3e" fill-opacity="1"><g transform="translate(66.790746, 143.18255)"><g/></g></g><g fill="#423e3e" fill-opacity="1"><g transform="translate(70.79984, 143.18255)"><g><path d="M 12.34375 -6.28125 C 12.34375 -5.039062 12.054688 -3.945312 11.484375 -3 C 10.921875 -2.050781 10.109375 -1.3125 9.046875 -0.78125 C 7.984375 -0.257812 6.710938 0 5.234375 0 L 1.453125 0 L 1.453125 -12.5 L 5.28125 -12.5 C 6.738281 -12.5 7.992188 -12.253906 9.046875 -11.765625 C 10.109375 -11.273438 10.921875 -10.5625 11.484375 -9.625 C 12.054688 -8.695312 12.34375 -7.582031 12.34375 -6.28125 Z M 9.6875 -6.28125 C 9.6875 -7.09375 9.492188 -7.78125 9.109375 -8.34375 C 8.734375 -8.914062 8.21875 -9.34375 7.5625 -9.625 C 6.90625 -9.914062 6.164062 -10.0625 5.34375 -10.0625 L 4.046875 -10.0625 L 4.046875 -2.4375 L 5.3125 -2.4375 C 6.175781 -2.4375 6.9375 -2.585938 7.59375 -2.890625 C 8.257812 -3.191406 8.773438 -3.625 9.140625 -4.1875 C 9.503906 -4.757812 9.6875 -5.457031 9.6875 -6.28125 Z M 9.6875 -6.28125 "/></g></g></g><g fill="#423e3e" fill-opacity="1"><g transform="translate(83.865337, 143.18255)"><g><path d="M 0.6875 -6.25 C 0.6875 -7.132812 0.851562 -7.96875 1.1875 -8.75 C 1.53125 -9.539062 2 -10.226562 2.59375 -10.8125 C 3.195312 -11.40625 3.894531 -11.863281 4.6875 -12.1875 C 5.476562 -12.519531 6.320312 -12.6875 7.21875 -12.6875 C 8.113281 -12.6875 8.953125 -12.523438 9.734375 -12.203125 C 10.515625 -11.878906 11.195312 -11.425781 11.78125 -10.84375 C 12.375 -10.269531 12.835938 -9.59375 13.171875 -8.8125 C 13.503906 -8.039062 13.671875 -7.207031 13.671875 -6.3125 C 13.671875 -5.40625 13.5 -4.554688 13.15625 -3.765625 C 12.820312 -2.984375 12.351562 -2.289062 11.75 -1.6875 C 11.15625 -1.09375 10.460938 -0.628906 9.671875 -0.296875 C 8.890625 0.0234375 8.050781 0.1875 7.15625 0.1875 C 6.257812 0.1875 5.421875 0.0234375 4.640625 -0.296875 C 3.859375 -0.628906 3.171875 -1.085938 2.578125 -1.671875 C 1.984375 -2.265625 1.519531 -2.945312 1.1875 -3.71875 C 0.851562 -4.5 0.6875 -5.34375 0.6875 -6.25 Z M 3.34375 -6.265625 C 3.34375 -5.546875 3.507812 -4.882812 3.84375 -4.28125 C 4.1875 -3.6875 4.648438 -3.207031 5.234375 -2.84375 C 5.816406 -2.488281 6.46875 -2.3125 7.1875 -2.3125 C 7.90625 -2.3125 8.554688 -2.488281 9.140625 -2.84375 C 9.722656 -3.207031 10.179688 -3.6875 10.515625 -4.28125 C 10.859375 -4.882812 11.03125 -5.546875 11.03125 -6.265625 C 11.03125 -6.984375 10.859375 -7.640625 10.515625 -8.234375 C 10.179688 -8.828125 9.722656 -9.300781 9.140625 -9.65625 C 8.554688 -10.007812 7.90625 -10.1875 7.1875 -10.1875 C 6.46875 -10.1875 5.816406 -10.007812 5.234375 -9.65625 C 4.648438 -9.300781 4.1875 -8.828125 3.84375 -8.234375 C 3.507812 -7.640625 3.34375 -6.984375 3.34375 -6.265625 Z M 3.34375 -6.265625 "/></g></g></g><g fill="#423e3e" fill-opacity="1"><g transform="translate(98.224606, 143.18255)"><g><path d="M 4.015625 -8.625 L 4.015625 0 L 1.453125 0 L 1.453125 -12.5 L 4.40625 -12.5 L 9.84375 -4.34375 L 9.84375 -12.5 L 12.390625 -12.5 L 12.390625 0 L 9.75 0 Z M 4.015625 -8.625 "/></g></g></g><g fill="#423e3e" fill-opacity="1"><g transform="translate(112.088736, 143.18255)"><g><path d="M 11.375 -5.046875 C 11.375 -3.984375 11.1875 -3.0625 10.8125 -2.28125 C 10.4375 -1.5 9.875 -0.894531 9.125 -0.46875 C 8.382812 -0.0390625 7.453125 0.171875 6.328125 0.171875 C 5.171875 0.171875 4.222656 -0.046875 3.484375 -0.484375 C 2.742188 -0.921875 2.195312 -1.523438 1.84375 -2.296875 C 1.5 -3.066406 1.328125 -3.953125 1.328125 -4.953125 L 1.328125 -12.5 L 3.921875 -12.5 L 3.90625 -5.015625 C 3.90625 -4.085938 4.140625 -3.40625 4.609375 -2.96875 C 5.078125 -2.53125 5.65625 -2.3125 6.34375 -2.3125 C 7.132812 -2.3125 7.742188 -2.550781 8.171875 -3.03125 C 8.597656 -3.519531 8.8125 -4.160156 8.8125 -4.953125 L 8.8125 -12.5 L 11.375 -12.5 Z M 11.375 -5.046875 "/></g></g></g><g fill="#423e3e" fill-opacity="1"><g transform="translate(124.786873, 143.18255)"><g><path d="M 4.09375 0 L 4.09375 -10 L 0.328125 -10 L 0.328125 -12.5 L 10.40625 -12.5 L 10.40625 -10 L 6.65625 -10 L 6.65625 0 Z M 4.09375 0 "/></g></g></g><g fill="#423e3e" fill-opacity="1"><g transform="translate(135.536358, 143.18255)"><g/></g></g><g fill="#423e3e" fill-opacity="1"><g transform="translate(139.545452, 143.18255)"><g><path d="M 0.6875 -6.25 C 0.6875 -7.144531 0.851562 -7.984375 1.1875 -8.765625 C 1.519531 -9.554688 1.984375 -10.242188 2.578125 -10.828125 C 3.179688 -11.410156 3.875 -11.863281 4.65625 -12.1875 C 5.4375 -12.519531 6.273438 -12.6875 7.171875 -12.6875 C 7.992188 -12.6875 8.785156 -12.539062 9.546875 -12.25 C 10.304688 -11.96875 10.972656 -11.550781 11.546875 -11 C 12.128906 -10.457031 12.5625 -9.789062 12.84375 -9 L 10.46875 -7.921875 C 10.207031 -8.609375 9.785156 -9.15625 9.203125 -9.5625 C 8.617188 -9.96875 7.9375 -10.171875 7.15625 -10.171875 C 6.425781 -10.171875 5.773438 -9.992188 5.203125 -9.640625 C 4.640625 -9.296875 4.191406 -8.828125 3.859375 -8.234375 C 3.535156 -7.640625 3.375 -6.988281 3.375 -6.28125 C 3.375 -5.550781 3.535156 -4.890625 3.859375 -4.296875 C 4.179688 -3.703125 4.625 -3.222656 5.1875 -2.859375 C 5.757812 -2.503906 6.414062 -2.328125 7.15625 -2.328125 C 7.9375 -2.328125 8.625 -2.539062 9.21875 -2.96875 C 9.8125 -3.40625 10.238281 -3.960938 10.5 -4.640625 L 12.890625 -3.546875 C 12.597656 -2.753906 12.15625 -2.082031 11.5625 -1.53125 C 10.96875 -0.976562 10.285156 -0.554688 9.515625 -0.265625 C 8.742188 0.0234375 7.945312 0.171875 7.125 0.171875 C 6.21875 0.171875 5.375 0.0078125 4.59375 -0.3125 C 3.8125 -0.632812 3.125 -1.082031 2.53125 -1.65625 C 1.945312 -2.238281 1.492188 -2.921875 1.171875 -3.703125 C 0.847656 -4.492188 0.6875 -5.34375 0.6875 -6.25 Z M 0.6875 -6.25 "/></g></g></g><g fill="#423e3e" fill-opacity="1"><g transform="translate(152.834567, 143.18255)"><g><path d="M 4.046875 -5.0625 L 4.046875 0 L 1.453125 0 L 1.453125 -12.5 L 4.046875 -12.5 L 4.046875 -7.5625 L 9.28125 -7.5625 L 9.28125 -12.5 L 11.859375 -12.5 L 11.859375 0 L 9.28125 0 L 9.28125 -5.0625 Z M 4.046875 -5.0625 "/></g></g></g><g fill="#423e3e" fill-opacity="1"><g transform="translate(166.155633, 143.18255)"><g><path d="M 2.59375 0 L -0.015625 0 L 4.765625 -12.5 L 7.875 -12.5 L 12.65625 0 L 10 0 L 9.046875 -2.515625 L 3.515625 -2.515625 Z M 6.296875 -10 L 4.40625 -4.921875 L 8.171875 -4.921875 Z M 6.296875 -10 "/></g></g></g><g fill="#423e3e" fill-opacity="1"><g transform="translate(178.805844, 143.18255)"><g><path d="M 11.0625 0 L 8.1875 0 L 5.609375 -4.484375 L 4.046875 -4.484375 L 4.046875 0 L 1.453125 0 L 1.453125 -12.5 L 6.390625 -12.5 C 7.191406 -12.5 7.925781 -12.351562 8.59375 -12.0625 C 9.269531 -11.769531 9.804688 -11.332031 10.203125 -10.75 C 10.609375 -10.164062 10.8125 -9.429688 10.8125 -8.546875 C 10.8125 -6.722656 9.953125 -5.503906 8.234375 -4.890625 Z M 6.203125 -6.875 C 6.515625 -6.875 6.820312 -6.925781 7.125 -7.03125 C 7.4375 -7.144531 7.691406 -7.316406 7.890625 -7.546875 C 8.085938 -7.785156 8.1875 -8.101562 8.1875 -8.5 C 8.1875 -8.90625 8.082031 -9.21875 7.875 -9.4375 C 7.675781 -9.65625 7.425781 -9.8125 7.125 -9.90625 C 6.820312 -10.007812 6.507812 -10.0625 6.1875 -10.0625 L 4.046875 -10.0625 L 4.046875 -6.875 Z M 6.203125 -6.875 "/></g></g></g><g fill="#423e3e" fill-opacity="1"><g transform="translate(190.481741, 143.18255)"><g><path d="M 4.09375 0 L 4.09375 -10 L 0.328125 -10 L 0.328125 -12.5 L 10.40625 -12.5 L 10.40625 -10 L 6.65625 -10 L 6.65625 0 Z M 4.09375 0 "/></g></g></g><path fill="#8b73ff" d="M 112.441406 25.019531 C 114.671875 25.019531 116.890625 25.183594 119.097656 25.511719 C 121.304688 25.839844 123.476562 26.324219 125.609375 26.972656 C 127.746094 27.621094 129.820312 28.421875 131.839844 29.375 C 133.855469 30.328125 135.792969 31.425781 137.644531 32.664062 C 139.5 33.90625 141.253906 35.273438 142.910156 36.773438 C 144.5625 38.269531 146.097656 39.882812 147.511719 41.605469 C 148.925781 43.332031 150.207031 45.152344 151.355469 47.066406 C 152.503906 48.976562 153.503906 50.964844 154.355469 53.027344 C 155.210938 55.089844 155.910156 57.203125 156.449219 59.367188 C 156.992188 61.53125 157.371094 63.722656 157.589844 65.941406 C 157.808594 68.164062 157.863281 70.386719 157.753906 72.617188 C 157.644531 74.84375 157.375 77.050781 156.9375 79.242188 C 156.503906 81.429688 155.910156 83.574219 155.15625 85.675781 C 154.40625 87.773438 153.503906 89.808594 152.453125 91.777344 C 151.402344 93.746094 150.210938 95.625 148.882812 97.417969 C 147.550781 99.207031 146.097656 100.894531 144.519531 102.472656 L 112.441406 70.390625 Z M 112.441406 25.019531 " fill-opacity="1" fill-rule="nonzero"/><path fill="#96e17b" d="M 144.519531 102.472656 C 142.945312 104.046875 141.257812 105.503906 139.46875 106.832031 C 137.675781 108.160156 135.796875 109.351562 133.828125 110.402344 C 131.859375 111.453125 129.824219 112.355469 127.726562 113.109375 C 125.625 113.859375 123.480469 114.453125 121.292969 114.886719 C 119.101562 115.324219 116.894531 115.59375 114.667969 115.703125 C 112.4375 115.816406 110.214844 115.761719 107.992188 115.542969 C 105.773438 115.324219 103.582031 114.941406 101.414062 114.398438 C 99.25 113.859375 97.140625 113.160156 95.078125 112.304688 C 93.015625 111.453125 91.027344 110.453125 89.113281 109.304688 C 87.203125 108.15625 85.382812 106.875 83.65625 105.460938 C 81.933594 104.046875 80.320312 102.511719 78.824219 100.859375 C 77.324219 99.207031 75.957031 97.449219 74.714844 95.597656 C 73.476562 93.742188 72.378906 91.804688 71.425781 89.789062 C 70.472656 87.769531 69.671875 85.695312 69.023438 83.558594 C 68.375 81.425781 67.886719 79.253906 67.5625 77.046875 C 67.234375 74.839844 67.070312 72.621094 67.070312 70.390625 L 112.441406 70.390625 Z M 144.519531 102.472656 " fill-opacity="1" fill-rule="nonzero"/><path fill="#ff9861" d="M 67.070312 70.390625 C 67.070312 68.902344 67.144531 67.421875 67.289062 65.941406 C 67.433594 64.464844 67.652344 62.996094 67.941406 61.539062 C 68.230469 60.082031 68.59375 58.640625 69.023438 57.21875 C 69.453125 55.796875 69.953125 54.402344 70.523438 53.027344 C 71.089844 51.65625 71.726562 50.3125 72.425781 49.003906 C 73.125 47.691406 73.890625 46.421875 74.714844 45.183594 C 75.539062 43.949219 76.425781 42.757812 77.367188 41.609375 C 78.308594 40.460938 79.304688 39.359375 80.355469 38.308594 C 81.40625 37.257812 82.507812 36.261719 83.65625 35.320312 C 84.804688 34.378906 85.996094 33.492188 87.230469 32.667969 C 88.464844 31.84375 89.738281 31.078125 91.050781 30.378906 C 92.359375 29.679688 93.703125 29.042969 95.074219 28.472656 C 96.445312 27.90625 97.84375 27.40625 99.265625 26.972656 C 100.6875 26.542969 102.128906 26.183594 103.585938 25.890625 C 105.042969 25.601562 106.511719 25.382812 107.988281 25.238281 C 109.46875 25.09375 110.949219 25.019531 112.433594 25.019531 L 112.441406 70.390625 Z M 67.070312 70.390625 " fill-opacity="1" fill-rule="nonzero"/></svg>