<svg xmlns="http://www.w3.org/2000/svg" xmlns:xlink="http://www.w3.org/1999/xlink" width="61" zoomAndPan="magnify" viewBox="0 0 46.079998 37.92" height="40" preserveAspectRatio="xMidYMid meet" version="1.2"><g id="5c96f86b49"><path style=" stroke:none;fill-rule:nonzero;fill:#8b73ff;fill-opacity:1;" d="M 22.425781 1.175781 C 23.109375 1.175781 23.785156 1.226562 24.460938 1.328125 C 25.136719 1.425781 25.800781 1.574219 26.453125 1.773438 C 27.105469 1.972656 27.738281 2.214844 28.355469 2.507812 C 28.96875 2.796875 29.5625 3.132812 30.128906 3.511719 C 30.695312 3.890625 31.230469 4.308594 31.738281 4.765625 C 32.242188 5.226562 32.710938 5.71875 33.144531 6.246094 C 33.574219 6.769531 33.964844 7.328125 34.316406 7.910156 C 34.667969 8.496094 34.972656 9.105469 35.234375 9.734375 C 35.496094 10.363281 35.707031 11.007812 35.875 11.671875 C 36.039062 12.332031 36.15625 13 36.222656 13.679688 C 36.289062 14.359375 36.304688 15.039062 36.273438 15.71875 C 36.238281 16.398438 36.15625 17.074219 36.023438 17.742188 C 35.890625 18.410156 35.707031 19.066406 35.480469 19.707031 C 35.25 20.351562 34.972656 20.972656 34.652344 21.574219 C 34.332031 22.175781 33.96875 22.75 33.5625 23.296875 C 33.15625 23.84375 32.710938 24.359375 32.230469 24.839844 L 22.425781 15.039062 Z M 22.425781 1.175781 "/><path style=" stroke:none;fill-rule:nonzero;fill:#96e17b;fill-opacity:1;" d="M 32.230469 24.839844 C 31.746094 25.324219 31.230469 25.765625 30.683594 26.171875 C 30.136719 26.578125 29.5625 26.941406 28.960938 27.261719 C 28.359375 27.585938 27.738281 27.859375 27.097656 28.089844 C 26.457031 28.320312 25.800781 28.5 25.132812 28.632812 C 24.464844 28.765625 23.789062 28.851562 23.105469 28.882812 C 22.425781 28.917969 21.746094 28.902344 21.070312 28.832031 C 20.390625 28.765625 19.71875 28.652344 19.058594 28.484375 C 18.398438 28.320312 17.753906 28.105469 17.121094 27.84375 C 16.492188 27.585938 15.886719 27.277344 15.300781 26.929688 C 14.714844 26.578125 14.160156 26.1875 13.632812 25.753906 C 13.105469 25.320312 12.613281 24.851562 12.15625 24.347656 C 11.699219 23.84375 11.28125 23.304688 10.902344 22.738281 C 10.523438 22.171875 10.1875 21.582031 9.894531 20.964844 C 9.605469 20.347656 9.359375 19.714844 9.160156 19.0625 C 8.964844 18.410156 8.816406 17.746094 8.714844 17.074219 C 8.613281 16.398438 8.566406 15.71875 8.566406 15.039062 L 22.425781 15.039062 Z M 32.230469 24.839844 "/><path style=" stroke:none;fill-rule:nonzero;fill:#ff9861;fill-opacity:1;" d="M 8.566406 15.039062 C 8.566406 14.128906 8.652344 13.226562 8.832031 12.335938 C 9.007812 11.441406 9.273438 10.574219 9.621094 9.734375 C 9.96875 8.894531 10.394531 8.09375 10.902344 7.335938 C 11.40625 6.582031 11.980469 5.878906 12.625 5.238281 C 13.269531 4.59375 13.96875 4.019531 14.726562 3.511719 C 15.480469 3.007812 16.28125 2.582031 17.121094 2.230469 C 17.960938 1.882812 18.828125 1.621094 19.722656 1.441406 C 20.613281 1.265625 21.515625 1.175781 22.425781 1.175781 L 22.425781 15.039062 Z M 8.566406 15.039062 "/></g></svg>