<svg xmlns="http://www.w3.org/2000/svg" xmlns:xlink="http://www.w3.org/1999/xlink" width="61" zoomAndPan="magnify" viewBox="0 0 46.079998 37.92" height="40" preserveAspectRatio="xMidYMid meet" version="1.2"><defs><clipPath id="c09e9ad9af"><path d="M 8.789062 8.144531 L 13.695312 8.144531 L 13.695312 28.609375 L 8.789062 28.609375 Z M 8.789062 8.144531 "/></clipPath><clipPath id="b7935c332e"><path d="M 8.789062 1.464844 L 13.695312 1.464844 L 13.695312 6.371094 L 8.789062 6.371094 Z M 8.789062 1.464844 "/></clipPath><clipPath id="57139758dc"><path d="M 15.601562 1.464844 L 36.066406 1.464844 L 36.066406 6.371094 L 15.601562 6.371094 Z M 15.601562 1.464844 "/></clipPath><clipPath id="26a741b096"><path d="M 17 8 L 34 8 L 34 27 L 17 27 Z M 17 8 "/></clipPath><clipPath id="7d61b36d5b"><path d="M 35.933594 12.992188 L 21.320312 28.519531 L 17.039062 24.488281 L 31.652344 8.960938 Z M 35.933594 12.992188 "/></clipPath><clipPath id="41c51ae79f"><path d="M 35.933594 12.992188 L 21.320312 28.519531 L 17.039062 24.488281 L 31.652344 8.960938 Z M 35.933594 12.992188 "/></clipPath></defs><g id="719786fcd7"><g clip-rule="nonzero" clip-path="url(#c09e9ad9af)"><path style=" stroke:none;fill-rule:nonzero;fill:#585958;fill-opacity:1;" d="M 8.789062 28.609375 L 8.789062 8.15625 L 13.695312 8.15625 L 13.695312 28.609375 Z M 8.789062 28.609375 "/></g><g clip-rule="nonzero" clip-path="url(#b7935c332e)"><path style=" stroke:none;fill-rule:nonzero;fill:#bab8b7;fill-opacity:1;" d="M 8.789062 1.464844 L 13.695312 1.464844 L 13.695312 6.371094 L 8.789062 6.371094 Z M 8.789062 1.464844 "/></g><g clip-rule="nonzero" clip-path="url(#57139758dc)"><path style=" stroke:none;fill-rule:nonzero;fill:#585958;fill-opacity:1;" d="M 15.601562 1.464844 L 36.058594 1.464844 L 36.058594 6.371094 L 15.601562 6.371094 Z M 15.601562 1.464844 "/></g><g clip-rule="nonzero" clip-path="url(#26a741b096)"><g clip-rule="nonzero" clip-path="url(#7d61b36d5b)"><g clip-rule="nonzero" clip-path="url(#41c51ae79f)"><path style=" stroke:none;fill-rule:nonzero;fill:#bab8b7;fill-opacity:1;" d="M 17.4375 24.066406 L 21.132812 26.050781 L 21.085938 24.496094 C 21.488281 24.445312 21.890625 24.375 22.285156 24.285156 C 23.097656 24.101562 23.890625 23.839844 24.648438 23.507812 C 25.421875 23.164062 26.164062 22.746094 26.855469 22.257812 C 27.5625 21.761719 28.222656 21.183594 28.824219 20.550781 C 29.421875 19.914062 29.953125 19.21875 30.410156 18.480469 C 30.851562 17.761719 31.226562 16.996094 31.519531 16.207031 C 31.808594 15.429688 32.023438 14.617188 32.15625 13.796875 C 32.21875 13.398438 32.265625 12.992188 32.292969 12.589844 L 33.84375 12.542969 L 31.636719 8.972656 L 29.652344 12.667969 L 31.226562 12.621094 C 31.027344 15.25 29.953125 17.804688 28.050781 19.824219 C 26.128906 21.871094 23.640625 23.078125 21.050781 23.429688 L 21.003906 21.859375 L 17.4375 24.066406 "/></g></g></g></g></svg>