<svg xmlns="http://www.w3.org/2000/svg" xmlns:xlink="http://www.w3.org/1999/xlink" width="275" zoomAndPan="magnify" viewBox="0 0 206.25 187.499992" height="250" preserveAspectRatio="xMidYMid meet" version="1.0"><defs><g/><clipPath id="912e24550c"><path d="M 24.179688 151.675781 L 182.054688 151.675781 L 182.054688 179.699219 L 24.179688 179.699219 Z M 24.179688 151.675781 " clip-rule="nonzero"/></clipPath><clipPath id="0323fc2c5a"><path d="M 6.664062 6.203125 L 198.839844 6.203125 L 198.839844 145.292969 L 6.664062 145.292969 Z M 6.664062 6.203125 " clip-rule="nonzero"/></clipPath><clipPath id="9925f8e821"><path d="M 49.585938 48.882812 L 68.71875 48.882812 L 68.71875 128.667969 L 49.585938 128.667969 Z M 49.585938 48.882812 " clip-rule="nonzero"/></clipPath><clipPath id="b1329d843b"><path d="M 49.582031 22.824219 L 68.714844 22.824219 L 68.714844 41.957031 L 49.582031 41.957031 Z M 49.582031 22.824219 " clip-rule="nonzero"/></clipPath><clipPath id="2581f088b4"><path d="M 76.136719 22.824219 L 155.921875 22.824219 L 155.921875 41.957031 L 76.136719 41.957031 Z M 76.136719 22.824219 " clip-rule="nonzero"/></clipPath><clipPath id="90f85a0c64"><path d="M 81 51 L 148 51 L 148 121 L 81 121 Z M 81 51 " clip-rule="nonzero"/></clipPath><clipPath id="26d612a958"><path d="M 155.433594 67.789062 L 98.589844 128.199219 L 81.171875 111.8125 L 138.015625 51.402344 Z M 155.433594 67.789062 " clip-rule="nonzero"/></clipPath><clipPath id="8049a144a9"><path d="M 155.433594 67.789062 L 98.589844 128.199219 L 81.171875 111.8125 L 138.015625 51.402344 Z M 155.433594 67.789062 " clip-rule="nonzero"/></clipPath></defs><g clip-path="url(#912e24550c)"><path fill="#ffffff" d="M 24.179688 151.675781 L 182.054688 151.675781 L 182.054688 179.699219 L 24.179688 179.699219 Z M 24.179688 151.675781 " fill-opacity="1" fill-rule="nonzero"/></g><g clip-path="url(#0323fc2c5a)"><path fill="#ececec" d="M 6.664062 6.203125 L 198.839844 6.203125 L 198.839844 145.292969 L 6.664062 145.292969 Z M 6.664062 6.203125 " fill-opacity="1" fill-rule="nonzero"/></g><g clip-path="url(#9925f8e821)"><path fill="#625e5e" d="M 49.585938 128.667969 L 49.585938 48.882812 L 68.71875 48.882812 L 68.71875 128.667969 Z M 49.585938 128.667969 " fill-opacity="1" fill-rule="nonzero"/></g><g clip-path="url(#b1329d843b)"><path fill="#a6a6a6" d="M 49.582031 22.824219 L 68.714844 22.824219 L 68.714844 41.957031 L 49.582031 41.957031 Z M 49.582031 22.824219 " fill-opacity="1" fill-rule="nonzero"/></g><g clip-path="url(#2581f088b4)"><path fill="#625e5e" d="M 76.136719 22.824219 L 155.921875 22.824219 L 155.921875 41.957031 L 76.136719 41.957031 Z M 76.136719 22.824219 " fill-opacity="1" fill-rule="nonzero"/></g><g clip-path="url(#90f85a0c64)"><g clip-path="url(#26d612a958)"><g clip-path="url(#8049a144a9)"><path fill="#a6a6a6" d="M 81.414062 112.085938 L 96.203125 120.035156 L 96.015625 113.816406 C 97.632812 113.609375 99.242188 113.328125 100.828125 112.96875 C 104.074219 112.238281 107.257812 111.1875 110.292969 109.847656 C 113.382812 108.484375 116.351562 106.804688 119.113281 104.859375 C 121.949219 102.859375 124.597656 100.558594 126.996094 98.011719 C 129.390625 95.464844 131.53125 92.679688 133.351562 89.730469 C 135.125 86.851562 136.621094 83.789062 137.796875 80.621094 C 138.949219 77.507812 139.804688 74.265625 140.335938 70.984375 C 140.597656 69.382812 140.78125 67.761719 140.886719 66.140625 L 147.097656 65.949219 L 138.261719 51.671875 L 130.3125 66.460938 L 136.621094 66.269531 C 135.820312 76.789062 131.523438 87.023438 123.914062 95.109375 C 116.207031 103.300781 106.246094 108.128906 95.886719 109.542969 L 95.695312 103.25 L 81.414062 112.085938 " fill-opacity="1" fill-rule="nonzero"/></g></g></g><g fill="#423e3e" fill-opacity="1"><g transform="translate(38.899561, 170.74471)"><g><path d="M 11.871094 -9.542969 C 11.871094 -12.519531 9.667969 -14.042969 6.851562 -14.042969 L 1.632812 -14.042969 L 1.632812 0 L 4.539062 0 L 4.539062 -4.949219 L 6.742188 -4.949219 C 9.683594 -4.949219 11.871094 -6.4375 11.871094 -9.542969 Z M 8.949219 -9.46875 C 8.949219 -8.160156 7.765625 -7.65625 6.617188 -7.65625 L 4.539062 -7.65625 L 4.539062 -11.300781 L 6.601562 -11.300781 C 7.800781 -11.300781 8.949219 -10.832031 8.949219 -9.46875 Z M 8.949219 -9.46875 "/></g></g></g><g fill="#423e3e" fill-opacity="1"><g transform="translate(51.310397, 170.74471)"><g><path d="M 4.539062 -14.042969 L 1.632812 -14.042969 L 1.632812 0 L 4.539062 0 Z M 4.539062 -14.042969 "/></g></g></g><g fill="#423e3e" fill-opacity="1"><g transform="translate(57.497873, 170.74471)"><g><path d="M 0.269531 -14.042969 L 5.34375 0 L 8.699219 0 L 13.792969 -14.042969 L 10.707031 -14.042969 L 7.046875 -3.371094 L 3.40625 -14.042969 Z M 0.269531 -14.042969 "/></g></g></g><g fill="#423e3e" fill-opacity="1"><g transform="translate(71.558703, 170.74471)"><g><path d="M 0.769531 -7.011719 C 0.769531 -2.960938 4 0.214844 8.035156 0.214844 C 12.070312 0.214844 15.351562 -2.996094 15.351562 -7.085938 C 15.351562 -11.121094 12.140625 -14.257812 8.105469 -14.257812 C 4.070312 -14.257812 0.769531 -11.046875 0.769531 -7.011719 Z M 3.75 -7.03125 C 3.75 -9.453125 5.648438 -11.441406 8.070312 -11.441406 C 10.492188 -11.441406 12.394531 -9.453125 12.394531 -7.03125 C 12.394531 -4.609375 10.492188 -2.601562 8.070312 -2.601562 C 5.648438 -2.601562 3.75 -4.609375 3.75 -7.03125 Z M 3.75 -7.03125 "/></g></g></g><g fill="#423e3e" fill-opacity="1"><g transform="translate(87.68203, 170.74471)"><g><path d="M 4.589844 0 L 7.480469 0 L 7.480469 -11.226562 L 11.695312 -11.226562 L 11.695312 -14.042969 L 0.375 -14.042969 L 0.375 -11.226562 L 4.589844 -11.226562 Z M 4.589844 0 "/></g></g></g><g fill="#423e3e" fill-opacity="1"><g transform="translate(99.752098, 170.74471)"><g/></g></g><g fill="#423e3e" fill-opacity="1"><g transform="translate(104.253718, 170.74471)"><g><path d="M 4.589844 0 L 7.480469 0 L 7.480469 -11.226562 L 11.695312 -11.226562 L 11.695312 -14.042969 L 0.375 -14.042969 L 0.375 -11.226562 L 4.589844 -11.226562 Z M 4.589844 0 "/></g></g></g><g fill="#423e3e" fill-opacity="1"><g transform="translate(116.323787, 170.74471)"><g><path d="M 2.90625 0 L 3.945312 -2.832031 L 10.167969 -2.832031 L 11.226562 0 L 14.222656 0 L 8.84375 -14.042969 L 5.34375 -14.042969 L -0.0195312 0 Z M 7.066406 -11.226562 L 9.183594 -5.523438 L 4.949219 -5.523438 Z M 7.066406 -11.226562 "/></g></g></g><g fill="#423e3e" fill-opacity="1"><g transform="translate(130.528097, 170.74471)"><g><path d="M 12.554688 -3.875 C 12.554688 -5.738281 11.640625 -6.671875 9.972656 -7.300781 L 9.972656 -7.335938 C 11.191406 -7.964844 11.945312 -8.929688 11.945312 -10.332031 C 11.945312 -12.839844 9.71875 -14.042969 7.460938 -14.042969 L 1.632812 -14.042969 L 1.632812 0 L 7.550781 0 C 10.027344 0 12.554688 -1.023438 12.554688 -3.875 Z M 9.09375 -9.882812 C 9.09375 -8.609375 7.890625 -8.339844 6.867188 -8.339844 L 4.464844 -8.339844 L 4.464844 -11.371094 L 7.066406 -11.371094 C 8.035156 -11.371094 9.09375 -11.046875 9.09375 -9.882812 Z M 9.71875 -4.25 C 9.71875 -2.996094 8.554688 -2.691406 7.515625 -2.691406 L 4.464844 -2.691406 L 4.464844 -5.828125 L 7.425781 -5.828125 C 8.5 -5.828125 9.71875 -5.558594 9.71875 -4.25 Z M 9.71875 -4.25 "/></g></g></g><g fill="#423e3e" fill-opacity="1"><g transform="translate(143.871531, 170.74471)"><g><path d="M 1.632812 -14.042969 L 1.632812 0 L 10.527344 0 L 10.527344 -2.761719 L 4.519531 -2.761719 L 4.519531 -14.042969 Z M 1.632812 -14.042969 "/></g></g></g><g fill="#423e3e" fill-opacity="1"><g transform="translate(154.704107, 170.74471)"><g><path d="M 1.632812 -14.042969 L 1.632812 0 L 10.867188 0 L 10.867188 -2.707031 L 4.5 -2.707031 L 4.5 -5.738281 L 10.167969 -5.738281 L 10.167969 -8.464844 L 4.5 -8.464844 L 4.5 -11.316406 L 10.832031 -11.316406 L 10.832031 -14.042969 Z M 1.632812 -14.042969 "/></g></g></g></svg>