<svg xmlns="http://www.w3.org/2000/svg" xmlns:xlink="http://www.w3.org/1999/xlink" width="300" zoomAndPan="magnify" viewBox="0 0 224.87999 168.749997" height="225" preserveAspectRatio="xMidYMid meet" version="1.0"><defs><g/><clipPath id="2a2998415b"><path d="M 5.984375 6.058594 L 219.1875 6.058594 L 219.1875 162.441406 L 5.984375 162.441406 Z M 5.984375 6.058594 " clip-rule="nonzero"/></clipPath><clipPath id="28a67b3979"><path d="M 56.816406 46.871094 L 73.117188 46.871094 L 73.117188 114.84375 L 56.816406 114.84375 Z M 56.816406 46.871094 " clip-rule="nonzero"/></clipPath><clipPath id="75d445cf05"><path d="M 56.8125 24.671875 L 73.113281 24.671875 L 73.113281 40.972656 L 56.8125 40.972656 Z M 56.8125 24.671875 " clip-rule="nonzero"/></clipPath><clipPath id="d6dfc2e573"><path d="M 79.4375 24.671875 L 147.410156 24.671875 L 147.410156 40.972656 L 79.4375 40.972656 Z M 79.4375 24.671875 " clip-rule="nonzero"/></clipPath><clipPath id="f1f7d553de"><path d="M 83 49 L 140 49 L 140 108 L 83 108 Z M 83 49 " clip-rule="nonzero"/></clipPath><clipPath id="4d117f4fbd"><path d="M 146.992188 62.980469 L 98.566406 114.445312 L 83.726562 100.484375 L 132.15625 49.019531 Z M 146.992188 62.980469 " clip-rule="nonzero"/></clipPath><clipPath id="0a6d4a649f"><path d="M 146.992188 62.980469 L 98.566406 114.445312 L 83.726562 100.484375 L 132.15625 49.019531 Z M 146.992188 62.980469 " clip-rule="nonzero"/></clipPath></defs><g clip-path="url(#2a2998415b)"><path fill="#ececec" d="M 5.984375 6.058594 L 219.179688 6.058594 L 219.179688 162.441406 L 5.984375 162.441406 Z M 5.984375 6.058594 " fill-opacity="1" fill-rule="nonzero"/></g><g fill="#423e3e" fill-opacity="1"><g transform="translate(44.913515, 145.878556)"><g><path d="M 12.5625 -10.09375 C 12.5625 -9 12.320312 -8.09375 11.84375 -7.375 C 11.375 -6.65625 10.726562 -6.117188 9.90625 -5.765625 C 9.09375 -5.410156 8.164062 -5.234375 7.125 -5.234375 L 4.796875 -5.234375 L 4.796875 0 L 1.71875 0 L 1.71875 -14.859375 L 7.25 -14.859375 C 8.25 -14.859375 9.144531 -14.679688 9.9375 -14.328125 C 10.738281 -13.972656 11.375 -13.441406 11.84375 -12.734375 C 12.320312 -12.023438 12.5625 -11.144531 12.5625 -10.09375 Z M 9.46875 -10.015625 C 9.46875 -10.492188 9.347656 -10.875 9.109375 -11.15625 C 8.867188 -11.445312 8.5625 -11.648438 8.1875 -11.765625 C 7.8125 -11.890625 7.410156 -11.953125 6.984375 -11.953125 L 4.796875 -11.953125 L 4.796875 -8.09375 L 7 -8.09375 C 7.40625 -8.09375 7.796875 -8.15625 8.171875 -8.28125 C 8.554688 -8.414062 8.867188 -8.625 9.109375 -8.90625 C 9.347656 -9.1875 9.46875 -9.554688 9.46875 -10.015625 Z M 9.46875 -10.015625 "/></g></g></g><g fill="#423e3e" fill-opacity="1"><g transform="translate(58.039382, 145.878556)"><g><path d="M 4.796875 -14.859375 L 4.796875 0 L 1.71875 0 L 1.71875 -14.859375 Z M 4.796875 -14.859375 "/></g></g></g><g fill="#423e3e" fill-opacity="1"><g transform="translate(64.583352, 145.878556)"><g><path d="M 0.28125 -14.859375 L 3.609375 -14.859375 L 7.453125 -3.5625 L 11.328125 -14.859375 L 14.59375 -14.859375 L 9.203125 0 L 5.65625 0 Z M 0.28125 -14.859375 "/></g></g></g><g fill="#423e3e" fill-opacity="1"><g transform="translate(79.454284, 145.878556)"><g><path d="M 0.8125 -7.421875 C 0.8125 -8.484375 1.015625 -9.476562 1.421875 -10.40625 C 1.828125 -11.332031 2.382812 -12.144531 3.09375 -12.84375 C 3.800781 -13.550781 4.625 -14.097656 5.5625 -14.484375 C 6.507812 -14.878906 7.515625 -15.078125 8.578125 -15.078125 C 9.640625 -15.078125 10.632812 -14.882812 11.5625 -14.5 C 12.488281 -14.113281 13.300781 -13.578125 14 -12.890625 C 14.707031 -12.203125 15.253906 -11.394531 15.640625 -10.46875 C 16.035156 -9.550781 16.234375 -8.5625 16.234375 -7.5 C 16.234375 -6.414062 16.035156 -5.40625 15.640625 -4.46875 C 15.242188 -3.539062 14.6875 -2.722656 13.96875 -2.015625 C 13.257812 -1.304688 12.4375 -0.753906 11.5 -0.359375 C 10.5625 0.0351562 9.5625 0.234375 8.5 0.234375 C 7.4375 0.234375 6.4375 0.0351562 5.5 -0.359375 C 4.570312 -0.753906 3.757812 -1.296875 3.0625 -1.984375 C 2.363281 -2.679688 1.8125 -3.488281 1.40625 -4.40625 C 1.007812 -5.332031 0.8125 -6.335938 0.8125 -7.421875 Z M 3.96875 -7.4375 C 3.96875 -6.59375 4.164062 -5.8125 4.5625 -5.09375 C 4.96875 -4.375 5.519531 -3.800781 6.21875 -3.375 C 6.914062 -2.957031 7.6875 -2.75 8.53125 -2.75 C 9.394531 -2.75 10.171875 -2.957031 10.859375 -3.375 C 11.546875 -3.800781 12.09375 -4.375 12.5 -5.09375 C 12.90625 -5.8125 13.109375 -6.59375 13.109375 -7.4375 C 13.109375 -8.289062 12.90625 -9.066406 12.5 -9.765625 C 12.09375 -10.472656 11.546875 -11.039062 10.859375 -11.46875 C 10.171875 -11.894531 9.394531 -12.109375 8.53125 -12.109375 C 7.6875 -12.109375 6.914062 -11.894531 6.21875 -11.46875 C 5.519531 -11.039062 4.96875 -10.472656 4.5625 -9.765625 C 4.164062 -9.066406 3.96875 -8.289062 3.96875 -7.4375 Z M 3.96875 -7.4375 "/></g></g></g><g fill="#423e3e" fill-opacity="1"><g transform="translate(96.506535, 145.878556)"><g><path d="M 4.859375 0 L 4.859375 -11.875 L 0.390625 -11.875 L 0.390625 -14.859375 L 12.375 -14.859375 L 12.375 -11.875 L 7.90625 -11.875 L 7.90625 0 Z M 4.859375 0 "/></g></g></g><g fill="#423e3e" fill-opacity="1"><g transform="translate(109.272012, 145.878556)"><g/></g></g><g fill="#423e3e" fill-opacity="1"><g transform="translate(114.032979, 145.878556)"><g><path d="M 4.859375 0 L 4.859375 -11.875 L 0.390625 -11.875 L 0.390625 -14.859375 L 12.375 -14.859375 L 12.375 -11.875 L 7.90625 -11.875 L 7.90625 0 Z M 4.859375 0 "/></g></g></g><g fill="#423e3e" fill-opacity="1"><g transform="translate(126.798456, 145.878556)"><g><path d="M 3.078125 0 L -0.015625 0 L 5.65625 -14.859375 L 9.359375 -14.859375 L 15.046875 0 L 11.875 0 L 10.75 -3 L 4.171875 -3 Z M 7.46875 -11.875 L 5.234375 -5.84375 L 9.71875 -5.84375 Z M 7.46875 -11.875 "/></g></g></g><g fill="#423e3e" fill-opacity="1"><g transform="translate(141.821129, 145.878556)"><g><path d="M 13.28125 -4.09375 C 13.28125 -3.332031 13.128906 -2.691406 12.828125 -2.171875 C 12.523438 -1.660156 12.117188 -1.242188 11.609375 -0.921875 C 11.097656 -0.597656 10.53125 -0.363281 9.90625 -0.21875 C 9.28125 -0.0703125 8.640625 0 7.984375 0 L 1.71875 0 L 1.71875 -14.859375 L 7.890625 -14.859375 C 8.691406 -14.859375 9.453125 -14.710938 10.171875 -14.421875 C 10.898438 -14.140625 11.492188 -13.707031 11.953125 -13.125 C 12.410156 -12.539062 12.640625 -11.804688 12.640625 -10.921875 C 12.640625 -10.191406 12.453125 -9.5625 12.078125 -9.03125 C 11.703125 -8.507812 11.191406 -8.085938 10.546875 -7.765625 L 10.546875 -7.71875 C 11.429688 -7.394531 12.109375 -6.957031 12.578125 -6.40625 C 13.046875 -5.851562 13.28125 -5.082031 13.28125 -4.09375 Z M 9.625 -10.453125 C 9.625 -10.867188 9.515625 -11.191406 9.296875 -11.421875 C 9.078125 -11.648438 8.800781 -11.804688 8.46875 -11.890625 C 8.144531 -11.984375 7.8125 -12.03125 7.46875 -12.03125 L 4.71875 -12.03125 L 4.71875 -8.828125 L 7.265625 -8.828125 C 7.628906 -8.828125 7.988281 -8.863281 8.34375 -8.9375 C 8.707031 -9.019531 9.007812 -9.179688 9.25 -9.421875 C 9.5 -9.660156 9.625 -10.003906 9.625 -10.453125 Z M 10.28125 -4.5 C 10.28125 -4.96875 10.15625 -5.316406 9.90625 -5.546875 C 9.664062 -5.785156 9.359375 -5.945312 8.984375 -6.03125 C 8.609375 -6.125 8.234375 -6.171875 7.859375 -6.171875 L 4.71875 -6.171875 L 4.71875 -2.84375 L 7.953125 -2.84375 C 8.316406 -2.84375 8.675781 -2.882812 9.03125 -2.96875 C 9.394531 -3.0625 9.691406 -3.226562 9.921875 -3.46875 C 10.160156 -3.707031 10.28125 -4.050781 10.28125 -4.5 Z M 10.28125 -4.5 "/></g></g></g><g fill="#423e3e" fill-opacity="1"><g transform="translate(155.933331, 145.878556)"><g><path d="M 1.71875 -14.859375 L 4.78125 -14.859375 L 4.78125 -2.921875 L 11.140625 -2.921875 L 11.140625 0 L 1.71875 0 Z M 1.71875 -14.859375 "/></g></g></g><g fill="#423e3e" fill-opacity="1"><g transform="translate(167.39001, 145.878556)"><g><path d="M 1.71875 -14.859375 L 11.453125 -14.859375 L 11.453125 -11.96875 L 4.765625 -11.96875 L 4.765625 -8.953125 L 10.75 -8.953125 L 10.75 -6.0625 L 4.765625 -6.0625 L 4.765625 -2.859375 L 11.5 -2.859375 L 11.5 0 L 1.71875 0 Z M 1.71875 -14.859375 "/></g></g></g><g clip-path="url(#28a67b3979)"><path fill="#625e5e" d="M 56.816406 114.84375 L 56.816406 46.898438 L 73.117188 46.898438 L 73.117188 114.84375 Z M 56.816406 114.84375 " fill-opacity="1" fill-rule="nonzero"/></g><g clip-path="url(#75d445cf05)"><path fill="#a6a6a6" d="M 56.8125 24.671875 L 73.113281 24.671875 L 73.113281 40.972656 L 56.8125 40.972656 Z M 56.8125 24.671875 " fill-opacity="1" fill-rule="nonzero"/></g><g clip-path="url(#d6dfc2e573)"><path fill="#625e5e" d="M 79.4375 24.671875 L 147.382812 24.671875 L 147.382812 40.972656 L 79.4375 40.972656 Z M 79.4375 24.671875 " fill-opacity="1" fill-rule="nonzero"/></g><g clip-path="url(#f1f7d553de)"><g clip-path="url(#4d117f4fbd)"><g clip-path="url(#0a6d4a649f)"><path fill="#a6a6a6" d="M 83.933594 100.71875 L 96.535156 107.492188 L 96.371094 102.191406 C 97.75 102.015625 99.121094 101.777344 100.472656 101.472656 C 103.238281 100.847656 105.949219 99.953125 108.535156 98.8125 C 111.167969 97.648438 113.699219 96.21875 116.050781 94.5625 C 118.464844 92.859375 120.722656 90.898438 122.765625 88.726562 C 124.808594 86.558594 126.628906 84.183594 128.179688 81.671875 C 129.691406 79.222656 130.96875 76.609375 131.96875 73.910156 C 132.949219 71.261719 133.675781 68.5 134.132812 65.703125 C 134.351562 64.335938 134.507812 62.957031 134.601562 61.574219 L 139.890625 61.414062 L 132.367188 49.246094 L 125.59375 61.847656 L 130.96875 61.683594 C 130.285156 70.648438 126.621094 79.367188 120.140625 86.257812 C 113.574219 93.234375 105.089844 97.347656 96.261719 98.550781 L 96.097656 93.191406 L 83.933594 100.71875 " fill-opacity="1" fill-rule="nonzero"/></g></g></g></svg>