<svg xmlns="http://www.w3.org/2000/svg" xmlns:xlink="http://www.w3.org/1999/xlink" width="275" zoomAndPan="magnify" viewBox="0 0 206.25 187.499992" height="250" preserveAspectRatio="xMidYMid meet" version="1.0"><defs><g/><clipPath id="b5dfe1d489"><path d="M 6.664062 6.203125 L 198.839844 6.203125 L 198.839844 145.292969 L 6.664062 145.292969 Z M 6.664062 6.203125 " clip-rule="nonzero"/></clipPath><clipPath id="16121bd773"><path d="M 18.683594 151.675781 L 186.820312 151.675781 L 186.820312 179.699219 L 18.683594 179.699219 Z M 18.683594 151.675781 " clip-rule="nonzero"/></clipPath><clipPath id="7a95062cdc"><path d="M 43.125 71.785156 L 167.472656 71.785156 L 167.472656 95.4375 L 43.125 95.4375 Z M 43.125 71.785156 " clip-rule="nonzero"/></clipPath><clipPath id="d9eddbc39f"><path d="M 43.128906 71.785156 L 90.117188 71.785156 L 90.117188 95.4375 L 43.128906 95.4375 Z M 43.128906 71.785156 " clip-rule="nonzero"/></clipPath></defs><g clip-path="url(#b5dfe1d489)"><path fill="#ececec" d="M 6.664062 6.203125 L 198.839844 6.203125 L 198.839844 145.292969 L 6.664062 145.292969 Z M 6.664062 6.203125 " fill-opacity="1" fill-rule="nonzero"/></g><g clip-path="url(#16121bd773)"><path fill="#ffffff" d="M 18.683594 151.675781 L 186.820312 151.675781 L 186.820312 179.699219 L 18.683594 179.699219 Z M 18.683594 151.675781 " fill-opacity="1" fill-rule="nonzero"/></g><g fill="#423e3e" fill-opacity="1"><g transform="translate(23.294199, 172.139648)"><g><path d="M 12.53125 -10.070312 C 12.53125 -13.210938 10.203125 -14.820312 7.230469 -14.820312 L 1.722656 -14.820312 L 1.722656 0 L 4.789062 0 L 4.789062 -5.222656 L 7.117188 -5.222656 C 10.222656 -5.222656 12.53125 -6.796875 12.53125 -10.070312 Z M 9.445312 -9.996094 C 9.445312 -8.613281 8.195312 -8.082031 6.984375 -8.082031 L 4.789062 -8.082031 L 4.789062 -11.925781 L 6.964844 -11.925781 C 8.234375 -11.925781 9.445312 -11.433594 9.445312 -9.996094 Z M 9.445312 -9.996094 "/></g></g></g><g fill="#423e3e" fill-opacity="1"><g transform="translate(36.391884, 172.139648)"><g><path d="M 13.117188 0 L 9.765625 -5.792969 C 11.773438 -6.511719 12.816406 -8.007812 12.816406 -10.125 C 12.816406 -13.269531 10.449219 -14.820312 7.570312 -14.820312 L 1.722656 -14.820312 L 1.722656 0 L 4.789062 0 L 4.789062 -5.320312 L 6.644531 -5.320312 L 9.710938 0 Z M 7.34375 -8.160156 L 4.789062 -8.160156 L 4.789062 -11.925781 L 7.324219 -11.925781 C 8.480469 -11.925781 9.710938 -11.488281 9.710938 -10.070312 C 9.710938 -8.667969 8.480469 -8.160156 7.34375 -8.160156 Z M 7.34375 -8.160156 "/></g></g></g><g fill="#423e3e" fill-opacity="1"><g transform="translate(50.227729, 172.139648)"><g><path d="M 0.8125 -7.402344 C 0.8125 -3.125 4.222656 0.226562 8.480469 0.226562 C 12.738281 0.226562 16.203125 -3.160156 16.203125 -7.476562 C 16.203125 -11.734375 12.816406 -15.046875 8.554688 -15.046875 C 4.296875 -15.046875 0.8125 -11.660156 0.8125 -7.402344 Z M 3.957031 -7.421875 C 3.957031 -9.976562 5.960938 -12.078125 8.519531 -12.078125 C 11.074219 -12.078125 13.078125 -9.976562 13.078125 -7.421875 C 13.078125 -4.863281 11.074219 -2.746094 8.519531 -2.746094 C 5.960938 -2.746094 3.957031 -4.863281 3.957031 -7.421875 Z M 3.957031 -7.421875 "/></g></g></g><g fill="#423e3e" fill-opacity="1"><g transform="translate(67.243368, 172.139648)"><g><path d="M 3.9375 -7.421875 C 3.9375 -10.109375 6 -12.152344 8.5 -12.152344 C 10.882812 -12.152344 12.039062 -10.65625 12.472656 -9.539062 L 15.179688 -10.863281 C 14.519531 -12.71875 12.324219 -15.046875 8.535156 -15.046875 C 4.316406 -15.046875 0.8125 -11.71875 0.8125 -7.402344 C 0.8125 -3.179688 3.917969 0.226562 8.5 0.226562 C 12.113281 0.226562 15.523438 -2.195312 15.523438 -6.8125 L 15.523438 -7.96875 L 7.816406 -7.96875 L 7.816406 -5.1875 L 12.324219 -5.1875 C 11.964844 -3.730469 10.503906 -2.6875 8.5 -2.6875 C 5.8125 -2.6875 3.9375 -4.847656 3.9375 -7.421875 Z M 3.9375 -7.421875 "/></g></g></g><g fill="#423e3e" fill-opacity="1"><g transform="translate(83.464061, 172.139648)"><g><path d="M 13.117188 0 L 9.765625 -5.792969 C 11.773438 -6.511719 12.816406 -8.007812 12.816406 -10.125 C 12.816406 -13.269531 10.449219 -14.820312 7.570312 -14.820312 L 1.722656 -14.820312 L 1.722656 0 L 4.789062 0 L 4.789062 -5.320312 L 6.644531 -5.320312 L 9.710938 0 Z M 7.34375 -8.160156 L 4.789062 -8.160156 L 4.789062 -11.925781 L 7.324219 -11.925781 C 8.480469 -11.925781 9.710938 -11.488281 9.710938 -10.070312 C 9.710938 -8.667969 8.480469 -8.160156 7.34375 -8.160156 Z M 7.34375 -8.160156 "/></g></g></g><g fill="#423e3e" fill-opacity="1"><g transform="translate(97.299906, 172.139648)"><g><path d="M 1.722656 -14.820312 L 1.722656 0 L 11.472656 0 L 11.472656 -2.859375 L 4.75 -2.859375 L 4.75 -6.058594 L 10.734375 -6.058594 L 10.734375 -8.933594 L 4.75 -8.933594 L 4.75 -11.945312 L 11.433594 -11.945312 L 11.433594 -14.820312 Z M 1.722656 -14.820312 "/></g></g></g><g fill="#423e3e" fill-opacity="1"><g transform="translate(109.848703, 172.139648)"><g><path d="M 4.011719 -10.769531 C 4.011719 -11.640625 4.75 -12.285156 5.980469 -12.285156 C 7.25 -12.285156 8.289062 -11.660156 8.78125 -10.46875 L 11.320312 -11.847656 C 10.46875 -13.875 8.59375 -15.046875 6.113281 -15.046875 C 3.3125 -15.046875 0.945312 -13.230469 0.945312 -10.582031 C 0.945312 -9.445312 1.402344 -8.5 2.082031 -7.835938 C 2.878906 -7.042969 4.109375 -6.511719 5.699219 -6.039062 C 7.855469 -5.394531 8.5 -4.996094 8.5 -4.125 C 8.5 -3.21875 7.570312 -2.554688 6.246094 -2.554688 C 4.75 -2.554688 3.578125 -3.332031 3.007812 -4.617188 L 0.359375 -3.253906 C 1.230469 -1.136719 3.351562 0.226562 6.152344 0.226562 C 9.652344 0.226562 11.585938 -1.742188 11.585938 -4.355469 C 11.585938 -6.851562 9.691406 -8.007812 6.398438 -8.953125 C 4.808594 -9.40625 4.011719 -9.84375 4.011719 -10.769531 Z M 4.011719 -10.769531 "/></g></g></g><g fill="#423e3e" fill-opacity="1"><g transform="translate(122.189299, 172.139648)"><g><path d="M 4.011719 -10.769531 C 4.011719 -11.640625 4.75 -12.285156 5.980469 -12.285156 C 7.25 -12.285156 8.289062 -11.660156 8.78125 -10.46875 L 11.320312 -11.847656 C 10.46875 -13.875 8.59375 -15.046875 6.113281 -15.046875 C 3.3125 -15.046875 0.945312 -13.230469 0.945312 -10.582031 C 0.945312 -9.445312 1.402344 -8.5 2.082031 -7.835938 C 2.878906 -7.042969 4.109375 -6.511719 5.699219 -6.039062 C 7.855469 -5.394531 8.5 -4.996094 8.5 -4.125 C 8.5 -3.21875 7.570312 -2.554688 6.246094 -2.554688 C 4.75 -2.554688 3.578125 -3.332031 3.007812 -4.617188 L 0.359375 -3.253906 C 1.230469 -1.136719 3.351562 0.226562 6.152344 0.226562 C 9.652344 0.226562 11.585938 -1.742188 11.585938 -4.355469 C 11.585938 -6.851562 9.691406 -8.007812 6.398438 -8.953125 C 4.808594 -9.40625 4.011719 -9.84375 4.011719 -10.769531 Z M 4.011719 -10.769531 "/></g></g></g><g fill="#423e3e" fill-opacity="1"><g transform="translate(134.529895, 172.139648)"><g/></g></g><g fill="#423e3e" fill-opacity="1"><g transform="translate(139.28064, 172.139648)"><g><path d="M 13.25 -4.089844 C 13.25 -6.058594 12.285156 -7.042969 10.523438 -7.703125 L 10.523438 -7.742188 C 11.8125 -8.40625 12.605469 -9.425781 12.605469 -10.902344 C 12.605469 -13.554688 10.257812 -14.820312 7.875 -14.820312 L 1.722656 -14.820312 L 1.722656 0 L 7.96875 0 C 10.582031 0 13.25 -1.078125 13.25 -4.089844 Z M 9.597656 -10.429688 C 9.597656 -9.085938 8.328125 -8.800781 7.25 -8.800781 L 4.714844 -8.800781 L 4.714844 -12 L 7.457031 -12 C 8.480469 -12 9.597656 -11.660156 9.597656 -10.429688 Z M 10.257812 -4.484375 C 10.257812 -3.160156 9.027344 -2.839844 7.929688 -2.839844 L 4.714844 -2.839844 L 4.714844 -6.152344 L 7.835938 -6.152344 C 8.972656 -6.152344 10.257812 -5.867188 10.257812 -4.484375 Z M 10.257812 -4.484375 "/></g></g></g><g fill="#423e3e" fill-opacity="1"><g transform="translate(153.362542, 172.139648)"><g><path d="M 3.066406 0 L 4.164062 -2.992188 L 10.734375 -2.992188 L 11.847656 0 L 15.011719 0 L 9.332031 -14.820312 L 5.640625 -14.820312 L -0.0195312 0 Z M 7.457031 -11.847656 L 9.691406 -5.828125 L 5.222656 -5.828125 Z M 7.457031 -11.847656 "/></g></g></g><g fill="#423e3e" fill-opacity="1"><g transform="translate(168.352961, 172.139648)"><g><path d="M 13.117188 0 L 9.765625 -5.792969 C 11.773438 -6.511719 12.816406 -8.007812 12.816406 -10.125 C 12.816406 -13.269531 10.449219 -14.820312 7.570312 -14.820312 L 1.722656 -14.820312 L 1.722656 0 L 4.789062 0 L 4.789062 -5.320312 L 6.644531 -5.320312 L 9.710938 0 Z M 7.34375 -8.160156 L 4.789062 -8.160156 L 4.789062 -11.925781 L 7.324219 -11.925781 C 8.480469 -11.925781 9.710938 -11.488281 9.710938 -10.070312 C 9.710938 -8.667969 8.480469 -8.160156 7.34375 -8.160156 Z M 7.34375 -8.160156 "/></g></g></g><g fill="#423e3e" fill-opacity="1"><g transform="translate(48.223673, 58.023276)"><g><path d="M 15.15625 0 L 8.5625 0 L 0.421875 -22.03125 L 6.21875 -22.03125 L 11.6875 -6.328125 L 12.140625 -6.328125 L 17.640625 -22.03125 L 23.296875 -22.03125 Z M 15.15625 0 "/></g></g><g transform="translate(71.916873, 58.023276)"><g><path d="M 8.59375 0.421875 C 7.175781 0.421875 5.945312 0.160156 4.90625 -0.359375 C 3.875 -0.878906 3.078125 -1.640625 2.515625 -2.640625 C 1.953125 -3.648438 1.671875 -4.859375 1.671875 -6.265625 C 1.671875 -7.578125 1.953125 -8.675781 2.515625 -9.5625 C 3.078125 -10.445312 3.941406 -11.171875 5.109375 -11.734375 C 6.285156 -12.296875 7.816406 -12.734375 9.703125 -13.046875 C 11.023438 -13.253906 12.023438 -13.484375 12.703125 -13.734375 C 13.390625 -13.992188 13.851562 -14.28125 14.09375 -14.59375 C 14.34375 -14.914062 14.46875 -15.320312 14.46875 -15.8125 C 14.46875 -16.519531 14.21875 -17.0625 13.71875 -17.4375 C 13.226562 -17.8125 12.410156 -18 11.265625 -18 C 10.035156 -18 8.867188 -17.722656 7.765625 -17.171875 C 6.660156 -16.628906 5.703125 -15.910156 4.890625 -15.015625 L 4.5 -15.015625 L 2.171875 -18.515625 C 3.296875 -19.753906 4.660156 -20.71875 6.265625 -21.40625 C 7.878906 -22.101562 9.640625 -22.453125 11.546875 -22.453125 C 14.460938 -22.453125 16.570312 -21.832031 17.875 -20.59375 C 19.175781 -19.351562 19.828125 -17.59375 19.828125 -15.3125 L 19.828125 -5.75 C 19.828125 -4.769531 20.257812 -4.28125 21.125 -4.28125 C 21.457031 -4.28125 21.785156 -4.335938 22.109375 -4.453125 L 22.390625 -4.375 L 22.796875 -0.515625 C 22.484375 -0.316406 22.050781 -0.15625 21.5 -0.03125 C 20.957031 0.09375 20.363281 0.15625 19.71875 0.15625 C 18.394531 0.15625 17.363281 -0.09375 16.625 -0.59375 C 15.882812 -1.101562 15.359375 -1.894531 15.046875 -2.96875 L 14.625 -3.015625 C 13.539062 -0.722656 11.53125 0.421875 8.59375 0.421875 Z M 10.34375 -3.71875 C 11.625 -3.71875 12.644531 -4.144531 13.40625 -5 C 14.175781 -5.863281 14.5625 -7.0625 14.5625 -8.59375 L 14.5625 -10.828125 L 14.1875 -10.90625 C 13.851562 -10.632812 13.414062 -10.410156 12.875 -10.234375 C 12.332031 -10.054688 11.554688 -9.878906 10.546875 -9.703125 C 9.347656 -9.503906 8.484375 -9.160156 7.953125 -8.671875 C 7.429688 -8.191406 7.171875 -7.503906 7.171875 -6.609375 C 7.171875 -5.660156 7.445312 -4.941406 8 -4.453125 C 8.5625 -3.960938 9.34375 -3.71875 10.34375 -3.71875 Z M 10.34375 -3.71875 "/></g></g><g transform="translate(95.150593, 58.023276)"><g><path d="M 9.140625 0.421875 C 7.160156 0.421875 5.644531 -0.113281 4.59375 -1.1875 C 3.550781 -2.257812 3.03125 -3.890625 3.03125 -6.078125 L 3.03125 -30.875 L 8.5625 -30.875 L 8.5625 -6.296875 C 8.5625 -4.953125 9.125 -4.28125 10.25 -4.28125 C 10.5625 -4.28125 10.898438 -4.332031 11.265625 -4.4375 L 11.546875 -4.359375 L 12.046875 -0.09375 C 11.734375 0.0625 11.320312 0.1875 10.8125 0.28125 C 10.3125 0.375 9.753906 0.421875 9.140625 0.421875 Z M 9.140625 0.421875 "/></g></g><g transform="translate(107.816266, 58.023276)"><g><path d="M 10.09375 0.421875 C 7.613281 0.421875 5.785156 -0.253906 4.609375 -1.609375 C 3.429688 -2.960938 2.84375 -4.90625 2.84375 -7.4375 L 2.84375 -22.03125 L 8.375 -22.03125 L 8.375 -8.125 C 8.375 -6.78125 8.660156 -5.796875 9.234375 -5.171875 C 9.816406 -4.554688 10.710938 -4.25 11.921875 -4.25 C 13.453125 -4.25 14.644531 -4.75 15.5 -5.75 C 16.351562 -6.757812 16.78125 -8.34375 16.78125 -10.5 L 16.78125 -22.03125 L 22.3125 -22.03125 L 22.3125 0 L 17 0 L 17 -3.234375 L 16.578125 -3.328125 C 15.867188 -2.066406 15.003906 -1.125 13.984375 -0.5 C 12.972656 0.113281 11.675781 0.421875 10.09375 0.421875 Z M 10.09375 0.421875 "/></g></g><g transform="translate(133.307432, 58.023276)"><g><path d="M 21.765625 -9.765625 L 7.609375 -9.765625 C 7.765625 -7.847656 8.304688 -6.453125 9.234375 -5.578125 C 10.171875 -4.710938 11.445312 -4.28125 13.0625 -4.28125 C 14.320312 -4.28125 15.34375 -4.515625 16.125 -4.984375 C 16.914062 -5.453125 17.550781 -6.164062 18.03125 -7.125 L 18.453125 -7.125 L 22.125 -4.78125 C 21.40625 -3.226562 20.320312 -1.972656 18.875 -1.015625 C 17.425781 -0.0546875 15.488281 0.421875 13.0625 0.421875 C 10.78125 0.421875 8.8125 -0.0078125 7.15625 -0.875 C 5.5 -1.738281 4.222656 -3.023438 3.328125 -4.734375 C 2.429688 -6.453125 1.984375 -8.539062 1.984375 -11 C 1.984375 -13.507812 2.453125 -15.617188 3.390625 -17.328125 C 4.335938 -19.046875 5.613281 -20.328125 7.21875 -21.171875 C 8.832031 -22.023438 10.644531 -22.453125 12.65625 -22.453125 C 15.78125 -22.453125 18.171875 -21.625 19.828125 -19.96875 C 21.484375 -18.320312 22.3125 -15.898438 22.3125 -12.703125 C 22.3125 -11.546875 22.269531 -10.644531 22.1875 -10 Z M 17.015625 -13.34375 C 16.960938 -15.019531 16.570312 -16.238281 15.84375 -17 C 15.125 -17.769531 14.0625 -18.15625 12.65625 -18.15625 C 9.863281 -18.15625 8.222656 -16.550781 7.734375 -13.34375 Z M 17.015625 -13.34375 "/></g></g></g><g fill="#423e3e" fill-opacity="1"><g transform="translate(62.884611, 126.991097)"><g><path d="M 2.28125 0 L 2.28125 -15.8125 L 6.09375 -15.8125 L 6.09375 -13.484375 L 6.390625 -13.421875 C 7.378906 -15.210938 8.976562 -16.109375 11.1875 -16.109375 C 13.007812 -16.109375 14.347656 -15.609375 15.203125 -14.609375 C 16.054688 -13.617188 16.484375 -12.175781 16.484375 -10.28125 L 16.484375 0 L 12.515625 0 L 12.515625 -9.796875 C 12.515625 -10.847656 12.300781 -11.601562 11.875 -12.0625 C 11.457031 -12.53125 10.785156 -12.765625 9.859375 -12.765625 C 8.722656 -12.765625 7.835938 -12.394531 7.203125 -11.65625 C 6.566406 -10.914062 6.25 -9.757812 6.25 -8.1875 L 6.25 0 Z M 2.28125 0 "/></g></g></g><g fill="#423e3e" fill-opacity="1"><g transform="translate(81.402979, 126.991097)"><g><path d="M 6.171875 0.296875 C 5.148438 0.296875 4.265625 0.113281 3.515625 -0.25 C 2.773438 -0.625 2.203125 -1.171875 1.796875 -1.890625 C 1.398438 -2.617188 1.203125 -3.488281 1.203125 -4.5 C 1.203125 -5.4375 1.398438 -6.222656 1.796875 -6.859375 C 2.203125 -7.492188 2.828125 -8.015625 3.671875 -8.421875 C 4.515625 -8.828125 5.613281 -9.140625 6.96875 -9.359375 C 7.914062 -9.515625 8.632812 -9.679688 9.125 -9.859375 C 9.613281 -10.046875 9.941406 -10.253906 10.109375 -10.484375 C 10.285156 -10.710938 10.375 -11.003906 10.375 -11.359375 C 10.375 -11.859375 10.195312 -12.242188 9.84375 -12.515625 C 9.488281 -12.785156 8.898438 -12.921875 8.078125 -12.921875 C 7.203125 -12.921875 6.367188 -12.722656 5.578125 -12.328125 C 4.785156 -11.929688 4.097656 -11.414062 3.515625 -10.78125 L 3.21875 -10.78125 L 1.5625 -13.296875 C 2.363281 -14.179688 3.34375 -14.867188 4.5 -15.359375 C 5.65625 -15.859375 6.914062 -16.109375 8.28125 -16.109375 C 10.375 -16.109375 11.890625 -15.664062 12.828125 -14.78125 C 13.765625 -13.894531 14.234375 -12.632812 14.234375 -11 L 14.234375 -4.125 C 14.234375 -3.414062 14.546875 -3.0625 15.171875 -3.0625 C 15.410156 -3.0625 15.644531 -3.109375 15.875 -3.203125 L 16.0625 -3.140625 L 16.359375 -0.375 C 16.140625 -0.226562 15.832031 -0.109375 15.4375 -0.015625 C 15.050781 0.0664062 14.625 0.109375 14.15625 0.109375 C 13.207031 0.109375 12.46875 -0.0664062 11.9375 -0.421875 C 11.40625 -0.785156 11.023438 -1.359375 10.796875 -2.140625 L 10.5 -2.171875 C 9.71875 -0.523438 8.273438 0.296875 6.171875 0.296875 Z M 7.421875 -2.671875 C 8.335938 -2.671875 9.070312 -2.976562 9.625 -3.59375 C 10.175781 -4.207031 10.453125 -5.066406 10.453125 -6.171875 L 10.453125 -7.765625 L 10.171875 -7.828125 C 9.929688 -7.640625 9.617188 -7.476562 9.234375 -7.34375 C 8.847656 -7.21875 8.289062 -7.09375 7.5625 -6.96875 C 6.707031 -6.820312 6.085938 -6.570312 5.703125 -6.21875 C 5.328125 -5.875 5.140625 -5.382812 5.140625 -4.75 C 5.140625 -4.070312 5.335938 -3.554688 5.734375 -3.203125 C 6.140625 -2.847656 6.703125 -2.671875 7.421875 -2.671875 Z M 7.421875 -2.671875 "/></g></g></g><g fill="#423e3e" fill-opacity="1"><g transform="translate(98.072377, 126.991097)"><g><path d="M 2.28125 0 L 2.28125 -15.8125 L 6.09375 -15.8125 L 6.09375 -13.6875 L 6.390625 -13.640625 C 6.910156 -14.484375 7.515625 -15.101562 8.203125 -15.5 C 8.898438 -15.90625 9.785156 -16.109375 10.859375 -16.109375 C 12.054688 -16.109375 13.019531 -15.867188 13.75 -15.390625 C 14.476562 -14.921875 15.007812 -14.234375 15.34375 -13.328125 L 15.640625 -13.328125 C 16.128906 -14.273438 16.753906 -14.972656 17.515625 -15.421875 C 18.285156 -15.878906 19.25 -16.109375 20.40625 -16.109375 C 23.675781 -16.109375 25.3125 -14.285156 25.3125 -10.640625 L 25.3125 0 L 21.34375 0 L 21.34375 -10.140625 C 21.34375 -11.066406 21.160156 -11.734375 20.796875 -12.140625 C 20.429688 -12.554688 19.847656 -12.765625 19.046875 -12.765625 C 16.867188 -12.765625 15.78125 -11.304688 15.78125 -8.390625 L 15.78125 0 L 11.8125 0 L 11.8125 -10.140625 C 11.8125 -11.066406 11.625 -11.734375 11.25 -12.140625 C 10.882812 -12.554688 10.300781 -12.765625 9.5 -12.765625 C 8.476562 -12.765625 7.679688 -12.421875 7.109375 -11.734375 C 6.535156 -11.046875 6.25 -9.957031 6.25 -8.46875 L 6.25 0 Z M 2.28125 0 "/></g></g></g><g fill="#423e3e" fill-opacity="1"><g transform="translate(125.419936, 126.991097)"><g><path d="M 15.625 -7.015625 L 5.46875 -7.015625 C 5.582031 -5.640625 5.972656 -4.632812 6.640625 -4 C 7.304688 -3.375 8.21875 -3.0625 9.375 -3.0625 C 10.28125 -3.0625 11.015625 -3.226562 11.578125 -3.5625 C 12.140625 -3.90625 12.59375 -4.425781 12.9375 -5.125 L 13.25 -5.125 L 15.890625 -3.421875 C 15.367188 -2.316406 14.585938 -1.421875 13.546875 -0.734375 C 12.503906 -0.046875 11.113281 0.296875 9.375 0.296875 C 7.738281 0.296875 6.328125 -0.0078125 5.140625 -0.625 C 3.953125 -1.25 3.035156 -2.175781 2.390625 -3.40625 C 1.742188 -4.632812 1.421875 -6.132812 1.421875 -7.90625 C 1.421875 -9.695312 1.757812 -11.207031 2.4375 -12.4375 C 3.113281 -13.675781 4.03125 -14.597656 5.1875 -15.203125 C 6.34375 -15.804688 7.644531 -16.109375 9.09375 -16.109375 C 11.320312 -16.109375 13.03125 -15.515625 14.21875 -14.328125 C 15.414062 -13.148438 16.015625 -11.414062 16.015625 -9.125 C 16.015625 -8.289062 15.984375 -7.644531 15.921875 -7.1875 Z M 12.21875 -9.578125 C 12.175781 -10.773438 11.894531 -11.648438 11.375 -12.203125 C 10.851562 -12.753906 10.09375 -13.03125 9.09375 -13.03125 C 7.082031 -13.03125 5.898438 -11.878906 5.546875 -9.578125 Z M 12.21875 -9.578125 "/></g></g></g><g clip-path="url(#7a95062cdc)"><path fill="#9eff95" d="M 167.472656 71.785156 L 167.472656 95.4375 L 43.125 95.4375 L 43.125 71.785156 Z M 167.472656 71.785156 " fill-opacity="1" fill-rule="nonzero"/></g><g clip-path="url(#d9eddbc39f)"><path fill="#56d84a" d="M 90.117188 71.785156 L 90.117188 95.4375 L 43.128906 95.4375 L 43.128906 71.785156 Z M 90.117188 71.785156 " fill-opacity="1" fill-rule="nonzero"/></g></svg>