<svg xmlns="http://www.w3.org/2000/svg" xmlns:xlink="http://www.w3.org/1999/xlink" width="275" zoomAndPan="magnify" viewBox="0 0 206.25 187.499992" height="250" preserveAspectRatio="xMidYMid meet" version="1.0"><defs><g/><clipPath id="d4926fea48"><path d="M 6.664062 6.203125 L 198.839844 6.203125 L 198.839844 145.292969 L 6.664062 145.292969 Z M 6.664062 6.203125 " clip-rule="nonzero"/></clipPath><clipPath id="aca5700a94"><path d="M 18.683594 151.675781 L 186.820312 151.675781 L 186.820312 179.699219 L 18.683594 179.699219 Z M 18.683594 151.675781 " clip-rule="nonzero"/></clipPath><clipPath id="498ae4c85f"><path d="M 47.3125 71.75 L 158.179688 71.75 L 158.179688 92.835938 L 47.3125 92.835938 Z M 47.3125 71.75 " clip-rule="nonzero"/></clipPath><clipPath id="fa92884fd4"><path d="M 47.3125 71.75 L 89.207031 71.75 L 89.207031 92.835938 L 47.3125 92.835938 Z M 47.3125 71.75 " clip-rule="nonzero"/></clipPath></defs><g clip-path="url(#d4926fea48)"><path fill="#ececec" d="M 6.664062 6.203125 L 198.839844 6.203125 L 198.839844 145.292969 L 6.664062 145.292969 Z M 6.664062 6.203125 " fill-opacity="1" fill-rule="nonzero"/></g><g clip-path="url(#aca5700a94)"><path fill="#ffffff" d="M 18.683594 151.675781 L 186.820312 151.675781 L 186.820312 179.699219 L 18.683594 179.699219 Z M 18.683594 151.675781 " fill-opacity="1" fill-rule="nonzero"/></g><g fill="#423e3e" fill-opacity="1"><g transform="translate(23.294199, 172.139648)"><g><path d="M 12.53125 -10.070312 C 12.53125 -13.210938 10.203125 -14.820312 7.230469 -14.820312 L 1.722656 -14.820312 L 1.722656 0 L 4.789062 0 L 4.789062 -5.222656 L 7.117188 -5.222656 C 10.222656 -5.222656 12.53125 -6.796875 12.53125 -10.070312 Z M 9.445312 -9.996094 C 9.445312 -8.613281 8.195312 -8.082031 6.984375 -8.082031 L 4.789062 -8.082031 L 4.789062 -11.925781 L 6.964844 -11.925781 C 8.234375 -11.925781 9.445312 -11.433594 9.445312 -9.996094 Z M 9.445312 -9.996094 "/></g></g></g><g fill="#423e3e" fill-opacity="1"><g transform="translate(36.391884, 172.139648)"><g><path d="M 13.117188 0 L 9.765625 -5.792969 C 11.773438 -6.511719 12.816406 -8.007812 12.816406 -10.125 C 12.816406 -13.269531 10.449219 -14.820312 7.570312 -14.820312 L 1.722656 -14.820312 L 1.722656 0 L 4.789062 0 L 4.789062 -5.320312 L 6.644531 -5.320312 L 9.710938 0 Z M 7.34375 -8.160156 L 4.789062 -8.160156 L 4.789062 -11.925781 L 7.324219 -11.925781 C 8.480469 -11.925781 9.710938 -11.488281 9.710938 -10.070312 C 9.710938 -8.667969 8.480469 -8.160156 7.34375 -8.160156 Z M 7.34375 -8.160156 "/></g></g></g><g fill="#423e3e" fill-opacity="1"><g transform="translate(50.227729, 172.139648)"><g><path d="M 0.8125 -7.402344 C 0.8125 -3.125 4.222656 0.226562 8.480469 0.226562 C 12.738281 0.226562 16.203125 -3.160156 16.203125 -7.476562 C 16.203125 -11.734375 12.816406 -15.046875 8.554688 -15.046875 C 4.296875 -15.046875 0.8125 -11.660156 0.8125 -7.402344 Z M 3.957031 -7.421875 C 3.957031 -9.976562 5.960938 -12.078125 8.519531 -12.078125 C 11.074219 -12.078125 13.078125 -9.976562 13.078125 -7.421875 C 13.078125 -4.863281 11.074219 -2.746094 8.519531 -2.746094 C 5.960938 -2.746094 3.957031 -4.863281 3.957031 -7.421875 Z M 3.957031 -7.421875 "/></g></g></g><g fill="#423e3e" fill-opacity="1"><g transform="translate(67.243368, 172.139648)"><g><path d="M 3.9375 -7.421875 C 3.9375 -10.109375 6 -12.152344 8.5 -12.152344 C 10.882812 -12.152344 12.039062 -10.65625 12.472656 -9.539062 L 15.179688 -10.863281 C 14.519531 -12.71875 12.324219 -15.046875 8.535156 -15.046875 C 4.316406 -15.046875 0.8125 -11.71875 0.8125 -7.402344 C 0.8125 -3.179688 3.917969 0.226562 8.5 0.226562 C 12.113281 0.226562 15.523438 -2.195312 15.523438 -6.8125 L 15.523438 -7.96875 L 7.816406 -7.96875 L 7.816406 -5.1875 L 12.324219 -5.1875 C 11.964844 -3.730469 10.503906 -2.6875 8.5 -2.6875 C 5.8125 -2.6875 3.9375 -4.847656 3.9375 -7.421875 Z M 3.9375 -7.421875 "/></g></g></g><g fill="#423e3e" fill-opacity="1"><g transform="translate(83.464061, 172.139648)"><g><path d="M 13.117188 0 L 9.765625 -5.792969 C 11.773438 -6.511719 12.816406 -8.007812 12.816406 -10.125 C 12.816406 -13.269531 10.449219 -14.820312 7.570312 -14.820312 L 1.722656 -14.820312 L 1.722656 0 L 4.789062 0 L 4.789062 -5.320312 L 6.644531 -5.320312 L 9.710938 0 Z M 7.34375 -8.160156 L 4.789062 -8.160156 L 4.789062 -11.925781 L 7.324219 -11.925781 C 8.480469 -11.925781 9.710938 -11.488281 9.710938 -10.070312 C 9.710938 -8.667969 8.480469 -8.160156 7.34375 -8.160156 Z M 7.34375 -8.160156 "/></g></g></g><g fill="#423e3e" fill-opacity="1"><g transform="translate(97.299906, 172.139648)"><g><path d="M 1.722656 -14.820312 L 1.722656 0 L 11.472656 0 L 11.472656 -2.859375 L 4.75 -2.859375 L 4.75 -6.058594 L 10.734375 -6.058594 L 10.734375 -8.933594 L 4.75 -8.933594 L 4.75 -11.945312 L 11.433594 -11.945312 L 11.433594 -14.820312 Z M 1.722656 -14.820312 "/></g></g></g><g fill="#423e3e" fill-opacity="1"><g transform="translate(109.848703, 172.139648)"><g><path d="M 4.011719 -10.769531 C 4.011719 -11.640625 4.75 -12.285156 5.980469 -12.285156 C 7.25 -12.285156 8.289062 -11.660156 8.78125 -10.46875 L 11.320312 -11.847656 C 10.46875 -13.875 8.59375 -15.046875 6.113281 -15.046875 C 3.3125 -15.046875 0.945312 -13.230469 0.945312 -10.582031 C 0.945312 -9.445312 1.402344 -8.5 2.082031 -7.835938 C 2.878906 -7.042969 4.109375 -6.511719 5.699219 -6.039062 C 7.855469 -5.394531 8.5 -4.996094 8.5 -4.125 C 8.5 -3.21875 7.570312 -2.554688 6.246094 -2.554688 C 4.75 -2.554688 3.578125 -3.332031 3.007812 -4.617188 L 0.359375 -3.253906 C 1.230469 -1.136719 3.351562 0.226562 6.152344 0.226562 C 9.652344 0.226562 11.585938 -1.742188 11.585938 -4.355469 C 11.585938 -6.851562 9.691406 -8.007812 6.398438 -8.953125 C 4.808594 -9.40625 4.011719 -9.84375 4.011719 -10.769531 Z M 4.011719 -10.769531 "/></g></g></g><g fill="#423e3e" fill-opacity="1"><g transform="translate(122.189299, 172.139648)"><g><path d="M 4.011719 -10.769531 C 4.011719 -11.640625 4.75 -12.285156 5.980469 -12.285156 C 7.25 -12.285156 8.289062 -11.660156 8.78125 -10.46875 L 11.320312 -11.847656 C 10.46875 -13.875 8.59375 -15.046875 6.113281 -15.046875 C 3.3125 -15.046875 0.945312 -13.230469 0.945312 -10.582031 C 0.945312 -9.445312 1.402344 -8.5 2.082031 -7.835938 C 2.878906 -7.042969 4.109375 -6.511719 5.699219 -6.039062 C 7.855469 -5.394531 8.5 -4.996094 8.5 -4.125 C 8.5 -3.21875 7.570312 -2.554688 6.246094 -2.554688 C 4.75 -2.554688 3.578125 -3.332031 3.007812 -4.617188 L 0.359375 -3.253906 C 1.230469 -1.136719 3.351562 0.226562 6.152344 0.226562 C 9.652344 0.226562 11.585938 -1.742188 11.585938 -4.355469 C 11.585938 -6.851562 9.691406 -8.007812 6.398438 -8.953125 C 4.808594 -9.40625 4.011719 -9.84375 4.011719 -10.769531 Z M 4.011719 -10.769531 "/></g></g></g><g fill="#423e3e" fill-opacity="1"><g transform="translate(134.529895, 172.139648)"><g/></g></g><g fill="#423e3e" fill-opacity="1"><g transform="translate(139.28064, 172.139648)"><g><path d="M 13.25 -4.089844 C 13.25 -6.058594 12.285156 -7.042969 10.523438 -7.703125 L 10.523438 -7.742188 C 11.8125 -8.40625 12.605469 -9.425781 12.605469 -10.902344 C 12.605469 -13.554688 10.257812 -14.820312 7.875 -14.820312 L 1.722656 -14.820312 L 1.722656 0 L 7.96875 0 C 10.582031 0 13.25 -1.078125 13.25 -4.089844 Z M 9.597656 -10.429688 C 9.597656 -9.085938 8.328125 -8.800781 7.25 -8.800781 L 4.714844 -8.800781 L 4.714844 -12 L 7.457031 -12 C 8.480469 -12 9.597656 -11.660156 9.597656 -10.429688 Z M 10.257812 -4.484375 C 10.257812 -3.160156 9.027344 -2.839844 7.929688 -2.839844 L 4.714844 -2.839844 L 4.714844 -6.152344 L 7.835938 -6.152344 C 8.972656 -6.152344 10.257812 -5.867188 10.257812 -4.484375 Z M 10.257812 -4.484375 "/></g></g></g><g fill="#423e3e" fill-opacity="1"><g transform="translate(153.362542, 172.139648)"><g><path d="M 3.066406 0 L 4.164062 -2.992188 L 10.734375 -2.992188 L 11.847656 0 L 15.011719 0 L 9.332031 -14.820312 L 5.640625 -14.820312 L -0.0195312 0 Z M 7.457031 -11.847656 L 9.691406 -5.828125 L 5.222656 -5.828125 Z M 7.457031 -11.847656 "/></g></g></g><g fill="#423e3e" fill-opacity="1"><g transform="translate(168.352961, 172.139648)"><g><path d="M 13.117188 0 L 9.765625 -5.792969 C 11.773438 -6.511719 12.816406 -8.007812 12.816406 -10.125 C 12.816406 -13.269531 10.449219 -14.820312 7.570312 -14.820312 L 1.722656 -14.820312 L 1.722656 0 L 4.789062 0 L 4.789062 -5.320312 L 6.644531 -5.320312 L 9.710938 0 Z M 7.34375 -8.160156 L 4.789062 -8.160156 L 4.789062 -11.925781 L 7.324219 -11.925781 C 8.480469 -11.925781 9.710938 -11.488281 9.710938 -10.070312 C 9.710938 -8.667969 8.480469 -8.160156 7.34375 -8.160156 Z M 7.34375 -8.160156 "/></g></g></g><g fill="#423e3e" fill-opacity="1"><g transform="translate(51.857796, 59.4786)"><g><path d="M 13.515625 0 L 7.640625 0 L 0.375 -19.65625 L 5.546875 -19.65625 L 10.421875 -5.640625 L 10.828125 -5.640625 L 15.734375 -19.65625 L 20.765625 -19.65625 Z M 13.515625 0 "/></g></g><g transform="translate(72.982368, 59.4786)"><g><path d="M 7.65625 0.375 C 6.394531 0.375 5.300781 0.144531 4.375 -0.3125 C 3.457031 -0.78125 2.75 -1.460938 2.25 -2.359375 C 1.75 -3.253906 1.5 -4.332031 1.5 -5.59375 C 1.5 -6.757812 1.75 -7.734375 2.25 -8.515625 C 2.75 -9.304688 3.519531 -9.953125 4.5625 -10.453125 C 5.601562 -10.960938 6.96875 -11.359375 8.65625 -11.640625 C 9.832031 -11.828125 10.722656 -12.03125 11.328125 -12.25 C 11.941406 -12.476562 12.351562 -12.734375 12.5625 -13.015625 C 12.78125 -13.304688 12.890625 -13.671875 12.890625 -14.109375 C 12.890625 -14.734375 12.671875 -15.210938 12.234375 -15.546875 C 11.796875 -15.878906 11.066406 -16.046875 10.046875 -16.046875 C 8.953125 -16.046875 7.910156 -15.800781 6.921875 -15.3125 C 5.941406 -14.832031 5.085938 -14.191406 4.359375 -13.390625 L 4.015625 -13.390625 L 1.9375 -16.515625 C 2.9375 -17.617188 4.15625 -18.476562 5.59375 -19.09375 C 7.03125 -19.71875 8.597656 -20.03125 10.296875 -20.03125 C 12.898438 -20.03125 14.78125 -19.472656 15.9375 -18.359375 C 17.101562 -17.253906 17.6875 -15.6875 17.6875 -13.65625 L 17.6875 -5.125 C 17.6875 -4.25 18.070312 -3.8125 18.84375 -3.8125 C 19.144531 -3.8125 19.4375 -3.863281 19.71875 -3.96875 L 19.96875 -3.90625 L 20.328125 -0.46875 C 20.054688 -0.289062 19.675781 -0.144531 19.1875 -0.03125 C 18.695312 0.0820312 18.160156 0.140625 17.578125 0.140625 C 16.398438 0.140625 15.484375 -0.0820312 14.828125 -0.53125 C 14.171875 -0.988281 13.703125 -1.695312 13.421875 -2.65625 L 13.046875 -2.6875 C 12.078125 -0.644531 10.28125 0.375 7.65625 0.375 Z M 9.234375 -3.3125 C 10.367188 -3.3125 11.273438 -3.691406 11.953125 -4.453125 C 12.640625 -5.222656 12.984375 -6.289062 12.984375 -7.65625 L 12.984375 -9.65625 L 12.640625 -9.734375 C 12.347656 -9.492188 11.960938 -9.289062 11.484375 -9.125 C 11.003906 -8.96875 10.3125 -8.8125 9.40625 -8.65625 C 8.332031 -8.476562 7.5625 -8.171875 7.09375 -7.734375 C 6.625 -7.304688 6.390625 -6.691406 6.390625 -5.890625 C 6.390625 -5.046875 6.640625 -4.40625 7.140625 -3.96875 C 7.640625 -3.53125 8.335938 -3.3125 9.234375 -3.3125 Z M 9.234375 -3.3125 "/></g></g><g transform="translate(93.697272, 59.4786)"><g><path d="M 8.15625 0.375 C 6.382812 0.375 5.03125 -0.101562 4.09375 -1.0625 C 3.164062 -2.019531 2.703125 -3.472656 2.703125 -5.421875 L 2.703125 -27.546875 L 7.640625 -27.546875 L 7.640625 -5.609375 C 7.640625 -4.410156 8.140625 -3.8125 9.140625 -3.8125 C 9.421875 -3.8125 9.722656 -3.859375 10.046875 -3.953125 L 10.296875 -3.890625 L 10.75 -0.09375 C 10.46875 0.0507812 10.101562 0.164062 9.65625 0.25 C 9.207031 0.332031 8.707031 0.375 8.15625 0.375 Z M 8.15625 0.375 "/></g></g><g transform="translate(104.989834, 59.4786)"><g><path d="M 9 0.375 C 6.789062 0.375 5.160156 -0.226562 4.109375 -1.4375 C 3.054688 -2.644531 2.53125 -4.375 2.53125 -6.625 L 2.53125 -19.65625 L 7.46875 -19.65625 L 7.46875 -7.25 C 7.46875 -6.050781 7.722656 -5.175781 8.234375 -4.625 C 8.753906 -4.070312 9.554688 -3.796875 10.640625 -3.796875 C 12.003906 -3.796875 13.066406 -4.242188 13.828125 -5.140625 C 14.585938 -6.035156 14.96875 -7.445312 14.96875 -9.375 L 14.96875 -19.65625 L 19.90625 -19.65625 L 19.90625 0 L 15.15625 0 L 15.15625 -2.890625 L 14.78125 -2.96875 C 14.15625 -1.84375 13.382812 -1.003906 12.46875 -0.453125 C 11.5625 0.0976562 10.40625 0.375 9 0.375 Z M 9 0.375 "/></g></g><g transform="translate(127.717451, 59.4786)"><g><path d="M 19.421875 -8.71875 L 6.78125 -8.71875 C 6.925781 -7 7.414062 -5.75 8.25 -4.96875 C 9.082031 -4.195312 10.21875 -3.8125 11.65625 -3.8125 C 12.78125 -3.8125 13.691406 -4.019531 14.390625 -4.4375 C 15.085938 -4.863281 15.65625 -5.503906 16.09375 -6.359375 L 16.453125 -6.359375 L 19.734375 -4.25 C 19.097656 -2.875 18.128906 -1.757812 16.828125 -0.90625 C 15.535156 -0.0507812 13.8125 0.375 11.65625 0.375 C 9.625 0.375 7.867188 -0.0078125 6.390625 -0.78125 C 4.910156 -1.550781 3.769531 -2.695312 2.96875 -4.21875 C 2.164062 -5.75 1.765625 -7.613281 1.765625 -9.8125 C 1.765625 -12.050781 2.1875 -13.9375 3.03125 -15.46875 C 3.875 -17 5.015625 -18.140625 6.453125 -18.890625 C 7.890625 -19.648438 9.503906 -20.03125 11.296875 -20.03125 C 14.078125 -20.03125 16.207031 -19.289062 17.6875 -17.8125 C 19.164062 -16.34375 19.90625 -14.179688 19.90625 -11.328125 C 19.90625 -10.296875 19.867188 -9.492188 19.796875 -8.921875 Z M 15.171875 -11.90625 C 15.128906 -13.394531 14.785156 -14.476562 14.140625 -15.15625 C 13.492188 -15.84375 12.546875 -16.1875 11.296875 -16.1875 C 8.796875 -16.1875 7.328125 -14.757812 6.890625 -11.90625 Z M 15.171875 -11.90625 "/></g></g></g><g fill="#423e3e" fill-opacity="1"><g transform="translate(64.929312, 120.969478)"><g><path d="M 2.03125 0 L 2.03125 -14.09375 L 5.4375 -14.09375 L 5.4375 -12.03125 L 5.703125 -11.96875 C 6.578125 -13.5625 8 -14.359375 9.96875 -14.359375 C 11.59375 -14.359375 12.785156 -13.914062 13.546875 -13.03125 C 14.316406 -12.144531 14.703125 -10.851562 14.703125 -9.15625 L 14.703125 0 L 11.15625 0 L 11.15625 -8.734375 C 11.15625 -9.671875 10.96875 -10.34375 10.59375 -10.75 C 10.21875 -11.164062 9.617188 -11.375 8.796875 -11.375 C 7.773438 -11.375 6.984375 -11.046875 6.421875 -10.390625 C 5.859375 -9.734375 5.578125 -8.703125 5.578125 -7.296875 L 5.578125 0 Z M 2.03125 0 "/></g></g></g><g fill="#423e3e" fill-opacity="1"><g transform="translate(81.440067, 120.969478)"><g><path d="M 5.5 0.265625 C 4.59375 0.265625 3.804688 0.0976562 3.140625 -0.234375 C 2.472656 -0.566406 1.960938 -1.050781 1.609375 -1.6875 C 1.253906 -2.332031 1.078125 -3.109375 1.078125 -4.015625 C 1.078125 -4.847656 1.253906 -5.546875 1.609375 -6.109375 C 1.960938 -6.679688 2.515625 -7.144531 3.265625 -7.5 C 4.015625 -7.863281 4.992188 -8.144531 6.203125 -8.34375 C 7.046875 -8.476562 7.6875 -8.625 8.125 -8.78125 C 8.570312 -8.945312 8.867188 -9.128906 9.015625 -9.328125 C 9.171875 -9.535156 9.25 -9.800781 9.25 -10.125 C 9.25 -10.570312 9.09375 -10.914062 8.78125 -11.15625 C 8.46875 -11.394531 7.941406 -11.515625 7.203125 -11.515625 C 6.421875 -11.515625 5.675781 -11.335938 4.96875 -10.984375 C 4.257812 -10.640625 3.644531 -10.179688 3.125 -9.609375 L 2.875 -9.609375 L 1.390625 -11.84375 C 2.109375 -12.632812 2.984375 -13.25 4.015625 -13.6875 C 5.046875 -14.132812 6.171875 -14.359375 7.390625 -14.359375 C 9.253906 -14.359375 10.601562 -13.960938 11.4375 -13.171875 C 12.269531 -12.378906 12.6875 -11.253906 12.6875 -9.796875 L 12.6875 -3.6875 C 12.6875 -3.050781 12.960938 -2.734375 13.515625 -2.734375 C 13.734375 -2.734375 13.941406 -2.769531 14.140625 -2.84375 L 14.328125 -2.796875 L 14.578125 -0.328125 C 14.378906 -0.203125 14.101562 -0.0976562 13.75 -0.015625 C 13.40625 0.0664062 13.023438 0.109375 12.609375 0.109375 C 11.765625 0.109375 11.101562 -0.0507812 10.625 -0.375 C 10.15625 -0.707031 9.820312 -1.21875 9.625 -1.90625 L 9.359375 -1.921875 C 8.660156 -0.460938 7.375 0.265625 5.5 0.265625 Z M 6.625 -2.375 C 7.4375 -2.375 8.085938 -2.648438 8.578125 -3.203125 C 9.066406 -3.753906 9.3125 -4.519531 9.3125 -5.5 L 9.3125 -6.921875 L 9.078125 -6.984375 C 8.859375 -6.804688 8.578125 -6.660156 8.234375 -6.546875 C 7.890625 -6.429688 7.394531 -6.316406 6.75 -6.203125 C 5.976562 -6.078125 5.425781 -5.859375 5.09375 -5.546875 C 4.757812 -5.242188 4.59375 -4.804688 4.59375 -4.234375 C 4.59375 -3.628906 4.769531 -3.164062 5.125 -2.84375 C 5.476562 -2.53125 5.976562 -2.375 6.625 -2.375 Z M 6.625 -2.375 "/></g></g></g><g fill="#423e3e" fill-opacity="1"><g transform="translate(96.302301, 120.969478)"><g><path d="M 2.03125 0 L 2.03125 -14.09375 L 5.4375 -14.09375 L 5.4375 -12.203125 L 5.703125 -12.15625 C 6.160156 -12.914062 6.695312 -13.472656 7.3125 -13.828125 C 7.9375 -14.179688 8.726562 -14.359375 9.6875 -14.359375 C 10.75 -14.359375 11.601562 -14.144531 12.25 -13.71875 C 12.894531 -13.300781 13.367188 -12.691406 13.671875 -11.890625 L 13.9375 -11.890625 C 14.375 -12.734375 14.9375 -13.351562 15.625 -13.75 C 16.3125 -14.15625 17.164062 -14.359375 18.1875 -14.359375 C 21.101562 -14.359375 22.5625 -12.734375 22.5625 -9.484375 L 22.5625 0 L 19.03125 0 L 19.03125 -9.03125 C 19.03125 -9.863281 18.867188 -10.460938 18.546875 -10.828125 C 18.222656 -11.191406 17.703125 -11.375 16.984375 -11.375 C 15.035156 -11.375 14.0625 -10.070312 14.0625 -7.46875 L 14.0625 0 L 10.53125 0 L 10.53125 -9.03125 C 10.53125 -9.863281 10.363281 -10.460938 10.03125 -10.828125 C 9.707031 -11.191406 9.1875 -11.375 8.46875 -11.375 C 7.5625 -11.375 6.851562 -11.066406 6.34375 -10.453125 C 5.832031 -9.847656 5.578125 -8.878906 5.578125 -7.546875 L 5.578125 0 Z M 2.03125 0 "/></g></g></g><g fill="#423e3e" fill-opacity="1"><g transform="translate(120.685056, 120.969478)"><g><path d="M 13.921875 -6.25 L 4.875 -6.25 C 4.96875 -5.019531 5.3125 -4.125 5.90625 -3.5625 C 6.507812 -3.007812 7.328125 -2.734375 8.359375 -2.734375 C 9.171875 -2.734375 9.828125 -2.882812 10.328125 -3.1875 C 10.828125 -3.488281 11.234375 -3.945312 11.546875 -4.5625 L 11.8125 -4.5625 L 14.15625 -3.046875 C 13.695312 -2.066406 13.003906 -1.269531 12.078125 -0.65625 C 11.148438 -0.0390625 9.910156 0.265625 8.359375 0.265625 C 6.898438 0.265625 5.640625 -0.0078125 4.578125 -0.5625 C 3.515625 -1.113281 2.695312 -1.9375 2.125 -3.03125 C 1.550781 -4.125 1.265625 -5.460938 1.265625 -7.046875 C 1.265625 -8.640625 1.566406 -9.984375 2.171875 -11.078125 C 2.773438 -12.179688 3.59375 -13.003906 4.625 -13.546875 C 5.65625 -14.085938 6.816406 -14.359375 8.109375 -14.359375 C 10.097656 -14.359375 11.625 -13.828125 12.6875 -12.765625 C 13.75 -11.710938 14.28125 -10.164062 14.28125 -8.125 C 14.28125 -7.382812 14.253906 -6.8125 14.203125 -6.40625 Z M 10.890625 -8.53125 C 10.859375 -9.601562 10.609375 -10.382812 10.140625 -10.875 C 9.671875 -11.363281 8.992188 -11.609375 8.109375 -11.609375 C 6.316406 -11.609375 5.265625 -10.582031 4.953125 -8.53125 Z M 10.890625 -8.53125 "/></g></g></g><g clip-path="url(#498ae4c85f)"><path fill="#9eff95" d="M 158.179688 71.75 L 158.179688 92.835938 L 47.3125 92.835938 L 47.3125 71.75 Z M 158.179688 71.75 " fill-opacity="1" fill-rule="nonzero"/></g><g clip-path="url(#fa92884fd4)"><path fill="#56d84a" d="M 89.207031 71.75 L 89.207031 92.835938 L 47.3125 92.835938 L 47.3125 71.75 Z M 89.207031 71.75 " fill-opacity="1" fill-rule="nonzero"/></g></svg>