<svg xmlns="http://www.w3.org/2000/svg" xmlns:xlink="http://www.w3.org/1999/xlink" width="300" zoomAndPan="magnify" viewBox="0 0 224.87999 168.749997" height="225" preserveAspectRatio="xMidYMid meet" version="1.0"><defs><g/><clipPath id="79ece4b3e5"><path d="M 5.984375 6.179688 L 219.1875 6.179688 L 219.1875 162.5625 L 5.984375 162.5625 Z M 5.984375 6.179688 " clip-rule="nonzero"/></clipPath><clipPath id="e67feb7580"><path d="M 46.71875 22.828125 L 178.53125 22.828125 L 178.53125 113.296875 L 46.71875 113.296875 Z M 46.71875 22.828125 " clip-rule="nonzero"/></clipPath><clipPath id="8f35f23a92"><path d="M 54.957031 22.828125 L 170.21875 22.828125 C 174.769531 22.828125 178.457031 26.519531 178.457031 31.066406 L 178.457031 105.058594 C 178.457031 109.609375 174.769531 113.296875 170.21875 113.296875 L 54.957031 113.296875 C 50.40625 113.296875 46.71875 109.609375 46.71875 105.058594 L 46.71875 31.066406 C 46.71875 26.519531 50.40625 22.828125 54.957031 22.828125 Z M 54.957031 22.828125 " clip-rule="nonzero"/></clipPath><clipPath id="de90e261fe"><path d="M 72.585938 65.191406 L 152.285156 65.191406 L 152.285156 80.351562 L 72.585938 80.351562 Z M 72.585938 65.191406 " clip-rule="nonzero"/></clipPath><clipPath id="fb210d1840"><path d="M 72.070312 65.152344 L 102.1875 65.152344 L 102.1875 80.3125 L 72.070312 80.3125 Z M 72.070312 65.152344 " clip-rule="nonzero"/></clipPath></defs><g clip-path="url(#79ece4b3e5)"><path fill="#ececec" d="M 5.984375 6.179688 L 219.179688 6.179688 L 219.179688 162.5625 L 5.984375 162.5625 Z M 5.984375 6.179688 " fill-opacity="1" fill-rule="nonzero"/></g><g fill="#423e3e" fill-opacity="1"><g transform="translate(32.823775, 145.878556)"><g><path d="M 12.5625 -10.09375 C 12.5625 -9 12.320312 -8.09375 11.84375 -7.375 C 11.375 -6.65625 10.726562 -6.117188 9.90625 -5.765625 C 9.09375 -5.410156 8.164062 -5.234375 7.125 -5.234375 L 4.796875 -5.234375 L 4.796875 0 L 1.71875 0 L 1.71875 -14.859375 L 7.25 -14.859375 C 8.25 -14.859375 9.144531 -14.679688 9.9375 -14.328125 C 10.738281 -13.972656 11.375 -13.441406 11.84375 -12.734375 C 12.320312 -12.023438 12.5625 -11.144531 12.5625 -10.09375 Z M 9.46875 -10.015625 C 9.46875 -10.492188 9.347656 -10.875 9.109375 -11.15625 C 8.867188 -11.445312 8.5625 -11.648438 8.1875 -11.765625 C 7.8125 -11.890625 7.410156 -11.953125 6.984375 -11.953125 L 4.796875 -11.953125 L 4.796875 -8.09375 L 7 -8.09375 C 7.40625 -8.09375 7.796875 -8.15625 8.171875 -8.28125 C 8.554688 -8.414062 8.867188 -8.625 9.109375 -8.90625 C 9.347656 -9.1875 9.46875 -9.554688 9.46875 -10.015625 Z M 9.46875 -10.015625 "/></g></g></g><g fill="#423e3e" fill-opacity="1"><g transform="translate(45.949642, 145.878556)"><g><path d="M 13.140625 0 L 9.734375 0 L 6.65625 -5.328125 L 4.796875 -5.328125 L 4.796875 0 L 1.71875 0 L 1.71875 -14.859375 L 7.59375 -14.859375 C 8.550781 -14.859375 9.425781 -14.679688 10.21875 -14.328125 C 11.019531 -13.984375 11.65625 -13.460938 12.125 -12.765625 C 12.601562 -12.066406 12.84375 -11.191406 12.84375 -10.140625 C 12.84375 -7.984375 11.820312 -6.535156 9.78125 -5.796875 Z M 7.359375 -8.171875 C 7.734375 -8.171875 8.101562 -8.234375 8.46875 -8.359375 C 8.84375 -8.492188 9.144531 -8.695312 9.375 -8.96875 C 9.613281 -9.25 9.734375 -9.625 9.734375 -10.09375 C 9.734375 -10.570312 9.613281 -10.941406 9.375 -11.203125 C 9.132812 -11.472656 8.832031 -11.664062 8.46875 -11.78125 C 8.101562 -11.894531 7.726562 -11.953125 7.34375 -11.953125 L 4.796875 -11.953125 L 4.796875 -8.171875 Z M 7.359375 -8.171875 "/></g></g></g><g fill="#423e3e" fill-opacity="1"><g transform="translate(59.815257, 145.878556)"><g><path d="M 0.8125 -7.421875 C 0.8125 -8.484375 1.015625 -9.476562 1.421875 -10.40625 C 1.828125 -11.332031 2.382812 -12.144531 3.09375 -12.84375 C 3.800781 -13.550781 4.625 -14.097656 5.5625 -14.484375 C 6.507812 -14.878906 7.515625 -15.078125 8.578125 -15.078125 C 9.640625 -15.078125 10.632812 -14.882812 11.5625 -14.5 C 12.488281 -14.113281 13.300781 -13.578125 14 -12.890625 C 14.707031 -12.203125 15.253906 -11.394531 15.640625 -10.46875 C 16.035156 -9.550781 16.234375 -8.5625 16.234375 -7.5 C 16.234375 -6.414062 16.035156 -5.40625 15.640625 -4.46875 C 15.242188 -3.539062 14.6875 -2.722656 13.96875 -2.015625 C 13.257812 -1.304688 12.4375 -0.753906 11.5 -0.359375 C 10.5625 0.0351562 9.5625 0.234375 8.5 0.234375 C 7.4375 0.234375 6.4375 0.0351562 5.5 -0.359375 C 4.570312 -0.753906 3.757812 -1.296875 3.0625 -1.984375 C 2.363281 -2.679688 1.8125 -3.488281 1.40625 -4.40625 C 1.007812 -5.332031 0.8125 -6.335938 0.8125 -7.421875 Z M 3.96875 -7.4375 C 3.96875 -6.59375 4.164062 -5.8125 4.5625 -5.09375 C 4.96875 -4.375 5.519531 -3.800781 6.21875 -3.375 C 6.914062 -2.957031 7.6875 -2.75 8.53125 -2.75 C 9.394531 -2.75 10.171875 -2.957031 10.859375 -3.375 C 11.546875 -3.800781 12.09375 -4.375 12.5 -5.09375 C 12.90625 -5.8125 13.109375 -6.59375 13.109375 -7.4375 C 13.109375 -8.289062 12.90625 -9.066406 12.5 -9.765625 C 12.09375 -10.472656 11.546875 -11.039062 10.859375 -11.46875 C 10.171875 -11.894531 9.394531 -12.109375 8.53125 -12.109375 C 7.6875 -12.109375 6.914062 -11.894531 6.21875 -11.46875 C 5.519531 -11.039062 4.96875 -10.472656 4.5625 -9.765625 C 4.164062 -9.066406 3.96875 -8.289062 3.96875 -7.4375 Z M 3.96875 -7.4375 "/></g></g></g><g fill="#423e3e" fill-opacity="1"><g transform="translate(76.867508, 145.878556)"><g><path d="M 3.953125 -7.4375 C 3.953125 -6.570312 4.144531 -5.78125 4.53125 -5.0625 C 4.914062 -4.34375 5.453125 -3.765625 6.140625 -3.328125 C 6.828125 -2.898438 7.617188 -2.6875 8.515625 -2.6875 C 9.523438 -2.6875 10.367188 -2.921875 11.046875 -3.390625 C 11.734375 -3.859375 12.164062 -4.460938 12.34375 -5.203125 L 7.828125 -5.203125 L 7.828125 -7.984375 L 15.546875 -7.984375 L 15.546875 -6.828125 C 15.546875 -5.679688 15.351562 -4.664062 14.96875 -3.78125 C 14.582031 -2.894531 14.054688 -2.15625 13.390625 -1.5625 C 12.734375 -0.976562 11.984375 -0.53125 11.140625 -0.21875 C 10.296875 0.0820312 9.421875 0.234375 8.515625 0.234375 C 7.367188 0.234375 6.320312 0.0351562 5.375 -0.359375 C 4.4375 -0.765625 3.625 -1.3125 2.9375 -2 C 2.257812 -2.695312 1.734375 -3.507812 1.359375 -4.4375 C 0.992188 -5.363281 0.8125 -6.359375 0.8125 -7.421875 C 0.8125 -8.503906 1.015625 -9.503906 1.421875 -10.421875 C 1.828125 -11.347656 2.382812 -12.160156 3.09375 -12.859375 C 3.8125 -13.566406 4.632812 -14.113281 5.5625 -14.5 C 6.5 -14.882812 7.5 -15.078125 8.5625 -15.078125 C 9.507812 -15.078125 10.359375 -14.945312 11.109375 -14.6875 C 11.859375 -14.425781 12.507812 -14.085938 13.0625 -13.671875 C 13.613281 -13.253906 14.066406 -12.800781 14.421875 -12.3125 C 14.785156 -11.832031 15.050781 -11.359375 15.21875 -10.890625 L 12.5 -9.5625 C 12.363281 -9.9375 12.132812 -10.328125 11.8125 -10.734375 C 11.488281 -11.140625 11.054688 -11.476562 10.515625 -11.75 C 9.984375 -12.03125 9.316406 -12.171875 8.515625 -12.171875 C 7.679688 -12.171875 6.921875 -11.960938 6.234375 -11.546875 C 5.546875 -11.128906 4.992188 -10.5625 4.578125 -9.84375 C 4.160156 -9.132812 3.953125 -8.332031 3.953125 -7.4375 Z M 3.953125 -7.4375 "/></g></g></g><g fill="#423e3e" fill-opacity="1"><g transform="translate(93.123103, 145.878556)"><g><path d="M 13.140625 0 L 9.734375 0 L 6.65625 -5.328125 L 4.796875 -5.328125 L 4.796875 0 L 1.71875 0 L 1.71875 -14.859375 L 7.59375 -14.859375 C 8.550781 -14.859375 9.425781 -14.679688 10.21875 -14.328125 C 11.019531 -13.984375 11.65625 -13.460938 12.125 -12.765625 C 12.601562 -12.066406 12.84375 -11.191406 12.84375 -10.140625 C 12.84375 -7.984375 11.820312 -6.535156 9.78125 -5.796875 Z M 7.359375 -8.171875 C 7.734375 -8.171875 8.101562 -8.234375 8.46875 -8.359375 C 8.84375 -8.492188 9.144531 -8.695312 9.375 -8.96875 C 9.613281 -9.25 9.734375 -9.625 9.734375 -10.09375 C 9.734375 -10.570312 9.613281 -10.941406 9.375 -11.203125 C 9.132812 -11.472656 8.832031 -11.664062 8.46875 -11.78125 C 8.101562 -11.894531 7.726562 -11.953125 7.34375 -11.953125 L 4.796875 -11.953125 L 4.796875 -8.171875 Z M 7.359375 -8.171875 "/></g></g></g><g fill="#423e3e" fill-opacity="1"><g transform="translate(106.988719, 145.878556)"><g><path d="M 1.71875 -14.859375 L 11.453125 -14.859375 L 11.453125 -11.96875 L 4.765625 -11.96875 L 4.765625 -8.953125 L 10.75 -8.953125 L 10.75 -6.0625 L 4.765625 -6.0625 L 4.765625 -2.859375 L 11.5 -2.859375 L 11.5 0 L 1.71875 0 Z M 1.71875 -14.859375 "/></g></g></g><g fill="#423e3e" fill-opacity="1"><g transform="translate(119.564516, 145.878556)"><g><path d="M 4.015625 -10.796875 C 4.015625 -10.328125 4.210938 -9.960938 4.609375 -9.703125 C 5.015625 -9.441406 5.613281 -9.195312 6.40625 -8.96875 C 7.507812 -8.65625 8.445312 -8.300781 9.21875 -7.90625 C 10 -7.519531 10.59375 -7.039062 11 -6.46875 C 11.40625 -5.894531 11.609375 -5.191406 11.609375 -4.359375 C 11.609375 -3.484375 11.398438 -2.703125 10.984375 -2.015625 C 10.566406 -1.328125 9.953125 -0.78125 9.140625 -0.375 C 8.328125 0.03125 7.335938 0.234375 6.171875 0.234375 C 4.765625 0.234375 3.554688 -0.0820312 2.546875 -0.71875 C 1.535156 -1.351562 0.804688 -2.203125 0.359375 -3.265625 L 3.015625 -4.625 C 3.304688 -3.976562 3.734375 -3.472656 4.296875 -3.109375 C 4.859375 -2.742188 5.515625 -2.5625 6.265625 -2.5625 C 6.929688 -2.5625 7.472656 -2.707031 7.890625 -3 C 8.304688 -3.300781 8.515625 -3.679688 8.515625 -4.140625 C 8.515625 -4.429688 8.429688 -4.679688 8.265625 -4.890625 C 8.109375 -5.097656 7.820312 -5.289062 7.40625 -5.46875 C 7 -5.644531 6.429688 -5.835938 5.703125 -6.046875 C 4.910156 -6.285156 4.207031 -6.546875 3.59375 -6.828125 C 2.988281 -7.117188 2.488281 -7.460938 2.09375 -7.859375 C 1.75 -8.179688 1.472656 -8.578125 1.265625 -9.046875 C 1.054688 -9.515625 0.953125 -10.035156 0.953125 -10.609375 C 0.953125 -11.492188 1.1875 -12.269531 1.65625 -12.9375 C 2.132812 -13.601562 2.765625 -14.125 3.546875 -14.5 C 4.328125 -14.882812 5.1875 -15.078125 6.125 -15.078125 C 7.363281 -15.078125 8.4375 -14.796875 9.34375 -14.234375 C 10.25 -13.671875 10.914062 -12.882812 11.34375 -11.875 L 8.796875 -10.484375 C 8.554688 -11.078125 8.1875 -11.53125 7.6875 -11.84375 C 7.1875 -12.15625 6.625 -12.3125 6 -12.3125 C 5.375 -12.3125 4.882812 -12.164062 4.53125 -11.875 C 4.1875 -11.59375 4.015625 -11.234375 4.015625 -10.796875 Z M 4.015625 -10.796875 "/></g></g></g><g fill="#423e3e" fill-opacity="1"><g transform="translate(131.931665, 145.878556)"><g><path d="M 4.015625 -10.796875 C 4.015625 -10.328125 4.210938 -9.960938 4.609375 -9.703125 C 5.015625 -9.441406 5.613281 -9.195312 6.40625 -8.96875 C 7.507812 -8.65625 8.445312 -8.300781 9.21875 -7.90625 C 10 -7.519531 10.59375 -7.039062 11 -6.46875 C 11.40625 -5.894531 11.609375 -5.191406 11.609375 -4.359375 C 11.609375 -3.484375 11.398438 -2.703125 10.984375 -2.015625 C 10.566406 -1.328125 9.953125 -0.78125 9.140625 -0.375 C 8.328125 0.03125 7.335938 0.234375 6.171875 0.234375 C 4.765625 0.234375 3.554688 -0.0820312 2.546875 -0.71875 C 1.535156 -1.351562 0.804688 -2.203125 0.359375 -3.265625 L 3.015625 -4.625 C 3.304688 -3.976562 3.734375 -3.472656 4.296875 -3.109375 C 4.859375 -2.742188 5.515625 -2.5625 6.265625 -2.5625 C 6.929688 -2.5625 7.472656 -2.707031 7.890625 -3 C 8.304688 -3.300781 8.515625 -3.679688 8.515625 -4.140625 C 8.515625 -4.429688 8.429688 -4.679688 8.265625 -4.890625 C 8.109375 -5.097656 7.820312 -5.289062 7.40625 -5.46875 C 7 -5.644531 6.429688 -5.835938 5.703125 -6.046875 C 4.910156 -6.285156 4.207031 -6.546875 3.59375 -6.828125 C 2.988281 -7.117188 2.488281 -7.460938 2.09375 -7.859375 C 1.75 -8.179688 1.472656 -8.578125 1.265625 -9.046875 C 1.054688 -9.515625 0.953125 -10.035156 0.953125 -10.609375 C 0.953125 -11.492188 1.1875 -12.269531 1.65625 -12.9375 C 2.132812 -13.601562 2.765625 -14.125 3.546875 -14.5 C 4.328125 -14.882812 5.1875 -15.078125 6.125 -15.078125 C 7.363281 -15.078125 8.4375 -14.796875 9.34375 -14.234375 C 10.25 -13.671875 10.914062 -12.882812 11.34375 -11.875 L 8.796875 -10.484375 C 8.554688 -11.078125 8.1875 -11.53125 7.6875 -11.84375 C 7.1875 -12.15625 6.625 -12.3125 6 -12.3125 C 5.375 -12.3125 4.882812 -12.164062 4.53125 -11.875 C 4.1875 -11.59375 4.015625 -11.234375 4.015625 -10.796875 Z M 4.015625 -10.796875 "/></g></g></g><g fill="#423e3e" fill-opacity="1"><g transform="translate(144.298814, 145.878556)"><g/></g></g><g fill="#423e3e" fill-opacity="1"><g transform="translate(149.059781, 145.878556)"><g><path d="M 13.28125 -4.09375 C 13.28125 -3.332031 13.128906 -2.691406 12.828125 -2.171875 C 12.523438 -1.660156 12.117188 -1.242188 11.609375 -0.921875 C 11.097656 -0.597656 10.53125 -0.363281 9.90625 -0.21875 C 9.28125 -0.0703125 8.640625 0 7.984375 0 L 1.71875 0 L 1.71875 -14.859375 L 7.890625 -14.859375 C 8.691406 -14.859375 9.453125 -14.710938 10.171875 -14.421875 C 10.898438 -14.140625 11.492188 -13.707031 11.953125 -13.125 C 12.410156 -12.539062 12.640625 -11.804688 12.640625 -10.921875 C 12.640625 -10.191406 12.453125 -9.5625 12.078125 -9.03125 C 11.703125 -8.507812 11.191406 -8.085938 10.546875 -7.765625 L 10.546875 -7.71875 C 11.429688 -7.394531 12.109375 -6.957031 12.578125 -6.40625 C 13.046875 -5.851562 13.28125 -5.082031 13.28125 -4.09375 Z M 9.625 -10.453125 C 9.625 -10.867188 9.515625 -11.191406 9.296875 -11.421875 C 9.078125 -11.648438 8.800781 -11.804688 8.46875 -11.890625 C 8.144531 -11.984375 7.8125 -12.03125 7.46875 -12.03125 L 4.71875 -12.03125 L 4.71875 -8.828125 L 7.265625 -8.828125 C 7.628906 -8.828125 7.988281 -8.863281 8.34375 -8.9375 C 8.707031 -9.019531 9.007812 -9.179688 9.25 -9.421875 C 9.5 -9.660156 9.625 -10.003906 9.625 -10.453125 Z M 10.28125 -4.5 C 10.28125 -4.96875 10.15625 -5.316406 9.90625 -5.546875 C 9.664062 -5.785156 9.359375 -5.945312 8.984375 -6.03125 C 8.609375 -6.125 8.234375 -6.171875 7.859375 -6.171875 L 4.71875 -6.171875 L 4.71875 -2.84375 L 7.953125 -2.84375 C 8.316406 -2.84375 8.675781 -2.882812 9.03125 -2.96875 C 9.394531 -3.0625 9.691406 -3.226562 9.921875 -3.46875 C 10.160156 -3.707031 10.28125 -4.050781 10.28125 -4.5 Z M 10.28125 -4.5 "/></g></g></g><g fill="#423e3e" fill-opacity="1"><g transform="translate(163.171983, 145.878556)"><g><path d="M 3.078125 0 L -0.015625 0 L 5.65625 -14.859375 L 9.359375 -14.859375 L 15.046875 0 L 11.875 0 L 10.75 -3 L 4.171875 -3 Z M 7.46875 -11.875 L 5.234375 -5.84375 L 9.71875 -5.84375 Z M 7.46875 -11.875 "/></g></g></g><g fill="#423e3e" fill-opacity="1"><g transform="translate(178.194656, 145.878556)"><g><path d="M 13.140625 0 L 9.734375 0 L 6.65625 -5.328125 L 4.796875 -5.328125 L 4.796875 0 L 1.71875 0 L 1.71875 -14.859375 L 7.59375 -14.859375 C 8.550781 -14.859375 9.425781 -14.679688 10.21875 -14.328125 C 11.019531 -13.984375 11.65625 -13.460938 12.125 -12.765625 C 12.601562 -12.066406 12.84375 -11.191406 12.84375 -10.140625 C 12.84375 -7.984375 11.820312 -6.535156 9.78125 -5.796875 Z M 7.359375 -8.171875 C 7.734375 -8.171875 8.101562 -8.234375 8.46875 -8.359375 C 8.84375 -8.492188 9.144531 -8.695312 9.375 -8.96875 C 9.613281 -9.25 9.734375 -9.625 9.734375 -10.09375 C 9.734375 -10.570312 9.613281 -10.941406 9.375 -11.203125 C 9.132812 -11.472656 8.832031 -11.664062 8.46875 -11.78125 C 8.101562 -11.894531 7.726562 -11.953125 7.34375 -11.953125 L 4.796875 -11.953125 L 4.796875 -8.171875 Z M 7.359375 -8.171875 "/></g></g></g><g clip-path="url(#e67feb7580)"><g clip-path="url(#8f35f23a92)"><path fill="#ddd9d9" d="M 46.71875 22.828125 L 178.53125 22.828125 L 178.53125 113.296875 L 46.71875 113.296875 Z M 46.71875 22.828125 " fill-opacity="1" fill-rule="nonzero"/></g></g><g fill="#423e3e" fill-opacity="1"><g transform="translate(75.852674, 56.367751)"><g><path d="M 9.71875 0 L 5.484375 0 L 0.265625 -14.125 L 3.984375 -14.125 L 7.484375 -4.0625 L 7.78125 -4.0625 L 11.296875 -14.125 L 14.921875 -14.125 Z M 9.71875 0 "/></g></g><g transform="translate(91.039104, 56.367751)"><g><path d="M 5.5 0.265625 C 4.59375 0.265625 3.804688 0.0976562 3.140625 -0.234375 C 2.484375 -0.566406 1.972656 -1.050781 1.609375 -1.6875 C 1.253906 -2.332031 1.078125 -3.109375 1.078125 -4.015625 C 1.078125 -4.859375 1.253906 -5.5625 1.609375 -6.125 C 1.972656 -6.695312 2.53125 -7.160156 3.28125 -7.515625 C 4.03125 -7.878906 5.007812 -8.160156 6.21875 -8.359375 C 7.0625 -8.492188 7.703125 -8.640625 8.140625 -8.796875 C 8.585938 -8.960938 8.882812 -9.148438 9.03125 -9.359375 C 9.1875 -9.566406 9.265625 -9.828125 9.265625 -10.140625 C 9.265625 -10.585938 9.109375 -10.929688 8.796875 -11.171875 C 8.484375 -11.410156 7.957031 -11.53125 7.21875 -11.53125 C 6.4375 -11.53125 5.691406 -11.351562 4.984375 -11 C 4.273438 -10.65625 3.660156 -10.195312 3.140625 -9.625 L 2.875 -9.625 L 1.390625 -11.875 C 2.109375 -12.664062 2.984375 -13.28125 4.015625 -13.71875 C 5.046875 -14.164062 6.175781 -14.390625 7.40625 -14.390625 C 9.269531 -14.390625 10.617188 -13.992188 11.453125 -13.203125 C 12.296875 -12.410156 12.71875 -11.28125 12.71875 -9.8125 L 12.71875 -3.6875 C 12.71875 -3.050781 12.992188 -2.734375 13.546875 -2.734375 C 13.753906 -2.734375 13.960938 -2.773438 14.171875 -2.859375 L 14.34375 -2.796875 L 14.609375 -0.328125 C 14.410156 -0.203125 14.132812 -0.0976562 13.78125 -0.015625 C 13.4375 0.0664062 13.054688 0.109375 12.640625 0.109375 C 11.796875 0.109375 11.132812 -0.0507812 10.65625 -0.375 C 10.1875 -0.707031 9.847656 -1.21875 9.640625 -1.90625 L 9.375 -1.9375 C 8.675781 -0.46875 7.382812 0.265625 5.5 0.265625 Z M 6.625 -2.375 C 7.445312 -2.375 8.101562 -2.648438 8.59375 -3.203125 C 9.082031 -3.753906 9.328125 -4.519531 9.328125 -5.5 L 9.328125 -6.9375 L 9.09375 -6.984375 C 8.875 -6.816406 8.59375 -6.675781 8.25 -6.5625 C 7.90625 -6.445312 7.410156 -6.332031 6.765625 -6.21875 C 5.992188 -6.09375 5.4375 -5.875 5.09375 -5.5625 C 4.757812 -5.25 4.59375 -4.804688 4.59375 -4.234375 C 4.59375 -3.628906 4.769531 -3.164062 5.125 -2.84375 C 5.488281 -2.53125 5.988281 -2.375 6.625 -2.375 Z M 6.625 -2.375 "/></g></g><g transform="translate(105.931025, 56.367751)"><g><path d="M 5.859375 0.265625 C 4.585938 0.265625 3.617188 -0.078125 2.953125 -0.765625 C 2.285156 -1.453125 1.953125 -2.492188 1.953125 -3.890625 L 1.953125 -19.796875 L 5.484375 -19.796875 L 5.484375 -4.03125 C 5.484375 -3.164062 5.84375 -2.734375 6.5625 -2.734375 C 6.769531 -2.734375 6.988281 -2.769531 7.21875 -2.84375 L 7.40625 -2.796875 L 7.71875 -0.0625 C 7.519531 0.0390625 7.257812 0.117188 6.9375 0.171875 C 6.613281 0.234375 6.253906 0.265625 5.859375 0.265625 Z M 5.859375 0.265625 "/></g></g><g transform="translate(114.049235, 56.367751)"><g><path d="M 6.46875 0.265625 C 4.875 0.265625 3.695312 -0.164062 2.9375 -1.03125 C 2.1875 -1.894531 1.8125 -3.140625 1.8125 -4.765625 L 1.8125 -14.125 L 5.359375 -14.125 L 5.359375 -5.203125 C 5.359375 -4.347656 5.546875 -3.722656 5.921875 -3.328125 C 6.296875 -2.929688 6.867188 -2.734375 7.640625 -2.734375 C 8.617188 -2.734375 9.378906 -3.050781 9.921875 -3.6875 C 10.472656 -4.332031 10.75 -5.347656 10.75 -6.734375 L 10.75 -14.125 L 14.296875 -14.125 L 14.296875 0 L 10.890625 0 L 10.890625 -2.078125 L 10.625 -2.140625 C 10.175781 -1.328125 9.625 -0.722656 8.96875 -0.328125 C 8.3125 0.0664062 7.476562 0.265625 6.46875 0.265625 Z M 6.46875 0.265625 "/></g></g><g transform="translate(130.388093, 56.367751)"><g><path d="M 13.953125 -6.265625 L 4.875 -6.265625 C 4.976562 -5.035156 5.328125 -4.140625 5.921875 -3.578125 C 6.523438 -3.015625 7.34375 -2.734375 8.375 -2.734375 C 9.1875 -2.734375 9.84375 -2.882812 10.34375 -3.1875 C 10.84375 -3.5 11.25 -3.960938 11.5625 -4.578125 L 11.828125 -4.578125 L 14.1875 -3.0625 C 13.726562 -2.070312 13.03125 -1.269531 12.09375 -0.65625 C 11.164062 -0.0390625 9.925781 0.265625 8.375 0.265625 C 6.914062 0.265625 5.65625 -0.0078125 4.59375 -0.5625 C 3.53125 -1.113281 2.707031 -1.9375 2.125 -3.03125 C 1.550781 -4.132812 1.265625 -5.472656 1.265625 -7.046875 C 1.265625 -8.648438 1.566406 -10.003906 2.171875 -11.109375 C 2.773438 -12.210938 3.59375 -13.035156 4.625 -13.578125 C 5.664062 -14.117188 6.828125 -14.390625 8.109375 -14.390625 C 10.109375 -14.390625 11.640625 -13.859375 12.703125 -12.796875 C 13.765625 -11.742188 14.296875 -10.191406 14.296875 -8.140625 C 14.296875 -7.398438 14.269531 -6.820312 14.21875 -6.40625 Z M 10.90625 -8.546875 C 10.875 -9.628906 10.625 -10.414062 10.15625 -10.90625 C 9.6875 -11.394531 9.003906 -11.640625 8.109375 -11.640625 C 6.316406 -11.640625 5.265625 -10.609375 4.953125 -8.546875 Z M 10.90625 -8.546875 "/></g></g></g><g fill="#423e3e" fill-opacity="1"><g transform="translate(85.249771, 100.573467)"><g><path d="M 1.453125 0 L 1.453125 -10.125 L 3.90625 -10.125 L 3.90625 -8.640625 L 4.09375 -8.59375 C 4.726562 -9.75 5.753906 -10.328125 7.171875 -10.328125 C 8.335938 -10.328125 9.191406 -10.007812 9.734375 -9.375 C 10.285156 -8.738281 10.5625 -7.8125 10.5625 -6.59375 L 10.5625 0 L 8.015625 0 L 8.015625 -6.28125 C 8.015625 -6.945312 7.878906 -7.425781 7.609375 -7.71875 C 7.335938 -8.019531 6.90625 -8.171875 6.3125 -8.171875 C 5.59375 -8.171875 5.023438 -7.9375 4.609375 -7.46875 C 4.203125 -7 4 -6.257812 4 -5.25 L 4 0 Z M 1.453125 0 "/></g></g></g><g fill="#423e3e" fill-opacity="1"><g transform="translate(97.119333, 100.573467)"><g><path d="M 3.953125 0.1875 C 3.296875 0.1875 2.726562 0.0664062 2.25 -0.171875 C 1.78125 -0.410156 1.414062 -0.757812 1.15625 -1.21875 C 0.894531 -1.675781 0.765625 -2.234375 0.765625 -2.890625 C 0.765625 -3.484375 0.894531 -3.984375 1.15625 -4.390625 C 1.414062 -4.796875 1.8125 -5.128906 2.34375 -5.390625 C 2.882812 -5.648438 3.59375 -5.851562 4.46875 -6 C 5.070312 -6.09375 5.53125 -6.195312 5.84375 -6.3125 C 6.15625 -6.4375 6.367188 -6.570312 6.484375 -6.71875 C 6.597656 -6.863281 6.65625 -7.050781 6.65625 -7.28125 C 6.65625 -7.601562 6.539062 -7.847656 6.3125 -8.015625 C 6.082031 -8.191406 5.707031 -8.28125 5.1875 -8.28125 C 4.613281 -8.28125 4.070312 -8.148438 3.5625 -7.890625 C 3.0625 -7.640625 2.625 -7.3125 2.25 -6.90625 L 2.0625 -6.90625 L 1 -8.515625 C 1.507812 -9.085938 2.132812 -9.53125 2.875 -9.84375 C 3.625 -10.164062 4.4375 -10.328125 5.3125 -10.328125 C 6.65625 -10.328125 7.625 -10.039062 8.21875 -9.46875 C 8.820312 -8.894531 9.125 -8.085938 9.125 -7.046875 L 9.125 -2.640625 C 9.125 -2.191406 9.320312 -1.96875 9.71875 -1.96875 C 9.875 -1.96875 10.023438 -1.992188 10.171875 -2.046875 L 10.296875 -2.015625 L 10.484375 -0.234375 C 10.335938 -0.140625 10.140625 -0.0625 9.890625 0 C 9.640625 0.0507812 9.363281 0.078125 9.0625 0.078125 C 8.457031 0.078125 7.984375 -0.0351562 7.640625 -0.265625 C 7.304688 -0.503906 7.066406 -0.875 6.921875 -1.375 L 6.71875 -1.390625 C 6.226562 -0.335938 5.304688 0.1875 3.953125 0.1875 Z M 4.765625 -1.703125 C 5.347656 -1.703125 5.816406 -1.898438 6.171875 -2.296875 C 6.523438 -2.691406 6.703125 -3.242188 6.703125 -3.953125 L 6.703125 -4.984375 L 6.515625 -5.015625 C 6.367188 -4.890625 6.171875 -4.785156 5.921875 -4.703125 C 5.671875 -4.617188 5.3125 -4.539062 4.84375 -4.46875 C 4.289062 -4.375 3.894531 -4.210938 3.65625 -3.984375 C 3.414062 -3.765625 3.296875 -3.453125 3.296875 -3.046875 C 3.296875 -2.609375 3.421875 -2.273438 3.671875 -2.046875 C 3.929688 -1.816406 4.296875 -1.703125 4.765625 -1.703125 Z M 4.765625 -1.703125 "/></g></g></g><g fill="#423e3e" fill-opacity="1"><g transform="translate(107.803776, 100.573467)"><g><path d="M 1.453125 0 L 1.453125 -10.125 L 3.90625 -10.125 L 3.90625 -8.765625 L 4.09375 -8.734375 C 4.425781 -9.273438 4.8125 -9.675781 5.25 -9.9375 C 5.695312 -10.195312 6.269531 -10.328125 6.96875 -10.328125 C 7.726562 -10.328125 8.335938 -10.175781 8.796875 -9.875 C 9.265625 -9.570312 9.609375 -9.128906 9.828125 -8.546875 L 10.015625 -8.546875 C 10.328125 -9.148438 10.726562 -9.597656 11.21875 -9.890625 C 11.71875 -10.179688 12.335938 -10.328125 13.078125 -10.328125 C 15.171875 -10.328125 16.21875 -9.15625 16.21875 -6.8125 L 16.21875 0 L 13.671875 0 L 13.671875 -6.5 C 13.671875 -7.09375 13.554688 -7.519531 13.328125 -7.78125 C 13.097656 -8.039062 12.722656 -8.171875 12.203125 -8.171875 C 10.804688 -8.171875 10.109375 -7.238281 10.109375 -5.375 L 10.109375 0 L 7.5625 0 L 7.5625 -6.5 C 7.5625 -7.09375 7.441406 -7.519531 7.203125 -7.78125 C 6.972656 -8.039062 6.601562 -8.171875 6.09375 -8.171875 C 5.4375 -8.171875 4.921875 -7.953125 4.546875 -7.515625 C 4.179688 -7.078125 4 -6.378906 4 -5.421875 L 4 0 Z M 1.453125 0 "/></g></g></g><g fill="#423e3e" fill-opacity="1"><g transform="translate(125.332511, 100.573467)"><g><path d="M 10.015625 -4.484375 L 3.5 -4.484375 C 3.570312 -3.609375 3.820312 -2.96875 4.25 -2.5625 C 4.675781 -2.164062 5.257812 -1.96875 6 -1.96875 C 6.582031 -1.96875 7.054688 -2.078125 7.421875 -2.296875 C 7.785156 -2.515625 8.078125 -2.84375 8.296875 -3.28125 L 8.484375 -3.28125 L 10.171875 -2.203125 C 9.847656 -1.484375 9.347656 -0.90625 8.671875 -0.46875 C 8.003906 -0.03125 7.113281 0.1875 6 0.1875 C 4.957031 0.1875 4.054688 -0.0078125 3.296875 -0.40625 C 2.535156 -0.800781 1.945312 -1.390625 1.53125 -2.171875 C 1.113281 -2.960938 0.90625 -3.925781 0.90625 -5.0625 C 0.90625 -6.207031 1.125 -7.175781 1.5625 -7.96875 C 2 -8.757812 2.585938 -9.347656 3.328125 -9.734375 C 4.066406 -10.128906 4.898438 -10.328125 5.828125 -10.328125 C 7.253906 -10.328125 8.347656 -9.945312 9.109375 -9.1875 C 9.878906 -8.425781 10.265625 -7.3125 10.265625 -5.84375 C 10.265625 -5.3125 10.242188 -4.898438 10.203125 -4.609375 Z M 7.828125 -6.140625 C 7.804688 -6.910156 7.625 -7.46875 7.28125 -7.8125 C 6.945312 -8.164062 6.460938 -8.34375 5.828125 -8.34375 C 4.535156 -8.34375 3.78125 -7.609375 3.5625 -6.140625 Z M 7.828125 -6.140625 "/></g></g></g><g clip-path="url(#de90e261fe)"><path fill="#9eff95" d="M 152.285156 65.191406 L 152.285156 80.351562 L 72.574219 80.351562 L 72.574219 65.191406 Z M 152.285156 65.191406 " fill-opacity="1" fill-rule="nonzero"/></g><g clip-path="url(#fb210d1840)"><path fill="#56d84a" d="M 102.1875 65.152344 L 102.1875 80.3125 L 72.046875 80.3125 L 72.046875 65.152344 Z M 102.1875 65.152344 " fill-opacity="1" fill-rule="nonzero"/></g></svg>