<svg xmlns="http://www.w3.org/2000/svg" xmlns:xlink="http://www.w3.org/1999/xlink" width="275" zoomAndPan="magnify" viewBox="0 0 206.25 187.499992" height="250" preserveAspectRatio="xMidYMid meet" version="1.0"><defs><g/><clipPath id="9524b79fdf"><path d="M 6.664062 6.203125 L 198.839844 6.203125 L 198.839844 145.292969 L 6.664062 145.292969 Z M 6.664062 6.203125 " clip-rule="nonzero"/></clipPath><clipPath id="f091b9cb1a"><path d="M 18.683594 152.242188 L 186.820312 152.242188 L 186.820312 177.519531 L 18.683594 177.519531 Z M 18.683594 152.242188 " clip-rule="nonzero"/></clipPath><clipPath id="1706d73416"><path d="M 151.609375 63.125 L 176.855469 63.125 L 176.855469 88.371094 L 151.609375 88.371094 Z M 151.609375 63.125 " clip-rule="nonzero"/></clipPath><clipPath id="7083b7b529"><path d="M 164.234375 63.125 C 157.261719 63.125 151.609375 68.777344 151.609375 75.75 C 151.609375 82.71875 157.261719 88.371094 164.234375 88.371094 C 171.207031 88.371094 176.855469 82.71875 176.855469 75.75 C 176.855469 68.777344 171.207031 63.125 164.234375 63.125 Z M 164.234375 63.125 " clip-rule="nonzero"/></clipPath><clipPath id="7493fe82aa"><path d="M 61.300781 63.125 L 86.546875 63.125 L 86.546875 88.371094 L 61.300781 88.371094 Z M 61.300781 63.125 " clip-rule="nonzero"/></clipPath><clipPath id="50a22745b6"><path d="M 73.921875 63.125 C 66.949219 63.125 61.300781 68.777344 61.300781 75.75 C 61.300781 82.71875 66.949219 88.371094 73.921875 88.371094 C 80.894531 88.371094 86.546875 82.71875 86.546875 75.75 C 86.546875 68.777344 80.894531 63.125 73.921875 63.125 Z M 73.921875 63.125 " clip-rule="nonzero"/></clipPath><clipPath id="668cf2f877"><path d="M 0 0.0898438 L 205.503906 0.0898438 L 205.503906 160 L 0 160 Z M 0 0.0898438 " clip-rule="nonzero"/></clipPath></defs><g clip-path="url(#9524b79fdf)"><path fill="#ececec" d="M 6.664062 6.203125 L 198.839844 6.203125 L 198.839844 145.292969 L 6.664062 145.292969 Z M 6.664062 6.203125 " fill-opacity="1" fill-rule="nonzero"/></g><g clip-path="url(#f091b9cb1a)"><path fill="#ffffff" d="M 18.683594 152.242188 L 186.820312 152.242188 L 186.820312 177.519531 L 18.683594 177.519531 Z M 18.683594 152.242188 " fill-opacity="1" fill-rule="nonzero"/></g><g fill="#423e3e" fill-opacity="1"><g transform="translate(25.378417, 172.787288)"><g><path d="M 13.429688 -1.136719 L 15.121094 0.398438 L 17.09375 -1.894531 L 15.578125 -3.207031 C 16.515625 -4.523438 17.054688 -6.117188 17.054688 -7.871094 C 17.054688 -12.351562 13.488281 -15.839844 9.003906 -15.839844 C 4.503906 -15.839844 0.855469 -12.273438 0.855469 -7.789062 C 0.855469 -3.289062 4.421875 0.21875 8.925781 0.21875 C 10.578125 0.21875 12.132812 -0.277344 13.429688 -1.136719 Z M 4.144531 -7.808594 C 4.144531 -10.5 6.296875 -12.730469 8.964844 -12.730469 C 11.613281 -12.730469 13.765625 -10.5 13.765625 -7.808594 C 13.765625 -6.933594 13.546875 -6.097656 13.148438 -5.378906 L 10.480469 -7.789062 L 8.507812 -5.457031 L 10.976562 -3.328125 C 10.359375 -3.027344 9.683594 -2.867188 8.964844 -2.867188 C 6.296875 -2.867188 4.144531 -5.121094 4.144531 -7.808594 Z M 4.144531 -7.808594 "/></g></g></g><g fill="#423e3e" fill-opacity="1"><g transform="translate(43.30613, 172.787288)"><g><path d="M 14.183594 -6.296875 L 14.183594 -15.597656 L 10.996094 -15.597656 L 10.996094 -6.175781 C 10.996094 -4.203125 9.902344 -2.890625 7.910156 -2.890625 C 6.214844 -2.890625 4.882812 -3.945312 4.882812 -6.253906 L 4.902344 -15.597656 L 1.652344 -15.597656 L 1.652344 -6.175781 C 1.652344 -2.410156 3.566406 0.21875 7.890625 0.21875 C 12.113281 0.21875 14.183594 -2.3125 14.183594 -6.296875 Z M 14.183594 -6.296875 "/></g></g></g><g fill="#423e3e" fill-opacity="1"><g transform="translate(59.142269, 172.787288)"><g><path d="M 1.8125 -15.597656 L 1.8125 0 L 12.074219 0 L 12.074219 -3.007812 L 5 -3.007812 L 5 -6.375 L 11.296875 -6.375 L 11.296875 -9.402344 L 5 -9.402344 L 5 -12.570312 L 12.035156 -12.570312 L 12.035156 -15.597656 Z M 1.8125 -15.597656 "/></g></g></g><g fill="#423e3e" fill-opacity="1"><g transform="translate(72.34902, 172.787288)"><g><path d="M 13.804688 0 L 10.28125 -6.097656 C 12.390625 -6.851562 13.488281 -8.425781 13.488281 -10.660156 C 13.488281 -13.964844 10.996094 -15.597656 7.96875 -15.597656 L 1.8125 -15.597656 L 1.8125 0 L 5.039062 0 L 5.039062 -5.597656 L 6.992188 -5.597656 L 10.21875 0 Z M 7.730469 -8.585938 L 5.039062 -8.585938 L 5.039062 -12.550781 L 7.710938 -12.550781 C 8.925781 -12.550781 10.21875 -12.09375 10.21875 -10.597656 C 10.21875 -9.125 8.925781 -8.585938 7.730469 -8.585938 Z M 7.730469 -8.585938 "/></g></g></g><g fill="#423e3e" fill-opacity="1"><g transform="translate(86.9103, 172.787288)"><g><path d="M 5.996094 0 L 9.222656 0 L 9.222656 -6.316406 L 14.941406 -15.597656 L 11.257812 -15.597656 L 7.609375 -9.363281 L 4.003906 -15.597656 L 0.277344 -15.597656 L 5.996094 -6.175781 Z M 5.996094 0 "/></g></g></g><g fill="#423e3e" fill-opacity="1"><g transform="translate(102.10901, 172.787288)"><g/></g></g><g fill="#423e3e" fill-opacity="1"><g transform="translate(107.108846, 172.787288)"><g><path d="M 5.039062 -9.222656 L 5.039062 -12.53125 L 12.09375 -12.53125 L 12.09375 -15.597656 L 1.8125 -15.597656 L 1.8125 0 L 5.039062 0 L 5.039062 -6.15625 L 11.355469 -6.15625 L 11.355469 -9.222656 Z M 5.039062 -9.222656 "/></g></g></g><g fill="#423e3e" fill-opacity="1"><g transform="translate(120.036711, 172.787288)"><g><path d="M 5.039062 -15.597656 L 1.8125 -15.597656 L 1.8125 0 L 5.039062 0 Z M 5.039062 -15.597656 "/></g></g></g><g fill="#423e3e" fill-opacity="1"><g transform="translate(126.908995, 172.787288)"><g><path d="M 1.8125 -15.597656 L 1.8125 0 L 11.695312 0 L 11.695312 -3.066406 L 5.019531 -3.066406 L 5.019531 -15.597656 Z M 1.8125 -15.597656 "/></g></g></g><g fill="#423e3e" fill-opacity="1"><g transform="translate(138.940477, 172.787288)"><g><path d="M 5.101562 0 L 8.308594 0 L 8.308594 -12.472656 L 12.988281 -12.472656 L 12.988281 -15.597656 L 0.417969 -15.597656 L 0.417969 -12.472656 L 5.101562 -12.472656 Z M 5.101562 0 "/></g></g></g><g fill="#423e3e" fill-opacity="1"><g transform="translate(152.34642, 172.787288)"><g><path d="M 1.8125 -15.597656 L 1.8125 0 L 12.074219 0 L 12.074219 -3.007812 L 5 -3.007812 L 5 -6.375 L 11.296875 -6.375 L 11.296875 -9.402344 L 5 -9.402344 L 5 -12.570312 L 12.035156 -12.570312 L 12.035156 -15.597656 Z M 1.8125 -15.597656 "/></g></g></g><g fill="#423e3e" fill-opacity="1"><g transform="translate(165.553171, 172.787288)"><g><path d="M 13.804688 0 L 10.28125 -6.097656 C 12.390625 -6.851562 13.488281 -8.425781 13.488281 -10.660156 C 13.488281 -13.964844 10.996094 -15.597656 7.96875 -15.597656 L 1.8125 -15.597656 L 1.8125 0 L 5.039062 0 L 5.039062 -5.597656 L 6.992188 -5.597656 L 10.21875 0 Z M 7.730469 -8.585938 L 5.039062 -8.585938 L 5.039062 -12.550781 L 7.710938 -12.550781 C 8.925781 -12.550781 10.21875 -12.09375 10.21875 -10.597656 C 10.21875 -9.125 8.925781 -8.585938 7.730469 -8.585938 Z M 7.730469 -8.585938 "/></g></g></g><path stroke-linecap="round" transform="matrix(0.776143, 0, 0, 0.776143, 28.645406, 69.084039)" fill="none" stroke-linejoin="miter" d="M 9.500984 9.499525 L 161.419017 9.499525 " stroke="#a6a6a6" stroke-width="19" stroke-opacity="1" stroke-miterlimit="4"/><g clip-path="url(#1706d73416)"><g clip-path="url(#7083b7b529)"><path fill="#333333" d="M 151.609375 63.125 L 176.855469 63.125 L 176.855469 88.371094 L 151.609375 88.371094 Z M 151.609375 63.125 " fill-opacity="1" fill-rule="nonzero"/></g></g><g clip-path="url(#7493fe82aa)"><g clip-path="url(#50a22745b6)"><path fill="#333333" d="M 61.300781 63.125 L 86.546875 63.125 L 86.546875 88.371094 L 61.300781 88.371094 Z M 61.300781 63.125 " fill-opacity="1" fill-rule="nonzero"/></g></g><g clip-path="url(#668cf2f877)"><path stroke-linecap="round" transform="matrix(0.776123, 0.00559181, -0.00559181, 0.776123, 61.352352, 68.374929)" fill="none" stroke-linejoin="miter" d="M 9.499321 9.499439 L 117.352117 9.502501 " stroke="#333333" stroke-width="19" stroke-opacity="1" stroke-miterlimit="4"/></g></svg>