<svg xmlns="http://www.w3.org/2000/svg" xmlns:xlink="http://www.w3.org/1999/xlink" width="300" zoomAndPan="magnify" viewBox="0 0 224.87999 168.749997" height="225" preserveAspectRatio="xMidYMid meet" version="1.0"><defs><g/><clipPath id="db441ddce6"><path d="M 5.984375 6.179688 L 219.1875 6.179688 L 219.1875 162.5625 L 5.984375 162.5625 Z M 5.984375 6.179688 " clip-rule="nonzero"/></clipPath><clipPath id="d7a1c0a80d"><path d="M 156.277344 61.714844 L 178.933594 61.714844 L 178.933594 84.371094 L 156.277344 84.371094 Z M 156.277344 61.714844 " clip-rule="nonzero"/></clipPath><clipPath id="4c85295135"><path d="M 167.605469 61.714844 C 161.347656 61.714844 156.277344 66.789062 156.277344 73.042969 C 156.277344 79.296875 161.347656 84.371094 167.605469 84.371094 C 173.859375 84.371094 178.933594 79.296875 178.933594 73.042969 C 178.933594 66.789062 173.859375 61.714844 167.605469 61.714844 Z M 167.605469 61.714844 " clip-rule="nonzero"/></clipPath><clipPath id="ba47b449f7"><path d="M 75.246094 61.714844 L 97.902344 61.714844 L 97.902344 84.371094 L 75.246094 84.371094 Z M 75.246094 61.714844 " clip-rule="nonzero"/></clipPath><clipPath id="190564ca1c"><path d="M 86.574219 61.714844 C 80.316406 61.714844 75.246094 66.789062 75.246094 73.042969 C 75.246094 79.296875 80.316406 84.371094 86.574219 84.371094 C 92.828125 84.371094 97.902344 79.296875 97.902344 73.042969 C 97.902344 66.789062 92.828125 61.714844 86.574219 61.714844 Z M 86.574219 61.714844 " clip-rule="nonzero"/></clipPath><clipPath id="82427a0461"><path d="M 7 0 L 224.652344 0 L 224.652344 149 L 7 149 Z M 7 0 " clip-rule="nonzero"/></clipPath></defs><g clip-path="url(#db441ddce6)"><path fill="#ececec" d="M 5.984375 6.179688 L 219.179688 6.179688 L 219.179688 162.5625 L 5.984375 162.5625 Z M 5.984375 6.179688 " fill-opacity="1" fill-rule="nonzero"/></g><g fill="#423e3e" fill-opacity="1"><g transform="translate(38.767684, 145.878556)"><g><path d="M 12.78125 -1.078125 C 12.164062 -0.671875 11.492188 -0.351562 10.765625 -0.125 C 10.035156 0.09375 9.28125 0.203125 8.5 0.203125 C 7.425781 0.203125 6.421875 0.0078125 5.484375 -0.375 C 4.554688 -0.757812 3.738281 -1.296875 3.03125 -1.984375 C 2.332031 -2.679688 1.785156 -3.488281 1.390625 -4.40625 C 1.003906 -5.332031 0.8125 -6.335938 0.8125 -7.421875 C 0.8125 -8.484375 1.015625 -9.476562 1.421875 -10.40625 C 1.828125 -11.332031 2.382812 -12.144531 3.09375 -12.84375 C 3.800781 -13.550781 4.625 -14.097656 5.5625 -14.484375 C 6.5 -14.878906 7.503906 -15.078125 8.578125 -15.078125 C 9.640625 -15.078125 10.632812 -14.882812 11.5625 -14.5 C 12.488281 -14.113281 13.300781 -13.578125 14 -12.890625 C 14.707031 -12.203125 15.253906 -11.394531 15.640625 -10.46875 C 16.035156 -9.550781 16.234375 -8.5625 16.234375 -7.5 C 16.234375 -6.65625 16.109375 -5.859375 15.859375 -5.109375 C 15.617188 -4.367188 15.273438 -3.679688 14.828125 -3.046875 L 16.28125 -1.796875 L 14.390625 0.375 Z M 3.953125 -7.4375 C 3.953125 -6.59375 4.15625 -5.8125 4.5625 -5.09375 C 4.96875 -4.375 5.519531 -3.800781 6.21875 -3.375 C 6.914062 -2.945312 7.6875 -2.734375 8.53125 -2.734375 C 9.207031 -2.734375 9.847656 -2.878906 10.453125 -3.171875 L 8.09375 -5.203125 L 9.984375 -7.421875 L 12.515625 -5.125 C 12.910156 -5.832031 13.109375 -6.601562 13.109375 -7.4375 C 13.109375 -8.289062 12.898438 -9.070312 12.484375 -9.78125 C 12.078125 -10.488281 11.53125 -11.054688 10.84375 -11.484375 C 10.15625 -11.910156 9.382812 -12.125 8.53125 -12.125 C 7.6875 -12.125 6.914062 -11.910156 6.21875 -11.484375 C 5.519531 -11.054688 4.96875 -10.488281 4.5625 -9.78125 C 4.15625 -9.070312 3.953125 -8.289062 3.953125 -7.4375 Z M 3.953125 -7.4375 "/></g></g></g><g fill="#423e3e" fill-opacity="1"><g transform="translate(55.838904, 145.878556)"><g><path d="M 13.5 -6 C 13.5 -4.726562 13.273438 -3.628906 12.828125 -2.703125 C 12.390625 -1.773438 11.726562 -1.054688 10.84375 -0.546875 C 9.957031 -0.046875 8.847656 0.203125 7.515625 0.203125 C 6.148438 0.203125 5.023438 -0.0507812 4.140625 -0.5625 C 3.265625 -1.082031 2.617188 -1.800781 2.203125 -2.71875 C 1.785156 -3.632812 1.578125 -4.6875 1.578125 -5.875 L 1.578125 -14.859375 L 4.671875 -14.859375 L 4.640625 -5.953125 C 4.640625 -4.859375 4.914062 -4.050781 5.46875 -3.53125 C 6.03125 -3.007812 6.71875 -2.75 7.53125 -2.75 C 8.476562 -2.75 9.203125 -3.035156 9.703125 -3.609375 C 10.210938 -4.191406 10.46875 -4.945312 10.46875 -5.875 L 10.46875 -14.859375 L 13.5 -14.859375 Z M 13.5 -6 "/></g></g></g><g fill="#423e3e" fill-opacity="1"><g transform="translate(70.918473, 145.878556)"><g><path d="M 1.71875 -14.859375 L 11.453125 -14.859375 L 11.453125 -11.96875 L 4.765625 -11.96875 L 4.765625 -8.953125 L 10.75 -8.953125 L 10.75 -6.0625 L 4.765625 -6.0625 L 4.765625 -2.859375 L 11.5 -2.859375 L 11.5 0 L 1.71875 0 Z M 1.71875 -14.859375 "/></g></g></g><g fill="#423e3e" fill-opacity="1"><g transform="translate(83.49427, 145.878556)"><g><path d="M 13.140625 0 L 9.734375 0 L 6.65625 -5.328125 L 4.796875 -5.328125 L 4.796875 0 L 1.71875 0 L 1.71875 -14.859375 L 7.59375 -14.859375 C 8.550781 -14.859375 9.425781 -14.679688 10.21875 -14.328125 C 11.019531 -13.984375 11.65625 -13.460938 12.125 -12.765625 C 12.601562 -12.066406 12.84375 -11.191406 12.84375 -10.140625 C 12.84375 -7.984375 11.820312 -6.535156 9.78125 -5.796875 Z M 7.359375 -8.171875 C 7.734375 -8.171875 8.101562 -8.234375 8.46875 -8.359375 C 8.84375 -8.492188 9.144531 -8.695312 9.375 -8.96875 C 9.613281 -9.25 9.734375 -9.625 9.734375 -10.09375 C 9.734375 -10.570312 9.613281 -10.941406 9.375 -11.203125 C 9.132812 -11.472656 8.832031 -11.664062 8.46875 -11.78125 C 8.101562 -11.894531 7.726562 -11.953125 7.34375 -11.953125 L 4.796875 -11.953125 L 4.796875 -8.171875 Z M 7.359375 -8.171875 "/></g></g></g><g fill="#423e3e" fill-opacity="1"><g transform="translate(97.359886, 145.878556)"><g><path d="M 5.703125 0 L 5.703125 -5.875 L 0.265625 -14.859375 L 3.8125 -14.859375 L 7.25 -8.921875 L 10.71875 -14.859375 L 14.234375 -14.859375 L 8.78125 -6.015625 L 8.78125 0 Z M 5.703125 0 "/></g></g></g><g fill="#423e3e" fill-opacity="1"><g transform="translate(111.832477, 145.878556)"><g/></g></g><g fill="#423e3e" fill-opacity="1"><g transform="translate(116.593444, 145.878556)"><g><path d="M 4.796875 -8.78125 L 10.8125 -8.78125 L 10.8125 -5.859375 L 4.796875 -5.859375 L 4.796875 0 L 1.71875 0 L 1.71875 -14.859375 L 11.515625 -14.859375 L 11.515625 -11.9375 L 4.796875 -11.9375 Z M 4.796875 -8.78125 "/></g></g></g><g fill="#423e3e" fill-opacity="1"><g transform="translate(128.903686, 145.878556)"><g><path d="M 4.796875 -14.859375 L 4.796875 0 L 1.71875 0 L 1.71875 -14.859375 Z M 4.796875 -14.859375 "/></g></g></g><g fill="#423e3e" fill-opacity="1"><g transform="translate(135.447656, 145.878556)"><g><path d="M 1.71875 -14.859375 L 4.78125 -14.859375 L 4.78125 -2.921875 L 11.140625 -2.921875 L 11.140625 0 L 1.71875 0 Z M 1.71875 -14.859375 "/></g></g></g><g fill="#423e3e" fill-opacity="1"><g transform="translate(146.904334, 145.878556)"><g><path d="M 4.859375 0 L 4.859375 -11.875 L 0.390625 -11.875 L 0.390625 -14.859375 L 12.375 -14.859375 L 12.375 -11.875 L 7.90625 -11.875 L 7.90625 0 Z M 4.859375 0 "/></g></g></g><g fill="#423e3e" fill-opacity="1"><g transform="translate(159.669811, 145.878556)"><g><path d="M 1.71875 -14.859375 L 11.453125 -14.859375 L 11.453125 -11.96875 L 4.765625 -11.96875 L 4.765625 -8.953125 L 10.75 -8.953125 L 10.75 -6.0625 L 4.765625 -6.0625 L 4.765625 -2.859375 L 11.5 -2.859375 L 11.5 0 L 1.71875 0 Z M 1.71875 -14.859375 "/></g></g></g><g fill="#423e3e" fill-opacity="1"><g transform="translate(172.245609, 145.878556)"><g><path d="M 13.140625 0 L 9.734375 0 L 6.65625 -5.328125 L 4.796875 -5.328125 L 4.796875 0 L 1.71875 0 L 1.71875 -14.859375 L 7.59375 -14.859375 C 8.550781 -14.859375 9.425781 -14.679688 10.21875 -14.328125 C 11.019531 -13.984375 11.65625 -13.460938 12.125 -12.765625 C 12.601562 -12.066406 12.84375 -11.191406 12.84375 -10.140625 C 12.84375 -7.984375 11.820312 -6.535156 9.78125 -5.796875 Z M 7.359375 -8.171875 C 7.734375 -8.171875 8.101562 -8.234375 8.46875 -8.359375 C 8.84375 -8.492188 9.144531 -8.695312 9.375 -8.96875 C 9.613281 -9.25 9.734375 -9.625 9.734375 -10.09375 C 9.734375 -10.570312 9.613281 -10.941406 9.375 -11.203125 C 9.132812 -11.472656 8.832031 -11.664062 8.46875 -11.78125 C 8.101562 -11.894531 7.726562 -11.953125 7.34375 -11.953125 L 4.796875 -11.953125 L 4.796875 -8.171875 Z M 7.359375 -8.171875 "/></g></g></g><path stroke-linecap="round" transform="matrix(0.6964, 0, 0, 0.6964, 45.947936, 67.063757)" fill="none" stroke-linejoin="miter" d="M 9.49823 9.500192 L 161.417987 9.500192 " stroke="#a6a6a6" stroke-width="19" stroke-opacity="1" stroke-miterlimit="4"/><g clip-path="url(#d7a1c0a80d)"><g clip-path="url(#4c85295135)"><path fill="#333333" d="M 156.277344 61.714844 L 178.933594 61.714844 L 178.933594 84.371094 L 156.277344 84.371094 Z M 156.277344 61.714844 " fill-opacity="1" fill-rule="nonzero"/></g></g><g clip-path="url(#ba47b449f7)"><g clip-path="url(#190564ca1c)"><path fill="#333333" d="M 75.246094 61.714844 L 97.902344 61.714844 L 97.902344 84.371094 L 75.246094 84.371094 Z M 75.246094 61.714844 " fill-opacity="1" fill-rule="nonzero"/></g></g><g clip-path="url(#82427a0461)"><path stroke-linecap="round" transform="matrix(0.696382, 0.00501729, -0.00501729, 0.696382, 75.294466, 66.427499)" fill="none" stroke-linejoin="miter" d="M 9.501216 9.498634 L 117.352253 9.501289 " stroke="#333333" stroke-width="19" stroke-opacity="1" stroke-miterlimit="4"/></g></svg>