<svg xmlns="http://www.w3.org/2000/svg" xmlns:xlink="http://www.w3.org/1999/xlink" width="300" zoomAndPan="magnify" viewBox="0 0 224.87999 168.749997" height="225" preserveAspectRatio="xMidYMid meet" version="1.0"><defs><g/><clipPath id="87aeab5ecc"><path d="M 5.984375 6.058594 L 219.1875 6.058594 L 219.1875 162.441406 L 5.984375 162.441406 Z M 5.984375 6.058594 " clip-rule="nonzero"/></clipPath><clipPath id="d243ac3c0d"><path d="M 49.417969 22.410156 L 175.902344 22.410156 L 175.902344 120.53125 L 49.417969 120.53125 Z M 49.417969 22.410156 " clip-rule="nonzero"/></clipPath><clipPath id="a161fa8cd2"><path d="M 57.65625 22.410156 L 167.519531 22.410156 C 169.703125 22.410156 171.800781 23.277344 173.34375 24.820312 C 174.890625 26.367188 175.757812 28.460938 175.757812 30.648438 L 175.757812 112.292969 C 175.757812 114.476562 174.890625 116.574219 173.34375 118.117188 C 171.800781 119.664062 169.703125 120.53125 167.519531 120.53125 L 57.65625 120.53125 C 55.46875 120.53125 53.375 119.664062 51.832031 118.117188 C 50.285156 116.574219 49.417969 114.476562 49.417969 112.292969 L 49.417969 30.648438 C 49.417969 28.460938 50.285156 26.367188 51.832031 24.820312 C 53.375 23.277344 55.46875 22.410156 57.65625 22.410156 Z M 57.65625 22.410156 " clip-rule="nonzero"/></clipPath><clipPath id="fde16869b3"><path d="M 79.523438 29.699219 L 145.421875 29.699219 L 145.421875 96.351562 L 79.523438 96.351562 Z M 79.523438 29.699219 " clip-rule="nonzero"/></clipPath><clipPath id="9c4da75176"><path d="M 112.585938 29.699219 C 94.324219 29.699219 79.523438 44.605469 79.523438 62.996094 C 79.523438 81.382812 94.324219 96.292969 112.585938 96.292969 C 130.847656 96.292969 145.648438 81.382812 145.648438 62.996094 C 145.648438 44.605469 130.847656 29.699219 112.585938 29.699219 Z M 112.585938 29.699219 " clip-rule="nonzero"/></clipPath></defs><g clip-path="url(#87aeab5ecc)"><path fill="#ececec" d="M 5.984375 6.058594 L 219.179688 6.058594 L 219.179688 162.441406 L 5.984375 162.441406 Z M 5.984375 6.058594 " fill-opacity="1" fill-rule="nonzero"/></g><g clip-path="url(#d243ac3c0d)"><g clip-path="url(#a161fa8cd2)"><path fill="#ddd9d9" d="M 49.417969 22.410156 L 175.902344 22.410156 L 175.902344 120.53125 L 49.417969 120.53125 Z M 49.417969 22.410156 " fill-opacity="1" fill-rule="nonzero"/></g></g><g clip-path="url(#fde16869b3)"><g clip-path="url(#9c4da75176)"><path stroke-linecap="butt" transform="matrix(0.74889, 0, 0, 0.74889, 79.522232, 29.699077)" fill="none" stroke-linejoin="miter" d="M 44.150254 0.000189428 C 19.765222 0.000189428 0.00160944 19.904635 0.00160944 44.461797 C 0.00160944 69.013743 19.765222 88.923405 44.150254 88.923405 C 68.535287 88.923405 88.298899 69.013743 88.298899 44.461797 C 88.298899 19.904635 68.535287 0.000189428 44.150254 0.000189428 Z M 44.150254 0.000189428 " stroke="#56d84a" stroke-width="14" stroke-opacity="1" stroke-miterlimit="4"/></g></g><g fill="#423e3e" fill-opacity="1"><g transform="translate(86.146503, 69.534966)"><g><path d="M 7.359375 0 L 4.15625 0 L 0.203125 -10.6875 L 3.015625 -10.6875 L 5.671875 -3.078125 L 5.890625 -3.078125 L 8.5625 -10.6875 L 11.296875 -10.6875 Z M 7.359375 0 "/></g></g></g><g fill="#423e3e" fill-opacity="1"><g transform="translate(97.635291, 69.534966)"><g><path d="M 4.171875 0.203125 C 3.484375 0.203125 2.882812 0.078125 2.375 -0.171875 C 1.875 -0.421875 1.488281 -0.789062 1.21875 -1.28125 C 0.945312 -1.769531 0.8125 -2.359375 0.8125 -3.046875 C 0.8125 -3.671875 0.945312 -4.195312 1.21875 -4.625 C 1.488281 -5.0625 1.90625 -5.414062 2.46875 -5.6875 C 3.039062 -5.96875 3.785156 -6.179688 4.703125 -6.328125 C 5.347656 -6.429688 5.835938 -6.539062 6.171875 -6.65625 C 6.503906 -6.78125 6.726562 -6.921875 6.84375 -7.078125 C 6.957031 -7.234375 7.015625 -7.429688 7.015625 -7.671875 C 7.015625 -8.015625 6.894531 -8.273438 6.65625 -8.453125 C 6.414062 -8.640625 6.019531 -8.734375 5.46875 -8.734375 C 4.875 -8.734375 4.304688 -8.597656 3.765625 -8.328125 C 3.234375 -8.066406 2.769531 -7.71875 2.375 -7.28125 L 2.1875 -7.28125 L 1.0625 -8.984375 C 1.601562 -9.585938 2.265625 -10.054688 3.046875 -10.390625 C 3.828125 -10.722656 4.675781 -10.890625 5.59375 -10.890625 C 7.007812 -10.890625 8.035156 -10.585938 8.671875 -9.984375 C 9.304688 -9.390625 9.625 -8.539062 9.625 -7.4375 L 9.625 -2.796875 C 9.625 -2.316406 9.832031 -2.078125 10.25 -2.078125 C 10.414062 -2.078125 10.570312 -2.101562 10.71875 -2.15625 L 10.859375 -2.125 L 11.0625 -0.25 C 10.90625 -0.15625 10.691406 -0.078125 10.421875 -0.015625 C 10.160156 0.046875 9.875 0.078125 9.5625 0.078125 C 8.925781 0.078125 8.425781 -0.0390625 8.0625 -0.28125 C 7.707031 -0.53125 7.453125 -0.914062 7.296875 -1.4375 L 7.09375 -1.46875 C 6.570312 -0.351562 5.597656 0.203125 4.171875 0.203125 Z M 5.015625 -1.796875 C 5.640625 -1.796875 6.132812 -2.003906 6.5 -2.421875 C 6.875 -2.835938 7.0625 -3.421875 7.0625 -4.171875 L 7.0625 -5.25 L 6.875 -5.296875 C 6.71875 -5.160156 6.507812 -5.046875 6.25 -4.953125 C 5.988281 -4.867188 5.609375 -4.785156 5.109375 -4.703125 C 4.535156 -4.609375 4.117188 -4.441406 3.859375 -4.203125 C 3.609375 -3.972656 3.484375 -3.640625 3.484375 -3.203125 C 3.484375 -2.742188 3.617188 -2.394531 3.890625 -2.15625 C 4.160156 -1.914062 4.535156 -1.796875 5.015625 -1.796875 Z M 5.015625 -1.796875 "/></g></g></g><g fill="#423e3e" fill-opacity="1"><g transform="translate(108.901282, 69.534966)"><g><path d="M 4.4375 0.203125 C 3.476562 0.203125 2.742188 -0.0546875 2.234375 -0.578125 C 1.722656 -1.097656 1.46875 -1.890625 1.46875 -2.953125 L 1.46875 -14.984375 L 4.15625 -14.984375 L 4.15625 -3.046875 C 4.15625 -2.398438 4.425781 -2.078125 4.96875 -2.078125 C 5.125 -2.078125 5.289062 -2.101562 5.46875 -2.15625 L 5.59375 -2.109375 L 5.84375 -0.046875 C 5.695312 0.0234375 5.5 0.0820312 5.25 0.125 C 5.007812 0.175781 4.738281 0.203125 4.4375 0.203125 Z M 4.4375 0.203125 "/></g></g></g><g fill="#423e3e" fill-opacity="1"><g transform="translate(115.042843, 69.534966)"><g><path d="M 4.890625 0.203125 C 3.691406 0.203125 2.804688 -0.125 2.234375 -0.78125 C 1.660156 -1.4375 1.375 -2.378906 1.375 -3.609375 L 1.375 -10.6875 L 4.0625 -10.6875 L 4.0625 -3.9375 C 4.0625 -3.289062 4.203125 -2.816406 4.484375 -2.515625 C 4.765625 -2.210938 5.195312 -2.0625 5.78125 -2.0625 C 6.53125 -2.0625 7.109375 -2.304688 7.515625 -2.796875 C 7.929688 -3.285156 8.140625 -4.050781 8.140625 -5.09375 L 8.140625 -10.6875 L 10.828125 -10.6875 L 10.828125 0 L 8.25 0 L 8.25 -1.5625 L 8.046875 -1.625 C 7.703125 -1.007812 7.28125 -0.550781 6.78125 -0.25 C 6.289062 0.0507812 5.660156 0.203125 4.890625 0.203125 Z M 4.890625 0.203125 "/></g></g></g><g fill="#423e3e" fill-opacity="1"><g transform="translate(127.403462, 69.534966)"><g><path d="M 10.5625 -4.734375 L 3.6875 -4.734375 C 3.769531 -3.804688 4.035156 -3.128906 4.484375 -2.703125 C 4.941406 -2.285156 5.5625 -2.078125 6.34375 -2.078125 C 6.945312 -2.078125 7.441406 -2.191406 7.828125 -2.421875 C 8.210938 -2.648438 8.519531 -2.992188 8.75 -3.453125 L 8.953125 -3.453125 L 10.734375 -2.3125 C 10.390625 -1.5625 9.863281 -0.953125 9.15625 -0.484375 C 8.445312 -0.0234375 7.507812 0.203125 6.34375 0.203125 C 5.238281 0.203125 4.28125 -0.00390625 3.46875 -0.421875 C 2.664062 -0.847656 2.046875 -1.472656 1.609375 -2.296875 C 1.171875 -3.128906 0.953125 -4.144531 0.953125 -5.34375 C 0.953125 -6.550781 1.179688 -7.570312 1.640625 -8.40625 C 2.097656 -9.238281 2.71875 -9.859375 3.5 -10.265625 C 4.289062 -10.679688 5.171875 -10.890625 6.140625 -10.890625 C 7.648438 -10.890625 8.804688 -10.488281 9.609375 -9.6875 C 10.421875 -8.882812 10.828125 -7.707031 10.828125 -6.15625 C 10.828125 -5.59375 10.804688 -5.160156 10.765625 -4.859375 Z M 8.25 -6.46875 C 8.226562 -7.28125 8.039062 -7.875 7.6875 -8.25 C 7.332031 -8.625 6.816406 -8.8125 6.140625 -8.8125 C 4.785156 -8.8125 3.988281 -8.03125 3.75 -6.46875 Z M 8.25 -6.46875 "/></g></g></g><g fill="#423e3e" fill-opacity="1"><g transform="translate(85.640115, 109.178647)"><g><path d="M 1.546875 0 L 1.546875 -10.6875 L 4.125 -10.6875 L 4.125 -9.125 L 4.328125 -9.0625 C 4.984375 -10.28125 6.0625 -10.890625 7.5625 -10.890625 C 8.789062 -10.890625 9.691406 -10.550781 10.265625 -9.875 C 10.847656 -9.207031 11.140625 -8.234375 11.140625 -6.953125 L 11.140625 0 L 8.453125 0 L 8.453125 -6.625 C 8.453125 -7.332031 8.3125 -7.84375 8.03125 -8.15625 C 7.75 -8.46875 7.296875 -8.625 6.671875 -8.625 C 5.898438 -8.625 5.296875 -8.375 4.859375 -7.875 C 4.429688 -7.375 4.21875 -6.59375 4.21875 -5.53125 L 4.21875 0 Z M 1.546875 0 "/></g></g></g><g fill="#423e3e" fill-opacity="1"><g transform="translate(98.155725, 109.178647)"><g><path d="M 4.171875 0.203125 C 3.484375 0.203125 2.882812 0.078125 2.375 -0.171875 C 1.875 -0.421875 1.488281 -0.789062 1.21875 -1.28125 C 0.945312 -1.769531 0.8125 -2.359375 0.8125 -3.046875 C 0.8125 -3.671875 0.945312 -4.195312 1.21875 -4.625 C 1.488281 -5.0625 1.90625 -5.414062 2.46875 -5.6875 C 3.039062 -5.96875 3.785156 -6.179688 4.703125 -6.328125 C 5.347656 -6.429688 5.835938 -6.539062 6.171875 -6.65625 C 6.503906 -6.78125 6.726562 -6.921875 6.84375 -7.078125 C 6.957031 -7.234375 7.015625 -7.429688 7.015625 -7.671875 C 7.015625 -8.015625 6.894531 -8.273438 6.65625 -8.453125 C 6.414062 -8.640625 6.019531 -8.734375 5.46875 -8.734375 C 4.875 -8.734375 4.304688 -8.597656 3.765625 -8.328125 C 3.234375 -8.066406 2.769531 -7.71875 2.375 -7.28125 L 2.1875 -7.28125 L 1.0625 -8.984375 C 1.601562 -9.585938 2.265625 -10.054688 3.046875 -10.390625 C 3.828125 -10.722656 4.675781 -10.890625 5.59375 -10.890625 C 7.007812 -10.890625 8.035156 -10.585938 8.671875 -9.984375 C 9.304688 -9.390625 9.625 -8.539062 9.625 -7.4375 L 9.625 -2.796875 C 9.625 -2.316406 9.832031 -2.078125 10.25 -2.078125 C 10.414062 -2.078125 10.570312 -2.101562 10.71875 -2.15625 L 10.859375 -2.125 L 11.0625 -0.25 C 10.90625 -0.15625 10.691406 -0.078125 10.421875 -0.015625 C 10.160156 0.046875 9.875 0.078125 9.5625 0.078125 C 8.925781 0.078125 8.425781 -0.0390625 8.0625 -0.28125 C 7.707031 -0.53125 7.453125 -0.914062 7.296875 -1.4375 L 7.09375 -1.46875 C 6.570312 -0.351562 5.597656 0.203125 4.171875 0.203125 Z M 5.015625 -1.796875 C 5.640625 -1.796875 6.132812 -2.003906 6.5 -2.421875 C 6.875 -2.835938 7.0625 -3.421875 7.0625 -4.171875 L 7.0625 -5.25 L 6.875 -5.296875 C 6.71875 -5.160156 6.507812 -5.046875 6.25 -4.953125 C 5.988281 -4.867188 5.609375 -4.785156 5.109375 -4.703125 C 4.535156 -4.609375 4.117188 -4.441406 3.859375 -4.203125 C 3.609375 -3.972656 3.484375 -3.640625 3.484375 -3.203125 C 3.484375 -2.742188 3.617188 -2.394531 3.890625 -2.15625 C 4.160156 -1.914062 4.535156 -1.796875 5.015625 -1.796875 Z M 5.015625 -1.796875 "/></g></g></g><g fill="#423e3e" fill-opacity="1"><g transform="translate(109.421716, 109.178647)"><g><path d="M 1.546875 0 L 1.546875 -10.6875 L 4.125 -10.6875 L 4.125 -9.25 L 4.328125 -9.21875 C 4.671875 -9.789062 5.078125 -10.210938 5.546875 -10.484375 C 6.015625 -10.753906 6.613281 -10.890625 7.34375 -10.890625 C 8.15625 -10.890625 8.804688 -10.726562 9.296875 -10.40625 C 9.785156 -10.09375 10.144531 -9.628906 10.375 -9.015625 L 10.578125 -9.015625 C 10.898438 -9.648438 11.320312 -10.117188 11.84375 -10.421875 C 12.363281 -10.734375 13.007812 -10.890625 13.78125 -10.890625 C 16 -10.890625 17.109375 -9.65625 17.109375 -7.1875 L 17.109375 0 L 14.421875 0 L 14.421875 -6.84375 C 14.421875 -7.476562 14.296875 -7.929688 14.046875 -8.203125 C 13.804688 -8.484375 13.414062 -8.625 12.875 -8.625 C 11.40625 -8.625 10.671875 -7.640625 10.671875 -5.671875 L 10.671875 0 L 7.984375 0 L 7.984375 -6.84375 C 7.984375 -7.476562 7.859375 -7.929688 7.609375 -8.203125 C 7.359375 -8.484375 6.960938 -8.625 6.421875 -8.625 C 5.734375 -8.625 5.191406 -8.390625 4.796875 -7.921875 C 4.410156 -7.460938 4.21875 -6.726562 4.21875 -5.71875 L 4.21875 0 Z M 1.546875 0 "/></g></g></g><g fill="#423e3e" fill-opacity="1"><g transform="translate(127.904522, 109.178647)"><g><path d="M 10.5625 -4.734375 L 3.6875 -4.734375 C 3.769531 -3.804688 4.035156 -3.128906 4.484375 -2.703125 C 4.941406 -2.285156 5.5625 -2.078125 6.34375 -2.078125 C 6.945312 -2.078125 7.441406 -2.191406 7.828125 -2.421875 C 8.210938 -2.648438 8.519531 -2.992188 8.75 -3.453125 L 8.953125 -3.453125 L 10.734375 -2.3125 C 10.390625 -1.5625 9.863281 -0.953125 9.15625 -0.484375 C 8.445312 -0.0234375 7.507812 0.203125 6.34375 0.203125 C 5.238281 0.203125 4.28125 -0.00390625 3.46875 -0.421875 C 2.664062 -0.847656 2.046875 -1.472656 1.609375 -2.296875 C 1.171875 -3.128906 0.953125 -4.144531 0.953125 -5.34375 C 0.953125 -6.550781 1.179688 -7.570312 1.640625 -8.40625 C 2.097656 -9.238281 2.71875 -9.859375 3.5 -10.265625 C 4.289062 -10.679688 5.171875 -10.890625 6.140625 -10.890625 C 7.648438 -10.890625 8.804688 -10.488281 9.609375 -9.6875 C 10.421875 -8.882812 10.828125 -7.707031 10.828125 -6.15625 C 10.828125 -5.59375 10.804688 -5.160156 10.765625 -4.859375 Z M 8.25 -6.46875 C 8.226562 -7.28125 8.039062 -7.875 7.6875 -8.25 C 7.332031 -8.625 6.816406 -8.8125 6.140625 -8.8125 C 4.785156 -8.8125 3.988281 -8.03125 3.75 -6.46875 Z M 8.25 -6.46875 "/></g></g></g><g fill="#423e3e" fill-opacity="1"><g transform="translate(85.873641, 145.878556)"><g><path d="M 13.140625 0 L 9.734375 0 L 6.65625 -5.328125 L 4.796875 -5.328125 L 4.796875 0 L 1.71875 0 L 1.71875 -14.859375 L 7.59375 -14.859375 C 8.550781 -14.859375 9.425781 -14.679688 10.21875 -14.328125 C 11.019531 -13.984375 11.65625 -13.460938 12.125 -12.765625 C 12.601562 -12.066406 12.84375 -11.191406 12.84375 -10.140625 C 12.84375 -7.984375 11.820312 -6.535156 9.78125 -5.796875 Z M 7.359375 -8.171875 C 7.734375 -8.171875 8.101562 -8.234375 8.46875 -8.359375 C 8.84375 -8.492188 9.144531 -8.695312 9.375 -8.96875 C 9.613281 -9.25 9.734375 -9.625 9.734375 -10.09375 C 9.734375 -10.570312 9.613281 -10.941406 9.375 -11.203125 C 9.132812 -11.472656 8.832031 -11.664062 8.46875 -11.78125 C 8.101562 -11.894531 7.726562 -11.953125 7.34375 -11.953125 L 4.796875 -11.953125 L 4.796875 -8.171875 Z M 7.359375 -8.171875 "/></g></g></g><g fill="#423e3e" fill-opacity="1"><g transform="translate(99.739256, 145.878556)"><g><path d="M 4.796875 -14.859375 L 4.796875 0 L 1.71875 0 L 1.71875 -14.859375 Z M 4.796875 -14.859375 "/></g></g></g><g fill="#423e3e" fill-opacity="1"><g transform="translate(106.283226, 145.878556)"><g><path d="M 4.765625 -10.25 L 4.765625 0 L 1.71875 0 L 1.71875 -14.859375 L 5.234375 -14.859375 L 11.6875 -5.15625 L 11.6875 -14.859375 L 14.71875 -14.859375 L 14.71875 0 L 11.59375 0 Z M 4.765625 -10.25 "/></g></g></g><g fill="#423e3e" fill-opacity="1"><g transform="translate(122.747469, 145.878556)"><g><path d="M 3.953125 -7.4375 C 3.953125 -6.570312 4.144531 -5.78125 4.53125 -5.0625 C 4.914062 -4.34375 5.453125 -3.765625 6.140625 -3.328125 C 6.828125 -2.898438 7.617188 -2.6875 8.515625 -2.6875 C 9.523438 -2.6875 10.367188 -2.921875 11.046875 -3.390625 C 11.734375 -3.859375 12.164062 -4.460938 12.34375 -5.203125 L 7.828125 -5.203125 L 7.828125 -7.984375 L 15.546875 -7.984375 L 15.546875 -6.828125 C 15.546875 -5.679688 15.351562 -4.664062 14.96875 -3.78125 C 14.582031 -2.894531 14.054688 -2.15625 13.390625 -1.5625 C 12.734375 -0.976562 11.984375 -0.53125 11.140625 -0.21875 C 10.296875 0.0820312 9.421875 0.234375 8.515625 0.234375 C 7.367188 0.234375 6.320312 0.0351562 5.375 -0.359375 C 4.4375 -0.765625 3.625 -1.3125 2.9375 -2 C 2.257812 -2.695312 1.734375 -3.507812 1.359375 -4.4375 C 0.992188 -5.363281 0.8125 -6.359375 0.8125 -7.421875 C 0.8125 -8.503906 1.015625 -9.503906 1.421875 -10.421875 C 1.828125 -11.347656 2.382812 -12.160156 3.09375 -12.859375 C 3.8125 -13.566406 4.632812 -14.113281 5.5625 -14.5 C 6.5 -14.882812 7.5 -15.078125 8.5625 -15.078125 C 9.507812 -15.078125 10.359375 -14.945312 11.109375 -14.6875 C 11.859375 -14.425781 12.507812 -14.085938 13.0625 -13.671875 C 13.613281 -13.253906 14.066406 -12.800781 14.421875 -12.3125 C 14.785156 -11.832031 15.050781 -11.359375 15.21875 -10.890625 L 12.5 -9.5625 C 12.363281 -9.9375 12.132812 -10.328125 11.8125 -10.734375 C 11.488281 -11.140625 11.054688 -11.476562 10.515625 -11.75 C 9.984375 -12.03125 9.316406 -12.171875 8.515625 -12.171875 C 7.679688 -12.171875 6.921875 -11.960938 6.234375 -11.546875 C 5.546875 -11.128906 4.992188 -10.5625 4.578125 -9.84375 C 4.160156 -9.132812 3.953125 -8.332031 3.953125 -7.4375 Z M 3.953125 -7.4375 "/></g></g></g></svg>