<?xml version="1.0" encoding="UTF-8"?><svg id="Layer_1" xmlns="http://www.w3.org/2000/svg" viewBox="0 0 50 50"><defs><style>.cls-1{fill:#fff;stroke-width:0px;}</style></defs><path class="cls-1" d="M34.11,21.69c-1.24,0-2.25-1.01-2.25-2.25v-5.13c0-1.24,1.01-2.25,2.25-2.25s2.25,1.01,2.25,2.25v5.13c0,1.24-1.01,2.25-2.25,2.25ZM34.11,13.06c-.69,0-1.25.56-1.25,1.25v5.13c0,.69.56,1.25,1.25,1.25s1.25-.56,1.25-1.25v-5.13c0-.69-.56-1.25-1.25-1.25Z"/><path class="cls-1" d="M30.48,22.84c-.16,0-.32-.08-.41-.22-.56-.82-.86-1.78-.86-2.77,0-.28.22-.5.5-.5s.5.22.5.5c0,.79.24,1.56.68,2.21.16.23.1.54-.13.7-.09.06-.19.09-.28.09Z"/><path class="cls-1" d="M34.11,24.75c-1.61,0-3.12-.79-4.04-2.12-.16-.23-.1-.54.13-.7.23-.16.54-.1.7.13.73,1.06,1.93,1.69,3.21,1.69,2.15,0,3.9-1.75,3.9-3.9,0-.28.22-.5.5-.5s.5.22.5.5c0,2.7-2.2,4.9-4.9,4.9Z"/><path class="cls-1" d="M34.12,28.34c-.28,0-.5-.22-.5-.5v-3.59c0-.28.22-.5.5-.5s.5.22.5.5v3.59c0,.28-.22.5-.5.5Z"/><path class="cls-1" d="M36.59,28.34h-4.93c-.28,0-.5-.22-.5-.5s.22-.5.5-.5h4.93c.28,0,.5.22.5.5s-.22.5-.5.5Z"/><path class="cls-1" d="M21.19,36.74c-3.29,0-6.58-1.23-9.14-3.68-.09-.09-.15-.21-.15-.34,0-.09,0-.18,0-.27,0-1.57.61-3.05,1.73-4.17,1.11-1.11,2.59-1.73,4.17-1.73h6.81c3.25,0,5.89,2.64,5.89,5.89,0,.09,0,.18,0,.27,0,.13-.06.25-.15.34-2.56,2.46-5.85,3.69-9.14,3.69ZM12.89,32.48c4.69,4.35,11.9,4.35,16.59,0v-.03c0-2.7-2.19-4.89-4.89-4.89h-6.81c-1.31,0-2.54.51-3.46,1.43-.92.92-1.43,2.15-1.43,3.46v.03ZM29.98,32.7h0,0Z"/><path class="cls-1" d="M21.11,25.34c-3.2,0-5.81-2.6-5.81-5.81s2.6-5.81,5.81-5.81,5.81,2.6,5.81,5.81-2.6,5.81-5.81,5.81ZM21.11,14.73c-2.65,0-4.81,2.16-4.81,4.81s2.16,4.81,4.81,4.81,4.81-2.16,4.81-4.81-2.16-4.81-4.81-4.81Z"/></svg>