<svg xmlns="http://www.w3.org/2000/svg" xmlns:xlink="http://www.w3.org/1999/xlink" width="275" zoomAndPan="magnify" viewBox="0 0 206.25 187.499992" height="250" preserveAspectRatio="xMidYMid meet" version="1.0"><defs><g/><clipPath id="6768232ff9"><path d="M 6.664062 6.203125 L 198.839844 6.203125 L 198.839844 145.292969 L 6.664062 145.292969 Z M 6.664062 6.203125 " clip-rule="nonzero"/></clipPath><clipPath id="1427a8cb63"><path d="M 22.246094 151.675781 L 183.582031 151.675781 L 183.582031 179.699219 L 22.246094 179.699219 Z M 22.246094 151.675781 " clip-rule="nonzero"/></clipPath><clipPath id="084ebd88c0"><path d="M 55.816406 55.933594 L 149.675781 55.933594 L 149.675781 92.328125 L 55.816406 92.328125 Z M 55.816406 55.933594 " clip-rule="nonzero"/></clipPath><clipPath id="803b30fb0b"><path d="M 60 63.050781 L 78 63.050781 L 78 81 L 60 81 Z M 60 63.050781 " clip-rule="nonzero"/></clipPath><clipPath id="c8f1ed7dc4"><path d="M 73 76 L 82 76 L 82 85.472656 L 73 85.472656 Z M 73 76 " clip-rule="nonzero"/></clipPath></defs><g clip-path="url(#6768232ff9)"><path fill="#ececec" d="M 6.664062 6.203125 L 199 6.203125 L 199 145.292969 L 6.664062 145.292969 Z M 6.664062 6.203125 " fill-opacity="1" fill-rule="nonzero"/></g><g clip-path="url(#1427a8cb63)"><path fill="#ffffff" d="M 22.246094 151.675781 L 183.597656 151.675781 L 183.597656 179.699219 L 22.246094 179.699219 Z M 22.246094 151.675781 " fill-opacity="1" fill-rule="nonzero"/></g><g fill="#423e3e" fill-opacity="1"><g transform="translate(25.822116, 172.139648)"><g><path d="M 4.011719 -10.769531 C 4.011719 -11.640625 4.75 -12.285156 5.980469 -12.285156 C 7.25 -12.285156 8.289062 -11.660156 8.78125 -10.46875 L 11.320312 -11.847656 C 10.46875 -13.875 8.59375 -15.046875 6.113281 -15.046875 C 3.3125 -15.046875 0.945312 -13.230469 0.945312 -10.582031 C 0.945312 -9.445312 1.402344 -8.5 2.082031 -7.835938 C 2.878906 -7.042969 4.109375 -6.511719 5.699219 -6.039062 C 7.855469 -5.394531 8.5 -4.996094 8.5 -4.125 C 8.5 -3.21875 7.570312 -2.554688 6.246094 -2.554688 C 4.75 -2.554688 3.578125 -3.332031 3.007812 -4.617188 L 0.359375 -3.253906 C 1.230469 -1.136719 3.351562 0.226562 6.152344 0.226562 C 9.652344 0.226562 11.585938 -1.742188 11.585938 -4.355469 C 11.585938 -6.851562 9.691406 -8.007812 6.398438 -8.953125 C 4.808594 -9.40625 4.011719 -9.84375 4.011719 -10.769531 Z M 4.011719 -10.769531 "/></g></g></g><g fill="#423e3e" fill-opacity="1"><g transform="translate(38.162712, 172.139648)"><g><path d="M 1.722656 -14.820312 L 1.722656 0 L 11.472656 0 L 11.472656 -2.859375 L 4.75 -2.859375 L 4.75 -6.058594 L 10.734375 -6.058594 L 10.734375 -8.933594 L 4.75 -8.933594 L 4.75 -11.945312 L 11.433594 -11.945312 L 11.433594 -14.820312 Z M 1.722656 -14.820312 "/></g></g></g><g fill="#423e3e" fill-opacity="1"><g transform="translate(50.711508, 172.139648)"><g><path d="M 3.066406 0 L 4.164062 -2.992188 L 10.734375 -2.992188 L 11.847656 0 L 15.011719 0 L 9.332031 -14.820312 L 5.640625 -14.820312 L -0.0195312 0 Z M 7.457031 -11.847656 L 9.691406 -5.828125 L 5.222656 -5.828125 Z M 7.457031 -11.847656 "/></g></g></g><g fill="#423e3e" fill-opacity="1"><g transform="translate(65.701927, 172.139648)"><g><path d="M 13.117188 0 L 9.765625 -5.792969 C 11.773438 -6.511719 12.816406 -8.007812 12.816406 -10.125 C 12.816406 -13.269531 10.449219 -14.820312 7.570312 -14.820312 L 1.722656 -14.820312 L 1.722656 0 L 4.789062 0 L 4.789062 -5.320312 L 6.644531 -5.320312 L 9.710938 0 Z M 7.34375 -8.160156 L 4.789062 -8.160156 L 4.789062 -11.925781 L 7.324219 -11.925781 C 8.480469 -11.925781 9.710938 -11.488281 9.710938 -10.070312 C 9.710938 -8.667969 8.480469 -8.160156 7.34375 -8.160156 Z M 7.34375 -8.160156 "/></g></g></g><g fill="#423e3e" fill-opacity="1"><g transform="translate(79.537772, 172.139648)"><g><path d="M 0.8125 -7.402344 C 0.8125 -3.085938 4.125 0.207031 8.441406 0.207031 C 11.355469 0.207031 14.253906 -1.402344 15.277344 -4.203125 L 12.453125 -5.507812 C 11.8125 -3.898438 10.335938 -2.761719 8.480469 -2.761719 C 5.847656 -2.761719 3.992188 -4.863281 3.992188 -7.4375 C 3.992188 -9.976562 5.90625 -12.058594 8.480469 -12.058594 C 10.335938 -12.058594 11.792969 -11.015625 12.417969 -9.386719 L 15.21875 -10.675781 C 14.214844 -13.457031 11.414062 -15.046875 8.5 -15.046875 C 4.257812 -15.046875 0.8125 -11.679688 0.8125 -7.402344 Z M 0.8125 -7.402344 "/></g></g></g><g fill="#423e3e" fill-opacity="1"><g transform="translate(95.285279, 172.139648)"><g><path d="M 4.789062 -6 L 10.996094 -6 L 10.996094 0 L 14.0625 0 L 14.0625 -14.820312 L 10.996094 -14.820312 L 10.996094 -8.972656 L 4.789062 -8.972656 L 4.789062 -14.820312 L 1.722656 -14.820312 L 1.722656 0 L 4.789062 0 Z M 4.789062 -6 "/></g></g></g><g fill="#423e3e" fill-opacity="1"><g transform="translate(111.070643, 172.139648)"><g/></g></g><g fill="#423e3e" fill-opacity="1"><g transform="translate(115.821388, 172.139648)"><g><path d="M 4.789062 -14.820312 L 1.722656 -14.820312 L 1.722656 0 L 4.789062 0 Z M 4.789062 -14.820312 "/></g></g></g><g fill="#423e3e" fill-opacity="1"><g transform="translate(122.351308, 172.139648)"><g><path d="M 4.75 -10.222656 L 11.566406 0 L 14.6875 0 L 14.6875 -14.820312 L 11.660156 -14.820312 L 11.660156 -5.148438 L 5.222656 -14.820312 L 1.722656 -14.820312 L 1.722656 0 L 4.75 0 Z M 4.75 -10.222656 "/></g></g></g><g fill="#423e3e" fill-opacity="1"><g transform="translate(138.780202, 172.139648)"><g><path d="M 12.53125 -10.070312 C 12.53125 -13.210938 10.203125 -14.820312 7.230469 -14.820312 L 1.722656 -14.820312 L 1.722656 0 L 4.789062 0 L 4.789062 -5.222656 L 7.117188 -5.222656 C 10.222656 -5.222656 12.53125 -6.796875 12.53125 -10.070312 Z M 9.445312 -9.996094 C 9.445312 -8.613281 8.195312 -8.082031 6.984375 -8.082031 L 4.789062 -8.082031 L 4.789062 -11.925781 L 6.964844 -11.925781 C 8.234375 -11.925781 9.445312 -11.433594 9.445312 -9.996094 Z M 9.445312 -9.996094 "/></g></g></g><g fill="#423e3e" fill-opacity="1"><g transform="translate(151.877886, 172.139648)"><g><path d="M 13.476562 -5.980469 L 13.476562 -14.820312 L 10.449219 -14.820312 L 10.449219 -5.867188 C 10.449219 -3.992188 9.40625 -2.746094 7.515625 -2.746094 C 5.90625 -2.746094 4.636719 -3.746094 4.636719 -5.945312 L 4.65625 -14.820312 L 1.570312 -14.820312 L 1.570312 -5.867188 C 1.570312 -2.289062 3.386719 0.207031 7.496094 0.207031 C 11.507812 0.207031 13.476562 -2.195312 13.476562 -5.980469 Z M 13.476562 -5.980469 "/></g></g></g><g fill="#423e3e" fill-opacity="1"><g transform="translate(166.925078, 172.139648)"><g><path d="M 4.847656 0 L 7.894531 0 L 7.894531 -11.847656 L 12.339844 -11.847656 L 12.339844 -14.820312 L 0.398438 -14.820312 L 0.398438 -11.847656 L 4.847656 -11.847656 Z M 4.847656 0 "/></g></g></g><g clip-path="url(#084ebd88c0)"><path stroke-linecap="butt" transform="matrix(0, 0.747283, -0.747283, 0, 149.674803, 55.932423)" fill="none" stroke-linejoin="miter" d="M 0.00156733 -0.00130864 L 48.704066 -0.00130864 L 48.704066 125.599598 L 0.00156733 125.599598 Z M 0.00156733 -0.00130864 " stroke="#a6a6a6" stroke-width="4" stroke-opacity="1" stroke-miterlimit="4"/></g><g clip-path="url(#803b30fb0b)"><path fill="#423e3e" d="M 68.90625 80.664062 C 68.558594 80.664062 68.214844 80.644531 67.875 80.601562 C 67.53125 80.558594 67.195312 80.496094 66.859375 80.414062 C 66.523438 80.332031 66.195312 80.226562 65.875 80.101562 C 65.554688 79.980469 65.238281 79.835938 64.9375 79.671875 C 64.632812 79.511719 64.339844 79.328125 64.058594 79.132812 C 63.773438 78.933594 63.507812 78.71875 63.25 78.488281 C 62.996094 78.253906 62.753906 78.007812 62.527344 77.746094 C 62.304688 77.488281 62.09375 77.214844 61.902344 76.925781 C 61.710938 76.640625 61.539062 76.34375 61.382812 76.035156 C 61.230469 75.726562 61.09375 75.410156 60.976562 75.085938 C 60.859375 74.761719 60.765625 74.429688 60.691406 74.09375 C 60.613281 73.757812 60.558594 73.417969 60.527344 73.074219 C 60.492188 72.730469 60.480469 72.386719 60.488281 72.042969 C 60.496094 71.699219 60.527344 71.355469 60.574219 71.015625 C 60.625 70.671875 60.699219 70.335938 60.789062 70.003906 C 60.882812 69.671875 60.992188 69.347656 61.125 69.027344 C 61.257812 68.710938 61.410156 68.398438 61.578125 68.101562 C 61.75 67.800781 61.9375 67.511719 62.140625 67.234375 C 62.347656 66.957031 62.570312 66.695312 62.808594 66.445312 C 63.042969 66.195312 63.296875 65.960938 63.5625 65.742188 C 63.828125 65.523438 64.109375 65.324219 64.402344 65.136719 C 64.691406 64.953125 64.992188 64.789062 65.304688 64.640625 C 65.617188 64.492188 65.9375 64.367188 66.265625 64.257812 C 66.589844 64.148438 66.925781 64.0625 67.261719 63.996094 C 67.601562 63.929688 67.941406 63.882812 68.285156 63.855469 C 68.628906 63.832031 68.972656 63.828125 69.316406 63.84375 C 69.660156 63.863281 70.003906 63.898438 70.34375 63.957031 C 70.683594 64.019531 71.019531 64.097656 71.347656 64.199219 C 71.679688 64.296875 72 64.417969 72.316406 64.558594 C 72.628906 64.699219 72.9375 64.855469 73.230469 65.035156 C 73.527344 65.210938 73.8125 65.40625 74.082031 65.617188 C 74.355469 65.832031 74.613281 66.058594 74.855469 66.304688 C 75.445312 66.890625 75.933594 67.550781 76.328125 68.285156 C 76.71875 69.019531 77 69.796875 77.160156 70.613281 C 77.324219 71.425781 77.363281 72.25 77.28125 73.078125 C 77.199219 73.90625 77 74.703125 76.683594 75.472656 C 76.363281 76.242188 75.941406 76.949219 75.410156 77.59375 C 74.882812 78.234375 74.273438 78.789062 73.582031 79.25 C 72.890625 79.710938 72.144531 80.0625 71.347656 80.304688 C 70.550781 80.546875 69.738281 80.664062 68.90625 80.664062 Z M 68.90625 65.6875 C 68.402344 65.6875 67.902344 65.742188 67.414062 65.855469 C 66.921875 65.96875 66.449219 66.136719 65.996094 66.359375 C 65.546875 66.582031 65.125 66.851562 64.734375 67.171875 C 64.34375 67.488281 63.996094 67.847656 63.6875 68.25 C 63.378906 68.648438 63.121094 69.078125 62.914062 69.535156 C 62.703125 69.992188 62.550781 70.46875 62.453125 70.964844 C 62.351562 71.457031 62.3125 71.957031 62.328125 72.460938 C 62.34375 72.964844 62.414062 73.460938 62.546875 73.945312 C 62.675781 74.433594 62.859375 74.898438 63.097656 75.34375 C 63.332031 75.789062 63.617188 76.199219 63.949219 76.578125 C 64.28125 76.957031 64.652344 77.292969 65.0625 77.589844 C 65.46875 77.882812 65.90625 78.125 66.371094 78.320312 C 66.839844 78.511719 67.320312 78.648438 67.816406 78.730469 C 68.3125 78.8125 68.8125 78.839844 69.316406 78.804688 C 69.820312 78.773438 70.3125 78.683594 70.792969 78.539062 C 71.277344 78.390625 71.734375 78.191406 72.171875 77.941406 C 72.609375 77.6875 73.011719 77.390625 73.378906 77.046875 C 73.746094 76.703125 74.070312 76.320312 74.351562 75.902344 C 74.628906 75.484375 74.859375 75.039062 75.035156 74.566406 C 75.214844 74.09375 75.335938 73.609375 75.398438 73.109375 C 75.464844 72.609375 75.472656 72.109375 75.425781 71.605469 C 75.375 71.105469 75.269531 70.617188 75.105469 70.140625 C 74.945312 69.664062 74.730469 69.210938 74.464844 68.78125 C 74.195312 68.355469 73.886719 67.964844 73.527344 67.605469 C 72.914062 66.992188 72.207031 66.519531 71.40625 66.1875 C 70.605469 65.855469 69.773438 65.6875 68.90625 65.6875 Z M 68.90625 65.6875 " fill-opacity="1" fill-rule="nonzero"/></g><g clip-path="url(#c8f1ed7dc4)"><path fill="#423e3e" d="M 80.835938 85.109375 C 80.578125 85.109375 80.363281 85.015625 80.183594 84.835938 L 73.546875 78.207031 C 73.367188 78.023438 73.277344 77.804688 73.277344 77.550781 C 73.277344 77.296875 73.367188 77.078125 73.546875 76.898438 C 73.726562 76.714844 73.945312 76.625 74.203125 76.625 C 74.457031 76.625 74.675781 76.714844 74.855469 76.898438 L 81.488281 83.53125 C 81.617188 83.664062 81.703125 83.820312 81.738281 84.003906 C 81.773438 84.1875 81.757812 84.367188 81.683594 84.539062 C 81.613281 84.710938 81.5 84.847656 81.347656 84.953125 C 81.191406 85.054688 81.019531 85.109375 80.835938 85.109375 Z M 80.835938 85.109375 " fill-opacity="1" fill-rule="nonzero"/></g><g fill="#423e3e" fill-opacity="1"><g transform="translate(85.440968, 85.324164)"><g><path d="M 18.8125 0 L 15.78125 0 L 13.421875 -6.125 L 5 -6.125 L 2.8125 0 L -0.03125 0 L 7.703125 -20.140625 L 10.578125 -20.140625 Z M 7.984375 -14.171875 L 5.796875 -8.265625 L 12.59375 -8.265625 L 10.125 -14.90625 C 9.820312 -15.695312 9.472656 -16.738281 9.078125 -18.03125 C 9.078125 -17.9375 8.960938 -17.460938 8.734375 -16.609375 C 8.515625 -15.753906 8.265625 -14.941406 7.984375 -14.171875 Z M 7.984375 -14.171875 "/></g></g></g><g fill="#423e3e" fill-opacity="1"><g transform="translate(104.920574, 85.324164)"><g><path d="M 4.359375 -12.9375 C 5.390625 -14.25 6.722656 -14.90625 8.359375 -14.90625 C 9.554688 -14.90625 10.625 -14.597656 11.5625 -13.984375 C 12.5 -13.378906 13.226562 -12.523438 13.75 -11.421875 C 14.28125 -10.328125 14.546875 -9.0625 14.546875 -7.625 C 14.546875 -5.957031 14.265625 -4.519531 13.703125 -3.3125 C 13.140625 -2.113281 12.375 -1.207031 11.40625 -0.59375 C 10.4375 0.0078125 9.375 0.3125 8.21875 0.3125 C 7.28125 0.3125 6.46875 0.0976562 5.78125 -0.328125 C 5.09375 -0.765625 4.5625 -1.265625 4.1875 -1.828125 L 4.1875 0 L 1.890625 0 L 1.890625 -20.140625 L 4.359375 -20.140625 Z M 4.15625 -7.28125 C 4.15625 -6.507812 4.179688 -5.9375 4.234375 -5.5625 C 4.296875 -5.1875 4.394531 -4.796875 4.53125 -4.390625 C 4.882812 -3.390625 5.394531 -2.691406 6.0625 -2.296875 C 6.726562 -1.910156 7.378906 -1.71875 8.015625 -1.71875 C 9.234375 -1.71875 10.203125 -2.21875 10.921875 -3.21875 C 11.648438 -4.21875 12.015625 -5.675781 12.015625 -7.59375 C 12.015625 -9.144531 11.660156 -10.410156 10.953125 -11.390625 C 10.253906 -12.378906 9.300781 -12.875 8.09375 -12.875 C 7.382812 -12.875 6.726562 -12.660156 6.125 -12.234375 C 5.53125 -11.804688 5.050781 -11.171875 4.6875 -10.328125 C 4.332031 -9.484375 4.15625 -8.46875 4.15625 -7.28125 Z M 4.15625 -7.28125 "/></g></g></g><g fill="#423e3e" fill-opacity="1"><g transform="translate(121.280159, 85.324164)"><g><path d="M 7.984375 -14.90625 C 9.429688 -14.90625 10.648438 -14.503906 11.640625 -13.703125 C 12.640625 -12.910156 13.28125 -11.773438 13.5625 -10.296875 L 11.171875 -9.921875 C 10.960938 -10.804688 10.582031 -11.519531 10.03125 -12.0625 C 9.488281 -12.601562 8.757812 -12.875 7.84375 -12.875 C 6.53125 -12.875 5.5 -12.40625 4.75 -11.46875 C 4 -10.53125 3.625 -9.164062 3.625 -7.375 C 3.625 -5.53125 3.972656 -4.125 4.671875 -3.15625 C 5.378906 -2.195312 6.390625 -1.71875 7.703125 -1.71875 C 8.773438 -1.71875 9.609375 -2.039062 10.203125 -2.6875 C 10.804688 -3.332031 11.191406 -4.21875 11.359375 -5.34375 L 13.8125 -5.03125 C 13.550781 -3.34375 12.867188 -2.03125 11.765625 -1.09375 C 10.671875 -0.15625 9.316406 0.3125 7.703125 0.3125 C 5.617188 0.3125 3.992188 -0.363281 2.828125 -1.71875 C 1.671875 -3.082031 1.09375 -5.003906 1.09375 -7.484375 C 1.09375 -9.804688 1.707031 -11.625 2.9375 -12.9375 C 4.164062 -14.25 5.847656 -14.90625 7.984375 -14.90625 Z M 7.984375 -14.90625 "/></g></g></g><g fill="#292929" fill-opacity="1"><g transform="translate(138.974997, 85.855985)"><g><path d="M 5.953125 0 L 3.34375 0 L 3.34375 -22.15625 L 5.953125 -22.15625 Z M 5.953125 0 "/></g></g></g></svg>