<svg xmlns="http://www.w3.org/2000/svg" xmlns:xlink="http://www.w3.org/1999/xlink" width="300" zoomAndPan="magnify" viewBox="0 0 224.87999 168.749997" height="225" preserveAspectRatio="xMidYMid meet" version="1.0"><defs><g/><clipPath id="d780f67f36"><path d="M 5.984375 6.058594 L 219.1875 6.058594 L 219.1875 162.441406 L 5.984375 162.441406 Z M 5.984375 6.058594 " clip-rule="nonzero"/></clipPath><clipPath id="c8598d01aa"><path d="M 63.34375 55.214844 L 152.28125 55.214844 L 152.28125 89.703125 L 63.34375 89.703125 Z M 63.34375 55.214844 " clip-rule="nonzero"/></clipPath><clipPath id="f88fddb1e3"><path d="M 67.113281 62 L 84 62 L 84 79 L 67.113281 79 Z M 67.113281 62 " clip-rule="nonzero"/></clipPath></defs><g clip-path="url(#d780f67f36)"><path fill="#ececec" d="M 5.984375 6.058594 L 219.179688 6.058594 L 219.179688 162.441406 L 5.984375 162.441406 Z M 5.984375 6.058594 " fill-opacity="1" fill-rule="nonzero"/></g><g fill="#423e3e" fill-opacity="1"><g transform="translate(35.355629, 145.878573)"><g><path d="M 4.015625 -10.796875 C 4.015625 -10.328125 4.210938 -9.960938 4.609375 -9.703125 C 5.015625 -9.441406 5.613281 -9.195312 6.40625 -8.96875 C 7.507812 -8.65625 8.445312 -8.300781 9.21875 -7.90625 C 10 -7.519531 10.59375 -7.039062 11 -6.46875 C 11.40625 -5.894531 11.609375 -5.191406 11.609375 -4.359375 C 11.609375 -3.484375 11.398438 -2.703125 10.984375 -2.015625 C 10.566406 -1.328125 9.953125 -0.78125 9.140625 -0.375 C 8.328125 0.03125 7.335938 0.234375 6.171875 0.234375 C 4.765625 0.234375 3.554688 -0.0820312 2.546875 -0.71875 C 1.535156 -1.351562 0.804688 -2.203125 0.359375 -3.265625 L 3.015625 -4.625 C 3.304688 -3.976562 3.734375 -3.472656 4.296875 -3.109375 C 4.859375 -2.742188 5.515625 -2.5625 6.265625 -2.5625 C 6.929688 -2.5625 7.472656 -2.707031 7.890625 -3 C 8.304688 -3.300781 8.515625 -3.679688 8.515625 -4.140625 C 8.515625 -4.429688 8.429688 -4.679688 8.265625 -4.890625 C 8.109375 -5.097656 7.820312 -5.289062 7.40625 -5.46875 C 7 -5.644531 6.429688 -5.835938 5.703125 -6.046875 C 4.910156 -6.285156 4.207031 -6.546875 3.59375 -6.828125 C 2.988281 -7.117188 2.488281 -7.460938 2.09375 -7.859375 C 1.75 -8.179688 1.472656 -8.578125 1.265625 -9.046875 C 1.054688 -9.515625 0.953125 -10.035156 0.953125 -10.609375 C 0.953125 -11.492188 1.1875 -12.269531 1.65625 -12.9375 C 2.132812 -13.601562 2.765625 -14.125 3.546875 -14.5 C 4.328125 -14.882812 5.1875 -15.078125 6.125 -15.078125 C 7.363281 -15.078125 8.4375 -14.796875 9.34375 -14.234375 C 10.25 -13.671875 10.914062 -12.882812 11.34375 -11.875 L 8.796875 -10.484375 C 8.554688 -11.078125 8.1875 -11.53125 7.6875 -11.84375 C 7.1875 -12.15625 6.625 -12.3125 6 -12.3125 C 5.375 -12.3125 4.882812 -12.164062 4.53125 -11.875 C 4.1875 -11.59375 4.015625 -11.234375 4.015625 -10.796875 Z M 4.015625 -10.796875 "/></g></g></g><g fill="#423e3e" fill-opacity="1"><g transform="translate(47.722777, 145.878573)"><g><path d="M 1.71875 -14.859375 L 11.453125 -14.859375 L 11.453125 -11.96875 L 4.765625 -11.96875 L 4.765625 -8.953125 L 10.75 -8.953125 L 10.75 -6.0625 L 4.765625 -6.0625 L 4.765625 -2.859375 L 11.5 -2.859375 L 11.5 0 L 1.71875 0 Z M 1.71875 -14.859375 "/></g></g></g><g fill="#423e3e" fill-opacity="1"><g transform="translate(60.298575, 145.878573)"><g><path d="M 3.078125 0 L -0.015625 0 L 5.65625 -14.859375 L 9.359375 -14.859375 L 15.046875 0 L 11.875 0 L 10.75 -3 L 4.171875 -3 Z M 7.46875 -11.875 L 5.234375 -5.84375 L 9.71875 -5.84375 Z M 7.46875 -11.875 "/></g></g></g><g fill="#423e3e" fill-opacity="1"><g transform="translate(75.321248, 145.878573)"><g><path d="M 13.140625 0 L 9.734375 0 L 6.65625 -5.328125 L 4.796875 -5.328125 L 4.796875 0 L 1.71875 0 L 1.71875 -14.859375 L 7.59375 -14.859375 C 8.550781 -14.859375 9.425781 -14.679688 10.21875 -14.328125 C 11.019531 -13.984375 11.65625 -13.460938 12.125 -12.765625 C 12.601562 -12.066406 12.84375 -11.191406 12.84375 -10.140625 C 12.84375 -7.984375 11.820312 -6.535156 9.78125 -5.796875 Z M 7.359375 -8.171875 C 7.734375 -8.171875 8.101562 -8.234375 8.46875 -8.359375 C 8.84375 -8.492188 9.144531 -8.695312 9.375 -8.96875 C 9.613281 -9.25 9.734375 -9.625 9.734375 -10.09375 C 9.734375 -10.570312 9.613281 -10.941406 9.375 -11.203125 C 9.132812 -11.472656 8.832031 -11.664062 8.46875 -11.78125 C 8.101562 -11.894531 7.726562 -11.953125 7.34375 -11.953125 L 4.796875 -11.953125 L 4.796875 -8.171875 Z M 7.359375 -8.171875 "/></g></g></g><g fill="#423e3e" fill-opacity="1"><g transform="translate(89.186863, 145.878573)"><g><path d="M 0.8125 -7.421875 C 0.8125 -8.492188 1.007812 -9.492188 1.40625 -10.421875 C 1.8125 -11.347656 2.367188 -12.160156 3.078125 -12.859375 C 3.785156 -13.554688 4.601562 -14.097656 5.53125 -14.484375 C 6.457031 -14.878906 7.453125 -15.078125 8.515625 -15.078125 C 9.492188 -15.078125 10.429688 -14.90625 11.328125 -14.5625 C 12.234375 -14.226562 13.03125 -13.734375 13.71875 -13.078125 C 14.40625 -12.429688 14.914062 -11.640625 15.25 -10.703125 L 12.4375 -9.40625 C 12.125 -10.226562 11.625 -10.878906 10.9375 -11.359375 C 10.25 -11.835938 9.4375 -12.078125 8.5 -12.078125 C 7.632812 -12.078125 6.863281 -11.867188 6.1875 -11.453125 C 5.507812 -11.035156 4.972656 -10.472656 4.578125 -9.765625 C 4.191406 -9.066406 4 -8.296875 4 -7.453125 C 4 -6.597656 4.191406 -5.816406 4.578125 -5.109375 C 4.960938 -4.398438 5.492188 -3.832031 6.171875 -3.40625 C 6.847656 -2.976562 7.625 -2.765625 8.5 -2.765625 C 9.4375 -2.765625 10.253906 -3.019531 10.953125 -3.53125 C 11.648438 -4.050781 12.160156 -4.710938 12.484375 -5.515625 L 15.3125 -4.21875 C 14.96875 -3.28125 14.441406 -2.476562 13.734375 -1.8125 C 13.023438 -1.15625 12.210938 -0.65625 11.296875 -0.3125 C 10.378906 0.03125 9.429688 0.203125 8.453125 0.203125 C 7.378906 0.203125 6.378906 0.0078125 5.453125 -0.375 C 4.523438 -0.757812 3.710938 -1.296875 3.015625 -1.984375 C 2.316406 -2.671875 1.773438 -3.476562 1.390625 -4.40625 C 1.003906 -5.332031 0.8125 -6.335938 0.8125 -7.421875 Z M 0.8125 -7.421875 "/></g></g></g><g fill="#423e3e" fill-opacity="1"><g transform="translate(104.968254, 145.878573)"><g><path d="M 4.796875 -6.015625 L 4.796875 0 L 1.71875 0 L 1.71875 -14.859375 L 4.796875 -14.859375 L 4.796875 -8.984375 L 11.015625 -8.984375 L 11.015625 -14.859375 L 14.09375 -14.859375 L 14.09375 0 L 11.015625 0 L 11.015625 -6.015625 Z M 4.796875 -6.015625 "/></g></g></g><g fill="#423e3e" fill-opacity="1"><g transform="translate(120.787583, 145.878573)"><g/></g></g><g fill="#423e3e" fill-opacity="1"><g transform="translate(125.54855, 145.878573)"><g><path d="M 4.796875 -14.859375 L 4.796875 0 L 1.71875 0 L 1.71875 -14.859375 Z M 4.796875 -14.859375 "/></g></g></g><g fill="#423e3e" fill-opacity="1"><g transform="translate(132.09252, 145.878573)"><g><path d="M 4.765625 -10.25 L 4.765625 0 L 1.71875 0 L 1.71875 -14.859375 L 5.234375 -14.859375 L 11.6875 -5.15625 L 11.6875 -14.859375 L 14.71875 -14.859375 L 14.71875 0 L 11.59375 0 Z M 4.765625 -10.25 "/></g></g></g><g fill="#423e3e" fill-opacity="1"><g transform="translate(148.556763, 145.878573)"><g><path d="M 12.5625 -10.09375 C 12.5625 -9 12.320312 -8.09375 11.84375 -7.375 C 11.375 -6.65625 10.726562 -6.117188 9.90625 -5.765625 C 9.09375 -5.410156 8.164062 -5.234375 7.125 -5.234375 L 4.796875 -5.234375 L 4.796875 0 L 1.71875 0 L 1.71875 -14.859375 L 7.25 -14.859375 C 8.25 -14.859375 9.144531 -14.679688 9.9375 -14.328125 C 10.738281 -13.972656 11.375 -13.441406 11.84375 -12.734375 C 12.320312 -12.023438 12.5625 -11.144531 12.5625 -10.09375 Z M 9.46875 -10.015625 C 9.46875 -10.492188 9.347656 -10.875 9.109375 -11.15625 C 8.867188 -11.445312 8.5625 -11.648438 8.1875 -11.765625 C 7.8125 -11.890625 7.410156 -11.953125 6.984375 -11.953125 L 4.796875 -11.953125 L 4.796875 -8.09375 L 7 -8.09375 C 7.40625 -8.09375 7.796875 -8.15625 8.171875 -8.28125 C 8.554688 -8.414062 8.867188 -8.625 9.109375 -8.90625 C 9.347656 -9.1875 9.46875 -9.554688 9.46875 -10.015625 Z M 9.46875 -10.015625 "/></g></g></g><g fill="#423e3e" fill-opacity="1"><g transform="translate(161.68263, 145.878573)"><g><path d="M 13.5 -6 C 13.5 -4.726562 13.273438 -3.628906 12.828125 -2.703125 C 12.390625 -1.773438 11.726562 -1.054688 10.84375 -0.546875 C 9.957031 -0.046875 8.847656 0.203125 7.515625 0.203125 C 6.148438 0.203125 5.023438 -0.0507812 4.140625 -0.5625 C 3.265625 -1.082031 2.617188 -1.800781 2.203125 -2.71875 C 1.785156 -3.632812 1.578125 -4.6875 1.578125 -5.875 L 1.578125 -14.859375 L 4.671875 -14.859375 L 4.640625 -5.953125 C 4.640625 -4.859375 4.914062 -4.050781 5.46875 -3.53125 C 6.03125 -3.007812 6.71875 -2.75 7.53125 -2.75 C 8.476562 -2.75 9.203125 -3.035156 9.703125 -3.609375 C 10.210938 -4.191406 10.46875 -4.945312 10.46875 -5.875 L 10.46875 -14.859375 L 13.5 -14.859375 Z M 13.5 -6 "/></g></g></g><g fill="#423e3e" fill-opacity="1"><g transform="translate(176.762199, 145.878573)"><g><path d="M 4.859375 0 L 4.859375 -11.875 L 0.390625 -11.875 L 0.390625 -14.859375 L 12.375 -14.859375 L 12.375 -11.875 L 7.90625 -11.875 L 7.90625 0 Z M 4.859375 0 "/></g></g></g><g clip-path="url(#c8598d01aa)"><path stroke-linecap="butt" transform="matrix(0, 0.708104, -0.708104, 0, 152.279634, 55.214756)" fill="none" stroke-linejoin="miter" d="M 0.00012372 -0.00228193 L 48.705248 -0.00228193 L 48.705248 125.59725 L 0.00012372 125.59725 Z M 0.00012372 -0.00228193 " stroke="#a6a6a6" stroke-width="4.230399" stroke-opacity="1" stroke-miterlimit="4"/></g><g clip-path="url(#f88fddb1e3)"><path fill="#423e3e" d="M 75.742188 78.652344 C 75.417969 78.652344 75.09375 78.632812 74.765625 78.589844 C 74.441406 78.550781 74.121094 78.492188 73.804688 78.414062 C 73.488281 78.332031 73.179688 78.234375 72.871094 78.117188 C 72.566406 78 72.273438 77.863281 71.984375 77.710938 C 71.695312 77.554688 71.417969 77.386719 71.148438 77.199219 C 70.882812 77.007812 70.628906 76.804688 70.386719 76.585938 C 70.144531 76.367188 69.917969 76.132812 69.703125 75.886719 C 69.488281 75.640625 69.292969 75.378906 69.109375 75.109375 C 68.929688 74.835938 68.765625 74.554688 68.617188 74.261719 C 68.472656 73.972656 68.34375 73.671875 68.230469 73.363281 C 68.121094 73.054688 68.03125 72.742188 67.960938 72.425781 C 67.886719 72.105469 67.835938 71.785156 67.804688 71.457031 C 67.773438 71.132812 67.761719 70.808594 67.769531 70.480469 C 67.777344 70.152344 67.804688 69.828125 67.851562 69.507812 C 67.898438 69.183594 67.96875 68.863281 68.054688 68.550781 C 68.140625 68.234375 68.25 67.925781 68.375 67.625 C 68.5 67.320312 68.640625 67.027344 68.800781 66.746094 C 68.964844 66.460938 69.140625 66.1875 69.335938 65.925781 C 69.53125 65.664062 69.742188 65.414062 69.964844 65.175781 C 70.191406 64.941406 70.429688 64.71875 70.683594 64.511719 C 70.9375 64.304688 71.199219 64.113281 71.476562 63.9375 C 71.753906 63.761719 72.039062 63.605469 72.332031 63.464844 C 72.628906 63.328125 72.929688 63.207031 73.242188 63.101562 C 73.550781 63 73.867188 62.917969 74.1875 62.855469 C 74.507812 62.789062 74.832031 62.746094 75.15625 62.722656 C 75.484375 62.699219 75.808594 62.695312 76.136719 62.710938 C 76.460938 62.726562 76.785156 62.765625 77.109375 62.820312 C 77.429688 62.875 77.746094 62.953125 78.058594 63.046875 C 78.371094 63.140625 78.675781 63.253906 78.976562 63.386719 C 79.273438 63.519531 79.5625 63.671875 79.84375 63.839844 C 80.125 64.007812 80.394531 64.191406 80.652344 64.394531 C 80.90625 64.59375 81.152344 64.8125 81.382812 65.042969 C 81.941406 65.597656 82.40625 66.226562 82.777344 66.921875 C 83.148438 67.617188 83.414062 68.351562 83.566406 69.125 C 83.722656 69.898438 83.761719 70.675781 83.683594 71.460938 C 83.605469 72.246094 83.414062 73.003906 83.113281 73.730469 C 82.8125 74.460938 82.410156 75.128906 81.910156 75.738281 C 81.410156 76.347656 80.832031 76.871094 80.175781 77.308594 C 79.519531 77.746094 78.8125 78.082031 78.058594 78.308594 C 77.304688 78.539062 76.53125 78.652344 75.742188 78.652344 Z M 75.742188 64.460938 C 75.265625 64.457031 74.796875 64.511719 74.328125 64.617188 C 73.863281 64.726562 73.417969 64.886719 72.988281 65.09375 C 72.5625 65.304688 72.160156 65.5625 71.792969 65.863281 C 71.421875 66.167969 71.09375 66.507812 70.800781 66.882812 C 70.507812 67.261719 70.265625 67.667969 70.066406 68.105469 C 69.871094 68.539062 69.722656 68.988281 69.628906 69.457031 C 69.535156 69.925781 69.496094 70.398438 69.511719 70.875 C 69.527344 71.351562 69.59375 71.824219 69.71875 72.285156 C 69.839844 72.746094 70.015625 73.1875 70.238281 73.609375 C 70.464844 74.027344 70.734375 74.417969 71.046875 74.777344 C 71.363281 75.136719 71.714844 75.457031 72.101562 75.734375 C 72.488281 76.015625 72.902344 76.246094 73.34375 76.425781 C 73.785156 76.609375 74.242188 76.742188 74.714844 76.820312 C 75.183594 76.898438 75.65625 76.921875 76.132812 76.890625 C 76.609375 76.859375 77.078125 76.773438 77.535156 76.636719 C 77.992188 76.496094 78.425781 76.308594 78.839844 76.070312 C 79.253906 75.832031 79.632812 75.546875 79.984375 75.222656 C 80.332031 74.894531 80.636719 74.535156 80.902344 74.136719 C 81.167969 73.738281 81.386719 73.316406 81.554688 72.871094 C 81.722656 72.425781 81.835938 71.964844 81.898438 71.492188 C 81.960938 71.015625 81.96875 70.542969 81.921875 70.066406 C 81.875 69.59375 81.773438 69.128906 81.621094 68.675781 C 81.464844 68.226562 81.261719 67.796875 81.011719 67.390625 C 80.757812 66.984375 80.464844 66.613281 80.125 66.277344 C 79.542969 65.695312 78.875 65.246094 78.117188 64.933594 C 77.355469 64.617188 76.566406 64.460938 75.742188 64.460938 Z M 75.742188 64.460938 " fill-opacity="1" fill-rule="nonzero"/></g><path fill="#423e3e" d="M 87.046875 82.863281 C 86.808594 82.859375 86.601562 82.773438 86.429688 82.601562 L 80.144531 76.320312 C 79.972656 76.148438 79.886719 75.941406 79.886719 75.699219 C 79.886719 75.457031 79.972656 75.25 80.144531 75.078125 C 80.3125 74.910156 80.519531 74.824219 80.761719 74.824219 C 81.003906 74.824219 81.210938 74.910156 81.382812 75.078125 L 87.667969 81.367188 C 87.941406 81.644531 88.003906 81.960938 87.855469 82.320312 C 87.707031 82.679688 87.4375 82.859375 87.046875 82.863281 Z M 87.046875 82.863281 " fill-opacity="1" fill-rule="nonzero"/><g fill="#423e3e" fill-opacity="1"><g transform="translate(91.413487, 83.06554)"><g><path d="M 17.828125 0 L 14.953125 0 L 12.703125 -5.8125 L 4.734375 -5.8125 L 2.671875 0 L -0.03125 0 L 7.296875 -19.078125 L 10.015625 -19.078125 Z M 7.5625 -13.421875 L 5.484375 -7.828125 L 11.9375 -7.828125 L 9.59375 -14.125 C 9.3125 -14.863281 8.984375 -15.847656 8.609375 -17.078125 C 8.609375 -16.984375 8.5 -16.53125 8.28125 -15.71875 C 8.070312 -14.914062 7.832031 -14.148438 7.5625 -13.421875 Z M 7.5625 -13.421875 "/></g></g></g><g fill="#423e3e" fill-opacity="1"><g transform="translate(109.871809, 83.06554)"><g><path d="M 4.125 -12.25 C 5.101562 -13.5 6.363281 -14.125 7.90625 -14.125 C 9.050781 -14.125 10.066406 -13.832031 10.953125 -13.25 C 11.835938 -12.675781 12.523438 -11.867188 13.015625 -10.828125 C 13.515625 -9.785156 13.765625 -8.582031 13.765625 -7.21875 C 13.765625 -5.632812 13.5 -4.273438 12.96875 -3.140625 C 12.4375 -2.003906 11.710938 -1.144531 10.796875 -0.5625 C 9.890625 0.0078125 8.882812 0.296875 7.78125 0.296875 C 6.894531 0.296875 6.125 0.09375 5.46875 -0.3125 C 4.820312 -0.726562 4.320312 -1.203125 3.96875 -1.734375 L 3.96875 0 L 1.78125 0 L 1.78125 -19.078125 L 4.125 -19.078125 Z M 3.9375 -6.90625 C 3.9375 -6.175781 3.960938 -5.628906 4.015625 -5.265625 C 4.078125 -4.910156 4.171875 -4.539062 4.296875 -4.15625 C 4.628906 -3.21875 5.109375 -2.5625 5.734375 -2.1875 C 6.367188 -1.8125 6.988281 -1.625 7.59375 -1.625 C 8.75 -1.625 9.664062 -2.097656 10.34375 -3.046875 C 11.03125 -3.992188 11.375 -5.375 11.375 -7.1875 C 11.375 -8.664062 11.039062 -9.867188 10.375 -10.796875 C 9.707031 -11.734375 8.804688 -12.203125 7.671875 -12.203125 C 6.992188 -12.203125 6.367188 -11.992188 5.796875 -11.578125 C 5.234375 -11.171875 4.78125 -10.566406 4.4375 -9.765625 C 4.101562 -8.972656 3.9375 -8.019531 3.9375 -6.90625 Z M 3.9375 -6.90625 "/></g></g></g><g fill="#423e3e" fill-opacity="1"><g transform="translate(125.373688, 83.06554)"><g><path d="M 7.5625 -14.125 C 8.9375 -14.125 10.09375 -13.742188 11.03125 -12.984375 C 11.96875 -12.234375 12.570312 -11.15625 12.84375 -9.75 L 10.578125 -9.40625 C 10.378906 -10.238281 10.019531 -10.910156 9.5 -11.421875 C 8.988281 -11.941406 8.300781 -12.203125 7.4375 -12.203125 C 6.1875 -12.203125 5.207031 -11.753906 4.5 -10.859375 C 3.789062 -9.972656 3.4375 -8.679688 3.4375 -6.984375 C 3.4375 -5.242188 3.769531 -3.914062 4.4375 -3 C 5.101562 -2.082031 6.054688 -1.625 7.296875 -1.625 C 8.304688 -1.625 9.09375 -1.929688 9.65625 -2.546875 C 10.226562 -3.160156 10.597656 -4 10.765625 -5.0625 L 13.078125 -4.765625 C 12.828125 -3.171875 12.179688 -1.925781 11.140625 -1.03125 C 10.109375 -0.144531 8.828125 0.296875 7.296875 0.296875 C 5.328125 0.296875 3.789062 -0.34375 2.6875 -1.625 C 1.582031 -2.914062 1.03125 -4.738281 1.03125 -7.09375 C 1.03125 -9.289062 1.613281 -11.007812 2.78125 -12.25 C 3.945312 -13.5 5.539062 -14.125 7.5625 -14.125 Z M 7.5625 -14.125 "/></g></g></g><g fill="#292929" fill-opacity="1"><g transform="translate(142.140801, 83.569483)"><g><path d="M 5.640625 0 L 3.171875 0 L 3.171875 -21 L 5.640625 -21 Z M 5.640625 0 "/></g></g></g></svg>