<svg xmlns="http://www.w3.org/2000/svg" xmlns:xlink="http://www.w3.org/1999/xlink" width="61" zoomAndPan="magnify" viewBox="0 0 45.75 30.000001" height="40" preserveAspectRatio="xMidYMid meet" version="1.2"><defs><clipPath id="ea1f20b268"><path d="M 3.515625 6.457031 L 40.949219 6.457031 L 40.949219 20.972656 L 3.515625 20.972656 Z M 3.515625 6.457031 "/></clipPath><clipPath id="f73029097a"><path d="M 5 9.328125 L 12 9.328125 L 12 17 L 5 17 Z M 5 9.328125 "/></clipPath><clipPath id="e0fcdc9041"><path d="M 10 14 L 13.476562 14 L 13.476562 18.039062 L 10 18.039062 Z M 10 14 "/></clipPath></defs><g id="182fc834f0"><g clip-rule="nonzero" clip-path="url(#ea1f20b268)"><path style="fill:none;stroke-width:2;stroke-linecap:butt;stroke-linejoin:miter;stroke:#e4e2df;stroke-opacity:1;stroke-miterlimit:4;" d="M -0.00164353 0.00157917 L 20.185155 0.00157917 L 20.185155 52.060268 L -0.00164353 52.060268 Z M -0.00164353 0.00157917 " transform="matrix(0,0.719065,-0.719065,0,40.950354,6.458213)"/></g><g clip-rule="nonzero" clip-path="url(#f73029097a)"><path style=" stroke:none;fill-rule:nonzero;fill:#808080;fill-opacity:1;" d="M 8.363281 16.28125 C 8.089844 16.28125 7.820312 16.25 7.554688 16.183594 C 7.289062 16.117188 7.035156 16.019531 6.796875 15.890625 C 6.554688 15.761719 6.332031 15.605469 6.128906 15.421875 C 5.929688 15.238281 5.75 15.035156 5.597656 14.804688 C 5.445312 14.578125 5.324219 14.335938 5.234375 14.078125 C 5.140625 13.820312 5.082031 13.558594 5.054688 13.285156 C 5.027344 13.011719 5.035156 12.742188 5.074219 12.472656 C 5.113281 12.203125 5.1875 11.941406 5.292969 11.6875 C 5.394531 11.433594 5.53125 11.199219 5.691406 10.980469 C 5.855469 10.761719 6.042969 10.5625 6.253906 10.390625 C 6.464844 10.214844 6.695312 10.070312 6.941406 9.953125 C 7.1875 9.839844 7.445312 9.753906 7.714844 9.699219 C 7.984375 9.648438 8.253906 9.625 8.527344 9.640625 C 8.800781 9.652344 9.066406 9.699219 9.328125 9.78125 C 9.589844 9.859375 9.835938 9.96875 10.070312 10.109375 C 10.304688 10.25 10.519531 10.417969 10.714844 10.609375 C 11.1875 11.085938 11.492188 11.652344 11.625 12.3125 C 11.753906 12.972656 11.691406 13.613281 11.433594 14.234375 C 11.175781 14.855469 10.769531 15.351562 10.210938 15.722656 C 9.652344 16.097656 9.035156 16.28125 8.363281 16.28125 Z M 8.363281 10.367188 C 8.164062 10.367188 7.96875 10.390625 7.773438 10.433594 C 7.578125 10.480469 7.394531 10.546875 7.214844 10.632812 C 7.035156 10.722656 6.871094 10.828125 6.714844 10.953125 C 6.5625 11.078125 6.425781 11.222656 6.304688 11.378906 C 6.183594 11.535156 6.078125 11.707031 5.996094 11.886719 C 5.914062 12.070312 5.855469 12.257812 5.816406 12.453125 C 5.777344 12.648438 5.757812 12.84375 5.765625 13.042969 C 5.773438 13.242188 5.800781 13.4375 5.851562 13.628906 C 5.902344 13.820312 5.976562 14.003906 6.070312 14.179688 C 6.164062 14.355469 6.273438 14.519531 6.40625 14.667969 C 6.539062 14.820312 6.683594 14.953125 6.84375 15.066406 C 7.007812 15.183594 7.179688 15.28125 7.363281 15.355469 C 7.546875 15.433594 7.738281 15.488281 7.933594 15.519531 C 8.128906 15.550781 8.328125 15.5625 8.527344 15.546875 C 8.722656 15.535156 8.917969 15.5 9.109375 15.441406 C 9.300781 15.386719 9.480469 15.304688 9.652344 15.207031 C 9.824219 15.109375 9.984375 14.988281 10.128906 14.855469 C 10.273438 14.71875 10.402344 14.566406 10.511719 14.402344 C 10.625 14.234375 10.714844 14.058594 10.785156 13.875 C 10.855469 13.6875 10.902344 13.496094 10.929688 13.296875 C 10.953125 13.101562 10.957031 12.902344 10.9375 12.707031 C 10.917969 12.507812 10.875 12.316406 10.8125 12.125 C 10.746094 11.9375 10.664062 11.757812 10.558594 11.589844 C 10.453125 11.421875 10.328125 11.265625 10.1875 11.125 C 9.683594 10.621094 9.078125 10.371094 8.363281 10.367188 Z M 8.363281 10.367188 "/></g><g clip-rule="nonzero" clip-path="url(#e0fcdc9041)"><path style=" stroke:none;fill-rule:nonzero;fill:#808080;fill-opacity:1;" d="M 13.074219 18.039062 C 12.972656 18.035156 12.886719 18 12.816406 17.929688 L 10.195312 15.3125 C 10.125 15.238281 10.089844 15.152344 10.089844 15.054688 C 10.089844 14.953125 10.125 14.867188 10.195312 14.792969 C 10.269531 14.722656 10.355469 14.6875 10.453125 14.6875 C 10.554688 14.6875 10.640625 14.722656 10.714844 14.792969 L 13.332031 17.414062 C 13.445312 17.53125 13.472656 17.660156 13.410156 17.8125 C 13.347656 17.960938 13.234375 18.035156 13.074219 18.039062 Z M 13.074219 18.039062 "/></g><g style="fill:#808080;fill-opacity:1;"><g transform="translate(15.090518, 18.293801)"><path style="stroke:none" d="M 7.578125 0 L 6.359375 0 L 5.40625 -2.46875 L 2.015625 -2.46875 L 1.140625 0 L -0.015625 0 L 3.109375 -8.109375 L 4.265625 -8.109375 Z M 3.21875 -5.703125 L 2.328125 -3.328125 L 5.078125 -3.328125 L 4.078125 -6 C 3.953125 -6.320312 3.8125 -6.742188 3.65625 -7.265625 C 3.65625 -7.222656 3.609375 -7.03125 3.515625 -6.6875 C 3.429688 -6.34375 3.332031 -6.015625 3.21875 -5.703125 Z M 3.21875 -5.703125 "/></g></g><g style="fill:#808080;fill-opacity:1;"><g transform="translate(22.932606, 18.293801)"><path style="stroke:none" d="M 1.75 -5.21875 C 2.164062 -5.738281 2.703125 -6 3.359375 -6 C 3.847656 -6 4.28125 -5.875 4.65625 -5.625 C 5.03125 -5.382812 5.320312 -5.039062 5.53125 -4.59375 C 5.75 -4.15625 5.859375 -3.644531 5.859375 -3.0625 C 5.859375 -2.394531 5.742188 -1.816406 5.515625 -1.328125 C 5.285156 -0.847656 4.976562 -0.484375 4.59375 -0.234375 C 4.207031 0.00390625 3.78125 0.125 3.3125 0.125 C 2.925781 0.125 2.597656 0.0390625 2.328125 -0.125 C 2.054688 -0.300781 1.84375 -0.503906 1.6875 -0.734375 L 1.6875 0 L 0.765625 0 L 0.765625 -8.109375 L 1.75 -8.109375 Z M 1.671875 -2.9375 C 1.671875 -2.625 1.679688 -2.390625 1.703125 -2.234375 C 1.734375 -2.085938 1.773438 -1.929688 1.828125 -1.765625 C 1.972656 -1.367188 2.175781 -1.085938 2.4375 -0.921875 C 2.707031 -0.765625 2.972656 -0.6875 3.234375 -0.6875 C 3.722656 -0.6875 4.113281 -0.890625 4.40625 -1.296875 C 4.695312 -1.703125 4.84375 -2.289062 4.84375 -3.0625 C 4.84375 -3.6875 4.695312 -4.195312 4.40625 -4.59375 C 4.125 -4.988281 3.742188 -5.1875 3.265625 -5.1875 C 2.972656 -5.1875 2.707031 -5.097656 2.46875 -4.921875 C 2.226562 -4.753906 2.035156 -4.5 1.890625 -4.15625 C 1.742188 -3.8125 1.671875 -3.40625 1.671875 -2.9375 Z M 1.671875 -2.9375 "/></g></g><g style="fill:#808080;fill-opacity:1;"><g transform="translate(29.518636, 18.293801)"><path style="stroke:none" d="M 3.21875 -6 C 3.800781 -6 4.289062 -5.835938 4.6875 -5.515625 C 5.09375 -5.203125 5.347656 -4.742188 5.453125 -4.140625 L 4.5 -4 C 4.414062 -4.351562 4.265625 -4.640625 4.046875 -4.859375 C 3.828125 -5.078125 3.53125 -5.1875 3.15625 -5.1875 C 2.632812 -5.1875 2.222656 -5 1.921875 -4.625 C 1.617188 -4.25 1.46875 -3.695312 1.46875 -2.96875 C 1.46875 -2.226562 1.609375 -1.660156 1.890625 -1.265625 C 2.171875 -0.878906 2.578125 -0.6875 3.109375 -0.6875 C 3.535156 -0.6875 3.867188 -0.816406 4.109375 -1.078125 C 4.347656 -1.335938 4.503906 -1.695312 4.578125 -2.15625 L 5.5625 -2.03125 C 5.457031 -1.351562 5.179688 -0.820312 4.734375 -0.4375 C 4.296875 -0.0625 3.753906 0.125 3.109375 0.125 C 2.265625 0.125 1.609375 -0.144531 1.140625 -0.6875 C 0.671875 -1.238281 0.4375 -2.015625 0.4375 -3.015625 C 0.4375 -3.953125 0.679688 -4.679688 1.171875 -5.203125 C 1.671875 -5.734375 2.351562 -6 3.21875 -6 Z M 3.21875 -6 "/></g></g><g style="fill:#808080;fill-opacity:1;"><g transform="translate(36.642218, 18.507903)"><path style="stroke:none" d="M 2.40625 0 L 1.34375 0 L 1.34375 -8.921875 L 2.40625 -8.921875 Z M 2.40625 0 "/></g></g></g></svg>