<svg xmlns="http://www.w3.org/2000/svg" xmlns:xlink="http://www.w3.org/1999/xlink" width="275" zoomAndPan="magnify" viewBox="0 0 206.25 187.499992" height="250" preserveAspectRatio="xMidYMid meet" version="1.0"><defs><g/><clipPath id="b837b587df"><path d="M 6.664062 6.203125 L 198.839844 6.203125 L 198.839844 145.292969 L 6.664062 145.292969 Z M 6.664062 6.203125 " clip-rule="nonzero"/></clipPath><clipPath id="0a7e639e7e"><path d="M 3.429688 151.675781 L 202.074219 151.675781 L 202.074219 176.957031 L 3.429688 176.957031 Z M 3.429688 151.675781 " clip-rule="nonzero"/></clipPath><clipPath id="69e843cc84"><path d="M 23.777344 63.042969 L 68.390625 63.042969 L 68.390625 88.304688 L 23.777344 88.304688 Z M 23.777344 63.042969 " clip-rule="nonzero"/></clipPath><clipPath id="bd48d24b33"><path d="M 80.445312 63.042969 L 125.058594 63.042969 L 125.058594 88.304688 L 80.445312 88.304688 Z M 80.445312 63.042969 " clip-rule="nonzero"/></clipPath><clipPath id="4af451d88b"><path d="M 137.109375 63.042969 L 181.726562 63.042969 L 181.726562 88.304688 L 137.109375 88.304688 Z M 137.109375 63.042969 " clip-rule="nonzero"/></clipPath><clipPath id="a89e5da6ec"><path d="M 137.109375 25.878906 L 181.726562 25.878906 L 181.726562 51.140625 L 137.109375 51.140625 Z M 137.109375 25.878906 " clip-rule="nonzero"/></clipPath><clipPath id="f140af02ba"><path d="M 137.109375 100.355469 L 181.726562 100.355469 L 181.726562 125.617188 L 137.109375 125.617188 Z M 137.109375 100.355469 " clip-rule="nonzero"/></clipPath></defs><g clip-path="url(#b837b587df)"><path fill="#ececec" d="M 6.664062 6.203125 L 198.839844 6.203125 L 198.839844 145.292969 L 6.664062 145.292969 Z M 6.664062 6.203125 " fill-opacity="1" fill-rule="nonzero"/></g><g clip-path="url(#0a7e639e7e)"><path fill="#ffffff" d="M 3.429688 151.675781 L 202.074219 151.675781 L 202.074219 176.957031 L 3.429688 176.957031 Z M 3.429688 151.675781 " fill-opacity="1" fill-rule="nonzero"/></g><g fill="#423e3e" fill-opacity="1"><g transform="translate(6.287682, 169.349788)"><g><path d="M 3.589844 -9.636719 C 3.589844 -10.414062 4.25 -10.988281 5.351562 -10.988281 C 6.484375 -10.988281 7.417969 -10.429688 7.855469 -9.363281 L 10.125 -10.601562 C 9.363281 -12.414062 7.6875 -13.460938 5.46875 -13.460938 C 2.964844 -13.460938 0.847656 -11.835938 0.847656 -9.464844 C 0.847656 -8.449219 1.253906 -7.601562 1.863281 -7.011719 C 2.574219 -6.300781 3.675781 -5.824219 5.097656 -5.402344 C 7.027344 -4.824219 7.601562 -4.46875 7.601562 -3.691406 C 7.601562 -2.878906 6.773438 -2.285156 5.589844 -2.285156 C 4.25 -2.285156 3.199219 -2.980469 2.691406 -4.132812 L 0.320312 -2.914062 C 1.101562 -1.015625 2.996094 0.203125 5.503906 0.203125 C 8.636719 0.203125 10.363281 -1.558594 10.363281 -3.894531 C 10.363281 -6.128906 8.667969 -7.164062 5.722656 -8.007812 C 4.300781 -8.414062 3.589844 -8.804688 3.589844 -9.636719 Z M 3.589844 -9.636719 "/></g></g></g><g fill="#423e3e" fill-opacity="1"><g transform="translate(17.326429, 169.349788)"><g><path d="M 1.539062 -13.257812 L 1.539062 0 L 10.261719 0 L 10.261719 -2.558594 L 4.25 -2.558594 L 4.25 -5.417969 L 9.601562 -5.417969 L 9.601562 -7.992188 L 4.25 -7.992188 L 4.25 -10.683594 L 10.226562 -10.683594 L 10.226562 -13.257812 Z M 1.539062 -13.257812 "/></g></g></g><g fill="#423e3e" fill-opacity="1"><g transform="translate(28.551403, 169.349788)"><g><path d="M 11.734375 0 L 8.738281 -5.179688 C 10.53125 -5.824219 11.464844 -7.164062 11.464844 -9.058594 C 11.464844 -11.871094 9.347656 -13.257812 6.773438 -13.257812 L 1.539062 -13.257812 L 1.539062 0 L 4.285156 0 L 4.285156 -4.757812 L 5.945312 -4.757812 L 8.6875 0 Z M 6.570312 -7.296875 L 4.285156 -7.296875 L 4.285156 -10.667969 L 6.554688 -10.667969 C 7.585938 -10.667969 8.6875 -10.277344 8.6875 -9.007812 C 8.6875 -7.753906 7.585938 -7.296875 6.570312 -7.296875 Z M 6.570312 -7.296875 "/></g></g></g><g fill="#423e3e" fill-opacity="1"><g transform="translate(40.927666, 169.349788)"><g><path d="M 0.253906 -13.257812 L 5.046875 0 L 8.210938 0 L 13.023438 -13.257812 L 10.109375 -13.257812 L 6.65625 -3.183594 L 3.21875 -13.257812 Z M 0.253906 -13.257812 "/></g></g></g><g fill="#423e3e" fill-opacity="1"><g transform="translate(54.201248, 169.349788)"><g><path d="M 4.285156 -13.257812 L 1.539062 -13.257812 L 1.539062 0 L 4.285156 0 Z M 4.285156 -13.257812 "/></g></g></g><g fill="#423e3e" fill-opacity="1"><g transform="translate(60.042301, 169.349788)"><g><path d="M 0.726562 -6.621094 C 0.726562 -2.761719 3.691406 0.1875 7.550781 0.1875 C 10.160156 0.1875 12.75 -1.253906 13.664062 -3.757812 L 11.140625 -4.925781 C 10.566406 -3.488281 9.246094 -2.472656 7.585938 -2.472656 C 5.234375 -2.472656 3.574219 -4.351562 3.574219 -6.65625 C 3.574219 -8.925781 5.285156 -10.785156 7.585938 -10.785156 C 9.246094 -10.785156 10.550781 -9.855469 11.109375 -8.398438 L 13.613281 -9.550781 C 12.71875 -12.039062 10.210938 -13.460938 7.601562 -13.460938 C 3.808594 -13.460938 0.726562 -10.449219 0.726562 -6.621094 Z M 0.726562 -6.621094 "/></g></g></g><g fill="#423e3e" fill-opacity="1"><g transform="translate(74.128547, 169.349788)"><g><path d="M 1.539062 -13.257812 L 1.539062 0 L 10.261719 0 L 10.261719 -2.558594 L 4.25 -2.558594 L 4.25 -5.417969 L 9.601562 -5.417969 L 9.601562 -7.992188 L 4.25 -7.992188 L 4.25 -10.683594 L 10.226562 -10.683594 L 10.226562 -13.257812 Z M 1.539062 -13.257812 "/></g></g></g><g fill="#423e3e" fill-opacity="1"><g transform="translate(85.353522, 169.349788)"><g/></g></g><g fill="#423e3e" fill-opacity="1"><g transform="translate(89.603098, 169.349788)"><g><path d="M 13.089844 -6.65625 C 13.089844 -10.820312 10.226562 -13.257812 5.605469 -13.257812 L 1.539062 -13.257812 L 1.539062 0 L 5.554688 0 C 10.246094 0 13.089844 -2.710938 13.089844 -6.65625 Z M 10.277344 -6.65625 C 10.277344 -4.046875 8.382812 -2.589844 5.640625 -2.589844 L 4.285156 -2.589844 L 4.285156 -10.667969 L 5.671875 -10.667969 C 8.28125 -10.667969 10.277344 -9.261719 10.277344 -6.65625 Z M 10.277344 -6.65625 "/></g></g></g><g fill="#423e3e" fill-opacity="1"><g transform="translate(103.452319, 169.349788)"><g><path d="M 1.539062 -13.257812 L 1.539062 0 L 10.261719 0 L 10.261719 -2.558594 L 4.25 -2.558594 L 4.25 -5.417969 L 9.601562 -5.417969 L 9.601562 -7.992188 L 4.25 -7.992188 L 4.25 -10.683594 L 10.226562 -10.683594 L 10.226562 -13.257812 Z M 1.539062 -13.257812 "/></g></g></g><g fill="#423e3e" fill-opacity="1"><g transform="translate(114.677293, 169.349788)"><g><path d="M 4.285156 -7.839844 L 4.285156 -10.652344 L 10.277344 -10.652344 L 10.277344 -13.257812 L 1.539062 -13.257812 L 1.539062 0 L 4.285156 0 L 4.285156 -5.234375 L 9.652344 -5.234375 L 9.652344 -7.839844 Z M 4.285156 -7.839844 "/></g></g></g><g fill="#423e3e" fill-opacity="1"><g transform="translate(125.665241, 169.349788)"><g><path d="M 4.285156 -13.257812 L 1.539062 -13.257812 L 1.539062 0 L 4.285156 0 Z M 4.285156 -13.257812 "/></g></g></g><g fill="#423e3e" fill-opacity="1"><g transform="translate(131.506294, 169.349788)"><g><path d="M 4.25 -9.144531 L 10.347656 0 L 13.140625 0 L 13.140625 -13.257812 L 10.429688 -13.257812 L 10.429688 -4.605469 L 4.671875 -13.257812 L 1.539062 -13.257812 L 1.539062 0 L 4.25 0 Z M 4.25 -9.144531 "/></g></g></g><g fill="#423e3e" fill-opacity="1"><g transform="translate(146.202045, 169.349788)"><g><path d="M 4.285156 -13.257812 L 1.539062 -13.257812 L 1.539062 0 L 4.285156 0 Z M 4.285156 -13.257812 "/></g></g></g><g fill="#423e3e" fill-opacity="1"><g transform="translate(152.043098, 169.349788)"><g><path d="M 4.335938 0 L 7.0625 0 L 7.0625 -10.601562 L 11.039062 -10.601562 L 11.039062 -13.257812 L 0.355469 -13.257812 L 0.355469 -10.601562 L 4.335938 -10.601562 Z M 4.335938 0 "/></g></g></g><g fill="#423e3e" fill-opacity="1"><g transform="translate(163.437379, 169.349788)"><g><path d="M 4.285156 -13.257812 L 1.539062 -13.257812 L 1.539062 0 L 4.285156 0 Z M 4.285156 -13.257812 "/></g></g></g><g fill="#423e3e" fill-opacity="1"><g transform="translate(169.278431, 169.349788)"><g><path d="M 0.726562 -6.621094 C 0.726562 -2.792969 3.777344 0.203125 7.585938 0.203125 C 11.394531 0.203125 14.496094 -2.828125 14.496094 -6.6875 C 14.496094 -10.5 11.464844 -13.460938 7.652344 -13.460938 C 3.84375 -13.460938 0.726562 -10.429688 0.726562 -6.621094 Z M 3.539062 -6.636719 C 3.539062 -8.925781 5.335938 -10.804688 7.621094 -10.804688 C 9.90625 -10.804688 11.699219 -8.925781 11.699219 -6.636719 C 11.699219 -4.351562 9.90625 -2.457031 7.621094 -2.457031 C 5.335938 -2.457031 3.539062 -4.351562 3.539062 -6.636719 Z M 3.539062 -6.636719 "/></g></g></g><g fill="#423e3e" fill-opacity="1"><g transform="translate(184.499023, 169.349788)"><g><path d="M 4.25 -9.144531 L 10.347656 0 L 13.140625 0 L 13.140625 -13.257812 L 10.429688 -13.257812 L 10.429688 -4.605469 L 4.671875 -13.257812 L 1.539062 -13.257812 L 1.539062 0 L 4.25 0 Z M 4.25 -9.144531 "/></g></g></g><path stroke-linecap="butt" transform="matrix(0.747283, 0.000000000000000603, -0.000000000000000603, 0.747283, 68.376356, 75.000802)" fill="none" stroke-linejoin="miter" d="M -0.00181437 1.002563 L 17.619323 1.002563 " stroke="#625e5e" stroke-width="2" stroke-opacity="1" stroke-miterlimit="4"/><path stroke-linecap="butt" transform="matrix(0.747283, 0.000000000000000603, -0.000000000000000603, 0.747283, 124.458132, 75.000802)" fill="none" stroke-linejoin="miter" d="M -0.0014727 1.002563 L 17.619664 1.002563 " stroke="#625e5e" stroke-width="2" stroke-opacity="1" stroke-miterlimit="4"/><path stroke-linecap="butt" transform="matrix(0.243878, -0.706367, 0.706367, 0.243878, 123.75093, 76.250318)" fill="none" stroke-linejoin="miter" d="M -0.00251612 1.000492 L 53.987851 1.001775 " stroke="#625e5e" stroke-width="2" stroke-opacity="1" stroke-miterlimit="4"/><path stroke-linecap="butt" transform="matrix(0.243291, 0.70657, -0.70657, 0.243291, 125.164066, 75.749252)" fill="none" stroke-linejoin="miter" d="M -0.000652743 1.000434 L 53.985967 0.997267 " stroke="#625e5e" stroke-width="2" stroke-opacity="1" stroke-miterlimit="4"/><g clip-path="url(#69e843cc84)"><path fill="#423e3e" d="M 23.777344 63.042969 L 68.390625 63.042969 L 68.390625 88.304688 L 23.777344 88.304688 Z M 23.777344 63.042969 " fill-opacity="1" fill-rule="nonzero"/></g><g clip-path="url(#bd48d24b33)"><path fill="#f5d228" d="M 80.445312 63.042969 L 125.058594 63.042969 L 125.058594 88.304688 L 80.445312 88.304688 Z M 80.445312 63.042969 " fill-opacity="1" fill-rule="nonzero"/></g><g clip-path="url(#4af451d88b)"><path fill="#7b7b7b" d="M 137.109375 63.042969 L 181.726562 63.042969 L 181.726562 88.304688 L 137.109375 88.304688 Z M 137.109375 63.042969 " fill-opacity="1" fill-rule="nonzero"/></g><g clip-path="url(#a89e5da6ec)"><path fill="#f5d228" d="M 137.109375 25.878906 L 181.726562 25.878906 L 181.726562 51.140625 L 137.109375 51.140625 Z M 137.109375 25.878906 " fill-opacity="1" fill-rule="nonzero"/></g><g clip-path="url(#f140af02ba)"><path fill="#f5d228" d="M 137.109375 100.355469 L 181.726562 100.355469 L 181.726562 125.617188 L 137.109375 125.617188 Z M 137.109375 100.355469 " fill-opacity="1" fill-rule="nonzero"/></g></svg>