<svg xmlns="http://www.w3.org/2000/svg" xmlns:xlink="http://www.w3.org/1999/xlink" width="300" zoomAndPan="magnify" viewBox="0 0 224.87999 168.749997" height="225" preserveAspectRatio="xMidYMid meet" version="1.0"><defs><g/><clipPath id="b36dc21468"><path d="M 5.984375 6.058594 L 219.1875 6.058594 L 219.1875 162.441406 L 5.984375 162.441406 Z M 5.984375 6.058594 " clip-rule="nonzero"/></clipPath><clipPath id="fa0882b02b"><path d="M 49.316406 62.402344 L 84.976562 62.402344 L 84.976562 82.59375 L 49.316406 82.59375 Z M 49.316406 62.402344 " clip-rule="nonzero"/></clipPath><clipPath id="16bb144cbd"><path d="M 94.609375 62.402344 L 130.269531 62.402344 L 130.269531 82.59375 L 94.609375 82.59375 Z M 94.609375 62.402344 " clip-rule="nonzero"/></clipPath><clipPath id="93344f2a95"><path d="M 139.902344 62.402344 L 175.5625 62.402344 L 175.5625 82.59375 L 139.902344 82.59375 Z M 139.902344 62.402344 " clip-rule="nonzero"/></clipPath><clipPath id="9650dde50b"><path d="M 139.902344 32.699219 L 175.5625 32.699219 L 175.5625 52.886719 L 139.902344 52.886719 Z M 139.902344 32.699219 " clip-rule="nonzero"/></clipPath><clipPath id="869162a9bf"><path d="M 139.902344 92.226562 L 175.5625 92.226562 L 175.5625 112.414062 L 139.902344 112.414062 Z M 139.902344 92.226562 " clip-rule="nonzero"/></clipPath></defs><g clip-path="url(#b36dc21468)"><path fill="#ececec" d="M 5.984375 6.058594 L 219.179688 6.058594 L 219.179688 162.441406 L 5.984375 162.441406 Z M 5.984375 6.058594 " fill-opacity="1" fill-rule="nonzero"/></g><g fill="#423e3e" fill-opacity="1"><g transform="translate(10.042266, 144.480618)"><g><path d="M 3.8125 -10.21875 C 3.8125 -9.78125 4 -9.4375 4.375 -9.1875 C 4.75 -8.945312 5.316406 -8.71875 6.078125 -8.5 C 7.117188 -8.195312 8.003906 -7.859375 8.734375 -7.484375 C 9.472656 -7.117188 10.035156 -6.664062 10.421875 -6.125 C 10.804688 -5.582031 11 -4.914062 11 -4.125 C 11 -3.300781 10.800781 -2.5625 10.40625 -1.90625 C 10.007812 -1.257812 9.425781 -0.742188 8.65625 -0.359375 C 7.894531 0.0234375 6.957031 0.21875 5.84375 0.21875 C 4.507812 0.21875 3.363281 -0.078125 2.40625 -0.671875 C 1.445312 -1.273438 0.757812 -2.082031 0.34375 -3.09375 L 2.859375 -4.390625 C 3.128906 -3.773438 3.53125 -3.289062 4.0625 -2.9375 C 4.601562 -2.59375 5.222656 -2.421875 5.921875 -2.421875 C 6.554688 -2.421875 7.070312 -2.5625 7.46875 -2.84375 C 7.863281 -3.125 8.0625 -3.484375 8.0625 -3.921875 C 8.0625 -4.191406 7.984375 -4.425781 7.828125 -4.625 C 7.671875 -4.820312 7.398438 -5.003906 7.015625 -5.171875 C 6.628906 -5.335938 6.09375 -5.523438 5.40625 -5.734375 C 4.65625 -5.960938 3.988281 -6.207031 3.40625 -6.46875 C 2.832031 -6.738281 2.351562 -7.0625 1.96875 -7.4375 C 1.644531 -7.75 1.382812 -8.125 1.1875 -8.5625 C 0.988281 -9.007812 0.890625 -9.503906 0.890625 -10.046875 C 0.890625 -10.878906 1.113281 -11.613281 1.5625 -12.25 C 2.019531 -12.882812 2.617188 -13.378906 3.359375 -13.734375 C 4.097656 -14.097656 4.910156 -14.28125 5.796875 -14.28125 C 6.972656 -14.28125 7.988281 -14.015625 8.84375 -13.484375 C 9.707031 -12.953125 10.34375 -12.207031 10.75 -11.25 L 8.34375 -9.9375 C 8.113281 -10.5 7.757812 -10.925781 7.28125 -11.21875 C 6.8125 -11.507812 6.273438 -11.65625 5.671875 -11.65625 C 5.085938 -11.65625 4.628906 -11.519531 4.296875 -11.25 C 3.972656 -10.988281 3.8125 -10.644531 3.8125 -10.21875 Z M 3.8125 -10.21875 "/></g></g></g><g fill="#423e3e" fill-opacity="1"><g transform="translate(21.760866, 144.480618)"><g><path d="M 1.640625 -14.0625 L 10.859375 -14.0625 L 10.859375 -11.34375 L 4.515625 -11.34375 L 4.515625 -8.484375 L 10.1875 -8.484375 L 10.1875 -5.75 L 4.515625 -5.75 L 4.515625 -2.71875 L 10.890625 -2.71875 L 10.890625 0 L 1.640625 0 Z M 1.640625 -14.0625 "/></g></g></g><g fill="#423e3e" fill-opacity="1"><g transform="translate(33.67718, 144.480618)"><g><path d="M 12.453125 0 L 9.21875 0 L 6.3125 -5.046875 L 4.546875 -5.046875 L 4.546875 0 L 1.640625 0 L 1.640625 -14.0625 L 7.1875 -14.0625 C 8.09375 -14.0625 8.921875 -13.894531 9.671875 -13.5625 C 10.429688 -13.238281 11.035156 -12.75 11.484375 -12.09375 C 11.941406 -11.4375 12.171875 -10.609375 12.171875 -9.609375 C 12.171875 -7.566406 11.203125 -6.195312 9.265625 -5.5 Z M 6.96875 -7.75 C 7.332031 -7.75 7.6875 -7.804688 8.03125 -7.921875 C 8.375 -8.046875 8.65625 -8.238281 8.875 -8.5 C 9.101562 -8.757812 9.21875 -9.113281 9.21875 -9.5625 C 9.21875 -10.007812 9.101562 -10.359375 8.875 -10.609375 C 8.644531 -10.867188 8.359375 -11.050781 8.015625 -11.15625 C 7.679688 -11.257812 7.328125 -11.3125 6.953125 -11.3125 L 4.546875 -11.3125 L 4.546875 -7.75 Z M 6.96875 -7.75 "/></g></g></g><g fill="#423e3e" fill-opacity="1"><g transform="translate(46.815673, 144.480618)"><g><path d="M 0.265625 -14.0625 L 3.40625 -14.0625 L 7.0625 -3.375 L 10.734375 -14.0625 L 13.8125 -14.0625 L 8.71875 0 L 5.359375 0 Z M 0.265625 -14.0625 "/></g></g></g><g fill="#423e3e" fill-opacity="1"><g transform="translate(60.906757, 144.480618)"><g><path d="M 4.546875 -14.0625 L 4.546875 0 L 1.640625 0 L 1.640625 -14.0625 Z M 4.546875 -14.0625 "/></g></g></g><g fill="#423e3e" fill-opacity="1"><g transform="translate(67.107547, 144.480618)"><g><path d="M 0.765625 -7.03125 C 0.765625 -8.039062 0.953125 -8.984375 1.328125 -9.859375 C 1.710938 -10.742188 2.238281 -11.515625 2.90625 -12.171875 C 3.582031 -12.835938 4.359375 -13.351562 5.234375 -13.71875 C 6.117188 -14.09375 7.0625 -14.28125 8.0625 -14.28125 C 8.988281 -14.28125 9.878906 -14.117188 10.734375 -13.796875 C 11.585938 -13.472656 12.34375 -13.003906 13 -12.390625 C 13.65625 -11.773438 14.140625 -11.023438 14.453125 -10.140625 L 11.78125 -8.90625 C 11.488281 -9.6875 11.015625 -10.304688 10.359375 -10.765625 C 9.703125 -11.222656 8.929688 -11.453125 8.046875 -11.453125 C 7.234375 -11.453125 6.503906 -11.253906 5.859375 -10.859375 C 5.222656 -10.460938 4.71875 -9.929688 4.34375 -9.265625 C 3.976562 -8.597656 3.796875 -7.863281 3.796875 -7.0625 C 3.796875 -6.25 3.976562 -5.503906 4.34375 -4.828125 C 4.707031 -4.160156 5.207031 -3.625 5.84375 -3.21875 C 6.488281 -2.820312 7.222656 -2.625 8.046875 -2.625 C 8.929688 -2.625 9.707031 -2.863281 10.375 -3.34375 C 11.039062 -3.832031 11.523438 -4.460938 11.828125 -5.234375 L 14.5 -3.984375 C 14.175781 -3.097656 13.675781 -2.34375 13 -1.71875 C 12.332031 -1.101562 11.5625 -0.628906 10.6875 -0.296875 C 9.820312 0.0351562 8.929688 0.203125 8.015625 0.203125 C 6.992188 0.203125 6.039062 0.0195312 5.15625 -0.34375 C 4.28125 -0.707031 3.515625 -1.21875 2.859375 -1.875 C 2.203125 -2.53125 1.6875 -3.296875 1.3125 -4.171875 C 0.945312 -5.054688 0.765625 -6.007812 0.765625 -7.03125 Z M 0.765625 -7.03125 "/></g></g></g><g fill="#423e3e" fill-opacity="1"><g transform="translate(82.061348, 144.480618)"><g><path d="M 1.640625 -14.0625 L 10.859375 -14.0625 L 10.859375 -11.34375 L 4.515625 -11.34375 L 4.515625 -8.484375 L 10.1875 -8.484375 L 10.1875 -5.75 L 4.515625 -5.75 L 4.515625 -2.71875 L 10.890625 -2.71875 L 10.890625 0 L 1.640625 0 Z M 1.640625 -14.0625 "/></g></g></g><g fill="#423e3e" fill-opacity="1"><g transform="translate(93.977661, 144.480618)"><g/></g></g><g fill="#423e3e" fill-opacity="1"><g transform="translate(98.488967, 144.480618)"><g><path d="M 13.890625 -7.0625 C 13.890625 -5.675781 13.566406 -4.445312 12.921875 -3.375 C 12.285156 -2.3125 11.367188 -1.484375 10.171875 -0.890625 C 8.984375 -0.296875 7.554688 0 5.890625 0 L 1.640625 0 L 1.640625 -14.0625 L 5.953125 -14.0625 C 7.585938 -14.0625 9 -13.785156 10.1875 -13.234375 C 11.375 -12.691406 12.285156 -11.894531 12.921875 -10.84375 C 13.566406 -9.789062 13.890625 -8.53125 13.890625 -7.0625 Z M 10.90625 -7.0625 C 10.90625 -7.976562 10.6875 -8.753906 10.25 -9.390625 C 9.820312 -10.023438 9.238281 -10.503906 8.5 -10.828125 C 7.769531 -11.148438 6.941406 -11.3125 6.015625 -11.3125 L 4.546875 -11.3125 L 4.546875 -2.75 L 5.984375 -2.75 C 6.953125 -2.75 7.804688 -2.914062 8.546875 -3.25 C 9.296875 -3.582031 9.875 -4.066406 10.28125 -4.703125 C 10.695312 -5.347656 10.90625 -6.132812 10.90625 -7.0625 Z M 10.90625 -7.0625 "/></g></g></g><g fill="#423e3e" fill-opacity="1"><g transform="translate(113.191143, 144.480618)"><g><path d="M 1.640625 -14.0625 L 10.859375 -14.0625 L 10.859375 -11.34375 L 4.515625 -11.34375 L 4.515625 -8.484375 L 10.1875 -8.484375 L 10.1875 -5.75 L 4.515625 -5.75 L 4.515625 -2.71875 L 10.890625 -2.71875 L 10.890625 0 L 1.640625 0 Z M 1.640625 -14.0625 "/></g></g></g><g fill="#423e3e" fill-opacity="1"><g transform="translate(125.107456, 144.480618)"><g><path d="M 4.546875 -8.3125 L 10.234375 -8.3125 L 10.234375 -5.546875 L 4.546875 -5.546875 L 4.546875 0 L 1.640625 0 L 1.640625 -14.0625 L 10.90625 -14.0625 L 10.90625 -11.296875 L 4.546875 -11.296875 Z M 4.546875 -8.3125 "/></g></g></g><g fill="#423e3e" fill-opacity="1"><g transform="translate(136.772143, 144.480618)"><g><path d="M 4.546875 -14.0625 L 4.546875 0 L 1.640625 0 L 1.640625 -14.0625 Z M 4.546875 -14.0625 "/></g></g></g><g fill="#423e3e" fill-opacity="1"><g transform="translate(142.972932, 144.480618)"><g><path d="M 4.515625 -9.703125 L 4.515625 0 L 1.640625 0 L 1.640625 -14.0625 L 4.953125 -14.0625 L 11.0625 -4.890625 L 11.0625 -14.0625 L 13.9375 -14.0625 L 13.9375 0 L 10.984375 0 Z M 4.515625 -9.703125 "/></g></g></g><g fill="#423e3e" fill-opacity="1"><g transform="translate(158.573774, 144.480618)"><g><path d="M 4.546875 -14.0625 L 4.546875 0 L 1.640625 0 L 1.640625 -14.0625 Z M 4.546875 -14.0625 "/></g></g></g><g fill="#423e3e" fill-opacity="1"><g transform="translate(164.774564, 144.480618)"><g><path d="M 4.59375 0 L 4.59375 -11.25 L 0.375 -11.25 L 0.375 -14.0625 L 11.71875 -14.0625 L 11.71875 -11.25 L 7.5 -11.25 L 7.5 0 Z M 4.59375 0 "/></g></g></g><g fill="#423e3e" fill-opacity="1"><g transform="translate(176.870603, 144.480618)"><g><path d="M 4.546875 -14.0625 L 4.546875 0 L 1.640625 0 L 1.640625 -14.0625 Z M 4.546875 -14.0625 "/></g></g></g><g fill="#423e3e" fill-opacity="1"><g transform="translate(183.071392, 144.480618)"><g><path d="M 0.765625 -7.03125 C 0.765625 -8.03125 0.957031 -8.96875 1.34375 -9.84375 C 1.726562 -10.726562 2.253906 -11.503906 2.921875 -12.171875 C 3.597656 -12.835938 4.378906 -13.351562 5.265625 -13.71875 C 6.160156 -14.09375 7.113281 -14.28125 8.125 -14.28125 C 9.125 -14.28125 10.0625 -14.097656 10.9375 -13.734375 C 11.820312 -13.367188 12.597656 -12.859375 13.265625 -12.203125 C 13.929688 -11.554688 14.445312 -10.796875 14.8125 -9.921875 C 15.1875 -9.046875 15.375 -8.101562 15.375 -7.09375 C 15.375 -6.070312 15.1875 -5.117188 14.8125 -4.234375 C 14.4375 -3.347656 13.910156 -2.566406 13.234375 -1.890625 C 12.554688 -1.222656 11.773438 -0.703125 10.890625 -0.328125 C 10.003906 0.0351562 9.054688 0.21875 8.046875 0.21875 C 7.046875 0.21875 6.101562 0.0351562 5.21875 -0.328125 C 4.34375 -0.703125 3.570312 -1.21875 2.90625 -1.875 C 2.238281 -2.539062 1.710938 -3.3125 1.328125 -4.1875 C 0.953125 -5.0625 0.765625 -6.007812 0.765625 -7.03125 Z M 3.75 -7.046875 C 3.75 -6.242188 3.941406 -5.503906 4.328125 -4.828125 C 4.710938 -4.148438 5.234375 -3.609375 5.890625 -3.203125 C 6.546875 -2.804688 7.273438 -2.609375 8.078125 -2.609375 C 8.898438 -2.609375 9.632812 -2.804688 10.28125 -3.203125 C 10.9375 -3.609375 11.457031 -4.148438 11.84375 -4.828125 C 12.226562 -5.503906 12.421875 -6.242188 12.421875 -7.046875 C 12.421875 -7.859375 12.226562 -8.597656 11.84375 -9.265625 C 11.457031 -9.929688 10.9375 -10.460938 10.28125 -10.859375 C 9.632812 -11.265625 8.898438 -11.46875 8.078125 -11.46875 C 7.273438 -11.46875 6.546875 -11.265625 5.890625 -10.859375 C 5.234375 -10.460938 4.710938 -9.929688 4.328125 -9.265625 C 3.941406 -8.597656 3.75 -7.859375 3.75 -7.046875 Z M 3.75 -7.046875 "/></g></g></g><g fill="#423e3e" fill-opacity="1"><g transform="translate(199.229411, 144.480618)"><g><path d="M 4.515625 -9.703125 L 4.515625 0 L 1.640625 0 L 1.640625 -14.0625 L 4.953125 -14.0625 L 11.0625 -4.890625 L 11.0625 -14.0625 L 13.9375 -14.0625 L 13.9375 0 L 10.984375 0 Z M 4.515625 -9.703125 "/></g></g></g><path stroke-linecap="butt" transform="matrix(0.5666, 0.000000000000000867, -0.000000000000000867, 0.5666, 84.965384, 71.990119)" fill="none" stroke-linejoin="miter" d="M -0.000953391 1.00331 L 18.572017 1.00331 " stroke="#625e5e" stroke-width="2" stroke-opacity="1" stroke-miterlimit="4"/><path stroke-linecap="butt" transform="matrix(0.5666, 0.000000000000000867, -0.000000000000000867, 0.5666, 129.789384, 71.990119)" fill="none" stroke-linejoin="miter" d="M -0.00056749 1.00331 L 18.572403 1.00331 " stroke="#625e5e" stroke-width="2" stroke-opacity="1" stroke-miterlimit="4"/><path stroke-linecap="butt" transform="matrix(0.184912, -0.535577, 0.535577, 0.184912, 129.253006, 72.967954)" fill="none" stroke-linejoin="miter" d="M 0.00114672 1.000499 L 56.912514 1.000254 " stroke="#625e5e" stroke-width="2" stroke-opacity="1" stroke-miterlimit="4"/><path stroke-linecap="butt" transform="matrix(0.184467, 0.53573, -0.53573, 0.184467, 130.324475, 72.567831)" fill="none" stroke-linejoin="miter" d="M 0.00286701 1.000394 L 56.911533 1.003503 " stroke="#625e5e" stroke-width="2" stroke-opacity="1" stroke-miterlimit="4"/><g clip-path="url(#fa0882b02b)"><path fill="#423e3e" d="M 49.316406 62.402344 L 84.96875 62.402344 L 84.96875 82.59375 L 49.316406 82.59375 Z M 49.316406 62.402344 " fill-opacity="1" fill-rule="nonzero"/></g><g clip-path="url(#16bb144cbd)"><path fill="#f5d228" d="M 94.609375 62.402344 L 130.257812 62.402344 L 130.257812 82.59375 L 94.609375 82.59375 Z M 94.609375 62.402344 " fill-opacity="1" fill-rule="nonzero"/></g><g clip-path="url(#93344f2a95)"><path fill="#7b7b7b" d="M 139.902344 62.402344 L 175.550781 62.402344 L 175.550781 82.59375 L 139.902344 82.59375 Z M 139.902344 62.402344 " fill-opacity="1" fill-rule="nonzero"/></g><g clip-path="url(#9650dde50b)"><path fill="#f5d228" d="M 139.902344 32.699219 L 175.550781 32.699219 L 175.550781 52.886719 L 139.902344 52.886719 Z M 139.902344 32.699219 " fill-opacity="1" fill-rule="nonzero"/></g><g clip-path="url(#869162a9bf)"><path fill="#f5d228" d="M 139.902344 92.226562 L 175.550781 92.226562 L 175.550781 112.414062 L 139.902344 112.414062 Z M 139.902344 92.226562 " fill-opacity="1" fill-rule="nonzero"/></g></svg>