<svg xmlns="http://www.w3.org/2000/svg" xmlns:xlink="http://www.w3.org/1999/xlink" width="275" zoomAndPan="magnify" viewBox="0 0 206.25 187.499992" height="250" preserveAspectRatio="xMidYMid meet" version="1.0"><defs><g/><clipPath id="b9d37d0e42"><path d="M 6.664062 6.203125 L 198.839844 6.203125 L 198.839844 136.34375 L 6.664062 136.34375 Z M 6.664062 6.203125 " clip-rule="nonzero"/></clipPath><clipPath id="b3ae159933"><path d="M 6.664062 152.5625 L 198.839844 152.5625 L 198.839844 173.632812 L 6.664062 173.632812 Z M 6.664062 152.5625 " clip-rule="nonzero"/></clipPath><clipPath id="3bd7ac1f15"><path d="M 23.777344 58.566406 L 68.390625 58.566406 L 68.390625 83.828125 L 23.777344 83.828125 Z M 23.777344 58.566406 " clip-rule="nonzero"/></clipPath><clipPath id="129bc83465"><path d="M 80.445312 58.566406 L 125.058594 58.566406 L 125.058594 83.828125 L 80.445312 83.828125 Z M 80.445312 58.566406 " clip-rule="nonzero"/></clipPath><clipPath id="4efeee64ea"><path d="M 137.109375 58.566406 L 181.726562 58.566406 L 181.726562 83.828125 L 137.109375 83.828125 Z M 137.109375 58.566406 " clip-rule="nonzero"/></clipPath><clipPath id="1382ddb0da"><path d="M 137.109375 21.402344 L 181.726562 21.402344 L 181.726562 46.664062 L 137.109375 46.664062 Z M 137.109375 21.402344 " clip-rule="nonzero"/></clipPath><clipPath id="3dd4c93533"><path d="M 137.109375 95.878906 L 181.726562 95.878906 L 181.726562 121.140625 L 137.109375 121.140625 Z M 137.109375 95.878906 " clip-rule="nonzero"/></clipPath></defs><g clip-path="url(#b9d37d0e42)"><path fill="#ececec" d="M 6.664062 6.203125 L 198.824219 6.203125 L 198.824219 136.34375 L 6.664062 136.34375 Z M 6.664062 6.203125 " fill-opacity="1" fill-rule="nonzero"/></g><g clip-path="url(#b3ae159933)"><path fill="#ffffff" d="M 6.664062 152.5625 L 198.875 152.5625 L 198.875 173.632812 L 6.664062 173.632812 Z M 6.664062 152.5625 " fill-opacity="1" fill-rule="nonzero"/></g><g fill="#423e3e" fill-opacity="1"><g transform="translate(11.950683, 169.449417)"><g><path d="M 3.375 -9.0625 C 3.375 -9.796875 4 -10.34375 5.03125 -10.34375 C 6.109375 -10.34375 6.984375 -9.8125 7.390625 -8.8125 L 9.53125 -9.984375 C 8.8125 -11.6875 7.234375 -12.671875 5.140625 -12.671875 C 2.796875 -12.671875 0.796875 -11.140625 0.796875 -8.90625 C 0.796875 -7.953125 1.171875 -7.15625 1.75 -6.59375 C 2.421875 -5.921875 3.453125 -5.484375 4.796875 -5.078125 C 6.609375 -4.546875 7.15625 -4.203125 7.15625 -3.46875 C 7.15625 -2.703125 6.375 -2.15625 5.265625 -2.15625 C 4 -2.15625 3.015625 -2.8125 2.53125 -3.890625 L 0.296875 -2.734375 C 1.03125 -0.953125 2.828125 0.1875 5.1875 0.1875 C 8.125 0.1875 9.75 -1.46875 9.75 -3.671875 C 9.75 -5.765625 8.15625 -6.734375 5.390625 -7.53125 C 4.046875 -7.921875 3.375 -8.28125 3.375 -9.0625 Z M 3.375 -9.0625 "/></g></g></g><g fill="#423e3e" fill-opacity="1"><g transform="translate(22.342388, 169.449417)"><g><path d="M 1.453125 -12.484375 L 1.453125 0 L 9.65625 0 L 9.65625 -2.40625 L 4 -2.40625 L 4 -5.09375 L 9.03125 -5.09375 L 9.03125 -7.515625 L 4 -7.515625 L 4 -10.0625 L 9.625 -10.0625 L 9.625 -12.484375 Z M 1.453125 -12.484375 "/></g></g></g><g fill="#423e3e" fill-opacity="1"><g transform="translate(32.909419, 169.449417)"><g><path d="M 11.046875 0 L 8.21875 -4.875 C 9.90625 -5.484375 10.796875 -6.734375 10.796875 -8.53125 C 10.796875 -11.171875 8.796875 -12.484375 6.375 -12.484375 L 1.453125 -12.484375 L 1.453125 0 L 4.03125 0 L 4.03125 -4.484375 L 5.59375 -4.484375 L 8.171875 0 Z M 6.1875 -6.875 L 4.03125 -6.875 L 4.03125 -10.046875 L 6.171875 -10.046875 C 7.140625 -10.046875 8.171875 -9.671875 8.171875 -8.484375 C 8.171875 -7.296875 7.140625 -6.875 6.1875 -6.875 Z M 6.1875 -6.875 "/></g></g></g><g fill="#423e3e" fill-opacity="1"><g transform="translate(44.560247, 169.449417)"><g><path d="M 0.234375 -12.484375 L 4.75 0 L 7.734375 0 L 12.25 -12.484375 L 9.515625 -12.484375 L 6.265625 -3 L 3.03125 -12.484375 Z M 0.234375 -12.484375 "/></g></g></g><g fill="#423e3e" fill-opacity="1"><g transform="translate(57.055793, 169.449417)"><g><path d="M 4.03125 -12.484375 L 1.453125 -12.484375 L 1.453125 0 L 4.03125 0 Z M 4.03125 -12.484375 "/></g></g></g><g fill="#423e3e" fill-opacity="1"><g transform="translate(62.554471, 169.449417)"><g><path d="M 0.6875 -6.234375 C 0.6875 -2.59375 3.46875 0.171875 7.109375 0.171875 C 9.5625 0.171875 12 -1.171875 12.859375 -3.53125 L 10.484375 -4.640625 C 9.9375 -3.28125 8.703125 -2.328125 7.140625 -2.328125 C 4.921875 -2.328125 3.359375 -4.09375 3.359375 -6.265625 C 3.359375 -8.40625 4.96875 -10.15625 7.140625 -10.15625 C 8.703125 -10.15625 9.921875 -9.28125 10.453125 -7.90625 L 12.8125 -8.984375 C 11.96875 -11.328125 9.609375 -12.671875 7.15625 -12.671875 C 3.59375 -12.671875 0.6875 -9.828125 0.6875 -6.234375 Z M 0.6875 -6.234375 "/></g></g></g><g fill="#423e3e" fill-opacity="1"><g transform="translate(75.815053, 169.449417)"><g><path d="M 1.453125 -12.484375 L 1.453125 0 L 9.65625 0 L 9.65625 -2.40625 L 4 -2.40625 L 4 -5.09375 L 9.03125 -5.09375 L 9.03125 -7.515625 L 4 -7.515625 L 4 -10.0625 L 9.625 -10.0625 L 9.625 -12.484375 Z M 1.453125 -12.484375 "/></g></g></g><g fill="#423e3e" fill-opacity="1"><g transform="translate(86.382085, 169.449417)"><g/></g></g><g fill="#423e3e" fill-opacity="1"><g transform="translate(90.382571, 169.449417)"><g><path d="M 12.3125 -6.265625 C 12.3125 -10.1875 9.625 -12.484375 5.28125 -12.484375 L 1.453125 -12.484375 L 1.453125 0 L 5.234375 0 C 9.640625 0 12.3125 -2.546875 12.3125 -6.265625 Z M 9.671875 -6.265625 C 9.671875 -3.8125 7.890625 -2.4375 5.3125 -2.4375 L 4.03125 -2.4375 L 4.03125 -10.046875 L 5.34375 -10.046875 C 7.796875 -10.046875 9.671875 -8.71875 9.671875 -6.265625 Z M 9.671875 -6.265625 "/></g></g></g><g fill="#423e3e" fill-opacity="1"><g transform="translate(103.420015, 169.449417)"><g><path d="M 1.453125 -12.484375 L 1.453125 0 L 9.65625 0 L 9.65625 -2.40625 L 4 -2.40625 L 4 -5.09375 L 9.03125 -5.09375 L 9.03125 -7.515625 L 4 -7.515625 L 4 -10.0625 L 9.625 -10.0625 L 9.625 -12.484375 Z M 1.453125 -12.484375 "/></g></g></g><g fill="#423e3e" fill-opacity="1"><g transform="translate(113.987047, 169.449417)"><g><path d="M 4.03125 -7.375 L 4.03125 -10.03125 L 9.671875 -10.03125 L 9.671875 -12.484375 L 1.453125 -12.484375 L 1.453125 0 L 4.03125 0 L 4.03125 -4.921875 L 9.078125 -4.921875 L 9.078125 -7.375 Z M 4.03125 -7.375 "/></g></g></g><g fill="#423e3e" fill-opacity="1"><g transform="translate(124.33094, 169.449417)"><g><path d="M 4.03125 -12.484375 L 1.453125 -12.484375 L 1.453125 0 L 4.03125 0 Z M 4.03125 -12.484375 "/></g></g></g><g fill="#423e3e" fill-opacity="1"><g transform="translate(129.829618, 169.449417)"><g><path d="M 4 -8.609375 L 9.734375 0 L 12.375 0 L 12.375 -12.484375 L 9.8125 -12.484375 L 9.8125 -4.328125 L 4.40625 -12.484375 L 1.453125 -12.484375 L 1.453125 0 L 4 0 Z M 4 -8.609375 "/></g></g></g><g fill="#423e3e" fill-opacity="1"><g transform="translate(143.663981, 169.449417)"><g><path d="M 4.03125 -12.484375 L 1.453125 -12.484375 L 1.453125 0 L 4.03125 0 Z M 4.03125 -12.484375 "/></g></g></g><g fill="#423e3e" fill-opacity="1"><g transform="translate(149.162658, 169.449417)"><g><path d="M 4.078125 0 L 6.640625 0 L 6.640625 -9.984375 L 10.390625 -9.984375 L 10.390625 -12.484375 L 0.328125 -12.484375 L 0.328125 -9.984375 L 4.078125 -9.984375 Z M 4.078125 0 "/></g></g></g><g fill="#423e3e" fill-opacity="1"><g transform="translate(159.889064, 169.449417)"><g><path d="M 4.03125 -12.484375 L 1.453125 -12.484375 L 1.453125 0 L 4.03125 0 Z M 4.03125 -12.484375 "/></g></g></g><g fill="#423e3e" fill-opacity="1"><g transform="translate(165.387742, 169.449417)"><g><path d="M 0.6875 -6.234375 C 0.6875 -2.625 3.546875 0.1875 7.140625 0.1875 C 10.71875 0.1875 13.640625 -2.65625 13.640625 -6.296875 C 13.640625 -9.875 10.796875 -12.671875 7.203125 -12.671875 C 3.625 -12.671875 0.6875 -9.8125 0.6875 -6.234375 Z M 3.328125 -6.25 C 3.328125 -8.40625 5.015625 -10.171875 7.171875 -10.171875 C 9.328125 -10.171875 11.015625 -8.40625 11.015625 -6.25 C 11.015625 -4.09375 9.328125 -2.3125 7.171875 -2.3125 C 5.015625 -2.3125 3.328125 -4.09375 3.328125 -6.25 Z M 3.328125 -6.25 "/></g></g></g><g fill="#423e3e" fill-opacity="1"><g transform="translate(179.71618, 169.449417)"><g><path d="M 4 -8.609375 L 9.734375 0 L 12.375 0 L 12.375 -12.484375 L 9.8125 -12.484375 L 9.8125 -4.328125 L 4.40625 -12.484375 L 1.453125 -12.484375 L 1.453125 0 L 4 0 Z M 4 -8.609375 "/></g></g></g><path stroke-linecap="butt" transform="matrix(0.708904, 0.000000000000001085, -0.000000000000001085, 0.708904, 68.376356, 70.563701)" fill="none" stroke-linejoin="miter" d="M -0.0019126 1.001174 L 18.573194 1.001174 " stroke="#625e5e" stroke-width="2" stroke-opacity="1" stroke-miterlimit="4"/><path stroke-linecap="butt" transform="matrix(0.708904, 0.000000000000001085, -0.000000000000001085, 0.708904, 124.458132, 70.563701)" fill="none" stroke-linejoin="miter" d="M -0.00155243 1.001174 L 18.573554 1.001174 " stroke="#625e5e" stroke-width="2" stroke-opacity="1" stroke-miterlimit="4"/><path stroke-linecap="butt" transform="matrix(0.231353, -0.67009, 0.67009, 0.231353, 123.787039, 71.787121)" fill="none" stroke-linejoin="miter" d="M -0.00145425 1.000357 L 56.911831 1.00171 " stroke="#625e5e" stroke-width="2" stroke-opacity="1" stroke-miterlimit="4"/><path stroke-linecap="butt" transform="matrix(0.230797, 0.670282, -0.670282, 0.230797, 125.127623, 71.286506)" fill="none" stroke-linejoin="miter" d="M -0.0023803 0.999642 L 56.912167 0.998097 " stroke="#625e5e" stroke-width="2" stroke-opacity="1" stroke-miterlimit="4"/><g clip-path="url(#3bd7ac1f15)"><path fill="#423e3e" d="M 23.777344 58.566406 L 68.378906 58.566406 L 68.378906 83.828125 L 23.777344 83.828125 Z M 23.777344 58.566406 " fill-opacity="1" fill-rule="nonzero"/></g><g clip-path="url(#129bc83465)"><path fill="#f5d228" d="M 80.445312 58.566406 L 125.046875 58.566406 L 125.046875 83.828125 L 80.445312 83.828125 Z M 80.445312 58.566406 " fill-opacity="1" fill-rule="nonzero"/></g><g clip-path="url(#4efeee64ea)"><path fill="#7b7b7b" d="M 137.109375 58.566406 L 181.714844 58.566406 L 181.714844 83.828125 L 137.109375 83.828125 Z M 137.109375 58.566406 " fill-opacity="1" fill-rule="nonzero"/></g><g clip-path="url(#1382ddb0da)"><path fill="#f5d228" d="M 137.109375 21.402344 L 181.714844 21.402344 L 181.714844 46.664062 L 137.109375 46.664062 Z M 137.109375 21.402344 " fill-opacity="1" fill-rule="nonzero"/></g><g clip-path="url(#3dd4c93533)"><path fill="#f5d228" d="M 137.109375 95.878906 L 181.714844 95.878906 L 181.714844 121.140625 L 137.109375 121.140625 Z M 137.109375 95.878906 " fill-opacity="1" fill-rule="nonzero"/></g></svg>