<svg xmlns="http://www.w3.org/2000/svg" xmlns:xlink="http://www.w3.org/1999/xlink" width="61" zoomAndPan="magnify" viewBox="0 0 45.75 30.000001" height="40" preserveAspectRatio="xMidYMid meet" version="1.2"><defs><clipPath id="821051f570"><path d="M 0.617188 0 L 44.890625 0 L 44.890625 29.03125 L 0.617188 29.03125 Z M 0.617188 0 "/></clipPath><clipPath id="029dd31dcf"><path d="M 7.542969 11.074219 L 43.734375 11.074219 L 43.734375 17.957031 L 7.542969 17.957031 Z M 7.542969 11.074219 "/></clipPath><clipPath id="fdc80a8e96"><path d="M 1.769531 11.074219 L 10.175781 11.074219 L 10.175781 17.960938 L 1.769531 17.960938 Z M 1.769531 11.074219 "/></clipPath><clipPath id="289b64da5b"><path d="M 10.964844 11.074219 L 19.371094 11.074219 L 19.371094 17.960938 L 10.964844 17.960938 Z M 10.964844 11.074219 "/></clipPath><clipPath id="b35f0f37ac"><path d="M 19.371094 11.074219 L 24.894531 11.074219 L 24.894531 17.960938 L 19.371094 17.960938 Z M 19.371094 11.074219 "/></clipPath><clipPath id="a8b806c708"><path d="M 24.679688 11.074219 L 30.898438 11.074219 L 30.898438 17.957031 L 24.679688 17.957031 Z M 24.679688 11.074219 "/></clipPath><clipPath id="9fe5060461"><path d="M 30.898438 11.074219 L 43.734375 11.074219 L 43.734375 17.957031 L 30.898438 17.957031 Z M 30.898438 11.074219 "/></clipPath></defs><g id="cdda75fc19"><g clip-rule="nonzero" clip-path="url(#821051f570)"><path style=" stroke:none;fill-rule:nonzero;fill:#ffffff;fill-opacity:1;" d="M 0.617188 0 L 44.890625 0 L 44.890625 29.03125 L 0.617188 29.03125 Z M 0.617188 0 "/><path style=" stroke:none;fill-rule:nonzero;fill:#ffffff;fill-opacity:1;" d="M 0.617188 0 L 44.890625 0 L 44.890625 29.03125 L 0.617188 29.03125 Z M 0.617188 0 "/></g><g clip-rule="nonzero" clip-path="url(#029dd31dcf)"><path style=" stroke:none;fill-rule:nonzero;fill:#9eff95;fill-opacity:1;" d="M 43.734375 11.074219 L 43.734375 17.957031 L 7.539062 17.957031 L 7.539062 11.074219 Z M 43.734375 11.074219 "/></g><g clip-rule="nonzero" clip-path="url(#fdc80a8e96)"><path style=" stroke:none;fill-rule:nonzero;fill:#56d84a;fill-opacity:1;" d="M 10.175781 11.074219 L 10.175781 17.960938 L 1.757812 17.960938 L 1.757812 11.074219 Z M 10.175781 11.074219 "/></g><g clip-rule="nonzero" clip-path="url(#289b64da5b)"><path style=" stroke:none;fill-rule:nonzero;fill:#56d84a;fill-opacity:1;" d="M 19.371094 11.074219 L 19.371094 17.960938 L 10.953125 17.960938 L 10.953125 11.074219 Z M 19.371094 11.074219 "/></g><g clip-rule="nonzero" clip-path="url(#b35f0f37ac)"><path style=" stroke:none;fill-rule:nonzero;fill:#f5d228;fill-opacity:1;" d="M 24.894531 11.074219 L 24.894531 17.960938 L 19.371094 17.960938 L 19.371094 11.074219 Z M 24.894531 11.074219 "/></g><g clip-rule="nonzero" clip-path="url(#a8b806c708)"><path style=" stroke:none;fill-rule:nonzero;fill:#61d6d6;fill-opacity:1;" d="M 30.898438 11.074219 L 30.898438 17.953125 L 24.679688 17.953125 L 24.679688 11.074219 Z M 30.898438 11.074219 "/></g><g clip-rule="nonzero" clip-path="url(#9fe5060461)"><path style=" stroke:none;fill-rule:nonzero;fill:#f03241;fill-opacity:1;" d="M 43.734375 11.074219 L 43.734375 17.957031 L 30.90625 17.957031 L 30.90625 11.074219 Z M 43.734375 11.074219 "/></g></g></svg>