<svg xmlns="http://www.w3.org/2000/svg" xmlns:xlink="http://www.w3.org/1999/xlink" width="275" zoomAndPan="magnify" viewBox="0 0 206.25 187.499992" height="250" preserveAspectRatio="xMidYMid meet" version="1.0"><defs><g/><clipPath id="49f5c819d4"><path d="M 6.664062 6.203125 L 198.839844 6.203125 L 198.839844 145.292969 L 6.664062 145.292969 Z M 6.664062 6.203125 " clip-rule="nonzero"/></clipPath><clipPath id="7dd2348ee1"><path d="M 18.414062 151.675781 L 193.390625 151.675781 L 193.390625 179.699219 L 18.414062 179.699219 Z M 18.414062 151.675781 " clip-rule="nonzero"/></clipPath><clipPath id="3c55a8b05d"><path d="M 50.492188 69.851562 L 174.835938 69.851562 L 174.835938 93.503906 L 50.492188 93.503906 Z M 50.492188 69.851562 " clip-rule="nonzero"/></clipPath><clipPath id="e072f29a28"><path d="M 30.652344 69.851562 L 59.53125 69.851562 L 59.53125 93.503906 L 30.652344 93.503906 Z M 30.652344 69.851562 " clip-rule="nonzero"/></clipPath><clipPath id="fce9163df4"><path d="M 62.246094 69.851562 L 91.121094 69.851562 L 91.121094 93.503906 L 62.246094 93.503906 Z M 62.246094 69.851562 " clip-rule="nonzero"/></clipPath><clipPath id="2cb6e22463"><path d="M 91.121094 69.851562 L 110.109375 69.851562 L 110.109375 93.503906 L 91.121094 93.503906 Z M 91.121094 69.851562 " clip-rule="nonzero"/></clipPath><clipPath id="bbcbb23ce5"><path d="M 109.363281 69.847656 L 130.734375 69.847656 L 130.734375 93.5 L 109.363281 93.5 Z M 109.363281 69.847656 " clip-rule="nonzero"/></clipPath><clipPath id="804cf4ea38"><path d="M 130.734375 69.847656 L 174.832031 69.847656 L 174.832031 93.5 L 130.734375 93.5 Z M 130.734375 69.847656 " clip-rule="nonzero"/></clipPath></defs><g clip-path="url(#49f5c819d4)"><path fill="#ececec" d="M 6.664062 6.203125 L 198.839844 6.203125 L 198.839844 145.292969 L 6.664062 145.292969 Z M 6.664062 6.203125 " fill-opacity="1" fill-rule="nonzero"/></g><g clip-path="url(#7dd2348ee1)"><path fill="#ffffff" d="M 18.414062 151.675781 L 193.390625 151.675781 L 193.390625 179.699219 L 18.414062 179.699219 Z M 18.414062 151.675781 " fill-opacity="1" fill-rule="nonzero"/></g><g fill="#423e3e" fill-opacity="1"><g transform="translate(18.41351, 172.139648)"><g><path d="M 4.011719 -10.769531 C 4.011719 -11.640625 4.75 -12.285156 5.980469 -12.285156 C 7.25 -12.285156 8.289062 -11.660156 8.78125 -10.46875 L 11.320312 -11.847656 C 10.46875 -13.875 8.59375 -15.046875 6.113281 -15.046875 C 3.3125 -15.046875 0.945312 -13.230469 0.945312 -10.582031 C 0.945312 -9.445312 1.402344 -8.5 2.082031 -7.835938 C 2.878906 -7.042969 4.109375 -6.511719 5.699219 -6.039062 C 7.855469 -5.394531 8.5 -4.996094 8.5 -4.125 C 8.5 -3.21875 7.570312 -2.554688 6.246094 -2.554688 C 4.75 -2.554688 3.578125 -3.332031 3.007812 -4.617188 L 0.359375 -3.253906 C 1.230469 -1.136719 3.351562 0.226562 6.152344 0.226562 C 9.652344 0.226562 11.585938 -1.742188 11.585938 -4.355469 C 11.585938 -6.851562 9.691406 -8.007812 6.398438 -8.953125 C 4.808594 -9.40625 4.011719 -9.84375 4.011719 -10.769531 Z M 4.011719 -10.769531 "/></g></g></g><g fill="#423e3e" fill-opacity="1"><g transform="translate(30.754106, 172.139648)"><g><path d="M 4.847656 0 L 7.894531 0 L 7.894531 -11.847656 L 12.339844 -11.847656 L 12.339844 -14.820312 L 0.398438 -14.820312 L 0.398438 -11.847656 L 4.847656 -11.847656 Z M 4.847656 0 "/></g></g></g><g fill="#423e3e" fill-opacity="1"><g transform="translate(43.492175, 172.139648)"><g><path d="M 3.066406 0 L 4.164062 -2.992188 L 10.734375 -2.992188 L 11.847656 0 L 15.011719 0 L 9.332031 -14.820312 L 5.640625 -14.820312 L -0.0195312 0 Z M 7.457031 -11.847656 L 9.691406 -5.828125 L 5.222656 -5.828125 Z M 7.457031 -11.847656 "/></g></g></g><g fill="#423e3e" fill-opacity="1"><g transform="translate(58.482593, 172.139648)"><g><path d="M 4.847656 0 L 7.894531 0 L 7.894531 -11.847656 L 12.339844 -11.847656 L 12.339844 -14.820312 L 0.398438 -14.820312 L 0.398438 -11.847656 L 4.847656 -11.847656 Z M 4.847656 0 "/></g></g></g><g fill="#423e3e" fill-opacity="1"><g transform="translate(71.220662, 172.139648)"><g><path d="M 1.722656 -14.820312 L 1.722656 0 L 11.472656 0 L 11.472656 -2.859375 L 4.75 -2.859375 L 4.75 -6.058594 L 10.734375 -6.058594 L 10.734375 -8.933594 L 4.75 -8.933594 L 4.75 -11.945312 L 11.433594 -11.945312 L 11.433594 -14.820312 Z M 1.722656 -14.820312 "/></g></g></g><g fill="#423e3e" fill-opacity="1"><g transform="translate(83.769458, 172.139648)"><g/></g></g><g fill="#423e3e" fill-opacity="1"><g transform="translate(88.520203, 172.139648)"><g><path d="M 4.847656 0 L 7.894531 0 L 7.894531 -11.847656 L 12.339844 -11.847656 L 12.339844 -14.820312 L 0.398438 -14.820312 L 0.398438 -11.847656 L 4.847656 -11.847656 Z M 4.847656 0 "/></g></g></g><g fill="#423e3e" fill-opacity="1"><g transform="translate(101.258272, 172.139648)"><g><path d="M 4.789062 -14.820312 L 1.722656 -14.820312 L 1.722656 0 L 4.789062 0 Z M 4.789062 -14.820312 "/></g></g></g><g fill="#423e3e" fill-opacity="1"><g transform="translate(107.788192, 172.139648)"><g><path d="M 15.03125 -9.785156 L 15.046875 -9.785156 L 15.046875 0 L 18.078125 0 L 18.078125 -14.820312 L 14.007812 -14.820312 L 9.878906 -4.882812 L 5.679688 -14.820312 L 1.722656 -14.820312 L 1.722656 0 L 4.730469 0 L 4.730469 -9.710938 L 4.75 -9.710938 L 8.859375 0 L 10.902344 0 Z M 15.03125 -9.785156 "/></g></g></g><g fill="#423e3e" fill-opacity="1"><g transform="translate(127.586141, 172.139648)"><g><path d="M 1.722656 -14.820312 L 1.722656 0 L 11.472656 0 L 11.472656 -2.859375 L 4.75 -2.859375 L 4.75 -6.058594 L 10.734375 -6.058594 L 10.734375 -8.933594 L 4.75 -8.933594 L 4.75 -11.945312 L 11.433594 -11.945312 L 11.433594 -14.820312 Z M 1.722656 -14.820312 "/></g></g></g><g fill="#423e3e" fill-opacity="1"><g transform="translate(140.134937, 172.139648)"><g><path d="M 1.722656 -14.820312 L 1.722656 0 L 11.109375 0 L 11.109375 -2.914062 L 4.769531 -2.914062 L 4.769531 -14.820312 Z M 1.722656 -14.820312 "/></g></g></g><g fill="#423e3e" fill-opacity="1"><g transform="translate(151.567017, 172.139648)"><g><path d="M 4.789062 -14.820312 L 1.722656 -14.820312 L 1.722656 0 L 4.789062 0 Z M 4.789062 -14.820312 "/></g></g></g><g fill="#423e3e" fill-opacity="1"><g transform="translate(158.096937, 172.139648)"><g><path d="M 4.75 -10.222656 L 11.566406 0 L 14.6875 0 L 14.6875 -14.820312 L 11.660156 -14.820312 L 11.660156 -5.148438 L 5.222656 -14.820312 L 1.722656 -14.820312 L 1.722656 0 L 4.75 0 Z M 4.75 -10.222656 "/></g></g></g><g fill="#423e3e" fill-opacity="1"><g transform="translate(174.525831, 172.139648)"><g><path d="M 1.722656 -14.820312 L 1.722656 0 L 11.472656 0 L 11.472656 -2.859375 L 4.75 -2.859375 L 4.75 -6.058594 L 10.734375 -6.058594 L 10.734375 -8.933594 L 4.75 -8.933594 L 4.75 -11.945312 L 11.433594 -11.945312 L 11.433594 -14.820312 Z M 1.722656 -14.820312 "/></g></g></g><g clip-path="url(#3c55a8b05d)"><path fill="#9eff95" d="M 174.835938 69.851562 L 174.835938 93.503906 L 50.492188 93.503906 L 50.492188 69.851562 Z M 174.835938 69.851562 " fill-opacity="1" fill-rule="nonzero"/></g><g clip-path="url(#e072f29a28)"><path fill="#56d84a" d="M 59.53125 69.851562 L 59.53125 93.503906 L 30.652344 93.503906 L 30.652344 69.851562 Z M 59.53125 69.851562 " fill-opacity="1" fill-rule="nonzero"/></g><g clip-path="url(#fce9163df4)"><path fill="#56d84a" d="M 91.121094 69.851562 L 91.121094 93.503906 L 62.246094 93.503906 L 62.246094 69.851562 Z M 91.121094 69.851562 " fill-opacity="1" fill-rule="nonzero"/></g><g clip-path="url(#2cb6e22463)"><path fill="#f5d228" d="M 110.109375 69.851562 L 110.109375 93.503906 L 91.121094 93.503906 L 91.121094 69.851562 Z M 110.109375 69.851562 " fill-opacity="1" fill-rule="nonzero"/></g><g clip-path="url(#bbcbb23ce5)"><path fill="#61d6d6" d="M 130.734375 69.847656 L 130.734375 93.5 L 109.363281 93.5 L 109.363281 69.847656 Z M 130.734375 69.847656 " fill-opacity="1" fill-rule="nonzero"/></g><g clip-path="url(#804cf4ea38)"><path fill="#f03241" d="M 174.832031 69.847656 L 174.832031 93.5 L 130.734375 93.5 L 130.734375 69.847656 Z M 174.832031 69.847656 " fill-opacity="1" fill-rule="nonzero"/></g></svg>