<svg xmlns="http://www.w3.org/2000/svg" xmlns:xlink="http://www.w3.org/1999/xlink" width="300" zoomAndPan="magnify" viewBox="0 0 224.87999 168.749997" height="225" preserveAspectRatio="xMidYMid meet" version="1.0"><defs><g/><clipPath id="ce11b16169"><path d="M 5.984375 6.179688 L 219.1875 6.179688 L 219.1875 162.5625 L 5.984375 162.5625 Z M 5.984375 6.179688 " clip-rule="nonzero"/></clipPath><clipPath id="1daa620e06"><path d="M 40.828125 22.675781 L 184.597656 22.675781 L 184.597656 105.945312 L 40.828125 105.945312 Z M 40.828125 22.675781 " clip-rule="nonzero"/></clipPath><clipPath id="514bac2c7d"><path d="M 49.066406 22.675781 L 176.109375 22.675781 C 178.292969 22.675781 180.390625 23.542969 181.933594 25.089844 C 183.480469 26.632812 184.347656 28.730469 184.347656 30.914062 L 184.347656 97.707031 C 184.347656 99.894531 183.480469 101.988281 181.933594 103.535156 C 180.390625 105.078125 178.292969 105.945312 176.109375 105.945312 L 49.066406 105.945312 C 46.878906 105.945312 44.785156 105.078125 43.242188 103.535156 C 41.695312 101.988281 40.828125 99.894531 40.828125 97.707031 L 40.828125 30.914062 C 40.828125 28.730469 41.695312 26.632812 43.242188 25.089844 C 44.785156 23.542969 46.878906 22.675781 49.066406 22.675781 Z M 49.066406 22.675781 " clip-rule="nonzero"/></clipPath><clipPath id="8b0685e320"><path d="M 60.203125 33.53125 L 74.875 33.53125 L 74.875 95.09375 L 60.203125 95.09375 Z M 60.203125 33.53125 " clip-rule="nonzero"/></clipPath></defs><g clip-path="url(#ce11b16169)"><path fill="#ececec" d="M 5.984375 6.179688 L 219.179688 6.179688 L 219.179688 162.5625 L 5.984375 162.5625 Z M 5.984375 6.179688 " fill-opacity="1" fill-rule="nonzero"/></g><g clip-path="url(#1daa620e06)"><g clip-path="url(#514bac2c7d)"><path fill="#ddd9d9" d="M 40.828125 22.675781 L 184.273438 22.675781 L 184.273438 105.945312 L 40.828125 105.945312 Z M 40.828125 22.675781 " fill-opacity="1" fill-rule="nonzero"/></g></g><g clip-path="url(#8b0685e320)"><path fill="#56d84a" d="M 60.203125 33.53125 L 74.875 33.53125 L 74.875 95.074219 L 60.203125 95.074219 Z M 60.203125 33.53125 " fill-opacity="1" fill-rule="nonzero"/></g><g fill="#423e3e" fill-opacity="1"><g transform="translate(82.109214, 58.738775)"><g><path d="M 2.015625 0 L 2.015625 -14 L 5.390625 -14 L 5.390625 -11.953125 L 5.65625 -11.890625 C 6.53125 -13.472656 7.945312 -14.265625 9.90625 -14.265625 C 11.519531 -14.265625 12.703125 -13.820312 13.453125 -12.9375 C 14.210938 -12.0625 14.59375 -10.785156 14.59375 -9.109375 L 14.59375 0 L 11.078125 0 L 11.078125 -8.671875 C 11.078125 -9.597656 10.890625 -10.265625 10.515625 -10.671875 C 10.148438 -11.085938 9.554688 -11.296875 8.734375 -11.296875 C 7.722656 -11.296875 6.9375 -10.96875 6.375 -10.3125 C 5.8125 -9.664062 5.53125 -8.644531 5.53125 -7.25 L 5.53125 0 Z M 2.015625 0 "/></g></g></g><g fill="#423e3e" fill-opacity="1"><g transform="translate(98.506099, 58.738775)"><g><path d="M 5.453125 0.265625 C 4.554688 0.265625 3.78125 0.101562 3.125 -0.21875 C 2.46875 -0.550781 1.957031 -1.035156 1.59375 -1.671875 C 1.238281 -2.316406 1.0625 -3.085938 1.0625 -3.984375 C 1.0625 -4.816406 1.238281 -5.515625 1.59375 -6.078125 C 1.957031 -6.640625 2.507812 -7.097656 3.25 -7.453125 C 4 -7.816406 4.972656 -8.097656 6.171875 -8.296875 C 7.003906 -8.429688 7.640625 -8.578125 8.078125 -8.734375 C 8.515625 -8.890625 8.804688 -9.066406 8.953125 -9.265625 C 9.109375 -9.472656 9.1875 -9.738281 9.1875 -10.0625 C 9.1875 -10.507812 9.03125 -10.847656 8.71875 -11.078125 C 8.40625 -11.316406 7.882812 -11.4375 7.15625 -11.4375 C 6.382812 -11.4375 5.644531 -11.257812 4.9375 -10.90625 C 4.238281 -10.5625 3.628906 -10.109375 3.109375 -9.546875 L 2.859375 -9.546875 L 1.390625 -11.765625 C 2.097656 -12.554688 2.960938 -13.171875 3.984375 -13.609375 C 5.003906 -14.046875 6.125 -14.265625 7.34375 -14.265625 C 9.195312 -14.265625 10.535156 -13.867188 11.359375 -13.078125 C 12.191406 -12.296875 12.609375 -11.179688 12.609375 -9.734375 L 12.609375 -3.65625 C 12.609375 -3.03125 12.882812 -2.71875 13.4375 -2.71875 C 13.644531 -2.71875 13.847656 -2.753906 14.046875 -2.828125 L 14.234375 -2.78125 L 14.484375 -0.328125 C 14.285156 -0.203125 14.015625 -0.0976562 13.671875 -0.015625 C 13.328125 0.0664062 12.945312 0.109375 12.53125 0.109375 C 11.695312 0.109375 11.039062 -0.0507812 10.5625 -0.375 C 10.09375 -0.695312 9.757812 -1.203125 9.5625 -1.890625 L 9.296875 -1.921875 C 8.609375 -0.460938 7.328125 0.265625 5.453125 0.265625 Z M 6.578125 -2.359375 C 7.390625 -2.359375 8.035156 -2.628906 8.515625 -3.171875 C 9.003906 -3.722656 9.25 -4.484375 9.25 -5.453125 L 9.25 -6.875 L 9.015625 -6.9375 C 8.804688 -6.757812 8.53125 -6.613281 8.1875 -6.5 C 7.84375 -6.382812 7.347656 -6.273438 6.703125 -6.171875 C 5.941406 -6.046875 5.394531 -5.828125 5.0625 -5.515625 C 4.726562 -5.203125 4.5625 -4.765625 4.5625 -4.203125 C 4.5625 -3.597656 4.738281 -3.140625 5.09375 -2.828125 C 5.445312 -2.515625 5.941406 -2.359375 6.578125 -2.359375 Z M 6.578125 -2.359375 "/></g></g></g><g fill="#423e3e" fill-opacity="1"><g transform="translate(113.265837, 58.738775)"><g><path d="M 2.015625 0 L 2.015625 -14 L 5.390625 -14 L 5.390625 -12.125 L 5.65625 -12.078125 C 6.113281 -12.828125 6.648438 -13.378906 7.265625 -13.734375 C 7.878906 -14.085938 8.664062 -14.265625 9.625 -14.265625 C 10.675781 -14.265625 11.523438 -14.054688 12.171875 -13.640625 C 12.816406 -13.222656 13.285156 -12.613281 13.578125 -11.8125 L 13.84375 -11.8125 C 14.28125 -12.644531 14.835938 -13.257812 15.515625 -13.65625 C 16.203125 -14.0625 17.050781 -14.265625 18.0625 -14.265625 C 20.96875 -14.265625 22.421875 -12.648438 22.421875 -9.421875 L 22.421875 0 L 18.90625 0 L 18.90625 -8.96875 C 18.90625 -9.789062 18.742188 -10.382812 18.421875 -10.75 C 18.097656 -11.113281 17.582031 -11.296875 16.875 -11.296875 C 14.945312 -11.296875 13.984375 -10.003906 13.984375 -7.421875 L 13.984375 0 L 10.46875 0 L 10.46875 -8.96875 C 10.46875 -9.789062 10.300781 -10.382812 9.96875 -10.75 C 9.644531 -11.113281 9.128906 -11.296875 8.421875 -11.296875 C 7.515625 -11.296875 6.804688 -10.992188 6.296875 -10.390625 C 5.785156 -9.785156 5.53125 -8.820312 5.53125 -7.5 L 5.53125 0 Z M 2.015625 0 "/></g></g></g><g fill="#423e3e" fill-opacity="1"><g transform="translate(137.480431, 58.738775)"><g><path d="M 13.84375 -6.203125 L 4.84375 -6.203125 C 4.9375 -4.984375 5.28125 -4.097656 5.875 -3.546875 C 6.46875 -2.992188 7.273438 -2.71875 8.296875 -2.71875 C 9.109375 -2.71875 9.757812 -2.867188 10.25 -3.171875 C 10.75 -3.472656 11.15625 -3.925781 11.46875 -4.53125 L 11.734375 -4.53125 L 14.0625 -3.03125 C 13.601562 -2.050781 12.910156 -1.253906 11.984375 -0.640625 C 11.066406 -0.0351562 9.835938 0.265625 8.296875 0.265625 C 6.847656 0.265625 5.597656 -0.0078125 4.546875 -0.5625 C 3.492188 -1.113281 2.679688 -1.929688 2.109375 -3.015625 C 1.535156 -4.097656 1.25 -5.425781 1.25 -7 C 1.25 -8.582031 1.550781 -9.921875 2.15625 -11.015625 C 2.757812 -12.109375 3.570312 -12.921875 4.59375 -13.453125 C 5.613281 -13.992188 6.765625 -14.265625 8.046875 -14.265625 C 10.023438 -14.265625 11.539062 -13.738281 12.59375 -12.6875 C 13.65625 -11.644531 14.1875 -10.109375 14.1875 -8.078125 C 14.1875 -7.335938 14.160156 -6.765625 14.109375 -6.359375 Z M 10.8125 -8.484375 C 10.78125 -9.546875 10.53125 -10.320312 10.0625 -10.8125 C 9.601562 -11.300781 8.929688 -11.546875 8.046875 -11.546875 C 6.273438 -11.546875 5.226562 -10.523438 4.90625 -8.484375 Z M 10.8125 -8.484375 "/></g></g></g><g fill="#423e3e" fill-opacity="1"><g transform="translate(113.969391, 79.038177)"><g><path d="M 6.75 0 L 3.8125 0 L 0.1875 -9.796875 L 2.765625 -9.796875 L 5.203125 -2.8125 L 5.40625 -2.8125 L 7.84375 -9.796875 L 10.359375 -9.796875 Z M 6.75 0 "/></g></g></g><g fill="#423e3e" fill-opacity="1"><g transform="translate(124.512661, 79.038177)"><g><path d="M 3.828125 0.1875 C 3.191406 0.1875 2.644531 0.0703125 2.1875 -0.15625 C 1.726562 -0.382812 1.375 -0.722656 1.125 -1.171875 C 0.875 -1.617188 0.75 -2.160156 0.75 -2.796875 C 0.75 -3.367188 0.875 -3.851562 1.125 -4.25 C 1.375 -4.644531 1.757812 -4.96875 2.28125 -5.21875 C 2.800781 -5.46875 3.476562 -5.660156 4.3125 -5.796875 C 4.90625 -5.898438 5.351562 -6.003906 5.65625 -6.109375 C 5.957031 -6.222656 6.160156 -6.347656 6.265625 -6.484375 C 6.378906 -6.628906 6.4375 -6.816406 6.4375 -7.046875 C 6.4375 -7.359375 6.328125 -7.597656 6.109375 -7.765625 C 5.890625 -7.929688 5.523438 -8.015625 5.015625 -8.015625 C 4.460938 -8.015625 3.941406 -7.890625 3.453125 -7.640625 C 2.960938 -7.398438 2.535156 -7.082031 2.171875 -6.6875 L 2 -6.6875 L 0.96875 -8.234375 C 1.46875 -8.785156 2.070312 -9.210938 2.78125 -9.515625 C 3.5 -9.828125 4.285156 -9.984375 5.140625 -9.984375 C 6.429688 -9.984375 7.367188 -9.707031 7.953125 -9.15625 C 8.535156 -8.613281 8.828125 -7.832031 8.828125 -6.8125 L 8.828125 -2.5625 C 8.828125 -2.125 9.019531 -1.90625 9.40625 -1.90625 C 9.550781 -1.90625 9.695312 -1.929688 9.84375 -1.984375 L 9.96875 -1.953125 L 10.140625 -0.234375 C 10.003906 -0.140625 9.8125 -0.0625 9.5625 0 C 9.320312 0.0507812 9.054688 0.078125 8.765625 0.078125 C 8.179688 0.078125 7.722656 -0.0351562 7.390625 -0.265625 C 7.066406 -0.492188 6.832031 -0.847656 6.6875 -1.328125 L 6.5 -1.34375 C 6.019531 -0.320312 5.128906 0.1875 3.828125 0.1875 Z M 4.609375 -1.65625 C 5.171875 -1.65625 5.625 -1.84375 5.96875 -2.21875 C 6.3125 -2.601562 6.484375 -3.140625 6.484375 -3.828125 L 6.484375 -4.8125 L 6.3125 -4.859375 C 6.164062 -4.734375 5.972656 -4.628906 5.734375 -4.546875 C 5.492188 -4.472656 5.144531 -4.394531 4.6875 -4.3125 C 4.15625 -4.226562 3.769531 -4.078125 3.53125 -3.859375 C 3.300781 -3.640625 3.1875 -3.332031 3.1875 -2.9375 C 3.1875 -2.519531 3.3125 -2.203125 3.5625 -1.984375 C 3.8125 -1.765625 4.160156 -1.65625 4.609375 -1.65625 Z M 4.609375 -1.65625 "/></g></g></g><g fill="#423e3e" fill-opacity="1"><g transform="translate(134.851466, 79.038177)"><g><path d="M 4.078125 0.1875 C 3.191406 0.1875 2.515625 -0.0507812 2.046875 -0.53125 C 1.578125 -1.007812 1.34375 -1.734375 1.34375 -2.703125 L 1.34375 -13.734375 L 3.8125 -13.734375 L 3.8125 -2.796875 C 3.8125 -2.203125 4.0625 -1.90625 4.5625 -1.90625 C 4.695312 -1.90625 4.847656 -1.925781 5.015625 -1.96875 L 5.140625 -1.9375 L 5.359375 -0.046875 C 5.222656 0.0234375 5.039062 0.0820312 4.8125 0.125 C 4.59375 0.164062 4.347656 0.1875 4.078125 0.1875 Z M 4.078125 0.1875 "/></g></g></g><g fill="#423e3e" fill-opacity="1"><g transform="translate(140.487581, 79.038177)"><g><path d="M 4.484375 0.1875 C 3.378906 0.1875 2.566406 -0.113281 2.046875 -0.71875 C 1.523438 -1.320312 1.265625 -2.1875 1.265625 -3.3125 L 1.265625 -9.796875 L 3.71875 -9.796875 L 3.71875 -3.625 C 3.71875 -3.019531 3.847656 -2.578125 4.109375 -2.296875 C 4.367188 -2.023438 4.769531 -1.890625 5.3125 -1.890625 C 5.988281 -1.890625 6.515625 -2.113281 6.890625 -2.5625 C 7.273438 -3.007812 7.46875 -3.710938 7.46875 -4.671875 L 7.46875 -9.796875 L 9.921875 -9.796875 L 9.921875 0 L 7.5625 0 L 7.5625 -1.4375 L 7.375 -1.484375 C 7.0625 -0.921875 6.675781 -0.5 6.21875 -0.21875 C 5.769531 0.0507812 5.191406 0.1875 4.484375 0.1875 Z M 4.484375 0.1875 "/></g></g></g><g fill="#423e3e" fill-opacity="1"><g transform="translate(151.830931, 79.038177)"><g><path d="M 9.6875 -4.34375 L 3.390625 -4.34375 C 3.460938 -3.488281 3.703125 -2.867188 4.109375 -2.484375 C 4.523438 -2.097656 5.09375 -1.90625 5.8125 -1.90625 C 6.375 -1.90625 6.828125 -2.007812 7.171875 -2.21875 C 7.523438 -2.425781 7.8125 -2.742188 8.03125 -3.171875 L 8.21875 -3.171875 L 9.84375 -2.125 C 9.53125 -1.4375 9.050781 -0.878906 8.40625 -0.453125 C 7.757812 -0.0234375 6.894531 0.1875 5.8125 0.1875 C 4.800781 0.1875 3.925781 -0.00390625 3.1875 -0.390625 C 2.445312 -0.773438 1.875 -1.347656 1.46875 -2.109375 C 1.070312 -2.867188 0.875 -3.796875 0.875 -4.890625 C 0.875 -6.003906 1.082031 -6.941406 1.5 -7.703125 C 1.925781 -8.472656 2.5 -9.046875 3.21875 -9.421875 C 3.9375 -9.796875 4.742188 -9.984375 5.640625 -9.984375 C 7.023438 -9.984375 8.082031 -9.613281 8.8125 -8.875 C 9.550781 -8.144531 9.921875 -7.070312 9.921875 -5.65625 C 9.921875 -5.132812 9.90625 -4.734375 9.875 -4.453125 Z M 7.578125 -5.9375 C 7.546875 -6.6875 7.367188 -7.226562 7.046875 -7.5625 C 6.722656 -7.90625 6.253906 -8.078125 5.640625 -8.078125 C 4.390625 -8.078125 3.65625 -7.363281 3.4375 -5.9375 Z M 7.578125 -5.9375 "/></g></g></g><g fill="#423e3e" fill-opacity="1"><g transform="translate(79.691558, 145.878556)"><g><path d="M 4.015625 -10.796875 C 4.015625 -10.328125 4.210938 -9.960938 4.609375 -9.703125 C 5.015625 -9.441406 5.613281 -9.195312 6.40625 -8.96875 C 7.507812 -8.65625 8.445312 -8.300781 9.21875 -7.90625 C 10 -7.519531 10.59375 -7.039062 11 -6.46875 C 11.40625 -5.894531 11.609375 -5.191406 11.609375 -4.359375 C 11.609375 -3.484375 11.398438 -2.703125 10.984375 -2.015625 C 10.566406 -1.328125 9.953125 -0.78125 9.140625 -0.375 C 8.328125 0.03125 7.335938 0.234375 6.171875 0.234375 C 4.765625 0.234375 3.554688 -0.0820312 2.546875 -0.71875 C 1.535156 -1.351562 0.804688 -2.203125 0.359375 -3.265625 L 3.015625 -4.625 C 3.304688 -3.976562 3.734375 -3.472656 4.296875 -3.109375 C 4.859375 -2.742188 5.515625 -2.5625 6.265625 -2.5625 C 6.929688 -2.5625 7.472656 -2.707031 7.890625 -3 C 8.304688 -3.300781 8.515625 -3.679688 8.515625 -4.140625 C 8.515625 -4.429688 8.429688 -4.679688 8.265625 -4.890625 C 8.109375 -5.097656 7.820312 -5.289062 7.40625 -5.46875 C 7 -5.644531 6.429688 -5.835938 5.703125 -6.046875 C 4.910156 -6.285156 4.207031 -6.546875 3.59375 -6.828125 C 2.988281 -7.117188 2.488281 -7.460938 2.09375 -7.859375 C 1.75 -8.179688 1.472656 -8.578125 1.265625 -9.046875 C 1.054688 -9.515625 0.953125 -10.035156 0.953125 -10.609375 C 0.953125 -11.492188 1.1875 -12.269531 1.65625 -12.9375 C 2.132812 -13.601562 2.765625 -14.125 3.546875 -14.5 C 4.328125 -14.882812 5.1875 -15.078125 6.125 -15.078125 C 7.363281 -15.078125 8.4375 -14.796875 9.34375 -14.234375 C 10.25 -13.671875 10.914062 -12.882812 11.34375 -11.875 L 8.796875 -10.484375 C 8.554688 -11.078125 8.1875 -11.53125 7.6875 -11.84375 C 7.1875 -12.15625 6.625 -12.3125 6 -12.3125 C 5.375 -12.3125 4.882812 -12.164062 4.53125 -11.875 C 4.1875 -11.59375 4.015625 -11.234375 4.015625 -10.796875 Z M 4.015625 -10.796875 "/></g></g></g><g fill="#423e3e" fill-opacity="1"><g transform="translate(92.058707, 145.878556)"><g><path d="M 4.859375 0 L 4.859375 -11.875 L 0.390625 -11.875 L 0.390625 -14.859375 L 12.375 -14.859375 L 12.375 -11.875 L 7.90625 -11.875 L 7.90625 0 Z M 4.859375 0 "/></g></g></g><g fill="#423e3e" fill-opacity="1"><g transform="translate(104.824184, 145.878556)"><g><path d="M 3.078125 0 L -0.015625 0 L 5.65625 -14.859375 L 9.359375 -14.859375 L 15.046875 0 L 11.875 0 L 10.75 -3 L 4.171875 -3 Z M 7.46875 -11.875 L 5.234375 -5.84375 L 9.71875 -5.84375 Z M 7.46875 -11.875 "/></g></g></g><g fill="#423e3e" fill-opacity="1"><g transform="translate(119.846857, 145.878556)"><g><path d="M 4.859375 0 L 4.859375 -11.875 L 0.390625 -11.875 L 0.390625 -14.859375 L 12.375 -14.859375 L 12.375 -11.875 L 7.90625 -11.875 L 7.90625 0 Z M 4.859375 0 "/></g></g></g><g fill="#423e3e" fill-opacity="1"><g transform="translate(132.612334, 145.878556)"><g><path d="M 1.71875 -14.859375 L 11.453125 -14.859375 L 11.453125 -11.96875 L 4.765625 -11.96875 L 4.765625 -8.953125 L 10.75 -8.953125 L 10.75 -6.0625 L 4.765625 -6.0625 L 4.765625 -2.859375 L 11.5 -2.859375 L 11.5 0 L 1.71875 0 Z M 1.71875 -14.859375 "/></g></g></g></svg>