<svg xmlns="http://www.w3.org/2000/svg" xmlns:xlink="http://www.w3.org/1999/xlink" width="275" zoomAndPan="magnify" viewBox="0 0 206.25 187.499992" height="250" preserveAspectRatio="xMidYMid meet" version="1.0"><defs><g/><clipPath id="0c2db9376c"><path d="M 6.664062 6.203125 L 198.839844 6.203125 L 198.839844 145.292969 L 6.664062 145.292969 Z M 6.664062 6.203125 " clip-rule="nonzero"/></clipPath><clipPath id="f71ec0805c"><path d="M 58.289062 151.675781 L 147.214844 151.675781 L 147.214844 179.699219 L 58.289062 179.699219 Z M 58.289062 151.675781 " clip-rule="nonzero"/></clipPath><clipPath id="7ba0997ba2"><path d="M 28.242188 31.964844 L 49.109375 31.964844 L 49.109375 119.53125 L 28.242188 119.53125 Z M 28.242188 31.964844 " clip-rule="nonzero"/></clipPath></defs><g clip-path="url(#0c2db9376c)"><path fill="#ececec" d="M 6.664062 6.203125 L 198.839844 6.203125 L 198.839844 145.292969 L 6.664062 145.292969 Z M 6.664062 6.203125 " fill-opacity="1" fill-rule="nonzero"/></g><g clip-path="url(#f71ec0805c)"><path fill="#ffffff" d="M 58.289062 151.675781 L 147.214844 151.675781 L 147.214844 179.699219 L 58.289062 179.699219 Z M 58.289062 151.675781 " fill-opacity="1" fill-rule="nonzero"/></g><g fill="#423e3e" fill-opacity="1"><g transform="translate(70.069418, 172.139648)"><g><path d="M 4.011719 -10.769531 C 4.011719 -11.640625 4.75 -12.285156 5.980469 -12.285156 C 7.25 -12.285156 8.289062 -11.660156 8.78125 -10.46875 L 11.320312 -11.847656 C 10.46875 -13.875 8.59375 -15.046875 6.113281 -15.046875 C 3.3125 -15.046875 0.945312 -13.230469 0.945312 -10.582031 C 0.945312 -9.445312 1.402344 -8.5 2.082031 -7.835938 C 2.878906 -7.042969 4.109375 -6.511719 5.699219 -6.039062 C 7.855469 -5.394531 8.5 -4.996094 8.5 -4.125 C 8.5 -3.21875 7.570312 -2.554688 6.246094 -2.554688 C 4.75 -2.554688 3.578125 -3.332031 3.007812 -4.617188 L 0.359375 -3.253906 C 1.230469 -1.136719 3.351562 0.226562 6.152344 0.226562 C 9.652344 0.226562 11.585938 -1.742188 11.585938 -4.355469 C 11.585938 -6.851562 9.691406 -8.007812 6.398438 -8.953125 C 4.808594 -9.40625 4.011719 -9.84375 4.011719 -10.769531 Z M 4.011719 -10.769531 "/></g></g></g><g fill="#423e3e" fill-opacity="1"><g transform="translate(82.410014, 172.139648)"><g><path d="M 4.847656 0 L 7.894531 0 L 7.894531 -11.847656 L 12.339844 -11.847656 L 12.339844 -14.820312 L 0.398438 -14.820312 L 0.398438 -11.847656 L 4.847656 -11.847656 Z M 4.847656 0 "/></g></g></g><g fill="#423e3e" fill-opacity="1"><g transform="translate(95.148083, 172.139648)"><g><path d="M 3.066406 0 L 4.164062 -2.992188 L 10.734375 -2.992188 L 11.847656 0 L 15.011719 0 L 9.332031 -14.820312 L 5.640625 -14.820312 L -0.0195312 0 Z M 7.457031 -11.847656 L 9.691406 -5.828125 L 5.222656 -5.828125 Z M 7.457031 -11.847656 "/></g></g></g><g fill="#423e3e" fill-opacity="1"><g transform="translate(110.138502, 172.139648)"><g><path d="M 4.847656 0 L 7.894531 0 L 7.894531 -11.847656 L 12.339844 -11.847656 L 12.339844 -14.820312 L 0.398438 -14.820312 L 0.398438 -11.847656 L 4.847656 -11.847656 Z M 4.847656 0 "/></g></g></g><g fill="#423e3e" fill-opacity="1"><g transform="translate(122.876571, 172.139648)"><g><path d="M 1.722656 -14.820312 L 1.722656 0 L 11.472656 0 L 11.472656 -2.859375 L 4.75 -2.859375 L 4.75 -6.058594 L 10.734375 -6.058594 L 10.734375 -8.933594 L 4.75 -8.933594 L 4.75 -11.945312 L 11.433594 -11.945312 L 11.433594 -14.820312 Z M 1.722656 -14.820312 "/></g></g></g><g clip-path="url(#7ba0997ba2)"><path fill="#56d84a" d="M 28.242188 31.964844 L 49.109375 31.964844 L 49.109375 119.53125 L 28.242188 119.53125 Z M 28.242188 31.964844 " fill-opacity="1" fill-rule="nonzero"/></g><g fill="#423e3e" fill-opacity="1"><g transform="translate(59.400794, 67.82195)"><g><path d="M 2.875 0 L 2.875 -19.90625 L 7.671875 -19.90625 L 7.671875 -16.984375 L 8.046875 -16.890625 C 9.285156 -19.160156 11.296875 -20.296875 14.078125 -20.296875 C 16.378906 -20.296875 18.066406 -19.664062 19.140625 -18.40625 C 20.222656 -17.15625 20.765625 -15.332031 20.765625 -12.9375 L 20.765625 0 L 15.765625 0 L 15.765625 -12.328125 C 15.765625 -13.648438 15.5 -14.601562 14.96875 -15.1875 C 14.4375 -15.769531 13.585938 -16.0625 12.421875 -16.0625 C 10.984375 -16.0625 9.863281 -15.597656 9.0625 -14.671875 C 8.269531 -13.742188 7.875 -12.289062 7.875 -10.3125 L 7.875 0 Z M 2.875 0 "/></g></g></g><g fill="#423e3e" fill-opacity="1"><g transform="translate(82.722707, 67.82195)"><g><path d="M 7.765625 0.375 C 6.484375 0.375 5.375 0.140625 4.4375 -0.328125 C 3.5 -0.796875 2.773438 -1.484375 2.265625 -2.390625 C 1.765625 -3.296875 1.515625 -4.390625 1.515625 -5.671875 C 1.515625 -6.847656 1.765625 -7.835938 2.265625 -8.640625 C 2.773438 -9.441406 3.554688 -10.097656 4.609375 -10.609375 C 5.671875 -11.117188 7.054688 -11.507812 8.765625 -11.78125 C 9.960938 -11.976562 10.867188 -12.191406 11.484375 -12.421875 C 12.109375 -12.648438 12.523438 -12.90625 12.734375 -13.1875 C 12.953125 -13.476562 13.0625 -13.847656 13.0625 -14.296875 C 13.0625 -14.929688 12.835938 -15.414062 12.390625 -15.75 C 11.953125 -16.09375 11.21875 -16.265625 10.1875 -16.265625 C 9.070312 -16.265625 8.015625 -16.015625 7.015625 -15.515625 C 6.023438 -15.023438 5.160156 -14.378906 4.421875 -13.578125 L 4.0625 -13.578125 L 1.96875 -16.734375 C 2.976562 -17.847656 4.210938 -18.71875 5.671875 -19.34375 C 7.128906 -19.976562 8.71875 -20.296875 10.4375 -20.296875 C 13.070312 -20.296875 14.976562 -19.734375 16.15625 -18.609375 C 17.332031 -17.492188 17.921875 -15.90625 17.921875 -13.84375 L 17.921875 -5.203125 C 17.921875 -4.304688 18.3125 -3.859375 19.09375 -3.859375 C 19.394531 -3.859375 19.691406 -3.914062 19.984375 -4.03125 L 20.234375 -3.953125 L 20.59375 -0.46875 C 20.320312 -0.289062 19.9375 -0.144531 19.4375 -0.03125 C 18.945312 0.0820312 18.40625 0.140625 17.8125 0.140625 C 16.625 0.140625 15.695312 -0.0859375 15.03125 -0.546875 C 14.363281 -1.003906 13.882812 -1.71875 13.59375 -2.6875 L 13.21875 -2.71875 C 12.238281 -0.65625 10.421875 0.375 7.765625 0.375 Z M 9.34375 -3.359375 C 10.5 -3.359375 11.421875 -3.742188 12.109375 -4.515625 C 12.804688 -5.296875 13.15625 -6.378906 13.15625 -7.765625 L 13.15625 -9.78125 L 12.8125 -9.859375 C 12.507812 -9.617188 12.113281 -9.414062 11.625 -9.25 C 11.144531 -9.082031 10.445312 -8.921875 9.53125 -8.765625 C 8.445312 -8.585938 7.664062 -8.28125 7.1875 -7.84375 C 6.71875 -7.40625 6.484375 -6.78125 6.484375 -5.96875 C 6.484375 -5.113281 6.734375 -4.460938 7.234375 -4.015625 C 7.742188 -3.578125 8.445312 -3.359375 9.34375 -3.359375 Z M 9.34375 -3.359375 "/></g></g></g><g fill="#423e3e" fill-opacity="1"><g transform="translate(103.716044, 67.82195)"><g><path d="M 2.875 0 L 2.875 -19.90625 L 7.671875 -19.90625 L 7.671875 -17.234375 L 8.046875 -17.171875 C 8.703125 -18.234375 9.460938 -19.019531 10.328125 -19.53125 C 11.203125 -20.039062 12.320312 -20.296875 13.6875 -20.296875 C 15.1875 -20.296875 16.394531 -19.992188 17.3125 -19.390625 C 18.226562 -18.796875 18.894531 -17.925781 19.3125 -16.78125 L 19.6875 -16.78125 C 20.300781 -17.976562 21.09375 -18.863281 22.0625 -19.4375 C 23.03125 -20.007812 24.238281 -20.296875 25.6875 -20.296875 C 29.8125 -20.296875 31.875 -17.992188 31.875 -13.390625 L 31.875 0 L 26.875 0 L 26.875 -12.765625 C 26.875 -13.929688 26.644531 -14.769531 26.1875 -15.28125 C 25.726562 -15.800781 24.992188 -16.0625 23.984375 -16.0625 C 21.242188 -16.0625 19.875 -14.226562 19.875 -10.5625 L 19.875 0 L 14.875 0 L 14.875 -12.765625 C 14.875 -13.929688 14.640625 -14.769531 14.171875 -15.28125 C 13.710938 -15.800781 12.976562 -16.0625 11.96875 -16.0625 C 10.675781 -16.0625 9.671875 -15.628906 8.953125 -14.765625 C 8.234375 -13.910156 7.875 -12.546875 7.875 -10.671875 L 7.875 0 Z M 2.875 0 "/></g></g></g><g fill="#423e3e" fill-opacity="1"><g transform="translate(138.157383, 67.82195)"><g><path d="M 19.671875 -8.828125 L 6.875 -8.828125 C 7.019531 -7.097656 7.515625 -5.835938 8.359375 -5.046875 C 9.203125 -4.253906 10.351562 -3.859375 11.8125 -3.859375 C 12.945312 -3.859375 13.867188 -4.070312 14.578125 -4.5 C 15.296875 -4.925781 15.867188 -5.570312 16.296875 -6.4375 L 16.671875 -6.4375 L 20 -4.3125 C 19.351562 -2.914062 18.375 -1.785156 17.0625 -0.921875 C 15.75 -0.0546875 14 0.375 11.8125 0.375 C 9.75 0.375 7.96875 -0.015625 6.46875 -0.796875 C 4.96875 -1.578125 3.8125 -2.738281 3 -4.28125 C 2.1875 -5.832031 1.78125 -7.722656 1.78125 -9.953125 C 1.78125 -12.210938 2.207031 -14.117188 3.0625 -15.671875 C 3.914062 -17.222656 5.070312 -18.378906 6.53125 -19.140625 C 7.988281 -19.910156 9.625 -20.296875 11.4375 -20.296875 C 14.257812 -20.296875 16.414062 -19.546875 17.90625 -18.046875 C 19.40625 -16.554688 20.15625 -14.367188 20.15625 -11.484375 C 20.15625 -10.429688 20.125 -9.617188 20.0625 -9.046875 Z M 15.375 -12.0625 C 15.332031 -13.570312 14.984375 -14.671875 14.328125 -15.359375 C 13.671875 -16.054688 12.707031 -16.40625 11.4375 -16.40625 C 8.914062 -16.40625 7.429688 -14.957031 6.984375 -12.0625 Z M 15.375 -12.0625 "/></g></g></g><g fill="#423e3e" fill-opacity="1"><g transform="translate(104.716739, 96.694555)"><g><path d="M 9.59375 0 L 5.421875 0 L 0.265625 -13.953125 L 3.9375 -13.953125 L 7.40625 -4.015625 L 7.6875 -4.015625 L 11.171875 -13.953125 L 14.75 -13.953125 Z M 9.59375 0 "/></g></g></g><g fill="#423e3e" fill-opacity="1"><g transform="translate(119.712834, 96.694555)"><g><path d="M 5.4375 0.265625 C 4.539062 0.265625 3.765625 0.101562 3.109375 -0.21875 C 2.453125 -0.550781 1.945312 -1.035156 1.59375 -1.671875 C 1.238281 -2.304688 1.0625 -3.070312 1.0625 -3.96875 C 1.0625 -4.800781 1.238281 -5.492188 1.59375 -6.046875 C 1.945312 -6.609375 2.492188 -7.066406 3.234375 -7.421875 C 3.972656 -7.785156 4.941406 -8.066406 6.140625 -8.265625 C 6.984375 -8.398438 7.617188 -8.546875 8.046875 -8.703125 C 8.484375 -8.859375 8.773438 -9.035156 8.921875 -9.234375 C 9.078125 -9.441406 9.15625 -9.703125 9.15625 -10.015625 C 9.15625 -10.460938 9 -10.800781 8.6875 -11.03125 C 8.375 -11.269531 7.859375 -11.390625 7.140625 -11.390625 C 6.359375 -11.390625 5.617188 -11.21875 4.921875 -10.875 C 4.222656 -10.53125 3.613281 -10.078125 3.09375 -9.515625 L 2.84375 -9.515625 L 1.375 -11.71875 C 2.082031 -12.507812 2.945312 -13.125 3.96875 -13.5625 C 4.988281 -14 6.101562 -14.21875 7.3125 -14.21875 C 9.15625 -14.21875 10.488281 -13.820312 11.3125 -13.03125 C 12.144531 -12.25 12.5625 -11.140625 12.5625 -9.703125 L 12.5625 -3.640625 C 12.5625 -3.015625 12.835938 -2.703125 13.390625 -2.703125 C 13.597656 -2.703125 13.800781 -2.742188 14 -2.828125 L 14.1875 -2.765625 L 14.4375 -0.328125 C 14.238281 -0.203125 13.96875 -0.0976562 13.625 -0.015625 C 13.28125 0.0546875 12.898438 0.09375 12.484375 0.09375 C 11.648438 0.09375 11 -0.0625 10.53125 -0.375 C 10.0625 -0.695312 9.726562 -1.203125 9.53125 -1.890625 L 9.265625 -1.90625 C 8.578125 -0.457031 7.300781 0.265625 5.4375 0.265625 Z M 6.546875 -2.359375 C 7.359375 -2.359375 8.003906 -2.628906 8.484375 -3.171875 C 8.972656 -3.710938 9.21875 -4.46875 9.21875 -5.4375 L 9.21875 -6.859375 L 8.984375 -6.90625 C 8.773438 -6.738281 8.5 -6.597656 8.15625 -6.484375 C 7.8125 -6.367188 7.316406 -6.253906 6.671875 -6.140625 C 5.921875 -6.015625 5.378906 -5.796875 5.046875 -5.484375 C 4.710938 -5.179688 4.546875 -4.75 4.546875 -4.1875 C 4.546875 -3.582031 4.722656 -3.125 5.078125 -2.8125 C 5.429688 -2.507812 5.921875 -2.359375 6.546875 -2.359375 Z M 6.546875 -2.359375 "/></g></g></g><g fill="#423e3e" fill-opacity="1"><g transform="translate(134.41811, 96.694555)"><g><path d="M 5.796875 0.265625 C 4.535156 0.265625 3.570312 -0.0703125 2.90625 -0.75 C 2.25 -1.425781 1.921875 -2.457031 1.921875 -3.84375 L 1.921875 -19.5625 L 5.421875 -19.5625 L 5.421875 -3.984375 C 5.421875 -3.128906 5.773438 -2.703125 6.484375 -2.703125 C 6.691406 -2.703125 6.910156 -2.738281 7.140625 -2.8125 L 7.3125 -2.75 L 7.625 -0.0625 C 7.4375 0.0390625 7.179688 0.117188 6.859375 0.171875 C 6.535156 0.234375 6.179688 0.265625 5.796875 0.265625 Z M 5.796875 0.265625 "/></g></g></g><g fill="#423e3e" fill-opacity="1"><g transform="translate(142.434571, 96.694555)"><g><path d="M 6.390625 0.265625 C 4.816406 0.265625 3.65625 -0.160156 2.90625 -1.015625 C 2.164062 -1.867188 1.796875 -3.097656 1.796875 -4.703125 L 1.796875 -13.953125 L 5.296875 -13.953125 L 5.296875 -5.140625 C 5.296875 -4.296875 5.476562 -3.675781 5.84375 -3.28125 C 6.21875 -2.882812 6.785156 -2.6875 7.546875 -2.6875 C 8.515625 -2.6875 9.269531 -3.003906 9.8125 -3.640625 C 10.351562 -4.285156 10.625 -5.289062 10.625 -6.65625 L 10.625 -13.953125 L 14.125 -13.953125 L 14.125 0 L 10.765625 0 L 10.765625 -2.046875 L 10.5 -2.109375 C 10.050781 -1.304688 9.503906 -0.707031 8.859375 -0.3125 C 8.210938 0.0703125 7.390625 0.265625 6.390625 0.265625 Z M 6.390625 0.265625 "/></g></g></g><g fill="#423e3e" fill-opacity="1"><g transform="translate(158.568649, 96.694555)"><g><path d="M 13.78125 -6.1875 L 4.8125 -6.1875 C 4.914062 -4.96875 5.265625 -4.082031 5.859375 -3.53125 C 6.453125 -2.976562 7.253906 -2.703125 8.265625 -2.703125 C 9.066406 -2.703125 9.71875 -2.851562 10.21875 -3.15625 C 10.71875 -3.457031 11.117188 -3.910156 11.421875 -4.515625 L 11.6875 -4.515625 L 14.015625 -3.015625 C 13.554688 -2.046875 12.867188 -1.253906 11.953125 -0.640625 C 11.035156 -0.0351562 9.804688 0.265625 8.265625 0.265625 C 6.828125 0.265625 5.582031 -0.00390625 4.53125 -0.546875 C 3.476562 -1.097656 2.664062 -1.914062 2.09375 -3 C 1.53125 -4.082031 1.25 -5.40625 1.25 -6.96875 C 1.25 -8.550781 1.546875 -9.882812 2.140625 -10.96875 C 2.742188 -12.0625 3.554688 -12.875 4.578125 -13.40625 C 5.597656 -13.945312 6.742188 -14.21875 8.015625 -14.21875 C 9.992188 -14.21875 11.503906 -13.691406 12.546875 -12.640625 C 13.597656 -11.597656 14.125 -10.066406 14.125 -8.046875 C 14.125 -7.304688 14.097656 -6.738281 14.046875 -6.34375 Z M 10.78125 -8.453125 C 10.75 -9.515625 10.5 -10.285156 10.03125 -10.765625 C 9.570312 -11.253906 8.898438 -11.5 8.015625 -11.5 C 6.242188 -11.5 5.203125 -10.484375 4.890625 -8.453125 Z M 10.78125 -8.453125 "/></g></g></g></svg>