<svg xmlns="http://www.w3.org/2000/svg" xmlns:xlink="http://www.w3.org/1999/xlink" width="275" zoomAndPan="magnify" viewBox="0 0 206.25 187.499992" height="250" preserveAspectRatio="xMidYMid meet" version="1.0"><defs><g/><clipPath id="b26417c40a"><path d="M 6.664062 6.203125 L 198.839844 6.203125 L 198.839844 145.292969 L 6.664062 145.292969 Z M 6.664062 6.203125 " clip-rule="nonzero"/></clipPath><clipPath id="abe1b59df2"><path d="M 58.289062 151.675781 L 147.214844 151.675781 L 147.214844 179.699219 L 58.289062 179.699219 Z M 58.289062 151.675781 " clip-rule="nonzero"/></clipPath><clipPath id="0bf902d99f"><path d="M 18.683594 24.625 L 42.335938 24.625 L 42.335938 123.882812 L 18.683594 123.882812 Z M 18.683594 24.625 " clip-rule="nonzero"/></clipPath></defs><g clip-path="url(#b26417c40a)"><path fill="#ececec" d="M 6.664062 6.203125 L 198.839844 6.203125 L 198.839844 145.292969 L 6.664062 145.292969 Z M 6.664062 6.203125 " fill-opacity="1" fill-rule="nonzero"/></g><g clip-path="url(#abe1b59df2)"><path fill="#ffffff" d="M 58.289062 151.675781 L 147.214844 151.675781 L 147.214844 179.699219 L 58.289062 179.699219 Z M 58.289062 151.675781 " fill-opacity="1" fill-rule="nonzero"/></g><g fill="#423e3e" fill-opacity="1"><g transform="translate(70.069418, 172.139648)"><g><path d="M 4.011719 -10.769531 C 4.011719 -11.640625 4.75 -12.285156 5.980469 -12.285156 C 7.25 -12.285156 8.289062 -11.660156 8.78125 -10.46875 L 11.320312 -11.847656 C 10.46875 -13.875 8.59375 -15.046875 6.113281 -15.046875 C 3.3125 -15.046875 0.945312 -13.230469 0.945312 -10.582031 C 0.945312 -9.445312 1.402344 -8.5 2.082031 -7.835938 C 2.878906 -7.042969 4.109375 -6.511719 5.699219 -6.039062 C 7.855469 -5.394531 8.5 -4.996094 8.5 -4.125 C 8.5 -3.21875 7.570312 -2.554688 6.246094 -2.554688 C 4.75 -2.554688 3.578125 -3.332031 3.007812 -4.617188 L 0.359375 -3.253906 C 1.230469 -1.136719 3.351562 0.226562 6.152344 0.226562 C 9.652344 0.226562 11.585938 -1.742188 11.585938 -4.355469 C 11.585938 -6.851562 9.691406 -8.007812 6.398438 -8.953125 C 4.808594 -9.40625 4.011719 -9.84375 4.011719 -10.769531 Z M 4.011719 -10.769531 "/></g></g></g><g fill="#423e3e" fill-opacity="1"><g transform="translate(82.410014, 172.139648)"><g><path d="M 4.847656 0 L 7.894531 0 L 7.894531 -11.847656 L 12.339844 -11.847656 L 12.339844 -14.820312 L 0.398438 -14.820312 L 0.398438 -11.847656 L 4.847656 -11.847656 Z M 4.847656 0 "/></g></g></g><g fill="#423e3e" fill-opacity="1"><g transform="translate(95.148083, 172.139648)"><g><path d="M 3.066406 0 L 4.164062 -2.992188 L 10.734375 -2.992188 L 11.847656 0 L 15.011719 0 L 9.332031 -14.820312 L 5.640625 -14.820312 L -0.0195312 0 Z M 7.457031 -11.847656 L 9.691406 -5.828125 L 5.222656 -5.828125 Z M 7.457031 -11.847656 "/></g></g></g><g fill="#423e3e" fill-opacity="1"><g transform="translate(110.138502, 172.139648)"><g><path d="M 4.847656 0 L 7.894531 0 L 7.894531 -11.847656 L 12.339844 -11.847656 L 12.339844 -14.820312 L 0.398438 -14.820312 L 0.398438 -11.847656 L 4.847656 -11.847656 Z M 4.847656 0 "/></g></g></g><g fill="#423e3e" fill-opacity="1"><g transform="translate(122.876571, 172.139648)"><g><path d="M 1.722656 -14.820312 L 1.722656 0 L 11.472656 0 L 11.472656 -2.859375 L 4.75 -2.859375 L 4.75 -6.058594 L 10.734375 -6.058594 L 10.734375 -8.933594 L 4.75 -8.933594 L 4.75 -11.945312 L 11.433594 -11.945312 L 11.433594 -14.820312 Z M 1.722656 -14.820312 "/></g></g></g><g clip-path="url(#0bf902d99f)"><path fill="#56d84a" d="M 18.683594 24.625 L 42.335938 24.625 L 42.335938 123.882812 L 18.683594 123.882812 Z M 18.683594 24.625 " fill-opacity="1" fill-rule="nonzero"/></g><g fill="#423e3e" fill-opacity="1"><g transform="translate(54.001467, 65.268722)"><g><path d="M 3.25 0 L 3.25 -22.5625 L 8.703125 -22.5625 L 8.703125 -19.25 L 9.125 -19.15625 C 10.53125 -21.71875 12.804688 -23 15.953125 -23 C 18.566406 -23 20.484375 -22.289062 21.703125 -20.875 C 22.921875 -19.457031 23.53125 -17.390625 23.53125 -14.671875 L 23.53125 0 L 17.859375 0 L 17.859375 -13.96875 C 17.859375 -15.46875 17.554688 -16.550781 16.953125 -17.21875 C 16.359375 -17.882812 15.398438 -18.21875 14.078125 -18.21875 C 12.453125 -18.21875 11.1875 -17.691406 10.28125 -16.640625 C 9.375 -15.585938 8.921875 -13.9375 8.921875 -11.6875 L 8.921875 0 Z M 3.25 0 "/></g></g></g><g fill="#423e3e" fill-opacity="1"><g transform="translate(80.438388, 65.268722)"><g><path d="M 8.796875 0.4375 C 7.347656 0.4375 6.09375 0.171875 5.03125 -0.359375 C 3.96875 -0.898438 3.148438 -1.679688 2.578125 -2.703125 C 2.003906 -3.734375 1.71875 -4.972656 1.71875 -6.421875 C 1.71875 -7.765625 2.003906 -8.890625 2.578125 -9.796875 C 3.148438 -10.703125 4.035156 -11.441406 5.234375 -12.015625 C 6.429688 -12.597656 8 -13.046875 9.9375 -13.359375 C 11.289062 -13.578125 12.316406 -13.816406 13.015625 -14.078125 C 13.722656 -14.335938 14.195312 -14.628906 14.4375 -14.953125 C 14.6875 -15.285156 14.8125 -15.703125 14.8125 -16.203125 C 14.8125 -16.929688 14.554688 -17.484375 14.046875 -17.859375 C 13.546875 -18.242188 12.710938 -18.4375 11.546875 -18.4375 C 10.285156 -18.4375 9.085938 -18.15625 7.953125 -17.59375 C 6.828125 -17.039062 5.847656 -16.304688 5.015625 -15.390625 L 4.609375 -15.390625 L 2.234375 -18.96875 C 3.378906 -20.238281 4.773438 -21.226562 6.421875 -21.9375 C 8.078125 -22.644531 9.878906 -23 11.828125 -23 C 14.816406 -23 16.976562 -22.363281 18.3125 -21.09375 C 19.644531 -19.820312 20.3125 -18.019531 20.3125 -15.6875 L 20.3125 -5.890625 C 20.3125 -4.878906 20.757812 -4.375 21.65625 -4.375 C 21.988281 -4.375 22.320312 -4.4375 22.65625 -4.5625 L 22.9375 -4.484375 L 23.34375 -0.53125 C 23.03125 -0.320312 22.59375 -0.15625 22.03125 -0.03125 C 21.476562 0.09375 20.867188 0.15625 20.203125 0.15625 C 18.847656 0.15625 17.789062 -0.0976562 17.03125 -0.609375 C 16.28125 -1.128906 15.738281 -1.941406 15.40625 -3.046875 L 14.984375 -3.09375 C 13.878906 -0.738281 11.816406 0.4375 8.796875 0.4375 Z M 10.59375 -3.8125 C 11.90625 -3.8125 12.953125 -4.25 13.734375 -5.125 C 14.523438 -6.007812 14.921875 -7.234375 14.921875 -8.796875 L 14.921875 -11.09375 L 14.53125 -11.171875 C 14.1875 -10.898438 13.738281 -10.671875 13.1875 -10.484375 C 12.632812 -10.296875 11.835938 -10.113281 10.796875 -9.9375 C 9.578125 -9.738281 8.695312 -9.390625 8.15625 -8.890625 C 7.613281 -8.390625 7.34375 -7.679688 7.34375 -6.765625 C 7.34375 -5.796875 7.628906 -5.0625 8.203125 -4.5625 C 8.773438 -4.0625 9.570312 -3.8125 10.59375 -3.8125 Z M 10.59375 -3.8125 "/></g></g></g><g fill="#423e3e" fill-opacity="1"><g transform="translate(104.235715, 65.268722)"><g><path d="M 3.25 0 L 3.25 -22.5625 L 8.703125 -22.5625 L 8.703125 -19.546875 L 9.125 -19.453125 C 9.863281 -20.671875 10.726562 -21.566406 11.71875 -22.140625 C 12.707031 -22.710938 13.972656 -23 15.515625 -23 C 17.210938 -23 18.578125 -22.660156 19.609375 -21.984375 C 20.648438 -21.304688 21.410156 -20.320312 21.890625 -19.03125 L 22.328125 -19.03125 C 23.023438 -20.382812 23.921875 -21.382812 25.015625 -22.03125 C 26.109375 -22.675781 27.476562 -23 29.125 -23 C 33.800781 -23 36.140625 -20.394531 36.140625 -15.1875 L 36.140625 0 L 30.46875 0 L 30.46875 -14.46875 C 30.46875 -15.789062 30.207031 -16.742188 29.6875 -17.328125 C 29.164062 -17.921875 28.332031 -18.21875 27.1875 -18.21875 C 24.082031 -18.21875 22.53125 -16.132812 22.53125 -11.96875 L 22.53125 0 L 16.859375 0 L 16.859375 -14.46875 C 16.859375 -15.789062 16.59375 -16.742188 16.0625 -17.328125 C 15.539062 -17.921875 14.707031 -18.21875 13.5625 -18.21875 C 12.101562 -18.21875 10.960938 -17.726562 10.140625 -16.75 C 9.328125 -15.769531 8.921875 -14.21875 8.921875 -12.09375 L 8.921875 0 Z M 3.25 0 "/></g></g></g><g fill="#423e3e" fill-opacity="1"><g transform="translate(143.277236, 65.268722)"><g><path d="M 22.296875 -10 L 7.796875 -10 C 7.960938 -8.039062 8.519531 -6.613281 9.46875 -5.71875 C 10.425781 -4.820312 11.726562 -4.375 13.375 -4.375 C 14.675781 -4.375 15.726562 -4.613281 16.53125 -5.09375 C 17.332031 -5.582031 17.984375 -6.320312 18.484375 -7.3125 L 18.90625 -7.3125 L 22.671875 -4.890625 C 21.929688 -3.304688 20.816406 -2.019531 19.328125 -1.03125 C 17.847656 -0.0507812 15.863281 0.4375 13.375 0.4375 C 11.050781 0.4375 9.035156 -0.00390625 7.328125 -0.890625 C 5.628906 -1.785156 4.320312 -3.109375 3.40625 -4.859375 C 2.488281 -6.609375 2.03125 -8.75 2.03125 -11.28125 C 2.03125 -13.84375 2.515625 -16.003906 3.484375 -17.765625 C 4.453125 -19.523438 5.757812 -20.835938 7.40625 -21.703125 C 9.0625 -22.566406 10.914062 -23 12.96875 -23 C 16.164062 -23 18.613281 -22.148438 20.3125 -20.453125 C 22.007812 -18.765625 22.859375 -16.285156 22.859375 -13.015625 C 22.859375 -11.828125 22.816406 -10.90625 22.734375 -10.25 Z M 17.4375 -13.671875 C 17.382812 -15.390625 16.984375 -16.640625 16.234375 -17.421875 C 15.492188 -18.203125 14.40625 -18.59375 12.96875 -18.59375 C 10.101562 -18.59375 8.421875 -16.953125 7.921875 -13.671875 Z M 17.4375 -13.671875 "/></g></g></g><g fill="#423e3e" fill-opacity="1"><g transform="translate(105.370069, 97.99772)"><g><path d="M 10.875 0 L 6.15625 0 L 0.296875 -15.8125 L 4.453125 -15.8125 L 8.390625 -4.546875 L 8.71875 -4.546875 L 12.65625 -15.8125 L 16.71875 -15.8125 Z M 10.875 0 "/></g></g></g><g fill="#423e3e" fill-opacity="1"><g transform="translate(122.369127, 97.99772)"><g><path d="M 6.171875 0.296875 C 5.148438 0.296875 4.265625 0.113281 3.515625 -0.25 C 2.773438 -0.625 2.203125 -1.171875 1.796875 -1.890625 C 1.398438 -2.617188 1.203125 -3.488281 1.203125 -4.5 C 1.203125 -5.4375 1.398438 -6.222656 1.796875 -6.859375 C 2.203125 -7.492188 2.828125 -8.015625 3.671875 -8.421875 C 4.515625 -8.828125 5.613281 -9.140625 6.96875 -9.359375 C 7.914062 -9.515625 8.632812 -9.679688 9.125 -9.859375 C 9.613281 -10.046875 9.941406 -10.253906 10.109375 -10.484375 C 10.285156 -10.710938 10.375 -11.003906 10.375 -11.359375 C 10.375 -11.859375 10.195312 -12.242188 9.84375 -12.515625 C 9.488281 -12.785156 8.898438 -12.921875 8.078125 -12.921875 C 7.203125 -12.921875 6.367188 -12.722656 5.578125 -12.328125 C 4.785156 -11.929688 4.097656 -11.414062 3.515625 -10.78125 L 3.21875 -10.78125 L 1.5625 -13.296875 C 2.363281 -14.179688 3.34375 -14.867188 4.5 -15.359375 C 5.65625 -15.859375 6.914062 -16.109375 8.28125 -16.109375 C 10.375 -16.109375 11.890625 -15.664062 12.828125 -14.78125 C 13.765625 -13.894531 14.234375 -12.632812 14.234375 -11 L 14.234375 -4.125 C 14.234375 -3.414062 14.546875 -3.0625 15.171875 -3.0625 C 15.410156 -3.0625 15.644531 -3.109375 15.875 -3.203125 L 16.0625 -3.140625 L 16.359375 -0.375 C 16.140625 -0.226562 15.832031 -0.109375 15.4375 -0.015625 C 15.050781 0.0664062 14.625 0.109375 14.15625 0.109375 C 13.207031 0.109375 12.46875 -0.0664062 11.9375 -0.421875 C 11.40625 -0.785156 11.023438 -1.359375 10.796875 -2.140625 L 10.5 -2.171875 C 9.71875 -0.523438 8.273438 0.296875 6.171875 0.296875 Z M 7.421875 -2.671875 C 8.335938 -2.671875 9.070312 -2.976562 9.625 -3.59375 C 10.175781 -4.207031 10.453125 -5.066406 10.453125 -6.171875 L 10.453125 -7.765625 L 10.171875 -7.828125 C 9.929688 -7.640625 9.617188 -7.476562 9.234375 -7.34375 C 8.847656 -7.21875 8.289062 -7.09375 7.5625 -6.96875 C 6.707031 -6.820312 6.085938 -6.570312 5.703125 -6.21875 C 5.328125 -5.875 5.140625 -5.382812 5.140625 -4.75 C 5.140625 -4.070312 5.335938 -3.554688 5.734375 -3.203125 C 6.140625 -2.847656 6.703125 -2.671875 7.421875 -2.671875 Z M 7.421875 -2.671875 "/></g></g></g><g fill="#423e3e" fill-opacity="1"><g transform="translate(139.038524, 97.99772)"><g><path d="M 6.5625 0.296875 C 5.144531 0.296875 4.054688 -0.0820312 3.296875 -0.84375 C 2.546875 -1.613281 2.171875 -2.785156 2.171875 -4.359375 L 2.171875 -22.15625 L 6.15625 -22.15625 L 6.15625 -4.515625 C 6.15625 -3.546875 6.554688 -3.0625 7.359375 -3.0625 C 7.585938 -3.0625 7.828125 -3.101562 8.078125 -3.1875 L 8.28125 -3.125 L 8.640625 -0.078125 C 8.421875 0.0351562 8.128906 0.125 7.765625 0.1875 C 7.398438 0.257812 7 0.296875 6.5625 0.296875 Z M 6.5625 0.296875 "/></g></g></g><g fill="#423e3e" fill-opacity="1"><g transform="translate(148.12571, 97.99772)"><g><path d="M 7.234375 0.296875 C 5.460938 0.296875 4.148438 -0.1875 3.296875 -1.15625 C 2.453125 -2.125 2.03125 -3.515625 2.03125 -5.328125 L 2.03125 -15.8125 L 6 -15.8125 L 6 -5.828125 C 6 -4.867188 6.207031 -4.164062 6.625 -3.71875 C 7.039062 -3.269531 7.6875 -3.046875 8.5625 -3.046875 C 9.65625 -3.046875 10.507812 -3.40625 11.125 -4.125 C 11.738281 -4.851562 12.046875 -5.992188 12.046875 -7.546875 L 12.046875 -15.8125 L 16.015625 -15.8125 L 16.015625 0 L 12.203125 0 L 12.203125 -2.328125 L 11.90625 -2.390625 C 11.394531 -1.484375 10.773438 -0.804688 10.046875 -0.359375 C 9.316406 0.078125 8.378906 0.296875 7.234375 0.296875 Z M 7.234375 0.296875 "/></g></g></g><g fill="#423e3e" fill-opacity="1"><g transform="translate(166.414747, 97.99772)"><g><path d="M 15.625 -7.015625 L 5.46875 -7.015625 C 5.582031 -5.640625 5.972656 -4.632812 6.640625 -4 C 7.304688 -3.375 8.21875 -3.0625 9.375 -3.0625 C 10.28125 -3.0625 11.015625 -3.226562 11.578125 -3.5625 C 12.140625 -3.90625 12.59375 -4.425781 12.9375 -5.125 L 13.25 -5.125 L 15.890625 -3.421875 C 15.367188 -2.316406 14.585938 -1.421875 13.546875 -0.734375 C 12.503906 -0.046875 11.113281 0.296875 9.375 0.296875 C 7.738281 0.296875 6.328125 -0.0078125 5.140625 -0.625 C 3.953125 -1.25 3.035156 -2.175781 2.390625 -3.40625 C 1.742188 -4.632812 1.421875 -6.132812 1.421875 -7.90625 C 1.421875 -9.695312 1.757812 -11.207031 2.4375 -12.4375 C 3.113281 -13.675781 4.03125 -14.597656 5.1875 -15.203125 C 6.34375 -15.804688 7.644531 -16.109375 9.09375 -16.109375 C 11.320312 -16.109375 13.03125 -15.515625 14.21875 -14.328125 C 15.414062 -13.148438 16.015625 -11.414062 16.015625 -9.125 C 16.015625 -8.289062 15.984375 -7.644531 15.921875 -7.1875 Z M 12.21875 -9.578125 C 12.175781 -10.773438 11.894531 -11.648438 11.375 -12.203125 C 10.851562 -12.753906 10.09375 -13.03125 9.09375 -13.03125 C 7.082031 -13.03125 5.898438 -11.878906 5.546875 -9.578125 Z M 12.21875 -9.578125 "/></g></g></g></svg>