<svg xmlns="http://www.w3.org/2000/svg" xmlns:xlink="http://www.w3.org/1999/xlink" width="300" zoomAndPan="magnify" viewBox="0 0 224.87999 168.749997" height="225" preserveAspectRatio="xMidYMid meet" version="1.0"><defs><g/><clipPath id="549ba02e27"><path d="M 5.984375 6.058594 L 219.1875 6.058594 L 219.1875 162.441406 L 5.984375 162.441406 Z M 5.984375 6.058594 " clip-rule="nonzero"/></clipPath><clipPath id="c2fe341622"><path d="M 60.214844 60.546875 L 184.828125 60.546875 L 184.828125 84.25 L 60.214844 84.25 Z M 60.214844 60.546875 " clip-rule="nonzero"/></clipPath><clipPath id="855f7e10f5"><path d="M 40.335938 60.550781 L 69.273438 60.550781 L 69.273438 84.253906 L 40.335938 84.253906 Z M 40.335938 60.550781 " clip-rule="nonzero"/></clipPath><clipPath id="85c39e22af"><path d="M 71.992188 60.550781 L 100.933594 60.550781 L 100.933594 84.253906 L 71.992188 84.253906 Z M 71.992188 60.550781 " clip-rule="nonzero"/></clipPath><clipPath id="08d9f91bb4"><path d="M 100.933594 60.550781 L 119.964844 60.550781 L 119.964844 84.253906 L 100.933594 84.253906 Z M 100.933594 60.550781 " clip-rule="nonzero"/></clipPath><clipPath id="d34eb0fa6e"><path d="M 119.210938 60.546875 L 140.632812 60.546875 L 140.632812 84.25 L 119.210938 84.25 Z M 119.210938 60.546875 " clip-rule="nonzero"/></clipPath><clipPath id="0ae3c4ade1"><path d="M 140.628906 60.546875 L 184.824219 60.546875 L 184.824219 84.25 L 140.628906 84.25 Z M 140.628906 60.546875 " clip-rule="nonzero"/></clipPath></defs><g clip-path="url(#549ba02e27)"><path fill="#ececec" d="M 5.984375 6.058594 L 219.179688 6.058594 L 219.179688 162.441406 L 5.984375 162.441406 Z M 5.984375 6.058594 " fill-opacity="1" fill-rule="nonzero"/></g><g fill="#423e3e" fill-opacity="1"><g transform="translate(27.925752, 145.878556)"><g><path d="M 4.015625 -10.796875 C 4.015625 -10.328125 4.210938 -9.960938 4.609375 -9.703125 C 5.015625 -9.441406 5.613281 -9.195312 6.40625 -8.96875 C 7.507812 -8.65625 8.445312 -8.300781 9.21875 -7.90625 C 10 -7.519531 10.59375 -7.039062 11 -6.46875 C 11.40625 -5.894531 11.609375 -5.191406 11.609375 -4.359375 C 11.609375 -3.484375 11.398438 -2.703125 10.984375 -2.015625 C 10.566406 -1.328125 9.953125 -0.78125 9.140625 -0.375 C 8.328125 0.03125 7.335938 0.234375 6.171875 0.234375 C 4.765625 0.234375 3.554688 -0.0820312 2.546875 -0.71875 C 1.535156 -1.351562 0.804688 -2.203125 0.359375 -3.265625 L 3.015625 -4.625 C 3.304688 -3.976562 3.734375 -3.472656 4.296875 -3.109375 C 4.859375 -2.742188 5.515625 -2.5625 6.265625 -2.5625 C 6.929688 -2.5625 7.472656 -2.707031 7.890625 -3 C 8.304688 -3.300781 8.515625 -3.679688 8.515625 -4.140625 C 8.515625 -4.429688 8.429688 -4.679688 8.265625 -4.890625 C 8.109375 -5.097656 7.820312 -5.289062 7.40625 -5.46875 C 7 -5.644531 6.429688 -5.835938 5.703125 -6.046875 C 4.910156 -6.285156 4.207031 -6.546875 3.59375 -6.828125 C 2.988281 -7.117188 2.488281 -7.460938 2.09375 -7.859375 C 1.75 -8.179688 1.472656 -8.578125 1.265625 -9.046875 C 1.054688 -9.515625 0.953125 -10.035156 0.953125 -10.609375 C 0.953125 -11.492188 1.1875 -12.269531 1.65625 -12.9375 C 2.132812 -13.601562 2.765625 -14.125 3.546875 -14.5 C 4.328125 -14.882812 5.1875 -15.078125 6.125 -15.078125 C 7.363281 -15.078125 8.4375 -14.796875 9.34375 -14.234375 C 10.25 -13.671875 10.914062 -12.882812 11.34375 -11.875 L 8.796875 -10.484375 C 8.554688 -11.078125 8.1875 -11.53125 7.6875 -11.84375 C 7.1875 -12.15625 6.625 -12.3125 6 -12.3125 C 5.375 -12.3125 4.882812 -12.164062 4.53125 -11.875 C 4.1875 -11.59375 4.015625 -11.234375 4.015625 -10.796875 Z M 4.015625 -10.796875 "/></g></g></g><g fill="#423e3e" fill-opacity="1"><g transform="translate(40.292901, 145.878556)"><g><path d="M 4.859375 0 L 4.859375 -11.875 L 0.390625 -11.875 L 0.390625 -14.859375 L 12.375 -14.859375 L 12.375 -11.875 L 7.90625 -11.875 L 7.90625 0 Z M 4.859375 0 "/></g></g></g><g fill="#423e3e" fill-opacity="1"><g transform="translate(53.058378, 145.878556)"><g><path d="M 3.078125 0 L -0.015625 0 L 5.65625 -14.859375 L 9.359375 -14.859375 L 15.046875 0 L 11.875 0 L 10.75 -3 L 4.171875 -3 Z M 7.46875 -11.875 L 5.234375 -5.84375 L 9.71875 -5.84375 Z M 7.46875 -11.875 "/></g></g></g><g fill="#423e3e" fill-opacity="1"><g transform="translate(68.081051, 145.878556)"><g><path d="M 4.859375 0 L 4.859375 -11.875 L 0.390625 -11.875 L 0.390625 -14.859375 L 12.375 -14.859375 L 12.375 -11.875 L 7.90625 -11.875 L 7.90625 0 Z M 4.859375 0 "/></g></g></g><g fill="#423e3e" fill-opacity="1"><g transform="translate(80.846528, 145.878556)"><g><path d="M 1.71875 -14.859375 L 11.453125 -14.859375 L 11.453125 -11.96875 L 4.765625 -11.96875 L 4.765625 -8.953125 L 10.75 -8.953125 L 10.75 -6.0625 L 4.765625 -6.0625 L 4.765625 -2.859375 L 11.5 -2.859375 L 11.5 0 L 1.71875 0 Z M 1.71875 -14.859375 "/></g></g></g><g fill="#423e3e" fill-opacity="1"><g transform="translate(93.422325, 145.878556)"><g/></g></g><g fill="#423e3e" fill-opacity="1"><g transform="translate(98.183292, 145.878556)"><g><path d="M 4.859375 0 L 4.859375 -11.875 L 0.390625 -11.875 L 0.390625 -14.859375 L 12.375 -14.859375 L 12.375 -11.875 L 7.90625 -11.875 L 7.90625 0 Z M 4.859375 0 "/></g></g></g><g fill="#423e3e" fill-opacity="1"><g transform="translate(110.948769, 145.878556)"><g><path d="M 4.796875 -14.859375 L 4.796875 0 L 1.71875 0 L 1.71875 -14.859375 Z M 4.796875 -14.859375 "/></g></g></g><g fill="#423e3e" fill-opacity="1"><g transform="translate(117.492739, 145.878556)"><g><path d="M 15.0625 -9.8125 L 10.921875 0 L 8.875 0 L 4.765625 -9.734375 L 4.75 -9.734375 L 4.75 0 L 1.71875 0 L 1.71875 -14.859375 L 5.6875 -14.859375 L 9.90625 -4.890625 L 14.03125 -14.859375 L 18.109375 -14.859375 L 18.109375 0 L 15.078125 0 L 15.078125 -9.8125 Z M 15.0625 -9.8125 "/></g></g></g><g fill="#423e3e" fill-opacity="1"><g transform="translate(137.333287, 145.878556)"><g><path d="M 1.71875 -14.859375 L 11.453125 -14.859375 L 11.453125 -11.96875 L 4.765625 -11.96875 L 4.765625 -8.953125 L 10.75 -8.953125 L 10.75 -6.0625 L 4.765625 -6.0625 L 4.765625 -2.859375 L 11.5 -2.859375 L 11.5 0 L 1.71875 0 Z M 1.71875 -14.859375 "/></g></g></g><g fill="#423e3e" fill-opacity="1"><g transform="translate(149.909084, 145.878556)"><g><path d="M 1.71875 -14.859375 L 4.78125 -14.859375 L 4.78125 -2.921875 L 11.140625 -2.921875 L 11.140625 0 L 1.71875 0 Z M 1.71875 -14.859375 "/></g></g></g><g fill="#423e3e" fill-opacity="1"><g transform="translate(161.365762, 145.878556)"><g><path d="M 4.796875 -14.859375 L 4.796875 0 L 1.71875 0 L 1.71875 -14.859375 Z M 4.796875 -14.859375 "/></g></g></g><g fill="#423e3e" fill-opacity="1"><g transform="translate(167.909732, 145.878556)"><g><path d="M 4.765625 -10.25 L 4.765625 0 L 1.71875 0 L 1.71875 -14.859375 L 5.234375 -14.859375 L 11.6875 -5.15625 L 11.6875 -14.859375 L 14.71875 -14.859375 L 14.71875 0 L 11.59375 0 Z M 4.765625 -10.25 "/></g></g></g><g fill="#423e3e" fill-opacity="1"><g transform="translate(184.373976, 145.878556)"><g><path d="M 1.71875 -14.859375 L 11.453125 -14.859375 L 11.453125 -11.96875 L 4.765625 -11.96875 L 4.765625 -8.953125 L 10.75 -8.953125 L 10.75 -6.0625 L 4.765625 -6.0625 L 4.765625 -2.859375 L 11.5 -2.859375 L 11.5 0 L 1.71875 0 Z M 1.71875 -14.859375 "/></g></g></g><g clip-path="url(#c2fe341622)"><path fill="#9eff95" d="M 184.828125 60.546875 L 184.828125 84.25 L 60.199219 84.25 L 60.199219 60.546875 Z M 184.828125 60.546875 " fill-opacity="1" fill-rule="nonzero"/></g><g clip-path="url(#855f7e10f5)"><path fill="#56d84a" d="M 69.273438 60.550781 L 69.273438 84.253906 L 40.292969 84.253906 L 40.292969 60.550781 Z M 69.273438 60.550781 " fill-opacity="1" fill-rule="nonzero"/></g><g clip-path="url(#85c39e22af)"><path fill="#56d84a" d="M 100.933594 60.550781 L 100.933594 84.253906 L 71.953125 84.253906 L 71.953125 60.550781 Z M 100.933594 60.550781 " fill-opacity="1" fill-rule="nonzero"/></g><g clip-path="url(#08d9f91bb4)"><path fill="#f5d228" d="M 119.964844 60.550781 L 119.964844 84.261719 L 100.933594 84.261719 L 100.933594 60.550781 Z M 119.964844 60.550781 " fill-opacity="1" fill-rule="nonzero"/></g><g clip-path="url(#d34eb0fa6e)"><path fill="#61d6d6" d="M 140.632812 60.546875 L 140.632812 84.226562 L 119.210938 84.226562 L 119.210938 60.546875 Z M 140.632812 60.546875 " fill-opacity="1" fill-rule="nonzero"/></g><g clip-path="url(#0ae3c4ade1)"><path fill="#f03241" d="M 184.824219 60.546875 L 184.824219 84.25 L 140.660156 84.25 L 140.660156 60.546875 Z M 184.824219 60.546875 " fill-opacity="1" fill-rule="nonzero"/></g></svg>