<svg xmlns="http://www.w3.org/2000/svg" xmlns:xlink="http://www.w3.org/1999/xlink" width="61" zoomAndPan="magnify" viewBox="0 0 45.75 30.000001" height="40" preserveAspectRatio="xMidYMid meet" version="1.2"><defs><clipPath id="944f1e74f8"><path d="M 0.617188 0 L 44.890625 0 L 44.890625 29.03125 L 0.617188 29.03125 Z M 0.617188 0 "/></clipPath><clipPath id="c1d73d53ef"><path d="M 14.292969 0.902344 L 32.023438 0.902344 L 32.023438 18.628906 L 14.292969 18.628906 Z M 14.292969 0.902344 "/></clipPath><clipPath id="bf1f9a6b3a"><path d="M 23.160156 0.902344 C 18.261719 0.902344 14.292969 4.871094 14.292969 9.765625 C 14.292969 14.660156 18.261719 18.628906 23.160156 18.628906 C 28.054688 18.628906 32.023438 14.660156 32.023438 9.765625 C 32.023438 4.871094 28.054688 0.902344 23.160156 0.902344 Z M 23.160156 0.902344 "/></clipPath><clipPath id="cbbcecc399"><path d="M 16.730469 4.449219 L 30.628906 4.449219 L 30.628906 15 L 16.730469 15 Z M 16.730469 4.449219 "/></clipPath></defs><g id="e18bf6fe84"><g clip-rule="nonzero" clip-path="url(#944f1e74f8)"><path style=" stroke:none;fill-rule:nonzero;fill:#ffffff;fill-opacity:1;" d="M 0.617188 0 L 44.890625 0 L 44.890625 29.03125 L 0.617188 29.03125 Z M 0.617188 0 "/><path style=" stroke:none;fill-rule:nonzero;fill:#ffffff;fill-opacity:1;" d="M 0.617188 0 L 44.890625 0 L 44.890625 29.03125 L 0.617188 29.03125 Z M 0.617188 0 "/></g><path style="fill:none;stroke-width:32;stroke-linecap:round;stroke-linejoin:miter;stroke:#423e3e;stroke-opacity:1;stroke-miterlimit:4;" d="M 15.989866 15.991685 L 100.731718 15.991685 " transform="matrix(0.185352,0,0,0.185352,12.340942,22.199979)"/><g clip-rule="nonzero" clip-path="url(#c1d73d53ef)"><g clip-rule="nonzero" clip-path="url(#bf1f9a6b3a)"><path style=" stroke:none;fill-rule:nonzero;fill:#625e5e;fill-opacity:1;" d="M 14.292969 0.902344 L 32.023438 0.902344 L 32.023438 18.628906 L 14.292969 18.628906 Z M 14.292969 0.902344 "/></g></g><path style="fill:none;stroke-width:17;stroke-linecap:butt;stroke-linejoin:miter;stroke:#625e5e;stroke-opacity:1;stroke-miterlimit:4;" d="M -0.00328802 8.491911 L 116.687992 8.491911 " transform="matrix(0.185352,-0.000000000000000023,0.000000000000000023,0.185352,7.547484,8.004136)"/><g clip-rule="nonzero" clip-path="url(#cbbcecc399)"><path style=" stroke:none;fill-rule:nonzero;fill:#c8cbcb;fill-opacity:1;" d="M 29.660156 4.457031 C 29.445312 4.464844 29.257812 4.542969 29.109375 4.699219 L 20.832031 12.976562 L 18.183594 10.328125 C 18.027344 10.167969 17.835938 10.085938 17.609375 10.082031 C 17.382812 10.082031 17.191406 10.160156 17.03125 10.316406 C 16.875 10.476562 16.796875 10.667969 16.796875 10.894531 C 16.800781 11.121094 16.882812 11.3125 17.042969 11.46875 L 20.261719 14.683594 C 20.417969 14.839844 20.609375 14.917969 20.832031 14.917969 C 21.050781 14.917969 21.242188 14.839844 21.398438 14.683594 L 30.246094 5.835938 C 30.363281 5.722656 30.441406 5.582031 30.472656 5.421875 C 30.503906 5.257812 30.488281 5.101562 30.425781 4.949219 C 30.359375 4.792969 30.257812 4.671875 30.117188 4.582031 C 29.980469 4.496094 29.828125 4.453125 29.660156 4.457031 Z M 29.660156 4.457031 "/></g></g></svg>