<svg xmlns="http://www.w3.org/2000/svg" xmlns:xlink="http://www.w3.org/1999/xlink" width="300" zoomAndPan="magnify" viewBox="0 0 224.87999 168.749997" height="225" preserveAspectRatio="xMidYMid meet" version="1.0"><defs><g/><clipPath id="8ca6e1e0c2"><path d="M 5.984375 6.179688 L 219.1875 6.179688 L 219.1875 162.5625 L 5.984375 162.5625 Z M 5.984375 6.179688 " clip-rule="nonzero"/></clipPath><clipPath id="4a48cdd383"><path d="M 91.457031 25.238281 L 148.976562 25.238281 L 148.976562 82.757812 L 91.457031 82.757812 Z M 91.457031 25.238281 " clip-rule="nonzero"/></clipPath><clipPath id="0b0b4881b5"><path d="M 120.214844 25.238281 C 104.332031 25.238281 91.457031 38.113281 91.457031 53.996094 C 91.457031 69.882812 104.332031 82.757812 120.214844 82.757812 C 136.101562 82.757812 148.976562 69.882812 148.976562 53.996094 C 148.976562 38.113281 136.101562 25.238281 120.214844 25.238281 Z M 120.214844 25.238281 " clip-rule="nonzero"/></clipPath><clipPath id="bf3a6d521c"><path d="M 99.355469 36.753906 L 144.457031 36.753906 L 144.457031 71 L 99.355469 71 Z M 99.355469 36.753906 " clip-rule="nonzero"/></clipPath></defs><g clip-path="url(#8ca6e1e0c2)"><path fill="#ececec" d="M 5.984375 6.179688 L 219.179688 6.179688 L 219.179688 162.5625 L 5.984375 162.5625 Z M 5.984375 6.179688 " fill-opacity="1" fill-rule="nonzero"/></g><g fill="#423e3e" fill-opacity="1"><g transform="translate(67.239395, 145.878556)"><g><path d="M 4.015625 -10.796875 C 4.015625 -10.328125 4.210938 -9.960938 4.609375 -9.703125 C 5.015625 -9.441406 5.613281 -9.195312 6.40625 -8.96875 C 7.507812 -8.65625 8.445312 -8.300781 9.21875 -7.90625 C 10 -7.519531 10.59375 -7.039062 11 -6.46875 C 11.40625 -5.894531 11.609375 -5.191406 11.609375 -4.359375 C 11.609375 -3.484375 11.398438 -2.703125 10.984375 -2.015625 C 10.566406 -1.328125 9.953125 -0.78125 9.140625 -0.375 C 8.328125 0.03125 7.335938 0.234375 6.171875 0.234375 C 4.765625 0.234375 3.554688 -0.0820312 2.546875 -0.71875 C 1.535156 -1.351562 0.804688 -2.203125 0.359375 -3.265625 L 3.015625 -4.625 C 3.304688 -3.976562 3.734375 -3.472656 4.296875 -3.109375 C 4.859375 -2.742188 5.515625 -2.5625 6.265625 -2.5625 C 6.929688 -2.5625 7.472656 -2.707031 7.890625 -3 C 8.304688 -3.300781 8.515625 -3.679688 8.515625 -4.140625 C 8.515625 -4.429688 8.429688 -4.679688 8.265625 -4.890625 C 8.109375 -5.097656 7.820312 -5.289062 7.40625 -5.46875 C 7 -5.644531 6.429688 -5.835938 5.703125 -6.046875 C 4.910156 -6.285156 4.207031 -6.546875 3.59375 -6.828125 C 2.988281 -7.117188 2.488281 -7.460938 2.09375 -7.859375 C 1.75 -8.179688 1.472656 -8.578125 1.265625 -9.046875 C 1.054688 -9.515625 0.953125 -10.035156 0.953125 -10.609375 C 0.953125 -11.492188 1.1875 -12.269531 1.65625 -12.9375 C 2.132812 -13.601562 2.765625 -14.125 3.546875 -14.5 C 4.328125 -14.882812 5.1875 -15.078125 6.125 -15.078125 C 7.363281 -15.078125 8.4375 -14.796875 9.34375 -14.234375 C 10.25 -13.671875 10.914062 -12.882812 11.34375 -11.875 L 8.796875 -10.484375 C 8.554688 -11.078125 8.1875 -11.53125 7.6875 -11.84375 C 7.1875 -12.15625 6.625 -12.3125 6 -12.3125 C 5.375 -12.3125 4.882812 -12.164062 4.53125 -11.875 C 4.1875 -11.59375 4.015625 -11.234375 4.015625 -10.796875 Z M 4.015625 -10.796875 "/></g></g></g><g fill="#423e3e" fill-opacity="1"><g transform="translate(79.606544, 145.878556)"><g><path d="M 4.859375 0 L 4.859375 -11.875 L 0.390625 -11.875 L 0.390625 -14.859375 L 12.375 -14.859375 L 12.375 -11.875 L 7.90625 -11.875 L 7.90625 0 Z M 4.859375 0 "/></g></g></g><g fill="#423e3e" fill-opacity="1"><g transform="translate(92.372021, 145.878556)"><g><path d="M 1.71875 -14.859375 L 11.453125 -14.859375 L 11.453125 -11.96875 L 4.765625 -11.96875 L 4.765625 -8.953125 L 10.75 -8.953125 L 10.75 -6.0625 L 4.765625 -6.0625 L 4.765625 -2.859375 L 11.5 -2.859375 L 11.5 0 L 1.71875 0 Z M 1.71875 -14.859375 "/></g></g></g><g fill="#423e3e" fill-opacity="1"><g transform="translate(104.947819, 145.878556)"><g><path d="M 12.5625 -10.09375 C 12.5625 -9 12.320312 -8.09375 11.84375 -7.375 C 11.375 -6.65625 10.726562 -6.117188 9.90625 -5.765625 C 9.09375 -5.410156 8.164062 -5.234375 7.125 -5.234375 L 4.796875 -5.234375 L 4.796875 0 L 1.71875 0 L 1.71875 -14.859375 L 7.25 -14.859375 C 8.25 -14.859375 9.144531 -14.679688 9.9375 -14.328125 C 10.738281 -13.972656 11.375 -13.441406 11.84375 -12.734375 C 12.320312 -12.023438 12.5625 -11.144531 12.5625 -10.09375 Z M 9.46875 -10.015625 C 9.46875 -10.492188 9.347656 -10.875 9.109375 -11.15625 C 8.867188 -11.445312 8.5625 -11.648438 8.1875 -11.765625 C 7.8125 -11.890625 7.410156 -11.953125 6.984375 -11.953125 L 4.796875 -11.953125 L 4.796875 -8.09375 L 7 -8.09375 C 7.40625 -8.09375 7.796875 -8.15625 8.171875 -8.28125 C 8.554688 -8.414062 8.867188 -8.625 9.109375 -8.90625 C 9.347656 -9.1875 9.46875 -9.554688 9.46875 -10.015625 Z M 9.46875 -10.015625 "/></g></g></g><g fill="#423e3e" fill-opacity="1"><g transform="translate(118.073685, 145.878556)"><g><path d="M 12.5625 -10.09375 C 12.5625 -9 12.320312 -8.09375 11.84375 -7.375 C 11.375 -6.65625 10.726562 -6.117188 9.90625 -5.765625 C 9.09375 -5.410156 8.164062 -5.234375 7.125 -5.234375 L 4.796875 -5.234375 L 4.796875 0 L 1.71875 0 L 1.71875 -14.859375 L 7.25 -14.859375 C 8.25 -14.859375 9.144531 -14.679688 9.9375 -14.328125 C 10.738281 -13.972656 11.375 -13.441406 11.84375 -12.734375 C 12.320312 -12.023438 12.5625 -11.144531 12.5625 -10.09375 Z M 9.46875 -10.015625 C 9.46875 -10.492188 9.347656 -10.875 9.109375 -11.15625 C 8.867188 -11.445312 8.5625 -11.648438 8.1875 -11.765625 C 7.8125 -11.890625 7.410156 -11.953125 6.984375 -11.953125 L 4.796875 -11.953125 L 4.796875 -8.09375 L 7 -8.09375 C 7.40625 -8.09375 7.796875 -8.15625 8.171875 -8.28125 C 8.554688 -8.414062 8.867188 -8.625 9.109375 -8.90625 C 9.347656 -9.1875 9.46875 -9.554688 9.46875 -10.015625 Z M 9.46875 -10.015625 "/></g></g></g><g fill="#423e3e" fill-opacity="1"><g transform="translate(131.199552, 145.878556)"><g><path d="M 1.71875 -14.859375 L 11.453125 -14.859375 L 11.453125 -11.96875 L 4.765625 -11.96875 L 4.765625 -8.953125 L 10.75 -8.953125 L 10.75 -6.0625 L 4.765625 -6.0625 L 4.765625 -2.859375 L 11.5 -2.859375 L 11.5 0 L 1.71875 0 Z M 1.71875 -14.859375 "/></g></g></g><g fill="#423e3e" fill-opacity="1"><g transform="translate(143.775349, 145.878556)"><g><path d="M 13.140625 0 L 9.734375 0 L 6.65625 -5.328125 L 4.796875 -5.328125 L 4.796875 0 L 1.71875 0 L 1.71875 -14.859375 L 7.59375 -14.859375 C 8.550781 -14.859375 9.425781 -14.679688 10.21875 -14.328125 C 11.019531 -13.984375 11.65625 -13.460938 12.125 -12.765625 C 12.601562 -12.066406 12.84375 -11.191406 12.84375 -10.140625 C 12.84375 -7.984375 11.820312 -6.535156 9.78125 -5.796875 Z M 7.359375 -8.171875 C 7.734375 -8.171875 8.101562 -8.234375 8.46875 -8.359375 C 8.84375 -8.492188 9.144531 -8.695312 9.375 -8.96875 C 9.613281 -9.25 9.734375 -9.625 9.734375 -10.09375 C 9.734375 -10.570312 9.613281 -10.941406 9.375 -11.203125 C 9.132812 -11.472656 8.832031 -11.664062 8.46875 -11.78125 C 8.101562 -11.894531 7.726562 -11.953125 7.34375 -11.953125 L 4.796875 -11.953125 L 4.796875 -8.171875 Z M 7.359375 -8.171875 "/></g></g></g><path stroke-linecap="round" transform="matrix(0.601387, 0, 0, 0.601387, 85.11822, 94.343877)" fill="none" stroke-linejoin="miter" d="M 16.002947 15.997958 L 100.722441 15.997958 " stroke="#423e3e" stroke-width="32" stroke-opacity="1" stroke-miterlimit="4"/><g clip-path="url(#4a48cdd383)"><g clip-path="url(#0b0b4881b5)"><path fill="#625e5e" d="M 91.457031 25.238281 L 148.976562 25.238281 L 148.976562 82.757812 L 91.457031 82.757812 Z M 91.457031 25.238281 " fill-opacity="1" fill-rule="nonzero"/></g></g><path stroke-linecap="butt" transform="matrix(0.601387, -0.000000000000000075, 0.000000000000000075, 0.601387, 69.565483, 48.284377)" fill="none" stroke-linejoin="miter" d="M 0.0015356 8.497277 L 116.691385 8.497277 " stroke="#625e5e" stroke-width="17" stroke-opacity="1" stroke-miterlimit="4"/><g clip-path="url(#bf3a6d521c)"><path fill="#c8cbcb" d="M 141.566406 36.773438 C 140.859375 36.796875 140.257812 37.0625 139.761719 37.570312 L 112.742188 64.589844 L 104.097656 55.945312 C 103.855469 55.691406 103.570312 55.492188 103.246094 55.355469 C 102.921875 55.214844 102.582031 55.140625 102.230469 55.136719 C 101.878906 55.136719 101.539062 55.199219 101.210938 55.332031 C 100.886719 55.464844 100.597656 55.65625 100.347656 55.90625 C 100.097656 56.15625 99.90625 56.445312 99.773438 56.769531 C 99.640625 57.097656 99.574219 57.4375 99.578125 57.789062 C 99.582031 58.144531 99.65625 58.480469 99.792969 58.804688 C 99.933594 59.128906 100.132812 59.414062 100.386719 59.65625 L 110.886719 70.15625 C 111.132812 70.402344 111.417969 70.59375 111.738281 70.726562 C 112.058594 70.859375 112.394531 70.925781 112.742188 70.925781 C 113.089844 70.925781 113.425781 70.859375 113.746094 70.726562 C 114.066406 70.59375 114.351562 70.402344 114.597656 70.15625 L 143.472656 41.28125 C 143.863281 40.90625 144.109375 40.449219 144.21875 39.921875 C 144.324219 39.390625 144.273438 38.875 144.0625 38.375 C 143.851562 37.878906 143.515625 37.480469 143.0625 37.191406 C 142.605469 36.898438 142.109375 36.757812 141.566406 36.773438 Z M 141.566406 36.773438 " fill-opacity="1" fill-rule="nonzero"/></g></svg>