<svg xmlns="http://www.w3.org/2000/svg" xmlns:xlink="http://www.w3.org/1999/xlink" width="275" zoomAndPan="magnify" viewBox="0 0 206.25 187.499992" height="250" preserveAspectRatio="xMidYMid meet" version="1.0"><defs><g/><clipPath id="c67a4ad61a"><path d="M 6.664062 6.203125 L 198.839844 6.203125 L 198.839844 145.292969 L 6.664062 145.292969 Z M 6.664062 6.203125 " clip-rule="nonzero"/></clipPath><clipPath id="5f952c5313"><path d="M 49.492188 151.675781 L 156.738281 151.675781 L 156.738281 179.699219 L 49.492188 179.699219 Z M 49.492188 151.675781 " clip-rule="nonzero"/></clipPath><clipPath id="4397cad4a2"><path d="M 68.480469 22.027344 L 139.953125 22.027344 L 139.953125 93.5 L 68.480469 93.5 Z M 68.480469 22.027344 " clip-rule="nonzero"/></clipPath><clipPath id="6f0308ca46"><path d="M 104.21875 22.027344 C 84.480469 22.027344 68.480469 38.027344 68.480469 57.765625 C 68.480469 77.5 84.480469 93.5 104.21875 93.5 C 123.953125 93.5 139.953125 77.5 139.953125 57.765625 C 139.953125 38.027344 123.953125 22.027344 104.21875 22.027344 Z M 104.21875 22.027344 " clip-rule="nonzero"/></clipPath><clipPath id="1126cc6dcd"><path d="M 78.292969 36.335938 L 134.339844 36.335938 L 134.339844 78.929688 L 78.292969 78.929688 Z M 78.292969 36.335938 " clip-rule="nonzero"/></clipPath></defs><g clip-path="url(#c67a4ad61a)"><path fill="#ececec" d="M 6.664062 6.203125 L 198.839844 6.203125 L 198.839844 145.292969 L 6.664062 145.292969 Z M 6.664062 6.203125 " fill-opacity="1" fill-rule="nonzero"/></g><g clip-path="url(#5f952c5313)"><path fill="#ffffff" d="M 49.492188 151.675781 L 156.738281 151.675781 L 156.738281 179.699219 L 49.492188 179.699219 Z M 49.492188 151.675781 " fill-opacity="1" fill-rule="nonzero"/></g><path stroke-linecap="round" transform="matrix(0.747283, -0.000000000000000185, 0.000000000000000185, 0.747283, 60.604062, 107.898355)" fill="none" stroke-linejoin="miter" d="M 16.002565 16.000793 L 100.726205 16.000793 " stroke="#423e3e" stroke-width="32" stroke-opacity="1" stroke-miterlimit="4"/><g clip-path="url(#4397cad4a2)"><g clip-path="url(#6f0308ca46)"><path fill="#625e5e" d="M 68.480469 22.027344 L 139.953125 22.027344 L 139.953125 93.5 L 68.480469 93.5 Z M 68.480469 22.027344 " fill-opacity="1" fill-rule="nonzero"/></g></g><g fill="#423e3e" fill-opacity="1"><g transform="translate(55.275557, 172.787288)"><g><path d="M 4.222656 -11.335938 C 4.222656 -12.253906 5 -12.929688 6.296875 -12.929688 C 7.628906 -12.929688 8.726562 -12.273438 9.242188 -11.015625 L 11.914062 -12.472656 C 11.015625 -14.601562 9.042969 -15.839844 6.433594 -15.839844 C 3.488281 -15.839844 0.996094 -13.925781 0.996094 -11.136719 C 0.996094 -9.941406 1.472656 -8.945312 2.191406 -8.246094 C 3.027344 -7.410156 4.324219 -6.851562 5.996094 -6.355469 C 8.269531 -5.679688 8.945312 -5.257812 8.945312 -4.34375 C 8.945312 -3.386719 7.96875 -2.691406 6.574219 -2.691406 C 5 -2.691406 3.765625 -3.507812 3.167969 -4.859375 L 0.378906 -3.425781 C 1.296875 -1.195312 3.527344 0.238281 6.476562 0.238281 C 10.160156 0.238281 12.191406 -1.832031 12.191406 -4.582031 C 12.191406 -7.210938 10.199219 -8.425781 6.734375 -9.421875 C 5.058594 -9.902344 4.222656 -10.359375 4.222656 -11.335938 Z M 4.222656 -11.335938 "/></g></g></g><g fill="#423e3e" fill-opacity="1"><g transform="translate(68.263184, 172.787288)"><g><path d="M 5.101562 0 L 8.308594 0 L 8.308594 -12.472656 L 12.988281 -12.472656 L 12.988281 -15.597656 L 0.417969 -15.597656 L 0.417969 -12.472656 L 5.101562 -12.472656 Z M 5.101562 0 "/></g></g></g><g fill="#423e3e" fill-opacity="1"><g transform="translate(81.669127, 172.787288)"><g><path d="M 1.8125 -15.597656 L 1.8125 0 L 12.074219 0 L 12.074219 -3.007812 L 5 -3.007812 L 5 -6.375 L 11.296875 -6.375 L 11.296875 -9.402344 L 5 -9.402344 L 5 -12.570312 L 12.035156 -12.570312 L 12.035156 -15.597656 Z M 1.8125 -15.597656 "/></g></g></g><g fill="#423e3e" fill-opacity="1"><g transform="translate(94.875878, 172.787288)"><g><path d="M 13.1875 -10.597656 C 13.1875 -13.90625 10.738281 -15.597656 7.609375 -15.597656 L 1.8125 -15.597656 L 1.8125 0 L 5.039062 0 L 5.039062 -5.5 L 7.492188 -5.5 C 10.757812 -5.5 13.1875 -7.152344 13.1875 -10.597656 Z M 9.941406 -10.519531 C 9.941406 -9.066406 8.625 -8.507812 7.351562 -8.507812 L 5.039062 -8.507812 L 5.039062 -12.550781 L 7.332031 -12.550781 C 8.667969 -12.550781 9.941406 -12.035156 9.941406 -10.519531 Z M 9.941406 -10.519531 "/></g></g></g><g fill="#423e3e" fill-opacity="1"><g transform="translate(108.660298, 172.787288)"><g><path d="M 13.1875 -10.597656 C 13.1875 -13.90625 10.738281 -15.597656 7.609375 -15.597656 L 1.8125 -15.597656 L 1.8125 0 L 5.039062 0 L 5.039062 -5.5 L 7.492188 -5.5 C 10.757812 -5.5 13.1875 -7.152344 13.1875 -10.597656 Z M 9.941406 -10.519531 C 9.941406 -9.066406 8.625 -8.507812 7.351562 -8.507812 L 5.039062 -8.507812 L 5.039062 -12.550781 L 7.332031 -12.550781 C 8.667969 -12.550781 9.941406 -12.035156 9.941406 -10.519531 Z M 9.941406 -10.519531 "/></g></g></g><g fill="#423e3e" fill-opacity="1"><g transform="translate(122.444717, 172.787288)"><g><path d="M 1.8125 -15.597656 L 1.8125 0 L 12.074219 0 L 12.074219 -3.007812 L 5 -3.007812 L 5 -6.375 L 11.296875 -6.375 L 11.296875 -9.402344 L 5 -9.402344 L 5 -12.570312 L 12.035156 -12.570312 L 12.035156 -15.597656 Z M 1.8125 -15.597656 "/></g></g></g><g fill="#423e3e" fill-opacity="1"><g transform="translate(135.651468, 172.787288)"><g><path d="M 13.804688 0 L 10.28125 -6.097656 C 12.390625 -6.851562 13.488281 -8.425781 13.488281 -10.660156 C 13.488281 -13.964844 10.996094 -15.597656 7.96875 -15.597656 L 1.8125 -15.597656 L 1.8125 0 L 5.039062 0 L 5.039062 -5.597656 L 6.992188 -5.597656 L 10.21875 0 Z M 7.730469 -8.585938 L 5.039062 -8.585938 L 5.039062 -12.550781 L 7.710938 -12.550781 C 8.925781 -12.550781 10.21875 -12.09375 10.21875 -10.597656 C 10.21875 -9.125 8.925781 -8.585938 7.730469 -8.585938 Z M 7.730469 -8.585938 "/></g></g></g><path stroke-linecap="butt" transform="matrix(0.747283, -0.000000000000000093, 0.000000000000000093, 0.747283, 41.278261, 50.66491)" fill="none" stroke-linejoin="miter" d="M -0.00122759 8.498412 L 116.687186 8.498412 " stroke="#625e5e" stroke-width="17" stroke-opacity="1" stroke-miterlimit="4"/><g clip-path="url(#1126cc6dcd)"><path fill="#c8cbcb" d="M 130.746094 36.363281 C 129.867188 36.390625 129.117188 36.71875 128.503906 37.351562 L 94.929688 70.925781 L 84.1875 60.183594 C 83.886719 59.867188 83.53125 59.625 83.128906 59.449219 C 82.726562 59.277344 82.308594 59.1875 81.867188 59.183594 C 81.429688 59.175781 81.007812 59.257812 80.601562 59.421875 C 80.195312 59.589844 79.839844 59.828125 79.527344 60.136719 C 79.21875 60.445312 78.980469 60.804688 78.816406 61.210938 C 78.648438 61.617188 78.570312 62.039062 78.574219 62.476562 C 78.578125 62.914062 78.667969 63.335938 78.839844 63.738281 C 79.015625 64.140625 79.257812 64.492188 79.574219 64.796875 L 92.625 77.84375 C 92.929688 78.152344 93.28125 78.386719 93.679688 78.550781 C 94.082031 78.71875 94.496094 78.800781 94.929688 78.800781 C 95.363281 78.800781 95.777344 78.71875 96.179688 78.550781 C 96.578125 78.386719 96.929688 78.152344 97.234375 77.84375 L 133.117188 41.964844 C 133.351562 41.734375 133.550781 41.476562 133.707031 41.1875 C 133.863281 40.898438 133.976562 40.59375 134.039062 40.273438 C 134.105469 39.949219 134.121094 39.625 134.089844 39.296875 C 134.054688 38.972656 133.976562 38.65625 133.847656 38.351562 C 133.71875 38.050781 133.550781 37.773438 133.335938 37.523438 C 133.125 37.269531 132.882812 37.054688 132.605469 36.878906 C 132.328125 36.703125 132.03125 36.570312 131.714844 36.480469 C 131.398438 36.394531 131.074219 36.355469 130.746094 36.363281 Z M 130.746094 36.363281 " fill-opacity="1" fill-rule="nonzero"/></g></svg>