<svg xmlns="http://www.w3.org/2000/svg" xmlns:xlink="http://www.w3.org/1999/xlink" width="61" zoomAndPan="magnify" viewBox="0 0 46.079998 37.92" height="40" preserveAspectRatio="xMidYMid meet" version="1.2"><defs><clipPath id="c12bb66557"><path d="M 13.855469 1.246094 L 31.816406 1.246094 L 31.816406 19.203125 L 13.855469 19.203125 Z M 13.855469 1.246094 "/></clipPath><clipPath id="00396d26f4"><path d="M 22.835938 1.246094 C 17.878906 1.246094 13.855469 5.265625 13.855469 10.226562 C 13.855469 15.183594 17.878906 19.203125 22.835938 19.203125 C 27.796875 19.203125 31.816406 15.183594 31.816406 10.226562 C 31.816406 5.265625 27.796875 1.246094 22.835938 1.246094 Z M 22.835938 1.246094 "/></clipPath><clipPath id="dc3f9b19bc"><path d="M 16.324219 4.839844 L 30.292969 4.839844 L 30.292969 15.871094 L 16.324219 15.871094 Z M 16.324219 4.839844 "/></clipPath></defs><g id="3790b323dd"><path style="fill:none;stroke-width:8;stroke-linecap:round;stroke-linejoin:miter;stroke:#585958;stroke-opacity:1;stroke-miterlimit:4;" d="M 4.001864 4.001057 L 25.808936 4.001057 " transform="matrix(0.735319,0,0,0.735319,11.877665,22.886071)"/><g clip-rule="nonzero" clip-path="url(#c12bb66557)"><g clip-rule="nonzero" clip-path="url(#00396d26f4)"><path style=" stroke:none;fill-rule:nonzero;fill:#585958;fill-opacity:1;" d="M 13.855469 1.246094 L 31.816406 1.246094 L 31.816406 19.203125 L 13.855469 19.203125 Z M 13.855469 1.246094 "/></g></g><path style="fill:none;stroke-width:4;stroke-linecap:butt;stroke-linejoin:miter;stroke:#585958;stroke-opacity:1;stroke-miterlimit:4;" d="M -0.00251911 1.997363 L 29.799594 1.997363 " transform="matrix(0.735319,-0.000000000000000091,0.000000000000000091,0.735319,7.021384,8.566457)"/><g clip-rule="nonzero" clip-path="url(#dc3f9b19bc)"><path style=" stroke:none;fill-rule:nonzero;fill:#e4e2df;fill-opacity:1;" d="M 29.382812 4.847656 C 29.164062 4.851562 28.980469 4.933594 28.824219 5.09375 L 20.464844 13.453125 L 17.789062 10.777344 C 17.632812 10.613281 17.441406 10.53125 17.214844 10.527344 C 16.984375 10.527344 16.792969 10.605469 16.628906 10.765625 C 16.46875 10.925781 16.390625 11.121094 16.390625 11.347656 C 16.394531 11.578125 16.476562 11.769531 16.640625 11.925781 L 19.890625 15.175781 C 20.050781 15.335938 20.242188 15.414062 20.464844 15.414062 C 20.691406 15.414062 20.882812 15.335938 21.039062 15.175781 L 29.976562 6.242188 C 30.09375 6.125 30.171875 5.984375 30.203125 5.820312 C 30.238281 5.65625 30.222656 5.496094 30.15625 5.339844 C 30.089844 5.1875 29.988281 5.066406 29.847656 4.972656 C 29.707031 4.882812 29.550781 4.839844 29.382812 4.847656 Z M 29.382812 4.847656 "/></g></g></svg>