<svg xmlns="http://www.w3.org/2000/svg" xmlns:xlink="http://www.w3.org/1999/xlink" width="275" zoomAndPan="magnify" viewBox="0 0 206.25 187.499992" height="250" preserveAspectRatio="xMidYMid meet" version="1.0"><defs><g/><clipPath id="c517ab5185"><path d="M 6.664062 6.203125 L 198.839844 6.203125 L 198.839844 145.292969 L 6.664062 145.292969 Z M 6.664062 6.203125 " clip-rule="nonzero"/></clipPath><clipPath id="35357cea5d"><path d="M 49.492188 151.675781 L 156.738281 151.675781 L 156.738281 179.699219 L 49.492188 179.699219 Z M 49.492188 151.675781 " clip-rule="nonzero"/></clipPath><clipPath id="03d1e2c7f0"><path d="M 81.320312 30.632812 L 140.066406 30.632812 L 140.066406 89.375 L 81.320312 89.375 Z M 81.320312 30.632812 " clip-rule="nonzero"/></clipPath><clipPath id="e9ea76c7b1"><path d="M 110.695312 30.632812 C 94.472656 30.632812 81.320312 43.78125 81.320312 60.003906 C 81.320312 76.226562 94.472656 89.375 110.695312 89.375 C 126.914062 89.375 140.066406 76.226562 140.066406 60.003906 C 140.066406 43.78125 126.914062 30.632812 110.695312 30.632812 Z M 110.695312 30.632812 " clip-rule="nonzero"/></clipPath><clipPath id="031ede044c"><path d="M 89.386719 42.390625 L 135.453125 42.390625 L 135.453125 77.402344 L 89.386719 77.402344 Z M 89.386719 42.390625 " clip-rule="nonzero"/></clipPath></defs><g clip-path="url(#c517ab5185)"><path fill="#ececec" d="M 6.664062 6.203125 L 198.839844 6.203125 L 198.839844 145.292969 L 6.664062 145.292969 Z M 6.664062 6.203125 " fill-opacity="1" fill-rule="nonzero"/></g><g clip-path="url(#35357cea5d)"><path fill="#ffffff" d="M 49.492188 151.675781 L 156.738281 151.675781 L 156.738281 179.699219 L 49.492188 179.699219 Z M 49.492188 151.675781 " fill-opacity="1" fill-rule="nonzero"/></g><g fill="#423e3e" fill-opacity="1"><g transform="translate(55.275557, 172.787288)"><g><path d="M 4.222656 -11.335938 C 4.222656 -12.253906 5 -12.929688 6.296875 -12.929688 C 7.628906 -12.929688 8.726562 -12.273438 9.242188 -11.015625 L 11.914062 -12.472656 C 11.015625 -14.601562 9.042969 -15.839844 6.433594 -15.839844 C 3.488281 -15.839844 0.996094 -13.925781 0.996094 -11.136719 C 0.996094 -9.941406 1.472656 -8.945312 2.191406 -8.246094 C 3.027344 -7.410156 4.324219 -6.851562 5.996094 -6.355469 C 8.269531 -5.679688 8.945312 -5.257812 8.945312 -4.34375 C 8.945312 -3.386719 7.96875 -2.691406 6.574219 -2.691406 C 5 -2.691406 3.765625 -3.507812 3.167969 -4.859375 L 0.378906 -3.425781 C 1.296875 -1.195312 3.527344 0.238281 6.476562 0.238281 C 10.160156 0.238281 12.191406 -1.832031 12.191406 -4.582031 C 12.191406 -7.210938 10.199219 -8.425781 6.734375 -9.421875 C 5.058594 -9.902344 4.222656 -10.359375 4.222656 -11.335938 Z M 4.222656 -11.335938 "/></g></g></g><g fill="#423e3e" fill-opacity="1"><g transform="translate(68.263184, 172.787288)"><g><path d="M 5.101562 0 L 8.308594 0 L 8.308594 -12.472656 L 12.988281 -12.472656 L 12.988281 -15.597656 L 0.417969 -15.597656 L 0.417969 -12.472656 L 5.101562 -12.472656 Z M 5.101562 0 "/></g></g></g><g fill="#423e3e" fill-opacity="1"><g transform="translate(81.669127, 172.787288)"><g><path d="M 1.8125 -15.597656 L 1.8125 0 L 12.074219 0 L 12.074219 -3.007812 L 5 -3.007812 L 5 -6.375 L 11.296875 -6.375 L 11.296875 -9.402344 L 5 -9.402344 L 5 -12.570312 L 12.035156 -12.570312 L 12.035156 -15.597656 Z M 1.8125 -15.597656 "/></g></g></g><g fill="#423e3e" fill-opacity="1"><g transform="translate(94.875878, 172.787288)"><g><path d="M 13.1875 -10.597656 C 13.1875 -13.90625 10.738281 -15.597656 7.609375 -15.597656 L 1.8125 -15.597656 L 1.8125 0 L 5.039062 0 L 5.039062 -5.5 L 7.492188 -5.5 C 10.757812 -5.5 13.1875 -7.152344 13.1875 -10.597656 Z M 9.941406 -10.519531 C 9.941406 -9.066406 8.625 -8.507812 7.351562 -8.507812 L 5.039062 -8.507812 L 5.039062 -12.550781 L 7.332031 -12.550781 C 8.667969 -12.550781 9.941406 -12.035156 9.941406 -10.519531 Z M 9.941406 -10.519531 "/></g></g></g><g fill="#423e3e" fill-opacity="1"><g transform="translate(108.660298, 172.787288)"><g><path d="M 13.1875 -10.597656 C 13.1875 -13.90625 10.738281 -15.597656 7.609375 -15.597656 L 1.8125 -15.597656 L 1.8125 0 L 5.039062 0 L 5.039062 -5.5 L 7.492188 -5.5 C 10.757812 -5.5 13.1875 -7.152344 13.1875 -10.597656 Z M 9.941406 -10.519531 C 9.941406 -9.066406 8.625 -8.507812 7.351562 -8.507812 L 5.039062 -8.507812 L 5.039062 -12.550781 L 7.332031 -12.550781 C 8.667969 -12.550781 9.941406 -12.035156 9.941406 -10.519531 Z M 9.941406 -10.519531 "/></g></g></g><g fill="#423e3e" fill-opacity="1"><g transform="translate(122.444717, 172.787288)"><g><path d="M 1.8125 -15.597656 L 1.8125 0 L 12.074219 0 L 12.074219 -3.007812 L 5 -3.007812 L 5 -6.375 L 11.296875 -6.375 L 11.296875 -9.402344 L 5 -9.402344 L 5 -12.570312 L 12.035156 -12.570312 L 12.035156 -15.597656 Z M 1.8125 -15.597656 "/></g></g></g><g fill="#423e3e" fill-opacity="1"><g transform="translate(135.651468, 172.787288)"><g><path d="M 13.804688 0 L 10.28125 -6.097656 C 12.390625 -6.851562 13.488281 -8.425781 13.488281 -10.660156 C 13.488281 -13.964844 10.996094 -15.597656 7.96875 -15.597656 L 1.8125 -15.597656 L 1.8125 0 L 5.039062 0 L 5.039062 -5.597656 L 6.992188 -5.597656 L 10.21875 0 Z M 7.730469 -8.585938 L 5.039062 -8.585938 L 5.039062 -12.550781 L 7.710938 -12.550781 C 8.925781 -12.550781 10.21875 -12.09375 10.21875 -10.597656 C 10.21875 -9.125 8.925781 -8.585938 7.730469 -8.585938 Z M 7.730469 -8.585938 "/></g></g></g><path stroke-linecap="round" transform="matrix(0.614211, 0, 0, 0.614211, 74.846991, 101.210518)" fill="none" stroke-linejoin="miter" d="M 16.002312 16.001912 L 100.721057 16.001912 " stroke="#423e3e" stroke-width="32" stroke-opacity="1" stroke-miterlimit="4"/><g clip-path="url(#03d1e2c7f0)"><g clip-path="url(#e9ea76c7b1)"><path fill="#625e5e" d="M 81.320312 30.632812 L 140.066406 30.632812 L 140.066406 89.375 L 81.320312 89.375 Z M 81.320312 30.632812 " fill-opacity="1" fill-rule="nonzero"/></g></g><path stroke-linecap="butt" transform="matrix(0.614211, -0.000000000000000076, 0.000000000000000076, 0.614211, 58.962628, 54.168891)" fill="none" stroke-linejoin="miter" d="M -0.00275228 8.501537 L 116.686651 8.501537 " stroke="#625e5e" stroke-width="17" stroke-opacity="1" stroke-miterlimit="4"/><g clip-path="url(#031ede044c)"><path fill="#c8cbcb" d="M 132.5 42.414062 C 131.773438 42.4375 131.160156 42.707031 130.65625 43.226562 L 103.058594 70.820312 L 94.230469 61.992188 C 93.980469 61.734375 93.691406 61.53125 93.359375 61.390625 C 93.03125 61.246094 92.683594 61.171875 92.324219 61.167969 C 91.964844 61.164062 91.617188 61.230469 91.285156 61.367188 C 90.949219 61.503906 90.65625 61.699219 90.402344 61.953125 C 90.148438 62.210938 89.953125 62.503906 89.816406 62.835938 C 89.679688 63.171875 89.613281 63.515625 89.617188 63.878906 C 89.621094 64.238281 89.691406 64.582031 89.835938 64.914062 C 89.980469 65.246094 90.179688 65.535156 90.441406 65.785156 L 101.164062 76.507812 C 101.414062 76.761719 101.707031 76.953125 102.035156 77.089844 C 102.363281 77.226562 102.703125 77.292969 103.058594 77.292969 C 103.414062 77.292969 103.757812 77.226562 104.085938 77.089844 C 104.414062 76.953125 104.703125 76.761719 104.957031 76.507812 L 134.445312 47.015625 C 134.84375 46.632812 135.097656 46.167969 135.207031 45.625 C 135.316406 45.085938 135.261719 44.558594 135.046875 44.050781 C 134.832031 43.539062 134.492188 43.136719 134.027344 42.839844 C 133.5625 42.539062 133.050781 42.398438 132.5 42.414062 Z M 132.5 42.414062 " fill-opacity="1" fill-rule="nonzero"/></g></svg>