<svg xmlns="http://www.w3.org/2000/svg" xmlns:xlink="http://www.w3.org/1999/xlink" width="275" zoomAndPan="magnify" viewBox="0 0 206.25 187.499992" height="250" preserveAspectRatio="xMidYMid meet" version="1.0"><defs><g/><clipPath id="b92b8d95ca"><path d="M 6.664062 6.203125 L 198.839844 6.203125 L 198.839844 145.292969 L 6.664062 145.292969 Z M 6.664062 6.203125 " clip-rule="nonzero"/></clipPath><clipPath id="c7f738c9c0"><path d="M 60.0625 151.675781 L 145.4375 151.675781 L 145.4375 179.699219 L 60.0625 179.699219 Z M 60.0625 151.675781 " clip-rule="nonzero"/></clipPath><clipPath id="b248ec041e"><path d="M 40.25 53.046875 L 79.878906 53.046875 L 79.878906 72.019531 L 40.25 72.019531 Z M 40.25 53.046875 " clip-rule="nonzero"/></clipPath><clipPath id="d45150dbfd"><path d="M 82.800781 53.046875 L 122.429688 53.046875 L 122.429688 72.019531 L 82.800781 72.019531 Z M 82.800781 53.046875 " clip-rule="nonzero"/></clipPath><clipPath id="36baf68d0b"><path d="M 125.625 53.046875 L 165.253906 53.046875 L 165.253906 72.019531 L 125.625 72.019531 Z M 125.625 53.046875 " clip-rule="nonzero"/></clipPath><clipPath id="3e681f163a"><path d="M 40.25 77.53125 L 79.878906 77.53125 L 79.878906 96.503906 L 40.25 96.503906 Z M 40.25 77.53125 " clip-rule="nonzero"/></clipPath><clipPath id="ecd986bd80"><path d="M 82.800781 77.53125 L 122.429688 77.53125 L 122.429688 96.503906 L 82.800781 96.503906 Z M 82.800781 77.53125 " clip-rule="nonzero"/></clipPath><clipPath id="1f75c46835"><path d="M 125.625 77.53125 L 165.253906 77.53125 L 165.253906 96.503906 L 125.625 96.503906 Z M 125.625 77.53125 " clip-rule="nonzero"/></clipPath><clipPath id="d6542fdd61"><path d="M 40.25 30.429688 L 165.253906 30.429688 L 165.253906 47.457031 L 40.25 47.457031 Z M 40.25 30.429688 " clip-rule="nonzero"/></clipPath><clipPath id="52f6fd4097"><path d="M 40.25 102.09375 L 79.878906 102.09375 L 79.878906 121.066406 L 40.25 121.066406 Z M 40.25 102.09375 " clip-rule="nonzero"/></clipPath><clipPath id="8c333f8f45"><path d="M 82.800781 102.09375 L 122.429688 102.09375 L 122.429688 121.066406 L 82.800781 121.066406 Z M 82.800781 102.09375 " clip-rule="nonzero"/></clipPath><clipPath id="734349195d"><path d="M 125.625 102.09375 L 165.253906 102.09375 L 165.253906 121.066406 L 125.625 121.066406 Z M 125.625 102.09375 " clip-rule="nonzero"/></clipPath></defs><g clip-path="url(#b92b8d95ca)"><path fill="#ececec" d="M 6.664062 6.203125 L 198.839844 6.203125 L 198.839844 145.292969 L 6.664062 145.292969 Z M 6.664062 6.203125 " fill-opacity="1" fill-rule="nonzero"/></g><g clip-path="url(#c7f738c9c0)"><path fill="#ffffff" d="M 60.0625 151.675781 L 145.4375 151.675781 L 145.4375 179.699219 L 60.0625 179.699219 Z M 60.0625 151.675781 " fill-opacity="1" fill-rule="nonzero"/></g><g fill="#423e3e" fill-opacity="1"><g transform="translate(71.57566, 170.74471)"><g><path d="M 4.589844 0 L 7.480469 0 L 7.480469 -11.226562 L 11.695312 -11.226562 L 11.695312 -14.042969 L 0.375 -14.042969 L 0.375 -11.226562 L 4.589844 -11.226562 Z M 4.589844 0 "/></g></g></g><g fill="#423e3e" fill-opacity="1"><g transform="translate(83.645729, 170.74471)"><g><path d="M 2.90625 0 L 3.945312 -2.832031 L 10.167969 -2.832031 L 11.226562 0 L 14.222656 0 L 8.84375 -14.042969 L 5.34375 -14.042969 L -0.0195312 0 Z M 7.066406 -11.226562 L 9.183594 -5.523438 L 4.949219 -5.523438 Z M 7.066406 -11.226562 "/></g></g></g><g fill="#423e3e" fill-opacity="1"><g transform="translate(97.850039, 170.74471)"><g><path d="M 12.554688 -3.875 C 12.554688 -5.738281 11.640625 -6.671875 9.972656 -7.300781 L 9.972656 -7.335938 C 11.191406 -7.964844 11.945312 -8.929688 11.945312 -10.332031 C 11.945312 -12.839844 9.71875 -14.042969 7.460938 -14.042969 L 1.632812 -14.042969 L 1.632812 0 L 7.550781 0 C 10.027344 0 12.554688 -1.023438 12.554688 -3.875 Z M 9.09375 -9.882812 C 9.09375 -8.609375 7.890625 -8.339844 6.867188 -8.339844 L 4.464844 -8.339844 L 4.464844 -11.371094 L 7.066406 -11.371094 C 8.035156 -11.371094 9.09375 -11.046875 9.09375 -9.882812 Z M 9.71875 -4.25 C 9.71875 -2.996094 8.554688 -2.691406 7.515625 -2.691406 L 4.464844 -2.691406 L 4.464844 -5.828125 L 7.425781 -5.828125 C 8.5 -5.828125 9.71875 -5.558594 9.71875 -4.25 Z M 9.71875 -4.25 "/></g></g></g><g fill="#423e3e" fill-opacity="1"><g transform="translate(111.193473, 170.74471)"><g><path d="M 1.632812 -14.042969 L 1.632812 0 L 10.527344 0 L 10.527344 -2.761719 L 4.519531 -2.761719 L 4.519531 -14.042969 Z M 1.632812 -14.042969 "/></g></g></g><g fill="#423e3e" fill-opacity="1"><g transform="translate(122.026049, 170.74471)"><g><path d="M 1.632812 -14.042969 L 1.632812 0 L 10.867188 0 L 10.867188 -2.707031 L 4.5 -2.707031 L 4.5 -5.738281 L 10.167969 -5.738281 L 10.167969 -8.464844 L 4.5 -8.464844 L 4.5 -11.316406 L 10.832031 -11.316406 L 10.832031 -14.042969 Z M 1.632812 -14.042969 "/></g></g></g><g clip-path="url(#b248ec041e)"><path fill="#625e5e" d="M 40.25 53.046875 L 79.878906 53.046875 L 79.878906 72.019531 L 40.25 72.019531 Z M 40.25 53.046875 " fill-opacity="1" fill-rule="nonzero"/></g><g clip-path="url(#d45150dbfd)"><path fill="#ddd9d9" d="M 82.800781 53.046875 L 122.429688 53.046875 L 122.429688 72.019531 L 82.800781 72.019531 Z M 82.800781 53.046875 " fill-opacity="1" fill-rule="nonzero"/></g><g clip-path="url(#36baf68d0b)"><path fill="#a6a6a6" d="M 125.625 53.046875 L 165.253906 53.046875 L 165.253906 72.019531 L 125.625 72.019531 Z M 125.625 53.046875 " fill-opacity="1" fill-rule="nonzero"/></g><g clip-path="url(#3e681f163a)"><path fill="#a6a6a6" d="M 40.25 77.53125 L 79.878906 77.53125 L 79.878906 96.503906 L 40.25 96.503906 Z M 40.25 77.53125 " fill-opacity="1" fill-rule="nonzero"/></g><g clip-path="url(#ecd986bd80)"><path fill="#bebebe" d="M 82.800781 77.53125 L 122.429688 77.53125 L 122.429688 96.503906 L 82.800781 96.503906 Z M 82.800781 77.53125 " fill-opacity="1" fill-rule="nonzero"/></g><g clip-path="url(#1f75c46835)"><path fill="#c8cbcb" d="M 125.625 77.53125 L 165.253906 77.53125 L 165.253906 96.503906 L 125.625 96.503906 Z M 125.625 77.53125 " fill-opacity="1" fill-rule="nonzero"/></g><g clip-path="url(#d6542fdd61)"><path fill="#625e5e" d="M 40.25 30.429688 L 165.253906 30.429688 L 165.253906 47.457031 L 40.25 47.457031 Z M 40.25 30.429688 " fill-opacity="1" fill-rule="nonzero"/></g><g clip-path="url(#52f6fd4097)"><path fill="#625e5e" d="M 40.25 102.09375 L 79.878906 102.09375 L 79.878906 121.066406 L 40.25 121.066406 Z M 40.25 102.09375 " fill-opacity="1" fill-rule="nonzero"/></g><g clip-path="url(#8c333f8f45)"><path fill="#a6a6a6" d="M 82.800781 102.09375 L 122.429688 102.09375 L 122.429688 121.066406 L 82.800781 121.066406 Z M 82.800781 102.09375 " fill-opacity="1" fill-rule="nonzero"/></g><g clip-path="url(#734349195d)"><path fill="#c8cbcb" d="M 125.625 102.09375 L 165.253906 102.09375 L 165.253906 121.066406 L 125.625 121.066406 Z M 125.625 102.09375 " fill-opacity="1" fill-rule="nonzero"/></g></svg>