<svg xmlns="http://www.w3.org/2000/svg" xmlns:xlink="http://www.w3.org/1999/xlink" width="300" zoomAndPan="magnify" viewBox="0 0 224.87999 168.749997" height="225" preserveAspectRatio="xMidYMid meet" version="1.0"><defs><g/><clipPath id="cd25f5f804"><path d="M 5.984375 6.058594 L 219.1875 6.058594 L 219.1875 162.441406 L 5.984375 162.441406 Z M 5.984375 6.058594 " clip-rule="nonzero"/></clipPath><clipPath id="157ff924b2"><path d="M 55.734375 50.800781 L 91.6875 50.800781 L 91.6875 68.015625 L 55.734375 68.015625 Z M 55.734375 50.800781 " clip-rule="nonzero"/></clipPath><clipPath id="b19ca97fd7"><path d="M 94.339844 50.800781 L 130.292969 50.800781 L 130.292969 68.015625 L 94.339844 68.015625 Z M 94.339844 50.800781 " clip-rule="nonzero"/></clipPath><clipPath id="857df97e8b"><path d="M 133.191406 50.800781 L 169.144531 50.800781 L 169.144531 68.015625 L 133.191406 68.015625 Z M 133.191406 50.800781 " clip-rule="nonzero"/></clipPath><clipPath id="5f6005b372"><path d="M 55.734375 73.011719 L 91.6875 73.011719 L 91.6875 90.226562 L 55.734375 90.226562 Z M 55.734375 73.011719 " clip-rule="nonzero"/></clipPath><clipPath id="d0aa3f32f0"><path d="M 94.339844 73.011719 L 130.292969 73.011719 L 130.292969 90.226562 L 94.339844 90.226562 Z M 94.339844 73.011719 " clip-rule="nonzero"/></clipPath><clipPath id="3aad669ff0"><path d="M 133.191406 73.011719 L 169.144531 73.011719 L 169.144531 90.226562 L 133.191406 90.226562 Z M 133.191406 73.011719 " clip-rule="nonzero"/></clipPath><clipPath id="d8a2250490"><path d="M 55.734375 30.28125 L 169.144531 30.28125 L 169.144531 45.726562 L 55.734375 45.726562 Z M 55.734375 30.28125 " clip-rule="nonzero"/></clipPath><clipPath id="915cd9ff53"><path d="M 55.734375 95.296875 L 91.6875 95.296875 L 91.6875 112.511719 L 55.734375 112.511719 Z M 55.734375 95.296875 " clip-rule="nonzero"/></clipPath><clipPath id="d2bcb1d3a3"><path d="M 94.339844 95.296875 L 130.292969 95.296875 L 130.292969 112.511719 L 94.339844 112.511719 Z M 94.339844 95.296875 " clip-rule="nonzero"/></clipPath><clipPath id="4da45206e8"><path d="M 133.191406 95.296875 L 169.144531 95.296875 L 169.144531 112.511719 L 133.191406 112.511719 Z M 133.191406 95.296875 " clip-rule="nonzero"/></clipPath></defs><g clip-path="url(#cd25f5f804)"><path fill="#ececec" d="M 5.984375 6.058594 L 219.179688 6.058594 L 219.179688 162.441406 L 5.984375 162.441406 Z M 5.984375 6.058594 " fill-opacity="1" fill-rule="nonzero"/></g><g fill="#423e3e" fill-opacity="1"><g transform="translate(79.474102, 145.878556)"><g><path d="M 4.859375 0 L 4.859375 -11.875 L 0.390625 -11.875 L 0.390625 -14.859375 L 12.375 -14.859375 L 12.375 -11.875 L 7.90625 -11.875 L 7.90625 0 Z M 4.859375 0 "/></g></g></g><g fill="#423e3e" fill-opacity="1"><g transform="translate(92.239579, 145.878556)"><g><path d="M 3.078125 0 L -0.015625 0 L 5.65625 -14.859375 L 9.359375 -14.859375 L 15.046875 0 L 11.875 0 L 10.75 -3 L 4.171875 -3 Z M 7.46875 -11.875 L 5.234375 -5.84375 L 9.71875 -5.84375 Z M 7.46875 -11.875 "/></g></g></g><g fill="#423e3e" fill-opacity="1"><g transform="translate(107.262252, 145.878556)"><g><path d="M 13.28125 -4.09375 C 13.28125 -3.332031 13.128906 -2.691406 12.828125 -2.171875 C 12.523438 -1.660156 12.117188 -1.242188 11.609375 -0.921875 C 11.097656 -0.597656 10.53125 -0.363281 9.90625 -0.21875 C 9.28125 -0.0703125 8.640625 0 7.984375 0 L 1.71875 0 L 1.71875 -14.859375 L 7.890625 -14.859375 C 8.691406 -14.859375 9.453125 -14.710938 10.171875 -14.421875 C 10.898438 -14.140625 11.492188 -13.707031 11.953125 -13.125 C 12.410156 -12.539062 12.640625 -11.804688 12.640625 -10.921875 C 12.640625 -10.191406 12.453125 -9.5625 12.078125 -9.03125 C 11.703125 -8.507812 11.191406 -8.085938 10.546875 -7.765625 L 10.546875 -7.71875 C 11.429688 -7.394531 12.109375 -6.957031 12.578125 -6.40625 C 13.046875 -5.851562 13.28125 -5.082031 13.28125 -4.09375 Z M 9.625 -10.453125 C 9.625 -10.867188 9.515625 -11.191406 9.296875 -11.421875 C 9.078125 -11.648438 8.800781 -11.804688 8.46875 -11.890625 C 8.144531 -11.984375 7.8125 -12.03125 7.46875 -12.03125 L 4.71875 -12.03125 L 4.71875 -8.828125 L 7.265625 -8.828125 C 7.628906 -8.828125 7.988281 -8.863281 8.34375 -8.9375 C 8.707031 -9.019531 9.007812 -9.179688 9.25 -9.421875 C 9.5 -9.660156 9.625 -10.003906 9.625 -10.453125 Z M 10.28125 -4.5 C 10.28125 -4.96875 10.15625 -5.316406 9.90625 -5.546875 C 9.664062 -5.785156 9.359375 -5.945312 8.984375 -6.03125 C 8.609375 -6.125 8.234375 -6.171875 7.859375 -6.171875 L 4.71875 -6.171875 L 4.71875 -2.84375 L 7.953125 -2.84375 C 8.316406 -2.84375 8.675781 -2.882812 9.03125 -2.96875 C 9.394531 -3.0625 9.691406 -3.226562 9.921875 -3.46875 C 10.160156 -3.707031 10.28125 -4.050781 10.28125 -4.5 Z M 10.28125 -4.5 "/></g></g></g><g fill="#423e3e" fill-opacity="1"><g transform="translate(121.374454, 145.878556)"><g><path d="M 1.71875 -14.859375 L 4.78125 -14.859375 L 4.78125 -2.921875 L 11.140625 -2.921875 L 11.140625 0 L 1.71875 0 Z M 1.71875 -14.859375 "/></g></g></g><g fill="#423e3e" fill-opacity="1"><g transform="translate(132.831133, 145.878556)"><g><path d="M 1.71875 -14.859375 L 11.453125 -14.859375 L 11.453125 -11.96875 L 4.765625 -11.96875 L 4.765625 -8.953125 L 10.75 -8.953125 L 10.75 -6.0625 L 4.765625 -6.0625 L 4.765625 -2.859375 L 11.5 -2.859375 L 11.5 0 L 1.71875 0 Z M 1.71875 -14.859375 "/></g></g></g><g clip-path="url(#157ff924b2)"><path fill="#625e5e" d="M 55.734375 50.800781 L 91.707031 50.800781 L 91.707031 68.015625 L 55.734375 68.015625 Z M 55.734375 50.800781 " fill-opacity="1" fill-rule="nonzero"/></g><g clip-path="url(#b19ca97fd7)"><path fill="#ddd9d9" d="M 94.339844 50.800781 L 130.3125 50.800781 L 130.3125 68.015625 L 94.339844 68.015625 Z M 94.339844 50.800781 " fill-opacity="1" fill-rule="nonzero"/></g><g clip-path="url(#857df97e8b)"><path fill="#a6a6a6" d="M 133.191406 50.800781 L 169.164062 50.800781 L 169.164062 68.015625 L 133.191406 68.015625 Z M 133.191406 50.800781 " fill-opacity="1" fill-rule="nonzero"/></g><g clip-path="url(#5f6005b372)"><path fill="#a6a6a6" d="M 55.734375 73.011719 L 91.707031 73.011719 L 91.707031 90.226562 L 55.734375 90.226562 Z M 55.734375 73.011719 " fill-opacity="1" fill-rule="nonzero"/></g><g clip-path="url(#d0aa3f32f0)"><path fill="#bebebe" d="M 94.339844 73.011719 L 130.3125 73.011719 L 130.3125 90.226562 L 94.339844 90.226562 Z M 94.339844 73.011719 " fill-opacity="1" fill-rule="nonzero"/></g><g clip-path="url(#3aad669ff0)"><path fill="#c8cbcb" d="M 133.191406 73.011719 L 169.164062 73.011719 L 169.164062 90.226562 L 133.191406 90.226562 Z M 133.191406 73.011719 " fill-opacity="1" fill-rule="nonzero"/></g><g clip-path="url(#d8a2250490)"><path fill="#625e5e" d="M 55.734375 30.28125 L 169.125 30.28125 L 169.125 45.726562 L 55.734375 45.726562 Z M 55.734375 30.28125 " fill-opacity="1" fill-rule="nonzero"/></g><g clip-path="url(#915cd9ff53)"><path fill="#625e5e" d="M 55.734375 95.296875 L 91.707031 95.296875 L 91.707031 112.511719 L 55.734375 112.511719 Z M 55.734375 95.296875 " fill-opacity="1" fill-rule="nonzero"/></g><g clip-path="url(#d2bcb1d3a3)"><path fill="#a6a6a6" d="M 94.339844 95.296875 L 130.3125 95.296875 L 130.3125 112.511719 L 94.339844 112.511719 Z M 94.339844 95.296875 " fill-opacity="1" fill-rule="nonzero"/></g><g clip-path="url(#4da45206e8)"><path fill="#c8cbcb" d="M 133.191406 95.296875 L 169.164062 95.296875 L 169.164062 112.511719 L 133.191406 112.511719 Z M 133.191406 95.296875 " fill-opacity="1" fill-rule="nonzero"/></g></svg>