<svg xmlns="http://www.w3.org/2000/svg" xmlns:xlink="http://www.w3.org/1999/xlink" width="61" zoomAndPan="magnify" viewBox="0 0 46.079998 37.92" height="40" preserveAspectRatio="xMidYMid meet" version="1.2"><defs><clipPath id="c2674f786b"><path d="M 3.78125 8.265625 L 15.605469 8.265625 L 15.605469 13.925781 L 3.78125 13.925781 Z M 3.78125 8.265625 "/></clipPath><clipPath id="842353394f"><path d="M 16.476562 8.265625 L 28.296875 8.265625 L 28.296875 13.925781 L 16.476562 13.925781 Z M 16.476562 8.265625 "/></clipPath><clipPath id="fdf62f13a9"><path d="M 29.25 8.265625 L 41.074219 8.265625 L 41.074219 13.925781 L 29.25 13.925781 Z M 29.25 8.265625 "/></clipPath><clipPath id="a938aa2dcf"><path d="M 3.78125 15.570312 L 15.605469 15.570312 L 15.605469 21.230469 L 3.78125 21.230469 Z M 3.78125 15.570312 "/></clipPath><clipPath id="58efc03ecd"><path d="M 16.476562 15.570312 L 28.296875 15.570312 L 28.296875 21.230469 L 16.476562 21.230469 Z M 16.476562 15.570312 "/></clipPath><clipPath id="5d1677a0a6"><path d="M 29.25 15.570312 L 41.074219 15.570312 L 41.074219 21.230469 L 29.25 21.230469 Z M 29.25 15.570312 "/></clipPath><clipPath id="8931d7dc39"><path d="M 3.78125 1.519531 L 41.074219 1.519531 L 41.074219 6.597656 L 3.78125 6.597656 Z M 3.78125 1.519531 "/></clipPath><clipPath id="4848dda499"><path d="M 3.78125 22.898438 L 15.605469 22.898438 L 15.605469 28.558594 L 3.78125 28.558594 Z M 3.78125 22.898438 "/></clipPath><clipPath id="139a9b955c"><path d="M 16.476562 22.898438 L 28.296875 22.898438 L 28.296875 28.558594 L 16.476562 28.558594 Z M 16.476562 22.898438 "/></clipPath><clipPath id="387512ea1c"><path d="M 29.25 22.898438 L 41.074219 22.898438 L 41.074219 28.558594 L 29.25 28.558594 Z M 29.25 22.898438 "/></clipPath></defs><g id="c17b974f50"><g clip-rule="nonzero" clip-path="url(#c2674f786b)"><path style=" stroke:none;fill-rule:nonzero;fill:#585958;fill-opacity:1;" d="M 3.78125 8.265625 L 15.609375 8.265625 L 15.609375 13.925781 L 3.78125 13.925781 Z M 3.78125 8.265625 "/></g><g clip-rule="nonzero" clip-path="url(#842353394f)"><path style=" stroke:none;fill-rule:nonzero;fill:#e4e2df;fill-opacity:1;" d="M 16.476562 8.265625 L 28.304688 8.265625 L 28.304688 13.925781 L 16.476562 13.925781 Z M 16.476562 8.265625 "/></g><g clip-rule="nonzero" clip-path="url(#fdf62f13a9)"><path style=" stroke:none;fill-rule:nonzero;fill:#bab8b7;fill-opacity:1;" d="M 29.25 8.265625 L 41.078125 8.265625 L 41.078125 13.925781 L 29.25 13.925781 Z M 29.25 8.265625 "/></g><g clip-rule="nonzero" clip-path="url(#a938aa2dcf)"><path style=" stroke:none;fill-rule:nonzero;fill:#e4e2df;fill-opacity:1;" d="M 3.78125 15.570312 L 15.609375 15.570312 L 15.609375 21.230469 L 3.78125 21.230469 Z M 3.78125 15.570312 "/></g><g clip-rule="nonzero" clip-path="url(#58efc03ecd)"><path style=" stroke:none;fill-rule:nonzero;fill:#bab8b7;fill-opacity:1;" d="M 16.476562 15.570312 L 28.304688 15.570312 L 28.304688 21.230469 L 16.476562 21.230469 Z M 16.476562 15.570312 "/></g><g clip-rule="nonzero" clip-path="url(#5d1677a0a6)"><path style=" stroke:none;fill-rule:nonzero;fill:#e4e2df;fill-opacity:1;" d="M 29.25 15.570312 L 41.078125 15.570312 L 41.078125 21.230469 L 29.25 21.230469 Z M 29.25 15.570312 "/></g><g clip-rule="nonzero" clip-path="url(#8931d7dc39)"><path style=" stroke:none;fill-rule:nonzero;fill:#585958;fill-opacity:1;" d="M 3.78125 1.519531 L 41.066406 1.519531 L 41.066406 6.597656 L 3.78125 6.597656 Z M 3.78125 1.519531 "/></g><g clip-rule="nonzero" clip-path="url(#4848dda499)"><path style=" stroke:none;fill-rule:nonzero;fill:#585958;fill-opacity:1;" d="M 3.78125 22.898438 L 15.609375 22.898438 L 15.609375 28.558594 L 3.78125 28.558594 Z M 3.78125 22.898438 "/></g><g clip-rule="nonzero" clip-path="url(#139a9b955c)"><path style=" stroke:none;fill-rule:nonzero;fill:#e4e2df;fill-opacity:1;" d="M 16.476562 22.898438 L 28.304688 22.898438 L 28.304688 28.558594 L 16.476562 28.558594 Z M 16.476562 22.898438 "/></g><g clip-rule="nonzero" clip-path="url(#387512ea1c)"><path style=" stroke:none;fill-rule:nonzero;fill:#bab8b7;fill-opacity:1;" d="M 29.25 22.898438 L 41.078125 22.898438 L 41.078125 28.558594 L 29.25 28.558594 Z M 29.25 22.898438 "/></g></g></svg>