<svg xmlns="http://www.w3.org/2000/svg" xmlns:xlink="http://www.w3.org/1999/xlink" width="275" zoomAndPan="magnify" viewBox="0 0 206.25 187.499992" height="250" preserveAspectRatio="xMidYMid meet" version="1.0"><defs><g/><clipPath id="e207c8c690"><path d="M 6.664062 6.203125 L 198.839844 6.203125 L 198.839844 145.292969 L 6.664062 145.292969 Z M 6.664062 6.203125 " clip-rule="nonzero"/></clipPath><clipPath id="9358bd3a8f"><path d="M 36.445312 151.675781 L 172.226562 151.675781 L 172.226562 179.699219 L 36.445312 179.699219 Z M 36.445312 151.675781 " clip-rule="nonzero"/></clipPath><clipPath id="953d5c4cbb"><path d="M 24.304688 60.121094 L 181.214844 60.121094 L 181.214844 90.480469 L 24.304688 90.480469 Z M 24.304688 60.121094 " clip-rule="nonzero"/></clipPath></defs><g clip-path="url(#e207c8c690)"><path fill="#ececec" d="M 6.664062 6.203125 L 198.839844 6.203125 L 198.839844 145.292969 L 6.664062 145.292969 Z M 6.664062 6.203125 " fill-opacity="1" fill-rule="nonzero"/></g><g clip-path="url(#9358bd3a8f)"><path fill="#ffffff" d="M 36.445312 151.675781 L 172.226562 151.675781 L 172.226562 179.699219 L 36.445312 179.699219 Z M 36.445312 151.675781 " fill-opacity="1" fill-rule="nonzero"/></g><g fill="#423e3e" fill-opacity="1"><g transform="translate(42.291524, 172.139648)"><g><path d="M 4.847656 0 L 7.894531 0 L 7.894531 -11.847656 L 12.339844 -11.847656 L 12.339844 -14.820312 L 0.398438 -14.820312 L 0.398438 -11.847656 L 4.847656 -11.847656 Z M 4.847656 0 "/></g></g></g><g fill="#423e3e" fill-opacity="1"><g transform="translate(55.029593, 172.139648)"><g><path d="M 1.722656 -14.820312 L 1.722656 0 L 11.472656 0 L 11.472656 -2.859375 L 4.75 -2.859375 L 4.75 -6.058594 L 10.734375 -6.058594 L 10.734375 -8.933594 L 4.75 -8.933594 L 4.75 -11.945312 L 11.433594 -11.945312 L 11.433594 -14.820312 Z M 1.722656 -14.820312 "/></g></g></g><g fill="#423e3e" fill-opacity="1"><g transform="translate(67.578389, 172.139648)"><g><path d="M 3.445312 0 L 7.117188 -5.335938 L 10.734375 0 L 14.308594 0 L 8.972656 -7.648438 L 14.046875 -14.820312 L 10.46875 -14.820312 L 7.15625 -10.011719 L 3.878906 -14.820312 L 0.285156 -14.820312 L 5.320312 -7.628906 L -0.0195312 0 Z M 3.445312 0 "/></g></g></g><g fill="#423e3e" fill-opacity="1"><g transform="translate(81.868492, 172.139648)"><g><path d="M 4.847656 0 L 7.894531 0 L 7.894531 -11.847656 L 12.339844 -11.847656 L 12.339844 -14.820312 L 0.398438 -14.820312 L 0.398438 -11.847656 L 4.847656 -11.847656 Z M 4.847656 0 "/></g></g></g><g fill="#423e3e" fill-opacity="1"><g transform="translate(94.606561, 172.139648)"><g/></g></g><g fill="#423e3e" fill-opacity="1"><g transform="translate(99.357306, 172.139648)"><g><path d="M 4.789062 -14.820312 L 1.722656 -14.820312 L 1.722656 0 L 4.789062 0 Z M 4.789062 -14.820312 "/></g></g></g><g fill="#423e3e" fill-opacity="1"><g transform="translate(105.887226, 172.139648)"><g><path d="M 4.75 -10.222656 L 11.566406 0 L 14.6875 0 L 14.6875 -14.820312 L 11.660156 -14.820312 L 11.660156 -5.148438 L 5.222656 -14.820312 L 1.722656 -14.820312 L 1.722656 0 L 4.75 0 Z M 4.75 -10.222656 "/></g></g></g><g fill="#423e3e" fill-opacity="1"><g transform="translate(122.31612, 172.139648)"><g><path d="M 12.53125 -10.070312 C 12.53125 -13.210938 10.203125 -14.820312 7.230469 -14.820312 L 1.722656 -14.820312 L 1.722656 0 L 4.789062 0 L 4.789062 -5.222656 L 7.117188 -5.222656 C 10.222656 -5.222656 12.53125 -6.796875 12.53125 -10.070312 Z M 9.445312 -9.996094 C 9.445312 -8.613281 8.195312 -8.082031 6.984375 -8.082031 L 4.789062 -8.082031 L 4.789062 -11.925781 L 6.964844 -11.925781 C 8.234375 -11.925781 9.445312 -11.433594 9.445312 -9.996094 Z M 9.445312 -9.996094 "/></g></g></g><g fill="#423e3e" fill-opacity="1"><g transform="translate(135.413804, 172.139648)"><g><path d="M 13.476562 -5.980469 L 13.476562 -14.820312 L 10.449219 -14.820312 L 10.449219 -5.867188 C 10.449219 -3.992188 9.40625 -2.746094 7.515625 -2.746094 C 5.90625 -2.746094 4.636719 -3.746094 4.636719 -5.945312 L 4.65625 -14.820312 L 1.570312 -14.820312 L 1.570312 -5.867188 C 1.570312 -2.289062 3.386719 0.207031 7.496094 0.207031 C 11.507812 0.207031 13.476562 -2.195312 13.476562 -5.980469 Z M 13.476562 -5.980469 "/></g></g></g><g fill="#423e3e" fill-opacity="1"><g transform="translate(150.460997, 172.139648)"><g><path d="M 4.847656 0 L 7.894531 0 L 7.894531 -11.847656 L 12.339844 -11.847656 L 12.339844 -14.820312 L 0.398438 -14.820312 L 0.398438 -11.847656 L 4.847656 -11.847656 Z M 4.847656 0 "/></g></g></g><g clip-path="url(#953d5c4cbb)"><path stroke-linecap="butt" transform="matrix(0, 0.747283, -0.747283, 0, 181.216274, 60.120443)" fill="none" stroke-linejoin="miter" d="M 0.000871124 0.0019136 L 40.627236 0.0019136 L 40.627236 210.012831 L 0.000871124 210.012831 Z M 0.000871124 0.0019136 " stroke="#a6a6a6" stroke-width="4" stroke-opacity="1" stroke-miterlimit="4"/></g><g fill="#423e3e" fill-opacity="1"><g transform="translate(36.444811, 83.40516)"><g><path d="M 15.6875 0 L 13.15625 0 L 11.1875 -5.109375 L 4.171875 -5.109375 L 2.34375 0 L -0.03125 0 L 6.421875 -16.796875 L 8.8125 -16.796875 Z M 6.65625 -11.828125 L 4.828125 -6.890625 L 10.5 -6.890625 L 8.4375 -12.4375 C 8.1875 -13.09375 7.898438 -13.957031 7.578125 -15.03125 C 7.578125 -14.957031 7.484375 -14.5625 7.296875 -13.84375 C 7.109375 -13.132812 6.894531 -12.460938 6.65625 -11.828125 Z M 6.65625 -11.828125 "/></g></g></g><g fill="#423e3e" fill-opacity="1"><g transform="translate(56.189504, 83.40516)"><g><path d="M 3.640625 -10.78125 C 4.492188 -11.882812 5.601562 -12.4375 6.96875 -12.4375 C 7.96875 -12.4375 8.859375 -12.179688 9.640625 -11.671875 C 10.421875 -11.160156 11.03125 -10.445312 11.46875 -9.53125 C 11.90625 -8.613281 12.125 -7.554688 12.125 -6.359375 C 12.125 -4.960938 11.890625 -3.765625 11.421875 -2.765625 C 10.953125 -1.765625 10.3125 -1.007812 9.5 -0.5 C 8.695312 0.0078125 7.8125 0.265625 6.84375 0.265625 C 6.0625 0.265625 5.382812 0.0820312 4.8125 -0.28125 C 4.25 -0.644531 3.8125 -1.0625 3.5 -1.53125 L 3.5 0 L 1.578125 0 L 1.578125 -16.796875 L 3.640625 -16.796875 Z M 3.46875 -6.078125 C 3.46875 -5.429688 3.488281 -4.953125 3.53125 -4.640625 C 3.582031 -4.328125 3.664062 -4 3.78125 -3.65625 C 4.070312 -2.832031 4.492188 -2.253906 5.046875 -1.921875 C 5.609375 -1.597656 6.15625 -1.4375 6.6875 -1.4375 C 7.695312 -1.4375 8.503906 -1.851562 9.109375 -2.6875 C 9.710938 -3.519531 10.015625 -4.734375 10.015625 -6.328125 C 10.015625 -7.628906 9.71875 -8.6875 9.125 -9.5 C 8.539062 -10.320312 7.75 -10.734375 6.75 -10.734375 C 6.15625 -10.734375 5.609375 -10.550781 5.109375 -10.1875 C 4.609375 -9.832031 4.207031 -9.300781 3.90625 -8.59375 C 3.613281 -7.894531 3.46875 -7.054688 3.46875 -6.078125 Z M 3.46875 -6.078125 "/></g></g></g><g fill="#423e3e" fill-opacity="1"><g transform="translate(73.331697, 83.40516)"><g><path d="M 6.65625 -12.4375 C 7.863281 -12.4375 8.878906 -12.101562 9.703125 -11.4375 C 10.535156 -10.769531 11.066406 -9.816406 11.296875 -8.578125 L 9.3125 -8.28125 C 9.132812 -9.007812 8.816406 -9.597656 8.359375 -10.046875 C 7.910156 -10.503906 7.304688 -10.734375 6.546875 -10.734375 C 5.453125 -10.734375 4.59375 -10.34375 3.96875 -9.5625 C 3.34375 -8.78125 3.03125 -7.640625 3.03125 -6.140625 C 3.03125 -4.609375 3.320312 -3.441406 3.90625 -2.640625 C 4.488281 -1.835938 5.328125 -1.4375 6.421875 -1.4375 C 7.316406 -1.4375 8.015625 -1.703125 8.515625 -2.234375 C 9.015625 -2.773438 9.332031 -3.515625 9.46875 -4.453125 L 11.515625 -4.203125 C 11.296875 -2.796875 10.726562 -1.695312 9.8125 -0.90625 C 8.894531 -0.125 7.765625 0.265625 6.421875 0.265625 C 4.691406 0.265625 3.34375 -0.300781 2.375 -1.4375 C 1.40625 -2.570312 0.921875 -4.171875 0.921875 -6.234375 C 0.921875 -8.171875 1.429688 -9.6875 2.453125 -10.78125 C 3.472656 -11.882812 4.875 -12.4375 6.65625 -12.4375 Z M 6.65625 -12.4375 "/></g></g></g></svg>