<svg xmlns="http://www.w3.org/2000/svg" xmlns:xlink="http://www.w3.org/1999/xlink" width="275" zoomAndPan="magnify" viewBox="0 0 206.25 187.499992" height="250" preserveAspectRatio="xMidYMid meet" version="1.0"><defs><g/><clipPath id="aae681bb00"><path d="M 6.664062 6.203125 L 198.839844 6.203125 L 198.839844 145.292969 L 6.664062 145.292969 Z M 6.664062 6.203125 " clip-rule="nonzero"/></clipPath><clipPath id="dae7f5b3d0"><path d="M 58.085938 151.675781 L 149.378906 151.675781 L 149.378906 179.699219 L 58.085938 179.699219 Z M 58.085938 151.675781 " clip-rule="nonzero"/></clipPath><clipPath id="c095e256a0"><path d="M 0 0.0898438 L 205.503906 0.0898438 L 205.503906 182 L 0 182 Z M 0 0.0898438 " clip-rule="nonzero"/></clipPath></defs><g clip-path="url(#aae681bb00)"><path fill="#ececec" d="M 6.664062 6.203125 L 198.839844 6.203125 L 198.839844 145.292969 L 6.664062 145.292969 Z M 6.664062 6.203125 " fill-opacity="1" fill-rule="nonzero"/></g><g clip-path="url(#dae7f5b3d0)"><path fill="#ffffff" d="M 58.085938 151.675781 L 149.378906 151.675781 L 149.378906 179.699219 L 58.085938 179.699219 Z M 58.085938 151.675781 " fill-opacity="1" fill-rule="nonzero"/></g><g fill="#423e3e" fill-opacity="1"><g transform="translate(75.213984, 172.787288)"><g><path d="M 5.101562 0 L 8.308594 0 L 8.308594 -12.472656 L 12.988281 -12.472656 L 12.988281 -15.597656 L 0.417969 -15.597656 L 0.417969 -12.472656 L 5.101562 -12.472656 Z M 5.101562 0 "/></g></g></g><g fill="#423e3e" fill-opacity="1"><g transform="translate(88.619927, 172.787288)"><g><path d="M 1.8125 -15.597656 L 1.8125 0 L 12.074219 0 L 12.074219 -3.007812 L 5 -3.007812 L 5 -6.375 L 11.296875 -6.375 L 11.296875 -9.402344 L 5 -9.402344 L 5 -12.570312 L 12.035156 -12.570312 L 12.035156 -15.597656 Z M 1.8125 -15.597656 "/></g></g></g><g fill="#423e3e" fill-opacity="1"><g transform="translate(101.826678, 172.787288)"><g><path d="M 3.625 0 L 7.492188 -5.617188 L 11.296875 0 L 15.0625 0 L 9.441406 -8.046875 L 14.78125 -15.597656 L 11.015625 -15.597656 L 7.53125 -10.539062 L 4.085938 -15.597656 L 0.300781 -15.597656 L 5.597656 -8.027344 L -0.0195312 0 Z M 3.625 0 "/></g></g></g><g fill="#423e3e" fill-opacity="1"><g transform="translate(116.866037, 172.787288)"><g><path d="M 5.101562 0 L 8.308594 0 L 8.308594 -12.472656 L 12.988281 -12.472656 L 12.988281 -15.597656 L 0.417969 -15.597656 L 0.417969 -12.472656 L 5.101562 -12.472656 Z M 5.101562 0 "/></g></g></g><path stroke-linecap="butt" transform="matrix(0.747283, 0, 0, 0.747283, 24.626679, 104.412369)" fill="none" stroke-linejoin="miter" d="M -0.00224703 14.497494 L 209.10958 14.497494 " stroke="#a6a6a6" stroke-width="29" stroke-opacity="1" stroke-miterlimit="4"/><path stroke-linecap="butt" transform="matrix(0.747283, 0, 0, 0.747283, 24.619533, 76.28477)" fill="none" stroke-linejoin="miter" d="M 0.00208889 14.500972 L 209.108689 14.500972 " stroke="#a6a6a6" stroke-width="29" stroke-opacity="1" stroke-miterlimit="4"/><g clip-path="url(#c095e256a0)"><path stroke-linecap="butt" transform="matrix(0.747278, 0.00258002, -0.00258002, 0.747278, 77.260202, 47.530216)" fill="none" stroke-linejoin="miter" d="M -0.000174263 14.501925 L 138.716782 14.498681 " stroke="#a6a6a6" stroke-width="29" stroke-opacity="1" stroke-miterlimit="4"/></g><path stroke-linecap="butt" transform="matrix(0.747283, 0, 0, 0.747283, 77.222795, 19.760429)" fill="none" stroke-linejoin="miter" d="M -0.000185149 14.502181 L 138.705502 14.502181 " stroke="#a6a6a6" stroke-width="29" stroke-opacity="1" stroke-miterlimit="4"/><g fill="#423e3e" fill-opacity="1"><g transform="translate(24.626679, 69.033924)"><g><path d="M 47.390625 0 L 37.125 0 L 33.40625 -11.390625 L 14.5 -11.390625 L 10.78125 0 L 0.75 0 L 17.796875 -49.390625 L 30.34375 -49.390625 Z M 23.484375 -39.09375 L 17.125 -19.59375 L 30.703125 -19.59375 L 24.328125 -39.09375 Z M 23.484375 -39.09375 "/></g></g></g></svg>