<svg xmlns="http://www.w3.org/2000/svg" xmlns:xlink="http://www.w3.org/1999/xlink" width="300" zoomAndPan="magnify" viewBox="0 0 224.87999 168.749997" height="225" preserveAspectRatio="xMidYMid meet" version="1.0"><defs><g/><clipPath id="2c194c2b1a"><path d="M 5.984375 6.058594 L 219.1875 6.058594 L 219.1875 162.441406 L 5.984375 162.441406 Z M 5.984375 6.058594 " clip-rule="nonzero"/></clipPath><clipPath id="399817a82f"><path d="M 63.242188 37.136719 L 154.148438 37.136719 L 154.148438 107.292969 L 63.242188 107.292969 Z M 63.242188 37.136719 " clip-rule="nonzero"/></clipPath></defs><g clip-path="url(#2c194c2b1a)"><path fill="#ececec" d="M 5.984375 6.058594 L 219.179688 6.058594 L 219.179688 162.441406 L 5.984375 162.441406 Z M 5.984375 6.058594 " fill-opacity="1" fill-rule="nonzero"/></g><g fill="#423e3e" fill-opacity="1"><g transform="translate(51.856696, 145.878573)"><g><path d="M 4.859375 0 L 4.859375 -11.875 L 0.390625 -11.875 L 0.390625 -14.859375 L 12.375 -14.859375 L 12.375 -11.875 L 7.90625 -11.875 L 7.90625 0 Z M 4.859375 0 "/></g></g></g><g fill="#423e3e" fill-opacity="1"><g transform="translate(64.622173, 145.878573)"><g><path d="M 1.71875 -14.859375 L 11.453125 -14.859375 L 11.453125 -11.96875 L 4.765625 -11.96875 L 4.765625 -8.953125 L 10.75 -8.953125 L 10.75 -6.0625 L 4.765625 -6.0625 L 4.765625 -2.859375 L 11.5 -2.859375 L 11.5 0 L 1.71875 0 Z M 1.71875 -14.859375 "/></g></g></g><g fill="#423e3e" fill-opacity="1"><g transform="translate(77.19797, 145.878573)"><g><path d="M 3.453125 0 L -0.015625 0 L 5.328125 -7.640625 L 0.28125 -14.859375 L 3.890625 -14.859375 L 7.171875 -10.03125 L 10.484375 -14.859375 L 14.078125 -14.859375 L 8.984375 -7.65625 L 14.34375 0 L 10.75 0 L 7.125 -5.34375 Z M 3.453125 0 "/></g></g></g><g fill="#423e3e" fill-opacity="1"><g transform="translate(91.518821, 145.878573)"><g><path d="M 4.859375 0 L 4.859375 -11.875 L 0.390625 -11.875 L 0.390625 -14.859375 L 12.375 -14.859375 L 12.375 -11.875 L 7.90625 -11.875 L 7.90625 0 Z M 4.859375 0 "/></g></g></g><g fill="#423e3e" fill-opacity="1"><g transform="translate(104.284298, 145.878573)"><g/></g></g><g fill="#423e3e" fill-opacity="1"><g transform="translate(109.045265, 145.878573)"><g><path d="M 4.796875 -14.859375 L 4.796875 0 L 1.71875 0 L 1.71875 -14.859375 Z M 4.796875 -14.859375 "/></g></g></g><g fill="#423e3e" fill-opacity="1"><g transform="translate(115.589235, 145.878573)"><g><path d="M 4.765625 -10.25 L 4.765625 0 L 1.71875 0 L 1.71875 -14.859375 L 5.234375 -14.859375 L 11.6875 -5.15625 L 11.6875 -14.859375 L 14.71875 -14.859375 L 14.71875 0 L 11.59375 0 Z M 4.765625 -10.25 "/></g></g></g><g fill="#423e3e" fill-opacity="1"><g transform="translate(132.053479, 145.878573)"><g><path d="M 12.5625 -10.09375 C 12.5625 -9 12.320312 -8.09375 11.84375 -7.375 C 11.375 -6.65625 10.726562 -6.117188 9.90625 -5.765625 C 9.09375 -5.410156 8.164062 -5.234375 7.125 -5.234375 L 4.796875 -5.234375 L 4.796875 0 L 1.71875 0 L 1.71875 -14.859375 L 7.25 -14.859375 C 8.25 -14.859375 9.144531 -14.679688 9.9375 -14.328125 C 10.738281 -13.972656 11.375 -13.441406 11.84375 -12.734375 C 12.320312 -12.023438 12.5625 -11.144531 12.5625 -10.09375 Z M 9.46875 -10.015625 C 9.46875 -10.492188 9.347656 -10.875 9.109375 -11.15625 C 8.867188 -11.445312 8.5625 -11.648438 8.1875 -11.765625 C 7.8125 -11.890625 7.410156 -11.953125 6.984375 -11.953125 L 4.796875 -11.953125 L 4.796875 -8.09375 L 7 -8.09375 C 7.40625 -8.09375 7.796875 -8.15625 8.171875 -8.28125 C 8.554688 -8.414062 8.867188 -8.625 9.109375 -8.90625 C 9.347656 -9.1875 9.46875 -9.554688 9.46875 -10.015625 Z M 9.46875 -10.015625 "/></g></g></g><g fill="#423e3e" fill-opacity="1"><g transform="translate(145.179345, 145.878573)"><g><path d="M 13.5 -6 C 13.5 -4.726562 13.273438 -3.628906 12.828125 -2.703125 C 12.390625 -1.773438 11.726562 -1.054688 10.84375 -0.546875 C 9.957031 -0.046875 8.847656 0.203125 7.515625 0.203125 C 6.148438 0.203125 5.023438 -0.0507812 4.140625 -0.5625 C 3.265625 -1.082031 2.617188 -1.800781 2.203125 -2.71875 C 1.785156 -3.632812 1.578125 -4.6875 1.578125 -5.875 L 1.578125 -14.859375 L 4.671875 -14.859375 L 4.640625 -5.953125 C 4.640625 -4.859375 4.914062 -4.050781 5.46875 -3.53125 C 6.03125 -3.007812 6.71875 -2.75 7.53125 -2.75 C 8.476562 -2.75 9.203125 -3.035156 9.703125 -3.609375 C 10.210938 -4.191406 10.46875 -4.945312 10.46875 -5.875 L 10.46875 -14.859375 L 13.5 -14.859375 Z M 13.5 -6 "/></g></g></g><g fill="#423e3e" fill-opacity="1"><g transform="translate(160.258914, 145.878573)"><g><path d="M 4.859375 0 L 4.859375 -11.875 L 0.390625 -11.875 L 0.390625 -14.859375 L 12.375 -14.859375 L 12.375 -11.875 L 7.90625 -11.875 L 7.90625 0 Z M 4.859375 0 "/></g></g></g><g fill="#423e3e" fill-opacity="1"><g transform="translate(69.665194, 65.974695)"><g><path d="M 18.21875 0 L 15.28125 0 L 12.984375 -5.9375 L 4.84375 -5.9375 L 2.71875 0 L -0.03125 0 L 7.46875 -19.5 L 10.234375 -19.5 Z M 7.734375 -13.71875 L 5.609375 -8 L 12.203125 -8 L 9.796875 -14.4375 C 9.515625 -15.195312 9.179688 -16.203125 8.796875 -17.453125 C 8.796875 -17.367188 8.6875 -16.910156 8.46875 -16.078125 C 8.25 -15.253906 8.003906 -14.46875 7.734375 -13.71875 Z M 7.734375 -13.71875 "/></g></g></g><g fill="#423e3e" fill-opacity="1"><g transform="translate(88.528507, 65.974695)"><g><path d="M 4.21875 -12.53125 C 5.21875 -13.800781 6.507812 -14.4375 8.09375 -14.4375 C 9.25 -14.4375 10.28125 -14.140625 11.1875 -13.546875 C 12.101562 -12.953125 12.8125 -12.125 13.3125 -11.0625 C 13.820312 -10.007812 14.078125 -8.78125 14.078125 -7.375 C 14.078125 -5.757812 13.804688 -4.367188 13.265625 -3.203125 C 12.722656 -2.046875 11.984375 -1.171875 11.046875 -0.578125 C 10.109375 0.00390625 9.078125 0.296875 7.953125 0.296875 C 7.046875 0.296875 6.257812 0.0859375 5.59375 -0.328125 C 4.9375 -0.742188 4.425781 -1.222656 4.0625 -1.765625 L 4.0625 0 L 1.828125 0 L 1.828125 -19.5 L 4.21875 -19.5 Z M 4.03125 -7.046875 C 4.03125 -6.304688 4.054688 -5.753906 4.109375 -5.390625 C 4.160156 -5.023438 4.253906 -4.644531 4.390625 -4.25 C 4.734375 -3.289062 5.222656 -2.617188 5.859375 -2.234375 C 6.503906 -1.847656 7.140625 -1.65625 7.765625 -1.65625 C 8.941406 -1.65625 9.878906 -2.140625 10.578125 -3.109375 C 11.273438 -4.085938 11.625 -5.503906 11.625 -7.359375 C 11.625 -8.859375 11.285156 -10.082031 10.609375 -11.03125 C 9.929688 -11.988281 9.007812 -12.46875 7.84375 -12.46875 C 7.15625 -12.46875 6.519531 -12.257812 5.9375 -11.84375 C 5.351562 -11.425781 4.890625 -10.804688 4.546875 -9.984375 C 4.203125 -9.171875 4.03125 -8.191406 4.03125 -7.046875 Z M 4.03125 -7.046875 "/></g></g></g><g fill="#423e3e" fill-opacity="1"><g transform="translate(104.370509, 65.974695)"><g><path d="M 7.734375 -14.4375 C 9.128906 -14.4375 10.304688 -14.050781 11.265625 -13.28125 C 12.234375 -12.507812 12.851562 -11.40625 13.125 -9.96875 L 10.8125 -9.609375 C 10.613281 -10.460938 10.25 -11.148438 9.71875 -11.671875 C 9.195312 -12.203125 8.488281 -12.46875 7.59375 -12.46875 C 6.320312 -12.46875 5.320312 -12.015625 4.59375 -11.109375 C 3.875 -10.203125 3.515625 -8.878906 3.515625 -7.140625 C 3.515625 -5.359375 3.851562 -4 4.53125 -3.0625 C 5.21875 -2.125 6.195312 -1.65625 7.46875 -1.65625 C 8.5 -1.65625 9.300781 -1.96875 9.875 -2.59375 C 10.457031 -3.226562 10.832031 -4.085938 11 -5.171875 L 13.375 -4.875 C 13.113281 -3.238281 12.453125 -1.96875 11.390625 -1.0625 C 10.328125 -0.15625 9.019531 0.296875 7.46875 0.296875 C 5.445312 0.296875 3.875 -0.359375 2.75 -1.671875 C 1.625 -2.992188 1.0625 -4.851562 1.0625 -7.25 C 1.0625 -9.5 1.65625 -11.257812 2.84375 -12.53125 C 4.03125 -13.800781 5.660156 -14.4375 7.734375 -14.4375 Z M 7.734375 -14.4375 "/></g></g></g><g fill="#292929" fill-opacity="1"><g transform="translate(118.025152, 67.534316)"><g><path d="M 5.765625 0 L 3.25 0 L 3.25 -21.453125 L 5.765625 -21.453125 Z M 5.765625 0 "/></g></g></g><g clip-path="url(#399817a82f)"><path stroke-linecap="butt" transform="matrix(0, 0.72364, -0.72364, 0, 154.149255, 37.13835)" fill="none" stroke-linejoin="miter" d="M -0.00225368 0.0011303 L 96.946827 0.0011303 L 96.946827 125.624683 L -0.00225368 125.624683 Z M -0.00225368 0.0011303 " stroke="#a6a6a6" stroke-width="4.139574" stroke-opacity="1" stroke-miterlimit="4"/></g></svg>