<svg xmlns="http://www.w3.org/2000/svg" xmlns:xlink="http://www.w3.org/1999/xlink" width="275" zoomAndPan="magnify" viewBox="0 0 206.25 187.499992" height="250" preserveAspectRatio="xMidYMid meet" version="1.0"><defs><g/><clipPath id="1af48170f2"><path d="M 6.664062 6.203125 L 198.839844 6.203125 L 198.839844 145.292969 L 6.664062 145.292969 Z M 6.664062 6.203125 " clip-rule="nonzero"/></clipPath><clipPath id="96b0c42cb3"><path d="M 58.085938 151.675781 L 149.378906 151.675781 L 149.378906 179.699219 L 58.085938 179.699219 Z M 58.085938 151.675781 " clip-rule="nonzero"/></clipPath><clipPath id="c0d9c510c9"><path d="M 0 0.0898438 L 205.503906 0.0898438 L 205.503906 169 L 0 169 Z M 0 0.0898438 " clip-rule="nonzero"/></clipPath></defs><g clip-path="url(#1af48170f2)"><path fill="#ececec" d="M 6.664062 6.203125 L 198.839844 6.203125 L 198.839844 145.292969 L 6.664062 145.292969 Z M 6.664062 6.203125 " fill-opacity="1" fill-rule="nonzero"/></g><g clip-path="url(#96b0c42cb3)"><path fill="#ffffff" d="M 58.085938 151.675781 L 149.378906 151.675781 L 149.378906 179.699219 L 58.085938 179.699219 Z M 58.085938 151.675781 " fill-opacity="1" fill-rule="nonzero"/></g><g fill="#423e3e" fill-opacity="1"><g transform="translate(75.213984, 172.787288)"><g><path d="M 5.101562 0 L 8.308594 0 L 8.308594 -12.472656 L 12.988281 -12.472656 L 12.988281 -15.597656 L 0.417969 -15.597656 L 0.417969 -12.472656 L 5.101562 -12.472656 Z M 5.101562 0 "/></g></g></g><g fill="#423e3e" fill-opacity="1"><g transform="translate(88.619927, 172.787288)"><g><path d="M 1.8125 -15.597656 L 1.8125 0 L 12.074219 0 L 12.074219 -3.007812 L 5 -3.007812 L 5 -6.375 L 11.296875 -6.375 L 11.296875 -9.402344 L 5 -9.402344 L 5 -12.570312 L 12.035156 -12.570312 L 12.035156 -15.597656 Z M 1.8125 -15.597656 "/></g></g></g><g fill="#423e3e" fill-opacity="1"><g transform="translate(101.826678, 172.787288)"><g><path d="M 3.625 0 L 7.492188 -5.617188 L 11.296875 0 L 15.0625 0 L 9.441406 -8.046875 L 14.78125 -15.597656 L 11.015625 -15.597656 L 7.53125 -10.539062 L 4.085938 -15.597656 L 0.300781 -15.597656 L 5.597656 -8.027344 L -0.0195312 0 Z M 3.625 0 "/></g></g></g><g fill="#423e3e" fill-opacity="1"><g transform="translate(116.866037, 172.787288)"><g><path d="M 5.101562 0 L 8.308594 0 L 8.308594 -12.472656 L 12.988281 -12.472656 L 12.988281 -15.597656 L 0.417969 -15.597656 L 0.417969 -12.472656 L 5.101562 -12.472656 Z M 5.101562 0 "/></g></g></g><path stroke-linecap="butt" transform="matrix(0.646644, 0, 0, 0.646644, 35.131808, 101.940834)" fill="none" stroke-linejoin="miter" d="M 0.00155288 14.498827 L 209.110201 14.498827 " stroke="#a6a6a6" stroke-width="29" stroke-opacity="1" stroke-miterlimit="4"/><path stroke-linecap="butt" transform="matrix(0.646644, 0, 0, 0.646644, 35.125623, 77.601271)" fill="none" stroke-linejoin="miter" d="M -0.000964165 14.498392 L 209.107684 14.498392 " stroke="#a6a6a6" stroke-width="29" stroke-opacity="1" stroke-miterlimit="4"/><g clip-path="url(#c0d9c510c9)"><path stroke-linecap="butt" transform="matrix(0.64664, 0.00223256, -0.00223256, 0.64664, 80.677, 52.719196)" fill="none" stroke-linejoin="miter" d="M -0.000158734 14.49734 L 138.715787 14.501682 " stroke="#a6a6a6" stroke-width="29" stroke-opacity="1" stroke-miterlimit="4"/></g><path stroke-linecap="butt" transform="matrix(0.646644, 0, 0, 0.646644, 80.644627, 28.68926)" fill="none" stroke-linejoin="miter" d="M -0.000147515 14.50126 L 138.708911 14.50126 " stroke="#a6a6a6" stroke-width="29" stroke-opacity="1" stroke-miterlimit="4"/><g fill="#423e3e" fill-opacity="1"><g transform="translate(35.131808, 71.326922)"><g><path d="M 41.015625 0 L 32.125 0 L 28.921875 -9.859375 L 12.546875 -9.859375 L 9.328125 0 L 0.640625 0 L 15.40625 -42.75 L 26.25 -42.75 Z M 20.3125 -33.828125 L 14.828125 -16.953125 L 26.578125 -16.953125 L 21.046875 -33.828125 Z M 20.3125 -33.828125 "/></g></g></g></svg>