<svg xmlns="http://www.w3.org/2000/svg" xmlns:xlink="http://www.w3.org/1999/xlink" width="61" zoomAndPan="magnify" viewBox="0 0 45.75 30.000001" height="40" preserveAspectRatio="xMidYMid meet" version="1.2"><defs><clipPath id="65ebd3d8c0"><path d="M 0.617188 0 L 44.890625 0 L 44.890625 29.03125 L 0.617188 29.03125 Z M 0.617188 0 "/></clipPath><clipPath id="9412d7dcb6"><path d="M 1 22 L 44.890625 22 L 44.890625 28 L 1 28 Z M 1 22 "/></clipPath><clipPath id="48ff68754d"><path d="M 1 15 L 44.890625 15 L 44.890625 21 L 1 21 Z M 1 15 "/></clipPath><clipPath id="614ea924eb"><path d="M 0.617188 0 L 44.890625 0 L 44.890625 29.03125 L 0.617188 29.03125 Z M 0.617188 0 "/></clipPath><clipPath id="9db9ce390a"><path d="M 13 1 L 44.890625 1 L 44.890625 7 L 13 7 Z M 13 1 "/></clipPath></defs><g id="ef6a250fdb"><g clip-rule="nonzero" clip-path="url(#65ebd3d8c0)"><path style=" stroke:none;fill-rule:nonzero;fill:#ffffff;fill-opacity:1;" d="M 0.617188 0 L 44.890625 0 L 44.890625 29.03125 L 0.617188 29.03125 Z M 0.617188 0 "/><path style=" stroke:none;fill-rule:nonzero;fill:#ffffff;fill-opacity:1;" d="M 0.617188 0 L 44.890625 0 L 44.890625 29.03125 L 0.617188 29.03125 Z M 0.617188 0 "/></g><g clip-rule="nonzero" clip-path="url(#9412d7dcb6)"><path style="fill:none;stroke-width:29;stroke-linecap:butt;stroke-linejoin:miter;stroke:#a6a6a6;stroke-opacity:1;stroke-miterlimit:4;" d="M 0.00837185 14.491062 L 209.116394 14.491062 " transform="matrix(0.18122,0,0,0.18122,3.795358,22.006744)"/></g><g clip-rule="nonzero" clip-path="url(#48ff68754d)"><path style="fill:none;stroke-width:29;stroke-linecap:butt;stroke-linejoin:miter;stroke:#a6a6a6;stroke-opacity:1;stroke-miterlimit:4;" d="M -0.00361552 14.490676 L 209.104406 14.490676 " transform="matrix(0.18122,0,0,0.18122,3.793624,15.182595)"/></g><g clip-rule="nonzero" clip-path="url(#614ea924eb)"><path style="fill:none;stroke-width:29;stroke-linecap:butt;stroke-linejoin:miter;stroke:#a6a6a6;stroke-opacity:1;stroke-miterlimit:4;" d="M -0.00672814 14.504135 L 138.726464 14.499157 " transform="matrix(0.1813,0.00062595,-0.00062595,0.1813,16.564986,8.206341)"/></g><g clip-rule="nonzero" clip-path="url(#9db9ce390a)"><path style="fill:none;stroke-width:29;stroke-linecap:butt;stroke-linejoin:miter;stroke:#a6a6a6;stroke-opacity:1;stroke-miterlimit:4;" d="M -0.0067339 14.498824 L 138.704103 14.498824 " transform="matrix(0.181301,0,0,0.181301,16.555908,1.469002)"/></g><g style="fill:#423e3e;fill-opacity:1;"><g transform="translate(3.795358, 13.423439)"><path style="stroke:none" d="M 11.5 0 L 9 0 L 8.109375 -2.765625 L 3.515625 -2.765625 L 2.609375 0 L 0.1875 0 L 4.3125 -11.984375 L 7.359375 -11.984375 Z M 5.6875 -9.484375 L 4.15625 -4.75 L 7.453125 -4.75 L 5.90625 -9.484375 Z M 5.6875 -9.484375 "/></g></g></g></svg>