<svg xmlns="http://www.w3.org/2000/svg" xmlns:xlink="http://www.w3.org/1999/xlink" width="275" zoomAndPan="magnify" viewBox="0 0 206.25 187.499992" height="250" preserveAspectRatio="xMidYMid meet" version="1.0"><defs><g/><clipPath id="a43ec3b43a"><path d="M 6.664062 6.203125 L 198.839844 6.203125 L 198.839844 145.292969 L 6.664062 145.292969 Z M 6.664062 6.203125 " clip-rule="nonzero"/></clipPath><clipPath id="150eb655c2"><path d="M 36.445312 151.675781 L 172.226562 151.675781 L 172.226562 179.699219 L 36.445312 179.699219 Z M 36.445312 151.675781 " clip-rule="nonzero"/></clipPath><clipPath id="df399c44de"><path d="M 55.8125 39.519531 L 149.691406 39.519531 L 149.691406 111.964844 L 55.8125 111.964844 Z M 55.8125 39.519531 " clip-rule="nonzero"/></clipPath></defs><g clip-path="url(#a43ec3b43a)"><path fill="#ececec" d="M 6.664062 6.203125 L 199 6.203125 L 199 145.292969 L 6.664062 145.292969 Z M 6.664062 6.203125 " fill-opacity="1" fill-rule="nonzero"/></g><g clip-path="url(#150eb655c2)"><path fill="#ffffff" d="M 36.445312 151.675781 L 172.183594 151.675781 L 172.183594 179.699219 L 36.445312 179.699219 Z M 36.445312 151.675781 " fill-opacity="1" fill-rule="nonzero"/></g><g fill="#423e3e" fill-opacity="1"><g transform="translate(42.291524, 172.139648)"><g><path d="M 4.847656 0 L 7.894531 0 L 7.894531 -11.847656 L 12.339844 -11.847656 L 12.339844 -14.820312 L 0.398438 -14.820312 L 0.398438 -11.847656 L 4.847656 -11.847656 Z M 4.847656 0 "/></g></g></g><g fill="#423e3e" fill-opacity="1"><g transform="translate(55.029593, 172.139648)"><g><path d="M 1.722656 -14.820312 L 1.722656 0 L 11.472656 0 L 11.472656 -2.859375 L 4.75 -2.859375 L 4.75 -6.058594 L 10.734375 -6.058594 L 10.734375 -8.933594 L 4.75 -8.933594 L 4.75 -11.945312 L 11.433594 -11.945312 L 11.433594 -14.820312 Z M 1.722656 -14.820312 "/></g></g></g><g fill="#423e3e" fill-opacity="1"><g transform="translate(67.578389, 172.139648)"><g><path d="M 3.445312 0 L 7.117188 -5.335938 L 10.734375 0 L 14.308594 0 L 8.972656 -7.648438 L 14.046875 -14.820312 L 10.46875 -14.820312 L 7.15625 -10.011719 L 3.878906 -14.820312 L 0.285156 -14.820312 L 5.320312 -7.628906 L -0.0195312 0 Z M 3.445312 0 "/></g></g></g><g fill="#423e3e" fill-opacity="1"><g transform="translate(81.868492, 172.139648)"><g><path d="M 4.847656 0 L 7.894531 0 L 7.894531 -11.847656 L 12.339844 -11.847656 L 12.339844 -14.820312 L 0.398438 -14.820312 L 0.398438 -11.847656 L 4.847656 -11.847656 Z M 4.847656 0 "/></g></g></g><g fill="#423e3e" fill-opacity="1"><g transform="translate(94.606561, 172.139648)"><g/></g></g><g fill="#423e3e" fill-opacity="1"><g transform="translate(99.357306, 172.139648)"><g><path d="M 4.789062 -14.820312 L 1.722656 -14.820312 L 1.722656 0 L 4.789062 0 Z M 4.789062 -14.820312 "/></g></g></g><g fill="#423e3e" fill-opacity="1"><g transform="translate(105.887226, 172.139648)"><g><path d="M 4.75 -10.222656 L 11.566406 0 L 14.6875 0 L 14.6875 -14.820312 L 11.660156 -14.820312 L 11.660156 -5.148438 L 5.222656 -14.820312 L 1.722656 -14.820312 L 1.722656 0 L 4.75 0 Z M 4.75 -10.222656 "/></g></g></g><g fill="#423e3e" fill-opacity="1"><g transform="translate(122.31612, 172.139648)"><g><path d="M 12.53125 -10.070312 C 12.53125 -13.210938 10.203125 -14.820312 7.230469 -14.820312 L 1.722656 -14.820312 L 1.722656 0 L 4.789062 0 L 4.789062 -5.222656 L 7.117188 -5.222656 C 10.222656 -5.222656 12.53125 -6.796875 12.53125 -10.070312 Z M 9.445312 -9.996094 C 9.445312 -8.613281 8.195312 -8.082031 6.984375 -8.082031 L 4.789062 -8.082031 L 4.789062 -11.925781 L 6.964844 -11.925781 C 8.234375 -11.925781 9.445312 -11.433594 9.445312 -9.996094 Z M 9.445312 -9.996094 "/></g></g></g><g fill="#423e3e" fill-opacity="1"><g transform="translate(135.413804, 172.139648)"><g><path d="M 13.476562 -5.980469 L 13.476562 -14.820312 L 10.449219 -14.820312 L 10.449219 -5.867188 C 10.449219 -3.992188 9.40625 -2.746094 7.515625 -2.746094 C 5.90625 -2.746094 4.636719 -3.746094 4.636719 -5.945312 L 4.65625 -14.820312 L 1.570312 -14.820312 L 1.570312 -5.867188 C 1.570312 -2.289062 3.386719 0.207031 7.496094 0.207031 C 11.507812 0.207031 13.476562 -2.195312 13.476562 -5.980469 Z M 13.476562 -5.980469 "/></g></g></g><g fill="#423e3e" fill-opacity="1"><g transform="translate(150.460997, 172.139648)"><g><path d="M 4.847656 0 L 7.894531 0 L 7.894531 -11.847656 L 12.339844 -11.847656 L 12.339844 -14.820312 L 0.398438 -14.820312 L 0.398438 -11.847656 L 4.847656 -11.847656 Z M 4.847656 0 "/></g></g></g><g fill="#423e3e" fill-opacity="1"><g transform="translate(62.445383, 69.299408)"><g><path d="M 18.8125 0 L 15.78125 0 L 13.421875 -6.125 L 5 -6.125 L 2.8125 0 L -0.03125 0 L 7.703125 -20.140625 L 10.578125 -20.140625 Z M 7.984375 -14.171875 L 5.796875 -8.265625 L 12.59375 -8.265625 L 10.125 -14.90625 C 9.820312 -15.695312 9.472656 -16.738281 9.078125 -18.03125 C 9.078125 -17.9375 8.960938 -17.460938 8.734375 -16.609375 C 8.515625 -15.753906 8.265625 -14.941406 7.984375 -14.171875 Z M 7.984375 -14.171875 "/></g></g></g><g fill="#423e3e" fill-opacity="1"><g transform="translate(81.924989, 69.299408)"><g><path d="M 4.359375 -12.9375 C 5.390625 -14.25 6.722656 -14.90625 8.359375 -14.90625 C 9.554688 -14.90625 10.625 -14.597656 11.5625 -13.984375 C 12.5 -13.378906 13.226562 -12.523438 13.75 -11.421875 C 14.28125 -10.328125 14.546875 -9.0625 14.546875 -7.625 C 14.546875 -5.957031 14.265625 -4.519531 13.703125 -3.3125 C 13.140625 -2.113281 12.375 -1.207031 11.40625 -0.59375 C 10.4375 0.0078125 9.375 0.3125 8.21875 0.3125 C 7.28125 0.3125 6.46875 0.0976562 5.78125 -0.328125 C 5.09375 -0.765625 4.5625 -1.265625 4.1875 -1.828125 L 4.1875 0 L 1.890625 0 L 1.890625 -20.140625 L 4.359375 -20.140625 Z M 4.15625 -7.28125 C 4.15625 -6.507812 4.179688 -5.9375 4.234375 -5.5625 C 4.296875 -5.1875 4.394531 -4.796875 4.53125 -4.390625 C 4.882812 -3.390625 5.394531 -2.691406 6.0625 -2.296875 C 6.726562 -1.910156 7.378906 -1.71875 8.015625 -1.71875 C 9.234375 -1.71875 10.203125 -2.21875 10.921875 -3.21875 C 11.648438 -4.21875 12.015625 -5.675781 12.015625 -7.59375 C 12.015625 -9.144531 11.660156 -10.410156 10.953125 -11.390625 C 10.253906 -12.378906 9.300781 -12.875 8.09375 -12.875 C 7.382812 -12.875 6.726562 -12.660156 6.125 -12.234375 C 5.53125 -11.804688 5.050781 -11.171875 4.6875 -10.328125 C 4.332031 -9.484375 4.15625 -8.46875 4.15625 -7.28125 Z M 4.15625 -7.28125 "/></g></g></g><g fill="#423e3e" fill-opacity="1"><g transform="translate(98.284573, 69.299408)"><g><path d="M 7.984375 -14.90625 C 9.429688 -14.90625 10.648438 -14.503906 11.640625 -13.703125 C 12.640625 -12.910156 13.28125 -11.773438 13.5625 -10.296875 L 11.171875 -9.921875 C 10.960938 -10.804688 10.582031 -11.519531 10.03125 -12.0625 C 9.488281 -12.601562 8.757812 -12.875 7.84375 -12.875 C 6.53125 -12.875 5.5 -12.40625 4.75 -11.46875 C 4 -10.53125 3.625 -9.164062 3.625 -7.375 C 3.625 -5.53125 3.972656 -4.125 4.671875 -3.15625 C 5.378906 -2.195312 6.390625 -1.71875 7.703125 -1.71875 C 8.773438 -1.71875 9.609375 -2.039062 10.203125 -2.6875 C 10.804688 -3.332031 11.191406 -4.21875 11.359375 -5.34375 L 13.8125 -5.03125 C 13.550781 -3.34375 12.867188 -2.03125 11.765625 -1.09375 C 10.671875 -0.15625 9.316406 0.3125 7.703125 0.3125 C 5.617188 0.3125 3.992188 -0.363281 2.828125 -1.71875 C 1.671875 -3.082031 1.09375 -5.003906 1.09375 -7.484375 C 1.09375 -9.804688 1.707031 -11.625 2.9375 -12.9375 C 4.164062 -14.25 5.847656 -14.90625 7.984375 -14.90625 Z M 7.984375 -14.90625 "/></g></g></g><g fill="#292929" fill-opacity="1"><g transform="translate(112.385339, 70.909987)"><g><path d="M 5.953125 0 L 3.34375 0 L 3.34375 -22.15625 L 5.953125 -22.15625 Z M 5.953125 0 "/></g></g></g><g clip-path="url(#df399c44de)"><path stroke-linecap="butt" transform="matrix(0, 0.747283, -0.747283, 0, 149.689677, 39.520937)" fill="none" stroke-linejoin="miter" d="M -0.00188159 -0.00231373 L 96.943122 -0.00231373 L 96.943122 125.624737 L -0.00188159 125.624737 Z M -0.00188159 -0.00231373 " stroke="#a6a6a6" stroke-width="4" stroke-opacity="1" stroke-miterlimit="4"/></g></svg>