<svg xmlns="http://www.w3.org/2000/svg" xmlns:xlink="http://www.w3.org/1999/xlink" width="300" zoomAndPan="magnify" viewBox="0 0 224.87999 168.749997" height="225" preserveAspectRatio="xMidYMid meet" version="1.0"><defs><g/><clipPath id="b8c53c520b"><path d="M 5.984375 6.179688 L 219.1875 6.179688 L 219.1875 162.5625 L 5.984375 162.5625 Z M 5.984375 6.179688 " clip-rule="nonzero"/></clipPath><clipPath id="ec321e08e8"><path d="M 0.105469 0 L 224.652344 0 L 224.652344 161 L 0.105469 161 Z M 0.105469 0 " clip-rule="nonzero"/></clipPath></defs><g clip-path="url(#b8c53c520b)"><path fill="#ececec" d="M 5.984375 6.179688 L 219.179688 6.179688 L 219.179688 162.5625 L 5.984375 162.5625 Z M 5.984375 6.179688 " fill-opacity="1" fill-rule="nonzero"/></g><g fill="#423e3e" fill-opacity="1"><g transform="translate(86.225715, 145.878556)"><g><path d="M 4.859375 0 L 4.859375 -11.875 L 0.390625 -11.875 L 0.390625 -14.859375 L 12.375 -14.859375 L 12.375 -11.875 L 7.90625 -11.875 L 7.90625 0 Z M 4.859375 0 "/></g></g></g><g fill="#423e3e" fill-opacity="1"><g transform="translate(98.991192, 145.878556)"><g><path d="M 1.71875 -14.859375 L 11.453125 -14.859375 L 11.453125 -11.96875 L 4.765625 -11.96875 L 4.765625 -8.953125 L 10.75 -8.953125 L 10.75 -6.0625 L 4.765625 -6.0625 L 4.765625 -2.859375 L 11.5 -2.859375 L 11.5 0 L 1.71875 0 Z M 1.71875 -14.859375 "/></g></g></g><g fill="#423e3e" fill-opacity="1"><g transform="translate(111.56699, 145.878556)"><g><path d="M 3.453125 0 L -0.015625 0 L 5.328125 -7.640625 L 0.28125 -14.859375 L 3.890625 -14.859375 L 7.171875 -10.03125 L 10.484375 -14.859375 L 14.078125 -14.859375 L 8.984375 -7.65625 L 14.34375 0 L 10.75 0 L 7.125 -5.34375 Z M 3.453125 0 "/></g></g></g><g fill="#423e3e" fill-opacity="1"><g transform="translate(125.88784, 145.878556)"><g><path d="M 4.859375 0 L 4.859375 -11.875 L 0.390625 -11.875 L 0.390625 -14.859375 L 12.375 -14.859375 L 12.375 -11.875 L 7.90625 -11.875 L 7.90625 0 Z M 4.859375 0 "/></g></g></g><path stroke-linecap="butt" transform="matrix(0.599795, 0, 0, 0.599795, 49.867017, 98.992337)" fill="none" stroke-linejoin="miter" d="M 0.000283774 14.496896 L 209.108248 14.496896 " stroke="#a6a6a6" stroke-width="29" stroke-opacity="1" stroke-miterlimit="4"/><path stroke-linecap="butt" transform="matrix(0.599795, 0, 0, 0.599795, 49.861278, 76.416148)" fill="none" stroke-linejoin="miter" d="M -0.00317241 14.500181 L 209.111304 14.500181 " stroke="#a6a6a6" stroke-width="29" stroke-opacity="1" stroke-miterlimit="4"/><g clip-path="url(#ec321e08e8)"><path stroke-linecap="butt" transform="matrix(0.599791, 0.00207082, -0.00207082, 0.599791, 92.112507, 53.336759)" fill="none" stroke-linejoin="miter" d="M -0.00074053 14.502377 L 138.71939 14.498863 " stroke="#a6a6a6" stroke-width="29" stroke-opacity="1" stroke-miterlimit="4"/></g><path stroke-linecap="butt" transform="matrix(0.599795, 0, 0, 0.599795, 92.082477, 31.047767)" fill="none" stroke-linejoin="miter" d="M -0.000743601 14.50217 L 138.705542 14.50217 " stroke="#a6a6a6" stroke-width="29" stroke-opacity="1" stroke-miterlimit="4"/><g fill="#423e3e" fill-opacity="1"><g transform="translate(49.867017, 70.596374)"><g><path d="M 38.046875 0 L 29.796875 0 L 26.8125 -9.140625 L 11.625 -9.140625 L 8.65625 0 L 0.59375 0 L 14.296875 -39.640625 L 24.34375 -39.640625 Z M 18.84375 -31.375 L 13.75 -15.734375 L 24.640625 -15.734375 L 19.515625 -31.375 Z M 18.84375 -31.375 "/></g></g></g></svg>