<svg xmlns="http://www.w3.org/2000/svg" xmlns:xlink="http://www.w3.org/1999/xlink" width="275" zoomAndPan="magnify" viewBox="0 0 206.25 187.499992" height="250" preserveAspectRatio="xMidYMid meet" version="1.0"><defs><filter x="0%" y="0%" width="100%" height="100%" id="53e7a5674f"><feColorMatrix values="0 0 0 0 1 0 0 0 0 1 0 0 0 0 1 0 0 0 1 0" color-interpolation-filters="sRGB"/></filter><g/><clipPath id="ac1839e982"><path d="M 6.664062 6.203125 L 198.839844 6.203125 L 198.839844 145.292969 L 6.664062 145.292969 Z M 6.664062 6.203125 " clip-rule="nonzero"/></clipPath><clipPath id="621060f2d8"><path d="M 44.964844 151.675781 L 161.410156 151.675781 L 161.410156 179.699219 L 44.964844 179.699219 Z M 44.964844 151.675781 " clip-rule="nonzero"/></clipPath><clipPath id="3c18154a5d"><path d="M 38.390625 31.183594 L 76.925781 31.183594 L 76.925781 59.953125 L 38.390625 59.953125 Z M 38.390625 31.183594 " clip-rule="nonzero"/></clipPath><clipPath id="4e1d51c810"><path d="M 128.578125 31.183594 L 167.113281 31.183594 L 167.113281 59.953125 L 128.578125 59.953125 Z M 128.578125 31.183594 " clip-rule="nonzero"/></clipPath><clipPath id="bec075c69b"><path d="M 38.390625 100.421875 L 76.925781 100.421875 L 76.925781 129.195312 L 38.390625 129.195312 Z M 38.390625 100.421875 " clip-rule="nonzero"/></clipPath><clipPath id="f7c1480773"><path d="M 128.578125 100.421875 L 167.113281 100.421875 L 167.113281 129.195312 L 128.578125 129.195312 Z M 128.578125 100.421875 " clip-rule="nonzero"/></clipPath><mask id="11e5b14204"><g filter="url(#53e7a5674f)"><rect x="-20.625" width="247.5" fill="#000000" y="-18.749999" height="224.99999" fill-opacity="0.91"/></g></mask><clipPath id="887abe43b8"><path d="M 0.292969 0.449219 L 100.84375 0.449219 L 100.84375 37.929688 L 0.292969 37.929688 Z M 0.292969 0.449219 " clip-rule="nonzero"/></clipPath><clipPath id="38226e8523"><rect x="0" width="102" y="0" height="39"/></clipPath></defs><g clip-path="url(#ac1839e982)"><path fill="#ececec" d="M 6.664062 6.203125 L 198.839844 6.203125 L 198.839844 145.292969 L 6.664062 145.292969 Z M 6.664062 6.203125 " fill-opacity="1" fill-rule="nonzero"/></g><g clip-path="url(#621060f2d8)"><path fill="#ffffff" d="M 44.964844 151.675781 L 161.410156 151.675781 L 161.410156 179.699219 L 44.964844 179.699219 Z M 44.964844 151.675781 " fill-opacity="1" fill-rule="nonzero"/></g><g fill="#423e3e" fill-opacity="1"><g transform="translate(50.879434, 172.787288)"><g><path d="M 5.101562 0 L 8.308594 0 L 8.308594 -12.472656 L 12.988281 -12.472656 L 12.988281 -15.597656 L 0.417969 -15.597656 L 0.417969 -12.472656 L 5.101562 -12.472656 Z M 5.101562 0 "/></g></g></g><g fill="#423e3e" fill-opacity="1"><g transform="translate(64.285377, 172.787288)"><g><path d="M 5.039062 -15.597656 L 1.8125 -15.597656 L 1.8125 0 L 5.039062 0 Z M 5.039062 -15.597656 "/></g></g></g><g fill="#423e3e" fill-opacity="1"><g transform="translate(71.15766, 172.787288)"><g><path d="M 15.820312 -10.300781 L 15.839844 -10.300781 L 15.839844 0 L 19.027344 0 L 19.027344 -15.597656 L 14.742188 -15.597656 L 10.398438 -5.140625 L 5.976562 -15.597656 L 1.8125 -15.597656 L 1.8125 0 L 4.980469 0 L 4.980469 -10.21875 L 5 -10.21875 L 9.324219 0 L 11.476562 0 Z M 15.820312 -10.300781 "/></g></g></g><g fill="#423e3e" fill-opacity="1"><g transform="translate(91.993647, 172.787288)"><g><path d="M 1.8125 -15.597656 L 1.8125 0 L 12.074219 0 L 12.074219 -3.007812 L 5 -3.007812 L 5 -6.375 L 11.296875 -6.375 L 11.296875 -9.402344 L 5 -9.402344 L 5 -12.570312 L 12.035156 -12.570312 L 12.035156 -15.597656 Z M 1.8125 -15.597656 "/></g></g></g><g fill="#423e3e" fill-opacity="1"><g transform="translate(105.200398, 172.787288)"><g><path d="M 1.8125 -15.597656 L 1.8125 0 L 11.695312 0 L 11.695312 -3.066406 L 5.019531 -3.066406 L 5.019531 -15.597656 Z M 1.8125 -15.597656 "/></g></g></g><g fill="#423e3e" fill-opacity="1"><g transform="translate(117.23188, 172.787288)"><g><path d="M 5.039062 -15.597656 L 1.8125 -15.597656 L 1.8125 0 L 5.039062 0 Z M 5.039062 -15.597656 "/></g></g></g><g fill="#423e3e" fill-opacity="1"><g transform="translate(124.104164, 172.787288)"><g><path d="M 5 -10.757812 L 12.171875 0 L 15.460938 0 L 15.460938 -15.597656 L 12.273438 -15.597656 L 12.273438 -5.417969 L 5.5 -15.597656 L 1.8125 -15.597656 L 1.8125 0 L 5 0 Z M 5 -10.757812 "/></g></g></g><g fill="#423e3e" fill-opacity="1"><g transform="translate(141.394446, 172.787288)"><g><path d="M 1.8125 -15.597656 L 1.8125 0 L 12.074219 0 L 12.074219 -3.007812 L 5 -3.007812 L 5 -6.375 L 11.296875 -6.375 L 11.296875 -9.402344 L 5 -9.402344 L 5 -12.570312 L 12.035156 -12.570312 L 12.035156 -15.597656 Z M 1.8125 -15.597656 "/></g></g></g><g clip-path="url(#3c18154a5d)"><path fill="#625e5e" d="M 38.390625 31.183594 L 76.925781 31.183594 L 76.925781 59.953125 L 38.390625 59.953125 Z M 38.390625 31.183594 " fill-opacity="1" fill-rule="nonzero"/></g><g clip-path="url(#4e1d51c810)"><path fill="#625e5e" d="M 128.578125 31.183594 L 167.113281 31.183594 L 167.113281 59.953125 L 128.578125 59.953125 Z M 128.578125 31.183594 " fill-opacity="1" fill-rule="nonzero"/></g><g clip-path="url(#bec075c69b)"><path fill="#8f8f8f" d="M 38.390625 100.421875 L 76.925781 100.421875 L 76.925781 129.195312 L 38.390625 129.195312 Z M 38.390625 100.421875 " fill-opacity="1" fill-rule="nonzero"/></g><g clip-path="url(#f7c1480773)"><path fill="#8f8f8f" d="M 128.578125 100.421875 L 167.113281 100.421875 L 167.113281 129.195312 L 128.578125 129.195312 Z M 128.578125 100.421875 " fill-opacity="1" fill-rule="nonzero"/></g><path stroke-linecap="butt" transform="matrix(0.00609046, 0.747258, -0.747258, 0.00609046, 92.874665, 22.306975)" fill="none" stroke-linejoin="miter" d="M 0.00153452 2.001677 L 143.008787 2.001525 " stroke="#f5d228" stroke-width="4" stroke-opacity="1" stroke-miterlimit="4"/><g mask="url(#11e5b14204)"><g transform="matrix(1, 0, 0, 1, 47, 61)"><g clip-path="url(#38226e8523)"><g clip-path="url(#887abe43b8)"><path fill="#625e5e" d="M 0.292969 0.449219 L 100.84375 0.449219 L 100.84375 37.929688 L 0.292969 37.929688 Z M 0.292969 0.449219 " fill-opacity="1" fill-rule="nonzero"/></g></g></g></g></svg>