<svg xmlns="http://www.w3.org/2000/svg" xmlns:xlink="http://www.w3.org/1999/xlink" width="275" zoomAndPan="magnify" viewBox="0 0 206.25 187.499992" height="250" preserveAspectRatio="xMidYMid meet" version="1.0"><defs><filter x="0%" y="0%" width="100%" height="100%" id="104ed1cb03"><feColorMatrix values="0 0 0 0 1 0 0 0 0 1 0 0 0 0 1 0 0 0 1 0" color-interpolation-filters="sRGB"/></filter><g/><clipPath id="6c022d1fa2"><path d="M 6.664062 6.203125 L 198.839844 6.203125 L 198.839844 136.34375 L 6.664062 136.34375 Z M 6.664062 6.203125 " clip-rule="nonzero"/></clipPath><clipPath id="ce705bdbe5"><path d="M 56.53125 152.5625 L 148.332031 152.5625 L 148.332031 173.632812 L 56.53125 173.632812 Z M 56.53125 152.5625 " clip-rule="nonzero"/></clipPath><clipPath id="1277db418b"><path d="M 38.390625 26.707031 L 76.925781 26.707031 L 76.925781 55.476562 L 38.390625 55.476562 Z M 38.390625 26.707031 " clip-rule="nonzero"/></clipPath><clipPath id="9fa384d6ee"><path d="M 128.578125 26.707031 L 167.113281 26.707031 L 167.113281 55.476562 L 128.578125 55.476562 Z M 128.578125 26.707031 " clip-rule="nonzero"/></clipPath><clipPath id="50eda1cc2e"><path d="M 38.390625 95.949219 L 76.925781 95.949219 L 76.925781 124.71875 L 38.390625 124.71875 Z M 38.390625 95.949219 " clip-rule="nonzero"/></clipPath><clipPath id="30fff77f9e"><path d="M 128.578125 95.949219 L 167.113281 95.949219 L 167.113281 124.71875 L 128.578125 124.71875 Z M 128.578125 95.949219 " clip-rule="nonzero"/></clipPath><clipPath id="dda73d965b"><path d="M 74 0.0898438 L 110 0.0898438 L 110 142 L 74 142 Z M 74 0.0898438 " clip-rule="nonzero"/></clipPath><mask id="8a6a9f6c88"><g filter="url(#104ed1cb03)"><rect x="-20.625" width="247.5" fill="#000000" y="-18.749999" height="224.99999" fill-opacity="0.91"/></g></mask><clipPath id="ec6da7b5b9"><path d="M 0.292969 0.972656 L 100.84375 0.972656 L 100.84375 38.453125 L 0.292969 38.453125 Z M 0.292969 0.972656 " clip-rule="nonzero"/></clipPath><clipPath id="726af8253f"><rect x="0" width="102" y="0" height="39"/></clipPath></defs><g clip-path="url(#6c022d1fa2)"><path fill="#ececec" d="M 6.664062 6.203125 L 198.824219 6.203125 L 198.824219 136.34375 L 6.664062 136.34375 Z M 6.664062 6.203125 " fill-opacity="1" fill-rule="nonzero"/></g><g clip-path="url(#ce705bdbe5)"><path fill="#ffffff" d="M 56.53125 152.5625 L 148.316406 152.5625 L 148.316406 173.632812 L 56.53125 173.632812 Z M 56.53125 152.5625 " fill-opacity="1" fill-rule="nonzero"/></g><g fill="#423e3e" fill-opacity="1"><g transform="translate(61.247981, 169.449417)"><g><path d="M 4.078125 0 L 6.640625 0 L 6.640625 -9.984375 L 10.390625 -9.984375 L 10.390625 -12.484375 L 0.328125 -12.484375 L 0.328125 -9.984375 L 4.078125 -9.984375 Z M 4.078125 0 "/></g></g></g><g fill="#423e3e" fill-opacity="1"><g transform="translate(71.974386, 169.449417)"><g><path d="M 4.03125 -12.484375 L 1.453125 -12.484375 L 1.453125 0 L 4.03125 0 Z M 4.03125 -12.484375 "/></g></g></g><g fill="#423e3e" fill-opacity="1"><g transform="translate(77.473064, 169.449417)"><g><path d="M 12.65625 -8.234375 L 12.671875 -8.234375 L 12.671875 0 L 15.21875 0 L 15.21875 -12.484375 L 11.796875 -12.484375 L 8.3125 -4.109375 L 4.78125 -12.484375 L 1.453125 -12.484375 L 1.453125 0 L 3.984375 0 L 3.984375 -8.171875 L 4 -8.171875 L 7.453125 0 L 9.1875 0 Z M 12.65625 -8.234375 "/></g></g></g><g fill="#423e3e" fill-opacity="1"><g transform="translate(94.144423, 169.449417)"><g><path d="M 1.453125 -12.484375 L 1.453125 0 L 9.65625 0 L 9.65625 -2.40625 L 4 -2.40625 L 4 -5.09375 L 9.03125 -5.09375 L 9.03125 -7.515625 L 4 -7.515625 L 4 -10.0625 L 9.625 -10.0625 L 9.625 -12.484375 Z M 1.453125 -12.484375 "/></g></g></g><g fill="#423e3e" fill-opacity="1"><g transform="translate(104.711455, 169.449417)"><g><path d="M 1.453125 -12.484375 L 1.453125 0 L 9.359375 0 L 9.359375 -2.453125 L 4.015625 -2.453125 L 4.015625 -12.484375 Z M 1.453125 -12.484375 "/></g></g></g><g fill="#423e3e" fill-opacity="1"><g transform="translate(114.338123, 169.449417)"><g><path d="M 4.03125 -12.484375 L 1.453125 -12.484375 L 1.453125 0 L 4.03125 0 Z M 4.03125 -12.484375 "/></g></g></g><g fill="#423e3e" fill-opacity="1"><g transform="translate(119.8368, 169.449417)"><g><path d="M 4 -8.609375 L 9.734375 0 L 12.375 0 L 12.375 -12.484375 L 9.8125 -12.484375 L 9.8125 -4.328125 L 4.40625 -12.484375 L 1.453125 -12.484375 L 1.453125 0 L 4 0 Z M 4 -8.609375 "/></g></g></g><g fill="#423e3e" fill-opacity="1"><g transform="translate(133.671163, 169.449417)"><g><path d="M 1.453125 -12.484375 L 1.453125 0 L 9.65625 0 L 9.65625 -2.40625 L 4 -2.40625 L 4 -5.09375 L 9.03125 -5.09375 L 9.03125 -7.515625 L 4 -7.515625 L 4 -10.0625 L 9.625 -10.0625 L 9.625 -12.484375 Z M 1.453125 -12.484375 "/></g></g></g><g clip-path="url(#1277db418b)"><path fill="#625e5e" d="M 38.390625 26.707031 L 76.9375 26.707031 L 76.9375 55.476562 L 38.390625 55.476562 Z M 38.390625 26.707031 " fill-opacity="1" fill-rule="nonzero"/></g><g clip-path="url(#9fa384d6ee)"><path fill="#625e5e" d="M 128.578125 26.707031 L 167.125 26.707031 L 167.125 55.476562 L 128.578125 55.476562 Z M 128.578125 26.707031 " fill-opacity="1" fill-rule="nonzero"/></g><g clip-path="url(#50eda1cc2e)"><path fill="#8f8f8f" d="M 38.390625 95.949219 L 76.9375 95.949219 L 76.9375 124.71875 L 38.390625 124.71875 Z M 38.390625 95.949219 " fill-opacity="1" fill-rule="nonzero"/></g><g clip-path="url(#30fff77f9e)"><path fill="#8f8f8f" d="M 128.578125 95.949219 L 167.125 95.949219 L 167.125 124.71875 L 128.578125 124.71875 Z M 128.578125 95.949219 " fill-opacity="1" fill-rule="nonzero"/></g><g clip-path="url(#dda73d965b)"><path stroke-linecap="butt" transform="matrix(0.00609046, 0.747258, -0.747258, 0.00609046, 92.874665, 17.831485)" fill="none" stroke-linejoin="miter" d="M 0.0000983361 2.001665 L 143.012578 2.001556 " stroke="#f5d228" stroke-width="4" stroke-opacity="1" stroke-miterlimit="4"/></g><g mask="url(#8a6a9f6c88)"><g transform="matrix(1, 0, 0, 1, 47, 56)"><g clip-path="url(#726af8253f)"><g clip-path="url(#ec6da7b5b9)"><path fill="#625e5e" d="M 0.292969 0.972656 L 100.875 0.972656 L 100.875 38.453125 L 0.292969 38.453125 Z M 0.292969 0.972656 " fill-opacity="1" fill-rule="nonzero"/></g></g></g></g></svg>