<svg xmlns="http://www.w3.org/2000/svg" xmlns:xlink="http://www.w3.org/1999/xlink" width="275" zoomAndPan="magnify" viewBox="0 0 206.25 187.499992" height="250" preserveAspectRatio="xMidYMid meet" version="1.0"><defs><g/><clipPath id="0c83a98e98"><path d="M 6.664062 12.585938 L 198.839844 12.585938 L 198.839844 151.675781 L 6.664062 151.675781 Z M 6.664062 12.585938 " clip-rule="nonzero"/></clipPath><clipPath id="c95727c7a0"><path d="M 27.566406 155.351562 L 179.675781 155.351562 L 179.675781 179.699219 L 27.566406 179.699219 Z M 27.566406 155.351562 " clip-rule="nonzero"/></clipPath><clipPath id="dff5bd0d75"><path d="M 51.113281 44.578125 L 154.386719 44.578125 L 154.386719 130.019531 L 51.113281 130.019531 Z M 51.113281 44.578125 " clip-rule="nonzero"/></clipPath><clipPath id="393560a6ec"><path d="M 74.082031 34.988281 L 83.925781 34.988281 L 83.925781 52.671875 L 74.082031 52.671875 Z M 74.082031 34.988281 " clip-rule="nonzero"/></clipPath><clipPath id="8e2a897e2a"><path d="M 79.003906 34.988281 C 81.722656 34.988281 83.925781 37.191406 83.925781 39.910156 L 83.925781 47.75 C 83.925781 50.46875 81.722656 52.671875 79.003906 52.671875 C 76.285156 52.671875 74.082031 50.46875 74.082031 47.75 L 74.082031 39.910156 C 74.082031 37.191406 76.285156 34.988281 79.003906 34.988281 Z M 79.003906 34.988281 " clip-rule="nonzero"/></clipPath><clipPath id="70e6f6dc6d"><path d="M 63.621094 58.988281 L 143.375 58.988281 L 143.375 120.089844 L 63.621094 120.089844 Z M 63.621094 58.988281 " clip-rule="nonzero"/></clipPath><clipPath id="1e56d46b6c"><path d="M 121.578125 34.242188 L 131.421875 34.242188 L 131.421875 51.921875 L 121.578125 51.921875 Z M 121.578125 34.242188 " clip-rule="nonzero"/></clipPath><clipPath id="901dd53104"><path d="M 126.5 34.242188 C 129.21875 34.242188 131.421875 36.445312 131.421875 39.164062 L 131.421875 47.003906 C 131.421875 49.71875 129.21875 51.921875 126.5 51.921875 C 123.78125 51.921875 121.578125 49.71875 121.578125 47.003906 L 121.578125 39.164062 C 121.578125 36.445312 123.78125 34.242188 126.5 34.242188 Z M 126.5 34.242188 " clip-rule="nonzero"/></clipPath></defs><g clip-path="url(#0c83a98e98)"><path fill="#ececec" d="M 6.664062 12.585938 L 198.839844 12.585938 L 198.839844 151.675781 L 6.664062 151.675781 Z M 6.664062 12.585938 " fill-opacity="1" fill-rule="nonzero"/></g><g clip-path="url(#c95727c7a0)"><path fill="#ffffff" d="M 27.566406 155.351562 L 179.675781 155.351562 L 179.675781 179.699219 L 27.566406 179.699219 Z M 27.566406 155.351562 " fill-opacity="1" fill-rule="nonzero"/></g><g fill="#423e3e" fill-opacity="1"><g transform="translate(34.135635, 174.281853)"><g><path d="M 5.101562 0 L 8.308594 0 L 8.308594 -12.472656 L 12.988281 -12.472656 L 12.988281 -15.597656 L 0.417969 -15.597656 L 0.417969 -12.472656 L 5.101562 -12.472656 Z M 5.101562 0 "/></g></g></g><g fill="#423e3e" fill-opacity="1"><g transform="translate(47.541578, 174.281853)"><g><path d="M 5.039062 -15.597656 L 1.8125 -15.597656 L 1.8125 0 L 5.039062 0 Z M 5.039062 -15.597656 "/></g></g></g><g fill="#423e3e" fill-opacity="1"><g transform="translate(54.413861, 174.281853)"><g><path d="M 15.820312 -10.300781 L 15.839844 -10.300781 L 15.839844 0 L 19.027344 0 L 19.027344 -15.597656 L 14.742188 -15.597656 L 10.398438 -5.140625 L 5.976562 -15.597656 L 1.8125 -15.597656 L 1.8125 0 L 4.980469 0 L 4.980469 -10.21875 L 5 -10.21875 L 9.324219 0 L 11.476562 0 Z M 15.820312 -10.300781 "/></g></g></g><g fill="#423e3e" fill-opacity="1"><g transform="translate(75.249847, 174.281853)"><g><path d="M 1.8125 -15.597656 L 1.8125 0 L 12.074219 0 L 12.074219 -3.007812 L 5 -3.007812 L 5 -6.375 L 11.296875 -6.375 L 11.296875 -9.402344 L 5 -9.402344 L 5 -12.570312 L 12.035156 -12.570312 L 12.035156 -15.597656 Z M 1.8125 -15.597656 "/></g></g></g><g fill="#423e3e" fill-opacity="1"><g transform="translate(88.456599, 174.281853)"><g/></g></g><g fill="#423e3e" fill-opacity="1"><g transform="translate(93.456434, 174.281853)"><g><path d="M 13.804688 0 L 10.28125 -6.097656 C 12.390625 -6.851562 13.488281 -8.425781 13.488281 -10.660156 C 13.488281 -13.964844 10.996094 -15.597656 7.96875 -15.597656 L 1.8125 -15.597656 L 1.8125 0 L 5.039062 0 L 5.039062 -5.597656 L 6.992188 -5.597656 L 10.21875 0 Z M 7.730469 -8.585938 L 5.039062 -8.585938 L 5.039062 -12.550781 L 7.710938 -12.550781 C 8.925781 -12.550781 10.21875 -12.09375 10.21875 -10.597656 C 10.21875 -9.125 8.925781 -8.585938 7.730469 -8.585938 Z M 7.730469 -8.585938 "/></g></g></g><g fill="#423e3e" fill-opacity="1"><g transform="translate(108.017714, 174.281853)"><g><path d="M 3.226562 0 L 4.382812 -3.148438 L 11.296875 -3.148438 L 12.472656 0 L 15.796875 0 L 9.820312 -15.597656 L 5.9375 -15.597656 L -0.0195312 0 Z M 7.847656 -12.472656 L 10.199219 -6.136719 L 5.5 -6.136719 Z M 7.847656 -12.472656 "/></g></g></g><g fill="#423e3e" fill-opacity="1"><g transform="translate(123.794104, 174.281853)"><g><path d="M 5 -10.757812 L 12.171875 0 L 15.460938 0 L 15.460938 -15.597656 L 12.273438 -15.597656 L 12.273438 -5.417969 L 5.5 -15.597656 L 1.8125 -15.597656 L 1.8125 0 L 5 0 Z M 5 -10.757812 "/></g></g></g><g fill="#423e3e" fill-opacity="1"><g transform="translate(141.084387, 174.281853)"><g><path d="M 4.144531 -7.808594 C 4.144531 -10.636719 6.316406 -12.789062 8.945312 -12.789062 C 11.457031 -12.789062 12.671875 -11.214844 13.128906 -10.039062 L 15.976562 -11.433594 C 15.28125 -13.386719 12.96875 -15.839844 8.984375 -15.839844 C 4.542969 -15.839844 0.855469 -12.332031 0.855469 -7.789062 C 0.855469 -3.347656 4.125 0.238281 8.945312 0.238281 C 12.75 0.238281 16.335938 -2.3125 16.335938 -7.171875 L 16.335938 -8.386719 L 8.226562 -8.386719 L 8.226562 -5.457031 L 12.96875 -5.457031 C 12.589844 -3.925781 11.058594 -2.828125 8.945312 -2.828125 C 6.117188 -2.828125 4.144531 -5.101562 4.144531 -7.808594 Z M 4.144531 -7.808594 "/></g></g></g><g fill="#423e3e" fill-opacity="1"><g transform="translate(158.155545, 174.281853)"><g><path d="M 1.8125 -15.597656 L 1.8125 0 L 12.074219 0 L 12.074219 -3.007812 L 5 -3.007812 L 5 -6.375 L 11.296875 -6.375 L 11.296875 -9.402344 L 5 -9.402344 L 5 -12.570312 L 12.035156 -12.570312 L 12.035156 -15.597656 Z M 1.8125 -15.597656 "/></g></g></g><g clip-path="url(#dff5bd0d75)"><path fill="#7b7b7b" d="M 51.113281 44.578125 L 154.386719 44.578125 L 154.386719 130.019531 L 51.113281 130.019531 Z M 51.113281 44.578125 " fill-opacity="1" fill-rule="nonzero"/></g><g clip-path="url(#393560a6ec)"><g clip-path="url(#8e2a897e2a)"><path fill="#333333" d="M 74.082031 34.988281 L 83.925781 34.988281 L 83.925781 52.671875 L 74.082031 52.671875 Z M 74.082031 34.988281 " fill-opacity="1" fill-rule="nonzero"/></g></g><g clip-path="url(#70e6f6dc6d)"><path fill="#625e5e" d="M 63.621094 58.988281 L 143.375 58.988281 L 143.375 120.089844 L 63.621094 120.089844 Z M 63.621094 58.988281 " fill-opacity="1" fill-rule="nonzero"/></g><g clip-path="url(#1e56d46b6c)"><g clip-path="url(#901dd53104)"><path fill="#333333" d="M 121.578125 34.242188 L 131.421875 34.242188 L 131.421875 51.921875 L 121.578125 51.921875 Z M 121.578125 34.242188 " fill-opacity="1" fill-rule="nonzero"/></g></g><g fill="#333333" fill-opacity="1"><g transform="translate(78.546405, 103.364612)"><g><path d="M 20.695312 -7.621094 C 20.695312 -10.5 19.546875 -12.433594 16.566406 -13.683594 L 16.566406 -13.71875 C 18.664062 -14.835938 20.1875 -16.566406 20.1875 -19.308594 C 20.1875 -23.882812 16.464844 -26.929688 11.042969 -26.929688 C 6.707031 -26.929688 3.117188 -24.929688 1.59375 -21.207031 L 6.503906 -18.867188 C 7.417969 -20.867188 8.941406 -21.816406 10.839844 -21.816406 C 13.277344 -21.816406 14.667969 -20.5625 14.667969 -18.9375 C 14.667969 -17.242188 13.347656 -15.953125 10.941406 -15.953125 L 8.433594 -15.953125 L 8.433594 -10.875 L 11.246094 -10.875 C 13.652344 -10.875 15.140625 -9.789062 15.140625 -7.757812 C 15.140625 -5.929688 13.582031 -4.675781 11.246094 -4.675781 C 8.875 -4.675781 6.910156 -5.757812 5.996094 -7.722656 L 1.1875 -5.25 C 2.8125 -1.492188 6.539062 0.40625 11.109375 0.40625 C 16.566406 0.40625 20.695312 -2.980469 20.695312 -7.621094 Z M 20.695312 -7.621094 "/></g></g></g><g fill="#333333" fill-opacity="1"><g transform="translate(100.936411, 103.364612)"><g><path d="M 1.660156 -13.277344 C 1.660156 -6.300781 5.214844 0.339844 12.972656 0.339844 C 20.628906 0.339844 24.390625 -6.402344 24.390625 -13.414062 C 24.390625 -20.425781 20.628906 -26.929688 13.074219 -26.929688 C 5.316406 -26.929688 1.660156 -20.289062 1.660156 -13.277344 Z M 7.179688 -13.347656 C 7.179688 -16.835938 8.808594 -21.679688 13.007812 -21.679688 C 17.207031 -21.679688 18.835938 -16.835938 18.835938 -13.347656 C 18.835938 -9.824219 17.207031 -4.945312 13.007812 -4.945312 C 8.808594 -4.945312 7.179688 -9.824219 7.179688 -13.347656 Z M 7.179688 -13.347656 "/></g></g></g></svg>