<svg xmlns="http://www.w3.org/2000/svg" xmlns:xlink="http://www.w3.org/1999/xlink" width="275" zoomAndPan="magnify" viewBox="0 0 206.25 187.499992" height="250" preserveAspectRatio="xMidYMid meet" version="1.0"><defs><g/><clipPath id="ace27ef84c"><path d="M 27.566406 155.351562 L 179.675781 155.351562 L 179.675781 179.699219 L 27.566406 179.699219 Z M 27.566406 155.351562 " clip-rule="nonzero"/></clipPath><clipPath id="1bd068cce0"><path d="M 6.664062 6.203125 L 198.839844 6.203125 L 198.839844 145.292969 L 6.664062 145.292969 Z M 6.664062 6.203125 " clip-rule="nonzero"/></clipPath><clipPath id="ec622ce528"><path d="M 51.113281 39.820312 L 154.386719 39.820312 L 154.386719 125.261719 L 51.113281 125.261719 Z M 51.113281 39.820312 " clip-rule="nonzero"/></clipPath><clipPath id="6d909495c2"><path d="M 57.171875 44.867188 L 148.488281 44.867188 L 148.488281 118.71875 L 57.171875 118.71875 Z M 57.171875 44.867188 " clip-rule="nonzero"/></clipPath><clipPath id="aabbf489ea"><path d="M 68.851562 33.800781 L 79.21875 33.800781 L 79.21875 51.496094 L 68.851562 51.496094 Z M 68.851562 33.800781 " clip-rule="nonzero"/></clipPath><clipPath id="9f736b1e0e"><path d="M 74.035156 33.800781 C 75.410156 33.800781 76.726562 34.347656 77.699219 35.320312 C 78.671875 36.292969 79.21875 37.609375 79.21875 38.984375 L 79.21875 46.300781 C 79.21875 47.675781 78.671875 48.992188 77.699219 49.964844 C 76.726562 50.9375 75.410156 51.484375 74.035156 51.484375 C 72.660156 51.484375 71.34375 50.9375 70.371094 49.964844 C 69.398438 48.992188 68.851562 47.675781 68.851562 46.300781 L 68.851562 38.984375 C 68.851562 37.609375 69.398438 36.292969 70.371094 35.320312 C 71.34375 34.347656 72.660156 33.800781 74.035156 33.800781 Z M 74.035156 33.800781 " clip-rule="nonzero"/></clipPath><clipPath id="1cb73d96d4"><path d="M 64.101562 56.585938 L 79.710938 56.585938 L 79.710938 72.140625 L 64.101562 72.140625 Z M 64.101562 56.585938 " clip-rule="nonzero"/></clipPath><clipPath id="9700736b59"><path d="M 84.679688 56.585938 L 100.289062 56.585938 L 100.289062 72.140625 L 84.679688 72.140625 Z M 84.679688 56.585938 " clip-rule="nonzero"/></clipPath><clipPath id="35b783abae"><path d="M 105.261719 56.585938 L 120.871094 56.585938 L 120.871094 72.140625 L 105.261719 72.140625 Z M 105.261719 56.585938 " clip-rule="nonzero"/></clipPath><clipPath id="fc62fccbf4"><path d="M 125.789062 56.585938 L 141.402344 56.585938 L 141.402344 72.140625 L 125.789062 72.140625 Z M 125.789062 56.585938 " clip-rule="nonzero"/></clipPath><clipPath id="e71e4dad7a"><path d="M 64.179688 77.371094 L 79.789062 77.371094 L 79.789062 92.929688 L 64.179688 92.929688 Z M 64.179688 77.371094 " clip-rule="nonzero"/></clipPath><clipPath id="0afd857919"><path d="M 84.757812 77.371094 L 100.367188 77.371094 L 100.367188 92.929688 L 84.757812 92.929688 Z M 84.757812 77.371094 " clip-rule="nonzero"/></clipPath><clipPath id="1296cfe325"><path d="M 105.339844 77.371094 L 120.949219 77.371094 L 120.949219 92.929688 L 105.339844 92.929688 Z M 105.339844 77.371094 " clip-rule="nonzero"/></clipPath><clipPath id="aa515f37a5"><path d="M 125.867188 77.371094 L 141.480469 77.371094 L 141.480469 92.929688 L 125.867188 92.929688 Z M 125.867188 77.371094 " clip-rule="nonzero"/></clipPath><clipPath id="93c972e0be"><path d="M 64.101562 98.160156 L 79.710938 98.160156 L 79.710938 113.714844 L 64.101562 113.714844 Z M 64.101562 98.160156 " clip-rule="nonzero"/></clipPath><clipPath id="7f58484485"><path d="M 84.679688 98.160156 L 100.289062 98.160156 L 100.289062 113.714844 L 84.679688 113.714844 Z M 84.679688 98.160156 " clip-rule="nonzero"/></clipPath><clipPath id="128c7786b9"><path d="M 105.261719 98.160156 L 120.871094 98.160156 L 120.871094 113.714844 L 105.261719 113.714844 Z M 105.261719 98.160156 " clip-rule="nonzero"/></clipPath><clipPath id="f2d403d69e"><path d="M 125.789062 98.160156 L 141.402344 98.160156 L 141.402344 113.714844 L 125.789062 113.714844 Z M 125.789062 98.160156 " clip-rule="nonzero"/></clipPath><clipPath id="1fa7938334"><path d="M 126.136719 33.800781 L 136.503906 33.800781 L 136.503906 51.496094 L 126.136719 51.496094 Z M 126.136719 33.800781 " clip-rule="nonzero"/></clipPath><clipPath id="ae1537157a"><path d="M 131.320312 33.800781 C 132.695312 33.800781 134.015625 34.347656 134.984375 35.320312 C 135.957031 36.292969 136.503906 37.609375 136.503906 38.984375 L 136.503906 46.300781 C 136.503906 47.675781 135.957031 48.992188 134.984375 49.964844 C 134.015625 50.9375 132.695312 51.484375 131.320312 51.484375 C 129.945312 51.484375 128.628906 50.9375 127.65625 49.964844 C 126.683594 48.992188 126.136719 47.675781 126.136719 46.300781 L 126.136719 38.984375 C 126.136719 37.609375 126.683594 36.292969 127.65625 35.320312 C 128.628906 34.347656 129.945312 33.800781 131.320312 33.800781 Z M 131.320312 33.800781 " clip-rule="nonzero"/></clipPath></defs><g clip-path="url(#ace27ef84c)"><path fill="#ffffff" d="M 27.566406 155.351562 L 179.652344 155.351562 L 179.652344 179.699219 L 27.566406 179.699219 Z M 27.566406 155.351562 " fill-opacity="1" fill-rule="nonzero"/></g><g fill="#423e3e" fill-opacity="1"><g transform="translate(34.135635, 174.281853)"><g><path d="M 5.09375 0 L 5.09375 -12.46875 L 0.421875 -12.46875 L 0.421875 -15.59375 L 12.984375 -15.59375 L 12.984375 -12.46875 L 8.3125 -12.46875 L 8.3125 0 Z M 5.09375 0 "/></g></g></g><g fill="#423e3e" fill-opacity="1"><g transform="translate(47.541578, 174.281853)"><g><path d="M 5.046875 -15.59375 L 5.046875 0 L 1.8125 0 L 1.8125 -15.59375 Z M 5.046875 -15.59375 "/></g></g></g><g fill="#423e3e" fill-opacity="1"><g transform="translate(54.413861, 174.281853)"><g><path d="M 15.8125 -10.296875 L 11.46875 0 L 9.328125 0 L 5 -10.21875 L 4.984375 -10.21875 L 4.984375 0 L 1.8125 0 L 1.8125 -15.59375 L 5.96875 -15.59375 L 10.40625 -5.140625 L 14.734375 -15.59375 L 19.03125 -15.59375 L 19.03125 0 L 15.84375 0 L 15.84375 -10.296875 Z M 15.8125 -10.296875 "/></g></g></g><g fill="#423e3e" fill-opacity="1"><g transform="translate(75.249847, 174.281853)"><g><path d="M 1.8125 -15.59375 L 12.03125 -15.59375 L 12.03125 -12.578125 L 5 -12.578125 L 5 -9.40625 L 11.296875 -9.40625 L 11.296875 -6.375 L 5 -6.375 L 5 -3.015625 L 12.078125 -3.015625 L 12.078125 0 L 1.8125 0 Z M 1.8125 -15.59375 "/></g></g></g><g fill="#423e3e" fill-opacity="1"><g transform="translate(88.456599, 174.281853)"><g/></g></g><g fill="#423e3e" fill-opacity="1"><g transform="translate(93.456434, 174.281853)"><g><path d="M 13.8125 0 L 10.21875 0 L 7 -5.59375 L 5.046875 -5.59375 L 5.046875 0 L 1.8125 0 L 1.8125 -15.59375 L 7.96875 -15.59375 C 8.976562 -15.59375 9.898438 -15.410156 10.734375 -15.046875 C 11.578125 -14.679688 12.242188 -14.132812 12.734375 -13.40625 C 13.234375 -12.675781 13.484375 -11.757812 13.484375 -10.65625 C 13.484375 -8.382812 12.414062 -6.863281 10.28125 -6.09375 Z M 7.734375 -8.59375 C 8.128906 -8.59375 8.519531 -8.65625 8.90625 -8.78125 C 9.289062 -8.914062 9.601562 -9.128906 9.84375 -9.421875 C 10.09375 -9.710938 10.21875 -10.101562 10.21875 -10.59375 C 10.21875 -11.101562 10.09375 -11.492188 9.84375 -11.765625 C 9.59375 -12.046875 9.273438 -12.242188 8.890625 -12.359375 C 8.515625 -12.484375 8.117188 -12.546875 7.703125 -12.546875 L 5.046875 -12.546875 L 5.046875 -8.59375 Z M 7.734375 -8.59375 "/></g></g></g><g fill="#423e3e" fill-opacity="1"><g transform="translate(108.017714, 174.281853)"><g><path d="M 3.234375 0 L -0.015625 0 L 5.9375 -15.59375 L 9.828125 -15.59375 L 15.796875 0 L 12.46875 0 L 11.296875 -3.140625 L 4.375 -3.140625 Z M 7.84375 -12.46875 L 5.5 -6.140625 L 10.203125 -6.140625 Z M 7.84375 -12.46875 "/></g></g></g><g fill="#423e3e" fill-opacity="1"><g transform="translate(123.794104, 174.281853)"><g><path d="M 5 -10.75 L 5 0 L 1.8125 0 L 1.8125 -15.59375 L 5.5 -15.59375 L 12.265625 -5.421875 L 12.265625 -15.59375 L 15.453125 -15.59375 L 15.453125 0 L 12.171875 0 Z M 5 -10.75 "/></g></g></g><g fill="#423e3e" fill-opacity="1"><g transform="translate(141.084387, 174.281853)"><g><path d="M 4.140625 -7.8125 C 4.140625 -6.90625 4.34375 -6.070312 4.75 -5.3125 C 5.15625 -4.5625 5.71875 -3.957031 6.4375 -3.5 C 7.164062 -3.050781 8 -2.828125 8.9375 -2.828125 C 10 -2.828125 10.890625 -3.070312 11.609375 -3.5625 C 12.328125 -4.050781 12.78125 -4.679688 12.96875 -5.453125 L 8.234375 -5.453125 L 8.234375 -8.390625 L 16.328125 -8.390625 L 16.328125 -7.171875 C 16.328125 -5.960938 16.125 -4.890625 15.71875 -3.953125 C 15.320312 -3.023438 14.773438 -2.253906 14.078125 -1.640625 C 13.378906 -1.023438 12.585938 -0.554688 11.703125 -0.234375 C 10.816406 0.078125 9.894531 0.234375 8.9375 0.234375 C 7.726562 0.234375 6.628906 0.0234375 5.640625 -0.390625 C 4.648438 -0.804688 3.796875 -1.378906 3.078125 -2.109375 C 2.367188 -2.835938 1.820312 -3.6875 1.4375 -4.65625 C 1.050781 -5.625 0.859375 -6.671875 0.859375 -7.796875 C 0.859375 -8.929688 1.066406 -9.984375 1.484375 -10.953125 C 1.910156 -11.921875 2.5 -12.773438 3.25 -13.515625 C 4 -14.253906 4.863281 -14.828125 5.84375 -15.234375 C 6.820312 -15.640625 7.867188 -15.84375 8.984375 -15.84375 C 9.984375 -15.84375 10.875 -15.703125 11.65625 -15.421875 C 12.445312 -15.148438 13.128906 -14.796875 13.703125 -14.359375 C 14.285156 -13.921875 14.765625 -13.445312 15.140625 -12.9375 C 15.523438 -12.425781 15.804688 -11.925781 15.984375 -11.4375 L 13.125 -10.046875 C 12.976562 -10.441406 12.734375 -10.847656 12.390625 -11.265625 C 12.054688 -11.691406 11.609375 -12.050781 11.046875 -12.34375 C 10.484375 -12.644531 9.78125 -12.796875 8.9375 -12.796875 C 8.0625 -12.796875 7.257812 -12.570312 6.53125 -12.125 C 5.8125 -11.6875 5.234375 -11.09375 4.796875 -10.34375 C 4.359375 -9.59375 4.140625 -8.75 4.140625 -7.8125 Z M 4.140625 -7.8125 "/></g></g></g><g fill="#423e3e" fill-opacity="1"><g transform="translate(158.155545, 174.281853)"><g><path d="M 1.8125 -15.59375 L 12.03125 -15.59375 L 12.03125 -12.578125 L 5 -12.578125 L 5 -9.40625 L 11.296875 -9.40625 L 11.296875 -6.375 L 5 -6.375 L 5 -3.015625 L 12.078125 -3.015625 L 12.078125 0 L 1.8125 0 Z M 1.8125 -15.59375 "/></g></g></g><g clip-path="url(#1bd068cce0)"><path fill="#ececec" d="M 6.664062 6.203125 L 199 6.203125 L 199 145.292969 L 6.664062 145.292969 Z M 6.664062 6.203125 " fill-opacity="1" fill-rule="nonzero"/></g><g clip-path="url(#ec622ce528)"><path fill="#8f8f8f" d="M 51.113281 39.820312 L 154.246094 39.820312 L 154.246094 125.261719 L 51.113281 125.261719 Z M 51.113281 39.820312 " fill-opacity="1" fill-rule="nonzero"/></g><g clip-path="url(#6d909495c2)"><path fill="#ececec" d="M 57.171875 44.867188 L 148.621094 44.867188 L 148.621094 118.71875 L 57.171875 118.71875 Z M 57.171875 44.867188 " fill-opacity="1" fill-rule="nonzero"/></g><g clip-path="url(#aabbf489ea)"><g clip-path="url(#9f736b1e0e)"><path fill="#333333" d="M 68.851562 33.800781 L 79.21875 33.800781 L 79.21875 51.496094 L 68.851562 51.496094 Z M 68.851562 33.800781 " fill-opacity="1" fill-rule="nonzero"/></g></g><g clip-path="url(#1cb73d96d4)"><path fill="#d1cece" d="M 64.101562 56.585938 L 79.71875 56.585938 L 79.71875 72.140625 L 64.101562 72.140625 Z M 64.101562 56.585938 " fill-opacity="1" fill-rule="nonzero"/></g><g clip-path="url(#9700736b59)"><path fill="#d1cece" d="M 84.679688 56.585938 L 100.296875 56.585938 L 100.296875 72.140625 L 84.679688 72.140625 Z M 84.679688 56.585938 " fill-opacity="1" fill-rule="nonzero"/></g><g clip-path="url(#35b783abae)"><path fill="#d1cece" d="M 105.261719 56.585938 L 120.875 56.585938 L 120.875 72.140625 L 105.261719 72.140625 Z M 105.261719 56.585938 " fill-opacity="1" fill-rule="nonzero"/></g><g clip-path="url(#fc62fccbf4)"><path fill="#d1cece" d="M 125.789062 56.585938 L 141.40625 56.585938 L 141.40625 72.140625 L 125.789062 72.140625 Z M 125.789062 56.585938 " fill-opacity="1" fill-rule="nonzero"/></g><g clip-path="url(#e71e4dad7a)"><path fill="#a6a6a6" d="M 64.179688 77.371094 L 79.796875 77.371094 L 79.796875 92.929688 L 64.179688 92.929688 Z M 64.179688 77.371094 " fill-opacity="1" fill-rule="nonzero"/></g><g clip-path="url(#0afd857919)"><path fill="#a6a6a6" d="M 84.757812 77.371094 L 100.375 77.371094 L 100.375 92.929688 L 84.757812 92.929688 Z M 84.757812 77.371094 " fill-opacity="1" fill-rule="nonzero"/></g><g clip-path="url(#1296cfe325)"><path fill="#a6a6a6" d="M 105.339844 77.371094 L 120.953125 77.371094 L 120.953125 92.929688 L 105.339844 92.929688 Z M 105.339844 77.371094 " fill-opacity="1" fill-rule="nonzero"/></g><g clip-path="url(#aa515f37a5)"><path fill="#a6a6a6" d="M 125.867188 77.371094 L 141.484375 77.371094 L 141.484375 92.929688 L 125.867188 92.929688 Z M 125.867188 77.371094 " fill-opacity="1" fill-rule="nonzero"/></g><g clip-path="url(#93c972e0be)"><path fill="#a6a6a6" d="M 64.101562 98.160156 L 79.71875 98.160156 L 79.71875 113.714844 L 64.101562 113.714844 Z M 64.101562 98.160156 " fill-opacity="1" fill-rule="nonzero"/></g><g clip-path="url(#7f58484485)"><path fill="#a6a6a6" d="M 84.679688 98.160156 L 100.296875 98.160156 L 100.296875 113.714844 L 84.679688 113.714844 Z M 84.679688 98.160156 " fill-opacity="1" fill-rule="nonzero"/></g><g clip-path="url(#128c7786b9)"><path fill="#a6a6a6" d="M 105.261719 98.160156 L 120.875 98.160156 L 120.875 113.714844 L 105.261719 113.714844 Z M 105.261719 98.160156 " fill-opacity="1" fill-rule="nonzero"/></g><g clip-path="url(#f2d403d69e)"><path fill="#a6a6a6" d="M 125.789062 98.160156 L 141.40625 98.160156 L 141.40625 113.714844 L 125.789062 113.714844 Z M 125.789062 98.160156 " fill-opacity="1" fill-rule="nonzero"/></g><g clip-path="url(#1fa7938334)"><g clip-path="url(#ae1537157a)"><path fill="#333333" d="M 126.136719 33.800781 L 136.503906 33.800781 L 136.503906 51.496094 L 126.136719 51.496094 Z M 126.136719 33.800781 " fill-opacity="1" fill-rule="nonzero"/></g></g></svg>