<svg xmlns="http://www.w3.org/2000/svg" xmlns:xlink="http://www.w3.org/1999/xlink" width="300" zoomAndPan="magnify" viewBox="0 0 224.87999 168.749997" height="225" preserveAspectRatio="xMidYMid meet" version="1.0"><defs><g/><clipPath id="1be1244bcb"><path d="M 5.984375 6.058594 L 219.1875 6.058594 L 219.1875 162.441406 L 5.984375 162.441406 Z M 5.984375 6.058594 " clip-rule="nonzero"/></clipPath><clipPath id="2e4899bc95"><path d="M 66.0625 36.089844 L 158.816406 36.089844 L 158.816406 112.832031 L 66.0625 112.832031 Z M 66.0625 36.089844 " clip-rule="nonzero"/></clipPath><clipPath id="3a7c6aac25"><path d="M 71.5 40.625 L 153.519531 40.625 L 153.519531 106.957031 L 71.5 106.957031 Z M 71.5 40.625 " clip-rule="nonzero"/></clipPath><clipPath id="360bf6069d"><path d="M 81.992188 30.6875 L 91.304688 30.6875 L 91.304688 46.582031 L 81.992188 46.582031 Z M 81.992188 30.6875 " clip-rule="nonzero"/></clipPath><clipPath id="63eb12be67"><path d="M 86.648438 30.6875 C 87.882812 30.6875 89.066406 31.175781 89.941406 32.050781 C 90.8125 32.921875 91.304688 34.109375 91.304688 35.34375 L 91.304688 41.910156 C 91.304688 43.144531 90.8125 44.332031 89.941406 45.203125 C 89.066406 46.078125 87.882812 46.566406 86.648438 46.566406 C 85.414062 46.566406 84.230469 46.078125 83.355469 45.203125 C 82.484375 44.332031 81.992188 43.144531 81.992188 41.910156 L 81.992188 35.34375 C 81.992188 34.109375 82.484375 32.921875 83.355469 32.050781 C 84.230469 31.175781 85.414062 30.6875 86.648438 30.6875 Z M 86.648438 30.6875 " clip-rule="nonzero"/></clipPath><clipPath id="0d66f3d617"><path d="M 77.726562 51.152344 L 91.746094 51.152344 L 91.746094 65.121094 L 77.726562 65.121094 Z M 77.726562 51.152344 " clip-rule="nonzero"/></clipPath><clipPath id="ab8d36f74c"><path d="M 96.210938 51.152344 L 110.230469 51.152344 L 110.230469 65.121094 L 96.210938 65.121094 Z M 96.210938 51.152344 " clip-rule="nonzero"/></clipPath><clipPath id="e6dbd3f3a1"><path d="M 114.695312 51.152344 L 128.714844 51.152344 L 128.714844 65.121094 L 114.695312 65.121094 Z M 114.695312 51.152344 " clip-rule="nonzero"/></clipPath><clipPath id="4d6f23c9b6"><path d="M 133.132812 51.152344 L 147.152344 51.152344 L 147.152344 65.121094 L 133.132812 65.121094 Z M 133.132812 51.152344 " clip-rule="nonzero"/></clipPath><clipPath id="d370f378b2"><path d="M 77.796875 69.820312 L 91.816406 69.820312 L 91.816406 83.792969 L 77.796875 83.792969 Z M 77.796875 69.820312 " clip-rule="nonzero"/></clipPath><clipPath id="bb19f7e9fa"><path d="M 96.28125 69.820312 L 110.300781 69.820312 L 110.300781 83.792969 L 96.28125 83.792969 Z M 96.28125 69.820312 " clip-rule="nonzero"/></clipPath><clipPath id="1ce6d86601"><path d="M 114.761719 69.820312 L 128.785156 69.820312 L 128.785156 83.792969 L 114.761719 83.792969 Z M 114.761719 69.820312 " clip-rule="nonzero"/></clipPath><clipPath id="b9f47ae32a"><path d="M 133.203125 69.820312 L 147.222656 69.820312 L 147.222656 83.792969 L 133.203125 83.792969 Z M 133.203125 69.820312 " clip-rule="nonzero"/></clipPath><clipPath id="756b638d49"><path d="M 77.726562 88.488281 L 91.746094 88.488281 L 91.746094 102.460938 L 77.726562 102.460938 Z M 77.726562 88.488281 " clip-rule="nonzero"/></clipPath><clipPath id="c36ff079b3"><path d="M 96.210938 88.488281 L 110.230469 88.488281 L 110.230469 102.460938 L 96.210938 102.460938 Z M 96.210938 88.488281 " clip-rule="nonzero"/></clipPath><clipPath id="3494082b9a"><path d="M 114.695312 88.488281 L 128.714844 88.488281 L 128.714844 102.460938 L 114.695312 102.460938 Z M 114.695312 88.488281 " clip-rule="nonzero"/></clipPath><clipPath id="b4c28cd9ee"><path d="M 133.132812 88.488281 L 147.152344 88.488281 L 147.152344 102.460938 L 133.132812 102.460938 Z M 133.132812 88.488281 " clip-rule="nonzero"/></clipPath><clipPath id="842e156d33"><path d="M 133.445312 30.6875 L 142.753906 30.6875 L 142.753906 46.582031 L 133.445312 46.582031 Z M 133.445312 30.6875 " clip-rule="nonzero"/></clipPath><clipPath id="df6ae30f5c"><path d="M 138.101562 30.6875 C 139.335938 30.6875 140.519531 31.175781 141.390625 32.050781 C 142.265625 32.921875 142.753906 34.109375 142.753906 35.34375 L 142.753906 41.910156 C 142.753906 43.144531 142.265625 44.332031 141.390625 45.203125 C 140.519531 46.078125 139.335938 46.566406 138.101562 46.566406 C 136.863281 46.566406 135.679688 46.078125 134.808594 45.203125 C 133.933594 44.332031 133.445312 43.144531 133.445312 41.910156 L 133.445312 35.34375 C 133.445312 34.109375 133.933594 32.921875 134.808594 32.050781 C 135.679688 31.175781 136.863281 30.6875 138.101562 30.6875 Z M 138.101562 30.6875 " clip-rule="nonzero"/></clipPath></defs><g clip-path="url(#1be1244bcb)"><path fill="#ececec" d="M 5.984375 6.058594 L 219.179688 6.058594 L 219.179688 162.441406 L 5.984375 162.441406 Z M 5.984375 6.058594 " fill-opacity="1" fill-rule="nonzero"/></g><g fill="#423e3e" fill-opacity="1"><g transform="translate(47.103643, 145.878573)"><g><path d="M 4.859375 0 L 4.859375 -11.875 L 0.390625 -11.875 L 0.390625 -14.859375 L 12.375 -14.859375 L 12.375 -11.875 L 7.90625 -11.875 L 7.90625 0 Z M 4.859375 0 "/></g></g></g><g fill="#423e3e" fill-opacity="1"><g transform="translate(59.86912, 145.878573)"><g><path d="M 4.796875 -14.859375 L 4.796875 0 L 1.71875 0 L 1.71875 -14.859375 Z M 4.796875 -14.859375 "/></g></g></g><g fill="#423e3e" fill-opacity="1"><g transform="translate(66.41309, 145.878573)"><g><path d="M 15.0625 -9.8125 L 10.921875 0 L 8.875 0 L 4.765625 -9.734375 L 4.75 -9.734375 L 4.75 0 L 1.71875 0 L 1.71875 -14.859375 L 5.6875 -14.859375 L 9.90625 -4.890625 L 14.03125 -14.859375 L 18.109375 -14.859375 L 18.109375 0 L 15.078125 0 L 15.078125 -9.8125 Z M 15.0625 -9.8125 "/></g></g></g><g fill="#423e3e" fill-opacity="1"><g transform="translate(86.253637, 145.878573)"><g><path d="M 1.71875 -14.859375 L 11.453125 -14.859375 L 11.453125 -11.96875 L 4.765625 -11.96875 L 4.765625 -8.953125 L 10.75 -8.953125 L 10.75 -6.0625 L 4.765625 -6.0625 L 4.765625 -2.859375 L 11.5 -2.859375 L 11.5 0 L 1.71875 0 Z M 1.71875 -14.859375 "/></g></g></g><g fill="#423e3e" fill-opacity="1"><g transform="translate(98.829434, 145.878573)"><g/></g></g><g fill="#423e3e" fill-opacity="1"><g transform="translate(103.590401, 145.878573)"><g><path d="M 13.140625 0 L 9.734375 0 L 6.65625 -5.328125 L 4.796875 -5.328125 L 4.796875 0 L 1.71875 0 L 1.71875 -14.859375 L 7.59375 -14.859375 C 8.550781 -14.859375 9.425781 -14.679688 10.21875 -14.328125 C 11.019531 -13.984375 11.65625 -13.460938 12.125 -12.765625 C 12.601562 -12.066406 12.84375 -11.191406 12.84375 -10.140625 C 12.84375 -7.984375 11.820312 -6.535156 9.78125 -5.796875 Z M 7.359375 -8.171875 C 7.734375 -8.171875 8.101562 -8.234375 8.46875 -8.359375 C 8.84375 -8.492188 9.144531 -8.695312 9.375 -8.96875 C 9.613281 -9.25 9.734375 -9.625 9.734375 -10.09375 C 9.734375 -10.570312 9.613281 -10.941406 9.375 -11.203125 C 9.132812 -11.472656 8.832031 -11.664062 8.46875 -11.78125 C 8.101562 -11.894531 7.726562 -11.953125 7.34375 -11.953125 L 4.796875 -11.953125 L 4.796875 -8.171875 Z M 7.359375 -8.171875 "/></g></g></g><g fill="#423e3e" fill-opacity="1"><g transform="translate(117.456017, 145.878573)"><g><path d="M 3.078125 0 L -0.015625 0 L 5.65625 -14.859375 L 9.359375 -14.859375 L 15.046875 0 L 11.875 0 L 10.75 -3 L 4.171875 -3 Z M 7.46875 -11.875 L 5.234375 -5.84375 L 9.71875 -5.84375 Z M 7.46875 -11.875 "/></g></g></g><g fill="#423e3e" fill-opacity="1"><g transform="translate(132.478689, 145.878573)"><g><path d="M 4.765625 -10.25 L 4.765625 0 L 1.71875 0 L 1.71875 -14.859375 L 5.234375 -14.859375 L 11.6875 -5.15625 L 11.6875 -14.859375 L 14.71875 -14.859375 L 14.71875 0 L 11.59375 0 Z M 4.765625 -10.25 "/></g></g></g><g fill="#423e3e" fill-opacity="1"><g transform="translate(148.942933, 145.878573)"><g><path d="M 3.953125 -7.4375 C 3.953125 -6.570312 4.144531 -5.78125 4.53125 -5.0625 C 4.914062 -4.34375 5.453125 -3.765625 6.140625 -3.328125 C 6.828125 -2.898438 7.617188 -2.6875 8.515625 -2.6875 C 9.523438 -2.6875 10.367188 -2.921875 11.046875 -3.390625 C 11.734375 -3.859375 12.164062 -4.460938 12.34375 -5.203125 L 7.828125 -5.203125 L 7.828125 -7.984375 L 15.546875 -7.984375 L 15.546875 -6.828125 C 15.546875 -5.679688 15.351562 -4.664062 14.96875 -3.78125 C 14.582031 -2.894531 14.054688 -2.15625 13.390625 -1.5625 C 12.734375 -0.976562 11.984375 -0.53125 11.140625 -0.21875 C 10.296875 0.0820312 9.421875 0.234375 8.515625 0.234375 C 7.367188 0.234375 6.320312 0.0351562 5.375 -0.359375 C 4.4375 -0.765625 3.625 -1.3125 2.9375 -2 C 2.257812 -2.695312 1.734375 -3.507812 1.359375 -4.4375 C 0.992188 -5.363281 0.8125 -6.359375 0.8125 -7.421875 C 0.8125 -8.503906 1.015625 -9.503906 1.421875 -10.421875 C 1.828125 -11.347656 2.382812 -12.160156 3.09375 -12.859375 C 3.8125 -13.566406 4.632812 -14.113281 5.5625 -14.5 C 6.5 -14.882812 7.5 -15.078125 8.5625 -15.078125 C 9.507812 -15.078125 10.359375 -14.945312 11.109375 -14.6875 C 11.859375 -14.425781 12.507812 -14.085938 13.0625 -13.671875 C 13.613281 -13.253906 14.066406 -12.800781 14.421875 -12.3125 C 14.785156 -11.832031 15.050781 -11.359375 15.21875 -10.890625 L 12.5 -9.5625 C 12.363281 -9.9375 12.132812 -10.328125 11.8125 -10.734375 C 11.488281 -11.140625 11.054688 -11.476562 10.515625 -11.75 C 9.984375 -12.03125 9.316406 -12.171875 8.515625 -12.171875 C 7.679688 -12.171875 6.921875 -11.960938 6.234375 -11.546875 C 5.546875 -11.128906 4.992188 -10.5625 4.578125 -9.84375 C 4.160156 -9.132812 3.953125 -8.332031 3.953125 -7.4375 Z M 3.953125 -7.4375 "/></g></g></g><g fill="#423e3e" fill-opacity="1"><g transform="translate(165.198528, 145.878573)"><g><path d="M 1.71875 -14.859375 L 11.453125 -14.859375 L 11.453125 -11.96875 L 4.765625 -11.96875 L 4.765625 -8.953125 L 10.75 -8.953125 L 10.75 -6.0625 L 4.765625 -6.0625 L 4.765625 -2.859375 L 11.5 -2.859375 L 11.5 0 L 1.71875 0 Z M 1.71875 -14.859375 "/></g></g></g><g clip-path="url(#2e4899bc95)"><path fill="#8f8f8f" d="M 66.0625 36.089844 L 158.691406 36.089844 L 158.691406 112.832031 L 66.0625 112.832031 Z M 66.0625 36.089844 " fill-opacity="1" fill-rule="nonzero"/></g><g clip-path="url(#3a7c6aac25)"><path fill="#ececec" d="M 71.5 40.625 L 153.640625 40.625 L 153.640625 106.957031 L 71.5 106.957031 Z M 71.5 40.625 " fill-opacity="1" fill-rule="nonzero"/></g><g clip-path="url(#360bf6069d)"><g clip-path="url(#63eb12be67)"><path fill="#333333" d="M 81.992188 30.6875 L 91.304688 30.6875 L 91.304688 46.582031 L 81.992188 46.582031 Z M 81.992188 30.6875 " fill-opacity="1" fill-rule="nonzero"/></g></g><g clip-path="url(#0d66f3d617)"><path fill="#d1cece" d="M 77.726562 51.152344 L 91.753906 51.152344 L 91.753906 65.121094 L 77.726562 65.121094 Z M 77.726562 51.152344 " fill-opacity="1" fill-rule="nonzero"/></g><g clip-path="url(#ab8d36f74c)"><path fill="#d1cece" d="M 96.210938 51.152344 L 110.234375 51.152344 L 110.234375 65.121094 L 96.210938 65.121094 Z M 96.210938 51.152344 " fill-opacity="1" fill-rule="nonzero"/></g><g clip-path="url(#e6dbd3f3a1)"><path fill="#d1cece" d="M 114.695312 51.152344 L 128.71875 51.152344 L 128.71875 65.121094 L 114.695312 65.121094 Z M 114.695312 51.152344 " fill-opacity="1" fill-rule="nonzero"/></g><g clip-path="url(#4d6f23c9b6)"><path fill="#d1cece" d="M 133.132812 51.152344 L 147.160156 51.152344 L 147.160156 65.121094 L 133.132812 65.121094 Z M 133.132812 51.152344 " fill-opacity="1" fill-rule="nonzero"/></g><g clip-path="url(#d370f378b2)"><path fill="#a6a6a6" d="M 77.796875 69.820312 L 91.824219 69.820312 L 91.824219 83.792969 L 77.796875 83.792969 Z M 77.796875 69.820312 " fill-opacity="1" fill-rule="nonzero"/></g><g clip-path="url(#bb19f7e9fa)"><path fill="#a6a6a6" d="M 96.28125 69.820312 L 110.304688 69.820312 L 110.304688 83.792969 L 96.28125 83.792969 Z M 96.28125 69.820312 " fill-opacity="1" fill-rule="nonzero"/></g><g clip-path="url(#1ce6d86601)"><path fill="#a6a6a6" d="M 114.761719 69.820312 L 128.789062 69.820312 L 128.789062 83.792969 L 114.761719 83.792969 Z M 114.761719 69.820312 " fill-opacity="1" fill-rule="nonzero"/></g><g clip-path="url(#b9f47ae32a)"><path fill="#a6a6a6" d="M 133.203125 69.820312 L 147.230469 69.820312 L 147.230469 83.792969 L 133.203125 83.792969 Z M 133.203125 69.820312 " fill-opacity="1" fill-rule="nonzero"/></g><g clip-path="url(#756b638d49)"><path fill="#a6a6a6" d="M 77.726562 88.488281 L 91.753906 88.488281 L 91.753906 102.460938 L 77.726562 102.460938 Z M 77.726562 88.488281 " fill-opacity="1" fill-rule="nonzero"/></g><g clip-path="url(#c36ff079b3)"><path fill="#a6a6a6" d="M 96.210938 88.488281 L 110.234375 88.488281 L 110.234375 102.460938 L 96.210938 102.460938 Z M 96.210938 88.488281 " fill-opacity="1" fill-rule="nonzero"/></g><g clip-path="url(#3494082b9a)"><path fill="#a6a6a6" d="M 114.695312 88.488281 L 128.71875 88.488281 L 128.71875 102.460938 L 114.695312 102.460938 Z M 114.695312 88.488281 " fill-opacity="1" fill-rule="nonzero"/></g><g clip-path="url(#b4c28cd9ee)"><path fill="#a6a6a6" d="M 133.132812 88.488281 L 147.160156 88.488281 L 147.160156 102.460938 L 133.132812 102.460938 Z M 133.132812 88.488281 " fill-opacity="1" fill-rule="nonzero"/></g><g clip-path="url(#842e156d33)"><g clip-path="url(#df6ae30f5c)"><path fill="#333333" d="M 133.445312 30.6875 L 142.753906 30.6875 L 142.753906 46.582031 L 133.445312 46.582031 Z M 133.445312 30.6875 " fill-opacity="1" fill-rule="nonzero"/></g></g></svg>