<svg xmlns="http://www.w3.org/2000/svg" xmlns:xlink="http://www.w3.org/1999/xlink" width="300" zoomAndPan="magnify" viewBox="0 0 224.87999 168.749997" height="225" preserveAspectRatio="xMidYMid meet" version="1.0"><defs><filter x="0%" y="0%" width="100%" height="100%" id="5e7fef91c4"><feColorMatrix values="0 0 0 0 1 0 0 0 0 1 0 0 0 0 1 0 0 0 1 0" color-interpolation-filters="sRGB"/></filter><g/><clipPath id="65a784ea27"><path d="M 5.984375 6.058594 L 219.1875 6.058594 L 219.1875 162.441406 L 5.984375 162.441406 Z M 5.984375 6.058594 " clip-rule="nonzero"/></clipPath><clipPath id="bef752d33e"><path d="M 56.199219 29.140625 L 89.871094 29.140625 L 89.871094 54.28125 L 56.199219 54.28125 Z M 56.199219 29.140625 " clip-rule="nonzero"/></clipPath><clipPath id="6a5cf9da9a"><path d="M 135.007812 29.140625 L 168.679688 29.140625 L 168.679688 54.28125 L 135.007812 54.28125 Z M 135.007812 29.140625 " clip-rule="nonzero"/></clipPath><clipPath id="c44bf64a65"><path d="M 56.199219 89.644531 L 89.871094 89.644531 L 89.871094 114.785156 L 56.199219 114.785156 Z M 56.199219 89.644531 " clip-rule="nonzero"/></clipPath><clipPath id="dc6c231e06"><path d="M 135.007812 89.644531 L 168.679688 89.644531 L 168.679688 114.785156 L 135.007812 114.785156 Z M 135.007812 89.644531 " clip-rule="nonzero"/></clipPath><mask id="2018e2ef54"><g filter="url(#5e7fef91c4)"><rect x="-22.487999" width="269.855988" fill="#000000" y="-16.875" height="202.499996" fill-opacity="0.91"/></g></mask><clipPath id="1a74cd6e23"><path d="M 0.980469 0.585938 L 88.84375 0.585938 L 88.84375 33.339844 L 0.980469 33.339844 Z M 0.980469 0.585938 " clip-rule="nonzero"/></clipPath><clipPath id="f86c4f0183"><rect x="0" width="90" y="0" height="34"/></clipPath></defs><g clip-path="url(#65a784ea27)"><path fill="#ececec" d="M 5.984375 6.058594 L 219.179688 6.058594 L 219.179688 162.441406 L 5.984375 162.441406 Z M 5.984375 6.058594 " fill-opacity="1" fill-rule="nonzero"/></g><g clip-path="url(#bef752d33e)"><path fill="#625e5e" d="M 56.199219 29.140625 L 89.882812 29.140625 L 89.882812 54.28125 L 56.199219 54.28125 Z M 56.199219 29.140625 " fill-opacity="1" fill-rule="nonzero"/></g><g clip-path="url(#6a5cf9da9a)"><path fill="#625e5e" d="M 135.007812 29.140625 L 168.691406 29.140625 L 168.691406 54.28125 L 135.007812 54.28125 Z M 135.007812 29.140625 " fill-opacity="1" fill-rule="nonzero"/></g><g clip-path="url(#c44bf64a65)"><path fill="#8f8f8f" d="M 56.199219 89.644531 L 89.882812 89.644531 L 89.882812 114.785156 L 56.199219 114.785156 Z M 56.199219 89.644531 " fill-opacity="1" fill-rule="nonzero"/></g><g clip-path="url(#dc6c231e06)"><path fill="#8f8f8f" d="M 135.007812 89.644531 L 168.691406 89.644531 L 168.691406 114.785156 L 135.007812 114.785156 Z M 135.007812 89.644531 " fill-opacity="1" fill-rule="nonzero"/></g><path stroke-linecap="butt" transform="matrix(0.00532204, 0.652977, -0.652977, 0.00532204, 103.809443, 21.385067)" fill="none" stroke-linejoin="miter" d="M -0.00180154 1.999347 L 143.009107 1.998413 " stroke="#f5d228" stroke-width="4" stroke-opacity="1" stroke-miterlimit="4"/><g mask="url(#2018e2ef54)"><g transform="matrix(1, 0, 0, 1, 63, 55)"><g clip-path="url(#f86c4f0183)"><g clip-path="url(#1a74cd6e23)"><path fill="#625e5e" d="M 0.980469 0.585938 L 88.871094 0.585938 L 88.871094 33.339844 L 0.980469 33.339844 Z M 0.980469 0.585938 " fill-opacity="1" fill-rule="nonzero"/></g></g></g></g><g fill="#423e3e" fill-opacity="1"><g transform="translate(63.055885, 145.878556)"><g><path d="M 4.859375 0 L 4.859375 -11.875 L 0.390625 -11.875 L 0.390625 -14.859375 L 12.375 -14.859375 L 12.375 -11.875 L 7.90625 -11.875 L 7.90625 0 Z M 4.859375 0 "/></g></g></g><g fill="#423e3e" fill-opacity="1"><g transform="translate(75.821362, 145.878556)"><g><path d="M 4.796875 -14.859375 L 4.796875 0 L 1.71875 0 L 1.71875 -14.859375 Z M 4.796875 -14.859375 "/></g></g></g><g fill="#423e3e" fill-opacity="1"><g transform="translate(82.365332, 145.878556)"><g><path d="M 15.0625 -9.8125 L 10.921875 0 L 8.875 0 L 4.765625 -9.734375 L 4.75 -9.734375 L 4.75 0 L 1.71875 0 L 1.71875 -14.859375 L 5.6875 -14.859375 L 9.90625 -4.890625 L 14.03125 -14.859375 L 18.109375 -14.859375 L 18.109375 0 L 15.078125 0 L 15.078125 -9.8125 Z M 15.0625 -9.8125 "/></g></g></g><g fill="#423e3e" fill-opacity="1"><g transform="translate(102.205879, 145.878556)"><g><path d="M 1.71875 -14.859375 L 11.453125 -14.859375 L 11.453125 -11.96875 L 4.765625 -11.96875 L 4.765625 -8.953125 L 10.75 -8.953125 L 10.75 -6.0625 L 4.765625 -6.0625 L 4.765625 -2.859375 L 11.5 -2.859375 L 11.5 0 L 1.71875 0 Z M 1.71875 -14.859375 "/></g></g></g><g fill="#423e3e" fill-opacity="1"><g transform="translate(114.781677, 145.878556)"><g><path d="M 1.71875 -14.859375 L 4.78125 -14.859375 L 4.78125 -2.921875 L 11.140625 -2.921875 L 11.140625 0 L 1.71875 0 Z M 1.71875 -14.859375 "/></g></g></g><g fill="#423e3e" fill-opacity="1"><g transform="translate(126.238355, 145.878556)"><g><path d="M 4.796875 -14.859375 L 4.796875 0 L 1.71875 0 L 1.71875 -14.859375 Z M 4.796875 -14.859375 "/></g></g></g><g fill="#423e3e" fill-opacity="1"><g transform="translate(132.782325, 145.878556)"><g><path d="M 4.765625 -10.25 L 4.765625 0 L 1.71875 0 L 1.71875 -14.859375 L 5.234375 -14.859375 L 11.6875 -5.15625 L 11.6875 -14.859375 L 14.71875 -14.859375 L 14.71875 0 L 11.59375 0 Z M 4.765625 -10.25 "/></g></g></g><g fill="#423e3e" fill-opacity="1"><g transform="translate(149.246568, 145.878556)"><g><path d="M 1.71875 -14.859375 L 11.453125 -14.859375 L 11.453125 -11.96875 L 4.765625 -11.96875 L 4.765625 -8.953125 L 10.75 -8.953125 L 10.75 -6.0625 L 4.765625 -6.0625 L 4.765625 -2.859375 L 11.5 -2.859375 L 11.5 0 L 1.71875 0 Z M 1.71875 -14.859375 "/></g></g></g></svg>