<svg xmlns="http://www.w3.org/2000/svg" xmlns:xlink="http://www.w3.org/1999/xlink" width="300" zoomAndPan="magnify" viewBox="0 0 224.87999 168.749997" height="225" preserveAspectRatio="xMidYMid meet" version="1.0"><defs><g/><clipPath id="f546dc0e25"><path d="M 5.984375 6.058594 L 219.1875 6.058594 L 219.1875 162.441406 L 5.984375 162.441406 Z M 5.984375 6.058594 " clip-rule="nonzero"/></clipPath><clipPath id="f0bd2f3409"><path d="M 69.3125 51.328125 L 155.617188 51.328125 L 155.617188 98.136719 L 69.3125 98.136719 Z M 69.3125 51.328125 " clip-rule="nonzero"/></clipPath><clipPath id="5cfe13bdc8"><path d="M 92.71875 51.328125 L 132.160156 51.328125 C 145.085938 51.328125 155.566406 61.804688 155.566406 74.730469 C 155.566406 87.65625 145.085938 98.136719 132.160156 98.136719 L 92.71875 98.136719 C 79.792969 98.136719 69.3125 87.65625 69.3125 74.730469 C 69.3125 61.804688 79.792969 51.328125 92.71875 51.328125 Z M 92.71875 51.328125 " clip-rule="nonzero"/></clipPath><clipPath id="fce2eb45a6"><path d="M 69.3125 51.328125 L 155.441406 51.328125 L 155.441406 98.136719 L 69.3125 98.136719 Z M 69.3125 51.328125 " clip-rule="nonzero"/></clipPath><clipPath id="ec3a2e01d4"><path d="M 92.714844 51.328125 L 132.15625 51.328125 C 145.082031 51.328125 155.558594 61.808594 155.558594 74.730469 C 155.558594 87.65625 145.082031 98.136719 132.15625 98.136719 L 92.714844 98.136719 C 79.792969 98.136719 69.3125 87.65625 69.3125 74.730469 C 69.3125 61.808594 79.792969 51.328125 92.714844 51.328125 Z M 92.714844 51.328125 " clip-rule="nonzero"/></clipPath><clipPath id="db2e47520b"><path d="M 74.425781 55.726562 L 112.441406 55.726562 L 112.441406 93.738281 L 74.425781 93.738281 Z M 74.425781 55.726562 " clip-rule="nonzero"/></clipPath><clipPath id="7a1457833e"><path d="M 93.433594 55.726562 C 82.9375 55.726562 74.425781 64.234375 74.425781 74.730469 C 74.425781 85.230469 82.9375 93.738281 93.433594 93.738281 C 103.929688 93.738281 112.441406 85.230469 112.441406 74.730469 C 112.441406 64.234375 103.929688 55.726562 93.433594 55.726562 Z M 93.433594 55.726562 " clip-rule="nonzero"/></clipPath></defs><g clip-path="url(#f546dc0e25)"><path fill="#ececec" d="M 5.984375 6.058594 L 219.179688 6.058594 L 219.179688 162.441406 L 5.984375 162.441406 Z M 5.984375 6.058594 " fill-opacity="1" fill-rule="nonzero"/></g><g fill="#423e3e" fill-opacity="1"><g transform="translate(69.258665, 145.878573)"><g><path d="M 4.859375 0 L 4.859375 -11.875 L 0.390625 -11.875 L 0.390625 -14.859375 L 12.375 -14.859375 L 12.375 -11.875 L 7.90625 -11.875 L 7.90625 0 Z M 4.859375 0 "/></g></g></g><g fill="#423e3e" fill-opacity="1"><g transform="translate(82.024142, 145.878573)"><g><path d="M 0.8125 -7.421875 C 0.8125 -8.484375 1.015625 -9.476562 1.421875 -10.40625 C 1.828125 -11.332031 2.382812 -12.144531 3.09375 -12.84375 C 3.800781 -13.550781 4.625 -14.097656 5.5625 -14.484375 C 6.507812 -14.878906 7.515625 -15.078125 8.578125 -15.078125 C 9.640625 -15.078125 10.632812 -14.882812 11.5625 -14.5 C 12.488281 -14.113281 13.300781 -13.578125 14 -12.890625 C 14.707031 -12.203125 15.253906 -11.394531 15.640625 -10.46875 C 16.035156 -9.550781 16.234375 -8.5625 16.234375 -7.5 C 16.234375 -6.414062 16.035156 -5.40625 15.640625 -4.46875 C 15.242188 -3.539062 14.6875 -2.722656 13.96875 -2.015625 C 13.257812 -1.304688 12.4375 -0.753906 11.5 -0.359375 C 10.5625 0.0351562 9.5625 0.234375 8.5 0.234375 C 7.4375 0.234375 6.4375 0.0351562 5.5 -0.359375 C 4.570312 -0.753906 3.757812 -1.296875 3.0625 -1.984375 C 2.363281 -2.679688 1.8125 -3.488281 1.40625 -4.40625 C 1.007812 -5.332031 0.8125 -6.335938 0.8125 -7.421875 Z M 3.96875 -7.4375 C 3.96875 -6.59375 4.164062 -5.8125 4.5625 -5.09375 C 4.96875 -4.375 5.519531 -3.800781 6.21875 -3.375 C 6.914062 -2.957031 7.6875 -2.75 8.53125 -2.75 C 9.394531 -2.75 10.171875 -2.957031 10.859375 -3.375 C 11.546875 -3.800781 12.09375 -4.375 12.5 -5.09375 C 12.90625 -5.8125 13.109375 -6.59375 13.109375 -7.4375 C 13.109375 -8.289062 12.90625 -9.066406 12.5 -9.765625 C 12.09375 -10.472656 11.546875 -11.039062 10.859375 -11.46875 C 10.171875 -11.894531 9.394531 -12.109375 8.53125 -12.109375 C 7.6875 -12.109375 6.914062 -11.894531 6.21875 -11.46875 C 5.519531 -11.039062 4.96875 -10.472656 4.5625 -9.765625 C 4.164062 -9.066406 3.96875 -8.289062 3.96875 -7.4375 Z M 3.96875 -7.4375 "/></g></g></g><g fill="#423e3e" fill-opacity="1"><g transform="translate(99.076394, 145.878573)"><g><path d="M 3.953125 -7.4375 C 3.953125 -6.570312 4.144531 -5.78125 4.53125 -5.0625 C 4.914062 -4.34375 5.453125 -3.765625 6.140625 -3.328125 C 6.828125 -2.898438 7.617188 -2.6875 8.515625 -2.6875 C 9.523438 -2.6875 10.367188 -2.921875 11.046875 -3.390625 C 11.734375 -3.859375 12.164062 -4.460938 12.34375 -5.203125 L 7.828125 -5.203125 L 7.828125 -7.984375 L 15.546875 -7.984375 L 15.546875 -6.828125 C 15.546875 -5.679688 15.351562 -4.664062 14.96875 -3.78125 C 14.582031 -2.894531 14.054688 -2.15625 13.390625 -1.5625 C 12.734375 -0.976562 11.984375 -0.53125 11.140625 -0.21875 C 10.296875 0.0820312 9.421875 0.234375 8.515625 0.234375 C 7.367188 0.234375 6.320312 0.0351562 5.375 -0.359375 C 4.4375 -0.765625 3.625 -1.3125 2.9375 -2 C 2.257812 -2.695312 1.734375 -3.507812 1.359375 -4.4375 C 0.992188 -5.363281 0.8125 -6.359375 0.8125 -7.421875 C 0.8125 -8.503906 1.015625 -9.503906 1.421875 -10.421875 C 1.828125 -11.347656 2.382812 -12.160156 3.09375 -12.859375 C 3.8125 -13.566406 4.632812 -14.113281 5.5625 -14.5 C 6.5 -14.882812 7.5 -15.078125 8.5625 -15.078125 C 9.507812 -15.078125 10.359375 -14.945312 11.109375 -14.6875 C 11.859375 -14.425781 12.507812 -14.085938 13.0625 -13.671875 C 13.613281 -13.253906 14.066406 -12.800781 14.421875 -12.3125 C 14.785156 -11.832031 15.050781 -11.359375 15.21875 -10.890625 L 12.5 -9.5625 C 12.363281 -9.9375 12.132812 -10.328125 11.8125 -10.734375 C 11.488281 -11.140625 11.054688 -11.476562 10.515625 -11.75 C 9.984375 -12.03125 9.316406 -12.171875 8.515625 -12.171875 C 7.679688 -12.171875 6.921875 -11.960938 6.234375 -11.546875 C 5.546875 -11.128906 4.992188 -10.5625 4.578125 -9.84375 C 4.160156 -9.132812 3.953125 -8.332031 3.953125 -7.4375 Z M 3.953125 -7.4375 "/></g></g></g><g fill="#423e3e" fill-opacity="1"><g transform="translate(115.331989, 145.878573)"><g><path d="M 3.953125 -7.4375 C 3.953125 -6.570312 4.144531 -5.78125 4.53125 -5.0625 C 4.914062 -4.34375 5.453125 -3.765625 6.140625 -3.328125 C 6.828125 -2.898438 7.617188 -2.6875 8.515625 -2.6875 C 9.523438 -2.6875 10.367188 -2.921875 11.046875 -3.390625 C 11.734375 -3.859375 12.164062 -4.460938 12.34375 -5.203125 L 7.828125 -5.203125 L 7.828125 -7.984375 L 15.546875 -7.984375 L 15.546875 -6.828125 C 15.546875 -5.679688 15.351562 -4.664062 14.96875 -3.78125 C 14.582031 -2.894531 14.054688 -2.15625 13.390625 -1.5625 C 12.734375 -0.976562 11.984375 -0.53125 11.140625 -0.21875 C 10.296875 0.0820312 9.421875 0.234375 8.515625 0.234375 C 7.367188 0.234375 6.320312 0.0351562 5.375 -0.359375 C 4.4375 -0.765625 3.625 -1.3125 2.9375 -2 C 2.257812 -2.695312 1.734375 -3.507812 1.359375 -4.4375 C 0.992188 -5.363281 0.8125 -6.359375 0.8125 -7.421875 C 0.8125 -8.503906 1.015625 -9.503906 1.421875 -10.421875 C 1.828125 -11.347656 2.382812 -12.160156 3.09375 -12.859375 C 3.8125 -13.566406 4.632812 -14.113281 5.5625 -14.5 C 6.5 -14.882812 7.5 -15.078125 8.5625 -15.078125 C 9.507812 -15.078125 10.359375 -14.945312 11.109375 -14.6875 C 11.859375 -14.425781 12.507812 -14.085938 13.0625 -13.671875 C 13.613281 -13.253906 14.066406 -12.800781 14.421875 -12.3125 C 14.785156 -11.832031 15.050781 -11.359375 15.21875 -10.890625 L 12.5 -9.5625 C 12.363281 -9.9375 12.132812 -10.328125 11.8125 -10.734375 C 11.488281 -11.140625 11.054688 -11.476562 10.515625 -11.75 C 9.984375 -12.03125 9.316406 -12.171875 8.515625 -12.171875 C 7.679688 -12.171875 6.921875 -11.960938 6.234375 -11.546875 C 5.546875 -11.128906 4.992188 -10.5625 4.578125 -9.84375 C 4.160156 -9.132812 3.953125 -8.332031 3.953125 -7.4375 Z M 3.953125 -7.4375 "/></g></g></g><g fill="#423e3e" fill-opacity="1"><g transform="translate(131.587584, 145.878573)"><g><path d="M 1.71875 -14.859375 L 4.78125 -14.859375 L 4.78125 -2.921875 L 11.140625 -2.921875 L 11.140625 0 L 1.71875 0 Z M 1.71875 -14.859375 "/></g></g></g><g fill="#423e3e" fill-opacity="1"><g transform="translate(143.044262, 145.878573)"><g><path d="M 1.71875 -14.859375 L 11.453125 -14.859375 L 11.453125 -11.96875 L 4.765625 -11.96875 L 4.765625 -8.953125 L 10.75 -8.953125 L 10.75 -6.0625 L 4.765625 -6.0625 L 4.765625 -2.859375 L 11.5 -2.859375 L 11.5 0 L 1.71875 0 Z M 1.71875 -14.859375 "/></g></g></g><g clip-path="url(#f0bd2f3409)"><g clip-path="url(#5cfe13bdc8)"><path fill="#8f8f8f" d="M 69.3125 51.328125 L 155.617188 51.328125 L 155.617188 98.136719 L 69.3125 98.136719 Z M 69.3125 51.328125 " fill-opacity="1" fill-rule="nonzero"/></g></g><g clip-path="url(#fce2eb45a6)"><g clip-path="url(#ec3a2e01d4)"><path stroke-linecap="butt" transform="matrix(0.624119, 0, 0, 0.624119, 69.313961, 51.329539)" fill="none" stroke-linejoin="miter" d="M 37.494277 -0.00226505 L 100.689628 -0.00226505 C 121.400079 -0.00226505 138.186246 16.790161 138.186246 37.494353 C 138.186246 58.204803 121.400079 74.99723 100.689628 74.99723 L 37.494277 74.99723 C 16.790085 74.99723 -0.00234091 58.204803 -0.00234091 37.494353 C -0.00234091 16.790161 16.790085 -0.00226505 37.494277 -0.00226505 Z M 37.494277 -0.00226505 " stroke="#7b7b7b" stroke-width="7.1995" stroke-opacity="1" stroke-miterlimit="4"/></g></g><g clip-path="url(#db2e47520b)"><g clip-path="url(#7a1457833e)"><path fill="#423e3e" d="M 74.425781 55.726562 L 112.441406 55.726562 L 112.441406 93.738281 L 74.425781 93.738281 Z M 74.425781 55.726562 " fill-opacity="1" fill-rule="nonzero"/></g></g></svg>