<svg xmlns="http://www.w3.org/2000/svg" xmlns:xlink="http://www.w3.org/1999/xlink" width="275" zoomAndPan="magnify" viewBox="0 0 206.25 187.499992" height="250" preserveAspectRatio="xMidYMid meet" version="1.0"><defs><g/><clipPath id="af15035140"><path d="M 47.085938 155.351562 L 159.132812 155.351562 L 159.132812 179.699219 L 47.085938 179.699219 Z M 47.085938 155.351562 " clip-rule="nonzero"/></clipPath><clipPath id="03aede8318"><path d="M 6.664062 6.203125 L 198.839844 6.203125 L 198.839844 145.292969 L 6.664062 145.292969 Z M 6.664062 6.203125 " clip-rule="nonzero"/></clipPath><clipPath id="2b304ed4d6"><path d="M 56.703125 50.5625 L 149.570312 50.5625 L 149.570312 100.933594 L 56.703125 100.933594 Z M 56.703125 50.5625 " clip-rule="nonzero"/></clipPath><clipPath id="2f2a65e30c"><path d="M 81.886719 50.5625 L 124.328125 50.5625 C 138.238281 50.5625 149.511719 61.839844 149.511719 75.75 C 149.511719 89.65625 138.238281 100.933594 124.328125 100.933594 L 81.886719 100.933594 C 67.980469 100.933594 56.703125 89.65625 56.703125 75.75 C 56.703125 61.839844 67.980469 50.5625 81.886719 50.5625 Z M 81.886719 50.5625 " clip-rule="nonzero"/></clipPath><clipPath id="13bd961804"><path d="M 56.703125 50.566406 L 149.378906 50.566406 L 149.378906 100.929688 L 56.703125 100.929688 Z M 56.703125 50.566406 " clip-rule="nonzero"/></clipPath><clipPath id="c281de7cce"><path d="M 81.886719 50.566406 L 124.324219 50.566406 C 138.230469 50.566406 149.507812 61.839844 149.507812 75.75 C 149.507812 89.65625 138.230469 100.929688 124.324219 100.929688 L 81.886719 100.929688 C 67.976562 100.929688 56.703125 89.65625 56.703125 75.75 C 56.703125 61.839844 67.976562 50.566406 81.886719 50.566406 Z M 81.886719 50.566406 " clip-rule="nonzero"/></clipPath><clipPath id="5d08c647d7"><path d="M 62.207031 55.296875 L 103.109375 55.296875 L 103.109375 96.199219 L 62.207031 96.199219 Z M 62.207031 55.296875 " clip-rule="nonzero"/></clipPath><clipPath id="f578ebfa31"><path d="M 82.65625 55.296875 C 71.363281 55.296875 62.207031 64.453125 62.207031 75.75 C 62.207031 87.042969 71.363281 96.199219 82.65625 96.199219 C 93.953125 96.199219 103.109375 87.042969 103.109375 75.75 C 103.109375 64.453125 93.953125 55.296875 82.65625 55.296875 Z M 82.65625 55.296875 " clip-rule="nonzero"/></clipPath></defs><g clip-path="url(#af15035140)"><path fill="#ffffff" d="M 47.085938 155.351562 L 159.128906 155.351562 L 159.128906 179.699219 L 47.085938 179.699219 Z M 47.085938 155.351562 " fill-opacity="1" fill-rule="nonzero"/></g><g clip-path="url(#03aede8318)"><path fill="#ececec" d="M 6.664062 6.203125 L 199 6.203125 L 199 145.292969 L 6.664062 145.292969 Z M 6.664062 6.203125 " fill-opacity="1" fill-rule="nonzero"/></g><g clip-path="url(#2b304ed4d6)"><g clip-path="url(#2f2a65e30c)"><path fill="#8f8f8f" d="M 56.703125 50.5625 L 149.570312 50.5625 L 149.570312 100.933594 L 56.703125 100.933594 Z M 56.703125 50.5625 " fill-opacity="1" fill-rule="nonzero"/></g></g><g clip-path="url(#13bd961804)"><g clip-path="url(#c281de7cce)"><path stroke-linecap="butt" transform="matrix(0.671568, 0, 0, 0.671568, 56.703996, 50.566211)" fill="none" stroke-linejoin="miter" d="M 37.49838 0.000290092 L 100.690018 0.000290092 C 121.397145 0.000290092 138.189695 16.787023 138.189695 37.499967 C 138.189695 58.207094 121.397145 74.993827 100.690018 74.993827 L 37.49838 74.993827 C 16.785436 74.993827 -0.00129649 58.207094 -0.00129649 37.499967 C -0.00129649 16.787023 16.785436 0.000290092 37.49838 0.000290092 Z M 37.49838 0.000290092 " stroke="#7b7b7b" stroke-width="6.676455" stroke-opacity="1" stroke-miterlimit="4"/></g></g><g clip-path="url(#5d08c647d7)"><g clip-path="url(#f578ebfa31)"><path fill="#423e3e" d="M 62.207031 55.296875 L 103.109375 55.296875 L 103.109375 96.199219 L 62.207031 96.199219 Z M 62.207031 55.296875 " fill-opacity="1" fill-rule="nonzero"/></g></g><g fill="#423e3e" fill-opacity="1"><g transform="translate(57.394805, 174.281853)"><g><path d="M 5.09375 0 L 5.09375 -12.46875 L 0.421875 -12.46875 L 0.421875 -15.59375 L 12.984375 -15.59375 L 12.984375 -12.46875 L 8.3125 -12.46875 L 8.3125 0 Z M 5.09375 0 "/></g></g></g><g fill="#423e3e" fill-opacity="1"><g transform="translate(70.800748, 174.281853)"><g><path d="M 0.859375 -7.796875 C 0.859375 -8.910156 1.066406 -9.953125 1.484375 -10.921875 C 1.910156 -11.898438 2.492188 -12.757812 3.234375 -13.5 C 3.984375 -14.238281 4.851562 -14.8125 5.84375 -15.21875 C 6.832031 -15.632812 7.882812 -15.84375 9 -15.84375 C 10.113281 -15.84375 11.160156 -15.640625 12.140625 -15.234375 C 13.117188 -14.828125 13.972656 -14.257812 14.703125 -13.53125 C 15.441406 -12.8125 16.015625 -11.96875 16.421875 -11 C 16.835938 -10.03125 17.046875 -8.988281 17.046875 -7.875 C 17.046875 -6.738281 16.835938 -5.679688 16.421875 -4.703125 C 16.003906 -3.722656 15.421875 -2.859375 14.671875 -2.109375 C 13.921875 -1.367188 13.050781 -0.789062 12.0625 -0.375 C 11.082031 0.03125 10.035156 0.234375 8.921875 0.234375 C 7.804688 0.234375 6.757812 0.03125 5.78125 -0.375 C 4.8125 -0.789062 3.957031 -1.363281 3.21875 -2.09375 C 2.476562 -2.820312 1.898438 -3.671875 1.484375 -4.640625 C 1.066406 -5.609375 0.859375 -6.660156 0.859375 -7.796875 Z M 4.15625 -7.8125 C 4.15625 -6.914062 4.367188 -6.09375 4.796875 -5.34375 C 5.222656 -4.59375 5.800781 -3.992188 6.53125 -3.546875 C 7.257812 -3.109375 8.070312 -2.890625 8.96875 -2.890625 C 9.863281 -2.890625 10.671875 -3.109375 11.390625 -3.546875 C 12.117188 -3.992188 12.695312 -4.59375 13.125 -5.34375 C 13.550781 -6.09375 13.765625 -6.914062 13.765625 -7.8125 C 13.765625 -8.707031 13.550781 -9.523438 13.125 -10.265625 C 12.695312 -11.003906 12.117188 -11.59375 11.390625 -12.03125 C 10.671875 -12.476562 9.863281 -12.703125 8.96875 -12.703125 C 8.070312 -12.703125 7.257812 -12.476562 6.53125 -12.03125 C 5.800781 -11.59375 5.222656 -11.003906 4.796875 -10.265625 C 4.367188 -9.523438 4.15625 -8.707031 4.15625 -7.8125 Z M 4.15625 -7.8125 "/></g></g></g><g fill="#423e3e" fill-opacity="1"><g transform="translate(88.708539, 174.281853)"><g><path d="M 4.140625 -7.8125 C 4.140625 -6.90625 4.34375 -6.070312 4.75 -5.3125 C 5.15625 -4.5625 5.71875 -3.957031 6.4375 -3.5 C 7.164062 -3.050781 8 -2.828125 8.9375 -2.828125 C 10 -2.828125 10.890625 -3.070312 11.609375 -3.5625 C 12.328125 -4.050781 12.78125 -4.679688 12.96875 -5.453125 L 8.234375 -5.453125 L 8.234375 -8.390625 L 16.328125 -8.390625 L 16.328125 -7.171875 C 16.328125 -5.960938 16.125 -4.890625 15.71875 -3.953125 C 15.320312 -3.023438 14.773438 -2.253906 14.078125 -1.640625 C 13.378906 -1.023438 12.585938 -0.554688 11.703125 -0.234375 C 10.816406 0.078125 9.894531 0.234375 8.9375 0.234375 C 7.726562 0.234375 6.628906 0.0234375 5.640625 -0.390625 C 4.648438 -0.804688 3.796875 -1.378906 3.078125 -2.109375 C 2.367188 -2.835938 1.820312 -3.6875 1.4375 -4.65625 C 1.050781 -5.625 0.859375 -6.671875 0.859375 -7.796875 C 0.859375 -8.929688 1.066406 -9.984375 1.484375 -10.953125 C 1.910156 -11.921875 2.5 -12.773438 3.25 -13.515625 C 4 -14.253906 4.863281 -14.828125 5.84375 -15.234375 C 6.820312 -15.640625 7.867188 -15.84375 8.984375 -15.84375 C 9.984375 -15.84375 10.875 -15.703125 11.65625 -15.421875 C 12.445312 -15.148438 13.128906 -14.796875 13.703125 -14.359375 C 14.285156 -13.921875 14.765625 -13.445312 15.140625 -12.9375 C 15.523438 -12.425781 15.804688 -11.925781 15.984375 -11.4375 L 13.125 -10.046875 C 12.976562 -10.441406 12.734375 -10.847656 12.390625 -11.265625 C 12.054688 -11.691406 11.609375 -12.050781 11.046875 -12.34375 C 10.484375 -12.644531 9.78125 -12.796875 8.9375 -12.796875 C 8.0625 -12.796875 7.257812 -12.570312 6.53125 -12.125 C 5.8125 -11.6875 5.234375 -11.09375 4.796875 -10.34375 C 4.359375 -9.59375 4.140625 -8.75 4.140625 -7.8125 Z M 4.140625 -7.8125 "/></g></g></g><g fill="#423e3e" fill-opacity="1"><g transform="translate(105.779698, 174.281853)"><g><path d="M 4.140625 -7.8125 C 4.140625 -6.90625 4.34375 -6.070312 4.75 -5.3125 C 5.15625 -4.5625 5.71875 -3.957031 6.4375 -3.5 C 7.164062 -3.050781 8 -2.828125 8.9375 -2.828125 C 10 -2.828125 10.890625 -3.070312 11.609375 -3.5625 C 12.328125 -4.050781 12.78125 -4.679688 12.96875 -5.453125 L 8.234375 -5.453125 L 8.234375 -8.390625 L 16.328125 -8.390625 L 16.328125 -7.171875 C 16.328125 -5.960938 16.125 -4.890625 15.71875 -3.953125 C 15.320312 -3.023438 14.773438 -2.253906 14.078125 -1.640625 C 13.378906 -1.023438 12.585938 -0.554688 11.703125 -0.234375 C 10.816406 0.078125 9.894531 0.234375 8.9375 0.234375 C 7.726562 0.234375 6.628906 0.0234375 5.640625 -0.390625 C 4.648438 -0.804688 3.796875 -1.378906 3.078125 -2.109375 C 2.367188 -2.835938 1.820312 -3.6875 1.4375 -4.65625 C 1.050781 -5.625 0.859375 -6.671875 0.859375 -7.796875 C 0.859375 -8.929688 1.066406 -9.984375 1.484375 -10.953125 C 1.910156 -11.921875 2.5 -12.773438 3.25 -13.515625 C 4 -14.253906 4.863281 -14.828125 5.84375 -15.234375 C 6.820312 -15.640625 7.867188 -15.84375 8.984375 -15.84375 C 9.984375 -15.84375 10.875 -15.703125 11.65625 -15.421875 C 12.445312 -15.148438 13.128906 -14.796875 13.703125 -14.359375 C 14.285156 -13.921875 14.765625 -13.445312 15.140625 -12.9375 C 15.523438 -12.425781 15.804688 -11.925781 15.984375 -11.4375 L 13.125 -10.046875 C 12.976562 -10.441406 12.734375 -10.847656 12.390625 -11.265625 C 12.054688 -11.691406 11.609375 -12.050781 11.046875 -12.34375 C 10.484375 -12.644531 9.78125 -12.796875 8.9375 -12.796875 C 8.0625 -12.796875 7.257812 -12.570312 6.53125 -12.125 C 5.8125 -11.6875 5.234375 -11.09375 4.796875 -10.34375 C 4.359375 -9.59375 4.140625 -8.75 4.140625 -7.8125 Z M 4.140625 -7.8125 "/></g></g></g><g fill="#423e3e" fill-opacity="1"><g transform="translate(122.850857, 174.281853)"><g><path d="M 1.8125 -15.59375 L 5.015625 -15.59375 L 5.015625 -3.0625 L 11.6875 -3.0625 L 11.6875 0 L 1.8125 0 Z M 1.8125 -15.59375 "/></g></g></g><g fill="#423e3e" fill-opacity="1"><g transform="translate(134.882339, 174.281853)"><g><path d="M 1.8125 -15.59375 L 12.03125 -15.59375 L 12.03125 -12.578125 L 5 -12.578125 L 5 -9.40625 L 11.296875 -9.40625 L 11.296875 -6.375 L 5 -6.375 L 5 -3.015625 L 12.078125 -3.015625 L 12.078125 0 L 1.8125 0 Z M 1.8125 -15.59375 "/></g></g></g></svg>