<svg xmlns="http://www.w3.org/2000/svg" xmlns:xlink="http://www.w3.org/1999/xlink" width="275" zoomAndPan="magnify" viewBox="0 0 206.25 187.499992" height="250" preserveAspectRatio="xMidYMid meet" version="1.0"><defs><g/><clipPath id="2f5423dc87"><path d="M 6.664062 12.585938 L 198.839844 12.585938 L 198.839844 151.675781 L 6.664062 151.675781 Z M 6.664062 12.585938 " clip-rule="nonzero"/></clipPath><clipPath id="13df697cdd"><path d="M 71.988281 155.351562 L 133.515625 155.351562 L 133.515625 179.699219 L 71.988281 179.699219 Z M 71.988281 155.351562 " clip-rule="nonzero"/></clipPath><clipPath id="ccd37187f8"><path d="M 43.722656 28.699219 L 99.800781 28.699219 L 99.800781 48.628906 L 43.722656 48.628906 Z M 43.722656 28.699219 " clip-rule="nonzero"/></clipPath><clipPath id="b575b5cbae"><path d="M 77.125 53.492188 L 147.453125 53.492188 L 147.453125 70.9375 L 77.125 70.9375 Z M 77.125 53.492188 " clip-rule="nonzero"/></clipPath><clipPath id="c99d16d4f0"><path d="M 99.800781 77.644531 L 161.777344 77.644531 L 161.777344 93.234375 L 99.800781 93.234375 Z M 99.800781 77.644531 " clip-rule="nonzero"/></clipPath><clipPath id="3f3dc776ba"><path d="M 99.800781 99.605469 L 147.453125 99.605469 L 147.453125 115.195312 L 99.800781 115.195312 Z M 99.800781 99.605469 " clip-rule="nonzero"/></clipPath><clipPath id="d081c22fd9"><path d="M 71.761719 119.972656 L 119.414062 119.972656 L 119.414062 135.5625 L 71.761719 135.5625 Z M 71.761719 119.972656 " clip-rule="nonzero"/></clipPath></defs><g clip-path="url(#2f5423dc87)"><path fill="#ececec" d="M 6.664062 12.585938 L 198.839844 12.585938 L 198.839844 151.675781 L 6.664062 151.675781 Z M 6.664062 12.585938 " fill-opacity="1" fill-rule="nonzero"/></g><g clip-path="url(#13df697cdd)"><path fill="#ffffff" d="M 71.988281 155.351562 L 133.515625 155.351562 L 133.515625 179.699219 L 71.988281 179.699219 Z M 71.988281 155.351562 " fill-opacity="1" fill-rule="nonzero"/></g><g fill="#423e3e" fill-opacity="1"><g transform="translate(75.551436, 174.281853)"><g><path d="M 5.101562 0 L 8.308594 0 L 8.308594 -12.472656 L 12.988281 -12.472656 L 12.988281 -15.597656 L 0.417969 -15.597656 L 0.417969 -12.472656 L 5.101562 -12.472656 Z M 5.101562 0 "/></g></g></g><g fill="#423e3e" fill-opacity="1"><g transform="translate(88.957379, 174.281853)"><g><path d="M 13.804688 0 L 10.28125 -6.097656 C 12.390625 -6.851562 13.488281 -8.425781 13.488281 -10.660156 C 13.488281 -13.964844 10.996094 -15.597656 7.96875 -15.597656 L 1.8125 -15.597656 L 1.8125 0 L 5.039062 0 L 5.039062 -5.597656 L 6.992188 -5.597656 L 10.21875 0 Z M 7.730469 -8.585938 L 5.039062 -8.585938 L 5.039062 -12.550781 L 7.710938 -12.550781 C 8.925781 -12.550781 10.21875 -12.09375 10.21875 -10.597656 C 10.21875 -9.125 8.925781 -8.585938 7.730469 -8.585938 Z M 7.730469 -8.585938 "/></g></g></g><g fill="#423e3e" fill-opacity="1"><g transform="translate(103.518659, 174.281853)"><g><path d="M 1.8125 -15.597656 L 1.8125 0 L 12.074219 0 L 12.074219 -3.007812 L 5 -3.007812 L 5 -6.375 L 11.296875 -6.375 L 11.296875 -9.402344 L 5 -9.402344 L 5 -12.570312 L 12.035156 -12.570312 L 12.035156 -15.597656 Z M 1.8125 -15.597656 "/></g></g></g><g fill="#423e3e" fill-opacity="1"><g transform="translate(116.72541, 174.281853)"><g><path d="M 1.8125 -15.597656 L 1.8125 0 L 12.074219 0 L 12.074219 -3.007812 L 5 -3.007812 L 5 -6.375 L 11.296875 -6.375 L 11.296875 -9.402344 L 5 -9.402344 L 5 -12.570312 L 12.035156 -12.570312 L 12.035156 -15.597656 Z M 1.8125 -15.597656 "/></g></g></g><path stroke-linecap="butt" transform="matrix(0.00000000138961, 0.796187, -0.796187, 0.00000000138961, 53.274227, 47.659641)" fill="none" stroke-linejoin="miter" d="M 0.000647267 1.997814 L 100.621853 1.997814 " stroke="#7b7b7b" stroke-width="4" stroke-opacity="1" stroke-miterlimit="4"/><path stroke-linecap="butt" transform="matrix(-0.796187, -0.00000000138961, 0.00000000138961, -0.796187, 83.93145, 63.807545)" fill="none" stroke-linejoin="miter" d="M 0.0022142 2.000411 L 41.513552 2.000411 " stroke="#7b7b7b" stroke-width="4" stroke-opacity="1" stroke-miterlimit="4"/><path stroke-linecap="butt" transform="matrix(-0.796187, -0.00000000138961, 0.00000000138961, -0.796187, 117.780893, 110.158484)" fill="none" stroke-linejoin="miter" d="M -0.000448486 1.999628 L 41.515795 1.999628 " stroke="#625e5e" stroke-width="4" stroke-opacity="1" stroke-miterlimit="4"/><path stroke-linecap="butt" transform="matrix(-0.796187, -0.00000000138961, 0.00000000138961, -0.796187, 118.57707, 86.237297)" fill="none" stroke-linejoin="miter" d="M -0.00132444 2.000492 L 41.514919 2.000492 " stroke="#625e5e" stroke-width="4" stroke-opacity="1" stroke-miterlimit="4"/><path stroke-linecap="butt" transform="matrix(0, 0.796187, -0.796187, 0, 87.123217, 55.951094)" fill="none" stroke-linejoin="miter" d="M -0.00235506 1.99949 L 68.090761 1.99949 " stroke="#625e5e" stroke-width="4" stroke-opacity="1" stroke-miterlimit="4"/><path stroke-linecap="butt" transform="matrix(-0.796187, 0, 0, -0.796187, 74.2528, 128.563731)" fill="none" stroke-linejoin="miter" d="M -0.00139004 1.998369 L 29.35239 1.998369 " stroke="#7b7b7b" stroke-width="4" stroke-opacity="1" stroke-miterlimit="4"/><g clip-path="url(#ccd37187f8)"><path fill="#8f8f8f" d="M 43.722656 28.699219 L 99.800781 28.699219 L 99.800781 48.628906 L 43.722656 48.628906 Z M 43.722656 28.699219 " fill-opacity="1" fill-rule="nonzero"/></g><g clip-path="url(#b575b5cbae)"><path fill="#625e5e" d="M 77.125 53.492188 L 147.453125 53.492188 L 147.453125 70.9375 L 77.125 70.9375 Z M 77.125 53.492188 " fill-opacity="1" fill-rule="nonzero"/></g><g clip-path="url(#c99d16d4f0)"><path fill="#3c3b3d" d="M 99.800781 77.644531 L 161.777344 77.644531 L 161.777344 93.234375 L 99.800781 93.234375 Z M 99.800781 77.644531 " fill-opacity="1" fill-rule="nonzero"/></g><g clip-path="url(#3f3dc776ba)"><path fill="#3c3b3d" d="M 99.800781 99.605469 L 147.453125 99.605469 L 147.453125 115.195312 L 99.800781 115.195312 Z M 99.800781 99.605469 " fill-opacity="1" fill-rule="nonzero"/></g><g clip-path="url(#d081c22fd9)"><path fill="#625e5e" d="M 71.761719 119.972656 L 119.414062 119.972656 L 119.414062 135.5625 L 71.761719 135.5625 Z M 71.761719 119.972656 " fill-opacity="1" fill-rule="nonzero"/></g></svg>