<svg xmlns="http://www.w3.org/2000/svg" xmlns:xlink="http://www.w3.org/1999/xlink" width="300" zoomAndPan="magnify" viewBox="0 0 224.87999 168.749997" height="225" preserveAspectRatio="xMidYMid meet" version="1.0"><defs><g/><clipPath id="51559ec429"><path d="M 5.984375 6.058594 L 219.1875 6.058594 L 219.1875 162.441406 L 5.984375 162.441406 Z M 5.984375 6.058594 " clip-rule="nonzero"/></clipPath><clipPath id="18711f3b2c"><path d="M 61.472656 23.621094 L 109.894531 23.621094 L 109.894531 40.832031 L 61.472656 40.832031 Z M 61.472656 23.621094 " clip-rule="nonzero"/></clipPath><clipPath id="beea3bec78"><path d="M 90.3125 45.027344 L 151.039062 45.027344 L 151.039062 60.09375 L 90.3125 60.09375 Z M 90.3125 45.027344 " clip-rule="nonzero"/></clipPath><clipPath id="2785567344"><path d="M 109.894531 65.882812 L 163.40625 65.882812 L 163.40625 79.34375 L 109.894531 79.34375 Z M 109.894531 65.882812 " clip-rule="nonzero"/></clipPath><clipPath id="83988f7f1b"><path d="M 109.894531 84.84375 L 151.039062 84.84375 L 151.039062 98.308594 L 109.894531 98.308594 Z M 109.894531 84.84375 " clip-rule="nonzero"/></clipPath><clipPath id="616eab820e"><path d="M 85.683594 102.429688 L 126.828125 102.429688 L 126.828125 115.894531 L 85.683594 115.894531 Z M 85.683594 102.429688 " clip-rule="nonzero"/></clipPath></defs><g clip-path="url(#51559ec429)"><path fill="#ececec" d="M 5.984375 6.058594 L 219.179688 6.058594 L 219.179688 162.441406 L 5.984375 162.441406 Z M 5.984375 6.058594 " fill-opacity="1" fill-rule="nonzero"/></g><g fill="#423e3e" fill-opacity="1"><g transform="translate(86.546729, 145.878573)"><g><path d="M 4.859375 0 L 4.859375 -11.875 L 0.390625 -11.875 L 0.390625 -14.859375 L 12.375 -14.859375 L 12.375 -11.875 L 7.90625 -11.875 L 7.90625 0 Z M 4.859375 0 "/></g></g></g><g fill="#423e3e" fill-opacity="1"><g transform="translate(99.312206, 145.878573)"><g><path d="M 13.140625 0 L 9.734375 0 L 6.65625 -5.328125 L 4.796875 -5.328125 L 4.796875 0 L 1.71875 0 L 1.71875 -14.859375 L 7.59375 -14.859375 C 8.550781 -14.859375 9.425781 -14.679688 10.21875 -14.328125 C 11.019531 -13.984375 11.65625 -13.460938 12.125 -12.765625 C 12.601562 -12.066406 12.84375 -11.191406 12.84375 -10.140625 C 12.84375 -7.984375 11.820312 -6.535156 9.78125 -5.796875 Z M 7.359375 -8.171875 C 7.734375 -8.171875 8.101562 -8.234375 8.46875 -8.359375 C 8.84375 -8.492188 9.144531 -8.695312 9.375 -8.96875 C 9.613281 -9.25 9.734375 -9.625 9.734375 -10.09375 C 9.734375 -10.570312 9.613281 -10.941406 9.375 -11.203125 C 9.132812 -11.472656 8.832031 -11.664062 8.46875 -11.78125 C 8.101562 -11.894531 7.726562 -11.953125 7.34375 -11.953125 L 4.796875 -11.953125 L 4.796875 -8.171875 Z M 7.359375 -8.171875 "/></g></g></g><g fill="#423e3e" fill-opacity="1"><g transform="translate(113.177821, 145.878573)"><g><path d="M 1.71875 -14.859375 L 11.453125 -14.859375 L 11.453125 -11.96875 L 4.765625 -11.96875 L 4.765625 -8.953125 L 10.75 -8.953125 L 10.75 -6.0625 L 4.765625 -6.0625 L 4.765625 -2.859375 L 11.5 -2.859375 L 11.5 0 L 1.71875 0 Z M 1.71875 -14.859375 "/></g></g></g><g fill="#423e3e" fill-opacity="1"><g transform="translate(125.753619, 145.878573)"><g><path d="M 1.71875 -14.859375 L 11.453125 -14.859375 L 11.453125 -11.96875 L 4.765625 -11.96875 L 4.765625 -8.953125 L 10.75 -8.953125 L 10.75 -6.0625 L 4.765625 -6.0625 L 4.765625 -2.859375 L 11.5 -2.859375 L 11.5 0 L 1.71875 0 Z M 1.71875 -14.859375 "/></g></g></g><path stroke-linecap="butt" transform="matrix(0.00000000119987, 0.687473, -0.687473, 0.00000000119987, 69.718618, 39.992401)" fill="none" stroke-linejoin="miter" d="M -0.000310856 1.999887 L 100.617273 1.999887 " stroke="#7b7b7b" stroke-width="4" stroke-opacity="1" stroke-miterlimit="4"/><path stroke-linecap="butt" transform="matrix(-0.687473, -0.00000000119987, 0.00000000119987, -0.687473, 96.189812, 53.935421)" fill="none" stroke-linejoin="miter" d="M -0.0023189 2.002737 L 41.516355 2.002737 " stroke="#7b7b7b" stroke-width="4" stroke-opacity="1" stroke-miterlimit="4"/><path stroke-linecap="butt" transform="matrix(-0.687473, -0.00000000119987, 0.00000000119987, -0.687473, 125.417357, 93.957461)" fill="none" stroke-linejoin="miter" d="M -0.000890449 2.000704 L 41.512102 2.000704 " stroke="#625e5e" stroke-width="4" stroke-opacity="1" stroke-miterlimit="4"/><path stroke-linecap="butt" transform="matrix(-0.687473, -0.00000000119987, 0.00000000119987, -0.687473, 126.104814, 73.302549)" fill="none" stroke-linejoin="miter" d="M -0.000952266 2.002649 L 41.51204 2.002649 " stroke="#625e5e" stroke-width="4" stroke-opacity="1" stroke-miterlimit="4"/><path stroke-linecap="butt" transform="matrix(0, 0.687473, -0.687473, 0, 98.945767, 47.151717)" fill="none" stroke-linejoin="miter" d="M 0.000911548 2.00074 L 68.08881 2.00074 " stroke="#625e5e" stroke-width="4" stroke-opacity="1" stroke-miterlimit="4"/><path stroke-linecap="butt" transform="matrix(-0.687473, 0, 0, -0.687473, 87.832721, 109.849598)" fill="none" stroke-linejoin="miter" d="M 0.00100398 1.997221 L 29.354428 1.997221 " stroke="#7b7b7b" stroke-width="4" stroke-opacity="1" stroke-miterlimit="4"/><g clip-path="url(#18711f3b2c)"><path fill="#8f8f8f" d="M 61.472656 23.621094 L 109.875 23.621094 L 109.875 40.832031 L 61.472656 40.832031 Z M 61.472656 23.621094 " fill-opacity="1" fill-rule="nonzero"/></g><g clip-path="url(#beea3bec78)"><path fill="#625e5e" d="M 90.3125 45.027344 L 151.039062 45.027344 L 151.039062 60.09375 L 90.3125 60.09375 Z M 90.3125 45.027344 " fill-opacity="1" fill-rule="nonzero"/></g><g clip-path="url(#2785567344)"><path fill="#3c3b3d" d="M 109.894531 65.882812 L 163.421875 65.882812 L 163.421875 79.34375 L 109.894531 79.34375 Z M 109.894531 65.882812 " fill-opacity="1" fill-rule="nonzero"/></g><g clip-path="url(#83988f7f1b)"><path fill="#3c3b3d" d="M 109.894531 84.84375 L 151.011719 84.84375 L 151.011719 98.308594 L 109.894531 98.308594 Z M 109.894531 84.84375 " fill-opacity="1" fill-rule="nonzero"/></g><g clip-path="url(#616eab820e)"><path fill="#625e5e" d="M 85.683594 102.429688 L 126.800781 102.429688 L 126.800781 115.894531 L 85.683594 115.894531 Z M 85.683594 102.429688 " fill-opacity="1" fill-rule="nonzero"/></g></svg>