<svg xmlns="http://www.w3.org/2000/svg" xmlns:xlink="http://www.w3.org/1999/xlink" width="275" zoomAndPan="magnify" viewBox="0 0 206.25 187.499992" height="250" preserveAspectRatio="xMidYMid meet" version="1.0"><defs><g/><clipPath id="53e0196f92"><path d="M 6.664062 6.203125 L 198.839844 6.203125 L 198.839844 145.292969 L 6.664062 145.292969 Z M 6.664062 6.203125 " clip-rule="nonzero"/></clipPath><clipPath id="ed82ec488f"><path d="M 91.351562 17.277344 L 107.289062 17.277344 L 107.289062 35 L 91.351562 35 Z M 91.351562 17.277344 " clip-rule="nonzero"/></clipPath><clipPath id="571c896f0b"><path d="M 99.320312 17.277344 C 94.921875 17.277344 91.351562 21.246094 91.351562 26.140625 C 91.351562 31.03125 94.921875 35 99.320312 35 C 103.722656 35 107.289062 31.03125 107.289062 26.140625 C 107.289062 21.246094 103.722656 17.277344 99.320312 17.277344 Z M 99.320312 17.277344 " clip-rule="nonzero"/></clipPath><clipPath id="6117d84ba0"><path d="M 37.234375 24.34375 L 161.410156 24.34375 L 161.410156 127.152344 L 37.234375 127.152344 Z M 37.234375 24.34375 " clip-rule="nonzero"/></clipPath><clipPath id="0248c63c61"><path d="M 37.234375 24.347656 L 161.28125 24.347656 L 161.28125 127.140625 L 37.234375 127.140625 Z M 37.234375 24.347656 " clip-rule="nonzero"/></clipPath><clipPath id="702536e31d"><path d="M 6.664062 151.675781 L 198.839844 151.675781 L 198.839844 179.699219 L 6.664062 179.699219 Z M 6.664062 151.675781 " clip-rule="nonzero"/></clipPath><clipPath id="ffe9e0c283"><path d="M 90.667969 89.375 L 107.976562 89.375 L 107.976562 106.683594 L 90.667969 106.683594 Z M 90.667969 89.375 " clip-rule="nonzero"/></clipPath><clipPath id="6101e73039"><path d="M 113.425781 89.375 L 130.738281 89.375 L 130.738281 106.683594 L 113.425781 106.683594 Z M 113.425781 89.375 " clip-rule="nonzero"/></clipPath><clipPath id="a136ed329d"><path d="M 67.90625 89.375 L 85.214844 89.375 L 85.214844 106.683594 L 67.90625 106.683594 Z M 67.90625 89.375 " clip-rule="nonzero"/></clipPath></defs><g clip-path="url(#53e0196f92)"><path fill="#ececec" d="M 6.664062 6.203125 L 198.839844 6.203125 L 198.839844 145.292969 L 6.664062 145.292969 Z M 6.664062 6.203125 " fill-opacity="1" fill-rule="nonzero"/></g><g clip-path="url(#ed82ec488f)"><g clip-path="url(#571c896f0b)"><path fill="#333333" d="M 91.351562 17.277344 L 107.289062 17.277344 L 107.289062 35 L 91.351562 35 Z M 91.351562 17.277344 " fill-opacity="1" fill-rule="nonzero"/></g></g><g clip-path="url(#6117d84ba0)"><path fill="#7b7b7b" d="M 37.234375 24.34375 L 161.410156 24.34375 L 161.410156 127.152344 L 37.234375 127.152344 Z M 37.234375 24.34375 " fill-opacity="1" fill-rule="nonzero"/></g><g clip-path="url(#0248c63c61)"><path stroke-linecap="butt" transform="matrix(0.747283, 0, 0, 0.747283, 37.232986, 24.346086)" fill="none" stroke-linejoin="miter" d="M 0.00185883 0.00210165 L 166.155957 0.00210165 L 166.155957 137.557789 L 0.00185883 137.557789 Z M 0.00185883 0.00210165 " stroke="#000000" stroke-width="8" stroke-opacity="1" stroke-miterlimit="4"/></g><g clip-path="url(#702536e31d)"><path fill="#ffffff" d="M 6.664062 151.675781 L 198.839844 151.675781 L 198.839844 179.699219 L 6.664062 179.699219 Z M 6.664062 151.675781 " fill-opacity="1" fill-rule="nonzero"/></g><path stroke-linecap="butt" transform="matrix(0.384286, -0.474516, 0.474516, 0.384286, 71.57947, 73.250803)" fill="none" stroke-linejoin="miter" d="M 0.00259282 2.999775 L 47.557308 2.997306 " stroke="#423e3e" stroke-width="6" stroke-opacity="1" stroke-miterlimit="4"/><path stroke-linecap="butt" transform="matrix(0.446016, 0.417026, -0.417026, 0.446016, 91.031228, 50.5652)" fill="none" stroke-linejoin="miter" d="M 0.000304134 2.997689 L 53.969943 3.000107 " stroke="#423e3e" stroke-width="6" stroke-opacity="1" stroke-miterlimit="4"/><path stroke-linecap="butt" transform="matrix(0.412551, -0.450158, 0.450158, 0.412551, 111.389788, 72.20625)" fill="none" stroke-linejoin="miter" d="M 0.000430508 3.003884 L 50.178652 2.999713 " stroke="#423e3e" stroke-width="6" stroke-opacity="1" stroke-miterlimit="4"/><g clip-path="url(#ffe9e0c283)"><path fill="#333333" d="M 90.667969 89.375 L 107.976562 89.375 L 107.976562 106.683594 L 90.667969 106.683594 Z M 90.667969 89.375 " fill-opacity="1" fill-rule="nonzero"/></g><g clip-path="url(#6101e73039)"><path fill="#333333" d="M 113.425781 89.375 L 130.738281 89.375 L 130.738281 106.683594 L 113.425781 106.683594 Z M 113.425781 89.375 " fill-opacity="1" fill-rule="nonzero"/></g><g clip-path="url(#a136ed329d)"><path fill="#333333" d="M 67.90625 89.375 L 85.214844 89.375 L 85.214844 106.683594 L 67.90625 106.683594 Z M 67.90625 89.375 " fill-opacity="1" fill-rule="nonzero"/></g><g fill="#423e3e" fill-opacity="1"><g transform="translate(10.444442, 170.74471)"><g><path d="M 4.589844 0 L 7.480469 0 L 7.480469 -11.226562 L 11.695312 -11.226562 L 11.695312 -14.042969 L 0.375 -14.042969 L 0.375 -11.226562 L 4.589844 -11.226562 Z M 4.589844 0 "/></g></g></g><g fill="#423e3e" fill-opacity="1"><g transform="translate(22.51451, 170.74471)"><g><path d="M 12.429688 0 L 9.253906 -5.488281 C 11.15625 -6.167969 12.140625 -7.585938 12.140625 -9.59375 C 12.140625 -12.574219 9.898438 -14.042969 7.175781 -14.042969 L 1.632812 -14.042969 L 1.632812 0 L 4.539062 0 L 4.539062 -5.039062 L 6.296875 -5.039062 L 9.199219 0 Z M 6.957031 -7.730469 L 4.539062 -7.730469 L 4.539062 -11.300781 L 6.941406 -11.300781 C 8.035156 -11.300781 9.199219 -10.886719 9.199219 -9.542969 C 9.199219 -8.214844 8.035156 -7.730469 6.957031 -7.730469 Z M 6.957031 -7.730469 "/></g></g></g><g fill="#423e3e" fill-opacity="1"><g transform="translate(35.624795, 170.74471)"><g><path d="M 1.632812 -14.042969 L 1.632812 0 L 10.867188 0 L 10.867188 -2.707031 L 4.5 -2.707031 L 4.5 -5.738281 L 10.167969 -5.738281 L 10.167969 -8.464844 L 4.5 -8.464844 L 4.5 -11.316406 L 10.832031 -11.316406 L 10.832031 -14.042969 Z M 1.632812 -14.042969 "/></g></g></g><g fill="#423e3e" fill-opacity="1"><g transform="translate(47.515523, 170.74471)"><g><path d="M 4.5 -9.683594 L 10.957031 0 L 13.917969 0 L 13.917969 -14.042969 L 11.046875 -14.042969 L 11.046875 -4.878906 L 4.949219 -14.042969 L 1.632812 -14.042969 L 1.632812 0 L 4.5 0 Z M 4.5 -9.683594 "/></g></g></g><g fill="#423e3e" fill-opacity="1"><g transform="translate(63.082869, 170.74471)"><g><path d="M 13.863281 -7.046875 C 13.863281 -11.460938 10.832031 -14.042969 5.9375 -14.042969 L 1.632812 -14.042969 L 1.632812 0 L 5.882812 0 C 10.851562 0 13.863281 -2.871094 13.863281 -7.046875 Z M 10.886719 -7.046875 C 10.886719 -4.285156 8.878906 -2.742188 5.972656 -2.742188 L 4.539062 -2.742188 L 4.539062 -11.300781 L 6.007812 -11.300781 C 8.769531 -11.300781 10.886719 -9.808594 10.886719 -7.046875 Z M 10.886719 -7.046875 "/></g></g></g><g fill="#423e3e" fill-opacity="1"><g transform="translate(77.753478, 170.74471)"><g/></g></g><g fill="#423e3e" fill-opacity="1"><g transform="translate(82.255098, 170.74471)"><g><path d="M 3.800781 -10.203125 C 3.800781 -11.03125 4.5 -11.640625 5.667969 -11.640625 C 6.867188 -11.640625 7.855469 -11.046875 8.320312 -9.917969 L 10.726562 -11.226562 C 9.917969 -13.144531 8.140625 -14.257812 5.792969 -14.257812 C 3.136719 -14.257812 0.898438 -12.535156 0.898438 -10.027344 C 0.898438 -8.949219 1.328125 -8.050781 1.972656 -7.425781 C 2.726562 -6.671875 3.890625 -6.167969 5.398438 -5.722656 C 7.441406 -5.113281 8.050781 -4.734375 8.050781 -3.910156 C 8.050781 -3.050781 7.175781 -2.421875 5.917969 -2.421875 C 4.5 -2.421875 3.390625 -3.15625 2.851562 -4.375 L 0.339844 -3.085938 C 1.164062 -1.074219 3.175781 0.214844 5.828125 0.214844 C 9.148438 0.214844 10.976562 -1.648438 10.976562 -4.125 C 10.976562 -6.492188 9.183594 -7.585938 6.0625 -8.484375 C 4.554688 -8.914062 3.800781 -9.324219 3.800781 -10.203125 Z M 3.800781 -10.203125 "/></g></g></g><g fill="#423e3e" fill-opacity="1"><g transform="translate(93.948538, 170.74471)"><g><path d="M 4.589844 0 L 7.480469 0 L 7.480469 -11.226562 L 11.695312 -11.226562 L 11.695312 -14.042969 L 0.375 -14.042969 L 0.375 -11.226562 L 4.589844 -11.226562 Z M 4.589844 0 "/></g></g></g><g fill="#423e3e" fill-opacity="1"><g transform="translate(106.018606, 170.74471)"><g><path d="M 2.90625 0 L 3.945312 -2.832031 L 10.167969 -2.832031 L 11.226562 0 L 14.222656 0 L 8.84375 -14.042969 L 5.34375 -14.042969 L -0.0195312 0 Z M 7.066406 -11.226562 L 9.183594 -5.523438 L 4.949219 -5.523438 Z M 7.066406 -11.226562 "/></g></g></g><g fill="#423e3e" fill-opacity="1"><g transform="translate(120.222916, 170.74471)"><g><path d="M 4.589844 0 L 7.480469 0 L 7.480469 -11.226562 L 11.695312 -11.226562 L 11.695312 -14.042969 L 0.375 -14.042969 L 0.375 -11.226562 L 4.589844 -11.226562 Z M 4.589844 0 "/></g></g></g><g fill="#423e3e" fill-opacity="1"><g transform="translate(132.292985, 170.74471)"><g><path d="M 4.539062 -14.042969 L 1.632812 -14.042969 L 1.632812 0 L 4.539062 0 Z M 4.539062 -14.042969 "/></g></g></g><g fill="#423e3e" fill-opacity="1"><g transform="translate(138.480461, 170.74471)"><g><path d="M 3.800781 -10.203125 C 3.800781 -11.03125 4.5 -11.640625 5.667969 -11.640625 C 6.867188 -11.640625 7.855469 -11.046875 8.320312 -9.917969 L 10.726562 -11.226562 C 9.917969 -13.144531 8.140625 -14.257812 5.792969 -14.257812 C 3.136719 -14.257812 0.898438 -12.535156 0.898438 -10.027344 C 0.898438 -8.949219 1.328125 -8.050781 1.972656 -7.425781 C 2.726562 -6.671875 3.890625 -6.167969 5.398438 -5.722656 C 7.441406 -5.113281 8.050781 -4.734375 8.050781 -3.910156 C 8.050781 -3.050781 7.175781 -2.421875 5.917969 -2.421875 C 4.5 -2.421875 3.390625 -3.15625 2.851562 -4.375 L 0.339844 -3.085938 C 1.164062 -1.074219 3.175781 0.214844 5.828125 0.214844 C 9.148438 0.214844 10.976562 -1.648438 10.976562 -4.125 C 10.976562 -6.492188 9.183594 -7.585938 6.0625 -8.484375 C 4.554688 -8.914062 3.800781 -9.324219 3.800781 -10.203125 Z M 3.800781 -10.203125 "/></g></g></g><g fill="#423e3e" fill-opacity="1"><g transform="translate(150.173901, 170.74471)"><g><path d="M 4.589844 0 L 7.480469 0 L 7.480469 -11.226562 L 11.695312 -11.226562 L 11.695312 -14.042969 L 0.375 -14.042969 L 0.375 -11.226562 L 4.589844 -11.226562 Z M 4.589844 0 "/></g></g></g><g fill="#423e3e" fill-opacity="1"><g transform="translate(162.243969, 170.74471)"><g><path d="M 4.539062 -14.042969 L 1.632812 -14.042969 L 1.632812 0 L 4.539062 0 Z M 4.539062 -14.042969 "/></g></g></g><g fill="#423e3e" fill-opacity="1"><g transform="translate(168.431445, 170.74471)"><g><path d="M 0.769531 -7.011719 C 0.769531 -2.921875 3.910156 0.199219 8 0.199219 C 10.761719 0.199219 13.503906 -1.328125 14.472656 -3.980469 L 11.800781 -5.21875 C 11.191406 -3.695312 9.792969 -2.617188 8.035156 -2.617188 C 5.542969 -2.617188 3.785156 -4.609375 3.785156 -7.046875 C 3.785156 -9.453125 5.59375 -11.425781 8.035156 -11.425781 C 9.792969 -11.425781 11.171875 -10.4375 11.765625 -8.894531 L 14.417969 -10.113281 C 13.46875 -12.75 10.816406 -14.257812 8.050781 -14.257812 C 4.035156 -14.257812 0.769531 -11.066406 0.769531 -7.011719 Z M 0.769531 -7.011719 "/></g></g></g><g fill="#423e3e" fill-opacity="1"><g transform="translate(183.35314, 170.74471)"><g><path d="M 3.800781 -10.203125 C 3.800781 -11.03125 4.5 -11.640625 5.667969 -11.640625 C 6.867188 -11.640625 7.855469 -11.046875 8.320312 -9.917969 L 10.726562 -11.226562 C 9.917969 -13.144531 8.140625 -14.257812 5.792969 -14.257812 C 3.136719 -14.257812 0.898438 -12.535156 0.898438 -10.027344 C 0.898438 -8.949219 1.328125 -8.050781 1.972656 -7.425781 C 2.726562 -6.671875 3.890625 -6.167969 5.398438 -5.722656 C 7.441406 -5.113281 8.050781 -4.734375 8.050781 -3.910156 C 8.050781 -3.050781 7.175781 -2.421875 5.917969 -2.421875 C 4.5 -2.421875 3.390625 -3.15625 2.851562 -4.375 L 0.339844 -3.085938 C 1.164062 -1.074219 3.175781 0.214844 5.828125 0.214844 C 9.148438 0.214844 10.976562 -1.648438 10.976562 -4.125 C 10.976562 -6.492188 9.183594 -7.585938 6.0625 -8.484375 C 4.554688 -8.914062 3.800781 -9.324219 3.800781 -10.203125 Z M 3.800781 -10.203125 "/></g></g></g></svg>