<svg xmlns="http://www.w3.org/2000/svg" xmlns:xlink="http://www.w3.org/1999/xlink" width="275" zoomAndPan="magnify" viewBox="0 0 206.25 187.499992" height="250" preserveAspectRatio="xMidYMid meet" version="1.0"><defs><g/><clipPath id="3b8f8d9675"><path d="M 6.664062 6.203125 L 198.839844 6.203125 L 198.839844 136.34375 L 6.664062 136.34375 Z M 6.664062 6.203125 " clip-rule="nonzero"/></clipPath><clipPath id="3ca74f52cc"><path d="M 94.78125 16.335938 L 110.71875 16.335938 L 110.71875 34.082031 L 94.78125 34.082031 Z M 94.78125 16.335938 " clip-rule="nonzero"/></clipPath><clipPath id="20a651e4c3"><path d="M 102.75 16.335938 C 98.351562 16.335938 94.78125 20.304688 94.78125 25.195312 C 94.78125 30.089844 98.351562 34.058594 102.75 34.058594 C 107.152344 34.058594 110.71875 30.089844 110.71875 25.195312 C 110.71875 20.304688 107.152344 16.335938 102.75 16.335938 Z M 102.75 16.335938 " clip-rule="nonzero"/></clipPath><clipPath id="59b7df94ac"><path d="M 40.664062 23.402344 L 164.839844 23.402344 L 164.839844 126.210938 L 40.664062 126.210938 Z M 40.664062 23.402344 " clip-rule="nonzero"/></clipPath><clipPath id="b2156ce127"><path d="M 40.664062 23.402344 L 164.617188 23.402344 L 164.617188 125.984375 L 40.664062 125.984375 Z M 40.664062 23.402344 " clip-rule="nonzero"/></clipPath><clipPath id="2f6cb0857f"><path d="M 94.097656 88.433594 L 111.40625 88.433594 L 111.40625 105.742188 L 94.097656 105.742188 Z M 94.097656 88.433594 " clip-rule="nonzero"/></clipPath><clipPath id="88040c5ceb"><path d="M 116.855469 88.433594 L 134.167969 88.433594 L 134.167969 105.742188 L 116.855469 105.742188 Z M 116.855469 88.433594 " clip-rule="nonzero"/></clipPath><clipPath id="c44ecaebe1"><path d="M 71.335938 88.433594 L 88.644531 88.433594 L 88.644531 105.742188 L 71.335938 105.742188 Z M 71.335938 88.433594 " clip-rule="nonzero"/></clipPath><clipPath id="3136aafbcb"><path d="M 13.058594 152.5625 L 192.445312 152.5625 L 192.445312 173.632812 L 13.058594 173.632812 Z M 13.058594 152.5625 " clip-rule="nonzero"/></clipPath></defs><g clip-path="url(#3b8f8d9675)"><path fill="#ececec" d="M 6.664062 6.203125 L 198.824219 6.203125 L 198.824219 136.34375 L 6.664062 136.34375 Z M 6.664062 6.203125 " fill-opacity="1" fill-rule="nonzero"/></g><g clip-path="url(#3ca74f52cc)"><g clip-path="url(#20a651e4c3)"><path fill="#333333" d="M 94.78125 16.335938 L 110.71875 16.335938 L 110.71875 34.082031 L 94.78125 34.082031 Z M 94.78125 16.335938 " fill-opacity="1" fill-rule="nonzero"/></g></g><g clip-path="url(#59b7df94ac)"><path fill="#7b7b7b" d="M 40.664062 23.402344 L 164.753906 23.402344 L 164.753906 126.210938 L 40.664062 126.210938 Z M 40.664062 23.402344 " fill-opacity="1" fill-rule="nonzero"/></g><g clip-path="url(#b2156ce127)"><path stroke-linecap="butt" transform="matrix(0.610607, 0, 0, 0.610607, 40.663141, 23.403256)" fill="none" stroke-linejoin="miter" d="M 0.00150894 -0.00149425 L 203.359631 -0.00149425 L 203.359631 168.35687 L 0.00150894 168.35687 Z M 0.00150894 -0.00149425 " stroke="#000000" stroke-width="9.790687" stroke-opacity="1" stroke-miterlimit="4"/></g><path stroke-linecap="butt" transform="matrix(0.384286, -0.474516, 0.474516, 0.384286, 75.009241, 72.308868)" fill="none" stroke-linejoin="miter" d="M 0.00183397 3.000213 L 47.55655 2.997744 " stroke="#423e3e" stroke-width="6" stroke-opacity="1" stroke-miterlimit="4"/><path stroke-linecap="butt" transform="matrix(0.446016, 0.417026, -0.417026, 0.446016, 94.460999, 49.623268)" fill="none" stroke-linejoin="miter" d="M 0.000792503 2.998412 L 53.970431 3.00083 " stroke="#423e3e" stroke-width="6" stroke-opacity="1" stroke-miterlimit="4"/><path stroke-linecap="butt" transform="matrix(0.412551, -0.450158, 0.450158, 0.412551, 114.819566, 71.264322)" fill="none" stroke-linejoin="miter" d="M -0.000299429 3.004351 L 50.177922 3.00018 " stroke="#423e3e" stroke-width="6" stroke-opacity="1" stroke-miterlimit="4"/><g clip-path="url(#2f6cb0857f)"><path fill="#333333" d="M 94.097656 88.433594 L 111.40625 88.433594 L 111.40625 105.742188 L 94.097656 105.742188 Z M 94.097656 88.433594 " fill-opacity="1" fill-rule="nonzero"/></g><g clip-path="url(#88040c5ceb)"><path fill="#333333" d="M 116.855469 88.433594 L 134.167969 88.433594 L 134.167969 105.742188 L 116.855469 105.742188 Z M 116.855469 88.433594 " fill-opacity="1" fill-rule="nonzero"/></g><g clip-path="url(#c44ecaebe1)"><path fill="#333333" d="M 71.335938 88.433594 L 88.644531 88.433594 L 88.644531 105.742188 L 71.335938 105.742188 Z M 71.335938 88.433594 " fill-opacity="1" fill-rule="nonzero"/></g><g clip-path="url(#3136aafbcb)"><path fill="#ffffff" d="M 13.058594 152.5625 L 192.425781 152.5625 L 192.425781 173.632812 L 13.058594 173.632812 Z M 13.058594 152.5625 " fill-opacity="1" fill-rule="nonzero"/></g><g fill="#423e3e" fill-opacity="1"><g transform="translate(20.725415, 169.449417)"><g><path d="M 4.078125 0 L 6.640625 0 L 6.640625 -9.984375 L 10.390625 -9.984375 L 10.390625 -12.484375 L 0.328125 -12.484375 L 0.328125 -9.984375 L 4.078125 -9.984375 Z M 4.078125 0 "/></g></g></g><g fill="#423e3e" fill-opacity="1"><g transform="translate(31.451821, 169.449417)"><g><path d="M 11.046875 0 L 8.21875 -4.875 C 9.90625 -5.484375 10.796875 -6.734375 10.796875 -8.53125 C 10.796875 -11.171875 8.796875 -12.484375 6.375 -12.484375 L 1.453125 -12.484375 L 1.453125 0 L 4.03125 0 L 4.03125 -4.484375 L 5.59375 -4.484375 L 8.171875 0 Z M 6.1875 -6.875 L 4.03125 -6.875 L 4.03125 -10.046875 L 6.171875 -10.046875 C 7.140625 -10.046875 8.171875 -9.671875 8.171875 -8.484375 C 8.171875 -7.296875 7.140625 -6.875 6.1875 -6.875 Z M 6.1875 -6.875 "/></g></g></g><g fill="#423e3e" fill-opacity="1"><g transform="translate(43.102649, 169.449417)"><g><path d="M 1.453125 -12.484375 L 1.453125 0 L 9.65625 0 L 9.65625 -2.40625 L 4 -2.40625 L 4 -5.09375 L 9.03125 -5.09375 L 9.03125 -7.515625 L 4 -7.515625 L 4 -10.0625 L 9.625 -10.0625 L 9.625 -12.484375 Z M 1.453125 -12.484375 "/></g></g></g><g fill="#423e3e" fill-opacity="1"><g transform="translate(53.669681, 169.449417)"><g><path d="M 4 -8.609375 L 9.734375 0 L 12.375 0 L 12.375 -12.484375 L 9.8125 -12.484375 L 9.8125 -4.328125 L 4.40625 -12.484375 L 1.453125 -12.484375 L 1.453125 0 L 4 0 Z M 4 -8.609375 "/></g></g></g><g fill="#423e3e" fill-opacity="1"><g transform="translate(67.504044, 169.449417)"><g><path d="M 12.3125 -6.265625 C 12.3125 -10.1875 9.625 -12.484375 5.28125 -12.484375 L 1.453125 -12.484375 L 1.453125 0 L 5.234375 0 C 9.640625 0 12.3125 -2.546875 12.3125 -6.265625 Z M 9.671875 -6.265625 C 9.671875 -3.8125 7.890625 -2.4375 5.3125 -2.4375 L 4.03125 -2.4375 L 4.03125 -10.046875 L 5.34375 -10.046875 C 7.796875 -10.046875 9.671875 -8.71875 9.671875 -6.265625 Z M 9.671875 -6.265625 "/></g></g></g><g fill="#423e3e" fill-opacity="1"><g transform="translate(80.541488, 169.449417)"><g/></g></g><g fill="#423e3e" fill-opacity="1"><g transform="translate(84.541975, 169.449417)"><g><path d="M 3.375 -9.0625 C 3.375 -9.796875 4 -10.34375 5.03125 -10.34375 C 6.109375 -10.34375 6.984375 -9.8125 7.390625 -8.8125 L 9.53125 -9.984375 C 8.8125 -11.6875 7.234375 -12.671875 5.140625 -12.671875 C 2.796875 -12.671875 0.796875 -11.140625 0.796875 -8.90625 C 0.796875 -7.953125 1.171875 -7.15625 1.75 -6.59375 C 2.421875 -5.921875 3.453125 -5.484375 4.796875 -5.078125 C 6.609375 -4.546875 7.15625 -4.203125 7.15625 -3.46875 C 7.15625 -2.703125 6.375 -2.15625 5.265625 -2.15625 C 4 -2.15625 3.015625 -2.8125 2.53125 -3.890625 L 0.296875 -2.734375 C 1.03125 -0.953125 2.828125 0.1875 5.1875 0.1875 C 8.125 0.1875 9.75 -1.46875 9.75 -3.671875 C 9.75 -5.765625 8.15625 -6.734375 5.390625 -7.53125 C 4.046875 -7.921875 3.375 -8.28125 3.375 -9.0625 Z M 3.375 -9.0625 "/></g></g></g><g fill="#423e3e" fill-opacity="1"><g transform="translate(94.933679, 169.449417)"><g><path d="M 4.078125 0 L 6.640625 0 L 6.640625 -9.984375 L 10.390625 -9.984375 L 10.390625 -12.484375 L 0.328125 -12.484375 L 0.328125 -9.984375 L 4.078125 -9.984375 Z M 4.078125 0 "/></g></g></g><g fill="#423e3e" fill-opacity="1"><g transform="translate(105.660085, 169.449417)"><g><path d="M 2.578125 0 L 3.5 -2.515625 L 9.03125 -2.515625 L 9.984375 0 L 12.640625 0 L 7.859375 -12.484375 L 4.75 -12.484375 L -0.015625 0 Z M 6.28125 -9.984375 L 8.15625 -4.90625 L 4.40625 -4.90625 Z M 6.28125 -9.984375 "/></g></g></g><g fill="#423e3e" fill-opacity="1"><g transform="translate(118.283135, 169.449417)"><g><path d="M 4.078125 0 L 6.640625 0 L 6.640625 -9.984375 L 10.390625 -9.984375 L 10.390625 -12.484375 L 0.328125 -12.484375 L 0.328125 -9.984375 L 4.078125 -9.984375 Z M 4.078125 0 "/></g></g></g><g fill="#423e3e" fill-opacity="1"><g transform="translate(129.009541, 169.449417)"><g><path d="M 4.03125 -12.484375 L 1.453125 -12.484375 L 1.453125 0 L 4.03125 0 Z M 4.03125 -12.484375 "/></g></g></g><g fill="#423e3e" fill-opacity="1"><g transform="translate(134.508218, 169.449417)"><g><path d="M 3.375 -9.0625 C 3.375 -9.796875 4 -10.34375 5.03125 -10.34375 C 6.109375 -10.34375 6.984375 -9.8125 7.390625 -8.8125 L 9.53125 -9.984375 C 8.8125 -11.6875 7.234375 -12.671875 5.140625 -12.671875 C 2.796875 -12.671875 0.796875 -11.140625 0.796875 -8.90625 C 0.796875 -7.953125 1.171875 -7.15625 1.75 -6.59375 C 2.421875 -5.921875 3.453125 -5.484375 4.796875 -5.078125 C 6.609375 -4.546875 7.15625 -4.203125 7.15625 -3.46875 C 7.15625 -2.703125 6.375 -2.15625 5.265625 -2.15625 C 4 -2.15625 3.015625 -2.8125 2.53125 -3.890625 L 0.296875 -2.734375 C 1.03125 -0.953125 2.828125 0.1875 5.1875 0.1875 C 8.125 0.1875 9.75 -1.46875 9.75 -3.671875 C 9.75 -5.765625 8.15625 -6.734375 5.390625 -7.53125 C 4.046875 -7.921875 3.375 -8.28125 3.375 -9.0625 Z M 3.375 -9.0625 "/></g></g></g><g fill="#423e3e" fill-opacity="1"><g transform="translate(144.899923, 169.449417)"><g><path d="M 4.078125 0 L 6.640625 0 L 6.640625 -9.984375 L 10.390625 -9.984375 L 10.390625 -12.484375 L 0.328125 -12.484375 L 0.328125 -9.984375 L 4.078125 -9.984375 Z M 4.078125 0 "/></g></g></g><g fill="#423e3e" fill-opacity="1"><g transform="translate(155.626329, 169.449417)"><g><path d="M 4.03125 -12.484375 L 1.453125 -12.484375 L 1.453125 0 L 4.03125 0 Z M 4.03125 -12.484375 "/></g></g></g><g fill="#423e3e" fill-opacity="1"><g transform="translate(161.125006, 169.449417)"><g><path d="M 0.6875 -6.234375 C 0.6875 -2.59375 3.46875 0.171875 7.109375 0.171875 C 9.5625 0.171875 12 -1.171875 12.859375 -3.53125 L 10.484375 -4.640625 C 9.9375 -3.28125 8.703125 -2.328125 7.140625 -2.328125 C 4.921875 -2.328125 3.359375 -4.09375 3.359375 -6.265625 C 3.359375 -8.40625 4.96875 -10.15625 7.140625 -10.15625 C 8.703125 -10.15625 9.921875 -9.28125 10.453125 -7.90625 L 12.8125 -8.984375 C 11.96875 -11.328125 9.609375 -12.671875 7.15625 -12.671875 C 3.59375 -12.671875 0.6875 -9.828125 0.6875 -6.234375 Z M 0.6875 -6.234375 "/></g></g></g><g fill="#423e3e" fill-opacity="1"><g transform="translate(174.385589, 169.449417)"><g><path d="M 3.375 -9.0625 C 3.375 -9.796875 4 -10.34375 5.03125 -10.34375 C 6.109375 -10.34375 6.984375 -9.8125 7.390625 -8.8125 L 9.53125 -9.984375 C 8.8125 -11.6875 7.234375 -12.671875 5.140625 -12.671875 C 2.796875 -12.671875 0.796875 -11.140625 0.796875 -8.90625 C 0.796875 -7.953125 1.171875 -7.15625 1.75 -6.59375 C 2.421875 -5.921875 3.453125 -5.484375 4.796875 -5.078125 C 6.609375 -4.546875 7.15625 -4.203125 7.15625 -3.46875 C 7.15625 -2.703125 6.375 -2.15625 5.265625 -2.15625 C 4 -2.15625 3.015625 -2.8125 2.53125 -3.890625 L 0.296875 -2.734375 C 1.03125 -0.953125 2.828125 0.1875 5.1875 0.1875 C 8.125 0.1875 9.75 -1.46875 9.75 -3.671875 C 9.75 -5.765625 8.15625 -6.734375 5.390625 -7.53125 C 4.046875 -7.921875 3.375 -8.28125 3.375 -9.0625 Z M 3.375 -9.0625 "/></g></g></g></svg>