<svg xmlns="http://www.w3.org/2000/svg" xmlns:xlink="http://www.w3.org/1999/xlink" width="300" zoomAndPan="magnify" viewBox="0 0 224.87999 168.749997" height="225" preserveAspectRatio="xMidYMid meet" version="1.0"><defs><g/><clipPath id="140b859027"><path d="M 5.984375 6.058594 L 219.1875 6.058594 L 219.1875 162.441406 L 5.984375 162.441406 Z M 5.984375 6.058594 " clip-rule="nonzero"/></clipPath><clipPath id="b5c078b2eb"><path d="M 106.898438 31.5625 L 117.980469 31.5625 L 117.980469 43.902344 L 106.898438 43.902344 Z M 106.898438 31.5625 " clip-rule="nonzero"/></clipPath><clipPath id="ea0dc6e259"><path d="M 112.441406 31.5625 C 109.378906 31.5625 106.898438 34.324219 106.898438 37.726562 C 106.898438 41.128906 109.378906 43.886719 112.441406 43.886719 C 115.5 43.886719 117.980469 41.128906 117.980469 37.726562 C 117.980469 34.324219 115.5 31.5625 112.441406 31.5625 Z M 112.441406 31.5625 " clip-rule="nonzero"/></clipPath><clipPath id="19e1d7bec5"><path d="M 69.265625 36.476562 L 155.613281 36.476562 L 155.613281 107.964844 L 69.265625 107.964844 Z M 69.265625 36.476562 " clip-rule="nonzero"/></clipPath><clipPath id="2c2d575515"><path d="M 69.265625 36.476562 L 155.457031 36.476562 L 155.457031 107.808594 L 69.265625 107.808594 Z M 69.265625 36.476562 " clip-rule="nonzero"/></clipPath><clipPath id="78f58aae76"><path d="M 106.421875 81.695312 L 118.457031 81.695312 L 118.457031 93.730469 L 106.421875 93.730469 Z M 106.421875 81.695312 " clip-rule="nonzero"/></clipPath><clipPath id="78b2bbbfed"><path d="M 122.25 81.695312 L 134.285156 81.695312 L 134.285156 93.730469 L 122.25 93.730469 Z M 122.25 81.695312 " clip-rule="nonzero"/></clipPath><clipPath id="ce531cdac8"><path d="M 90.59375 81.695312 L 102.632812 81.695312 L 102.632812 93.730469 L 90.59375 93.730469 Z M 90.59375 81.695312 " clip-rule="nonzero"/></clipPath></defs><g clip-path="url(#140b859027)"><path fill="#ececec" d="M 5.984375 6.058594 L 219.179688 6.058594 L 219.179688 162.441406 L 5.984375 162.441406 Z M 5.984375 6.058594 " fill-opacity="1" fill-rule="nonzero"/></g><g fill="#423e3e" fill-opacity="1"><g transform="translate(14.821209, 145.878573)"><g><path d="M 4.859375 0 L 4.859375 -11.875 L 0.390625 -11.875 L 0.390625 -14.859375 L 12.375 -14.859375 L 12.375 -11.875 L 7.90625 -11.875 L 7.90625 0 Z M 4.859375 0 "/></g></g></g><g fill="#423e3e" fill-opacity="1"><g transform="translate(27.586686, 145.878573)"><g><path d="M 13.140625 0 L 9.734375 0 L 6.65625 -5.328125 L 4.796875 -5.328125 L 4.796875 0 L 1.71875 0 L 1.71875 -14.859375 L 7.59375 -14.859375 C 8.550781 -14.859375 9.425781 -14.679688 10.21875 -14.328125 C 11.019531 -13.984375 11.65625 -13.460938 12.125 -12.765625 C 12.601562 -12.066406 12.84375 -11.191406 12.84375 -10.140625 C 12.84375 -7.984375 11.820312 -6.535156 9.78125 -5.796875 Z M 7.359375 -8.171875 C 7.734375 -8.171875 8.101562 -8.234375 8.46875 -8.359375 C 8.84375 -8.492188 9.144531 -8.695312 9.375 -8.96875 C 9.613281 -9.25 9.734375 -9.625 9.734375 -10.09375 C 9.734375 -10.570312 9.613281 -10.941406 9.375 -11.203125 C 9.132812 -11.472656 8.832031 -11.664062 8.46875 -11.78125 C 8.101562 -11.894531 7.726562 -11.953125 7.34375 -11.953125 L 4.796875 -11.953125 L 4.796875 -8.171875 Z M 7.359375 -8.171875 "/></g></g></g><g fill="#423e3e" fill-opacity="1"><g transform="translate(41.452301, 145.878573)"><g><path d="M 1.71875 -14.859375 L 11.453125 -14.859375 L 11.453125 -11.96875 L 4.765625 -11.96875 L 4.765625 -8.953125 L 10.75 -8.953125 L 10.75 -6.0625 L 4.765625 -6.0625 L 4.765625 -2.859375 L 11.5 -2.859375 L 11.5 0 L 1.71875 0 Z M 1.71875 -14.859375 "/></g></g></g><g fill="#423e3e" fill-opacity="1"><g transform="translate(54.028098, 145.878573)"><g><path d="M 4.765625 -10.25 L 4.765625 0 L 1.71875 0 L 1.71875 -14.859375 L 5.234375 -14.859375 L 11.6875 -5.15625 L 11.6875 -14.859375 L 14.71875 -14.859375 L 14.71875 0 L 11.59375 0 Z M 4.765625 -10.25 "/></g></g></g><g fill="#423e3e" fill-opacity="1"><g transform="translate(70.492342, 145.878573)"><g><path d="M 14.65625 -7.453125 C 14.65625 -5.984375 14.316406 -4.6875 13.640625 -3.5625 C 12.972656 -2.4375 12.007812 -1.5625 10.75 -0.9375 C 9.488281 -0.3125 7.976562 0 6.21875 0 L 1.71875 0 L 1.71875 -14.859375 L 6.28125 -14.859375 C 8.007812 -14.859375 9.5 -14.566406 10.75 -13.984375 C 12.007812 -13.398438 12.972656 -12.550781 13.640625 -11.4375 C 14.316406 -10.332031 14.65625 -9.003906 14.65625 -7.453125 Z M 11.515625 -7.453125 C 11.515625 -8.429688 11.285156 -9.253906 10.828125 -9.921875 C 10.367188 -10.585938 9.75 -11.09375 8.96875 -11.4375 C 8.195312 -11.78125 7.328125 -11.953125 6.359375 -11.953125 L 4.796875 -11.953125 L 4.796875 -2.90625 L 6.3125 -2.90625 C 7.34375 -2.90625 8.25 -3.082031 9.03125 -3.4375 C 9.8125 -3.789062 10.421875 -4.304688 10.859375 -4.984375 C 11.296875 -5.660156 11.515625 -6.484375 11.515625 -7.453125 Z M 11.515625 -7.453125 "/></g></g></g><g fill="#423e3e" fill-opacity="1"><g transform="translate(86.008177, 145.878573)"><g/></g></g><g fill="#423e3e" fill-opacity="1"><g transform="translate(90.769144, 145.878573)"><g><path d="M 4.015625 -10.796875 C 4.015625 -10.328125 4.210938 -9.960938 4.609375 -9.703125 C 5.015625 -9.441406 5.613281 -9.195312 6.40625 -8.96875 C 7.507812 -8.65625 8.445312 -8.300781 9.21875 -7.90625 C 10 -7.519531 10.59375 -7.039062 11 -6.46875 C 11.40625 -5.894531 11.609375 -5.191406 11.609375 -4.359375 C 11.609375 -3.484375 11.398438 -2.703125 10.984375 -2.015625 C 10.566406 -1.328125 9.953125 -0.78125 9.140625 -0.375 C 8.328125 0.03125 7.335938 0.234375 6.171875 0.234375 C 4.765625 0.234375 3.554688 -0.0820312 2.546875 -0.71875 C 1.535156 -1.351562 0.804688 -2.203125 0.359375 -3.265625 L 3.015625 -4.625 C 3.304688 -3.976562 3.734375 -3.472656 4.296875 -3.109375 C 4.859375 -2.742188 5.515625 -2.5625 6.265625 -2.5625 C 6.929688 -2.5625 7.472656 -2.707031 7.890625 -3 C 8.304688 -3.300781 8.515625 -3.679688 8.515625 -4.140625 C 8.515625 -4.429688 8.429688 -4.679688 8.265625 -4.890625 C 8.109375 -5.097656 7.820312 -5.289062 7.40625 -5.46875 C 7 -5.644531 6.429688 -5.835938 5.703125 -6.046875 C 4.910156 -6.285156 4.207031 -6.546875 3.59375 -6.828125 C 2.988281 -7.117188 2.488281 -7.460938 2.09375 -7.859375 C 1.75 -8.179688 1.472656 -8.578125 1.265625 -9.046875 C 1.054688 -9.515625 0.953125 -10.035156 0.953125 -10.609375 C 0.953125 -11.492188 1.1875 -12.269531 1.65625 -12.9375 C 2.132812 -13.601562 2.765625 -14.125 3.546875 -14.5 C 4.328125 -14.882812 5.1875 -15.078125 6.125 -15.078125 C 7.363281 -15.078125 8.4375 -14.796875 9.34375 -14.234375 C 10.25 -13.671875 10.914062 -12.882812 11.34375 -11.875 L 8.796875 -10.484375 C 8.554688 -11.078125 8.1875 -11.53125 7.6875 -11.84375 C 7.1875 -12.15625 6.625 -12.3125 6 -12.3125 C 5.375 -12.3125 4.882812 -12.164062 4.53125 -11.875 C 4.1875 -11.59375 4.015625 -11.234375 4.015625 -10.796875 Z M 4.015625 -10.796875 "/></g></g></g><g fill="#423e3e" fill-opacity="1"><g transform="translate(103.136293, 145.878573)"><g><path d="M 4.859375 0 L 4.859375 -11.875 L 0.390625 -11.875 L 0.390625 -14.859375 L 12.375 -14.859375 L 12.375 -11.875 L 7.90625 -11.875 L 7.90625 0 Z M 4.859375 0 "/></g></g></g><g fill="#423e3e" fill-opacity="1"><g transform="translate(115.90177, 145.878573)"><g><path d="M 3.078125 0 L -0.015625 0 L 5.65625 -14.859375 L 9.359375 -14.859375 L 15.046875 0 L 11.875 0 L 10.75 -3 L 4.171875 -3 Z M 7.46875 -11.875 L 5.234375 -5.84375 L 9.71875 -5.84375 Z M 7.46875 -11.875 "/></g></g></g><g fill="#423e3e" fill-opacity="1"><g transform="translate(130.924443, 145.878573)"><g><path d="M 4.859375 0 L 4.859375 -11.875 L 0.390625 -11.875 L 0.390625 -14.859375 L 12.375 -14.859375 L 12.375 -11.875 L 7.90625 -11.875 L 7.90625 0 Z M 4.859375 0 "/></g></g></g><g fill="#423e3e" fill-opacity="1"><g transform="translate(143.68992, 145.878573)"><g><path d="M 4.796875 -14.859375 L 4.796875 0 L 1.71875 0 L 1.71875 -14.859375 Z M 4.796875 -14.859375 "/></g></g></g><g fill="#423e3e" fill-opacity="1"><g transform="translate(150.23389, 145.878573)"><g><path d="M 4.015625 -10.796875 C 4.015625 -10.328125 4.210938 -9.960938 4.609375 -9.703125 C 5.015625 -9.441406 5.613281 -9.195312 6.40625 -8.96875 C 7.507812 -8.65625 8.445312 -8.300781 9.21875 -7.90625 C 10 -7.519531 10.59375 -7.039062 11 -6.46875 C 11.40625 -5.894531 11.609375 -5.191406 11.609375 -4.359375 C 11.609375 -3.484375 11.398438 -2.703125 10.984375 -2.015625 C 10.566406 -1.328125 9.953125 -0.78125 9.140625 -0.375 C 8.328125 0.03125 7.335938 0.234375 6.171875 0.234375 C 4.765625 0.234375 3.554688 -0.0820312 2.546875 -0.71875 C 1.535156 -1.351562 0.804688 -2.203125 0.359375 -3.265625 L 3.015625 -4.625 C 3.304688 -3.976562 3.734375 -3.472656 4.296875 -3.109375 C 4.859375 -2.742188 5.515625 -2.5625 6.265625 -2.5625 C 6.929688 -2.5625 7.472656 -2.707031 7.890625 -3 C 8.304688 -3.300781 8.515625 -3.679688 8.515625 -4.140625 C 8.515625 -4.429688 8.429688 -4.679688 8.265625 -4.890625 C 8.109375 -5.097656 7.820312 -5.289062 7.40625 -5.46875 C 7 -5.644531 6.429688 -5.835938 5.703125 -6.046875 C 4.910156 -6.285156 4.207031 -6.546875 3.59375 -6.828125 C 2.988281 -7.117188 2.488281 -7.460938 2.09375 -7.859375 C 1.75 -8.179688 1.472656 -8.578125 1.265625 -9.046875 C 1.054688 -9.515625 0.953125 -10.035156 0.953125 -10.609375 C 0.953125 -11.492188 1.1875 -12.269531 1.65625 -12.9375 C 2.132812 -13.601562 2.765625 -14.125 3.546875 -14.5 C 4.328125 -14.882812 5.1875 -15.078125 6.125 -15.078125 C 7.363281 -15.078125 8.4375 -14.796875 9.34375 -14.234375 C 10.25 -13.671875 10.914062 -12.882812 11.34375 -11.875 L 8.796875 -10.484375 C 8.554688 -11.078125 8.1875 -11.53125 7.6875 -11.84375 C 7.1875 -12.15625 6.625 -12.3125 6 -12.3125 C 5.375 -12.3125 4.882812 -12.164062 4.53125 -11.875 C 4.1875 -11.59375 4.015625 -11.234375 4.015625 -10.796875 Z M 4.015625 -10.796875 "/></g></g></g><g fill="#423e3e" fill-opacity="1"><g transform="translate(162.601039, 145.878573)"><g><path d="M 4.859375 0 L 4.859375 -11.875 L 0.390625 -11.875 L 0.390625 -14.859375 L 12.375 -14.859375 L 12.375 -11.875 L 7.90625 -11.875 L 7.90625 0 Z M 4.859375 0 "/></g></g></g><g fill="#423e3e" fill-opacity="1"><g transform="translate(175.366516, 145.878573)"><g><path d="M 4.796875 -14.859375 L 4.796875 0 L 1.71875 0 L 1.71875 -14.859375 Z M 4.796875 -14.859375 "/></g></g></g><g fill="#423e3e" fill-opacity="1"><g transform="translate(181.910486, 145.878573)"><g><path d="M 0.8125 -7.421875 C 0.8125 -8.492188 1.007812 -9.492188 1.40625 -10.421875 C 1.8125 -11.347656 2.367188 -12.160156 3.078125 -12.859375 C 3.785156 -13.554688 4.601562 -14.097656 5.53125 -14.484375 C 6.457031 -14.878906 7.453125 -15.078125 8.515625 -15.078125 C 9.492188 -15.078125 10.429688 -14.90625 11.328125 -14.5625 C 12.234375 -14.226562 13.03125 -13.734375 13.71875 -13.078125 C 14.40625 -12.429688 14.914062 -11.640625 15.25 -10.703125 L 12.4375 -9.40625 C 12.125 -10.226562 11.625 -10.878906 10.9375 -11.359375 C 10.25 -11.835938 9.4375 -12.078125 8.5 -12.078125 C 7.632812 -12.078125 6.863281 -11.867188 6.1875 -11.453125 C 5.507812 -11.035156 4.972656 -10.472656 4.578125 -9.765625 C 4.191406 -9.066406 4 -8.296875 4 -7.453125 C 4 -6.597656 4.191406 -5.816406 4.578125 -5.109375 C 4.960938 -4.398438 5.492188 -3.832031 6.171875 -3.40625 C 6.847656 -2.976562 7.625 -2.765625 8.5 -2.765625 C 9.4375 -2.765625 10.253906 -3.019531 10.953125 -3.53125 C 11.648438 -4.050781 12.160156 -4.710938 12.484375 -5.515625 L 15.3125 -4.21875 C 14.96875 -3.28125 14.441406 -2.476562 13.734375 -1.8125 C 13.023438 -1.15625 12.210938 -0.65625 11.296875 -0.3125 C 10.378906 0.03125 9.429688 0.203125 8.453125 0.203125 C 7.378906 0.203125 6.378906 0.0078125 5.453125 -0.375 C 4.523438 -0.757812 3.710938 -1.296875 3.015625 -1.984375 C 2.316406 -2.671875 1.773438 -3.476562 1.390625 -4.40625 C 1.003906 -5.332031 0.8125 -6.335938 0.8125 -7.421875 Z M 0.8125 -7.421875 "/></g></g></g><g fill="#423e3e" fill-opacity="1"><g transform="translate(197.691877, 145.878573)"><g><path d="M 4.015625 -10.796875 C 4.015625 -10.328125 4.210938 -9.960938 4.609375 -9.703125 C 5.015625 -9.441406 5.613281 -9.195312 6.40625 -8.96875 C 7.507812 -8.65625 8.445312 -8.300781 9.21875 -7.90625 C 10 -7.519531 10.59375 -7.039062 11 -6.46875 C 11.40625 -5.894531 11.609375 -5.191406 11.609375 -4.359375 C 11.609375 -3.484375 11.398438 -2.703125 10.984375 -2.015625 C 10.566406 -1.328125 9.953125 -0.78125 9.140625 -0.375 C 8.328125 0.03125 7.335938 0.234375 6.171875 0.234375 C 4.765625 0.234375 3.554688 -0.0820312 2.546875 -0.71875 C 1.535156 -1.351562 0.804688 -2.203125 0.359375 -3.265625 L 3.015625 -4.625 C 3.304688 -3.976562 3.734375 -3.472656 4.296875 -3.109375 C 4.859375 -2.742188 5.515625 -2.5625 6.265625 -2.5625 C 6.929688 -2.5625 7.472656 -2.707031 7.890625 -3 C 8.304688 -3.300781 8.515625 -3.679688 8.515625 -4.140625 C 8.515625 -4.429688 8.429688 -4.679688 8.265625 -4.890625 C 8.109375 -5.097656 7.820312 -5.289062 7.40625 -5.46875 C 7 -5.644531 6.429688 -5.835938 5.703125 -6.046875 C 4.910156 -6.285156 4.207031 -6.546875 3.59375 -6.828125 C 2.988281 -7.117188 2.488281 -7.460938 2.09375 -7.859375 C 1.75 -8.179688 1.472656 -8.578125 1.265625 -9.046875 C 1.054688 -9.515625 0.953125 -10.035156 0.953125 -10.609375 C 0.953125 -11.492188 1.1875 -12.269531 1.65625 -12.9375 C 2.132812 -13.601562 2.765625 -14.125 3.546875 -14.5 C 4.328125 -14.882812 5.1875 -15.078125 6.125 -15.078125 C 7.363281 -15.078125 8.4375 -14.796875 9.34375 -14.234375 C 10.25 -13.671875 10.914062 -12.882812 11.34375 -11.875 L 8.796875 -10.484375 C 8.554688 -11.078125 8.1875 -11.53125 7.6875 -11.84375 C 7.1875 -12.15625 6.625 -12.3125 6 -12.3125 C 5.375 -12.3125 4.882812 -12.164062 4.53125 -11.875 C 4.1875 -11.59375 4.015625 -11.234375 4.015625 -10.796875 Z M 4.015625 -10.796875 "/></g></g></g><g clip-path="url(#b5c078b2eb)"><g clip-path="url(#ea0dc6e259)"><path fill="#333333" d="M 106.898438 31.5625 L 117.980469 31.5625 L 117.980469 43.902344 L 106.898438 43.902344 Z M 106.898438 31.5625 " fill-opacity="1" fill-rule="nonzero"/></g></g><g clip-path="url(#19e1d7bec5)"><path fill="#7b7b7b" d="M 69.265625 36.476562 L 155.554688 36.476562 L 155.554688 107.964844 L 69.265625 107.964844 Z M 69.265625 36.476562 " fill-opacity="1" fill-rule="nonzero"/></g><g clip-path="url(#2c2d575515)"><path stroke-linecap="butt" transform="matrix(0.424588, 0, 0, 0.424588, 69.266674, 36.477896)" fill="none" stroke-linejoin="miter" d="M -0.00247124 -0.00314072 L 203.35635 -0.00314072 L 203.35635 168.358533 L -0.00247124 168.358533 Z M -0.00247124 -0.00314072 " stroke="#000000" stroke-width="14.110435" stroke-opacity="1" stroke-miterlimit="4"/></g><path stroke-linecap="butt" transform="matrix(0.267215, -0.329957, 0.329957, 0.267215, 93.149391, 70.484628)" fill="none" stroke-linejoin="miter" d="M 0.00406672 3.000841 L 47.559099 2.999676 " stroke="#423e3e" stroke-width="6" stroke-opacity="1" stroke-miterlimit="4"/><path stroke-linecap="butt" transform="matrix(0.310139, 0.289981, -0.289981, 0.310139, 106.675259, 54.7101)" fill="none" stroke-linejoin="miter" d="M -0.00090941 3.001197 L 53.966278 2.997948 " stroke="#423e3e" stroke-width="6" stroke-opacity="1" stroke-miterlimit="4"/><path stroke-linecap="butt" transform="matrix(0.286869, -0.313019, 0.313019, 0.286869, 120.831674, 69.7583)" fill="none" stroke-linejoin="miter" d="M 0.00107879 2.995177 L 50.17968 2.994613 " stroke="#423e3e" stroke-width="6" stroke-opacity="1" stroke-miterlimit="4"/><g clip-path="url(#78f58aae76)"><path fill="#333333" d="M 106.421875 81.695312 L 118.457031 81.695312 L 118.457031 93.730469 L 106.421875 93.730469 Z M 106.421875 81.695312 " fill-opacity="1" fill-rule="nonzero"/></g><g clip-path="url(#78b2bbbfed)"><path fill="#333333" d="M 122.25 81.695312 L 134.285156 81.695312 L 134.285156 93.730469 L 122.25 93.730469 Z M 122.25 81.695312 " fill-opacity="1" fill-rule="nonzero"/></g><g clip-path="url(#ce531cdac8)"><path fill="#333333" d="M 90.59375 81.695312 L 102.632812 81.695312 L 102.632812 93.730469 L 90.59375 93.730469 Z M 90.59375 81.695312 " fill-opacity="1" fill-rule="nonzero"/></g></svg>