<svg xmlns="http://www.w3.org/2000/svg" xmlns:xlink="http://www.w3.org/1999/xlink" width="275" zoomAndPan="magnify" viewBox="0 0 206.25 187.499992" height="250" preserveAspectRatio="xMidYMid meet" version="1.0"><defs><g/><clipPath id="9609d48e7f"><path d="M 6.664062 6.203125 L 198.839844 6.203125 L 198.839844 145.292969 L 6.664062 145.292969 Z M 6.664062 6.203125 " clip-rule="nonzero"/></clipPath><clipPath id="be0ea66ec5"><path d="M 43.941406 152.242188 L 160.691406 152.242188 L 160.691406 177.519531 L 43.941406 177.519531 Z M 43.941406 152.242188 " clip-rule="nonzero"/></clipPath><clipPath id="bb9fa92fe7"><path d="M 78.039062 36.65625 L 127.359375 36.65625 L 127.359375 85.976562 L 78.039062 85.976562 Z M 78.039062 36.65625 " clip-rule="nonzero"/></clipPath><clipPath id="6d16360ffd"><path d="M 102.8125 36.65625 C 89.128906 36.65625 78.039062 47.75 78.039062 61.433594 C 78.039062 75.117188 89.128906 86.210938 102.8125 86.210938 C 116.5 86.210938 127.589844 75.117188 127.589844 61.433594 C 127.589844 47.75 116.5 36.65625 102.8125 36.65625 Z M 102.8125 36.65625 " clip-rule="nonzero"/></clipPath><clipPath id="aa55c0a24d"><path d="M 93.0625 51.683594 L 112.566406 51.683594 L 112.566406 71.183594 L 93.0625 71.183594 Z M 93.0625 51.683594 " clip-rule="nonzero"/></clipPath><clipPath id="f851d0305e"><path d="M 102.816406 51.683594 C 97.429688 51.683594 93.0625 56.046875 93.0625 61.433594 C 93.0625 66.820312 97.429688 71.183594 102.816406 71.183594 C 108.199219 71.183594 112.566406 66.820312 112.566406 61.433594 C 112.566406 56.046875 108.199219 51.683594 102.816406 51.683594 Z M 102.816406 51.683594 " clip-rule="nonzero"/></clipPath></defs><g clip-path="url(#9609d48e7f)"><path fill="#ececec" d="M 6.664062 6.203125 L 198.839844 6.203125 L 198.839844 145.292969 L 6.664062 145.292969 Z M 6.664062 6.203125 " fill-opacity="1" fill-rule="nonzero"/></g><g clip-path="url(#be0ea66ec5)"><path fill="#ffffff" d="M 43.941406 152.242188 L 160.691406 152.242188 L 160.691406 177.519531 L 43.941406 177.519531 Z M 43.941406 152.242188 " fill-opacity="1" fill-rule="nonzero"/></g><g fill="#423e3e" fill-opacity="1"><g transform="translate(54.364808, 172.787288)"><g><path d="M 5.101562 0 L 8.308594 0 L 8.308594 -12.472656 L 12.988281 -12.472656 L 12.988281 -15.597656 L 0.417969 -15.597656 L 0.417969 -12.472656 L 5.101562 -12.472656 Z M 5.101562 0 "/></g></g></g><g fill="#423e3e" fill-opacity="1"><g transform="translate(67.770751, 172.787288)"><g><path d="M 13.804688 0 L 10.28125 -6.097656 C 12.390625 -6.851562 13.488281 -8.425781 13.488281 -10.660156 C 13.488281 -13.964844 10.996094 -15.597656 7.96875 -15.597656 L 1.8125 -15.597656 L 1.8125 0 L 5.039062 0 L 5.039062 -5.597656 L 6.992188 -5.597656 L 10.21875 0 Z M 7.730469 -8.585938 L 5.039062 -8.585938 L 5.039062 -12.550781 L 7.710938 -12.550781 C 8.925781 -12.550781 10.21875 -12.09375 10.21875 -10.597656 C 10.21875 -9.125 8.925781 -8.585938 7.730469 -8.585938 Z M 7.730469 -8.585938 "/></g></g></g><g fill="#423e3e" fill-opacity="1"><g transform="translate(82.332031, 172.787288)"><g><path d="M 5.039062 -15.597656 L 1.8125 -15.597656 L 1.8125 0 L 5.039062 0 Z M 5.039062 -15.597656 "/></g></g></g><g fill="#423e3e" fill-opacity="1"><g transform="translate(89.204314, 172.787288)"><g><path d="M 4.144531 -7.808594 C 4.144531 -10.636719 6.316406 -12.789062 8.945312 -12.789062 C 11.457031 -12.789062 12.671875 -11.214844 13.128906 -10.039062 L 15.976562 -11.433594 C 15.28125 -13.386719 12.96875 -15.839844 8.984375 -15.839844 C 4.542969 -15.839844 0.855469 -12.332031 0.855469 -7.789062 C 0.855469 -3.347656 4.125 0.238281 8.945312 0.238281 C 12.75 0.238281 16.335938 -2.3125 16.335938 -7.171875 L 16.335938 -8.386719 L 8.226562 -8.386719 L 8.226562 -5.457031 L 12.96875 -5.457031 C 12.589844 -3.925781 11.058594 -2.828125 8.945312 -2.828125 C 6.117188 -2.828125 4.144531 -5.101562 4.144531 -7.808594 Z M 4.144531 -7.808594 "/></g></g></g><g fill="#423e3e" fill-opacity="1"><g transform="translate(106.275473, 172.787288)"><g><path d="M 4.144531 -7.808594 C 4.144531 -10.636719 6.316406 -12.789062 8.945312 -12.789062 C 11.457031 -12.789062 12.671875 -11.214844 13.128906 -10.039062 L 15.976562 -11.433594 C 15.28125 -13.386719 12.96875 -15.839844 8.984375 -15.839844 C 4.542969 -15.839844 0.855469 -12.332031 0.855469 -7.789062 C 0.855469 -3.347656 4.125 0.238281 8.945312 0.238281 C 12.75 0.238281 16.335938 -2.3125 16.335938 -7.171875 L 16.335938 -8.386719 L 8.226562 -8.386719 L 8.226562 -5.457031 L 12.96875 -5.457031 C 12.589844 -3.925781 11.058594 -2.828125 8.945312 -2.828125 C 6.117188 -2.828125 4.144531 -5.101562 4.144531 -7.808594 Z M 4.144531 -7.808594 "/></g></g></g><g fill="#423e3e" fill-opacity="1"><g transform="translate(123.346631, 172.787288)"><g><path d="M 1.8125 -15.597656 L 1.8125 0 L 12.074219 0 L 12.074219 -3.007812 L 5 -3.007812 L 5 -6.375 L 11.296875 -6.375 L 11.296875 -9.402344 L 5 -9.402344 L 5 -12.570312 L 12.035156 -12.570312 L 12.035156 -15.597656 Z M 1.8125 -15.597656 "/></g></g></g><g fill="#423e3e" fill-opacity="1"><g transform="translate(136.553383, 172.787288)"><g><path d="M 13.804688 0 L 10.28125 -6.097656 C 12.390625 -6.851562 13.488281 -8.425781 13.488281 -10.660156 C 13.488281 -13.964844 10.996094 -15.597656 7.96875 -15.597656 L 1.8125 -15.597656 L 1.8125 0 L 5.039062 0 L 5.039062 -5.597656 L 6.992188 -5.597656 L 10.21875 0 Z M 7.730469 -8.585938 L 5.039062 -8.585938 L 5.039062 -12.550781 L 7.710938 -12.550781 C 8.925781 -12.550781 10.21875 -12.09375 10.21875 -10.597656 C 10.21875 -9.125 8.925781 -8.585938 7.730469 -8.585938 Z M 7.730469 -8.585938 "/></g></g></g><path stroke-linecap="round" transform="matrix(0.747283, 0, 0, 0.747283, 32.671267, 95.9197)" fill="none" stroke-linejoin="miter" d="M 10.502405 10.499275 L 180.158775 10.499275 " stroke="#a6a6a6" stroke-width="21" stroke-opacity="1" stroke-miterlimit="4"/><path stroke-linecap="round" transform="matrix(0.747283, 0, 0, 0.747283, 30.355647, 95.9197)" fill="none" stroke-linejoin="miter" d="M 10.501352 10.499275 L 86.464083 10.499275 " stroke="#333333" stroke-width="21" stroke-opacity="1" stroke-miterlimit="4"/><g clip-path="url(#bb9fa92fe7)"><g clip-path="url(#6d16360ffd)"><path stroke-linecap="butt" transform="matrix(0.747283, 0, 0, 0.747283, 78.037282, 36.655572)" fill="none" stroke-linejoin="miter" d="M 33.153747 0.000907183 C 14.84261 0.000907183 0.0023821 14.846362 0.0023821 33.157499 C 0.0023821 51.468637 14.84261 66.314092 33.153747 66.314092 C 51.470112 66.314092 66.310339 51.468637 66.310339 33.157499 C 66.310339 14.846362 51.470112 0.000907183 33.153747 0.000907183 Z M 33.153747 0.000907183 " stroke="#a6a6a6" stroke-width="28" stroke-opacity="1" stroke-miterlimit="4"/></g></g><g clip-path="url(#aa55c0a24d)"><g clip-path="url(#f851d0305e)"><path fill="#333333" d="M 93.0625 51.683594 L 112.566406 51.683594 L 112.566406 71.183594 L 93.0625 71.183594 Z M 93.0625 51.683594 " fill-opacity="1" fill-rule="nonzero"/></g></g></svg>