<svg xmlns="http://www.w3.org/2000/svg" xmlns:xlink="http://www.w3.org/1999/xlink" width="275" zoomAndPan="magnify" viewBox="0 0 206.25 187.499992" height="250" preserveAspectRatio="xMidYMid meet" version="1.0"><defs><g/><clipPath id="3c99ab5480"><path d="M 6.664062 6.203125 L 198.839844 6.203125 L 198.839844 145.292969 L 6.664062 145.292969 Z M 6.664062 6.203125 " clip-rule="nonzero"/></clipPath><clipPath id="2d171d651c"><path d="M 24.625 18.773438 L 180.878906 18.773438 L 180.878906 127.070312 L 24.625 127.070312 Z M 24.625 18.773438 " clip-rule="nonzero"/></clipPath><clipPath id="5ca71d8b89"><path d="M 38.472656 41.421875 L 167.714844 41.421875 L 167.714844 57.734375 L 38.472656 57.734375 Z M 38.472656 41.421875 " clip-rule="nonzero"/></clipPath><clipPath id="1d62f5d5bd"><path d="M 45.769531 95.496094 L 57.769531 95.496094 L 57.769531 107.164062 L 45.769531 107.164062 Z M 45.769531 95.496094 " clip-rule="nonzero"/></clipPath><clipPath id="0a678a017d"><path d="M 168.132812 19.519531 L 180.132812 19.519531 L 180.132812 31.1875 L 168.132812 31.1875 Z M 168.132812 19.519531 " clip-rule="nonzero"/></clipPath><clipPath id="e6ea41d640"><path d="M 87.640625 95.496094 L 99.640625 95.496094 L 99.640625 107.164062 L 87.640625 107.164062 Z M 87.640625 95.496094 " clip-rule="nonzero"/></clipPath><clipPath id="55385590ba"><path d="M 24.625 19.519531 L 167.714844 19.519531 L 167.714844 31.1875 L 24.625 31.1875 Z M 24.625 19.519531 " clip-rule="nonzero"/></clipPath><clipPath id="c273798e61"><path d="M 128.75 95.496094 L 140.75 95.496094 L 140.75 107.164062 L 128.75 107.164062 Z M 128.75 95.496094 " clip-rule="nonzero"/></clipPath><clipPath id="686001780f"><path d="M 149.714844 95.496094 L 161.714844 95.496094 L 161.714844 107.164062 L 149.714844 107.164062 Z M 149.714844 95.496094 " clip-rule="nonzero"/></clipPath><clipPath id="e0244d44d4"><path d="M 66.054688 151.675781 L 140.75 151.675781 L 140.75 179.699219 L 66.054688 179.699219 Z M 66.054688 151.675781 " clip-rule="nonzero"/></clipPath><clipPath id="1adb952b54"><path d="M 38.472656 67.589844 L 93.640625 67.589844 L 93.640625 113.097656 L 38.472656 113.097656 Z M 38.472656 67.589844 " clip-rule="nonzero"/></clipPath><clipPath id="5047e82984"><path d="M 103.511719 66.339844 L 168.132812 66.339844 L 168.132812 72.175781 L 103.511719 72.175781 Z M 103.511719 66.339844 " clip-rule="nonzero"/></clipPath><clipPath id="05ce3c5e62"><path d="M 103.953125 80.539062 L 168.574219 80.539062 L 168.574219 86.375 L 103.953125 86.375 Z M 103.953125 80.539062 " clip-rule="nonzero"/></clipPath></defs><g clip-path="url(#3c99ab5480)"><path fill="#ececec" d="M 6.664062 6.203125 L 198.839844 6.203125 L 198.839844 145.292969 L 6.664062 145.292969 Z M 6.664062 6.203125 " fill-opacity="1" fill-rule="nonzero"/></g><g clip-path="url(#2d171d651c)"><path fill="#bebebe" d="M 24.625 18.773438 L 180.878906 18.773438 L 180.878906 127.070312 L 24.625 127.070312 Z M 24.625 18.773438 " fill-opacity="1" fill-rule="nonzero"/></g><g clip-path="url(#5ca71d8b89)"><path fill="#625e5e" d="M 38.472656 41.421875 L 167.714844 41.421875 L 167.714844 57.734375 L 38.472656 57.734375 Z M 38.472656 41.421875 " fill-opacity="1" fill-rule="nonzero"/></g><g clip-path="url(#1d62f5d5bd)"><path fill="#bebebe" d="M 45.769531 95.496094 L 57.769531 95.496094 L 57.769531 107.164062 L 45.769531 107.164062 Z M 45.769531 95.496094 " fill-opacity="1" fill-rule="nonzero"/></g><g clip-path="url(#0a678a017d)"><path fill="#625e5e" d="M 168.132812 19.519531 L 180.132812 19.519531 L 180.132812 31.1875 L 168.132812 31.1875 Z M 168.132812 19.519531 " fill-opacity="1" fill-rule="nonzero"/></g><g clip-path="url(#e6ea41d640)"><path fill="#bebebe" d="M 87.640625 95.496094 L 99.640625 95.496094 L 99.640625 107.164062 L 87.640625 107.164062 Z M 87.640625 95.496094 " fill-opacity="1" fill-rule="nonzero"/></g><g clip-path="url(#55385590ba)"><path fill="#a6a6a6" d="M 24.625 19.519531 L 167.714844 19.519531 L 167.714844 31.1875 L 24.625 31.1875 Z M 24.625 19.519531 " fill-opacity="1" fill-rule="nonzero"/></g><g clip-path="url(#c273798e61)"><path fill="#bebebe" d="M 128.75 95.496094 L 140.75 95.496094 L 140.75 107.164062 L 128.75 107.164062 Z M 128.75 95.496094 " fill-opacity="1" fill-rule="nonzero"/></g><g clip-path="url(#686001780f)"><path fill="#bebebe" d="M 149.714844 95.496094 L 161.714844 95.496094 L 161.714844 107.164062 L 149.714844 107.164062 Z M 149.714844 95.496094 " fill-opacity="1" fill-rule="nonzero"/></g><g clip-path="url(#e0244d44d4)"><path fill="#ffffff" d="M 66.054688 151.675781 L 140.75 151.675781 L 140.75 179.699219 L 66.054688 179.699219 Z M 66.054688 151.675781 " fill-opacity="1" fill-rule="nonzero"/></g><g fill="#423e3e" fill-opacity="1"><g transform="translate(76.870857, 172.787288)"><g><path d="M 8.425781 0 L 11.835938 -11.316406 L 11.875 -11.316406 L 15.261719 0 L 18.746094 0 L 23.371094 -15.597656 L 20.042969 -15.597656 L 16.972656 -4.441406 L 13.605469 -15.597656 L 10.160156 -15.597656 L 6.792969 -4.523438 L 3.824219 -15.597656 L 0.378906 -15.597656 L 4.960938 0 Z M 8.425781 0 "/></g></g></g><g fill="#423e3e" fill-opacity="1"><g transform="translate(100.595197, 172.787288)"><g><path d="M 1.8125 -15.597656 L 1.8125 0 L 12.074219 0 L 12.074219 -3.007812 L 5 -3.007812 L 5 -6.375 L 11.296875 -6.375 L 11.296875 -9.402344 L 5 -9.402344 L 5 -12.570312 L 12.035156 -12.570312 L 12.035156 -15.597656 Z M 1.8125 -15.597656 "/></g></g></g><g fill="#423e3e" fill-opacity="1"><g transform="translate(113.801948, 172.787288)"><g><path d="M 13.945312 -4.304688 C 13.945312 -6.375 12.929688 -7.410156 11.078125 -8.109375 L 11.078125 -8.148438 C 12.433594 -8.84375 13.269531 -9.921875 13.269531 -11.476562 C 13.269531 -14.265625 10.796875 -15.597656 8.289062 -15.597656 L 1.8125 -15.597656 L 1.8125 0 L 8.386719 0 C 11.136719 0 13.945312 -1.136719 13.945312 -4.304688 Z M 10.101562 -10.976562 C 10.101562 -9.5625 8.765625 -9.265625 7.628906 -9.265625 L 4.960938 -9.265625 L 4.960938 -12.632812 L 7.847656 -12.632812 C 8.925781 -12.632812 10.101562 -12.273438 10.101562 -10.976562 Z M 10.796875 -4.722656 C 10.796875 -3.328125 9.503906 -2.988281 8.347656 -2.988281 L 4.960938 -2.988281 L 4.960938 -6.476562 L 8.246094 -6.476562 C 9.441406 -6.476562 10.796875 -6.175781 10.796875 -4.722656 Z M 10.796875 -4.722656 "/></g></g></g><g clip-path="url(#1adb952b54)"><path fill="#625e5e" d="M 38.472656 67.589844 L 93.640625 67.589844 L 93.640625 113.097656 L 38.472656 113.097656 Z M 38.472656 67.589844 " fill-opacity="1" fill-rule="nonzero"/></g><g clip-path="url(#5047e82984)"><path fill="#625e5e" d="M 103.511719 66.339844 L 168.132812 66.339844 L 168.132812 72.175781 L 103.511719 72.175781 Z M 103.511719 66.339844 " fill-opacity="1" fill-rule="nonzero"/></g><g clip-path="url(#05ce3c5e62)"><path fill="#625e5e" d="M 103.953125 80.539062 L 168.574219 80.539062 L 168.574219 86.375 L 103.953125 86.375 Z M 103.953125 80.539062 " fill-opacity="1" fill-rule="nonzero"/></g></svg>