<svg xmlns="http://www.w3.org/2000/svg" xmlns:xlink="http://www.w3.org/1999/xlink" width="300" zoomAndPan="magnify" viewBox="0 0 224.87999 168.749997" height="225" preserveAspectRatio="xMidYMid meet" version="1.0"><defs><g/><clipPath id="74bf8a7b84"><path d="M 5.984375 6.179688 L 219.1875 6.179688 L 219.1875 162.5625 L 5.984375 162.5625 Z M 5.984375 6.179688 " clip-rule="nonzero"/></clipPath><clipPath id="972163b69e"><path d="M 49.972656 29.957031 L 174.90625 29.957031 L 174.90625 116.546875 L 49.972656 116.546875 Z M 49.972656 29.957031 " clip-rule="nonzero"/></clipPath><clipPath id="8bd23ee114"><path d="M 61.046875 48.066406 L 164.378906 48.066406 L 164.378906 61.109375 L 61.046875 61.109375 Z M 61.046875 48.066406 " clip-rule="nonzero"/></clipPath><clipPath id="cf6398c9f0"><path d="M 66.882812 91.300781 L 76.476562 91.300781 L 76.476562 100.628906 L 66.882812 100.628906 Z M 66.882812 91.300781 " clip-rule="nonzero"/></clipPath><clipPath id="1b727b6e9a"><path d="M 164.714844 30.554688 L 174.308594 30.554688 L 174.308594 39.882812 L 164.714844 39.882812 Z M 164.714844 30.554688 " clip-rule="nonzero"/></clipPath><clipPath id="9b886f6e26"><path d="M 100.359375 91.300781 L 109.953125 91.300781 L 109.953125 100.628906 L 100.359375 100.628906 Z M 100.359375 91.300781 " clip-rule="nonzero"/></clipPath><clipPath id="dac383f8b0"><path d="M 49.972656 30.554688 L 164.378906 30.554688 L 164.378906 39.882812 L 49.972656 39.882812 Z M 49.972656 30.554688 " clip-rule="nonzero"/></clipPath><clipPath id="ac5359885a"><path d="M 133.226562 91.300781 L 142.820312 91.300781 L 142.820312 100.628906 L 133.226562 100.628906 Z M 133.226562 91.300781 " clip-rule="nonzero"/></clipPath><clipPath id="c2ab0b1e2b"><path d="M 149.988281 91.300781 L 159.582031 91.300781 L 159.582031 100.628906 L 149.988281 100.628906 Z M 149.988281 91.300781 " clip-rule="nonzero"/></clipPath><clipPath id="b49a17e42e"><path d="M 61.046875 68.988281 L 105.15625 68.988281 L 105.15625 105.371094 L 61.046875 105.371094 Z M 61.046875 68.988281 " clip-rule="nonzero"/></clipPath><clipPath id="f52380ff59"><path d="M 113.046875 67.988281 L 164.714844 67.988281 L 164.714844 72.652344 L 113.046875 72.652344 Z M 113.046875 67.988281 " clip-rule="nonzero"/></clipPath><clipPath id="fba04ab80d"><path d="M 113.402344 79.34375 L 165.070312 79.34375 L 165.070312 84.007812 L 113.402344 84.007812 Z M 113.402344 79.34375 " clip-rule="nonzero"/></clipPath></defs><g clip-path="url(#74bf8a7b84)"><path fill="#ececec" d="M 5.984375 6.179688 L 219.179688 6.179688 L 219.179688 162.5625 L 5.984375 162.5625 Z M 5.984375 6.179688 " fill-opacity="1" fill-rule="nonzero"/></g><g fill="#423e3e" fill-opacity="1"><g transform="translate(87.799708, 145.878556)"><g><path d="M 8.03125 0 L 4.71875 0 L 0.359375 -14.859375 L 3.640625 -14.859375 L 6.46875 -4.3125 L 9.671875 -14.859375 L 12.953125 -14.859375 L 16.15625 -4.234375 L 19.078125 -14.859375 L 22.25 -14.859375 L 17.84375 0 L 14.53125 0 L 11.3125 -10.78125 L 11.265625 -10.78125 Z M 8.03125 0 "/></g></g></g><g fill="#423e3e" fill-opacity="1"><g transform="translate(110.390613, 145.878556)"><g><path d="M 1.71875 -14.859375 L 11.453125 -14.859375 L 11.453125 -11.96875 L 4.765625 -11.96875 L 4.765625 -8.953125 L 10.75 -8.953125 L 10.75 -6.0625 L 4.765625 -6.0625 L 4.765625 -2.859375 L 11.5 -2.859375 L 11.5 0 L 1.71875 0 Z M 1.71875 -14.859375 "/></g></g></g><g fill="#423e3e" fill-opacity="1"><g transform="translate(122.966411, 145.878556)"><g><path d="M 13.28125 -4.09375 C 13.28125 -3.332031 13.128906 -2.691406 12.828125 -2.171875 C 12.523438 -1.660156 12.117188 -1.242188 11.609375 -0.921875 C 11.097656 -0.597656 10.53125 -0.363281 9.90625 -0.21875 C 9.28125 -0.0703125 8.640625 0 7.984375 0 L 1.71875 0 L 1.71875 -14.859375 L 7.890625 -14.859375 C 8.691406 -14.859375 9.453125 -14.710938 10.171875 -14.421875 C 10.898438 -14.140625 11.492188 -13.707031 11.953125 -13.125 C 12.410156 -12.539062 12.640625 -11.804688 12.640625 -10.921875 C 12.640625 -10.191406 12.453125 -9.5625 12.078125 -9.03125 C 11.703125 -8.507812 11.191406 -8.085938 10.546875 -7.765625 L 10.546875 -7.71875 C 11.429688 -7.394531 12.109375 -6.957031 12.578125 -6.40625 C 13.046875 -5.851562 13.28125 -5.082031 13.28125 -4.09375 Z M 9.625 -10.453125 C 9.625 -10.867188 9.515625 -11.191406 9.296875 -11.421875 C 9.078125 -11.648438 8.800781 -11.804688 8.46875 -11.890625 C 8.144531 -11.984375 7.8125 -12.03125 7.46875 -12.03125 L 4.71875 -12.03125 L 4.71875 -8.828125 L 7.265625 -8.828125 C 7.628906 -8.828125 7.988281 -8.863281 8.34375 -8.9375 C 8.707031 -9.019531 9.007812 -9.179688 9.25 -9.421875 C 9.5 -9.660156 9.625 -10.003906 9.625 -10.453125 Z M 10.28125 -4.5 C 10.28125 -4.96875 10.15625 -5.316406 9.90625 -5.546875 C 9.664062 -5.785156 9.359375 -5.945312 8.984375 -6.03125 C 8.609375 -6.125 8.234375 -6.171875 7.859375 -6.171875 L 4.71875 -6.171875 L 4.71875 -2.84375 L 7.953125 -2.84375 C 8.316406 -2.84375 8.675781 -2.882812 9.03125 -2.96875 C 9.394531 -3.0625 9.691406 -3.226562 9.921875 -3.46875 C 10.160156 -3.707031 10.28125 -4.050781 10.28125 -4.5 Z M 10.28125 -4.5 "/></g></g></g><g clip-path="url(#972163b69e)"><path fill="#bebebe" d="M 49.972656 29.957031 L 174.785156 29.957031 L 174.785156 116.546875 L 49.972656 116.546875 Z M 49.972656 29.957031 " fill-opacity="1" fill-rule="nonzero"/></g><g clip-path="url(#8bd23ee114)"><path fill="#625e5e" d="M 61.046875 48.066406 L 164.367188 48.066406 L 164.367188 61.109375 L 61.046875 61.109375 Z M 61.046875 48.066406 " fill-opacity="1" fill-rule="nonzero"/></g><g clip-path="url(#cf6398c9f0)"><path fill="#bebebe" d="M 66.882812 91.300781 L 76.464844 91.300781 L 76.464844 100.628906 L 66.882812 100.628906 Z M 66.882812 91.300781 " fill-opacity="1" fill-rule="nonzero"/></g><g clip-path="url(#1b727b6e9a)"><path fill="#625e5e" d="M 164.714844 30.554688 L 174.296875 30.554688 L 174.296875 39.882812 L 164.714844 39.882812 Z M 164.714844 30.554688 " fill-opacity="1" fill-rule="nonzero"/></g><g clip-path="url(#9b886f6e26)"><path fill="#bebebe" d="M 100.359375 91.300781 L 109.941406 91.300781 L 109.941406 100.628906 L 100.359375 100.628906 Z M 100.359375 91.300781 " fill-opacity="1" fill-rule="nonzero"/></g><g clip-path="url(#dac383f8b0)"><path fill="#a6a6a6" d="M 49.972656 30.554688 L 164.394531 30.554688 L 164.394531 39.882812 L 49.972656 39.882812 Z M 49.972656 30.554688 " fill-opacity="1" fill-rule="nonzero"/></g><g clip-path="url(#ac5359885a)"><path fill="#bebebe" d="M 133.226562 91.300781 L 142.808594 91.300781 L 142.808594 100.628906 L 133.226562 100.628906 Z M 133.226562 91.300781 " fill-opacity="1" fill-rule="nonzero"/></g><g clip-path="url(#c2ab0b1e2b)"><path fill="#bebebe" d="M 149.988281 91.300781 L 159.574219 91.300781 L 159.574219 100.628906 L 149.988281 100.628906 Z M 149.988281 91.300781 " fill-opacity="1" fill-rule="nonzero"/></g><g clip-path="url(#b49a17e42e)"><path fill="#625e5e" d="M 61.046875 68.988281 L 105.101562 68.988281 L 105.101562 105.371094 L 61.046875 105.371094 Z M 61.046875 68.988281 " fill-opacity="1" fill-rule="nonzero"/></g><g clip-path="url(#f52380ff59)"><path fill="#625e5e" d="M 113.046875 67.988281 L 164.71875 67.988281 L 164.71875 72.652344 L 113.046875 72.652344 Z M 113.046875 67.988281 " fill-opacity="1" fill-rule="nonzero"/></g><g clip-path="url(#fba04ab80d)"><path fill="#625e5e" d="M 113.402344 79.34375 L 165.074219 79.34375 L 165.074219 84.007812 L 113.402344 84.007812 Z M 113.402344 79.34375 " fill-opacity="1" fill-rule="nonzero"/></g></svg>