<svg xmlns="http://www.w3.org/2000/svg" xmlns:xlink="http://www.w3.org/1999/xlink" width="275" zoomAndPan="magnify" viewBox="0 0 206.25 187.499992" height="250" preserveAspectRatio="xMidYMid meet" version="1.0"><defs><g/><clipPath id="857459d53a"><path d="M 66.054688 151.675781 L 140.75 151.675781 L 140.75 179.699219 L 66.054688 179.699219 Z M 66.054688 151.675781 " clip-rule="nonzero"/></clipPath><clipPath id="123fd43482"><path d="M 6.664062 6.203125 L 198.839844 6.203125 L 198.839844 145.292969 L 6.664062 145.292969 Z M 6.664062 6.203125 " clip-rule="nonzero"/></clipPath><clipPath id="9398237e57"><path d="M 35.03125 28.363281 L 171.773438 28.363281 L 171.773438 123.132812 L 35.03125 123.132812 Z M 35.03125 28.363281 " clip-rule="nonzero"/></clipPath><clipPath id="d01117669f"><path d="M 47.152344 48.183594 L 160.253906 48.183594 L 160.253906 62.457031 L 47.152344 62.457031 Z M 47.152344 48.183594 " clip-rule="nonzero"/></clipPath><clipPath id="541528d5e7"><path d="M 53.539062 95.503906 L 64.039062 95.503906 L 64.039062 105.710938 L 53.539062 105.710938 Z M 53.539062 95.503906 " clip-rule="nonzero"/></clipPath><clipPath id="6cdec3e232"><path d="M 160.617188 29.015625 L 171.117188 29.015625 L 171.117188 39.226562 L 160.617188 39.226562 Z M 160.617188 29.015625 " clip-rule="nonzero"/></clipPath><clipPath id="d301af88b5"><path d="M 90.179688 95.503906 L 100.679688 95.503906 L 100.679688 105.710938 L 90.179688 105.710938 Z M 90.179688 95.503906 " clip-rule="nonzero"/></clipPath><clipPath id="979337b65c"><path d="M 35.03125 29.015625 L 160.253906 29.015625 L 160.253906 39.226562 L 35.03125 39.226562 Z M 35.03125 29.015625 " clip-rule="nonzero"/></clipPath><clipPath id="c5d51aae3e"><path d="M 126.152344 95.503906 L 136.652344 95.503906 L 136.652344 105.710938 L 126.152344 105.710938 Z M 126.152344 95.503906 " clip-rule="nonzero"/></clipPath><clipPath id="c6689dca70"><path d="M 144.5 95.503906 L 155.003906 95.503906 L 155.003906 105.710938 L 144.5 105.710938 Z M 144.5 95.503906 " clip-rule="nonzero"/></clipPath><clipPath id="b8c9618db0"><path d="M 47.152344 71.082031 L 95.429688 71.082031 L 95.429688 110.90625 L 47.152344 110.90625 Z M 47.152344 71.082031 " clip-rule="nonzero"/></clipPath><clipPath id="d98ccc5044"><path d="M 104.066406 69.988281 L 160.617188 69.988281 L 160.617188 75.09375 L 104.066406 75.09375 Z M 104.066406 69.988281 " clip-rule="nonzero"/></clipPath><clipPath id="7d234d3801"><path d="M 104.453125 82.414062 L 161.003906 82.414062 L 161.003906 87.519531 L 104.453125 87.519531 Z M 104.453125 82.414062 " clip-rule="nonzero"/></clipPath></defs><g clip-path="url(#857459d53a)"><path fill="#ffffff" d="M 66.054688 151.675781 L 140.75 151.675781 L 140.75 179.699219 L 66.054688 179.699219 Z M 66.054688 151.675781 " fill-opacity="1" fill-rule="nonzero"/></g><g fill="#423e3e" fill-opacity="1"><g transform="translate(76.870857, 172.787288)"><g><path d="M 8.425781 0 L 11.835938 -11.316406 L 11.875 -11.316406 L 15.261719 0 L 18.746094 0 L 23.371094 -15.597656 L 20.042969 -15.597656 L 16.972656 -4.441406 L 13.605469 -15.597656 L 10.160156 -15.597656 L 6.792969 -4.523438 L 3.824219 -15.597656 L 0.378906 -15.597656 L 4.960938 0 Z M 8.425781 0 "/></g></g></g><g fill="#423e3e" fill-opacity="1"><g transform="translate(100.595197, 172.787288)"><g><path d="M 1.8125 -15.597656 L 1.8125 0 L 12.074219 0 L 12.074219 -3.007812 L 5 -3.007812 L 5 -6.375 L 11.296875 -6.375 L 11.296875 -9.402344 L 5 -9.402344 L 5 -12.570312 L 12.035156 -12.570312 L 12.035156 -15.597656 Z M 1.8125 -15.597656 "/></g></g></g><g fill="#423e3e" fill-opacity="1"><g transform="translate(113.801948, 172.787288)"><g><path d="M 13.945312 -4.304688 C 13.945312 -6.375 12.929688 -7.410156 11.078125 -8.109375 L 11.078125 -8.148438 C 12.433594 -8.84375 13.269531 -9.921875 13.269531 -11.476562 C 13.269531 -14.265625 10.796875 -15.597656 8.289062 -15.597656 L 1.8125 -15.597656 L 1.8125 0 L 8.386719 0 C 11.136719 0 13.945312 -1.136719 13.945312 -4.304688 Z M 10.101562 -10.976562 C 10.101562 -9.5625 8.765625 -9.265625 7.628906 -9.265625 L 4.960938 -9.265625 L 4.960938 -12.632812 L 7.847656 -12.632812 C 8.925781 -12.632812 10.101562 -12.273438 10.101562 -10.976562 Z M 10.796875 -4.722656 C 10.796875 -3.328125 9.503906 -2.988281 8.347656 -2.988281 L 4.960938 -2.988281 L 4.960938 -6.476562 L 8.246094 -6.476562 C 9.441406 -6.476562 10.796875 -6.175781 10.796875 -4.722656 Z M 10.796875 -4.722656 "/></g></g></g><g clip-path="url(#123fd43482)"><path fill="#ececec" d="M 6.664062 6.203125 L 198.839844 6.203125 L 198.839844 145.292969 L 6.664062 145.292969 Z M 6.664062 6.203125 " fill-opacity="1" fill-rule="nonzero"/></g><g clip-path="url(#9398237e57)"><path fill="#bebebe" d="M 35.03125 28.363281 L 171.773438 28.363281 L 171.773438 123.132812 L 35.03125 123.132812 Z M 35.03125 28.363281 " fill-opacity="1" fill-rule="nonzero"/></g><g clip-path="url(#d01117669f)"><path fill="#625e5e" d="M 47.152344 48.183594 L 160.253906 48.183594 L 160.253906 62.457031 L 47.152344 62.457031 Z M 47.152344 48.183594 " fill-opacity="1" fill-rule="nonzero"/></g><g clip-path="url(#541528d5e7)"><path fill="#bebebe" d="M 53.539062 95.503906 L 64.039062 95.503906 L 64.039062 105.710938 L 53.539062 105.710938 Z M 53.539062 95.503906 " fill-opacity="1" fill-rule="nonzero"/></g><g clip-path="url(#6cdec3e232)"><path fill="#625e5e" d="M 160.617188 29.015625 L 171.117188 29.015625 L 171.117188 39.226562 L 160.617188 39.226562 Z M 160.617188 29.015625 " fill-opacity="1" fill-rule="nonzero"/></g><g clip-path="url(#d301af88b5)"><path fill="#bebebe" d="M 90.179688 95.503906 L 100.679688 95.503906 L 100.679688 105.710938 L 90.179688 105.710938 Z M 90.179688 95.503906 " fill-opacity="1" fill-rule="nonzero"/></g><g clip-path="url(#979337b65c)"><path fill="#a6a6a6" d="M 35.03125 29.015625 L 160.253906 29.015625 L 160.253906 39.226562 L 35.03125 39.226562 Z M 35.03125 29.015625 " fill-opacity="1" fill-rule="nonzero"/></g><g clip-path="url(#c5d51aae3e)"><path fill="#bebebe" d="M 126.152344 95.503906 L 136.652344 95.503906 L 136.652344 105.710938 L 126.152344 105.710938 Z M 126.152344 95.503906 " fill-opacity="1" fill-rule="nonzero"/></g><g clip-path="url(#c6689dca70)"><path fill="#bebebe" d="M 144.5 95.503906 L 155.003906 95.503906 L 155.003906 105.710938 L 144.5 105.710938 Z M 144.5 95.503906 " fill-opacity="1" fill-rule="nonzero"/></g><g clip-path="url(#b8c9618db0)"><path fill="#625e5e" d="M 47.152344 71.082031 L 95.429688 71.082031 L 95.429688 110.90625 L 47.152344 110.90625 Z M 47.152344 71.082031 " fill-opacity="1" fill-rule="nonzero"/></g><g clip-path="url(#d98ccc5044)"><path fill="#625e5e" d="M 104.066406 69.988281 L 160.617188 69.988281 L 160.617188 75.09375 L 104.066406 75.09375 Z M 104.066406 69.988281 " fill-opacity="1" fill-rule="nonzero"/></g><g clip-path="url(#7d234d3801)"><path fill="#625e5e" d="M 104.453125 82.414062 L 161.003906 82.414062 L 161.003906 87.519531 L 104.453125 87.519531 Z M 104.453125 82.414062 " fill-opacity="1" fill-rule="nonzero"/></g></svg>