<svg xmlns="http://www.w3.org/2000/svg" xmlns:xlink="http://www.w3.org/1999/xlink" width="61" zoomAndPan="magnify" viewBox="0 0 46.079998 37.92" height="40" preserveAspectRatio="xMidYMid meet" version="1.2"><defs><clipPath id="59c72a997e"><path d="M 2.824219 1.453125 L 42 1.453125 L 42 28.625 L 2.824219 28.625 Z M 2.824219 1.453125 "/></clipPath><clipPath id="01a19baf4c"><path d="M 6.300781 7.136719 L 38.726562 7.136719 L 38.726562 11.226562 L 6.300781 11.226562 Z M 6.300781 7.136719 "/></clipPath><clipPath id="58ffac8d14"><path d="M 8.128906 20.703125 L 11.140625 20.703125 L 11.140625 23.628906 L 8.128906 23.628906 Z M 8.128906 20.703125 "/></clipPath><clipPath id="0dfd51b750"><path d="M 38.832031 1.640625 L 41.84375 1.640625 L 41.84375 4.566406 L 38.832031 4.566406 Z M 38.832031 1.640625 "/></clipPath><clipPath id="b7d08d9a0f"><path d="M 18.636719 20.703125 L 21.648438 20.703125 L 21.648438 23.628906 L 18.636719 23.628906 Z M 18.636719 20.703125 "/></clipPath><clipPath id="d5b9db9c13"><path d="M 2.929688 1.507812 L 38.832031 1.507812 L 38.832031 4.4375 L 2.929688 4.4375 Z M 2.929688 1.507812 "/></clipPath><clipPath id="1ea4e72e73"><path d="M 28.949219 20.703125 L 31.960938 20.703125 L 31.960938 23.628906 L 28.949219 23.628906 Z M 28.949219 20.703125 "/></clipPath><clipPath id="053d2aa598"><path d="M 34.210938 20.703125 L 37.222656 20.703125 L 37.222656 23.628906 L 34.210938 23.628906 Z M 34.210938 20.703125 "/></clipPath><clipPath id="fd54248273"><path d="M 6.300781 13.699219 L 20.140625 13.699219 L 20.140625 25.117188 L 6.300781 25.117188 Z M 6.300781 13.699219 "/></clipPath><clipPath id="bcd2803b73"><path d="M 22.617188 13.386719 L 38.832031 13.386719 L 38.832031 14.851562 L 22.617188 14.851562 Z M 22.617188 13.386719 "/></clipPath><clipPath id="786a1e7cad"><path d="M 22.730469 16.949219 L 38.941406 16.949219 L 38.941406 18.414062 L 22.730469 18.414062 Z M 22.730469 16.949219 "/></clipPath></defs><g id="808a327c2f"><g clip-rule="nonzero" clip-path="url(#59c72a997e)"><path style=" stroke:none;fill-rule:nonzero;fill:#bab8b7;fill-opacity:1;" d="M 2.824219 1.453125 L 41.992188 1.453125 L 41.992188 28.625 L 2.824219 28.625 Z M 2.824219 1.453125 "/></g><g clip-rule="nonzero" clip-path="url(#01a19baf4c)"><path style=" stroke:none;fill-rule:nonzero;fill:#585958;fill-opacity:1;" d="M 6.300781 7.136719 L 38.722656 7.136719 L 38.722656 11.226562 L 6.300781 11.226562 Z M 6.300781 7.136719 "/></g><g clip-rule="nonzero" clip-path="url(#58ffac8d14)"><path style=" stroke:none;fill-rule:nonzero;fill:#bab8b7;fill-opacity:1;" d="M 8.128906 20.703125 L 11.136719 20.703125 L 11.136719 23.628906 L 8.128906 23.628906 Z M 8.128906 20.703125 "/></g><g clip-rule="nonzero" clip-path="url(#0dfd51b750)"><path style=" stroke:none;fill-rule:nonzero;fill:#585958;fill-opacity:1;" d="M 38.832031 1.640625 L 41.839844 1.640625 L 41.839844 4.566406 L 38.832031 4.566406 Z M 38.832031 1.640625 "/></g><g clip-rule="nonzero" clip-path="url(#b7d08d9a0f)"><path style=" stroke:none;fill-rule:nonzero;fill:#bab8b7;fill-opacity:1;" d="M 18.636719 20.703125 L 21.644531 20.703125 L 21.644531 23.628906 L 18.636719 23.628906 Z M 18.636719 20.703125 "/></g><g clip-rule="nonzero" clip-path="url(#d5b9db9c13)"><path style=" stroke:none;fill-rule:nonzero;fill:#e4e2df;fill-opacity:1;" d="M 2.929688 1.507812 L 38.835938 1.507812 L 38.835938 4.4375 L 2.929688 4.4375 Z M 2.929688 1.507812 "/></g><g clip-rule="nonzero" clip-path="url(#1ea4e72e73)"><path style=" stroke:none;fill-rule:nonzero;fill:#bab8b7;fill-opacity:1;" d="M 28.949219 20.703125 L 31.957031 20.703125 L 31.957031 23.628906 L 28.949219 23.628906 Z M 28.949219 20.703125 "/></g><g clip-rule="nonzero" clip-path="url(#053d2aa598)"><path style=" stroke:none;fill-rule:nonzero;fill:#bab8b7;fill-opacity:1;" d="M 34.210938 20.703125 L 37.21875 20.703125 L 37.21875 23.628906 L 34.210938 23.628906 Z M 34.210938 20.703125 "/></g><g clip-rule="nonzero" clip-path="url(#fd54248273)"><path style=" stroke:none;fill-rule:nonzero;fill:#585958;fill-opacity:1;" d="M 6.300781 13.699219 L 20.125 13.699219 L 20.125 25.117188 L 6.300781 25.117188 Z M 6.300781 13.699219 "/></g><g clip-rule="nonzero" clip-path="url(#bcd2803b73)"><path style=" stroke:none;fill-rule:nonzero;fill:#585958;fill-opacity:1;" d="M 22.617188 13.386719 L 38.832031 13.386719 L 38.832031 14.851562 L 22.617188 14.851562 Z M 22.617188 13.386719 "/></g><g clip-rule="nonzero" clip-path="url(#786a1e7cad)"><path style=" stroke:none;fill-rule:nonzero;fill:#585958;fill-opacity:1;" d="M 22.730469 16.949219 L 38.945312 16.949219 L 38.945312 18.414062 L 22.730469 18.414062 Z M 22.730469 16.949219 "/></g></g></svg>