<svg xmlns="http://www.w3.org/2000/svg" xmlns:xlink="http://www.w3.org/1999/xlink" width="61" zoomAndPan="magnify" viewBox="0 0 45.75 30.000001" height="40" preserveAspectRatio="xMidYMid meet" version="1.2"><defs><clipPath id="ecad603de6"><path d="M 0.617188 0 L 44.890625 0 L 44.890625 29.03125 L 0.617188 29.03125 Z M 0.617188 0 "/></clipPath><clipPath id="a2b2adc224"><path d="M 3.40625 1.105469 L 42.105469 1.105469 L 42.105469 27.925781 L 3.40625 27.925781 Z M 3.40625 1.105469 "/></clipPath><clipPath id="65e90a0e6f"><path d="M 6.835938 6.714844 L 38.84375 6.714844 L 38.84375 10.753906 L 6.835938 10.753906 Z M 6.835938 6.714844 "/></clipPath><clipPath id="ba93ab32e5"><path d="M 8.640625 20.105469 L 11.613281 20.105469 L 11.613281 22.996094 L 8.640625 22.996094 Z M 8.640625 20.105469 "/></clipPath><clipPath id="caf35892b2"><path d="M 38.945312 1.289062 L 41.917969 1.289062 L 41.917969 4.179688 L 38.945312 4.179688 Z M 38.945312 1.289062 "/></clipPath><clipPath id="f462d3b19f"><path d="M 19.011719 20.105469 L 21.984375 20.105469 L 21.984375 22.996094 L 19.011719 22.996094 Z M 19.011719 20.105469 "/></clipPath><clipPath id="d7f3648720"><path d="M 3.40625 1.289062 L 38.84375 1.289062 L 38.84375 4.179688 L 3.40625 4.179688 Z M 3.40625 1.289062 "/></clipPath><clipPath id="7bfccdf45b"><path d="M 29.191406 20.105469 L 32.164062 20.105469 L 32.164062 22.996094 L 29.191406 22.996094 Z M 29.191406 20.105469 "/></clipPath><clipPath id="85f1873a88"><path d="M 34.386719 20.105469 L 37.355469 20.105469 L 37.355469 22.996094 L 34.386719 22.996094 Z M 34.386719 20.105469 "/></clipPath><clipPath id="3da7447cc9"><path d="M 6.835938 13.195312 L 20.496094 13.195312 L 20.496094 24.464844 L 6.835938 24.464844 Z M 6.835938 13.195312 "/></clipPath><clipPath id="9894ca8def"><path d="M 22.941406 12.886719 L 38.945312 12.886719 L 38.945312 14.332031 L 22.941406 14.332031 Z M 22.941406 12.886719 "/></clipPath><clipPath id="0615497242"><path d="M 23.050781 16.402344 L 39.054688 16.402344 L 39.054688 17.847656 L 23.050781 17.847656 Z M 23.050781 16.402344 "/></clipPath></defs><g id="d6a6556d0b"><g clip-rule="nonzero" clip-path="url(#ecad603de6)"><path style=" stroke:none;fill-rule:nonzero;fill:#ffffff;fill-opacity:1;" d="M 0.617188 0 L 44.890625 0 L 44.890625 29.03125 L 0.617188 29.03125 Z M 0.617188 0 "/><path style=" stroke:none;fill-rule:nonzero;fill:#ffffff;fill-opacity:1;" d="M 0.617188 0 L 44.890625 0 L 44.890625 29.03125 L 0.617188 29.03125 Z M 0.617188 0 "/></g><g clip-rule="nonzero" clip-path="url(#a2b2adc224)"><path style=" stroke:none;fill-rule:nonzero;fill:#bebebe;fill-opacity:1;" d="M 3.40625 1.105469 L 42.066406 1.105469 L 42.066406 27.925781 L 3.40625 27.925781 Z M 3.40625 1.105469 "/></g><g clip-rule="nonzero" clip-path="url(#65e90a0e6f)"><path style=" stroke:none;fill-rule:nonzero;fill:#625e5e;fill-opacity:1;" d="M 6.835938 6.714844 L 38.839844 6.714844 L 38.839844 10.753906 L 6.835938 10.753906 Z M 6.835938 6.714844 "/></g><g clip-rule="nonzero" clip-path="url(#ba93ab32e5)"><path style=" stroke:none;fill-rule:nonzero;fill:#bebebe;fill-opacity:1;" d="M 8.640625 20.105469 L 11.609375 20.105469 L 11.609375 22.996094 L 8.640625 22.996094 Z M 8.640625 20.105469 "/></g><g clip-rule="nonzero" clip-path="url(#caf35892b2)"><path style=" stroke:none;fill-rule:nonzero;fill:#625e5e;fill-opacity:1;" d="M 38.945312 1.289062 L 41.914062 1.289062 L 41.914062 4.179688 L 38.945312 4.179688 Z M 38.945312 1.289062 "/></g><g clip-rule="nonzero" clip-path="url(#f462d3b19f)"><path style=" stroke:none;fill-rule:nonzero;fill:#bebebe;fill-opacity:1;" d="M 19.011719 20.105469 L 21.980469 20.105469 L 21.980469 22.996094 L 19.011719 22.996094 Z M 19.011719 20.105469 "/></g><g clip-rule="nonzero" clip-path="url(#d7f3648720)"><path style=" stroke:none;fill-rule:nonzero;fill:#a6a6a6;fill-opacity:1;" d="M 3.40625 1.289062 L 38.847656 1.289062 L 38.847656 4.179688 L 3.40625 4.179688 Z M 3.40625 1.289062 "/></g><g clip-rule="nonzero" clip-path="url(#7bfccdf45b)"><path style=" stroke:none;fill-rule:nonzero;fill:#bebebe;fill-opacity:1;" d="M 29.191406 20.105469 L 32.160156 20.105469 L 32.160156 22.996094 L 29.191406 22.996094 Z M 29.191406 20.105469 "/></g><g clip-rule="nonzero" clip-path="url(#85f1873a88)"><path style=" stroke:none;fill-rule:nonzero;fill:#bebebe;fill-opacity:1;" d="M 34.386719 20.105469 L 37.355469 20.105469 L 37.355469 22.996094 L 34.386719 22.996094 Z M 34.386719 20.105469 "/></g><g clip-rule="nonzero" clip-path="url(#3da7447cc9)"><path style=" stroke:none;fill-rule:nonzero;fill:#625e5e;fill-opacity:1;" d="M 6.835938 13.195312 L 20.480469 13.195312 L 20.480469 24.464844 L 6.835938 24.464844 Z M 6.835938 13.195312 "/></g><g clip-rule="nonzero" clip-path="url(#9894ca8def)"><path style=" stroke:none;fill-rule:nonzero;fill:#625e5e;fill-opacity:1;" d="M 22.941406 12.886719 L 38.949219 12.886719 L 38.949219 14.332031 L 22.941406 14.332031 Z M 22.941406 12.886719 "/></g><g clip-rule="nonzero" clip-path="url(#0615497242)"><path style=" stroke:none;fill-rule:nonzero;fill:#625e5e;fill-opacity:1;" d="M 23.050781 16.402344 L 39.058594 16.402344 L 39.058594 17.847656 L 23.050781 17.847656 Z M 23.050781 16.402344 "/></g></g></svg>