<?xml version="1.0" encoding="UTF-8"?>
<svg id="Layer_1" xmlns="http://www.w3.org/2000/svg" xmlns:xlink="http://www.w3.org/1999/xlink" version="1.1" viewBox="0 0 654.8 133.5">
  <!-- Generator: Adobe Illustrator 29.4.0, SVG Export Plug-In . SVG Version: 2.1.0 Build 152)  -->
  <defs>
    <style>
      .st0 {
        fill: none;
      }

      .st1 {
        fill: url(#linear-gradient1);
      }

      .st2 {
        fill: url(#linear-gradient);
      }

      .st3 {
        fill: #2563eb;
      }

      .st4 {
        fill: #fff;
      }
    </style>
    <linearGradient id="linear-gradient" x1="21.9" y1="2941.2" x2="52.6" y2="2971.8" gradientTransform="translate(0 -2919.7)" gradientUnits="userSpaceOnUse">
      <stop offset="0" stop-color="#60a5fa"/>
      <stop offset=".8" stop-color="#3b82f6"/>
    </linearGradient>
    <linearGradient id="linear-gradient1" x1="87.3" y1="2989.6" x2="133.5" y2="2989.6" gradientTransform="translate(0 -2919.7)" gradientUnits="userSpaceOnUse">
      <stop offset="0" stop-color="#1d4ed8"/>
      <stop offset=".4" stop-color="#1e52db"/>
      <stop offset=".9" stop-color="#235ee6"/>
      <stop offset="1" stop-color="#2563eb"/>
    </linearGradient>
  </defs>
  <circle class="st4" cx="66.7" cy="66.7" r="66.7"/>
  <g>
    <polygon class="st0" points="63.3 46.2 87.3 23 101.2 9.6 63.3 46.2 63.3 46.2"/>
    <polygon class="st0" points="35.3 73.2 8.4 99.2 35.3 73.2 35.3 73.2"/>
    <path class="st2" d="M35.3,72.7c0-8.2,2.1-14.7,6.3-19.7,4.2-4.9,9.7-7.4,16.5-7.4s3.6.2,5.1.6L101.2,9.6C91.2,3.5,79.4,0,66.7,0,29.9,0,0,29.9,0,66.7s3,22.8,8.4,32.4l26.9-26v-.5h0Z"/>
    <path class="st1" d="M101.2,9.6l-13.9,13.4h0v73.3h0v33.9c26.8-8.7,46.2-33.8,46.2-63.5s-12.9-45.4-32.2-57.1Z"/>
    <path class="st3" d="M61.9,57.3c-3.4,0-6.1,1.3-8,4-1.9,2.7-2.9,6.3-2.9,11s.9,7.7,2.8,10.1c1.9,2.3,4.4,3.5,7.7,3.5s5.7-1.2,7.6-3.7,3-5.8,3-9.9v-3.7c0-3.2-.9-5.9-2.8-8-1.9-2.1-4.3-3.2-7.4-3.2h0Z"/>
    <path class="st3" d="M71.9,96.3v-6.8h-.2c-3.5,5.3-8.7,8-15.5,8s-11.3-2.2-15.1-6.6c-3.7-4.3-5.6-9.9-5.7-17.8l-26.9,26c11.4,20.4,33.2,34.3,58.3,34.3s14.1-1.1,20.6-3.2h0v-33.9h-15.5Z"/>
    <path class="st3" d="M71.7,52.5h0v-14.3h0l15.7-15.1h0l-24,23.2c3.8.9,6.6,3,8.4,6.3h0Z"/>
    <polygon class="st4" points="63.3 46.2 35.3 73.2 35.3 73.2 63.3 46.2 63.3 46.2"/>
    <path class="st4" d="M58.2,45.6c-6.8,0-12.3,2.5-16.5,7.4-4.2,4.9-6.3,11.5-6.3,19.7v.5l28-27c-1.5-.4-3.3-.6-5.1-.6h0Z"/>
    <rect class="st4" x="87.3" y="23" height="73.3"/>
    <path class="st4" d="M71.6,38.2v14.3h0c-1.8-3.2-4.6-5.3-8.4-6.2l-28,27c0,7.9,2,13.5,5.7,17.8,3.8,4.4,8.8,6.6,15.1,6.6s12-2.7,15.5-8h.2v6.8h15.4V23l-15.7,15.1h0ZM72.2,72.3c0,4.1-1,7.4-3,9.9-2,2.5-4.5,3.7-7.7,3.7s-5.9-1.2-7.7-3.5-2.8-5.7-2.8-10.1,1-8.3,2.9-11c1.9-2.7,4.6-4,8-4s5.5,1.1,7.4,3.2c1.9,2.1,2.8,4.8,2.8,8v3.7h0Z"/>
  </g>
  <g>
    <path class="st4" d="M598.5,37.6c-1.7-.9-3.7-1.4-6-1.4s-5.5,1.1-7.2,3.3c-1.7,2.2-2.6,5.3-2.6,9.1v21.7h-14.2V24.9h14.2v8.4h.2c2.2-6.1,6.3-9.2,12.1-9.2s2.7.2,3.5.5v12.9h0Z"/>
    <path id="e" class="st4" d="M554.6,29.5c-3.7-4-8.8-6-15.5-6s-11.9,2.2-16.3,6.7c-4.4,4.5-6.6,10.5-6.6,18.1s2,13.1,6.1,17.2c4.1,4.1,9.8,6.2,17.3,6.2s6.5-.3,9.3-.9l7.2-12.8h0c-3.8,2.4-8.3,3.6-13.3,3.6-7.9,0-12.1-3.3-12.6-10h29.9v-6c0-6.8-1.8-12.2-5.5-16.2h0ZM530.1,43c.4-2.8,1.4-5.2,3-7,1.7-1.9,3.6-2.8,5.9-2.8,5.3,0,8,3.3,8,9.9h-16.9,0Z"/>
    <path class="st4" d="M507.7,70.3h-14.1v-25.2c0-7-2.5-10.5-7.6-10.5s-4.5.9-6,2.8-2.4,4.2-2.4,7.1v25.9h-14.2V24.9h14.2v7.2h.2c3.4-5.5,8.3-8.3,14.7-8.3,10.2,0,15.2,6.2,15.2,18.7v27.8Z"/>
    <rect class="st4" x="437.3" y="24.9" width="14.2" height="45.4"/>
    <path class="st4" d="M444.4,19.7c-2.4,0-4.4-.8-5.9-2.4s-2.3-3.5-2.3-5.9.8-4.3,2.3-5.8c1.5-1.5,3.5-2.3,5.9-2.3s4.4.8,5.9,2.3c1.5,1.5,2.3,3.5,2.3,5.8s-.8,4.4-2.3,5.9c-1.5,1.5-3.5,2.3-5.9,2.3h0Z"/>
    <path class="st4" d="M426.1,70.3h-14.1v-25.9c0-6.6-2.5-9.9-7.4-9.9s-4.2,1-5.7,3c-1.5,2-2.2,4.5-2.2,7.4v25.4h-14.2v-26.1c0-6.4-2.4-9.6-7.2-9.6s-4.4,1-5.8,2.8c-1.5,1.9-2.2,4.5-2.2,7.7v25.2h-14.2V24.9h14.2v7.1h.2c1.5-2.4,3.5-4.4,6.2-5.9s5.5-2.3,8.7-2.3c6.5,0,10.9,2.8,13.3,8.5,3.5-5.6,8.6-8.5,15.4-8.5,10,0,15,6.1,15,18.2v28.2Z"/>
    <path class="st4" d="M342,70.3h-13.4v-6.5h-.2c-3.1,5.1-7.6,7.6-13.7,7.6s-8-1.2-10.5-3.8c-2.5-2.5-3.8-5.8-3.8-10,0-8.8,5.3-13.9,15.8-15.2l12.5-1.6c0-5-2.7-7.4-8.2-7.4s-10.7,1.6-15.6,4.8v-10.5c2-1,4.7-1.9,8.1-2.7,3.4-.8,6.5-1.1,9.3-1.1,13.1,0,19.6,6.4,19.6,19.4v27.1h0ZM328.7,51.9v-3.1l-8.3,1.1c-4.6.6-6.9,2.7-6.9,6.2s.6,2.9,1.7,3.9c1.1,1,2.6,1.5,4.5,1.5s4.8-.9,6.5-2.7c1.7-1.8,2.5-4.1,2.5-6.9h0Z"/>
    <path class="st4" d="M295.8,69.8c-2.1,1.1-5.2,1.6-9.5,1.6-10,0-15-5.1-15-15.4v-20.8h-7.4v-10.3h7.4v-7.9l14.1-13.9v21.8h10.3v10.3h-10.3v18.3c0,4.7,1.9,7.1,5.7,7.1s3-.4,4.6-1.3v10.4Z"/>
    <path class="st4" d="M256.9,70.3h-13.4v-6.5h-.2c-3.1,5.1-7.6,7.6-13.7,7.6s-8-1.2-10.5-3.8c-2.6-2.5-3.8-5.8-3.8-10,0-8.8,5.3-13.9,15.8-15.2l12.5-1.6c0-5-2.7-7.4-8.2-7.4s-10.7,1.6-15.6,4.8v-10.5c2-1,4.7-1.9,8.1-2.7s6.5-1.1,9.3-1.1c13.1,0,19.6,6.4,19.6,19.4v27.1h0ZM243.6,51.9v-3.1l-8.3,1.1c-4.6.6-6.9,2.7-6.9,6.2s.6,2.9,1.7,3.9c1.1,1,2.6,1.5,4.6,1.5s4.8-.9,6.5-2.7c1.7-1.8,2.5-4.1,2.5-6.9h0Z"/>
    <path class="st4" d="M193.4,30.1h0v-13.1l14.4-13.9v67.2h-14.2v-6.2h-.2c-3.2,4.9-8,7.4-14.2,7.4s-10.4-2-13.9-6c-3.5-4-5.2-9.6-5.2-16.8s1.9-13.5,5.8-18c3.9-4.5,8.9-6.8,15.1-6.8s10,2.1,12.4,6.3M193.8,48.2v-3.4c0-3-.9-5.4-2.6-7.3-1.7-2-4-2.9-6.8-2.9s-5.6,1.2-7.4,3.7c-1.8,2.4-2.6,5.8-2.6,10s.9,7.1,2.6,9.2,4.1,3.2,7.1,3.2,5.2-1.1,7-3.4c1.8-2.3,2.7-5.3,2.7-9h0Z"/>
  </g>
  <g>
    <path class="st4" d="M163.4,115.7v-27.8h3.2v10.3h.3c.2-.4.6-.8,1-1.4s1-1.1,1.8-1.5c.8-.4,1.9-.7,3.2-.7s3.3.4,4.6,1.3,2.4,2.1,3.1,3.7c.8,1.6,1.1,3.5,1.1,5.7s-.4,4.1-1.1,5.7c-.8,1.6-1.8,2.9-3.1,3.8-1.3.9-2.9,1.3-4.6,1.3s-2.4-.2-3.2-.7-1.4-1-1.9-1.5c-.4-.6-.8-1.1-1-1.4h-.4v3.2h-3.1ZM166.5,105.3c0,1.6.2,3,.7,4.2s1.1,2.1,2,2.8,2,1,3.3,1,2.5-.3,3.4-1.1c.9-.7,1.6-1.7,2-2.9s.7-2.6.7-4-.2-2.8-.7-4-1.1-2.1-2-2.8c-.9-.7-2-1-3.4-1s-2.4.3-3.3,1-1.6,1.6-2,2.7-.7,2.5-.7,4.1h0Z"/>
    <path class="st4" d="M188,123.6c-.5,0-1,0-1.4-.1-.4,0-.7-.2-.9-.2l.8-2.8c.8.2,1.5.3,2.1.2.6,0,1.1-.3,1.6-.8.5-.5.9-1.2,1.3-2.3l.6-1.6-7.7-21h3.5l5.8,16.6h.2l5.8-16.6h3.5l-8.9,23.9c-.4,1.1-.9,2-1.5,2.7s-1.3,1.2-2,1.6c-.8.3-1.6.5-2.6.5h0Z"/>
    <path class="st4" d="M233.6,94.9c-.2-1.4-.8-2.4-2-3.2-1.2-.8-2.6-1.1-4.3-1.1s-2.3.2-3.2.6c-.9.4-1.6.9-2.1,1.6-.5.7-.8,1.5-.8,2.4s.2,1.4.5,1.9.8,1,1.4,1.3,1.1.6,1.8.9c.6.2,1.2.4,1.7.5l2.8.8c.7.2,1.5.4,2.4.8s1.8.8,2.6,1.4,1.5,1.3,2,2.2.8,2,.8,3.3-.4,2.9-1.2,4.1-1.9,2.2-3.4,2.9-3.3,1.1-5.4,1.1-3.7-.3-5.2-1-2.6-1.5-3.4-2.7-1.3-2.5-1.4-4h3.5c0,1.1.4,1.9,1.1,2.6.6.7,1.4,1.2,2.4,1.5.9.3,2,.5,3.1.5s2.4-.2,3.5-.6,1.8-1,2.4-1.8c.6-.8.9-1.6.9-2.7s-.3-1.7-.8-2.2c-.5-.6-1.2-1.1-2-1.4-.8-.4-1.8-.7-2.7-.9l-3.4-1c-2.2-.6-3.9-1.5-5.2-2.7-1.3-1.2-1.9-2.7-1.9-4.6s.4-2.9,1.3-4.1,2-2.1,3.4-2.7c1.4-.7,3-1,4.8-1s3.4.3,4.8,1c1.4.6,2.5,1.5,3.3,2.6s1.2,2.4,1.3,3.8h-3.3Z"/>
    <path class="st4" d="M242.3,115.7v-27.8h3.2v27.8s-3.2,0-3.2,0ZM245.3,108.1v-4c0,0,.6,0,.6,0l9.1-9.3h4l-9.7,9.8h-.3l-3.7,3.4h0ZM255.6,115.7l-8.1-10.3,2.3-2.2,9.9,12.5h-4.1Z"/>
    <path class="st4" d="M265.2,123.6c-.5,0-1,0-1.5-.1-.4,0-.7-.2-.9-.2l.8-2.8c.8.2,1.5.3,2.1.2.6,0,1.1-.3,1.6-.8.5-.5.9-1.2,1.3-2.3l.6-1.6-7.7-21h3.5l5.8,16.6h.2l5.8-16.6h3.5l-8.9,23.9c-.4,1.1-.9,2-1.5,2.7s-1.3,1.2-2,1.6c-.8.3-1.6.5-2.6.5h0Z"/>
    <path class="st4" d="M287.6,87.9v27.8h-3.2v-27.8h3.2Z"/>
    <path class="st4" d="M295.1,91.4c-.6,0-1.2-.2-1.6-.6-.5-.4-.7-.9-.7-1.5s.2-1.1.7-1.5,1-.6,1.6-.6,1.2.2,1.6.6c.5.4.7.9.7,1.5s-.2,1.1-.7,1.5c-.5.4-1,.6-1.6.6ZM293.5,115.7v-20.8h3.2v20.8h-3.2Z"/>
    <path class="st4" d="M305.8,103.2v12.5h-3.2v-20.8h3.1v3.3h.3c.5-1.1,1.2-1.9,2.2-2.6,1-.7,2.3-1,3.9-1s2.6.3,3.7.9,1.9,1.4,2.5,2.6c.6,1.2.9,2.6.9,4.4v13.2h-3.2v-13c0-1.6-.4-2.9-1.3-3.8-.9-.9-2-1.4-3.5-1.4s-1.9.2-2.7.7c-.8.4-1.4,1.1-1.9,1.9-.5.8-.7,1.9-.7,3.1h0Z"/>
    <path class="st4" d="M333.7,116.2c-2,0-3.7-.4-5.2-1.3s-2.6-2.1-3.4-3.8-1.2-3.5-1.2-5.6.4-4,1.2-5.7c.8-1.6,1.9-2.9,3.3-3.8s3-1.4,4.9-1.4,2.2.2,3.2.5,2,.9,2.9,1.8c.9.8,1.6,1.9,2.1,3.2s.8,3,.8,4.9v1.4h-16.1v-2.8h12.8c0-1.2-.2-2.2-.7-3.2s-1.1-1.7-2-2.2-1.9-.8-3-.8-2.4.3-3.3.9c-.9.6-1.6,1.4-2.1,2.4s-.8,2.1-.8,3.2v1.8c0,1.6.3,2.9.8,4,.5,1.1,1.3,1.9,2.3,2.5,1,.6,2.1.8,3.4.8s1.6-.1,2.3-.4,1.3-.6,1.8-1.1c.5-.5.9-1.1,1.1-1.8l3.1.9c-.3,1.1-.9,2-1.6,2.8-.8.8-1.7,1.4-2.9,1.8-1.1.4-2.4.7-3.8.7h0Z"/>
    <path class="st4" d="M380.7,96.6h-3.4c-.2-1-.5-1.8-1-2.6-.5-.7-1.1-1.3-1.8-1.8s-1.5-.9-2.3-1.1c-.9-.2-1.7-.4-2.7-.4-1.7,0-3.2.4-4.6,1.3-1.4.8-2.4,2.1-3.2,3.8s-1.2,3.7-1.2,6.1.4,4.4,1.2,6.1c.8,1.7,1.9,2.9,3.2,3.8s2.9,1.3,4.6,1.3,1.8-.1,2.7-.4,1.6-.6,2.3-1.1c.7-.5,1.3-1.1,1.8-1.9s.8-1.6,1-2.6h3.4c-.2,1.4-.7,2.7-1.4,3.8-.7,1.1-1.5,2.1-2.5,2.9-1,.8-2.1,1.4-3.4,1.8-1.2.4-2.5.6-4,.6-2.4,0-4.5-.6-6.3-1.7-1.9-1.2-3.3-2.8-4.4-4.9-1.1-2.1-1.6-4.7-1.6-7.6s.5-5.5,1.6-7.6,2.5-3.8,4.4-4.9c1.9-1.2,4-1.7,6.3-1.7s2.7.2,4,.6,2.4,1,3.4,1.8c1,.8,1.8,1.7,2.5,2.8.7,1.1,1.1,2.4,1.4,3.8h0Z"/>
    <path class="st4" d="M394.2,116.2c-1.9,0-3.5-.4-5-1.3-1.4-.9-2.5-2.2-3.3-3.8s-1.2-3.5-1.2-5.7.4-4.1,1.2-5.7,1.9-2.9,3.3-3.8c1.4-.9,3.1-1.3,5-1.3s3.5.4,5,1.3c1.4.9,2.5,2.2,3.3,3.8.8,1.6,1.2,3.5,1.2,5.7s-.4,4-1.2,5.7-1.9,2.9-3.3,3.8-3.1,1.3-5,1.3ZM394.2,113.3c1.4,0,2.6-.4,3.5-1.1s1.6-1.7,2-2.9.7-2.5.7-3.9-.2-2.7-.7-3.9c-.4-1.2-1.1-2.2-2-2.9s-2.1-1.1-3.5-1.1-2.6.4-3.5,1.1-1.6,1.7-2,2.9-.7,2.5-.7,3.9.2,2.7.7,3.9c.4,1.2,1.1,2.2,2,2.9.9.7,2.1,1.1,3.5,1.1Z"/>
    <path class="st4" d="M408.5,115.7v-20.8h3.1v3.3h.3c.4-1.1,1.1-2,2.1-2.6,1-.6,2.1-.9,3.5-.9s2.5.3,3.4.9,1.6,1.5,2.1,2.6h.2c.5-1.1,1.3-1.9,2.4-2.6s2.4-1,3.8-1,3.4.6,4.6,1.7c1.2,1.2,1.8,3,1.8,5.4v13.9h-3.2v-13.9c0-1.5-.4-2.6-1.3-3.3s-1.8-1-3-1-2.6.4-3.4,1.3c-.8.9-1.2,2-1.2,3.3v13.6h-3.3v-14.3c0-1.2-.4-2.1-1.1-2.9s-1.8-1.1-3-1.1-1.6.2-2.3.7c-.7.4-1.3,1.1-1.7,1.8s-.7,1.7-.7,2.7v13h-3.2,0Z"/>
    <path class="st4" d="M441.8,115.7v-20.8h3.1v3.3h.3c.4-1.1,1.1-2,2.1-2.6,1-.6,2.1-.9,3.5-.9s2.5.3,3.4.9,1.6,1.5,2.1,2.6h.2c.5-1.1,1.3-1.9,2.4-2.6s2.4-1,3.8-1,3.4.6,4.6,1.7c1.2,1.2,1.8,3,1.8,5.4v13.9h-3.2v-13.9c0-1.5-.4-2.6-1.3-3.3s-1.8-1-3-1-2.6.4-3.4,1.3c-.8.9-1.2,2-1.2,3.3v13.6h-3.3v-14.3c0-1.2-.4-2.1-1.1-2.9s-1.8-1.1-3-1.1-1.6.2-2.3.7c-.7.4-1.3,1.1-1.7,1.8s-.7,1.7-.7,2.7v13h-3.2,0Z"/>
    <path class="st4" d="M488.1,107.2v-12.3h3.2v20.8h-3.2v-3.5h-.2c-.5,1.1-1.2,2-2.3,2.7-1,.7-2.3,1.1-3.9,1.1s-2.5-.3-3.5-.9c-1-.6-1.8-1.4-2.4-2.6-.6-1.2-.9-2.6-.9-4.4v-13.2h3.2v13c0,1.5.4,2.7,1.3,3.6.9.9,2,1.4,3.3,1.4s1.6-.2,2.4-.6c.8-.4,1.5-1,2.1-1.9.6-.8.9-1.9.9-3.2h0Z"/>
    <path class="st4" d="M500.4,103.2v12.5h-3.2v-20.8h3.1v3.3h.3c.5-1.1,1.2-1.9,2.2-2.6,1-.7,2.3-1,3.9-1s2.6.3,3.7.9,1.9,1.4,2.5,2.6c.6,1.2.9,2.6.9,4.4v13.2h-3.2v-13c0-1.6-.4-2.9-1.3-3.8-.9-.9-2-1.4-3.5-1.4s-1.9.2-2.7.7c-.8.4-1.4,1.1-1.9,1.9-.5.8-.7,1.9-.7,3.1h0Z"/>
    <path class="st4" d="M521.2,91.4c-.6,0-1.2-.2-1.6-.6-.5-.4-.7-.9-.7-1.5s.2-1.1.7-1.5,1-.6,1.6-.6,1.2.2,1.6.6.7.9.7,1.5-.2,1.1-.7,1.5c-.5.4-1,.6-1.6.6ZM519.5,115.7v-20.8h3.2v20.8h-3.2Z"/>
    <path class="st4" d="M537.1,116.2c-2,0-3.6-.5-5-1.4s-2.5-2.2-3.3-3.8c-.8-1.6-1.1-3.5-1.1-5.6s.4-4,1.2-5.6c.8-1.6,1.9-2.9,3.3-3.8,1.4-.9,3-1.4,4.9-1.4s2.8.3,4,.8c1.2.5,2.1,1.3,2.9,2.3.8,1,1.2,2.1,1.4,3.4h-3.2c-.2-.9-.8-1.8-1.6-2.5-.8-.7-2-1.1-3.4-1.1s-2.3.3-3.3,1-1.7,1.6-2.2,2.7c-.5,1.2-.8,2.5-.8,4.1s.3,3,.8,4.2c.5,1.2,1.2,2.1,2.2,2.8.9.7,2,1,3.3,1s1.6-.1,2.3-.4,1.2-.7,1.7-1.2.8-1.2,1-1.9h3.2c-.2,1.2-.6,2.3-1.3,3.3s-1.7,1.8-2.8,2.3-2.5.9-4,.9h0Z"/>
    <path class="st4" d="M556.1,116.2c-1.3,0-2.5-.2-3.6-.8-1.1-.5-1.9-1.2-2.6-2.2-.6-.9-1-2.1-1-3.5s.2-2.2.7-2.9c.5-.8,1.1-1.3,1.9-1.8.8-.4,1.7-.7,2.6-1,1-.2,1.9-.4,2.9-.5,1.3-.2,2.3-.3,3.1-.4.8,0,1.4-.2,1.7-.4s.5-.6.5-1.1h0c0-1.4-.4-2.5-1.1-3.2-.7-.7-1.8-1.1-3.3-1.1s-2.7.3-3.6,1-1.5,1.4-1.8,2.1l-3-1.1c.5-1.3,1.3-2.3,2.2-3s1.9-1.2,3-1.5c1.1-.3,2.2-.4,3.2-.4s1.4,0,2.3.2c.9.2,1.7.5,2.5,1s1.5,1.2,2,2.2c.5,1,.8,2.3.8,4v13.7h-3.2v-2.8h-.2c-.2.4-.6.9-1.1,1.4-.5.5-1.2.9-2,1.3-.8.4-1.9.5-3.1.5h0ZM556.6,113.3c1.3,0,2.3-.2,3.2-.8s1.5-1.1,2-1.9c.5-.8.7-1.6.7-2.5v-2.9c-.1.2-.4.3-.9.4s-1,.2-1.6.3-1.2.2-1.7.2c-.6,0-1,.1-1.3.2-.8.1-1.6.3-2.3.5-.7.2-1.3.6-1.7,1.1s-.7,1.1-.7,1.9.4,1.9,1.2,2.5,1.9.8,3.2.8h0Z"/>
    <path class="st4" d="M580.6,94.9v2.7h-10.8v-2.7h10.8ZM572.9,89.9h3.2v19.9c0,.9.1,1.6.4,2s.6.8,1,.9.9.2,1.3.2.6,0,.9,0,.4,0,.5,0l.7,2.9c-.2,0-.5.2-.9.2-.4,0-.9.1-1.5.1-.9,0-1.8-.2-2.7-.6-.9-.4-1.6-1-2.1-1.8-.6-.8-.8-1.8-.8-3v-20.7h0Z"/>
    <path class="st4" d="M587,91.4c-.6,0-1.2-.2-1.6-.6-.5-.4-.7-.9-.7-1.5s.2-1.1.7-1.5,1-.6,1.6-.6,1.2.2,1.6.6.7.9.7,1.5-.2,1.1-.7,1.5c-.5.4-1,.6-1.6.6ZM585.4,115.7v-20.8h3.2v20.8h-3.2Z"/>
    <path class="st4" d="M603,116.2c-1.9,0-3.5-.4-5-1.3-1.4-.9-2.5-2.2-3.3-3.8s-1.2-3.5-1.2-5.7.4-4.1,1.2-5.7,1.9-2.9,3.3-3.8c1.4-.9,3.1-1.3,5-1.3s3.5.4,5,1.3c1.4.9,2.5,2.2,3.3,3.8.8,1.6,1.2,3.5,1.2,5.7s-.4,4-1.2,5.7-1.9,2.9-3.3,3.8c-1.4.9-3.1,1.3-5,1.3ZM603,113.3c1.4,0,2.6-.4,3.5-1.1s1.6-1.7,2-2.9.7-2.5.7-3.9-.2-2.7-.7-3.9c-.4-1.2-1.1-2.2-2-2.9s-2.1-1.1-3.5-1.1-2.6.4-3.5,1.1c-.9.7-1.6,1.7-2,2.9s-.7,2.5-.7,3.9.2,2.7.7,3.9c.4,1.2,1.1,2.2,2,2.9.9.7,2.1,1.1,3.5,1.1Z"/>
    <path class="st4" d="M620.5,103.2v12.5h-3.2v-20.8h3.1v3.3h.3c.5-1.1,1.2-1.9,2.2-2.6,1-.7,2.3-1,3.9-1s2.7.3,3.7.9,1.9,1.4,2.5,2.6c.6,1.2.9,2.6.9,4.4v13.2h-3.2v-13c0-1.6-.4-2.9-1.3-3.8-.8-.9-2-1.4-3.5-1.4s-1.9.2-2.7.7c-.8.4-1.4,1.1-1.9,1.9-.5.8-.7,1.9-.7,3.1h0Z"/>
    <path class="st4" d="M654.4,99.6l-2.9.8c-.2-.5-.5-.9-.8-1.4-.3-.5-.8-.8-1.4-1.1-.6-.3-1.4-.4-2.3-.4s-2.3.3-3.2.9c-.8.6-1.3,1.3-1.3,2.2s.3,1.4.9,1.9,1.5.8,2.7,1.2l3.1.8c1.9.4,3.2,1.1,4.2,2.1.9.9,1.4,2.1,1.4,3.6s-.3,2.3-1,3.2c-.7.9-1.6,1.7-2.9,2.2-1.2.5-2.6.8-4.3.8s-3.9-.5-5.3-1.4-2.3-2.3-2.7-4l3-.8c.3,1.1.8,2,1.7,2.5s1.9.8,3.2.8,2.7-.3,3.6-1,1.3-1.4,1.3-2.3-.2-1.3-.8-1.8c-.5-.5-1.3-.9-2.3-1.1l-3.5-.8c-1.9-.4-3.3-1.2-4.2-2.1s-1.3-2.2-1.3-3.6.3-2.2,1-3.1,1.6-1.6,2.7-2.1,2.5-.8,3.9-.8,3.7.4,4.9,1.4c1.2.9,2,2.1,2.5,3.6h0Z"/>
  </g>
</svg>