<?xml version="1.0" encoding="UTF-8"?>
<svg id="Layer_1" data-name="Layer 1" xmlns="http://www.w3.org/2000/svg" xmlns:xlink="http://www.w3.org/1999/xlink" viewBox="0 0 654.8 133.47">
  <defs>
    <style>
      .cls-1 {
        fill: none;
      }

      .cls-2 {
        fill: url(#linear-gradient-2);
      }

      .cls-3 {
        fill: url(#linear-gradient);
      }

      .cls-4 {
        fill: #2563eb;
      }

      .cls-5 {
        fill: #fff;
      }
    </style>
    <linearGradient id="linear-gradient" x1="21.85" y1="4611.21" x2="52.58" y2="4641.83" gradientTransform="translate(0 -4589.67)" gradientUnits="userSpaceOnUse">
      <stop offset="0" stop-color="#60a5fa"/>
      <stop offset=".85" stop-color="#3b82f6"/>
    </linearGradient>
    <linearGradient id="linear-gradient-2" x1="87.31" y1="4659.58" x2="133.47" y2="4659.58" gradientTransform="translate(0 -4589.67)" gradientUnits="userSpaceOnUse">
      <stop offset="0" stop-color="#1d4ed8"/>
      <stop offset=".44" stop-color="#1e52db"/>
      <stop offset=".88" stop-color="#235ee6"/>
      <stop offset="1" stop-color="#2563eb"/>
    </linearGradient>
  </defs>
  <circle class="cls-5" cx="66.74" cy="66.74" r="66.73"/>
  <g>
    <polygon class="cls-1" points="63.3 46.21 87.31 23.04 101.24 9.6 63.3 46.21 63.3 46.21"/>
    <polygon class="cls-1" points="35.33 73.2 8.4 99.18 35.33 73.2 35.33 73.2"/>
    <path class="cls-3" d="M35.32,72.7c0-8.19,2.1-14.74,6.31-19.68,4.21-4.93,9.72-7.4,16.53-7.4,1.88,0,3.59.2,5.14.59L101.24,9.6C91.17,3.51,79.36,0,66.74,0,29.88,0,0,29.88,0,66.74c0,11.78,3.05,22.84,8.4,32.44l26.93-25.98v-.5h-.01Z"/>
    <path class="cls-2" d="M101.24,9.6l-13.93,13.44h0v73.3h0v33.89c26.79-8.67,46.16-33.83,46.16-63.5,0-24.23-12.91-45.44-32.23-57.13Z"/>
    <path class="cls-4" d="M61.93,57.32c-3.42,0-6.1,1.33-8.02,3.99-1.92,2.66-2.88,6.31-2.88,10.95,0,4.35.93,7.7,2.79,10.06,1.86,2.35,4.43,3.53,7.73,3.53s5.68-1.24,7.65-3.72,2.96-5.77,2.96-9.86v-3.72c0-3.22-.95-5.9-2.84-8.03-1.89-2.13-4.35-3.19-7.38-3.19h0Z"/>
    <path class="cls-4" d="M71.86,96.34v-6.82h-.19c-3.52,5.35-8.69,8.03-15.5,8.03-6.26,0-11.3-2.18-15.11-6.55-3.73-4.28-5.64-9.88-5.72-17.8l-26.93,25.98c11.4,20.45,33.25,34.29,58.33,34.29,7.18,0,14.1-1.13,20.58-3.23h0v-33.89h-15.46Z"/>
    <path class="cls-4" d="M71.66,52.49l-.03-.05v-14.26h0l15.68-15.13h0l-24.01,23.17c3.77.94,6.56,3.03,8.36,6.28h0Z"/>
    <polygon class="cls-5" points="63.3 46.21 35.33 73.2 35.33 73.2 63.3 46.21 63.3 46.21"/>
    <path class="cls-5" d="M58.16,45.62c-6.81,0-12.32,2.47-16.53,7.4-4.21,4.93-6.31,11.49-6.31,19.68v.5l27.97-26.99c-1.55-.39-3.26-.59-5.14-.59h.01Z"/>
    <path class="cls-5" d="M71.63,38.17v14.26l.03.05c-1.8-3.24-4.59-5.33-8.36-6.28l-27.97,26.99c.08,7.92,1.98,13.52,5.72,17.8,3.82,4.37,8.85,6.55,15.11,6.55,6.81,0,11.98-2.68,15.5-8.03h.19v6.82h15.45V23.05l-15.68,15.13h.01ZM72.15,72.26c0,4.09-.99,7.38-2.96,9.86-1.98,2.48-4.52,3.72-7.65,3.72-3.29,0-5.87-1.18-7.73-3.53s-2.79-5.71-2.79-10.06c0-4.64.96-8.29,2.88-10.95,1.92-2.66,4.6-3.99,8.02-3.99,3.03,0,5.49,1.07,7.38,3.19,1.89,2.13,2.84,4.8,2.84,8.03v3.72h.01Z"/>
  </g>
  <g>
    <path class="cls-5" d="M598.48,37.56c-1.7-.92-3.69-1.37-5.96-1.37-3.08,0-5.48,1.11-7.22,3.34-1.73,2.23-2.6,5.27-2.6,9.1v21.67h-14.16V24.93h14.16v8.42h.18c2.24-6.14,6.27-9.22,12.1-9.22,1.49,0,2.66.18,3.5.53v12.89h0Z"/>
    <path id="e" class="cls-5" d="M554.62,29.48c-3.66-3.98-8.84-5.97-15.53-5.97s-11.89,2.23-16.31,6.69c-4.42,4.46-6.63,10.5-6.63,18.14s2.05,13.1,6.14,17.22c4.09,4.12,9.84,6.17,17.26,6.17,3.44,0,6.54-.29,9.33-.88l7.21-12.76h0c-3.83,2.39-8.26,3.58-13.31,3.58-7.92,0-12.12-3.33-12.6-10.01h29.94v-5.97c0-6.82-1.83-12.22-5.49-16.2h-.01ZM530.09,42.95c.36-2.81,1.37-5.16,3.02-7.05,1.66-1.89,3.62-2.83,5.89-2.83,5.32,0,7.98,3.29,7.98,9.88h-16.9.01Z"/>
    <path class="cls-5" d="M507.67,70.3h-14.12v-25.21c0-7.03-2.54-10.55-7.62-10.55-2.45,0-4.47.93-6.05,2.79s-2.37,4.22-2.37,7.09v25.88h-14.16V24.93h14.16v7.18h.18c3.37-5.52,8.29-8.29,14.74-8.29,10.16,0,15.24,6.23,15.24,18.7v27.78Z"/>
    <rect class="cls-5" x="437.26" y="24.93" width="14.16" height="45.37"/>
    <path class="cls-5" d="M444.43,19.67c-2.39,0-4.35-.8-5.87-2.39s-2.29-3.54-2.29-5.85.76-4.32,2.29-5.82c1.52-1.5,3.48-2.26,5.87-2.26s4.39.75,5.89,2.26c1.51,1.51,2.27,3.45,2.27,5.82s-.76,4.39-2.27,5.92c-1.51,1.54-3.47,2.31-5.89,2.31h0Z"/>
    <path class="cls-5" d="M426.06,70.3h-14.12v-25.88c0-6.59-2.45-9.88-7.35-9.88-2.33,0-4.23.99-5.69,2.97-1.47,1.98-2.2,4.45-2.2,7.4v25.39h-14.16v-26.14c0-6.41-2.41-9.61-7.21-9.61-2.42,0-4.36.95-5.81,2.83-1.45,1.89-2.17,4.46-2.17,7.71v25.21h-14.16V24.93h14.16v7.09h.18c1.46-2.42,3.52-4.39,6.16-5.91s5.54-2.28,8.67-2.28c6.48,0,10.92,2.82,13.31,8.46,3.5-5.64,8.63-8.46,15.42-8.46,9.98,0,14.97,6.08,14.97,18.25v28.22Z"/>
    <path class="cls-5" d="M341.97,70.3h-13.4v-6.51h-.18c-3.08,5.08-7.64,7.62-13.67,7.62-4.45,0-7.96-1.25-10.51-3.75-2.55-2.5-3.83-5.83-3.83-9.99,0-8.8,5.27-13.88,15.82-15.24l12.46-1.64c0-4.96-2.72-7.44-8.16-7.44s-10.67,1.61-15.6,4.83v-10.55c1.97-1,4.67-1.89,8.09-2.66,3.42-.77,6.53-1.15,9.34-1.15,13.09,0,19.63,6.45,19.63,19.36v27.12h.01ZM328.66,51.87v-3.06l-8.34,1.06c-4.6.59-6.9,2.65-6.9,6.16,0,1.6.56,2.9,1.68,3.92,1.12,1.02,2.64,1.53,4.55,1.53,2.66,0,4.82-.91,6.5-2.73,1.67-1.82,2.51-4.11,2.51-6.89h0Z"/>
    <path class="cls-5" d="M295.81,69.77c-2.09,1.09-5.24,1.64-9.46,1.64-9.98,0-14.97-5.12-14.97-15.38v-20.78h-7.44v-10.32h7.44v-7.94l14.12-13.86v21.8h10.31v10.32h-10.31v18.34c0,4.73,1.9,7.09,5.69,7.09,1.49,0,3.03-.43,4.62-1.28v10.37Z"/>
    <path class="cls-5" d="M256.86,70.3h-13.4v-6.51h-.18c-3.08,5.08-7.63,7.62-13.67,7.62-4.45,0-7.96-1.25-10.51-3.75-2.56-2.5-3.83-5.83-3.83-9.99,0-8.8,5.27-13.88,15.82-15.24l12.46-1.64c0-4.96-2.72-7.44-8.16-7.44s-10.67,1.61-15.6,4.83v-10.55c1.97-1,4.67-1.89,8.09-2.66s6.54-1.15,9.34-1.15c13.09,0,19.63,6.45,19.63,19.36v27.12h.01ZM243.55,51.87v-3.06l-8.34,1.06c-4.6.59-6.9,2.65-6.9,6.16,0,1.6.56,2.9,1.68,3.92,1.12,1.02,2.64,1.53,4.55,1.53,2.66,0,4.82-.91,6.5-2.73,1.67-1.82,2.51-4.11,2.51-6.89h0Z"/>
    <path class="cls-5" d="M193.37,30.12l-.02-.05v-13.07l14.37-13.86v67.17h-14.16v-6.25h-.18c-3.23,4.9-7.96,7.36-14.21,7.36-5.74,0-10.35-2-13.85-6.01-3.49-4-5.24-9.59-5.24-16.77s1.93-13.51,5.78-18.03c3.85-4.52,8.9-6.78,15.15-6.78,5.92,0,10.04,2.1,12.37,6.29M193.82,48.24v-3.41c0-2.95-.87-5.41-2.6-7.35-1.73-1.95-3.99-2.93-6.77-2.93-3.14,0-5.59,1.22-7.35,3.65-1.76,2.44-2.64,5.78-2.64,10.04,0,3.99.85,7.06,2.55,9.22s4.06,3.23,7.08,3.23,5.21-1.14,7.01-3.41c1.81-2.28,2.71-5.29,2.71-9.04h.01Z"/>
  </g>
  <g>
    <path class="cls-5" d="M163.39,115.74v-27.8h3.2v10.26h.27c.23-.36.56-.83.98-1.39s1.03-1.07,1.82-1.52c.79-.45,1.87-.67,3.22-.67,1.76,0,3.3.44,4.64,1.32s2.38,2.12,3.14,3.73c.75,1.61,1.13,3.51,1.13,5.7s-.38,4.12-1.13,5.74c-.75,1.61-1.79,2.86-3.12,3.75-1.33.88-2.86,1.32-4.6,1.32-1.34,0-2.41-.22-3.22-.67s-1.43-.96-1.86-1.53c-.43-.57-.77-1.05-1-1.43h-.38v3.2h-3.09ZM166.54,105.32c0,1.57.23,2.96.69,4.16s1.13,2.14,2.02,2.81,1.97,1.01,3.26,1.01,2.46-.35,3.36-1.07c.9-.71,1.58-1.67,2.04-2.88s.69-2.55.69-4.04-.22-2.79-.67-3.97-1.12-2.12-2.02-2.81c-.9-.69-2.03-1.04-3.39-1.04s-2.4.33-3.29.98-1.56,1.57-2.01,2.74-.68,2.54-.68,4.09v.02Z"/>
    <path class="cls-5" d="M187.99,123.56c-.54,0-1.03-.04-1.45-.13-.43-.09-.72-.17-.88-.25l.81-2.82c.78.2,1.47.27,2.06.22.6-.05,1.13-.32,1.6-.79.47-.48.89-1.24,1.28-2.3l.6-1.63-7.71-20.96h3.48l5.75,16.61h.22l5.75-16.61h3.48l-8.85,23.89c-.4,1.08-.89,1.97-1.48,2.68s-1.27,1.24-2.04,1.58c-.77.34-1.64.52-2.61.52h0Z"/>
    <path class="cls-5" d="M233.59,94.89c-.16-1.38-.82-2.44-1.98-3.2-1.16-.76-2.58-1.14-4.26-1.14-1.23,0-2.31.2-3.22.6-.92.4-1.63.95-2.14,1.64-.51.7-.77,1.49-.77,2.38,0,.74.18,1.38.54,1.91s.82.97,1.38,1.32,1.15.63,1.76.86c.62.22,1.18.4,1.7.54l2.82.76c.72.19,1.53.45,2.42.79s1.75.79,2.56,1.36,1.5,1.31,2.03,2.21.8,2,.8,3.3c0,1.5-.39,2.86-1.17,4.07s-1.92,2.18-3.42,2.89-3.31,1.07-5.45,1.07c-1.99,0-3.71-.32-5.16-.96s-2.59-1.54-3.42-2.69-1.3-2.48-1.4-4h3.48c.09,1.05.45,1.92,1.07,2.6.62.68,1.41,1.19,2.36,1.52.95.33,1.98.5,3.09.5,1.28,0,2.44-.21,3.46-.63s1.83-1.01,2.43-1.76c.6-.76.9-1.64.9-2.65,0-.92-.26-1.67-.77-2.25-.52-.58-1.19-1.05-2.04-1.41-.84-.36-1.75-.68-2.73-.95l-3.42-.98c-2.17-.62-3.89-1.52-5.16-2.67-1.27-1.16-1.9-2.67-1.9-4.55,0-1.56.42-2.92,1.27-4.08s1.99-2.07,3.42-2.71c1.43-.65,3.04-.97,4.81-.97s3.38.32,4.78.96c1.39.64,2.5,1.51,3.32,2.61s1.25,2.36,1.3,3.76h-3.26l-.03-.05Z"/>
    <path class="cls-5" d="M242.34,115.74v-27.8h3.2v27.8s-3.2,0-3.2,0ZM245.32,108.14l-.05-3.96h.65l9.12-9.28h3.96l-9.72,9.83h-.27l-3.69,3.42h0ZM255.58,115.74l-8.14-10.32,2.28-2.23,9.94,12.54h-4.08Z"/>
    <path class="cls-5" d="M265.19,123.56c-.54,0-1.03-.04-1.45-.13-.43-.09-.72-.17-.88-.25l.81-2.82c.78.2,1.47.27,2.06.22.6-.05,1.13-.32,1.6-.79.47-.48.89-1.24,1.28-2.3l.6-1.63-7.71-20.96h3.48l5.75,16.61h.22l5.75-16.61h3.48l-8.85,23.89c-.4,1.08-.89,1.97-1.48,2.68s-1.27,1.24-2.04,1.58c-.77.34-1.64.52-2.61.52h-.01Z"/>
    <path class="cls-5" d="M287.61,87.94v27.8h-3.2v-27.8h3.2Z"/>
    <path class="cls-5" d="M295.11,91.42c-.62,0-1.16-.21-1.61-.64-.45-.42-.67-.94-.67-1.53s.22-1.11.67-1.53.98-.64,1.61-.64,1.16.21,1.61.64c.45.43.67.94.67,1.53s-.22,1.11-.67,1.53c-.45.43-.98.64-1.61.64ZM293.48,115.74v-20.85h3.2v20.85h-3.2Z"/>
    <path class="cls-5" d="M305.75,103.2v12.54h-3.2v-20.85h3.09v3.26h.27c.49-1.06,1.23-1.91,2.23-2.56,1-.65,2.28-.97,3.86-.97,1.41,0,2.65.29,3.71.86s1.88,1.44,2.47,2.61c.59,1.16.88,2.63.88,4.4v13.25h-3.2v-13.03c0-1.64-.43-2.92-1.28-3.83-.85-.92-2.02-1.38-3.5-1.38-1.02,0-1.93.22-2.73.67-.8.44-1.43,1.09-1.89,1.94-.46.85-.69,1.88-.69,3.09h-.02Z"/>
    <path class="cls-5" d="M333.66,116.17c-2.01,0-3.74-.45-5.19-1.34s-2.57-2.14-3.35-3.75-1.17-3.48-1.17-5.61.39-4.02,1.17-5.65c.78-1.63,1.88-2.91,3.29-3.83s3.05-1.38,4.93-1.38c1.09,0,2.16.18,3.22.54s2.02.95,2.89,1.76c.87.81,1.56,1.88,2.08,3.21s.77,2.97.77,4.91v1.36h-16.07v-2.77h12.81c0-1.18-.23-2.23-.7-3.15s-1.13-1.65-1.98-2.18-1.86-.8-3.02-.8c-1.28,0-2.38.31-3.3.94-.93.63-1.64,1.45-2.14,2.45s-.75,2.08-.75,3.23v1.85c0,1.57.27,2.91.82,4,.55,1.09,1.31,1.92,2.29,2.48.98.57,2.11.85,3.41.85.84,0,1.6-.12,2.29-.36s1.27-.6,1.77-1.09c.5-.48.88-1.09,1.15-1.81l3.09.87c-.33,1.05-.87,1.97-1.64,2.76-.77.79-1.72,1.41-2.85,1.85-1.13.44-2.4.66-3.81.66h0Z"/>
    <path class="cls-5" d="M380.73,96.63h-3.37c-.2-.97-.55-1.82-1.04-2.55-.49-.73-1.09-1.35-1.79-1.85s-1.48-.88-2.33-1.13c-.85-.25-1.74-.38-2.66-.38-1.68,0-3.21.43-4.57,1.28-1.36.85-2.44,2.1-3.24,3.76s-1.2,3.69-1.2,6.09.4,4.44,1.2,6.09c.8,1.66,1.88,2.91,3.24,3.76s2.88,1.28,4.57,1.28c.92,0,1.81-.13,2.66-.38s1.63-.63,2.33-1.13c.7-.5,1.3-1.12,1.79-1.86s.84-1.59,1.04-2.55h3.37c-.25,1.42-.72,2.69-1.38,3.81-.67,1.12-1.5,2.07-2.5,2.86-1,.78-2.11,1.38-3.35,1.79-1.24.41-2.55.61-3.96.61-2.37,0-4.48-.58-6.33-1.74-1.85-1.16-3.3-2.81-4.36-4.94-1.06-2.14-1.59-4.67-1.59-7.6s.53-5.47,1.59-7.6,2.51-3.78,4.36-4.94c1.85-1.16,3.95-1.74,6.33-1.74,1.4,0,2.72.2,3.96.61s2.35,1,3.35,1.79c1,.78,1.83,1.73,2.5,2.85.67,1.12,1.13,2.39,1.38,3.82h0Z"/>
    <path class="cls-5" d="M394.19,116.17c-1.88,0-3.53-.45-4.95-1.34-1.42-.9-2.52-2.15-3.31-3.76s-1.19-3.49-1.19-5.65.4-4.07,1.19-5.69,1.9-2.88,3.31-3.77c1.42-.9,3.07-1.34,4.95-1.34s3.53.45,4.95,1.34c1.42.9,2.52,2.15,3.31,3.77.79,1.62,1.19,3.52,1.19,5.69s-.4,4.04-1.19,5.65-1.9,2.86-3.31,3.76-3.07,1.34-4.95,1.34ZM394.19,113.3c1.43,0,2.61-.37,3.53-1.1s1.61-1.7,2.05-2.89.67-2.49.67-3.88-.22-2.69-.67-3.9c-.44-1.2-1.13-2.18-2.05-2.92s-2.1-1.11-3.53-1.11-2.61.37-3.53,1.11-1.61,1.72-2.05,2.92-.67,2.5-.67,3.9.22,2.69.67,3.88c.44,1.19,1.13,2.16,2.05,2.89.92.73,2.1,1.1,3.53,1.1Z"/>
    <path class="cls-5" d="M408.53,115.74v-20.85h3.09v3.26h.27c.43-1.11,1.13-1.98,2.1-2.6.97-.62,2.13-.93,3.49-.93s2.52.31,3.44.93,1.64,1.49,2.15,2.6h.22c.53-1.08,1.33-1.93,2.4-2.57s2.35-.96,3.84-.96c1.86,0,3.39.58,4.57,1.74,1.19,1.16,1.78,2.97,1.78,5.42v13.95h-3.2v-13.95c0-1.54-.42-2.64-1.26-3.3s-1.83-.99-2.97-.99c-1.47,0-2.6.44-3.41,1.32-.8.88-1.21,2-1.21,3.35v13.57h-3.26v-14.28c0-1.19-.38-2.14-1.15-2.87s-1.76-1.09-2.97-1.09c-.83,0-1.61.22-2.33.67-.72.44-1.3,1.06-1.74,1.84s-.66,1.69-.66,2.71v13.03h-3.2.01Z"/>
    <path class="cls-5" d="M441.75,115.74v-20.85h3.09v3.26h.27c.43-1.11,1.13-1.98,2.1-2.6.97-.62,2.13-.93,3.49-.93s2.52.31,3.44.93,1.64,1.49,2.15,2.6h.22c.53-1.08,1.33-1.93,2.4-2.57s2.35-.96,3.84-.96c1.86,0,3.39.58,4.57,1.74,1.19,1.16,1.78,2.97,1.78,5.42v13.95h-3.2v-13.95c0-1.54-.42-2.64-1.26-3.3s-1.83-.99-2.97-.99c-1.47,0-2.6.44-3.41,1.32-.8.88-1.21,2-1.21,3.35v13.57h-3.26v-14.28c0-1.19-.38-2.14-1.15-2.87s-1.76-1.09-2.97-1.09c-.83,0-1.61.22-2.33.67-.72.44-1.3,1.06-1.74,1.84s-.66,1.69-.66,2.71v13.03h-3.2.01Z"/>
    <path class="cls-5" d="M488.12,107.22v-12.32h3.2v20.85h-3.2v-3.53h-.22c-.49,1.06-1.25,1.96-2.28,2.69-1.03.74-2.33,1.11-3.91,1.11-1.3,0-2.46-.29-3.48-.86-1.01-.57-1.81-1.44-2.39-2.61-.58-1.16-.87-2.63-.87-4.4v-13.25h3.2v13.03c0,1.52.43,2.73,1.28,3.64.85.9,1.95,1.36,3.28,1.36.8,0,1.61-.2,2.44-.61.83-.41,1.52-1.03,2.09-1.87.57-.84.85-1.91.85-3.22h.01Z"/>
    <path class="cls-5" d="M500.39,103.2v12.54h-3.2v-20.85h3.09v3.26h.27c.49-1.06,1.23-1.91,2.23-2.56,1-.65,2.28-.97,3.86-.97,1.41,0,2.65.29,3.71.86s1.88,1.44,2.47,2.61c.59,1.16.88,2.63.88,4.4v13.25h-3.2v-13.03c0-1.64-.43-2.92-1.28-3.83-.85-.92-2.02-1.38-3.5-1.38-1.02,0-1.93.22-2.73.67-.8.44-1.43,1.09-1.89,1.94-.46.85-.69,1.88-.69,3.09h-.02Z"/>
    <path class="cls-5" d="M521.18,91.42c-.62,0-1.16-.21-1.61-.64-.45-.42-.67-.94-.67-1.53s.22-1.11.67-1.53.98-.64,1.61-.64,1.16.21,1.61.64.67.94.67,1.53-.22,1.11-.67,1.53c-.45.43-.98.64-1.61.64ZM519.55,115.74v-20.85h3.2v20.85h-3.2Z"/>
    <path class="cls-5" d="M537.09,116.17c-1.95,0-3.64-.46-5.05-1.38s-2.5-2.19-3.26-3.81c-.76-1.62-1.14-3.47-1.14-5.55s.39-3.99,1.17-5.61c.78-1.62,1.88-2.9,3.29-3.81,1.41-.92,3.05-1.38,4.93-1.38,1.47,0,2.79.27,3.96.81,1.18.54,2.14,1.3,2.89,2.28.75.98,1.22,2.12,1.4,3.42h-3.2c-.24-.95-.79-1.79-1.62-2.53-.84-.74-1.96-1.11-3.37-1.11-1.25,0-2.34.32-3.28.97s-1.66,1.56-2.18,2.73c-.52,1.17-.78,2.54-.78,4.12s.26,3.01.77,4.21c.51,1.19,1.24,2.12,2.17,2.78.94.66,2.04.99,3.3.99.83,0,1.59-.14,2.27-.43s1.25-.71,1.72-1.25.8-1.19,1-1.95h3.2c-.18,1.23-.63,2.34-1.34,3.32s-1.65,1.76-2.81,2.33-2.51.86-4.05.86h.01Z"/>
    <path class="cls-5" d="M556.09,116.23c-1.32,0-2.52-.25-3.6-.75-1.08-.5-1.93-1.23-2.56-2.19-.63-.95-.95-2.11-.95-3.47,0-1.19.23-2.16.71-2.91.47-.75,1.1-1.33,1.89-1.76.79-.43,1.66-.74,2.61-.96.95-.21,1.92-.38,2.88-.51,1.27-.16,2.3-.29,3.09-.37.79-.09,1.37-.23,1.74-.44s.55-.57.55-1.09v-.11c0-1.34-.36-2.38-1.09-3.12-.73-.74-1.83-1.11-3.31-1.11s-2.73.33-3.6,1-1.48,1.38-1.83,2.14l-3.04-1.09c.54-1.27,1.27-2.26,2.18-2.97s1.91-1.21,2.99-1.49c1.08-.29,2.15-.43,3.2-.43.67,0,1.44.08,2.31.24.87.16,1.72.48,2.54.97s1.5,1.23,2.04,2.21c.54.99.81,2.31.81,3.96v13.74h-3.2v-2.82h-.16c-.22.45-.58.94-1.09,1.45-.51.52-1.18.95-2.02,1.32-.84.36-1.87.54-3.08.54v.02ZM556.58,113.35c1.27,0,2.34-.25,3.21-.75s1.53-1.14,1.98-1.93c.45-.79.67-1.62.67-2.48v-2.93c-.14.16-.43.31-.89.44s-.98.24-1.57.34-1.17.18-1.72.24c-.56.07-1.01.12-1.35.17-.83.11-1.61.28-2.33.52-.72.24-1.3.6-1.74,1.07s-.66,1.12-.66,1.93c0,1.11.41,1.95,1.24,2.52s1.88.85,3.16.85h0Z"/>
    <path class="cls-5" d="M580.58,94.89v2.71h-10.8v-2.71h10.8ZM572.92,89.9h3.2v19.87c0,.91.13,1.58.4,2.03s.61.75,1.03.9.87.22,1.34.22c.35,0,.64-.02.87-.06s.41-.07.54-.1l.65,2.88c-.22.08-.52.16-.91.25-.39.09-.88.13-1.48.13-.91,0-1.79-.19-2.65-.58-.86-.39-1.58-.98-2.14-1.78-.57-.8-.85-1.8-.85-3.01v-20.74h0Z"/>
    <path class="cls-5" d="M587.04,91.42c-.62,0-1.16-.21-1.61-.64-.45-.42-.67-.94-.67-1.53s.22-1.11.67-1.53.98-.64,1.61-.64,1.16.21,1.61.64.67.94.67,1.53-.22,1.11-.67,1.53c-.45.43-.98.64-1.61.64ZM585.41,115.74v-20.85h3.2v20.85h-3.2Z"/>
    <path class="cls-5" d="M602.95,116.17c-1.88,0-3.53-.45-4.95-1.34-1.42-.9-2.52-2.15-3.31-3.76s-1.19-3.49-1.19-5.65.4-4.07,1.19-5.69,1.9-2.88,3.31-3.77c1.42-.9,3.07-1.34,4.95-1.34s3.53.45,4.95,1.34c1.42.9,2.52,2.15,3.31,3.77.79,1.62,1.19,3.52,1.19,5.69s-.4,4.04-1.19,5.65-1.9,2.86-3.31,3.76c-1.42.9-3.07,1.34-4.95,1.34ZM602.95,113.3c1.43,0,2.61-.37,3.53-1.1s1.61-1.7,2.05-2.89.67-2.49.67-3.88-.22-2.69-.67-3.9c-.44-1.2-1.13-2.18-2.05-2.92s-2.1-1.11-3.53-1.11-2.61.37-3.53,1.11c-.92.74-1.61,1.72-2.05,2.92s-.67,2.5-.67,3.9.22,2.69.67,3.88c.44,1.19,1.13,2.16,2.05,2.89.92.73,2.1,1.1,3.53,1.1Z"/>
    <path class="cls-5" d="M620.49,103.2v12.54h-3.2v-20.85h3.09v3.26h.27c.49-1.06,1.23-1.91,2.23-2.56,1-.65,2.28-.97,3.86-.97,1.41,0,2.65.29,3.71.86s1.88,1.44,2.47,2.61c.59,1.16.88,2.63.88,4.4v13.25h-3.2v-13.03c0-1.64-.43-2.92-1.28-3.83-.85-.92-2.02-1.38-3.5-1.38-1.02,0-1.93.22-2.73.67-.8.44-1.43,1.09-1.89,1.94-.46.85-.69,1.88-.69,3.09h-.02Z"/>
    <path class="cls-5" d="M654.42,99.56l-2.88.81c-.18-.48-.45-.95-.79-1.4-.35-.46-.82-.83-1.42-1.13-.6-.3-1.36-.45-2.29-.45-1.28,0-2.34.29-3.18.87-.85.58-1.27,1.32-1.27,2.22,0,.8.29,1.43.87,1.89s1.48.85,2.71,1.15l3.09.76c1.86.45,3.25,1.14,4.17,2.07.91.93,1.37,2.12,1.37,3.58,0,1.19-.34,2.26-1.02,3.2-.68.94-1.64,1.68-2.86,2.23-1.22.54-2.64.81-4.26.81-2.13,0-3.89-.46-5.28-1.38s-2.28-2.27-2.65-4.04l3.04-.76c.29,1.12.84,1.96,1.65,2.52s1.87.84,3.18.84c1.49,0,2.68-.32,3.56-.96s1.32-1.4,1.32-2.3c0-.72-.25-1.33-.76-1.83-.51-.49-1.29-.86-2.33-1.11l-3.48-.81c-1.91-.45-3.31-1.16-4.2-2.11s-1.34-2.15-1.34-3.59c0-1.18.33-2.22,1-3.12s1.57-1.61,2.73-2.13,2.46-.77,3.93-.77c2.06,0,3.68.45,4.87,1.36,1.18.9,2.02,2.1,2.52,3.58h0Z"/>
  </g>
</svg>