<?xml version="1.0" encoding="utf-8"?>
<!-- Generator: Adobe Illustrator 28.0.0, SVG Export Plug-In . SVG Version: 6.00 Build 0)  -->
<svg version="1.1" id="a" xmlns="http://www.w3.org/2000/svg" xmlns:xlink="http://www.w3.org/1999/xlink" x="0px" y="0px"
	 viewBox="0 0 328 300" style="enable-background:new 0 0 328 300;" xml:space="preserve">
<style type="text/css">
	.st0{opacity:0.5;fill:#FFFFFF;enable-background:new    ;}
	.st1{fill:#00AEEF;}
	.st2{fill:#00517D;}
</style>
<path class="st0" d="M8.8,0h310.4c4.9,0,8.8,3.9,8.8,8.8v282.4c0,4.9-3.9,8.8-8.8,8.8H8.8c-4.9,0-8.8-3.9-8.8-8.8V8.8
	C0,3.9,3.9,0,8.8,0z"/>
<path class="st1" d="M320.5,300H7.5c-4.1,0-7.5-3.4-7.5-7.5V7.5C0,3.4,3.4,0,7.5,0h313c4.1,0,7.5,3.4,7.5,7.5v285
	C328,296.6,324.6,300,320.5,300z M7.5,1C3.9,1,1,3.9,1,7.5v285c0,3.6,2.9,6.5,6.5,6.5h313c3.6,0,6.5-2.9,6.5-6.5V7.5
	c0-3.6-2.9-6.5-6.5-6.5H7.5z"/>
<path class="st2" d="M198.1,156.1h-68.2c-1.8,0-3.2-1.4-3.2-3.2V57.3c0-1.8,1.5-3.2,3.2-3.2h42.6c0.8,0,1.5,0.7,1.5,1.5
	s-0.7,1.5-1.5,1.5h-42.6c-0.1,0-0.2,0.1-0.2,0.2v95.5c0,0.1,0.1,0.2,0.2,0.2h68.2c0.1,0,0.2-0.1,0.2-0.2v-70c0-0.8,0.7-1.5,1.5-1.5
	s1.5,0.7,1.5,1.5v70C201.4,154.7,199.9,156.1,198.1,156.1L198.1,156.1L198.1,156.1z"/>
<path class="st2" d="M199.8,84.4h-27.3c-0.8,0-1.5-0.7-1.5-1.5V55.6c0-0.6,0.4-1.2,0.9-1.4c0.6-0.2,1.2-0.1,1.6,0.3l27.3,27.3
	c0.4,0.4,0.6,1.1,0.3,1.6S200.4,84.4,199.8,84.4z M174,81.4h22.2L174,59.2V81.4z"/>
<path class="st2" d="M155.8,135.1h-0.5c-5.5,0-10.1-4.4-10.1-9.9v-12.7c0-0.8,0.7-1.5,1.5-1.5s1.5,0.7,1.5,1.5v12.7
	c0,3.8,3.2,6.9,7.1,6.9h0.5c3.9,0,7.1-3.1,7.1-6.9v-20.4c0-0.8,0.7-1.5,1.5-1.5s1.5,0.7,1.5,1.5v20.4
	C165.9,130.7,161.4,135.1,155.8,135.1z"/>
<path class="st2" d="M181.5,114.6c-0.8,0-1.5-0.7-1.5-1.5V99.4c0-3.8-3.1-6.9-6.8-6.9h-0.5c-3.8,0-6.8,3.1-6.8,6.9v13.7
	c0,0.8-0.7,1.5-1.5,1.5s-1.5-0.7-1.5-1.5V99.4c0-5.5,4.4-9.9,9.8-9.9h0.5c5.4,0,9.8,4.4,9.8,9.9v13.7
	C183,113.9,182.4,114.6,181.5,114.6z"/>
<path class="st1" d="M153.3,113h-13.2c-1.7,0-3.1-1.4-3.1-3.1V95.7c0-1.7,1.4-3.1,3.1-3.1h13.2c1.7,0,3.1,1.4,3.1,3.1v14.2
	C156.4,111.6,155,113,153.3,113z M140.1,95.6C140.1,95.6,140.1,95.6,140.1,95.6l-0.1,14.3c0,0,0,0.1,0.1,0.1h13.2c0,0,0.1,0,0.1-0.1
	V95.7L140.1,95.6L140.1,95.6L140.1,95.6z"/>
<path class="st1" d="M152.7,95.6h-12v-6.1c0-1.8,1.4-3.2,3.2-3.2h5.5c1.8,0,3.2,1.4,3.2,3.2L152.7,95.6L152.7,95.6L152.7,95.6z
	 M143.8,92.6h6v-3.1c0-0.1-0.1-0.2-0.2-0.2H144c-0.1,0-0.2,0.1-0.2,0.2L143.8,92.6L143.8,92.6L143.8,92.6z"/>
<path class="st1" d="M188.1,132h-13.2c-1.7,0-3.1-1.4-3.1-3.1v-14.2c0-1.7,1.4-3.1,3.1-3.1h13.2c1.7,0,3.1,1.4,3.1,3.1v14.2
	C191.2,130.6,189.8,132,188.1,132z M174.9,114.6C174.9,114.6,174.8,114.6,174.9,114.6l-0.1,14.3l13.3,0.1c0,0,0.1,0,0.1-0.1v-14.2
	c0,0,0-0.1-0.1-0.1L174.9,114.6L174.9,114.6L174.9,114.6z"/>
<path class="st1" d="M184.2,138.3h-5.5c-1.8,0-3.2-1.4-3.2-3.2V129h12v6.1C187.5,136.8,186.1,138.3,184.2,138.3L184.2,138.3
	L184.2,138.3z M178.5,132v3.1c0,0.1,0.1,0.2,0.2,0.2h5.5c0.1,0,0.2-0.1,0.2-0.2V132H178.5L178.5,132L178.5,132z"/>
<path class="st2" d="M100.3,189.7l-3.1,3.5c-1-1-2.3-1.6-3.8-1.6c-1.2,0-2.3,0.5-3.1,1.4c-0.9,0.9-1.3,2-1.3,3.4
	c0,1.3,0.4,2.5,1.3,3.4c0.9,0.9,2,1.4,3.3,1.4c0.7,0,1.3-0.1,2-0.4c0.6-0.3,1.2-0.7,1.6-1.1l3.1,3.4c-1.5,1.8-3.8,2.8-6.9,2.8
	c-2.6,0-4.8-0.9-6.6-2.7c-1.8-1.8-2.7-4-2.7-6.7c0-2.6,0.9-4.8,2.7-6.6c1.8-1.8,4-2.7,6.6-2.7C96.4,187,98.7,187.9,100.3,189.7z"/>
<path class="st2" d="M104.3,189.8c1.8-1.8,4-2.7,6.6-2.7c2.6,0,4.8,0.9,6.7,2.7c1.8,1.9,2.7,4.1,2.7,6.7c0,2.6-0.9,4.8-2.7,6.6
	c-1.9,1.8-4.1,2.7-6.7,2.7c-2.6,0-4.8-0.9-6.6-2.8c-1.8-1.8-2.8-4-2.8-6.6C101.6,193.8,102.5,191.6,104.3,189.8z M106.5,196.4
	c0,1.3,0.4,2.5,1.3,3.4c0.9,0.9,1.9,1.4,3.1,1.4c1.2,0,2.3-0.5,3.2-1.4c0.9-0.9,1.3-2,1.3-3.4c0-1.3-0.4-2.5-1.3-3.4
	c-0.9-0.9-1.9-1.4-3.2-1.4s-2.3,0.5-3.1,1.4C107,194,106.5,195.1,106.5,196.4z"/>
<path class="st2" d="M139.1,205.4h-5l-6.6-10.2v10.2h-4.6v-17.9h5l6.6,10.4v-10.4h4.6V205.4z"/>
<path class="st2" d="M158.6,205.4h-5l-6.6-10.2v10.2h-4.6v-17.9h5l6.6,10.4v-10.4h4.6V205.4z"/>
<path class="st2" d="M173.9,205.4h-11.9v-17.9h11.9v4.3h-7.3v2.4h6.2v4.3h-6.2v2.6h7.3V205.4z"/>
<path class="st2" d="M191.7,189.7l-3.1,3.5c-1-1-2.3-1.6-3.8-1.6c-1.2,0-2.3,0.5-3.1,1.4c-0.9,0.9-1.3,2-1.3,3.4
	c0,1.3,0.4,2.5,1.3,3.4c0.9,0.9,2,1.4,3.3,1.4c0.7,0,1.3-0.1,2-0.4c0.6-0.3,1.2-0.7,1.6-1.1l3.1,3.4c-1.5,1.8-3.8,2.8-6.9,2.8
	c-2.6,0-4.8-0.9-6.6-2.7c-1.8-1.8-2.7-4-2.7-6.7c0-2.6,0.9-4.8,2.7-6.6c1.8-1.8,4-2.7,6.6-2.7C187.8,187,190.1,187.9,191.7,189.7z"
	/>
<path class="st2" d="M206.9,187.5v4.3h-4.9v13.6h-4.6v-13.6h-4.9v-4.3H206.9z"/>
<path class="st2" d="M210.8,189.8c1.8-1.8,4-2.7,6.6-2.7c2.6,0,4.8,0.9,6.7,2.7c1.8,1.9,2.7,4.1,2.7,6.7c0,2.6-0.9,4.8-2.7,6.6
	c-1.9,1.8-4.1,2.7-6.7,2.7c-2.6,0-4.8-0.9-6.6-2.8c-1.8-1.8-2.8-4-2.8-6.6C208,193.8,208.9,191.6,210.8,189.8z M212.9,196.4
	c0,1.3,0.4,2.5,1.3,3.4c0.9,0.9,1.9,1.4,3.1,1.4c1.2,0,2.3-0.5,3.2-1.4c0.9-0.9,1.3-2,1.3-3.4c0-1.3-0.4-2.5-1.3-3.4
	c-0.9-0.9-1.9-1.4-3.2-1.4s-2.3,0.5-3.1,1.4C213.4,194,212.9,195.1,212.9,196.4z"/>
<path class="st2" d="M233.9,205.4h-4.6v-17.9h6.5c2.3,0,4.1,0.5,5.5,1.6c1.4,1.1,2.1,2.5,2.1,4.3c0,1.2-0.3,2.2-0.9,3.1
	c-0.6,0.9-1.4,1.6-2.5,2.1l3.8,6.9h-5.3l-3.1-6h-1.5V205.4z M236.2,191.5h-2.3v3.8h2.3c0.7,0,1.2-0.2,1.7-0.5
	c0.4-0.4,0.6-0.8,0.6-1.4c0-0.6-0.2-1-0.6-1.4C237.5,191.7,236.9,191.5,236.2,191.5z"/>
<path class="st2" d="M56.9,239h-6.5v-17.9h6.5c2.9,0,5.4,0.8,7.3,2.5c1.9,1.7,2.9,3.9,2.9,6.5c0,2.6-1,4.7-2.9,6.4
	C62.2,238.1,59.8,239,56.9,239z M56.8,225.4h-1.7v9.3h1.7c1.6,0,2.9-0.4,3.8-1.3c1-0.8,1.4-2,1.4-3.4c0-1.4-0.5-2.5-1.5-3.3
	S58.4,225.4,56.8,225.4z"/>
<path class="st2" d="M71.5,223.4c1.8-1.8,4-2.7,6.6-2.7c2.6,0,4.8,0.9,6.7,2.7c1.8,1.9,2.7,4.1,2.7,6.7c0,2.6-0.9,4.8-2.7,6.6
	c-1.9,1.8-4.1,2.7-6.7,2.7c-2.6,0-4.8-0.9-6.6-2.8c-1.8-1.8-2.8-4-2.8-6.6C68.7,227.4,69.7,225.2,71.5,223.4z M73.7,230
	c0,1.3,0.4,2.5,1.3,3.4c0.9,0.9,1.9,1.4,3.1,1.4c1.2,0,2.3-0.5,3.2-1.4c0.9-0.9,1.3-2,1.3-3.4c0-1.3-0.4-2.5-1.3-3.4
	c-0.9-0.9-1.9-1.4-3.2-1.4s-2.3,0.5-3.1,1.4C74.1,227.6,73.7,228.7,73.7,230z"/>
<path class="st2" d="M105.4,223.3l-3.1,3.5c-1-1-2.3-1.6-3.8-1.6c-1.2,0-2.3,0.5-3.1,1.4c-0.9,0.9-1.3,2-1.3,3.4
	c0,1.3,0.4,2.5,1.3,3.4c0.9,0.9,2,1.4,3.3,1.4c0.7,0,1.3-0.1,2-0.4c0.6-0.3,1.2-0.7,1.6-1.1l3.1,3.4c-1.5,1.8-3.8,2.8-6.9,2.8
	c-2.6,0-4.8-0.9-6.6-2.7c-1.8-1.8-2.7-4-2.7-6.7c0-2.6,0.9-4.8,2.7-6.6c1.8-1.8,4-2.7,6.6-2.7C101.5,220.6,103.8,221.5,105.4,223.3z
	"/>
<path class="st2" d="M107.4,231.3v-10.3h4.6v10.2c0,1.1,0.3,2,0.9,2.6s1.3,1,2.3,1c0.9,0,1.6-0.3,2.2-1s0.8-1.5,0.8-2.6v-10.2h4.6
	v10.3c0,2.4-0.7,4.4-2.1,5.9c-1.4,1.5-3.3,2.2-5.6,2.2c-2.3,0-4.1-0.7-5.5-2.2C108.1,235.7,107.4,233.8,107.4,231.3z"/>
<path class="st2" d="M141.1,228.2l-5.2,7.6l-5.2-7.6V239H126v-17.9h5.3l4.8,7.3l4.8-7.3h4.7V239h-4.6V228.2z"/>
<path class="st2" d="M161,239H149v-17.9H161v4.3h-7.3v2.4h6.2v4.3h-6.2v2.6h7.3V239z"/>
<path class="st2" d="M179.6,239h-5l-6.6-10.2V239h-4.6v-17.9h5l6.6,10.4v-10.4h4.6V239z"/>
<path class="st2" d="M196,221.1v4.3h-4.9V239h-4.6v-13.6h-4.9v-4.3H196z"/>
<path class="st2" d="M216,239h-5.1l-1.2-3.4h-7l-1.2,3.4h-4.8l7-17.9h5.4L216,239z M204.2,231.5h4.1l-2-5.6L204.2,231.5z"/>
<path class="st2" d="M231,221.1v4.3h-4.9V239h-4.6v-13.6h-4.9v-4.3H231z"/>
<path class="st2" d="M237.6,239H233v-17.9h4.6V239z"/>
<path class="st2" d="M242.9,223.4c1.8-1.8,4-2.7,6.6-2.7c2.6,0,4.8,0.9,6.7,2.7c1.8,1.9,2.7,4.1,2.7,6.7c0,2.6-0.9,4.8-2.7,6.6
	c-1.9,1.8-4.1,2.7-6.7,2.7c-2.6,0-4.8-0.9-6.6-2.8c-1.8-1.8-2.8-4-2.8-6.6C240.1,227.4,241.1,225.2,242.9,223.4z M245.1,230
	c0,1.3,0.4,2.5,1.3,3.4c0.9,0.9,1.9,1.4,3.1,1.4c1.2,0,2.3-0.5,3.2-1.4c0.9-0.9,1.3-2,1.3-3.4c0-1.3-0.4-2.5-1.3-3.4
	c-0.9-0.9-1.9-1.4-3.2-1.4s-2.3,0.5-3.1,1.4C245.5,227.6,245.1,228.7,245.1,230z"/>
<path class="st2" d="M277.6,239h-5l-6.6-10.2V239h-4.6v-17.9h5l6.6,10.4v-10.4h4.6V239z"/>
</svg>
