<?xml version="1.0" encoding="UTF-8"?><svg id="Layer_2" xmlns="http://www.w3.org/2000/svg" viewBox="0 0 328 300"><defs><style>.cls-1{fill:#00517d;}.cls-2{fill:#fff;opacity:.5;}.cls-3{fill:#00aeef;}</style></defs><g id="Layer_1-2"><g><rect class="cls-2" width="327" height="300" rx="7" ry="7"/><path class="cls-3" d="M320.5,300H7.5c-4.14,0-7.5-3.36-7.5-7.5V7.5C0,3.36,3.36,0,7.5,0H320.5c4.14,0,7.5,3.36,7.5,7.5V292.5c0,4.14-3.36,7.5-7.5,7.5ZM7.5,1C3.92,1,1,3.92,1,7.5V292.5c0,3.58,2.92,6.5,6.5,6.5H320.5c3.58,0,6.5-2.92,6.5-6.5V7.5c0-3.58-2.92-6.5-6.5-6.5H7.5Z"/><g><g><path class="cls-1" d="M195.77,147.15c-.29,0-.58-.09-.83-.25l-42.31-28.29c-.41-.27-.66-.73-.67-1.21-.01-.49,.22-.95,.61-1.24l57.83-42.46-70.8,36.38c-.43,.22-.93,.22-1.36,0l-36.92-18.59c-.57-.29-.89-.9-.81-1.53,.08-.63,.55-1.14,1.18-1.28l124.47-26.4c.22-.05,.44-.05,.65,0h0s.07,.02,.11,.03h.01c.32,.1,.6,.3,.8,.59,.03,.05,.06,.09,.09,.14,.14,.26,.19,.55,.17,.83,0,.09-.02,.18-.05,.27-.01,.05-.03,.1-.05,.15l-30.71,81.9c-.16,.43-.51,.76-.95,.9-.15,.05-.3,.07-.46,.07Zm-39.7-29.85l38.96,26.05,28.29-75.43-67.24,49.38Zm-49.59-26.58l32.42,16.33,76.91-39.52-109.34,23.19Z"/><path class="cls-1" d="M145.38,146.34s-.05,0-.08,0c-.69-.04-1.27-.55-1.39-1.23l-6.47-36.11c-.15-.82,.4-1.59,1.21-1.74,.82-.14,1.59,.4,1.74,1.21l5.35,29.85,6.29-21.38c.23-.8,1.07-1.25,1.86-1.02,.79,.23,1.25,1.07,1.02,1.86l-8.08,27.49c-.19,.64-.78,1.08-1.44,1.08Z"/><path class="cls-1" d="M145.38,146.34c-.48,0-.95-.23-1.24-.66-.46-.69-.29-1.62,.4-2.08l24.4-16.58c.68-.46,1.62-.29,2.08,.4,.46,.69,.29,1.62-.4,2.08l-24.4,16.58c-.26,.17-.55,.26-.84,.26Z"/></g><g><path class="cls-3" d="M195.77,147.15c-.29,0-.58-.09-.83-.25l-42.31-28.29c-.41-.27-.66-.73-.67-1.21-.01-.49,.22-.95,.61-1.24l73.03-53.62c.54-.39,1.26-.39,1.79,.01,.53,.4,.73,1.1,.5,1.72l-30.72,81.92c-.16,.43-.51,.76-.95,.9-.15,.05-.3,.07-.46,.07Zm-39.7-29.85l38.96,26.05,28.29-75.43-67.24,49.38Z"/><path class="cls-3" d="M145.38,146.34c-.31,0-.62-.1-.88-.29-.51-.37-.73-1.03-.56-1.63l8.08-27.49c.23-.8,1.07-1.25,1.86-1.02,.79,.23,1.25,1.07,1.02,1.86l-6.9,23.47,20.94-14.22c.68-.46,1.62-.29,2.08,.4,.46,.69,.29,1.62-.4,2.08l-24.4,16.58c-.25,.17-.55,.26-.84,.26Z"/></g></g><g><path class="cls-1" d="M94.06,204.76h-6.52v-17.95h6.52c2.93,0,5.36,.85,7.28,2.55,1.92,1.7,2.88,3.86,2.88,6.47s-.96,4.7-2.88,6.38c-1.92,1.7-4.35,2.55-7.28,2.55Zm-.08-13.61h-1.68v9.27h1.71c1.59,0,2.86-.42,3.82-1.27,.96-.85,1.44-1.97,1.44-3.37s-.49-2.5-1.46-3.35-2.25-1.27-3.84-1.27Z"/><path class="cls-1" d="M124.77,204.76h-5.1l-1.23-3.39h-7.03l-1.23,3.39h-4.84l7-17.95h5.43l7,17.95Zm-11.87-7.48h4.06l-2.02-5.57-2.04,5.57Z"/><path class="cls-1" d="M139.78,186.81v4.34h-4.93v13.61h-4.62v-13.61h-4.9v-4.34h14.45Z"/><path class="cls-1" d="M159.77,204.76h-5.1l-1.23-3.39h-7.03l-1.23,3.39h-4.84l7-17.95h5.43l7,17.95Zm-11.87-7.48h4.06l-2.02-5.57-2.04,5.57Z"/><path class="cls-1" d="M176.82,193.92l-5.24,7.59-5.24-7.56v10.81h-4.62v-17.95h5.32l4.84,7.34,4.84-7.34h4.7v17.95h-4.62v-10.84Z"/><path class="cls-1" d="M189.42,204.76h-4.62v-17.95h4.62v17.95Z"/><path class="cls-1" d="M208.94,204.76h-4.96l-6.58-10.22v10.22h-4.62v-17.95h4.96l6.58,10.39v-10.39h4.62v17.95Z"/><path class="cls-1" d="M224.23,204.76h-11.93v-17.95h11.93v4.34h-7.31v2.35h6.19v4.34h-6.19v2.58h7.31v4.34Z"/><path class="cls-1" d="M231.37,204.76h-4.62v-17.95h6.52c2.29,0,4.13,.54,5.52,1.62,1.38,1.1,2.07,2.54,2.07,4.31,0,1.16-.29,2.18-.87,3.07-.58,.89-1.4,1.58-2.46,2.09l3.78,6.86h-5.35l-3.08-5.99h-1.51v5.99Zm2.27-13.89h-2.27v3.84h2.27c.69,0,1.25-.18,1.68-.53s.64-.83,.64-1.43c0-.56-.21-1.01-.64-1.36-.43-.34-.99-.52-1.68-.52Z"/><path class="cls-1" d="M68.79,238.36h-4.62v-17.95h6.52c2.3,0,4.13,.54,5.52,1.62,1.38,1.1,2.07,2.54,2.07,4.31,0,1.16-.29,2.18-.87,3.07-.58,.89-1.4,1.58-2.46,2.09l3.78,6.86h-5.35l-3.08-5.99h-1.51v5.99Zm2.27-13.89h-2.27v3.84h2.27c.69,0,1.25-.18,1.68-.53,.43-.35,.64-.83,.64-1.43,0-.56-.21-1.01-.64-1.36-.43-.34-.99-.52-1.68-.52Z"/><path class="cls-1" d="M93.18,238.36h-11.93v-17.95h11.93v4.34h-7.31v2.35h6.19v4.34h-6.19v2.58h7.31v4.34Z"/><path class="cls-1" d="M108.46,238.36h-12.77v-17.95h4.62v13.61h8.15v4.34Z"/><path class="cls-1" d="M122.35,238.36h-11.93v-17.95h11.93v4.34h-7.31v2.35h6.19v4.34h-6.19v2.58h7.31v4.34Z"/><path class="cls-1" d="M142.9,238.36h-5.1l-1.23-3.39h-7.03l-1.23,3.39h-4.84l7-17.95h5.43l7,17.95Zm-11.87-7.48h4.06l-2.02-5.57-2.04,5.57Z"/><path class="cls-1" d="M158.19,223.27l-3.13,3.14c-.99-1.38-2.3-2.07-3.92-2.07-1.14,0-1.71,.36-1.71,1.09,0,.37,.26,.7,.77,.98,.51,.28,1.33,.6,2.45,.97,1.12,.36,1.94,.66,2.46,.88,.91,.41,1.66,1.02,2.23,1.83,.57,.81,.85,1.77,.85,2.87,0,1.7-.67,3.09-2.02,4.17-1.36,1.1-3.08,1.65-5.15,1.65-3.43,0-5.86-1.12-7.28-3.36l3.28-3.08c1.01,1.4,2.37,2.1,4.09,2.1,1.42,0,2.13-.43,2.13-1.29,0-.32-.16-.6-.49-.84s-.75-.45-1.26-.63-1.08-.36-1.69-.55-1.24-.42-1.86-.71c-.62-.29-1.19-.63-1.71-1.02-.51-.39-.93-.92-1.26-1.58-.33-.66-.49-1.42-.49-2.28,0-1.6,.64-2.93,1.93-3.98,1.31-1.04,2.95-1.57,4.93-1.57,1.49,0,2.84,.29,4.03,.87,1.19,.58,2.14,1.38,2.83,2.41Z"/><path class="cls-1" d="M172.5,238.36h-11.93v-17.95h11.93v4.34h-7.31v2.35h6.19v4.34h-6.19v2.58h7.31v4.34Z"/><path class="cls-1" d="M198.17,238.36h-4.96l-6.58-10.22v10.22h-4.62v-17.95h4.96l6.58,10.39v-10.39h4.62v17.95Z"/><path class="cls-1" d="M203.46,222.74c1.83-1.83,4.04-2.74,6.64-2.74s4.8,.92,6.66,2.74c1.83,1.87,2.74,4.09,2.74,6.66s-.92,4.81-2.74,6.64c-1.87,1.83-4.09,2.74-6.66,2.74s-4.83-.92-6.64-2.77c-1.85-1.83-2.77-4.04-2.77-6.64s.92-4.81,2.77-6.64Zm2.18,6.64c0,1.33,.44,2.46,1.32,3.39,.88,.93,1.92,1.4,3.14,1.4s2.29-.47,3.16-1.4c.86-.92,1.29-2.04,1.29-3.36s-.43-2.47-1.29-3.39c-.88-.93-1.93-1.4-3.16-1.4s-2.28,.46-3.14,1.37c-.88,.93-1.32,2.06-1.32,3.39Z"/><path class="cls-1" d="M235.08,220.41v4.34h-4.93v13.61h-4.62v-13.61h-4.9v-4.34h14.45Z"/><path class="cls-1" d="M248.96,238.36h-11.93v-17.95h11.93v4.34h-7.31v2.35h6.19v4.34h-6.19v2.58h7.31v4.34Z"/><path class="cls-1" d="M264.81,223.27l-3.13,3.14c-.99-1.38-2.3-2.07-3.92-2.07-1.14,0-1.71,.36-1.71,1.09,0,.37,.26,.7,.77,.98s1.33,.6,2.45,.97c1.12,.36,1.94,.66,2.46,.88,.92,.41,1.66,1.02,2.23,1.83,.57,.81,.85,1.77,.85,2.87,0,1.7-.67,3.09-2.02,4.17-1.36,1.1-3.08,1.65-5.15,1.65-3.43,0-5.86-1.12-7.28-3.36l3.28-3.08c1.01,1.4,2.37,2.1,4.09,2.1,1.42,0,2.13-.43,2.13-1.29,0-.32-.16-.6-.49-.84s-.75-.45-1.26-.63-1.08-.36-1.69-.55c-.62-.19-1.24-.42-1.86-.71-.62-.29-1.2-.63-1.71-1.02-.51-.39-.93-.92-1.26-1.58-.33-.66-.49-1.42-.49-2.28,0-1.6,.64-2.93,1.93-3.98,1.31-1.04,2.95-1.57,4.93-1.57,1.49,0,2.84,.29,4.03,.87,1.2,.58,2.14,1.38,2.83,2.41Z"/></g></g></g></svg>