<?xml version="1.0" encoding="UTF-8"?><svg id="a" xmlns="http://www.w3.org/2000/svg" viewBox="0 0 328 300"><defs><style>.d{fill:#fff;opacity:.5;}.d,.e,.f{stroke-width:0px;}.e{fill:#00aeef;}.f{fill:#00517d;}</style></defs><g id="b"><rect class="d" width="328" height="300" rx="8.79" ry="8.79"/><path class="e" d="m320.5,300H7.5c-4.14,0-7.5-3.36-7.5-7.5V7.5C0,3.36,3.36,0,7.5,0h313c4.14,0,7.5,3.36,7.5,7.5v285c0,4.14-3.36,7.5-7.5,7.5ZM7.5,1C3.92,1,1,3.92,1,7.5v285c0,3.58,2.92,6.5,6.5,6.5h313c3.58,0,6.5-2.92,6.5-6.5V7.5c0-3.58-2.92-6.5-6.5-6.5H7.5Z"/><path class="f" d="m94.06,204.98h-6.52v-17.95h6.52c2.93,0,5.36.85,7.28,2.55s2.88,3.86,2.88,6.47-.96,4.7-2.88,6.38c-1.92,1.7-4.35,2.55-7.28,2.55h0Zm-.08-13.61h-1.68v9.27h1.71c1.59,0,2.86-.42,3.82-1.27s1.44-1.97,1.44-3.37-.49-2.5-1.46-3.35-2.25-1.27-3.84-1.27h0Z"/><path class="f" d="m124.77,204.98h-5.1l-1.23-3.39h-7.03l-1.23,3.39h-4.84l7-17.95h5.43l7,17.95Zm-11.87-7.48h4.06l-2.02-5.57-2.04,5.57Z"/><path class="f" d="m139.78,187.03v4.34h-4.93v13.61h-4.62v-13.61h-4.9v-4.34h14.45,0Z"/><path class="f" d="m159.77,204.98h-5.1l-1.23-3.39h-7.03l-1.23,3.39h-4.84l7-17.95h5.43l7,17.95Zm-11.87-7.48h4.06l-2.02-5.57-2.04,5.57Z"/><path class="f" d="m176.82,194.14l-5.24,7.59-5.24-7.56v10.81h-4.62v-17.95h5.32l4.84,7.34,4.84-7.34h4.7v17.95h-4.62v-10.84h.02Z"/><path class="f" d="m189.42,204.98h-4.62v-17.95h4.62v17.95Z"/><path class="f" d="m208.94,204.98h-4.96l-6.58-10.22v10.22h-4.62v-17.95h4.96l6.58,10.39v-10.39h4.62v17.95Z"/><path class="f" d="m224.23,204.98h-11.93v-17.95h11.93v4.34h-7.31v2.35h6.19v4.34h-6.19v2.58h7.31v4.34h0Z"/><path class="f" d="m231.37,204.98h-4.62v-17.95h6.52c2.29,0,4.13.54,5.52,1.62,1.38,1.1,2.07,2.54,2.07,4.31,0,1.16-.29,2.18-.87,3.07-.58.89-1.4,1.58-2.46,2.09l3.78,6.86h-5.35l-3.08-5.99h-1.51v5.99h0Zm2.27-13.89h-2.27v3.84h2.27c.69,0,1.25-.18,1.68-.53s.64-.83.64-1.43c0-.56-.21-1.01-.64-1.36-.43-.34-.99-.52-1.68-.52Z"/><path class="f" d="m106.5,220.63v4.34h-4.93v13.61h-4.62v-13.61h-4.9v-4.34h14.45Z"/><path class="f" d="m108.32,230.91v-10.28h4.62v10.16c0,1.08.28,1.95.85,2.6.57.65,1.32.98,2.25.98s1.65-.32,2.2-.97.83-1.51.83-2.59v-10.19h4.62v10.28c0,2.43-.7,4.38-2.1,5.85-1.44,1.49-3.31,2.24-5.63,2.24s-4.14-.75-5.54-2.24c-1.4-1.47-2.1-3.42-2.1-5.85h0Z"/><path class="f" d="m139.96,220.63v4.34h-4.93v13.61h-4.62v-13.61h-4.9v-4.34h14.45,0Z"/><path class="f" d="m143.85,222.96c1.83-1.83,4.04-2.74,6.64-2.74s4.8.92,6.66,2.74c1.83,1.87,2.74,4.09,2.74,6.66s-.91,4.81-2.74,6.64c-1.87,1.83-4.09,2.74-6.66,2.74s-4.83-.92-6.64-2.77c-1.85-1.83-2.77-4.04-2.77-6.64s.92-4.81,2.77-6.64h0Zm2.18,6.64c0,1.33.44,2.46,1.32,3.39s1.92,1.4,3.14,1.4,2.29-.47,3.16-1.4c.86-.92,1.29-2.04,1.29-3.36s-.43-2.47-1.29-3.39c-.88-.93-1.93-1.4-3.16-1.4s-2.28.46-3.14,1.37c-.88.93-1.32,2.06-1.32,3.39Z"/><path class="f" d="m167.04,238.58h-4.62v-17.95h6.52c2.3,0,4.13.54,5.52,1.62,1.38,1.1,2.07,2.54,2.07,4.31,0,1.16-.29,2.18-.87,3.07-.58.89-1.4,1.58-2.46,2.09l3.78,6.86h-5.35l-3.08-5.99h-1.51v5.99h0Zm2.27-13.89h-2.27v3.84h2.27c.69,0,1.25-.18,1.68-.53s.64-.83.64-1.43c0-.56-.21-1.01-.64-1.36-.43-.34-.99-.52-1.68-.52Z"/><path class="f" d="m184.12,238.58h-4.62v-17.95h4.62v17.95Z"/><path class="f" d="m205.51,238.58h-5.1l-1.23-3.39h-7.03l-1.23,3.39h-4.84l7-17.95h5.43l7,17.95Zm-11.87-7.48h4.06l-2.02-5.57-2.04,5.57Z"/><path class="f" d="m220.24,238.58h-12.77v-17.95h4.62v13.61h8.15v4.34h0Z"/><path class="f" d="m235.53,223.49l-3.14,3.14c-.99-1.38-2.29-2.07-3.92-2.07-1.14,0-1.71.36-1.71,1.09,0,.37.26.7.77.98s1.33.6,2.45.97c1.12.36,1.94.66,2.46.88.91.41,1.66,1.02,2.23,1.83.57.81.85,1.77.85,2.87,0,1.7-.67,3.09-2.02,4.17-1.36,1.1-3.08,1.65-5.15,1.65-3.44,0-5.86-1.12-7.28-3.36l3.28-3.08c1.01,1.4,2.37,2.1,4.09,2.1,1.42,0,2.13-.43,2.13-1.29,0-.32-.16-.6-.49-.84-.33-.24-.75-.45-1.26-.63-.51-.18-1.08-.36-1.69-.55-.62-.19-1.24-.42-1.86-.71-.63-.29-1.2-.63-1.71-1.02s-.93-.92-1.26-1.58-.49-1.42-.49-2.28c0-1.6.64-2.93,1.93-3.98,1.31-1.04,2.95-1.57,4.93-1.57,1.49,0,2.84.29,4.03.87s2.14,1.38,2.83,2.41h0Z"/><g id="c"><path class="e" d="m147.55,109.5c-6.1,0-11.07-5.17-11.07-11.52s4.96-11.52,11.07-11.52,11.06,5.17,11.06,11.52-4.96,11.52-11.06,11.52h0Zm0-20.22c-4.55,0-8.25,3.9-8.25,8.7s3.7,8.7,8.25,8.7,8.24-3.9,8.24-8.7-3.7-8.7-8.24-8.7Z"/><path class="e" d="m139.24,135.32c-.78,0-1.79.55-1.79-.23v-8.54c0-.78.63-1.41,1.41-1.41s1.41.63,1.41,1.41v8.54c0,.78-.25.23-1.03.23h0Z"/><path class="e" d="m156.02,135.32c-.78,0-1.41.55-1.41-.23v-8.54c0-.78.63-1.41,1.41-1.41s1.41.63,1.41,1.41v8.54c0,.78-.63.23-1.41.23Z"/><path class="e" d="m167.44,136.39h-39.79l-.2-1.18c-.21-1.29-.05-6.71-.02-7.78,0-9.37,7.66-17.03,17.08-17.03h6.06c9.41,0,17.07,7.65,17.08,17.05.04,1.12.19,6.48-.02,7.76l-.2,1.18h0Zm-37.27-2.82h34.74c.03-1.55-.02-4.17-.08-6.05v-.05c0-7.86-6.4-14.26-14.26-14.26h-6.06c-7.86,0-14.26,6.4-14.26,14.26-.06,1.91-.11,4.54-.08,6.09h0Zm37.48-6.09h0Z"/><path class="f" d="m211.22,136.37h-89.08c-1.89,0-3.43-1.54-3.43-3.43v-55.5c0-1.89,1.54-3.43,3.43-3.43h41.07c.78,0,1.41.63,1.41,1.41s-.63,1.41-1.41,1.41h-41.07c-.34,0-.61.27-.61.61v55.5c0,.34.27.61.61.61h89.08c.34,0,.61-.27.61-.61v-34.75c0-.78.63-1.41,1.41-1.41s1.41.63,1.41,1.41v34.75c0,1.89-1.54,3.43-3.43,3.43h0Z"/><path class="f" d="m187.03,156h-40.71v-6.33c0-2.18,1.77-3.95,3.95-3.95h32.81c2.18,0,3.95,1.77,3.95,3.95v6.33Zm-37.89,0h35.07v-6.33c0-.62-.51-1.13-1.13-1.13h-32.81c-.62,0-1.13.51-1.13,1.13v6.33h0Z"/><path class="f" d="m175.06,148.55h-16.77v-14.69h16.77v14.69Zm-13.95-2.82h11.13v-9.05h-11.13v9.05Z"/><path class="e" d="m199.41,156h-63.93c-.78,0-1.41-.63-1.41-1.41s.63-1.41,1.41-1.41h63.93c.78,0,1.41.63,1.41,1.41s-.63,1.41-1.41,1.41Z"/><path class="e" d="m179.97,104.74c-.29,0-.59-.05-.87-.16-1-.37-1.65-1.29-1.65-2.36v-8.94c-4.91-.62-8.71-4.81-8.71-9.88v-19.44c0-5.49,4.47-9.96,9.96-9.96h41.43c5.49,0,9.96,4.47,9.96,9.96v19.44c0,5.49-4.47,9.96-9.96,9.96h-29.38l-8.87,10.49c-.49.58-1.19.89-1.91.89Zm-1.27-47.92c-3.94,0-7.14,3.2-7.14,7.14v19.44c0,3.94,3.2,7.14,7.14,7.14h0c.87,0,1.57.7,1.57,1.57v9.27l8.7-10.28c.3-.35.74-.56,1.2-.56h29.95c3.94,0,7.14-3.2,7.14-7.14v-19.44c0-3.94-3.2-7.14-7.14-7.14h-41.43,0Z"/><rect class="e" x="183.96" y="72.1" width="3.04" height="3.04" rx=".42" ry=".42"/><rect class="e" x="190.69" y="72.1" width="3.04" height="3.04" rx=".42" ry=".42"/><rect class="e" x="197.42" y="72.1" width="3.04" height="3.04" rx=".42" ry=".42"/><rect class="e" x="204.15" y="72.1" width="3.04" height="3.04" rx=".42" ry=".42"/><rect class="e" x="210.88" y="72.1" width="3.04" height="3.04" rx=".42" ry=".42"/></g><path class="f" d="m202.4,119.34h-15.51c-.78,0-1.41-.63-1.41-1.41s.63-1.41,1.41-1.41h15.51c.78,0,1.41.63,1.41,1.41s-.63,1.41-1.41,1.41Z"/><path class="f" d="m202.4,124.98h-15.51c-.78,0-1.41-.63-1.41-1.41s.63-1.41,1.41-1.41h15.51c.78,0,1.41.63,1.41,1.41s-.63,1.41-1.41,1.41Z"/><path class="f" d="m202.4,130.62h-15.51c-.78,0-1.41-.63-1.41-1.41s.63-1.41,1.41-1.41h15.51c.78,0,1.41.63,1.41,1.41s-.63,1.41-1.41,1.41Z"/><path class="f" d="m211.65,136.26h-34.01c-1.51,0-2.74-1.23-2.74-2.74v-20.85c0-1.51,1.23-2.74,2.74-2.74h34.01c1.51,0,2.74,1.23,2.74,2.74v20.85c0,1.51-1.23,2.74-2.74,2.74Zm-33.93-2.82h33.84v-20.68h-33.84v20.68Z"/></g></svg>