<?xml version="1.0" encoding="UTF-8"?><svg id="b" xmlns="http://www.w3.org/2000/svg" viewBox="0 0 328 300"><defs><style>.c{fill:#00aeef;}.d{fill:#fff;}.e{fill:#00517d;}.f{fill:#205079;}.g{opacity:.5;}.h{fill:#4eaae8;}.i{fill:#9b515c;}</style></defs><g class="g"><path class="i" d="M328,292.5c0,4.14-3.36,7.5-7.5,7.5H7.5c-4.14,0-7.5-3.36-7.5-7.5V7.5C0,3.36,3.36,0,7.5,0h313c4.14,0,7.5,3.36,7.5,7.5v285Z"/><path class="d" d="M328,292.5c0,4.14-3.36,7.5-7.5,7.5H7.5c-4.14,0-7.5-3.36-7.5-7.5V7.5C0,3.36,3.36,0,7.5,0h313c4.14,0,7.5,3.36,7.5,7.5v285Z"/></g><path class="e" d="M94.42,203.39h-6.5v-17.89h6.5c2.92,0,5.34.85,7.25,2.54,1.92,1.69,2.88,3.84,2.88,6.45s-.96,4.69-2.88,6.36c-1.92,1.69-4.33,2.54-7.25,2.54ZM94.33,189.83h-1.67v9.24h1.7c1.58,0,2.85-.42,3.81-1.27s1.44-1.97,1.44-3.36-.48-2.49-1.45-3.33c-.97-.85-2.24-1.27-3.82-1.27Z"/><path class="e" d="M125.03,203.39h-5.08l-1.23-3.38h-7l-1.23,3.38h-4.83l6.98-17.89h5.41l6.98,17.89ZM113.2,195.94h4.05l-2.01-5.55-2.04,5.55Z"/><path class="e" d="M139.98,185.51v4.33h-4.91v13.56h-4.6v-13.56h-4.88v-4.33h14.4Z"/><path class="e" d="M159.91,203.39h-5.08l-1.23-3.38h-7l-1.23,3.38h-4.83l6.98-17.89h5.41l6.98,17.89ZM148.08,195.94h4.05l-2.01-5.55-2.04,5.55Z"/><path class="e" d="M176.9,192.59l-5.22,7.56-5.22-7.53v10.77h-4.6v-17.89h5.3l4.83,7.31,4.83-7.31h4.69v17.89h-4.6v-10.8Z"/><path class="e" d="M189.46,203.39h-4.6v-17.89h4.6v17.89Z"/><path class="e" d="M208.91,203.39h-4.94l-6.56-10.18v10.18h-4.6v-17.89h4.94l6.56,10.35v-10.35h4.6v17.89Z"/><path class="e" d="M224.14,203.39h-11.89v-17.89h11.89v4.33h-7.28v2.34h6.17v4.33h-6.17v2.57h7.28v4.33Z"/><path class="e" d="M231.26,203.39h-4.6v-17.89h6.5c2.29,0,4.12.54,5.5,1.62,1.38,1.1,2.07,2.53,2.07,4.3,0,1.15-.29,2.17-.87,3.06-.58.88-1.4,1.58-2.46,2.08l3.77,6.84h-5.33l-3.07-5.97h-1.51v5.97ZM233.52,189.55h-2.26v3.82h2.26c.69,0,1.25-.18,1.67-.53s.64-.83.64-1.42c0-.56-.21-1.01-.64-1.35-.43-.34-.99-.52-1.67-.52Z"/><path class="e" d="M105.29,221.84l-3.13,3.12c-.99-1.38-2.29-2.07-3.91-2.07-1.13,0-1.7.36-1.7,1.09,0,.37.26.7.77.98.51.28,1.33.6,2.44.96,1.12.36,1.93.66,2.46.88.91.41,1.65,1.02,2.22,1.83.57.81.85,1.76.85,2.86,0,1.69-.67,3.08-2.01,4.16-1.36,1.1-3.07,1.65-5.13,1.65-3.42,0-5.84-1.12-7.26-3.35l3.27-3.07c1,1.39,2.36,2.09,4.07,2.09,1.41,0,2.12-.43,2.12-1.28,0-.32-.16-.59-.49-.84-.33-.24-.74-.45-1.26-.63s-1.07-.36-1.69-.54c-.61-.19-1.23-.42-1.86-.71-.62-.29-1.19-.63-1.7-1.02s-.93-.92-1.26-1.58c-.33-.66-.49-1.42-.49-2.27,0-1.6.64-2.92,1.93-3.96,1.3-1.04,2.94-1.56,4.91-1.56,1.49,0,2.83.29,4.02.87,1.19.58,2.13,1.38,2.82,2.4Z"/><path class="e" d="M109.58,221.31c1.82-1.82,4.03-2.74,6.61-2.74s4.78.91,6.64,2.74c1.82,1.86,2.73,4.07,2.73,6.64s-.91,4.79-2.73,6.61c-1.86,1.82-4.07,2.74-6.64,2.74s-4.81-.92-6.61-2.76c-1.84-1.82-2.76-4.03-2.76-6.61s.92-4.79,2.76-6.61ZM111.76,227.92c0,1.32.44,2.45,1.31,3.38.87.93,1.92,1.4,3.12,1.4s2.28-.46,3.15-1.4c.86-.91,1.28-2.03,1.28-3.35s-.43-2.46-1.28-3.38c-.88-.93-1.93-1.4-3.15-1.4s-2.27.46-3.12,1.37c-.88.93-1.31,2.06-1.31,3.38Z"/><path class="e" d="M140.81,236.88h-12.72v-17.89h4.6v13.56h8.12v4.33Z"/><path class="e" d="M142.62,229.23v-10.24h4.6v10.13c0,1.08.28,1.94.85,2.6.57.65,1.32.98,2.25.98s1.64-.32,2.19-.96.82-1.5.82-2.58v-10.16h4.6v10.24c0,2.42-.7,4.36-2.09,5.83-1.43,1.49-3.3,2.23-5.61,2.23s-4.13-.74-5.52-2.23c-1.4-1.47-2.09-3.41-2.09-5.83Z"/><path class="e" d="M174.15,218.99v4.33h-4.91v13.56h-4.6v-13.56h-4.88v-4.33h14.4Z"/><path class="e" d="M180.71,236.88h-4.6v-17.89h4.6v17.89Z"/><path class="e" d="M185.98,221.31c1.82-1.82,4.03-2.74,6.61-2.74s4.78.91,6.64,2.74c1.82,1.86,2.73,4.07,2.73,6.64s-.91,4.79-2.73,6.61c-1.86,1.82-4.07,2.74-6.64,2.74s-4.81-.92-6.61-2.76c-1.84-1.82-2.76-4.03-2.76-6.61s.92-4.79,2.76-6.61ZM188.16,227.92c0,1.32.44,2.45,1.31,3.38.87.93,1.92,1.4,3.12,1.4s2.28-.46,3.15-1.4c.86-.91,1.28-2.03,1.28-3.35s-.43-2.46-1.28-3.38c-.88-.93-1.93-1.4-3.15-1.4s-2.27.46-3.12,1.37c-.88.93-1.31,2.06-1.31,3.38Z"/><path class="e" d="M220.58,236.88h-4.94l-6.56-10.18v10.18h-4.6v-17.89h4.94l6.56,10.35v-10.35h4.6v17.89Z"/><path class="e" d="M237.21,221.84l-3.13,3.12c-.99-1.38-2.29-2.07-3.91-2.07-1.13,0-1.7.36-1.7,1.09,0,.37.26.7.77.98.51.28,1.33.6,2.44.96,1.12.36,1.93.66,2.46.88.91.41,1.65,1.02,2.22,1.83.57.81.85,1.76.85,2.86,0,1.69-.67,3.08-2.01,4.16-1.36,1.1-3.07,1.65-5.13,1.65-3.42,0-5.84-1.12-7.26-3.35l3.27-3.07c1,1.39,2.36,2.09,4.07,2.09,1.41,0,2.12-.43,2.12-1.28,0-.32-.16-.59-.49-.84-.33-.24-.74-.45-1.26-.63s-1.07-.36-1.69-.54c-.61-.19-1.23-.42-1.86-.71-.62-.29-1.19-.63-1.7-1.02s-.93-.92-1.26-1.58c-.33-.66-.49-1.42-.49-2.27,0-1.6.64-2.92,1.93-3.96,1.3-1.04,2.94-1.56,4.91-1.56,1.49,0,2.83.29,4.02.87,1.19.58,2.13,1.38,2.82,2.4Z"/><path class="c" d="M320.5,300H7.5c-4.14,0-7.5-3.36-7.5-7.5V7.5C0,3.36,3.36,0,7.5,0h313c4.14,0,7.5,3.36,7.5,7.5v285c0,4.14-3.36,7.5-7.5,7.5ZM7.5,1C3.92,1,1,3.92,1,7.5v285c0,3.58,2.92,6.5,6.5,6.5h313c3.58,0,6.5-2.92,6.5-6.5V7.5c0-3.58-2.92-6.5-6.5-6.5H7.5Z"/><path class="c" d="M320.5,300H7.5c-4.14,0-7.5-3.36-7.5-7.5V7.5C0,3.36,3.36,0,7.5,0h313c4.14,0,7.5,3.36,7.5,7.5v285c0,4.14-3.36,7.5-7.5,7.5ZM7.5,1C3.92,1,1,3.92,1,7.5v285c0,3.58,2.92,6.5,6.5,6.5h313c3.58,0,6.5-2.92,6.5-6.5V7.5c0-3.58-2.92-6.5-6.5-6.5H7.5Z"/><path class="h" d="M164.71,134.37c-6.22,0-12.44-2.37-17.17-7.1h0c-9.46-9.46-9.47-24.87,0-34.34,9.46-9.46,24.87-9.47,34.34,0s9.46,24.87,0,34.34c-4.74,4.74-10.95,7.1-17.16,7.1h0ZM149.57,125.23c8.35,8.34,21.92,8.34,30.26,0,8.34-8.35,8.35-21.92,0-30.27-8.35-8.34-21.92-8.34-30.27,0-8.34,8.34-8.34,21.92,0,30.26h0Z"/><path class="f" d="M197.99,78.78l-.86.86c-.28.28-.65.42-1.01.42s-.74-.14-1.02-.42c-.56-.56-.56-1.48,0-2.04l.85-.85,2.04,2.03h0Z"/><path class="f" d="M210.03,55.43c-5.12,0-9.28,4.17-9.28,9.28,0,2.04.66,3.93,1.78,5.46l-6.58,6.58,2.04,2.03,6.58-6.58c1.53,1.12,3.42,1.78,5.46,1.78,5.11,0,9.28-4.16,9.28-9.28s-4.17-9.28-9.28-9.28ZM210.03,71.1c-3.53,0-6.4-2.86-6.4-6.4s2.86-6.4,6.4-6.4,6.4,2.87,6.4,6.4-2.87,6.4-6.4,6.4Z"/><path class="f" d="M111.53,87.78c.06-.13.14-.25.22-.35-.09.25-.2.5-.33.74.01-.13.05-.27.11-.39Z"/><path class="f" d="M134.94,97.97c-.02.05-.04.09-.06.14-.24.54-.76.86-1.32.86-.19,0-.39-.04-.58-.12l-1.25-.55c.32-.9.68-1.79,1.09-2.66l1.32.58c.68.3,1.01,1.07.79,1.76Z"/><path class="f" d="M114.71,87.62c.24-.86.37-1.74.37-2.64,0-1.18-.22-2.37-.66-3.54-1.96-5.07-7.68-7.61-12.75-5.64-5.07,1.96-7.61,7.68-5.64,12.75,1.51,3.91,5.25,6.3,9.2,6.3,1.18,0,2.38-.22,3.55-.66,2.05-.79,3.68-2.2,4.77-3.94l18.19,8.05c.32-.9.68-1.79,1.09-2.66l-18.12-8.02ZM107.74,91.5c-3.6,1.38-7.64-.41-9.03-4s.4-7.64,3.99-9.02c.83-.32,1.68-.47,2.51-.47,1.4,0,2.76.42,3.91,1.19,1.14.77,2.07,1.89,2.61,3.27.63,1.66.6,3.4.03,4.95h0c-.09.26-.2.51-.33.75-.75,1.48-2.02,2.69-3.68,3.33Z"/><path class="f" d="M230.44,104.77c-1.42-1.42-3.32-2.21-5.33-2.21h0c-2.01,0-3.9.78-5.33,2.2-1.1,1.1-1.79,2.46-2.07,3.89h-7.3v2.88h7.3c.27,1.42.96,2.79,2.07,3.89,1.47,1.48,3.4,2.21,5.33,2.21s3.86-.73,5.33-2.19c2.94-2.94,2.95-7.72.01-10.67ZM228.4,113.4c-1.82,1.81-4.78,1.81-6.59,0-.88-.89-1.36-2.05-1.36-3.3h0c0-1.25.49-2.42,1.37-3.3s2.05-1.36,3.29-1.36h0c1.25,0,2.42.48,3.3,1.37,1.81,1.82,1.81,4.77,0,6.59h0Z"/><path class="f" d="M210.41,111.53h-1.42c-.8,0-1.44-.64-1.44-1.44s.64-1.44,1.44-1.44h1.42v2.88h0Z"/><path class="f" d="M134.32,124.92l-1.18.53c-.42-.86-.8-1.74-1.14-2.63l1.14-.52c.72-.33,1.58,0,1.9.71.33.73,0,1.58-.71,1.91Z"/><path class="f" d="M133.14,125.45c-.42-.86-.8-1.74-1.14-2.63l-13.15,5.96c-.28-.4-.6-.76-.96-1.09-.69-.65-1.53-1.17-2.45-1.51-3.81-1.43-8.07.5-9.5,4.31-.69,1.84-.63,3.84.19,5.64.81,1.79,2.27,3.17,4.12,3.86.85.32,1.73.47,2.58.47,2.99,0,5.81-1.83,6.92-4.79.53-1.38.61-2.86.28-4.27l13.11-5.94ZM117.06,134.65c-.88,2.32-3.48,3.5-5.79,2.63-2.32-.88-3.5-3.48-2.63-5.8.68-1.8,2.4-2.91,4.22-2.91.53,0,1.06.09,1.58.29,1.12.42,2.02,1.26,2.51,2.35.5,1.09.54,2.32.12,3.44Z"/><path class="f" d="M151.9,80.07c-.17.06-.33.09-.5.09-.58,0-1.14-.37-1.35-.95l-.24-.66c.87-.41,1.76-.78,2.66-1.11l.29.78c.27.75-.11,1.58-.86,1.85h0Z"/><path class="f" d="M152.24,59.73c1.17-2.51,1.28-5.33.32-7.93-.95-2.61-2.86-4.68-5.38-5.84-5.2-2.4-11.37-.13-13.77,5.06-1.16,2.51-1.27,5.33-.32,7.93.96,2.61,2.86,4.68,5.38,5.84,1.39.65,2.86.97,4.35.97.73,0,1.46-.08,2.19-.24l4.79,13.03c.87-.41,1.76-.78,2.66-1.11l-4.74-12.93c1.98-1.05,3.56-2.71,4.52-4.79h0ZM139.69,62.17c-1.82-.83-3.2-2.33-3.89-4.22-.69-1.88-.61-3.91.23-5.73,1.27-2.73,3.98-4.35,6.82-4.35,1.05,0,2.12.22,3.14.69,1.81.84,3.2,2.35,3.89,4.22.31.84.46,1.71.46,2.58,0,1.07-.23,2.14-.7,3.14-.84,1.81-2.34,3.2-4.22,3.89s-3.91.6-5.73-.24Z"/><path class="h" d="M210.41,111.53v-2.88l-.02-4.4c0-.73-.55-1.33-1.27-1.42l-10.83-1.32c-.8-3.19-2.04-6.22-3.7-9.05l6.52-8.84c.42-.58.37-1.37-.14-1.88l-2.98-2.96-2.04-2.03-3.19-3.17c-.52-.51-1.33-.56-1.9-.12l-8.53,6.64c-2.81-1.66-5.84-2.91-9.03-3.74l-1.69-10.85c-.11-.71-.71-1.22-1.42-1.22h0l-11.6.04c-.71,0-1.32.53-1.42,1.24l-1.52,10.85c-1.08.28-2.14.62-3.17,1-.91.33-1.79.7-2.66,1.11-1.02.47-2.02,1-2.99,1.58l-8.87-6.51c-.58-.42-1.37-.36-1.87.14l-8.16,8.22c-.5.51-.55,1.32-.12,1.89l6.64,8.68c-.59,1-1.13,2.03-1.6,3.09-.41.87-.77,1.76-1.09,2.66-.38,1.04-.71,2.09-.99,3.17l-10.9,1.66c-.7.11-1.22.71-1.22,1.42l.04,11.6c0,.72.53,1.32,1.25,1.42l10.85,1.46c.34,1.29.74,2.55,1.22,3.79.35.89.73,1.77,1.14,2.63.4.83.84,1.66,1.32,2.45l-6.51,8.87c-.42.58-.36,1.37.14,1.87l8.22,8.17c.51.5,1.32.55,1.89.12l8.69-6.67c2.82,1.64,5.85,2.88,9.02,3.67l1.54,10.92c.1.71.71,1.24,1.42,1.24h0l11.59-.04c.72,0,1.33-.53,1.42-1.25l1.49-11.01c3.1-.82,6.05-2.06,8.79-3.68l8.92,6.66c.58.43,1.37.37,1.88-.14l8.18-8.23c.51-.51.56-1.32.12-1.89l-6.76-8.77c1.66-2.8,2.9-5.81,3.72-8.99l10.94-1.48c.71-.1,1.25-.71,1.25-1.43v-4.32s-.01,0-.01,0ZM196.88,116.04c-.6.08-1.08.53-1.21,1.11-.81,3.54-2.19,6.88-4.11,9.93-.32.51-.3,1.17.08,1.65l6.59,8.55-6.41,6.44-8.7-6.49c-.47-.36-1.12-.38-1.63-.06-2.98,1.88-6.25,3.25-9.72,4.07-.58.14-1.01.62-1.09,1.21l-1.45,10.74-9.09.03-1.5-10.65c-.09-.6-.53-1.08-1.12-1.21-3.54-.78-6.89-2.14-9.96-4.05-.23-.14-.5-.22-.76-.22-.31,0-.62.1-.88.3l-8.46,6.51-6.45-6.41,6.35-8.66c.35-.47.37-1.12.06-1.62-1.89-3-3.26-6.3-4.07-9.79-.13-.58-.61-1.02-1.21-1.1l-10.58-1.42-.03-9.1,10.62-1.62c.58-.09,1.06-.53,1.19-1.1.38-1.7.91-3.35,1.55-4.94.02-.05.04-.09.06-.14.68-1.65,1.5-3.24,2.45-4.76.32-.51.29-1.16-.08-1.64l-6.48-8.46,6.4-6.45,8.64,6.35c.47.35,1.12.37,1.62.06,2.99-1.89,6.28-3.26,9.76-4.07.58-.14,1.01-.61,1.09-1.2l1.48-10.58,9.11-.04,1.65,10.59c.09.58.53,1.05,1.11,1.18,3.56.81,6.91,2.19,9.95,4.12.51.32,1.17.3,1.66-.08l8.32-6.48,6.43,6.38-6.35,8.61c-.35.47-.37,1.12-.06,1.62,1.92,3.07,3.3,6.43,4.07,9.97.14.6.63,1.04,1.23,1.12l10.56,1.3.03,9.07-10.66,1.45h0Z"/></svg>