<?xml version="1.0" encoding="UTF-8"?><svg id="Layer_2" xmlns="http://www.w3.org/2000/svg" viewBox="0 0 328 300"><defs><style>.cls-1{fill:#00517d;}.cls-2{fill:#fff;opacity:.5;}.cls-3{fill:#00aeef;}</style></defs><g id="Layer_1-2"><g><rect class="cls-2" width="328" height="300" rx="7" ry="7"/><g><g><g><g><path class="cls-3" d="M146.61,126.55h-4.19c-.83,0-1.5-.67-1.5-1.5s.67-1.5,1.5-1.5h4.19c.83,0,1.5,.67,1.5,1.5s-.67,1.5-1.5,1.5Z"/><path class="cls-3" d="M177.26,116.12h-23.76c-.83,0-1.5-.67-1.5-1.5s.67-1.5,1.5-1.5h23.76c.83,0,1.5,.67,1.5,1.5s-.67,1.5-1.5,1.5Z"/><path class="cls-3" d="M146.62,116.12h-4.2c-.83,0-1.5-.67-1.5-1.5s.67-1.5,1.5-1.5h4.2c.83,0,1.5,.67,1.5,1.5s-.67,1.5-1.5,1.5Z"/><path class="cls-3" d="M173.15,136.99h-19.65c-.83,0-1.5-.67-1.5-1.5s.67-1.5,1.5-1.5h19.65c.83,0,1.5,.67,1.5,1.5s-.67,1.5-1.5,1.5Z"/><path class="cls-3" d="M146.61,136.99h-4.19c-.83,0-1.5-.67-1.5-1.5s.67-1.5,1.5-1.5h4.19c.83,0,1.5,.67,1.5,1.5s-.67,1.5-1.5,1.5Z"/><path class="cls-3" d="M169.64,105.69h-16.14c-.83,0-1.5-.67-1.5-1.5s.67-1.5,1.5-1.5h16.14c.83,0,1.5,.67,1.5,1.5s-.67,1.5-1.5,1.5Z"/><path class="cls-3" d="M169.64,126.55h-16.14c-.83,0-1.5-.67-1.5-1.5s.67-1.5,1.5-1.5h16.14c.83,0,1.5,.67,1.5,1.5s-.67,1.5-1.5,1.5Z"/><path class="cls-3" d="M146.61,105.69h-4.19c-.83,0-1.5-.67-1.5-1.5s.67-1.5,1.5-1.5h4.19c.83,0,1.5,.67,1.5,1.5s-.67,1.5-1.5,1.5Z"/><path class="cls-3" d="M185.78,95.26h-32.28c-.83,0-1.5-.67-1.5-1.5s.67-1.5,1.5-1.5h32.28c.83,0,1.5,.67,1.5,1.5s-.67,1.5-1.5,1.5Z"/><path class="cls-3" d="M146.61,95.26h-4.19c-.83,0-1.5-.67-1.5-1.5s.67-1.5,1.5-1.5h4.19c.83,0,1.5,.67,1.5,1.5s-.67,1.5-1.5,1.5Z"/><path class="cls-3" d="M169.64,84.82h-16.14c-.83,0-1.5-.67-1.5-1.5s.67-1.5,1.5-1.5h16.14c.83,0,1.5,.67,1.5,1.5s-.67,1.5-1.5,1.5Z"/><path class="cls-3" d="M146.61,84.82h-4.19c-.83,0-1.5-.67-1.5-1.5s.67-1.5,1.5-1.5h4.19c.83,0,1.5,.67,1.5,1.5s-.67,1.5-1.5,1.5Z"/><path class="cls-3" d="M185.78,74.39h-32.28c-.83,0-1.5-.67-1.5-1.5s.67-1.5,1.5-1.5h32.28c.83,0,1.5,.67,1.5,1.5s-.67,1.5-1.5,1.5Z"/><path class="cls-3" d="M146.61,74.39h-4.19c-.83,0-1.5-.67-1.5-1.5s.67-1.5,1.5-1.5h4.19c.83,0,1.5,.67,1.5,1.5s-.67,1.5-1.5,1.5Z"/></g><path class="cls-1" d="M197.03,155.03h-65.86c-2.37,0-4.3-1.93-4.3-4.3V57.65c0-2.37,1.93-4.3,4.3-4.3h65.86c2.37,0,4.3,1.93,4.3,4.3v46.89c0,.83-.67,1.5-1.5,1.5s-1.5-.67-1.5-1.5V57.65c0-.72-.58-1.3-1.3-1.3h-65.86c-.72,0-1.3,.58-1.3,1.3v93.08c0,.72,.58,1.3,1.3,1.3h65.86c.72,0,1.3-.58,1.3-1.3v-4.52c0-.83,.67-1.5,1.5-1.5s1.5,.67,1.5,1.5v4.52c0,2.37-1.93,4.3-4.3,4.3Z"/></g><g><g><g><path class="cls-1" d="M205.36,127.9c-.54,0-.99-.44-1-.99-.01-.62-2.14-4.35-7.17-4.35s-7.16,3.73-7.17,4.35c-.01,.55-.47,1.01-1.01,.99-.55,0-.99-.44-.99-.99,0-1.9,3.12-6.35,9.17-6.35s9.17,4.45,9.17,6.35c0,.55-.44,.98-.99,.99h-.01Z"/><path class="cls-1" d="M197.19,133.27c-6.05,0-9.17-4.45-9.17-6.35,0-.55,.45-1,1-1s1,.45,1,1c.01,.62,2.14,4.35,7.17,4.35s7.16-3.73,7.17-4.35c.01-.55,.48-.97,1.01-.99,.55,0,.99,.44,.99,.99,0,1.9-3.12,6.35-9.17,6.35Z"/></g><path class="cls-3" d="M197.19,131.01c-2.26,0-4.1-1.84-4.1-4.1s1.84-4.1,4.1-4.1,4.1,1.84,4.1,4.1-1.84,4.1-4.1,4.1Zm0-6.2c-1.16,0-2.1,.94-2.1,2.1s.94,2.1,2.1,2.1,2.1-.94,2.1-2.1-.94-2.1-2.1-2.1Z"/></g><g><path class="cls-3" d="M197.24,140.93c-7.77,0-14.1-6.33-14.1-14.1s6.33-14.1,14.1-14.1,14.1,6.32,14.1,14.1-6.32,14.1-14.1,14.1Zm0-25.2c-6.12,0-11.1,4.98-11.1,11.1s4.98,11.1,11.1,11.1,11.1-4.98,11.1-11.1-4.98-11.1-11.1-11.1Z"/><path class="cls-3" d="M219.44,150.53c-.38,0-.77-.15-1.06-.44l-13.29-13.29c-.59-.59-.59-1.54,0-2.12,.59-.59,1.54-.59,2.12,0l13.29,13.29c.59,.59,.59,1.54,0,2.12-.29,.29-.68,.44-1.06,.44Z"/></g></g></g><g><path class="cls-1" d="M94.06,203.65h-6.52v-17.95h6.52c2.93,0,5.36,.85,7.28,2.55,1.92,1.7,2.88,3.86,2.88,6.47s-.96,4.7-2.88,6.38c-1.92,1.7-4.35,2.55-7.28,2.55Zm-.08-13.61h-1.68v9.27h1.71c1.59,0,2.86-.42,3.82-1.27,.96-.85,1.44-1.97,1.44-3.37s-.49-2.5-1.46-3.35-2.25-1.27-3.84-1.27Z"/><path class="cls-1" d="M124.77,203.65h-5.1l-1.23-3.39h-7.03l-1.23,3.39h-4.84l7-17.95h5.43l7,17.95Zm-11.87-7.48h4.06l-2.02-5.57-2.04,5.57Z"/><path class="cls-1" d="M139.78,185.7v4.34h-4.93v13.61h-4.62v-13.61h-4.9v-4.34h14.45Z"/><path class="cls-1" d="M159.77,203.65h-5.1l-1.23-3.39h-7.03l-1.23,3.39h-4.84l7-17.95h5.43l7,17.95Zm-11.87-7.48h4.06l-2.02-5.57-2.04,5.57Z"/><path class="cls-1" d="M176.83,192.81l-5.24,7.59-5.24-7.56v10.81h-4.62v-17.95h5.32l4.84,7.34,4.84-7.34h4.7v17.95h-4.62v-10.84Z"/><path class="cls-1" d="M189.42,203.65h-4.62v-17.95h4.62v17.95Z"/><path class="cls-1" d="M208.94,203.65h-4.96l-6.58-10.22v10.22h-4.62v-17.95h4.96l6.58,10.39v-10.39h4.62v17.95Z"/><path class="cls-1" d="M224.23,203.65h-11.93v-17.95h11.93v4.34h-7.31v2.35h6.19v4.34h-6.19v2.58h7.31v4.34Z"/><path class="cls-1" d="M231.37,203.65h-4.62v-17.95h6.52c2.3,0,4.13,.54,5.52,1.62,1.38,1.1,2.07,2.54,2.07,4.31,0,1.16-.29,2.18-.87,3.07-.58,.89-1.4,1.58-2.46,2.09l3.78,6.86h-5.35l-3.08-5.99h-1.51v5.99Zm2.27-13.89h-2.27v3.84h2.27c.69,0,1.25-.18,1.68-.53,.43-.35,.64-.83,.64-1.43,0-.56-.21-1.01-.64-1.36-.43-.34-.99-.52-1.68-.52Z"/><path class="cls-1" d="M96.68,221.63c1.83-1.83,4.04-2.74,6.64-2.74s4.8,.92,6.66,2.74c1.83,1.87,2.74,4.09,2.74,6.66s-.92,4.81-2.74,6.64c-1.87,1.83-4.09,2.74-6.66,2.74s-4.83-.92-6.64-2.77c-1.85-1.83-2.77-4.04-2.77-6.64s.92-4.81,2.77-6.64Zm2.18,6.64c0,1.33,.44,2.46,1.32,3.39,.88,.93,1.92,1.4,3.14,1.4s2.29-.47,3.16-1.4c.86-.92,1.29-2.04,1.29-3.36s-.43-2.47-1.29-3.39c-.88-.93-1.93-1.4-3.16-1.4s-2.28,.46-3.14,1.37c-.88,.93-1.32,2.06-1.32,3.39Z"/><path class="cls-1" d="M113.98,219.3h5.1l4.2,12.94,4.17-12.94h4.84l-6.44,17.95h-5.43l-6.44-17.95Z"/><path class="cls-1" d="M146.32,237.25h-11.93v-17.95h11.93v4.34h-7.31v2.35h6.19v4.34h-6.19v2.58h7.31v4.34Z"/><path class="cls-1" d="M153.46,237.25h-4.62v-17.95h6.52c2.3,0,4.13,.54,5.52,1.62,1.38,1.1,2.07,2.54,2.07,4.31,0,1.16-.29,2.18-.87,3.07-.58,.89-1.4,1.58-2.46,2.09l3.78,6.86h-5.35l-3.08-5.99h-1.51v5.99Zm2.27-13.89h-2.27v3.84h2.27c.69,0,1.25-.18,1.68-.53,.43-.35,.64-.83,.64-1.43,0-.56-.21-1.01-.64-1.36-.43-.34-.99-.52-1.68-.52Z"/><path class="cls-1" d="M164.66,219.3h5.1l4.2,12.94,4.17-12.94h4.84l-6.44,17.95h-5.43l-6.44-17.95Z"/><path class="cls-1" d="M189.69,237.25h-4.62v-17.95h4.62v17.95Z"/><path class="cls-1" d="M204.98,237.25h-11.93v-17.95h11.93v4.34h-7.31v2.35h6.19v4.34h-6.19v2.58h7.31v4.34Z"/><path class="cls-1" d="M226.23,231.93l3.3-12.63h4.84l-5.6,17.95h-5.82l-2.69-12.21-2.69,12.21h-5.6l-5.6-17.95h5.1l3.3,12.63,2.83-12.63h5.8l2.83,12.63Z"/></g></g><g><path class="cls-3" d="M320.5,300H7.5c-4.14,0-7.5-3.36-7.5-7.5V7.5C0,3.36,3.36,0,7.5,0H320.5c4.14,0,7.5,3.36,7.5,7.5V292.5c0,4.14-3.36,7.5-7.5,7.5ZM7.5,1C3.92,1,1,3.92,1,7.5V292.5c0,3.58,2.92,6.5,6.5,6.5H320.5c3.58,0,6.5-2.92,6.5-6.5V7.5c0-3.58-2.92-6.5-6.5-6.5H7.5Z"/><path class="cls-3" d="M320.5,300H7.5c-4.14,0-7.5-3.36-7.5-7.5V7.5C0,3.36,3.36,0,7.5,0H320.5c4.14,0,7.5,3.36,7.5,7.5V292.5c0,4.14-3.36,7.5-7.5,7.5ZM7.5,1C3.92,1,1,3.92,1,7.5V292.5c0,3.58,2.92,6.5,6.5,6.5H320.5c3.58,0,6.5-2.92,6.5-6.5V7.5c0-3.58-2.92-6.5-6.5-6.5H7.5Z"/></g></g></g></svg>