<?xml version="1.0" encoding="UTF-8"?><svg id="Layer_2" xmlns="http://www.w3.org/2000/svg" viewBox="0 0 328 300"><defs><style>.cls-1{fill:#00517d;}.cls-2{fill:#fff;opacity:.5;}.cls-3{fill:#00aeef;}</style></defs><g id="Layer_1-2"><g><rect class="cls-2" width="327" height="300" rx="7" ry="7"/><path class="cls-3" d="M320.5,300H7.5c-4.14,0-7.5-3.36-7.5-7.5V7.5C0,3.36,3.36,0,7.5,0H320.5c4.14,0,7.5,3.36,7.5,7.5V292.5c0,4.14-3.36,7.5-7.5,7.5ZM7.5,1C3.92,1,1,3.92,1,7.5V292.5c0,3.58,2.92,6.5,6.5,6.5H320.5c3.58,0,6.5-2.92,6.5-6.5V7.5c0-3.58-2.92-6.5-6.5-6.5H7.5Z"/><g><g><path class="cls-1" d="M97.03,204.81h-6.52v-17.95h6.52c2.93,0,5.36,.85,7.28,2.55,1.92,1.7,2.88,3.86,2.88,6.47s-.96,4.7-2.88,6.38c-1.92,1.7-4.35,2.55-7.28,2.55Zm-.08-13.61h-1.68v9.27h1.71c1.59,0,2.86-.42,3.82-1.27,.96-.85,1.44-1.97,1.44-3.37s-.49-2.5-1.46-3.35c-.97-.85-2.25-1.27-3.84-1.27Z"/><path class="cls-1" d="M121.64,204.81h-11.93v-17.95h11.93v4.34h-7.31v2.35h6.19v4.34h-6.19v2.58h7.31v4.34Z"/><path class="cls-1" d="M122.9,186.87h5.1l4.2,12.94,4.17-12.94h4.84l-6.44,17.95h-5.43l-6.44-17.95Z"/><path class="cls-1" d="M155.24,204.81h-11.93v-17.95h11.93v4.34h-7.31v2.35h6.19v4.34h-6.19v2.58h7.31v4.34Z"/><path class="cls-1" d="M170.52,204.81h-12.77v-17.95h4.62v13.61h8.15v4.34Z"/><path class="cls-1" d="M174.42,189.19c1.83-1.83,4.04-2.74,6.64-2.74s4.8,.92,6.66,2.74c1.83,1.87,2.74,4.09,2.74,6.66s-.91,4.81-2.74,6.64c-1.87,1.83-4.09,2.74-6.66,2.74s-4.83-.92-6.64-2.77c-1.85-1.83-2.77-4.04-2.77-6.64s.92-4.81,2.77-6.64Zm2.18,6.64c0,1.33,.44,2.46,1.32,3.39,.88,.93,1.92,1.4,3.14,1.4s2.29-.47,3.16-1.4c.86-.92,1.29-2.04,1.29-3.36s-.43-2.47-1.29-3.39c-.88-.93-1.93-1.4-3.16-1.4s-2.28,.46-3.14,1.37c-.88,.93-1.32,2.06-1.32,3.39Z"/><path class="cls-1" d="M197.6,204.81h-4.62v-17.95h6.52c2.3,0,4.13,.57,5.52,1.71,1.38,1.16,2.07,2.66,2.07,4.51s-.69,3.41-2.07,4.56c-1.42,1.16-3.27,1.74-5.54,1.74h-1.88v5.43Zm2.27-13.89h-2.27v4.4h2.27c.69,0,1.25-.21,1.68-.62,.43-.41,.64-.95,.64-1.62s-.21-1.18-.64-1.57c-.43-.39-.99-.59-1.68-.59Z"/><path class="cls-1" d="M221.26,204.81h-11.93v-17.95h11.93v4.34h-7.31v2.35h6.19v4.34h-6.19v2.58h7.31v4.34Z"/><path class="cls-1" d="M228.4,204.81h-4.62v-17.95h6.52c2.29,0,4.13,.54,5.52,1.62,1.38,1.1,2.07,2.54,2.07,4.31,0,1.16-.29,2.18-.87,3.07-.58,.89-1.4,1.58-2.46,2.09l3.78,6.86h-5.35l-3.08-5.99h-1.51v5.99Zm2.27-13.89h-2.27v3.84h2.27c.69,0,1.25-.18,1.68-.53,.43-.35,.64-.83,.64-1.43,0-.56-.21-1.01-.64-1.36-.43-.34-.99-.52-1.68-.52Z"/><path class="cls-1" d="M56.89,238.41h-6.52v-17.95h6.52c2.93,0,5.36,.85,7.28,2.55,1.92,1.7,2.88,3.86,2.88,6.47s-.96,4.7-2.88,6.38c-1.92,1.7-4.35,2.55-7.28,2.55Zm-.08-13.61h-1.68v9.27h1.71c1.59,0,2.86-.42,3.82-1.27,.96-.85,1.44-1.97,1.44-3.37s-.49-2.5-1.46-3.35c-.97-.85-2.25-1.27-3.84-1.27Z"/><path class="cls-1" d="M71.5,222.79c1.83-1.83,4.04-2.74,6.64-2.74s4.8,.92,6.66,2.74c1.83,1.87,2.74,4.09,2.74,6.66s-.92,4.81-2.74,6.64c-1.87,1.83-4.09,2.74-6.66,2.74s-4.83-.92-6.64-2.77c-1.85-1.83-2.77-4.04-2.77-6.64s.92-4.81,2.77-6.64Zm2.18,6.64c0,1.33,.44,2.46,1.32,3.39,.88,.93,1.92,1.4,3.14,1.4s2.29-.47,3.16-1.4c.86-.92,1.29-2.04,1.29-3.36s-.43-2.47-1.29-3.39c-.88-.93-1.93-1.4-3.16-1.4s-2.28,.46-3.14,1.37c-.88,.93-1.32,2.06-1.32,3.39Z"/><path class="cls-1" d="M105.41,222.71l-3.08,3.53c-1.01-1.05-2.26-1.57-3.75-1.57-1.23,0-2.27,.46-3.11,1.37-.86,.92-1.29,2.04-1.29,3.39s.44,2.46,1.32,3.39c.88,.93,1.98,1.4,3.3,1.4,.67,0,1.33-.14,1.97-.42,.64-.28,1.16-.66,1.55-1.15l3.08,3.42c-1.53,1.85-3.84,2.77-6.92,2.77-2.63,0-4.83-.91-6.61-2.74-1.77-1.83-2.66-4.05-2.66-6.66s.92-4.81,2.74-6.64c1.83-1.83,4.01-2.74,6.55-2.74,2.99,0,5.28,.89,6.89,2.66Z"/><path class="cls-1" d="M107.37,230.74v-10.28h4.62v10.16c0,1.08,.28,1.95,.85,2.6,.57,.65,1.32,.98,2.25,.98s1.65-.32,2.2-.97,.83-1.51,.83-2.59v-10.19h4.62v10.28c0,2.43-.7,4.38-2.1,5.85-1.44,1.49-3.31,2.24-5.63,2.24s-4.14-.75-5.54-2.24c-1.4-1.47-2.1-3.42-2.1-5.85Z"/><path class="cls-1" d="M141.05,227.58l-5.24,7.59-5.24-7.56v10.81h-4.62v-17.95h5.32l4.84,7.34,4.84-7.34h4.7v17.95h-4.62v-10.84Z"/><path class="cls-1" d="M160.96,238.41h-11.93v-17.95h11.93v4.34h-7.31v2.35h6.19v4.34h-6.19v2.58h7.31v4.34Z"/><path class="cls-1" d="M179.64,238.41h-4.96l-6.58-10.22v10.22h-4.62v-17.95h4.96l6.58,10.39v-10.39h4.62v17.95Z"/><path class="cls-1" d="M196.05,220.47v4.34h-4.93v13.61h-4.62v-13.61h-4.9v-4.34h14.45Z"/><path class="cls-1" d="M216.04,238.41h-5.1l-1.23-3.39h-7.03l-1.23,3.39h-4.84l7-17.95h5.43l7,17.95Zm-11.87-7.48h4.06l-2.02-5.57-2.04,5.57Z"/><path class="cls-1" d="M231.04,220.47v4.34h-4.93v13.61h-4.62v-13.61h-4.9v-4.34h14.45Z"/><path class="cls-1" d="M237.62,238.41h-4.62v-17.95h4.62v17.95Z"/><path class="cls-1" d="M242.92,222.79c1.83-1.83,4.04-2.74,6.64-2.74s4.8,.92,6.66,2.74c1.83,1.87,2.74,4.09,2.74,6.66s-.92,4.81-2.74,6.64c-1.87,1.83-4.09,2.74-6.66,2.74s-4.83-.92-6.64-2.77c-1.85-1.83-2.77-4.04-2.77-6.64s.92-4.81,2.77-6.64Zm2.18,6.64c0,1.33,.44,2.46,1.32,3.39,.88,.93,1.92,1.4,3.14,1.4s2.29-.47,3.16-1.4c.86-.92,1.29-2.04,1.29-3.36s-.43-2.47-1.29-3.39c-.88-.93-1.93-1.4-3.16-1.4s-2.28,.46-3.14,1.37c-.88,.93-1.32,2.06-1.32,3.39Z"/><path class="cls-1" d="M277.64,238.41h-4.96l-6.58-10.22v10.22h-4.62v-17.95h4.96l6.58,10.39v-10.39h4.62v17.95Z"/></g><g><g><g><path class="cls-3" d="M192.67,81.92h-24.75c-.83,0-1.5-.67-1.5-1.5v-24.75c0-.61,.37-1.15,.93-1.39,.56-.23,1.21-.1,1.63,.33l24.75,24.75c.43,.43,.56,1.07,.33,1.63s-.78,.93-1.39,.93Zm-23.25-3h19.63l-19.63-19.63v19.63Z"/><path class="cls-1" d="M180.26,157.03h-61.84c-1.69,0-3.07-1.38-3.07-3.07V67.39c0-1.69,1.38-3.07,3.07-3.07h9.29c.83,0,1.5,.67,1.5,1.5s-.67,1.5-1.5,1.5h-9.29s-.07,.04-.07,.07v86.56s.04,.07,.07,.07h61.84l.05-8.64c0-.83,.67-1.5,1.5-1.5s1.5,.67,1.5,1.5v8.59c0,1.68-1.37,3.05-3.05,3.05Z"/><path class="cls-3" d="M191.12,146.89h-61.84c-1.69,0-3.07-1.38-3.07-3.07V57.25c0-1.69,1.38-3.07,3.07-3.07h38.64c.83,0,1.5,.67,1.5,1.5s-.67,1.5-1.5,1.5h-38.64s-.07,.04-.07,.07v86.56s.04,.07,.07,.07h61.84l.05-63.46c0-.83,.67-1.5,1.5-1.5s1.5,.67,1.5,1.5v63.41c0,1.68-1.37,3.05-3.05,3.05Z"/></g><g><path class="cls-3" d="M202.78,87.83c-.83,0-1.5-.67-1.5-1.49,0-.83,.67-1.5,1.49-1.51l10.07-.04h0c.83,0,1.5,.67,1.5,1.49,0,.83-.67,1.5-1.49,1.51l-10.07,.04h0Z"/><path class="cls-3" d="M203.31,137.3c-.83,0-1.5-.67-1.5-1.49,0-.83,.67-1.5,1.49-1.51l9.29-.04h0c.83,0,1.5,.67,1.5,1.49,0,.83-.67,1.5-1.49,1.51l-9.29,.04h0Z"/><path class="cls-1" d="M208.06,150.28c-.62,0-1.18-.38-1.4-.96l-5.09-13.2c-.07-.17-.1-.35-.1-.53l-.21-54.91c-.01-3.6,2.91-6.55,6.51-6.56h.03c3.59,0,6.52,2.91,6.53,6.51l.21,54.91c0,.18-.03,.36-.1,.53l-4.98,13.24c-.22,.58-.78,.97-1.4,.97h0Zm-3.59-14.98l3.57,9.27,3.5-9.3-.21-54.63c0-.94-.38-1.82-1.05-2.49-.67-.67-1.55-1.03-2.49-1.03h-.01c-.94,0-1.82,.38-2.49,1.05-.67,.67-1.03,1.56-1.03,2.5l.21,54.63Z"/><path class="cls-3" d="M208.06,150.28c-.62,0-1.18-.38-1.4-.96l-5.03-13.06c-.18-.46-.12-.97,.16-1.38,.27-.41,.73-.65,1.22-.66l10.01-.19c.49-.03,.97,.23,1.25,.63,.29,.41,.35,.93,.18,1.39l-4.98,13.24c-.22,.58-.78,.97-1.4,.97h0Zm-2.86-13.1l2.84,7.38,2.82-7.49-5.66,.1Z"/></g></g><g><path class="cls-1" d="M159.86,116.09c-5.29,0-9.59-4.3-9.59-9.59s4.3-9.59,9.59-9.59,9.59,4.3,9.59,9.59-4.3,9.59-9.59,9.59Zm0-16.18c-3.63,0-6.59,2.96-6.59,6.59s2.96,6.59,6.59,6.59,6.59-2.96,6.59-6.59-2.96-6.59-6.59-6.59Z"/><path class="cls-1" d="M157.15,129.33c-.74,0-1.37-.54-1.48-1.27l-.72-4.7c-1.2-.35-2.36-.82-3.46-1.42l-3.77,2.85c-.59,.45-1.43,.39-1.96-.13l-3.95-3.92c-.53-.52-.59-1.35-.15-1.95l2.8-3.83c-.62-1.13-1.12-2.31-1.47-3.54l-4.61-.57c-.75-.09-1.31-.73-1.31-1.48l-.02-5.56c0-.74,.54-1.38,1.28-1.49l4.69-.71c.36-1.23,.86-2.41,1.48-3.53l-2.89-3.7c-.47-.6-.42-1.45,.12-1.98l3.92-3.95c.53-.53,1.37-.59,1.97-.14l3.79,2.88c1.12-.62,2.29-1.1,3.51-1.46l.61-4.74c.1-.75,.73-1.31,1.48-1.31l5.57-.02h0c.75,0,1.38,.55,1.48,1.28l.69,4.76c1.19,.35,2.34,.82,3.44,1.41l3.82-2.91c.6-.45,1.43-.4,1.97,.13l3.95,3.92c.53,.53,.59,1.37,.14,1.97l-2.86,3.8c.62,1.12,1.12,2.29,1.48,3.52l4.68,.61c.75,.1,1.3,.73,1.31,1.48l.02,5.56c0,.74-.54,1.37-1.27,1.49l-4.7,.72c-.35,1.2-.83,2.37-1.44,3.47l2.86,3.75c.46,.6,.4,1.44-.13,1.97l-3.92,3.95c-.52,.53-1.36,.59-1.95,.15l-3.84-2.82c-1.11,.61-2.28,1.1-3.49,1.45l-.62,4.67c-.1,.74-.73,1.3-1.48,1.3l-5.56,.02h0Zm-5.77-10.69c.27,0,.55,.07,.79,.23,1.38,.86,2.88,1.47,4.45,1.83,.6,.14,1.06,.63,1.15,1.24l.67,4.4h2.96l.58-4.38c.08-.62,.54-1.12,1.15-1.26,1.58-.36,3.09-.99,4.47-1.86,.52-.33,1.19-.3,1.69,.06l3.59,2.64,2.09-2.1-2.68-3.51c-.38-.5-.41-1.18-.08-1.71,.87-1.38,1.49-2.88,1.84-4.45,.14-.6,.63-1.06,1.23-1.15l4.4-.68v-2.96l-4.39-.57c-.62-.08-1.12-.54-1.27-1.15-.37-1.6-1.01-3.12-1.9-4.5-.34-.53-.31-1.21,.07-1.71l2.68-3.56-2.09-2.08-3.57,2.72c-.5,.38-1.17,.41-1.7,.08-1.38-.85-2.87-1.46-4.43-1.82-.61-.14-1.07-.63-1.15-1.25l-.65-4.46h-2.95l-.57,4.44c-.08,.62-.54,1.13-1.16,1.27-1.6,.36-3.12,.99-4.51,1.87-.53,.33-1.21,.3-1.71-.08l-3.55-2.7-2.06,2.08,2.71,3.46c.39,.5,.42,1.2,.08,1.73-.89,1.39-1.53,2.91-1.9,4.52-.14,.6-.63,1.05-1.24,1.15l-4.39,.66v2.94l4.32,.54c.63,.08,1.14,.54,1.28,1.16,.36,1.59,.99,3.12,1.87,4.52,.33,.52,.31,1.19-.06,1.68l-2.62,3.59,2.11,2.1,3.53-2.66c.27-.2,.58-.3,.9-.3Z"/></g></g></g></g></g></svg>