<?xml version="1.0" encoding="UTF-8"?><svg id="Layer_2" xmlns="http://www.w3.org/2000/svg" viewBox="0 0 328 300"><defs><style>.cls-1{fill:#00517d;}.cls-2{fill:#fff;opacity:.5;}.cls-3{fill:#00aeef;}</style></defs><g id="Layer_1-2"><g><rect class="cls-2" width="327" height="300" rx="7" ry="7"/><path class="cls-1" d="M132.88,197.57v-10.28h4.62v10.16c0,1.08,.29,1.95,.85,2.6s1.32,.98,2.25,.98,1.65-.32,2.2-.97,.83-1.51,.83-2.59v-10.19h4.62v10.28c0,2.43-.7,4.38-2.1,5.85-1.44,1.49-3.31,2.24-5.63,2.24s-4.14-.75-5.54-2.24c-1.4-1.47-2.1-3.42-2.1-5.85Z"/><path class="cls-1" d="M164.79,190.15l-3.14,3.14c-.99-1.38-2.29-2.07-3.92-2.07-1.14,0-1.71,.36-1.71,1.09,0,.37,.26,.7,.77,.98s1.33,.6,2.45,.97c1.12,.36,1.94,.66,2.46,.88,.91,.41,1.66,1.02,2.23,1.83,.57,.81,.85,1.77,.85,2.87,0,1.7-.67,3.09-2.02,4.17-1.36,1.1-3.08,1.65-5.15,1.65-3.44,0-5.86-1.12-7.28-3.36l3.28-3.08c1.01,1.4,2.37,2.1,4.09,2.1,1.42,0,2.13-.43,2.13-1.29,0-.32-.16-.6-.49-.84-.33-.24-.75-.45-1.26-.63-.51-.18-1.08-.36-1.69-.55-.62-.19-1.24-.42-1.86-.71-.63-.29-1.2-.63-1.71-1.02s-.93-.92-1.26-1.58c-.33-.66-.49-1.42-.49-2.28,0-1.6,.64-2.93,1.93-3.98,1.31-1.04,2.95-1.57,4.93-1.57,1.49,0,2.84,.29,4.03,.87,1.19,.58,2.14,1.38,2.83,2.41Z"/><path class="cls-1" d="M179.1,205.24h-11.93v-17.95h11.93v4.34h-7.31v2.35h6.19v4.34h-6.19v2.58h7.31v4.34Z"/><path class="cls-1" d="M186.24,205.24h-4.62v-17.95h6.52c2.29,0,4.13,.54,5.52,1.62,1.38,1.1,2.07,2.54,2.07,4.31,0,1.16-.29,2.18-.87,3.07-.58,.89-1.4,1.58-2.46,2.09l3.78,6.86h-5.35l-3.08-5.99h-1.51v5.99Zm2.27-13.89h-2.27v3.84h2.27c.69,0,1.25-.18,1.68-.53s.64-.83,.64-1.43c0-.56-.21-1.01-.64-1.36-.43-.34-.99-.52-1.68-.52Z"/><path class="cls-1" d="M142.02,228.32l.03,8.76c-1.77,1.46-4.14,2.18-7.11,2.18-2.63,0-4.83-.91-6.61-2.74-1.77-1.83-2.66-4.05-2.66-6.66s.91-4.81,2.74-6.64,4.01-2.74,6.55-2.74c2.99,0,5.28,.89,6.89,2.66l-3.08,3.53c-1.01-1.05-2.26-1.57-3.75-1.57-1.23,0-2.27,.46-3.11,1.37-.86,.92-1.29,2.04-1.29,3.39s.44,2.46,1.32,3.39c.88,.93,1.98,1.4,3.3,1.4,.78,0,1.51-.17,2.18-.5v-5.77l4.59-.06Zm-7.22,0h7.22l-2.24,3.72h-4.98v-3.72Z"/><path class="cls-1" d="M144.98,231.17v-10.28h4.62v10.16c0,1.08,.29,1.95,.85,2.6s1.32,.98,2.25,.98,1.65-.32,2.2-.97,.83-1.51,.83-2.59v-10.19h4.62v10.28c0,2.43-.7,4.38-2.1,5.85-1.44,1.49-3.31,2.24-5.63,2.24s-4.14-.75-5.54-2.24c-1.4-1.47-2.1-3.42-2.1-5.85Z"/><path class="cls-1" d="M168.2,238.84h-4.62v-17.95h4.62v17.95Z"/><path class="cls-1" d="M178.08,238.84h-6.52v-17.95h6.52c2.93,0,5.36,.85,7.28,2.55,1.92,1.7,2.88,3.86,2.88,6.47s-.96,4.7-2.88,6.38c-1.92,1.7-4.35,2.55-7.28,2.55Zm-.08-13.61h-1.68v9.27h1.71c1.59,0,2.86-.42,3.82-1.27,.96-.85,1.44-1.97,1.44-3.37s-.49-2.5-1.46-3.35c-.97-.85-2.25-1.27-3.84-1.27Z"/><path class="cls-1" d="M202.69,238.84h-11.93v-17.95h11.93v4.34h-7.31v2.35h6.19v4.34h-6.19v2.58h7.31v4.34Z"/><g><path class="cls-1" d="M138.53,89.02h0c-8.05,0-14.6-7.46-14.6-16.64s6.55-16.64,14.6-16.64h59.18c2.53,0,4.58,2.27,4.58,5.06s-2.06,5.06-4.58,5.06h-58.19c-3,0-5.44,2.92-5.44,6.51s2.44,6.51,5.44,6.51h58.19c2.53,0,4.58,2.26,4.58,5.05s-2.06,5.06-4.58,5.06h-59.18Zm0-30.27c-6.4,0-11.6,6.12-11.6,13.64s5.21,13.64,11.6,13.64h59.18c.86,0,1.58-.95,1.58-2.07s-.72-2.06-1.58-2.06h-58.19c-4.65,0-8.44-4.26-8.44-9.51s3.79-9.51,8.44-9.51h58.19c.86,0,1.58-.94,1.58-2.06s-.72-2.06-1.58-2.06h-59.18Z"/><path class="cls-1" d="M196.76,81.9c-3.43,0-6.12-4.18-6.12-9.51s2.69-9.51,6.12-9.51c.83,0,1.5,.67,1.5,1.5s-.67,1.5-1.5,1.5c-1.47,0-3.12,2.79-3.12,6.51s1.65,6.51,3.12,6.51c.83,0,1.5,.67,1.5,1.5s-.67,1.5-1.5,1.5Z"/></g><g><path class="cls-1" d="M177.98,121.24h-55.43c-2.64,0-4.78-2.37-4.78-5.29s2.14-5.29,4.78-5.29h55.43c.83,0,1.5,.67,1.5,1.5s-.67,1.5-1.5,1.5h-55.43c-.97,0-1.78,1.05-1.78,2.29s.82,2.29,1.78,2.29h55.43c.83,0,1.5,.67,1.5,1.5s-.67,1.5-1.5,1.5Z"/><path class="cls-1" d="M200.54,121.2c-.77,0-1.43-.59-1.49-1.38-.07-.83,.55-1.55,1.37-1.62,6.49-.53,11.57-6.93,11.57-14.57,0-8.05-5.58-14.61-12.44-14.61H122.54c-.97,0-1.78,1.06-1.78,2.3s.82,2.29,1.78,2.29h75.94c4.9,0,8.88,4.49,8.88,10.02,0,4.43-2.63,8.39-6.39,9.63-.11,.04-.22,.06-.33,.07l-3.44,.33c-.82,.08-1.56-.53-1.63-1.35-.08-.82,.53-1.56,1.35-1.63l3.26-.31c2.47-.9,4.17-3.63,4.17-6.73,0-3.87-2.64-7.03-5.88-7.03H122.54c-2.64,0-4.78-2.37-4.78-5.28s2.14-5.29,4.78-5.29h77c8.51,0,15.44,7.89,15.44,17.6,0,9.2-6.29,16.91-14.33,17.56-.04,0-.08,0-.12,0Z"/><path class="cls-1" d="M123.55,113.66c-.83,0-1.5-.67-1.5-1.5s.67-1.5,1.5-1.5c1.62,0,3.42-3,3.42-7.03s-1.81-7.03-3.42-7.03c-.83,0-1.5-.67-1.5-1.5s.67-1.5,1.5-1.5c3.6,0,6.42,4.4,6.42,10.03s-2.82,10.03-6.42,10.03Z"/></g><g><path class="cls-1" d="M124.22,155.93c-9.11,0-16.51-8.45-16.51-18.85s7.41-18.84,16.51-18.84h53.76c.83,0,1.5,.67,1.5,1.5s-.67,1.5-1.5,1.5h-53.76c-7.45,0-13.51,7.11-13.51,15.84s6.06,15.85,13.51,15.85h91.05c1.12,0,2.03-1.17,2.03-2.59s-.91-2.58-2.03-2.58H125.36c-5.21,0-9.45-4.78-9.45-10.67s4.24-10.68,9.45-10.68h52.62c.83,0,1.5,.67,1.5,1.5s-.67,1.5-1.5,1.5h-52.62c-3.56,0-6.45,3.45-6.45,7.68s2.89,7.68,6.45,7.68h89.91c2.78,0,5.03,2.5,5.03,5.57s-2.26,5.58-5.03,5.58H124.22Z"/><path class="cls-1" d="M197.28,129.45c-.82,0-1.49-.66-1.5-1.48-.01-.83,.65-1.51,1.48-1.52l3.22-.04h14.78c1.12,0,2.03-1.16,2.03-2.58s-.91-2.58-2.03-2.58h-17.98c-.83,0-1.5-.67-1.5-1.5s.67-1.5,1.5-1.5h17.98c2.78,0,5.03,2.5,5.03,5.58s-2.26,5.58-5.03,5.58l-17.96,.04h-.02Z"/><path class="cls-1" d="M214.18,147.77c-3.81,0-6.8-4.69-6.8-10.68s2.99-10.68,6.8-10.68c.83,0,1.5,.67,1.5,1.5s-.67,1.5-1.5,1.5c-1.8,0-3.8,3.15-3.8,7.68s2,7.68,3.8,7.68c.83,0,1.5,.67,1.5,1.5s-.67,1.5-1.5,1.5Z"/></g><path class="cls-3" d="M197.08,138.77c-.3,0-.6-.09-.85-.27l-8.59-5.95-8.59,5.95c-.46,.32-1.06,.36-1.55,.1-.49-.26-.8-.77-.8-1.33v-30.81c0-.83,.67-1.5,1.5-1.5h18.89c.83,0,1.5,.67,1.5,1.5v30.81c0,.56-.31,1.07-.8,1.33-.22,.11-.46,.17-.7,.17Zm-9.45-9.54c.3,0,.6,.09,.85,.27l7.09,4.91v-26.44h-15.89v26.44l7.09-4.91c.26-.18,.56-.27,.85-.27Z"/><path class="cls-3" d="M198.75,107.97h-33.97c-.83,0-1.5-.67-1.5-1.5s.67-1.5,1.5-1.5h33.97c.83,0,1.5,.67,1.5,1.5s-.67,1.5-1.5,1.5Z"/><path class="cls-3" d="M320.5,300H7.5c-4.14,0-7.5-3.36-7.5-7.5V7.5C0,3.36,3.36,0,7.5,0H320.5c4.14,0,7.5,3.36,7.5,7.5V292.5c0,4.14-3.36,7.5-7.5,7.5ZM7.5,1C3.92,1,1,3.92,1,7.5V292.5c0,3.58,2.92,6.5,6.5,6.5H320.5c3.58,0,6.5-2.92,6.5-6.5V7.5c0-3.58-2.92-6.5-6.5-6.5H7.5Z"/></g></g></svg>