<?xml version="1.0" encoding="UTF-8"?><svg id="Layer_2" xmlns="http://www.w3.org/2000/svg" viewBox="0 0 328 300"><defs><style>.cls-1{fill:#00aeef;}.cls-1,.cls-2{stroke-width:0px;}.cls-2{fill:#00517d;}</style></defs><g id="Layer_1-2"><path class="cls-1" d="m320.5,300H7.5c-4.14,0-7.5-3.36-7.5-7.5V7.5C0,3.36,3.36,0,7.5,0h313c4.14,0,7.5,3.36,7.5,7.5v285c0,4.14-3.36,7.5-7.5,7.5ZM7.5,1C3.92,1,1,3.92,1,7.5v285c0,3.58,2.92,6.5,6.5,6.5h313c3.58,0,6.5-2.92,6.5-6.5V7.5c0-3.58-2.92-6.5-6.5-6.5H7.5Z"/><path class="cls-2" d="m100.3,189.69l-3.08,3.53c-1.01-1.05-2.26-1.57-3.75-1.57-1.23,0-2.27.46-3.11,1.37-.86.92-1.29,2.04-1.29,3.39s.44,2.46,1.32,3.39c.88.93,1.98,1.4,3.3,1.4.67,0,1.33-.14,1.97-.42.64-.28,1.16-.66,1.55-1.15l3.08,3.42c-1.53,1.85-3.84,2.77-6.92,2.77-2.63,0-4.83-.91-6.61-2.74-1.77-1.83-2.66-4.05-2.66-6.66s.91-4.81,2.74-6.64,4.01-2.74,6.55-2.74c2.99,0,5.28.89,6.89,2.66Z"/><path class="cls-2" d="m104.33,189.78c1.83-1.83,4.04-2.74,6.64-2.74s4.8.92,6.66,2.74c1.83,1.87,2.74,4.09,2.74,6.66s-.91,4.81-2.74,6.64c-1.87,1.83-4.09,2.74-6.66,2.74s-4.83-.92-6.64-2.77c-1.85-1.83-2.77-4.04-2.77-6.64s.92-4.81,2.77-6.64Zm2.18,6.64c0,1.33.44,2.46,1.32,3.39s1.92,1.4,3.14,1.4,2.29-.47,3.16-1.4c.86-.92,1.29-2.04,1.29-3.36s-.43-2.47-1.29-3.39c-.88-.93-1.93-1.4-3.16-1.4s-2.28.46-3.14,1.37c-.88.93-1.32,2.06-1.32,3.39Z"/><path class="cls-2" d="m139.05,205.4h-4.96l-6.58-10.22v10.22h-4.62v-17.95h4.96l6.58,10.39v-10.39h4.62v17.95Z"/><path class="cls-2" d="m158.57,205.4h-4.96l-6.58-10.22v10.22h-4.62v-17.95h4.96l6.58,10.39v-10.39h4.62v17.95Z"/><path class="cls-2" d="m173.86,205.4h-11.93v-17.95h11.93v4.34h-7.31v2.35h6.19v4.34h-6.19v2.58h7.31v4.34Z"/><path class="cls-2" d="m191.72,189.69l-3.08,3.53c-1.01-1.05-2.26-1.57-3.75-1.57-1.23,0-2.27.46-3.11,1.37-.86.92-1.29,2.04-1.29,3.39s.44,2.46,1.32,3.39,1.98,1.4,3.3,1.4c.67,0,1.33-.14,1.97-.42s1.16-.66,1.55-1.15l3.08,3.42c-1.53,1.85-3.84,2.77-6.92,2.77-2.63,0-4.83-.91-6.61-2.74-1.77-1.83-2.66-4.05-2.66-6.66s.92-4.81,2.74-6.64c1.83-1.83,4.01-2.74,6.55-2.74,2.99,0,5.28.89,6.89,2.66Z"/><path class="cls-2" d="m206.87,187.45v4.34h-4.93v13.61h-4.62v-13.61h-4.9v-4.34h14.45Z"/><path class="cls-2" d="m210.76,189.78c1.83-1.83,4.04-2.74,6.64-2.74s4.8.92,6.66,2.74c1.83,1.87,2.74,4.09,2.74,6.66s-.91,4.81-2.74,6.64c-1.87,1.83-4.09,2.74-6.66,2.74s-4.83-.92-6.64-2.77c-1.85-1.83-2.77-4.04-2.77-6.64s.92-4.81,2.77-6.64Zm2.18,6.64c0,1.33.44,2.46,1.32,3.39.88.93,1.92,1.4,3.14,1.4s2.29-.47,3.16-1.4c.86-.92,1.29-2.04,1.29-3.36s-.43-2.47-1.29-3.39c-.88-.93-1.93-1.4-3.16-1.4s-2.28.46-3.14,1.37c-.88.93-1.32,2.06-1.32,3.39Z"/><path class="cls-2" d="m233.94,205.4h-4.62v-17.95h6.52c2.3,0,4.13.54,5.52,1.62,1.38,1.1,2.07,2.54,2.07,4.31,0,1.16-.29,2.18-.87,3.07-.58.89-1.4,1.58-2.46,2.09l3.78,6.86h-5.35l-3.08-5.99h-1.51v5.99Zm2.27-13.89h-2.27v3.84h2.27c.69,0,1.25-.18,1.68-.53.43-.35.64-.83.64-1.43,0-.56-.21-1.01-.64-1.36-.43-.34-.99-.52-1.68-.52Z"/><path class="cls-2" d="m149.31,239h-4.62v-7.08h-6.92v7.08h-4.62v-17.95h4.62v6.52h6.92v-6.52h4.62v17.95Z"/><path class="cls-2" d="m164.6,239h-11.93v-17.95h11.93v4.34h-7.31v2.35h6.19v4.34h-6.19v2.58h7.31v4.34Z"/><path class="cls-2" d="m179.89,239h-12.77v-17.95h4.62v13.61h8.15v4.34Z"/><path class="cls-2" d="m186.47,239h-4.62v-17.95h6.52c2.3,0,4.13.57,5.52,1.71,1.38,1.16,2.07,2.66,2.07,4.51s-.69,3.41-2.07,4.56c-1.42,1.16-3.27,1.74-5.54,1.74h-1.88v5.43Zm2.27-13.89h-2.27v4.4h2.27c.69,0,1.25-.21,1.68-.62.43-.41.64-.95.64-1.62s-.21-1.18-.64-1.57c-.43-.39-.99-.59-1.68-.59Z"/><path class="cls-2" d="m198.14,156.1h-68.25c-1.78,0-3.24-1.45-3.24-3.23V57.34c0-1.78,1.45-3.24,3.24-3.24h42.64c.83,0,1.5.67,1.5,1.5s-.67,1.5-1.5,1.5h-42.64c-.12,0-.24.11-.24.24v95.53c0,.12.11.23.24.23h68.25c.12,0,.21-.09.21-.21v-69.98c0-.83.67-1.5,1.5-1.5s1.5.67,1.5,1.5v69.98c0,1.77-1.44,3.21-3.21,3.21Z"/><path class="cls-2" d="m199.84,84.41h-27.31c-.83,0-1.5-.67-1.5-1.5v-27.31c0-.61.37-1.15.93-1.39.56-.23,1.21-.1,1.63.33l27.31,27.31c.43.43.56,1.07.33,1.63s-.78.93-1.39.93Zm-25.81-3h22.19l-22.19-22.19v22.19Z"/><path class="cls-2" d="m155.84,135.12h-.54c-5.54,0-10.05-4.45-10.05-9.93v-12.67c0-.83.67-1.5,1.5-1.5s1.5.67,1.5,1.5v12.67c0,3.82,3.17,6.93,7.05,6.93h.54c3.89,0,7.05-3.11,7.05-6.93v-20.37c0-.83.67-1.5,1.5-1.5s1.5.67,1.5,1.5v20.37c0,5.47-4.51,9.93-10.05,9.93Z"/><path class="cls-2" d="m181.52,114.57c-.83,0-1.5-.67-1.5-1.5v-13.7c0-3.82-3.05-6.93-6.8-6.93h-.53c-3.75,0-6.8,3.11-6.8,6.93v13.68c0,.83-.67,1.5-1.5,1.5s-1.5-.67-1.5-1.5v-13.68c0-5.47,4.4-9.93,9.8-9.93h.53c5.4,0,9.8,4.45,9.8,9.93v13.7c0,.83-.67,1.5-1.5,1.5Z"/><path class="cls-1" d="m153.34,112.99h-13.19c-1.69,0-3.07-1.38-3.07-3.07v-14.25c0-1.69,1.38-3.07,3.07-3.07h13.19c1.69,0,3.07,1.38,3.07,3.07v14.25c0,1.69-1.38,3.07-3.07,3.07Zm-13.19-17.39s-.07.03-.07.07v14.25s.03.07.07.07h13.19s.07-.03.07-.07v-14.25l-13.26-.07Z"/><path class="cls-1" d="m152.72,95.6h-11.96v-6.08c0-1.79,1.45-3.24,3.24-3.24h5.47c1.79,0,3.24,1.45,3.24,3.24v6.08Zm-8.96-3h5.96v-3.08c0-.13-.11-.24-.24-.24h-5.47c-.13,0-.24.11-.24.24v3.08Z"/><path class="cls-1" d="m188.11,131.96h-13.19c-1.69,0-3.07-1.38-3.07-3.07v-14.25c0-1.69,1.38-3.07,3.07-3.07h13.19c1.69,0,3.07,1.38,3.07,3.07v14.25c0,1.69-1.38,3.07-3.07,3.07Zm-13.19-17.39s-.07.03-.07.07v14.25l13.26.07s.07-.03.07-.07v-14.25s-.03-.07-.07-.07h-13.19Z"/><path class="cls-1" d="m184.25,138.28h-5.47c-1.79,0-3.24-1.45-3.24-3.24v-6.08h11.96v6.08c0,1.79-1.45,3.24-3.24,3.24Zm-5.72-6.32v3.08c0,.13.11.24.24.24h5.47c.13,0,.24-.11.24-.24v-3.08h-5.96Z"/></g></svg>