<?xml version="1.0" encoding="UTF-8"?>
<svg id="Layer_1" xmlns="http://www.w3.org/2000/svg" xmlns:xlink="http://www.w3.org/1999/xlink" version="1.1" viewBox="0 0 200 183">
  <!-- Generator: Adobe Illustrator 30.1.0, SVG Export Plug-In . SVG Version: 2.1.1 Build 136)  -->
  <defs>
    <style>
      .st0 {
        fill: none;
      }

      .st1 {
        fill: #4f4d4d;
      }

      .st2 {
        fill: #232020;
      }

      .st3 {
        fill: #bfdbfe;
      }

      .st4 {
        fill: #60a5fa;
      }

      .st5 {
        fill: #3b82f6;
      }

      .st6, .st7, .st8, .st9 {
        isolation: isolate;
      }

      .st10 {
        fill: #1e40af;
      }

      .st11 {
        clip-path: url(#clippath-1);
      }

      .st12 {
        fill: #fff;
      }

      .st13 {
        fill: #dbeafe;
      }

      .st7 {
        fill: #6e4339;
      }

      .st7, .st8 {
        mix-blend-mode: screen;
      }

      .st7, .st8, .st9 {
        opacity: .2;
      }

      .st14 {
        fill: #1e3a8a;
      }

      .st8 {
        fill: #2563eb;
      }

      .st9 {
        fill: #00517d;
        mix-blend-mode: multiply;
      }

      .st15 {
        fill: #222221;
      }

      .st16 {
        clip-path: url(#clippath);
      }
    </style>
    <clipPath id="clippath">
      <path class="st0" d="M116.4,57.2c-2.1-3,0-12.5-6.2-28-6.1-15.3-21.8-25.3-39.2-24.2-18.1,1.2-32.5,14.8-36.1,31.8,0,0-.1,0-.2,0-.8,3.6-1.1,7.3-.8,11.1,0,.9.1,1.6.2,2.4.3,2.3.4,4.5.3,6.8-.7,12.8-.9,54,21.9,74.5,10.9,9.8,24.3,14.1,37.8,14.5,0,0,.2,0,.2,0,20.3.6,40.6-7.5,52.4-19.2,16.4-16.3-18.4-52.6-30.3-69.8h0Z"/>
    </clipPath>
    <clipPath id="clippath-1">
      <path class="st0" d="M35.7,86.6l17.5-5.2,18.1,3.9c0,18.8,18.3,41.6,39.1,45.6,16.1,3.1,25.1,1.8,31.9,0-10.9,9.7-29.5,18.4-47.5,17.8,0,0,0,0,0,0-13.5-.4-29.7-6.5-40.6-16.2-12.7-11.4-16.2-30.1-18.5-45.9Z"/>
    </clipPath>
  </defs>
  <g class="st6">
    <g id="Layer_2">
      <g id="Layer_1-2">
        <g>
          <path class="st12" d="M199.2,122c-.1-.5-.3-1-.6-1.4-3.4-5.3-10.6-9.4-22-12.7-7.9-2.2-16.6-3.7-23.3-4.6-1.2-3.1-2.8-6.3-4.7-9.9,4.4-1.7,9.3-3.8,13.8-6.3,7.2-4,11-7.6,12-11.6.9-3.4.3-6-.6-7.7,2.9-2.1,4.7-4.9,5.1-8.1.4-2.8-.4-5.4-2.1-7.4,1.3-1,2.4-2.2,3.3-3.6,1.9-3,2.4-6.5,1.5-10-.5-1.7-1.7-4.2-4.9-5.9-3.6-1.9-8.9-2.5-16-1.7-6.2.7-13.2,2.3-20.5,4.7-7.4,2.5-14.5,5.7-20.7,9.3-.6-4.7-1.8-10.6-4.7-17.8-3.4-8.5-9.4-15.7-17.4-20.6C89.4,1.8,80.2-.5,70.6.1c-17.2,1.1-32.3,12.5-38.6,29-.1.2-.2.4-.3.7,0,.3-.3.9-.5,1.5-.7,1.8-1.2,3.3-1.4,4.5,0,0,0,.1,0,.2-5.4-1.4-10.4-2.2-14.5-2.3-9.7-.2-13.1,3.8-14.2,7.1-1.2,3.5-.8,7,.9,10.1.8,1.4,1.9,2.7,3.1,3.8-1.8,1.9-2.7,4.4-2.5,7.2.2,3.3,1.8,6.1,4.7,8.4-1,1.7-1.7,4.2-1,7.7.8,3.9,4.2,7.6,10.8,11.8,4,2.6,8.6,4.9,12.6,6.7-.1.9,0,1.9.4,2.8l3.1,6.8c1.5,4.5,3.7,8.2,6.4,11.1.2.5.4.9.6,1.2.1.3.3.6.4.8l.2.3c.4.7.7,1.2,1,1.8.2.4.5.8.7,1.1.3.6.7,1.1,1,1.7.3.5.5.8.8,1.1.3.5.7,1,1.1,1.6h0c.2.4.5.8.7,1.1.4.5.8,1,1.3,1.6l.2.3c.2.2.4.5.6.7.5.6,1,1.2,1.5,1.7,0,0,.1.2.2.2.2.2.3.4.5.6.8.8,1.6,1.6,2.4,2.3,4.9,4.4,10.5,7.9,16.6,10.5.7,1.8,1.3,3,2.1,3.9,0,1.6-.2,3.1-.2,4.7-.2,0-.5-.1-.7-.2-4.4-1.2-6.3-1.3-8.1-.5-2.2,1.1-3.4,3.3-3.1,5.7,0,.3.1.6.2.9,0,0-.2,0-.3.1-2.1,1-3.4,3.1-3.4,5.4,0,2.5,1.7,4.7,4,5.4,0,1.2.2,2.3.8,3.4.8,1.3,2,2.3,3.5,2.7,1.5.4,3.1.2,4.4-.6,2.7-1.6,5.1-3.4,6.9-4.8,1.1-.9,2.4-1.9,3.8-3.2.9.2,1.9.4,2.8.5.9.1,1.9.2,3,.2h0c1,0,2.1,0,3.3,0,2.2-.2,4-1.6,4.8-3.7.6-1.4.5-3,0-4.4-.6-1.4-1.8-2.5-3.2-3.1-1.2-.4-2.3-.7-3.2-1,0,0,0,0,0,0-.8-.2-1.6-.3-2.3-.5.2-1.7.3-3.3.4-5,.7-.3,1.3-.8,1.9-1.3,2.3.3,4.6.5,6.8.5,0,0,0,0,.1,0,0,0,.2,0,.3,0,1.2,0,2.5,0,3.8,0,.3,0,.6,0,.9,0,.1,0,.3,0,.4,0,.8,0,1.6,0,2.5-.1.4,0,.8,0,1.2,0h.4c.7,0,1.5-.2,2.3-.3.6,0,1.1-.1,1.6-.2.3,0,.5,0,.8-.1,2,3.4,3.1,4.4,4.3,5.1,0,0,0,0,0,0,0,0,0,0,0,0,0,0,0,0,0,0,0,.5.1,1,.2,1.5.3,2.4.7,4.8,1.2,7.3-.7.2-1.4.4-2.2.7,0,0,0,0,0,0-.9.3-2,.7-3.1,1.3-1.9,1-3.1,3-3.1,5.2,0,3.2,2.6,5.8,5.8,5.8h0c1.2,0,2.4-.1,3.3-.3,0,0,0,0,0,0,1.1-.2,2.1-.3,3-.6.9-.2,1.9-.5,2.8-.8,1.5,1.1,2.9,2,4.1,2.8,2.8,1.8,5.1,3,7.4,4,.8.3,1.6.5,2.4.5,1.6,0,3.2-.7,4.4-2,1.2-1.4,1.6-3.2,1.3-4.9,1.4-.7,2.6-1.9,3.1-3.5,1-3-.6-6.3-3.7-7.3-.2,0-.3-.1-.5-.2-.1-.7-.4-1.4-.8-2-2-3-5.8-2.7-7.2-2.5-1.1.1-2.4.3-3.9.6-.2-2.2-.6-4.2-1-6.3,0-.4-.1-.8-.2-1.3,1.8-1.7,3.7-4.9,6.5-10.8.5-.3,1.1-.5,1.6-.8h.2c.3-.2.6-.4.9-.6.6-.3,1.3-.7,2-1.1.3-.2.7-.4,1-.6.7-.4,1.3-.8,2-1.2.2-.1.4-.3.6-.4h.2c.5-.5,1.3-1,2-1.5.1-.1.3-.2.4-.3,0,0,.1,0,.2-.2.4-.3.8-.6,1.2-.9,4.3,2.8,9.8,6,15,8.7,9.6,4.8,15.8,6.1,19.9,4.2,4.3-2,5.2-5.1,5.3-6.9,2.5.1,4.3-.3,5.8-1.5,2-1.5,2.9-3.8,2.6-6.3,0-.4-.1-.8-.2-1.2,1.7-.3,3-1,4.2-2,1.3-1.2,3.3-3.8,2.1-8.5h0Z"/>
          <g>
            <path class="st14" d="M40.7,44.8c22.1,8.8,45.3,25.9,38.8,43.8,0,0-4.7,14.3-16.4,13.6-11.7-.7-50.1-15.9-52-25.2-1.9-9.3,11.4-6.2,11.4-6.2,0,0-14.4-1.6-15-9.2-.5-7.7,12.7-4.9,12.7-4.9,0,0-17.9-4-14.4-14.3,2-6.1,18.1-4.2,34.9,2.4"/>
            <g>
              <path class="st8" d="M42.3,87.2c-2.4-1.4-4.8-2.9-7.2-4.5-2.3-1.6-4.5-3.3-6.5-5.3-.9-1-1.8-2.1-2.1-3.4-.3-1.3,0-2.7.8-3.5.9-.8,2.3-1,3.6-1,1.3,0,2.7.3,4,.7l.3-1.1c-2.1-.4-4.2-1.1-6.1-2.1-1.9-1-3.7-2.4-4.2-4.3,0-.5-.2-1-.1-1.4,0-.5.2-.9.5-1.3.5-.7,1.4-1.1,2.4-1.3,2-.3,4.3,0,6.3.5h0c.3,0,.6-.1.7-.4,0-.3,0-.6-.4-.7-1.7-.5-3.4-1.3-5-2.2-1.6-.9-3.1-2-4.1-3.4-1.1-1.4-1.6-3.1-1.1-4.8.2-.9.6-1.5,1.3-2,.7-.5,1.6-.7,2.4-.8,1.8-.2,3.6,0,5.4.2,1.8.3,3.6.7,5.4,1.2,3.6,1,7.1,2.3,10.5,3.8-3.3-1.7-6.8-3.1-10.3-4.3-1.8-.6-3.6-1-5.4-1.4-1.8-.3-3.7-.5-5.7-.3-1,.1-1.9.3-2.8.9-.4.3-.9.6-1.2,1.1-.3.5-.5.9-.6,1.4-.3,1-.4,2-.1,3,.2,1,.7,1.9,1.3,2.7,1.2,1.6,2.8,2.7,4.4,3.7,1.7,1,3.4,1.7,5.2,2.3l.3-1.1c-2.2-.6-4.5-1-6.8-.6-1.2.2-2.5.7-3.2,1.8-.4.6-.6,1.2-.7,1.8,0,.6,0,1.3.1,1.9.3,1.2,1.1,2.2,1.9,3,.9.8,1.9,1.4,2.9,1.9,2.1,1,4.2,1.7,6.4,2.2h0c.3,0,.6-.1.6-.4,0-.3-.1-.6-.4-.6-1.4-.4-2.8-.7-4.3-.7-1.4,0-3.1.2-4.3,1.3-.6.6-.9,1.3-1.1,2.1-.1.8,0,1.5,0,2.3.4,1.5,1.4,2.7,2.4,3.7,2,2,4.4,3.7,6.8,5.2,2.4,1.5,4.9,2.9,7.4,4.1h0Z"/>
              <path class="st7" d="M56,95.3c-2.3-1.3-4.6-2.7-6.7-4.2-2.2-1.5-4.3-3.1-6.1-5-.9-.9-1.7-2-2-3.2-.2-1.2,0-2.5.8-3.3.8-.8,2.2-.9,3.4-.9,1.3,0,2.6.3,3.8.6l.2-1c-2-.4-4-1.1-5.8-2-1.8-.9-3.5-2.2-3.9-4-.2-.9-.1-1.9.3-2.5.5-.7,1.3-1,2.3-1.2,1.9-.3,4,0,5.9.5h0c.3,0,.6-.1.7-.4,0-.3,0-.6-.4-.7-1.6-.5-3.2-1.2-4.7-2.1-1.5-.8-2.9-1.9-3.9-3.2-1-1.3-1.5-2.9-1-4.5.2-.8.6-1.4,1.2-1.9.7-.4,1.5-.6,2.3-.8,3.4-.4,6.9.4,10.2,1.3,3.4.9,6.6,2.2,9.9,3.5-3.1-1.6-6.4-2.9-9.7-4-1.7-.5-3.4-1-5.1-1.3-1.7-.3-3.5-.5-5.3-.3-.9.1-1.8.3-2.7.8-.4.3-.8.6-1.1,1-.3.4-.4.9-.6,1.3-.3.9-.3,1.9-.1,2.8.2.9.7,1.8,1.2,2.5,1.1,1.5,2.6,2.6,4.2,3.5,1.6.9,3.2,1.6,4.9,2.2l.3-1.1c-2.1-.5-4.2-.9-6.5-.6-1.1.2-2.3.6-3,1.7-.7,1.1-.7,2.3-.5,3.5.3,1.2,1,2.1,1.8,2.9.8.8,1.8,1.3,2.7,1.8,1.9,1,4,1.6,6.1,2h0c.3,0,.5-.1.6-.4,0-.3-.1-.5-.4-.6-1.3-.4-2.7-.6-4.1-.6-1.4,0-2.9.2-4,1.3-.2.3-.5.6-.6.9l-.2.5c0,.2,0,.4,0,.5v.5c0,0,0,.5,0,.5,0,.4,0,.7.1,1.1.4,1.4,1.3,2.5,2.2,3.5,1.9,1.9,4.1,3.4,6.4,4.9,2.3,1.4,4.6,2.7,7,3.9h0Z"/>
            </g>
            <g>
              <g>
                <path class="st2" d="M80.1,133c.3,4.9.3,9.8.2,14.7-.2,4.9-.2,9.8-1.6,14.6l-.7-.9c.9-.2,1.8-.2,2.7-.1.9,0,1.8.1,2.6.3.9.1,1.7.3,2.6.5.9.2,1.7.4,2.6.8.4.2.7.7.5,1.1-.1.3-.4.5-.7.5-.9,0-1.8,0-2.7,0-.9,0-1.8-.1-2.6-.2-.9,0-1.8-.2-2.6-.4-.9-.2-1.7-.4-2.6-.8h0c-.3-.2-.6-.5-.6-.9-1-5-.5-9.8-.2-14.7.4-4.9.8-9.8,1.6-14.6,0-.5.5-.8,1-.7.4,0,.7.4.7.8h0Z"/>
                <path class="st2" d="M65.2,171.2c1.8-1.9,3.7-3.6,5.7-5.2,2-1.6,4-3.2,6.3-4.4l.7,1.5c-2.6.8-5.3,1.6-7.9,2.2-2.7.6-5.3,1.3-8.1,1.4-.5,0-.9-.4-.9-.8,0-.4.2-.7.5-.8,2.6-1.2,5.3-1.6,7.9-2.2,2.7-.5,5.4-1,8.1-1.4.5,0,.9.3,1,.7,0,.3,0,.5-.2.7h0c-1.7,2-3.7,3.7-5.7,5.3-2,1.6-4.1,3.1-6.3,4.4-.4.2-.9,0-1.2-.3-.2-.3-.1-.7.1-1h0Z"/>
                <path class="st2" d="M77.2,161.7c-4.8-1.8-11.5-3.9-12.4-3.4-.9.5-1.2,2,10.7,4,4.1.6,1.7-.5,1.7-.5h0Z"/>
              </g>
              <path class="st3" d="M87.3,140.7s-2.5,6.8-5.3,6.9-5.2,0-6.5-1.1c-1.3-1-3.4-9.6-3.4-9.6l15.2,3.8h0Z"/>
            </g>
            <g>
              <path class="st10" d="M116.4,57.2c-2.1-3,0-12.5-6.2-28-6.1-15.3-21.8-25.3-39.2-24.2-18.1,1.2-32.5,14.8-36.1,31.8,0,0-.1,0-.2,0-.8,3.6-1.1,7.3-.8,11.1,0,.9.1,1.6.2,2.4.3,2.3.4,4.5.3,6.8-.7,12.8-.9,54,21.9,74.5,10.9,9.8,24.3,14.1,37.8,14.5,0,0,.2,0,.2,0,20.3.6,40.6-7.5,52.4-19.2,16.4-16.3-18.4-52.6-30.3-69.8h0Z"/>
              <g class="st16">
                <path class="st9" d="M87.4,64c4-3.2,6.4-7.3,7.9-11.7,1.5-4.3.7-9.8-.5-14.2-1.1-4-3.5-7.4-7-9.7-4.3-2.8-9.3-3.7-14.4-3.5-4.8.2-9.9,1.2-13.4,4.7-1.2,1.3.9,3.4,2.2,2.2,3.1-2.7,7.7-3.3,11.7-3.4,4.1,0,8.4.8,11.8,3.2,3.2,2.3,5.1,5.6,5.5,9.5.5,4.4-.9,8.7-2.7,12.6-1.8,4-4.1,7.8-7.1,11-2.9,3.1-6.2,5.8-8.3,9.6-4,7.2-3.7,16.1-1.2,23.7,1.5,4.8,3.9,9.2,6.5,13.5,1.3,2.1,2.6,4.2,4,6.2,1.4,2.1,2.9,4,4.9,5.6,2,1.5,4-1.4,2.3-3-3.3-3.1-5.5-7.1-7.8-10.9-2.4-3.9-4.5-8-6-12.3-2.5-7.5-2.7-16.7,2.4-23.2,2.7-3.5,5.5-7,9-9.9h0Z"/>
              </g>
            </g>
            <g>
              <path class="st3" d="M35.7,86.6l17.5-5.2,18.1,3.9c0,18.8,18.3,41.6,39.1,45.6,16.1,3.1,25.1,1.8,31.9,0-10.9,9.7-29.5,18.4-47.5,17.8,0,0,0,0,0,0-13.5-.4-29.7-6.5-40.6-16.2-12.7-11.4-16.2-30.1-18.5-45.9Z"/>
              <g class="st11">
                <path class="st4" d="M37.8,104.3c6,18.1,21.1,15.6,28.2,11.6,10.2-5.8,8.4-25,5.7-33-2.7-8-6.3-4.2-6.3-4.2l-20.3,10.5-10.5,8.1,3.2,7Z"/>
              </g>
            </g>
            <path class="st5" d="M56.8,112.6c8.1-.9,15.1-8.8,14.4-20.6-.7-12.1,3.3-22.3,13.8-30.1s13-30.7-7.3-34.5-24.4,10.9-28.9,10.7-6.4-7.1-12.4-6.8c-.3,1.1-1.5,4.1-1.9,5.6-1,4.3-1.1,7.3-.8,11.1,0,.9.1,1.6.2,2.4.3,2.3.4,4.5.3,6.8-.4,7.9-.7,26.7,4.6,44.7,0,0,.1.2.1.3,3.4,6.6,9.6,11.3,17.7,10.4h0Z"/>
            <g>
              <path class="st2" d="M117.7,139.8c1.3,4.7,2.3,9.6,3.2,14.4.8,4.8,1.8,9.6,1.4,14.7,0,.4-.2.7-.6.9h0c-.8.5-1.6.9-2.5,1.2-.8.3-1.7.5-2.6.7-.9.2-1.7.4-2.6.5-.9.1-1.8.2-2.7.2-.5,0-.9-.4-.9-.9,0-.3.2-.6.5-.8.8-.4,1.6-.7,2.5-1,.8-.3,1.7-.6,2.5-.8.9-.2,1.7-.4,2.6-.6.9-.1,1.8-.2,2.7-.2l-.6.9c-1.9-4.7-2.5-9.5-3.2-14.4-.6-4.9-1.2-9.7-1.4-14.7,0-.5.3-.9.8-.9.4,0,.7.2.8.6h0Z"/>
              <path class="st2" d="M133.9,178c-2.4-1.1-4.6-2.3-6.8-3.7-2.2-1.4-4.3-2.8-6.2-4.6h0c-.3-.4-.4-.9,0-1.3.2-.2.4-.3.6-.3,2.8,0,5.5.3,8.2.5,2.7.3,5.5.5,8.1,1.4.4.1.7.6.5,1.1-.1.3-.4.6-.7.6-2.8.3-5.5-.2-8.2-.5-2.7-.4-5.4-.8-8.1-1.4l.5-1.5c2.4,1,4.6,2.3,6.8,3.7,2.1,1.4,4.3,2.9,6.2,4.6.4.3.4.8,0,1.2-.3.3-.7.4-1,.2h0Z"/>
              <path class="st2" d="M121.1,168.6c5.1-.3,12.1-1.3,12.7-2.1.6-.8.3-2.3-11.4.9-4,1.2-1.3,1.2-1.3,1.2h0Z"/>
            </g>
            <path class="st3" d="M130.2,135.5s-6.1,14.6-8.9,15.3-5.1.9-6.6.1c-1.5-.8-7.1-12.1-7.1-12.1l22.6-3.3h0Z"/>
            <path class="st14" d="M141.7,40.6c-22.5,7.6-46.6,23.5-41.1,41.7,0,0,4,14.5,15.6,14.5,11.7,0,50.8-13.1,53.3-22.4,2.4-9.2-11-6.8-11-6.8,0,0,14.5-.8,15.4-8.4s-12.4-5.6-12.4-5.6c0,0,18-3.1,15.2-13.5-1.7-6.2-17.9-5.2-34.9.6"/>
            <g>
              <path class="st8" d="M137.8,82.9c2.5-1.3,5-2.6,7.4-4.1,2.4-1.5,4.7-3.1,6.7-5,1-1,1.9-2,2.3-3.3.3-1.2.2-2.7-.6-3.6-.8-.9-2.2-1.1-3.6-1.2-1.3,0-2.7.1-4,.4l-.2-1.1c2.1-.3,4.3-.9,6.2-1.8,1.9-.9,3.8-2.2,4.4-4,0-.5.2-.9.2-1.4,0-.5-.2-.9-.4-1.3-.5-.8-1.4-1.2-2.4-1.4-2-.4-4.3-.2-6.3.2h0c-.3,0-.6-.1-.7-.5,0-.3.1-.6.4-.7,1.7-.5,3.5-1.1,5.1-1.9,1.6-.8,3.2-1.8,4.3-3.1,1.2-1.3,1.7-3,1.3-4.7-.2-.9-.5-1.6-1.2-2-.7-.5-1.5-.8-2.4-.9-1.8-.3-3.6-.3-5.4-.1-1.8.2-3.7.5-5.5.9-3.6.8-7.2,1.9-10.7,3.2,3.4-1.5,6.9-2.8,10.5-3.7,1.8-.5,3.6-.9,5.5-1.1,1.9-.2,3.8-.3,5.7,0,.9.2,1.9.4,2.8,1,.4.3.8.7,1.1,1.1.3.5.4,1,.6,1.4.2,1,.2,2,0,3-.3,1-.8,1.9-1.4,2.6-1.3,1.5-2.9,2.6-4.6,3.4-1.7.9-3.5,1.5-5.3,2l-.3-1.2c2.2-.4,4.5-.7,6.9-.2,1.1.2,2.4.8,3.1,2,.4.6.5,1.2.6,1.9,0,.6-.1,1.2-.2,1.9-.4,1.2-1.2,2.2-2.1,2.9-.9.8-1.9,1.3-3,1.8-2.1.9-4.3,1.5-6.5,1.8h0c-.3,0-.6-.2-.6-.5,0-.3.1-.5.4-.6,1.4-.3,2.9-.5,4.3-.4,1.4,0,3.1.4,4.2,1.6.6.6.9,1.4.9,2.2,0,.8,0,1.5-.2,2.3-.5,1.5-1.5,2.6-2.6,3.6-2.1,1.9-4.6,3.4-7,4.8-2.5,1.4-5,2.6-7.6,3.7h0Z"/>
              <path class="st8" d="M123.7,90.2c2.4-1.2,4.7-2.5,7-3.9,2.2-1.4,4.4-2.9,6.4-4.7.9-.9,1.8-1.9,2.1-3.1.3-1.2.2-2.5-.6-3.4-.8-.8-2.1-1.1-3.4-1.1-1.3,0-2.6.1-3.8.4l-.2-1c2-.3,4-.9,5.9-1.7,1.8-.8,3.6-2,4.2-3.8.2-.9.2-1.9-.2-2.5-.4-.7-1.3-1.1-2.2-1.3-1.9-.4-4-.2-6,.2h0c-.3,0-.6-.1-.7-.4,0-.3.1-.6.4-.6,1.6-.4,3.3-1,4.8-1.8,1.5-.8,3-1.7,4.1-2.9,1.1-1.2,1.6-2.8,1.3-4.4-.2-.8-.5-1.5-1.1-1.9-.6-.5-1.4-.7-2.3-.9-3.4-.6-6.9,0-10.3.7-3.4.7-6.8,1.8-10,3,3.2-1.4,6.5-2.6,9.9-3.5,1.7-.5,3.4-.8,5.2-1,1.8-.2,3.5-.3,5.3,0,.9.2,1.8.4,2.6,1,.4.3.8.6,1,1.1.3.4.4.9.5,1.4.2.9.2,1.9,0,2.8-.3.9-.8,1.8-1.4,2.5-1.2,1.4-2.8,2.4-4.4,3.2-1.6.8-3.3,1.4-5,1.9l-.3-1.1c2.1-.4,4.3-.7,6.5-.2,1.1.2,2.3.8,2.9,1.9.7,1.1.6,2.4.3,3.5-.4,1.1-1.1,2-2,2.8-.9.7-1.8,1.2-2.8,1.7-2,.9-4,1.4-6.2,1.7h0c-.3,0-.5-.2-.6-.4,0-.3.1-.5.4-.6,1.4-.3,2.7-.5,4.1-.4,1.4,0,2.9.3,4,1.5.2.3.5.6.6,1l.2.5c0,.2,0,.4,0,.5v.5c0,0,0,.5,0,.5,0,.4,0,.7-.2,1.1-.5,1.4-1.5,2.4-2.4,3.3-2,1.8-4.3,3.2-6.6,4.5-2.3,1.3-4.7,2.5-7.2,3.5h0Z"/>
            </g>
            <path class="st2" d="M51.3,66.1s-11.8-.9-27.8-6.7c1.7.1,10.1.7,17.5.7s8-.2,10.3-.7c.1,0,.2-.1.1-.2,0,0-.1-.1-.3-.1-6,1.5-25.1.2-27.6,0l26.2-6.7s8.4,4.1,1.6,13.7h0Z"/>
            <path class="st1" d="M51.3,59.4c-2.2.5-6.1.7-10.3.7-7.4,0-15.8-.6-17.5-.7h0c-.2,0-.3-.1-.5-.2,0,0,0,0,0,0h0s.5-.1.5-.1c2.6.2,21.6,1.5,27.6,0,.1,0,.2,0,.3.1s0,.2-.1.2Z"/>
            <g>
              <path class="st13" d="M75.8,54.2c-1.6,2.9-5.2,3.9-8.1,2.3-2.9-1.6-3.9-5.2-2.3-8.1,1.6-2.9,5.2-3.9,8.1-2.3,2.9,1.6,3.9,5.2,2.3,8.1Z"/>
              <path class="st15" d="M74,53.2c-1,1.9-3.4,2.5-5.3,1.5s-2.5-3.4-1.5-5.3,3.4-2.5,5.3-1.5,2.5,3.4,1.5,5.3Z"/>
              <path class="st12" d="M69.3,49c-.2.4,0,.9.3,1.1.4.2.9,0,1.1-.3s0-.9-.3-1.1c-.4-.2-.9,0-1.1.3Z"/>
            </g>
            <path class="st10" d="M138.4,106.8s47.2,2.8,56,16.5c2.4,9-16.2,1.6-16.2,1.6,0,0,9.3,3.5,10.1,9.4.8,5.9-15.9-1.7-15.9-1.7,0,0,12.8,7.7,5.1,11.3-7.7,3.6-37.5-17.3-37.5-17.3"/>
            <path class="st8" d="M170.9,130.1c-.7-.7-1.6-1.1-2.4-1.6-.9-.5-1.8-1-2.7-1.5-1.9-1-3.7-1.9-5.6-2.8-3.8-1.8-7.7-3.4-11.6-4.8-.4-.2-.7.5-.3.6,3.8,1.5,7.6,3.1,11.3,4.9,1.9.9,3.7,1.8,5.5,2.8.9.5,1.7.9,2.6,1.4.9.5,1.9,1.2,2.8,1.5.3,0,.7-.3.4-.5h0Z"/>
            <path class="st8" d="M175.1,121.6c-.8-.5-1.7-.8-2.6-1.2-.9-.3-1.8-.7-2.7-1-1.8-.7-3.7-1.3-5.6-1.8-3.7-1.1-7.4-2.1-11.2-2.9-.4,0-.5.6,0,.7,3.8.9,7.5,2,11.1,3.3,1.8.6,3.6,1.2,5.4,1.9.9.3,1.7.6,2.6,1,.9.3,1.8.7,2.7.9.4,0,.7-.6.3-.8h0Z"/>
          </g>
        </g>
      </g>
    </g>
  </g>
</svg>