<svg xmlns="http://www.w3.org/2000/svg" xmlns:xlink="http://www.w3.org/1999/xlink" viewBox="0 0 1005.73 924.04" height="183" width="200"><defs><style>      .cls-1 {        mix-blend-mode: multiply;      }      .cls-1, .cls-2, .cls-3, .cls-4, .cls-5, .cls-6, .cls-7, .cls-8, .cls-9, .cls-10 {        stroke-width: 0px;      }      .cls-1, .cls-5 {        opacity: .2;      }      .cls-1, .cls-8, .cls-11 {        fill: #00517d;      }      .cls-2 {        fill: #99dff9;      }      .cls-3 {        fill: #222221;      }      .cls-12 {        isolation: isolate;      }      .cls-4 {        fill: #232020;      }      .cls-5 {        fill: #6e4339;        mix-blend-mode: screen;      }      .cls-6 {        fill: #00aeef;      }      .cls-7, .cls-13 {        fill: #def7ff;      }      .cls-14 {        clip-path: url(#clippath-1);      }      .cls-15 {        clip-path: url(#clippath);      }      .cls-9 {        fill: #4f4d4d;      }      .cls-10 {        fill: #fff;      }    </style><clipPath id="clippath"><path class="cls-8" d="M585.53,288.92c-10.58-15.25,0-63-31.16-141.45-30.61-77.07-110.27-127.84-198.08-122-91.27,6.06-163.94,74.73-182.4,160.7-.36-.07-.73-.11-1.09-.18-3.85,18.06-5.35,36.86-4.08,56.03.29,4.42.65,8.26,1.2,12.12,1.63,11.4,2.17,22.94,1.56,34.44-3.43,64.78-4.64,272.54,110.55,376.2,54.93,49.43,122.93,71.1,191.08,73.13.38.07.87-.04,1.21.09,102.49,3.06,205.13-37.92,264.41-96.71,82.83-82.14-93.06-265.69-153.21-352.37Z" /></clipPath><clipPath id="clippath-1"><path class="cls-7" d="M178.19,437.4l88.39-26.47,91.55,19.45c.43,94.95,92.56,209.84,197.33,230.06,81.08,15.65,126.54,8.85,160.96.47-55.27,49.1-149.14,92.8-239.77,90.1-.34-.13.38.07,0,0-68.15-2.03-150.06-32.57-204.99-82-64.15-57.73-81.8-151.99-93.47-231.61Z" /></clipPath></defs><g class="cls-12"><g id="Layer_2" data-name="Layer 2"><g id="Layer_1-2" data-name="Layer 1"><g><path class="cls-10" d="M1003.77,615.99c-.67-2.5-1.72-4.88-3.12-7.05-17.08-26.56-53.49-47.49-111.31-63.96-39.8-11.34-83.7-18.71-117.64-23.24-5.98-15.53-13.92-32.04-23.97-49.83,22.09-8.53,47.1-19.31,69.52-31.67,36.31-20.03,55.64-38.62,60.83-58.52,4.5-17.29,1.67-30.09-2.99-39.04,14.86-10.65,23.69-24.53,25.78-41.13,1.78-14.21-1.97-27.27-10.59-37.22,6.43-5.23,12.17-11.28,16.63-18.25,9.68-15.17,12.22-32.65,7.34-50.54-2.39-8.76-8.62-21-24.71-29.56-17.97-9.56-45.08-12.48-80.59-8.65-31.08,3.35-66.79,11.63-103.28,23.97-37.27,12.6-73.19,28.79-104.45,46.94-3.14-23.63-9.19-53.68-23.61-89.98-17.11-43.08-47.41-79.08-87.62-104.09C449.49,8.96,402.69-2.67,354.64.52c-86.88,5.77-163.2,63.19-195.03,146.51-.53,1.11-.97,2.26-1.34,3.46-.4,1.32-1.59,4.62-2.63,7.54-3.31,9.22-5.94,16.73-7.23,22.55-.06.28-.12.57-.19.85-27.4-7.23-52.33-11.18-73.19-11.52-49.02-.8-66,19.07-71.58,35.89-5.84,17.6-4.25,35.19,4.61,50.86,4.07,7.21,9.48,13.56,15.62,19.12-9.15,9.47-13.6,22.32-12.58,36.6,1.19,16.69,9.26,31.02,23.53,42.45-5.13,8.69-8.65,21.31-5.09,38.82,4,19.6,21.34,38.61,54.6,59.82,20.25,12.92,43.22,24.61,63.71,34.06-.72,4.68-.11,9.59,1.96,14.14l15.59,34.24c7.72,22.81,18.62,41.61,32.44,55.98,1.12,2.3,2.15,4.34,3.14,6.26.72,1.4,1.47,2.78,2.21,4.16l.76,1.41c1.86,3.45,3.43,6.26,4.94,8.87,1.17,2.02,2.34,3.97,3.44,5.78,1.69,2.8,3.45,5.61,5.25,8.38,1.49,2.29,2.66,4.06,3.8,5.74,1.71,2.51,3.58,5.16,5.7,8.06l.49.68c1.13,1.56,2.3,3.17,3.57,4.82,2.02,2.64,4.01,5.11,6.41,8.02l1.04,1.28c1.02,1.26,2.05,2.51,3.11,3.74,2.61,3.03,5.29,5.92,7.57,8.34.36.39.72.78,1.07,1.17.8.88,1.71,1.88,2.75,2.95,4.18,4.29,8.18,8.14,12.24,11.79,24.69,22.21,52.8,40.09,83.72,53.24,3.43,9.27,6.67,15.26,10.58,19.58-.5,7.85-.95,15.8-1.1,23.88-1.24-.36-2.45-.71-3.64-1.04-22.33-6.27-31.89-6.8-40.91-2.28-11.08,5.55-17.15,16.76-15.45,28.57.24,1.68.62,3.25,1.1,4.74-.48.21-.96.42-1.44.64-10.61,4.82-17.36,15.47-17.2,27.13.19,12.77,8.56,23.55,20.04,27.39-.48,5.85.78,11.84,3.86,17.1,3.94,6.76,10.28,11.58,17.85,13.56,7.57,1.99,15.45.91,22.21-3.03,13.75-8.03,25.81-17.06,34.84-24.07,5.6-4.38,12.28-9.77,19.07-16.11,4.76,1.02,9.58,1.79,14.33,2.31,4.66.59,9.64.99,15.22,1.23.08,0,.15,0,.23,0,4.85.17,10.64.25,16.91-.36,11.07-1.11,20.44-8.24,24.42-18.53,2.85-7.3,2.69-15.28-.45-22.46-3.15-7.19-8.91-12.72-16.23-15.58-5.84-2.27-11.43-3.76-16.13-4.9-.07-.02-.15-.04-.22-.05-4.09-.96-7.88-1.74-11.47-2.36.94-8.48,1.45-16.87,1.81-25.14,3.39-1.68,6.65-3.92,9.79-6.72,11.5,1.47,23.07,2.4,34.57,2.77.19.01.37.02.55.03.47.04.95.07,1.42.08,6.17.18,12.53.21,19.42.07,1.49-.03,2.97-.1,4.45-.17.68-.03,1.37-.06,2.05-.09,3.83-.14,8.3-.32,12.81-.63,1.98-.14,3.95-.31,5.92-.49l1.81-.16c3.38-.3,7.38-.66,11.44-1.14,2.83-.33,5.61-.7,8.23-1.06,1.36-.19,2.68-.37,3.97-.56,10.2,17.19,15.46,22.24,21.72,25.51.16.08.32.17.48.25,0,.03,0,.06.01.09.01.1.03.2.04.3.38,2.59.74,5.19,1.11,7.78,1.71,12.09,3.46,24.42,6.18,36.88-3.51,1-7.19,2.17-11.15,3.55-.08.03-.15.05-.23.08-4.58,1.65-10,3.71-15.57,6.6-9.83,5.11-15.9,15.16-15.83,26.3.14,16.1,13.29,29.11,29.36,29.11.07,0,.14,0,.21,0,6.26-.05,12.01-.74,16.81-1.42.08-.01.15-.02.23-.03,5.52-.83,10.43-1.75,15-2.83,4.69-1.02,9.4-2.3,14.02-3.81,7.43,5.6,14.65,10.27,20.72,14.05,14.34,8.89,25.78,15.13,37.16,20.26,3.9,1.75,7.99,2.59,12.04,2.59,8.29,0,16.37-3.56,22.12-10.2,6.03-7,8.16-16.07,6.58-24.52,7.28-3.33,13.03-9.57,15.66-17.47,5.07-15.33-3.28-31.95-18.61-37.05-.8-.27-1.61-.52-2.42-.77-.62-3.58-1.99-7.08-4.11-10.28-10.14-15.34-29.3-13.51-36.51-12.82-5.53.53-12.08,1.58-19.75,3.17-1.24-10.86-3.05-21.42-4.83-31.8-.36-2.12-.73-4.24-1.08-6.36,8.84-8.78,18.89-24.8,32.89-54.52,2.73-1.33,5.38-2.68,7.91-3.97l.86-.44c1.53-.78,3.05-1.56,4.56-2.37,3.22-1.71,6.51-3.53,10.06-5.56,1.66-.95,3.31-1.91,4.95-2.88,3.56-2.11,6.8-4.09,9.93-6.08,1.1-.7,2.19-1.42,3.28-2.14l1.01-.66c2.73-1.8,6.33-4.18,9.93-6.73.71-.51,1.41-1.02,2.11-1.54.34-.25.67-.5,1.06-.78,2.01-1.46,3.96-2.9,5.84-4.33,21.82,13.91,49.31,30.46,75.98,43.82,48.56,24.33,79.62,30.83,100.72,21.1,21.47-9.9,26.18-25.5,26.96-34.64,12.38.71,21.78-1.75,29.33-7.33,9.94-7.35,14.66-19.04,12.95-32.06-.26-2.01-.63-4.01-1.11-5.98,8.43-1.67,15.35-5.02,20.99-10.09,6.62-5.95,16.79-19.41,10.53-42.79Z" /><g><path class="cls-8" d="M203.22,226c111.5,44.51,228.67,130.96,195.99,221.22,0,0-23.88,72.15-82.76,68.7-58.87-3.45-252.81-80.11-262.42-127.27-9.61-47.16,57.56-31.49,57.56-31.49,0,0-72.8-7.85-75.56-46.57-2.76-38.72,64.1-24.75,64.1-24.75,0,0-90.15-20.35-72.96-72.19,10.29-31.04,91.54-21.39,176.04,12.34" /><g><path class="cls-5" d="M211.69,440.34c-12.3-7.17-24.43-14.6-36.13-22.64-11.6-8.13-22.96-16.77-32.63-26.88-4.65-5.07-9.19-10.79-10.55-17.02-1.28-6.37-.46-13.73,4.08-17.77,4.51-4.15,11.6-5.11,18.29-4.9,6.76.2,13.75,1.46,20.24,3.36l1.32-5.34c-10.59-2.24-21.23-5.75-30.85-10.66-9.45-4.9-18.55-11.95-21.11-21.51-.33-2.39-.81-4.8-.51-7.24.3-2.38,1.02-4.57,2.29-6.38,2.49-3.66,7.25-5.61,12.29-6.49,10.22-1.64,21.5.03,31.85,2.63h.05c1.61.42,3.24-.56,3.64-2.16.39-1.54-.5-3.1-1.99-3.59-8.61-2.77-17.21-6.51-25.15-10.99-7.92-4.51-15.46-9.94-20.86-16.92-5.47-6.9-7.88-15.7-5.46-24.1,1.15-4.39,2.96-7.68,6.65-9.92,3.49-2.28,7.89-3.43,12.33-4.06,8.96-1.18,18.31-.45,27.46.93,9.18,1.42,18.28,3.53,27.3,5.98,18.05,4.91,35.6,11.62,52.86,18.99-16.76-8.47-34.15-15.77-52.1-21.56-8.97-2.92-18.13-5.29-27.47-6.97-9.33-1.64-18.88-2.69-28.6-1.68-4.82.57-9.79,1.64-14.29,4.37-2.22,1.35-4.34,3.13-5.85,5.42-1.62,2.32-2.38,4.76-3.19,7.11-1.47,4.84-1.79,10.19-.59,15.22,1.15,5.04,3.57,9.64,6.57,13.61,6.08,7.96,14.11,13.74,22.38,18.57,8.37,4.8,17.04,8.67,26.27,11.74l1.7-5.75c-11.22-2.88-22.58-4.81-34.57-3.07-5.82.93-12.41,3.39-16.36,9.14-1.93,2.8-2.94,6.09-3.29,9.25-.36,3.14.2,6.33.73,9.41,1.59,6.23,5.53,11.27,9.82,15.36,4.34,4.17,9.45,7.08,14.54,9.8,10.37,5.16,21.2,8.62,32.5,10.92h.03c1.49.31,2.94-.65,3.25-2.14.29-1.42-.58-2.81-1.95-3.2-7.18-2.01-14.32-3.29-21.79-3.39-7.27.03-15.54,1-21.66,6.77-2.95,2.88-4.74,6.8-5.34,10.66-.57,3.92-.42,7.6.46,11.43,2,7.75,7.06,13.4,12.01,18.62,10.24,10.29,22.08,18.44,34.1,26.11,12.09,7.59,24.55,14.53,37.28,20.91Z" /><path class="cls-5" d="M280.54,481.02c-11.59-6.76-23.03-13.76-34.05-21.34-10.93-7.66-21.64-15.8-30.76-25.33-4.38-4.78-8.67-10.16-9.96-16.04-.97-6-.33-12.84,3.86-16.76,4.26-3.91,10.95-4.75,17.23-4.63,6.37.15,12.96,1.39,19.07,3.15l1.25-5.04c-9.98-2.11-20.01-5.41-29.07-10.04-8.91-4.61-17.48-11.25-19.9-20.27-.91-4.43-.64-9.4,1.74-12.8,2.35-3.45,6.8-5.29,11.54-6.15,9.62-1.6,20.26.02,30.01,2.45h.05c1.51.39,3.05-.53,3.43-2.04.36-1.45-.48-2.92-1.88-3.38-8.12-2.61-16.22-6.14-23.72-10.36-7.46-4.26-14.58-9.37-19.67-15.95-5.16-6.5-7.43-14.8-5.15-22.72,1.09-4.14,2.79-7.24,6.27-9.35,3.29-2.15,7.44-3.24,11.63-3.82,17.08-1.99,34.72,2.1,51.63,6.51,17.01,4.63,33.56,10.95,49.84,17.9-15.8-7.99-32.2-14.87-49.12-20.32-8.45-2.75-17.1-4.99-25.9-6.57-8.8-1.55-17.8-2.54-26.96-1.58-4.55.53-9.23,1.54-13.47,4.12-2.09,1.27-4.09,2.95-5.52,5.11-1.53,2.19-2.24,4.49-3,6.7-1.39,4.56-1.68,9.61-.56,14.35,1.08,4.75,3.37,9.08,6.19,12.83,5.73,7.51,13.3,12.95,21.1,17.51,7.89,4.52,16.06,8.17,24.76,11.06l1.61-5.42c-10.58-2.69-21.28-4.55-32.58-2.86-5.49.9-11.68,3.26-15.37,8.65-3.59,5.42-3.69,11.82-2.46,17.56,1.5,5.87,5.22,10.62,9.27,14.47,4.09,3.93,8.91,6.67,13.7,9.23,9.78,4.86,19.98,8.12,30.63,10.29h.04c1.4.29,2.77-.61,3.06-2.02.27-1.34-.55-2.66-1.85-3.02-6.77-1.87-13.5-3.12-20.54-3.18-6.85.1-14.65.97-20.4,6.39-1.19,1.51-2.68,2.86-3.28,4.7l-1.14,2.62c-.25.89-.33,1.82-.5,2.72l-.42,2.73.12,2.68c.15,1.79.01,3.54.61,5.38,1.9,7.3,6.67,12.62,11.33,17.54,9.65,9.69,20.81,17.38,32.15,24.61,11.4,7.15,23.14,13.69,35.13,19.7Z" /></g><g><g><path class="cls-4" d="M402.13,671.48c1.65,24.84,1.56,49.59.89,74.32-.97,24.71-.97,49.47-8.29,73.86l-3.65-4.41c4.62-.8,9.13-.78,13.62-.63,4.48.24,8.92.72,13.33,1.47,4.42.65,8.81,1.55,13.18,2.57,4.36,1.07,8.71,2.24,12.99,3.91,2.24.88,3.35,3.4,2.48,5.64-.62,1.58-2.06,2.59-3.63,2.75-4.57.45-9.08.41-13.57.25-4.48-.19-8.95-.52-13.38-1.09-4.44-.48-8.85-1.21-13.23-2.19-4.36-1.08-8.71-2.27-12.94-4.29l-.39-.19c-1.75-.84-2.91-2.46-3.27-4.23-4.85-25-2.39-49.64-.89-74.32,1.79-24.67,4.17-49.31,8.29-73.86.39-2.32,2.59-3.89,4.91-3.5,1.99.33,3.42,2,3.55,3.93Z" /><path class="cls-4" d="M327.04,864.61c8.96-9.55,18.73-18.09,28.77-26.3,10.06-8.18,20.43-15.97,32.05-22.18l3.57,7.45c-13.24,4.25-26.62,7.84-40.07,11.14-13.49,3.13-26.86,6.78-41,6.98-2.39.03-4.36-1.88-4.39-4.27-.02-1.77,1.02-3.31,2.54-4,12.88-5.84,26.53-8.23,40.07-11.14,13.57-2.74,27.21-5.19,41-6.98,2.38-.31,4.55,1.37,4.86,3.74.17,1.27-.24,2.49-1.02,3.39l-.28.32c-8.65,9.95-18.56,18.32-28.77,26.3-10.24,7.95-20.74,15.57-32.05,22.18-2.04,1.19-4.66.5-5.86-1.54-.98-1.68-.69-3.74.57-5.09Z" /><path class="cls-4" d="M387.86,816.37c-24.05-9.32-58.17-19.57-62.72-17.29-4.55,2.28-6.01,9.87,53.94,20.03,20.59,3.09,8.78-2.73,8.78-2.73Z" /></g><path class="cls-7" d="M438.8,710.53s-12.57,34.36-26.91,35.04c-14.34.68-26.38-.28-33.04-5.52-6.67-5.24-16.94-48.64-16.94-48.64l76.9,19.12Z" /></g><g><path class="cls-11" d="M585.53,288.92c-10.58-15.25,0-63-31.16-141.45-30.61-77.07-110.27-127.84-198.08-122-91.27,6.06-163.94,74.73-182.4,160.7-.36-.07-.73-.11-1.09-.18-3.85,18.06-5.35,36.86-4.08,56.03.29,4.42.65,8.26,1.2,12.12,1.63,11.4,2.17,22.94,1.56,34.44-3.43,64.78-4.64,272.54,110.55,376.2,54.93,49.43,122.93,71.1,191.08,73.13.38.07.87-.04,1.21.09,102.49,3.06,205.13-37.92,264.41-96.71,82.83-82.14-93.06-265.69-153.21-352.37Z" /><g class="cls-15"><path class="cls-1" d="M439.23,323.24c20.03-16.34,32.51-36.69,40.11-58.86,7.43-21.7,3.41-49.36-2.59-71.82-5.39-20.22-17.71-37.42-35.26-48.91-21.57-14.13-47-18.81-72.48-17.75-24.26,1.01-50.02,6.07-67.63,23.93-6.26,6.35,4.43,16.92,11.1,11.04,15.7-13.85,38.94-16.63,59.12-17.01,20.85-.39,42.48,3.91,59.71,16.17,16.08,11.44,25.74,28.1,27.89,47.72,2.42,22.03-4.65,43.96-13.77,63.71-9.26,20.05-20.74,39.18-35.9,55.35-14.82,15.81-31.13,29.46-41.79,48.68-20.26,36.5-18.53,81.2-6.14,119.92,7.7,24.07,19.71,46.43,32.78,67.97,6.47,10.66,13.34,21.1,20.4,31.38,7.11,10.36,14.86,20.45,24.98,28.04,9.99,7.49,20.29-6.89,11.55-15.1-16.43-15.43-27.69-36.06-39.35-55.12-12.03-19.66-22.83-40.25-30.22-62.14-12.86-38.06-13.46-84.18,12.1-117.3,13.79-17.87,27.83-35.58,45.4-49.91Z" /></g></g><g><path class="cls-13" d="M178.19,437.4l88.39-26.47,91.55,19.45c.43,94.95,92.56,209.84,197.33,230.06,81.08,15.65,126.54,8.85,160.96.47-55.27,49.1-149.14,92.8-239.77,90.1-.34-.13.38.07,0,0-68.15-2.03-150.06-32.57-204.99-82-64.15-57.73-81.8-151.99-93.47-231.61Z" /><g class="cls-14"><path class="cls-2" d="M188.69,526.73c30.26,91.46,106.32,78.94,142.47,58.44,51.36-29.13,42.24-126.47,28.58-166.64-13.66-40.18-31.81-21.09-31.81-21.09l-102.5,52.87-52.87,41,16.13,35.42Z" /></g></g><path class="cls-6" d="M284.77,568.45c41-4.32,76.31-44.68,72.77-104.25-3.64-61.11,16.78-112.61,69.84-151.9,53.06-39.29,65.63-154.92-36.87-174.34-102.5-19.42-123,55.03-145.73,54.2-22.73-.83-32.3-35.86-62.58-34.4-1.65,5.42-7.76,20.92-9.38,28.23-4.85,21.88-5.35,36.86-4.08,56.03.29,4.42.65,8.26,1.2,12.12,1.63,11.4,2.17,22.94,1.56,34.44-2.12,40.06-3.36,134.8,23.23,225.79.25.48.51,1,.75,1.46,17.06,33.38,48.3,56.95,89.3,52.63Z" /><g><path class="cls-4" d="M592.15,706c6.67,23.98,11.63,48.24,16,72.58,4.08,24.39,9.12,48.63,6.92,74-.17,1.94-1.25,3.57-2.78,4.53l-.39.24c-4,2.46-8.19,4.1-12.41,5.63-4.25,1.44-8.56,2.63-12.93,3.57-4.35,1.03-8.75,1.82-13.19,2.49-4.45.62-8.92,1.14-13.52,1.17-2.41.02-4.37-1.92-4.39-4.33-.01-1.69.95-3.17,2.36-3.9,4.08-2.11,8.28-3.74,12.51-5.26,4.24-1.48,8.51-2.83,12.83-3.94,4.3-1.2,8.67-2.15,13.1-2.86,4.45-.61,8.93-1.11,13.61-.8l-3.17,4.77c-9.84-23.49-12.45-48.11-16-72.58-3.27-24.52-5.95-49.13-6.92-74-.09-2.35,1.74-4.34,4.1-4.43,2.01-.08,3.76,1.26,4.28,3.12Z" /><path class="cls-4" d="M674.19,898.63c-11.94-5.38-23.19-11.86-34.21-18.69-11-6.86-21.73-14.14-31.37-23.13l-.3-.28c-1.75-1.63-1.85-4.38-.22-6.13.87-.94,2.09-1.4,3.28-1.38,13.9.33,27.72,1.33,41.5,2.63,13.77,1.47,27.59,2.42,41.02,6.87,2.27.75,3.5,3.2,2.75,5.47-.56,1.68-2.06,2.79-3.72,2.95-14.08,1.29-27.76-.94-41.5-2.63-13.72-1.87-27.41-4.03-41.01-6.87l2.76-7.78c12.21,4.95,23.34,11.61,34.2,18.69,10.84,7.11,21.46,14.57,31.37,23.13,1.79,1.55,1.99,4.25.44,6.04-1.27,1.47-3.32,1.86-5,1.11Z" /><path class="cls-4" d="M609.62,851.58c25.74-1.7,61-6.81,64.16-10.79,3.16-3.98,1.29-11.49-57.35,4.6-19.97,5.89-6.81,6.18-6.81,6.18Z" /></g><path class="cls-7" d="M655.2,684.25s-30.76,73.85-44.73,77.17c-13.97,3.32-25.98,4.59-33.5.67-7.52-3.92-35.78-60.94-35.78-60.94l114.01-16.9Z" /><path class="cls-8" d="M713.67,204.96c-113.73,38.45-235.38,118.47-207.61,210.36,0,0,19.97,73.33,78.94,73.06,58.97-.28,256.75-66.39,268.89-112.97,12.13-46.58-55.78-34.54-55.78-34.54,0,0,73.12-3.93,77.95-42.44,4.83-38.51-62.67-28.16-62.67-28.16,0,0,91.12-15.47,76.73-68.16-8.61-31.55-90.26-26.29-176.45,2.85" /><g><path class="cls-5" d="M693.69,418.53c12.67-6.5,25.18-13.27,37.3-20.66,12.02-7.5,23.83-15.51,34.03-25.08,4.91-4.82,9.76-10.28,11.45-16.43,1.62-6.29,1.19-13.68-3.11-17.97-4.28-4.38-11.31-5.73-18-5.88-6.76-.17-13.81.72-20.39,2.27l-1.03-5.41c10.7-1.67,21.51-4.6,31.38-8.98,9.7-4.38,19.16-10.93,22.23-20.34.46-2.36,1.07-4.75.9-7.2-.17-2.39-.78-4.62-1.94-6.49-2.29-3.79-6.93-6-11.92-7.15-10.12-2.19-21.47-1.13-31.94.92h-.05c-1.63.33-3.2-.73-3.52-2.36-.3-1.56.67-3.07,2.18-3.47,8.74-2.31,17.53-5.58,25.71-9.62,8.15-4.08,15.97-9.1,21.74-15.78,5.83-6.59,8.71-15.26,6.75-23.77-.92-4.45-2.55-7.83-6.11-10.26-3.37-2.47-7.7-3.85-12.1-4.71-8.89-1.66-18.26-1.43-27.47-.55-9.24.92-18.44,2.54-27.58,4.5-18.28,3.94-36.18,9.69-53.81,16.12,17.19-7.56,34.95-13.91,53.19-18.72,9.11-2.43,18.39-4.31,27.81-5.49,9.4-1.13,19-1.67,28.65-.14,4.79.83,9.69,2.16,14.04,5.14,2.14,1.47,4.17,3.35,5.55,5.73,1.49,2.4,2.12,4.88,2.8,7.27,1.21,4.91,1.24,10.27-.23,15.23-1.42,4.97-4.08,9.43-7.29,13.23-6.5,7.63-14.83,12.96-23.35,17.34-8.62,4.34-17.48,7.74-26.86,10.31l-1.39-5.83c11.36-2.27,22.81-3.59,34.68-1.21,5.76,1.24,12.21,4.05,15.84,10.01,1.78,2.9,2.61,6.24,2.79,9.42.19,3.16-.54,6.31-1.24,9.36-1.92,6.13-6.13,10.96-10.64,14.81-4.56,3.94-9.82,6.56-15.04,9.01-10.64,4.59-21.64,7.47-33.04,9.15h-.03c-1.5.23-2.9-.81-3.13-2.32-.21-1.43.73-2.77,2.12-3.09,7.28-1.62,14.48-2.52,21.94-2.22,7.25.42,15.46,1.83,21.26,7.93,2.79,3.03,4.37,7.04,4.76,10.93.36,3.95.02,7.61-1.08,11.39-2.42,7.63-7.77,13-13,17.95-10.78,9.72-23.04,17.23-35.46,24.24-12.48,6.93-25.29,13.19-38.35,18.87Z" /><path class="cls-5" d="M622.74,455.45c11.94-6.12,23.73-12.5,35.15-19.48,11.33-7.07,22.46-14.61,32.08-23.64,4.63-4.54,9.2-9.68,10.81-15.48,1.3-5.94,1.02-12.81-2.95-16.94-4.04-4.13-10.68-5.34-16.96-5.55-6.37-.19-13.01.69-19.21,2.12l-.97-5.1c10.08-1.57,20.27-4.33,29.57-8.46,9.14-4.13,18.06-10.3,20.96-19.17,1.15-4.37,1.14-9.35-1.05-12.87-2.16-3.57-6.5-5.65-11.19-6.76-9.52-2.11-20.23-1.07-30.09.84h-.06c-1.53.31-3.02-.69-3.31-2.23-.28-1.47.63-2.89,2.06-3.27,8.24-2.17,16.53-5.26,24.24-9.07,7.68-3.85,15.06-8.57,20.5-14.87,5.5-6.21,8.21-14.38,6.36-22.41-.86-4.2-2.4-7.38-5.76-9.68-3.17-2.33-7.26-3.63-11.4-4.44-16.94-2.91-34.78.23-51.9,3.72-17.24,3.71-34.11,9.13-50.73,15.2,16.21-7.13,32.95-13.12,50.14-17.65,8.59-2.29,17.34-4.06,26.21-5.17,8.87-1.07,17.91-1.58,27.01-.13,4.51.78,9.14,2.04,13.23,4.84,2.02,1.39,3.93,3.16,5.24,5.4,1.41,2.26,2,4.6,2.64,6.86,1.14,4.63,1.17,9.69-.21,14.35-1.33,4.68-3.85,8.89-6.88,12.48-6.13,7.19-13.98,12.22-22.01,16.35-8.12,4.09-16.48,7.3-25.32,9.72l-1.31-5.5c10.71-2.12,21.5-3.4,32.69-1.11,5.43,1.19,11.49,3.88,14.88,9.47,3.29,5.61,3.05,12,1.51,17.67-1.81,5.78-5.79,10.32-10.03,13.95-4.3,3.71-9.25,6.18-14.18,8.48-10.02,4.33-20.39,7.04-31.14,8.62h-.04c-1.42.22-2.74-.76-2.95-2.18-.2-1.35.69-2.62,2.01-2.91,6.86-1.51,13.64-2.39,20.68-2.07,6.83.46,14.57,1.75,20.03,7.48,1.1,1.58,2.53,3,3.02,4.87l1,2.68c.2.91.24,1.83.35,2.75l.28,2.75-.26,2.67c-.25,1.78-.2,3.53-.9,5.33-2.29,7.19-7.34,12.24-12.26,16.91-10.16,9.16-21.72,16.24-33.42,22.84-11.76,6.53-23.84,12.43-36.14,17.78Z" /></g><path class="cls-4" d="M257.21,333.78s-59.62-4.74-140.35-33.76c8.65.62,50.95,3.51,88.46,3.51,21.07,0,40.63-.91,51.89-3.64.54-.14.85-.6.69-1.05-.16-.43-.7-.69-1.28-.56-30.51,7.42-126.5,1-139.56.07l132.19-33.98s42.45,20.75,7.96,69.4Z" /><path class="cls-9" d="M257.21,299.88c-11.26,2.73-30.82,3.64-51.89,3.64-37.51,0-79.81-2.89-88.46-3.51h-.02c-.78-.28-1.57-.57-2.36-.85-.07-.02-.16-.06-.23-.09l.22-.06,2.59-.67c13.06.93,109.05,7.34,139.56-.07.58-.14,1.12.12,1.28.56.16.44-.15.91-.69,1.05Z" /><g><path class="cls-2" d="M380.55,273.49c-8.04,14.47-26.3,19.69-40.77,11.64-14.47-8.04-19.69-26.3-11.64-40.77,8.04-14.47,26.3-19.69,40.77-11.64,14.47,8.04,19.69,26.3,11.64,40.77Z" /><path class="cls-3" d="M371.44,268.43c-5.25,9.44-17.16,12.85-26.6,7.6-9.44-5.25-12.85-17.16-7.6-26.6,5.25-9.44,17.16-12.85,26.6-7.6,9.44,5.25,12.85,17.16,7.6,26.6Z" /><path class="cls-10" d="M347.85,247.36c-1.11,1.99-.39,4.5,1.6,5.6,1.99,1.11,4.5.39,5.6-1.6s.39-4.5-1.6-5.6c-1.99-1.11-4.5-.39-5.6,1.6Z" /></g><path class="cls-8" d="M696.85,539.21s238.41,14.23,282.77,83.24c12.2,45.55-82.05,8.31-82.05,8.31,0,0,47.1,17.66,51,47.33,3.89,29.67-80.47-8.76-80.47-8.76,0,0,64.65,38.8,25.56,56.83-39.1,18.03-189.22-87.5-189.22-87.5" /><path class="cls-5" d="M860.93,656.93c-3.34-3.37-8.2-5.59-12.32-7.87-4.53-2.51-9.09-4.96-13.68-7.36-9.36-4.91-18.83-9.63-28.39-14.14-19.11-9.03-38.72-17.07-58.54-24.41-2.13-.79-3.45,2.45-1.32,3.28,19.33,7.53,38.26,15.9,56.97,24.84,9.35,4.47,18.61,9.13,27.77,13.97,4.39,2.32,8.75,4.69,13.1,7.09,4.49,2.47,9.38,6.03,14.35,7.33,1.44.38,3.46-1.3,2.06-2.72Z" /><path class="cls-5" d="M882.14,613.99c-4.02-2.6-8.71-4.2-13.16-5.92-4.5-1.73-9.03-3.39-13.57-5.01-9.29-3.33-18.66-6.42-28.08-9.33-18.62-5.76-37.49-10.49-56.52-14.67-2.16-.47-2.47,2.86-.39,3.38,18.94,4.73,37.7,10.35,56.23,16.47,9.15,3.02,18.24,6.24,27.28,9.58,4.31,1.6,8.61,3.25,12.9,4.92,4.46,1.73,8.94,3.78,13.64,4.74,2.22.45,3.57-2.94,1.68-4.16Z" /></g></g></g></g></g></svg>