<svg xmlns="http://www.w3.org/2000/svg" xmlns:xlink="http://www.w3.org/1999/xlink" width="275" zoomAndPan="magnify" viewBox="0 0 206.25 187.499992" height="250" preserveAspectRatio="xMidYMid meet" version="1.0"><defs><g/><clipPath id="f82847f3a8"><path d="M 0 0.0898438 L 205.503906 0.0898438 L 205.503906 186.910156 L 0 186.910156 Z M 0 0.0898438 " clip-rule="nonzero"/></clipPath><clipPath id="9d53481494"><path d="M 8.96875 0.0898438 L 196.535156 0.0898438 C 198.914062 0.0898438 201.195312 1.035156 202.875 2.71875 C 204.558594 4.398438 205.503906 6.679688 205.503906 9.058594 L 205.503906 177.945312 C 205.503906 180.320312 204.558594 182.601562 202.875 184.285156 C 201.195312 185.964844 198.914062 186.910156 196.535156 186.910156 L 8.96875 186.910156 C 6.589844 186.910156 4.308594 185.964844 2.625 184.285156 C 0.945312 182.601562 0 180.320312 0 177.945312 L 0 9.058594 C 0 6.679688 0.945312 4.398438 2.625 2.71875 C 4.308594 1.035156 6.589844 0.0898438 8.96875 0.0898438 Z M 8.96875 0.0898438 " clip-rule="nonzero"/></clipPath><clipPath id="c3b10e40ad"><path d="M 0 0.0898438 L 205.503906 0.0898438 L 205.503906 186.910156 L 0 186.910156 Z M 0 0.0898438 " clip-rule="nonzero"/></clipPath><clipPath id="6692fcbb13"><path d="M 8.96875 0.0898438 L 196.535156 0.0898438 C 198.914062 0.0898438 201.195312 1.035156 202.875 2.71875 C 204.558594 4.398438 205.503906 6.679688 205.503906 9.058594 L 205.503906 177.945312 C 205.503906 180.320312 204.558594 182.601562 202.875 184.285156 C 201.195312 185.964844 198.914062 186.910156 196.535156 186.910156 L 8.96875 186.910156 C 6.589844 186.910156 4.308594 185.964844 2.625 184.285156 C 0.945312 182.601562 0 180.320312 0 177.945312 L 0 9.058594 C 0 6.679688 0.945312 4.398438 2.625 2.71875 C 4.308594 1.035156 6.589844 0.0898438 8.96875 0.0898438 Z M 8.96875 0.0898438 " clip-rule="nonzero"/></clipPath><clipPath id="bd0071a0b9"><rect x="0" width="206" y="0" height="187"/></clipPath><clipPath id="53064f6a3f"><path d="M 74.730469 38.625 L 130.773438 38.625 L 130.773438 87.945312 L 74.730469 87.945312 Z M 74.730469 38.625 " clip-rule="nonzero"/></clipPath><clipPath id="0fbc40c043"><path d="M 130.773438 63.378906 L 116.761719 88.132812 L 88.742188 88.132812 L 74.730469 63.378906 L 88.742188 38.625 L 116.761719 38.625 Z M 130.773438 63.378906 " clip-rule="nonzero"/></clipPath></defs><g clip-path="url(#f82847f3a8)"><g clip-path="url(#9d53481494)"><g transform="matrix(1, 0, 0, 1, 0, -0.000000000000024966)"><g clip-path="url(#bd0071a0b9)"><g clip-path="url(#c3b10e40ad)"><g clip-path="url(#6692fcbb13)"><path fill="#fbfeff" d="M 0 0.0898438 L 205.792969 0.0898438 L 205.792969 186.910156 L 0 186.910156 Z M 0 0.0898438 " fill-opacity="1" fill-rule="nonzero"/></g></g></g></g><path stroke-linecap="butt" transform="matrix(0.747283, 0, 0, 0.747283, 0, 0.09058)" fill="none" stroke-linejoin="miter" d="M 12.001819 -0.000985185 L 262.999784 -0.000985185 C 266.183193 -0.000985185 269.23592 1.264015 271.483648 3.51697 C 273.736602 5.764697 275.001602 8.817424 275.001602 12.000833 L 275.001602 238.001979 C 275.001602 241.180161 273.736602 244.232889 271.483648 246.485843 C 269.23592 248.733571 266.183193 249.998571 262.999784 249.998571 L 12.001819 249.998571 C 8.818409 249.998571 5.765682 248.733571 3.512727 246.485843 C 1.265 244.232889 0 241.180161 0 238.001979 L 0 12.000833 C 0 8.817424 1.265 5.764697 3.512727 3.51697 C 5.765682 1.264015 8.818409 -0.000985185 12.001819 -0.000985185 Z M 12.001819 -0.000985185 " stroke="#2563eb" stroke-width="4" stroke-opacity="1" stroke-miterlimit="4"/></g></g><g clip-path="url(#53064f6a3f)"><g clip-path="url(#0fbc40c043)"><path stroke-linecap="butt" transform="matrix(0.747283, 0, 0, 0.747283, 74.731163, 38.624683)" fill="none" stroke-linejoin="miter" d="M 74.994756 33.125652 L 56.244528 66.250881 L 18.749299 66.250881 L -0.000929288 33.125652 L 18.749299 0.000423627 L 56.244528 0.000423627 Z M 74.994756 33.125652 " stroke="#1976fa" stroke-width="6" stroke-opacity="1" stroke-miterlimit="4"/></g></g><g fill="#2563eb" fill-opacity="1"><g transform="translate(47.151192, 131.195737)"><g><path d="M 5.84375 0 L 1.1875 0 L 1.1875 -12.765625 L 5.84375 -12.765625 C 7.925781 -12.765625 9.648438 -12.160156 11.015625 -10.953125 C 12.378906 -9.742188 13.0625 -8.210938 13.0625 -6.359375 C 13.0625 -4.523438 12.378906 -3.007812 11.015625 -1.8125 C 9.648438 -0.601562 7.925781 0 5.84375 0 Z M 5.78125 -9.6875 L 4.578125 -9.6875 L 4.578125 -3.09375 L 5.796875 -3.09375 C 6.921875 -3.09375 7.828125 -3.394531 8.515625 -4 C 9.203125 -4.601562 9.546875 -5.398438 9.546875 -6.390625 C 9.546875 -7.378906 9.195312 -8.175781 8.5 -8.78125 C 7.8125 -9.382812 6.90625 -9.6875 5.78125 -9.6875 Z M 5.78125 -9.6875 "/></g></g></g><g fill="#2563eb" fill-opacity="1"><g transform="translate(60.816089, 131.195737)"><g><path d="M 14.03125 0 L 10.40625 0 L 9.515625 -2.40625 L 4.515625 -2.40625 L 3.640625 0 L 0.203125 0 L 5.171875 -12.765625 L 9.046875 -12.765625 Z M 5.578125 -5.3125 L 8.46875 -5.3125 L 7.03125 -9.28125 Z M 5.578125 -5.3125 "/></g></g></g><g fill="#2563eb" fill-opacity="1"><g transform="translate(75.038734, 131.195737)"><g><path d="M 10.484375 -12.765625 L 10.484375 -9.6875 L 6.96875 -9.6875 L 6.96875 0 L 3.6875 0 L 3.6875 -9.6875 L 0.203125 -9.6875 L 0.203125 -12.765625 Z M 10.484375 -12.765625 "/></g></g></g><g fill="#2563eb" fill-opacity="1"><g transform="translate(85.715687, 131.195737)"><g><path d="M 14.03125 0 L 10.40625 0 L 9.515625 -2.40625 L 4.515625 -2.40625 L 3.640625 0 L 0.203125 0 L 5.171875 -12.765625 L 9.046875 -12.765625 Z M 5.578125 -5.3125 L 8.46875 -5.3125 L 7.03125 -9.28125 Z M 5.578125 -5.3125 "/></g></g></g><g fill="#2563eb" fill-opacity="1"><g transform="translate(99.938332, 131.195737)"><g><path d="M 11.9375 -7.703125 L 8.203125 -2.3125 L 4.484375 -7.6875 L 4.484375 0 L 1.1875 0 L 1.1875 -12.765625 L 4.984375 -12.765625 L 8.421875 -7.546875 L 11.875 -12.765625 L 15.21875 -12.765625 L 15.21875 0 L 11.9375 0 Z M 11.9375 -7.703125 "/></g></g></g><g fill="#2563eb" fill-opacity="1"><g transform="translate(116.352152, 131.195737)"><g><path d="M 4.484375 0 L 1.1875 0 L 1.1875 -12.765625 L 4.484375 -12.765625 Z M 4.484375 0 "/></g></g></g><g fill="#2563eb" fill-opacity="1"><g transform="translate(122.029258, 131.195737)"><g><path d="M 12.6875 0 L 9.15625 0 L 4.484375 -7.265625 L 4.484375 0 L 1.1875 0 L 1.1875 -12.765625 L 4.71875 -12.765625 L 9.40625 -5.375 L 9.40625 -12.765625 L 12.6875 -12.765625 Z M 12.6875 0 "/></g></g></g><g fill="#2563eb" fill-opacity="1"><g transform="translate(135.913267, 131.195737)"><g><path d="M 9.6875 0 L 1.1875 0 L 1.1875 -12.765625 L 9.6875 -12.765625 L 9.6875 -9.6875 L 4.484375 -9.6875 L 4.484375 -8.015625 L 8.890625 -8.015625 L 8.890625 -4.921875 L 4.484375 -4.921875 L 4.484375 -3.09375 L 9.6875 -3.09375 Z M 9.6875 0 "/></g></g></g><g fill="#2563eb" fill-opacity="1"><g transform="translate(146.191823, 131.195737)"><g><path d="M 4.484375 0 L 1.1875 0 L 1.1875 -12.765625 L 5.84375 -12.765625 C 7.46875 -12.765625 8.773438 -12.378906 9.765625 -11.609375 C 10.742188 -10.828125 11.234375 -9.804688 11.234375 -8.546875 C 11.234375 -7.722656 11.023438 -6.992188 10.609375 -6.359375 C 10.203125 -5.734375 9.617188 -5.238281 8.859375 -4.875 L 11.546875 0 L 7.75 0 L 5.5625 -4.265625 L 4.484375 -4.265625 Z M 6.09375 -9.875 L 4.484375 -9.875 L 4.484375 -7.15625 L 6.09375 -7.15625 C 6.582031 -7.15625 6.976562 -7.28125 7.28125 -7.53125 C 7.59375 -7.78125 7.75 -8.117188 7.75 -8.546875 C 7.75 -8.941406 7.59375 -9.257812 7.28125 -9.5 C 6.976562 -9.75 6.582031 -9.875 6.09375 -9.875 Z M 6.09375 -9.875 "/></g></g></g><g fill="#2563eb" fill-opacity="1"><g transform="translate(34.91444, 153.614214)"><g><path d="M 2.5625 -11.109375 C 3.863281 -12.410156 5.441406 -13.0625 7.296875 -13.0625 C 9.128906 -13.0625 10.707031 -12.410156 12.03125 -11.109375 C 13.332031 -9.785156 13.984375 -8.207031 13.984375 -6.375 C 13.984375 -4.53125 13.332031 -2.957031 12.03125 -1.65625 C 10.707031 -0.351562 9.128906 0.296875 7.296875 0.296875 C 5.429688 0.296875 3.851562 -0.359375 2.5625 -1.671875 C 1.25 -2.972656 0.59375 -4.546875 0.59375 -6.390625 C 0.59375 -8.234375 1.25 -9.804688 2.5625 -11.109375 Z M 4.125 -6.390625 C 4.125 -5.453125 4.4375 -4.648438 5.0625 -3.984375 C 5.6875 -3.316406 6.429688 -2.984375 7.296875 -2.984375 C 8.171875 -2.984375 8.921875 -3.316406 9.546875 -3.984375 C 10.148438 -4.628906 10.453125 -5.425781 10.453125 -6.375 C 10.453125 -7.332031 10.148438 -8.132812 9.546875 -8.78125 C 8.921875 -9.445312 8.164062 -9.78125 7.28125 -9.78125 C 6.40625 -9.78125 5.664062 -9.457031 5.0625 -8.8125 C 4.4375 -8.144531 4.125 -7.335938 4.125 -6.390625 Z M 4.125 -6.390625 "/></g></g></g><g fill="#2563eb" fill-opacity="1"><g transform="translate(49.495641, 153.614214)"><g><path d="M 6.671875 0 L 1.1875 0 L 1.1875 -12.765625 L 6.421875 -12.765625 C 7.710938 -12.765625 8.785156 -12.425781 9.640625 -11.75 C 10.492188 -11.070312 10.921875 -10.191406 10.921875 -9.109375 C 10.921875 -7.921875 10.296875 -7.050781 9.046875 -6.5 C 9.710938 -6.300781 10.238281 -5.953125 10.625 -5.453125 C 11.007812 -4.960938 11.203125 -4.359375 11.203125 -3.640625 C 11.203125 -2.609375 10.816406 -1.75 10.046875 -1.0625 C 9.253906 -0.351562 8.128906 0 6.671875 0 Z M 6.109375 -9.875 L 4.484375 -9.875 L 4.484375 -7.75 L 6.109375 -7.75 C 6.535156 -7.75 6.867188 -7.84375 7.109375 -8.03125 C 7.359375 -8.226562 7.484375 -8.492188 7.484375 -8.828125 C 7.484375 -9.140625 7.359375 -9.390625 7.109375 -9.578125 C 6.859375 -9.773438 6.523438 -9.875 6.109375 -9.875 Z M 6.375 -5.078125 L 4.484375 -5.078125 L 4.484375 -2.890625 L 6.375 -2.890625 C 6.789062 -2.890625 7.125 -2.988281 7.375 -3.1875 C 7.625 -3.382812 7.75 -3.65625 7.75 -4 C 7.75 -4.332031 7.625 -4.59375 7.375 -4.78125 C 7.132812 -4.976562 6.800781 -5.078125 6.375 -5.078125 Z M 6.375 -5.078125 "/></g></g></g><g fill="#2563eb" fill-opacity="1"><g transform="translate(61.088897, 153.614214)"><g><path d="M 0.203125 -1.640625 L 2.40625 -3.90625 C 2.863281 -3.289062 3.363281 -2.984375 3.90625 -2.984375 C 4.8125 -2.984375 5.265625 -3.550781 5.265625 -4.6875 L 5.265625 -12.765625 L 8.546875 -12.765625 L 8.546875 -4.90625 C 8.546875 -3.226562 8.132812 -1.941406 7.3125 -1.046875 C 6.5 -0.148438 5.394531 0.296875 4 0.296875 C 3.175781 0.296875 2.421875 0.117188 1.734375 -0.234375 C 1.046875 -0.597656 0.535156 -1.066406 0.203125 -1.640625 Z M 0.203125 -1.640625 "/></g></g></g><g fill="#2563eb" fill-opacity="1"><g transform="translate(70.730024, 153.614214)"><g><path d="M 9.6875 0 L 1.1875 0 L 1.1875 -12.765625 L 9.6875 -12.765625 L 9.6875 -9.6875 L 4.484375 -9.6875 L 4.484375 -8.015625 L 8.890625 -8.015625 L 8.890625 -4.921875 L 4.484375 -4.921875 L 4.484375 -3.09375 L 9.6875 -3.09375 Z M 9.6875 0 "/></g></g></g><g fill="#2563eb" fill-opacity="1"><g transform="translate(81.00858, 153.614214)"><g><path d="M 12.109375 -11.171875 L 9.921875 -8.671875 C 9.203125 -9.410156 8.3125 -9.78125 7.25 -9.78125 C 6.375 -9.78125 5.640625 -9.457031 5.046875 -8.8125 C 4.429688 -8.15625 4.125 -7.347656 4.125 -6.390625 C 4.125 -5.453125 4.4375 -4.648438 5.0625 -3.984375 C 5.6875 -3.316406 6.46875 -2.984375 7.40625 -2.984375 C 7.882812 -2.984375 8.351562 -3.082031 8.8125 -3.28125 C 9.269531 -3.476562 9.640625 -3.753906 9.921875 -4.109375 L 12.109375 -1.671875 C 11.023438 -0.359375 9.382812 0.296875 7.1875 0.296875 C 5.3125 0.296875 3.742188 -0.351562 2.484375 -1.65625 C 1.222656 -2.957031 0.59375 -4.535156 0.59375 -6.390625 C 0.59375 -8.234375 1.242188 -9.804688 2.546875 -11.109375 C 3.847656 -12.410156 5.40625 -13.0625 7.21875 -13.0625 C 9.34375 -13.0625 10.972656 -12.429688 12.109375 -11.171875 Z M 12.109375 -11.171875 "/></g></g></g><g fill="#2563eb" fill-opacity="1"><g transform="translate(93.418538, 153.614214)"><g><path d="M 10.484375 -12.765625 L 10.484375 -9.6875 L 6.96875 -9.6875 L 6.96875 0 L 3.6875 0 L 3.6875 -9.6875 L 0.203125 -9.6875 L 0.203125 -12.765625 Z M 10.484375 -12.765625 "/></g></g></g><g fill="#2563eb" fill-opacity="1"><g transform="translate(104.09549, 153.614214)"><g><path d="M 10.671875 -10.734375 L 8.453125 -8.5 C 7.742188 -9.488281 6.8125 -9.984375 5.65625 -9.984375 C 4.84375 -9.984375 4.4375 -9.722656 4.4375 -9.203125 C 4.4375 -8.941406 4.617188 -8.707031 4.984375 -8.5 C 5.347656 -8.300781 5.925781 -8.070312 6.71875 -7.8125 C 7.519531 -7.5625 8.109375 -7.351562 8.484375 -7.1875 C 9.140625 -6.894531 9.664062 -6.457031 10.0625 -5.875 C 10.46875 -5.300781 10.671875 -4.625 10.671875 -3.84375 C 10.671875 -2.632812 10.195312 -1.644531 9.25 -0.875 C 8.28125 -0.09375 7.054688 0.296875 5.578125 0.296875 C 3.128906 0.296875 1.398438 -0.5 0.390625 -2.09375 L 2.734375 -4.28125 C 3.453125 -3.28125 4.421875 -2.78125 5.640625 -2.78125 C 6.648438 -2.78125 7.15625 -3.085938 7.15625 -3.703125 C 7.15625 -3.929688 7.035156 -4.128906 6.796875 -4.296875 C 6.566406 -4.472656 6.269531 -4.625 5.90625 -4.75 C 5.539062 -4.875 5.140625 -5.003906 4.703125 -5.140625 C 4.265625 -5.273438 3.820312 -5.441406 3.375 -5.640625 C 2.925781 -5.847656 2.519531 -6.09375 2.15625 -6.375 C 1.789062 -6.65625 1.492188 -7.03125 1.265625 -7.5 C 1.035156 -7.96875 0.921875 -8.507812 0.921875 -9.125 C 0.921875 -10.269531 1.378906 -11.210938 2.296875 -11.953125 C 3.222656 -12.691406 4.390625 -13.0625 5.796875 -13.0625 C 6.859375 -13.0625 7.8125 -12.851562 8.65625 -12.4375 C 9.507812 -12.03125 10.179688 -11.460938 10.671875 -10.734375 Z M 10.671875 -10.734375 "/></g></g></g><g fill="#2563eb" fill-opacity="1"><g transform="translate(115.27043, 153.614214)"><g/></g></g><g fill="#2563eb" fill-opacity="1"><g transform="translate(120.250345, 153.614214)"><g><path d="M 10.484375 -12.765625 L 10.484375 -9.6875 L 6.96875 -9.6875 L 6.96875 0 L 3.6875 0 L 3.6875 -9.6875 L 0.203125 -9.6875 L 0.203125 -12.765625 Z M 10.484375 -12.765625 "/></g></g></g><g fill="#2563eb" fill-opacity="1"><g transform="translate(130.927298, 153.614214)"><g><path d="M 2.5625 -11.109375 C 3.863281 -12.410156 5.441406 -13.0625 7.296875 -13.0625 C 9.128906 -13.0625 10.707031 -12.410156 12.03125 -11.109375 C 13.332031 -9.785156 13.984375 -8.207031 13.984375 -6.375 C 13.984375 -4.53125 13.332031 -2.957031 12.03125 -1.65625 C 10.707031 -0.351562 9.128906 0.296875 7.296875 0.296875 C 5.429688 0.296875 3.851562 -0.359375 2.5625 -1.671875 C 1.25 -2.972656 0.59375 -4.546875 0.59375 -6.390625 C 0.59375 -8.234375 1.25 -9.804688 2.5625 -11.109375 Z M 4.125 -6.390625 C 4.125 -5.453125 4.4375 -4.648438 5.0625 -3.984375 C 5.6875 -3.316406 6.429688 -2.984375 7.296875 -2.984375 C 8.171875 -2.984375 8.921875 -3.316406 9.546875 -3.984375 C 10.148438 -4.628906 10.453125 -5.425781 10.453125 -6.375 C 10.453125 -7.332031 10.148438 -8.132812 9.546875 -8.78125 C 8.921875 -9.445312 8.164062 -9.78125 7.28125 -9.78125 C 6.40625 -9.78125 5.664062 -9.457031 5.0625 -8.8125 C 4.4375 -8.144531 4.125 -7.335938 4.125 -6.390625 Z M 4.125 -6.390625 "/></g></g></g><g fill="#2563eb" fill-opacity="1"><g transform="translate(145.508499, 153.614214)"><g><path d="M 2.5625 -11.109375 C 3.863281 -12.410156 5.441406 -13.0625 7.296875 -13.0625 C 9.128906 -13.0625 10.707031 -12.410156 12.03125 -11.109375 C 13.332031 -9.785156 13.984375 -8.207031 13.984375 -6.375 C 13.984375 -4.53125 13.332031 -2.957031 12.03125 -1.65625 C 10.707031 -0.351562 9.128906 0.296875 7.296875 0.296875 C 5.429688 0.296875 3.851562 -0.359375 2.5625 -1.671875 C 1.25 -2.972656 0.59375 -4.546875 0.59375 -6.390625 C 0.59375 -8.234375 1.25 -9.804688 2.5625 -11.109375 Z M 4.125 -6.390625 C 4.125 -5.453125 4.4375 -4.648438 5.0625 -3.984375 C 5.6875 -3.316406 6.429688 -2.984375 7.296875 -2.984375 C 8.171875 -2.984375 8.921875 -3.316406 9.546875 -3.984375 C 10.148438 -4.628906 10.453125 -5.425781 10.453125 -6.375 C 10.453125 -7.332031 10.148438 -8.132812 9.546875 -8.78125 C 8.921875 -9.445312 8.164062 -9.78125 7.28125 -9.78125 C 6.40625 -9.78125 5.664062 -9.457031 5.0625 -8.8125 C 4.4375 -8.144531 4.125 -7.335938 4.125 -6.390625 Z M 4.125 -6.390625 "/></g></g></g><g fill="#2563eb" fill-opacity="1"><g transform="translate(160.0897, 153.614214)"><g><path d="M 10.28125 0 L 1.1875 0 L 1.1875 -12.765625 L 4.484375 -12.765625 L 4.484375 -3.09375 L 10.28125 -3.09375 Z M 10.28125 0 "/></g></g></g></svg>