<?xml version="1.0" encoding="UTF-8"?>
<svg id="Layer_1" data-name="Layer 1" xmlns="http://www.w3.org/2000/svg" width="275" height="250" xmlns:xlink="http://www.w3.org/1999/xlink" viewBox="0 0 275 250">
  <defs>
    <clipPath id="clippath">
      <rect y=".1198" width="274.0052" height="249.0938" fill="none"/>
    </clipPath>
    <clipPath id="clippath-1">
      <path d="M11.9583.1198h250.0885c3.1719,0,6.2136,1.2604,8.4531,3.5052,2.2448,2.2396,3.5052,5.2812,3.5052,8.4531v225.1823c0,3.1667-1.2604,6.2083-3.5052,8.4531-2.2396,2.2396-5.2812,3.5-8.4531,3.5H11.9583c-3.1719,0-6.2135-1.2604-8.4583-3.5-2.2396-2.2448-3.5-5.2864-3.5-8.4531V12.0781c0-3.1719,1.2604-6.2136,3.5-8.4531C5.7448,1.3802,8.7865.1198,11.9583.1198Z" fill="none"/>
    </clipPath>
    <clipPath id="clippath-2">
      <rect width="274.6667" height="249.3334" fill="none"/>
    </clipPath>
    <clipPath id="clippath-3">
      <rect y=".1198" width="274.0052" height="249.0938" fill="none"/>
    </clipPath>
    <clipPath id="clippath-4">
      <path d="M11.9583.1198h250.0885c3.1719,0,6.2136,1.2604,8.4531,3.5052,2.2448,2.2396,3.5052,5.2812,3.5052,8.4531v225.1823c0,3.1667-1.2604,6.2083-3.5052,8.4531-2.2396,2.2396-5.2812,3.5-8.4531,3.5H11.9583c-3.1719,0-6.2135-1.2604-8.4583-3.5-2.2396-2.2448-3.5-5.2864-3.5-8.4531V12.0781c0-3.1719,1.2604-6.2136,3.5-8.4531C5.7448,1.3802,8.7865.1198,11.9583.1198Z" fill="none"/>
    </clipPath>
  </defs>
  <g clip-path="url(#clippath)">
    <g clip-path="url(#clippath-1)">
      <g>
        <g clip-path="url(#clippath-2)">
          <g clip-path="url(#clippath-3)">
            <g clip-path="url(#clippath-4)">
              <path d="M0,.1198h274.3906v249.0938H0V.1198Z" fill="#fbfeff"/>
            </g>
          </g>
        </g>
        <path d="M11.9583.1198h250.0887c3.1719,0,6.2136,1.2604,8.4531,3.5052,2.2448,2.2396,3.5052,5.2813,3.5052,8.4531v225.1824c0,3.1667-1.2604,6.2083-3.5052,8.4531-2.2396,2.2396-5.2812,3.5-8.4531,3.5H11.9583c-3.1719,0-6.2135-1.2604-8.4583-3.5-2.2396-2.2448-3.5-5.2865-3.5-8.4531V12.0781c0-3.1719,1.2604-6.2135,3.5-8.4531C5.7448,1.3802,8.7865.1198,11.9583.1198Z" fill="none" stroke="#2563eb" stroke-miterlimit="3.9855" stroke-width="3.9855"/>
      </g>
    </g>
  </g>
  <g>
    <path d="M75.9198,176.1497h-6.058v-16.666h6.058c2.7211,0,4.9745.7888,6.76,2.3657,1.785,1.5776,2.678,3.5796,2.678,6.0063,0,2.3918-.8929,4.3677-2.678,5.9277-1.7855,1.5776-4.0389,2.3662-6.76,2.3662ZM75.8418,163.5135h-1.5601v8.606h1.5861c1.473,0,2.656-.394,3.549-1.1829.8926-.7886,1.339-1.833,1.339-3.1331,0-1.2825-.4509-2.3179-1.3519-3.1069-.9015-.7886-2.089-1.1831-3.562-1.1831Z" fill="#2563eb"/>
    <path d="M89.4915,161.6414c1.6985-1.6982,3.7526-2.5479,6.162-2.5479,2.392,0,4.4546.8496,6.188,2.5479,1.6986,1.7336,2.548,3.7961,2.548,6.1882,0,2.4094-.8494,4.4634-2.548,6.1619-1.7334,1.699-3.796,2.5481-6.188,2.5481-2.4269,0-4.481-.8582-6.162-2.574-1.7161-1.6987-2.574-3.7524-2.574-6.1621s.8579-4.4629,2.574-6.1621ZM91.5194,167.8036c0,1.231.4071,2.2795,1.222,3.146.8146.8672,1.785,1.3,2.912,1.3,1.144,0,2.123-.4329,2.938-1.3.7971-.8491,1.196-1.8892,1.196-3.1199,0-1.248-.3989-2.2966-1.196-3.146-.8149-.8665-1.7939-1.3-2.938-1.3s-2.1149.4248-2.912,1.2739c-.8149.8669-1.222,1.9155-1.222,3.146Z" fill="#2563eb"/>
    <path d="M120.9773,161.5636l-2.86,3.2761c-.936-.9707-2.0974-1.4561-3.484-1.4561-1.144,0-2.106.4248-2.886,1.2739-.7975.8496-1.196,1.8979-1.196,3.146,0,1.231.4071,2.2795,1.222,3.146.8146.8672,1.837,1.3,3.068,1.3.624,0,1.235-.1301,1.833-.3899.598-.2603,1.079-.6152,1.443-1.0659l2.86,3.1719c-1.4215,1.7158-3.562,2.574-6.422,2.574-2.444,0-4.4895-.8491-6.136-2.5481-1.647-1.6985-2.47-3.761-2.47-6.188,0-2.4089.849-4.4629,2.548-6.1621,1.6985-1.6982,3.7266-2.5479,6.084-2.5479,2.7731,0,4.905.8235,6.396,2.47Z" fill="#2563eb"/>
    <path d="M122.797,169.0257v-9.542h4.2899v9.438c0,1.0054.264,1.8115.793,2.418.5286.6069,1.2261.9099,2.093.9099.8491,0,1.5295-.2991,2.041-.897.5111-.5979.767-1.3997.767-2.405v-9.4639h4.29v9.542c0,2.2534-.65,4.0649-1.95,5.4341-1.335,1.3867-3.077,2.0798-5.2261,2.0798-2.132,0-3.8479-.6931-5.1479-2.0798-1.3-1.3691-1.95-3.1807-1.95-5.4341Z" fill="#2563eb"/>
    <path d="M154.0748,166.0877l-4.8619,7.0459-4.8621-7.02v10.0361h-4.2899v-16.666h4.9399l4.498,6.812,4.4979-6.812h4.368v16.666h-4.29v-10.062Z" fill="#2563eb"/>
    <path d="M172.5605,176.1497h-11.0759v-16.666h11.0759v4.0298h-6.786v2.1841h5.746v4.03h-5.746v2.3918h6.786v4.0303Z" fill="#2563eb"/>
    <path d="M189.9023,176.1497h-4.6021l-6.11-9.4902v9.4902h-4.2899v-16.666h4.6019l6.11,9.646v-9.646h4.29v16.666Z" fill="#2563eb"/>
    <path d="M205.1382,159.4837v4.0298h-4.576v12.6362h-4.2899v-12.6362h-4.55v-4.0298h13.416Z" fill="#2563eb"/>
    <path d="M128.2183,206.3196h-4.29v-6.5781h-6.422v6.5781h-4.2899v-16.666h4.2899v6.0579h6.422v-6.0579h4.29v16.666Z" fill="#2563eb"/>
    <path d="M131.2081,199.1955v-9.542h4.2899v9.438c0,1.0054.264,1.8115.793,2.418.5286.6069,1.2261.9099,2.093.9099.8491,0,1.5295-.2991,2.041-.897.5111-.5979.767-1.3997.767-2.405v-9.4639h4.29v9.542c0,2.2534-.65,4.0649-1.95,5.4341-1.335,1.3867-3.077,2.0798-5.2261,2.0798-2.132,0-3.8479-.6931-5.1479-2.0798-1.3-1.3691-1.95-3.1807-1.95-5.4341Z" fill="#2563eb"/>
    <path d="M155.6218,206.3196h-7.1499v-16.666h6.8119c1.6986,0,3.1025.4419,4.212,1.3259,1.1091.884,1.6641,2.0369,1.6641,3.458,0,1.5427-.8149,2.678-2.4441,3.406.8666.26,1.5511.7109,2.0541,1.3521.5024.6414.754,1.4299.754,2.3657,0,1.3521-.5031,2.479-1.5081,3.3801-1.0229.9189-2.4874,1.3782-4.394,1.3782ZM154.8939,193.4236h-2.1321v2.7817h2.1321c.5544,0,.9921-.1255,1.313-.377.3204-.251.481-.5933.481-1.0269,0-.416-.1649-.7495-.494-1.001-.3295-.251-.7629-.377-1.2999-.377ZM155.2318,199.6894h-2.47v2.8601h2.47c.5371,0,.9706-.1301,1.3-.3901.3291-.26.494-.615.494-1.0659,0-.4331-.1605-.7756-.481-1.0271-.321-.251-.7585-.377-1.3131-.377Z" fill="#2563eb"/>
  </g>
  <g>
    <path d="M170.2082,131.0535h-56.6696c-.6538,0-1.1839-.5301-1.1839-1.1839V51.7962c0-.6538.5301-1.1839,1.1839-1.1839h39.1756c.314,0,.6152.1247.8371.3468l17.494,17.4939c.222.222.3467.523.3467.837v60.5795c0,.6538-.53,1.1839-1.1839,1.1839ZM114.7225,128.6857h54.3018v-58.9052l-16.8005-16.8004h-37.5013v75.7056Z" fill="#1e3a8a"/>
    <path d="M161.4612,139.8004h-56.6695c-.6539,0-1.1839-.5301-1.1839-1.1839V60.5432c0-.6538.53-1.1839,1.1839-1.1839h8.7469c.6539,0,1.1839.5301,1.1839,1.1839s-.53,1.1839-1.1839,1.1839h-7.563v75.7056h54.3017v-7.563c0-.6538.53-1.1839,1.1839-1.1839s1.1839.5301,1.1839,1.1839v8.7469c0,.6538-.53,1.1839-1.1839,1.1839Z" fill="#1e3a8a"/>
    <path d="M170.2082,70.474h-17.494c-.6538,0-1.1839-.5301-1.1839-1.1839v-17.4939c0-.4788.2885-.9105.7309-1.0937.4425-.1836.9515-.0821,1.2901.2567l17.494,17.4939c.3386.3386.4399.8476.2567,1.2901s-.615.7309-1.0938.7309ZM153.8982,68.1062h13.4519l-13.4519-13.4518v13.4518Z" fill="#1e3a8a"/>
    <path d="M143.4748,70.474h-19.7524c-.6538,0-1.1839-.5301-1.1839-1.1839s.5301-1.1839,1.1839-1.1839h19.7524c.6538,0,1.1839.5301,1.1839,1.1839s-.5301,1.1839-1.1839,1.1839Z" fill="#2563eb"/>
    <path d="M159.3047,81.138h-35.5823c-.6538,0-1.1839-.5301-1.1839-1.1839s.5301-1.1839,1.1839-1.1839h35.5823c.6539,0,1.1839.5301,1.1839,1.1839s-.53,1.1839-1.1839,1.1839Z" fill="#2563eb"/>
    <path d="M159.3047,92.0168h-35.5823c-.6538,0-1.1839-.5301-1.1839-1.1839s.5301-1.1839,1.1839-1.1839h35.5823c.6539,0,1.1839.5301,1.1839,1.1839s-.53,1.1839-1.1839,1.1839Z" fill="#2563eb"/>
    <path d="M159.3047,104.5327h-35.5823c-.6538,0-1.1839-.5301-1.1839-1.1839s.5301-1.1839,1.1839-1.1839h35.5823c.6539,0,1.1839.5301,1.1839,1.1839s-.53,1.1839-1.1839,1.1839Z" fill="#2563eb"/>
    <path d="M159.3047,117.0485h-35.5823c-.6538,0-1.1839-.5301-1.1839-1.1839s.5301-1.1839,1.1839-1.1839h35.5823c.6539,0,1.1839.5301,1.1839,1.1839s-.53,1.1839-1.1839,1.1839Z" fill="#2563eb"/>
  </g>
</svg>