<svg xmlns="http://www.w3.org/2000/svg" width="24" height="24" viewBox="0 0 24 24" fill="currentColor">
<path fill-rule="evenodd" clip-rule="evenodd" d="M8.84647 16H4.66655C4.29842 16 4 15.7016 4 15.3335V8.66653C4 8.2984 4.29842 7.99998 4.66655 7.99998H6.89935C7.18444 5.32976 9.44458 3.25 12.1905 3.25C14.9532 3.25 17.2243 5.35539 17.4866 8.04926C19.4888 8.68036 20.9405 10.551 20.9405 12.762C20.9405 15.2708 19.0705 17.3428 16.6483 17.6603C16.2407 19.4305 14.6556 20.75 12.7619 20.75C10.5593 20.75 8.7738 18.9645 8.7738 16.7619C8.7738 16.5013 8.79878 16.2466 8.84647 16ZM15.9384 7.82184C15.59 6.07024 14.0444 4.75 12.1905 4.75C10.2742 4.75 8.68729 6.16053 8.41147 7.99998H11.3335C11.7016 7.99998 12 8.2984 12 8.66653V9.86164C12.8867 8.64079 14.3188 7.84163 15.9384 7.82184ZM12 14.3924V15.3335C12 15.7016 11.7016 16 11.3335 16H10.3926C10.3155 16.2402 10.2738 16.4962 10.2738 16.7619C10.2738 18.136 11.3878 19.25 12.7619 19.25C14.0866 19.25 15.17 18.2143 15.2458 16.909C15.2486 16.8604 15.25 16.8114 15.25 16.7619C15.25 15.3878 14.136 14.2738 12.7619 14.2738C12.5318 14.2738 12.3101 14.3048 12.1003 14.3625C12.0666 14.3718 12.0331 14.3818 12 14.3924ZM16.7004 16.1311C16.398 14.2283 14.7498 12.7738 12.7619 12.7738C12.6941 12.7738 12.6266 12.7755 12.5596 12.7789L12.5595 12.762C12.5595 10.8618 14.0999 9.32147 16 9.32147C16.2144 9.32147 16.4236 9.34098 16.626 9.37814C18.2272 9.67206 19.4405 11.0761 19.4405 12.762C19.4405 14.4221 18.2647 15.8076 16.7004 16.1311ZM6.46824 11.4918C6.56753 11.6612 6.70423 11.8057 6.86787 11.9142C7.08025 12.0538 7.306 12.1718 7.54178 12.2666C7.83816 12.3913 8.06255 12.4918 8.21493 12.568C8.347 12.6303 8.46766 12.7144 8.57189 12.8167C8.65569 12.8999 8.70239 13.0133 8.70141 13.1314C8.70519 13.3011 8.6153 13.459 8.4675 13.5424C8.25651 13.6527 8.01935 13.703 7.78178 13.688C7.52508 13.684 7.2703 13.6432 7.0252 13.5668C6.77927 13.4984 6.5472 13.3876 6.33948 13.2392V14.163C6.55679 14.2573 6.78493 14.3244 7.01872 14.3626C7.2956 14.4095 7.576 14.4325 7.85682 14.4312C8.16981 14.436 8.48156 14.3907 8.78026 14.2971C9.03421 14.2185 9.25943 14.067 9.42789 13.8613C9.59689 13.6376 9.68258 13.362 9.67017 13.0819C9.67915 12.8562 9.62647 12.6323 9.51779 12.4342C9.41179 12.2596 9.26581 12.1125 9.09188 12.0053C8.86221 11.8665 8.62107 11.7476 8.37111 11.6499C8.34481 11.6369 8.31755 11.6259 8.28959 11.6171C8.03562 11.5122 7.84514 11.4281 7.71815 11.3649C7.60403 11.3116 7.50072 11.2377 7.41339 11.147C7.33945 11.07 7.29844 10.9673 7.2991 10.8605C7.29944 10.6846 7.4042 10.5256 7.56577 10.4559C7.77503 10.3539 8.00623 10.3049 8.23892 10.3135C8.45957 10.313 8.67947 10.3394 8.89378 10.3919C9.09129 10.4383 9.28027 10.5154 9.45378 10.6205V9.74433C9.05445 9.61434 8.63536 9.55566 8.21568 9.57099C7.89655 9.56756 7.57902 9.61673 7.27586 9.71651C7.00986 9.8005 6.77193 9.9557 6.58786 10.1653C6.41269 10.3746 6.32062 10.641 6.32919 10.9139C6.32409 11.1153 6.37204 11.3146 6.46824 11.4918Z" fill="currentColor"/>
</svg>