<svg
  xmlns="http://www.w3.org/2000/svg"
  viewBox="0 0 781 781"
  width="18"
  height="18"
  fill="currentColor"
>
  <path d="M370.31,270.35c22.11,5.51,38.45,17.77,49.02,36.79l-.17-.31v-83.61l-48.85,47.13Z"/>
  <path d="M315.43,358.75c-11.25,15.57-16.87,36.93-16.87,64.09,0,25.46,5.43,45.08,16.31,58.85,10.86,13.77,25.93,20.64,45.21,20.64s33.24-7.25,44.79-21.77c11.54-14.53,17.31-33.77,17.31-57.72v-21.79c0-18.86-5.53-34.52-16.6-46.96-11.07-12.44-25.46-18.68-43.21-18.68-20.04,0-35.68,7.79-46.94,23.34Z"/>
  <path d="M243.61,310.24c24.61-28.85,56.85-43.29,96.72-43.29,6.29,0,12.26,.38,17.92,1.12L583.36,50.88C526.47,18.5,460.64,0,390.5,0,174.83,0,0,174.83,0,390.5c0,65.17,15.97,126.6,44.19,180.61l162.73-157.02c1.81-42.67,14.04-77.29,36.68-103.85Z"/>
  <path d="M592.32,56.13l-71.4,68.9V758.69c151.54-53.68,260.09-198.26,260.09-368.19,0-141.81-75.59-265.96-188.68-334.37Z"/>
  <path d="M420.47,523.83h-1.14c-20.6,31.32-50.85,46.97-90.72,46.97-36.62,0-66.1-12.78-88.43-38.34-21.85-25.02-33.01-59.78-33.47-104.26L49.12,580.25c66.7,119.75,194.58,200.75,341.38,200.75,42.02,0,82.49-6.64,120.41-18.92v-198.34h-90.45v-39.91Z"/>
</svg>