<svg xmlns="http://www.w3.org/2000/svg" xmlns:xlink="http://www.w3.org/1999/xlink" width="275" zoomAndPan="magnify" viewBox="0 0 206.25 187.499992" height="250" preserveAspectRatio="xMidYMid meet" version="1.0"><defs><g/><clipPath id="46778a7684"><path d="M 0 0.109375 L 205.503906 0.109375 L 205.503906 186.910156 L 0 186.910156 Z M 0 0.109375 " clip-rule="nonzero"/></clipPath><clipPath id="ab8ff5cb44"><path d="M 8.96875 0.835938 L 196.535156 0.835938 C 198.914062 0.835938 201.195312 1.78125 202.875 3.464844 C 204.558594 5.144531 205.503906 7.425781 205.503906 9.804688 L 205.503906 178.691406 C 205.503906 181.070312 204.558594 183.351562 202.875 185.03125 C 201.195312 186.714844 198.914062 187.660156 196.535156 187.660156 L 8.96875 187.660156 C 6.589844 187.660156 4.308594 186.714844 2.625 185.03125 C 0.945312 183.351562 0 181.070312 0 178.691406 L 0 9.804688 C 0 7.425781 0.945312 5.144531 2.625 3.464844 C 4.308594 1.78125 6.589844 0.835938 8.96875 0.835938 Z M 8.96875 0.835938 " clip-rule="nonzero"/></clipPath><clipPath id="d1e61cbd7f"><path d="M 0 0.808594 L 205.503906 0.808594 L 205.503906 186.910156 L 0 186.910156 Z M 0 0.808594 " clip-rule="nonzero"/></clipPath><clipPath id="e0aa51fae9"><path d="M 8.96875 0.835938 L 196.535156 0.835938 C 198.914062 0.835938 201.195312 1.78125 202.875 3.464844 C 204.558594 5.144531 205.503906 7.425781 205.503906 9.804688 L 205.503906 178.691406 C 205.503906 181.070312 204.558594 183.351562 202.875 185.03125 C 201.195312 186.714844 198.914062 187.660156 196.535156 187.660156 L 8.96875 187.660156 C 6.589844 187.660156 4.308594 186.714844 2.625 185.03125 C 0.945312 183.351562 0 181.070312 0 178.691406 L 0 9.804688 C 0 7.425781 0.945312 5.144531 2.625 3.464844 C 4.308594 1.78125 6.589844 0.835938 8.96875 0.835938 Z M 8.96875 0.835938 " clip-rule="nonzero"/></clipPath><clipPath id="555a345f7a"><rect x="0" width="206" y="0" height="187"/></clipPath><clipPath id="eb039d6eb6"><path d="M 0 0.835938 L 205.503906 0.835938 L 205.503906 186.910156 L 0 186.910156 Z M 0 0.835938 " clip-rule="nonzero"/></clipPath><clipPath id="319cff97a1"><path d="M 8.96875 0.835938 L 196.535156 0.835938 C 198.914062 0.835938 201.195312 1.78125 202.875 3.464844 C 204.558594 5.144531 205.503906 7.425781 205.503906 9.804688 L 205.503906 178.691406 C 205.503906 181.070312 204.558594 183.351562 202.875 185.03125 C 201.195312 186.714844 198.914062 187.660156 196.535156 187.660156 L 8.96875 187.660156 C 6.589844 187.660156 4.308594 186.714844 2.625 185.03125 C 0.945312 183.351562 0 181.070312 0 178.691406 L 0 9.804688 C 0 7.425781 0.945312 5.144531 2.625 3.464844 C 4.308594 1.78125 6.589844 0.835938 8.96875 0.835938 Z M 8.96875 0.835938 " clip-rule="nonzero"/></clipPath><clipPath id="5a884bf437"><path d="M 68.191406 60.777344 L 97.269531 60.777344 L 97.269531 87.679688 L 68.191406 87.679688 Z M 68.191406 60.777344 " clip-rule="nonzero"/></clipPath><clipPath id="48b5a3026d"><path d="M 68.195312 60.777344 L 97.265625 60.777344 L 97.265625 70.886719 L 68.195312 70.886719 Z M 68.195312 60.777344 " clip-rule="nonzero"/></clipPath><clipPath id="5b4c0c1e41"><path d="M 108.226562 42.148438 L 137.308594 42.148438 L 137.308594 69.050781 L 108.226562 69.050781 Z M 108.226562 42.148438 " clip-rule="nonzero"/></clipPath><clipPath id="6715026a33"><path d="M 108.234375 42.148438 L 137.304688 42.148438 L 137.304688 52.261719 L 108.234375 52.261719 Z M 108.234375 42.148438 " clip-rule="nonzero"/></clipPath><clipPath id="74bc5941a5"><path d="M 108.226562 79.402344 L 137.308594 79.402344 L 137.308594 106.304688 L 108.226562 106.304688 Z M 108.226562 79.402344 " clip-rule="nonzero"/></clipPath><clipPath id="816ae0933e"><path d="M 108.234375 79.402344 L 137.304688 79.402344 L 137.304688 89.515625 L 108.234375 89.515625 Z M 108.234375 79.402344 " clip-rule="nonzero"/></clipPath></defs><g clip-path="url(#46778a7684)"><g clip-path="url(#ab8ff5cb44)"><g transform="matrix(1, 0, 0, 1, 0, -0.00000000000002498)"><g clip-path="url(#555a345f7a)"><g clip-path="url(#d1e61cbd7f)"><g clip-path="url(#e0aa51fae9)"><path fill="#fbfeff" d="M 0 0.835938 L 205.792969 0.835938 L 205.792969 187.660156 L 0 187.660156 Z M 0 0.835938 " fill-opacity="1" fill-rule="nonzero"/></g></g></g></g></g></g><g clip-path="url(#eb039d6eb6)"><g clip-path="url(#319cff97a1)"><path stroke-linecap="butt" transform="matrix(0.747283, 0, 0, 0.747283, 0, 0.837862)" fill="none" stroke-linejoin="miter" d="M 12.001819 -0.00257593 L 262.999784 -0.00257593 C 266.183193 -0.00257593 269.23592 1.262424 271.483648 3.515379 C 273.736602 5.763106 275.001602 8.815834 275.001602 11.999243 L 275.001602 238.000389 C 275.001602 241.183798 273.736602 244.236525 271.483648 246.484253 C 269.23592 248.737207 266.183193 250.002207 262.999784 250.002207 L 12.001819 250.002207 C 8.818409 250.002207 5.765682 248.737207 3.512727 246.484253 C 1.265 244.236525 0 241.183798 0 238.000389 L 0 11.999243 C 0 8.815834 1.265 5.763106 3.512727 3.515379 C 5.765682 1.262424 8.818409 -0.00257593 12.001819 -0.00257593 Z M 12.001819 -0.00257593 " stroke="#2563eb" stroke-width="4" stroke-opacity="1" stroke-miterlimit="4"/></g></g><g fill="#2563eb" fill-opacity="1"><g transform="translate(41.560588, 141.972011)"><g><path d="M 5.84375 0 L 1.1875 0 L 1.1875 -12.765625 L 5.84375 -12.765625 C 7.925781 -12.765625 9.648438 -12.160156 11.015625 -10.953125 C 12.378906 -9.742188 13.0625 -8.210938 13.0625 -6.359375 C 13.0625 -4.523438 12.378906 -3.007812 11.015625 -1.8125 C 9.648438 -0.601562 7.925781 0 5.84375 0 Z M 5.78125 -9.6875 L 4.578125 -9.6875 L 4.578125 -3.09375 L 5.796875 -3.09375 C 6.921875 -3.09375 7.828125 -3.394531 8.515625 -4 C 9.203125 -4.601562 9.546875 -5.398438 9.546875 -6.390625 C 9.546875 -7.378906 9.195312 -8.175781 8.5 -8.78125 C 7.8125 -9.382812 6.90625 -9.6875 5.78125 -9.6875 Z M 5.78125 -9.6875 "/></g></g></g><g fill="#2563eb" fill-opacity="1"><g transform="translate(55.225485, 141.972011)"><g><path d="M 2.5625 -11.109375 C 3.863281 -12.410156 5.441406 -13.0625 7.296875 -13.0625 C 9.128906 -13.0625 10.707031 -12.410156 12.03125 -11.109375 C 13.332031 -9.785156 13.984375 -8.207031 13.984375 -6.375 C 13.984375 -4.53125 13.332031 -2.957031 12.03125 -1.65625 C 10.707031 -0.351562 9.128906 0.296875 7.296875 0.296875 C 5.429688 0.296875 3.851562 -0.359375 2.5625 -1.671875 C 1.25 -2.972656 0.59375 -4.546875 0.59375 -6.390625 C 0.59375 -8.234375 1.25 -9.804688 2.5625 -11.109375 Z M 4.125 -6.390625 C 4.125 -5.453125 4.4375 -4.648438 5.0625 -3.984375 C 5.6875 -3.316406 6.429688 -2.984375 7.296875 -2.984375 C 8.171875 -2.984375 8.921875 -3.316406 9.546875 -3.984375 C 10.148438 -4.628906 10.453125 -5.425781 10.453125 -6.375 C 10.453125 -7.332031 10.148438 -8.132812 9.546875 -8.78125 C 8.921875 -9.445312 8.164062 -9.78125 7.28125 -9.78125 C 6.40625 -9.78125 5.664062 -9.457031 5.0625 -8.8125 C 4.4375 -8.144531 4.125 -7.335938 4.125 -6.390625 Z M 4.125 -6.390625 "/></g></g></g><g fill="#2563eb" fill-opacity="1"><g transform="translate(69.806686, 141.972011)"><g><path d="M 11.9375 -7.703125 L 8.203125 -2.3125 L 4.484375 -7.6875 L 4.484375 0 L 1.1875 0 L 1.1875 -12.765625 L 4.984375 -12.765625 L 8.421875 -7.546875 L 11.875 -12.765625 L 15.21875 -12.765625 L 15.21875 0 L 11.9375 0 Z M 11.9375 -7.703125 "/></g></g></g><g fill="#2563eb" fill-opacity="1"><g transform="translate(86.220506, 141.972011)"><g/></g></g><g fill="#2563eb" fill-opacity="1"><g transform="translate(91.200421, 141.972011)"><g><path d="M 0.296875 -12.765625 L 3.921875 -12.765625 L 6.90625 -3.5625 L 9.875 -12.765625 L 13.328125 -12.765625 L 8.75 0 L 4.875 0 Z M 0.296875 -12.765625 "/></g></g></g><g fill="#2563eb" fill-opacity="1"><g transform="translate(104.825477, 141.972011)"><g><path d="M 4.484375 0 L 1.1875 0 L 1.1875 -12.765625 L 4.484375 -12.765625 Z M 4.484375 0 "/></g></g></g><g fill="#2563eb" fill-opacity="1"><g transform="translate(110.502583, 141.972011)"><g><path d="M 9.6875 0 L 1.1875 0 L 1.1875 -12.765625 L 9.6875 -12.765625 L 9.6875 -9.6875 L 4.484375 -9.6875 L 4.484375 -8.015625 L 8.890625 -8.015625 L 8.890625 -4.921875 L 4.484375 -4.921875 L 4.484375 -3.09375 L 9.6875 -3.09375 Z M 9.6875 0 "/></g></g></g><g fill="#2563eb" fill-opacity="1"><g transform="translate(120.781139, 141.972011)"><g><path d="M 14.515625 -3.78125 L 16.875 -12.765625 L 20.3125 -12.765625 L 16.328125 0 L 12.1875 0 L 10.28125 -8.6875 L 8.359375 0 L 4.375 0 L 0.390625 -12.765625 L 4.03125 -12.765625 L 6.375 -3.78125 L 8.390625 -12.765625 L 12.515625 -12.765625 Z M 14.515625 -3.78125 "/></g></g></g><g fill="#2563eb" fill-opacity="1"><g transform="translate(141.497603, 141.972011)"><g><path d="M 9.6875 0 L 1.1875 0 L 1.1875 -12.765625 L 9.6875 -12.765625 L 9.6875 -9.6875 L 4.484375 -9.6875 L 4.484375 -8.015625 L 8.890625 -8.015625 L 8.890625 -4.921875 L 4.484375 -4.921875 L 4.484375 -3.09375 L 9.6875 -3.09375 Z M 9.6875 0 "/></g></g></g><g fill="#2563eb" fill-opacity="1"><g transform="translate(151.776159, 141.972011)"><g><path d="M 4.484375 0 L 1.1875 0 L 1.1875 -12.765625 L 5.84375 -12.765625 C 7.46875 -12.765625 8.773438 -12.378906 9.765625 -11.609375 C 10.742188 -10.828125 11.234375 -9.804688 11.234375 -8.546875 C 11.234375 -7.722656 11.023438 -6.992188 10.609375 -6.359375 C 10.203125 -5.734375 9.617188 -5.238281 8.859375 -4.875 L 11.546875 0 L 7.75 0 L 5.5625 -4.265625 L 4.484375 -4.265625 Z M 6.09375 -9.875 L 4.484375 -9.875 L 4.484375 -7.15625 L 6.09375 -7.15625 C 6.582031 -7.15625 6.976562 -7.28125 7.28125 -7.53125 C 7.59375 -7.78125 7.75 -8.117188 7.75 -8.546875 C 7.75 -8.941406 7.59375 -9.257812 7.28125 -9.5 C 6.976562 -9.75 6.582031 -9.875 6.09375 -9.875 Z M 6.09375 -9.875 "/></g></g></g><g clip-path="url(#5a884bf437)"><path stroke-linecap="butt" transform="matrix(0.747283, 0, 0, 0.747283, 68.189485, 60.775665)" fill="none" stroke-linejoin="miter" d="M 0.002571 0.00224658 L 38.914393 0.00224658 L 38.914393 36.310887 L 0.002571 36.310887 Z M 0.002571 0.00224658 " stroke="#00327b" stroke-width="6" stroke-opacity="1" stroke-miterlimit="4"/></g><g clip-path="url(#48b5a3026d)"><path stroke-linecap="butt" transform="matrix(0.747283, 0, 0, 0.747283, 68.194425, 60.775665)" fill="none" stroke-linejoin="miter" d="M 0.00118708 0.00224658 L 38.90255 0.00224658 L 38.90255 13.530428 L 0.00118708 13.530428 Z M 0.00118708 0.00224658 " stroke="#00327b" stroke-width="6" stroke-opacity="1" stroke-miterlimit="4"/></g><g clip-path="url(#5b4c0c1e41)"><path stroke-linecap="butt" transform="matrix(0.747283, 0, 0, 0.747283, 108.228235, 42.148507)" fill="none" stroke-linejoin="miter" d="M -0.00223818 -0.0000932962 L 38.914811 -0.0000932962 L 38.914811 36.313774 L -0.00223818 36.313774 Z M -0.00223818 -0.0000932962 " stroke="#00327b" stroke-width="6" stroke-opacity="1" stroke-miterlimit="4"/></g><g clip-path="url(#6715026a33)"><path stroke-linecap="butt" transform="matrix(0.747283, 0, 0, 0.747283, 108.233175, 42.148507)" fill="none" stroke-linejoin="miter" d="M 0.00160516 -0.0000932962 L 38.902968 -0.0000932962 L 38.902968 13.533315 L 0.00160516 13.533315 Z M 0.00160516 -0.0000932962 " stroke="#00327b" stroke-width="6" stroke-opacity="1" stroke-miterlimit="4"/></g><g clip-path="url(#74bc5941a5)"><path stroke-linecap="butt" transform="matrix(0.747283, 0, 0, 0.747283, 108.228235, 79.40282)" fill="none" stroke-linejoin="miter" d="M -0.00223818 -0.000637619 L 38.914811 -0.000637619 L 38.914811 36.31323 L -0.00223818 36.31323 Z M -0.00223818 -0.000637619 " stroke="#00327b" stroke-width="6" stroke-opacity="1" stroke-miterlimit="4"/></g><g clip-path="url(#816ae0933e)"><path stroke-linecap="butt" transform="matrix(0.747283, 0, 0, 0.747283, 108.233175, 79.40282)" fill="none" stroke-linejoin="miter" d="M 0.00160516 -0.000637619 L 38.902968 -0.000637619 L 38.902968 13.532771 L 0.00160516 13.532771 Z M 0.00160516 -0.000637619 " stroke="#00327b" stroke-width="6" stroke-opacity="1" stroke-miterlimit="4"/></g><path stroke-linecap="butt" transform="matrix(0.747283, 0, 0, 0.747283, 83.911134, 50.221495)" fill="none" stroke-linejoin="miter" d="M -0.00130827 1.501781 L 32.538466 1.501781 " stroke="#00327b" stroke-width="3" stroke-opacity="1" stroke-miterlimit="4"/><path stroke-linecap="butt" transform="matrix(0.747283, 0, 0, 0.747283, 85.119484, 96.231916)" fill="none" stroke-linejoin="miter" d="M 0.00215435 1.498291 L 32.536701 1.498291 " stroke="#00327b" stroke-width="3" stroke-opacity="1" stroke-miterlimit="4"/><path stroke-linecap="butt" transform="matrix(0, -0.747283, 0.747283, 0, 83.910426, 62.435603)" fill="none" stroke-linejoin="miter" d="M -0.00253838 1.499866 L 15.846553 1.499866 " stroke="#00327b" stroke-width="3" stroke-opacity="1" stroke-miterlimit="4"/><path stroke-linecap="butt" transform="matrix(0, -0.747283, 0.747283, 0, 85.118776, 98.099414)" fill="none" stroke-linejoin="miter" d="M 0.0023525 1.498102 L 15.846217 1.498102 " stroke="#00327b" stroke-width="3" stroke-opacity="1" stroke-miterlimit="4"/></svg>