<svg xmlns="http://www.w3.org/2000/svg" xmlns:xlink="http://www.w3.org/1999/xlink" width="275" zoomAndPan="magnify" viewBox="0 0 206.25 187.499992" height="250" preserveAspectRatio="xMidYMid meet" version="1.0"><defs><g/><clipPath id="874c8925bd"><path d="M 0 0.0898438 L 205.503906 0.0898438 L 205.503906 186.910156 L 0 186.910156 Z M 0 0.0898438 " clip-rule="nonzero"/></clipPath><clipPath id="c646ae2641"><path d="M 8.96875 0.0898438 L 196.535156 0.0898438 C 198.914062 0.0898438 201.195312 1.035156 202.875 2.71875 C 204.558594 4.398438 205.503906 6.679688 205.503906 9.058594 L 205.503906 177.945312 C 205.503906 180.320312 204.558594 182.601562 202.875 184.285156 C 201.195312 185.964844 198.914062 186.910156 196.535156 186.910156 L 8.96875 186.910156 C 6.589844 186.910156 4.308594 185.964844 2.625 184.285156 C 0.945312 182.601562 0 180.320312 0 177.945312 L 0 9.058594 C 0 6.679688 0.945312 4.398438 2.625 2.71875 C 4.308594 1.035156 6.589844 0.0898438 8.96875 0.0898438 Z M 8.96875 0.0898438 " clip-rule="nonzero"/></clipPath><clipPath id="0d6e0d133f"><path d="M 94.648438 32.207031 L 111.835938 32.207031 L 111.835938 49.394531 L 94.648438 49.394531 Z M 94.648438 32.207031 " clip-rule="nonzero"/></clipPath><clipPath id="916d5cc639"><path d="M 103.289062 32.207031 C 98.515625 32.207031 94.648438 36.078125 94.648438 40.847656 C 94.648438 45.621094 98.515625 49.488281 103.289062 49.488281 C 108.0625 49.488281 111.929688 45.621094 111.929688 40.847656 C 111.929688 36.078125 108.0625 32.207031 103.289062 32.207031 Z M 103.289062 32.207031 " clip-rule="nonzero"/></clipPath><clipPath id="4371817229"><path d="M 121.210938 80.972656 L 138.398438 80.972656 L 138.398438 98.160156 L 121.210938 98.160156 Z M 121.210938 80.972656 " clip-rule="nonzero"/></clipPath><clipPath id="989b3d1485"><path d="M 129.851562 80.972656 C 125.078125 80.972656 121.210938 84.839844 121.210938 89.613281 C 121.210938 94.382812 125.078125 98.253906 129.851562 98.253906 C 134.625 98.253906 138.492188 94.382812 138.492188 89.613281 C 138.492188 84.839844 134.625 80.972656 129.851562 80.972656 Z M 129.851562 80.972656 " clip-rule="nonzero"/></clipPath><clipPath id="84bece1574"><path d="M 67.003906 80.296875 L 84.191406 80.296875 L 84.191406 97.484375 L 67.003906 97.484375 Z M 67.003906 80.296875 " clip-rule="nonzero"/></clipPath><clipPath id="a7e6606c47"><path d="M 75.644531 80.296875 C 70.871094 80.296875 67.003906 84.167969 67.003906 88.9375 C 67.003906 93.710938 70.871094 97.578125 75.644531 97.578125 C 80.414062 97.578125 84.285156 93.710938 84.285156 88.9375 C 84.285156 84.167969 80.414062 80.296875 75.644531 80.296875 Z M 75.644531 80.296875 " clip-rule="nonzero"/></clipPath></defs><g clip-path="url(#874c8925bd)"><g clip-path="url(#c646ae2641)"><path stroke-linecap="butt" transform="matrix(0.747283, 0, 0, 0.747283, 0, 0.09058)" fill="none" stroke-linejoin="miter" d="M 12.001819 -0.000985185 L 262.999784 -0.000985185 C 266.183193 -0.000985185 269.23592 1.264015 271.483648 3.51697 C 273.736602 5.764697 275.001602 8.817424 275.001602 12.000833 L 275.001602 238.001979 C 275.001602 241.180161 273.736602 244.232889 271.483648 246.485843 C 269.23592 248.733571 266.183193 249.998571 262.999784 249.998571 L 12.001819 249.998571 C 8.818409 249.998571 5.765682 248.733571 3.512727 246.485843 C 1.265 244.232889 0 241.180161 0 238.001979 L 0 12.000833 C 0 8.817424 1.265 5.764697 3.512727 3.51697 C 5.765682 1.264015 8.818409 -0.000985185 12.001819 -0.000985185 Z M 12.001819 -0.000985185 " stroke="#0ab1f0" stroke-width="4" stroke-opacity="1" stroke-miterlimit="4"/></g></g><g fill="#00517d" fill-opacity="1"><g transform="translate(86.011234, 129.11178)"><g><path d="M 1.453125 -12.484375 L 9.625 -12.484375 L 9.625 -10.0625 L 4 -10.0625 L 4 -7.515625 L 9.03125 -7.515625 L 9.03125 -5.09375 L 4 -5.09375 L 4 -2.40625 L 9.65625 -2.40625 L 9.65625 0 L 1.453125 0 Z M 1.453125 -12.484375 "/></g></g></g><g fill="#00517d" fill-opacity="1"><g transform="translate(96.578265, 129.11178)"><g><path d="M 0.234375 -12.484375 L 3.03125 -12.484375 L 6.265625 -3 L 9.515625 -12.484375 L 12.25 -12.484375 L 7.734375 0 L 4.75 0 Z M 0.234375 -12.484375 "/></g></g></g><g fill="#00517d" fill-opacity="1"><g transform="translate(109.073811, 129.11178)"><g><path d="M 3.375 -9.0625 C 3.375 -8.675781 3.539062 -8.375 3.875 -8.15625 C 4.21875 -7.9375 4.722656 -7.726562 5.390625 -7.53125 C 6.316406 -7.269531 7.101562 -6.972656 7.75 -6.640625 C 8.40625 -6.316406 8.898438 -5.914062 9.234375 -5.4375 C 9.578125 -4.957031 9.75 -4.367188 9.75 -3.671875 C 9.75 -2.929688 9.570312 -2.269531 9.21875 -1.6875 C 8.875 -1.113281 8.359375 -0.65625 7.671875 -0.3125 C 6.992188 0.0195312 6.164062 0.1875 5.1875 0.1875 C 4 0.1875 2.976562 -0.078125 2.125 -0.609375 C 1.28125 -1.140625 0.671875 -1.847656 0.296875 -2.734375 L 2.53125 -3.890625 C 2.78125 -3.347656 3.140625 -2.921875 3.609375 -2.609375 C 4.078125 -2.304688 4.628906 -2.15625 5.265625 -2.15625 C 5.828125 -2.15625 6.28125 -2.28125 6.625 -2.53125 C 6.976562 -2.78125 7.15625 -3.09375 7.15625 -3.46875 C 7.15625 -3.71875 7.082031 -3.925781 6.9375 -4.09375 C 6.800781 -4.269531 6.5625 -4.429688 6.21875 -4.578125 C 5.875 -4.734375 5.398438 -4.898438 4.796875 -5.078125 C 4.128906 -5.285156 3.539062 -5.507812 3.03125 -5.75 C 2.519531 -5.988281 2.09375 -6.269531 1.75 -6.59375 C 1.46875 -6.875 1.238281 -7.207031 1.0625 -7.59375 C 0.882812 -7.988281 0.796875 -8.425781 0.796875 -8.90625 C 0.796875 -9.65625 0.992188 -10.3125 1.390625 -10.875 C 1.796875 -11.4375 2.328125 -11.875 2.984375 -12.1875 C 3.640625 -12.507812 4.359375 -12.671875 5.140625 -12.671875 C 6.179688 -12.671875 7.082031 -12.429688 7.84375 -11.953125 C 8.601562 -11.484375 9.164062 -10.828125 9.53125 -9.984375 L 7.390625 -8.8125 C 7.191406 -9.3125 6.878906 -9.691406 6.453125 -9.953125 C 6.035156 -10.210938 5.5625 -10.34375 5.03125 -10.34375 C 4.507812 -10.34375 4.101562 -10.222656 3.8125 -9.984375 C 3.519531 -9.742188 3.375 -9.4375 3.375 -9.0625 Z M 3.375 -9.0625 "/></g></g></g><g fill="#00517d" fill-opacity="1"><g transform="translate(53.294269, 150.782975)"><g><path d="M 0.6875 -6.234375 C 0.6875 -7.140625 0.851562 -7.976562 1.1875 -8.75 C 1.519531 -9.53125 1.984375 -10.210938 2.578125 -10.796875 C 3.171875 -11.390625 3.859375 -11.847656 4.640625 -12.171875 C 5.421875 -12.503906 6.257812 -12.671875 7.15625 -12.671875 C 7.976562 -12.671875 8.765625 -12.523438 9.515625 -12.234375 C 10.273438 -11.953125 10.945312 -11.535156 11.53125 -10.984375 C 12.113281 -10.441406 12.539062 -9.773438 12.8125 -8.984375 L 10.453125 -7.90625 C 10.191406 -8.59375 9.769531 -9.140625 9.1875 -9.546875 C 8.601562 -9.953125 7.921875 -10.15625 7.140625 -10.15625 C 6.421875 -10.15625 5.773438 -9.976562 5.203125 -9.625 C 4.628906 -9.269531 4.175781 -8.796875 3.84375 -8.203125 C 3.519531 -7.617188 3.359375 -6.972656 3.359375 -6.265625 C 3.359375 -5.546875 3.519531 -4.882812 3.84375 -4.28125 C 4.164062 -3.6875 4.613281 -3.210938 5.1875 -2.859375 C 5.757812 -2.503906 6.410156 -2.328125 7.140625 -2.328125 C 7.921875 -2.328125 8.609375 -2.539062 9.203125 -2.96875 C 9.796875 -3.40625 10.222656 -3.960938 10.484375 -4.640625 L 12.859375 -3.53125 C 12.578125 -2.75 12.132812 -2.082031 11.53125 -1.53125 C 10.9375 -0.976562 10.253906 -0.554688 9.484375 -0.265625 C 8.710938 0.0234375 7.921875 0.171875 7.109375 0.171875 C 6.203125 0.171875 5.359375 0.0078125 4.578125 -0.3125 C 3.796875 -0.632812 3.113281 -1.082031 2.53125 -1.65625 C 1.945312 -2.238281 1.492188 -2.921875 1.171875 -3.703125 C 0.847656 -4.484375 0.6875 -5.328125 0.6875 -6.234375 Z M 0.6875 -6.234375 "/></g></g></g><g fill="#00517d" fill-opacity="1"><g transform="translate(66.554851, 150.782975)"><g><path d="M 1.453125 -12.484375 L 9.625 -12.484375 L 9.625 -10.0625 L 4 -10.0625 L 4 -7.515625 L 9.03125 -7.515625 L 9.03125 -5.09375 L 4 -5.09375 L 4 -2.40625 L 9.65625 -2.40625 L 9.65625 0 L 1.453125 0 Z M 1.453125 -12.484375 "/></g></g></g><g fill="#00517d" fill-opacity="1"><g transform="translate(77.121882, 150.782975)"><g><path d="M 11.046875 0 L 8.171875 0 L 5.59375 -4.484375 L 4.03125 -4.484375 L 4.03125 0 L 1.453125 0 L 1.453125 -12.484375 L 6.375 -12.484375 C 7.1875 -12.484375 7.925781 -12.335938 8.59375 -12.046875 C 9.257812 -11.753906 9.789062 -11.3125 10.1875 -10.71875 C 10.59375 -10.132812 10.796875 -9.40625 10.796875 -8.53125 C 10.796875 -6.707031 9.9375 -5.488281 8.21875 -4.875 Z M 6.1875 -6.875 C 6.5 -6.875 6.8125 -6.925781 7.125 -7.03125 C 7.4375 -7.132812 7.6875 -7.300781 7.875 -7.53125 C 8.070312 -7.769531 8.171875 -8.085938 8.171875 -8.484375 C 8.171875 -8.878906 8.070312 -9.1875 7.875 -9.40625 C 7.675781 -9.632812 7.421875 -9.796875 7.109375 -9.890625 C 6.804688 -9.992188 6.492188 -10.046875 6.171875 -10.046875 L 4.03125 -10.046875 L 4.03125 -6.875 Z M 6.1875 -6.875 "/></g></g></g><g fill="#00517d" fill-opacity="1"><g transform="translate(88.77271, 150.782975)"><g><path d="M 1.453125 -12.484375 L 9.625 -12.484375 L 9.625 -10.0625 L 4 -10.0625 L 4 -7.515625 L 9.03125 -7.515625 L 9.03125 -5.09375 L 4 -5.09375 L 4 -2.40625 L 9.65625 -2.40625 L 9.65625 0 L 1.453125 0 Z M 1.453125 -12.484375 "/></g></g></g><g fill="#00517d" fill-opacity="1"><g transform="translate(99.339742, 150.782975)"><g><path d="M 11.15625 -3.4375 C 11.15625 -2.800781 11.023438 -2.265625 10.765625 -1.828125 C 10.515625 -1.390625 10.175781 -1.035156 9.75 -0.765625 C 9.320312 -0.492188 8.84375 -0.296875 8.3125 -0.171875 C 7.789062 -0.0546875 7.253906 0 6.703125 0 L 1.453125 0 L 1.453125 -12.484375 L 6.625 -12.484375 C 7.300781 -12.484375 7.941406 -12.363281 8.546875 -12.125 C 9.160156 -11.882812 9.65625 -11.519531 10.03125 -11.03125 C 10.414062 -10.539062 10.609375 -9.925781 10.609375 -9.1875 C 10.609375 -8.5625 10.453125 -8.03125 10.140625 -7.59375 C 9.828125 -7.15625 9.398438 -6.796875 8.859375 -6.515625 L 8.859375 -6.484375 C 9.609375 -6.210938 10.175781 -5.84375 10.5625 -5.375 C 10.957031 -4.914062 11.15625 -4.269531 11.15625 -3.4375 Z M 8.078125 -8.78125 C 8.078125 -9.132812 7.984375 -9.40625 7.796875 -9.59375 C 7.617188 -9.78125 7.390625 -9.910156 7.109375 -9.984375 C 6.835938 -10.066406 6.5625 -10.109375 6.28125 -10.109375 L 3.96875 -10.109375 L 3.96875 -7.40625 L 6.109375 -7.40625 C 6.410156 -7.40625 6.710938 -7.441406 7.015625 -7.515625 C 7.316406 -7.585938 7.566406 -7.722656 7.765625 -7.921875 C 7.972656 -8.117188 8.078125 -8.40625 8.078125 -8.78125 Z M 8.640625 -3.78125 C 8.640625 -4.164062 8.535156 -4.457031 8.328125 -4.65625 C 8.117188 -4.851562 7.859375 -4.988281 7.546875 -5.0625 C 7.234375 -5.144531 6.914062 -5.1875 6.59375 -5.1875 L 3.96875 -5.1875 L 3.96875 -2.390625 L 6.671875 -2.390625 C 6.984375 -2.390625 7.289062 -2.425781 7.59375 -2.5 C 7.894531 -2.570312 8.144531 -2.707031 8.34375 -2.90625 C 8.539062 -3.113281 8.640625 -3.40625 8.640625 -3.78125 Z M 8.640625 -3.78125 "/></g></g></g><g fill="#00517d" fill-opacity="1"><g transform="translate(111.197767, 150.782975)"><g><path d="M 11.046875 0 L 8.171875 0 L 5.59375 -4.484375 L 4.03125 -4.484375 L 4.03125 0 L 1.453125 0 L 1.453125 -12.484375 L 6.375 -12.484375 C 7.1875 -12.484375 7.925781 -12.335938 8.59375 -12.046875 C 9.257812 -11.753906 9.789062 -11.3125 10.1875 -10.71875 C 10.59375 -10.132812 10.796875 -9.40625 10.796875 -8.53125 C 10.796875 -6.707031 9.9375 -5.488281 8.21875 -4.875 Z M 6.1875 -6.875 C 6.5 -6.875 6.8125 -6.925781 7.125 -7.03125 C 7.4375 -7.132812 7.6875 -7.300781 7.875 -7.53125 C 8.070312 -7.769531 8.171875 -8.085938 8.171875 -8.484375 C 8.171875 -8.878906 8.070312 -9.1875 7.875 -9.40625 C 7.675781 -9.632812 7.421875 -9.796875 7.109375 -9.890625 C 6.804688 -9.992188 6.492188 -10.046875 6.171875 -10.046875 L 4.03125 -10.046875 L 4.03125 -6.875 Z M 6.1875 -6.875 "/></g></g></g><g fill="#00517d" fill-opacity="1"><g transform="translate(122.848595, 150.782975)"><g><path d="M 11.34375 -5.03125 C 11.34375 -3.96875 11.15625 -3.046875 10.78125 -2.265625 C 10.414062 -1.484375 9.859375 -0.878906 9.109375 -0.453125 C 8.367188 -0.0351562 7.4375 0.171875 6.3125 0.171875 C 5.164062 0.171875 4.222656 -0.0390625 3.484375 -0.46875 C 2.742188 -0.90625 2.195312 -1.507812 1.84375 -2.28125 C 1.5 -3.050781 1.328125 -3.9375 1.328125 -4.9375 L 1.328125 -12.484375 L 3.921875 -12.484375 L 3.90625 -5 C 3.90625 -4.082031 4.140625 -3.40625 4.609375 -2.96875 C 5.078125 -2.53125 5.648438 -2.3125 6.328125 -2.3125 C 7.117188 -2.3125 7.726562 -2.550781 8.15625 -3.03125 C 8.582031 -3.519531 8.796875 -4.15625 8.796875 -4.9375 L 8.796875 -12.484375 L 11.34375 -12.484375 Z M 11.34375 -5.03125 "/></g></g></g><g fill="#00517d" fill-opacity="1"><g transform="translate(135.519469, 150.782975)"><g><path d="M 12.65625 -8.234375 L 9.1875 0 L 7.453125 0 L 4 -8.171875 L 3.984375 -8.171875 L 3.984375 0 L 1.453125 0 L 1.453125 -12.484375 L 4.78125 -12.484375 L 8.3125 -4.109375 L 11.796875 -12.484375 L 15.21875 -12.484375 L 15.21875 0 L 12.671875 0 L 12.671875 -8.234375 Z M 12.65625 -8.234375 "/></g></g></g><path stroke-linecap="butt" transform="matrix(0.350214, -0.660137, 0.660137, 0.350214, 78.693832, 80.886892)" fill="none" stroke-linejoin="miter" d="M -0.00246405 1.500635 L 51.886342 1.50015 " stroke="#00517c" stroke-width="3" stroke-opacity="1" stroke-miterlimit="4"/><path stroke-linecap="butt" transform="matrix(0.349676, 0.660423, -0.660423, 0.349676, 109.298528, 46.958092)" fill="none" stroke-linejoin="miter" d="M 0.0025307 1.50028 L 51.888056 1.498131 " stroke="#00517c" stroke-width="3" stroke-opacity="1" stroke-miterlimit="4"/><path stroke-linecap="butt" transform="matrix(0.747283, -0.000000000000000371, 0.000000000000000371, 0.747283, 83.108184, 88.494717)" fill="none" stroke-linejoin="miter" d="M 0.00159358 1.50207 L 51.887505 1.50207 " stroke="#00517c" stroke-width="3" stroke-opacity="1" stroke-miterlimit="4"/><g clip-path="url(#0d6e0d133f)"><g clip-path="url(#916d5cc639)"><path stroke-linecap="butt" transform="matrix(0.747283, 0, 0, 0.747283, 94.648308, 32.208978)" fill="none" stroke-linejoin="miter" d="M 11.562902 -0.00260502 C 5.175174 -0.00260502 0.000173859 5.177622 0.000173859 11.560123 C 0.000173859 17.94785 5.175174 23.12285 11.562902 23.12285 C 17.950629 23.12285 23.125629 17.94785 23.125629 11.560123 C 23.125629 5.177622 17.950629 -0.00260502 11.562902 -0.00260502 Z M 11.562902 -0.00260502 " stroke="#06aeef" stroke-width="6" stroke-opacity="1" stroke-miterlimit="4"/></g></g><g clip-path="url(#4371817229)"><g clip-path="url(#989b3d1485)"><path stroke-linecap="butt" transform="matrix(0.747283, 0, 0, 0.747283, 121.210817, 80.971348)" fill="none" stroke-linejoin="miter" d="M 11.562889 0.0017501 C 5.175161 0.0017501 0.000161086 5.17675 0.000161086 11.564478 C 0.000161086 17.946978 5.175161 23.127206 11.562889 23.127206 C 17.950616 23.127206 23.125617 17.946978 23.125617 11.564478 C 23.125617 5.17675 17.950616 0.0017501 11.562889 0.0017501 Z M 11.562889 0.0017501 " stroke="#06aeef" stroke-width="6" stroke-opacity="1" stroke-miterlimit="4"/></g></g><g clip-path="url(#84bece1574)"><g clip-path="url(#a7e6606c47)"><path stroke-linecap="butt" transform="matrix(0.747283, 0, 0, 0.747283, 67.003312, 80.298136)" fill="none" stroke-linejoin="miter" d="M 11.563523 -0.00168811 C 5.175795 -0.00168811 0.000795227 5.178539 0.000795227 11.56104 C 0.000795227 17.948767 5.175795 23.123767 11.563523 23.123767 C 17.946023 23.123767 23.126251 17.948767 23.126251 11.56104 C 23.126251 5.178539 17.946023 -0.00168811 11.563523 -0.00168811 Z M 11.563523 -0.00168811 " stroke="#06aeef" stroke-width="6" stroke-opacity="1" stroke-miterlimit="4"/></g></g></svg>