<svg xmlns="http://www.w3.org/2000/svg" xmlns:xlink="http://www.w3.org/1999/xlink" width="275" zoomAndPan="magnify" viewBox="0 0 206.25 187.499992" height="250" preserveAspectRatio="xMidYMid meet" version="1.0"><defs><g/><clipPath id="691b9a8b64"><path d="M 0 0.0898438 L 205.503906 0.0898438 L 205.503906 186.910156 L 0 186.910156 Z M 0 0.0898438 " clip-rule="nonzero"/></clipPath><clipPath id="c53d16ff7c"><path d="M 8.96875 0.0898438 L 196.535156 0.0898438 C 198.914062 0.0898438 201.195312 1.035156 202.875 2.71875 C 204.558594 4.398438 205.503906 6.679688 205.503906 9.058594 L 205.503906 177.945312 C 205.503906 180.320312 204.558594 182.601562 202.875 184.285156 C 201.195312 185.964844 198.914062 186.910156 196.535156 186.910156 L 8.96875 186.910156 C 6.589844 186.910156 4.308594 185.964844 2.625 184.285156 C 0.945312 182.601562 0 180.320312 0 177.945312 L 0 9.058594 C 0 6.679688 0.945312 4.398438 2.625 2.71875 C 4.308594 1.035156 6.589844 0.0898438 8.96875 0.0898438 Z M 8.96875 0.0898438 " clip-rule="nonzero"/></clipPath><clipPath id="cac82cb1aa"><path d="M 0 0.0898438 L 205.503906 0.0898438 L 205.503906 186.910156 L 0 186.910156 Z M 0 0.0898438 " clip-rule="nonzero"/></clipPath><clipPath id="28a88ef50c"><path d="M 8.96875 0.0898438 L 196.535156 0.0898438 C 198.914062 0.0898438 201.195312 1.035156 202.875 2.71875 C 204.558594 4.398438 205.503906 6.679688 205.503906 9.058594 L 205.503906 177.945312 C 205.503906 180.320312 204.558594 182.601562 202.875 184.285156 C 201.195312 185.964844 198.914062 186.910156 196.535156 186.910156 L 8.96875 186.910156 C 6.589844 186.910156 4.308594 185.964844 2.625 184.285156 C 0.945312 182.601562 0 180.320312 0 177.945312 L 0 9.058594 C 0 6.679688 0.945312 4.398438 2.625 2.71875 C 4.308594 1.035156 6.589844 0.0898438 8.96875 0.0898438 Z M 8.96875 0.0898438 " clip-rule="nonzero"/></clipPath><clipPath id="4bbf43cd4f"><rect x="0" width="206" y="0" height="187"/></clipPath><clipPath id="b027ac3854"><path d="M 94.648438 37.441406 L 111.835938 37.441406 L 111.835938 54.628906 L 94.648438 54.628906 Z M 94.648438 37.441406 " clip-rule="nonzero"/></clipPath><clipPath id="6f3eb98860"><path d="M 103.289062 37.441406 C 98.515625 37.441406 94.648438 41.308594 94.648438 46.082031 C 94.648438 50.851562 98.515625 54.722656 103.289062 54.722656 C 108.0625 54.722656 111.929688 50.851562 111.929688 46.082031 C 111.929688 41.308594 108.0625 37.441406 103.289062 37.441406 Z M 103.289062 37.441406 " clip-rule="nonzero"/></clipPath><clipPath id="1094f4ce76"><path d="M 121.210938 86.203125 L 138.398438 86.203125 L 138.398438 103.390625 L 121.210938 103.390625 Z M 121.210938 86.203125 " clip-rule="nonzero"/></clipPath><clipPath id="04e80b79e7"><path d="M 129.851562 86.203125 C 125.078125 86.203125 121.210938 90.070312 121.210938 94.84375 C 121.210938 99.613281 125.078125 103.484375 129.851562 103.484375 C 134.625 103.484375 138.492188 99.613281 138.492188 94.84375 C 138.492188 90.070312 134.625 86.203125 129.851562 86.203125 Z M 129.851562 86.203125 " clip-rule="nonzero"/></clipPath><clipPath id="76bd48bb9d"><path d="M 67.003906 85.527344 L 84.191406 85.527344 L 84.191406 102.714844 L 67.003906 102.714844 Z M 67.003906 85.527344 " clip-rule="nonzero"/></clipPath><clipPath id="682d090fab"><path d="M 75.644531 85.527344 C 70.871094 85.527344 67.003906 89.398438 67.003906 94.167969 C 67.003906 98.941406 70.871094 102.808594 75.644531 102.808594 C 80.414062 102.808594 84.285156 98.941406 84.285156 94.167969 C 84.285156 89.398438 80.414062 85.527344 75.644531 85.527344 Z M 75.644531 85.527344 " clip-rule="nonzero"/></clipPath></defs><g clip-path="url(#691b9a8b64)"><g clip-path="url(#c53d16ff7c)"><g transform="matrix(1, 0, 0, 1, 0, -0.000000000000024966)"><g clip-path="url(#4bbf43cd4f)"><g clip-path="url(#cac82cb1aa)"><g clip-path="url(#28a88ef50c)"><path fill="#fbfeff" d="M 0 0.0898438 L 205.792969 0.0898438 L 205.792969 186.910156 L 0 186.910156 Z M 0 0.0898438 " fill-opacity="1" fill-rule="nonzero"/></g></g></g></g><path stroke-linecap="butt" transform="matrix(0.747283, 0, 0, 0.747283, 0, 0.09058)" fill="none" stroke-linejoin="miter" d="M 12.001819 -0.000985185 L 262.999784 -0.000985185 C 266.183193 -0.000985185 269.23592 1.264015 271.483648 3.51697 C 273.736602 5.764697 275.001602 8.817424 275.001602 12.000833 L 275.001602 238.001979 C 275.001602 241.180161 273.736602 244.232889 271.483648 246.485843 C 269.23592 248.733571 266.183193 249.998571 262.999784 249.998571 L 12.001819 249.998571 C 8.818409 249.998571 5.765682 248.733571 3.512727 246.485843 C 1.265 244.232889 0 241.180161 0 238.001979 L 0 12.000833 C 0 8.817424 1.265 5.764697 3.512727 3.51697 C 5.765682 1.264015 8.818409 -0.000985185 12.001819 -0.000985185 Z M 12.001819 -0.000985185 " stroke="#2563eb" stroke-width="4" stroke-opacity="1" stroke-miterlimit="4"/></g></g><path stroke-linecap="butt" transform="matrix(0.350214, -0.660137, 0.660137, 0.350214, 78.693832, 86.11787)" fill="none" stroke-linejoin="miter" d="M -0.001862 1.500315 L 51.886944 1.499831 " stroke="#00517c" stroke-width="3" stroke-opacity="1" stroke-miterlimit="4"/><path stroke-linecap="butt" transform="matrix(0.349676, 0.660423, -0.660423, 0.349676, 109.298528, 52.18907)" fill="none" stroke-linejoin="miter" d="M 0.00192839 1.499961 L 51.887454 1.497812 " stroke="#00517c" stroke-width="3" stroke-opacity="1" stroke-miterlimit="4"/><path stroke-linecap="butt" transform="matrix(0.747283, -0.000000000000000371, 0.000000000000000371, 0.747283, 83.108184, 93.725695)" fill="none" stroke-linejoin="miter" d="M 0.00159358 1.501388 L 51.887505 1.501388 " stroke="#00517c" stroke-width="3" stroke-opacity="1" stroke-miterlimit="4"/><g clip-path="url(#b027ac3854)"><g clip-path="url(#6f3eb98860)"><path stroke-linecap="butt" transform="matrix(0.747283, 0, 0, 0.747283, 94.648308, 37.439956)" fill="none" stroke-linejoin="miter" d="M 11.562902 0.00194073 C 5.175174 0.00194073 0.000173859 5.176941 0.000173859 11.564668 C 0.000173859 17.947169 5.175174 23.127396 11.562902 23.127396 C 17.950629 23.127396 23.125629 17.947169 23.125629 11.564668 C 23.125629 5.176941 17.950629 0.00194073 11.562902 0.00194073 Z M 11.562902 0.00194073 " stroke="#1976fa" stroke-width="6" stroke-opacity="1" stroke-miterlimit="4"/></g></g><g clip-path="url(#1094f4ce76)"><g clip-path="url(#04e80b79e7)"><path stroke-linecap="butt" transform="matrix(0.747283, 0, 0, 0.747283, 121.210817, 86.202326)" fill="none" stroke-linejoin="miter" d="M 11.562889 0.00106858 C 5.175161 0.00106858 0.000161086 5.176069 0.000161086 11.563796 C 0.000161086 17.946297 5.175161 23.126524 11.562889 23.126524 C 17.950616 23.126524 23.125617 17.946297 23.125617 11.563796 C 23.125617 5.176069 17.950616 0.00106858 11.562889 0.00106858 Z M 11.562889 0.00106858 " stroke="#1976fa" stroke-width="6" stroke-opacity="1" stroke-miterlimit="4"/></g></g><g clip-path="url(#76bd48bb9d)"><g clip-path="url(#682d090fab)"><path stroke-linecap="butt" transform="matrix(0.747283, 0, 0, 0.747283, 67.003312, 85.529115)" fill="none" stroke-linejoin="miter" d="M 11.563523 -0.00236964 C 5.175795 -0.00236964 0.000795227 5.177858 0.000795227 11.560358 C 0.000795227 17.948086 5.175795 23.123086 11.563523 23.123086 C 17.946023 23.123086 23.126251 17.948086 23.126251 11.560358 C 23.126251 5.177858 17.946023 -0.00236964 11.563523 -0.00236964 Z M 11.563523 -0.00236964 " stroke="#1976fa" stroke-width="6" stroke-opacity="1" stroke-miterlimit="4"/></g></g><g fill="#2563eb" fill-opacity="1"><g transform="translate(33.508614, 141.972011)"><g><path d="M 9.6875 0 L 1.1875 0 L 1.1875 -12.765625 L 9.6875 -12.765625 L 9.6875 -9.6875 L 4.484375 -9.6875 L 4.484375 -8.015625 L 8.890625 -8.015625 L 8.890625 -4.921875 L 4.484375 -4.921875 L 4.484375 -3.09375 L 9.6875 -3.09375 Z M 9.6875 0 "/></g></g></g><g fill="#2563eb" fill-opacity="1"><g transform="translate(43.78717, 141.972011)"><g><path d="M 0.296875 -12.765625 L 3.921875 -12.765625 L 6.90625 -3.5625 L 9.875 -12.765625 L 13.328125 -12.765625 L 8.75 0 L 4.875 0 Z M 0.296875 -12.765625 "/></g></g></g><g fill="#2563eb" fill-opacity="1"><g transform="translate(57.412226, 141.972011)"><g><path d="M 10.671875 -10.734375 L 8.453125 -8.5 C 7.742188 -9.488281 6.8125 -9.984375 5.65625 -9.984375 C 4.84375 -9.984375 4.4375 -9.722656 4.4375 -9.203125 C 4.4375 -8.941406 4.617188 -8.707031 4.984375 -8.5 C 5.347656 -8.300781 5.925781 -8.070312 6.71875 -7.8125 C 7.519531 -7.5625 8.109375 -7.351562 8.484375 -7.1875 C 9.140625 -6.894531 9.664062 -6.457031 10.0625 -5.875 C 10.46875 -5.300781 10.671875 -4.625 10.671875 -3.84375 C 10.671875 -2.632812 10.195312 -1.644531 9.25 -0.875 C 8.28125 -0.09375 7.054688 0.296875 5.578125 0.296875 C 3.128906 0.296875 1.398438 -0.5 0.390625 -2.09375 L 2.734375 -4.28125 C 3.453125 -3.28125 4.421875 -2.78125 5.640625 -2.78125 C 6.648438 -2.78125 7.15625 -3.085938 7.15625 -3.703125 C 7.15625 -3.929688 7.035156 -4.128906 6.796875 -4.296875 C 6.566406 -4.472656 6.269531 -4.625 5.90625 -4.75 C 5.539062 -4.875 5.140625 -5.003906 4.703125 -5.140625 C 4.265625 -5.273438 3.820312 -5.441406 3.375 -5.640625 C 2.925781 -5.847656 2.519531 -6.09375 2.15625 -6.375 C 1.789062 -6.65625 1.492188 -7.03125 1.265625 -7.5 C 1.035156 -7.96875 0.921875 -8.507812 0.921875 -9.125 C 0.921875 -10.269531 1.378906 -11.210938 2.296875 -11.953125 C 3.222656 -12.691406 4.390625 -13.0625 5.796875 -13.0625 C 6.859375 -13.0625 7.8125 -12.851562 8.65625 -12.4375 C 9.507812 -12.03125 10.179688 -11.460938 10.671875 -10.734375 Z M 10.671875 -10.734375 "/></g></g></g><g fill="#2563eb" fill-opacity="1"><g transform="translate(68.587166, 141.972011)"><g/></g></g><g fill="#2563eb" fill-opacity="1"><g transform="translate(73.567081, 141.972011)"><g><path d="M 12.109375 -11.171875 L 9.921875 -8.671875 C 9.203125 -9.410156 8.3125 -9.78125 7.25 -9.78125 C 6.375 -9.78125 5.640625 -9.457031 5.046875 -8.8125 C 4.429688 -8.15625 4.125 -7.347656 4.125 -6.390625 C 4.125 -5.453125 4.4375 -4.648438 5.0625 -3.984375 C 5.6875 -3.316406 6.46875 -2.984375 7.40625 -2.984375 C 7.882812 -2.984375 8.351562 -3.082031 8.8125 -3.28125 C 9.269531 -3.476562 9.640625 -3.753906 9.921875 -4.109375 L 12.109375 -1.671875 C 11.023438 -0.359375 9.382812 0.296875 7.1875 0.296875 C 5.3125 0.296875 3.742188 -0.351562 2.484375 -1.65625 C 1.222656 -2.957031 0.59375 -4.535156 0.59375 -6.390625 C 0.59375 -8.234375 1.242188 -9.804688 2.546875 -11.109375 C 3.847656 -12.410156 5.40625 -13.0625 7.21875 -13.0625 C 9.34375 -13.0625 10.972656 -12.429688 12.109375 -11.171875 Z M 12.109375 -11.171875 "/></g></g></g><g fill="#2563eb" fill-opacity="1"><g transform="translate(85.977039, 141.972011)"><g><path d="M 9.6875 0 L 1.1875 0 L 1.1875 -12.765625 L 9.6875 -12.765625 L 9.6875 -9.6875 L 4.484375 -9.6875 L 4.484375 -8.015625 L 8.890625 -8.015625 L 8.890625 -4.921875 L 4.484375 -4.921875 L 4.484375 -3.09375 L 9.6875 -3.09375 Z M 9.6875 0 "/></g></g></g><g fill="#2563eb" fill-opacity="1"><g transform="translate(96.255595, 141.972011)"><g><path d="M 4.484375 0 L 1.1875 0 L 1.1875 -12.765625 L 5.84375 -12.765625 C 7.46875 -12.765625 8.773438 -12.378906 9.765625 -11.609375 C 10.742188 -10.828125 11.234375 -9.804688 11.234375 -8.546875 C 11.234375 -7.722656 11.023438 -6.992188 10.609375 -6.359375 C 10.203125 -5.734375 9.617188 -5.238281 8.859375 -4.875 L 11.546875 0 L 7.75 0 L 5.5625 -4.265625 L 4.484375 -4.265625 Z M 6.09375 -9.875 L 4.484375 -9.875 L 4.484375 -7.15625 L 6.09375 -7.15625 C 6.582031 -7.15625 6.976562 -7.28125 7.28125 -7.53125 C 7.59375 -7.78125 7.75 -8.117188 7.75 -8.546875 C 7.75 -8.941406 7.59375 -9.257812 7.28125 -9.5 C 6.976562 -9.75 6.582031 -9.875 6.09375 -9.875 Z M 6.09375 -9.875 "/></g></g></g><g fill="#2563eb" fill-opacity="1"><g transform="translate(108.4066, 141.972011)"><g><path d="M 9.6875 0 L 1.1875 0 L 1.1875 -12.765625 L 9.6875 -12.765625 L 9.6875 -9.6875 L 4.484375 -9.6875 L 4.484375 -8.015625 L 8.890625 -8.015625 L 8.890625 -4.921875 L 4.484375 -4.921875 L 4.484375 -3.09375 L 9.6875 -3.09375 Z M 9.6875 0 "/></g></g></g><g fill="#2563eb" fill-opacity="1"><g transform="translate(118.685156, 141.972011)"><g><path d="M 6.671875 0 L 1.1875 0 L 1.1875 -12.765625 L 6.421875 -12.765625 C 7.710938 -12.765625 8.785156 -12.425781 9.640625 -11.75 C 10.492188 -11.070312 10.921875 -10.191406 10.921875 -9.109375 C 10.921875 -7.921875 10.296875 -7.050781 9.046875 -6.5 C 9.710938 -6.300781 10.238281 -5.953125 10.625 -5.453125 C 11.007812 -4.960938 11.203125 -4.359375 11.203125 -3.640625 C 11.203125 -2.609375 10.816406 -1.75 10.046875 -1.0625 C 9.253906 -0.351562 8.128906 0 6.671875 0 Z M 6.109375 -9.875 L 4.484375 -9.875 L 4.484375 -7.75 L 6.109375 -7.75 C 6.535156 -7.75 6.867188 -7.84375 7.109375 -8.03125 C 7.359375 -8.226562 7.484375 -8.492188 7.484375 -8.828125 C 7.484375 -9.140625 7.359375 -9.390625 7.109375 -9.578125 C 6.859375 -9.773438 6.523438 -9.875 6.109375 -9.875 Z M 6.375 -5.078125 L 4.484375 -5.078125 L 4.484375 -2.890625 L 6.375 -2.890625 C 6.789062 -2.890625 7.125 -2.988281 7.375 -3.1875 C 7.625 -3.382812 7.75 -3.65625 7.75 -4 C 7.75 -4.332031 7.625 -4.59375 7.375 -4.78125 C 7.132812 -4.976562 6.800781 -5.078125 6.375 -5.078125 Z M 6.375 -5.078125 "/></g></g></g><g fill="#2563eb" fill-opacity="1"><g transform="translate(130.278412, 141.972011)"><g><path d="M 4.484375 0 L 1.1875 0 L 1.1875 -12.765625 L 5.84375 -12.765625 C 7.46875 -12.765625 8.773438 -12.378906 9.765625 -11.609375 C 10.742188 -10.828125 11.234375 -9.804688 11.234375 -8.546875 C 11.234375 -7.722656 11.023438 -6.992188 10.609375 -6.359375 C 10.203125 -5.734375 9.617188 -5.238281 8.859375 -4.875 L 11.546875 0 L 7.75 0 L 5.5625 -4.265625 L 4.484375 -4.265625 Z M 6.09375 -9.875 L 4.484375 -9.875 L 4.484375 -7.15625 L 6.09375 -7.15625 C 6.582031 -7.15625 6.976562 -7.28125 7.28125 -7.53125 C 7.59375 -7.78125 7.75 -8.117188 7.75 -8.546875 C 7.75 -8.941406 7.59375 -9.257812 7.28125 -9.5 C 6.976562 -9.75 6.582031 -9.875 6.09375 -9.875 Z M 6.09375 -9.875 "/></g></g></g><g fill="#2563eb" fill-opacity="1"><g transform="translate(142.429417, 141.972011)"><g><path d="M 1.09375 -5.453125 L 1.09375 -12.765625 L 4.375 -12.765625 L 4.375 -5.53125 C 4.375 -4.757812 4.578125 -4.140625 4.984375 -3.671875 C 5.390625 -3.210938 5.925781 -2.984375 6.59375 -2.984375 C 7.238281 -2.984375 7.757812 -3.210938 8.15625 -3.671875 C 8.550781 -4.128906 8.75 -4.742188 8.75 -5.515625 L 8.75 -12.765625 L 12.03125 -12.765625 L 12.03125 -5.453125 C 12.03125 -3.734375 11.53125 -2.347656 10.53125 -1.296875 C 9.507812 -0.234375 8.175781 0.296875 6.53125 0.296875 C 4.894531 0.296875 3.582031 -0.234375 2.59375 -1.296875 C 1.59375 -2.347656 1.09375 -3.734375 1.09375 -5.453125 Z M 1.09375 -5.453125 "/></g></g></g><g fill="#2563eb" fill-opacity="1"><g transform="translate(155.556486, 141.972011)"><g><path d="M 11.9375 -7.703125 L 8.203125 -2.3125 L 4.484375 -7.6875 L 4.484375 0 L 1.1875 0 L 1.1875 -12.765625 L 4.984375 -12.765625 L 8.421875 -7.546875 L 11.875 -12.765625 L 15.21875 -12.765625 L 15.21875 0 L 11.9375 0 Z M 11.9375 -7.703125 "/></g></g></g></svg>