<?xml version="1.0" encoding="UTF-8"?>
<svg id="Layer_1" data-name="Layer 1" xmlns="http://www.w3.org/2000/svg" xmlns:xlink="http://www.w3.org/1999/xlink" viewBox="0 0 275 250">
  <defs>
    <style>
      .cls-1 {
        fill: url(#linear-gradient);
      }

      .cls-1, .cls-2, .cls-3, .cls-4, .cls-5, .cls-6 {
        stroke-width: 0px;
      }

      .cls-7 {
        fill: none;
        stroke: #0ab1f0;
        stroke-linecap: round;
        stroke-linejoin: round;
        stroke-width: 2px;
      }

      .cls-2 {
        fill: #00517d;
      }

      .cls-3 {
        fill: #0078d4;
      }

      .cls-4 {
        fill: url(#linear-gradient-2);
      }

      .cls-5 {
        fill: #fff;
      }

      .cls-6 {
        fill: #1c2128;
      }
    </style>
    <linearGradient id="linear-gradient" x1="166.4" y1="1251.83" x2="173.59" y2="1258.99" gradientTransform="translate(0 -1138)" gradientUnits="userSpaceOnUse">
      <stop offset="0" stop-color="#00aeef"/>
      <stop offset=".86" stop-color="#2892df"/>
    </linearGradient>
    <linearGradient id="linear-gradient-2" x1="181.71" y1="1263.14" x2="192.5" y2="1263.14" gradientTransform="translate(0 -1138)" gradientUnits="userSpaceOnUse">
      <stop offset="0" stop-color="#013f61"/>
      <stop offset="1" stop-color="#00517d"/>
    </linearGradient>
  </defs>
  <g>
    <path class="cls-2" d="M94.61,167.8l-2.16,2.47c-1.16-1-2.49-1.51-3.98-1.51s-2.63.53-3.61,1.59c-1.01,1.06-1.51,2.35-1.51,3.87s.51,2.77,1.53,3.85c1,1.06,2.27,1.59,3.8,1.59s2.82-.5,3.77-1.51l2.16,2.39c-1.46,1.58-3.51,2.37-6.16,2.37-2.41,0-4.44-.85-6.08-2.55-1.65-1.7-2.47-3.74-2.47-6.14s.84-4.48,2.52-6.16c1.66-1.7,3.67-2.55,6.03-2.55,2.58,0,4.64.76,6.16,2.29Z"/>
    <path class="cls-2" d="M98.85,168.06c1.7-1.7,3.73-2.55,6.08-2.55s4.41.85,6.11,2.55c1.68,1.7,2.52,3.75,2.52,6.16s-.84,4.46-2.52,6.14c-1.7,1.7-3.74,2.55-6.11,2.55s-4.39-.85-6.08-2.55c-1.68-1.68-2.52-3.73-2.52-6.14s.84-4.48,2.52-6.16ZM104.94,179.65c1.44,0,2.66-.53,3.67-1.59,1-1.06,1.51-2.34,1.51-3.85s-.5-2.82-1.51-3.87c-1.01-1.06-2.23-1.59-3.67-1.59s-2.63.53-3.64,1.59c-1.01,1.06-1.51,2.35-1.51,3.87s.5,2.77,1.51,3.82c1.02,1.08,2.24,1.61,3.64,1.61Z"/>
    <path class="cls-2" d="M131.19,182.54h-3.51l-7.77-11.28v11.28h-3.25v-16.67h3.51l7.77,11.41v-11.41h3.25v16.67Z"/>
    <path class="cls-2" d="M146.64,165.87v3.04h-4.97v13.62h-3.25v-13.62h-4.94v-3.04h13.16Z"/>
    <path class="cls-2" d="M152.23,182.54h-3.25v-16.67h5.93c1.98,0,3.55.48,4.73,1.43,1.2.97,1.79,2.25,1.79,3.82,0,1.13-.31,2.1-.92,2.92-.62.82-1.48,1.44-2.59,1.86l3.87,6.63h-3.77l-3.41-6.14h-2.39v6.14ZM155.17,168.73h-2.94v4.81h2.94c.85,0,1.53-.22,2.05-.66.52-.44.78-1.03.78-1.75s-.26-1.29-.78-1.73c-.52-.44-1.21-.66-2.05-.66Z"/>
    <path class="cls-2" d="M166.58,168.06c1.7-1.7,3.73-2.55,6.08-2.55s4.41.85,6.11,2.55c1.68,1.7,2.52,3.75,2.52,6.16s-.84,4.46-2.52,6.14c-1.7,1.7-3.74,2.55-6.11,2.55s-4.39-.85-6.08-2.55c-1.68-1.68-2.52-3.73-2.52-6.14s.84-4.48,2.52-6.16ZM172.66,179.65c1.44,0,2.66-.53,3.67-1.59,1-1.06,1.51-2.34,1.51-3.85s-.5-2.82-1.51-3.87c-1.01-1.06-2.23-1.59-3.67-1.59s-2.63.53-3.64,1.59c-1.01,1.06-1.51,2.35-1.51,3.87s.5,2.77,1.51,3.82c1.02,1.08,2.24,1.61,3.64,1.61Z"/>
    <path class="cls-2" d="M195.83,182.54h-11.39v-16.67h3.25v13.6h8.14v3.07Z"/>
    <path class="cls-2" d="M96.26,200.32l-2.24,2.21c-.38-.57-.93-1.04-1.64-1.4-.71-.36-1.46-.55-2.26-.55s-1.37.15-1.81.46-.66.71-.66,1.21c0,.47.22.87.65,1.2s.98.58,1.62.77c.65.18,1.35.42,2.11.7.75.29,1.46.6,2.11.94.65.34,1.19.84,1.62,1.51.43.67.65,1.46.65,2.38,0,1.53-.58,2.76-1.74,3.72-1.18.97-2.72,1.46-4.63,1.46-3.02,0-5.18-1-6.5-2.99l2.31-2.16c1.04,1.39,2.45,2.08,4.24,2.08.9,0,1.6-.17,2.09-.51s.74-.81.74-1.42c0-.35-.11-.66-.32-.94-.22-.28-.54-.52-.98-.74-.43-.22-.85-.4-1.26-.56-.41-.16-.93-.34-1.57-.55-.64-.21-1.15-.39-1.53-.55-.92-.36-1.66-.91-2.24-1.62-.57-.72-.86-1.59-.86-2.61,0-1.4.57-2.56,1.72-3.48,1.11-.9,2.57-1.35,4.37-1.35,1.3,0,2.48.25,3.54.75,1.06.5,1.88,1.19,2.47,2.05Z"/>
    <path class="cls-2" d="M99.15,207.75v-9.88h3.25v9.83c0,1.18.33,2.13.99,2.86.66.73,1.52,1.09,2.6,1.09s1.91-.36,2.56-1.08c.65-.72.97-1.67.97-2.85v-9.85h3.25v9.88c0,2.15-.62,3.87-1.87,5.17-1.27,1.32-2.92,1.98-4.97,1.98s-3.7-.66-4.91-1.98c-1.25-1.3-1.87-3.02-1.87-5.17Z"/>
    <path class="cls-2" d="M119.85,214.54h-3.25v-16.67h5.93c1.98,0,3.55.48,4.73,1.43,1.2.97,1.79,2.25,1.79,3.82,0,1.13-.31,2.1-.92,2.92-.62.82-1.48,1.44-2.59,1.86l3.87,6.63h-3.77l-3.41-6.14h-2.39v6.14ZM122.78,200.73h-2.94v4.81h2.94c.85,0,1.53-.22,2.05-.66.52-.44.78-1.03.78-1.75s-.26-1.29-.78-1.73c-.52-.44-1.21-.66-2.05-.66Z"/>
    <path class="cls-2" d="M135.78,214.54h-3.25v-16.67h10.56v3.07h-7.31v4.03h6.27v3.07h-6.27v6.5Z"/>
    <path class="cls-2" d="M161.65,214.54h-3.61l-1.43-3.74h-7.31l-1.46,3.74h-3.41l6.71-16.67h3.8l6.71,16.67ZM150.4,207.91h5.1l-2.55-6.6-2.55,6.6Z"/>
    <path class="cls-2" d="M177.93,199.8l-2.16,2.47c-1.16-1-2.49-1.51-3.98-1.51s-2.63.53-3.61,1.59c-1.01,1.06-1.51,2.35-1.51,3.87s.51,2.77,1.53,3.85c1,1.06,2.27,1.59,3.8,1.59s2.82-.5,3.77-1.51l2.16,2.39c-1.46,1.58-3.51,2.37-6.16,2.37-2.41,0-4.44-.85-6.08-2.55-1.65-1.7-2.47-3.74-2.47-6.14s.84-4.48,2.52-6.16c1.66-1.7,3.67-2.55,6.03-2.55,2.58,0,4.64.76,6.16,2.29Z"/>
    <path class="cls-2" d="M191.29,214.54h-10.79v-16.67h10.79v3.04h-7.54v3.69h6.5v3.07h-6.5v3.8h7.54v3.07Z"/>
  </g>
  <g>
    <g>
      <path class="cls-6" d="M192.5,85c0,8.5-1.93,16.54-5.37,23.72-2.94-1.93-6.46-3.05-10.24-3.05-10.34,0-18.72,8.39-18.72,18.72,0,3.78,1.12,7.29,3.05,10.24-7.18,3.44-15.23,5.37-23.72,5.37-30.37,0-55-24.62-55-55s24.63-55,55-55,55,24.62,55,55Z"/>
      <g>
        <path class="cls-5" d="M110.76,109.28c-.55,0-1-.45-1-1v-46.57c0-.55.45-1,1-1h53.49c.55,0,1,.45,1,1s-.45,1-1,1h-52.49v45.57c0,.55-.45,1-1,1Z"/>
        <g>
          <path class="cls-5" d="M128.38,77.19h-10.07c-.55,0-1-.45-1-1v-7.55c0-.55.45-1,1-1h10.07c.55,0,1,.45,1,1v7.55c0,.55-.45,1-1,1ZM119.31,75.19h8.07v-5.55h-8.07v5.55Z"/>
          <path class="cls-5" d="M145.05,77.19h-10.07c-.55,0-1-.45-1-1v-7.55c0-.55.45-1,1-1h10.07c.55,0,1,.45,1,1v7.55c0,.55-.45,1-1,1ZM135.98,75.19h8.07v-5.55h-8.07v5.55Z"/>
          <path class="cls-5" d="M161.73,77.19h-10.07c-.55,0-1-.45-1-1v-7.55c0-.55.45-1,1-1h10.07c.55,0,1,.45,1,1v7.55c0,.55-.45,1-1,1ZM152.66,75.19h8.07v-5.55h-8.07v5.55Z"/>
        </g>
        <g>
          <path class="cls-5" d="M128.38,91.98h-10.07c-.55,0-1-.45-1-1v-7.55c0-.55.45-1,1-1h10.07c.55,0,1,.45,1,1v7.55c0,.55-.45,1-1,1ZM119.31,89.98h8.07v-5.55h-8.07v5.55Z"/>
          <path class="cls-5" d="M145.05,91.98h-10.07c-.55,0-1-.45-1-1v-7.55c0-.55.45-1,1-1h10.07c.55,0,1,.45,1,1v7.55c0,.55-.45,1-1,1ZM135.98,89.98h8.07v-5.55h-8.07v5.55Z"/>
          <path class="cls-5" d="M161.73,91.98h-10.07c-.55,0-1-.45-1-1v-7.55c0-.55.45-1,1-1h10.07c.55,0,1,.45,1,1v7.55c0,.55-.45,1-1,1ZM152.66,89.98h8.07v-5.55h-8.07v5.55Z"/>
        </g>
        <g>
          <path class="cls-5" d="M128.38,106.77h-10.07c-.55,0-1-.45-1-1v-7.55c0-.55.45-1,1-1h10.07c.55,0,1,.45,1,1v7.55c0,.55-.45,1-1,1ZM119.31,104.77h8.07v-5.55h-8.07v5.55Z"/>
          <path class="cls-5" d="M161.73,106.77h-10.07c-.55,0-1-.45-1-1v-7.55c0-.55.45-1,1-1h10.07c.55,0,1,.45,1,1v7.55c0,.55-.45,1-1,1ZM152.66,104.77h8.07v-5.55h-8.07v5.55Z"/>
        </g>
      </g>
    </g>
    <g>
      <path class="cls-1" d="M184.96,111.04c-2.35-1.42-5.11-2.25-8.07-2.25-8.62,0-15.6,6.99-15.6,15.6,0,2.75.71,5.34,1.96,7.59l21.7-20.94Z"/>
      <path class="cls-4" d="M181.71,114.18l3.26-3.14c4.52,2.73,7.54,7.69,7.54,13.36,0,6.94-4.53,12.82-10.79,14.85v-25.06Z"/>
      <path class="cls-3" d="M181.71,114.18l-18.45,17.8c2.67,4.78,7.77,8.02,13.64,8.02,1.68,0,3.3-.27,4.81-.76v-25.06Z"/>
      <path class="cls-5" d="M178.04,117.72v3.33h0c-.59-1.06-1.65-1.59-3.16-1.59-1.59,0-2.88.58-3.86,1.73-.98,1.15-1.48,2.69-1.48,4.6s.45,3.26,1.34,4.28c.89,1.02,2.07,1.53,3.53,1.53,1.59,0,2.8-.63,3.62-1.88h.05v1.59h3.61v-17.14l-3.67,3.54h0ZM178.16,125.69c0,.96-.23,1.73-.69,2.31-.46.58-1.06.87-1.79.87-.77,0-1.37-.27-1.81-.82-.43-.55-.65-1.33-.65-2.35,0-1.09.22-1.94.67-2.56.45-.62,1.08-.93,1.88-.93.71,0,1.28.25,1.73.75.44.5.66,1.12.66,1.88v.87Z"/>
    </g>
  </g>
  <rect class="cls-7" x="3.15" y="3.66" width="268.7" height="242.69" rx="5" ry="5"/>
</svg>