<?xml version="1.0" encoding="UTF-8"?>
<svg id="Layer_1" data-name="Layer 1" xmlns="http://www.w3.org/2000/svg" xmlns:xlink="http://www.w3.org/1999/xlink" viewBox="0 0 275 250">
  <defs>
    <style>
      .cls-1 {
        fill: url(#linear-gradient);
      }

      .cls-1, .cls-2, .cls-3, .cls-4, .cls-5, .cls-6 {
        stroke-width: 0px;
      }

      .cls-7 {
        fill: none;
        stroke: #0ab1f0;
        stroke-linecap: round;
        stroke-linejoin: round;
        stroke-width: 2px;
      }

      .cls-2 {
        fill: #00517d;
      }

      .cls-3 {
        fill: #0078d4;
      }

      .cls-4 {
        fill: #13c8f5;
      }

      .cls-5 {
        fill: url(#linear-gradient-2);
      }

      .cls-6 {
        fill: #fff;
      }
    </style>
    <linearGradient id="linear-gradient" x1="166.4" y1="1251.83" x2="173.59" y2="1258.99" gradientTransform="translate(0 -1138)" gradientUnits="userSpaceOnUse">
      <stop offset="0" stop-color="#00aeef"/>
      <stop offset=".86" stop-color="#2892df"/>
    </linearGradient>
    <linearGradient id="linear-gradient-2" x1="181.71" y1="1263.14" x2="192.5" y2="1263.14" gradientTransform="translate(0 -1138)" gradientUnits="userSpaceOnUse">
      <stop offset="0" stop-color="#013f61"/>
      <stop offset="1" stop-color="#00517d"/>
    </linearGradient>
  </defs>
  <g>
    <path class="cls-2" d="M106.12,182.54h-3.25v-16.67h10.56v3.07h-7.31v4.03h6.27v3.07h-6.27v6.5Z"/>
    <path class="cls-2" d="M127.75,182.54h-11.39v-16.67h3.25v13.6h8.14v3.07Z"/>
    <path class="cls-2" d="M131.83,168.06c1.7-1.7,3.73-2.55,6.08-2.55s4.41.85,6.11,2.55c1.68,1.7,2.52,3.75,2.52,6.16s-.84,4.46-2.52,6.14-3.74,2.55-6.11,2.55-4.39-.85-6.08-2.55c-1.68-1.68-2.52-3.73-2.52-6.14s.84-4.48,2.52-6.16ZM137.92,179.65c1.44,0,2.66-.53,3.67-1.59,1-1.06,1.51-2.34,1.51-3.85s-.5-2.82-1.51-3.87c-1.01-1.06-2.23-1.59-3.67-1.59s-2.63.53-3.64,1.59c-1.01,1.06-1.51,2.35-1.51,3.87s.5,2.77,1.51,3.82c1.02,1.08,2.24,1.61,3.64,1.61Z"/>
    <path class="cls-2" d="M166.39,178.77l3.67-12.9h3.41l-5.28,16.67h-4.06l-3.28-12.64-3.28,12.64h-3.93l-5.28-16.67h3.59l3.67,12.9,3.33-12.9h4.08l3.35,12.9Z"/>
    <path class="cls-2" d="M69.22,214.54h-10.79v-16.67h10.79v3.04h-7.54v3.69h6.5v3.07h-6.5v3.8h7.54v3.07Z"/>
    <path class="cls-2" d="M86.7,214.54h-3.51l-7.77-11.28v11.28h-3.25v-16.67h3.51l7.77,11.41v-11.41h3.25v16.67Z"/>
    <path class="cls-2" d="M104.64,205.41v7.67c-1.6,1.21-3.69,1.82-6.29,1.82-2.41,0-4.44-.85-6.08-2.55-1.65-1.7-2.47-3.74-2.47-6.14s.84-4.48,2.52-6.16c1.66-1.7,3.67-2.55,6.03-2.55,2.58,0,4.64.76,6.16,2.29l-2.16,2.47c-1.16-1-2.49-1.51-3.98-1.51s-2.63.53-3.61,1.59c-1.01,1.06-1.51,2.35-1.51,3.87s.51,2.77,1.53,3.85c1,1.06,2.27,1.59,3.8,1.59,1.02,0,1.96-.22,2.81-.65v-4.71l3.25-.88ZM97.62,205.41h7.02l-1.12,2.91h-5.9v-2.91Z"/>
    <path class="cls-2" d="M111.45,214.54h-3.25v-16.67h3.25v16.67Z"/>
    <path class="cls-2" d="M129.91,214.54h-3.51l-7.77-11.28v11.28h-3.25v-16.67h3.51l7.77,11.41v-11.41h3.25v16.67Z"/>
    <path class="cls-2" d="M144.65,214.54h-10.79v-16.67h10.79v3.04h-7.54v3.69h6.5v3.07h-6.5v3.8h7.54v3.07Z"/>
    <path class="cls-2" d="M158.43,214.54h-10.79v-16.67h10.79v3.04h-7.54v3.69h6.5v3.07h-6.5v3.8h7.54v3.07Z"/>
    <path class="cls-2" d="M164.67,214.54h-3.25v-16.67h5.93c1.98,0,3.55.48,4.73,1.43,1.2.97,1.79,2.25,1.79,3.82,0,1.13-.31,2.1-.92,2.92-.62.82-1.48,1.44-2.59,1.86l3.87,6.63h-3.77l-3.41-6.14h-2.39v6.14ZM167.61,200.73h-2.94v4.81h2.94c.85,0,1.53-.22,2.05-.66.52-.44.78-1.03.78-1.75s-.26-1.29-.78-1.73c-.52-.44-1.21-.66-2.05-.66Z"/>
    <path class="cls-2" d="M180.61,214.54h-3.25v-16.67h3.25v16.67Z"/>
    <path class="cls-2" d="M199.07,214.54h-3.51l-7.77-11.28v11.28h-3.25v-16.67h3.51l7.77,11.41v-11.41h3.25v16.67Z"/>
    <path class="cls-2" d="M217.01,205.41v7.67c-1.59,1.21-3.69,1.82-6.29,1.82-2.41,0-4.44-.85-6.08-2.55-1.65-1.7-2.47-3.74-2.47-6.14s.84-4.48,2.52-6.16c1.66-1.7,3.67-2.55,6.03-2.55,2.58,0,4.64.76,6.16,2.29l-2.16,2.47c-1.16-1-2.49-1.51-3.98-1.51s-2.63.53-3.61,1.59c-1.01,1.06-1.51,2.35-1.51,3.87s.51,2.77,1.53,3.85c1,1.06,2.27,1.59,3.8,1.59,1.02,0,1.96-.22,2.81-.65v-4.71l3.25-.88ZM209.99,205.41h7.02l-1.12,2.91h-5.9v-2.91Z"/>
  </g>
  <g>
    <g>
      <path class="cls-4" d="M192.5,85c0,8.5-1.93,16.54-5.37,23.72-2.94-1.93-6.46-3.05-10.24-3.05-10.34,0-18.72,8.39-18.72,18.72,0,3.78,1.12,7.29,3.05,10.24-7.18,3.44-15.23,5.37-23.72,5.37-30.37,0-55-24.62-55-55s24.63-55,55-55,55,24.62,55,55Z"/>
      <g>
        <path class="cls-6" d="M165.29,74.26c0-1.54-.6-2.97-1.69-4.05l-4.87-4.82,4.72-4.68c.39-.39.4-1.02,0-1.41-.39-.39-1.02-.4-1.41,0l-4.74,4.69-4.88-4.83c-2.25-2.23-5.91-2.23-8.16,0l-9.43,9.34-1.38-1.37c-.39-.39-1.03-.39-1.41,0-.39.39-.39,1.03,0,1.41l5.59,5.54-3.69,3.66c-.39.39-.4,1.02,0,1.41.2.2.45.3.71.3s.51-.1.7-.29l3.71-3.67,8.06,7.98-3.69,3.66c-.39.39-.4,1.02,0,1.41.2.2.45.3.71.3s.51-.1.7-.29l3.71-3.67,3.51,3.47s0,0,0,0,0,0,0,0l2.09,2.07c.19.19.45.29.7.29s.51-.1.71-.3c.39-.39.38-1.03,0-1.41l-1.37-1.36,9.42-9.32c1.09-1.08,1.69-2.52,1.69-4.06ZM162.2,76.9l-9.43,9.34-3.51-3.48s0,0,0,0c0,0,0,0,0,0l-12.99-12.86,9.42-9.32c1.48-1.46,3.88-1.46,5.35,0l11.17,11.06c.71.7,1.1,1.63,1.1,2.63,0,1-.39,1.93-1.1,2.63Z"/>
        <path class="cls-6" d="M140.87,99.4s0,0,0,0,0,0,0,0l-20.02-19.82c-.39-.39-1.03-.39-1.41,0-.39.39-.39,1.03,0,1.41l1.37,1.36-9.42,9.32c-1.09,1.08-1.69,2.52-1.69,4.06s.6,2.98,1.69,4.06l4.86,4.82-4.72,4.68c-.39.39-.4,1.02,0,1.41.2.2.45.3.71.3s.51-.1.7-.29l4.74-4.69,4.88,4.83c1.13,1.11,2.6,1.67,4.08,1.67s2.96-.56,4.08-1.67l9.43-9.34,1.38,1.37c.19.19.45.29.7.29s.51-.1.71-.3c.39-.39.38-1.03,0-1.41l-2.08-2.06ZM129.32,109.42c-1.47,1.46-3.87,1.46-5.35,0l-11.17-11.05c-.71-.7-1.1-1.64-1.1-2.63s.39-1.93,1.1-2.63l9.43-9.34,16.5,16.34-9.42,9.32Z"/>
      </g>
    </g>
    <g>
      <path class="cls-1" d="M184.96,111.04c-2.35-1.42-5.11-2.25-8.07-2.25-8.62,0-15.6,6.99-15.6,15.6,0,2.75.71,5.34,1.97,7.59l21.71-20.94Z"/>
      <path class="cls-5" d="M181.71,114.18l3.26-3.14c4.52,2.73,7.54,7.69,7.54,13.36,0,6.94-4.53,12.82-10.79,14.85v-25.06Z"/>
      <path class="cls-3" d="M181.71,114.18l-18.45,17.8c2.67,4.78,7.77,8.02,13.64,8.02,1.68,0,3.3-.27,4.81-.76v-25.06Z"/>
      <path class="cls-6" d="M178.04,117.72v3.33h0c-.59-1.06-1.65-1.59-3.16-1.59-1.59,0-2.88.58-3.86,1.73-.98,1.15-1.48,2.69-1.48,4.6s.45,3.26,1.34,4.28c.89,1.02,2.07,1.53,3.53,1.53,1.59,0,2.8-.63,3.62-1.88h.05v1.59h3.61v-17.14l-3.67,3.54h0ZM178.16,125.69c0,.96-.23,1.73-.69,2.31-.46.58-1.06.87-1.79.87-.77,0-1.37-.27-1.81-.82-.43-.55-.65-1.33-.65-2.35,0-1.09.22-1.94.67-2.56.45-.62,1.08-.93,1.88-.93.71,0,1.28.25,1.73.75.44.5.66,1.12.66,1.88v.87Z"/>
    </g>
  </g>
  <rect class="cls-7" x="3.15" y="4.19" width="268.7" height="242.69" rx="5" ry="5"/>
</svg>