<?xml version="1.0" encoding="UTF-8"?>
<svg id="Layer_1" data-name="Layer 1" xmlns="http://www.w3.org/2000/svg" xmlns:xlink="http://www.w3.org/1999/xlink" viewBox="0 0 275 250">
  <defs>
    <style>
      .cls-1 {
        fill: url(#linear-gradient);
      }

      .cls-1, .cls-2, .cls-3, .cls-4, .cls-5, .cls-6 {
        stroke-width: 0px;
      }

      .cls-7 {
        fill: none;
        stroke: #0ab1f0;
        stroke-linecap: round;
        stroke-linejoin: round;
        stroke-width: 2px;
      }

      .cls-2 {
        fill: #547b7a;
      }

      .cls-3 {
        fill: #00517d;
      }

      .cls-4 {
        fill: #0078d4;
      }

      .cls-5 {
        fill: url(#linear-gradient-2);
      }

      .cls-6 {
        fill: #fff;
      }
    </style>
    <linearGradient id="linear-gradient" x1="166.4" y1="1251.83" x2="173.59" y2="1258.99" gradientTransform="translate(0 -1138)" gradientUnits="userSpaceOnUse">
      <stop offset="0" stop-color="#00aeef"/>
      <stop offset=".86" stop-color="#2892df"/>
    </linearGradient>
    <linearGradient id="linear-gradient-2" x1="181.71" y1="1263.14" x2="192.5" y2="1263.14" gradientTransform="translate(0 -1138)" gradientUnits="userSpaceOnUse">
      <stop offset="0" stop-color="#013f61"/>
      <stop offset="1" stop-color="#00517d"/>
    </linearGradient>
  </defs>
  <g>
    <path class="cls-3" d="M106.12,182.54h-3.25v-16.67h10.56v3.07h-7.31v4.03h6.27v3.07h-6.27v6.5Z"/>
    <path class="cls-3" d="M127.75,182.54h-11.39v-16.67h3.25v13.6h8.14v3.07Z"/>
    <path class="cls-3" d="M131.83,168.06c1.7-1.7,3.73-2.55,6.08-2.55s4.41.85,6.11,2.55c1.68,1.7,2.52,3.75,2.52,6.16s-.84,4.46-2.52,6.14c-1.7,1.7-3.74,2.55-6.11,2.55s-4.38-.85-6.08-2.55c-1.68-1.68-2.52-3.73-2.52-6.14s.84-4.48,2.52-6.16ZM137.92,179.65c1.44,0,2.66-.53,3.67-1.59s1.51-2.34,1.51-3.85-.5-2.82-1.51-3.87c-1-1.06-2.23-1.59-3.67-1.59s-2.63.53-3.64,1.59c-1.01,1.06-1.51,2.35-1.51,3.87s.5,2.77,1.51,3.82c1.02,1.08,2.24,1.61,3.64,1.61Z"/>
    <path class="cls-3" d="M166.39,178.77l3.67-12.9h3.41l-5.28,16.67h-4.06l-3.28-12.64-3.28,12.64h-3.93l-5.28-16.67h3.59l3.67,12.9,3.33-12.9h4.08l3.35,12.9Z"/>
    <path class="cls-3" d="M74.24,202.94l-5.59,8.45-5.56-8.4v11.54h-3.25v-16.67h3.72l5.3,8.27,5.3-8.27h3.33v16.67h-3.25v-11.6Z"/>
    <path class="cls-3" d="M83.13,200.06c1.7-1.7,3.73-2.55,6.08-2.55s4.41.85,6.11,2.55c1.68,1.7,2.52,3.75,2.52,6.16s-.84,4.46-2.52,6.14c-1.7,1.7-3.74,2.55-6.11,2.55s-4.38-.85-6.08-2.55c-1.68-1.68-2.52-3.73-2.52-6.14s.84-4.48,2.52-6.16ZM89.22,211.65c1.44,0,2.66-.53,3.67-1.59s1.51-2.34,1.51-3.85-.5-2.82-1.51-3.87c-1-1.06-2.23-1.59-3.67-1.59s-2.63.53-3.64,1.59c-1.01,1.06-1.51,2.35-1.51,3.87s.5,2.77,1.51,3.82c1.02,1.08,2.24,1.61,3.64,1.61Z"/>
    <path class="cls-3" d="M115.48,214.54h-3.51l-7.77-11.28v11.28h-3.25v-16.67h3.51l7.77,11.41v-11.41h3.25v16.67Z"/>
    <path class="cls-3" d="M122.68,214.54h-3.25v-16.67h3.25v16.67Z"/>
    <path class="cls-3" d="M138.15,197.87v3.04h-4.97v13.62h-3.25v-13.62h-4.94v-3.04h13.16Z"/>
    <path class="cls-3" d="M142.15,200.06c1.7-1.7,3.73-2.55,6.08-2.55s4.41.85,6.11,2.55c1.68,1.7,2.52,3.75,2.52,6.16s-.84,4.46-2.52,6.14c-1.7,1.7-3.74,2.55-6.11,2.55s-4.38-.85-6.08-2.55c-1.68-1.68-2.52-3.73-2.52-6.14s.84-4.48,2.52-6.16ZM148.24,211.65c1.44,0,2.66-.53,3.67-1.59s1.51-2.34,1.51-3.85-.5-2.82-1.51-3.87c-1-1.06-2.23-1.59-3.67-1.59s-2.63.53-3.64,1.59c-1.01,1.06-1.51,2.35-1.51,3.87s.5,2.77,1.51,3.82c1.02,1.08,2.24,1.61,3.64,1.61Z"/>
    <path class="cls-3" d="M163.27,214.54h-3.25v-16.67h5.93c1.98,0,3.55.48,4.73,1.43,1.2.97,1.79,2.25,1.79,3.82,0,1.13-.31,2.1-.92,2.92-.62.82-1.48,1.44-2.59,1.86l3.87,6.63h-3.77l-3.41-6.14h-2.39v6.14ZM166.2,200.73h-2.94v4.81h2.94c.85,0,1.53-.22,2.05-.66.52-.44.78-1.03.78-1.75s-.26-1.29-.78-1.73c-.52-.44-1.21-.66-2.05-.66Z"/>
    <path class="cls-3" d="M179.2,214.54h-3.25v-16.67h3.25v16.67Z"/>
    <path class="cls-3" d="M197.66,214.54h-3.51l-7.77-11.28v11.28h-3.25v-16.67h3.51l7.77,11.41v-11.41h3.25v16.67Z"/>
    <path class="cls-3" d="M215.6,205.41v7.67c-1.6,1.21-3.69,1.82-6.29,1.82-2.41,0-4.44-.85-6.08-2.55-1.65-1.7-2.47-3.74-2.47-6.14s.84-4.48,2.52-6.16c1.66-1.7,3.67-2.55,6.03-2.55,2.58,0,4.64.76,6.16,2.29l-2.16,2.47c-1.16-1-2.49-1.51-3.98-1.51s-2.63.53-3.61,1.59c-1,1.06-1.51,2.35-1.51,3.87s.51,2.77,1.53,3.85c1,1.06,2.27,1.59,3.8,1.59,1.02,0,1.96-.22,2.81-.65v-4.71l3.25-.88ZM208.58,205.41h7.02l-1.12,2.91h-5.9v-2.91Z"/>
  </g>
  <g>
    <g>
      <path class="cls-2" d="M192.5,85c0,8.5-1.93,16.54-5.37,23.72-2.94-1.93-6.46-3.05-10.24-3.05-10.34,0-18.72,8.39-18.72,18.72,0,3.78,1.12,7.29,3.06,10.24-7.18,3.44-15.24,5.37-23.73,5.37-30.37,0-55-24.62-55-55s24.63-55,55-55,55,24.62,55,55Z"/>
      <g>
        <path class="cls-6" d="M149.44,107.4h-10.95v-8.96h5.68c.55,0,1-.45,1-1s-.45-1-1-1h-33.63c-.5,0-.93-.41-.93-.89v-32.08c0-.49.42-.89.93-.89h53.91c.51,0,.93.4.93.89v21.12c0,.55.45,1,1,1s1-.45,1-1v-21.12c0-1.59-1.31-2.89-2.93-2.89h-53.91c-1.61,0-2.93,1.29-2.93,2.89v32.08c0,1.59,1.31,2.89,2.93,2.89h25.96v8.96h-10.95c-.55,0-1,.45-1,1s.45,1,1,1h23.9c.55,0,1-.45,1-1s-.45-1-1-1Z"/>
        <path class="cls-6" d="M172.57,86.17c-.43-.34-1.06-.27-1.4.16l-13.14,16.58-7.21-8.66c-.35-.42-.98-.48-1.41-.13-.42.35-.48.98-.13,1.41l7.99,9.61s.05.03.07.06c.03.03.04.06.07.09.04.03.09.05.14.08.04.02.07.04.1.06.12.05.25.08.38.08,0,0,0,0,0,0,0,0,0,0,0,0,.13,0,.26-.03.38-.09.04-.02.07-.04.11-.06.05-.03.1-.05.15-.08.03-.03.05-.06.07-.09.02-.02.05-.03.07-.05l13.91-17.54c.34-.43.27-1.06-.16-1.4Z"/>
      </g>
    </g>
    <g>
      <path class="cls-1" d="M184.96,111.04c-2.35-1.42-5.11-2.25-8.07-2.25-8.62,0-15.6,6.99-15.6,15.6,0,2.75.71,5.34,1.96,7.59l21.7-20.94Z"/>
      <path class="cls-5" d="M181.71,114.18l3.26-3.14c4.52,2.73,7.54,7.69,7.54,13.36,0,6.94-4.53,12.82-10.79,14.85v-25.06Z"/>
      <path class="cls-4" d="M181.71,114.18l-18.45,17.8c2.67,4.78,7.77,8.02,13.64,8.02,1.68,0,3.3-.27,4.81-.76v-25.06Z"/>
      <path class="cls-6" d="M178.04,117.72v3.33h0c-.59-1.06-1.65-1.59-3.16-1.59-1.59,0-2.88.58-3.86,1.73-.98,1.15-1.48,2.69-1.48,4.6s.45,3.26,1.34,4.28c.89,1.02,2.07,1.53,3.53,1.53,1.59,0,2.8-.63,3.62-1.88h.05v1.59h3.61v-17.14l-3.67,3.54h0ZM178.16,125.69c0,.96-.23,1.73-.69,2.31-.46.58-1.06.87-1.79.87-.77,0-1.37-.27-1.81-.82-.43-.55-.65-1.33-.65-2.35,0-1.09.22-1.94.67-2.56.45-.62,1.08-.93,1.88-.93.71,0,1.28.25,1.73.75.44.5.66,1.12.66,1.88v.87Z"/>
    </g>
  </g>
  <rect class="cls-7" x="3.15" y="3.66" width="268.7" height="242.69" rx="5" ry="5"/>
</svg>