<?xml version="1.0" encoding="UTF-8"?>
<svg id="Layer_1" data-name="Layer 1" xmlns="http://www.w3.org/2000/svg" xmlns:xlink="http://www.w3.org/1999/xlink" viewBox="0 0 275 250">
  <defs>
    <style>
      .cls-1 {
        fill: none;
      }

      .cls-2 {
        fill: url(#linear-gradient-2);
      }

      .cls-3 {
        fill: url(#linear-gradient);
      }

      .cls-4, .cls-5 {
        fill: #2563eb;
      }

      .cls-6 {
        fill: #fff;
      }

      .cls-7 {
        fill: #5a5a86;
      }

      .cls-5 {
        font-family: SkylineSans-Black, 'SkylineSans Black';
        font-size: 26px;
        font-weight: 800;
      }
    </style>
    <linearGradient id="linear-gradient" x1="166.21" y1="6483.14" x2="173.45" y2="6490.35" gradientTransform="translate(0 -6369.72)" gradientUnits="userSpaceOnUse">
      <stop offset="0" stop-color="#60a5fa"/>
      <stop offset=".85" stop-color="#3b82f6"/>
    </linearGradient>
    <linearGradient id="linear-gradient-2" x1="181.63" y1="6494.54" x2="192.5" y2="6494.54" gradientTransform="translate(0 -6369.72)" gradientUnits="userSpaceOnUse">
      <stop offset="0" stop-color="#1d4ed8"/>
      <stop offset=".44" stop-color="#1e52db"/>
      <stop offset=".88" stop-color="#235ee6"/>
      <stop offset="1" stop-color="#2563eb"/>
    </linearGradient>
  </defs>
  <path class="cls-4" d="M266.85,2.66H8.15c-3.31,0-6,2.69-6,6v232.69c0,3.31,2.69,6,6,6h258.7c3.31,0,6-2.69,6-6V8.66c0-3.31-2.69-6-6-6ZM270.85,241.34c0,2.2-1.8,4-4,4H8.15c-2.21,0-4-1.8-4-4V8.66c0-2.21,1.79-4,4-4h258.7c2.2,0,4,1.79,4,4v232.69Z"/>
  <path class="cls-6" d="M270.85,8.66v232.69c0,2.2-1.8,4-4,4H8.15c-2.21,0-4-1.8-4-4V8.66c0-2.21,1.79-4,4-4h258.7c2.2,0,4,1.79,4,4Z"/>
  <text class="cls-5" transform="translate(35.46 182.51)"><tspan x="0" y="0">ORCHESTRATION</tspan><tspan x="56.41" y="32">EVENTS</tspan></text>
  <g>
    <g>
      <path class="cls-7" d="M192.5,85c0,8.49-1.93,16.55-5.37,23.73-2.94-1.93-6.46-3.06-10.23-3.06-4.23,0-8.13,1.41-11.27,3.77-2.31,1.74-4.2,4.01-5.49,6.62h0c-1.25,2.51-1.96,5.34-1.96,8.33,0,3.78,1.12,7.3,3.06,10.24-7.18,3.44-15.24,5.37-23.73,5.37-30.38,0-55-24.62-55-55s24.62-55,55-55,55,24.62,55,55Z"/>
      <g>
        <circle class="cls-6" cx="176.69" cy="123.98" r="11.9"/>
        <g>
          <polygon class="cls-1" points="175.97 119.24 181.63 113.78 184.91 110.61 175.97 119.24 175.97 119.24"/>
          <polygon class="cls-1" points="169.39 125.59 163.05 131.71 169.39 125.59 169.39 125.59"/>
          <path class="cls-3" d="M169.39,125.47c0-1.93.49-3.47,1.49-4.63.99-1.16,2.29-1.74,3.89-1.74.44,0,.85.05,1.21.14l8.93-8.62c-2.37-1.44-5.15-2.26-8.12-2.26-8.68,0-15.72,7.04-15.72,15.72,0,2.77.72,5.38,1.98,7.64l6.34-6.12v-.12Z"/>
          <path class="cls-2" d="M184.91,110.61l-3.28,3.16h0v17.26h0v7.98c6.31-2.04,10.87-7.97,10.87-14.95,0-5.71-3.04-10.7-7.59-13.45Z"/>
          <path class="cls-4" d="M175.65,121.85c-.81,0-1.44.31-1.89.94-.45.63-.68,1.49-.68,2.58,0,1.02.22,1.81.66,2.37.44.55,1.04.83,1.82.83s1.34-.29,1.8-.88.7-1.36.7-2.32v-.88c0-.76-.22-1.39-.67-1.89-.45-.5-1.02-.75-1.74-.75h0Z"/>
          <path class="cls-4" d="M177.99,131.04v-1.61h-.04c-.83,1.26-2.05,1.89-3.65,1.89-1.47,0-2.66-.51-3.56-1.54-.88-1.01-1.33-2.33-1.35-4.19l-6.34,6.12c2.68,4.82,7.83,8.07,13.74,8.07,1.69,0,3.32-.27,4.85-.76h0v-7.98h-3.64Z"/>
          <path class="cls-4" d="M177.94,120.71h0v-3.37h0l3.69-3.56h0l-5.65,5.46c.89.22,1.54.71,1.97,1.48h0Z"/>
          <polygon class="cls-6" points="175.97 119.24 169.39 125.59 169.39 125.59 175.97 119.24 175.97 119.24"/>
          <path class="cls-6" d="M174.76,119.1c-1.6,0-2.9.58-3.89,1.74s-1.49,2.71-1.49,4.63v.12l6.59-6.36c-.36-.09-.77-.14-1.21-.14h0Z"/>
          <path class="cls-6" d="M177.93,117.34v3.36h0c-.42-.75-1.08-1.24-1.97-1.47l-6.59,6.36c.02,1.86.47,3.18,1.35,4.19.9,1.03,2.08,1.54,3.56,1.54,1.6,0,2.82-.63,3.65-1.89h.04v1.61h3.64v-17.26l-3.69,3.56h0ZM178.06,125.37c0,.96-.23,1.74-.7,2.32-.47.58-1.06.88-1.8.88-.77,0-1.38-.28-1.82-.83s-.66-1.34-.66-2.37c0-1.09.23-1.95.68-2.58.45-.63,1.08-.94,1.89-.94.71,0,1.29.25,1.74.75.45.5.67,1.13.67,1.89v.88h0Z"/>
        </g>
      </g>
    </g>
    <g>
      <path class="cls-6" d="M168.51,88.72c-.2-.36-.58-.58-.99-.58h0l-9.38.02c-.44,0-.83.25-1.02.65l-7.67,16.08c-.17.35-.14.77.06,1.1.21.33.57.53.96.53h5.89l-1.71,10.3c-.09.52.2,1.03.68,1.23.14.06.29.09.44.09.35,0,.7-.17.92-.47l11.75-16.08c.25-.35.29-.8.1-1.18-.19-.38-.58-.62-1.01-.62h-5.19l6.15-9.9c.22-.35.23-.79.03-1.15ZM159.32,100.31c-.22.35-.23.79-.03,1.15s.58.58.99.58h4.99l-7.61,10.41,1.15-6.9c.05-.33-.04-.67-.25-.92-.22-.25-.53-.4-.87-.4h-5.43l6.59-13.81h6.62s-6.15,9.88-6.15,9.88Z"/>
      <path class="cls-6" d="M160.39,82.94c.13.61.73,1.01,1.34.88.61-.13,1.01-.73.89-1.34-2.43-11.87-12.99-20.48-25.12-20.48-14.14,0-25.64,11.5-25.64,25.64s11.5,25.64,25.64,25.64c3.52,0,6.93-.7,10.13-2.08.58-.25.84-.92.59-1.49-.25-.58-.92-.84-1.49-.59-2.57,1.11-5.29,1.73-8.1,1.87v-5.37c0-.63-.51-1.14-1.14-1.14s-1.14.51-1.14,1.14v5.37c-11.99-.58-21.63-10.22-22.21-22.21h5.37c.63,0,1.14-.51,1.14-1.14s-.51-1.14-1.14-1.14h-5.37c.58-11.99,10.22-21.63,22.21-22.21v5.37c0,.63.51,1.14,1.14,1.14s1.14-.51,1.14-1.14v-5.37c10.57.52,19.62,8.19,21.76,18.63Z"/>
      <path class="cls-6" d="M149.45,114.73c-3.67,1.58-7.59,2.39-11.64,2.39-16.25,0-29.47-13.22-29.47-29.47,0-7.81,3.03-15.17,8.53-20.73.92-.92,1.88-1.78,2.9-2.57.07-.05.14-.1.2-.15,1.64-1.25,3.39-2.32,5.26-3.2,3.94-1.86,8.17-2.81,12.58-2.81,13.94,0,26.08,9.89,28.87,23.53.13.61.73,1.01,1.34.88.61-.13,1.01-.73.89-1.34-2.93-14.31-15.43-24.79-29.96-25.32v-2.48h7.18c.63,0,1.14-.51,1.14-1.14v-5.29c0-.63-.51-1.14-1.14-1.14h-17.26c-.63,0-1.14.51-1.14,1.14v5.29c0,.63.51,1.14,1.14,1.14h7.81v2.49c-4.01.14-7.88,1.02-11.53,2.61l-2.66-3.8c-.23-.34-.63-.52-1.04-.48-3.95.38-7.44,2.7-9.34,6.2l-.27.5c-.2.38-.17.84.07,1.19l2.69,3.85c-5.5,5.9-8.53,13.54-8.53,21.63,0,17.5,14.24,31.74,31.74,31.74,4.36,0,8.58-.87,12.54-2.57.58-.25.84-.92.59-1.49-.25-.58-.92-.84-1.49-.59ZM130,48.17h14.99v3.02h-14.99v-3.02ZM121.02,56.62l2.04,2.92s-.01,0-.02,0c-.55.29-1.08.6-1.61.91-.13.08-.26.16-.39.24-1.05.66-2.07,1.37-3.04,2.15-.12.09-.24.19-.35.29-.48.4-.95.8-1.41,1.22,0,0,0,0-.01.01l-2.06-2.94c1.44-2.57,3.96-4.34,6.85-4.81Z"/>
      <path class="cls-6" d="M127.5,97.94c.22.22.51.33.8.33s.58-.11.8-.33l6.2-6.2c.65.35,1.4.55,2.19.55,2.56,0,4.64-2.08,4.64-4.64,0-2.17-1.49-3.99-3.51-4.5v-5.55c0-.63-.51-1.14-1.14-1.14s-1.14.51-1.14,1.14v5.55c-2.01.51-3.51,2.33-3.51,4.5,0,.95.29,1.82.77,2.56l-6.12,6.12c-.44.44-.44,1.16,0,1.61ZM137.49,85.28c1.31,0,2.37,1.06,2.37,2.37s-1.06,2.37-2.37,2.37c-.57,0-1.1-.21-1.51-.56,0,0,0,0,0,0,0,0-.02,0-.02-.01-.51-.44-.84-1.07-.84-1.79,0-1.31,1.06-2.37,2.37-2.37Z"/>
    </g>
  </g>
</svg>