<?xml version="1.0" encoding="UTF-8"?>
<svg id="Layer_1" data-name="Layer 1" xmlns="http://www.w3.org/2000/svg" xmlns:xlink="http://www.w3.org/1999/xlink" viewBox="0 0 275 250">
  <defs>
    <style>
      .cls-1 {
        fill: none;
      }

      .cls-2 {
        fill: #bc5729;
      }

      .cls-3 {
        fill: url(#linear-gradient-2);
      }

      .cls-4 {
        fill: url(#linear-gradient);
      }

      .cls-5, .cls-6 {
        fill: #2563eb;
      }

      .cls-7 {
        fill: #fff;
      }

      .cls-6 {
        font-family: SkylineSans-Black, 'SkylineSans Black';
        font-size: 26px;
        font-weight: 800;
      }
    </style>
    <linearGradient id="linear-gradient" x1="166.22" y1="6483.36" x2="173.45" y2="6490.57" gradientTransform="translate(0 -6369.72)" gradientUnits="userSpaceOnUse">
      <stop offset="0" stop-color="#60a5fa"/>
      <stop offset=".85" stop-color="#3b82f6"/>
    </linearGradient>
    <linearGradient id="linear-gradient-2" x1="181.63" y1="6494.75" x2="192.5" y2="6494.75" gradientTransform="translate(0 -6369.72)" gradientUnits="userSpaceOnUse">
      <stop offset="0" stop-color="#1d4ed8"/>
      <stop offset=".44" stop-color="#1e52db"/>
      <stop offset=".88" stop-color="#235ee6"/>
      <stop offset="1" stop-color="#2563eb"/>
    </linearGradient>
  </defs>
  <path class="cls-5" d="M266.85,2.66H8.15c-3.31,0-6,2.69-6,6v232.69c0,3.31,2.69,6,6,6h258.7c3.31,0,6-2.69,6-6V8.66c0-3.31-2.69-6-6-6ZM270.85,241.35c0,2.2-1.8,4-4,4H8.15c-2.21,0-4-1.8-4-4V8.66c0-2.21,1.79-4,4-4h258.7c2.2,0,4,1.79,4,4v232.69Z"/>
  <path class="cls-7" d="M270.85,8.66v232.69c0,2.2-1.8,4-4,4H8.15c-2.21,0-4-1.8-4-4V8.66c0-2.21,1.79-4,4-4h258.7c2.2,0,4,1.79,4,4Z"/>
  <text class="cls-6" transform="translate(74.75 182.51)"><tspan x="0" y="0">RESOURCE</tspan><tspan x="17.78" y="32">STUDIO</tspan></text>
  <g>
    <g>
      <path class="cls-2" d="M192.5,85c0,8.5-1.93,16.55-5.37,23.73-2.94-1.93-6.46-3.06-10.24-3.06-10.34,0-18.72,8.39-18.72,18.72,0,3.78,1.12,7.29,3.06,10.24-7.19,3.44-15.24,5.37-23.73,5.37-30.38,0-55-24.62-55-55s24.62-55,55-55,55,24.62,55,55Z"/>
      <path class="cls-7" d="M168.19,90.8c0-.07-.01-.14-.03-.21,0-.02,0-.05-.02-.07-.03-.09-.06-.17-.11-.26-.05-.08-.11-.16-.17-.22-.02-.02-.04-.03-.05-.05-.05-.05-.11-.09-.17-.13-.01,0-.02-.02-.04-.03l-6.03-3.48v-11.3c0-.42-.22-.81-.59-1.02l-9.98-5.76v-5.69s0-.03,0-.05c0-.07-.01-.14-.03-.21,0-.02,0-.05-.02-.07-.03-.09-.06-.17-.11-.26-.05-.08-.11-.15-.17-.22-.02-.02-.04-.03-.05-.05-.05-.05-.11-.09-.17-.13-.01,0-.02-.02-.04-.03l-12.19-7.04c-.36-.21-.81-.21-1.18,0l-12.19,7.04s-.02.02-.04.03c-.06.04-.12.08-.17.13-.02.02-.04.03-.05.05-.06.07-.12.14-.17.22-.05.08-.08.17-.11.26,0,.02-.01.05-.02.07-.02.07-.03.14-.03.21,0,.02,0,.03,0,.05v5.69l-9.98,5.76c-.36.21-.59.6-.59,1.02v11.12l-6.33,3.66s-.02.02-.04.03c-.06.04-.12.08-.17.13-.02.02-.04.03-.05.05-.06.07-.12.14-.17.22-.05.08-.08.17-.11.26,0,.02-.01.05-.02.07-.02.07-.03.14-.03.21,0,.02,0,.03,0,.05v14.07c0,.42.22.81.59,1.02l12.19,7.04s.03.01.04.02c.06.03.13.06.2.08.02,0,.05.02.07.02.09.02.18.04.28.04s.19-.01.28-.04c.02,0,.05-.01.07-.02.07-.02.14-.05.2-.08.01,0,.03,0,.04-.02l5.99-3.46,10.32,5.96c.18.11.39.16.59.16s.41-.05.59-.16l10.17-5.87,5.84,3.37s.03.01.04.02c.06.03.13.06.2.08.02,0,.05.02.07.02.09.02.18.04.28.04s.19-.01.28-.04c.02,0,.05-.01.07-.02.07-.02.13-.05.2-.08.01,0,.03,0,.04-.02l12.19-7.04c.36-.21.59-.6.59-1.02v-14.07s0-.03,0-.05ZM143.83,104.24v-11.35l9.83,5.67v11.35l-9.83-5.67ZM154.84,96.52l-9.83-5.67,9.83-5.67,9.83,5.67-9.83,5.67ZM126.65,75.97v-11.35l9.83,5.67v11.35l-9.83-5.67ZM138.83,70.29l9.83-5.67v11.35l-9.83,5.67v-11.35ZM137.65,56.9l9.83,5.67-9.83,5.67-9.83-5.67,9.83-5.67ZM121.34,109.91v-11.35l9.83-5.67v11.35l-9.83,5.67ZM120.16,96.52l-9.83-5.67,9.83-5.67,9.83,5.67-9.83,5.67ZM109.16,92.89l9.83,5.67v11.35l-9.83-5.67v-11.35ZM137.65,113.1l-8.55-4.94,3.84-2.22c.36-.21.59-.6.59-1.02v-14.07s0-.03,0-.05c0-.07-.01-.14-.03-.21,0-.02,0-.05-.02-.07-.03-.09-.06-.17-.11-.26s-.11-.16-.17-.22c-.02-.02-.04-.03-.05-.05-.05-.05-.11-.09-.17-.13-.01,0-.02-.02-.04-.03l-12.19-7.04c-.36-.21-.81-.21-1.18,0l-3.5,2.02v-9.08l8.21-4.74v5.66c0,.42.22.81.59,1.02l12.19,7.04s.03.01.04.02c.06.03.13.06.2.08.02,0,.05.02.07.02.09.02.18.04.28.04s.19-.01.28-.04c.02,0,.05-.01.07-.02.07-.02.14-.05.2-.08.01,0,.03,0,.04-.02l12.19-7.04c.36-.21.59-.6.59-1.02v-5.66l8.21,4.74v9.26l-3.8-2.2c-.36-.21-.81-.21-1.18,0l-12.19,7.04s-.02.02-.04.03c-.06.04-.12.08-.17.13-.02.02-.04.03-.05.05-.06.07-.12.14-.17.22s-.08.17-.11.26c0,.02-.01.05-.02.07-.02.07-.03.14-.03.21,0,.02,0,.03,0,.05v14.07c0,.42.22.81.59,1.02l3.99,2.3-8.4,4.85ZM156.01,109.91v-11.35l9.83-5.67v11.35l-9.83,5.67Z"/>
    </g>
    <g>
      <circle class="cls-7" cx="176.69" cy="124.2" r="11.9"/>
      <g>
        <polygon class="cls-1" points="175.98 119.45 181.63 114 184.91 110.83 175.98 119.45 175.98 119.45"/>
        <polygon class="cls-1" points="169.39 125.81 163.05 131.92 169.39 125.81 169.39 125.81"/>
        <path class="cls-4" d="M169.39,125.69c0-1.93.49-3.47,1.49-4.63.99-1.16,2.29-1.74,3.89-1.74.44,0,.85.05,1.21.14l8.93-8.62c-2.37-1.44-5.15-2.26-8.12-2.26-8.68,0-15.72,7.04-15.72,15.72,0,2.77.72,5.38,1.98,7.64l6.34-6.12v-.12Z"/>
        <path class="cls-3" d="M184.91,110.83l-3.28,3.16h0v17.26h0v7.98c6.31-2.04,10.87-7.97,10.87-14.95,0-5.71-3.04-10.7-7.59-13.45Z"/>
        <path class="cls-5" d="M175.65,122.07c-.81,0-1.44.31-1.89.94-.45.63-.68,1.49-.68,2.58,0,1.02.22,1.81.66,2.37.44.55,1.04.83,1.82.83s1.34-.29,1.8-.88.7-1.36.7-2.32v-.88c0-.76-.22-1.39-.67-1.89-.45-.5-1.02-.75-1.74-.75h0Z"/>
        <path class="cls-5" d="M177.99,131.26v-1.61h-.04c-.83,1.26-2.05,1.89-3.65,1.89-1.47,0-2.66-.51-3.56-1.54-.88-1.01-1.33-2.33-1.35-4.19l-6.34,6.12c2.68,4.82,7.83,8.07,13.74,8.07,1.69,0,3.32-.27,4.85-.76h0v-7.98h-3.64Z"/>
        <path class="cls-5" d="M177.95,120.93h0v-3.37h0l3.69-3.56h0l-5.65,5.46c.89.22,1.54.71,1.97,1.48h0Z"/>
        <polygon class="cls-7" points="175.98 119.45 169.39 125.81 169.39 125.81 175.98 119.45 175.98 119.45"/>
        <path class="cls-7" d="M174.77,119.31c-1.6,0-2.9.58-3.89,1.74s-1.49,2.71-1.49,4.63v.12l6.59-6.36c-.36-.09-.77-.14-1.21-.14h0Z"/>
        <path class="cls-7" d="M177.94,117.56v3.36h0c-.42-.75-1.08-1.24-1.97-1.47l-6.59,6.36c.02,1.86.47,3.18,1.35,4.19.9,1.03,2.08,1.54,3.56,1.54,1.6,0,2.82-.63,3.65-1.89h.04v1.61h3.64v-17.26l-3.69,3.56h0ZM178.06,125.59c0,.96-.23,1.74-.7,2.32-.47.58-1.06.88-1.8.88-.77,0-1.38-.28-1.82-.83s-.66-1.34-.66-2.37c0-1.09.23-1.95.68-2.58.45-.63,1.08-.94,1.89-.94.71,0,1.29.25,1.74.75.45.5.67,1.13.67,1.89v.88h0Z"/>
      </g>
    </g>
  </g>
</svg>