<?xml version="1.0" encoding="UTF-8"?>
<svg id="Layer_1" data-name="Layer 1" xmlns="http://www.w3.org/2000/svg" xmlns:xlink="http://www.w3.org/1999/xlink" viewBox="0 0 275 250">
  <defs>
    <style>
      .cls-1 {
        fill: none;
      }

      .cls-2 {
        fill: #3e626d;
      }

      .cls-3 {
        fill: url(#linear-gradient-2);
      }

      .cls-4 {
        fill: url(#linear-gradient);
      }

      .cls-5, .cls-6 {
        fill: #2563eb;
      }

      .cls-7 {
        fill: #fff;
      }

      .cls-6 {
        font-family: SkylineSans-Black, 'SkylineSans Black';
        font-size: 26px;
        font-weight: 800;
      }
    </style>
    <linearGradient id="linear-gradient" x1="166.21" y1="6483.36" x2="173.45" y2="6490.57" gradientTransform="translate(0 -6369.72)" gradientUnits="userSpaceOnUse">
      <stop offset="0" stop-color="#60a5fa"/>
      <stop offset=".85" stop-color="#3b82f6"/>
    </linearGradient>
    <linearGradient id="linear-gradient-2" x1="181.63" y1="6494.76" x2="192.5" y2="6494.76" gradientTransform="translate(0 -6369.72)" gradientUnits="userSpaceOnUse">
      <stop offset="0" stop-color="#1d4ed8"/>
      <stop offset=".44" stop-color="#1e52db"/>
      <stop offset=".88" stop-color="#235ee6"/>
      <stop offset="1" stop-color="#2563eb"/>
    </linearGradient>
  </defs>
  <path class="cls-5" d="M266.85,2.66H8.15c-3.31,0-6,2.69-6,6v232.69c0,3.31,2.69,6,6,6h258.7c3.31,0,6-2.69,6-6V8.66c0-3.31-2.69-6-6-6ZM270.85,241.35c0,2.2-1.8,4-4,4H8.15c-2.21,0-4-1.8-4-4V8.66c0-2.21,1.79-4,4-4h258.7c2.2,0,4,1.79,4,4v232.69Z"/>
  <path class="cls-7" d="M270.85,8.66v232.69c0,2.2-1.8,4-4,4H8.15c-2.21,0-4-1.8-4-4V8.66c0-2.21,1.79-4,4-4h258.7c2.2,0,4,1.79,4,4Z"/>
  <text class="cls-6" transform="translate(60.61 198.33)"><tspan x="0" y="0">SCHEDULING</tspan></text>
  <g>
    <g>
      <path class="cls-2" d="M192.5,85c0,8.5-1.93,16.55-5.37,23.74-2.94-1.94-6.46-3.06-10.23-3.06-1.03,0-2.04.09-3.03.24-.86.14-1.69.34-2.51.59-1.83.57-3.54,1.41-5.08,2.47-.58.39-1.14.83-1.67,1.3-1.47,1.27-2.74,2.78-3.76,4.46-.44.73-.83,1.5-1.18,2.29-.97,2.26-1.5,4.75-1.5,7.35,0,3.78,1.12,7.3,3.06,10.24-7.18,3.44-15.24,5.37-23.73,5.37-30.38,0-55-24.62-55-55s24.62-55,55-55,55,24.62,55,55Z"/>
      <g>
        <path class="cls-7" d="M165.24,58.53h-5.47v-2.11c0-1.94-1.57-3.52-3.51-3.52h-.27c-1.94,0-3.52,1.58-3.52,3.52v2.11h-29.85v-2.11c0-1.94-1.58-3.52-3.52-3.52h-.27c-1.93,0-3.51,1.58-3.51,3.52v2.11h-5.34c-.65,0-1.18.53-1.18,1.18v49.63c0,.65.53,1.18,1.18,1.18h36.76c.65,0,1.18-.53,1.18-1.18s-.53-1.18-1.18-1.18h-35.59v-35.47h52.9v16.38c0,.64.53,1.18,1.18,1.18s1.18-.53,1.18-1.18v-29.36c0-.65-.53-1.18-1.18-1.18ZM154.83,56.42c0-.64.53-1.16,1.16-1.16h.27c.64,0,1.15.52,1.15,1.16v6.49c0,.64-.52,1.16-1.15,1.16h-.27c-.64,0-1.16-.52-1.16-1.16v-6.49ZM117.68,56.42c0-.64.52-1.16,1.15-1.16h.27c.64,0,1.16.52,1.16,1.16v6.49c0,.64-.52,1.16-1.16,1.16h-.27c-.64,0-1.15-.52-1.15-1.16v-6.49ZM164.07,70.33h-52.9v-9.44h4.16v2.02c0,1.94,1.58,3.52,3.51,3.52h.27c1.94,0,3.52-1.58,3.52-3.52v-2.02h29.85v2.02c0,1.94,1.58,3.52,3.52,3.52h.27c1.94,0,3.51-1.58,3.51-3.52v-2.02h4.29v9.44Z"/>
        <path class="cls-7" d="M127.4,76.75h-10.87c-.65,0-1.18.53-1.18,1.18v9.77c0,.64.53,1.18,1.18,1.18h10.87c.64,0,1.18-.53,1.18-1.18v-9.77c0-.65-.53-1.18-1.18-1.18ZM126.22,86.52h-8.51v-7.41h8.51v7.41Z"/>
        <path class="cls-7" d="M143,76.75h-10.87c-.65,0-1.18.53-1.18,1.18v9.77c0,.64.53,1.18,1.18,1.18h10.87c.65,0,1.18-.53,1.18-1.18v-9.77c0-.65-.53-1.18-1.18-1.18ZM141.82,86.52h-8.51v-7.41h8.51v7.41Z"/>
        <path class="cls-7" d="M158.6,76.75h-10.86c-.65,0-1.18.53-1.18,1.18v9.77c0,.64.53,1.18,1.18,1.18h10.86c.65,0,1.18-.53,1.18-1.18v-9.77c0-.65-.53-1.18-1.18-1.18ZM157.42,86.52h-8.5v-7.41h8.5v7.41Z"/>
        <path class="cls-7" d="M127.4,91.57h-10.87c-.65,0-1.18.53-1.18,1.18v9.76c0,.65.53,1.18,1.18,1.18h10.87c.64,0,1.18-.53,1.18-1.18v-9.76c0-.65-.53-1.18-1.18-1.18ZM126.22,101.33h-8.51v-7.4h8.51v7.4Z"/>
        <path class="cls-7" d="M143,91.57h-10.87c-.65,0-1.18.53-1.18,1.18v9.76c0,.65.53,1.18,1.18,1.18h10.87c.65,0,1.18-.53,1.18-1.18v-9.76c0-.65-.53-1.18-1.18-1.18ZM141.82,101.33h-8.51v-7.4h8.51v7.4Z"/>
        <path class="cls-7" d="M166.27,108.99c-.58.39-1.14.83-1.67,1.3-.15-.07-.28-.18-.39-.31l-4.1-4.92s-.02-.03-.03-.05c-.02-.03-.05-.06-.07-.1-.02-.03-.04-.06-.05-.09-.02-.04-.03-.07-.04-.11-.02-.04-.03-.07-.04-.11,0-.04-.02-.07-.02-.11,0-.04,0-.08,0-.13,0-.02,0-.03,0-.05v-7.38c0-.65.53-1.18,1.18-1.18s1.18.53,1.18,1.18v6.95l3.83,4.59c.13.16.21.34.25.53Z"/>
        <path class="cls-7" d="M161.02,91.17c-7.15,0-12.97,5.82-12.97,12.97,0,6.69,5.11,12.23,11.63,12.9.35-.79.74-1.56,1.18-2.29-5.77-.08-10.45-4.81-10.45-10.61s4.76-10.61,10.62-10.61,10.61,4.76,10.61,10.61c0,.82-.09,1.61-.27,2.37.82-.25,1.65-.45,2.51-.59.09-.58.13-1.18.13-1.78,0-7.15-5.82-12.97-12.97-12.97Z"/>
      </g>
    </g>
    <g>
      <circle class="cls-7" cx="176.69" cy="124.2" r="11.9"/>
      <g>
        <polygon class="cls-1" points="175.97 119.46 181.63 114 184.91 110.83 175.97 119.46 175.97 119.46"/>
        <polygon class="cls-1" points="169.39 125.81 163.05 131.93 169.39 125.81 169.39 125.81"/>
        <path class="cls-4" d="M169.39,125.69c0-1.93.49-3.47,1.49-4.63.99-1.16,2.29-1.74,3.89-1.74.44,0,.85.05,1.21.14l8.93-8.62c-2.37-1.44-5.15-2.26-8.12-2.26-8.68,0-15.72,7.04-15.72,15.72,0,2.77.72,5.38,1.98,7.64l6.34-6.12v-.12Z"/>
        <path class="cls-3" d="M184.91,110.83l-3.28,3.16h0v17.26h0v7.98c6.31-2.04,10.87-7.97,10.87-14.95,0-5.71-3.04-10.7-7.59-13.45Z"/>
        <path class="cls-5" d="M175.65,122.07c-.81,0-1.44.31-1.89.94-.45.63-.68,1.49-.68,2.58,0,1.02.22,1.81.66,2.37.44.55,1.04.83,1.82.83s1.34-.29,1.8-.88.7-1.36.7-2.32v-.88c0-.76-.22-1.39-.67-1.89-.45-.5-1.02-.75-1.74-.75h0Z"/>
        <path class="cls-5" d="M177.99,131.26v-1.61h-.04c-.83,1.26-2.05,1.89-3.65,1.89-1.47,0-2.66-.51-3.56-1.54-.88-1.01-1.33-2.33-1.35-4.19l-6.34,6.12c2.68,4.82,7.83,8.07,13.74,8.07,1.69,0,3.32-.27,4.85-.76h0v-7.98h-3.64Z"/>
        <path class="cls-5" d="M177.94,120.93h0v-3.37h0l3.69-3.56h0l-5.65,5.46c.89.22,1.54.71,1.97,1.48h0Z"/>
        <polygon class="cls-7" points="175.97 119.46 169.39 125.81 169.39 125.81 175.97 119.46 175.97 119.46"/>
        <path class="cls-7" d="M174.76,119.32c-1.6,0-2.9.58-3.89,1.74s-1.49,2.71-1.49,4.63v.12l6.59-6.36c-.36-.09-.77-.14-1.21-.14h0Z"/>
        <path class="cls-7" d="M177.93,117.56v3.36h0c-.42-.75-1.08-1.24-1.97-1.47l-6.59,6.36c.02,1.86.47,3.18,1.35,4.19.9,1.03,2.08,1.54,3.56,1.54,1.6,0,2.82-.63,3.65-1.89h.04v1.61h3.64v-17.26l-3.69,3.56h0ZM178.06,125.59c0,.96-.23,1.74-.7,2.32-.47.58-1.06.88-1.8.88-.77,0-1.38-.28-1.82-.83s-.66-1.34-.66-2.37c0-1.09.23-1.95.68-2.58.45-.63,1.08-.94,1.89-.94.71,0,1.29.25,1.74.75.45.5.67,1.13.67,1.89v.88h0Z"/>
      </g>
    </g>
  </g>
</svg>