<?xml version="1.0" encoding="UTF-8"?>
<svg id="Layer_1" data-name="Layer 1" xmlns="http://www.w3.org/2000/svg" xmlns:xlink="http://www.w3.org/1999/xlink" viewBox="0 0 275 250">
  <defs>
    <style>
      .cls-1 {
        fill: url(#linear-gradient);
      }

      .cls-1, .cls-2, .cls-3, .cls-4, .cls-5, .cls-6 {
        stroke-width: 0px;
      }

      .cls-7 {
        fill: none;
        stroke: #0ab1f0;
        stroke-linecap: round;
        stroke-linejoin: round;
        stroke-width: 2px;
      }

      .cls-2 {
        fill: #3e626d;
      }

      .cls-3 {
        fill: #00517d;
      }

      .cls-4 {
        fill: #0078d4;
      }

      .cls-5 {
        fill: url(#linear-gradient-2);
      }

      .cls-6 {
        fill: #fff;
      }
    </style>
    <linearGradient id="linear-gradient" x1="166.4" y1="1251.83" x2="173.59" y2="1258.99" gradientTransform="translate(0 -1138)" gradientUnits="userSpaceOnUse">
      <stop offset="0" stop-color="#00aeef"/>
      <stop offset=".86" stop-color="#2892df"/>
    </linearGradient>
    <linearGradient id="linear-gradient-2" x1="181.71" y1="1263.14" x2="192.5" y2="1263.14" gradientTransform="translate(0 -1138)" gradientUnits="userSpaceOnUse">
      <stop offset="0" stop-color="#013f61"/>
      <stop offset="1" stop-color="#00517d"/>
    </linearGradient>
  </defs>
  <g>
    <path class="cls-3" d="M73.24,183.29l-2.24,2.21c-.38-.57-.93-1.04-1.64-1.4-.71-.36-1.46-.55-2.26-.55s-1.37.15-1.81.46c-.44.3-.66.71-.66,1.21,0,.47.22.87.65,1.2.43.33.97.58,1.62.77s1.35.42,2.11.7c.75.29,1.46.6,2.11.94s1.19.84,1.62,1.51c.43.67.65,1.46.65,2.38,0,1.53-.58,2.76-1.74,3.72-1.18.97-2.72,1.46-4.63,1.46-3.02,0-5.18-1-6.5-2.99l2.31-2.16c1.04,1.39,2.45,2.08,4.24,2.08.9,0,1.6-.17,2.09-.51s.74-.81.74-1.42c0-.35-.11-.66-.33-.94-.22-.28-.54-.52-.97-.74-.43-.22-.85-.4-1.26-.56-.41-.16-.93-.34-1.57-.55-.64-.21-1.15-.39-1.53-.55-.92-.36-1.66-.91-2.24-1.62-.57-.72-.86-1.59-.86-2.61,0-1.4.57-2.56,1.72-3.48,1.11-.9,2.57-1.35,4.37-1.35,1.3,0,2.48.25,3.54.75,1.06.5,1.88,1.19,2.47,2.05Z"/>
    <path class="cls-3" d="M90.17,182.77l-2.16,2.47c-1.16-1-2.49-1.51-3.98-1.51s-2.63.53-3.61,1.59c-1.01,1.06-1.51,2.35-1.51,3.87s.51,2.77,1.53,3.85c1,1.06,2.27,1.59,3.8,1.59s2.82-.5,3.77-1.51l2.16,2.39c-1.46,1.58-3.51,2.37-6.16,2.37-2.41,0-4.44-.85-6.08-2.55-1.65-1.7-2.47-3.74-2.47-6.14s.84-4.48,2.52-6.16c1.66-1.7,3.67-2.55,6.03-2.55,2.58,0,4.64.76,6.16,2.29Z"/>
    <path class="cls-3" d="M107.2,197.51h-3.28v-6.99h-7.93v6.99h-3.25v-16.67h3.25v6.63h7.93v-6.63h3.28v16.67Z"/>
    <path class="cls-3" d="M121.97,197.51h-10.79v-16.67h10.79v3.04h-7.54v3.69h6.5v3.07h-6.5v3.8h7.54v3.07Z"/>
    <path class="cls-3" d="M130.62,197.51h-5.67v-16.67h5.54c2.74,0,4.99.78,6.76,2.34,1.77,1.58,2.65,3.59,2.65,6.03s-.87,4.39-2.6,5.95c-1.73,1.56-3.96,2.34-6.68,2.34ZM130.47,183.91h-2.18v10.53h2.21c1.77,0,3.21-.48,4.32-1.46,1.07-.97,1.61-2.24,1.61-3.82s-.54-2.85-1.61-3.82c-1.08-.95-2.52-1.43-4.34-1.43Z"/>
    <path class="cls-3" d="M142.84,190.72v-9.88h3.25v9.83c0,1.18.33,2.13.99,2.86.66.73,1.53,1.09,2.6,1.09s1.91-.36,2.56-1.08c.65-.72.97-1.67.97-2.85v-9.85h3.25v9.88c0,2.15-.62,3.87-1.87,5.17-1.26,1.32-2.92,1.98-4.97,1.98s-3.7-.66-4.91-1.98c-1.25-1.3-1.87-3.02-1.87-5.17Z"/>
    <path class="cls-3" d="M171.68,197.51h-11.39v-16.67h3.25v13.6h8.14v3.07Z"/>
    <path class="cls-3" d="M177.34,197.51h-3.25v-16.67h3.25v16.67Z"/>
    <path class="cls-3" d="M195.8,197.51h-3.51l-7.77-11.28v11.28h-3.25v-16.67h3.51l7.77,11.41v-11.41h3.25v16.67Z"/>
    <path class="cls-3" d="M213.74,188.38v7.67c-1.6,1.21-3.69,1.82-6.29,1.82-2.41,0-4.44-.85-6.08-2.55-1.65-1.7-2.47-3.74-2.47-6.14s.84-4.48,2.52-6.16c1.66-1.7,3.67-2.55,6.03-2.55,2.58,0,4.64.76,6.16,2.29l-2.16,2.47c-1.16-1-2.49-1.51-3.98-1.51s-2.63.53-3.61,1.59c-1,1.06-1.51,2.35-1.51,3.87s.51,2.77,1.53,3.85c1,1.06,2.27,1.59,3.8,1.59,1.02,0,1.96-.22,2.81-.65v-4.71l3.25-.88ZM206.72,188.38h7.02l-1.12,2.91h-5.9v-2.91Z"/>
  </g>
  <g>
    <g>
      <path class="cls-2" d="M192.5,85c0,8.5-1.93,16.55-5.37,23.73-2.94-1.93-6.46-3.06-10.24-3.06-10.34,0-18.72,8.39-18.72,18.72,0,3.78,1.12,7.29,3.05,10.24-7.19,3.44-15.23,5.37-23.72,5.37-30.38,0-55-24.62-55-55s24.62-55,55-55,55,24.62,55,55Z"/>
      <g>
        <path class="cls-1" d="M184.96,111.04c-2.35-1.42-5.11-2.25-8.07-2.25-8.62,0-15.6,6.99-15.6,15.6,0,2.75.71,5.34,1.97,7.59l21.71-20.94Z"/>
        <path class="cls-5" d="M181.71,114.18l3.26-3.14c4.52,2.73,7.54,7.69,7.54,13.36,0,6.94-4.53,12.82-10.79,14.85v-25.06Z"/>
        <path class="cls-4" d="M181.71,114.18l-18.45,17.8c2.67,4.78,7.77,8.02,13.64,8.02,1.68,0,3.3-.27,4.81-.76v-25.06Z"/>
        <path class="cls-6" d="M178.04,117.72v3.33h0c-.59-1.06-1.65-1.59-3.16-1.59-1.59,0-2.88.58-3.86,1.73-.98,1.15-1.48,2.69-1.48,4.6s.45,3.26,1.34,4.28c.89,1.02,2.07,1.53,3.53,1.53,1.59,0,2.8-.63,3.62-1.88h.05v1.59h3.61v-17.14l-3.67,3.54h0ZM178.16,125.69c0,.96-.23,1.73-.69,2.31-.46.58-1.06.87-1.79.87-.77,0-1.37-.27-1.81-.82-.43-.55-.65-1.33-.65-2.35,0-1.09.22-1.94.67-2.56.45-.62,1.08-.93,1.88-.93.71,0,1.28.25,1.73.75.44.5.66,1.12.66,1.88v.87Z"/>
      </g>
    </g>
    <g>
      <path class="cls-6" d="M144.85,107.33h-35.76v-35.82h53.26v16.56c0,.55.45,1,1,1s1-.45,1-1v-29.36c0-.55-.45-1-1-1h-5.65v-2.31c0-1.83-1.49-3.32-3.32-3.32h-.3c-1.83,0-3.32,1.49-3.32,3.32v2.31h-30.21v-2.31c0-1.83-1.49-3.32-3.32-3.32h-.3c-1.83,0-3.32,1.49-3.32,3.32v2.31h-5.52c-.55,0-1,.45-1,1v49.62c0,.55.45,1,1,1h36.76c.55,0,1-.45,1-1s-.45-1-1-1ZM152.76,55.39c0-.73.59-1.32,1.32-1.32h.3c.73,0,1.32.59,1.32,1.32v6.53c0,.73-.59,1.32-1.32,1.32h-.3c-.73,0-1.32-.59-1.32-1.32v-6.53ZM115.61,55.39c0-.73.59-1.32,1.32-1.32h.3c.73,0,1.32.59,1.32,1.32v6.53c0,.73-.59,1.32-1.32,1.32h-.3c-.73,0-1.32-.59-1.32-1.32v-6.53ZM113.61,59.71v2.22c0,1.83,1.49,3.32,3.32,3.32h.3c1.83,0,3.32-1.49,3.32-3.32v-2.22h30.21v2.22c0,1.83,1.49,3.32,3.32,3.32h.3c1.83,0,3.32-1.49,3.32-3.32v-2.22h4.65v9.8h-53.26v-9.8h4.52Z"/>
      <path class="cls-6" d="M126.5,76.93c0-.55-.45-1-1-1h-10.87c-.55,0-1,.45-1,1v9.76c0,.55.45,1,1,1h10.87c.55,0,1-.45,1-1v-9.76ZM124.5,85.69h-8.87v-7.76h8.87v7.76Z"/>
      <path class="cls-6" d="M142.1,76.93c0-.55-.45-1-1-1h-10.87c-.55,0-1,.45-1,1v9.76c0,.55.45,1,1,1h10.87c.55,0,1-.45,1-1v-9.76ZM140.1,85.69h-8.87v-7.76h8.87v7.76Z"/>
      <path class="cls-6" d="M145.84,75.93c-.55,0-1,.45-1,1v9.76c0,.55.45,1,1,1h10.87c.55,0,1-.45,1-1v-9.76c0-.55-.45-1-1-1h-10.87ZM155.7,85.69h-8.87v-7.76h8.87v7.76Z"/>
      <path class="cls-6" d="M125.5,90.74h-10.87c-.55,0-1,.45-1,1v9.76c0,.55.45,1,1,1h10.87c.55,0,1-.45,1-1v-9.76c0-.55-.45-1-1-1ZM124.5,100.51h-8.87v-7.76h8.87v7.76Z"/>
      <path class="cls-6" d="M141.1,90.74h-10.87c-.55,0-1,.45-1,1v9.76c0,.55.45,1,1,1h10.87c.55,0,1-.45,1-1v-9.76c0-.55-.45-1-1-1ZM140.1,100.51h-8.87v-7.76h8.87v7.76Z"/>
      <path class="cls-6" d="M159.12,94.92c-.55,0-1,.45-1,1v7.38s.02.09.03.13c0,.07.02.14.04.21.02.07.06.12.1.18.02.04.04.08.07.12l4.1,4.92c.2.24.48.36.77.36.23,0,.45-.08.64-.23.42-.35.48-.98.13-1.41l-3.87-4.64v-7.02c0-.55-.45-1-1-1Z"/>
      <path class="cls-6" d="M171.91,103.14c0-7.05-5.74-12.79-12.79-12.79s-12.79,5.74-12.79,12.79,5.74,12.79,12.79,12.79c.45,0,.9-.03,1.35-.08,0,0,0,0,0,0,.04,0,.08,0,.11,0,1.17-.13,2.31-.43,3.39-.87.51-.21.75-.79.54-1.3-.21-.51-.8-.76-1.3-.54-.91.37-1.88.62-2.86.73-.41.05-.83.07-1.24.07-5.95,0-10.79-4.84-10.79-10.79s4.84-10.79,10.79-10.79,10.79,4.84,10.79,10.79c0,1.04-.15,2.07-.44,3.06,0,0,0,0,0,0-.28.96-.71,1.89-1.25,2.74-.3.47-.16,1.08.3,1.38.17.11.35.16.54.16.33,0,.65-.16.84-.46.65-1.01,1.15-2.11,1.48-3.25,0,0,0,0,0,0,.35-1.17.52-2.39.52-3.62Z"/>
    </g>
  </g>
  <rect class="cls-7" x="3.15" y="3.66" width="268.7" height="242.69" rx="5" ry="5"/>
</svg>