<?xml version="1.0" encoding="UTF-8"?>
<svg id="Layer_1" data-name="Layer 1" xmlns="http://www.w3.org/2000/svg" xmlns:xlink="http://www.w3.org/1999/xlink" viewBox="0 0 275 250">
  <defs>
    <style>
      .cls-1 {
        fill: url(#linear-gradient);
      }

      .cls-1, .cls-2, .cls-3, .cls-4, .cls-5, .cls-6 {
        stroke-width: 0px;
      }

      .cls-7 {
        fill: none;
        stroke: #0ab1f0;
        stroke-linecap: round;
        stroke-linejoin: round;
        stroke-width: 2px;
      }

      .cls-2 {
        fill: #110c42;
      }

      .cls-3 {
        fill: #00517d;
      }

      .cls-4 {
        fill: #0078d4;
      }

      .cls-5 {
        fill: url(#linear-gradient-2);
      }

      .cls-6 {
        fill: #fff;
      }
    </style>
    <linearGradient id="linear-gradient" x1="166.4" y1="1251.83" x2="173.59" y2="1258.99" gradientTransform="translate(0 -1138)" gradientUnits="userSpaceOnUse">
      <stop offset="0" stop-color="#00aeef"/>
      <stop offset=".86" stop-color="#2892df"/>
    </linearGradient>
    <linearGradient id="linear-gradient-2" x1="181.71" y1="1263.14" x2="192.5" y2="1263.14" gradientTransform="translate(0 -1138)" gradientUnits="userSpaceOnUse">
      <stop offset="0" stop-color="#013f61"/>
      <stop offset="1" stop-color="#00517d"/>
    </linearGradient>
  </defs>
  <g>
    <path class="cls-3" d="M86.37,165.87h3.59l4.58,13.13,4.58-13.13h3.41l-6.16,16.67h-3.82l-6.16-16.67Z"/>
    <path class="cls-3" d="M108.29,182.54h-3.25v-16.67h3.25v16.67Z"/>
    <path class="cls-3" d="M115.52,182.54h-3.25v-16.67h5.93c1.98,0,3.55.48,4.73,1.43,1.2.97,1.79,2.25,1.79,3.82,0,1.13-.31,2.1-.92,2.92s-1.48,1.44-2.59,1.86l3.87,6.63h-3.77l-3.41-6.14h-2.39v6.14ZM118.46,168.73h-2.94v4.81h2.94c.85,0,1.53-.22,2.05-.66.52-.44.78-1.03.78-1.75s-.26-1.29-.78-1.73c-.52-.44-1.21-.66-2.05-.66Z"/>
    <path class="cls-3" d="M139.7,165.87v3.04h-4.97v13.62h-3.25v-13.62h-4.94v-3.04h13.16Z"/>
    <path class="cls-3" d="M141.86,175.75v-9.88h3.25v9.83c0,1.18.33,2.13.99,2.86.66.73,1.52,1.09,2.6,1.09s1.91-.36,2.56-1.08c.65-.72.97-1.67.97-2.85v-9.85h3.25v9.88c0,2.15-.62,3.87-1.87,5.17-1.27,1.32-2.92,1.98-4.97,1.98s-3.7-.66-4.91-1.98c-1.25-1.3-1.87-3.02-1.87-5.17Z"/>
    <path class="cls-3" d="M174.93,182.54h-3.61l-1.43-3.74h-7.31l-1.46,3.74h-3.41l6.71-16.67h3.8l6.71,16.67ZM163.67,175.91h5.1l-2.55-6.6-2.55,6.6Z"/>
    <path class="cls-3" d="M188.73,182.54h-11.39v-16.67h3.25v13.6h8.14v3.07Z"/>
    <path class="cls-3" d="M53.22,200.32l-2.24,2.21c-.38-.57-.93-1.04-1.64-1.4-.71-.36-1.46-.55-2.26-.55s-1.37.15-1.81.46c-.44.3-.66.71-.66,1.21,0,.47.22.87.65,1.2.43.33.97.58,1.62.77s1.35.42,2.11.7c.75.29,1.46.6,2.11.94s1.19.84,1.62,1.51c.43.67.65,1.46.65,2.38,0,1.53-.58,2.76-1.74,3.72-1.18.97-2.72,1.46-4.63,1.46-3.02,0-5.18-1-6.5-2.99l2.31-2.16c1.04,1.39,2.45,2.08,4.24,2.08.9,0,1.6-.17,2.09-.51s.74-.81.74-1.42c0-.35-.11-.66-.33-.94-.22-.28-.54-.52-.97-.74-.43-.22-.85-.4-1.26-.56-.41-.16-.93-.34-1.57-.55-.64-.21-1.15-.39-1.53-.55-.92-.36-1.66-.91-2.24-1.62-.57-.72-.86-1.59-.86-2.61,0-1.4.57-2.56,1.72-3.48,1.11-.9,2.57-1.35,4.37-1.35,1.3,0,2.48.25,3.54.75,1.06.5,1.88,1.19,2.47,2.05Z"/>
    <path class="cls-3" d="M59.54,214.54h-3.25v-16.67h3.25v16.67Z"/>
    <path class="cls-3" d="M77.51,205.41v7.67c-1.6,1.21-3.69,1.82-6.29,1.82-2.41,0-4.44-.85-6.08-2.55-1.65-1.7-2.47-3.74-2.47-6.14s.84-4.48,2.52-6.16c1.66-1.7,3.67-2.55,6.03-2.55,2.58,0,4.64.76,6.16,2.29l-2.16,2.47c-1.16-1-2.49-1.51-3.98-1.51s-2.63.53-3.61,1.59c-1,1.06-1.51,2.35-1.51,3.87s.51,2.77,1.53,3.85c1,1.06,2.27,1.59,3.8,1.59,1.02,0,1.96-.22,2.81-.65v-4.71l3.25-.88ZM70.49,205.41h7.02l-1.12,2.91h-5.9v-2.91Z"/>
    <path class="cls-3" d="M95.55,214.54h-3.51l-7.77-11.28v11.28h-3.25v-16.67h3.51l7.77,11.41v-11.41h3.25v16.67Z"/>
    <path class="cls-3" d="M115.13,214.54h-3.61l-1.43-3.74h-7.31l-1.46,3.74h-3.41l6.71-16.67h3.8l6.71,16.67ZM103.87,207.91h5.1l-2.55-6.6-2.55,6.6Z"/>
    <path class="cls-3" d="M128.93,214.54h-11.39v-16.67h3.25v13.6h8.14v3.07Z"/>
    <path class="cls-3" d="M150.93,205.41v7.67c-1.6,1.21-3.69,1.82-6.29,1.82-2.41,0-4.44-.85-6.08-2.55-1.65-1.7-2.47-3.74-2.47-6.14s.84-4.48,2.52-6.16c1.66-1.7,3.67-2.55,6.03-2.55,2.58,0,4.64.76,6.16,2.29l-2.16,2.47c-1.16-1-2.49-1.51-3.98-1.51s-2.63.53-3.61,1.59c-1,1.06-1.51,2.35-1.51,3.87s.51,2.77,1.53,3.85c1,1.06,2.27,1.59,3.8,1.59,1.02,0,1.96-.22,2.81-.65v-4.71l3.25-.88ZM143.91,205.41h7.02l-1.12,2.91h-5.9v-2.91Z"/>
    <path class="cls-3" d="M157.74,214.54h-3.25v-16.67h5.93c1.98,0,3.55.48,4.73,1.43,1.2.97,1.79,2.25,1.79,3.82,0,1.13-.31,2.1-.92,2.92-.62.82-1.48,1.44-2.59,1.86l3.87,6.63h-3.77l-3.41-6.14h-2.39v6.14ZM160.68,200.73h-2.94v4.81h2.94c.85,0,1.53-.22,2.05-.66.52-.44.78-1.03.78-1.75s-.26-1.29-.78-1.73c-.52-.44-1.21-.66-2.05-.66Z"/>
    <path class="cls-3" d="M172.09,200.06c1.7-1.7,3.73-2.55,6.08-2.55s4.41.85,6.11,2.55c1.68,1.7,2.52,3.75,2.52,6.16s-.84,4.46-2.52,6.14c-1.7,1.7-3.74,2.55-6.11,2.55s-4.38-.85-6.08-2.55c-1.68-1.68-2.52-3.73-2.52-6.14s.84-4.48,2.52-6.16ZM178.18,211.65c1.44,0,2.66-.53,3.67-1.59s1.51-2.34,1.51-3.85-.5-2.82-1.51-3.87c-1-1.06-2.23-1.59-3.67-1.59s-2.63.53-3.64,1.59c-1.01,1.06-1.51,2.35-1.51,3.87s.5,2.77,1.51,3.82c1.02,1.08,2.24,1.61,3.64,1.61Z"/>
    <path class="cls-3" d="M189.77,207.75v-9.88h3.25v9.83c0,1.18.33,2.13.99,2.86.66.73,1.52,1.09,2.6,1.09s1.91-.36,2.56-1.08c.65-.72.97-1.67.97-2.85v-9.85h3.25v9.88c0,2.15-.62,3.87-1.87,5.17-1.27,1.32-2.92,1.98-4.97,1.98s-3.7-.66-4.91-1.98c-1.25-1.3-1.87-3.02-1.87-5.17Z"/>
    <path class="cls-3" d="M210.47,214.54h-3.25v-16.67h5.93c2.03,0,3.65.5,4.86,1.51,1.21,1.01,1.82,2.34,1.82,4s-.62,3.01-1.85,4.03c-1.21,1.01-2.84,1.51-4.89,1.51h-2.63v5.62ZM213.41,200.73h-2.94v5.33h2.94c.9,0,1.62-.25,2.17-.74s.82-1.14.82-1.94-.27-1.44-.82-1.92-1.27-.73-2.17-.73Z"/>
    <path class="cls-3" d="M234.26,200.32l-2.24,2.21c-.38-.57-.93-1.04-1.64-1.4s-1.46-.55-2.26-.55-1.37.15-1.81.46c-.44.3-.66.71-.66,1.21,0,.47.22.87.65,1.2.43.33.98.58,1.62.77.65.18,1.35.42,2.11.7s1.46.6,2.11.94c.65.34,1.19.84,1.62,1.51.43.67.65,1.46.65,2.38,0,1.53-.58,2.76-1.74,3.72-1.18.97-2.72,1.46-4.63,1.46-3.02,0-5.18-1-6.5-2.99l2.31-2.16c1.04,1.39,2.45,2.08,4.24,2.08.9,0,1.6-.17,2.09-.51s.74-.81.74-1.42c0-.35-.11-.66-.32-.94-.22-.28-.54-.52-.98-.74s-.85-.4-1.26-.56c-.41-.16-.93-.34-1.57-.55s-1.15-.39-1.53-.55c-.92-.36-1.66-.91-2.24-1.62-.57-.72-.86-1.59-.86-2.61,0-1.4.57-2.56,1.72-3.48,1.11-.9,2.57-1.35,4.37-1.35,1.3,0,2.48.25,3.54.75,1.06.5,1.88,1.19,2.47,2.05Z"/>
  </g>
  <g>
    <g>
      <path class="cls-2" d="M192.5,85c0,8.5-1.93,16.54-5.37,23.72-2.94-1.93-6.46-3.05-10.24-3.05-10.34,0-18.72,8.39-18.72,18.72,0,3.78,1.12,7.29,3.06,10.24-7.18,3.44-15.24,5.37-23.73,5.37-30.37,0-55-24.62-55-55s24.63-55,55-55,55,24.62,55,55Z"/>
      <g>
        <path class="cls-1" d="M184.96,111.04c-2.35-1.42-5.11-2.25-8.07-2.25-8.62,0-15.6,6.99-15.6,15.6,0,2.75.71,5.34,1.96,7.59l21.7-20.94Z"/>
        <path class="cls-5" d="M181.71,114.18l3.26-3.14c4.52,2.73,7.54,7.69,7.54,13.36,0,6.94-4.53,12.82-10.79,14.85v-25.06Z"/>
        <path class="cls-4" d="M181.71,114.18l-18.45,17.8c2.67,4.78,7.77,8.02,13.64,8.02,1.68,0,3.3-.27,4.81-.76v-25.06Z"/>
        <path class="cls-6" d="M178.04,117.72v3.33h0c-.59-1.06-1.65-1.59-3.16-1.59-1.59,0-2.88.58-3.86,1.73-.98,1.15-1.48,2.69-1.48,4.6s.45,3.26,1.34,4.28c.89,1.02,2.07,1.53,3.53,1.53,1.59,0,2.8-.63,3.62-1.88h.05v1.59h3.61v-17.14l-3.67,3.54h0ZM178.16,125.69c0,.96-.23,1.73-.69,2.31-.46.58-1.06.87-1.79.87-.77,0-1.37-.27-1.81-.82-.43-.55-.65-1.33-.65-2.35,0-1.09.22-1.94.67-2.56.45-.62,1.08-.93,1.88-.93.71,0,1.28.25,1.73.75.44.5.66,1.12.66,1.88v.87Z"/>
      </g>
    </g>
    <g>
      <path class="cls-6" d="M137.79,58.31c-.17-.33-.51-.53-.88-.53h0l-10.21.04c-.3,0-.59.14-.77.37l-22.64,28.1c-.24.3-.29.71-.12,1.06s.52.57.9.57h12.73l-3.5,19.12c-.08.45.15.9.57,1.09.13.06.28.09.42.09.29,0,.58-.13.78-.37l22.64-28.1c.24-.3.29-.71.12-1.06s-.52-.57-.9-.57h-12.03l12.86-18.77c.21-.31.23-.71.06-1.03ZM122.16,78.55c-.21.31-.23.7-.06,1.03.17.33.51.53.88.53h11.84l-18.86,23.41,3-16.43c.05-.29-.03-.59-.21-.82-.19-.23-.47-.36-.77-.36h-11.84l21.03-26.1,7.83-.03-12.85,18.77Z"/>
      <path class="cls-6" d="M166.95,75.38c.55,0,1-.45,1-1v-15.6c0-.55-.45-1-1-1h-15.6c-.55,0-1,.45-1,1v15.6c0,.55.45,1,1,1h6.8v6.63h-16.94c-.55,0-1,.45-1,1s.45,1,1,1h16.94v6.6h-6.8c-.55,0-1,.45-1,1v15.6c0,.55.45,1,1,1h15.6c.55,0,1-.45,1-1v-15.6c0-.55-.45-1-1-1h-6.8v-15.23h6.8ZM165.95,106.22h-13.6v-13.6h13.6v13.6ZM152.34,59.78h13.6v13.6h-13.6v-13.6Z"/>
    </g>
  </g>
  <rect class="cls-7" x="3.15" y="3.66" width="268.7" height="242.69" rx="5" ry="5"/>
</svg>