<?xml version="1.0" encoding="UTF-8"?>
<svg id="Layer_1" data-name="Layer 1" xmlns="http://www.w3.org/2000/svg" xmlns:xlink="http://www.w3.org/1999/xlink" viewBox="0 0 275 250">
  <defs>
    <style>
      .cls-1 {
        fill: url(#linear-gradient);
      }

      .cls-1, .cls-2, .cls-3, .cls-4, .cls-5, .cls-6 {
        stroke-width: 0px;
      }

      .cls-7 {
        fill: none;
        stroke: #0ab1f0;
        stroke-linecap: round;
        stroke-linejoin: round;
        stroke-width: 2px;
      }

      .cls-2 {
        fill: #00517d;
      }

      .cls-3 {
        fill: #0078d4;
      }

      .cls-4 {
        fill: url(#linear-gradient-2);
      }

      .cls-5 {
        fill: #08383c;
      }

      .cls-6 {
        fill: #fff;
      }
    </style>
    <linearGradient id="linear-gradient" x1="166.4" y1="1251.83" x2="173.59" y2="1258.99" gradientTransform="translate(0 -1138)" gradientUnits="userSpaceOnUse">
      <stop offset="0" stop-color="#00aeef"/>
      <stop offset=".86" stop-color="#2892df"/>
    </linearGradient>
    <linearGradient id="linear-gradient-2" x1="181.71" y1="1263.14" x2="192.5" y2="1263.14" gradientTransform="translate(0 -1138)" gradientUnits="userSpaceOnUse">
      <stop offset="0" stop-color="#013f61"/>
      <stop offset="1" stop-color="#00517d"/>
    </linearGradient>
  </defs>
  <g>
    <path class="cls-2" d="M81.37,178.77l3.67-12.9h3.41l-5.28,16.67h-4.06l-3.28-12.63-3.28,12.63h-3.93l-5.28-16.67h3.59l3.67,12.9,3.33-12.9h4.08l3.35,12.9Z"/>
    <path class="cls-2" d="M92.78,168.06c1.7-1.7,3.73-2.55,6.08-2.55s4.41.85,6.11,2.55c1.68,1.7,2.52,3.75,2.52,6.16s-.84,4.46-2.52,6.14c-1.7,1.7-3.74,2.55-6.11,2.55s-4.38-.85-6.08-2.55-2.52-3.73-2.52-6.14.84-4.48,2.52-6.16ZM98.86,179.66c1.44,0,2.66-.53,3.67-1.59,1-1.06,1.51-2.34,1.51-3.85s-.5-2.82-1.51-3.87-2.23-1.59-3.67-1.59-2.63.53-3.64,1.59c-1.01,1.06-1.51,2.35-1.51,3.87s.5,2.77,1.51,3.82c1.02,1.08,2.24,1.61,3.64,1.61Z"/>
    <path class="cls-2" d="M113.89,182.54h-3.25v-16.67h5.93c1.98,0,3.55.48,4.73,1.43,1.2.97,1.79,2.25,1.79,3.82,0,1.13-.31,2.1-.92,2.93-.62.82-1.48,1.44-2.59,1.86l3.87,6.63h-3.77l-3.41-6.13h-2.39v6.13ZM116.83,168.74h-2.94v4.81h2.94c.85,0,1.53-.22,2.05-.66.52-.44.78-1.03.78-1.76s-.26-1.29-.78-1.73c-.52-.44-1.21-.66-2.05-.66Z"/>
    <path class="cls-2" d="M129.83,182.54h-3.25v-16.67h3.25v6.87h.03l4.71-6.87h3.67l-5.62,8.19,6.01,8.47h-3.95l-4.68-6.76h-.16v6.76Z"/>
    <path class="cls-2" d="M144.31,182.54h-3.25v-16.67h10.56v3.07h-7.31v4.03h6.27v3.07h-6.27v6.5Z"/>
    <path class="cls-2" d="M165.94,182.54h-11.39v-16.67h3.25v13.6h8.14v3.07Z"/>
    <path class="cls-2" d="M170.03,168.06c1.7-1.7,3.73-2.55,6.08-2.55s4.41.85,6.11,2.55c1.68,1.7,2.52,3.75,2.52,6.16s-.84,4.46-2.52,6.14c-1.7,1.7-3.74,2.55-6.11,2.55s-4.38-.85-6.08-2.55-2.52-3.73-2.52-6.14.84-4.48,2.52-6.16ZM176.11,179.66c1.44,0,2.66-.53,3.67-1.59,1-1.06,1.51-2.34,1.51-3.85s-.5-2.82-1.51-3.87-2.23-1.59-3.67-1.59-2.63.53-3.64,1.59c-1.01,1.06-1.51,2.35-1.51,3.87s.5,2.77,1.51,3.82c1.02,1.08,2.24,1.61,3.64,1.61Z"/>
    <path class="cls-2" d="M204.58,178.77l3.67-12.9h3.41l-5.28,16.67h-4.06l-3.28-12.63-3.28,12.63h-3.93l-5.28-16.67h3.59l3.67,12.9,3.33-12.9h4.08l3.35,12.9Z"/>
    <path class="cls-2" d="M85.47,214.54h-5.67v-16.67h5.54c2.74,0,4.99.78,6.76,2.34,1.77,1.58,2.65,3.59,2.65,6.03s-.87,4.39-2.6,5.95-3.96,2.34-6.68,2.34ZM85.32,200.94h-2.18v10.53h2.21c1.77,0,3.21-.48,4.32-1.46,1.08-.97,1.61-2.24,1.61-3.82s-.54-2.85-1.61-3.82c-1.07-.95-2.52-1.43-4.34-1.43Z"/>
    <path class="cls-2" d="M108.67,214.54h-10.79v-16.67h10.79v3.04h-7.54v3.69h6.5v3.07h-6.5v3.79h7.54v3.07Z"/>
    <path class="cls-2" d="M123.2,200.32l-2.24,2.21c-.38-.57-.93-1.04-1.64-1.4-.71-.36-1.46-.54-2.26-.54s-1.37.15-1.81.46c-.44.3-.66.71-.66,1.21,0,.47.22.87.65,1.2.43.33.97.59,1.62.77s1.35.42,2.11.7c.75.29,1.46.6,2.11.94s1.19.84,1.62,1.51c.43.67.65,1.46.65,2.38,0,1.53-.58,2.76-1.74,3.72-1.18.97-2.72,1.46-4.63,1.46-3.02,0-5.18-1-6.5-2.99l2.31-2.16c1.04,1.39,2.45,2.08,4.24,2.08.9,0,1.6-.17,2.09-.51s.74-.81.74-1.42c0-.35-.11-.66-.33-.94-.22-.28-.54-.52-.97-.74-.43-.22-.85-.4-1.26-.56-.41-.16-.93-.34-1.57-.55-.64-.21-1.15-.39-1.53-.54-.92-.37-1.66-.91-2.24-1.62-.57-.72-.86-1.59-.86-2.61,0-1.4.57-2.56,1.72-3.48,1.11-.9,2.57-1.35,4.37-1.35,1.3,0,2.48.25,3.54.75,1.06.5,1.88,1.19,2.47,2.05Z"/>
    <path class="cls-2" d="M129.52,214.54h-3.25v-16.67h3.25v16.67Z"/>
    <path class="cls-2" d="M147.48,205.41v7.67c-1.6,1.21-3.69,1.82-6.29,1.82-2.41,0-4.44-.85-6.08-2.55-1.65-1.7-2.47-3.74-2.47-6.14s.84-4.48,2.52-6.16c1.66-1.7,3.67-2.55,6.03-2.55,2.58,0,4.64.76,6.16,2.29l-2.16,2.47c-1.16-1.01-2.49-1.51-3.98-1.51s-2.63.53-3.61,1.59c-1,1.06-1.51,2.35-1.51,3.87s.51,2.77,1.53,3.85c1,1.06,2.27,1.59,3.8,1.59,1.02,0,1.96-.22,2.81-.65v-4.71l3.25-.88ZM140.46,205.41h7.02l-1.12,2.91h-5.9v-2.91Z"/>
    <path class="cls-2" d="M165.53,214.54h-3.51l-7.77-11.28v11.28h-3.25v-16.67h3.51l7.77,11.41v-11.41h3.25v16.67Z"/>
    <path class="cls-2" d="M180.27,214.54h-10.79v-16.67h10.79v3.04h-7.54v3.69h6.5v3.07h-6.5v3.79h7.54v3.07Z"/>
    <path class="cls-2" d="M186.51,214.54h-3.25v-16.67h5.93c1.98,0,3.55.48,4.73,1.43,1.2.97,1.79,2.25,1.79,3.82,0,1.13-.31,2.1-.92,2.93-.62.82-1.48,1.44-2.59,1.86l3.87,6.63h-3.77l-3.41-6.13h-2.39v6.13ZM189.45,200.74h-2.94v4.81h2.94c.85,0,1.53-.22,2.05-.66.52-.44.78-1.03.78-1.76s-.26-1.29-.78-1.73c-.52-.44-1.21-.66-2.05-.66Z"/>
  </g>
  <g>
    <g>
      <path class="cls-5" d="M192.5,85c0,8.5-1.93,16.55-5.37,23.73-2.94-1.93-6.46-3.06-10.24-3.06-10.34,0-18.72,8.39-18.72,18.72,0,3.78,1.12,7.29,3.05,10.24-7.19,3.44-15.23,5.37-23.72,5.37-30.38,0-55-24.62-55-55s24.62-55,55-55,55,24.62,55,55Z"/>
      <g>
        <path class="cls-1" d="M184.96,111.04c-2.35-1.42-5.11-2.25-8.07-2.25-8.62,0-15.6,6.99-15.6,15.6,0,2.75.71,5.34,1.97,7.59l21.71-20.94Z"/>
        <path class="cls-4" d="M181.71,114.18l3.26-3.14c4.52,2.73,7.54,7.69,7.54,13.36,0,6.94-4.53,12.82-10.79,14.85v-25.06Z"/>
        <path class="cls-3" d="M181.71,114.18l-18.45,17.8c2.67,4.78,7.77,8.02,13.64,8.02,1.68,0,3.3-.27,4.81-.76v-25.06Z"/>
        <path class="cls-6" d="M178.04,117.72v3.33h0c-.59-1.06-1.65-1.59-3.16-1.59-1.59,0-2.88.58-3.86,1.73-.98,1.15-1.48,2.69-1.48,4.6s.45,3.26,1.34,4.28c.89,1.02,2.07,1.53,3.53,1.53,1.59,0,2.8-.63,3.62-1.88h.05v1.59h3.61v-17.14l-3.67,3.54h0ZM178.16,125.69c0,.96-.23,1.73-.69,2.31-.46.58-1.06.87-1.79.87-.77,0-1.37-.27-1.81-.82-.43-.55-.65-1.33-.65-2.35,0-1.09.22-1.94.67-2.56.45-.62,1.08-.93,1.88-.93.71,0,1.28.25,1.73.75.44.5.66,1.12.66,1.88v.87Z"/>
      </g>
    </g>
    <g>
      <path class="cls-6" d="M138.28,89.68c3.68,0,6.68-3,6.68-6.68s-3-6.68-6.68-6.68-6.68,3-6.68,6.68,3,6.68,6.68,6.68ZM138.28,78.32c2.58,0,4.68,2.1,4.68,4.68s-2.1,4.68-4.68,4.68-4.68-2.1-4.68-4.68,2.1-4.68,4.68-4.68Z"/>
      <path class="cls-6" d="M165.59,100.72h-17.16c-.55,0-1,.45-1,1v4.46h-25.92c-6.12,0-11.09-4.98-11.09-11.09s4.98-11.09,11.09-11.09h.39c.15,0,.28-.04.41-.09v1.1c0,.5.38.93.88.99l3.27.41c.25.88.61,1.73,1.05,2.54l-1.99,2.72c-.29.4-.25.95.1,1.3l2.78,2.75c.35.35.91.39,1.31.09l2.68-2.02c.79.43,1.62.77,2.49,1.02l.51,3.33c.07.49.49.85.99.85h3.91c.5-.02.92-.39.99-.88l.44-3.31c.87-.25,1.71-.6,2.5-1.04l2.72,2c.4.29.95.25,1.3-.1l2.75-2.77c.35-.35.39-.92.08-1.31l-2.03-2.66c.44-.79.78-1.63,1.03-2.49l3.34-.51c.49-.08.85-.5.85-.99v-.94c6.86-.4,12.32-6.09,12.32-13.05s-5.87-13.09-13.09-13.09h-25.92v-4.46c0-.55-.45-1-1-1h-17.16c-.55,0-1,.45-1,1v10.92c0,.55.45,1,1,1h17.16c.55,0,1-.45,1-1v-4.46h25.92c6.12,0,11.09,4.98,11.09,11.09s-4.57,10.66-10.33,11.05v-.96c0-.5-.38-.92-.87-.99l-3.33-.44c-.26-.88-.61-1.72-1.06-2.52l2.03-2.7c.3-.4.26-.96-.09-1.31l-2.77-2.76c-.36-.35-.91-.39-1.31-.09l-2.71,2.06c-.79-.43-1.61-.77-2.47-1.01l-.49-3.38c-.07-.49-.49-.86-.99-.86h-3.91c-.5.01-.92.38-.99.88l-.43,3.36c-.88.25-1.72.6-2.52,1.05l-2.69-2.05c-.4-.3-.96-.26-1.31.09l-2.76,2.77c-.36.36-.39.92-.08,1.32l2.05,2.62c-.45.8-.81,1.65-1.06,2.54l-3.33.5c-.49.07-.85.5-.85.99v.99c-.12-.06-.26-.09-.4-.09h-.39c-7.22,0-13.09,5.87-13.09,13.09s5.87,13.09,13.09,13.09h25.92v4.46c0,.55.45,1,1,1h15.03c.55,0,1-.45,1-1s-.45-1-1-1h-14.03v-8.92h15.16v7.65c0,.55.45,1,1,1s1-.45,1-1v-8.65c0-.55-.45-1-1-1ZM125.58,63.28h-15.16v-8.92h15.16v8.92ZM127.43,81.49c.41-.06.73-.36.83-.76.26-1.13.71-2.21,1.34-3.19.23-.36.21-.82-.05-1.15l-1.93-2.47,1.52-1.53,2.53,1.92c.33.25.78.27,1.14.05.99-.62,2.06-1.07,3.19-1.32.41-.09.72-.43.77-.85l.41-3.16h2.17s.46,3.17.46,3.17c.06.41.37.74.77.83,1.1.25,2.16.68,3.13,1.28.35.22.8.2,1.13-.05l2.55-1.94,1.54,1.53-1.91,2.54c-.25.33-.27.79-.04,1.14.63.98,1.08,2.05,1.34,3.18.09.41.43.71.84.77l3.12.41v2.17s-3.13.48-3.13.48c-.41.06-.73.37-.82.77-.25,1.11-.69,2.17-1.3,3.14-.22.35-.2.81.05,1.14l1.91,2.5-1.53,1.54-2.56-1.88c-.33-.24-.78-.26-1.12-.04-.98.61-2.04,1.05-3.16,1.31-.41.09-.71.43-.77.84l-.41,3.12h-2.17s-.48-3.13-.48-3.13c-.06-.41-.37-.73-.77-.82-1.11-.25-2.16-.68-3.14-1.29-.16-.1-.34-.15-.53-.15-.21,0-.42.07-.6.2l-2.52,1.9-1.55-1.54,1.87-2.56c.24-.33.26-.78.04-1.12-.62-.99-1.07-2.06-1.32-3.19-.09-.41-.43-.72-.85-.77l-3.08-.38v-2.16s3.12-.47,3.12-.47Z"/>
    </g>
  </g>
  <rect class="cls-7" x="3.15" y="3.66" width="268.7" height="242.69" rx="5" ry="5"/>
</svg>