<?xml version="1.0" encoding="UTF-8"?>
<svg id="Layer_1" data-name="Layer 1" xmlns="http://www.w3.org/2000/svg" xmlns:xlink="http://www.w3.org/1999/xlink" viewBox="0 0 275 250">
  <defs>
    <style>
      .cls-1 {
        fill: none;
      }

      .cls-2 {
        fill: url(#linear-gradient-2);
      }

      .cls-3 {
        fill: #08383c;
      }

      .cls-4 {
        fill: url(#linear-gradient);
      }

      .cls-5, .cls-6 {
        fill: #2563eb;
      }

      .cls-7 {
        fill: #fff;
      }

      .cls-6 {
        font-family: SkylineSans-Black, 'SkylineSans Black';
        font-size: 26px;
        font-weight: 800;
      }
    </style>
    <linearGradient id="linear-gradient" x1="166.21" y1="6483.36" x2="173.45" y2="6490.57" gradientTransform="translate(0 -6369.72)" gradientUnits="userSpaceOnUse">
      <stop offset="0" stop-color="#60a5fa"/>
      <stop offset=".85" stop-color="#3b82f6"/>
    </linearGradient>
    <linearGradient id="linear-gradient-2" x1="181.63" y1="6494.76" x2="192.5" y2="6494.76" gradientTransform="translate(0 -6369.72)" gradientUnits="userSpaceOnUse">
      <stop offset="0" stop-color="#1d4ed8"/>
      <stop offset=".44" stop-color="#1e52db"/>
      <stop offset=".88" stop-color="#235ee6"/>
      <stop offset="1" stop-color="#2563eb"/>
    </linearGradient>
  </defs>
  <path class="cls-5" d="M266.85,2.66H8.15c-3.31,0-6,2.69-6,6v232.69c0,3.31,2.69,6,6,6h258.7c3.31,0,6-2.69,6-6V8.66c0-3.31-2.69-6-6-6ZM270.85,241.35c0,2.2-1.8,4-4,4H8.15c-2.21,0-4-1.8-4-4V8.66c0-2.21,1.79-4,4-4h258.7c2.2,0,4,1.79,4,4v232.69Z"/>
  <path class="cls-7" d="M270.85,8.66v232.69c0,2.2-1.8,4-4,4H8.15c-2.21,0-4-1.8-4-4V8.66c0-2.21,1.79-4,4-4h258.7c2.2,0,4,1.79,4,4Z"/>
  <text class="cls-6" transform="translate(62.19 182.51)"><tspan x="0" y="0">WORKFLOW</tspan><tspan x="16.34" y="32">DESIGNER</tspan></text>
  <g>
    <g>
      <path class="cls-3" d="M192.5,85c0,8.5-1.93,16.55-5.37,23.74-2.94-1.94-6.46-3.06-10.23-3.06-4.07,0-7.84,1.3-10.91,3.52-.84.59-1.63,1.27-2.36,2-.7.7-1.34,1.46-1.92,2.27-.54.75-1.03,1.53-1.45,2.36-1.33,2.57-2.08,5.48-2.08,8.57,0,3.78,1.12,7.3,3.06,10.24-7.18,3.44-15.24,5.37-23.73,5.37-30.38,0-55-24.62-55-55s24.62-55,55-55,55,24.62,55,55Z"/>
      <g>
        <path class="cls-7" d="M137.5,78.14c-3.79,0-6.87,3.08-6.87,6.86s3.08,6.87,6.87,6.87,6.86-3.08,6.86-6.87-3.08-6.86-6.86-6.86ZM137.5,89.51c-2.49,0-4.51-2.03-4.51-4.51s2.02-4.5,4.51-4.5,4.5,2.02,4.5,4.5-2.02,4.51-4.5,4.51Z"/>
        <path class="cls-7" d="M164.8,102.55h-17.17c-.65,0-1.18.53-1.18,1.18v4.28h-25.73c-6.02,0-10.91-4.89-10.91-10.91s4.89-10.91,10.91-10.91h.39c.09,0,.16,0,.24-.02v.85c0,.6.45,1.09,1.04,1.17l3.16.39c.24.82.57,1.6.98,2.36l-1.92,2.63c-.35.47-.3,1.12.12,1.53l2.77,2.75c.42.42,1.08.46,1.54.11l2.59-1.96c.74.39,1.52.72,2.31.95l.5,3.22c.09.57.58,1,1.16,1h0l3.9-.02c.59,0,1.08-.44,1.16-1.02l.42-3.2c.81-.24,1.59-.57,2.33-.97l2.63,1.93c.47.35,1.12.3,1.53-.12l2.76-2.77c.41-.42.46-1.08.1-1.55l-1.96-2.57c.4-.74.72-1.52.96-2.32l3.22-.49c.58-.09,1.01-.59,1-1.17v-.77c6.88-.49,12.33-6.22,12.33-13.22s-5.96-13.27-13.27-13.27h-25.74v-4.28c0-.65-.53-1.18-1.18-1.18h-17.16c-.65,0-1.18.53-1.18,1.18v10.92c0,.65.53,1.18,1.18,1.18h17.16c.65,0,1.18-.53,1.18-1.18v-4.28h25.74c6.02,0,10.91,4.89,10.91,10.91,0,5.7-4.4,10.39-9.98,10.87v-.78c0-.59-.44-1.08-1.03-1.16l-3.21-.42c-.25-.82-.58-1.6-.99-2.35l1.96-2.6c.35-.47.31-1.13-.11-1.55l-2.77-2.76c-.42-.42-1.08-.46-1.54-.1l-2.62,2c-.73-.39-1.49-.7-2.29-.93l-.48-3.27c-.08-.58-.58-1.01-1.16-1.01h-3.91c-.59,0-1.09.45-1.16,1.04l-.42,3.24c-.81.24-1.59.57-2.34.97l-2.59-1.98c-.47-.36-1.14-.31-1.56.11l-2.75,2.77c-.42.42-.46,1.08-.09,1.56l1.98,2.53c-.42.75-.75,1.54-.99,2.36l-3.22.49c-.57.09-1.01.58-1,1.17v.74c-.07-.02-.15-.02-.23-.02h-.39c-7.32,0-13.27,5.96-13.27,13.27s5.95,13.27,13.27,13.27h25.73v4.28c0,.65.53,1.18,1.18,1.18h12.62c.42-.82.91-1.61,1.45-2.36h-12.89v-8.56h14.81v6.29c.73-.73,1.52-1.41,2.36-2v-5.48c0-.65-.53-1.18-1.18-1.18ZM124.61,65.1h-14.8v-8.56h14.8v8.56ZM126.67,83.66c.48-.07.86-.43.97-.9.25-1.11.7-2.16,1.31-3.13.27-.42.24-.97-.06-1.36l-1.83-2.35,1.3-1.3,2.4,1.83c.39.3.93.32,1.34.06.97-.61,2.03-1.05,3.13-1.3.48-.11.84-.5.9-1l.38-3.01h1.85l.44,3.03c.07.48.43.87.91.98,1.08.24,2.11.67,3.07,1.26.42.26.95.24,1.34-.06l2.42-1.85,1.32,1.31-1.82,2.41c-.3.39-.32.93-.05,1.34.62.96,1.06,2.01,1.32,3.12.11.48.5.84.99.9l2.97.39v1.85s-2.98.46-2.98.46c-.48.07-.86.43-.97.9-.24,1.08-.68,2.13-1.27,3.09-.26.42-.24.95.06,1.34l1.82,2.38-1.32,1.33-2.44-1.79c-.38-.29-.91-.31-1.32-.05-.96.6-2,1.03-3.1,1.29-.48.11-.84.5-.9.99l-.39,2.96h-1.86s-.46-2.98-.46-2.98c-.07-.48-.43-.86-.9-.97-1.09-.25-2.13-.68-3.09-1.27-.19-.12-.4-.17-.62-.17-.25,0-.5.08-.71.24l-2.4,1.81-1.33-1.32,1.78-2.44c.28-.39.31-.91.05-1.32-.61-.97-1.05-2.03-1.3-3.13-.11-.49-.51-.86-1.01-.92l-2.92-.36v-1.85s2.97-.45,2.97-.45Z"/>
      </g>
    </g>
    <g>
      <circle class="cls-7" cx="176.69" cy="124.2" r="11.9"/>
      <g>
        <polygon class="cls-1" points="175.97 119.46 181.63 114 184.91 110.83 175.97 119.46 175.97 119.46"/>
        <polygon class="cls-1" points="169.39 125.81 163.05 131.93 169.39 125.81 169.39 125.81"/>
        <path class="cls-4" d="M169.39,125.69c0-1.93.49-3.47,1.49-4.63.99-1.16,2.29-1.74,3.89-1.74.44,0,.85.05,1.21.14l8.93-8.62c-2.37-1.44-5.15-2.26-8.12-2.26-8.68,0-15.72,7.04-15.72,15.72,0,2.77.72,5.38,1.98,7.64l6.34-6.12v-.12Z"/>
        <path class="cls-2" d="M184.91,110.83l-3.28,3.16h0v17.26h0v7.98c6.31-2.04,10.87-7.97,10.87-14.95,0-5.71-3.04-10.7-7.59-13.45Z"/>
        <path class="cls-5" d="M175.65,122.07c-.81,0-1.44.31-1.89.94-.45.63-.68,1.49-.68,2.58,0,1.02.22,1.81.66,2.37.44.55,1.04.83,1.82.83s1.34-.29,1.8-.88.7-1.36.7-2.32v-.88c0-.76-.22-1.39-.67-1.89-.45-.5-1.02-.75-1.74-.75h0Z"/>
        <path class="cls-5" d="M177.99,131.26v-1.61h-.04c-.83,1.26-2.05,1.89-3.65,1.89-1.47,0-2.66-.51-3.56-1.54-.88-1.01-1.33-2.33-1.35-4.19l-6.34,6.12c2.68,4.82,7.83,8.07,13.74,8.07,1.69,0,3.32-.27,4.85-.76h0v-7.98h-3.64Z"/>
        <path class="cls-5" d="M177.94,120.93h0v-3.37h0l3.69-3.56h0l-5.65,5.46c.89.22,1.54.71,1.97,1.48h0Z"/>
        <polygon class="cls-7" points="175.97 119.46 169.39 125.81 169.39 125.81 175.97 119.46 175.97 119.46"/>
        <path class="cls-7" d="M174.76,119.32c-1.6,0-2.9.58-3.89,1.74s-1.49,2.71-1.49,4.63v.12l6.59-6.36c-.36-.09-.77-.14-1.21-.14h0Z"/>
        <path class="cls-7" d="M177.93,117.56v3.36h0c-.42-.75-1.08-1.24-1.97-1.47l-6.59,6.36c.02,1.86.47,3.18,1.35,4.19.9,1.03,2.08,1.54,3.56,1.54,1.6,0,2.82-.63,3.65-1.89h.04v1.61h3.64v-17.26l-3.69,3.56h0ZM178.06,125.59c0,.96-.23,1.74-.7,2.32-.47.58-1.06.88-1.8.88-.77,0-1.38-.28-1.82-.83s-.66-1.34-.66-2.37c0-1.09.23-1.95.68-2.58.45-.63,1.08-.94,1.89-.94.71,0,1.29.25,1.74.75.45.5.67,1.13.67,1.89v.88h0Z"/>
      </g>
    </g>
  </g>
</svg>