<?xml version="1.0" encoding="UTF-8"?>
<svg id="Layer_1" data-name="Layer 1" xmlns="http://www.w3.org/2000/svg" viewBox="0 0 50 50">
  <defs>
    <style>
      .cls-1 {
        fill: #2563eb;
      }
    </style>
  </defs>
  <path class="cls-1" d="M23.14,35.35c.1.1.22.15.35.15.06,0,.13,0,.19-.04.19-.08.31-.26.31-.46V15c0-.2-.12-.38-.31-.46-.19-.08-.4-.03-.54.11l-5.69,5.68h-5.68c-.28,0-.5.22-.5.5v8.35c0,.28.22.5.5.5h5.68l5.69,5.68h0ZM12.28,21.32h5.38c.13,0,.26-.05.35-.15l4.98-4.97v17.59l-4.98-4.97c-.09-.09-.22-.15-.35-.15h-5.38v-7.35Z"/>
  <path class="cls-1" d="M35.72,24.4c0,3.5-1.56,6.77-4.28,8.97-.21.17-.25.49-.07.7.1.12.24.19.39.19.11,0,.22-.04.31-.11,2.96-2.39,4.65-5.95,4.65-9.75s-1.7-7.35-4.65-9.75c-.21-.17-.53-.14-.7.07s-.14.53.07.7c2.72,2.2,4.28,5.47,4.28,8.97h0Z"/>
  <path class="cls-1" d="M28.57,30.19c-.21.17-.25.49-.07.7.1.12.24.19.39.19.11,0,.22-.04.31-.11,1.99-1.61,3.13-4,3.13-6.56s-1.14-4.95-3.13-6.56c-.21-.17-.53-.14-.7.07s-.14.53.07.7c1.75,1.42,2.76,3.53,2.76,5.79s-1.01,4.37-2.76,5.79h0Z"/>
  <path class="cls-1" d="M25.69,27.46c.1.12.24.19.39.19.11,0,.22-.04.31-.11.95-.77,1.5-1.91,1.5-3.13s-.54-2.36-1.5-3.13c-.21-.17-.53-.14-.7.07s-.14.53.07.7c.71.58,1.12,1.44,1.12,2.36s-.41,1.78-1.12,2.36c-.21.17-.25.49-.07.7h0Z"/>
</svg>