<?xml version="1.0" encoding="UTF-8"?>
<svg id="Layer_1" data-name="Layer 1" xmlns="http://www.w3.org/2000/svg" viewBox="0 0 50 50">
  <defs>
    <style>
      .cls-1 {
        fill: #2563eb;
      }
    </style>
  </defs>
  <path class="cls-1" d="M26.26,30.8c0-.55-.21-.99-.62-1.33-.41-.33-.96-.5-1.65-.5h-2.06v5.8h1.13v-2.14h.83l1.19,2.14h1.31l-1.35-2.31c.39-.14.69-.36.9-.65.21-.29.32-.63.32-1.02h0ZM24.8,31.41c-.18.15-.42.23-.71.23h-1.02v-1.67h1.02c.3,0,.53.08.71.23.18.15.27.35.27.6s-.09.46-.27.61Z"/>
  <polygon class="cls-1" points="31.23 30.03 31.23 28.97 27.47 28.97 27.47 34.77 31.23 34.77 31.23 33.7 28.61 33.7 28.61 32.38 30.87 32.38 30.87 31.31 28.61 31.31 28.61 30.03 31.23 30.03"/>
  <path class="cls-1" d="M34.96,29.97c.52,0,.98.17,1.38.52l.75-.86c-.53-.53-1.25-.8-2.14-.8-.82,0-1.52.3-2.1.89-.58.59-.88,1.3-.88,2.14s.29,1.54.86,2.14c.57.59,1.28.89,2.12.89.92,0,1.64-.27,2.14-.82l-.75-.83c-.33.35-.77.52-1.31.52s-.97-.18-1.32-.55c-.36-.37-.53-.82-.53-1.34s.17-.98.52-1.35c.34-.37.76-.55,1.26-.55Z"/>
  <circle class="cls-1" cx="17.46" cy="31.95" r="2.26"/>
  <path class="cls-1" d="M33.14,17.11h-.13c-1.33-3.29-4.57-5.47-8.17-5.47-4.85,0-8.8,3.9-8.8,8.7,0,.28.02.57.05.86-2.25.91-3.74,3.08-3.74,5.52,0,.79.15,1.55.45,2.27.08.19.27.31.46.31.06,0,.13-.01.19-.04.25-.11.38-.4.27-.65-.25-.6-.38-1.23-.38-1.89,0-2.14,1.39-4.04,3.45-4.71.23-.08.38-.31.34-.56-.06-.39-.1-.76-.1-1.11,0-4.25,3.5-7.7,7.8-7.7,3.31,0,6.27,2.07,7.36,5.16.08.22.3.36.52.33.14-.01.28-.02.42-.02,3.79,0,6.88,3.05,6.88,6.79,0,1.55-.12,2.36-.83,3.37-.16.23-.11.54.12.7.09.06.19.09.29.09.16,0,.31-.07.41-.21.94-1.33,1.02-2.48,1.02-3.95,0-4.3-3.54-7.79-7.88-7.79Z"/>
</svg>