<?xml version="1.0" encoding="UTF-8"?>
<svg id="Layer_1" data-name="Layer 1" xmlns="http://www.w3.org/2000/svg" viewBox="0 0 50 50">
  <defs>
    <style>
      .cls-1 {
        fill: #2563eb;
      }
    </style>
  </defs>
  <path class="cls-1" d="M21.11,19.55c-.15.09-.25.25-.25.43v10.04c0,.18.1.34.25.43.08.04.16.07.25.07s.17-.02.25-.07l8.7-5.02c.15-.09.25-.25.25-.43s-.1-.34-.25-.43l-8.7-5.02c-.15-.09-.35-.09-.5,0ZM21.86,20.84l7.2,4.16-7.2,4.15v-8.31Z"/>
  <path class="cls-1" d="M14.54,34.39c.09.07.2.11.31.11.15,0,.29-.06.39-.19.17-.21.14-.53-.08-.7-2.3-1.86-3.75-4.5-4.06-7.44-.32-2.94.53-5.83,2.39-8.13.49-.61,1.04-1.16,1.64-1.65.21-.17.25-.49.07-.7-.17-.21-.49-.25-.7-.07-.66.53-1.26,1.14-1.79,1.8-2.02,2.51-2.95,5.66-2.6,8.87.35,3.21,1.92,6.09,4.43,8.11h0Z"/>
  <path class="cls-1" d="M17.9,19.45c.21-.17.25-.49.07-.7-.17-.21-.49-.25-.7-.07-.44.36-.85.77-1.21,1.21-2.81,3.49-2.26,8.62,1.23,11.44.09.07.2.11.31.11.15,0,.29-.06.39-.19.17-.21.14-.53-.08-.7-3.06-2.47-3.55-6.97-1.08-10.03.31-.39.67-.75,1.06-1.06h.01Z"/>
  <path class="cls-1" d="M35.73,15.62c-.21-.18-.53-.15-.7.06-.18.21-.15.53.06.7,2.25,1.92,3.61,4.61,3.84,7.55.23,2.95-.7,5.81-2.62,8.06-.51.59-1.07,1.13-1.69,1.6-.22.17-.26.48-.09.7.1.13.25.2.4.2.11,0,.21-.03.3-.1.67-.51,1.29-1.1,1.84-1.75,2.1-2.45,3.11-5.57,2.86-8.79-.25-3.22-1.74-6.14-4.19-8.24h-.01Z"/>
  <path class="cls-1" d="M32.24,31.36c.11,0,.21-.03.3-.1.45-.35.87-.74,1.24-1.18,1.41-1.65,2.1-3.75,1.93-5.92s-1.17-4.14-2.82-5.55c-.21-.18-.53-.16-.7.06-.18.21-.15.53.06.7,1.45,1.24,2.33,2.97,2.48,4.87s-.45,3.74-1.69,5.19c-.32.38-.69.73-1.09,1.03-.22.17-.26.48-.09.7.1.13.25.2.4.2h-.02Z"/>
</svg>