<?xml version="1.0" encoding="UTF-8"?>
<svg id="Layer_1" data-name="Layer 1" xmlns="http://www.w3.org/2000/svg" viewBox="0 0 50 50">
  <defs>
    <style>
      .cls-1 {
        fill: #2563eb;
      }
    </style>
  </defs>
  <path class="cls-1" d="M22.35,29.15v.74c-.04.14-.07.28-.07.43v2.44c0,.83.68,1.51,1.51,1.51h.51c.83,0,1.51-.68,1.51-1.51v-2.44c0-.83-.68-1.51-1.51-1.51h-.51c-.15,0-.29.03-.43.07.14-2.99,2.61-5.38,5.63-5.38s5.49,2.39,5.63,5.37c-.13-.04-.27-.07-.42-.07h-.51c-.83,0-1.51.68-1.51,1.51v2.44c0,.83.68,1.51,1.51,1.51h.51c.18,0,.35-.04.51-.09v1.08l-3.73,1.24h-1.67c-.28,0-.5.22-.5.5s.22.5.5.5h1.75s.11,0,.16-.03l4.15-1.38c.2-.07.34-.26.34-.47v-5.3c0-.16-.03-.32-.08-.46v-.71c0-3.67-2.98-6.65-6.65-6.65s-6.65,2.98-6.65,6.65h.02ZM23.79,29.81h.51c.28,0,.51.23.51.51v2.44c0,.28-.23.51-.51.51h-.51c-.28,0-.51-.23-.51-.51v-2.44c0-.28.23-.51.51-.51ZM34.21,33.27h-.51c-.28,0-.51-.23-.51-.51v-2.44c0-.28.23-.51.51-.51h.51c.28,0,.51.23.51.51v2.44c0,.28-.23.51-.51.51Z"/>
  <path class="cls-1" d="M13.38,29.48h5.4c.28,0,.5-.22.5-.5s-.22-.5-.5-.5h-4.9v-10.61h15.83v2.13c0,.28.22.5.5.5s.5-.22.5-.5v-2.63c0-.28-.22-.5-.5-.5h-5.3v-1.87c0-.28-.22-.5-.5-.5h-5.12c-.28,0-.5.22-.5.5v1.87h-5.41c-.28,0-.5.22-.5.5v11.61c0,.28.22.5.5.5ZM19.79,15.5h4.12v1.37h-4.12v-1.37Z"/>
</svg>