<?xml version="1.0" encoding="UTF-8"?>
<svg id="Layer_1" xmlns="http://www.w3.org/2000/svg" viewBox="0 0 50 50">
  <!-- Generator: Adobe Illustrator 29.8.2, SVG Export Plug-In . SVG Version: 2.1.1 Build 3)  -->
  <defs>
		<style>.cls-1{fill:#2563eb;}</style>
  </defs>
  <path class="cls-1" d="M37.3,21.2c-.1,0-.2,0-.3,0l-4.6,3.3s0,0,0,0h-2.2v-.6c0-1.3-1-2.3-2.3-2.3h-.2c1.2-.8,2.1-2.1,2.1-3.7,0-2.4-2-4.4-4.4-4.4s-3.4,1.1-4.1,2.8c-.6-1.6-2.2-2.8-4.1-2.8s-4.4,2-4.4,4.4.8,2.9,2.1,3.7h0c-1.3,0-2.3,1-2.3,2.3v9.9c0,1.3,1,2.3,2.3,2.3h12.9c1.3,0,2.3-1,2.3-2.3v-.6h2.2l4.7,3.3c0,0,.1,0,.2,0s.1,0,.1,0c.1,0,.2-.2.2-.3v-14.7c0-.1,0-.2-.2-.3h0ZM25.3,14.1c2,0,3.7,1.7,3.7,3.7s-1.7,3.7-3.7,3.7-3.7-1.7-3.7-3.7,1.7-3.7,3.7-3.7h0ZM23,21.6h-3.6c.8-.5,1.4-1.2,1.8-2.1.4.9,1,1.6,1.8,2.1h0ZM13.4,17.9c0-2,1.7-3.7,3.7-3.7s3.7,1.7,3.7,3.7-1.7,3.7-3.7,3.7-3.7-1.7-3.7-3.7ZM29.4,33.8c0,.9-.7,1.7-1.7,1.7h-12.9c-.9,0-1.7-.7-1.7-1.7v-9.9c0-.9.7-1.7,1.7-1.7h12.9c.9,0,1.7.7,1.7,1.7v9.9ZM31.9,32.5h-1.9v-7.4h1.9v7.4ZM36.8,35.6l-4.2-2.9v-7.5l4.2-3v13.4h0Z"/>
  <path class="cls-1" d="M25.2,28.4l-6-4.3c0,0-.2,0-.3,0-.1,0-.2.2-.2.3v8.6c0,.1,0,.2.2.3,0,0,0,0,.1,0s.1,0,.2,0l6-4.3c0,0,.1-.2.1-.3s0-.2-.1-.3h0ZM19.4,32.4v-7.3l5.1,3.7-5.1,3.7h0Z"/>
</svg>