<?xml version="1.0" encoding="UTF-8"?>
<svg id="Layer_1" data-name="Layer 1" xmlns="http://www.w3.org/2000/svg" viewBox="0 0 50 50">
  <defs>
    <style>
      .cls-1 {
        fill: #2563eb;
      }
    </style>
  </defs>
  <path class="cls-1" d="M15.33,32.35h.94c1.31,0,2.37-1.06,2.37-2.37v-4.53c0-1.31-1.06-2.37-2.37-2.37h-.94c-.46,0-.88.14-1.24.36v-.16c0-6.01,4.89-10.9,10.9-10.9s10.9,4.89,10.9,10.9v.15c-.36-.22-.77-.35-1.22-.35h-.94c-1.31,0-2.37,1.06-2.37,2.37v4.53c0,1.31,1.06,2.37,2.37,2.37h.94c.51,0,.98-.17,1.37-.44v2.04l-7.27,2.42h-3.16c-.28,0-.5.22-.5.5s.22.5.5.5h3.24s.11,0,.16-.03l7.69-2.56c.2-.07.34-.26.34-.47v-4.05s0-.06-.02-.09c0-.06.02-.12.02-.19v-4.53c0-.28-.06-.55-.15-.8h0v-1.36c0-6.56-5.34-11.9-11.9-11.9s-11.9,5.34-11.9,11.9v1.43c-.08.23-.13.48-.13.74v4.53c0,1.31,1.06,2.37,2.37,2.37h0ZM34.67,31.35h-.94c-.76,0-1.37-.62-1.37-1.37v-4.53c0-.76.62-1.37,1.37-1.37h.94c.76,0,1.37.62,1.37,1.37v4.53c0,.76-.62,1.37-1.37,1.37ZM15.33,24.07h.94c.76,0,1.37.62,1.37,1.37v4.53c0,.76-.62,1.37-1.37,1.37h-.94c-.76,0-1.37-.62-1.37-1.37v-4.53c0-.76.62-1.37,1.37-1.37Z"/>
</svg>