<?xml version="1.0" encoding="UTF-8"?>
<svg id="Layer_1" data-name="Layer 1" xmlns="http://www.w3.org/2000/svg" viewBox="0 0 50 50">
  <defs>
    <style>
      .cls-1 {
        fill: #2563eb;
      }
    </style>
  </defs>
  <path class="cls-1" d="M14.04,33.91h3.55l2.59,3.14c.09.11.23.18.38.18h0c.15,0,.28-.06.38-.17l2.69-3.14h12.31c1.05,0,1.9-.85,1.9-1.9v-13.33c0-1.05-.85-1.9-1.9-1.9H14.04c-1.05,0-1.9.85-1.9,1.9v13.33c0,1.05.85,1.9,1.9,1.9h0ZM13.14,18.68c0-.5.4-.9.9-.9h21.91c.5,0,.9.41.9.9v13.33c0,.5-.4.9-.9.9h-12.54c-.15,0-.28.06-.38.17l-2.46,2.87-2.36-2.86c-.1-.11-.24-.18-.39-.18h-3.79c-.5,0-.9-.41-.9-.9v-13.33h.01Z"/>
  <path class="cls-1" d="M21.3,29.85c1.35,0,2.39-.4,3.13-1.2l-1.09-1.21c-.48.51-1.12.77-1.91.77s-1.42-.27-1.93-.8c-.52-.55-.78-1.2-.78-1.95s.25-1.43.76-1.97c.5-.54,1.11-.8,1.83-.8s1.43.26,2.02.77l1.09-1.25c-.77-.77-1.82-1.16-3.13-1.16-1.2,0-2.22.43-3.06,1.29-.85.85-1.28,1.89-1.28,3.13s.42,2.25,1.25,3.11c.84.86,1.86,1.29,3.09,1.29v-.02Z"/>
  <path class="cls-1" d="M29.63,29.85c1.35,0,2.39-.4,3.13-1.2l-1.09-1.21c-.48.51-1.12.77-1.91.77s-1.42-.27-1.93-.8c-.52-.55-.78-1.2-.78-1.95s.25-1.43.76-1.97c.5-.54,1.11-.8,1.83-.8s1.43.26,2.02.77l1.09-1.25c-.77-.77-1.82-1.16-3.13-1.16-1.2,0-2.22.43-3.06,1.29-.85.85-1.28,1.89-1.28,3.13s.42,2.25,1.25,3.11c.84.86,1.86,1.29,3.09,1.29v-.02Z"/>
</svg>