<?xml version="1.0" encoding="UTF-8"?>
<svg id="Layer_1" data-name="Layer 1" xmlns="http://www.w3.org/2000/svg" viewBox="0 0 50 50">
  <defs>
    <style>
      .cls-1 {
        fill: #2563eb;
      }
    </style>
  </defs>
  <path class="cls-1" d="M19.11,28.18l5.02,8.08c.09.15.25.24.42.24h8.47c.28,0,.5-.22.5-.5V14c0-.28-.22-.5-.5-.5h-8.47c-.17,0-.33.09-.42.23l-5.02,7.94h-8.14c-.28,0-.5.22-.5.5v5.51c0,.28.22.5.5.5h8.14ZM11.48,22.67h7.92c.17,0,.33-.09.42-.23l5.02-7.94h7.69v21h-7.69l-5.02-8.08c-.09-.15-.25-.24-.42-.24h-7.92s0-4.51,0-4.51Z"/>
</svg>