<?xml version="1.0" encoding="UTF-8"?>
<svg id="Layer_1" data-name="Layer 1" xmlns="http://www.w3.org/2000/svg" viewBox="0 0 50 50">
  <defs>
    <style>
      .cls-1 {
        fill: #2563eb;
      }
    </style>
  </defs>
  <path class="cls-1" d="M10.93,26.17c-.32-2.94.53-5.83,2.39-8.13.49-.6,1.04-1.16,1.65-1.65.21-.17.25-.49.07-.7-.17-.21-.49-.25-.7-.07-.66.53-1.26,1.14-1.79,1.8-2.02,2.51-2.95,5.66-2.6,8.87s1.92,6.09,4.43,8.11c.09.07.2.11.31.11.15,0,.29-.06.39-.19.17-.21.14-.53-.08-.7-2.3-1.86-3.75-4.5-4.06-7.44h-.01Z"/>
  <path class="cls-1" d="M15.13,25.75c-.2-1.9.34-3.76,1.54-5.24.31-.39.67-.75,1.06-1.06.21-.17.25-.49.07-.7-.17-.21-.49-.25-.7-.07-.44.36-.85.77-1.21,1.21-1.36,1.69-1.99,3.81-1.75,5.97s1.29,4.1,2.99,5.46c.09.07.2.11.31.11.15,0,.29-.06.39-.19.17-.21.14-.53-.08-.7-1.48-1.2-2.41-2.9-2.62-4.79Z"/>
  <path class="cls-1" d="M37.43,18.65h-16.12c-.28,0-.5.22-.5.5v11.71c0,.28.22.5.5.5h16.12c.28,0,.5-.22.5-.5v-11.71c0-.28-.22-.5-.5-.5ZM36.93,30.36h-15.12v-10.71h15.12v10.71Z"/>
</svg>