<?xml version="1.0" encoding="UTF-8"?>
<svg id="Layer_1" data-name="Layer 1" xmlns="http://www.w3.org/2000/svg" viewBox="0 0 50 50">
  <defs>
    <style>
      .cls-1 {
        fill: #2563eb;
      }
    </style>
  </defs>
  <path class="cls-1" d="M15.98,36.5h8.47c.17,0,.33-.09.42-.24l5.02-8.08h8.14c.28,0,.5-.22.5-.5v-5.51c0-.28-.22-.5-.5-.5h-8.14l-5.02-7.94c-.09-.15-.25-.23-.42-.23h-8.47c-.28,0-.5.22-.5.5v22c0,.28.22.5.5.5ZM16.48,14.5h7.69l5.02,7.94c.09.15.25.23.42.23h7.92v4.51h-7.92c-.17,0-.33.09-.42.24l-5.02,8.08h-7.69s0-21,0-21Z"/>
</svg>