<?xml version="1.0" encoding="UTF-8"?>
<svg id="Layer_1" data-name="Layer 1" xmlns="http://www.w3.org/2000/svg" viewBox="0 0 50 50">
  <defs>
    <style>
      .cls-1 {
        fill: #2563eb;
      }
    </style>
  </defs>
  <path class="cls-1" d="M41.64,23.44c-.67,0-1.23.44-1.42,1.05h-7.49v-3.5c1.45-.12,3.22-.49,4.49-1.47.25.18.55.28.87.28.83,0,1.5-.67,1.5-1.5s-.67-1.5-1.5-1.5-1.5.67-1.5,1.5c0,.14.02.27.06.39-1.09.87-2.75,1.19-3.92,1.29v-1.96c0-.28-.22-.5-.5-.5h-14.44c-.28,0-.5.22-.5.5v1.96c-1.31-.11-2.88-.45-3.92-1.29.03-.13.06-.25.06-.39,0-.83-.67-1.5-1.5-1.5s-1.5.67-1.5,1.5.67,1.5,1.5,1.5c.33,0,.63-.11.87-.29,1.26.98,3.03,1.35,4.49,1.47v3.5h-7.5c-.19-.61-.75-1.05-1.42-1.05-.83,0-1.5.67-1.5,1.5s.67,1.5,1.5,1.5c.63,0,1.17-.39,1.39-.95h7.53v3.51c-1.45.12-3.21.49-4.48,1.48-.25-.18-.55-.29-.88-.29-.83,0-1.5.67-1.5,1.5s.67,1.5,1.5,1.5,1.5-.67,1.5-1.5c0-.13-.02-.26-.05-.38,1.06-.85,2.61-1.19,3.92-1.3v1.84c0,.28.22.5.5.5h14.44c.28,0,.5-.22.5-.5v-1.84c1.17.11,2.83.42,3.91,1.3-.03.12-.06.25-.06.38,0,.83.67,1.5,1.5,1.5s1.5-.67,1.5-1.5-.67-1.5-1.5-1.5c-.33,0-.63.11-.88.29-1.27-.98-3.03-1.36-4.48-1.47v-3.51h7.52c.22.55.76.95,1.39.95.83,0,1.5-.67,1.5-1.5s-.67-1.5-1.5-1.5ZM31.72,31.34h-13.44v-12.81h13.44v6.46h0v6.34h0Z"/>
</svg>