<?xml version="1.0" encoding="UTF-8"?>
<svg id="Layer_1" data-name="Layer 1" xmlns="http://www.w3.org/2000/svg" viewBox="0 0 50 50">
  <defs>
    <style>
      .cls-1 {
        fill: #2563eb;
      }
    </style>
  </defs>
  <path class="cls-1" d="M22.33,17.98c-.15-.09-.35-.09-.5,0s-.25.25-.25.43v7.86c0,.18.1.34.25.43.08.04.16.07.25.07s.17-.02.25-.07l6.81-3.93c.15-.09.25-.25.25-.43s-.1-.34-.25-.43l-6.81-3.93ZM22.58,25.41v-6.13l5.31,3.07-5.31,3.07h0Z"/>
  <path class="cls-1" d="M14.86,14.97v2.97h-2.97c-.28,0-.5.22-.5.5v15.04c0,.28.22.5.5.5h12.5c.28,0,.5-.22.5-.5s-.22-.5-.5-.5h-12v-14.04h2.47v11.07c0,.28.22.5.5.5h7.61c.28,0,.5-.22.5-.5s-.22-.5-.5-.5h-7.11v-14.04h19.25v5.31c0,.28.22.5.5.5s.5-.22.5-.5v-5.81c0-.28-.22-.5-.5-.5H15.36c-.28,0-.5.22-.5.5Z"/>
  <path class="cls-1" d="M33.87,23.36c.24-.15.31-.45.16-.69-.15-.23-.45-.31-.69-.16l-1.96,1.21c-.13.08-.21.21-.23.35-.02.15.02.29.12.41l1.37,1.53c.1.11.24.17.37.17.12,0,.24-.04.33-.13.21-.18.22-.5.04-.71l-.7-.78c2.83.02,5.14,2.33,5.14,5.17v.04s-.02.06-.02.09c-.04,1.45-.68,2.82-1.78,3.78-.21.18-.23.5-.05.71.1.11.24.17.38.17.12,0,.23-.04.33-.12,1.3-1.14,2.08-2.78,2.12-4.51,0-.02,0-.04,0-.06,0-.03.02-.06.02-.1,0-3.13-2.35-5.72-5.37-6.12l.41-.25h.02Z"/>
  <path class="cls-1" d="M27.48,29.73c0-1.48.64-2.89,1.74-3.87.21-.18.23-.5.04-.71-.18-.21-.5-.23-.71-.04-1.32,1.17-2.08,2.86-2.08,4.62,0,3.15,2.37,5.75,5.41,6.12l-.4.25c-.24.15-.31.45-.16.69.09.15.26.24.43.24.09,0,.18-.02.26-.07l1.96-1.21c.13-.08.21-.21.23-.35.02-.15-.02-.29-.12-.41l-1.37-1.53c-.18-.21-.5-.22-.71-.04s-.22.5-.04.71l.7.79h-.02c-2.85,0-5.18-2.32-5.18-5.18h.02Z"/>
</svg>