<?xml version="1.0" encoding="UTF-8"?>
<svg id="Layer_1" data-name="Layer 1" xmlns="http://www.w3.org/2000/svg" viewBox="0 0 50 50">
  <defs>
    <style>
      .cls-1 {
        fill: #2563eb;
      }
    </style>
  </defs>
  <path class="cls-1" d="M29.86,22.38c0-.18-.1-.34-.25-.43l-6.81-3.93c-.15-.09-.35-.09-.5,0s-.25.25-.25.43v7.86c0,.18.1.34.25.43.08.04.16.07.25.07s.17-.02.25-.07l6.81-3.93c.15-.09.25-.25.25-.43ZM23.05,25.44v-6.13l5.31,3.07-5.31,3.07h0Z"/>
  <path class="cls-1" d="M33.46,27.38c-1.27,0-2.31,1.05-2.31,2.33s1.04,2.33,2.31,2.33,2.31-1.05,2.31-2.33-1.04-2.33-2.31-2.33ZM33.46,31.04c-.72,0-1.31-.6-1.31-1.33s.59-1.33,1.31-1.33,1.31.6,1.31,1.33-.59,1.33-1.31,1.33Z"/>
  <path class="cls-1" d="M34.91,24.92l-.19-1.29c-.04-.25-.25-.43-.49-.43h-1.57c-.25,0-.46.19-.49.44l-.17,1.29c-.32.1-.62.22-.91.38l-1.03-.78c-.2-.15-.48-.13-.66.05l-1.11,1.11c-.18.18-.19.46-.04.66l.78,1c-.16.29-.29.6-.39.92l-1.28.19c-.25.04-.43.25-.43.5v1.57c0,.25.19.46.44.49l1.25.16c.1.32.22.63.38.92l-.76,1.04c-.15.2-.12.48.05.65l1.11,1.11c.18.18.45.19.65.04l1.03-.77c.29.15.59.28.9.37l.2,1.28c.04.24.25.42.49.42h1.57c.25,0,.46-.19.49-.44l.17-1.27c.31-.1.62-.22.91-.38l1.04.77c.2.15.48.13.65-.05l1.11-1.11c.18-.18.19-.46.04-.66l-.78-1.02c.15-.29.28-.59.37-.9l1.28-.2c.24-.04.42-.25.42-.5v-1.57c0-.25-.19-.46-.44-.49l-1.27-.17c-.1-.32-.23-.62-.39-.92l.78-1.03c.15-.2.13-.48-.05-.66l-1.11-1.11c-.18-.18-.46-.19-.66-.04l-1.04.79c-.29-.15-.59-.27-.89-.37h.04ZM36.14,26.28l.96-.73.5.49-.72.95c-.13.17-.13.39-.02.57.25.38.42.8.53,1.25.05.2.22.36.42.38l1.17.15v.7l-1.17.18c-.2.03-.37.18-.41.38-.1.43-.27.85-.51,1.23-.11.18-.1.4.03.57l.71.94-.5.5-.96-.71c-.17-.12-.39-.13-.56-.02-.38.24-.8.41-1.24.51-.2.05-.36.21-.38.42l-.15,1.17h-.7l-.18-1.17c-.03-.2-.18-.37-.38-.41-.43-.1-.85-.27-1.23-.51-.08-.05-.17-.08-.26-.08-.11,0-.21.03-.3.1l-.94.71-.5-.5.7-.96c.12-.17.13-.39.02-.56-.25-.39-.42-.81-.52-1.25-.05-.21-.22-.36-.43-.39l-1.15-.14v-.7l1.17-.18c.2-.03.37-.18.41-.38.1-.44.28-.86.53-1.25.11-.18.1-.41-.03-.58l-.72-.92.49-.49.95.72c.17.13.39.14.57.03.39-.24.81-.42,1.25-.52.2-.05.36-.22.39-.42l.15-1.18h.7l.17,1.19c.03.21.18.37.38.42.43.1.84.27,1.23.5.18.11.4.1.57-.03l-.04.02Z"/>
  <path class="cls-1" d="M24.66,34.01c.28,0,.5-.22.5-.5s-.22-.5-.5-.5h-11.81v-14.04h2.47v11.07c0,.28.22.5.5.5h7.35c.28,0,.5-.22.5-.5s-.22-.5-.5-.5h-6.85v-14.04h19.25v4.63c0,.28.22.5.5.5s.5-.22.5-.5v-5.13c0-.28-.22-.5-.5-.5H15.83c-.28,0-.5.22-.5.5v2.97h-2.97c-.28,0-.5.22-.5.5v15.04c0,.28.22.5.5.5h12.31-.01Z"/>
</svg>