<?xml version="1.0" encoding="UTF-8"?>
<svg id="Layer_1" data-name="Layer 1" xmlns="http://www.w3.org/2000/svg" viewBox="0 0 50 50">
  <defs>
    <style>
      .cls-1 {
        fill: #2563eb;
      }
    </style>
  </defs>
  <path class="cls-1" d="M38.5,16.46h-6.19c-.17,0-.33.09-.42.23l-3.63,5.74h-5.88c-.28,0-.5.22-.5.5v4.03c0,.28.22.5.5.5h5.88l3.63,5.85c.09.15.25.24.42.24h6.19c.28,0,.5-.22.5-.5v-16.09c0-.28-.22-.5-.5-.5ZM38,32.54h-5.41l-3.63-5.85c-.09-.15-.25-.24-.42-.24h-5.65v-3.03h5.65c.17,0,.33-.09.42-.23l3.63-5.74h5.41v15.09Z"/>
  <path class="cls-1" d="M15.35,34.39c.09.07.2.11.31.11.15,0,.29-.06.39-.19.17-.21.14-.53-.08-.7-2.3-1.86-3.75-4.5-4.06-7.44-.32-2.94.53-5.83,2.39-8.13.49-.6,1.04-1.16,1.65-1.65.21-.17.25-.49.07-.7-.17-.21-.49-.25-.7-.07-.66.53-1.26,1.14-1.79,1.8-2.02,2.51-2.95,5.66-2.6,8.87.35,3.21,1.92,6.09,4.43,8.11h-.01Z"/>
  <path class="cls-1" d="M18.71,19.45c.21-.17.25-.49.07-.7-.17-.21-.49-.25-.7-.07-.44.36-.85.77-1.21,1.21-2.81,3.49-2.26,8.62,1.23,11.44.09.07.2.11.31.11.15,0,.29-.06.39-.19.17-.21.14-.53-.08-.7-3.06-2.47-3.55-6.97-1.08-10.03.32-.39.67-.75,1.06-1.06h.01Z"/>
</svg>