<?xml version="1.0" encoding="UTF-8"?>
<svg id="Layer_1" data-name="Layer 1" xmlns="http://www.w3.org/2000/svg" viewBox="0 0 50 50">
  <defs>
    <style>
      .cls-1 {
        fill: #2563eb;
      }
    </style>
  </defs>
  <rect class="cls-1" x="20.26" y="20.24" width="1.86" height="9.52"/>
  <path class="cls-1" d="M27.78,20.24h-3.39v9.52h1.86v-3.21h1.5c1.17,0,2.1-.29,2.79-.86.7-.58,1.05-1.35,1.05-2.3s-.35-1.71-1.04-2.29c-.69-.57-1.62-.86-2.78-.86h.01ZM29.16,24.49c-.31.28-.73.42-1.24.42h-1.68v-3.05h1.68c.52,0,.93.14,1.24.42s.47.64.47,1.1-.16.82-.47,1.11Z"/>
  <path class="cls-1" d="M33.81,16h-17.61c-1.3,0-2.35,1.05-2.35,2.35v13.3c0,1.3,1.05,2.35,2.35,2.35h17.61c1.3,0,2.35-1.05,2.35-2.35v-13.3c0-1.3-1.05-2.35-2.35-2.35ZM35.16,31.65c0,.74-.61,1.35-1.35,1.35h-17.61c-.74,0-1.35-.61-1.35-1.35v-13.3c0-.75.61-1.35,1.35-1.35h17.61c.74,0,1.35.61,1.35,1.35v13.3Z"/>
</svg>