<?xml version="1.0" encoding="UTF-8"?>
<svg id="Layer_5" data-name="Layer 5" xmlns="http://www.w3.org/2000/svg" viewBox="0 0 300 300">
  <defs>
    <style>
      .cls-1 {
        fill: #2563eb;
      }
    </style>
  </defs>
  <path class="cls-1" d="M194.94,214.95h-87.16c-1.1,0-2-.9-2-2s.9-2,2-2h87.16c1.1,0,2,.9,2,2s-.9,2-2,2Z"/>
  <g>
    <path class="cls-1" d="M216.45,136.05h-36c-1.1,0-2-.9-2-2v-34.69c0-1.1.9-2,2-2h36c1.1,0,2,.9,2,2v34.69c0,1.1-.9,2-2,2ZM182.45,132.05h32v-30.69h-32v30.69Z"/>
    <path class="cls-1" d="M123.45,136.05h-36c-1.1,0-2-.9-2-2v-34.69c0-1.1.9-2,2-2h36c1.1,0,2,.9,2,2v34.69c0,1.1-.9,2-2,2ZM89.45,132.05h32v-30.69h-32v30.69Z"/>
    <path class="cls-1" d="M169.45,136.05h-36c-1.1,0-2-.9-2-2v-34.69c0-1.1.9-2,2-2h36c1.1,0,2,.9,2,2v34.69c0,1.1-.9,2-2,2ZM135.45,132.05h32v-30.69h-32v30.69Z"/>
    <path class="cls-1" d="M216.45,181.05h-36c-1.1,0-2-.9-2-2v-34.69c0-1.1.9-2,2-2h36c1.1,0,2,.9,2,2v34.69c0,1.1-.9,2-2,2ZM182.45,177.05h32v-30.69h-32v30.69Z"/>
    <path class="cls-1" d="M123.45,181.05h-36c-1.1,0-2-.9-2-2v-34.69c0-1.1.9-2,2-2h36c1.1,0,2,.9,2,2v34.69c0,1.1-.9,2-2,2ZM89.45,177.05h32v-30.69h-32v30.69Z"/>
    <path class="cls-1" d="M169.45,181.05h-36c-1.1,0-2-.9-2-2v-34.69c0-1.1.9-2,2-2h36c1.1,0,2,.9,2,2v34.69c0,1.1-.9,2-2,2ZM135.45,177.05h32v-30.69h-32v30.69Z"/>
  </g>
  <path class="cls-1" d="M227.55,193.66H76.19c-1.1,0-2-.9-2-2v-104.41c0-1.1.9-2,2-2h151.36c1.1,0,2,.9,2,2v104.41c0,1.1-.9,2-2,2ZM78.19,189.66h147.36v-100.41H78.19v100.41Z"/>
</svg>