<?xml version="1.0" encoding="UTF-8"?>
<svg id="Layer_1" data-name="Layer 1" xmlns="http://www.w3.org/2000/svg" viewBox="0 0 50 50">
  <defs>
    <style>
      .cls-1 {
        fill: #2563eb;
      }
    </style>
  </defs>
  <path class="cls-1" d="M36.07,15.61c-.21-.17-.53-.14-.7.08-.17.21-.14.53.08.7,2.3,1.86,3.75,4.5,4.06,7.44.32,2.94-.53,5.83-2.39,8.13-.49.61-1.04,1.16-1.64,1.65-.21.17-.25.49-.07.7.1.12.24.19.39.19.11,0,.22-.04.31-.11.66-.53,1.26-1.14,1.79-1.8,2.02-2.51,2.95-5.66,2.6-8.87-.35-3.21-1.92-6.09-4.43-8.11Z"/>
  <path class="cls-1" d="M33.32,18.68c-.22-.17-.53-.14-.7.08-.17.21-.14.53.08.7,3.06,2.47,3.55,6.97,1.08,10.03-.31.39-.67.75-1.06,1.06-.21.17-.25.49-.07.7.1.12.24.18.39.18.11,0,.22-.04.31-.11.44-.36.85-.77,1.21-1.21,2.81-3.49,2.26-8.62-1.23-11.44h-.01Z"/>
  <path class="cls-1" d="M29.13,18.65H13.01c-.28,0-.5.22-.5.5v11.71c0,.28.22.5.5.5h16.12c.28,0,.5-.22.5-.5v-11.71c0-.28-.22-.5-.5-.5ZM28.63,30.36h-15.12v-10.71h15.12v10.71Z"/>
</svg>