<?xml version="1.0" encoding="UTF-8"?>
<svg id="Layer_1" data-name="Layer 1" xmlns="http://www.w3.org/2000/svg" viewBox="0 0 50 50">
  <defs>
    <style>
      .cls-1 {
        fill: #2563eb;
      }
    </style>
  </defs>
  <path class="cls-1" d="M20.95,19.79c-.15-.09-.35-.09-.5,0s-.25.25-.25.43v4.96c0,.18.1.34.25.43.08.04.16.07.25.07s.17-.02.25-.07l4.3-2.48c.15-.09.25-.25.25-.43s-.1-.34-.25-.43l-4.3-2.48ZM21.2,24.32v-3.23l2.8,1.62-2.8,1.62h0Z"/>
  <path class="cls-1" d="M37.04,25.32c0-3.38-2.74-6.14-6.12-6.16v-2.08c0-.28-.22-.5-.5-.5H13.46c-.28,0-.5.22-.5.5v11.24h0v4.01c0,.28.22.5.5.5h2.11c.09,1.2,1.09,2.16,2.32,2.16s2.23-.96,2.32-2.16h9.91c.09,1.2,1.09,2.16,2.32,2.16s2.23-.96,2.32-2.16h1.79c.28,0,.5-.22.5-.5v-4h0v-3.01h0ZM36.04,25.32v2.51h-5.12v-7.68c2.83.03,5.12,2.33,5.12,5.17ZM13.96,17.58h15.96v10.25h-15.96v-10.25ZM17.89,34c-.74,0-1.34-.6-1.34-1.34,0-.08,0-.15.02-.23.11-.64.67-1.11,1.32-1.11s1.21.47,1.32,1.12c.01.07.02.15.02.22,0,.74-.6,1.34-1.34,1.34ZM32.43,34c-.74,0-1.34-.6-1.34-1.34,0-.08,0-.15.02-.23.11-.64.67-1.11,1.32-1.11s1.21.47,1.32,1.12c0,.07.02.15.02.22,0,.74-.6,1.34-1.34,1.34ZM36.05,31.84h-1.42c-.04-.12-.1-.23-.16-.34-.02-.04-.04-.07-.07-.1-.05-.07-.1-.15-.15-.21-.03-.04-.06-.07-.1-.11-.05-.06-.11-.11-.17-.17-.04-.03-.08-.06-.12-.1-.06-.05-.12-.09-.19-.13-.04-.03-.09-.05-.13-.08-.07-.04-.14-.07-.21-.1-.05-.02-.09-.04-.14-.06-.08-.03-.17-.05-.25-.07-.04,0-.08-.02-.12-.03-.13-.02-.26-.04-.39-.04s-.27.01-.39.03c-.04,0-.08.02-.12.03-.08.02-.17.04-.25.07-.05.02-.09.04-.14.06-.07.03-.14.06-.21.1-.05.03-.09.05-.14.08-.06.04-.12.08-.18.12-.04.03-.09.07-.13.11l-.15.15s-.08.08-.11.13c-.04.05-.08.11-.12.17-.03.05-.06.09-.09.14-.05.09-.09.18-.13.28,0,.02-.02.04-.03.06h-10.17c-.04-.12-.1-.23-.16-.34-.02-.04-.04-.07-.07-.1-.05-.07-.1-.15-.15-.21-.03-.04-.06-.07-.1-.11-.05-.06-.11-.11-.17-.17-.04-.03-.08-.06-.12-.1-.06-.05-.12-.09-.19-.13-.04-.03-.09-.05-.13-.08-.07-.04-.14-.07-.21-.1-.05-.02-.09-.04-.14-.06-.08-.03-.17-.05-.25-.07-.04,0-.08-.02-.12-.03-.13-.02-.26-.04-.39-.04s-.27.01-.39.03c-.04,0-.08.02-.12.03-.08.02-.17.04-.25.07-.05.02-.09.04-.14.06-.07.03-.14.06-.2.1-.05.03-.1.05-.14.08-.06.04-.12.08-.17.12s-.09.07-.13.11c-.05.04-.09.09-.14.14-.04.04-.08.09-.12.14s-.07.1-.11.15-.07.1-.1.16c-.04.07-.07.14-.1.2-.02.04-.04.09-.06.13h-1.74v-3h22.09v3.03Z"/>
</svg>