<?xml version="1.0" encoding="UTF-8"?>
<svg id="Layer_1" data-name="Layer 1" xmlns="http://www.w3.org/2000/svg" viewBox="0 0 50 50">
  <defs>
    <style>
      .cls-1 {
        fill: #2563eb;
      }
    </style>
  </defs>
  <path class="cls-1" d="M37.18,15.75H12.82c-.28,0-.5.22-.5.5v17.34c0,.28.22.5.5.5h11.68v3h-5.09c-.28,0-.5.22-.5.5s.22.5.5.5h10.98c.28,0,.5-.22.5-.5s-.22-.5-.5-.5h-4.89v-3h11.68c.28,0,.5-.22.5-.5v-17.34c0-.28-.22-.5-.5-.5ZM36.68,33.09H13.32v-16.34h23.36v16.34Z"/>
  <path class="cls-1" d="M20.09,29.46h7.29c.92,0,1.66-.72,1.71-1.63l1.91.56s.09.02.14.02c.11,0,.21-.03.3-.1.13-.09.2-.24.2-.4v-5.83c0-.16-.07-.31-.2-.4-.13-.09-.29-.12-.44-.08l-1.91.56c-.05-.9-.79-1.63-1.71-1.63h-7.29c-.95,0-1.72.77-1.72,1.71v5.49c0,.95.77,1.72,1.72,1.72h0ZM30.63,27.25l-1.54-.45v-3.59l1.54-.45s0,4.49,0,4.49ZM19.37,22.25c0-.39.32-.71.72-.71h7.29c.39,0,.72.32.72.71v5.49c0,.39-.32.72-.72.72h-7.29c-.39,0-.72-.32-.72-.72v-5.49Z"/>
</svg>