<?xml version="1.0" encoding="UTF-8"?>
<svg id="Layer_1" data-name="Layer 1" xmlns="http://www.w3.org/2000/svg" viewBox="0 0 50 50">
  <defs>
    <style>
      .cls-1 {
        fill: #2563eb;
      }
    </style>
  </defs>
  <path class="cls-1" d="M37.19,15.56H12.84c-.28,0-.5.22-.5.5v17.34c0,.28.22.5.5.5h11.68v3h-5.09c-.28,0-.5.22-.5.5s.22.5.5.5h10.98c.28,0,.5-.22.5-.5s-.22-.5-.5-.5h-4.89v-3h11.68c.28,0,.5-.22.5-.5v-17.34c0-.28-.22-.5-.5-.5h-.01ZM36.69,32.9H13.34v-16.34h23.36v16.34h-.01Z"/>
  <path class="cls-1" d="M21.62,29.63c.09,0,.17-.02.25-.07l7.79-4.5c.15-.09.25-.25.25-.43s-.1-.34-.25-.43l-7.79-4.5c-.15-.09-.35-.09-.5,0s-.25.25-.25.43v9c0,.18.1.34.25.43.08.04.16.07.25.07ZM22.12,21l6.29,3.63-6.29,3.63v-7.27h0Z"/>
</svg>