<?xml version="1.0" encoding="UTF-8"?>
<svg id="Layer_1" data-name="Layer 1" xmlns="http://www.w3.org/2000/svg" viewBox="0 0 50 50">
  <defs>
    <style>
      .cls-1 {
        fill: #2563eb;
      }
    </style>
  </defs>
  <path class="cls-1" d="M25.17,23.47c0-.78-.3-1.42-.89-1.9-.59-.47-1.37-.71-2.35-.71h-2.95v8.29h1.62v-3.05h1.19l1.7,3.05h1.88l-1.93-3.3c.55-.21.98-.52,1.29-.92.31-.41.46-.89.46-1.46h-.02ZM23.07,24.34c-.26.22-.6.33-1.02.33h-1.46v-2.39h1.46c.42,0,.76.11,1.02.33s.39.51.39.86-.13.65-.39.87Z"/>
  <polygon class="cls-1" points="32.27 22.37 32.27 20.85 26.9 20.85 26.9 29.15 32.27 29.15 32.27 27.62 28.52 27.62 28.52 25.73 31.75 25.73 31.75 24.2 28.52 24.2 28.52 22.37 32.27 22.37"/>
  <path class="cls-1" d="M37.6,22.29c.74,0,1.4.25,1.98.75l1.07-1.23c-.76-.76-1.78-1.14-3.07-1.14-1.17,0-2.17.42-3,1.27-.84.84-1.26,1.86-1.26,3.07s.41,2.21,1.23,3.05c.82.85,1.83,1.27,3.03,1.27,1.32,0,2.34-.39,3.07-1.18l-1.07-1.19c-.47.5-1.1.75-1.88.75s-1.39-.26-1.89-.79c-.51-.53-.76-1.17-.76-1.91s.25-1.4.75-1.93c.49-.53,1.09-.79,1.8-.79Z"/>
  <path class="cls-1" d="M15.81,25.12c0-1.79-1.45-3.23-3.23-3.23s-3.23,1.45-3.23,3.23,1.45,3.23,3.23,3.23,3.23-1.45,3.23-3.23Z"/>
</svg>