<?xml version="1.0" encoding="UTF-8"?>
<svg id="Layer_1" data-name="Layer 1" xmlns="http://www.w3.org/2000/svg" viewBox="0 0 50 50">
  <defs>
    <style>
      .cls-1 {
        fill: #2563eb;
      }
    </style>
  </defs>
  <path class="cls-1" d="M28.75,36.64c5.4-1.6,9.17-6.56,9.17-12.06,0-4.2-2.26-8.41-5.75-10.73-.23-.15-.54-.09-.69.14-.15.23-.09.54.14.69,3.22,2.14,5.3,6.02,5.3,9.89,0,5.15-3.4,9.61-8.46,11.1-1.12.33-2.29.5-3.47.5-6.58,0-11.93-5.21-11.93-11.6s5.35-11.6,11.93-11.6c.27,0,.53.03.8.04l-2.6,2.84c-.19.2-.17.52.03.71.1.09.22.13.34.13.14,0,.27-.05.37-.16l3.33-3.65c.1-.11.15-.26.13-.41s-.11-.28-.24-.36l-4.76-2.87c-.24-.14-.54-.07-.69.17-.14.24-.07.54.17.69l3.09,1.87c-7.12.01-12.91,5.66-12.91,12.6s5.8,12.6,12.93,12.6c1.28,0,2.54-.18,3.75-.54h.02Z"/>
  <path class="cls-1" d="M21.33,18.6c-.15.09-.25.25-.25.43v11.08c0,.18.1.34.25.43.08.04.16.07.25.07s.17-.02.25-.07l9.6-5.54c.15-.09.25-.25.25-.43s-.1-.34-.25-.43l-9.6-5.54c-.15-.09-.35-.09-.5,0ZM22.08,19.9l8.1,4.68-8.1,4.67v-9.35Z"/>
</svg>