<?xml version="1.0" encoding="UTF-8"?>
<svg id="Layer_1" data-name="Layer 1" xmlns="http://www.w3.org/2000/svg" viewBox="0 0 50 50">
  <defs>
    <style>
      .cls-1 {
        fill: #2563eb;
      }
    </style>
  </defs>
  <path class="cls-1" d="M25.89,28.29h-2.78c-2.6,0-4.71,2.11-4.71,4.71v1.89c0,.91.74,1.65,1.65,1.65h8.91c.91,0,1.65-.74,1.65-1.65v-1.89c0-2.6-2.11-4.71-4.71-4.71h0ZM29.6,34.89c0,.36-.29.65-.65.65h-8.91c-.36,0-.65-.29-.65-.65v-1.89c0-2.05,1.67-3.71,3.71-3.71h2.78c2.05,0,3.71,1.67,3.71,3.71v1.89h0Z"/>
  <path class="cls-1" d="M32.31,9.6c-1.25,0-2.41.52-3.2,1.44-.18.21-.16.52.05.71.21.18.52.16.71-.05.6-.69,1.49-1.09,2.44-1.09s1.84.4,2.44,1.09c.1.11.24.17.38.17.12,0,.23-.04.33-.12.21-.18.23-.5.05-.71-.79-.91-1.96-1.44-3.2-1.44Z"/>
  <path class="cls-1" d="M30.6,13.07c-.19.2-.17.52.03.71s.52.17.71-.03c.47-.51,1.48-.51,1.95,0,.1.11.23.16.37.16.12,0,.24-.04.34-.13.2-.19.21-.5.03-.71-.85-.92-2.57-.92-3.42,0h0Z"/>
  <path class="cls-1" d="M32.81,15.88c0-.28-.22-.5-.5-.5s-.5.22-.5.5v3.25c-.96-1.29-2.27-2.31-3.8-2.9.04-.2.06-.4.06-.6,0-1.81-1.6-3.29-3.57-3.29s-3.57,1.48-3.57,3.29c0,.2.02.4.06.6h0c-3.22,1.25-5.51,4.37-5.51,8.03v11.85c0,1.68,1.37,3.05,3.05,3.05h11.94c1.68,0,3.05-1.37,3.05-3.05v-11.85c0-1.21-.26-2.37-.71-3.42v-4.96ZM21.93,15.63c0-1.26,1.15-2.29,2.57-2.29s2.57,1.03,2.57,2.29c0,.1-.02.19-.03.29-.69-.18-1.4-.28-2.14-.28h-.8c-.74,0-1.46.1-2.14.28-.01-.1-.03-.19-.03-.29ZM32.52,36.11c0,1.13-.92,2.05-2.05,2.05h-11.94c-1.13,0-2.05-.92-2.05-2.05v-11.85c0-4.2,3.42-7.62,7.62-7.62h.8c4.2,0,7.62,3.42,7.62,7.62v11.85Z"/>
  <path class="cls-1" d="M24.5,18.76c-3.37,0-6.11,2.74-6.11,6.11,0,.28.22.5.5.5s.5-.22.5-.5c0-2.81,2.29-5.11,5.11-5.11s5.11,2.29,5.11,5.11c0,.28.22.5.5.5s.5-.22.5-.5c0-3.37-2.74-6.11-6.11-6.11Z"/>
</svg>