<?xml version="1.0" encoding="UTF-8"?>
<svg id="Layer_1" data-name="Layer 1" xmlns="http://www.w3.org/2000/svg" viewBox="0 0 50 50">
  <defs>
    <style>
      .cls-1 {
        fill: #2563eb;
      }
    </style>
  </defs>
  <path class="cls-1" d="M20.7,12.23c-.02.28.19.52.46.54.29.02.56.14.76.35.23.23.35.53.35.85,0,.28.22.5.5.5s.5-.22.5-.5c0-.59-.23-1.14-.64-1.55-.37-.37-.87-.6-1.39-.64-.27-.03-.52.19-.54.46h0Z"/>
  <path class="cls-1" d="M24.9,13.09c0,.28.22.5.5.5s.5-.22.5-.5c0-1.06-.41-2.05-1.16-2.8s-1.65-1.12-2.66-1.16c-.27-.02-.51.21-.52.48-.01.28.21.51.48.52.75.03,1.46.33,1.99.87.56.56.87,1.3.87,2.09Z"/>
  <path class="cls-1" d="M35.18,27.09l-1.43-.6-2.9-4.38c-.23-.35-.62-.55-1.03-.55h-10.85v-1.4c.15.02.31.04.46.04,1.02,0,2.05-.35,2.88-1.05.17-.14.27-.35.28-.57,0-.22-.08-.44-.23-.59l-2.27-2.27.52-.52c.2-.2.2-.51,0-.71s-.51-.2-.71,0l-.52.52-2.17-2.17c-.16-.16-.37-.24-.59-.23-.22,0-.43.11-.57.28-1.49,1.75-1.39,4.4.24,6.02.49.49,1.07.82,1.68,1.03v1.62h-3.36c-.68,0-1.24.56-1.24,1.24v9.16c0,.68.56,1.24,1.24,1.24h1.58c.24,1.03,1.17,1.81,2.27,1.81s2.04-.78,2.28-1.82h9.39c.24,1.04,1.17,1.82,2.28,1.82s2.12-.85,2.3-1.96h.35c.42,0,.82-.17,1.12-.46s.46-.7.46-1.12v-2.17c0-.96-.57-1.82-1.46-2.19v-.02ZM16.66,13.71l4.82,4.82c-1.35,1.01-3.28.88-4.49-.33-1.21-1.21-1.33-3.14-.33-4.49ZM30.01,22.66l2.47,3.73h-3.78c-.71,0-1.28-.57-1.28-1.28v-2.56h2.38c.08,0,.16.04.2.11h.01ZM18.46,34c-.74,0-1.34-.6-1.34-1.34s.6-1.34,1.34-1.34,1.34.6,1.34,1.34-.6,1.34-1.34,1.34ZM32.4,34c-.74,0-1.34-.6-1.34-1.34s.6-1.34,1.34-1.34,1.34.6,1.34,1.34-.6,1.34-1.34,1.34ZM35.64,31.45c0,.16-.06.3-.17.41s-.26.17-.41.17h-.4c-.27-.99-1.17-1.72-2.25-1.72s-2.07.8-2.29,1.86h-9.36c-.22-1.06-1.16-1.86-2.29-1.86s-2.08.81-2.29,1.88h-1.56c-.13,0-.24-.11-.24-.24v-9.16c0-.13.11-.24.24-.24h11.83v2.56c0,1.26,1.02,2.28,2.28,2.28h4.61l1.47.62c.51.22.84.71.84,1.27v2.17h0Z"/>
</svg>