<?xml version="1.0" encoding="UTF-8"?>
<svg id="Layer_1" data-name="Layer 1" xmlns="http://www.w3.org/2000/svg" viewBox="0 0 50 50">
  <defs>
    <style>
      .cls-1 {
        fill: #2563eb;
      }
    </style>
  </defs>
  <path class="cls-1" d="M30.87,23.24l-4.23-4.23c-.2-.2-.51-.2-.71,0l-8.88,8.88c-.2.2-.2.51,0,.71l4.23,4.23c.1.1.23.15.35.15s.26-.05.35-.15l8.88-8.88c.2-.2.2-.51,0-.71h0ZM21.64,31.77l-3.52-3.52,8.17-8.17,3.52,3.52-8.17,8.17Z"/>
  <path class="cls-1" d="M30.64,11.94c-.16.03-.3.14-.37.29l-2.05,4.53c-.09.19-.04.41.1.56l4.23,4.23c.1.1.22.15.35.15.07,0,.14-.01.21-.04l4.53-2.05c.15-.07.26-.2.29-.37.03-.16-.02-.33-.14-.44l-6.72-6.72c-.12-.12-.28-.17-.44-.14h.01ZM33.03,20.6l-3.74-3.74,1.61-3.56,5.69,5.69s-3.56,1.61-3.56,1.61Z"/>
  <path class="cls-1" d="M22.16,17.3l-4.86,4.86c-.2.2-.2.51,0,.71.1.1.23.15.35.15s.26-.05.35-.15l4.86-4.86c.2-.2.2-.51,0-.71s-.51-.2-.71,0h0Z"/>
  <path class="cls-1" d="M20.18,14.61c-.2-.2-.51-.2-.71,0l-4.86,4.86c-.2.2-.2.51,0,.71.1.1.23.15.35.15s.26-.05.35-.15l4.86-4.86c.2-.2.2-.51,0-.71h0Z"/>
  <path class="cls-1" d="M17.49,11.92c-.2-.2-.51-.2-.71,0l-4.86,4.86c-.2.2-.2.51,0,.71.1.1.23.15.35.15s.26-.05.35-.15l4.86-4.86c.2-.2.2-.51,0-.71h0Z"/>
  <path class="cls-1" d="M37.38,32.51l-4.86,4.86c-.2.2-.2.51,0,.71.1.1.23.15.35.15s.26-.05.35-.15l4.86-4.86c.2-.2.2-.51,0-.71s-.51-.2-.71,0h.01Z"/>
  <path class="cls-1" d="M35.39,29.82c-.2-.2-.51-.2-.71,0l-4.86,4.86c-.2.2-.2.51,0,.71.1.1.23.15.35.15s.26-.05.35-.15l4.86-4.86c.2-.2.2-.51,0-.71h0Z"/>
  <path class="cls-1" d="M32.7,27.13c-.2-.2-.51-.2-.71,0l-4.86,4.86c-.2.2-.2.51,0,.71.1.1.23.15.35.15s.26-.05.35-.15l4.86-4.86c.2-.2.2-.51,0-.71h0Z"/>
</svg>