<?xml version="1.0" encoding="UTF-8"?>
<svg id="Icons" xmlns="http://www.w3.org/2000/svg" viewBox="0 0 300 300">
  <defs>
    <style>
      .cls-1 {
        fill: #2563eb;
      }
    </style>
  </defs>
  <path class="cls-1" d="M242.26,148h-34.65l-113.64-68.21c-.62-.37-1.39-.38-2.01-.03-.63.36-1.01,1.02-1.01,1.74v66.5h-33.2c-1.1,0-2,.9-2,2s.9,2,2,2h33.2v66.5c0,.72.39,1.39,1.01,1.74.31.17.65.26.99.26.36,0,.71-.1,1.03-.29l113.64-68.21h34.65c1.1,0,2-.9,2-2s-.9-2-2-2ZM94.94,214.96V85.04l108.23,64.96-108.23,64.96Z"/>
  <path class="cls-1" d="M138.08,173.45c1.1,0,2-.9,2-2v-42.89c0-1.1-.9-2-2-2s-2,.9-2,2v42.89c0,1.1.9,2,2,2Z"/>
  <path class="cls-1" d="M123.61,166.85c1.1,0,2-.9,2-2v-29.7c0-1.1-.9-2-2-2s-2,.9-2,2v29.7c0,1.1.9,2,2,2Z"/>
  <path class="cls-1" d="M152.56,166.85c1.1,0,2-.9,2-2v-29.7c0-1.1-.9-2-2-2s-2,.9-2,2v29.7c0,1.1.9,2,2,2Z"/>
  <path class="cls-1" d="M167.04,159.43c1.1,0,2-.9,2-2v-14.85c0-1.1-.9-2-2-2s-2,.9-2,2v14.85c0,1.1.9,2,2,2Z"/>
  <path class="cls-1" d="M109.13,159.43c1.1,0,2-.9,2-2v-14.85c0-1.1-.9-2-2-2s-2,.9-2,2v14.85c0,1.1.9,2,2,2Z"/>
</svg>