<?xml version="1.0" encoding="UTF-8"?>
<svg id="Layer_1" data-name="Layer 1" xmlns="http://www.w3.org/2000/svg" viewBox="0 0 50 50">
  <defs>
    <style>
      .cls-1 {
        fill: #2563eb;
      }
    </style>
  </defs>
  <path class="cls-1" d="M29.27,16.26c.54.04,1.05.27,1.43.66.43.43.66,1,.66,1.6,0,.28.22.5.5.5s.5-.22.5-.5c0-.87-.34-1.69-.96-2.31-.55-.55-1.29-.89-2.07-.95-.27-.03-.52.19-.54.46-.02.28.19.52.46.54h.02Z"/>
  <path class="cls-1" d="M29.89,11.83c-.25-.02-.51.21-.52.48,0,.28.21.51.48.52,1.3.05,2.52.58,3.44,1.5.97.97,1.5,2.26,1.5,3.63,0,.28.22.5.5.5s.5-.22.5-.5c0-1.64-.64-3.18-1.8-4.33s-2.56-1.74-4.11-1.79h.01Z"/>
  <path class="cls-1" d="M27.03,21.41l1.86-1.86c.2-.2.2-.51,0-.71s-.51-.2-.71,0l-1.86,1.86-6.05-6.05c-.24-.24-.57-.37-.93-.36-.34.01-.67.17-.89.43-3.53,4.13-3.28,10.38.57,14.22.48.48,1,.9,1.54,1.27l-3.96,6.85c-.09.15-.09.35,0,.5s.25.25.43.25h13.38c.18,0,.34-.1.43-.25s.09-.35,0-.5l-2.98-5.17c1.93-.26,3.8-1.05,5.37-2.38.26-.22.42-.55.43-.89,0-.35-.12-.68-.36-.93l-6.28-6.28h0ZM29.56,36.81h-11.65l3.51-6.09c1.56.84,3.29,1.27,5.03,1.27.11,0,.22-.01.32-.01,0,0,2.79,4.83,2.79,4.83ZM32.59,28.75c-3.74,3.19-9.39,2.97-12.87-.51s-3.7-9.13-.51-12.87c.06-.07.13-.08.17-.08h0s.11.01.17.07l13.04,13.04c.07.06.07.14.07.18s0,.11-.08.17h.01Z"/>
</svg>