<?xml version="1.0" encoding="UTF-8"?>
<svg id="Layer_1" data-name="Layer 1" xmlns="http://www.w3.org/2000/svg" viewBox="0 0 50 50">
  <defs>
    <style>
      .cls-1 {
        fill: #2563eb;
      }
    </style>
  </defs>
  <path class="cls-1" d="M34.76,13.64c-.2-.19-.51-.19-.71,0-.19.2-.19.51,0,.71l1.84,1.79h-3.27c-1.14,0-2.16.52-2.67,1.35l-3.96,6.58-3.98-6.59c-.5-.83-1.52-1.35-2.66-1.35h-3.29c-.28,0-.5.22-.5.5s.22.5.5.5h3.28c.79,0,1.5.34,1.82.87l4.25,7.04-4.25,7.05c-.32.53-1.03.87-1.81.87h-3.29c-.28,0-.5.22-.5.5s.22.5.5.5h3.29c1.14,0,2.16-.52,2.67-1.35l3.98-6.6,3.96,6.57c.5.83,1.52,1.35,2.66,1.35h3c-.58.58-1.18,1.15-1.78,1.7-.21.18-.22.5-.04.71.1.11.23.17.37.17.12,0,.24-.04.33-.13.91-.82,1.8-1.69,2.64-2.57.1-.09.16-.22.16-.37h0c0-.13-.05-.26-.15-.36l-2.63-2.57c-.2-.19-.51-.19-.71,0-.19.2-.19.51,0,.71l1.75,1.71h-2.95c-.78,0-1.49-.34-1.81-.87l-4.24-7.02,4.24-7.03c.32-.53,1.03-.87,1.81-.87h3.15c-.55.55-1.12,1.09-1.7,1.61-.21.18-.22.5-.04.71s.5.22.71.04c.92-.83,1.81-1.7,2.66-2.6.19-.2.18-.51,0-.7l-2.63-2.57h.01Z"/>
  <path class="cls-1" d="M20.61,24.83c0-.18-.1-.34-.25-.43l-9.15-5.29c-.15-.09-.35-.09-.5,0s-.25.25-.25.43v10.57c0,.18.1.34.25.43.08.04.16.07.25.07s.17-.02.25-.07l9.15-5.28c.15-.09.25-.25.25-.43ZM11.46,29.25v-8.84l7.65,4.42s-7.65,4.42-7.65,4.42Z"/>
</svg>