<?xml version="1.0" encoding="UTF-8"?>
<svg id="Layer_1" data-name="Layer 1" xmlns="http://www.w3.org/2000/svg" viewBox="0 0 50 50">
  <defs>
    <style>
      .cls-1 {
        fill: #2563eb;
      }
    </style>
  </defs>
  <path class="cls-1" d="M32.76,36.89v-10.02c0-.28-.22-.5-.5-.5h-14.52c-.28,0-.5.22-.5.5v10.02c0,.28.22.5.5.5h14.52c.28,0,.5-.22.5-.5ZM31.76,31.37h-6.44v-4h6.44v4ZM24.32,27.37v4h-6.08v-4h6.08ZM18.24,32.37h6.08v4.02h-6.08v-4.02ZM25.32,36.39v-4.02h6.44v4.02h-6.44Z"/>
  <path class="cls-1" d="M13.15,31.41c.2-.19.21-.51.01-.71-.96-1-1.48-2.32-1.48-3.73,0-2.28,1.39-4.28,3.45-4.99.23-.08.37-.31.33-.55-.06-.41-.1-.8-.1-1.18,0-4.49,3.49-8.15,7.79-8.15,3.3,0,6.25,2.19,7.35,5.45.08.22.3.37.53.34.14-.02.27-.02.41-.02,3.79,0,6.87,3.22,6.87,7.19,0,2.02-.88,3.98-2.42,5.38-.2.19-.22.5-.03.71.1.11.23.16.37.16.12,0,.24-.04.34-.13,1.75-1.59,2.75-3.82,2.75-6.12,0-4.56-3.59-8.29-8-8.18-1.33-3.46-4.56-5.77-8.17-5.77-4.85,0-8.79,4.1-8.79,9.15,0,.31.02.61.05.93-2.25.96-3.74,3.23-3.74,5.79,0,1.67.62,3.24,1.76,4.42.1.1.23.15.36.15.12,0,.25-.05.35-.14h0Z"/>
</svg>