<?xml version="1.0" encoding="UTF-8"?>
<svg id="Layer_1" data-name="Layer 1" xmlns="http://www.w3.org/2000/svg" viewBox="0 0 50 50">
  <defs>
    <style>
      .cls-1 {
        fill: #2563eb;
      }
    </style>
  </defs>
  <path class="cls-1" d="M34.11,21.69c1.24,0,2.25-1.01,2.25-2.25v-5.13c0-1.24-1.01-2.25-2.25-2.25s-2.25,1.01-2.25,2.25v5.13c0,1.24,1.01,2.25,2.25,2.25ZM32.86,14.31c0-.69.56-1.25,1.25-1.25s1.25.56,1.25,1.25v5.13c0,.69-.56,1.25-1.25,1.25s-1.25-.56-1.25-1.25v-5.13Z"/>
  <path class="cls-1" d="M39.01,19.85c0-.28-.22-.5-.5-.5s-.5.22-.5.5c0,2.15-1.75,3.9-3.9,3.9-1.28,0-2.48-.63-3.21-1.69,0,0-.02-.01-.02-.02-.43-.65-.67-1.41-.67-2.19,0-.28-.22-.5-.5-.5s-.5.22-.5.5c0,.98.3,1.93.84,2.74,0,.01,0,.03.02.04.83,1.19,2.13,1.95,3.55,2.09v2.62h-1.96c-.28,0-.5.22-.5.5s.22.5.5.5h4.93c.28,0,.5-.22.5-.5s-.22-.5-.5-.5h-1.97v-2.64c2.46-.26,4.39-2.32,4.39-4.85Z"/>
  <path class="cls-1" d="M24.61,26.55h-6.81c-1.58,0-3.06.62-4.17,1.73-1.12,1.12-1.73,2.6-1.73,4.17v.27c0,.13.06.25.15.34,2.56,2.45,5.85,3.68,9.14,3.68h.02c3.29,0,6.58-1.23,9.14-3.69.09-.09.15-.21.15-.34v-.27c0-3.25-2.64-5.89-5.89-5.89ZM29.48,32.48c-4.69,4.35-11.9,4.35-16.59,0v-.03c0-1.31.51-2.54,1.43-3.46s2.15-1.43,3.46-1.43h6.81c2.7,0,4.89,2.19,4.89,4.89v.03Z"/>
  <path class="cls-1" d="M21.11,25.34c3.21,0,5.81-2.6,5.81-5.81s-2.6-5.81-5.81-5.81-5.81,2.6-5.81,5.81,2.61,5.81,5.81,5.81ZM21.11,14.73c2.65,0,4.81,2.16,4.81,4.81s-2.16,4.81-4.81,4.81-4.81-2.16-4.81-4.81,2.16-4.81,4.81-4.81Z"/>
</svg>