<?xml version="1.0" encoding="UTF-8"?><svg xmlns="http://www.w3.org/2000/svg" xmlns:xlink="http://www.w3.org/1999/xlink" viewBox="0 0 1875.09 452.61"><defs><style>.cls-1,.cls-2{fill:none;}.cls-3{opacity:.1;}.cls-3,.cls-4{fill:#fff;}.cls-5{fill:url(#linear-gradient);}.cls-6{clip-path:url(#clippath);}.cls-7{fill:#00517d;}.cls-8{fill:#ddf0fd;}.cls-9{fill:#57b2f3;}.cls-10{clip-path:url(#clippath-1);}.cls-11{clip-path:url(#clippath-4);}.cls-12{clip-path:url(#clippath-3);}.cls-13{clip-path:url(#clippath-2);}.cls-14{clip-path:url(#clippath-7);}.cls-15{clip-path:url(#clippath-6);}.cls-16{clip-path:url(#clippath-5);}.cls-17{fill:url(#linear-gradient-8);}.cls-17,.cls-18,.cls-19,.cls-20{mix-blend-mode:screen;}.cls-18{fill:url(#linear-gradient-2);}.cls-19{fill:url(#linear-gradient-4);}.cls-20{fill:url(#linear-gradient-6);}.cls-21{fill:url(#linear-gradient-3);}.cls-22{fill:url(#linear-gradient-7);}.cls-23{fill:url(#linear-gradient-5);}.cls-2{stroke:#89c9f7;stroke-miterlimit:10;}.cls-24{isolation:isolate;}</style><clipPath id="clippath"><path class="cls-1" d="M278.94,346.06c-8.38,0-15.2-6.82-15.2-15.2s6.82-15.2,15.2-15.2,15.2,6.82,15.2,15.2-6.82,15.2-15.2,15.2Zm82.67-124.23H196.28c-17.86,0-32.33,14.48-32.33,32.33h0c0,17.86,14.48,32.33,32.33,32.33h71c6.48,2.25,11.66,11.97,11.66,18.05,0-6.08,5.19-15.81,11.66-18.05h71c17.86,0,32.33-14.48,32.33-32.33h0c0-17.86-14.48-32.33-32.33-32.33Z"/></clipPath><linearGradient id="linear-gradient" x1="159.04" y1="276.03" x2="398.84" y2="276.03" gradientUnits="userSpaceOnUse"><stop offset="0" stop-color="#89c7d4"/><stop offset="1" stop-color="#5fb1ca"/></linearGradient><clipPath id="clippath-1"><rect class="cls-1" x="159.04" y="199.9" width="239.8" height="152.25" rx="7.88" ry="7.88"/></clipPath><linearGradient id="linear-gradient-2" x1="302.82" y1="308.76" x2="493.09" y2="499.04" gradientTransform="translate(-119.02 -127.87)" gradientUnits="userSpaceOnUse"><stop offset="0" stop-color="#000"/><stop offset=".06" stop-color="#121212"/><stop offset=".17" stop-color="#424242"/><stop offset=".25" stop-color="#686868"/><stop offset=".26" stop-color="#636363"/><stop offset=".31" stop-color="#3f3f3f"/><stop offset=".37" stop-color="#232323"/><stop offset=".42" stop-color="#0f0f0f"/><stop offset=".48" stop-color="#030303"/><stop offset=".53" stop-color="#000"/></linearGradient><clipPath id="clippath-2"><path class="cls-1" d="M856.83,330.86c0,8.38-6.82,15.2-15.2,15.2s-15.2-6.82-15.2-15.2,6.82-15.2,15.2-15.2,15.2,6.82,15.2,15.2Zm67.47-109.04h-165.34c-17.86,0-32.33,14.48-32.33,32.33h0c0,17.86,14.48,32.33,32.33,32.33h71c6.48,2.25,11.66,11.97,11.66,18.05,0-6.08,5.19-15.81,11.66-18.05h71c17.86,0,32.33-14.48,32.33-32.33h0c0-17.86-14.48-32.33-32.33-32.33Z"/></clipPath><linearGradient id="linear-gradient-3" x1="721.73" y1="276.03" x2="961.53" y2="276.03" gradientUnits="userSpaceOnUse"><stop offset="0" stop-color="#d1b096"/><stop offset="1" stop-color="#a7735b"/></linearGradient><clipPath id="clippath-3"><rect class="cls-1" x="721.73" y="199.9" width="239.8" height="152.25" rx="7.88" ry="7.88"/></clipPath><linearGradient id="linear-gradient-4" x1="865.51" y1="308.76" x2="1055.78" y2="499.04" xlink:href="#linear-gradient-2"/><clipPath id="clippath-4"><path class="cls-1" d="M1238.25,346.06c-8.38,0-15.2-6.82-15.2-15.2s6.82-15.2,15.2-15.2,15.2,6.82,15.2,15.2-6.82,15.2-15.2,15.2Zm82.67-124.23h-165.34c-17.86,0-32.33,14.48-32.33,32.33h0c0,17.86,14.48,32.33,32.33,32.33h71c6.48,2.25,11.66,11.97,11.66,18.05,0-6.08,5.19-15.81,11.66-18.05h71c17.86,0,32.33-14.48,32.33-32.33h0c0-17.86-14.48-32.33-32.33-32.33Z"/></clipPath><linearGradient id="linear-gradient-5" x1="1118.35" y1="276.03" x2="1358.15" y2="276.03" gradientUnits="userSpaceOnUse"><stop offset="0" stop-color="#bdbfc0"/><stop offset="1" stop-color="#7d7f7f"/></linearGradient><clipPath id="clippath-5"><rect class="cls-1" x="1118.35" y="199.9" width="239.8" height="152.25" rx="7.88" ry="7.88"/></clipPath><linearGradient id="linear-gradient-6" x1="1262.03" y1="308.87" x2="1452.5" y2="499.34" xlink:href="#linear-gradient-2"/><clipPath id="clippath-6"><path class="cls-1" d="M1741.59,346.06c-8.38,0-15.2-6.82-15.2-15.2s6.82-15.2,15.2-15.2,15.2,6.82,15.2,15.2-6.82,15.2-15.2,15.2Zm82.67-124.23h-165.34c-17.86,0-32.33,14.48-32.33,32.33h0c0,17.86,14.48,32.33,32.33,32.33h71c6.48,2.25,11.66,11.97,11.66,18.05,0-6.08,5.19-15.81,11.66-18.05h71c17.86,0,32.33-14.48,32.33-32.33h0c0-17.86-14.48-32.33-32.33-32.33Z"/></clipPath><linearGradient id="linear-gradient-7" x1="1621.69" y1="276.03" x2="1861.49" y2="276.03" gradientUnits="userSpaceOnUse"><stop offset="0" stop-color="#d0b35e"/><stop offset="1" stop-color="#a7772b"/></linearGradient><clipPath id="clippath-7"><rect class="cls-1" x="1621.69" y="199.9" width="239.8" height="152.25" rx="7.88" ry="7.88"/></clipPath><linearGradient id="linear-gradient-8" x1="1765.47" y1="308.76" x2="1955.74" y2="499.04" xlink:href="#linear-gradient-2"/></defs><g class="cls-24"><g id="Layer_1"><line class="cls-2" x1="585.36" y1="328.25" x2="585.36" y2="151.22"/><line class="cls-2" x1="632.09" y1="328.25" x2="632.09" y2="151.22"/><line class="cls-2" x1="702.92" y1="328.25" x2="702.92" y2="151.22"/><line class="cls-2" x1="753.39" y1="328.25" x2="753.39" y2="151.22"/><line class="cls-2" x1="929.54" y1="328.25" x2="929.54" y2="151.22"/><line class="cls-2" x1="972.69" y1="328.25" x2="972.69" y2="151.22"/><line class="cls-2" x1="1058.56" y1="328.25" x2="1058.56" y2="151.22"/><line class="cls-2" x1="1109.65" y1="328.25" x2="1109.65" y2="151.22"/><line class="cls-2" x1="1157.65" y1="328.25" x2="1157.65" y2="151.22"/><line class="cls-2" x1="1312.65" y1="328.25" x2="1312.65" y2="151.22"/><line class="cls-2" x1="1370.34" y1="328.25" x2="1370.34" y2="151.22"/><line class="cls-2" x1="1419.11" y1="328.25" x2="1419.11" y2="151.22"/><line class="cls-2" x1="1455.7" y1="328.25" x2="1455.7" y2="151.22"/><line class="cls-2" x1="1514.98" y1="328.25" x2="1514.98" y2="151.22"/><line class="cls-2" x1="1561.69" y1="328.25" x2="1561.69" y2="151.22"/><line class="cls-2" x1="1622.99" y1="328.25" x2="1622.99" y2="151.22"/><line class="cls-2" x1="1670.22" y1="328.25" x2="1670.22" y2="151.22"/><rect class="cls-8" x="20.3" y="322.42" width="1833.58" height="16.89" rx="4.9" ry="4.9"/><g><polygon class="cls-4" points="111.65 367.69 100.91 365.62 129.16 330.86 100.91 296.11 111.65 294.04 141.59 330.86 111.65 367.69"/><polygon class="cls-4" points="143.03 367.69 132.29 365.62 160.54 330.86 132.29 296.11 143.03 294.04 172.97 330.86 143.03 367.69"/><polygon class="cls-4" points="174.41 367.69 163.67 365.62 191.92 330.86 163.67 296.11 174.41 294.04 204.34 330.86 174.41 367.69"/><polygon class="cls-4" points="205.78 367.69 195.04 365.62 223.29 330.86 195.04 296.11 205.78 294.04 235.72 330.86 205.78 367.69"/></g><g><circle class="cls-4" cx="1058.98" cy="330.86" r="16.89"/><circle class="cls-9" cx="1058.98" cy="330.86" r="10.13"/></g><g><circle class="cls-4" cx="929.51" cy="330.86" r="16.89"/><circle class="cls-9" cx="929.51" cy="330.86" r="10.13"/></g><g><circle class="cls-4" cx="973.11" cy="330.86" r="16.89"/><circle class="cls-9" cx="973.11" cy="330.86" r="10.13"/></g><g><circle class="cls-4" cx="1109.84" cy="330.86" r="16.89"/><circle class="cls-9" cx="1109.84" cy="330.86" r="10.13"/></g><g><circle class="cls-4" cx="1157.4" cy="330.86" r="16.89"/><circle class="cls-9" cx="1157.4" cy="330.86" r="10.13"/></g><g><circle class="cls-4" cx="1313.29" cy="330.86" r="16.89"/><circle class="cls-9" cx="1313.29" cy="330.86" r="10.13"/></g><g><path class="cls-4" d="M1383.11,343.21c-17.99,13.83-38.53-6.69-24.7-24.69,18-13.83,38.53,6.69,24.7,24.69Z"/><path class="cls-9" d="M1378.17,338.27c-10.8,8.3-23.12-4.02-14.82-14.82,10.8-8.3,23.12,4.02,14.82,14.82Z"/></g><g><path class="cls-4" d="M1431.33,343.21c-17.99,13.83-38.53-6.69-24.7-24.69,18-13.83,38.53,6.69,24.7,24.69Z"/><path class="cls-9" d="M1426.39,338.27c-10.8,8.3-23.12-4.02-14.82-14.82,10.8-8.3,23.12,4.02,14.82,14.82Z"/></g><g><path class="cls-4" d="M1468.32,343.21c-17.99,13.83-38.53-6.69-24.7-24.69,18-13.83,38.53,6.69,24.7,24.69Z"/><path class="cls-9" d="M1463.38,338.27c-10.8,8.3-23.12-4.02-14.82-14.82,10.8-8.3,23.12,4.02,14.82,14.82Z"/></g><g><path class="cls-4" d="M1527.77,343.21c-17.99,13.83-38.53-6.69-24.7-24.69,18-13.83,38.53,6.69,24.7,24.69Z"/><path class="cls-9" d="M1522.83,338.27c-10.8,8.3-23.12-4.02-14.82-14.82,10.8-8.3,23.12,4.02,14.82,14.82Z"/></g><g><path class="cls-4" d="M1574.66,343.21c-17.99,13.83-38.53-6.69-24.7-24.69,18-13.83,38.53,6.69,24.7,24.69Z"/><path class="cls-9" d="M1569.72,338.27c-10.8,8.3-23.12-4.02-14.82-14.82,10.8-8.3,23.12,4.02,14.82,14.82Z"/></g><g><path class="cls-4" d="M1636.1,343.21c-17.99,13.83-38.53-6.69-24.7-24.69,18-13.83,38.53,6.69,24.7,24.69Z"/><path class="cls-9" d="M1631.16,338.27c-10.8,8.3-23.12-4.02-14.82-14.82,10.8-8.3,23.12,4.02,14.82,14.82Z"/></g><g><path class="cls-4" d="M1683.66,343.21c-17.99,13.83-38.53-6.69-24.7-24.69,18-13.83,38.53,6.69,24.7,24.69Z"/><path class="cls-9" d="M1678.72,338.27c-10.8,8.3-23.12-4.02-14.82-14.82,10.8-8.3,23.12,4.02,14.82,14.82Z"/></g><g><circle class="cls-4" cx="585.36" cy="330.86" r="16.89"/><circle class="cls-9" cx="585.36" cy="330.86" r="10.13"/></g><g><circle class="cls-4" cx="632.92" cy="330.86" r="16.89"/><circle class="cls-9" cx="632.92" cy="330.86" r="10.13"/></g><g><circle class="cls-4" cx="703.27" cy="330.86" r="16.89"/><circle class="cls-9" cx="703.27" cy="330.86" r="10.13"/></g><g><circle class="cls-4" cx="752.81" cy="330.86" r="16.89"/><circle class="cls-9" cx="752.81" cy="330.86" r="10.13"/></g><g><path class="cls-9" d="M621.25,55.41c0,.47,.33,.86,1,1.17,.67,.31,1.71,.65,3.11,1.03,1.4,.37,2.46,.7,3.18,.98,1.18,.47,2.14,1.23,2.87,2.29,.73,1.06,1.1,2.35,1.1,3.88,0,2.03-.86,3.74-2.57,5.14-1.71,1.43-4.16,2.15-7.34,2.15-4.27,0-7.57-1.28-9.91-3.83l4.07-4.77c1.78,1.78,3.86,2.66,6.26,2.66,1.37,0,2.06-.42,2.06-1.26,0-.44-.28-.81-.84-1.12-.56-.31-1.25-.56-2.08-.75-.83-.19-1.73-.47-2.71-.84-.98-.37-1.89-.8-2.71-1.29-.83-.48-1.52-1.2-2.08-2.15-.56-.95-.84-2.06-.84-3.34,0-1.9,.81-3.57,2.43-5,1.65-1.4,3.89-2.1,6.73-2.1,4.46,0,7.65,1.31,9.58,3.93l-4.11,4.39c-1.37-1.59-3.12-2.38-5.23-2.38-1.31,0-1.96,.41-1.96,1.21Z"/><path class="cls-9" d="M638.49,55.55h-4.21v-6.59h4.25v-3.74l7.52-2.34v6.08h5.7v6.59h-5.61v6.87c0,1.71,.64,2.57,1.92,2.57,1,0,1.78-.36,2.34-1.08l3.27,5.56c-1.71,1.71-4.02,2.57-6.92,2.57-2.59,0-4.61-.82-6.08-2.45-1.46-1.63-2.2-3.96-2.2-6.99v-7.06Z"/><path class="cls-9" d="M679.24,71.35h-7.52v-2.1c-1.43,1.87-3.33,2.8-5.7,2.8-2.93,0-5.42-1.11-7.48-3.32-2.09-2.18-3.13-5.03-3.13-8.55s1.01-6.25,3.04-8.55c1.99-2.24,4.52-3.37,7.57-3.37,2.46,0,4.36,.86,5.7,2.57v-1.87h7.52v22.38Zm-15.05-7.76c.84,.93,1.88,1.4,3.13,1.4s2.29-.47,3.13-1.4c.84-.87,1.26-2.01,1.26-3.41s-.42-2.52-1.26-3.46c-.84-.93-1.89-1.4-3.13-1.4s-2.29,.47-3.13,1.4c-.84,.94-1.26,2.09-1.26,3.46s.42,2.54,1.26,3.41Z"/><path class="cls-9" d="M691.9,59.24v12.1h-7.52v-22.38h7.52v3.46c1.21-2.77,2.99-4.16,5.33-4.16,1.56,0,2.8,.42,3.74,1.26l-3.08,7.1c-.81-.72-1.82-1.07-3.04-1.07-.9,0-1.62,.33-2.15,1-.53,.67-.79,1.56-.79,2.69Z"/><path class="cls-9" d="M706.34,55.55h-4.21v-6.59h4.25v-3.74l7.52-2.34v6.08h5.7v6.59h-5.61v6.87c0,1.71,.64,2.57,1.92,2.57,1,0,1.78-.36,2.34-1.08l3.27,5.56c-1.71,1.71-4.02,2.57-6.92,2.57-2.59,0-4.61-.82-6.08-2.45-1.46-1.63-2.2-3.96-2.2-6.99v-7.06Z"/><path class="cls-9" d="M756.11,51.86l-4.25,5.33c-1.25-1.25-2.79-1.87-4.63-1.87-1.4,0-2.55,.46-3.43,1.38-.89,.92-1.33,2.08-1.33,3.48s.44,2.55,1.33,3.46c.89,.9,2.03,1.36,3.43,1.36,1.81,0,3.44-.68,4.91-2.06l3.74,5.51c-.93,1.06-2.2,1.92-3.79,2.59s-3.27,1-5.05,1c-3.36,0-6.22-1.17-8.55-3.5-2.37-2.27-3.55-5.06-3.55-8.37s1.17-6.12,3.5-8.46c2.37-2.31,5.17-3.46,8.41-3.46,3.86,0,6.95,1.2,9.25,3.6Z"/><path class="cls-9" d="M766.67,59.24v12.1h-7.52v-22.38h7.52v3.46c1.21-2.77,2.99-4.16,5.33-4.16,1.56,0,2.8,.42,3.74,1.26l-3.08,7.1c-.81-.72-1.82-1.07-3.04-1.07-.9,0-1.62,.33-2.15,1-.53,.67-.79,1.56-.79,2.69Z"/><path class="cls-9" d="M790.04,72.05c-3.49,0-6.42-1.15-8.79-3.46-2.37-2.27-3.55-5.08-3.55-8.41s1.12-6.12,3.36-8.46c2.21-2.31,4.94-3.46,8.18-3.46s6.06,1.09,8.27,3.27c2.21,2.21,3.32,4.94,3.32,8.18,0,1.09-.05,1.87-.14,2.34h-15.19c.31,1.06,.89,1.89,1.73,2.5,.84,.61,1.87,.91,3.08,.91,1.71,0,3.26-.7,4.63-2.1l3.83,5.09c-.87,1.06-2.1,1.92-3.67,2.59-1.57,.67-3.26,1-5.07,1Zm-.65-17.48c-1.84,0-3.08,.97-3.74,2.9h7.48c-.62-1.93-1.87-2.9-3.74-2.9Z"/><path class="cls-9" d="M827.05,71.35h-7.52v-2.1c-1.43,1.87-3.33,2.8-5.7,2.8-2.93,0-5.42-1.11-7.48-3.32-2.09-2.18-3.13-5.03-3.13-8.55s1.01-6.25,3.04-8.55c1.99-2.24,4.52-3.37,7.57-3.37,2.46,0,4.36,.86,5.7,2.57v-1.87h7.52v22.38Zm-15.05-7.76c.84,.93,1.88,1.4,3.13,1.4s2.29-.47,3.13-1.4c.84-.87,1.26-2.01,1.26-3.41s-.42-2.52-1.26-3.46c-.84-.93-1.89-1.4-3.13-1.4s-2.29,.47-3.13,1.4c-.84,.94-1.26,2.09-1.26,3.46s.42,2.54,1.26,3.41Z"/><path class="cls-9" d="M834.29,55.55h-4.21v-6.59h4.25v-3.74l7.52-2.34v6.08h5.7v6.59h-5.61v6.87c0,1.71,.64,2.57,1.92,2.57,1,0,1.78-.36,2.34-1.08l3.27,5.56c-1.71,1.71-4.02,2.57-6.92,2.57-2.59,0-4.61-.82-6.08-2.45-1.46-1.63-2.2-3.96-2.2-6.99v-7.06Z"/><path class="cls-9" d="M856.26,46.95c-.87,.06-1.66-.16-2.36-.68-.7-.51-1.21-1.15-1.52-1.92-.31-.76-.4-1.58-.26-2.45,.14-.87,.54-1.6,1.19-2.2,.87-.81,1.85-1.21,2.94-1.21s2.09,.42,2.99,1.26c.9,.84,1.32,1.84,1.26,2.99,0,1.15-.41,2.14-1.24,2.97s-1.83,1.24-3.01,1.24Zm-3.74,2.01h7.52v22.38h-7.52v-22.38Z"/><path class="cls-9" d="M872.71,59.01v12.34h-7.52v-22.38h7.52v2.76c1.18-2.31,3.11-3.46,5.79-3.46s4.58,.87,6.08,2.62c1.5,1.75,2.24,4.11,2.24,7.1v13.37h-7.52v-12.34c0-1.12-.3-2.02-.89-2.69-.59-.67-1.39-1-2.38-1s-1.8,.34-2.41,1c-.61,.67-.91,1.57-.91,2.69Z"/><path class="cls-9" d="M892.2,78.08l3.74-5.79c1.71,1.37,3.63,2.06,5.75,2.06,1.46,0,2.63-.37,3.5-1.12,.87-.75,1.31-1.78,1.31-3.08v-2.1c-1.43,1.78-3.33,2.66-5.7,2.66-2.8,0-5.19-1.04-7.15-3.13-1.99-2.03-2.99-4.72-2.99-8.08s1-5.86,2.99-7.94c1.96-2.06,4.35-3.08,7.15-3.08,2.43,0,4.33,.78,5.7,2.34v-1.82h7.52v20.84c0,2.21-.37,4.12-1.12,5.72-.75,1.6-1.76,2.8-3.04,3.58-2.37,1.4-4.94,2.1-7.71,2.1-4.46,0-7.77-1.04-9.95-3.13Zm5.98-18.6c0,1.18,.4,2.17,1.21,2.94,.81,.78,1.81,1.17,2.99,1.17s2.17-.39,2.94-1.17c.78-.78,1.17-1.76,1.17-2.94s-.39-2.18-1.17-2.99c-.78-.81-1.76-1.21-2.94-1.21s-2.18,.41-2.99,1.21c-.81,.81-1.21,1.81-1.21,2.99Z"/><path class="cls-9" d="M954.82,63.31l3.08-14.35h8.04l-6.59,22.38h-9.39l-3.04-12.99-2.9,12.99h-8.46l-6.59-22.38h8.04l2.94,14.21,3.32-14.21h8.08l3.46,14.35Z"/><path class="cls-9" d="M972.95,46.95c-.87,.06-1.66-.16-2.36-.68-.7-.51-1.21-1.15-1.52-1.92s-.4-1.58-.26-2.45c.14-.87,.54-1.6,1.19-2.2,.87-.81,1.85-1.21,2.94-1.21s2.09,.42,2.99,1.26c.9,.84,1.32,1.84,1.26,2.99,0,1.15-.41,2.14-1.24,2.97s-1.83,1.24-3.01,1.24Zm-3.74,2.01h7.52v22.38h-7.52v-22.38Z"/><path class="cls-9" d="M983.98,55.55h-4.21v-6.59h4.25v-3.74l7.52-2.34v6.08h5.7v6.59h-5.61v6.87c0,1.71,.64,2.57,1.92,2.57,1,0,1.78-.36,2.34-1.08l3.27,5.56c-1.71,1.71-4.02,2.57-6.92,2.57-2.59,0-4.61-.82-6.08-2.45-1.46-1.63-2.2-3.96-2.2-6.99v-7.06Z"/><path class="cls-9" d="M1009.73,59.01v12.34h-7.52v-29.82l7.52-2.34v12.52c1.18-2.31,3.12-3.46,5.79-3.46s4.58,.87,6.08,2.62c1.5,1.75,2.24,4.11,2.24,7.1v13.37h-7.52v-12.34c0-1.12-.3-2.02-.89-2.69-.59-.67-1.39-1-2.38-1s-1.8,.34-2.41,1c-.61,.67-.91,1.57-.91,2.69Z"/><path class="cls-9" d="M1051.79,71.35h-10.89v-29.96h10.89c4.89,0,8.94,1.42,12.15,4.25s4.81,6.43,4.81,10.79-1.6,7.85-4.81,10.65c-3.21,2.84-7.26,4.25-12.15,4.25Zm-.14-22.71h-2.8v15.47h2.85c2.65,0,4.77-.71,6.38-2.13,1.6-1.42,2.41-3.29,2.41-5.63s-.81-4.17-2.43-5.58c-1.62-1.42-3.75-2.13-6.4-2.13Z"/><path class="cls-9" d="M1095.25,71.35h-7.52v-2.1c-1.43,1.87-3.33,2.8-5.7,2.8-2.93,0-5.42-1.11-7.48-3.32-2.09-2.18-3.13-5.03-3.13-8.55s1.01-6.25,3.04-8.55c1.99-2.24,4.52-3.37,7.57-3.37,2.46,0,4.36,.86,5.7,2.57v-1.87h7.52v22.38Zm-15.05-7.76c.84,.93,1.88,1.4,3.13,1.4s2.29-.47,3.13-1.4c.84-.87,1.26-2.01,1.26-3.41s-.42-2.52-1.26-3.46c-.84-.93-1.89-1.4-3.13-1.4s-2.29,.47-3.13,1.4c-.84,.94-1.26,2.09-1.26,3.46s.42,2.54,1.26,3.41Z"/><path class="cls-9" d="M1102.49,55.55h-4.21v-6.59h4.25v-3.74l7.52-2.34v6.08h5.7v6.59h-5.61v6.87c0,1.71,.64,2.57,1.92,2.57,1,0,1.78-.36,2.34-1.08l3.27,5.56c-1.71,1.71-4.02,2.57-6.92,2.57-2.59,0-4.61-.82-6.08-2.45-1.46-1.63-2.2-3.96-2.2-6.99v-7.06Z"/><path class="cls-9" d="M1143.24,71.35h-7.52v-2.1c-1.43,1.87-3.33,2.8-5.7,2.8-2.93,0-5.42-1.11-7.48-3.32-2.09-2.18-3.13-5.03-3.13-8.55s1.01-6.25,3.04-8.55c1.99-2.24,4.52-3.37,7.57-3.37,2.46,0,4.36,.86,5.7,2.57v-1.87h7.52v22.38Zm-15.05-7.76c.84,.93,1.88,1.4,3.13,1.4s2.29-.47,3.13-1.4c.84-.87,1.26-2.01,1.26-3.41s-.42-2.52-1.26-3.46c-.84-.93-1.89-1.4-3.13-1.4s-2.29,.47-3.13,1.4c-.84,.94-1.26,2.09-1.26,3.46s.42,2.54,1.26,3.41Z"/><path class="cls-9" d="M1173.8,53.26l-8.74,12.66-8.74-12.62v18.04h-7.71v-29.96h8.88l8.08,12.24,8.08-12.24h7.85v29.96h-7.71v-18.08Z"/><path class="cls-9" d="M1190.63,46.95c-.87,.06-1.66-.16-2.36-.68-.7-.51-1.21-1.15-1.52-1.92s-.4-1.58-.26-2.45c.14-.87,.54-1.6,1.19-2.2,.87-.81,1.85-1.21,2.94-1.21s2.09,.42,2.99,1.26c.9,.84,1.32,1.84,1.26,2.99,0,1.15-.41,2.14-1.24,2.97s-1.83,1.24-3.01,1.24Zm-3.74,2.01h7.52v22.38h-7.52v-22.38Z"/><path class="cls-9" d="M1207.08,59.01v12.34h-7.52v-22.38h7.52v2.76c1.18-2.31,3.12-3.46,5.79-3.46s4.58,.87,6.08,2.62c1.5,1.75,2.24,4.11,2.24,7.1v13.37h-7.52v-12.34c0-1.12-.3-2.02-.89-2.69-.59-.67-1.39-1-2.38-1s-1.8,.34-2.41,1c-.61,.67-.91,1.57-.91,2.69Z"/><path class="cls-9" d="M1237.36,72.05c-3.49,0-6.42-1.15-8.79-3.46-2.37-2.27-3.55-5.08-3.55-8.41s1.12-6.12,3.37-8.46c2.21-2.31,4.94-3.46,8.18-3.46s6.06,1.09,8.27,3.27c2.21,2.21,3.32,4.94,3.32,8.18,0,1.09-.05,1.87-.14,2.34h-15.19c.31,1.06,.89,1.89,1.73,2.5,.84,.61,1.87,.91,3.08,.91,1.71,0,3.25-.7,4.63-2.1l3.83,5.09c-.87,1.06-2.1,1.92-3.67,2.59-1.57,.67-3.26,1-5.07,1Zm-.65-17.48c-1.84,0-3.08,.97-3.74,2.9h7.48c-.62-1.93-1.87-2.9-3.74-2.9Z"/><path class="cls-9" d="M1259.37,59.24v12.1h-7.52v-22.38h7.52v3.46c1.22-2.77,2.99-4.16,5.33-4.16,1.56,0,2.8,.42,3.74,1.26l-3.08,7.1c-.81-.72-1.82-1.07-3.04-1.07-.9,0-1.62,.33-2.15,1-.53,.67-.79,1.56-.79,2.69Z"/><path class="cls-9" d="M1271.75,63.17h7.71l-4.21,13.41h-6.31l2.8-13.41Z"/><path class="cls-9" d="M1309.18,48.26c2.93,0,5.44,1.09,7.52,3.27,2.06,2.18,3.08,5.05,3.08,8.6s-1,6.29-2.99,8.5c-1.99,2.28-4.53,3.41-7.62,3.41-2.46,0-4.36-.86-5.7-2.57v1.87h-7.52v-29.82l7.52-2.34v11.87c1.43-1.87,3.33-2.8,5.7-2.8Zm1.82,8.41c-.84-.9-1.89-1.36-3.13-1.36s-2.29,.45-3.13,1.36c-.84,.93-1.26,2.09-1.26,3.46s.42,2.52,1.26,3.46c.84,.93,1.88,1.4,3.13,1.4s2.29-.47,3.13-1.4,1.26-2.09,1.26-3.46-.42-2.52-1.26-3.46Z"/><path class="cls-9" d="M1334.65,72.05c-3.49,0-6.42-1.15-8.79-3.46-2.37-2.27-3.55-5.08-3.55-8.41s1.12-6.12,3.37-8.46c2.21-2.31,4.94-3.46,8.18-3.46s6.06,1.09,8.27,3.27c2.21,2.21,3.32,4.94,3.32,8.18,0,1.09-.05,1.87-.14,2.34h-15.19c.31,1.06,.89,1.89,1.73,2.5,.84,.61,1.87,.91,3.08,.91,1.71,0,3.25-.7,4.63-2.1l3.83,5.09c-.87,1.06-2.1,1.92-3.67,2.59-1.57,.67-3.26,1-5.07,1Zm-.65-17.48c-1.84,0-3.08,.97-3.74,2.9h7.48c-.62-1.93-1.87-2.9-3.74-2.9Z"/><path class="cls-9" d="M1383.35,71.35h-7.52v-2.1c-1.43,1.87-3.33,2.8-5.7,2.8-2.93,0-5.42-1.11-7.48-3.32-2.09-2.18-3.13-5.03-3.13-8.55s1.01-6.25,3.04-8.55c1.99-2.24,4.52-3.37,7.57-3.37,2.46,0,4.36,.86,5.7,2.57v-1.87h7.52v22.38Zm-15.05-7.76c.84,.93,1.88,1.4,3.13,1.4s2.29-.47,3.13-1.4c.84-.87,1.26-2.01,1.26-3.41s-.42-2.52-1.26-3.46c-.84-.93-1.89-1.4-3.13-1.4s-2.29,.47-3.13,1.4c-.84,.94-1.26,2.09-1.26,3.46s.42,2.54,1.26,3.41Z"/><path class="cls-9" d="M1408.35,51.86l-4.25,5.33c-1.25-1.25-2.79-1.87-4.63-1.87-1.4,0-2.55,.46-3.44,1.38-.89,.92-1.33,2.08-1.33,3.48s.44,2.55,1.33,3.46c.89,.9,2.03,1.36,3.44,1.36,1.81,0,3.44-.68,4.91-2.06l3.74,5.51c-.93,1.06-2.2,1.92-3.79,2.59s-3.27,1-5.05,1c-3.36,0-6.21-1.17-8.55-3.5-2.37-2.27-3.55-5.06-3.55-8.37s1.17-6.12,3.5-8.46c2.37-2.31,5.17-3.46,8.41-3.46,3.86,0,6.95,1.2,9.25,3.6Z"/><path class="cls-9" d="M1413.49,55.55h-4.21v-6.59h4.25v-3.74l7.52-2.34v6.08h5.7v6.59h-5.61v6.87c0,1.71,.64,2.57,1.92,2.57,1,0,1.78-.36,2.34-1.08l3.27,5.56c-1.71,1.71-4.02,2.57-6.92,2.57-2.59,0-4.61-.82-6.08-2.45-1.46-1.63-2.2-3.96-2.2-6.99v-7.06Z"/><path class="cls-9" d="M1435.45,46.95c-.87,.06-1.66-.16-2.36-.68-.7-.51-1.21-1.15-1.52-1.92s-.4-1.58-.26-2.45c.14-.87,.54-1.6,1.19-2.2,.87-.81,1.85-1.21,2.94-1.21s2.09,.42,2.99,1.26c.9,.84,1.32,1.84,1.26,2.99,0,1.15-.41,2.14-1.24,2.97s-1.83,1.24-3.01,1.24Zm-3.74,2.01h7.52v22.38h-7.52v-22.38Z"/><path class="cls-9" d="M1455.03,64.71l4.72-15.75h7.62l-7.62,22.38h-9.77l-7.71-22.38h8.27l4.49,15.75Z"/><path class="cls-9" d="M1481.44,72.05c-3.49,0-6.42-1.15-8.79-3.46-2.37-2.27-3.55-5.08-3.55-8.41s1.12-6.12,3.37-8.46c2.21-2.31,4.94-3.46,8.18-3.46s6.06,1.09,8.27,3.27c2.21,2.21,3.32,4.94,3.32,8.18,0,1.09-.05,1.87-.14,2.34h-15.19c.31,1.06,.89,1.89,1.73,2.5,.84,.61,1.87,.91,3.08,.91,1.71,0,3.25-.7,4.63-2.1l3.83,5.09c-.87,1.06-2.1,1.92-3.67,2.59-1.57,.67-3.26,1-5.07,1Zm-.65-17.48c-1.84,0-3.08,.97-3.74,2.9h7.48c-.62-1.93-1.87-2.9-3.74-2.9Z"/><path class="cls-9" d="M1526.63,68.54c-2.34,2.34-5.14,3.5-8.41,3.5s-6.08-1.17-8.41-3.5c-2.34-2.31-3.5-5.09-3.5-8.37s1.17-6.12,3.5-8.46c2.37-2.31,5.17-3.46,8.41-3.46s6.04,1.15,8.41,3.46c2.34,2.34,3.51,5.16,3.51,8.46s-1.17,6.06-3.51,8.37Zm-11.54-4.95c.84,.93,1.88,1.4,3.13,1.4s2.29-.47,3.13-1.4c.84-.87,1.26-2.01,1.26-3.41s-.42-2.52-1.26-3.46c-.84-.93-1.89-1.4-3.13-1.4s-2.29,.47-3.13,1.4c-.84,.94-1.26,2.09-1.26,3.46s.42,2.54,1.26,3.41Z"/><path class="cls-9" d="M1541.49,59.01v12.34h-7.52v-22.38h7.52v2.76c1.18-2.31,3.12-3.46,5.79-3.46s4.58,.87,6.08,2.62c1.5,1.75,2.24,4.11,2.24,7.1v13.37h-7.52v-12.34c0-1.12-.3-2.02-.89-2.69-.59-.67-1.39-1-2.38-1s-1.8,.34-2.41,1c-.61,.67-.91,1.57-.91,2.69Z"/><path class="cls-9" d="M1583.55,71.35h-10.89v-29.96h10.89c4.89,0,8.94,1.42,12.15,4.25s4.81,6.43,4.81,10.79-1.6,7.85-4.81,10.65c-3.21,2.84-7.26,4.25-12.15,4.25Zm-.14-22.71h-2.8v15.47h2.85c2.65,0,4.77-.71,6.38-2.13,1.6-1.42,2.41-3.29,2.41-5.63s-.81-4.17-2.43-5.58c-1.62-1.42-3.75-2.13-6.4-2.13Z"/><path class="cls-9" d="M1623.5,68.54c-2.34,2.34-5.14,3.5-8.41,3.5s-6.08-1.17-8.41-3.5c-2.34-2.31-3.5-5.09-3.5-8.37s1.17-6.12,3.5-8.46c2.37-2.31,5.17-3.46,8.41-3.46s6.04,1.15,8.41,3.46c2.34,2.34,3.51,5.16,3.51,8.46s-1.17,6.06-3.51,8.37Zm-11.54-4.95c.84,.93,1.88,1.4,3.13,1.4s2.29-.47,3.13-1.4c.84-.87,1.26-2.01,1.26-3.41s-.42-2.52-1.26-3.46c-.84-.93-1.89-1.4-3.13-1.4s-2.29,.47-3.13,1.4c-.84,.94-1.26,2.09-1.26,3.46s.42,2.54,1.26,3.41Z"/><path class="cls-9" d="M1630.84,48.96h7.52v21.64c0,3.24-.84,5.82-2.52,7.73-1.68,1.92-4.02,2.87-7.01,2.87-2.77,0-4.94-.78-6.5-2.34l3.5-5.56c.78,.68,1.65,1.03,2.62,1.03,.72,0,1.29-.3,1.73-.89,.44-.59,.65-1.42,.65-2.48v-22.01Zm.79-9.25c.87-.81,1.85-1.21,2.94-1.21s2.09,.42,2.99,1.26c.9,.84,1.32,1.84,1.26,2.99,0,1.15-.41,2.14-1.24,2.97s-1.83,1.24-3.01,1.24c-.87,.06-1.66-.16-2.36-.68-.7-.51-1.21-1.15-1.52-1.92s-.4-1.58-.26-2.45c.14-.87,.54-1.6,1.19-2.2Z"/><path class="cls-9" d="M1662.52,68.54c-2.34,2.34-5.14,3.5-8.41,3.5s-6.08-1.17-8.41-3.5c-2.34-2.31-3.5-5.09-3.5-8.37s1.17-6.12,3.5-8.46c2.37-2.31,5.17-3.46,8.41-3.46s6.04,1.15,8.41,3.46c2.34,2.34,3.51,5.16,3.51,8.46s-1.17,6.06-3.51,8.37Zm-11.54-4.95c.84,.93,1.88,1.4,3.13,1.4s2.29-.47,3.13-1.4c.84-.87,1.26-2.01,1.26-3.41s-.42-2.52-1.26-3.46c-.84-.93-1.89-1.4-3.13-1.4s-2.29,.47-3.13,1.4c-.84,.94-1.26,2.09-1.26,3.46s.42,2.54,1.26,3.41Z"/><path class="cls-9" d="M607.06,127.42h-7.52v-2.1c-1.43,1.87-3.33,2.8-5.7,2.8-2.93,0-5.42-1.11-7.48-3.32-2.09-2.18-3.13-5.03-3.13-8.55s1.01-6.25,3.04-8.55c1.99-2.24,4.52-3.37,7.57-3.37,2.46,0,4.36,.86,5.7,2.57v-1.87h7.52v22.38Zm-15.05-7.76c.84,.93,1.88,1.4,3.13,1.4s2.29-.47,3.13-1.4c.84-.87,1.26-2.01,1.26-3.41s-.42-2.52-1.26-3.46-1.89-1.4-3.13-1.4-2.29,.47-3.13,1.4-1.26,2.09-1.26,3.46,.42,2.54,1.26,3.41Z"/><path class="cls-9" d="M619.73,115.09v12.34h-7.52v-22.38h7.52v2.76c1.18-2.3,3.11-3.46,5.79-3.46s4.58,.87,6.08,2.62c1.5,1.75,2.24,4.11,2.24,7.1v13.37h-7.52v-12.34c0-1.12-.3-2.02-.89-2.69-.59-.67-1.39-1-2.38-1s-1.8,.33-2.41,1-.91,1.57-.91,2.69Z"/><path class="cls-9" d="M653.98,106.91v-9.3l7.52-2.34v32.15h-7.52v-2.1c-1.43,1.87-3.33,2.8-5.7,2.8-2.93,0-5.42-1.11-7.48-3.32-2.09-2.18-3.13-5.03-3.13-8.55s1.01-6.25,3.04-8.55c1.99-2.24,4.52-3.37,7.57-3.37,2.46,0,4.36,.86,5.7,2.57Zm-7.52,12.76c.84,.93,1.88,1.4,3.13,1.4s2.29-.47,3.13-1.4c.84-.87,1.26-2.01,1.26-3.41s-.42-2.52-1.26-3.46-1.89-1.4-3.13-1.4-2.29,.47-3.13,1.4-1.26,2.09-1.26,3.46,.42,2.54,1.26,3.41Z"/><path class="cls-9" d="M685.85,127.42h-7.52v-29.82l7.52-2.34v32.15Z"/><path class="cls-9" d="M702.02,128.13c-3.49,0-6.42-1.15-8.79-3.46-2.37-2.27-3.55-5.08-3.55-8.41s1.12-6.12,3.36-8.46c2.21-2.3,4.94-3.46,8.18-3.46s6.06,1.09,8.27,3.27c2.21,2.21,3.32,4.94,3.32,8.18,0,1.09-.05,1.87-.14,2.34h-15.19c.31,1.06,.89,1.89,1.73,2.5,.84,.61,1.87,.91,3.08,.91,1.71,0,3.26-.7,4.63-2.1l3.83,5.09c-.87,1.06-2.1,1.92-3.67,2.59-1.57,.67-3.26,1-5.07,1Zm-.65-17.48c-1.84,0-3.08,.97-3.74,2.9h7.48c-.62-1.93-1.87-2.9-3.74-2.9Z"/><path class="cls-9" d="M727.16,120.79l4.72-15.75h7.62l-7.62,22.38h-9.77l-7.71-22.38h8.27l4.49,15.75Z"/><path class="cls-9" d="M753.57,128.13c-3.49,0-6.42-1.15-8.79-3.46-2.37-2.27-3.55-5.08-3.55-8.41s1.12-6.12,3.36-8.46c2.21-2.3,4.94-3.46,8.18-3.46s6.06,1.09,8.27,3.27c2.21,2.21,3.32,4.94,3.32,8.18,0,1.09-.05,1.87-.14,2.34h-15.19c.31,1.06,.89,1.89,1.73,2.5,.84,.61,1.87,.91,3.08,.91,1.71,0,3.26-.7,4.63-2.1l3.83,5.09c-.87,1.06-2.1,1.92-3.67,2.59-1.57,.67-3.26,1-5.07,1Zm-.65-17.48c-1.84,0-3.08,.97-3.74,2.9h7.48c-.62-1.93-1.87-2.9-3.74-2.9Z"/><path class="cls-9" d="M775.58,127.42h-7.52v-29.82l7.52-2.34v32.15Z"/><path class="cls-9" d="M791.7,105.04h7.52v11.78c0,1.28,.33,2.31,.98,3.08,.65,.78,1.51,1.17,2.57,1.17s1.91-.39,2.55-1.17c.64-.78,.96-1.81,.96-3.08v-11.78h7.52v12.34c0,3.24-1.01,5.84-3.04,7.8-1.99,1.96-4.66,2.94-7.99,2.94s-6.01-.98-8.04-2.94c-2.03-1.96-3.04-4.56-3.04-7.8v-12.34Z"/><path class="cls-9" d="M818.24,136.58v-31.54h7.52v2.1c1.43-1.87,3.33-2.8,5.7-2.8,2.93,0,5.44,1.09,7.52,3.27,2.06,2.18,3.08,5.05,3.08,8.6s-1,6.29-2.99,8.5c-1.99,2.28-4.53,3.41-7.62,3.41-2.46,0-4.36-.86-5.7-2.57v11.03h-7.52Zm15.05-23.83c-.84-.9-1.89-1.36-3.13-1.36s-2.29,.45-3.13,1.36c-.84,.93-1.26,2.09-1.26,3.46s.42,2.52,1.26,3.46,1.88,1.4,3.13,1.4,2.29-.47,3.13-1.4,1.26-2.09,1.26-3.46-.42-2.52-1.26-3.46Z"/><path class="cls-9" d="M855.16,105.04h8.32l5.28,12.95,4.3-12.95h7.57l-8.55,24.3c-1.84,5.3-5.03,7.94-9.58,7.94-2.77,0-5.11-.9-7.01-2.71l3.32-5.89c1.09,1.03,2.31,1.54,3.65,1.54s2.35-.81,3.04-2.43l-10.33-22.76Z"/><path class="cls-9" d="M902.69,124.62c-2.34,2.34-5.14,3.5-8.41,3.5s-6.08-1.17-8.41-3.5c-2.34-2.31-3.5-5.09-3.5-8.37s1.17-6.12,3.5-8.46c2.37-2.3,5.17-3.46,8.41-3.46s6.04,1.15,8.41,3.46c2.34,2.34,3.5,5.16,3.5,8.46s-1.17,6.06-3.5,8.37Zm-11.54-4.95c.84,.93,1.88,1.4,3.13,1.4s2.29-.47,3.13-1.4c.84-.87,1.26-2.01,1.26-3.41s-.42-2.52-1.26-3.46-1.89-1.4-3.13-1.4-2.29,.47-3.13,1.4-1.26,2.09-1.26,3.46,.42,2.54,1.26,3.41Z"/><path class="cls-9" d="M909.32,105.04h7.52v11.78c0,1.28,.33,2.31,.98,3.08,.65,.78,1.51,1.17,2.57,1.17s1.91-.39,2.55-1.17c.64-.78,.96-1.81,.96-3.08v-11.78h7.52v12.34c0,3.24-1.01,5.84-3.04,7.8-1.99,1.96-4.66,2.94-7.99,2.94s-6.01-.98-8.04-2.94c-2.03-1.96-3.04-4.56-3.04-7.8v-12.34Z"/><path class="cls-9" d="M943.39,115.32v12.1h-7.52v-22.38h7.52v3.46c1.21-2.77,2.99-4.16,5.33-4.16,1.56,0,2.8,.42,3.74,1.26l-3.08,7.1c-.81-.72-1.82-1.08-3.04-1.08-.9,0-1.62,.34-2.15,1-.53,.67-.79,1.57-.79,2.69Z"/><path class="cls-9" d="M974.93,115.32v12.1h-7.52v-22.38h7.52v3.46c1.22-2.77,2.99-4.16,5.33-4.16,1.56,0,2.8,.42,3.74,1.26l-3.08,7.1c-.81-.72-1.82-1.08-3.04-1.08-.9,0-1.62,.34-2.15,1-.53,.67-.79,1.57-.79,2.69Z"/><path class="cls-9" d="M998.3,128.13c-3.49,0-6.42-1.15-8.79-3.46-2.37-2.27-3.55-5.08-3.55-8.41s1.12-6.12,3.37-8.46c2.21-2.3,4.94-3.46,8.18-3.46s6.06,1.09,8.27,3.27c2.21,2.21,3.32,4.94,3.32,8.18,0,1.09-.05,1.87-.14,2.34h-15.19c.31,1.06,.89,1.89,1.73,2.5,.84,.61,1.87,.91,3.08,.91,1.71,0,3.25-.7,4.63-2.1l3.83,5.09c-.87,1.06-2.1,1.92-3.67,2.59-1.57,.67-3.26,1-5.07,1Zm-.65-17.48c-1.84,0-3.08,.97-3.74,2.9h7.48c-.62-1.93-1.87-2.9-3.74-2.9Z"/><path class="cls-9" d="M1012.79,136.58v-31.54h7.52v2.1c1.43-1.87,3.33-2.8,5.7-2.8,2.93,0,5.44,1.09,7.52,3.27,2.06,2.18,3.08,5.05,3.08,8.6s-1,6.29-2.99,8.5c-1.99,2.28-4.53,3.41-7.62,3.41-2.46,0-4.36-.86-5.7-2.57v11.03h-7.52Zm15.05-23.83c-.84-.9-1.89-1.36-3.13-1.36s-2.29,.45-3.13,1.36c-.84,.93-1.26,2.09-1.26,3.46s.42,2.52,1.26,3.46c.84,.93,1.88,1.4,3.13,1.4s2.29-.47,3.13-1.4,1.26-2.09,1.26-3.46-.42-2.52-1.26-3.46Z"/><path class="cls-9" d="M1039.75,105.04h7.52v11.78c0,1.28,.33,2.31,.98,3.08,.65,.78,1.51,1.17,2.57,1.17s1.91-.39,2.55-1.17c.64-.78,.96-1.81,.96-3.08v-11.78h7.52v12.34c0,3.24-1.01,5.84-3.04,7.8-1.99,1.96-4.66,2.94-7.99,2.94s-6.01-.98-8.04-2.94c-2.03-1.96-3.04-4.56-3.04-7.8v-12.34Z"/><path class="cls-9" d="M1068.4,111.63h-4.21v-6.59h4.25v-3.74l7.52-2.34v6.08h5.7v6.59h-5.61v6.87c0,1.71,.64,2.57,1.92,2.57,1,0,1.78-.36,2.34-1.08l3.27,5.56c-1.71,1.71-4.02,2.57-6.92,2.57-2.59,0-4.61-.82-6.08-2.45-1.46-1.63-2.2-3.96-2.2-6.99v-7.06Z"/><path class="cls-9" d="M1109.15,127.42h-7.52v-2.1c-1.43,1.87-3.33,2.8-5.7,2.8-2.93,0-5.42-1.11-7.48-3.32-2.09-2.18-3.13-5.03-3.13-8.55s1.01-6.25,3.04-8.55c1.99-2.24,4.52-3.37,7.57-3.37,2.46,0,4.36,.86,5.7,2.57v-1.87h7.52v22.38Zm-15.05-7.76c.84,.93,1.88,1.4,3.13,1.4s2.29-.47,3.13-1.4c.84-.87,1.26-2.01,1.26-3.41s-.42-2.52-1.26-3.46-1.89-1.4-3.13-1.4-2.29,.47-3.13,1.4c-.84,.93-1.26,2.09-1.26,3.46s.42,2.54,1.26,3.41Z"/><path class="cls-9" d="M1116.39,111.63h-4.21v-6.59h4.25v-3.74l7.52-2.34v6.08h5.7v6.59h-5.61v6.87c0,1.71,.64,2.57,1.92,2.57,1,0,1.78-.36,2.34-1.08l3.27,5.56c-1.71,1.71-4.02,2.57-6.92,2.57-2.59,0-4.61-.82-6.08-2.45-1.46-1.63-2.2-3.96-2.2-6.99v-7.06Z"/><path class="cls-9" d="M1138.36,103.03c-.87,.06-1.66-.16-2.36-.68-.7-.51-1.21-1.15-1.52-1.92-.31-.76-.4-1.58-.26-2.45,.14-.87,.54-1.6,1.19-2.2,.87-.81,1.85-1.21,2.94-1.21s2.09,.42,2.99,1.26c.9,.84,1.32,1.84,1.26,2.99,0,1.15-.41,2.14-1.24,2.97s-1.83,1.24-3.01,1.24Zm-3.74,2.01h7.52v22.38h-7.52v-22.38Z"/><path class="cls-9" d="M1166.3,124.62c-2.34,2.34-5.14,3.5-8.41,3.5s-6.08-1.17-8.41-3.5c-2.34-2.31-3.5-5.09-3.5-8.37s1.17-6.12,3.5-8.46c2.37-2.3,5.17-3.46,8.41-3.46s6.04,1.15,8.41,3.46c2.34,2.34,3.51,5.16,3.51,8.46s-1.17,6.06-3.51,8.37Zm-11.54-4.95c.84,.93,1.88,1.4,3.13,1.4s2.29-.47,3.13-1.4c.84-.87,1.26-2.01,1.26-3.41s-.42-2.52-1.26-3.46-1.89-1.4-3.13-1.4-2.29,.47-3.13,1.4c-.84,.93-1.26,2.09-1.26,3.46s.42,2.54,1.26,3.41Z"/><path class="cls-9" d="M1181.16,115.09v12.34h-7.52v-22.38h7.52v2.76c1.18-2.3,3.12-3.46,5.79-3.46s4.58,.87,6.08,2.62c1.5,1.75,2.24,4.11,2.24,7.1v13.37h-7.52v-12.34c0-1.12-.3-2.02-.89-2.69-.59-.67-1.39-1-2.38-1s-1.8,.33-2.41,1c-.61,.67-.91,1.57-.91,2.69Z"/><path class="cls-9" d="M1214.2,111.63h-4.21v-6.59h4.25v-3.74l7.52-2.34v6.08h5.7v6.59h-5.61v6.87c0,1.71,.64,2.57,1.92,2.57,1,0,1.78-.36,2.34-1.08l3.27,5.56c-1.71,1.71-4.02,2.57-6.92,2.57-2.59,0-4.61-.82-6.08-2.45-1.46-1.63-2.2-3.96-2.2-6.99v-7.06Z"/><path class="cls-9" d="M1251.45,124.62c-2.34,2.34-5.14,3.5-8.41,3.5s-6.08-1.17-8.41-3.5c-2.34-2.31-3.5-5.09-3.5-8.37s1.17-6.12,3.5-8.46c2.37-2.3,5.17-3.46,8.41-3.46s6.04,1.15,8.41,3.46c2.34,2.34,3.51,5.16,3.51,8.46s-1.17,6.06-3.51,8.37Zm-11.54-4.95c.84,.93,1.88,1.4,3.13,1.4s2.29-.47,3.13-1.4c.84-.87,1.26-2.01,1.26-3.41s-.42-2.52-1.26-3.46-1.89-1.4-3.13-1.4-2.29,.47-3.13,1.4c-.84,.93-1.26,2.09-1.26,3.46s.42,2.54,1.26,3.41Z"/><path class="cls-9" d="M1281.5,128.13c-3.49,0-6.42-1.15-8.79-3.46-2.37-2.27-3.55-5.08-3.55-8.41s1.12-6.12,3.37-8.46c2.21-2.3,4.94-3.46,8.18-3.46s6.06,1.09,8.27,3.27c2.21,2.21,3.32,4.94,3.32,8.18,0,1.09-.05,1.87-.14,2.34h-15.19c.31,1.06,.89,1.89,1.73,2.5,.84,.61,1.87,.91,3.08,.91,1.71,0,3.25-.7,4.63-2.1l3.83,5.09c-.87,1.06-2.1,1.92-3.67,2.59-1.57,.67-3.26,1-5.07,1Zm-.65-17.48c-1.84,0-3.08,.97-3.74,2.9h7.48c-.62-1.93-1.87-2.9-3.74-2.9Z"/><path class="cls-9" d="M1303.51,115.09v12.34h-7.52v-22.38h7.52v2.76c1.18-2.3,3.12-3.46,5.79-3.46s4.58,.87,6.08,2.62c1.5,1.75,2.24,4.11,2.24,7.1v13.37h-7.52v-12.34c0-1.12-.3-2.02-.89-2.69-.59-.67-1.39-1-2.38-1s-1.8,.33-2.41,1c-.61,.67-.91,1.57-.91,2.69Z"/><path class="cls-9" d="M1324.86,111.63h-4.21v-6.59h4.25v-3.74l7.52-2.34v6.08h5.7v6.59h-5.61v6.87c0,1.71,.64,2.57,1.92,2.57,1,0,1.78-.36,2.34-1.08l3.27,5.56c-1.71,1.71-4.02,2.57-6.92,2.57-2.59,0-4.61-.82-6.08-2.45-1.46-1.63-2.2-3.96-2.2-6.99v-7.06Z"/><path class="cls-9" d="M1354.12,128.13c-3.49,0-6.42-1.15-8.79-3.46-2.37-2.27-3.55-5.08-3.55-8.41s1.12-6.12,3.37-8.46c2.21-2.3,4.94-3.46,8.18-3.46s6.06,1.09,8.27,3.27c2.21,2.21,3.32,4.94,3.32,8.18,0,1.09-.05,1.87-.14,2.34h-15.19c.31,1.06,.89,1.89,1.73,2.5,.84,.61,1.87,.91,3.08,.91,1.71,0,3.25-.7,4.63-2.1l3.83,5.09c-.87,1.06-2.1,1.92-3.67,2.59-1.57,.67-3.26,1-5.07,1Zm-.65-17.48c-1.84,0-3.08,.97-3.74,2.9h7.48c-.62-1.93-1.87-2.9-3.74-2.9Z"/><path class="cls-9" d="M1376.13,115.32v12.1h-7.52v-22.38h7.52v3.46c1.22-2.77,2.99-4.16,5.33-4.16,1.56,0,2.8,.42,3.74,1.26l-3.08,7.1c-.81-.72-1.82-1.08-3.04-1.08-.9,0-1.62,.34-2.15,1-.53,.67-.79,1.57-.79,2.69Z"/><path class="cls-9" d="M1402.25,111.63h-4.21v-6.59h4.25v-3.74l7.52-2.34v6.08h5.7v6.59h-5.61v6.87c0,1.71,.64,2.57,1.92,2.57,1,0,1.78-.36,2.34-1.08l3.27,5.56c-1.71,1.71-4.02,2.57-6.92,2.57-2.59,0-4.61-.82-6.08-2.45-1.46-1.63-2.2-3.96-2.2-6.99v-7.06Z"/><path class="cls-9" d="M1428,115.09v12.34h-7.52v-29.82l7.52-2.34v12.52c1.18-2.3,3.12-3.46,5.79-3.46s4.58,.87,6.08,2.62c1.5,1.75,2.24,4.11,2.24,7.1v13.37h-7.52v-12.34c0-1.12-.3-2.02-.89-2.69-.59-.67-1.39-1-2.38-1s-1.8,.33-2.41,1c-.61,.67-.91,1.57-.91,2.69Z"/><path class="cls-9" d="M1458.28,128.13c-3.49,0-6.42-1.15-8.79-3.46-2.37-2.27-3.55-5.08-3.55-8.41s1.12-6.12,3.37-8.46c2.21-2.3,4.94-3.46,8.18-3.46s6.06,1.09,8.27,3.27c2.21,2.21,3.32,4.94,3.32,8.18,0,1.09-.05,1.87-.14,2.34h-15.19c.31,1.06,.89,1.89,1.73,2.5,.84,.61,1.87,.91,3.08,.91,1.71,0,3.25-.7,4.63-2.1l3.83,5.09c-.87,1.06-2.1,1.92-3.67,2.59-1.57,.67-3.26,1-5.07,1Zm-.65-17.48c-1.84,0-3.08,.97-3.74,2.9h7.48c-.62-1.93-1.87-2.9-3.74-2.9Z"/><path class="cls-9" d="M1491.98,115.09v12.34h-7.52v-22.38h7.52v2.76c1.18-2.3,3.12-3.46,5.79-3.46s4.58,.87,6.08,2.62c1.5,1.75,2.24,4.11,2.24,7.1v13.37h-7.52v-12.34c0-1.12-.3-2.02-.89-2.69-.59-.67-1.39-1-2.38-1s-1.8,.33-2.41,1c-.61,.67-.91,1.57-.91,2.69Z"/><path class="cls-9" d="M1522.26,128.13c-3.49,0-6.42-1.15-8.79-3.46-2.37-2.27-3.55-5.08-3.55-8.41s1.12-6.12,3.37-8.46c2.21-2.3,4.94-3.46,8.18-3.46s6.06,1.09,8.27,3.27c2.21,2.21,3.32,4.94,3.32,8.18,0,1.09-.05,1.87-.14,2.34h-15.19c.31,1.06,.89,1.89,1.73,2.5,.84,.61,1.87,.91,3.08,.91,1.71,0,3.25-.7,4.63-2.1l3.83,5.09c-.87,1.06-2.1,1.92-3.67,2.59-1.57,.67-3.26,1-5.07,1Zm-.65-17.48c-1.84,0-3.08,.97-3.74,2.9h7.48c-.62-1.93-1.87-2.9-3.74-2.9Z"/><path class="cls-9" d="M1560.34,127.42h-9.35l-3.92-5.47-4.07,5.47h-8.36l8.32-11.17-8.08-11.22h9.3l3.74,5.14,3.79-5.14h8.41l-8.08,10.89,8.32,11.5Z"/><path class="cls-9" d="M1565.48,111.63h-4.21v-6.59h4.25v-3.74l7.52-2.34v6.08h5.7v6.59h-5.61v6.87c0,1.71,.64,2.57,1.92,2.57,1,0,1.78-.36,2.34-1.08l3.27,5.56c-1.71,1.71-4.02,2.57-6.92,2.57-2.59,0-4.61-.82-6.08-2.45-1.46-1.63-2.2-3.96-2.2-6.99v-7.06Z"/><path class="cls-9" d="M1602.92,127.42h-7.52v-29.82l7.52-2.34v32.15Z"/><path class="cls-9" d="M1619.09,128.13c-3.49,0-6.42-1.15-8.79-3.46-2.37-2.27-3.55-5.08-3.55-8.41s1.12-6.12,3.37-8.46c2.21-2.3,4.94-3.46,8.18-3.46s6.06,1.09,8.27,3.27c2.21,2.21,3.32,4.94,3.32,8.18,0,1.09-.05,1.87-.14,2.34h-15.19c.31,1.06,.89,1.89,1.73,2.5,.84,.61,1.87,.91,3.08,.91,1.71,0,3.25-.7,4.63-2.1l3.83,5.09c-.87,1.06-2.1,1.92-3.67,2.59-1.57,.67-3.26,1-5.07,1Zm-.65-17.48c-1.84,0-3.08,.97-3.74,2.9h7.48c-.62-1.93-1.87-2.9-3.74-2.9Z"/><path class="cls-9" d="M1644.23,120.79l4.72-15.75h7.62l-7.62,22.38h-9.77l-7.71-22.38h8.27l4.49,15.75Z"/><path class="cls-9" d="M1670.63,128.13c-3.49,0-6.42-1.15-8.79-3.46-2.37-2.27-3.55-5.08-3.55-8.41s1.12-6.12,3.37-8.46c2.21-2.3,4.94-3.46,8.18-3.46s6.06,1.09,8.27,3.27c2.21,2.21,3.32,4.94,3.32,8.18,0,1.09-.05,1.87-.14,2.34h-15.19c.31,1.06,.89,1.89,1.73,2.5,.84,.61,1.87,.91,3.08,.91,1.71,0,3.25-.7,4.63-2.1l3.83,5.09c-.87,1.06-2.1,1.92-3.67,2.59-1.57,.67-3.26,1-5.07,1Zm-.65-17.48c-1.84,0-3.08,.97-3.74,2.9h7.48c-.62-1.93-1.87-2.9-3.74-2.9Z"/><path class="cls-9" d="M1692.64,127.42h-7.52v-29.82l7.52-2.34v32.15Z"/><path class="cls-9" d="M1705.49,120.18c.9,.93,1.36,2.04,1.36,3.32s-.45,2.37-1.36,3.27c-.93,.9-2.04,1.36-3.32,1.36s-2.37-.45-3.27-1.36-1.35-1.99-1.35-3.27,.45-2.38,1.35-3.32c.9-.9,1.99-1.36,3.27-1.36s2.38,.45,3.32,1.36Zm.7-22.71l-1.03,17.95h-5.94l-1.03-17.95h7.99Z"/></g><circle class="cls-4" cx="278.94" cy="330.86" r="25.33"/><circle class="cls-4" cx="85.55" cy="330.86" r="16.89"/><circle class="cls-7" cx="85.55" cy="330.86" r="10.13"/><rect class="cls-7" x="20.55" y="243.93" width="130" height="42.56" rx="21.28" ry="21.28"/><path class="cls-7" d="M97.24,286.48l-.65-8.54h-22.08l-.65,8.54c6.49,2.23,11.69,11.98,11.69,18.06,0-6.09,5.2-15.83,11.69-18.06Z"/><g><path class="cls-4" d="M53,259.41l-2.77,2.77c-.88-1.22-2.03-1.83-3.47-1.83-1.01,0-1.51,.32-1.51,.97,0,.33,.23,.62,.68,.87,.45,.25,1.18,.53,2.17,.85s1.72,.58,2.18,.78c.81,.36,1.47,.9,1.97,1.62,.5,.72,.76,1.56,.76,2.54,0,1.5-.59,2.73-1.78,3.69-1.21,.97-2.72,1.46-4.56,1.46-3.04,0-5.19-.99-6.44-2.97l2.9-2.72c.89,1.24,2.1,1.86,3.62,1.86,1.25,0,1.88-.38,1.88-1.14,0-.28-.15-.53-.43-.74-.29-.21-.66-.4-1.11-.56s-.95-.32-1.5-.48c-.54-.16-1.09-.38-1.65-.63s-1.06-.56-1.51-.9c-.45-.35-.83-.81-1.11-1.4-.29-.59-.43-1.26-.43-2.02,0-1.42,.57-2.59,1.71-3.52,1.16-.92,2.61-1.39,4.36-1.39,1.32,0,2.51,.26,3.57,.77,1.06,.51,1.89,1.22,2.5,2.13Z"/><path class="cls-4" d="M59.19,272.76h-4.09v-15.88h4.09v15.88Z"/><path class="cls-4" d="M75.88,263.45l.02,7.75c-1.57,1.29-3.67,1.93-6.29,1.93-2.33,0-4.28-.81-5.85-2.43-1.57-1.62-2.35-3.58-2.35-5.89s.81-4.25,2.43-5.87c1.62-1.62,3.55-2.43,5.8-2.43,2.64,0,4.67,.78,6.09,2.35l-2.72,3.12c-.89-.92-2-1.39-3.32-1.39-1.09,0-2.01,.4-2.75,1.21-.76,.81-1.14,1.81-1.14,3s.39,2.17,1.16,3c.78,.83,1.75,1.24,2.92,1.24,.69,0,1.34-.15,1.93-.45v-5.1l4.06-.05Zm-6.39,0h6.39l-1.98,3.29h-4.41v-3.29Z"/><path class="cls-4" d="M92.92,272.76h-4.38l-5.82-9.04v9.04h-4.09v-15.88h4.38l5.82,9.19v-9.19h4.09v15.88Z"/><path class="cls-4" d="M101.96,265.98v-9.09h4.09v8.99c0,.96,.25,1.73,.76,2.3,.5,.58,1.17,.87,1.99,.87s1.46-.29,1.94-.85c.49-.57,.73-1.33,.73-2.29v-9.02h4.09v9.09c0,2.15-.62,3.87-1.86,5.18-1.27,1.32-2.93,1.98-4.98,1.98s-3.67-.66-4.9-1.98c-1.24-1.3-1.86-3.03-1.86-5.18Z"/><path class="cls-4" d="M122.5,272.76h-4.09v-15.88h5.77c2.03,0,3.66,.5,4.88,1.51,1.22,1.02,1.83,2.35,1.83,3.99s-.61,3.01-1.83,4.04c-1.26,1.02-2.89,1.54-4.9,1.54h-1.66v4.8Zm2.01-12.29h-2.01v3.89h2.01c.61,0,1.11-.18,1.49-.54,.38-.36,.57-.84,.57-1.44s-.19-1.04-.57-1.39c-.38-.35-.88-.52-1.49-.52Z"/></g><g><polygon class="cls-4" points="316.05 367.69 305.31 365.62 333.56 330.86 305.31 296.11 316.05 294.04 345.99 330.86 316.05 367.69"/><polygon class="cls-4" points="347.42 367.69 336.68 365.62 364.93 330.86 336.68 296.11 347.42 294.04 377.36 330.86 347.42 367.69"/><polygon class="cls-4" points="378.8 367.69 368.06 365.62 396.31 330.86 368.06 296.11 378.8 294.04 408.74 330.86 378.8 367.69"/><polygon class="cls-4" points="410.18 367.69 399.44 365.62 427.69 330.86 399.44 296.11 410.18 294.04 440.11 330.86 410.18 367.69"/></g><circle class="cls-4" cx="841.63" cy="330.86" r="25.33"/><circle class="cls-4" cx="470.28" cy="330.86" r="16.89"/><circle class="cls-7" cx="470.28" cy="330.86" r="10.13"/><rect class="cls-7" x="405.28" y="243.93" width="130" height="42.56" rx="21.28" ry="21.28"/><rect class="cls-9" x="774.13" y="355.9" width="135" height="42.56" rx="21.28" ry="21.28"/><path class="cls-7" d="M481.97,286.48l-.65-8.54h-22.08l-.65,8.54c6.49,2.23,11.69,11.98,11.69,18.06,0-6.09,5.2-15.83,11.69-18.06Z"/><g><path class="cls-4" d="M443.99,272.76h-11.29v-15.88h4.09v12.04h7.21v3.84Z"/><path class="cls-4" d="M447.43,258.94c1.62-1.62,3.57-2.43,5.87-2.43s4.24,.81,5.89,2.43c1.62,1.65,2.43,3.62,2.43,5.89s-.81,4.25-2.43,5.87c-1.65,1.62-3.62,2.43-5.89,2.43s-4.27-.82-5.87-2.45c-1.63-1.62-2.45-3.58-2.45-5.87s.82-4.25,2.45-5.87Zm1.93,5.87c0,1.17,.39,2.17,1.16,3,.78,.83,1.7,1.24,2.77,1.24s2.02-.41,2.8-1.24c.76-.81,1.14-1.8,1.14-2.97s-.38-2.19-1.14-3c-.78-.83-1.71-1.24-2.8-1.24s-2.02,.4-2.77,1.21c-.78,.83-1.16,1.82-1.16,3Z"/><path class="cls-4" d="M477.57,263.45l.02,7.75c-1.57,1.29-3.67,1.93-6.29,1.93-2.33,0-4.28-.81-5.85-2.43-1.57-1.62-2.35-3.58-2.35-5.89s.81-4.25,2.43-5.87c1.62-1.62,3.55-2.43,5.8-2.43,2.64,0,4.67,.78,6.09,2.35l-2.72,3.12c-.89-.92-2-1.39-3.32-1.39-1.09,0-2.01,.4-2.75,1.21-.76,.81-1.14,1.81-1.14,3s.39,2.17,1.16,3c.78,.83,1.75,1.24,2.92,1.24,.69,0,1.34-.15,1.93-.45v-5.1l4.06-.05Zm-6.39,0h6.39l-1.98,3.29h-4.41v-3.29Z"/><path class="cls-4" d="M490.6,272.76h-4.09v-15.88h4.09v15.88Z"/><path class="cls-4" d="M507.86,272.76h-4.38l-5.82-9.04v9.04h-4.09v-15.88h4.38l5.82,9.19v-9.19h4.09v15.88Z"/></g><g><path d="M44.55,372.53h-2.5v-12.82h8.12v2.36h-5.62v3.1h4.82v2.36h-4.82v5Z"/><path d="M54.93,372.53h-2.5v-12.82h4.56c1.52,0,2.73,.37,3.64,1.1,.92,.75,1.38,1.73,1.38,2.94,0,.87-.24,1.62-.71,2.25-.47,.63-1.14,1.11-1.99,1.43l2.98,5.1h-2.9l-2.62-4.72h-1.84v4.72Zm2.26-10.62h-2.26v3.7h2.26c.65,0,1.18-.17,1.58-.51s.6-.79,.6-1.35-.2-.99-.6-1.33c-.4-.34-.93-.51-1.58-.51Z"/><path d="M72.98,372.53h-8.3v-12.82h8.3v2.34h-5.8v2.84h5v2.36h-5v2.92h5.8v2.36Z"/><path d="M83.58,372.53h-8.3v-12.82h8.3v2.34h-5.8v2.84h5v2.36h-5v2.92h5.8v2.36Z"/><path d="M102.21,372.53h-2.78l-1.1-2.88h-5.62l-1.12,2.88h-2.62l5.16-12.82h2.92l5.16,12.82Zm-8.66-5.1h3.92l-1.96-5.08-1.96,5.08Z"/><path d="M115.21,372.53h-2.7l-5.98-8.68v8.68h-2.5v-12.82h2.7l5.98,8.78v-8.78h2.5v12.82Z"/><path d="M122.6,372.53h-4.36v-12.82h4.26c2.11,0,3.84,.6,5.2,1.8,1.36,1.21,2.04,2.76,2.04,4.64s-.67,3.38-2,4.58c-1.33,1.2-3.05,1.8-5.14,1.8Zm-.12-10.46h-1.68v8.1h1.7c1.36,0,2.47-.37,3.32-1.12,.83-.75,1.24-1.73,1.24-2.94s-.41-2.19-1.24-2.94c-.83-.73-1.94-1.1-3.34-1.1Z"/><path d="M40.09,385.59l-1.72,1.7c-.29-.44-.71-.8-1.26-1.08-.55-.28-1.13-.42-1.74-.42s-1.05,.12-1.39,.35-.51,.54-.51,.93c0,.36,.17,.67,.5,.92,.33,.25,.75,.45,1.25,.59,.5,.14,1.04,.32,1.62,.54s1.12,.46,1.62,.72c.5,.26,.92,.65,1.25,1.16,.33,.51,.5,1.12,.5,1.83,0,1.17-.45,2.13-1.34,2.86-.91,.75-2.09,1.12-3.56,1.12-2.32,0-3.99-.77-5-2.3l1.78-1.66c.8,1.07,1.89,1.6,3.26,1.6,.69,0,1.23-.13,1.61-.39,.38-.26,.57-.62,.57-1.09,0-.27-.08-.51-.25-.72-.17-.21-.42-.4-.75-.57-.33-.17-.66-.31-.97-.43-.31-.12-.72-.26-1.21-.42-.49-.16-.89-.3-1.18-.42-.71-.28-1.28-.7-1.72-1.25-.44-.55-.66-1.22-.66-2.01,0-1.08,.44-1.97,1.32-2.68,.85-.69,1.97-1.04,3.36-1.04,1,0,1.91,.19,2.72,.58,.81,.39,1.45,.91,1.9,1.58Z"/><path d="M42.31,391.31v-7.6h2.5v7.56c0,.91,.25,1.64,.76,2.2,.51,.56,1.17,.84,2,.84s1.47-.28,1.97-.83,.75-1.28,.75-2.19v-7.58h2.5v7.6c0,1.65-.48,2.98-1.44,3.98-.97,1.01-2.25,1.52-3.82,1.52s-2.85-.51-3.78-1.52c-.96-1-1.44-2.33-1.44-3.98Z"/><path d="M58.23,396.53h-2.5v-12.82h4.56c1.56,0,2.81,.39,3.74,1.16s1.4,1.8,1.4,3.08-.47,2.31-1.42,3.1c-.93,.77-2.19,1.16-3.76,1.16h-2.02v4.32Zm2.26-10.62h-2.26v4.1h2.26c.69,0,1.25-.19,1.67-.57,.42-.38,.63-.88,.63-1.49s-.21-1.11-.63-1.48c-.42-.37-.98-.56-1.67-.56Z"/><path d="M75.95,396.53h-8.3v-12.82h8.3v2.34h-5.8v2.84h5v2.36h-5v2.92h5.8v2.36Z"/><path d="M80.75,396.53h-2.5v-12.82h4.56c1.52,0,2.73,.37,3.64,1.1,.92,.75,1.38,1.73,1.38,2.94,0,.87-.24,1.62-.71,2.25-.47,.63-1.14,1.11-1.99,1.43l2.98,5.1h-2.9l-2.62-4.72h-1.84v4.72Zm2.26-10.62h-2.26v3.7h2.26c.65,0,1.18-.17,1.58-.51s.6-.79,.6-1.35-.2-.99-.6-1.33c-.4-.34-.93-.51-1.58-.51Z"/><path d="M103.1,396.53h-8.3v-12.82h8.3v2.34h-5.8v2.84h5v2.36h-5v2.92h5.8v2.36Z"/><path d="M117.43,396.53h-2.78l-1.1-2.88h-5.62l-1.12,2.88h-2.62l5.16-12.82h2.92l5.16,12.82Zm-8.66-5.1h3.92l-1.96-5.08-1.96,5.08Z"/><path d="M128.17,385.59l-1.72,1.7c-.29-.44-.71-.8-1.26-1.08-.55-.28-1.13-.42-1.74-.42s-1.05,.12-1.39,.35-.51,.54-.51,.93c0,.36,.17,.67,.5,.92,.33,.25,.75,.45,1.25,.59,.5,.14,1.04,.32,1.62,.54s1.12,.46,1.62,.72c.5,.26,.92,.65,1.25,1.16,.33,.51,.5,1.12,.5,1.83,0,1.17-.45,2.13-1.34,2.86-.91,.75-2.09,1.12-3.56,1.12-2.32,0-3.99-.77-5-2.3l1.78-1.66c.8,1.07,1.89,1.6,3.26,1.6,.69,0,1.23-.13,1.61-.39,.38-.26,.57-.62,.57-1.09,0-.27-.08-.51-.25-.72-.17-.21-.42-.4-.75-.57-.33-.17-.66-.31-.97-.43-.31-.12-.72-.26-1.21-.42-.49-.16-.89-.3-1.18-.42-.71-.28-1.28-.7-1.72-1.25-.44-.55-.66-1.22-.66-2.01,0-1.08,.44-1.97,1.32-2.68,.85-.69,1.97-1.04,3.36-1.04,1,0,1.91,.19,2.72,.58,.81,.39,1.45,.91,1.9,1.58Z"/><path d="M136.46,396.53h-2.5v-4.26l-4.72-8.56h2.78l3.24,5.92,3.28-5.92h2.64l-4.72,8.56v4.26Z"/></g><g><path d="M245.09,369.63l2.82-9.92h2.62l-4.06,12.82h-3.12l-2.52-9.72-2.52,9.72h-3.02l-4.06-12.82h2.76l2.82,9.92,2.56-9.92h3.14l2.58,9.92Z"/><path d="M260.89,372.53h-8.3v-12.82h8.3v2.34h-5.8v2.84h5v2.36h-5v2.92h5.8v2.36Z"/><path d="M271.95,372.53h-8.76v-12.82h2.5v10.46h6.26v2.36Z"/><path d="M284.47,361.19l-1.66,1.9c-.89-.77-1.91-1.16-3.06-1.16s-2.02,.41-2.78,1.22c-.77,.81-1.16,1.81-1.16,2.98s.39,2.13,1.18,2.96c.77,.81,1.75,1.22,2.92,1.22s2.17-.39,2.9-1.16l1.66,1.84c-1.12,1.21-2.7,1.82-4.74,1.82-1.85,0-3.41-.65-4.68-1.96s-1.9-2.88-1.9-4.72,.65-3.45,1.94-4.74c1.28-1.31,2.83-1.96,4.64-1.96,1.99,0,3.57,.59,4.74,1.76Z"/><path d="M287.73,361.39c1.31-1.31,2.87-1.96,4.68-1.96s3.39,.65,4.7,1.96c1.29,1.31,1.94,2.89,1.94,4.74s-.65,3.43-1.94,4.72c-1.31,1.31-2.87,1.96-4.7,1.96s-3.37-.65-4.68-1.96c-1.29-1.29-1.94-2.87-1.94-4.72s.65-3.45,1.94-4.74Zm4.68,8.92c1.11,0,2.05-.41,2.82-1.22,.77-.81,1.16-1.8,1.16-2.96s-.39-2.17-1.16-2.98-1.71-1.22-2.82-1.22-2.03,.41-2.8,1.22c-.77,.81-1.16,1.81-1.16,2.98s.39,2.13,1.16,2.94c.79,.83,1.72,1.24,2.8,1.24Z"/><path d="M312.55,363.61l-4.3,6.5-4.28-6.46v8.88h-2.5v-12.82h2.86l4.08,6.36,4.08-6.36h2.56v12.82h-2.5v-8.92Z"/><path d="M326.41,372.53h-8.3v-12.82h8.3v2.34h-5.8v2.84h5v2.36h-5v2.92h5.8v2.36Z"/><path d="M206.74,383.71v2.34h-3.82v10.48h-2.5v-10.48h-3.8v-2.34h10.12Z"/><path d="M209.82,385.39c1.31-1.31,2.87-1.96,4.68-1.96s3.39,.65,4.7,1.96c1.29,1.31,1.94,2.89,1.94,4.74s-.65,3.43-1.94,4.72c-1.31,1.31-2.87,1.96-4.7,1.96s-3.37-.65-4.68-1.96c-1.29-1.29-1.94-2.87-1.94-4.72s.65-3.45,1.94-4.74Zm4.68,8.92c1.11,0,2.05-.41,2.82-1.22,.77-.81,1.16-1.8,1.16-2.96s-.39-2.17-1.16-2.98-1.71-1.22-2.82-1.22-2.03,.41-2.8,1.22c-.77,.81-1.16,1.81-1.16,2.98s.39,2.13,1.16,2.94c.79,.83,1.72,1.24,2.8,1.24Z"/><path d="M236.7,383.71v2.34h-3.82v10.48h-2.5v-10.48h-3.8v-2.34h10.12Z"/><path d="M249.62,396.53h-2.52v-5.38h-6.1v5.38h-2.5v-12.82h2.5v5.1h6.1v-5.1h2.52v12.82Z"/><path d="M260.98,396.53h-8.3v-12.82h8.3v2.34h-5.8v2.84h5v2.36h-5v2.92h5.8v2.36Z"/><path d="M270.08,396.53h-2.5v-12.82h4.56c1.56,0,2.81,.39,3.74,1.16s1.4,1.8,1.4,3.08-.47,2.31-1.42,3.1c-.93,.77-2.19,1.16-3.76,1.16h-2.02v4.32Zm2.26-10.62h-2.26v4.1h2.26c.69,0,1.25-.19,1.67-.57,.42-.38,.63-.88,.63-1.49s-.21-1.11-.63-1.48c-.42-.37-.98-.56-1.67-.56Z"/><path d="M282,396.53h-2.5v-12.82h4.56c1.52,0,2.73,.37,3.64,1.1,.92,.75,1.38,1.73,1.38,2.94,0,.87-.24,1.62-.71,2.25-.47,.63-1.14,1.11-1.99,1.43l2.98,5.1h-2.9l-2.62-4.72h-1.84v4.72Zm2.26-10.62h-2.26v3.7h2.26c.65,0,1.18-.17,1.58-.51s.6-.79,.6-1.35-.2-.99-.6-1.33c-.4-.34-.93-.51-1.58-.51Z"/><path d="M293.04,385.39c1.31-1.31,2.87-1.96,4.68-1.96s3.39,.65,4.7,1.96c1.29,1.31,1.94,2.89,1.94,4.74s-.65,3.43-1.94,4.72c-1.31,1.31-2.87,1.96-4.7,1.96s-3.37-.65-4.68-1.96c-1.29-1.29-1.94-2.87-1.94-4.72s.65-3.45,1.94-4.74Zm4.68,8.92c1.11,0,2.05-.41,2.82-1.22,.77-.81,1.16-1.8,1.16-2.96s-.39-2.17-1.16-2.98-1.71-1.22-2.82-1.22-2.03,.41-2.8,1.22c-.77,.81-1.16,1.81-1.16,2.98s.39,2.13,1.16,2.94c.79,.83,1.72,1.24,2.8,1.24Z"/><path d="M317.54,389.51v5.9c-1.23,.93-2.84,1.4-4.84,1.4-1.85,0-3.41-.65-4.68-1.96s-1.9-2.88-1.9-4.72,.65-3.45,1.94-4.74c1.28-1.31,2.83-1.96,4.64-1.96,1.99,0,3.57,.59,4.74,1.76l-1.66,1.9c-.89-.77-1.91-1.16-3.06-1.16s-2.02,.41-2.78,1.22c-.77,.81-1.16,1.81-1.16,2.98s.39,2.13,1.18,2.96c.77,.81,1.75,1.22,2.92,1.22,.79,0,1.51-.17,2.16-.5v-3.62l2.5-.68Zm-5.4,0h5.4l-.86,2.24h-4.54v-2.24Z"/><path d="M322.78,396.53h-2.5v-12.82h4.56c1.52,0,2.73,.37,3.64,1.1,.92,.75,1.38,1.73,1.38,2.94,0,.87-.24,1.62-.71,2.25-.47,.63-1.14,1.11-1.99,1.43l2.98,5.1h-2.9l-2.62-4.72h-1.84v4.72Zm2.26-10.62h-2.26v3.7h2.26c.65,0,1.18-.17,1.58-.51s.6-.79,.6-1.35-.2-.99-.6-1.33c-.4-.34-.93-.51-1.58-.51Z"/><path d="M344.56,396.53h-2.78l-1.1-2.88h-5.62l-1.12,2.88h-2.62l5.16-12.82h2.92l5.16,12.82Zm-8.66-5.1h3.92l-1.96-5.08-1.96,5.08Z"/><path d="M357.5,387.61l-4.3,6.5-4.28-6.46v8.88h-2.5v-12.82h2.86l4.08,6.36,4.08-6.36h2.56v12.82h-2.5v-8.92Z"/></g><g><path d="M453.34,365.51v5.9c-1.23,.93-2.84,1.4-4.84,1.4-1.85,0-3.41-.65-4.68-1.96s-1.9-2.88-1.9-4.72,.65-3.45,1.94-4.74c1.28-1.31,2.83-1.96,4.64-1.96,1.99,0,3.57,.59,4.74,1.76l-1.66,1.9c-.89-.77-1.91-1.16-3.06-1.16s-2.02,.41-2.78,1.22c-.77,.81-1.16,1.81-1.16,2.98s.39,2.13,1.18,2.96c.77,.81,1.75,1.22,2.92,1.22,.79,0,1.51-.17,2.16-.5v-3.62l2.5-.68Zm-5.4,0h5.4l-.86,2.24h-4.54v-2.24Z"/><path d="M457.36,361.39c1.31-1.31,2.87-1.96,4.68-1.96s3.39,.65,4.7,1.96c1.29,1.31,1.94,2.89,1.94,4.74s-.65,3.43-1.94,4.72c-1.31,1.31-2.87,1.96-4.7,1.96s-3.37-.65-4.68-1.96c-1.29-1.29-1.94-2.87-1.94-4.72s.65-3.45,1.94-4.74Zm4.68,8.92c1.11,0,2.05-.41,2.82-1.22,.77-.81,1.16-1.8,1.16-2.96s-.39-2.17-1.16-2.98-1.71-1.22-2.82-1.22-2.03,.41-2.8,1.22c-.77,.81-1.16,1.81-1.16,2.98s.39,2.13,1.16,2.94c.79,.83,1.72,1.24,2.8,1.24Z"/><path d="M484.24,359.71v2.34h-3.82v10.48h-2.5v-10.48h-3.8v-2.34h10.12Z"/><path d="M487.32,361.39c1.31-1.31,2.87-1.96,4.68-1.96s3.39,.65,4.7,1.96c1.29,1.31,1.94,2.89,1.94,4.74s-.65,3.43-1.94,4.72c-1.31,1.31-2.87,1.96-4.7,1.96s-3.37-.65-4.68-1.96c-1.29-1.29-1.94-2.87-1.94-4.72s.65-3.45,1.94-4.74Zm4.68,8.92c1.11,0,2.05-.41,2.82-1.22,.77-.81,1.16-1.8,1.16-2.96s-.39-2.17-1.16-2.98-1.71-1.22-2.82-1.22-2.03,.41-2.8,1.22c-.77,.81-1.16,1.81-1.16,2.98s.39,2.13,1.16,2.94c.79,.83,1.72,1.24,2.8,1.24Z"/><path d="M391.63,396.53h-4.36v-12.82h4.26c2.11,0,3.84,.6,5.2,1.8,1.36,1.21,2.04,2.76,2.04,4.64s-.67,3.38-2,4.58c-1.33,1.2-3.05,1.8-5.14,1.8Zm-.12-10.46h-1.68v8.1h1.7c1.36,0,2.47-.37,3.32-1.12,.83-.75,1.24-1.73,1.24-2.94s-.41-2.19-1.24-2.94c-.83-.73-1.94-1.1-3.34-1.1Z"/><path d="M413.19,396.53h-2.78l-1.1-2.88h-5.62l-1.12,2.88h-2.62l5.16-12.82h2.92l5.16,12.82Zm-8.66-5.1h3.92l-1.96-5.08-1.96,5.08Z"/><path d="M423.89,383.71v2.34h-3.82v10.48h-2.5v-10.48h-3.8v-2.34h10.12Z"/><path d="M437.71,396.53h-2.78l-1.1-2.88h-5.62l-1.12,2.88h-2.62l5.16-12.82h2.92l5.16,12.82Zm-8.66-5.1h3.92l-1.96-5.08-1.96,5.08Z"/><path d="M450.65,387.61l-4.3,6.5-4.28-6.46v8.88h-2.5v-12.82h2.86l4.08,6.36,4.08-6.36h2.56v12.82h-2.5v-8.92Z"/><path d="M458.71,396.53h-2.5v-12.82h2.5v12.82Z"/><path d="M472.91,396.53h-2.7l-5.98-8.68v8.68h-2.5v-12.82h2.7l5.98,8.78v-8.78h2.5v12.82Z"/><path d="M484.25,396.53h-8.3v-12.82h8.3v2.34h-5.8v2.84h5v2.36h-5v2.92h5.8v2.36Z"/><path d="M489.05,396.53h-2.5v-12.82h4.56c1.52,0,2.73,.37,3.64,1.1,.92,.75,1.38,1.73,1.38,2.94,0,.87-.24,1.62-.71,2.25-.47,.63-1.14,1.11-1.99,1.43l2.98,5.1h-2.9l-2.62-4.72h-1.84v4.72Zm2.26-10.62h-2.26v3.7h2.26c.65,0,1.18-.17,1.58-.51s.6-.79,.6-1.35-.2-.99-.6-1.33c-.4-.34-.93-.51-1.58-.51Z"/><path d="M507.47,396.53h-4.36v-12.82h4.26c2.11,0,3.84,.6,5.2,1.8,1.36,1.21,2.04,2.76,2.04,4.64s-.67,3.38-2,4.58c-1.33,1.2-3.05,1.8-5.14,1.8Zm-.12-10.46h-1.68v8.1h1.7c1.36,0,2.47-.37,3.32-1.12,.83-.75,1.24-1.73,1.24-2.94s-.41-2.19-1.24-2.94c-.83-.73-1.94-1.1-3.34-1.1Z"/><path d="M518.29,385.39c1.31-1.31,2.87-1.96,4.68-1.96s3.39,.65,4.7,1.96c1.29,1.31,1.94,2.89,1.94,4.74s-.65,3.43-1.94,4.72c-1.31,1.31-2.87,1.96-4.7,1.96s-3.37-.65-4.68-1.96c-1.29-1.29-1.94-2.87-1.94-4.72s.65-3.45,1.94-4.74Zm4.68,8.92c1.11,0,2.05-.41,2.82-1.22,.77-.81,1.16-1.8,1.16-2.96s-.39-2.17-1.16-2.98-1.71-1.22-2.82-1.22-2.03,.41-2.8,1.22c-.77,.81-1.16,1.81-1.16,2.98s.39,2.13,1.16,2.94c.79,.83,1.72,1.24,2.8,1.24Z"/><path d="M530.81,395.09l1.7-1.72c.47,.63,1.03,.94,1.68,.94,1.15,0,1.72-.69,1.72-2.08v-8.52h2.5v8.4c0,1.52-.37,2.68-1.12,3.49s-1.75,1.21-3.02,1.21c-.75,0-1.43-.16-2.05-.47-.62-.31-1.09-.73-1.41-1.25Z"/><path d="M542.63,385.39c1.31-1.31,2.87-1.96,4.68-1.96s3.39,.65,4.7,1.96c1.29,1.31,1.94,2.89,1.94,4.74s-.65,3.43-1.94,4.72c-1.31,1.31-2.87,1.96-4.7,1.96s-3.37-.65-4.68-1.96c-1.29-1.29-1.94-2.87-1.94-4.72s.65-3.45,1.94-4.74Zm4.68,8.92c1.11,0,2.05-.41,2.82-1.22,.77-.81,1.16-1.8,1.16-2.96s-.39-2.17-1.16-2.98-1.71-1.22-2.82-1.22-2.03,.41-2.8,1.22c-.77,.81-1.16,1.81-1.16,2.98s.39,2.13,1.16,2.94c.79,.83,1.72,1.24,2.8,1.24Z"/></g><g><path class="cls-4" d="M797.96,373.63l-4.78,10.9h-2.62l4.82-10.66h-5.72v-2.16h8.3v1.92Z"/><path class="cls-4" d="M803.48,382.51c.71,0,1.27-.2,1.7-.59,.43-.39,.64-.9,.64-1.51s-.21-1.14-.62-1.54c-.41-.4-.98-.6-1.7-.6-.85,0-1.67,.23-2.46,.7l-1.12-.78,1.04-6.48h6.58v2.16h-4.6l-.44,2.6c.41-.19,.91-.28,1.5-.28,1.31,0,2.35,.39,3.14,1.18,.76,.8,1.14,1.83,1.14,3.08s-.43,2.33-1.28,3.14c-.85,.81-2.01,1.22-3.48,1.22-1.95,0-3.41-.73-4.38-2.18l1.78-1.6c.68,.99,1.53,1.48,2.56,1.48Z"/><path class="cls-4" d="M815.24,384.81c-1.47,0-2.68-.63-3.64-1.9s-1.44-2.86-1.44-4.78,.47-3.53,1.42-4.8,2.13-1.9,3.56-1.9,2.7,.63,3.66,1.9,1.43,2.86,1.42,4.78c.03,1.93-.43,3.53-1.38,4.8-.95,1.27-2.15,1.9-3.6,1.9Zm-1.92-3.52c.48,.81,1.11,1.22,1.88,1.22s1.4-.41,1.88-1.22c.47-.81,.7-1.87,.7-3.16s-.24-2.38-.72-3.19-1.12-1.21-1.92-1.21-1.37,.41-1.82,1.22c-.48,.81-.72,1.87-.72,3.16s.24,2.35,.72,3.18Z"/><path class="cls-4" d="M829.5,384.53h-2.5v-12.82h4.56c1.56,0,2.81,.39,3.74,1.16s1.4,1.8,1.4,3.08-.47,2.31-1.42,3.1c-.93,.77-2.19,1.16-3.76,1.16h-2.02v4.32Zm2.26-10.62h-2.26v4.1h2.26c.69,0,1.25-.19,1.67-.57,.42-.38,.63-.88,.63-1.49s-.21-1.11-.63-1.48c-.42-.37-.98-.56-1.67-.56Z"/><path class="cls-4" d="M840.2,373.39c1.31-1.31,2.87-1.96,4.68-1.96s3.39,.65,4.7,1.96c1.29,1.31,1.94,2.89,1.94,4.74s-.65,3.43-1.94,4.72c-1.31,1.31-2.87,1.96-4.7,1.96s-3.37-.65-4.68-1.96c-1.29-1.29-1.94-2.87-1.94-4.72s.65-3.45,1.94-4.74Zm4.68,8.92c1.11,0,2.05-.41,2.82-1.22,.77-.81,1.16-1.8,1.16-2.96s-.39-2.17-1.16-2.98-1.71-1.22-2.82-1.22-2.03,.41-2.8,1.22c-.77,.81-1.16,1.81-1.16,2.98s.39,2.13,1.16,2.94c.79,.83,1.72,1.24,2.8,1.24Z"/><path class="cls-4" d="M856.44,384.53h-2.5v-12.82h2.5v12.82Z"/><path class="cls-4" d="M870.64,384.53h-2.7l-5.98-8.68v8.68h-2.5v-12.82h2.7l5.98,8.78v-8.78h2.5v12.82Z"/><path class="cls-4" d="M882.52,371.71v2.34h-3.82v10.48h-2.5v-10.48h-3.8v-2.34h10.12Z"/><path class="cls-4" d="M893.2,373.59l-1.72,1.7c-.29-.44-.71-.8-1.26-1.08-.55-.28-1.13-.42-1.74-.42s-1.05,.12-1.39,.35-.51,.54-.51,.93c0,.36,.17,.67,.5,.92,.33,.25,.75,.45,1.25,.59,.5,.14,1.04,.32,1.62,.54s1.12,.46,1.62,.72c.5,.26,.92,.65,1.25,1.16,.33,.51,.5,1.12,.5,1.83,0,1.17-.45,2.13-1.34,2.86-.91,.75-2.09,1.12-3.56,1.12-2.32,0-3.99-.77-5-2.3l1.78-1.66c.8,1.07,1.89,1.6,3.26,1.6,.69,0,1.23-.13,1.61-.39,.38-.26,.57-.62,.57-1.09,0-.27-.08-.51-.25-.72-.17-.21-.42-.4-.75-.57-.33-.17-.66-.31-.97-.43-.31-.12-.72-.26-1.21-.42-.49-.16-.89-.3-1.18-.42-.71-.28-1.28-.7-1.72-1.25-.44-.55-.66-1.22-.66-2.01,0-1.08,.44-1.97,1.32-2.68,.85-.69,1.97-1.04,3.36-1.04,1,0,1.91,.19,2.72,.58,.81,.39,1.45,.91,1.9,1.58Z"/></g><circle class="cls-4" cx="1238.25" cy="330.86" r="25.33"/><circle class="cls-4" cx="1741.59" cy="330.86" r="25.33"/><g class="cls-6"><g><g><rect class="cls-5" x="159.04" y="199.9" width="239.8" height="152.25" rx="7.88" ry="7.88"/><g class="cls-10"><path class="cls-3" d="M350.28,194.81l-87.75,47.84c-2.45,1.33-2.45,3.5,0,4.83l87.75,47.84c2.45,1.33,6.41,1.33,8.86,0l87.75-47.84c2.45-1.33,2.45-3.5,0-4.83l-87.75-47.84c-2.45-1.33-6.41-1.33-8.86,0Z"/><path class="cls-3" d="M350.28,257.72l-87.75,47.84c-2.45,1.33-2.45,3.5,0,4.83l87.75,47.84c2.45,1.33,6.41,1.33,8.86,0l87.75-47.84c2.45-1.33,2.45-3.5,0-4.83l-87.75-47.84c-2.45-1.33-6.41-1.33-8.86,0Z"/><path class="cls-3" d="M350.28,226.26l-87.75,47.84c-2.45,1.33-2.45,3.5,0,4.83l87.75,47.84c2.45,1.33,6.41,1.33,8.86,0l87.75-47.84c2.45-1.33,2.45-3.5,0-4.83l-87.75-47.84c-2.45-1.33-6.41-1.33-8.86,0Z"/></g></g><path id="Light_Effect" class="cls-18" d="M398.84,342.33c0,5.4-4.39,9.82-9.75,9.82H168.8c-5.36,0-9.75-4.42-9.75-9.82V209.72c0-5.4,4.39-9.82,9.75-9.82h220.29c5.36,0,9.75,4.42,9.75,9.82v132.61Z"/></g></g><g><path class="cls-4" d="M233.49,251.36l-6.36,9.21-6.36-9.18v13.12h-5.61v-21.79h6.46l5.88,8.91,5.88-8.91h5.71v21.79h-5.61v-13.16Z"/><path class="cls-4" d="M257.66,264.52h-14.48v-21.79h14.48v5.27h-8.87v2.86h7.51v5.27h-7.51v3.13h8.87v5.27Z"/><path class="cls-4" d="M279.05,251.36l-6.36,9.21-6.36-9.18v13.12h-5.61v-21.79h6.46l5.88,8.91,5.88-8.91h5.71v21.79h-5.61v-13.16Z"/><path class="cls-4" d="M298.09,264.52h-9.35v-21.79h8.91c2.22,0,4.06,.58,5.51,1.73,1.45,1.16,2.18,2.66,2.18,4.52,0,2.02-1.07,3.5-3.2,4.45,1.13,.34,2.03,.93,2.69,1.77,.66,.84,.99,1.87,.99,3.09,0,1.77-.66,3.24-1.97,4.42-1.34,1.2-3.25,1.8-5.75,1.8Zm-.95-16.86h-2.79v3.64h2.79c.73,0,1.3-.17,1.72-.49s.63-.78,.63-1.34-.22-.98-.65-1.31c-.43-.33-1-.49-1.7-.49Zm.44,8.19h-3.23v3.74h3.23c.7,0,1.27-.17,1.7-.51,.43-.34,.65-.8,.65-1.39s-.21-1.01-.63-1.34c-.42-.33-.99-.49-1.72-.49Z"/><path class="cls-4" d="M323.01,264.52h-14.48v-21.79h14.48v5.27h-8.87v2.86h7.51v5.27h-7.51v3.13h8.87v5.27Z"/><path class="cls-4" d="M331.68,264.52h-5.61v-21.79h7.92c2.79,0,5.02,.66,6.7,1.97,1.68,1.34,2.52,3.08,2.52,5.24,0,1.41-.35,2.65-1.05,3.72-.7,1.08-1.7,1.92-2.99,2.53l4.59,8.33h-6.49l-3.74-7.28h-1.84v7.28Zm2.75-16.86h-2.75v4.66h2.75c.84,0,1.52-.21,2.04-.65s.78-1.01,.78-1.73c0-.68-.26-1.23-.78-1.65-.52-.42-1.2-.63-2.04-.63Z"/></g><g class="cls-13"><g><g><rect class="cls-21" x="721.73" y="199.9" width="239.8" height="152.25" rx="7.88" ry="7.88"/><g class="cls-12"><path class="cls-3" d="M912.97,194.81l-87.75,47.84c-2.45,1.33-2.45,3.5,0,4.83l87.75,47.84c2.45,1.33,6.41,1.33,8.86,0l87.75-47.84c2.45-1.33,2.45-3.5,0-4.83l-87.75-47.84c-2.45-1.33-6.41-1.33-8.86,0Z"/><path class="cls-3" d="M912.97,257.72l-87.75,47.84c-2.45,1.33-2.45,3.5,0,4.83l87.75,47.84c2.45,1.33,6.41,1.33,8.86,0l87.75-47.84c2.45-1.33,2.45-3.5,0-4.83l-87.75-47.84c-2.45-1.33-6.41-1.33-8.86,0Z"/><path class="cls-3" d="M912.97,226.26l-87.75,47.84c-2.45,1.33-2.45,3.5,0,4.83l87.75,47.84c2.45,1.33,6.41,1.33,8.86,0l87.75-47.84c2.45-1.33,2.45-3.5,0-4.83l-87.75-47.84c-2.45-1.33-6.41-1.33-8.86,0Z"/></g></g><path id="Light_Effect-2" class="cls-19" d="M961.53,342.33c0,5.4-4.39,9.82-9.75,9.82h-220.3c-5.36,0-9.75-4.42-9.75-9.82V209.72c0-5.4,4.39-9.82,9.75-9.82h220.29c5.36,0,9.75,4.42,9.75,9.82v132.61Z"/></g></g><g><path class="cls-4" d="M777.09,264.52h-6.19l-1.5-4.11h-8.53l-1.5,4.11h-5.88l8.5-21.79h6.6l8.5,21.79Zm-14.42-9.08h4.93l-2.45-6.77-2.48,6.77Z"/><path class="cls-4" d="M787.39,264.52h-7.92v-21.79h7.92c3.56,0,6.51,1.03,8.84,3.09,2.33,2.06,3.5,4.68,3.5,7.85s-1.17,5.71-3.5,7.75c-2.33,2.06-5.28,3.09-8.84,3.09Zm-.1-16.52h-2.04v11.25h2.07c1.93,0,3.47-.52,4.64-1.55,1.17-1.03,1.75-2.4,1.75-4.1s-.59-3.03-1.77-4.06c-1.18-1.03-2.73-1.55-4.66-1.55Z"/><path class="cls-4" d="M801.26,242.73h6.19l5.1,15.71,5.07-15.71h5.88l-7.82,21.79h-6.6l-7.82-21.79Z"/><path class="cls-4" d="M828.39,245.55c2.22-2.22,4.91-3.33,8.06-3.33s5.83,1.11,8.09,3.33c2.22,2.27,3.33,4.96,3.33,8.09s-1.11,5.84-3.33,8.06c-2.27,2.22-4.96,3.33-8.09,3.33s-5.86-1.12-8.06-3.37c-2.24-2.22-3.37-4.91-3.37-8.06s1.12-5.84,3.37-8.06Zm2.65,8.06c0,1.61,.53,2.98,1.6,4.11,1.06,1.13,2.33,1.7,3.81,1.7s2.78-.57,3.84-1.7c1.04-1.11,1.56-2.47,1.56-4.08s-.52-3-1.56-4.11c-1.07-1.13-2.35-1.7-3.84-1.7s-2.77,.56-3.81,1.67c-1.07,1.13-1.6,2.5-1.6,4.11Z"/><path class="cls-4" d="M869.56,245.45l-3.74,4.28c-1.22-1.27-2.74-1.9-4.56-1.9-1.5,0-2.75,.56-3.77,1.67-1.04,1.11-1.56,2.48-1.56,4.11s.53,2.98,1.6,4.11c1.06,1.13,2.4,1.7,4.01,1.7,.82,0,1.62-.17,2.4-.51,.78-.34,1.41-.8,1.89-1.39l3.74,4.15c-1.86,2.24-4.66,3.37-8.4,3.37-3.2,0-5.87-1.11-8.02-3.33-2.15-2.22-3.23-4.92-3.23-8.09s1.11-5.84,3.33-8.06c2.22-2.22,4.87-3.33,7.96-3.33,3.63,0,6.41,1.08,8.36,3.23Z"/><path class="cls-4" d="M894.01,264.52h-6.19l-1.5-4.11h-8.53l-1.5,4.11h-5.88l8.5-21.79h6.6l8.5,21.79Zm-14.42-9.08h4.93l-2.45-6.77-2.48,6.77Z"/><path class="cls-4" d="M912.23,242.73v5.27h-5.98v16.52h-5.61v-16.52h-5.95v-5.27h17.54Z"/><path class="cls-4" d="M929.1,264.52h-14.48v-21.79h14.48v5.27h-8.87v2.86h7.51v5.27h-7.51v3.13h8.87v5.27Z"/></g><g class="cls-11"><g><g><rect class="cls-23" x="1118.35" y="199.9" width="239.8" height="152.25" rx="7.88" ry="7.88"/><g class="cls-16"><path class="cls-3" d="M1309.59,194.81l-87.75,47.84c-2.45,1.33-2.45,3.5,0,4.83l87.75,47.84c2.45,1.33,6.41,1.33,8.86,0l87.75-47.84c2.45-1.33,2.45-3.5,0-4.83l-87.75-47.84c-2.45-1.33-6.41-1.33-8.86,0Z"/><path class="cls-3" d="M1309.59,257.72l-87.75,47.84c-2.45,1.33-2.45,3.5,0,4.83l87.75,47.84c2.45,1.33,6.41,1.33,8.86,0l87.75-47.84c2.45-1.33,2.45-3.5,0-4.83l-87.75-47.84c-2.45-1.33-6.41-1.33-8.86,0Z"/><path class="cls-3" d="M1309.59,226.26l-87.75,47.84c-2.45,1.33-2.45,3.5,0,4.83l87.75,47.84c2.45,1.33,6.41,1.33,8.86,0l87.75-47.84c2.45-1.33,2.45-3.5,0-4.83l-87.75-47.84c-2.45-1.33-6.41-1.33-8.86,0Z"/></g></g><path id="Light_Effect-3" class="cls-20" d="M1358.15,342.71c0,5.42-4.39,9.84-9.75,9.84h-220.3c-5.36,0-9.75-4.43-9.75-9.84V209.75c0-5.41,4.39-9.84,9.75-9.84h220.29c5.36,0,9.75,4.43,9.75,9.84v132.97Z"/></g></g><g><path class="cls-4" d="M1184.04,264.52h-14.48v-21.79h14.48v5.27h-8.87v2.86h7.51v5.27h-7.51v3.13h8.87v5.27Z"/><path class="cls-4" d="M1206.72,264.52h-6.02l-7.99-12.41v12.41h-5.61v-21.79h6.02l7.99,12.61v-12.61h5.61v21.79Z"/><path class="cls-4" d="M1232.69,264.52h-6.19l-1.5-4.11h-8.53l-1.5,4.11h-5.88l8.5-21.79h6.6l8.5,21.79Zm-14.42-9.08h4.93l-2.45-6.77-2.48,6.77Z"/><path class="cls-4" d="M1244.42,264.52h-9.35v-21.79h8.91c2.22,0,4.06,.58,5.51,1.73,1.45,1.16,2.18,2.66,2.18,4.52,0,2.02-1.07,3.5-3.2,4.45,1.13,.34,2.03,.93,2.69,1.77,.66,.84,.99,1.87,.99,3.09,0,1.77-.66,3.24-1.97,4.42-1.34,1.2-3.25,1.8-5.75,1.8Zm-.95-16.86h-2.79v3.64h2.79c.73,0,1.3-.17,1.72-.49,.42-.33,.63-.78,.63-1.34s-.22-.98-.65-1.31c-.43-.33-1-.49-1.7-.49Zm.44,8.19h-3.23v3.74h3.23c.7,0,1.27-.17,1.7-.51,.43-.34,.65-.8,.65-1.39s-.21-1.01-.63-1.34c-.42-.33-.99-.49-1.72-.49Z"/><path class="cls-4" d="M1270.37,264.52h-15.5v-21.79h5.61v16.52h9.89v5.27Z"/><path class="cls-4" d="M1287.23,264.52h-14.48v-21.79h14.48v5.27h-8.87v2.86h7.51v5.27h-7.51v3.13h8.87v5.27Z"/><path class="cls-4" d="M1295.9,264.52h-5.61v-21.79h7.92c2.79,0,5.02,.66,6.7,1.97,1.68,1.34,2.52,3.08,2.52,5.24,0,1.41-.35,2.65-1.05,3.72-.7,1.08-1.7,1.92-2.99,2.53l4.59,8.33h-6.49l-3.74-7.28h-1.84v7.28Zm2.75-16.86h-2.75v4.66h2.75c.84,0,1.52-.21,2.04-.65s.78-1.01,.78-1.73c0-.68-.26-1.23-.78-1.65-.52-.42-1.2-.63-2.04-.63Z"/></g><g class="cls-15"><g><g><rect class="cls-22" x="1621.69" y="199.9" width="239.8" height="152.25" rx="7.88" ry="7.88"/><g class="cls-14"><path class="cls-3" d="M1812.93,194.81l-87.75,47.84c-2.45,1.33-2.45,3.5,0,4.83l87.75,47.84c2.45,1.33,6.41,1.33,8.86,0l87.75-47.84c2.45-1.33,2.45-3.5,0-4.83l-87.75-47.84c-2.45-1.33-6.41-1.33-8.86,0Z"/><path class="cls-3" d="M1812.93,257.72l-87.75,47.84c-2.45,1.33-2.45,3.5,0,4.83l87.75,47.84c2.45,1.33,6.41,1.33,8.86,0l87.75-47.84c2.45-1.33,2.45-3.5,0-4.83l-87.75-47.84c-2.45-1.33-6.41-1.33-8.86,0Z"/><path class="cls-3" d="M1812.93,226.26l-87.75,47.84c-2.45,1.33-2.45,3.5,0,4.83l87.75,47.84c2.45,1.33,6.41,1.33,8.86,0l87.75-47.84c2.45-1.33,2.45-3.5,0-4.83l-87.75-47.84c-2.45-1.33-6.41-1.33-8.86,0Z"/></g></g><path id="Light_Effect-4" class="cls-17" d="M1861.49,342.33c0,5.4-4.39,9.82-9.75,9.82h-220.3c-5.36,0-9.75-4.42-9.75-9.82V209.72c0-5.4,4.39-9.82,9.75-9.82h220.29c5.36,0,9.75,4.42,9.75,9.82v132.61Z"/></g></g><g><path class="cls-4" d="M1679.63,245.45l-3.74,4.28c-1.22-1.27-2.74-1.9-4.56-1.9-1.5,0-2.75,.56-3.77,1.67-1.04,1.11-1.56,2.48-1.56,4.11s.53,2.98,1.6,4.11c1.06,1.13,2.4,1.7,4.01,1.7,.82,0,1.62-.17,2.4-.51,.78-.34,1.41-.8,1.89-1.39l3.74,4.15c-1.86,2.24-4.66,3.37-8.4,3.37-3.2,0-5.87-1.11-8.02-3.33-2.15-2.22-3.23-4.92-3.23-8.09s1.11-5.84,3.33-8.06c2.22-2.22,4.87-3.33,7.96-3.33,3.63,0,6.41,1.08,8.36,3.23Z"/><path class="cls-4" d="M1704.07,264.52h-6.19l-1.5-4.11h-8.53l-1.5,4.11h-5.88l8.5-21.79h6.6l8.5,21.79Zm-14.42-9.08h4.93l-2.45-6.77-2.48,6.77Z"/><path class="cls-4" d="M1722.3,242.73v5.27h-5.98v16.52h-5.61v-16.52h-5.95v-5.27h17.54Z"/><path class="cls-4" d="M1746.57,264.52h-6.19l-1.5-4.11h-8.53l-1.5,4.11h-5.88l8.5-21.79h6.6l8.5,21.79Zm-14.42-9.08h4.93l-2.45-6.77-2.48,6.77Z"/><path class="cls-4" d="M1764.46,264.52h-15.5v-21.79h5.61v16.52h9.89v5.27Z"/><path class="cls-4" d="M1778.67,264.52h-5.61v-7.14l-7.92-14.65h6.22l4.62,8.77,4.69-8.77h5.92l-7.92,14.65v7.14Z"/><path class="cls-4" d="M1805.15,246.2l-3.81,3.81c-1.2-1.68-2.79-2.52-4.76-2.52-1.38,0-2.07,.44-2.07,1.33,0,.45,.31,.85,.94,1.19,.62,.34,1.61,.73,2.97,1.17,1.36,.44,2.36,.8,2.99,1.07,1.11,.5,2.01,1.24,2.7,2.23,.69,.99,1.04,2.15,1.04,3.49,0,2.06-.82,3.75-2.45,5.07-1.66,1.34-3.74,2.01-6.26,2.01-4.17,0-7.12-1.36-8.84-4.08l3.98-3.74c1.22,1.7,2.88,2.55,4.96,2.55,1.72,0,2.58-.52,2.58-1.56,0-.38-.2-.72-.59-1.02s-.91-.55-1.53-.77c-.62-.21-1.31-.44-2.06-.66-.75-.23-1.5-.51-2.26-.87-.76-.35-1.45-.77-2.07-1.24-.62-.48-1.13-1.12-1.53-1.92s-.59-1.73-.59-2.77c0-1.95,.78-3.56,2.35-4.83,1.59-1.27,3.58-1.9,5.98-1.9,1.81,0,3.45,.35,4.9,1.05,1.45,.7,2.6,1.68,3.43,2.92Z"/><path class="cls-4" d="M1823.89,242.73v5.27h-5.98v16.52h-5.61v-16.52h-5.95v-5.27h17.54Z"/></g><rect class="cls-9" x="1160.75" y="355.9" width="155" height="42.56" rx="21.28" ry="21.28"/><g><path class="cls-4" d="M1181.27,382.51c.71,0,1.27-.2,1.7-.59,.43-.39,.64-.9,.64-1.51s-.21-1.14-.62-1.54c-.41-.4-.98-.6-1.7-.6-.85,0-1.67,.23-2.46,.7l-1.12-.78,1.04-6.48h6.58v2.16h-4.6l-.44,2.6c.41-.19,.91-.28,1.5-.28,1.31,0,2.35,.39,3.14,1.18,.76,.8,1.14,1.83,1.14,3.08s-.43,2.33-1.28,3.14c-.85,.81-2.01,1.22-3.48,1.22-1.95,0-3.41-.73-4.38-2.18l1.78-1.6c.68,.99,1.53,1.48,2.56,1.48Z"/><path class="cls-4" d="M1190.43,384.31c-.32,.31-.7,.46-1.14,.46s-.81-.15-1.12-.46c-.31-.31-.46-.68-.46-1.12s.15-.82,.46-1.14c.31-.31,.68-.46,1.12-.46s.82,.15,1.14,.46c.31,.32,.46,.7,.46,1.14s-.15,.81-.46,1.12Z"/><path class="cls-4" d="M1197.61,384.81c-1.47,0-2.68-.63-3.64-1.9s-1.44-2.86-1.44-4.78,.47-3.53,1.42-4.8c.95-1.27,2.13-1.9,3.56-1.9s2.7,.63,3.66,1.9,1.43,2.86,1.42,4.78c.03,1.93-.43,3.53-1.38,4.8s-2.15,1.9-3.6,1.9Zm-1.92-3.52c.48,.81,1.11,1.22,1.88,1.22s1.4-.41,1.88-1.22c.47-.81,.7-1.87,.7-3.16s-.24-2.38-.72-3.19c-.48-.81-1.12-1.21-1.92-1.21s-1.37,.41-1.82,1.22c-.48,.81-.72,1.87-.72,3.16s.24,2.35,.72,3.18Z"/><path class="cls-4" d="M1209.55,384.81c-1.47,0-2.68-.63-3.64-1.9s-1.44-2.86-1.44-4.78,.47-3.53,1.42-4.8c.95-1.27,2.13-1.9,3.56-1.9s2.7,.63,3.66,1.9,1.43,2.86,1.42,4.78c.03,1.93-.43,3.53-1.38,4.8-.95,1.27-2.15,1.9-3.6,1.9Zm-1.92-3.52c.48,.81,1.11,1.22,1.88,1.22s1.4-.41,1.88-1.22c.47-.81,.7-1.87,.7-3.16s-.24-2.38-.72-3.19c-.48-.81-1.12-1.21-1.92-1.21s-1.37,.41-1.82,1.22c-.48,.81-.72,1.87-.72,3.16s.24,2.35,.72,3.18Z"/><path class="cls-4" d="M1221.49,384.81c-1.47,0-2.68-.63-3.64-1.9s-1.44-2.86-1.44-4.78,.47-3.53,1.42-4.8c.95-1.27,2.13-1.9,3.56-1.9s2.7,.63,3.66,1.9,1.43,2.86,1.42,4.78c.03,1.93-.43,3.53-1.38,4.8-.95,1.27-2.15,1.9-3.6,1.9Zm-1.92-3.52c.48,.81,1.11,1.22,1.88,1.22s1.4-.41,1.88-1.22c.47-.81,.7-1.87,.7-3.16s-.24-2.38-.72-3.19c-.48-.81-1.12-1.21-1.92-1.21s-1.37,.41-1.82,1.22c-.48,.81-.72,1.87-.72,3.16s.24,2.35,.72,3.18Z"/><path class="cls-4" d="M1235.75,384.53h-2.5v-12.82h4.56c1.56,0,2.81,.39,3.74,1.16,.93,.77,1.4,1.8,1.4,3.08s-.47,2.31-1.42,3.1c-.93,.77-2.19,1.16-3.76,1.16h-2.02v4.32Zm2.26-10.62h-2.26v4.1h2.26c.69,0,1.25-.19,1.67-.57,.42-.38,.63-.88,.63-1.49s-.21-1.11-.63-1.48c-.42-.37-.98-.56-1.67-.56Z"/><path class="cls-4" d="M1246.45,373.39c1.31-1.31,2.87-1.96,4.68-1.96s3.39,.65,4.7,1.96c1.29,1.31,1.94,2.89,1.94,4.74s-.65,3.43-1.94,4.72-2.87,1.96-4.7,1.96-3.37-.65-4.68-1.96c-1.29-1.29-1.94-2.87-1.94-4.72s.65-3.45,1.94-4.74Zm4.68,8.92c1.11,0,2.05-.41,2.82-1.22,.77-.81,1.16-1.8,1.16-2.96s-.39-2.17-1.16-2.98-1.71-1.22-2.82-1.22-2.03,.41-2.8,1.22-1.16,1.81-1.16,2.98,.39,2.13,1.16,2.94c.79,.83,1.72,1.24,2.8,1.24Z"/><path class="cls-4" d="M1262.69,384.53h-2.5v-12.82h2.5v12.82Z"/><path class="cls-4" d="M1276.89,384.53h-2.7l-5.98-8.68v8.68h-2.5v-12.82h2.7l5.98,8.78v-8.78h2.5v12.82Z"/><path class="cls-4" d="M1288.77,371.71v2.34h-3.82v10.48h-2.5v-10.48h-3.8v-2.34h10.12Z"/><path class="cls-4" d="M1299.45,373.59l-1.72,1.7c-.29-.44-.71-.8-1.26-1.08-.55-.28-1.13-.42-1.74-.42s-1.05,.12-1.39,.35-.51,.54-.51,.93c0,.36,.17,.67,.5,.92,.33,.25,.75,.45,1.25,.59,.5,.14,1.04,.32,1.62,.54s1.12,.46,1.62,.72c.5,.26,.92,.65,1.25,1.16,.33,.51,.5,1.12,.5,1.83,0,1.17-.45,2.13-1.34,2.86-.91,.75-2.09,1.12-3.56,1.12-2.32,0-3.99-.77-5-2.3l1.78-1.66c.8,1.07,1.89,1.6,3.26,1.6,.69,0,1.23-.13,1.61-.39,.38-.26,.57-.62,.57-1.09,0-.27-.08-.51-.25-.72-.17-.21-.42-.4-.75-.57-.33-.17-.66-.31-.97-.43s-.72-.26-1.21-.42-.89-.3-1.18-.42c-.71-.28-1.28-.7-1.72-1.25-.44-.55-.66-1.22-.66-2.01,0-1.08,.44-1.97,1.32-2.68,.85-.69,1.97-1.04,3.36-1.04,1,0,1.91,.19,2.72,.58s1.45,.91,1.9,1.58Z"/></g><rect class="cls-9" x="1656.59" y="355.9" width="170" height="42.56" rx="19.62" ry="19.62"/><g><path class="cls-4" d="M1683.78,384.53h-8.72v-1.86l4.82-4.64c.91-.87,1.36-1.7,1.36-2.5,0-.52-.18-.95-.54-1.29-.36-.34-.83-.51-1.42-.51-1.07,0-1.91,.62-2.54,1.86l-1.9-1.26c.93-1.93,2.45-2.9,4.56-2.9,1.31,0,2.35,.39,3.12,1.16,.79,.79,1.18,1.75,1.18,2.88,0,1.29-.7,2.6-2.1,3.92l-3.2,2.98h5.38v2.16Z"/><path class="cls-4" d="M1689.7,382.51c.71,0,1.27-.2,1.7-.59,.43-.39,.64-.9,.64-1.51s-.21-1.14-.62-1.54c-.41-.4-.98-.6-1.7-.6-.85,0-1.67,.23-2.46,.7l-1.12-.78,1.04-6.48h6.58v2.16h-4.6l-.44,2.6c.41-.19,.91-.28,1.5-.28,1.31,0,2.35,.39,3.14,1.18,.76,.8,1.14,1.83,1.14,3.08s-.43,2.33-1.28,3.14c-.85,.81-2.01,1.22-3.48,1.22-1.95,0-3.41-.73-4.38-2.18l1.78-1.6c.68,.99,1.53,1.48,2.56,1.48Z"/><path class="cls-4" d="M1698.86,384.31c-.32,.31-.7,.46-1.14,.46s-.81-.15-1.12-.46c-.31-.31-.46-.68-.46-1.12s.15-.82,.46-1.14c.31-.31,.68-.46,1.12-.46s.82,.15,1.14,.46c.31,.32,.46,.7,.46,1.14s-.15,.81-.46,1.12Z"/><path class="cls-4" d="M1706.04,384.81c-1.47,0-2.68-.63-3.64-1.9s-1.44-2.86-1.44-4.78,.47-3.53,1.42-4.8c.95-1.27,2.13-1.9,3.56-1.9s2.7,.63,3.66,1.9,1.43,2.86,1.42,4.78c.03,1.93-.43,3.53-1.38,4.8s-2.15,1.9-3.6,1.9Zm-1.92-3.52c.48,.81,1.11,1.22,1.88,1.22s1.4-.41,1.88-1.22c.47-.81,.7-1.87,.7-3.16s-.24-2.38-.72-3.19c-.48-.81-1.12-1.21-1.92-1.21s-1.37,.41-1.82,1.22c-.48,.81-.72,1.87-.72,3.16s.24,2.35,.72,3.18Z"/><path class="cls-4" d="M1717.98,384.81c-1.47,0-2.68-.63-3.64-1.9s-1.44-2.86-1.44-4.78,.47-3.53,1.42-4.8c.95-1.27,2.13-1.9,3.56-1.9s2.7,.63,3.66,1.9,1.43,2.86,1.42,4.78c.03,1.93-.43,3.53-1.38,4.8-.95,1.27-2.15,1.9-3.6,1.9Zm-1.92-3.52c.48,.81,1.11,1.22,1.88,1.22s1.4-.41,1.88-1.22c.47-.81,.7-1.87,.7-3.16s-.24-2.38-.72-3.19c-.48-.81-1.12-1.21-1.92-1.21s-1.37,.41-1.82,1.22c-.48,.81-.72,1.87-.72,3.16s.24,2.35,.72,3.18Z"/><path class="cls-4" d="M1729.92,384.81c-1.47,0-2.68-.63-3.64-1.9s-1.44-2.86-1.44-4.78,.47-3.53,1.42-4.8c.95-1.27,2.13-1.9,3.56-1.9s2.7,.63,3.66,1.9,1.43,2.86,1.42,4.78c.03,1.93-.43,3.53-1.38,4.8-.95,1.27-2.15,1.9-3.6,1.9Zm-1.92-3.52c.48,.81,1.11,1.22,1.88,1.22s1.4-.41,1.88-1.22c.47-.81,.7-1.87,.7-3.16s-.24-2.38-.72-3.19c-.48-.81-1.12-1.21-1.92-1.21s-1.37,.41-1.82,1.22c-.48,.81-.72,1.87-.72,3.16s.24,2.35,.72,3.18Z"/><path class="cls-4" d="M1744.18,384.53h-2.5v-12.82h4.56c1.56,0,2.81,.39,3.74,1.16,.93,.77,1.4,1.8,1.4,3.08s-.47,2.31-1.42,3.1c-.93,.77-2.19,1.16-3.76,1.16h-2.02v4.32Zm2.26-10.62h-2.26v4.1h2.26c.69,0,1.25-.19,1.67-.57,.42-.38,.63-.88,.63-1.49s-.21-1.11-.63-1.48c-.42-.37-.98-.56-1.67-.56Z"/><path class="cls-4" d="M1754.88,373.39c1.31-1.31,2.87-1.96,4.68-1.96s3.39,.65,4.7,1.96c1.29,1.31,1.94,2.89,1.94,4.74s-.65,3.43-1.94,4.72-2.87,1.96-4.7,1.96-3.37-.65-4.68-1.96c-1.29-1.29-1.94-2.87-1.94-4.72s.65-3.45,1.94-4.74Zm4.68,8.92c1.11,0,2.05-.41,2.82-1.22,.77-.81,1.16-1.8,1.16-2.96s-.39-2.17-1.16-2.98-1.71-1.22-2.82-1.22-2.03,.41-2.8,1.22-1.16,1.81-1.16,2.98,.39,2.13,1.16,2.94c.79,.83,1.72,1.24,2.8,1.24Z"/><path class="cls-4" d="M1771.12,384.53h-2.5v-12.82h2.5v12.82Z"/><path class="cls-4" d="M1785.32,384.53h-2.7l-5.98-8.68v8.68h-2.5v-12.82h2.7l5.98,8.78v-8.78h2.5v12.82Z"/><path class="cls-4" d="M1797.2,371.71v2.34h-3.82v10.48h-2.5v-10.48h-3.8v-2.34h10.12Z"/><path class="cls-4" d="M1807.88,373.59l-1.72,1.7c-.29-.44-.71-.8-1.26-1.08-.55-.28-1.13-.42-1.74-.42s-1.05,.12-1.39,.35-.51,.54-.51,.93c0,.36,.17,.67,.5,.92,.33,.25,.75,.45,1.25,.59,.5,.14,1.04,.32,1.62,.54s1.12,.46,1.62,.72c.5,.26,.92,.65,1.25,1.16,.33,.51,.5,1.12,.5,1.83,0,1.17-.45,2.13-1.34,2.86-.91,.75-2.09,1.12-3.56,1.12-2.32,0-3.99-.77-5-2.3l1.78-1.66c.8,1.07,1.89,1.6,3.26,1.6,.69,0,1.23-.13,1.61-.39,.38-.26,.57-.62,.57-1.09,0-.27-.08-.51-.25-.72-.17-.21-.42-.4-.75-.57-.33-.17-.66-.31-.97-.43s-.72-.26-1.21-.42-.89-.3-1.18-.42c-.71-.28-1.28-.7-1.72-1.25-.44-.55-.66-1.22-.66-2.01,0-1.08,.44-1.97,1.32-2.68,.85-.69,1.97-1.04,3.36-1.04,1,0,1.91,.19,2.72,.58s1.45,.91,1.9,1.58Z"/></g></g></g></svg>